  0
SECTION
  2
HEADER
  9
$ACADVER
  1
AC1009
  9
$DWGCODEPAGE
  3
ansi_1252
  9
$INSBASE
 10
0.0
 20
0.0
 30
0.0
  9
$EXTMIN
 10
0.0
 20
0.0
 30
0.0
  9
$EXTMAX
 10
152.979477
 20
217.244385
 30
2.0
  9
$LIMMIN
 10
0.0
 20
0.0
  9
$LIMMAX
 10
420.0
 20
297.0
  9
$ORTHOMODE
 70
     0
  9
$REGENMODE
 70
     1
  9
$FILLMODE
 70
     1
  9
$QTEXTMODE
 70
     0
  9
$MIRRTEXT
 70
     1
  9
$DRAGMODE
 70
     2
  9
$LTSCALE
 40
1.0
  9
$OSMODE
 70
     0
  9
$ATTMODE
 70
     1
  9
$TEXTSIZE
 40
2.5
  9
$TRACEWID
 40
1.0
  9
$TEXTSTYLE
  7
STANDARD
  9
$CLAYER
  8
0
  9
$CELTYPE
  6
BYLAYER
  9
$CECOLOR
 62
   256
  9
$DIMSCALE
 40
1.0
  9
$DIMASZ
 40
2.5
  9
$DIMEXO
 40
0.625
  9
$DIMDLI
 40
3.75
  9
$DIMRND
 40
0.0
  9
$DIMDLE
 40
0.0
  9
$DIMEXE
 40
1.25
  9
$DIMTP
 40
0.0
  9
$DIMTM
 40
0.0
  9
$DIMTXT
 40
2.5
  9
$DIMCEN
 40
2.5
  9
$DIMTSZ
 40
0.0
  9
$DIMTOL
 70
     0
  9
$DIMLIM
 70
     0
  9
$DIMTIH
 70
     0
  9
$DIMTOH
 70
     0
  9
$DIMSE1
 70
     0
  9
$DIMSE2
 70
     0
  9
$DIMTAD
 70
     1
  9
$DIMZIN
 70
     8
  9
$DIMBLK
  1

  9
$DIMASO
 70
     1
  9
$DIMSHO
 70
     1
  9
$DIMPOST
  1

  9
$DIMAPOST
  1

  9
$DIMALT
 70
     0
  9
$DIMALTD
 70
     3
  9
$DIMALTF
 40
0.03937
  9
$DIMLFAC
 40
1.0
  9
$DIMTOFL
 70
     1
  9
$DIMTVP
 40
0.0
  9
$DIMTIX
 70
     0
  9
$DIMSOXD
 70
     0
  9
$DIMSAH
 70
     0
  9
$DIMBLK1
  1

  9
$DIMBLK2
  1

  9
$DIMSTYLE
  2

  9
$DIMCLRD
 70
     0
  9
$DIMCLRE
 70
     0
  9
$DIMCLRT
 70
     0
  9
$DIMTFAC
 40
1.0
  9
$DIMGAP
 40
0.625
  9
$LUNITS
 70
     2
  9
$LUPREC
 70
     4
  9
$AXISMODE
 70
     0
  9
$AXISUNIT
 10
0.0
 20
0.0
  9
$SKETCHINC
 40
1.0
  9
$FILLETRAD
 40
2.5
  9
$AUNITS
 70
     0
  9
$AUPREC
 70
     0
  9
$MENU
  1
.
  9
$ELEVATION
 40
0.0
  9
$PELEVATION
 40
0.0
  9
$THICKNESS
 40
0.0
  9
$LIMCHECK
 70
     0
  9
$BLIPMODE
 70
     1
  9
$CHAMFERA
 40
2.5
  9
$CHAMFERB
 40
2.5
  9
$SKPOLY
 70
     0
  9
$TDCREATE
 40
0.000000000
  9
$TDUPDATE
 40
0.000000000
  9
$TDINDWG
 40
0.0000000000
  9
$TDUSRTIMER
 40
0.0000000000
  9
$USRTIMER
 70
     1
  9
$ANGBASE
 50
0.0
  9
$ANGDIR
 70
     0
  9
$PDMODE
 70
     0
  9
$PDSIZE
 40
0.0
  9
$PLINEWID
 40
0.0
  9
$COORDS
 70
     0
  9
$SPLFRAME
 70
     0
  9
$SPLINETYPE
 70
     6
  9
$SPLINESEGS
 70
     8
  9
$ATTDIA
 70
     0
  9
$ATTREQ
 70
     1
  9
$HANDLING
 70
     0
  9
$HANDSEED
  5
3
  9
$SURFTAB1
 70
     6
  9
$SURFTAB2
 70
     6
  9
$SURFTYPE
 70
     6
  9
$SURFU
 70
     6
  9
$SURFV
 70
     6
  9
$UCSNAME
  2

  9
$UCSORG
 10
0.0
 20
0.0
 30
0.0
  9
$UCSXDIR
 10
1.0
 20
0.0
 30
0.0
  9
$UCSYDIR
 10
0.0
 20
1.0
 30
0.0
  9
$PUCSNAME
  2

  9
$PUCSORG
 10
0.0
 20
0.0
 30
0.0
  9
$PUCSXDIR
 10
1.0
 20
0.0
 30
0.0
  9
$PUCSYDIR
 10
0.0
 20
1.0
 30
0.0
  9
$USERI1
 70
     0
  9
$USERI2
 70
     0
  9
$USERI3
 70
     0
  9
$USERI4
 70
     0
  9
$USERI5
 70
     0
  9
$USERR1
 40
0.0
  9
$USERR2
 40
0.0
  9
$USERR3
 40
0.0
  9
$USERR4
 40
0.0
  9
$USERR5
 40
0.0
  9
$WORLDVIEW
 70
     1
  9
$SHADEDGE
 70
     3
  9
$SHADEDIF
 70
    70
  9
$TILEMODE
 70
     1
  9
$MAXACTVP
 70
    48
  9
$PINSBASE
 10
0.0
 20
0.0
 30
0.0
  9
$PLIMCHECK
 70
     0
  9
$PEXTMIN
 10
0.0
 20
0.0
 30
0.0
  9
$PEXTMAX
 10
152.979477
 20
217.244385
 30
2.0
  9
$PLIMMIN
 10
0.0
 20
0.0
  9
$PLIMMAX
 10
420.0
 20
297.0
  9
$UNITMODE
 70
     0
  9
$VISRETAIN
 70
     0
  9
$PLINEGEN
 70
     0
  9
$PSLTSCALE
 70
     1
  9
$TREEDEPTH
 70
  3020
  0
ENDSEC
  0
SECTION
  2
TABLES
  0
TABLE
  2
VPORT
 70
     1
  0
VPORT
  2
*ACTIVE
 70
     0
 10
0.0
 20
0.0
 11
1.0
 21
1.0
 12
6.591288
 22
4.579184
 13
0.0
 23
0.0
 14
1.0
 24
1.0
 15
0.0
 25
0.0
 16
0.0
 26
0.0
 36
1.0
 17
0.0
 27
0.0
 37
0.0
 40
9.158369
 41
0.688564
 42
50.0
 43
0.0
 44
0.0
 50
0.0
 51
0.0
 71
     0
 72
   100
 73
     1
 74
     1
 75
     0
 76
     0
 77
     0
 78
     0
  0
ENDTAB
  0
TABLE
  2
LTYPE
 70
     2
  0
LTYPE
  2
CONTINUOUS
 70
    64
  3
Solid line
 72
    65
 73
     0
 40
0.0
  0
LTYPE
  2
DASHDOT
 70
     0
  3
 __ . __ . __ . __ . __ . __ . __ . 
 72
    65
 73
     4
 40
18.5
 49
12.0
 49
-3.0
 49
0.5
 49
-3.0
  0
ENDTAB
  0
TABLE
  2
LAYER
 70
     1
  0
LAYER
  2
0
 70
     0
 62
     7
  6
CONTINUOUS
  0
ENDTAB
  0
TABLE
  2
STYLE
 70
     1
  0
STYLE
  2
STANDARD
 70
     0
 40
0.0
 41
1.0
 50
0.0
 71
     0
 42
0.0
  3
txt
  4

  0
ENDTAB
  0
TABLE
  2
VIEW
 70
     0
  0
ENDTAB
  0
TABLE
  2
UCS
 70
     0
  0
ENDTAB
  0
TABLE
  2
APPID
 70
     1
  0
APPID
  2
ACAD
 70
     0
  0
ENDTAB
  0
TABLE
  2
DIMSTYLE
 70
     1
  0
DIMSTYLE
  2
STANDARD
 70
     0
  3

  4

  5

  6

  7

 40
1.0
 41
0.18
 42
0.0625
 43
0.38
 44
0.18
 45
0.0
 46
0.0
 47
0.0
 48
0.0
 71
     0
 72
     0
 73
     1
 74
     1
 75
     0
 76
     0
 77
     0
 78
     0
140
0.18
141
0.09
142
0.0
143
25.4
144
1.0
145
0.0
146
1.0
147
0.09
170
     0
171
     2
172
     0
173
     0
174
     0
175
     0
176
     0
177
     0
178
     0
  0
ENDTAB
  0
ENDSEC
  0
SECTION
  2
BLOCKS
  0
ENDSEC
  0
SECTION
  2
ENTITIES
  0
VIEWPORT
  8
0
 62
     0
 67
     1
 68
     1
 10
0.0
 20
0.0
 30
0.0
 40
1000.0
 41
1000.0
 69
     1
1001
ACAD
1000
MVIEW
1002
{
1070
    16
1010
0.0
1020
0.0
1030
0.0
1010
0.0
1020
0.0
1030
1.0
1040
0.0
1040
1000.0
1040
0.0
1040
0.0
1040
50.0
1040
0.0
1040
0.0
1070
     0
1070
   100
1070
     1
1070
     1
1070
     0
1070
     0
1070
     0
1070
     0
1040
0.0
1040
0.0
1040
0.0
1040
1.0
1040
1.0
1040
1.0
1040
1.0
1070
     0
1002
{
1002
}
1002
}
  0
LINE
  8
0
  6
DASHDOT
 62
     7
 10
121.008224
 20
106.275383
 30
0.0
 11
117.888229
 21
106.275383
 31
0.0
210
0.0
220
0.0
230
1.0
  0
LINE
  8
0
  6
DASHDOT
 62
     7
 10
119.448227
 20
107.835388
 30
0.0
 11
119.448227
 21
104.715385
 31
0.0
210
0.0
220
0.0
230
1.0
  0
LINE
  8
0
  6
DASHDOT
 62
     7
 10
109.608231
 20
106.525383
 30
0.0
 11
107.788223
 21
106.525383
 31
0.0
210
0.0
220
0.0
230
1.0
  0
LINE
  8
0
  6
DASHDOT
 62
     7
 10
108.698227
 20
107.435387
 30
0.0
 11
108.698227
 21
105.615387
 31
0.0
210
0.0
220
0.0
230
1.0
  0
LINE
  8
0
  6
DASHDOT
 62
     7
 10
96.368225
 20
114.685387
 30
0.0
 11
94.028229
 21
114.685387
 31
0.0
210
0.0
220
0.0
230
1.0
  0
LINE
  8
0
  6
DASHDOT
 62
     7
 10
95.198227
 20
115.855385
 30
0.0
 11
95.198227
 21
113.515388
 31
0.0
210
0.0
220
0.0
230
1.0
  0
LINE
  8
0
  6
DASHDOT
 62
     7
 10
113.958229
 20
106.525383
 30
0.0
 11
112.138229
 21
106.525383
 31
0.0
210
0.0
220
0.0
230
1.0
  0
LINE
  8
0
  6
DASHDOT
 62
     7
 10
113.048225
 20
107.435387
 30
0.0
 11
113.048225
 21
105.615387
 31
0.0
210
0.0
220
0.0
230
1.0
  0
LINE
  8
0
  6
DASHDOT
 62
     7
 10
96.108231
 20
106.525383
 30
0.0
 11
94.288223
 21
106.525383
 31
0.0
210
0.0
220
0.0
230
1.0
  0
LINE
  8
0
  6
DASHDOT
 62
     7
 10
95.198227
 20
107.435387
 30
0.0
 11
95.198227
 21
105.615387
 31
0.0
210
0.0
220
0.0
230
1.0
  0
LINE
  8
0
  6
DASHDOT
 62
     7
 10
91.758224
 20
106.525383
 30
0.0
 11
89.938225
 21
106.525383
 31
0.0
210
0.0
220
0.0
230
1.0
  0
LINE
  8
0
  6
DASHDOT
 62
     7
 10
90.848228
 20
107.435387
 30
0.0
 11
90.848228
 21
105.615387
 31
0.0
210
0.0
220
0.0
230
1.0
  0
LINE
  8
0
  6
DASHDOT
 62
     7
 10
109.868225
 20
114.685387
 30
0.0
 11
107.528229
 21
114.685387
 31
0.0
210
0.0
220
0.0
230
1.0
  0
LINE
  8
0
  6
DASHDOT
 62
     7
 10
108.698227
 20
115.855385
 30
0.0
 11
108.698227
 21
113.515388
 31
0.0
210
0.0
220
0.0
230
1.0
  0
LINE
  8
0
  6
DASHDOT
 62
     7
 10
60.471977
 20
113.181076
 30
0.0
 11
58.651978
 21
113.181076
 31
0.0
210
0.0
220
0.0
230
1.0
  0
LINE
  8
0
  6
DASHDOT
 62
     7
 10
59.561977
 20
114.09108
 30
0.0
 11
59.561977
 21
112.271072
 31
0.0
210
0.0
220
0.0
230
1.0
  0
LINE
  8
0
  6
DASHDOT
 62
     7
 10
145.244476
 20
113.181076
 30
0.0
 11
143.424469
 21
113.181076
 31
0.0
210
0.0
220
0.0
230
1.0
  0
LINE
  8
0
  6
DASHDOT
 62
     7
 10
144.334473
 20
114.09108
 30
0.0
 11
144.334473
 21
112.271072
 31
0.0
210
0.0
220
0.0
230
1.0
  0
LINE
  8
0
  6
DASHDOT
 62
     7
 10
141.058228
 20
201.275391
 30
0.0
 11
137.938232
 21
201.275391
 31
0.0
210
0.0
220
0.0
230
1.0
  0
LINE
  8
0
  6
DASHDOT
 62
     7
 10
139.49823
 20
202.835388
 30
0.0
 11
139.49823
 21
199.715393
 31
0.0
210
0.0
220
0.0
230
1.0
  0
LINE
  8
0
  6
DASHDOT
 62
     7
 10
139.522491
 20
193.731369
 30
0.0
 11
137.87149
 21
193.731369
 31
0.0
210
0.0
220
0.0
230
1.0
  0
LINE
  8
0
  6
DASHDOT
 62
     7
 10
138.696991
 20
194.556854
 30
0.0
 11
138.696991
 21
192.905869
 31
0.0
210
0.0
220
0.0
230
1.0
  0
LINE
  8
0
  6
DASHDOT
 62
     7
 10
139.738861
 20
138.054871
 30
0.0
 11
137.918854
 21
138.054871
 31
0.0
210
0.0
220
0.0
230
1.0
  0
LINE
  8
0
  6
DASHDOT
 62
     7
 10
138.828857
 20
138.964874
 30
0.0
 11
138.828857
 21
137.144882
 31
0.0
210
0.0
220
0.0
230
1.0
  0
LINE
  8
0
  6
DASHDOT
 62
     7
 10
65.9776
 20
138.054871
 30
0.0
 11
64.1576
 21
138.054871
 31
0.0
210
0.0
220
0.0
230
1.0
  0
LINE
  8
0
  6
DASHDOT
 62
     7
 10
65.067596
 20
138.964874
 30
0.0
 11
65.067596
 21
137.144882
 31
0.0
210
0.0
220
0.0
230
1.0
  0
LINE
  8
0
  6
DASHDOT
 62
     7
 10
70.382065
 20
135.30658
 30
0.0
 11
68.562065
 21
135.30658
 31
0.0
210
0.0
220
0.0
230
1.0
  0
LINE
  8
0
  6
DASHDOT
 62
     7
 10
69.472061
 20
136.216568
 30
0.0
 11
69.472061
 21
134.396576
 31
0.0
210
0.0
220
0.0
230
1.0
  0
LINE
  8
0
  6
DASHDOT
 62
     7
 10
65.935608
 20
143.246292
 30
0.0
 11
64.115616
 21
143.246292
 31
0.0
210
0.0
220
0.0
230
1.0
  0
LINE
  8
0
  6
DASHDOT
 62
     7
 10
65.025612
 20
144.156281
 30
0.0
 11
65.025612
 21
142.336288
 31
0.0
210
0.0
220
0.0
230
1.0
  0
LINE
  8
0
  6
DASHDOT
 62
     7
 10
135.334381
 20
135.30658
 30
0.0
 11
133.514389
 21
135.30658
 31
0.0
210
0.0
220
0.0
230
1.0
  0
LINE
  8
0
  6
DASHDOT
 62
     7
 10
134.424393
 20
136.216568
 30
0.0
 11
134.424393
 21
134.396576
 31
0.0
210
0.0
220
0.0
230
1.0
  0
LINE
  8
0
  6
DASHDOT
 62
     7
 10
145.244476
 20
143.281067
 30
0.0
 11
143.424469
 21
143.281067
 31
0.0
210
0.0
220
0.0
230
1.0
  0
LINE
  8
0
  6
DASHDOT
 62
     7
 10
144.334473
 20
144.191071
 30
0.0
 11
144.334473
 21
142.371078
 31
0.0
210
0.0
220
0.0
230
1.0
  0
LINE
  8
0
  6
DASHDOT
 62
     7
 10
139.780838
 20
143.246292
 30
0.0
 11
137.960846
 21
143.246292
 31
0.0
210
0.0
220
0.0
230
1.0
  0
LINE
  8
0
  6
DASHDOT
 62
     7
 10
138.87085
 20
144.156281
 30
0.0
 11
138.87085
 21
142.336288
 31
0.0
210
0.0
220
0.0
230
1.0
  0
LINE
  8
0
  6
DASHDOT
 62
     7
 10
60.471977
 20
143.281067
 30
0.0
 11
58.651978
 21
143.281067
 31
0.0
210
0.0
220
0.0
230
1.0
  0
LINE
  8
0
  6
DASHDOT
 62
     7
 10
59.561977
 20
144.191071
 30
0.0
 11
59.561977
 21
142.371078
 31
0.0
210
0.0
220
0.0
230
1.0
  0
LINE
  8
0
  6
DASHDOT
 62
     7
 10
135.334381
 20
105.206573
 30
0.0
 11
133.514389
 21
105.206573
 31
0.0
210
0.0
220
0.0
230
1.0
  0
LINE
  8
0
  6
DASHDOT
 62
     7
 10
134.424393
 20
106.116577
 30
0.0
 11
134.424393
 21
104.29657
 31
0.0
210
0.0
220
0.0
230
1.0
  0
LINE
  8
0
  6
DASHDOT
 62
     7
 10
70.382065
 20
105.206573
 30
0.0
 11
68.562065
 21
105.206573
 31
0.0
210
0.0
220
0.0
230
1.0
  0
LINE
  8
0
  6
DASHDOT
 62
     7
 10
69.472061
 20
106.116577
 30
0.0
 11
69.472061
 21
104.29657
 31
0.0
210
0.0
220
0.0
230
1.0
  0
LINE
  8
0
  6
DASHDOT
 62
     7
 10
86.548225
 20
108.875389
 30
0.0
 11
84.728226
 21
108.875389
 31
0.0
210
0.0
220
0.0
230
1.0
  0
LINE
  8
0
  6
DASHDOT
 62
     7
 10
85.638229
 20
109.785385
 30
0.0
 11
85.638229
 21
107.965385
 31
0.0
210
0.0
220
0.0
230
1.0
  0
LINE
  8
0
  6
DASHDOT
 62
     7
 10
76.708229
 20
110.475388
 30
0.0
 11
74.888229
 21
110.475388
 31
0.0
210
0.0
220
0.0
230
1.0
  0
LINE
  8
0
  6
DASHDOT
 62
     7
 10
75.798225
 20
111.385384
 30
0.0
 11
75.798225
 21
109.565384
 31
0.0
210
0.0
220
0.0
230
1.0
  0
LINE
  8
0
  6
DASHDOT
 62
     7
 10
141.933731
 20
179.897217
 30
0.0
 11
137.773743
 21
179.897217
 31
0.0
210
0.0
220
0.0
230
1.0
  0
LINE
  8
0
  6
DASHDOT
 62
     7
 10
139.853729
 20
181.977234
 30
0.0
 11
139.853729
 21
177.81723
 31
0.0
210
0.0
220
0.0
230
1.0
  0
LINE
  8
0
  6
DASHDOT
 62
     7
 10
136.820007
 20
188.080887
 30
0.0
 11
132.660019
 21
188.080887
 31
0.0
210
0.0
220
0.0
230
1.0
  0
LINE
  8
0
  6
DASHDOT
 62
     7
 10
134.740021
 20
190.160889
 30
0.0
 11
134.740021
 21
186.000885
 31
0.0
210
0.0
220
0.0
230
1.0
  0
LINE
  8
0
  6
DASHDOT
 62
     7
 10
141.676529
 20
195.077362
 30
0.0
 11
140.025528
 21
195.077362
 31
0.0
210
0.0
220
0.0
230
1.0
  0
LINE
  8
0
  6
DASHDOT
 62
     7
 10
140.851028
 20
195.902863
 30
0.0
 11
140.851028
 21
194.251862
 31
0.0
210
0.0
220
0.0
230
1.0
  0
LINE
  8
0
  6
DASHDOT
 62
     7
 10
145.338425
 20
179.630737
 30
0.0
 11
143.687439
 21
179.630737
 31
0.0
210
0.0
220
0.0
230
1.0
  0
LINE
  8
0
  6
DASHDOT
 62
     7
 10
144.512939
 20
180.456238
 30
0.0
 11
144.512939
 21
178.805237
 31
0.0
210
0.0
220
0.0
230
1.0
  0
LINE
  8
0
  6
DASHDOT
 62
     7
 10
147.492477
 20
180.976715
 30
0.0
 11
145.841476
 21
180.976715
 31
0.0
210
0.0
220
0.0
230
1.0
  0
LINE
  8
0
  6
DASHDOT
 62
     7
 10
146.666977
 20
181.802216
 30
0.0
 11
146.666977
 21
180.151215
 31
0.0
210
0.0
220
0.0
230
1.0
  0
LINE
  8
0
  6
DASHDOT
 62
     7
 10
131.740387
 20
181.352356
 30
0.0
 11
130.583389
 21
181.352356
 31
0.0
210
0.0
220
0.0
230
1.0
  0
LINE
  8
0
  6
DASHDOT
 62
     7
 10
131.161896
 20
181.930847
 30
0.0
 11
131.161896
 21
180.773865
 31
0.0
210
0.0
220
0.0
230
1.0
  0
LINE
  8
0
  6
DASHDOT
 62
     7
 10
132.816132
 20
179.630829
 30
0.0
 11
131.659119
 21
179.630829
 31
0.0
210
0.0
220
0.0
230
1.0
  0
LINE
  8
0
  6
DASHDOT
 62
     7
 10
132.237625
 20
180.20932
 30
0.0
 11
132.237625
 21
179.052322
 31
0.0
210
0.0
220
0.0
230
1.0
  0
LINE
  8
0
  6
DASHDOT
 62
     7
 10
131.202606
 20
177.419815
 30
0.0
 11
130.045593
 21
177.419815
 31
0.0
210
0.0
220
0.0
230
1.0
  0
LINE
  8
0
  6
DASHDOT
 62
     7
 10
130.6241
 20
177.998322
 30
0.0
 11
130.6241
 21
176.841309
 31
0.0
210
0.0
220
0.0
230
1.0
  0
LINE
  8
0
  6
DASHDOT
 62
     7
 10
133.891861
 20
177.909271
 30
0.0
 11
132.734863
 21
177.909271
 31
0.0
210
0.0
220
0.0
230
1.0
  0
LINE
  8
0
  6
DASHDOT
 62
     7
 10
133.313354
 20
178.487793
 30
0.0
 11
133.313354
 21
177.33078
 31
0.0
210
0.0
220
0.0
230
1.0
  0
LINE
  8
0
  6
DASHDOT
 62
     7
 10
132.278336
 20
175.698273
 30
0.0
 11
131.121338
 21
175.698273
 31
0.0
210
0.0
220
0.0
230
1.0
  0
LINE
  8
0
  6
DASHDOT
 62
     7
 10
131.699829
 20
176.276779
 30
0.0
 11
131.699829
 21
175.119781
 31
0.0
210
0.0
220
0.0
230
1.0
  0
LINE
  8
0
  6
DASHDOT
 62
     7
 10
134.96759
 20
176.187744
 30
0.0
 11
133.810593
 21
176.187744
 31
0.0
210
0.0
220
0.0
230
1.0
  0
LINE
  8
0
  6
DASHDOT
 62
     7
 10
134.389099
 20
176.766235
 30
0.0
 11
134.389099
 21
175.609253
 31
0.0
210
0.0
220
0.0
230
1.0
  0
LINE
  8
0
  6
DASHDOT
 62
     7
 10
133.354065
 20
173.976746
 30
0.0
 11
132.197067
 21
173.976746
 31
0.0
210
0.0
220
0.0
230
1.0
  0
LINE
  8
0
  6
DASHDOT
 62
     7
 10
132.775574
 20
174.555237
 30
0.0
 11
132.775574
 21
173.398239
 31
0.0
210
0.0
220
0.0
230
1.0
  0
LINE
  8
0
  6
DASHDOT
 62
     7
 10
129.045822
 20
180.871368
 30
0.0
 11
127.888824
 21
180.871368
 31
0.0
210
0.0
220
0.0
230
1.0
  0
LINE
  8
0
  6
DASHDOT
 62
     7
 10
128.467331
 20
181.449875
 30
0.0
 11
128.467331
 21
180.292877
 31
0.0
210
0.0
220
0.0
230
1.0
  0
LINE
  8
0
  6
DASHDOT
 62
     7
 10
130.664658
 20
183.073898
 30
0.0
 11
129.50766
 21
183.073898
 31
0.0
210
0.0
220
0.0
230
1.0
  0
LINE
  8
0
  6
DASHDOT
 62
     7
 10
130.086151
 20
183.652405
 30
0.0
 11
130.086151
 21
182.495392
 31
0.0
210
0.0
220
0.0
230
1.0
  0
LINE
  8
0
  6
DASHDOT
 62
     7
 10
127.970093
 20
182.592911
 30
0.0
 11
126.813095
 21
182.592911
 31
0.0
210
0.0
220
0.0
230
1.0
  0
LINE
  8
0
  6
DASHDOT
 62
     7
 10
127.391594
 20
183.171417
 30
0.0
 11
127.391594
 21
182.014404
 31
0.0
210
0.0
220
0.0
230
1.0
  0
LINE
  8
0
  6
DASHDOT
 62
     7
 10
129.588913
 20
184.795441
 30
0.0
 11
128.431915
 21
184.795441
 31
0.0
210
0.0
220
0.0
230
1.0
  0
LINE
  8
0
  6
DASHDOT
 62
     7
 10
129.010422
 20
185.373932
 30
0.0
 11
129.010422
 21
184.216934
 31
0.0
210
0.0
220
0.0
230
1.0
  0
LINE
  8
0
  6
DASHDOT
 62
     7
 10
126.894356
 20
184.314453
 30
0.0
 11
125.737358
 21
184.314453
 31
0.0
210
0.0
220
0.0
230
1.0
  0
LINE
  8
0
  6
DASHDOT
 62
     7
 10
126.315857
 20
184.892944
 30
0.0
 11
126.315857
 21
183.735947
 31
0.0
210
0.0
220
0.0
230
1.0
  0
LINE
  8
0
  6
DASHDOT
 62
     7
 10
133.659378
 20
191.44339
 30
0.0
 11
131.618378
 21
191.44339
 31
0.0
210
0.0
220
0.0
230
1.0
  0
LINE
  8
0
  6
DASHDOT
 62
     7
 10
132.638885
 20
192.463898
 30
0.0
 11
132.638885
 21
190.422897
 31
0.0
210
0.0
220
0.0
230
1.0
  0
LINE
  8
0
  6
DASHDOT
 62
     7
 10
142.975372
 20
176.534714
 30
0.0
 11
140.934357
 21
176.534714
 31
0.0
210
0.0
220
0.0
230
1.0
  0
LINE
  8
0
  6
DASHDOT
 62
     7
 10
141.954865
 20
177.555206
 30
0.0
 11
141.954865
 21
175.514221
 31
0.0
210
0.0
220
0.0
230
1.0
  0
LINE
  8
0
  6
DASHDOT
 62
     7
 10
149.646515
 20
182.322723
 30
0.0
 11
147.995514
 21
182.322723
 31
0.0
210
0.0
220
0.0
230
1.0
  0
LINE
  8
0
  6
DASHDOT
 62
     7
 10
148.821014
 20
183.148224
 30
0.0
 11
148.821014
 21
181.497223
 31
0.0
210
0.0
220
0.0
230
1.0
  0
LINE
  8
0
  6
DASHDOT
 62
     7
 10
65.935608
 20
113.146286
 30
0.0
 11
64.115616
 21
113.146286
 31
0.0
210
0.0
220
0.0
230
1.0
  0
LINE
  8
0
  6
DASHDOT
 62
     7
 10
65.025612
 20
114.05629
 30
0.0
 11
65.025612
 21
112.23629
 31
0.0
210
0.0
220
0.0
230
1.0
  0
LINE
  8
0
  6
DASHDOT
 62
     7
 10
65.9776
 20
107.95488
 30
0.0
 11
64.1576
 21
107.95488
 31
0.0
210
0.0
220
0.0
230
1.0
  0
LINE
  8
0
  6
DASHDOT
 62
     7
 10
65.067596
 20
108.864876
 30
0.0
 11
65.067596
 21
107.044876
 31
0.0
210
0.0
220
0.0
230
1.0
  0
LINE
  8
0
  6
DASHDOT
 62
     7
 10
139.780838
 20
113.146286
 30
0.0
 11
137.960846
 21
113.146286
 31
0.0
210
0.0
220
0.0
230
1.0
  0
LINE
  8
0
  6
DASHDOT
 62
     7
 10
138.87085
 20
114.05629
 30
0.0
 11
138.87085
 21
112.23629
 31
0.0
210
0.0
220
0.0
230
1.0
  0
LINE
  8
0
  6
DASHDOT
 62
     7
 10
139.738861
 20
107.95488
 30
0.0
 11
137.918854
 21
107.95488
 31
0.0
210
0.0
220
0.0
230
1.0
  0
LINE
  8
0
  6
DASHDOT
 62
     7
 10
138.828857
 20
108.864876
 30
0.0
 11
138.828857
 21
107.044876
 31
0.0
210
0.0
220
0.0
230
1.0
  0
LINE
  8
0
  6
DASHDOT
 62
     7
 10
70.086029
 20
176.188019
 30
0.0
 11
68.929031
 21
176.188019
 31
0.0
210
0.0
220
0.0
230
1.0
  0
LINE
  8
0
  6
DASHDOT
 62
     7
 10
69.50753
 20
176.766525
 30
0.0
 11
69.50753
 21
175.609528
 31
0.0
210
0.0
220
0.0
230
1.0
  0
LINE
  8
0
  6
DASHDOT
 62
     7
 10
66.122894
 20
179.897491
 30
0.0
 11
61.962894
 21
179.897491
 31
0.0
210
0.0
220
0.0
230
1.0
  0
LINE
  8
0
  6
DASHDOT
 62
     7
 10
64.042892
 20
181.977509
 30
0.0
 11
64.042892
 21
177.817505
 31
0.0
210
0.0
220
0.0
230
1.0
  0
LINE
  8
0
  6
DASHDOT
 62
     7
 10
74.388977
 20
183.074173
 30
0.0
 11
73.231979
 21
183.074173
 31
0.0
210
0.0
220
0.0
230
1.0
  0
LINE
  8
0
  6
DASHDOT
 62
     7
 10
73.810471
 20
183.652679
 30
0.0
 11
73.810471
 21
182.495667
 31
0.0
210
0.0
220
0.0
230
1.0
  0
LINE
  8
0
  6
DASHDOT
 62
     7
 10
71.236618
 20
188.081177
 30
0.0
 11
67.076614
 21
188.081177
 31
0.0
210
0.0
220
0.0
230
1.0
  0
LINE
  8
0
  6
DASHDOT
 62
     7
 10
69.156616
 20
190.161163
 30
0.0
 11
69.156616
 21
186.00116
 31
0.0
210
0.0
220
0.0
230
1.0
  0
LINE
  8
0
  6
DASHDOT
 62
     7
 10
75.464706
 20
184.795715
 30
0.0
 11
74.307709
 21
184.795715
 31
0.0
210
0.0
220
0.0
230
1.0
  0
LINE
  8
0
  6
DASHDOT
 62
     7
 10
74.886215
 20
185.374207
 30
0.0
 11
74.886215
 21
184.217209
 31
0.0
210
0.0
220
0.0
230
1.0
  0
LINE
  8
0
  6
DASHDOT
 62
     7
 10
63.871098
 20
195.077637
 30
0.0
 11
62.2201
 21
195.077637
 31
0.0
210
0.0
220
0.0
230
1.0
  0
LINE
  8
0
  6
DASHDOT
 62
     7
 10
63.045597
 20
195.903137
 30
0.0
 11
63.045597
 21
194.252136
 31
0.0
210
0.0
220
0.0
230
1.0
  0
LINE
  8
0
  6
DASHDOT
 62
     7
 10
72.278244
 20
191.44368
 30
0.0
 11
70.237244
 21
191.44368
 31
0.0
210
0.0
220
0.0
230
1.0
  0
LINE
  8
0
  6
DASHDOT
 62
     7
 10
71.257744
 20
192.464172
 30
0.0
 11
71.257744
 21
190.423187
 31
0.0
210
0.0
220
0.0
230
1.0
  0
LINE
  8
0
  6
DASHDOT
 62
     7
 10
68.179184
 20
192.385651
 30
0.0
 11
66.528183
 21
192.385651
 31
0.0
210
0.0
220
0.0
230
1.0
  0
LINE
  8
0
  6
DASHDOT
 62
     7
 10
67.353683
 20
193.211151
 30
0.0
 11
67.353683
 21
191.56015
 31
0.0
210
0.0
220
0.0
230
1.0
  0
LINE
  8
0
  6
DASHDOT
 62
     7
 10
55.901112
 20
182.322998
 30
0.0
 11
54.250114
 21
182.322998
 31
0.0
210
0.0
220
0.0
230
1.0
  0
LINE
  8
0
  6
DASHDOT
 62
     7
 10
55.075611
 20
183.148499
 30
0.0
 11
55.075611
 21
181.497498
 31
0.0
210
0.0
220
0.0
230
1.0
  0
LINE
  8
0
  6
DASHDOT
 62
     7
 10
58.055157
 20
180.97699
 30
0.0
 11
56.404156
 21
180.97699
 31
0.0
210
0.0
220
0.0
230
1.0
  0
LINE
  8
0
  6
DASHDOT
 62
     7
 10
57.229656
 20
181.80249
 30
0.0
 11
57.229656
 21
180.151489
 31
0.0
210
0.0
220
0.0
230
1.0
  0
LINE
  8
0
  6
DASHDOT
 62
     7
 10
71.699554
 20
173.97702
 30
0.0
 11
70.542557
 21
173.97702
 31
0.0
210
0.0
220
0.0
230
1.0
  0
LINE
  8
0
  6
DASHDOT
 62
     7
 10
71.121056
 20
174.555511
 30
0.0
 11
71.121056
 21
173.398529
 31
0.0
210
0.0
220
0.0
230
1.0
  0
LINE
  8
0
  6
DASHDOT
 62
     7
 10
73.31324
 20
181.352631
 30
0.0
 11
72.156235
 21
181.352631
 31
0.0
210
0.0
220
0.0
230
1.0
  0
LINE
  8
0
  6
DASHDOT
 62
     7
 10
72.734741
 20
181.931137
 30
0.0
 11
72.734741
 21
180.774139
 31
0.0
210
0.0
220
0.0
230
1.0
  0
LINE
  8
0
  6
DASHDOT
 62
     7
 10
77.083534
 20
182.593185
 30
0.0
 11
75.926537
 21
182.593185
 31
0.0
210
0.0
220
0.0
230
1.0
  0
LINE
  8
0
  6
DASHDOT
 62
     7
 10
76.505035
 20
183.171692
 30
0.0
 11
76.505035
 21
182.014679
 31
0.0
210
0.0
220
0.0
230
1.0
  0
LINE
  8
0
  6
DASHDOT
 62
     7
 10
72.237503
 20
179.631104
 30
0.0
 11
71.080505
 21
179.631104
 31
0.0
210
0.0
220
0.0
230
1.0
  0
LINE
  8
0
  6
DASHDOT
 62
     7
 10
71.659004
 20
180.209595
 30
0.0
 11
71.659004
 21
179.052597
 31
0.0
210
0.0
220
0.0
230
1.0
  0
LINE
  8
0
  6
DASHDOT
 62
     7
 10
62.962261
 20
176.534988
 30
0.0
 11
60.921265
 21
176.534988
 31
0.0
210
0.0
220
0.0
230
1.0
  0
LINE
  8
0
  6
DASHDOT
 62
     7
 10
61.941765
 20
177.555481
 30
0.0
 11
61.941765
 21
175.514496
 31
0.0
210
0.0
220
0.0
230
1.0
  0
LINE
  8
0
  6
DASHDOT
 62
     7
 10
73.851028
 20
177.420105
 30
0.0
 11
72.694031
 21
177.420105
 31
0.0
210
0.0
220
0.0
230
1.0
  0
LINE
  8
0
  6
DASHDOT
 62
     7
 10
73.27253
 20
177.998596
 30
0.0
 11
73.27253
 21
176.841583
 31
0.0
210
0.0
220
0.0
230
1.0
  0
LINE
  8
0
  6
DASHDOT
 62
     7
 10
76.007797
 20
180.871643
 30
0.0
 11
74.8508
 21
180.871643
 31
0.0
210
0.0
220
0.0
230
1.0
  0
LINE
  8
0
  6
DASHDOT
 62
     7
 10
75.429298
 20
181.45015
 30
0.0
 11
75.429298
 21
180.293152
 31
0.0
210
0.0
220
0.0
230
1.0
  0
LINE
  8
0
  6
DASHDOT
 62
     7
 10
71.161766
 20
177.909561
 30
0.0
 11
70.004768
 21
177.909561
 31
0.0
210
0.0
220
0.0
230
1.0
  0
LINE
  8
0
  6
DASHDOT
 62
     7
 10
70.583267
 20
178.488068
 30
0.0
 11
70.583267
 21
177.331055
 31
0.0
210
0.0
220
0.0
230
1.0
  0
LINE
  8
0
  6
DASHDOT
 62
     7
 10
78.159271
 20
184.314728
 30
0.0
 11
77.002274
 21
184.314728
 31
0.0
210
0.0
220
0.0
230
1.0
  0
LINE
  8
0
  6
DASHDOT
 62
     7
 10
77.580772
 20
184.893219
 30
0.0
 11
77.580772
 21
183.736221
 31
0.0
210
0.0
220
0.0
230
1.0
  0
LINE
  8
0
  6
DASHDOT
 62
     7
 10
72.775291
 20
175.698547
 30
0.0
 11
71.618294
 21
175.698547
 31
0.0
210
0.0
220
0.0
230
1.0
  0
LINE
  8
0
  6
DASHDOT
 62
     7
 10
72.196793
 20
176.277054
 30
0.0
 11
72.196793
 21
175.120056
 31
0.0
210
0.0
220
0.0
230
1.0
  0
LINE
  8
0
  6
DASHDOT
 62
     7
 10
66.025146
 20
193.731644
 30
0.0
 11
64.374146
 21
193.731644
 31
0.0
210
0.0
220
0.0
230
1.0
  0
LINE
  8
0
  6
DASHDOT
 62
     7
 10
65.199646
 20
194.557144
 30
0.0
 11
65.199646
 21
192.906143
 31
0.0
210
0.0
220
0.0
230
1.0
  0
POLYLINE
  8
0
 62
     7
 66
     1
 10
0.0
 20
0.0
 30
0.0
 70
     1
 71
    12
  0
VERTEX
  8
0
 10
51.622253
 20
213.895966
 30
0.0
  0
VERTEX
  8
0
 10
51.843742
 20
213.895966
 30
0.0
  0
VERTEX
  8
0
 10
51.843742
 20
215.067734
 30
0.0
  0
VERTEX
  8
0
 10
52.686752
 20
215.067734
 30
0.0
  0
VERTEX
  8
0
 10
52.686752
 20
213.895966
 30
0.0
  0
VERTEX
  8
0
 10
52.908241
 20
213.895966
 30
0.0
  0
VERTEX
  8
0
 10
52.908241
 20
216.395966
 30
0.0
  0
VERTEX
  8
0
 10
52.686752
 20
216.395966
 30
0.0
  0
VERTEX
  8
0
 10
52.686752
 20
215.370239
 30
0.0
  0
VERTEX
  8
0
 10
51.843742
 20
215.370239
 30
0.0
  0
VERTEX
  8
0
 10
51.843742
 20
216.395966
 30
0.0
  0
VERTEX
  8
0
 10
51.622253
 20
216.395966
 30
0.0
  0
SEQEND
  8
0
  0
POLYLINE
  8
0
 62
     7
 66
     1
 10
0.0
 20
0.0
 30
0.0
 70
     1
 71
    32
  0
VERTEX
  8
0
 10
53.68623
 20
215.144226
 30
0.0
  0
VERTEX
  8
0
 10
53.697533
 20
214.8452
 30
0.0
  0
VERTEX
  8
0
 10
53.738213
 20
214.584427
 30
0.0
  0
VERTEX
  8
0
 10
53.803757
 20
214.358414
 30
0.0
  0
VERTEX
  8
0
 10
53.891899
 20
214.170654
 30
0.0
  0
VERTEX
  8
0
 10
54.002644
 20
214.021133
 30
0.0
  0
VERTEX
  8
0
 10
54.133728
 20
213.913345
 30
0.0
  0
VERTEX
  8
0
 10
54.285152
 20
213.850769
 30
0.0
  0
VERTEX
  8
0
 10
54.456921
 20
213.826431
 30
0.0
  0
VERTEX
  8
0
 10
54.626427
 20
213.850769
 30
0.0
  0
VERTEX
  8
0
 10
54.777851
 20
213.913345
 30
0.0
  0
VERTEX
  8
0
 10
54.908936
 20
214.021133
 30
0.0
  0
VERTEX
  8
0
 10
55.01968
 20
214.170654
 30
0.0
  0
VERTEX
  8
0
 10
55.107822
 20
214.358414
 30
0.0
  0
VERTEX
  8
0
 10
55.171104
 20
214.584427
 30
0.0
  0
VERTEX
  8
0
 10
55.209526
 20
214.8452
 30
0.0
  0
VERTEX
  8
0
 10
55.225349
 20
215.144226
 30
0.0
  0
VERTEX
  8
0
 10
55.211788
 20
215.439774
 30
0.0
  0
VERTEX
  8
0
 10
55.171104
 20
215.700562
 30
0.0
  0
VERTEX
  8
0
 10
55.105564
 20
215.926559
 30
0.0
  0
VERTEX
  8
0
 10
55.01968
 20
216.114319
 30
0.0
  0
VERTEX
  8
0
 10
54.908936
 20
216.26384
 30
0.0
  0
VERTEX
  8
0
 10
54.777851
 20
216.371628
 30
0.0
  0
VERTEX
  8
0
 10
54.626427
 20
216.437683
 30
0.0
  0
VERTEX
  8
0
 10
54.456921
 20
216.462036
 30
0.0
  0
VERTEX
  8
0
 10
54.285152
 20
216.437683
 30
0.0
  0
VERTEX
  8
0
 10
54.133728
 20
216.371628
 30
0.0
  0
VERTEX
  8
0
 10
54.002644
 20
216.26384
 30
0.0
  0
VERTEX
  8
0
 10
53.891899
 20
216.114319
 30
0.0
  0
VERTEX
  8
0
 10
53.803757
 20
215.926559
 30
0.0
  0
VERTEX
  8
0
 10
53.738213
 20
215.700562
 30
0.0
  0
VERTEX
  8
0
 10
53.697533
 20
215.439774
 30
0.0
  0
SEQEND
  8
0
  0
POLYLINE
  8
0
 62
     7
 66
     1
 10
0.0
 20
0.0
 30
0.0
 70
     1
 71
    16
  0
VERTEX
  8
0
 10
53.914501
 20
215.144226
 30
0.0
  0
VERTEX
  8
0
 10
53.950661
 20
215.575378
 30
0.0
  0
VERTEX
  8
0
 10
54.059143
 20
215.898743
 30
0.0
  0
VERTEX
  8
0
 10
54.230911
 20
216.096939
 30
0.0
  0
VERTEX
  8
0
 10
54.456921
 20
216.166473
 30
0.0
  0
VERTEX
  8
0
 10
54.680668
 20
216.096939
 30
0.0
  0
VERTEX
  8
0
 10
54.852432
 20
215.898743
 30
0.0
  0
VERTEX
  8
0
 10
54.958656
 20
215.575378
 30
0.0
  0
VERTEX
  8
0
 10
54.997078
 20
215.144226
 30
0.0
  0
VERTEX
  8
0
 10
54.958656
 20
214.709595
 30
0.0
  0
VERTEX
  8
0
 10
54.852432
 20
214.38623
 30
0.0
  0
VERTEX
  8
0
 10
54.680668
 20
214.188034
 30
0.0
  0
VERTEX
  8
0
 10
54.456921
 20
214.121979
 30
0.0
  0
VERTEX
  8
0
 10
54.230911
 20
214.188034
 30
0.0
  0
VERTEX
  8
0
 10
54.059143
 20
214.38623
 30
0.0
  0
VERTEX
  8
0
 10
53.950661
 20
214.709595
 30
0.0
  0
SEQEND
  8
0
  0
POLYLINE
  8
0
 62
     7
 66
     1
 10
0.0
 20
0.0
 30
0.0
 70
     1
 71
     6
  0
VERTEX
  8
0
 10
56.003338
 20
213.895966
 30
0.0
  0
VERTEX
  8
0
 10
57.036198
 20
213.895966
 30
0.0
  0
VERTEX
  8
0
 10
57.036198
 20
214.212372
 30
0.0
  0
VERTEX
  8
0
 10
56.227085
 20
214.212372
 30
0.0
  0
VERTEX
  8
0
 10
56.227085
 20
216.395966
 30
0.0
  0
VERTEX
  8
0
 10
56.003338
 20
216.395966
 30
0.0
  0
SEQEND
  8
0
  0
POLYLINE
  8
0
 62
     7
 66
     1
 10
0.0
 20
0.0
 30
0.0
 70
     1
 71
    12
  0
VERTEX
  8
0
 10
57.712482
 20
213.895966
 30
0.0
  0
VERTEX
  8
0
 10
58.889984
 20
213.895966
 30
0.0
  0
VERTEX
  8
0
 10
58.889984
 20
214.208893
 30
0.0
  0
VERTEX
  8
0
 10
57.931709
 20
214.208893
 30
0.0
  0
VERTEX
  8
0
 10
57.931709
 20
215.046875
 30
0.0
  0
VERTEX
  8
0
 10
58.799583
 20
215.046875
 30
0.0
  0
VERTEX
  8
0
 10
58.799583
 20
215.338943
 30
0.0
  0
VERTEX
  8
0
 10
57.931709
 20
215.338943
 30
0.0
  0
VERTEX
  8
0
 10
57.931709
 20
216.086502
 30
0.0
  0
VERTEX
  8
0
 10
58.871906
 20
216.086502
 30
0.0
  0
VERTEX
  8
0
 10
58.871906
 20
216.395966
 30
0.0
  0
VERTEX
  8
0
 10
57.712482
 20
216.395966
 30
0.0
  0
SEQEND
  8
0
  0
POLYLINE
  8
0
 62
     7
 66
     1
 10
0.0
 20
0.0
 30
0.0
 70
     1
 71
    15
  0
VERTEX
  8
0
 10
60.77594
 20
213.895966
 30
0.0
  0
VERTEX
  8
0
 10
60.997429
 20
213.895966
 30
0.0
  0
VERTEX
  8
0
 10
60.997429
 20
214.949509
 30
0.0
  0
VERTEX
  8
0
 10
61.331921
 20
214.949509
 30
0.0
  0
VERTEX
  8
0
 10
61.553406
 20
214.963425
 30
0.0
  0
VERTEX
  8
0
 10
61.729694
 20
215.050354
 30
0.0
  0
VERTEX
  8
0
 10
61.883381
 20
215.30069
 30
0.0
  0
VERTEX
  8
0
 10
61.937622
 20
215.672745
 30
0.0
  0
VERTEX
  8
0
 10
61.921803
 20
215.877884
 30
0.0
  0
VERTEX
  8
0
 10
61.883381
 20
216.055222
 30
0.0
  0
VERTEX
  8
0
 10
61.817837
 20
216.197769
 30
0.0
  0
VERTEX
  8
0
 10
61.731956
 20
216.302078
 30
0.0
  0
VERTEX
  8
0
 10
61.564709
 20
216.378586
 30
0.0
  0
VERTEX
  8
0
 10
61.374863
 20
216.395966
 30
0.0
  0
VERTEX
  8
0
 10
60.77594
 20
216.395966
 30
0.0
  0
SEQEND
  8
0
  0
POLYLINE
  8
0
 62
     7
 66
     1
 10
0.0
 20
0.0
 30
0.0
 70
     1
 71
    11
  0
VERTEX
  8
0
 10
60.997429
 20
215.252014
 30
0.0
  0
VERTEX
  8
0
 10
60.997429
 20
216.089981
 30
0.0
  0
VERTEX
  8
0
 10
61.383904
 20
216.089981
 30
0.0
  0
VERTEX
  8
0
 10
61.530807
 20
216.065643
 30
0.0
  0
VERTEX
  8
0
 10
61.632511
 20
215.996109
 30
0.0
  0
VERTEX
  8
0
 10
61.693535
 20
215.867447
 30
0.0
  0
VERTEX
  8
0
 10
61.713875
 20
215.672745
 30
0.0
  0
VERTEX
  8
0
 10
61.693535
 20
215.46759
 30
0.0
  0
VERTEX
  8
0
 10
61.630249
 20
215.338943
 30
0.0
  0
VERTEX
  8
0
 10
61.521767
 20
215.269394
 30
0.0
  0
VERTEX
  8
0
 10
61.36808
 20
215.252014
 30
0.0
  0
SEQEND
  8
0
  0
POLYLINE
  8
0
 62
     7
 66
     1
 10
0.0
 20
0.0
 30
0.0
 70
     1
 71
     8
  0
VERTEX
  8
0
 10
62.518982
 20
213.895966
 30
0.0
  0
VERTEX
  8
0
 10
62.747253
 20
213.895966
 30
0.0
  0
VERTEX
  8
0
 10
62.92128
 20
214.643524
 30
0.0
  0
VERTEX
  8
0
 10
63.560883
 20
214.643524
 30
0.0
  0
VERTEX
  8
0
 10
63.732651
 20
213.895966
 30
0.0
  0
VERTEX
  8
0
 10
63.972218
 20
213.895966
 30
0.0
  0
VERTEX
  8
0
 10
63.366516
 20
216.395966
 30
0.0
  0
VERTEX
  8
0
 10
63.122425
 20
216.395966
 30
0.0
  0
SEQEND
  8
0
  0
POLYLINE
  8
0
 62
     7
 66
     1
 10
0.0
 20
0.0
 30
0.0
 70
     1
 71
     3
  0
VERTEX
  8
0
 10
62.989082
 20
214.935608
 30
0.0
  0
VERTEX
  8
0
 10
63.244469
 20
216.037827
 30
0.0
  0
VERTEX
  8
0
 10
63.495338
 20
214.935608
 30
0.0
  0
SEQEND
  8
0
  0
POLYLINE
  8
0
 62
     7
 66
     1
 10
0.0
 20
0.0
 30
0.0
 70
     1
 71
     8
  0
VERTEX
  8
0
 10
64.998817
 20
213.895966
 30
0.0
  0
VERTEX
  8
0
 10
65.220306
 20
213.895966
 30
0.0
  0
VERTEX
  8
0
 10
65.220306
 20
216.09346
 30
0.0
  0
VERTEX
  8
0
 10
65.733345
 20
216.09346
 30
0.0
  0
VERTEX
  8
0
 10
65.733345
 20
216.395966
 30
0.0
  0
VERTEX
  8
0
 10
64.485779
 20
216.395966
 30
0.0
  0
VERTEX
  8
0
 10
64.485779
 20
216.09346
 30
0.0
  0
VERTEX
  8
0
 10
64.998817
 20
216.09346
 30
0.0
  0
SEQEND
  8
0
  0
POLYLINE
  8
0
 62
     7
 66
     1
 10
0.0
 20
0.0
 30
0.0
 70
     1
 71
     8
  0
VERTEX
  8
0
 10
66.789322
 20
213.895966
 30
0.0
  0
VERTEX
  8
0
 10
67.010811
 20
213.895966
 30
0.0
  0
VERTEX
  8
0
 10
67.010811
 20
216.09346
 30
0.0
  0
VERTEX
  8
0
 10
67.523849
 20
216.09346
 30
0.0
  0
VERTEX
  8
0
 10
67.523849
 20
216.395966
 30
0.0
  0
VERTEX
  8
0
 10
66.276283
 20
216.395966
 30
0.0
  0
VERTEX
  8
0
 10
66.276283
 20
216.09346
 30
0.0
  0
VERTEX
  8
0
 10
66.789322
 20
216.09346
 30
0.0
  0
SEQEND
  8
0
  0
POLYLINE
  8
0
 62
     7
 66
     1
 10
0.0
 20
0.0
 30
0.0
 70
     1
 71
    12
  0
VERTEX
  8
0
 10
68.220482
 20
213.895966
 30
0.0
  0
VERTEX
  8
0
 10
69.39798
 20
213.895966
 30
0.0
  0
VERTEX
  8
0
 10
69.39798
 20
214.208893
 30
0.0
  0
VERTEX
  8
0
 10
68.439713
 20
214.208893
 30
0.0
  0
VERTEX
  8
0
 10
68.439713
 20
215.046875
 30
0.0
  0
VERTEX
  8
0
 10
69.307579
 20
215.046875
 30
0.0
  0
VERTEX
  8
0
 10
69.307579
 20
215.338943
 30
0.0
  0
VERTEX
  8
0
 10
68.439713
 20
215.338943
 30
0.0
  0
VERTEX
  8
0
 10
68.439713
 20
216.086502
 30
0.0
  0
VERTEX
  8
0
 10
69.379898
 20
216.086502
 30
0.0
  0
VERTEX
  8
0
 10
69.379898
 20
216.395966
 30
0.0
  0
VERTEX
  8
0
 10
68.220482
 20
216.395966
 30
0.0
  0
SEQEND
  8
0
  0
POLYLINE
  8
0
 62
     7
 66
     1
 10
0.0
 20
0.0
 30
0.0
 70
     1
 71
    30
  0
VERTEX
  8
0
 10
70.164673
 20
216.395966
 30
0.0
  0
VERTEX
  8
0
 10
70.164673
 20
213.895966
 30
0.0
  0
VERTEX
  8
0
 10
70.383904
 20
213.895966
 30
0.0
  0
VERTEX
  8
0
 10
70.383904
 20
214.966904
 30
0.0
  0
VERTEX
  8
0
 10
70.740997
 20
214.966904
 30
0.0
  0
VERTEX
  8
0
 10
70.912758
 20
214.956467
 30
0.0
  0
VERTEX
  8
0
 10
71.018982
 20
214.904312
 30
0.0
  0
VERTEX
  8
0
 10
71.077744
 20
214.786087
 30
0.0
  0
VERTEX
  8
0
 10
71.102608
 20
214.567032
 30
0.0
  0
VERTEX
  8
0
 10
71.116165
 20
214.240189
 30
0.0
  0
VERTEX
  8
0
 10
71.127472
 20
214.042007
 30
0.0
  0
VERTEX
  8
0
 10
71.159111
 20
213.895966
 30
0.0
  0
VERTEX
  8
0
 10
71.414497
 20
213.895966
 30
0.0
  0
VERTEX
  8
0
 10
71.414497
 20
213.9655
 30
0.0
  0
VERTEX
  8
0
 10
71.36026
 20
214.066345
 30
0.0
  0
VERTEX
  8
0
 10
71.33992
 20
214.257584
 30
0.0
  0
VERTEX
  8
0
 10
71.321838
 20
214.667877
 30
0.0
  0
VERTEX
  8
0
 10
71.306015
 20
214.841721
 30
0.0
  0
VERTEX
  8
0
 10
71.276634
 20
214.977325
 30
0.0
  0
VERTEX
  8
0
 10
71.222389
 20
215.071213
 30
0.0
  0
VERTEX
  8
0
 10
71.136505
 20
215.133789
 30
0.0
  0
VERTEX
  8
0
 10
71.23143
 20
215.227676
 30
0.0
  0
VERTEX
  8
0
 10
71.301498
 20
215.356323
 30
0.0
  0
VERTEX
  8
0
 10
71.344437
 20
215.512787
 30
0.0
  0
VERTEX
  8
0
 10
71.36026
 20
215.704025
 30
0.0
  0
VERTEX
  8
0
 10
71.344437
 20
215.898743
 30
0.0
  0
VERTEX
  8
0
 10
71.306015
 20
216.069122
 30
0.0
  0
VERTEX
  8
0
 10
71.15007
 20
216.309036
 30
0.0
  0
VERTEX
  8
0
 10
70.985085
 20
216.382065
 30
0.0
  0
VERTEX
  8
0
 10
70.795235
 20
216.395966
 30
0.0
  0
SEQEND
  8
0
  0
POLYLINE
  8
0
 62
     7
 66
     1
 10
0.0
 20
0.0
 30
0.0
 70
     1
 71
    11
  0
VERTEX
  8
0
 10
70.381638
 20
216.103897
 30
0.0
  0
VERTEX
  8
0
 10
70.759079
 20
216.103897
 30
0.0
  0
VERTEX
  8
0
 10
70.91954
 20
216.086502
 30
0.0
  0
VERTEX
  8
0
 10
71.037064
 20
216.023926
 30
0.0
  0
VERTEX
  8
0
 10
71.107132
 20
215.902222
 30
0.0
  0
VERTEX
  8
0
 10
71.131989
 20
215.697083
 30
0.0
  0
VERTEX
  8
0
 10
71.107132
 20
215.484985
 30
0.0
  0
VERTEX
  8
0
 10
71.039322
 20
215.34938
 30
0.0
  0
VERTEX
  8
0
 10
70.921799
 20
215.276352
 30
0.0
  0
VERTEX
  8
0
 10
70.759079
 20
215.255493
 30
0.0
  0
VERTEX
  8
0
 10
70.381638
 20
215.255493
 30
0.0
  0
SEQEND
  8
0
  0
POLYLINE
  8
0
 62
     7
 66
     1
 10
0.0
 20
0.0
 30
0.0
 70
     1
 71
    12
  0
VERTEX
  8
0
 10
72.163109
 20
213.895966
 30
0.0
  0
VERTEX
  8
0
 10
72.373291
 20
213.895966
 30
0.0
  0
VERTEX
  8
0
 10
72.373291
 20
215.92308
 30
0.0
  0
VERTEX
  8
0
 10
72.434319
 20
215.7388
 30
0.0
  0
VERTEX
  8
0
 10
73.209526
 20
213.895966
 30
0.0
  0
VERTEX
  8
0
 10
73.449097
 20
213.895966
 30
0.0
  0
VERTEX
  8
0
 10
73.449097
 20
216.395966
 30
0.0
  0
VERTEX
  8
0
 10
73.238907
 20
216.395966
 30
0.0
  0
VERTEX
  8
0
 10
73.238907
 20
214.368851
 30
0.0
  0
VERTEX
  8
0
 10
73.164322
 20
214.580948
 30
0.0
  0
VERTEX
  8
0
 10
72.404938
 20
216.395966
 30
0.0
  0
VERTEX
  8
0
 10
72.163109
 20
216.395966
 30
0.0
  0
SEQEND
  8
0
  0
ARC
  8
0
 62
     7
 10
87.74823
 20
105.075386
 30
0.0
 40
1.5
 50
25.841934
 51
90.000003
210
0.0
220
0.0
230
1.0
  0
ARC
  8
0
 62
     7
 10
87.74823
 20
105.075386
 30
0.0
 40
1.5
 50
20.000001
 51
25.841934
210
0.0
220
0.0
230
1.0
  0
LINE
  8
0
 62
     7
 10
89.157768
 20
105.588417
 30
0.0
 11
89.708466
 21
104.075386
 31
0.0
210
0.0
220
0.0
230
1.0
  0
LINE
  8
0
 62
     7
 10
101.948227
 20
104.075386
 30
0.0
 11
114.798225
 21
104.075386
 31
0.0
210
0.0
220
0.0
230
1.0
  0
LINE
  8
0
 62
     7
 10
101.948227
 20
104.075386
 30
0.0
 11
89.708466
 21
104.075386
 31
0.0
210
0.0
220
0.0
230
1.0
  0
CIRCLE
  8
0
 62
     7
 10
108.698227
 20
106.525383
 30
0.0
 40
0.7
210
0.0
220
0.0
230
1.0
  0
CIRCLE
  8
0
 62
     7
 10
95.198227
 20
114.685387
 30
0.0
 40
0.9
210
0.0
220
0.0
230
1.0
  0
CIRCLE
  8
0
 62
     7
 10
113.048225
 20
106.525383
 30
0.0
 40
0.7
210
0.0
220
0.0
230
1.0
  0
CIRCLE
  8
0
 62
     7
 10
95.198227
 20
106.525383
 30
0.0
 40
0.7
210
0.0
220
0.0
230
1.0
  0
CIRCLE
  8
0
 62
     7
 10
90.848228
 20
106.525383
 30
0.0
 40
0.7
210
0.0
220
0.0
230
1.0
  0
CIRCLE
  8
0
 62
     7
 10
108.698227
 20
114.685387
 30
0.0
 40
0.9
210
0.0
220
0.0
230
1.0
  0
LINE
  8
0
 62
     7
 10
78.448227
 20
106.575386
 30
0.0
 11
87.448227
 21
106.575386
 31
0.0
210
0.0
220
0.0
230
1.0
  0
LINE
  8
0
 62
     7
 10
87.448227
 20
106.575386
 30
0.0
 11
87.74823
 21
106.575386
 31
0.0
210
0.0
220
0.0
230
1.0
  0
LINE
  8
0
 62
     7
 10
63.825409
 20
157.6745
 30
0.0
 11
64.057983
 21
157.997559
 31
0.0
210
0.0
220
0.0
230
1.0
  0
LINE
  8
0
 62
     7
 10
63.825409
 20
157.6745
 30
0.0
 11
62.161793
 21
155.363586
 31
0.0
210
0.0
220
0.0
230
1.0
  0
LINE
  8
0
 62
     7
 10
58.183968
 20
140.158844
 30
0.0
 11
56.242954
 21
143.624786
 31
0.0
210
0.0
220
0.0
230
1.0
  0
LINE
  8
0
 62
     7
 10
58.183968
 20
140.158844
 30
0.0
 11
64.149361
 21
129.506866
 31
0.0
210
0.0
220
0.0
230
1.0
  0
ARC
  8
0
 62
     7
 10
62.840618
 20
128.773941
 30
0.0
 40
1.5
 50
324.250001
 51
29.249998
210
0.0
220
0.0
230
1.0
  0
LINE
  8
0
 62
     7
 10
63.825409
 20
127.574509
 30
0.0
 11
64.057983
 21
127.89756
 31
0.0
210
0.0
220
0.0
230
1.0
  0
LINE
  8
0
 62
     7
 10
62.161793
 20
125.263596
 30
0.0
 11
63.825409
 21
127.574509
 31
0.0
210
0.0
220
0.0
230
1.0
  0
LINE
  8
0
 62
     7
 10
117.555405
 20
104.075386
 30
0.0
 11
114.798225
 21
104.075386
 31
0.0
210
0.0
220
0.0
230
1.0
  0
LINE
  8
0
 62
     7
 10
118.24823
 20
104.475388
 30
0.0
 11
117.555405
 21
104.075386
 31
0.0
210
0.0
220
0.0
230
1.0
  0
LINE
  8
0
 62
     7
 10
118.24823
 20
104.475388
 30
0.0
 11
118.24823
 21
106.275383
 31
0.0
210
0.0
220
0.0
230
1.0
  0
ARC
  8
0
 62
     7
 10
119.448227
 20
106.275383
 30
0.0
 40
1.2
 50
0.0
 51
180.000005
210
0.0
220
0.0
230
1.0
  0
LINE
  8
0
 62
     7
 10
120.648224
 20
106.275383
 30
0.0
 11
120.648224
 21
104.075386
 31
0.0
210
0.0
220
0.0
230
1.0
  0
LINE
  8
0
 62
     7
 10
132.765915
 20
104.075386
 30
0.0
 11
120.648224
 21
104.075386
 31
0.0
210
0.0
220
0.0
230
1.0
  0
ARC
  8
0
 62
     7
 10
132.765915
 20
102.575386
 30
0.0
 40
1.5
 50
56.442689
 51
73.597638
210
0.0
220
0.0
230
1.0
  0
ARC
  8
0
 62
     7
 10
132.765915
 20
102.575386
 30
0.0
 40
1.5
 50
73.597638
 51
90.000003
210
0.0
220
0.0
230
1.0
  0
LINE
  8
0
 62
     7
 10
133.189484
 20
104.014343
 30
0.0
 11
132.748184
 21
104.244453
 31
0.0
210
0.0
220
0.0
230
1.0
  0
LINE
  8
0
 62
     7
 10
141.734665
 20
125.263596
 30
0.0
 11
140.071045
 21
127.574509
 31
0.0
210
0.0
220
0.0
230
1.0
  0
LINE
  8
0
 62
     7
 10
140.071045
 20
127.574509
 30
0.0
 11
139.83847
 21
127.89756
 31
0.0
210
0.0
220
0.0
230
1.0
  0
ARC
  8
0
 62
     7
 10
141.055832
 20
128.773941
 30
0.0
 40
1.5
 50
150.750007
 51
215.749997
210
0.0
220
0.0
230
1.0
  0
LINE
  8
0
 62
     7
 10
145.712494
 20
140.158844
 30
0.0
 11
139.747101
 21
129.506866
 31
0.0
210
0.0
220
0.0
230
1.0
  0
LINE
  8
0
 62
     7
 10
145.712494
 20
140.158844
 30
0.0
 11
147.653503
 21
143.624786
 31
0.0
210
0.0
220
0.0
230
1.0
  0
LINE
  8
0
 62
     7
 10
140.071045
 20
157.6745
 30
0.0
 11
141.734665
 21
155.363586
 31
0.0
210
0.0
220
0.0
230
1.0
  0
LINE
  8
0
 62
     7
 10
140.071045
 20
157.6745
 30
0.0
 11
139.83847
 21
157.997559
 31
0.0
210
0.0
220
0.0
230
1.0
  0
ARC
  8
0
 62
     7
 10
141.055832
 20
158.873932
 30
0.0
 40
1.5
 50
150.750007
 51
215.749997
210
0.0
220
0.0
230
1.0
  0
LINE
  8
0
 62
     7
 10
139.747101
 20
159.606873
 30
0.0
 11
148.409409
 21
175.074554
 31
0.0
210
0.0
220
0.0
230
1.0
  0
LINE
  8
0
 62
     7
 10
148.409409
 20
175.074554
 30
0.0
 11
152.827087
 21
182.962891
 31
0.0
210
0.0
220
0.0
230
1.0
  0
LINE
  8
0
 62
     7
 10
152.979477
 20
183.234985
 30
0.0
 11
152.827087
 21
182.962891
 31
0.0
210
0.0
220
0.0
230
1.0
  0
LINE
  8
0
 62
     7
 10
92.298225
 20
113.725388
 30
0.0
 11
93.598228
 21
113.725388
 31
0.0
210
0.0
220
0.0
230
1.0
  0
LINE
  8
0
 62
     7
 10
93.598228
 20
115.375389
 30
0.0
 11
93.598228
 21
113.725388
 31
0.0
210
0.0
220
0.0
230
1.0
  0
LINE
  8
0
 62
     7
 10
93.598228
 20
115.375389
 30
0.0
 11
92.298225
 21
115.375389
 31
0.0
210
0.0
220
0.0
230
1.0
  0
LINE
  8
0
 62
     7
 10
92.298225
 20
113.725388
 30
0.0
 11
92.298225
 21
115.375389
 31
0.0
210
0.0
220
0.0
230
1.0
  0
LINE
  8
0
 62
     7
 10
96.798225
 20
113.725388
 30
0.0
 11
98.098228
 21
113.725388
 31
0.0
210
0.0
220
0.0
230
1.0
  0
LINE
  8
0
 62
     7
 10
98.098228
 20
115.375389
 30
0.0
 11
98.098228
 21
113.725388
 31
0.0
210
0.0
220
0.0
230
1.0
  0
LINE
  8
0
 62
     7
 10
98.098228
 20
115.375389
 30
0.0
 11
96.798225
 21
115.375389
 31
0.0
210
0.0
220
0.0
230
1.0
  0
LINE
  8
0
 62
     7
 10
96.798225
 20
113.725388
 30
0.0
 11
96.798225
 21
115.375389
 31
0.0
210
0.0
220
0.0
230
1.0
  0
LINE
  8
0
 62
     7
 10
111.598228
 20
113.725388
 30
0.0
 11
111.598228
 21
115.375389
 31
0.0
210
0.0
220
0.0
230
1.0
  0
LINE
  8
0
 62
     7
 10
110.298225
 20
115.375389
 30
0.0
 11
111.598228
 21
115.375389
 31
0.0
210
0.0
220
0.0
230
1.0
  0
LINE
  8
0
 62
     7
 10
110.298225
 20
115.375389
 30
0.0
 11
110.298225
 21
113.725388
 31
0.0
210
0.0
220
0.0
230
1.0
  0
LINE
  8
0
 62
     7
 10
111.598228
 20
113.725388
 30
0.0
 11
110.298225
 21
113.725388
 31
0.0
210
0.0
220
0.0
230
1.0
  0
LINE
  8
0
 62
     7
 10
107.098228
 20
113.725388
 30
0.0
 11
107.098228
 21
115.375389
 31
0.0
210
0.0
220
0.0
230
1.0
  0
LINE
  8
0
 62
     7
 10
105.798225
 20
115.375389
 30
0.0
 11
107.098228
 21
115.375389
 31
0.0
210
0.0
220
0.0
230
1.0
  0
LINE
  8
0
 62
     7
 10
105.798225
 20
115.375389
 30
0.0
 11
105.798225
 21
113.725388
 31
0.0
210
0.0
220
0.0
230
1.0
  0
LINE
  8
0
 62
     7
 10
107.098228
 20
113.725388
 30
0.0
 11
105.798225
 21
113.725388
 31
0.0
210
0.0
220
0.0
230
1.0
  0
LINE
  8
0
 62
     7
 10
101.298225
 20
113.725388
 30
0.0
 11
102.598228
 21
113.725388
 31
0.0
210
0.0
220
0.0
230
1.0
  0
LINE
  8
0
 62
     7
 10
102.598228
 20
115.375389
 30
0.0
 11
102.598228
 21
113.725388
 31
0.0
210
0.0
220
0.0
230
1.0
  0
LINE
  8
0
 62
     7
 10
102.598228
 20
115.375389
 30
0.0
 11
101.298225
 21
115.375389
 31
0.0
210
0.0
220
0.0
230
1.0
  0
LINE
  8
0
 62
     7
 10
101.298225
 20
113.725388
 30
0.0
 11
101.298225
 21
115.375389
 31
0.0
210
0.0
220
0.0
230
1.0
  0
LINE
  8
0
 62
     7
 10
62.161793
 20
155.363586
 30
0.0
 11
65.020233
 21
150.259491
 31
0.0
210
0.0
220
0.0
230
1.0
  0
ARC
  8
0
 62
     7
 10
63.711483
 20
149.526566
 30
0.0
 40
1.5
 50
299.250003
 51
29.249998
210
0.0
220
0.0
230
1.0
  0
LINE
  8
0
 62
     7
 10
56.242954
 20
143.624786
 30
0.0
 11
64.444412
 21
148.217819
 31
0.0
210
0.0
220
0.0
230
1.0
  0
LINE
  8
0
 62
     7
 10
62.161793
 20
125.263596
 30
0.0
 11
65.020233
 21
120.159492
 31
0.0
210
0.0
220
0.0
230
1.0
  0
ARC
  8
0
 62
     7
 10
63.711483
 20
119.426559
 30
0.0
 40
1.5
 50
299.250003
 51
29.249998
210
0.0
220
0.0
230
1.0
  0
LINE
  8
0
 62
     7
 10
56.242954
 20
113.52478
 30
0.0
 11
64.444412
 21
118.117821
 31
0.0
210
0.0
220
0.0
230
1.0
  0
LINE
  8
0
 62
     7
 10
56.242954
 20
113.52478
 30
0.0
 11
57.756969
 21
110.821304
 31
0.0
210
0.0
220
0.0
230
1.0
  0
CIRCLE
  8
0
 62
     7
 10
59.561977
 20
113.181076
 30
0.0
 40
0.7
210
0.0
220
0.0
230
1.0
  0
ARC
  8
0
 62
     7
 10
66.948227
 20
103.575386
 30
0.0
 40
1.5
 50
80.191455
 51
90.000003
210
0.0
220
0.0
230
1.0
  0
ARC
  8
0
 62
     7
 10
66.948227
 20
103.575386
 30
0.0
 40
1.5
 50
24.903947
 51
37.992026
210
0.0
220
0.0
230
1.0
  0
ARC
  8
0
 62
     7
 10
66.948227
 20
103.575386
 30
0.0
 40
1.5
 50
37.992026
 51
80.191455
210
0.0
220
0.0
230
1.0
  0
ARC
  8
0
 62
     7
 10
69.125061
 20
104.586021
 30
0.0
 40
0.9
 50
204.903944
 51
234.647396
210
0.0
220
0.0
230
1.0
  0
ARC
  8
0
 62
     7
 10
69.472229
 20
105.075386
 30
0.0
 40
1.5
 50
234.647396
 51
276.96578
210
0.0
220
0.0
230
1.0
  0
ARC
  8
0
 62
     7
 10
69.472229
 20
105.075386
 30
0.0
 40
1.5
 50
276.96578
 51
303.557311
210
0.0
220
0.0
230
1.0
  0
ARC
  8
0
 62
     7
 10
71.130539
 20
102.575386
 30
0.0
 40
1.5
 50
106.402367
 51
123.557316
210
0.0
220
0.0
230
1.0
  0
ARC
  8
0
 62
     7
 10
71.130539
 20
102.575386
 30
0.0
 40
1.5
 50
90.000003
 51
106.402367
210
0.0
220
0.0
230
1.0
  0
LINE
  8
0
 62
     7
 10
71.130539
 20
104.075386
 30
0.0
 11
73.448227
 21
104.075386
 31
0.0
210
0.0
220
0.0
230
1.0
  0
LINE
  8
0
 62
     7
 10
76.948227
 20
104.075386
 30
0.0
 11
73.448227
 21
104.075386
 31
0.0
210
0.0
220
0.0
230
1.0
  0
LINE
  8
0
 62
     7
 10
76.948227
 20
104.075386
 30
0.0
 11
76.948227
 21
105.075386
 31
0.0
210
0.0
220
0.0
230
1.0
  0
ARC
  8
0
 62
     7
 10
78.448227
 20
105.075386
 30
0.0
 40
1.5
 50
90.000003
 51
180.000005
210
0.0
220
0.0
230
1.0
  0
ARC
  8
0
 62
     7
 10
134.424225
 20
105.075386
 30
0.0
 40
1.5
 50
263.034222
 51
305.352602
210
0.0
220
0.0
230
1.0
  0
ARC
  8
0
 62
     7
 10
134.424225
 20
105.075386
 30
0.0
 40
1.5
 50
236.442684
 51
263.034222
210
0.0
220
0.0
230
1.0
  0
ARC
  8
0
 62
     7
 10
134.771393
 20
104.586021
 30
0.0
 40
0.9
 50
305.352602
 51
335.096053
210
0.0
220
0.0
230
1.0
  0
ARC
  8
0
 62
     7
 10
136.948227
 20
103.575386
 30
0.0
 40
1.5
 50
90.000003
 51
99.808543
210
0.0
220
0.0
230
1.0
  0
ARC
  8
0
 62
     7
 10
136.948227
 20
103.575386
 30
0.0
 40
1.5
 50
99.808543
 51
142.007979
210
0.0
220
0.0
230
1.0
  0
ARC
  8
0
 62
     7
 10
136.948227
 20
103.575386
 30
0.0
 40
1.5
 50
142.007979
 51
155.096056
210
0.0
220
0.0
230
1.0
  0
CIRCLE
  8
0
 62
     7
 10
144.334473
 20
113.181076
 30
0.0
 40
0.7
210
0.0
220
0.0
230
1.0
  0
LINE
  8
0
 62
     7
 10
147.653503
 20
113.52478
 30
0.0
 11
146.139481
 21
110.821304
 31
0.0
210
0.0
220
0.0
230
1.0
  0
LINE
  8
0
 62
     7
 10
147.653503
 20
113.52478
 30
0.0
 11
139.452042
 21
118.117821
 31
0.0
210
0.0
220
0.0
230
1.0
  0
ARC
  8
0
 62
     7
 10
140.184967
 20
119.426559
 30
0.0
 40
1.5
 50
150.750007
 51
240.750006
210
0.0
220
0.0
230
1.0
  0
LINE
  8
0
 62
     7
 10
141.734665
 20
125.263596
 30
0.0
 11
138.876221
 21
120.159492
 31
0.0
210
0.0
220
0.0
230
1.0
  0
LINE
  8
0
 62
     7
 10
147.653503
 20
143.624786
 30
0.0
 11
139.452042
 21
148.217819
 31
0.0
210
0.0
220
0.0
230
1.0
  0
ARC
  8
0
 62
     7
 10
140.184967
 20
149.526566
 30
0.0
 40
1.5
 50
150.750007
 51
240.750006
210
0.0
220
0.0
230
1.0
  0
LINE
  8
0
 62
     7
 10
141.734665
 20
155.363586
 30
0.0
 11
138.876221
 21
150.259491
 31
0.0
210
0.0
220
0.0
230
1.0
  0
LINE
  8
0
 62
     7
 10
144.176147
 20
197.323242
 30
0.0
 11
152.979477
 21
183.234985
 31
0.0
210
0.0
220
0.0
230
1.0
  0
ARC
  8
0
 62
     7
 10
145.448227
 20
198.118118
 30
0.0
 40
1.5
 50
180.000005
 51
212.000005
210
0.0
220
0.0
230
1.0
  0
LINE
  8
0
 62
     7
 10
143.948227
 20
198.875809
 30
0.0
 11
143.948227
 21
199.255112
 31
0.0
210
0.0
220
0.0
230
1.0
  0
LINE
  8
0
 62
     7
 10
143.948227
 20
199.255112
 30
0.0
 11
143.948227
 21
203.075378
 31
0.0
210
0.0
220
0.0
230
1.0
  0
LINE
  8
0
 62
     7
 10
143.948227
 20
198.118118
 30
0.0
 11
143.948227
 21
198.875809
 31
0.0
210
0.0
220
0.0
230
1.0
  0
LINE
  8
0
 62
     7
 10
140.698227
 20
203.075378
 30
0.0
 11
143.948227
 21
203.075378
 31
0.0
210
0.0
220
0.0
230
1.0
  0
LINE
  8
0
 62
     7
 10
140.698227
 20
203.075378
 30
0.0
 11
140.698227
 21
201.275391
 31
0.0
210
0.0
220
0.0
230
1.0
  0
ARC
  8
0
 62
     7
 10
139.49823
 20
201.275391
 30
0.0
 40
1.2
 50
318.59038
 51
0.0
210
0.0
220
0.0
230
1.0
  0
ARC
  8
0
 62
     7
 10
139.49823
 20
201.275391
 30
0.0
 40
1.2
 50
180.000005
 51
221.409615
210
0.0
220
0.0
230
1.0
  0
ARC
  8
0
 62
     7
 10
139.49823
 20
201.275391
 30
0.0
 40
1.2
 50
221.409615
 51
318.59038
210
0.0
220
0.0
230
1.0
  0
CIRCLE
  8
0
 62
     7
 10
138.696991
 20
193.731369
 30
0.0
 40
0.635
210
0.0
220
0.0
230
1.0
  0
LINE
  8
0
 62
     7
 10
59.948227
 20
203.075378
 30
0.0
 11
63.498226
 21
203.075378
 31
0.0
210
0.0
220
0.0
230
1.0
  0
LINE
  8
0
 62
     7
 10
63.498226
 20
203.075378
 30
0.0
 11
65.298225
 21
203.075378
 31
0.0
210
0.0
220
0.0
230
1.0
  0
LINE
  8
0
 62
     7
 10
101.948227
 20
203.075378
 30
0.0
 11
65.298225
 21
203.075378
 31
0.0
210
0.0
220
0.0
230
1.0
  0
CIRCLE
  8
0
 62
     7
 10
138.828857
 20
138.054871
 30
0.0
 40
0.7
210
0.0
220
0.0
230
1.0
  0
CIRCLE
  8
0
 62
     7
 10
65.067596
 20
138.054871
 30
0.0
 40
0.7
210
0.0
220
0.0
230
1.0
  0
CIRCLE
  8
0
 62
     7
 10
69.472061
 20
135.30658
 30
0.0
 40
0.7
210
0.0
220
0.0
230
1.0
  0
CIRCLE
  8
0
 62
     7
 10
65.025612
 20
143.246292
 30
0.0
 40
0.7
210
0.0
220
0.0
230
1.0
  0
CIRCLE
  8
0
 62
     7
 10
134.424393
 20
135.30658
 30
0.0
 40
0.7
210
0.0
220
0.0
230
1.0
  0
CIRCLE
  8
0
 62
     7
 10
144.334473
 20
143.281067
 30
0.0
 40
0.7
210
0.0
220
0.0
230
1.0
  0
CIRCLE
  8
0
 62
     7
 10
138.87085
 20
143.246292
 30
0.0
 40
0.7
210
0.0
220
0.0
230
1.0
  0
CIRCLE
  8
0
 62
     7
 10
59.561977
 20
143.281067
 30
0.0
 40
0.7
210
0.0
220
0.0
230
1.0
  0
CIRCLE
  8
0
 62
     7
 10
134.424393
 20
105.206573
 30
0.0
 40
0.7
210
0.0
220
0.0
230
1.0
  0
CIRCLE
  8
0
 62
     7
 10
69.472061
 20
105.206573
 30
0.0
 40
0.7
210
0.0
220
0.0
230
1.0
  0
CIRCLE
  8
0
 62
     7
 10
85.638229
 20
108.875389
 30
0.0
 40
0.7
210
0.0
220
0.0
230
1.0
  0
CIRCLE
  8
0
 62
     7
 10
75.798225
 20
110.475388
 30
0.0
 40
0.7
210
0.0
220
0.0
230
1.0
  0
CIRCLE
  8
0
 62
     7
 10
139.853729
 20
179.897217
 30
0.0
 40
1.6
210
0.0
220
0.0
230
1.0
  0
CIRCLE
  8
0
 62
     7
 10
134.740021
 20
188.080887
 30
0.0
 40
1.6
210
0.0
220
0.0
230
1.0
  0
CIRCLE
  8
0
 62
     7
 10
140.851028
 20
195.077362
 30
0.0
 40
0.635
210
0.0
220
0.0
230
1.0
  0
CIRCLE
  8
0
 62
     7
 10
144.512939
 20
179.630737
 30
0.0
 40
0.635
210
0.0
220
0.0
230
1.0
  0
CIRCLE
  8
0
 62
     7
 10
146.666977
 20
180.976715
 30
0.0
 40
0.635
210
0.0
220
0.0
230
1.0
  0
CIRCLE
  8
0
 62
     7
 10
131.161896
 20
181.352356
 30
0.0
 40
0.445
210
0.0
220
0.0
230
1.0
  0
CIRCLE
  8
0
 62
     7
 10
132.237625
 20
179.630829
 30
0.0
 40
0.445
210
0.0
220
0.0
230
1.0
  0
CIRCLE
  8
0
 62
     7
 10
130.6241
 20
177.419815
 30
0.0
 40
0.445
210
0.0
220
0.0
230
1.0
  0
CIRCLE
  8
0
 62
     7
 10
133.313354
 20
177.909271
 30
0.0
 40
0.445
210
0.0
220
0.0
230
1.0
  0
CIRCLE
  8
0
 62
     7
 10
131.699829
 20
175.698273
 30
0.0
 40
0.445
210
0.0
220
0.0
230
1.0
  0
CIRCLE
  8
0
 62
     7
 10
134.389099
 20
176.187744
 30
0.0
 40
0.445
210
0.0
220
0.0
230
1.0
  0
CIRCLE
  8
0
 62
     7
 10
132.775574
 20
173.976746
 30
0.0
 40
0.445
210
0.0
220
0.0
230
1.0
  0
CIRCLE
  8
0
 62
     7
 10
128.467331
 20
180.871368
 30
0.0
 40
0.445
210
0.0
220
0.0
230
1.0
  0
CIRCLE
  8
0
 62
     7
 10
130.086151
 20
183.073898
 30
0.0
 40
0.445
210
0.0
220
0.0
230
1.0
  0
CIRCLE
  8
0
 62
     7
 10
127.391594
 20
182.592911
 30
0.0
 40
0.445
210
0.0
220
0.0
230
1.0
  0
CIRCLE
  8
0
 62
     7
 10
129.010422
 20
184.795441
 30
0.0
 40
0.445
210
0.0
220
0.0
230
1.0
  0
CIRCLE
  8
0
 62
     7
 10
126.315857
 20
184.314453
 30
0.0
 40
0.445
210
0.0
220
0.0
230
1.0
  0
CIRCLE
  8
0
 62
     7
 10
132.638885
 20
191.44339
 30
0.0
 40
0.785
210
0.0
220
0.0
230
1.0
  0
CIRCLE
  8
0
 62
     7
 10
141.954865
 20
176.534714
 30
0.0
 40
0.785
210
0.0
220
0.0
230
1.0
  0
CIRCLE
  8
0
 62
     7
 10
148.821014
 20
182.322723
 30
0.0
 40
0.635
210
0.0
220
0.0
230
1.0
  0
ARC
  8
0
 62
     7
 10
56.448227
 20
110.088371
 30
0.0
 40
1.5
 50
360.0
 51
29.249998
210
0.0
220
0.0
230
1.0
  0
LINE
  8
0
 62
     7
 10
57.948227
 20
110.088371
 30
0.0
 11
57.948227
 21
109.926826
 31
0.0
210
0.0
220
0.0
230
1.0
  0
CIRCLE
  8
0
 62
     7
 10
65.025612
 20
113.146286
 30
0.0
 40
0.7
210
0.0
220
0.0
230
1.0
  0
CIRCLE
  8
0
 62
     7
 10
65.067596
 20
107.95488
 30
0.0
 40
0.7
210
0.0
220
0.0
230
1.0
  0
LINE
  8
0
 62
     7
 10
70.70697
 20
104.014343
 30
0.0
 11
71.14827
 21
104.244453
 31
0.0
210
0.0
220
0.0
230
1.0
  0
LINE
  8
0
 62
     7
 10
145.948227
 20
110.088371
 30
0.0
 11
145.948227
 21
109.926826
 31
0.0
210
0.0
220
0.0
230
1.0
  0
ARC
  8
0
 62
     7
 10
147.448227
 20
110.088371
 30
0.0
 40
1.5
 50
150.750007
 51
179.999995
210
0.0
220
0.0
230
1.0
  0
CIRCLE
  8
0
 62
     7
 10
138.87085
 20
113.146286
 30
0.0
 40
0.7
210
0.0
220
0.0
230
1.0
  0
CIRCLE
  8
0
 62
     7
 10
138.828857
 20
107.95488
 30
0.0
 40
0.7
210
0.0
220
0.0
230
1.0
  0
LINE
  8
0
 62
     7
 10
66.948227
 20
105.075386
 30
0.0
 11
57.948227
 21
105.075386
 31
0.0
210
0.0
220
0.0
230
1.0
  0
LINE
  8
0
 62
     7
 10
57.948227
 20
109.926826
 30
0.0
 11
57.948227
 21
105.075386
 31
0.0
210
0.0
220
0.0
230
1.0
  0
LINE
  8
0
 62
     7
 10
145.948227
 20
105.075386
 30
0.0
 11
136.948227
 21
105.075386
 31
0.0
210
0.0
220
0.0
230
1.0
  0
LINE
  8
0
 62
     7
 10
145.948227
 20
109.926826
 30
0.0
 11
145.948227
 21
105.075386
 31
0.0
210
0.0
220
0.0
230
1.0
  0
LINE
  8
0
 62
     7
 10
138.298218
 20
203.075378
 30
0.0
 11
138.298218
 21
201.275391
 31
0.0
210
0.0
220
0.0
230
1.0
  0
LINE
  8
0
 62
     7
 10
101.948227
 20
203.075378
 30
0.0
 11
138.298218
 21
203.075378
 31
0.0
210
0.0
220
0.0
230
1.0
  0
ARC
  8
0
 62
     7
 10
62.840618
 20
158.873932
 30
0.0
 40
1.5
 50
324.250001
 51
29.249998
210
0.0
220
0.0
230
1.0
  0
ARC
  8
0
 62
     7
 10
58.448227
 20
198.118118
 30
0.0
 40
1.5
 50
328.0
 51
360.0
210
0.0
220
0.0
230
1.0
  0
LINE
  8
0
 62
     7
 10
59.948227
 20
203.075378
 30
0.0
 11
59.948227
 21
198.87619
 31
0.0
210
0.0
220
0.0
230
1.0
  0
LINE
  8
0
 62
     7
 10
59.948227
 20
198.118118
 30
0.0
 11
59.948227
 21
198.87619
 31
0.0
210
0.0
220
0.0
230
1.0
  0
LINE
  8
0
 62
     7
 10
59.720299
 20
197.323242
 30
0.0
 11
50.916981
 21
183.234985
 31
0.0
210
0.0
220
0.0
230
1.0
  0
LINE
  8
0
 62
     7
 10
50.916981
 20
183.234985
 30
0.0
 11
51.069031
 21
182.963486
 31
0.0
210
0.0
220
0.0
230
1.0
  0
LINE
  8
0
 62
     7
 10
55.487041
 20
175.074554
 30
0.0
 11
64.149361
 21
159.606873
 31
0.0
210
0.0
220
0.0
230
1.0
  0
LINE
  8
0
 62
     7
 10
51.069031
 20
182.963486
 30
0.0
 11
55.487041
 21
175.074554
 31
0.0
210
0.0
220
0.0
230
1.0
  0
CIRCLE
  8
0
 62
     7
 10
64.042892
 20
179.897491
 30
0.0
 40
1.6
210
0.0
220
0.0
230
1.0
  0
CIRCLE
  8
0
 62
     7
 10
69.156616
 20
188.081177
 30
0.0
 40
1.6
210
0.0
220
0.0
230
1.0
  0
CIRCLE
  8
0
 62
     7
 10
65.199646
 20
193.731644
 30
0.0
 40
0.635
210
0.0
220
0.0
230
1.0
  0
CIRCLE
  8
0
 62
     7
 10
63.045597
 20
195.077637
 30
0.0
 40
0.635
210
0.0
220
0.0
230
1.0
  0
CIRCLE
  8
0
 62
     7
 10
67.353683
 20
192.385651
 30
0.0
 40
0.635
210
0.0
220
0.0
230
1.0
  0
CIRCLE
  8
0
 62
     7
 10
57.229656
 20
180.97699
 30
0.0
 40
0.635
210
0.0
220
0.0
230
1.0
  0
CIRCLE
  8
0
 62
     7
 10
72.734741
 20
181.352631
 30
0.0
 40
0.445
210
0.0
220
0.0
230
1.0
  0
CIRCLE
  8
0
 62
     7
 10
71.659004
 20
179.631104
 30
0.0
 40
0.445
210
0.0
220
0.0
230
1.0
  0
CIRCLE
  8
0
 62
     7
 10
73.27253
 20
177.420105
 30
0.0
 40
0.445
210
0.0
220
0.0
230
1.0
  0
CIRCLE
  8
0
 62
     7
 10
70.583267
 20
177.909561
 30
0.0
 40
0.445
210
0.0
220
0.0
230
1.0
  0
CIRCLE
  8
0
 62
     7
 10
72.196793
 20
175.698547
 30
0.0
 40
0.445
210
0.0
220
0.0
230
1.0
  0
CIRCLE
  8
0
 62
     7
 10
69.50753
 20
176.188019
 30
0.0
 40
0.445
210
0.0
220
0.0
230
1.0
  0
CIRCLE
  8
0
 62
     7
 10
71.121056
 20
173.97702
 30
0.0
 40
0.445
210
0.0
220
0.0
230
1.0
  0
CIRCLE
  8
0
 62
     7
 10
75.429298
 20
180.871643
 30
0.0
 40
0.445
210
0.0
220
0.0
230
1.0
  0
CIRCLE
  8
0
 62
     7
 10
73.810471
 20
183.074173
 30
0.0
 40
0.445
210
0.0
220
0.0
230
1.0
  0
CIRCLE
  8
0
 62
     7
 10
76.505035
 20
182.593185
 30
0.0
 40
0.445
210
0.0
220
0.0
230
1.0
  0
CIRCLE
  8
0
 62
     7
 10
74.886215
 20
184.795715
 30
0.0
 40
0.445
210
0.0
220
0.0
230
1.0
  0
CIRCLE
  8
0
 62
     7
 10
77.580772
 20
184.314728
 30
0.0
 40
0.445
210
0.0
220
0.0
230
1.0
  0
CIRCLE
  8
0
 62
     7
 10
71.257744
 20
191.44368
 30
0.0
 40
0.785
210
0.0
220
0.0
230
1.0
  0
CIRCLE
  8
0
 62
     7
 10
61.941765
 20
176.534988
 30
0.0
 40
0.785
210
0.0
220
0.0
230
1.0
  0
CIRCLE
  8
0
 62
     7
 10
55.075611
 20
182.322998
 30
0.0
 40
0.635
210
0.0
220
0.0
230
1.0
  0
ENDSEC
  0
EOF
