  0
SECTION
  2
HEADER
  9
$ACADVER
  1
AC1009
  9
$DWGCODEPAGE
  3
ansi_1252
  9
$INSBASE
 10
0.0
 20
0.0
 30
0.0
  9
$EXTMIN
 10
0.0
 20
0.0
 30
0.0
  9
$EXTMAX
 10
160.694519
 20
218.313446
 30
2.0
  9
$LIMMIN
 10
0.0
 20
0.0
  9
$LIMMAX
 10
420.0
 20
297.0
  9
$ORTHOMODE
 70
     0
  9
$REGENMODE
 70
     1
  9
$FILLMODE
 70
     1
  9
$QTEXTMODE
 70
     0
  9
$MIRRTEXT
 70
     1
  9
$DRAGMODE
 70
     2
  9
$LTSCALE
 40
1.0
  9
$OSMODE
 70
     0
  9
$ATTMODE
 70
     1
  9
$TEXTSIZE
 40
2.5
  9
$TRACEWID
 40
1.0
  9
$TEXTSTYLE
  7
STANDARD
  9
$CLAYER
  8
0
  9
$CELTYPE
  6
BYLAYER
  9
$CECOLOR
 62
   256
  9
$DIMSCALE
 40
1.0
  9
$DIMASZ
 40
2.5
  9
$DIMEXO
 40
0.625
  9
$DIMDLI
 40
3.75
  9
$DIMRND
 40
0.0
  9
$DIMDLE
 40
0.0
  9
$DIMEXE
 40
1.25
  9
$DIMTP
 40
0.0
  9
$DIMTM
 40
0.0
  9
$DIMTXT
 40
2.5
  9
$DIMCEN
 40
2.5
  9
$DIMTSZ
 40
0.0
  9
$DIMTOL
 70
     0
  9
$DIMLIM
 70
     0
  9
$DIMTIH
 70
     0
  9
$DIMTOH
 70
     0
  9
$DIMSE1
 70
     0
  9
$DIMSE2
 70
     0
  9
$DIMTAD
 70
     1
  9
$DIMZIN
 70
     8
  9
$DIMBLK
  1

  9
$DIMASO
 70
     1
  9
$DIMSHO
 70
     1
  9
$DIMPOST
  1

  9
$DIMAPOST
  1

  9
$DIMALT
 70
     0
  9
$DIMALTD
 70
     3
  9
$DIMALTF
 40
0.03937
  9
$DIMLFAC
 40
1.0
  9
$DIMTOFL
 70
     1
  9
$DIMTVP
 40
0.0
  9
$DIMTIX
 70
     0
  9
$DIMSOXD
 70
     0
  9
$DIMSAH
 70
     0
  9
$DIMBLK1
  1

  9
$DIMBLK2
  1

  9
$DIMSTYLE
  2

  9
$DIMCLRD
 70
     0
  9
$DIMCLRE
 70
     0
  9
$DIMCLRT
 70
     0
  9
$DIMTFAC
 40
1.0
  9
$DIMGAP
 40
0.625
  9
$LUNITS
 70
     2
  9
$LUPREC
 70
     4
  9
$AXISMODE
 70
     0
  9
$AXISUNIT
 10
0.0
 20
0.0
  9
$SKETCHINC
 40
1.0
  9
$FILLETRAD
 40
2.5
  9
$AUNITS
 70
     0
  9
$AUPREC
 70
     0
  9
$MENU
  1
.
  9
$ELEVATION
 40
0.0
  9
$PELEVATION
 40
0.0
  9
$THICKNESS
 40
0.0
  9
$LIMCHECK
 70
     0
  9
$BLIPMODE
 70
     1
  9
$CHAMFERA
 40
2.5
  9
$CHAMFERB
 40
2.5
  9
$SKPOLY
 70
     0
  9
$TDCREATE
 40
0.000000000
  9
$TDUPDATE
 40
0.000000000
  9
$TDINDWG
 40
0.0000000000
  9
$TDUSRTIMER
 40
0.0000000000
  9
$USRTIMER
 70
     1
  9
$ANGBASE
 50
0.0
  9
$ANGDIR
 70
     0
  9
$PDMODE
 70
     0
  9
$PDSIZE
 40
0.0
  9
$PLINEWID
 40
0.0
  9
$COORDS
 70
     0
  9
$SPLFRAME
 70
     0
  9
$SPLINETYPE
 70
     6
  9
$SPLINESEGS
 70
     8
  9
$ATTDIA
 70
     0
  9
$ATTREQ
 70
     1
  9
$HANDLING
 70
     0
  9
$HANDSEED
  5
3
  9
$SURFTAB1
 70
     6
  9
$SURFTAB2
 70
     6
  9
$SURFTYPE
 70
     6
  9
$SURFU
 70
     6
  9
$SURFV
 70
     6
  9
$UCSNAME
  2

  9
$UCSORG
 10
0.0
 20
0.0
 30
0.0
  9
$UCSXDIR
 10
1.0
 20
0.0
 30
0.0
  9
$UCSYDIR
 10
0.0
 20
1.0
 30
0.0
  9
$PUCSNAME
  2

  9
$PUCSORG
 10
0.0
 20
0.0
 30
0.0
  9
$PUCSXDIR
 10
1.0
 20
0.0
 30
0.0
  9
$PUCSYDIR
 10
0.0
 20
1.0
 30
0.0
  9
$USERI1
 70
     0
  9
$USERI2
 70
     0
  9
$USERI3
 70
     0
  9
$USERI4
 70
     0
  9
$USERI5
 70
     0
  9
$USERR1
 40
0.0
  9
$USERR2
 40
0.0
  9
$USERR3
 40
0.0
  9
$USERR4
 40
0.0
  9
$USERR5
 40
0.0
  9
$WORLDVIEW
 70
     1
  9
$SHADEDGE
 70
     3
  9
$SHADEDIF
 70
    70
  9
$TILEMODE
 70
     1
  9
$MAXACTVP
 70
    48
  9
$PINSBASE
 10
0.0
 20
0.0
 30
0.0
  9
$PLIMCHECK
 70
     0
  9
$PEXTMIN
 10
0.0
 20
0.0
 30
0.0
  9
$PEXTMAX
 10
160.694519
 20
218.313446
 30
2.0
  9
$PLIMMIN
 10
0.0
 20
0.0
  9
$PLIMMAX
 10
420.0
 20
297.0
  9
$UNITMODE
 70
     0
  9
$VISRETAIN
 70
     0
  9
$PLINEGEN
 70
     0
  9
$PSLTSCALE
 70
     1
  9
$TREEDEPTH
 70
  3020
  0
ENDSEC
  0
SECTION
  2
TABLES
  0
TABLE
  2
VPORT
 70
     1
  0
VPORT
  2
*ACTIVE
 70
     0
 10
0.0
 20
0.0
 11
1.0
 21
1.0
 12
6.591288
 22
4.579184
 13
0.0
 23
0.0
 14
1.0
 24
1.0
 15
0.0
 25
0.0
 16
0.0
 26
0.0
 36
1.0
 17
0.0
 27
0.0
 37
0.0
 40
9.158369
 41
0.688564
 42
50.0
 43
0.0
 44
0.0
 50
0.0
 51
0.0
 71
     0
 72
   100
 73
     1
 74
     1
 75
     0
 76
     0
 77
     0
 78
     0
  0
ENDTAB
  0
TABLE
  2
LTYPE
 70
     2
  0
LTYPE
  2
CONTINUOUS
 70
    64
  3
Solid line
 72
    65
 73
     0
 40
0.0
  0
LTYPE
  2
DASHDOT
 70
     0
  3
 __ . __ . __ . __ . __ . __ . __ . 
 72
    65
 73
     4
 40
18.5
 49
12.0
 49
-3.0
 49
0.5
 49
-3.0
  0
ENDTAB
  0
TABLE
  2
LAYER
 70
     1
  0
LAYER
  2
0
 70
     0
 62
     7
  6
CONTINUOUS
  0
ENDTAB
  0
TABLE
  2
STYLE
 70
     1
  0
STYLE
  2
STANDARD
 70
     0
 40
0.0
 41
1.0
 50
0.0
 71
     0
 42
0.0
  3
txt
  4

  0
ENDTAB
  0
TABLE
  2
VIEW
 70
     0
  0
ENDTAB
  0
TABLE
  2
UCS
 70
     0
  0
ENDTAB
  0
TABLE
  2
APPID
 70
     1
  0
APPID
  2
ACAD
 70
     0
  0
ENDTAB
  0
TABLE
  2
DIMSTYLE
 70
     1
  0
DIMSTYLE
  2
STANDARD
 70
     0
  3

  4

  5

  6

  7

 40
1.0
 41
0.18
 42
0.0625
 43
0.38
 44
0.18
 45
0.0
 46
0.0
 47
0.0
 48
0.0
 71
     0
 72
     0
 73
     1
 74
     1
 75
     0
 76
     0
 77
     0
 78
     0
140
0.18
141
0.09
142
0.0
143
25.4
144
1.0
145
0.0
146
1.0
147
0.09
170
     0
171
     2
172
     0
173
     0
174
     0
175
     0
176
     0
177
     0
178
     0
  0
ENDTAB
  0
ENDSEC
  0
SECTION
  2
BLOCKS
  0
ENDSEC
  0
SECTION
  2
ENTITIES
  0
VIEWPORT
  8
0
 62
     0
 67
     1
 68
     1
 10
0.0
 20
0.0
 30
0.0
 40
1000.0
 41
1000.0
 69
     1
1001
ACAD
1000
MVIEW
1002
{
1070
    16
1010
0.0
1020
0.0
1030
0.0
1010
0.0
1020
0.0
1030
1.0
1040
0.0
1040
1000.0
1040
0.0
1040
0.0
1040
50.0
1040
0.0
1040
0.0
1070
     0
1070
   100
1070
     1
1070
     1
1070
     0
1070
     0
1070
     0
1070
     0
1040
0.0
1040
0.0
1040
0.0
1040
1.0
1040
1.0
1040
1.0
1040
1.0
1070
     0
1002
{
1002
}
1002
}
  0
LINE
  8
0
  6
DASHDOT
 62
     7
 10
129.254517
 20
103.844452
 30
0.0
 11
126.134521
 21
103.844452
 31
0.0
210
0.0
220
0.0
230
1.0
  0
LINE
  8
0
  6
DASHDOT
 62
     7
 10
127.694519
 20
105.404457
 30
0.0
 11
127.694519
 21
102.284454
 31
0.0
210
0.0
220
0.0
230
1.0
  0
POLYLINE
  8
0
 62
     7
 66
     1
 10
0.0
 20
0.0
 30
0.0
 70
     1
 71
    12
  0
VERTEX
  8
0
 10
61.366287
 20
214.965042
 30
0.0
  0
VERTEX
  8
0
 10
61.576473
 20
214.965042
 30
0.0
  0
VERTEX
  8
0
 10
61.576473
 20
216.992157
 30
0.0
  0
VERTEX
  8
0
 10
61.637497
 20
216.807877
 30
0.0
  0
VERTEX
  8
0
 10
62.412704
 20
214.965042
 30
0.0
  0
VERTEX
  8
0
 10
62.652271
 20
214.965042
 30
0.0
  0
VERTEX
  8
0
 10
62.652271
 20
217.465042
 30
0.0
  0
VERTEX
  8
0
 10
62.442085
 20
217.465042
 30
0.0
  0
VERTEX
  8
0
 10
62.442085
 20
215.437927
 30
0.0
  0
VERTEX
  8
0
 10
62.367504
 20
215.650024
 30
0.0
  0
VERTEX
  8
0
 10
61.608116
 20
217.465042
 30
0.0
  0
VERTEX
  8
0
 10
61.366287
 20
217.465042
 30
0.0
  0
SEQEND
  8
0
  0
POLYLINE
  8
0
 62
     7
 66
     1
 10
0.0
 20
0.0
 30
0.0
 70
     1
 71
    32
  0
VERTEX
  8
0
 10
63.428001
 20
216.213303
 30
0.0
  0
VERTEX
  8
0
 10
63.439304
 20
215.914276
 30
0.0
  0
VERTEX
  8
0
 10
63.479984
 20
215.653503
 30
0.0
  0
VERTEX
  8
0
 10
63.545528
 20
215.42749
 30
0.0
  0
VERTEX
  8
0
 10
63.633671
 20
215.239731
 30
0.0
  0
VERTEX
  8
0
 10
63.744415
 20
215.09021
 30
0.0
  0
VERTEX
  8
0
 10
63.8755
 20
214.982422
 30
0.0
  0
VERTEX
  8
0
 10
64.026924
 20
214.919846
 30
0.0
  0
VERTEX
  8
0
 10
64.198692
 20
214.895508
 30
0.0
  0
VERTEX
  8
0
 10
64.368195
 20
214.919846
 30
0.0
  0
VERTEX
  8
0
 10
64.519623
 20
214.982422
 30
0.0
  0
VERTEX
  8
0
 10
64.650711
 20
215.09021
 30
0.0
  0
VERTEX
  8
0
 10
64.761452
 20
215.239731
 30
0.0
  0
VERTEX
  8
0
 10
64.849594
 20
215.42749
 30
0.0
  0
VERTEX
  8
0
 10
64.91288
 20
215.653503
 30
0.0
  0
VERTEX
  8
0
 10
64.951302
 20
215.914276
 30
0.0
  0
VERTEX
  8
0
 10
64.967117
 20
216.213303
 30
0.0
  0
VERTEX
  8
0
 10
64.95356
 20
216.50885
 30
0.0
  0
VERTEX
  8
0
 10
64.91288
 20
216.769638
 30
0.0
  0
VERTEX
  8
0
 10
64.847336
 20
216.995636
 30
0.0
  0
VERTEX
  8
0
 10
64.761452
 20
217.183395
 30
0.0
  0
VERTEX
  8
0
 10
64.650711
 20
217.332916
 30
0.0
  0
VERTEX
  8
0
 10
64.519623
 20
217.440704
 30
0.0
  0
VERTEX
  8
0
 10
64.368195
 20
217.50676
 30
0.0
  0
VERTEX
  8
0
 10
64.198692
 20
217.531113
 30
0.0
  0
VERTEX
  8
0
 10
64.026924
 20
217.50676
 30
0.0
  0
VERTEX
  8
0
 10
63.8755
 20
217.440704
 30
0.0
  0
VERTEX
  8
0
 10
63.744415
 20
217.332916
 30
0.0
  0
VERTEX
  8
0
 10
63.633671
 20
217.183395
 30
0.0
  0
VERTEX
  8
0
 10
63.545528
 20
216.995636
 30
0.0
  0
VERTEX
  8
0
 10
63.479984
 20
216.769638
 30
0.0
  0
VERTEX
  8
0
 10
63.439304
 20
216.50885
 30
0.0
  0
SEQEND
  8
0
  0
POLYLINE
  8
0
 62
     7
 66
     1
 10
0.0
 20
0.0
 30
0.0
 70
     1
 71
    16
  0
VERTEX
  8
0
 10
63.656273
 20
216.213303
 30
0.0
  0
VERTEX
  8
0
 10
63.692432
 20
216.644455
 30
0.0
  0
VERTEX
  8
0
 10
63.800919
 20
216.967819
 30
0.0
  0
VERTEX
  8
0
 10
63.972683
 20
217.166016
 30
0.0
  0
VERTEX
  8
0
 10
64.198692
 20
217.23555
 30
0.0
  0
VERTEX
  8
0
 10
64.42244
 20
217.166016
 30
0.0
  0
VERTEX
  8
0
 10
64.594208
 20
216.967819
 30
0.0
  0
VERTEX
  8
0
 10
64.700432
 20
216.644455
 30
0.0
  0
VERTEX
  8
0
 10
64.738853
 20
216.213303
 30
0.0
  0
VERTEX
  8
0
 10
64.700432
 20
215.778671
 30
0.0
  0
VERTEX
  8
0
 10
64.594208
 20
215.455307
 30
0.0
  0
VERTEX
  8
0
 10
64.42244
 20
215.257111
 30
0.0
  0
VERTEX
  8
0
 10
64.198692
 20
215.191055
 30
0.0
  0
VERTEX
  8
0
 10
63.972683
 20
215.257111
 30
0.0
  0
VERTEX
  8
0
 10
63.800919
 20
215.455307
 30
0.0
  0
VERTEX
  8
0
 10
63.692432
 20
215.778671
 30
0.0
  0
SEQEND
  8
0
  0
POLYLINE
  8
0
 62
     7
 66
     1
 10
0.0
 20
0.0
 30
0.0
 70
     1
 71
    12
  0
VERTEX
  8
0
 10
65.742851
 20
214.965042
 30
0.0
  0
VERTEX
  8
0
 10
65.953041
 20
214.965042
 30
0.0
  0
VERTEX
  8
0
 10
65.953041
 20
216.992157
 30
0.0
  0
VERTEX
  8
0
 10
66.014061
 20
216.807877
 30
0.0
  0
VERTEX
  8
0
 10
66.789268
 20
214.965042
 30
0.0
  0
VERTEX
  8
0
 10
67.028839
 20
214.965042
 30
0.0
  0
VERTEX
  8
0
 10
67.028839
 20
217.465042
 30
0.0
  0
VERTEX
  8
0
 10
66.818649
 20
217.465042
 30
0.0
  0
VERTEX
  8
0
 10
66.818649
 20
215.437927
 30
0.0
  0
VERTEX
  8
0
 10
66.744064
 20
215.650024
 30
0.0
  0
VERTEX
  8
0
 10
65.98468
 20
217.465042
 30
0.0
  0
VERTEX
  8
0
 10
65.742851
 20
217.465042
 30
0.0
  0
SEQEND
  8
0
  0
POLYLINE
  8
0
 62
     7
 66
     1
 10
0.0
 20
0.0
 30
0.0
 70
     1
 71
     4
  0
VERTEX
  8
0
 10
67.779709
 20
215.747375
 30
0.0
  0
VERTEX
  8
0
 10
68.326645
 20
215.747375
 30
0.0
  0
VERTEX
  8
0
 10
68.326645
 20
216.022064
 30
0.0
  0
VERTEX
  8
0
 10
67.779709
 20
216.022064
 30
0.0
  0
SEQEND
  8
0
  0
POLYLINE
  8
0
 62
     7
 66
     1
 10
0.0
 20
0.0
 30
0.0
 70
     1
 71
    22
  0
VERTEX
  8
0
 10
69.070732
 20
215.914276
 30
0.0
  0
VERTEX
  8
0
 10
69.106895
 20
215.465744
 30
0.0
  0
VERTEX
  8
0
 10
69.22216
 20
215.149323
 30
0.0
  0
VERTEX
  8
0
 10
69.41201
 20
214.961563
 30
0.0
  0
VERTEX
  8
0
 10
69.680954
 20
214.895508
 30
0.0
  0
VERTEX
  8
0
 10
69.965729
 20
214.961563
 30
0.0
  0
VERTEX
  8
0
 10
70.17366
 20
215.152802
 30
0.0
  0
VERTEX
  8
0
 10
70.300217
 20
215.469208
 30
0.0
  0
VERTEX
  8
0
 10
70.343163
 20
215.914276
 30
0.0
  0
VERTEX
  8
0
 10
70.343163
 20
217.465042
 30
0.0
  0
VERTEX
  8
0
 10
70.121674
 20
217.465042
 30
0.0
  0
VERTEX
  8
0
 10
70.121674
 20
215.910797
 30
0.0
  0
VERTEX
  8
0
 10
70.094551
 20
215.604813
 30
0.0
  0
VERTEX
  8
0
 10
70.017708
 20
215.392715
 30
0.0
  0
VERTEX
  8
0
 10
69.888885
 20
215.264069
 30
0.0
  0
VERTEX
  8
0
 10
69.705818
 20
215.222351
 30
0.0
  0
VERTEX
  8
0
 10
69.520493
 20
215.264069
 30
0.0
  0
VERTEX
  8
0
 10
69.39167
 20
215.389236
 30
0.0
  0
VERTEX
  8
0
 10
69.314827
 20
215.604813
 30
0.0
  0
VERTEX
  8
0
 10
69.292221
 20
215.910797
 30
0.0
  0
VERTEX
  8
0
 10
69.292221
 20
217.465042
 30
0.0
  0
VERTEX
  8
0
 10
69.070732
 20
217.465042
 30
0.0
  0
SEQEND
  8
0
  0
POLYLINE
  8
0
 62
     7
 66
     1
 10
0.0
 20
0.0
 30
0.0
 70
     1
 71
    50
  0
VERTEX
  8
0
 10
71.10759
 20
215.789108
 30
0.0
  0
VERTEX
  8
0
 10
71.15731
 20
215.406631
 30
0.0
  0
VERTEX
  8
0
 10
71.283875
 20
215.128464
 30
0.0
  0
VERTEX
  8
0
 10
71.480507
 20
214.958084
 30
0.0
  0
VERTEX
  8
0
 10
71.744934
 20
214.898972
 30
0.0
  0
VERTEX
  8
0
 10
72.004845
 20
214.958084
 30
0.0
  0
VERTEX
  8
0
 10
72.201469
 20
215.114548
 30
0.0
  0
VERTEX
  8
0
 10
72.325775
 20
215.36142
 30
0.0
  0
VERTEX
  8
0
 10
72.368721
 20
215.688263
 30
0.0
  0
VERTEX
  8
0
 10
72.332558
 20
215.959473
 30
0.0
  0
VERTEX
  8
0
 10
72.235374
 20
216.164627
 30
0.0
  0
VERTEX
  8
0
 10
72.072647
 20
216.293274
 30
0.0
  0
VERTEX
  8
0
 10
71.862457
 20
216.383682
 30
0.0
  0
VERTEX
  8
0
 10
71.640968
 20
216.463654
 30
0.0
  0
VERTEX
  8
0
 10
71.487289
 20
216.543625
 30
0.0
  0
VERTEX
  8
0
 10
71.396881
 20
216.658371
 30
0.0
  0
VERTEX
  8
0
 10
71.369759
 20
216.849609
 30
0.0
  0
VERTEX
  8
0
 10
71.392365
 20
217.009552
 30
0.0
  0
VERTEX
  8
0
 10
71.464684
 20
217.138199
 30
0.0
  0
VERTEX
  8
0
 10
71.575432
 20
217.21817
 30
0.0
  0
VERTEX
  8
0
 10
71.726852
 20
217.249466
 30
0.0
  0
VERTEX
  8
0
 10
71.880539
 20
217.214691
 30
0.0
  0
VERTEX
  8
0
 10
71.998062
 20
217.113861
 30
0.0
  0
VERTEX
  8
0
 10
72.074905
 20
216.950439
 30
0.0
  0
VERTEX
  8
0
 10
72.111069
 20
216.731384
 30
0.0
  0
VERTEX
  8
0
 10
72.321259
 20
216.731384
 30
0.0
  0
VERTEX
  8
0
 10
72.278313
 20
217.065186
 30
0.0
  0
VERTEX
  8
0
 10
72.163048
 20
217.315521
 30
0.0
  0
VERTEX
  8
0
 10
71.982246
 20
217.475479
 30
0.0
  0
VERTEX
  8
0
 10
71.740417
 20
217.531113
 30
0.0
  0
VERTEX
  8
0
 10
71.498589
 20
217.475479
 30
0.0
  0
VERTEX
  8
0
 10
71.315521
 20
217.322479
 30
0.0
  0
VERTEX
  8
0
 10
71.197998
 20
217.089523
 30
0.0
  0
VERTEX
  8
0
 10
71.159576
 20
216.790497
 30
0.0
  0
VERTEX
  8
0
 10
71.193474
 20
216.515808
 30
0.0
  0
VERTEX
  8
0
 10
71.295181
 20
216.328049
 30
0.0
  0
VERTEX
  8
0
 10
71.466942
 20
216.199402
 30
0.0
  0
VERTEX
  8
0
 10
71.704254
 20
216.098557
 30
0.0
  0
VERTEX
  8
0
 10
71.896362
 20
216.022064
 30
0.0
  0
VERTEX
  8
0
 10
72.036484
 20
215.945572
 30
0.0
  0
VERTEX
  8
0
 10
72.12011
 20
215.830826
 30
0.0
  0
VERTEX
  8
0
 10
72.14949
 20
215.650024
 30
0.0
  0
VERTEX
  8
0
 10
72.12011
 20
215.462265
 30
0.0
  0
VERTEX
  8
0
 10
72.041008
 20
215.316223
 30
0.0
  0
VERTEX
  8
0
 10
71.914444
 20
215.225815
 30
0.0
  0
VERTEX
  8
0
 10
71.742676
 20
215.194534
 30
0.0
  0
VERTEX
  8
0
 10
71.568649
 20
215.232773
 30
0.0
  0
VERTEX
  8
0
 10
71.437561
 20
215.354477
 30
0.0
  0
VERTEX
  8
0
 10
71.351685
 20
215.538757
 30
0.0
  0
VERTEX
  8
0
 10
71.320038
 20
215.789108
 30
0.0
  0
SEQEND
  8
0
  0
POLYLINE
  8
0
 62
     7
 66
     1
 10
0.0
 20
0.0
 30
0.0
 70
     1
 71
     8
  0
VERTEX
  8
0
 10
72.96138
 20
214.965042
 30
0.0
  0
VERTEX
  8
0
 10
73.189651
 20
214.965042
 30
0.0
  0
VERTEX
  8
0
 10
73.363678
 20
215.712601
 30
0.0
  0
VERTEX
  8
0
 10
74.003281
 20
215.712601
 30
0.0
  0
VERTEX
  8
0
 10
74.175049
 20
214.965042
 30
0.0
  0
VERTEX
  8
0
 10
74.414612
 20
214.965042
 30
0.0
  0
VERTEX
  8
0
 10
73.808914
 20
217.465042
 30
0.0
  0
VERTEX
  8
0
 10
73.564827
 20
217.465042
 30
0.0
  0
SEQEND
  8
0
  0
POLYLINE
  8
0
 62
     7
 66
     1
 10
0.0
 20
0.0
 30
0.0
 70
     1
 71
     3
  0
VERTEX
  8
0
 10
73.43148
 20
216.004684
 30
0.0
  0
VERTEX
  8
0
 10
73.686867
 20
217.106903
 30
0.0
  0
VERTEX
  8
0
 10
73.937737
 20
216.004684
 30
0.0
  0
SEQEND
  8
0
  0
POLYLINE
  8
0
 62
     7
 66
     1
 10
0.0
 20
0.0
 30
0.0
 70
     1
 71
    19
  0
VERTEX
  8
0
 10
75.081863
 20
214.965042
 30
0.0
  0
VERTEX
  8
0
 10
75.771187
 20
214.965042
 30
0.0
  0
VERTEX
  8
0
 10
76.001717
 20
215.017197
 30
0.0
  0
VERTEX
  8
0
 10
76.173485
 20
215.170181
 30
0.0
  0
VERTEX
  8
0
 10
76.281967
 20
215.403152
 30
0.0
  0
VERTEX
  8
0
 10
76.320389
 20
215.712601
 30
0.0
  0
VERTEX
  8
0
 10
76.297791
 20
215.935135
 30
0.0
  0
VERTEX
  8
0
 10
76.236763
 20
216.112473
 30
0.0
  0
VERTEX
  8
0
 10
76.13958
 20
216.241119
 30
0.0
  0
VERTEX
  8
0
 10
76.010757
 20
216.314133
 30
0.0
  0
VERTEX
  8
0
 10
76.110199
 20
216.401062
 30
0.0
  0
VERTEX
  8
0
 10
76.184784
 20
216.522766
 30
0.0
  0
VERTEX
  8
0
 10
76.227722
 20
216.672272
 30
0.0
  0
VERTEX
  8
0
 10
76.243546
 20
216.856552
 30
0.0
  0
VERTEX
  8
0
 10
76.209641
 20
217.120819
 30
0.0
  0
VERTEX
  8
0
 10
76.114723
 20
217.312057
 30
0.0
  0
VERTEX
  8
0
 10
75.956512
 20
217.426788
 30
0.0
  0
VERTEX
  8
0
 10
75.737289
 20
217.465042
 30
0.0
  0
VERTEX
  8
0
 10
75.081863
 20
217.465042
 30
0.0
  0
SEQEND
  8
0
  0
POLYLINE
  8
0
 62
     7
 66
     1
 10
0.0
 20
0.0
 30
0.0
 70
     1
 71
    11
  0
VERTEX
  8
0
 10
75.303352
 20
215.267548
 30
0.0
  0
VERTEX
  8
0
 10
75.303352
 20
216.13681
 30
0.0
  0
VERTEX
  8
0
 10
75.725983
 20
216.13681
 30
0.0
  0
VERTEX
  8
0
 10
75.886452
 20
216.112473
 30
0.0
  0
VERTEX
  8
0
 10
76.001717
 20
216.03598
 30
0.0
  0
VERTEX
  8
0
 10
76.069519
 20
215.903839
 30
0.0
  0
VERTEX
  8
0
 10
76.094376
 20
215.71608
 30
0.0
  0
VERTEX
  8
0
 10
76.071777
 20
215.521378
 30
0.0
  0
VERTEX
  8
0
 10
76.006233
 20
215.382294
 30
0.0
  0
VERTEX
  8
0
 10
75.897751
 20
215.295364
 30
0.0
  0
VERTEX
  8
0
 10
75.750847
 20
215.267548
 30
0.0
  0
SEQEND
  8
0
  0
POLYLINE
  8
0
 62
     7
 66
     1
 10
0.0
 20
0.0
 30
0.0
 70
     1
 71
    11
  0
VERTEX
  8
0
 10
75.303352
 20
216.414978
 30
0.0
  0
VERTEX
  8
0
 10
75.303352
 20
217.179916
 30
0.0
  0
VERTEX
  8
0
 10
75.707909
 20
217.179916
 30
0.0
  0
VERTEX
  8
0
 10
75.845772
 20
217.155579
 30
0.0
  0
VERTEX
  8
0
 10
75.942955
 20
217.086044
 30
0.0
  0
VERTEX
  8
0
 10
76.001717
 20
216.971298
 30
0.0
  0
VERTEX
  8
0
 10
76.022057
 20
216.807877
 30
0.0
  0
VERTEX
  8
0
 10
75.999458
 20
216.630554
 30
0.0
  0
VERTEX
  8
0
 10
75.938431
 20
216.505371
 30
0.0
  0
VERTEX
  8
0
 10
75.834473
 20
216.435837
 30
0.0
  0
VERTEX
  8
0
 10
75.689827
 20
216.414978
 30
0.0
  0
SEQEND
  8
0
  0
POLYLINE
  8
0
 62
     7
 66
     1
 10
0.0
 20
0.0
 30
0.0
 70
     1
 71
     6
  0
VERTEX
  8
0
 10
77.078033
 20
214.965042
 30
0.0
  0
VERTEX
  8
0
 10
78.110893
 20
214.965042
 30
0.0
  0
VERTEX
  8
0
 10
78.110893
 20
215.281448
 30
0.0
  0
VERTEX
  8
0
 10
77.301788
 20
215.281448
 30
0.0
  0
VERTEX
  8
0
 10
77.301788
 20
217.465042
 30
0.0
  0
VERTEX
  8
0
 10
77.078033
 20
217.465042
 30
0.0
  0
SEQEND
  8
0
  0
POLYLINE
  8
0
 62
     7
 66
     1
 10
0.0
 20
0.0
 30
0.0
 70
     1
 71
    12
  0
VERTEX
  8
0
 10
78.787186
 20
214.965042
 30
0.0
  0
VERTEX
  8
0
 10
79.964684
 20
214.965042
 30
0.0
  0
VERTEX
  8
0
 10
79.964684
 20
215.277969
 30
0.0
  0
VERTEX
  8
0
 10
79.006409
 20
215.277969
 30
0.0
  0
VERTEX
  8
0
 10
79.006409
 20
216.115952
 30
0.0
  0
VERTEX
  8
0
 10
79.874283
 20
216.115952
 30
0.0
  0
VERTEX
  8
0
 10
79.874283
 20
216.40802
 30
0.0
  0
VERTEX
  8
0
 10
79.006409
 20
216.40802
 30
0.0
  0
VERTEX
  8
0
 10
79.006409
 20
217.155579
 30
0.0
  0
VERTEX
  8
0
 10
79.946602
 20
217.155579
 30
0.0
  0
VERTEX
  8
0
 10
79.946602
 20
217.465042
 30
0.0
  0
VERTEX
  8
0
 10
78.787186
 20
217.465042
 30
0.0
  0
SEQEND
  8
0
  0
POLYLINE
  8
0
 62
     7
 66
     1
 10
0.0
 20
0.0
 30
0.0
 70
     1
 71
     8
  0
VERTEX
  8
0
 10
81.66983
 20
214.965042
 30
0.0
  0
VERTEX
  8
0
 10
81.898102
 20
214.965042
 30
0.0
  0
VERTEX
  8
0
 10
82.072128
 20
215.712601
 30
0.0
  0
VERTEX
  8
0
 10
82.711731
 20
215.712601
 30
0.0
  0
VERTEX
  8
0
 10
82.883499
 20
214.965042
 30
0.0
  0
VERTEX
  8
0
 10
83.123062
 20
214.965042
 30
0.0
  0
VERTEX
  8
0
 10
82.517365
 20
217.465042
 30
0.0
  0
VERTEX
  8
0
 10
82.27327
 20
217.465042
 30
0.0
  0
SEQEND
  8
0
  0
POLYLINE
  8
0
 62
     7
 66
     1
 10
0.0
 20
0.0
 30
0.0
 70
     1
 71
     3
  0
VERTEX
  8
0
 10
82.139931
 20
216.004684
 30
0.0
  0
VERTEX
  8
0
 10
82.395317
 20
217.106903
 30
0.0
  0
VERTEX
  8
0
 10
82.646187
 20
216.004684
 30
0.0
  0
SEQEND
  8
0
  0
POLYLINE
  8
0
 62
     7
 66
     1
 10
0.0
 20
0.0
 30
0.0
 70
     1
 71
    30
  0
VERTEX
  8
0
 10
83.790314
 20
217.465042
 30
0.0
  0
VERTEX
  8
0
 10
83.790314
 20
214.965042
 30
0.0
  0
VERTEX
  8
0
 10
84.009537
 20
214.965042
 30
0.0
  0
VERTEX
  8
0
 10
84.009537
 20
216.03598
 30
0.0
  0
VERTEX
  8
0
 10
84.366631
 20
216.03598
 30
0.0
  0
VERTEX
  8
0
 10
84.538399
 20
216.025543
 30
0.0
  0
VERTEX
  8
0
 10
84.644623
 20
215.973389
 30
0.0
  0
VERTEX
  8
0
 10
84.703384
 20
215.855164
 30
0.0
  0
VERTEX
  8
0
 10
84.728241
 20
215.636108
 30
0.0
  0
VERTEX
  8
0
 10
84.741806
 20
215.309265
 30
0.0
  0
VERTEX
  8
0
 10
84.753105
 20
215.111084
 30
0.0
  0
VERTEX
  8
0
 10
84.784744
 20
214.965042
 30
0.0
  0
VERTEX
  8
0
 10
85.040138
 20
214.965042
 30
0.0
  0
VERTEX
  8
0
 10
85.040138
 20
215.034576
 30
0.0
  0
VERTEX
  8
0
 10
84.985893
 20
215.135422
 30
0.0
  0
VERTEX
  8
0
 10
84.965553
 20
215.32666
 30
0.0
  0
VERTEX
  8
0
 10
84.947472
 20
215.736954
 30
0.0
  0
VERTEX
  8
0
 10
84.931656
 20
215.910797
 30
0.0
  0
VERTEX
  8
0
 10
84.902267
 20
216.046402
 30
0.0
  0
VERTEX
  8
0
 10
84.84803
 20
216.140289
 30
0.0
  0
VERTEX
  8
0
 10
84.762146
 20
216.202866
 30
0.0
  0
VERTEX
  8
0
 10
84.857071
 20
216.296753
 30
0.0
  0
VERTEX
  8
0
 10
84.927132
 20
216.4254
 30
0.0
  0
VERTEX
  8
0
 10
84.970078
 20
216.581879
 30
0.0
  0
VERTEX
  8
0
 10
84.985893
 20
216.773102
 30
0.0
  0
VERTEX
  8
0
 10
84.970078
 20
216.967819
 30
0.0
  0
VERTEX
  8
0
 10
84.931656
 20
217.138199
 30
0.0
  0
VERTEX
  8
0
 10
84.775703
 20
217.378113
 30
0.0
  0
VERTEX
  8
0
 10
84.610718
 20
217.451141
 30
0.0
  0
VERTEX
  8
0
 10
84.420876
 20
217.465042
 30
0.0
  0
SEQEND
  8
0
  0
POLYLINE
  8
0
 62
     7
 66
     1
 10
0.0
 20
0.0
 30
0.0
 70
     1
 71
    11
  0
VERTEX
  8
0
 10
84.007278
 20
217.172974
 30
0.0
  0
VERTEX
  8
0
 10
84.384712
 20
217.172974
 30
0.0
  0
VERTEX
  8
0
 10
84.545181
 20
217.155579
 30
0.0
  0
VERTEX
  8
0
 10
84.662704
 20
217.093002
 30
0.0
  0
VERTEX
  8
0
 10
84.732765
 20
216.971298
 30
0.0
  0
VERTEX
  8
0
 10
84.757629
 20
216.766159
 30
0.0
  0
VERTEX
  8
0
 10
84.732765
 20
216.554062
 30
0.0
  0
VERTEX
  8
0
 10
84.664963
 20
216.418457
 30
0.0
  0
VERTEX
  8
0
 10
84.54744
 20
216.345428
 30
0.0
  0
VERTEX
  8
0
 10
84.384712
 20
216.32457
 30
0.0
  0
VERTEX
  8
0
 10
84.007278
 20
216.32457
 30
0.0
  0
SEQEND
  8
0
  0
POLYLINE
  8
0
 62
     7
 66
     1
 10
0.0
 20
0.0
 30
0.0
 70
     1
 71
    12
  0
VERTEX
  8
0
 10
85.791
 20
214.965042
 30
0.0
  0
VERTEX
  8
0
 10
86.968506
 20
214.965042
 30
0.0
  0
VERTEX
  8
0
 10
86.968506
 20
215.277969
 30
0.0
  0
VERTEX
  8
0
 10
86.010231
 20
215.277969
 30
0.0
  0
VERTEX
  8
0
 10
86.010231
 20
216.115952
 30
0.0
  0
VERTEX
  8
0
 10
86.878105
 20
216.115952
 30
0.0
  0
VERTEX
  8
0
 10
86.878105
 20
216.40802
 30
0.0
  0
VERTEX
  8
0
 10
86.010231
 20
216.40802
 30
0.0
  0
VERTEX
  8
0
 10
86.010231
 20
217.155579
 30
0.0
  0
VERTEX
  8
0
 10
86.950424
 20
217.155579
 30
0.0
  0
VERTEX
  8
0
 10
86.950424
 20
217.465042
 30
0.0
  0
VERTEX
  8
0
 10
85.791
 20
217.465042
 30
0.0
  0
SEQEND
  8
0
  0
POLYLINE
  8
0
 62
     7
 66
     1
 10
0.0
 20
0.0
 30
0.0
 70
     1
 71
     8
  0
VERTEX
  8
0
 10
87.55439
 20
214.965042
 30
0.0
  0
VERTEX
  8
0
 10
87.782661
 20
214.965042
 30
0.0
  0
VERTEX
  8
0
 10
87.956688
 20
215.712601
 30
0.0
  0
VERTEX
  8
0
 10
88.596291
 20
215.712601
 30
0.0
  0
VERTEX
  8
0
 10
88.768051
 20
214.965042
 30
0.0
  0
VERTEX
  8
0
 10
89.007622
 20
214.965042
 30
0.0
  0
VERTEX
  8
0
 10
88.401924
 20
217.465042
 30
0.0
  0
VERTEX
  8
0
 10
88.157837
 20
217.465042
 30
0.0
  0
SEQEND
  8
0
  0
POLYLINE
  8
0
 62
     7
 66
     1
 10
0.0
 20
0.0
 30
0.0
 70
     1
 71
     3
  0
VERTEX
  8
0
 10
88.02449
 20
216.004684
 30
0.0
  0
VERTEX
  8
0
 10
88.279877
 20
217.106903
 30
0.0
  0
VERTEX
  8
0
 10
88.530746
 20
216.004684
 30
0.0
  0
SEQEND
  8
0
  0
POLYLINE
  8
0
 62
     7
 66
     1
 10
0.0
 20
0.0
 30
0.0
 70
     1
 71
    32
  0
VERTEX
  8
0
 10
61.298481
 20
212.713303
 30
0.0
  0
VERTEX
  8
0
 10
61.309784
 20
212.414276
 30
0.0
  0
VERTEX
  8
0
 10
61.350464
 20
212.153503
 30
0.0
  0
VERTEX
  8
0
 10
61.416008
 20
211.92749
 30
0.0
  0
VERTEX
  8
0
 10
61.50415
 20
211.739731
 30
0.0
  0
VERTEX
  8
0
 10
61.614895
 20
211.59021
 30
0.0
  0
VERTEX
  8
0
 10
61.745979
 20
211.482422
 30
0.0
  0
VERTEX
  8
0
 10
61.897404
 20
211.419846
 30
0.0
  0
VERTEX
  8
0
 10
62.069172
 20
211.395508
 30
0.0
  0
VERTEX
  8
0
 10
62.238678
 20
211.419846
 30
0.0
  0
VERTEX
  8
0
 10
62.390102
 20
211.482422
 30
0.0
  0
VERTEX
  8
0
 10
62.521187
 20
211.59021
 30
0.0
  0
VERTEX
  8
0
 10
62.631931
 20
211.739731
 30
0.0
  0
VERTEX
  8
0
 10
62.720074
 20
211.92749
 30
0.0
  0
VERTEX
  8
0
 10
62.783356
 20
212.153503
 30
0.0
  0
VERTEX
  8
0
 10
62.821777
 20
212.414276
 30
0.0
  0
VERTEX
  8
0
 10
62.837601
 20
212.713303
 30
0.0
  0
VERTEX
  8
0
 10
62.824039
 20
213.00885
 30
0.0
  0
VERTEX
  8
0
 10
62.783356
 20
213.269638
 30
0.0
  0
VERTEX
  8
0
 10
62.717815
 20
213.495636
 30
0.0
  0
VERTEX
  8
0
 10
62.631931
 20
213.683395
 30
0.0
  0
VERTEX
  8
0
 10
62.521187
 20
213.832916
 30
0.0
  0
VERTEX
  8
0
 10
62.390102
 20
213.940704
 30
0.0
  0
VERTEX
  8
0
 10
62.238678
 20
214.00676
 30
0.0
  0
VERTEX
  8
0
 10
62.069172
 20
214.031113
 30
0.0
  0
VERTEX
  8
0
 10
61.897404
 20
214.00676
 30
0.0
  0
VERTEX
  8
0
 10
61.745979
 20
213.940704
 30
0.0
  0
VERTEX
  8
0
 10
61.614895
 20
213.832916
 30
0.0
  0
VERTEX
  8
0
 10
61.50415
 20
213.683395
 30
0.0
  0
VERTEX
  8
0
 10
61.416008
 20
213.495636
 30
0.0
  0
VERTEX
  8
0
 10
61.350464
 20
213.269638
 30
0.0
  0
VERTEX
  8
0
 10
61.309784
 20
213.00885
 30
0.0
  0
SEQEND
  8
0
  0
POLYLINE
  8
0
 62
     7
 66
     1
 10
0.0
 20
0.0
 30
0.0
 70
     1
 71
    16
  0
VERTEX
  8
0
 10
61.526752
 20
212.713303
 30
0.0
  0
VERTEX
  8
0
 10
61.562912
 20
213.144455
 30
0.0
  0
VERTEX
  8
0
 10
61.671398
 20
213.467819
 30
0.0
  0
VERTEX
  8
0
 10
61.843163
 20
213.666016
 30
0.0
  0
VERTEX
  8
0
 10
62.069172
 20
213.73555
 30
0.0
  0
VERTEX
  8
0
 10
62.292919
 20
213.666016
 30
0.0
  0
VERTEX
  8
0
 10
62.464687
 20
213.467819
 30
0.0
  0
VERTEX
  8
0
 10
62.570911
 20
213.144455
 30
0.0
  0
VERTEX
  8
0
 10
62.609333
 20
212.713303
 30
0.0
  0
VERTEX
  8
0
 10
62.570911
 20
212.278671
 30
0.0
  0
VERTEX
  8
0
 10
62.464687
 20
211.955307
 30
0.0
  0
VERTEX
  8
0
 10
62.292919
 20
211.757111
 30
0.0
  0
VERTEX
  8
0
 10
62.069172
 20
211.691055
 30
0.0
  0
VERTEX
  8
0
 10
61.843163
 20
211.757111
 30
0.0
  0
VERTEX
  8
0
 10
61.671398
 20
211.955307
 30
0.0
  0
VERTEX
  8
0
 10
61.562912
 20
212.278671
 30
0.0
  0
SEQEND
  8
0
  0
POLYLINE
  8
0
 62
     7
 66
     1
 10
0.0
 20
0.0
 30
0.0
 70
     1
 71
    12
  0
VERTEX
  8
0
 10
63.613331
 20
211.465042
 30
0.0
  0
VERTEX
  8
0
 10
63.823517
 20
211.465042
 30
0.0
  0
VERTEX
  8
0
 10
63.823517
 20
213.492157
 30
0.0
  0
VERTEX
  8
0
 10
63.884541
 20
213.307877
 30
0.0
  0
VERTEX
  8
0
 10
64.659752
 20
211.465042
 30
0.0
  0
VERTEX
  8
0
 10
64.899315
 20
211.465042
 30
0.0
  0
VERTEX
  8
0
 10
64.899315
 20
213.965042
 30
0.0
  0
VERTEX
  8
0
 10
64.689133
 20
213.965042
 30
0.0
  0
VERTEX
  8
0
 10
64.689133
 20
211.937927
 30
0.0
  0
VERTEX
  8
0
 10
64.614548
 20
212.150024
 30
0.0
  0
VERTEX
  8
0
 10
63.85516
 20
213.965042
 30
0.0
  0
VERTEX
  8
0
 10
63.613331
 20
213.965042
 30
0.0
  0
SEQEND
  8
0
  0
POLYLINE
  8
0
 62
     7
 66
     1
 10
0.0
 20
0.0
 30
0.0
 70
     1
 71
     6
  0
VERTEX
  8
0
 10
65.74511
 20
211.465042
 30
0.0
  0
VERTEX
  8
0
 10
66.777969
 20
211.465042
 30
0.0
  0
VERTEX
  8
0
 10
66.777969
 20
211.781448
 30
0.0
  0
VERTEX
  8
0
 10
65.968857
 20
211.781448
 30
0.0
  0
VERTEX
  8
0
 10
65.968857
 20
213.965042
 30
0.0
  0
VERTEX
  8
0
 10
65.74511
 20
213.965042
 30
0.0
  0
SEQEND
  8
0
  0
POLYLINE
  8
0
 62
     7
 66
     1
 10
0.0
 20
0.0
 30
0.0
 70
     1
 71
     9
  0
VERTEX
  8
0
 10
68.084816
 20
211.465042
 30
0.0
  0
VERTEX
  8
0
 10
68.084816
 20
212.490768
 30
0.0
  0
VERTEX
  8
0
 10
68.663399
 20
213.965042
 30
0.0
  0
VERTEX
  8
0
 10
68.403488
 20
213.965042
 30
0.0
  0
VERTEX
  8
0
 10
67.971817
 20
212.782837
 30
0.0
  0
VERTEX
  8
0
 10
67.53788
 20
213.965042
 30
0.0
  0
VERTEX
  8
0
 10
67.259888
 20
213.965042
 30
0.0
  0
VERTEX
  8
0
 10
67.863327
 20
212.466431
 30
0.0
  0
VERTEX
  8
0
 10
67.863327
 20
211.465042
 30
0.0
  0
SEQEND
  8
0
  0
POLYLINE
  8
0
 62
     7
 66
     1
 10
0.0
 20
0.0
 30
0.0
 70
     1
 71
    10
  0
VERTEX
  8
0
 10
70.436348
 20
211.465042
 30
0.0
  0
VERTEX
  8
0
 10
70.657837
 20
211.465042
 30
0.0
  0
VERTEX
  8
0
 10
70.657837
 20
212.595078
 30
0.0
  0
VERTEX
  8
0
 10
71.417221
 20
212.595078
 30
0.0
  0
VERTEX
  8
0
 10
71.417221
 20
212.901062
 30
0.0
  0
VERTEX
  8
0
 10
70.657837
 20
212.901062
 30
0.0
  0
VERTEX
  8
0
 10
70.657837
 20
213.652115
 30
0.0
  0
VERTEX
  8
0
 10
71.527969
 20
213.652115
 30
0.0
  0
VERTEX
  8
0
 10
71.527969
 20
213.965042
 30
0.0
  0
VERTEX
  8
0
 10
70.436348
 20
213.965042
 30
0.0
  0
SEQEND
  8
0
  0
POLYLINE
  8
0
 62
     7
 66
     1
 10
0.0
 20
0.0
 30
0.0
 70
     1
 71
    32
  0
VERTEX
  8
0
 10
72.183914
 20
212.713303
 30
0.0
  0
VERTEX
  8
0
 10
72.195213
 20
212.414276
 30
0.0
  0
VERTEX
  8
0
 10
72.235893
 20
212.153503
 30
0.0
  0
VERTEX
  8
0
 10
72.301437
 20
211.92749
 30
0.0
  0
VERTEX
  8
0
 10
72.38958
 20
211.739731
 30
0.0
  0
VERTEX
  8
0
 10
72.500328
 20
211.59021
 30
0.0
  0
VERTEX
  8
0
 10
72.631409
 20
211.482422
 30
0.0
  0
VERTEX
  8
0
 10
72.782837
 20
211.419846
 30
0.0
  0
VERTEX
  8
0
 10
72.954605
 20
211.395508
 30
0.0
  0
VERTEX
  8
0
 10
73.124107
 20
211.419846
 30
0.0
  0
VERTEX
  8
0
 10
73.275536
 20
211.482422
 30
0.0
  0
VERTEX
  8
0
 10
73.406616
 20
211.59021
 30
0.0
  0
VERTEX
  8
0
 10
73.517365
 20
211.739731
 30
0.0
  0
VERTEX
  8
0
 10
73.605507
 20
211.92749
 30
0.0
  0
VERTEX
  8
0
 10
73.668793
 20
212.153503
 30
0.0
  0
VERTEX
  8
0
 10
73.707214
 20
212.414276
 30
0.0
  0
VERTEX
  8
0
 10
73.72303
 20
212.713303
 30
0.0
  0
VERTEX
  8
0
 10
73.709473
 20
213.00885
 30
0.0
  0
VERTEX
  8
0
 10
73.668793
 20
213.269638
 30
0.0
  0
VERTEX
  8
0
 10
73.603249
 20
213.495636
 30
0.0
  0
VERTEX
  8
0
 10
73.517365
 20
213.683395
 30
0.0
  0
VERTEX
  8
0
 10
73.406616
 20
213.832916
 30
0.0
  0
VERTEX
  8
0
 10
73.275536
 20
213.940704
 30
0.0
  0
VERTEX
  8
0
 10
73.124107
 20
214.00676
 30
0.0
  0
VERTEX
  8
0
 10
72.954605
 20
214.031113
 30
0.0
  0
VERTEX
  8
0
 10
72.782837
 20
214.00676
 30
0.0
  0
VERTEX
  8
0
 10
72.631409
 20
213.940704
 30
0.0
  0
VERTEX
  8
0
 10
72.500328
 20
213.832916
 30
0.0
  0
VERTEX
  8
0
 10
72.38958
 20
213.683395
 30
0.0
  0
VERTEX
  8
0
 10
72.301437
 20
213.495636
 30
0.0
  0
VERTEX
  8
0
 10
72.235893
 20
213.269638
 30
0.0
  0
VERTEX
  8
0
 10
72.195213
 20
213.00885
 30
0.0
  0
SEQEND
  8
0
  0
POLYLINE
  8
0
 62
     7
 66
     1
 10
0.0
 20
0.0
 30
0.0
 70
     1
 71
    16
  0
VERTEX
  8
0
 10
72.412186
 20
212.713303
 30
0.0
  0
VERTEX
  8
0
 10
72.448341
 20
213.144455
 30
0.0
  0
VERTEX
  8
0
 10
72.556824
 20
213.467819
 30
0.0
  0
VERTEX
  8
0
 10
72.728592
 20
213.666016
 30
0.0
  0
VERTEX
  8
0
 10
72.954605
 20
213.73555
 30
0.0
  0
VERTEX
  8
0
 10
73.178352
 20
213.666016
 30
0.0
  0
VERTEX
  8
0
 10
73.350113
 20
213.467819
 30
0.0
  0
VERTEX
  8
0
 10
73.456345
 20
213.144455
 30
0.0
  0
VERTEX
  8
0
 10
73.494766
 20
212.713303
 30
0.0
  0
VERTEX
  8
0
 10
73.456345
 20
212.278671
 30
0.0
  0
VERTEX
  8
0
 10
73.350113
 20
211.955307
 30
0.0
  0
VERTEX
  8
0
 10
73.178352
 20
211.757111
 30
0.0
  0
VERTEX
  8
0
 10
72.954605
 20
211.691055
 30
0.0
  0
VERTEX
  8
0
 10
72.728592
 20
211.757111
 30
0.0
  0
VERTEX
  8
0
 10
72.556824
 20
211.955307
 30
0.0
  0
VERTEX
  8
0
 10
72.448341
 20
212.278671
 30
0.0
  0
SEQEND
  8
0
  0
POLYLINE
  8
0
 62
     7
 66
     1
 10
0.0
 20
0.0
 30
0.0
 70
     1
 71
    30
  0
VERTEX
  8
0
 10
74.501022
 20
213.965042
 30
0.0
  0
VERTEX
  8
0
 10
74.501022
 20
211.465042
 30
0.0
  0
VERTEX
  8
0
 10
74.720245
 20
211.465042
 30
0.0
  0
VERTEX
  8
0
 10
74.720245
 20
212.53598
 30
0.0
  0
VERTEX
  8
0
 10
75.077347
 20
212.53598
 30
0.0
  0
VERTEX
  8
0
 10
75.249107
 20
212.525543
 30
0.0
  0
VERTEX
  8
0
 10
75.355331
 20
212.473389
 30
0.0
  0
VERTEX
  8
0
 10
75.414093
 20
212.355164
 30
0.0
  0
VERTEX
  8
0
 10
75.438957
 20
212.136108
 30
0.0
  0
VERTEX
  8
0
 10
75.452515
 20
211.809265
 30
0.0
  0
VERTEX
  8
0
 10
75.463814
 20
211.611084
 30
0.0
  0
VERTEX
  8
0
 10
75.495461
 20
211.465042
 30
0.0
  0
VERTEX
  8
0
 10
75.750847
 20
211.465042
 30
0.0
  0
VERTEX
  8
0
 10
75.750847
 20
211.534576
 30
0.0
  0
VERTEX
  8
0
 10
75.696609
 20
211.635422
 30
0.0
  0
VERTEX
  8
0
 10
75.676262
 20
211.82666
 30
0.0
  0
VERTEX
  8
0
 10
75.658188
 20
212.236954
 30
0.0
  0
VERTEX
  8
0
 10
75.642365
 20
212.410797
 30
0.0
  0
VERTEX
  8
0
 10
75.612984
 20
212.546402
 30
0.0
  0
VERTEX
  8
0
 10
75.558739
 20
212.640289
 30
0.0
  0
VERTEX
  8
0
 10
75.472855
 20
212.702866
 30
0.0
  0
VERTEX
  8
0
 10
75.56778
 20
212.796753
 30
0.0
  0
VERTEX
  8
0
 10
75.63784
 20
212.9254
 30
0.0
  0
VERTEX
  8
0
 10
75.680786
 20
213.081879
 30
0.0
  0
VERTEX
  8
0
 10
75.696609
 20
213.273102
 30
0.0
  0
VERTEX
  8
0
 10
75.680786
 20
213.467819
 30
0.0
  0
VERTEX
  8
0
 10
75.642365
 20
213.638199
 30
0.0
  0
VERTEX
  8
0
 10
75.48642
 20
213.878113
 30
0.0
  0
VERTEX
  8
0
 10
75.321434
 20
213.951141
 30
0.0
  0
VERTEX
  8
0
 10
75.131584
 20
213.965042
 30
0.0
  0
SEQEND
  8
0
  0
POLYLINE
  8
0
 62
     7
 66
     1
 10
0.0
 20
0.0
 30
0.0
 70
     1
 71
    11
  0
VERTEX
  8
0
 10
74.717987
 20
213.672974
 30
0.0
  0
VERTEX
  8
0
 10
75.095421
 20
213.672974
 30
0.0
  0
VERTEX
  8
0
 10
75.25589
 20
213.655579
 30
0.0
  0
VERTEX
  8
0
 10
75.373413
 20
213.593002
 30
0.0
  0
VERTEX
  8
0
 10
75.443474
 20
213.471298
 30
0.0
  0
VERTEX
  8
0
 10
75.468338
 20
213.266159
 30
0.0
  0
VERTEX
  8
0
 10
75.443474
 20
213.054062
 30
0.0
  0
VERTEX
  8
0
 10
75.375671
 20
212.918457
 30
0.0
  0
VERTEX
  8
0
 10
75.258148
 20
212.845428
 30
0.0
  0
VERTEX
  8
0
 10
75.095421
 20
212.82457
 30
0.0
  0
VERTEX
  8
0
 10
74.717987
 20
212.82457
 30
0.0
  0
SEQEND
  8
0
  0
POLYLINE
  8
0
 62
     7
 66
     1
 10
0.0
 20
0.0
 30
0.0
 70
     1
 71
     4
  0
VERTEX
  8
0
 10
77.625504
 20
211.465042
 30
0.0
  0
VERTEX
  8
0
 10
77.846985
 20
211.465042
 30
0.0
  0
VERTEX
  8
0
 10
77.846985
 20
213.965042
 30
0.0
  0
VERTEX
  8
0
 10
77.625504
 20
213.965042
 30
0.0
  0
SEQEND
  8
0
  0
POLYLINE
  8
0
 62
     7
 66
     1
 10
0.0
 20
0.0
 30
0.0
 70
     1
 71
    12
  0
VERTEX
  8
0
 10
78.699562
 20
211.465042
 30
0.0
  0
VERTEX
  8
0
 10
78.909744
 20
211.465042
 30
0.0
  0
VERTEX
  8
0
 10
78.909744
 20
213.492157
 30
0.0
  0
VERTEX
  8
0
 10
78.970772
 20
213.307877
 30
0.0
  0
VERTEX
  8
0
 10
79.745979
 20
211.465042
 30
0.0
  0
VERTEX
  8
0
 10
79.98555
 20
211.465042
 30
0.0
  0
VERTEX
  8
0
 10
79.98555
 20
213.965042
 30
0.0
  0
VERTEX
  8
0
 10
79.77536
 20
213.965042
 30
0.0
  0
VERTEX
  8
0
 10
79.77536
 20
211.937927
 30
0.0
  0
VERTEX
  8
0
 10
79.700775
 20
212.150024
 30
0.0
  0
VERTEX
  8
0
 10
78.941391
 20
213.965042
 30
0.0
  0
VERTEX
  8
0
 10
78.699562
 20
213.965042
 30
0.0
  0
SEQEND
  8
0
  0
POLYLINE
  8
0
 62
     7
 66
     1
 10
0.0
 20
0.0
 30
0.0
 70
     1
 71
    10
  0
VERTEX
  8
0
 10
80.831345
 20
211.465042
 30
0.0
  0
VERTEX
  8
0
 10
81.052826
 20
211.465042
 30
0.0
  0
VERTEX
  8
0
 10
81.052826
 20
212.595078
 30
0.0
  0
VERTEX
  8
0
 10
81.812218
 20
212.595078
 30
0.0
  0
VERTEX
  8
0
 10
81.812218
 20
212.901062
 30
0.0
  0
VERTEX
  8
0
 10
81.052826
 20
212.901062
 30
0.0
  0
VERTEX
  8
0
 10
81.052826
 20
213.652115
 30
0.0
  0
VERTEX
  8
0
 10
81.922958
 20
213.652115
 30
0.0
  0
VERTEX
  8
0
 10
81.922958
 20
213.965042
 30
0.0
  0
VERTEX
  8
0
 10
80.831345
 20
213.965042
 30
0.0
  0
SEQEND
  8
0
  0
POLYLINE
  8
0
 62
     7
 66
     1
 10
0.0
 20
0.0
 30
0.0
 70
     1
 71
    32
  0
VERTEX
  8
0
 10
82.578903
 20
212.713303
 30
0.0
  0
VERTEX
  8
0
 10
82.59021
 20
212.414276
 30
0.0
  0
VERTEX
  8
0
 10
82.63089
 20
212.153503
 30
0.0
  0
VERTEX
  8
0
 10
82.696434
 20
211.92749
 30
0.0
  0
VERTEX
  8
0
 10
82.784576
 20
211.739731
 30
0.0
  0
VERTEX
  8
0
 10
82.895317
 20
211.59021
 30
0.0
  0
VERTEX
  8
0
 10
83.026405
 20
211.482422
 30
0.0
  0
VERTEX
  8
0
 10
83.177826
 20
211.419846
 30
0.0
  0
VERTEX
  8
0
 10
83.349594
 20
211.395508
 30
0.0
  0
VERTEX
  8
0
 10
83.519104
 20
211.419846
 30
0.0
  0
VERTEX
  8
0
 10
83.670525
 20
211.482422
 30
0.0
  0
VERTEX
  8
0
 10
83.801613
 20
211.59021
 30
0.0
  0
VERTEX
  8
0
 10
83.912354
 20
211.739731
 30
0.0
  0
VERTEX
  8
0
 10
84.000504
 20
211.92749
 30
0.0
  0
VERTEX
  8
0
 10
84.063782
 20
212.153503
 30
0.0
  0
VERTEX
  8
0
 10
84.102203
 20
212.414276
 30
0.0
  0
VERTEX
  8
0
 10
84.118027
 20
212.713303
 30
0.0
  0
VERTEX
  8
0
 10
84.104462
 20
213.00885
 30
0.0
  0
VERTEX
  8
0
 10
84.063782
 20
213.269638
 30
0.0
  0
VERTEX
  8
0
 10
83.998238
 20
213.495636
 30
0.0
  0
VERTEX
  8
0
 10
83.912354
 20
213.683395
 30
0.0
  0
VERTEX
  8
0
 10
83.801613
 20
213.832916
 30
0.0
  0
VERTEX
  8
0
 10
83.670525
 20
213.940704
 30
0.0
  0
VERTEX
  8
0
 10
83.519104
 20
214.00676
 30
0.0
  0
VERTEX
  8
0
 10
83.349594
 20
214.031113
 30
0.0
  0
VERTEX
  8
0
 10
83.177826
 20
214.00676
 30
0.0
  0
VERTEX
  8
0
 10
83.026405
 20
213.940704
 30
0.0
  0
VERTEX
  8
0
 10
82.895317
 20
213.832916
 30
0.0
  0
VERTEX
  8
0
 10
82.784576
 20
213.683395
 30
0.0
  0
VERTEX
  8
0
 10
82.696434
 20
213.495636
 30
0.0
  0
VERTEX
  8
0
 10
82.63089
 20
213.269638
 30
0.0
  0
VERTEX
  8
0
 10
82.59021
 20
213.00885
 30
0.0
  0
SEQEND
  8
0
  0
POLYLINE
  8
0
 62
     7
 66
     1
 10
0.0
 20
0.0
 30
0.0
 70
     1
 71
    16
  0
VERTEX
  8
0
 10
82.807175
 20
212.713303
 30
0.0
  0
VERTEX
  8
0
 10
82.843338
 20
213.144455
 30
0.0
  0
VERTEX
  8
0
 10
82.95182
 20
213.467819
 30
0.0
  0
VERTEX
  8
0
 10
83.123589
 20
213.666016
 30
0.0
  0
VERTEX
  8
0
 10
83.349594
 20
213.73555
 30
0.0
  0
VERTEX
  8
0
 10
83.573341
 20
213.666016
 30
0.0
  0
VERTEX
  8
0
 10
83.74511
 20
213.467819
 30
0.0
  0
VERTEX
  8
0
 10
83.851334
 20
213.144455
 30
0.0
  0
VERTEX
  8
0
 10
83.889755
 20
212.713303
 30
0.0
  0
VERTEX
  8
0
 10
83.851334
 20
212.278671
 30
0.0
  0
VERTEX
  8
0
 10
83.74511
 20
211.955307
 30
0.0
  0
VERTEX
  8
0
 10
83.573341
 20
211.757111
 30
0.0
  0
VERTEX
  8
0
 10
83.349594
 20
211.691055
 30
0.0
  0
VERTEX
  8
0
 10
83.123589
 20
211.757111
 30
0.0
  0
VERTEX
  8
0
 10
82.95182
 20
211.955307
 30
0.0
  0
VERTEX
  8
0
 10
82.843338
 20
212.278671
 30
0.0
  0
SEQEND
  8
0
  0
POLYLINE
  8
0
 62
     7
 66
     1
 10
0.0
 20
0.0
 30
0.0
 70
     1
 71
    30
  0
VERTEX
  8
0
 10
84.896011
 20
213.965042
 30
0.0
  0
VERTEX
  8
0
 10
84.896011
 20
211.465042
 30
0.0
  0
VERTEX
  8
0
 10
85.115242
 20
211.465042
 30
0.0
  0
VERTEX
  8
0
 10
85.115242
 20
212.53598
 30
0.0
  0
VERTEX
  8
0
 10
85.472336
 20
212.53598
 30
0.0
  0
VERTEX
  8
0
 10
85.644104
 20
212.525543
 30
0.0
  0
VERTEX
  8
0
 10
85.750328
 20
212.473389
 30
0.0
  0
VERTEX
  8
0
 10
85.80909
 20
212.355164
 30
0.0
  0
VERTEX
  8
0
 10
85.833954
 20
212.136108
 30
0.0
  0
VERTEX
  8
0
 10
85.847511
 20
211.809265
 30
0.0
  0
VERTEX
  8
0
 10
85.85881
 20
211.611084
 30
0.0
  0
VERTEX
  8
0
 10
85.89045
 20
211.465042
 30
0.0
  0
VERTEX
  8
0
 10
86.145844
 20
211.465042
 30
0.0
  0
VERTEX
  8
0
 10
86.145844
 20
211.534576
 30
0.0
  0
VERTEX
  8
0
 10
86.091599
 20
211.635422
 30
0.0
  0
VERTEX
  8
0
 10
86.071259
 20
211.82666
 30
0.0
  0
VERTEX
  8
0
 10
86.053177
 20
212.236954
 30
0.0
  0
VERTEX
  8
0
 10
86.037354
 20
212.410797
 30
0.0
  0
VERTEX
  8
0
 10
86.00798
 20
212.546402
 30
0.0
  0
VERTEX
  8
0
 10
85.953735
 20
212.640289
 30
0.0
  0
VERTEX
  8
0
 10
85.867851
 20
212.702866
 30
0.0
  0
VERTEX
  8
0
 10
85.962776
 20
212.796753
 30
0.0
  0
VERTEX
  8
0
 10
86.032837
 20
212.9254
 30
0.0
  0
VERTEX
  8
0
 10
86.075775
 20
213.081879
 30
0.0
  0
VERTEX
  8
0
 10
86.091599
 20
213.273102
 30
0.0
  0
VERTEX
  8
0
 10
86.075775
 20
213.467819
 30
0.0
  0
VERTEX
  8
0
 10
86.037354
 20
213.638199
 30
0.0
  0
VERTEX
  8
0
 10
85.881409
 20
213.878113
 30
0.0
  0
VERTEX
  8
0
 10
85.716423
 20
213.951141
 30
0.0
  0
VERTEX
  8
0
 10
85.526581
 20
213.965042
 30
0.0
  0
SEQEND
  8
0
  0
POLYLINE
  8
0
 62
     7
 66
     1
 10
0.0
 20
0.0
 30
0.0
 70
     1
 71
    11
  0
VERTEX
  8
0
 10
85.112984
 20
213.672974
 30
0.0
  0
VERTEX
  8
0
 10
85.490417
 20
213.672974
 30
0.0
  0
VERTEX
  8
0
 10
85.650879
 20
213.655579
 30
0.0
  0
VERTEX
  8
0
 10
85.76841
 20
213.593002
 30
0.0
  0
VERTEX
  8
0
 10
85.83847
 20
213.471298
 30
0.0
  0
VERTEX
  8
0
 10
85.863327
 20
213.266159
 30
0.0
  0
VERTEX
  8
0
 10
85.83847
 20
213.054062
 30
0.0
  0
VERTEX
  8
0
 10
85.770668
 20
212.918457
 30
0.0
  0
VERTEX
  8
0
 10
85.653145
 20
212.845428
 30
0.0
  0
VERTEX
  8
0
 10
85.490417
 20
212.82457
 30
0.0
  0
VERTEX
  8
0
 10
85.112984
 20
212.82457
 30
0.0
  0
SEQEND
  8
0
  0
POLYLINE
  8
0
 62
     7
 66
     1
 10
0.0
 20
0.0
 30
0.0
 70
     1
 71
    17
  0
VERTEX
  8
0
 10
87.100113
 20
213.596481
 30
0.0
  0
VERTEX
  8
0
 10
87.136276
 20
213.377426
 30
0.0
  0
VERTEX
  8
0
 10
87.545349
 20
211.465042
 30
0.0
  0
VERTEX
  8
0
 10
87.753281
 20
211.465042
 30
0.0
  0
VERTEX
  8
0
 10
88.171394
 20
213.377426
 30
0.0
  0
VERTEX
  8
0
 10
88.209816
 20
213.596481
 30
0.0
  0
VERTEX
  8
0
 10
88.209816
 20
211.465042
 30
0.0
  0
VERTEX
  8
0
 10
88.42453
 20
211.465042
 30
0.0
  0
VERTEX
  8
0
 10
88.42453
 20
213.965042
 30
0.0
  0
VERTEX
  8
0
 10
88.108116
 20
213.965042
 30
0.0
  0
VERTEX
  8
0
 10
87.690002
 20
212.052658
 30
0.0
  0
VERTEX
  8
0
 10
87.653839
 20
211.847519
 30
0.0
  0
VERTEX
  8
0
 10
87.615417
 20
212.052658
 30
0.0
  0
VERTEX
  8
0
 10
87.21312
 20
213.965042
 30
0.0
  0
VERTEX
  8
0
 10
86.896713
 20
213.965042
 30
0.0
  0
VERTEX
  8
0
 10
86.896713
 20
211.465042
 30
0.0
  0
VERTEX
  8
0
 10
87.100113
 20
211.465042
 30
0.0
  0
SEQEND
  8
0
  0
POLYLINE
  8
0
 62
     7
 66
     1
 10
0.0
 20
0.0
 30
0.0
 70
     1
 71
     8
  0
VERTEX
  8
0
 10
89.091774
 20
211.465042
 30
0.0
  0
VERTEX
  8
0
 10
89.320038
 20
211.465042
 30
0.0
  0
VERTEX
  8
0
 10
89.494064
 20
212.212601
 30
0.0
  0
VERTEX
  8
0
 10
90.133667
 20
212.212601
 30
0.0
  0
VERTEX
  8
0
 10
90.305435
 20
211.465042
 30
0.0
  0
VERTEX
  8
0
 10
90.545006
 20
211.465042
 30
0.0
  0
VERTEX
  8
0
 10
89.939301
 20
213.965042
 30
0.0
  0
VERTEX
  8
0
 10
89.695213
 20
213.965042
 30
0.0
  0
SEQEND
  8
0
  0
POLYLINE
  8
0
 62
     7
 66
     1
 10
0.0
 20
0.0
 30
0.0
 70
     1
 71
     3
  0
VERTEX
  8
0
 10
89.561874
 20
212.504684
 30
0.0
  0
VERTEX
  8
0
 10
89.817261
 20
213.606903
 30
0.0
  0
VERTEX
  8
0
 10
90.06813
 20
212.504684
 30
0.0
  0
SEQEND
  8
0
  0
POLYLINE
  8
0
 62
     7
 66
     1
 10
0.0
 20
0.0
 30
0.0
 70
     1
 71
     8
  0
VERTEX
  8
0
 10
91.571609
 20
211.465042
 30
0.0
  0
VERTEX
  8
0
 10
91.793091
 20
211.465042
 30
0.0
  0
VERTEX
  8
0
 10
91.793091
 20
213.662537
 30
0.0
  0
VERTEX
  8
0
 10
92.306129
 20
213.662537
 30
0.0
  0
VERTEX
  8
0
 10
92.306129
 20
213.965042
 30
0.0
  0
VERTEX
  8
0
 10
91.058563
 20
213.965042
 30
0.0
  0
VERTEX
  8
0
 10
91.058563
 20
213.662537
 30
0.0
  0
VERTEX
  8
0
 10
91.571609
 20
213.662537
 30
0.0
  0
SEQEND
  8
0
  0
POLYLINE
  8
0
 62
     7
 66
     1
 10
0.0
 20
0.0
 30
0.0
 70
     1
 71
     4
  0
VERTEX
  8
0
 10
93.007278
 20
211.465042
 30
0.0
  0
VERTEX
  8
0
 10
93.228767
 20
211.465042
 30
0.0
  0
VERTEX
  8
0
 10
93.228767
 20
213.965042
 30
0.0
  0
VERTEX
  8
0
 10
93.007278
 20
213.965042
 30
0.0
  0
SEQEND
  8
0
  0
POLYLINE
  8
0
 62
     7
 66
     1
 10
0.0
 20
0.0
 30
0.0
 70
     1
 71
    32
  0
VERTEX
  8
0
 10
94.013535
 20
212.713303
 30
0.0
  0
VERTEX
  8
0
 10
94.024841
 20
212.414276
 30
0.0
  0
VERTEX
  8
0
 10
94.065521
 20
212.153503
 30
0.0
  0
VERTEX
  8
0
 10
94.131065
 20
211.92749
 30
0.0
  0
VERTEX
  8
0
 10
94.219208
 20
211.739731
 30
0.0
  0
VERTEX
  8
0
 10
94.329956
 20
211.59021
 30
0.0
  0
VERTEX
  8
0
 10
94.461037
 20
211.482422
 30
0.0
  0
VERTEX
  8
0
 10
94.612457
 20
211.419846
 30
0.0
  0
VERTEX
  8
0
 10
94.784225
 20
211.395508
 30
0.0
  0
VERTEX
  8
0
 10
94.953735
 20
211.419846
 30
0.0
  0
VERTEX
  8
0
 10
95.105164
 20
211.482422
 30
0.0
  0
VERTEX
  8
0
 10
95.236244
 20
211.59021
 30
0.0
  0
VERTEX
  8
0
 10
95.346985
 20
211.739731
 30
0.0
  0
VERTEX
  8
0
 10
95.435135
 20
211.92749
 30
0.0
  0
VERTEX
  8
0
 10
95.498413
 20
212.153503
 30
0.0
  0
VERTEX
  8
0
 10
95.536835
 20
212.414276
 30
0.0
  0
VERTEX
  8
0
 10
95.552658
 20
212.713303
 30
0.0
  0
VERTEX
  8
0
 10
95.539093
 20
213.00885
 30
0.0
  0
VERTEX
  8
0
 10
95.498413
 20
213.269638
 30
0.0
  0
VERTEX
  8
0
 10
95.432877
 20
213.495636
 30
0.0
  0
VERTEX
  8
0
 10
95.346985
 20
213.683395
 30
0.0
  0
VERTEX
  8
0
 10
95.236244
 20
213.832916
 30
0.0
  0
VERTEX
  8
0
 10
95.105164
 20
213.940704
 30
0.0
  0
VERTEX
  8
0
 10
94.953735
 20
214.00676
 30
0.0
  0
VERTEX
  8
0
 10
94.784225
 20
214.031113
 30
0.0
  0
VERTEX
  8
0
 10
94.612457
 20
214.00676
 30
0.0
  0
VERTEX
  8
0
 10
94.461037
 20
213.940704
 30
0.0
  0
VERTEX
  8
0
 10
94.329956
 20
213.832916
 30
0.0
  0
VERTEX
  8
0
 10
94.219208
 20
213.683395
 30
0.0
  0
VERTEX
  8
0
 10
94.131065
 20
213.495636
 30
0.0
  0
VERTEX
  8
0
 10
94.065521
 20
213.269638
 30
0.0
  0
VERTEX
  8
0
 10
94.024841
 20
213.00885
 30
0.0
  0
SEQEND
  8
0
  0
POLYLINE
  8
0
 62
     7
 66
     1
 10
0.0
 20
0.0
 30
0.0
 70
     1
 71
    16
  0
VERTEX
  8
0
 10
94.241806
 20
212.713303
 30
0.0
  0
VERTEX
  8
0
 10
94.277969
 20
213.144455
 30
0.0
  0
VERTEX
  8
0
 10
94.386459
 20
213.467819
 30
0.0
  0
VERTEX
  8
0
 10
94.55822
 20
213.666016
 30
0.0
  0
VERTEX
  8
0
 10
94.784225
 20
213.73555
 30
0.0
  0
VERTEX
  8
0
 10
95.00798
 20
213.666016
 30
0.0
  0
VERTEX
  8
0
 10
95.179749
 20
213.467819
 30
0.0
  0
VERTEX
  8
0
 10
95.285965
 20
213.144455
 30
0.0
  0
VERTEX
  8
0
 10
95.324387
 20
212.713303
 30
0.0
  0
VERTEX
  8
0
 10
95.285965
 20
212.278671
 30
0.0
  0
VERTEX
  8
0
 10
95.179749
 20
211.955307
 30
0.0
  0
VERTEX
  8
0
 10
95.00798
 20
211.757111
 30
0.0
  0
VERTEX
  8
0
 10
94.784225
 20
211.691055
 30
0.0
  0
VERTEX
  8
0
 10
94.55822
 20
211.757111
 30
0.0
  0
VERTEX
  8
0
 10
94.386459
 20
211.955307
 30
0.0
  0
VERTEX
  8
0
 10
94.277969
 20
212.278671
 30
0.0
  0
SEQEND
  8
0
  0
POLYLINE
  8
0
 62
     7
 66
     1
 10
0.0
 20
0.0
 30
0.0
 70
     1
 71
    12
  0
VERTEX
  8
0
 10
96.328384
 20
211.465042
 30
0.0
  0
VERTEX
  8
0
 10
96.538574
 20
211.465042
 30
0.0
  0
VERTEX
  8
0
 10
96.538574
 20
213.492157
 30
0.0
  0
VERTEX
  8
0
 10
96.599594
 20
213.307877
 30
0.0
  0
VERTEX
  8
0
 10
97.374802
 20
211.465042
 30
0.0
  0
VERTEX
  8
0
 10
97.614372
 20
211.465042
 30
0.0
  0
VERTEX
  8
0
 10
97.614372
 20
213.965042
 30
0.0
  0
VERTEX
  8
0
 10
97.40419
 20
213.965042
 30
0.0
  0
VERTEX
  8
0
 10
97.40419
 20
211.937927
 30
0.0
  0
VERTEX
  8
0
 10
97.329605
 20
212.150024
 30
0.0
  0
VERTEX
  8
0
 10
96.570221
 20
213.965042
 30
0.0
  0
VERTEX
  8
0
 10
96.328384
 20
213.965042
 30
0.0
  0
SEQEND
  8
0
  0
LINE
  8
0
 62
     7
 10
79.376831
 20
101.644455
 30
0.0
 11
81.694519
 21
101.644455
 31
0.0
210
0.0
220
0.0
230
1.0
  0
LINE
  8
0
 62
     7
 10
81.694519
 20
108.420441
 30
0.0
 11
81.694519
 21
101.644455
 31
0.0
210
0.0
220
0.0
230
1.0
  0
LINE
  8
0
 62
     7
 10
80.294518
 20
107.636406
 30
0.0
 11
81.694519
 21
108.420441
 31
0.0
210
0.0
220
0.0
230
1.0
  0
LINE
  8
0
 62
     7
 10
80.294518
 20
107.644455
 30
0.0
 11
80.294518
 21
107.636406
 31
0.0
210
0.0
220
0.0
230
1.0
  0
LINE
  8
0
 62
     7
 10
76.294518
 20
105.40435
 30
0.0
 11
80.294518
 21
107.644455
 31
0.0
210
0.0
220
0.0
230
1.0
  0
LINE
  8
0
 62
     7
 10
76.294518
 20
102.164261
 30
0.0
 11
76.294518
 21
105.40435
 31
0.0
210
0.0
220
0.0
230
1.0
  0
ARC
  8
0
 62
     7
 10
75.194519
 20
101.144455
 30
0.0
 40
1.5
 50
19.471222
 51
42.833428
210
0.0
220
0.0
230
1.0
  0
LINE
  8
0
 62
     7
 10
76.608734
 20
101.644455
 30
0.0
 11
76.630241
 21
101.644455
 31
0.0
210
0.0
220
0.0
230
1.0
  0
LINE
  8
0
 62
     7
 10
79.376831
 20
101.644455
 30
0.0
 11
76.630241
 21
101.644455
 31
0.0
210
0.0
220
0.0
230
1.0
  0
ARC
  8
0
 62
     7
 10
86.694519
 20
102.644455
 30
0.0
 40
1.5
 50
90.000003
 51
180.000005
210
0.0
220
0.0
230
1.0
  0
ARC
  8
0
 62
     7
 10
95.994522
 20
102.644455
 30
0.0
 40
1.5
 50
25.841934
 51
90.000003
210
0.0
220
0.0
230
1.0
  0
ARC
  8
0
 62
     7
 10
95.994522
 20
102.644455
 30
0.0
 40
1.5
 50
20.000001
 51
25.841934
210
0.0
220
0.0
230
1.0
  0
LINE
  8
0
 62
     7
 10
97.40406
 20
103.157486
 30
0.0
 11
97.954758
 21
101.644455
 31
0.0
210
0.0
220
0.0
230
1.0
  0
LINE
  8
0
 62
     7
 10
126.494522
 20
102.044456
 30
0.0
 11
125.801697
 21
101.644455
 31
0.0
210
0.0
220
0.0
230
1.0
  0
LINE
  8
0
 62
     7
 10
126.494522
 20
102.044456
 30
0.0
 11
126.494522
 21
103.844452
 31
0.0
210
0.0
220
0.0
230
1.0
  0
ARC
  8
0
 62
     7
 10
127.694519
 20
103.844452
 30
0.0
 40
1.2
 50
0.0
 51
180.000005
210
0.0
220
0.0
230
1.0
  0
LINE
  8
0
 62
     7
 10
128.894516
 20
103.844452
 30
0.0
 11
128.894516
 21
101.644455
 31
0.0
210
0.0
220
0.0
230
1.0
  0
LINE
  8
0
 62
     7
 10
155.558289
 20
141.385101
 30
0.0
 11
147.698334
 21
145.786896
 31
0.0
210
0.0
220
0.0
230
1.0
  0
ARC
  8
0
 62
     7
 10
148.431259
 20
147.095627
 30
0.0
 40
1.5
 50
150.750007
 51
240.750006
210
0.0
220
0.0
230
1.0
  0
LINE
  8
0
 62
     7
 10
149.980957
 20
152.932663
 30
0.0
 11
147.122513
 21
147.828568
 31
0.0
210
0.0
220
0.0
230
1.0
  0
LINE
  8
0
 62
     7
 10
148.317337
 20
155.243576
 30
0.0
 11
149.980957
 21
152.932663
 31
0.0
210
0.0
220
0.0
230
1.0
  0
LINE
  8
0
 62
     7
 10
148.317337
 20
155.243576
 30
0.0
 11
148.084763
 21
155.566635
 31
0.0
210
0.0
220
0.0
230
1.0
  0
ARC
  8
0
 62
     7
 10
149.302124
 20
156.443008
 30
0.0
 40
1.5
 50
150.750007
 51
215.749997
210
0.0
220
0.0
230
1.0
  0
LINE
  8
0
 62
     7
 10
147.993378
 20
157.175934
 30
0.0
 11
153.958771
 21
167.827911
 31
0.0
210
0.0
220
0.0
230
1.0
  0
LINE
  8
0
 62
     7
 10
153.958771
 20
167.827911
 30
0.0
 11
155.899796
 21
171.293854
 31
0.0
210
0.0
220
0.0
230
1.0
  0
LINE
  8
0
 62
     7
 10
155.899796
 20
171.293854
 30
0.0
 11
147.698334
 21
175.886887
 31
0.0
210
0.0
220
0.0
230
1.0
  0
ARC
  8
0
 62
     7
 10
148.431259
 20
177.195633
 30
0.0
 40
1.5
 50
150.750007
 51
240.750006
210
0.0
220
0.0
230
1.0
  0
LINE
  8
0
 62
     7
 10
149.980957
 20
183.032654
 30
0.0
 11
147.122513
 21
177.928558
 31
0.0
210
0.0
220
0.0
230
1.0
  0
LINE
  8
0
 62
     7
 10
149.980957
 20
183.032654
 30
0.0
 11
148.317337
 21
185.343567
 31
0.0
210
0.0
220
0.0
230
1.0
  0
LINE
  8
0
 62
     7
 10
148.317337
 20
185.343567
 30
0.0
 11
148.279114
 21
185.396652
 31
0.0
210
0.0
220
0.0
230
1.0
  0
LINE
  8
0
 62
     7
 10
149.115585
 20
189.279755
 30
0.0
 11
152.194519
 21
194.777603
 31
0.0
210
0.0
220
0.0
230
1.0
  0
LINE
  8
0
 62
     7
 10
71.273453
 20
189.279755
 30
0.0
 11
68.194519
 21
194.777603
 31
0.0
210
0.0
220
0.0
230
1.0
  0
LINE
  8
0
 62
     7
 10
72.071701
 20
185.343567
 30
0.0
 11
72.109917
 21
185.396652
 31
0.0
210
0.0
220
0.0
230
1.0
  0
LINE
  8
0
 62
     7
 10
70.408081
 20
183.032654
 30
0.0
 11
72.071701
 21
185.343567
 31
0.0
210
0.0
220
0.0
230
1.0
  0
LINE
  8
0
 62
     7
 10
70.408081
 20
183.032654
 30
0.0
 11
73.266525
 21
177.928558
 31
0.0
210
0.0
220
0.0
230
1.0
  0
ARC
  8
0
 62
     7
 10
71.957779
 20
177.195633
 30
0.0
 40
1.5
 50
299.250003
 51
29.249998
210
0.0
220
0.0
230
1.0
  0
LINE
  8
0
 62
     7
 10
64.489243
 20
171.293854
 30
0.0
 11
72.690704
 21
175.886887
 31
0.0
210
0.0
220
0.0
230
1.0
  0
LINE
  8
0
 62
     7
 10
66.43026
 20
167.827911
 30
0.0
 11
64.489243
 21
171.293854
 31
0.0
210
0.0
220
0.0
230
1.0
  0
LINE
  8
0
 62
     7
 10
72.395653
 20
157.175934
 30
0.0
 11
66.43026
 21
167.827911
 31
0.0
210
0.0
220
0.0
230
1.0
  0
ARC
  8
0
 62
     7
 10
71.086914
 20
156.443008
 30
0.0
 40
1.5
 50
324.250001
 51
29.249998
210
0.0
220
0.0
230
1.0
  0
LINE
  8
0
 62
     7
 10
72.071701
 20
155.243576
 30
0.0
 11
72.304276
 21
155.566635
 31
0.0
210
0.0
220
0.0
230
1.0
  0
LINE
  8
0
 62
     7
 10
72.071701
 20
155.243576
 30
0.0
 11
70.408081
 21
152.932663
 31
0.0
210
0.0
220
0.0
230
1.0
  0
LINE
  8
0
 62
     7
 10
70.408081
 20
152.932663
 30
0.0
 11
73.266525
 21
147.828568
 31
0.0
210
0.0
220
0.0
230
1.0
  0
ARC
  8
0
 62
     7
 10
71.957779
 20
147.095627
 30
0.0
 40
1.5
 50
299.250003
 51
29.249998
210
0.0
220
0.0
230
1.0
  0
LINE
  8
0
 62
     7
 10
64.830757
 20
141.385101
 30
0.0
 11
72.690704
 21
145.786896
 31
0.0
210
0.0
220
0.0
230
1.0
  0
LINE
  8
0
 62
     7
 10
110.194519
 20
101.644455
 30
0.0
 11
123.044518
 21
101.644455
 31
0.0
210
0.0
220
0.0
230
1.0
  0
LINE
  8
0
 62
     7
 10
110.194519
 20
101.644455
 30
0.0
 11
97.954758
 21
101.644455
 31
0.0
210
0.0
220
0.0
230
1.0
  0
LINE
  8
0
 62
     7
 10
143.780304
 20
101.644455
 30
0.0
 11
143.758789
 21
101.644455
 31
0.0
210
0.0
220
0.0
230
1.0
  0
ARC
  8
0
 62
     7
 10
145.194519
 20
101.144455
 30
0.0
 40
1.5
 50
137.166577
 51
160.528775
210
0.0
220
0.0
230
1.0
  0
LINE
  8
0
 62
     7
 10
144.094513
 20
102.164261
 30
0.0
 11
144.094513
 21
105.40435
 31
0.0
210
0.0
220
0.0
230
1.0
  0
LINE
  8
0
 62
     7
 10
144.094513
 20
105.40435
 30
0.0
 11
140.094513
 21
107.644455
 31
0.0
210
0.0
220
0.0
230
1.0
  0
LINE
  8
0
 62
     7
 10
140.094513
 20
107.644455
 30
0.0
 11
140.094513
 21
107.636406
 31
0.0
210
0.0
220
0.0
230
1.0
  0
LINE
  8
0
 62
     7
 10
140.094513
 20
107.636406
 30
0.0
 11
138.294525
 21
108.644455
 31
0.0
210
0.0
220
0.0
230
1.0
  0
LINE
  8
0
 62
     7
 10
138.294525
 20
108.644455
 30
0.0
 11
138.294525
 21
114.144455
 31
0.0
210
0.0
220
0.0
230
1.0
  0
LINE
  8
0
 62
     7
 10
138.294525
 20
114.144455
 30
0.0
 11
140.094513
 21
114.144455
 31
0.0
210
0.0
220
0.0
230
1.0
  0
LINE
  8
0
 62
     7
 10
140.094513
 20
114.144455
 30
0.0
 11
140.094513
 21
118.418144
 31
0.0
210
0.0
220
0.0
230
1.0
  0
LINE
  8
0
 62
     7
 10
140.094513
 20
118.418144
 30
0.0
 11
159.194519
 21
107.721626
 31
0.0
210
0.0
220
0.0
230
1.0
  0
LINE
  8
0
 62
     7
 10
159.194519
 20
107.721626
 30
0.0
 11
159.194519
 21
110.144455
 31
0.0
210
0.0
220
0.0
230
1.0
  0
LINE
  8
0
 62
     7
 10
160.694519
 20
110.144455
 30
0.0
 11
159.194519
 21
110.144455
 31
0.0
210
0.0
220
0.0
230
1.0
  0
LINE
  8
0
 62
     7
 10
160.694519
 20
141.193848
 30
0.0
 11
160.694519
 21
110.144455
 31
0.0
210
0.0
220
0.0
230
1.0
  0
LINE
  8
0
 62
     7
 10
156.291214
 20
141.193848
 30
0.0
 11
160.694519
 21
141.193848
 31
0.0
210
0.0
220
0.0
230
1.0
  0
ARC
  8
0
 62
     7
 10
156.291214
 20
142.693848
 30
0.0
 40
1.5
 50
240.750006
 51
269.999997
210
0.0
220
0.0
230
1.0
  0
LINE
  8
0
 62
     7
 10
155.899796
 20
141.193848
 30
0.0
 11
155.558289
 21
141.385101
 31
0.0
210
0.0
220
0.0
230
1.0
  0
LINE
  8
0
 62
     7
 10
155.899796
 20
141.193848
 30
0.0
 11
153.958771
 21
137.727921
 31
0.0
210
0.0
220
0.0
230
1.0
  0
LINE
  8
0
 62
     7
 10
150.795059
 20
139.499695
 30
0.0
 11
153.958771
 21
137.727921
 31
0.0
210
0.0
220
0.0
230
1.0
  0
LINE
  8
0
 62
     7
 10
149.843704
 20
136.888458
 30
0.0
 11
150.795059
 21
139.499695
 31
0.0
210
0.0
220
0.0
230
1.0
  0
LINE
  8
0
 62
     7
 10
146.747818
 20
133.80545
 30
0.0
 11
149.843704
 21
136.888458
 31
0.0
210
0.0
220
0.0
230
1.0
  0
LINE
  8
0
 62
     7
 10
142.380493
 20
131.190796
 30
0.0
 11
146.747818
 21
133.80545
 31
0.0
210
0.0
220
0.0
230
1.0
  0
LINE
  8
0
 62
     7
 10
140.994476
 20
131.913528
 30
0.0
 11
142.380493
 21
131.190796
 31
0.0
210
0.0
220
0.0
230
1.0
  0
LINE
  8
0
 62
     7
 10
147.094208
 20
148.67717
 30
0.0
 11
140.994476
 21
131.913528
 31
0.0
210
0.0
220
0.0
230
1.0
  0
LINE
  8
0
 62
     7
 10
147.094208
 20
148.67717
 30
0.0
 11
147.105026
 21
151.646973
 31
0.0
210
0.0
220
0.0
230
1.0
  0
LINE
  8
0
 62
     7
 10
148.317337
 20
155.243576
 30
0.0
 11
147.105026
 21
151.646973
 31
0.0
210
0.0
220
0.0
230
1.0
  0
LINE
  8
0
 62
     7
 10
150.795059
 20
169.599686
 30
0.0
 11
153.958771
 21
167.827911
 31
0.0
210
0.0
220
0.0
230
1.0
  0
LINE
  8
0
 62
     7
 10
149.843704
 20
166.988449
 30
0.0
 11
150.795059
 21
169.599686
 31
0.0
210
0.0
220
0.0
230
1.0
  0
LINE
  8
0
 62
     7
 10
146.747818
 20
163.905457
 30
0.0
 11
149.843704
 21
166.988449
 31
0.0
210
0.0
220
0.0
230
1.0
  0
LINE
  8
0
 62
     7
 10
142.380493
 20
161.290802
 30
0.0
 11
146.747818
 21
163.905457
 31
0.0
210
0.0
220
0.0
230
1.0
  0
LINE
  8
0
 62
     7
 10
140.994476
 20
162.013519
 30
0.0
 11
142.380493
 21
161.290802
 31
0.0
210
0.0
220
0.0
230
1.0
  0
LINE
  8
0
 62
     7
 10
147.094208
 20
178.777176
 30
0.0
 11
140.994476
 21
162.013519
 31
0.0
210
0.0
220
0.0
230
1.0
  0
LINE
  8
0
 62
     7
 10
147.094208
 20
178.777176
 30
0.0
 11
147.105026
 21
181.746979
 31
0.0
210
0.0
220
0.0
230
1.0
  0
LINE
  8
0
 62
     7
 10
148.317337
 20
185.343567
 30
0.0
 11
147.105026
 21
181.746979
 31
0.0
210
0.0
220
0.0
230
1.0
  0
ARC
  8
0
 62
     7
 10
149.692551
 20
185.898865
 30
0.0
 40
1.5
 50
163.750001
 51
199.560496
210
0.0
220
0.0
230
1.0
  0
LINE
  8
0
 62
     7
 10
149.115585
 20
189.279755
 30
0.0
 11
148.252472
 21
186.318604
 31
0.0
210
0.0
220
0.0
230
1.0
  0
LINE
  8
0
 62
     7
 10
152.194519
 20
194.994446
 30
0.0
 11
152.194519
 21
194.777603
 31
0.0
210
0.0
220
0.0
230
1.0
  0
LINE
  8
0
 62
     7
 10
152.194519
 20
194.994446
 30
0.0
 11
148.294525
 21
194.994446
 31
0.0
210
0.0
220
0.0
230
1.0
  0
LINE
  8
0
 62
     7
 10
148.294525
 20
191.044464
 30
0.0
 11
148.294525
 21
194.994446
 31
0.0
210
0.0
220
0.0
230
1.0
  0
LINE
  8
0
 62
     7
 10
148.294525
 20
191.044464
 30
0.0
 11
72.094521
 21
191.044464
 31
0.0
210
0.0
220
0.0
230
1.0
  0
LINE
  8
0
 62
     7
 10
72.094521
 20
194.994446
 30
0.0
 11
72.094521
 21
191.044464
 31
0.0
210
0.0
220
0.0
230
1.0
  0
LINE
  8
0
 62
     7
 10
72.094521
 20
194.994446
 30
0.0
 11
68.194519
 21
194.994446
 31
0.0
210
0.0
220
0.0
230
1.0
  0
LINE
  8
0
 62
     7
 10
68.194519
 20
194.994446
 30
0.0
 11
68.194519
 21
194.777603
 31
0.0
210
0.0
220
0.0
230
1.0
  0
LINE
  8
0
 62
     7
 10
71.273453
 20
189.279755
 30
0.0
 11
72.136559
 21
186.318604
 31
0.0
210
0.0
220
0.0
230
1.0
  0
ARC
  8
0
 62
     7
 10
70.696487
 20
185.898865
 30
0.0
 40
1.5
 50
340.439504
 51
16.25
210
0.0
220
0.0
230
1.0
  0
LINE
  8
0
 62
     7
 10
72.071701
 20
185.343567
 30
0.0
 11
73.284012
 21
181.746979
 31
0.0
210
0.0
220
0.0
230
1.0
  0
LINE
  8
0
 62
     7
 10
73.29483
 20
178.777176
 30
0.0
 11
73.284012
 21
181.746979
 31
0.0
210
0.0
220
0.0
230
1.0
  0
LINE
  8
0
 62
     7
 10
73.29483
 20
178.777176
 30
0.0
 11
79.394562
 21
162.013519
 31
0.0
210
0.0
220
0.0
230
1.0
  0
LINE
  8
0
 62
     7
 10
79.394562
 20
162.013519
 30
0.0
 11
78.008553
 21
161.290802
 31
0.0
210
0.0
220
0.0
230
1.0
  0
LINE
  8
0
 62
     7
 10
78.008553
 20
161.290802
 30
0.0
 11
73.64122
 21
163.905457
 31
0.0
210
0.0
220
0.0
230
1.0
  0
LINE
  8
0
 62
     7
 10
73.64122
 20
163.905457
 30
0.0
 11
70.545334
 21
166.988449
 31
0.0
210
0.0
220
0.0
230
1.0
  0
LINE
  8
0
 62
     7
 10
70.545334
 20
166.988449
 30
0.0
 11
69.593979
 21
169.599686
 31
0.0
210
0.0
220
0.0
230
1.0
  0
LINE
  8
0
 62
     7
 10
69.593979
 20
169.599686
 30
0.0
 11
66.43026
 21
167.827911
 31
0.0
210
0.0
220
0.0
230
1.0
  0
LINE
  8
0
 62
     7
 10
72.071701
 20
155.243576
 30
0.0
 11
73.284012
 21
151.646973
 31
0.0
210
0.0
220
0.0
230
1.0
  0
LINE
  8
0
 62
     7
 10
73.29483
 20
148.67717
 30
0.0
 11
73.284012
 21
151.646973
 31
0.0
210
0.0
220
0.0
230
1.0
  0
LINE
  8
0
 62
     7
 10
73.29483
 20
148.67717
 30
0.0
 11
79.394562
 21
131.913528
 31
0.0
210
0.0
220
0.0
230
1.0
  0
LINE
  8
0
 62
     7
 10
79.394562
 20
131.913528
 30
0.0
 11
78.008553
 21
131.190796
 31
0.0
210
0.0
220
0.0
230
1.0
  0
LINE
  8
0
 62
     7
 10
78.008553
 20
131.190796
 30
0.0
 11
73.64122
 21
133.80545
 31
0.0
210
0.0
220
0.0
230
1.0
  0
LINE
  8
0
 62
     7
 10
73.64122
 20
133.80545
 30
0.0
 11
70.545334
 21
136.888458
 31
0.0
210
0.0
220
0.0
230
1.0
  0
LINE
  8
0
 62
     7
 10
70.545334
 20
136.888458
 30
0.0
 11
69.593979
 21
139.499695
 31
0.0
210
0.0
220
0.0
230
1.0
  0
LINE
  8
0
 62
     7
 10
69.593979
 20
139.499695
 30
0.0
 11
66.43026
 21
137.727921
 31
0.0
210
0.0
220
0.0
230
1.0
  0
LINE
  8
0
 62
     7
 10
64.489243
 20
141.193848
 30
0.0
 11
66.43026
 21
137.727921
 31
0.0
210
0.0
220
0.0
230
1.0
  0
LINE
  8
0
 62
     7
 10
64.489243
 20
141.193848
 30
0.0
 11
64.830757
 21
141.385101
 31
0.0
210
0.0
220
0.0
230
1.0
  0
ARC
  8
0
 62
     7
 10
64.097824
 20
142.693848
 30
0.0
 40
1.5
 50
269.999997
 51
299.250003
210
0.0
220
0.0
230
1.0
  0
LINE
  8
0
 62
     7
 10
64.097824
 20
141.193848
 30
0.0
 11
59.694519
 21
141.193848
 31
0.0
210
0.0
220
0.0
230
1.0
  0
LINE
  8
0
 62
     7
 10
59.694519
 20
141.193848
 30
0.0
 11
59.694519
 21
110.144455
 31
0.0
210
0.0
220
0.0
230
1.0
  0
LINE
  8
0
 62
     7
 10
59.694519
 20
110.144455
 30
0.0
 11
61.194519
 21
110.144455
 31
0.0
210
0.0
220
0.0
230
1.0
  0
LINE
  8
0
 62
     7
 10
61.194519
 20
107.721626
 30
0.0
 11
61.194519
 21
110.144455
 31
0.0
210
0.0
220
0.0
230
1.0
  0
LINE
  8
0
 62
     7
 10
80.294518
 20
118.418144
 30
0.0
 11
61.194519
 21
107.721626
 31
0.0
210
0.0
220
0.0
230
1.0
  0
LINE
  8
0
 62
     7
 10
80.294518
 20
114.144455
 30
0.0
 11
80.294518
 21
118.418144
 31
0.0
210
0.0
220
0.0
230
1.0
  0
LINE
  8
0
 62
     7
 10
82.094521
 20
114.144455
 30
0.0
 11
80.294518
 21
114.144455
 31
0.0
210
0.0
220
0.0
230
1.0
  0
LINE
  8
0
 62
     7
 10
82.094521
 20
110.144455
 30
0.0
 11
82.094521
 21
114.144455
 31
0.0
210
0.0
220
0.0
230
1.0
  0
LINE
  8
0
 62
     7
 10
82.094521
 20
110.144455
 30
0.0
 11
95.694519
 21
110.144455
 31
0.0
210
0.0
220
0.0
230
1.0
  0
LINE
  8
0
 62
     7
 10
95.694519
 20
104.144455
 30
0.0
 11
95.694519
 21
110.144455
 31
0.0
210
0.0
220
0.0
230
1.0
  0
LINE
  8
0
 62
     7
 10
95.694519
 20
104.144455
 30
0.0
 11
95.994522
 21
104.144455
 31
0.0
210
0.0
220
0.0
230
1.0
  0
LINE
  8
0
 62
     7
 10
97.344521
 20
103.298286
 30
0.0
 11
97.344521
 21
104.094452
 31
0.0
210
0.0
220
0.0
230
1.0
  0
ARC
  8
0
 62
     7
 10
99.094521
 20
104.094452
 30
0.0
 40
1.75
 50
120.949727
 51
180.000005
210
0.0
220
0.0
230
1.0
  0
LINE
  8
0
 62
     7
 10
98.194519
 20
114.454453
 30
0.0
 11
98.194519
 21
105.595291
 31
0.0
210
0.0
220
0.0
230
1.0
  0
LINE
  8
0
 62
     7
 10
98.194519
 20
114.454453
 30
0.0
 11
122.194519
 21
114.454453
 31
0.0
210
0.0
220
0.0
230
1.0
  0
LINE
  8
0
 62
     7
 10
122.194519
 20
114.454453
 30
0.0
 11
122.194519
 21
105.595291
 31
0.0
210
0.0
220
0.0
230
1.0
  0
ARC
  8
0
 62
     7
 10
121.294518
 20
104.094452
 30
0.0
 40
1.75
 50
0.0
 51
59.050278
210
0.0
220
0.0
230
1.0
  0
LINE
  8
0
 62
     7
 10
123.044518
 20
101.644455
 30
0.0
 11
123.044518
 21
104.094452
 31
0.0
210
0.0
220
0.0
230
1.0
  0
LINE
  8
0
 62
     7
 10
125.801697
 20
101.644455
 30
0.0
 11
123.044518
 21
101.644455
 31
0.0
210
0.0
220
0.0
230
1.0
  0
LINE
  8
0
 62
     7
 10
138.694519
 20
101.644455
 30
0.0
 11
128.894516
 21
101.644455
 31
0.0
210
0.0
220
0.0
230
1.0
  0
LINE
  8
0
 62
     7
 10
141.012207
 20
101.644455
 30
0.0
 11
138.694519
 21
101.644455
 31
0.0
210
0.0
220
0.0
230
1.0
  0
LINE
  8
0
 62
     7
 10
141.012207
 20
101.644455
 30
0.0
 11
143.758789
 21
101.644455
 31
0.0
210
0.0
220
0.0
230
1.0
  0
LINE
  8
0
 62
     7
 10
159.194519
 20
107.644455
 30
0.0
 11
159.194519
 21
107.721626
 31
0.0
210
0.0
220
0.0
230
1.0
  0
LINE
  8
0
 62
     7
 10
158.194519
 20
102.644455
 30
0.0
 11
145.194519
 21
102.644455
 31
0.0
210
0.0
220
0.0
230
1.0
  0
LINE
  8
0
 62
     7
 10
159.694519
 20
105.644455
 30
0.0
 11
159.694519
 21
104.144455
 31
0.0
210
0.0
220
0.0
230
1.0
  0
ARC
  8
0
 62
     7
 10
160.694519
 20
105.644455
 30
0.0
 40
1.0
 50
90.000003
 51
180.000005
210
0.0
220
0.0
230
1.0
  0
LINE
  8
0
 62
     7
 10
146.544525
 20
200.644455
 30
0.0
 11
146.544525
 21
198.844452
 31
0.0
210
0.0
220
0.0
230
1.0
  0
LINE
  8
0
 62
     7
 10
110.194519
 20
200.644455
 30
0.0
 11
146.544525
 21
200.644455
 31
0.0
210
0.0
220
0.0
230
1.0
  0
ARC
  8
0
 62
     7
 10
59.694519
 20
105.644455
 30
0.0
 40
1.0
 50
0.0
 51
90.000003
210
0.0
220
0.0
230
1.0
  0
LINE
  8
0
 62
     7
 10
75.194519
 20
102.644455
 30
0.0
 11
62.194519
 21
102.644455
 31
0.0
210
0.0
220
0.0
230
1.0
  0
LINE
  8
0
 62
     7
 10
73.044518
 20
194.994446
 30
0.0
 11
72.094521
 21
194.994446
 31
0.0
210
0.0
220
0.0
230
1.0
  0
LINE
  8
0
 62
     7
 10
147.344513
 20
194.994446
 30
0.0
 11
148.294525
 21
194.994446
 31
0.0
210
0.0
220
0.0
230
1.0
  0
LINE
  8
0
 62
     7
 10
147.344513
 20
196.644455
 30
0.0
 11
147.344513
 21
194.994446
 31
0.0
210
0.0
220
0.0
230
1.0
  0
LINE
  8
0
 62
     7
 10
147.344513
 20
196.644455
 30
0.0
 11
146.844513
 21
196.644455
 31
0.0
210
0.0
220
0.0
230
1.0
  0
LINE
  8
0
 62
     7
 10
146.844513
 20
198.05072
 30
0.0
 11
146.844513
 21
196.644455
 31
0.0
210
0.0
220
0.0
230
1.0
  0
ARC
  8
0
 62
     7
 10
147.744522
 20
198.844452
 30
0.0
 40
1.2
 50
180.000005
 51
221.409615
210
0.0
220
0.0
230
1.0
  0
LINE
  8
0
 62
     7
 10
110.194519
 20
200.644455
 30
0.0
 11
73.544518
 21
200.644455
 31
0.0
210
0.0
220
0.0
230
1.0
  0
LINE
  8
0
 62
     7
 10
73.544518
 20
200.644455
 30
0.0
 11
73.544518
 21
196.644455
 31
0.0
210
0.0
220
0.0
230
1.0
  0
LINE
  8
0
 62
     7
 10
73.044518
 20
196.644455
 30
0.0
 11
73.544518
 21
196.644455
 31
0.0
210
0.0
220
0.0
230
1.0
  0
LINE
  8
0
 62
     7
 10
61.194519
 20
107.644455
 30
0.0
 11
61.194519
 21
107.721626
 31
0.0
210
0.0
220
0.0
230
1.0
  0
LINE
  8
0
 62
     7
 10
61.194519
 20
107.644455
 30
0.0
 11
61.056713
 21
107.644455
 31
0.0
210
0.0
220
0.0
230
1.0
  0
LINE
  8
0
 62
     7
 10
59.694519
 20
106.644455
 30
0.0
 11
59.694519
 21
106.881592
 31
0.0
210
0.0
220
0.0
230
1.0
  0
LINE
  8
0
 62
     7
 10
60.694519
 20
105.644455
 30
0.0
 11
60.694519
 21
104.144455
 31
0.0
210
0.0
220
0.0
230
1.0
  0
ARC
  8
0
 62
     7
 10
62.194519
 20
104.144455
 30
0.0
 40
1.5
 50
180.000005
 51
269.999997
210
0.0
220
0.0
230
1.0
  0
ARC
  8
0
 62
     7
 10
75.194519
 20
101.144455
 30
0.0
 40
1.5
 50
42.833428
 51
90.000003
210
0.0
220
0.0
230
1.0
  0
LINE
  8
0
 62
     7
 10
80.294518
 20
107.644455
 30
0.0
 11
80.294518
 21
114.144455
 31
0.0
210
0.0
220
0.0
230
1.0
  0
LINE
  8
0
 62
     7
 10
59.694519
 20
107.644455
 30
0.0
 11
61.056713
 21
107.644455
 31
0.0
210
0.0
220
0.0
230
1.0
  0
LINE
  8
0
 62
     7
 10
61.056713
 20
107.644455
 30
0.0
 11
59.694519
 21
106.881592
 31
0.0
210
0.0
220
0.0
230
1.0
  0
LINE
  8
0
 62
     7
 10
148.944519
 20
200.644455
 30
0.0
 11
148.944519
 21
198.844452
 31
0.0
210
0.0
220
0.0
230
1.0
  0
ARC
  8
0
 62
     7
 10
147.744522
 20
198.844452
 30
0.0
 40
1.2
 50
318.59038
 51
0.0
210
0.0
220
0.0
230
1.0
  0
LINE
  8
0
 62
     7
 10
59.694519
 20
107.644455
 30
0.0
 11
59.694519
 21
106.881592
 31
0.0
210
0.0
220
0.0
230
1.0
  0
LINE
  8
0
 62
     7
 10
159.332321
 20
107.644455
 30
0.0
 11
160.694519
 21
106.881592
 31
0.0
210
0.0
220
0.0
230
1.0
  0
LINE
  8
0
 62
     7
 10
160.694519
 20
107.644455
 30
0.0
 11
160.694519
 21
106.881592
 31
0.0
210
0.0
220
0.0
230
1.0
  0
LINE
  8
0
 62
     7
 10
160.694519
 20
107.644455
 30
0.0
 11
159.332321
 21
107.644455
 31
0.0
210
0.0
220
0.0
230
1.0
  0
LINE
  8
0
 62
     7
 10
73.044518
 20
200.644455
 30
0.0
 11
73.544518
 21
200.644455
 31
0.0
210
0.0
220
0.0
230
1.0
  0
ARC
  8
0
 62
     7
 10
147.744522
 20
198.844452
 30
0.0
 40
1.2
 50
221.409615
 51
250.528781
210
0.0
220
0.0
230
1.0
  0
LINE
  8
0
 62
     7
 10
68.194519
 20
200.644455
 30
0.0
 11
68.194519
 21
194.994446
 31
0.0
210
0.0
220
0.0
230
1.0
  0
LINE
  8
0
 62
     7
 10
59.694519
 20
110.144455
 30
0.0
 11
59.694519
 21
107.644455
 31
0.0
210
0.0
220
0.0
230
1.0
  0
LINE
  8
0
 62
     7
 10
159.332321
 20
107.644455
 30
0.0
 11
159.194519
 21
107.644455
 31
0.0
210
0.0
220
0.0
230
1.0
  0
LINE
  8
0
 62
     7
 10
140.094513
 20
107.644455
 30
0.0
 11
140.094513
 21
114.144455
 31
0.0
210
0.0
220
0.0
230
1.0
  0
ARC
  8
0
 62
     7
 10
145.194519
 20
101.144455
 30
0.0
 40
1.5
 50
90.000003
 51
137.166577
210
0.0
220
0.0
230
1.0
  0
ARC
  8
0
 62
     7
 10
158.194519
 20
104.144455
 30
0.0
 40
1.5
 50
269.999997
 51
0.0
210
0.0
220
0.0
230
1.0
  0
LINE
  8
0
 62
     7
 10
160.694519
 20
106.644455
 30
0.0
 11
160.694519
 21
106.881592
 31
0.0
210
0.0
220
0.0
230
1.0
  0
LINE
  8
0
 62
     7
 10
160.694519
 20
110.144455
 30
0.0
 11
160.694519
 21
107.644455
 31
0.0
210
0.0
220
0.0
230
1.0
  0
LINE
  8
0
 62
     7
 10
82.094521
 20
108.644455
 30
0.0
 11
82.094521
 21
110.144455
 31
0.0
210
0.0
220
0.0
230
1.0
  0
LINE
  8
0
 62
     7
 10
85.194519
 20
101.644455
 30
0.0
 11
85.194519
 21
102.644455
 31
0.0
210
0.0
220
0.0
230
1.0
  0
LINE
  8
0
 62
     7
 10
86.694519
 20
104.144455
 30
0.0
 11
95.694519
 21
104.144455
 31
0.0
210
0.0
220
0.0
230
1.0
  0
LINE
  8
0
 62
     7
 10
82.094521
 20
108.644455
 30
0.0
 11
81.694519
 21
108.420441
 31
0.0
210
0.0
220
0.0
230
1.0
  0
LINE
  8
0
 62
     7
 10
85.194519
 20
101.644455
 30
0.0
 11
81.694519
 21
101.644455
 31
0.0
210
0.0
220
0.0
230
1.0
  0
LINE
  8
0
 62
     7
 10
148.944519
 20
200.644455
 30
0.0
 11
148.944519
 21
198.844452
 31
0.0
210
0.0
220
0.0
230
1.0
  0
ARC
  8
0
 62
     7
 10
147.744522
 20
198.844452
 30
0.0
 40
1.2
 50
250.528781
 51
360.0
210
0.0
220
0.0
230
1.0
  0
LINE
  8
0
 62
     7
 10
147.344513
 20
197.713074
 30
0.0
 11
147.344513
 21
194.994446
 31
0.0
210
0.0
220
0.0
230
1.0
  0
LINE
  8
0
 62
     7
 10
152.194519
 20
194.994446
 30
0.0
 11
147.344513
 21
194.994446
 31
0.0
210
0.0
220
0.0
230
1.0
  0
LINE
  8
0
 62
     7
 10
152.194519
 20
194.994446
 30
0.0
 11
152.194519
 21
200.644455
 31
0.0
210
0.0
220
0.0
230
1.0
  0
LINE
  8
0
 62
     7
 10
148.944519
 20
200.644455
 30
0.0
 11
152.194519
 21
200.644455
 31
0.0
210
0.0
220
0.0
230
1.0
  0
LINE
  8
0
 62
     7
 10
68.194519
 20
200.644455
 30
0.0
 11
68.194519
 21
194.994446
 31
0.0
210
0.0
220
0.0
230
1.0
  0
LINE
  8
0
 62
     7
 10
73.044518
 20
194.994446
 30
0.0
 11
68.194519
 21
194.994446
 31
0.0
210
0.0
220
0.0
230
1.0
  0
LINE
  8
0
 62
     7
 10
73.044518
 20
194.994446
 30
0.0
 11
73.044518
 21
200.644455
 31
0.0
210
0.0
220
0.0
230
1.0
  0
LINE
  8
0
 62
     7
 10
68.194519
 20
200.644455
 30
0.0
 11
73.044518
 21
200.644455
 31
0.0
210
0.0
220
0.0
230
1.0
  0
ENDSEC
  0
EOF
