  0
SECTION
  2
HEADER
  9
$ACADVER
  1
AC1009
  9
$DWGCODEPAGE
  3
ansi_1252
  9
$INSBASE
 10
0.0
 20
0.0
 30
0.0
  9
$EXTMIN
 10
0.0
 20
0.0
 30
0.0
  9
$EXTMAX
 10
156.884338
 20
220.844177
 30
2.0
  9
$LIMMIN
 10
0.0
 20
0.0
  9
$LIMMAX
 10
420.0
 20
297.0
  9
$ORTHOMODE
 70
     0
  9
$REGENMODE
 70
     1
  9
$FILLMODE
 70
     1
  9
$QTEXTMODE
 70
     0
  9
$MIRRTEXT
 70
     1
  9
$DRAGMODE
 70
     2
  9
$LTSCALE
 40
1.0
  9
$OSMODE
 70
     0
  9
$ATTMODE
 70
     1
  9
$TEXTSIZE
 40
2.5
  9
$TRACEWID
 40
1.0
  9
$TEXTSTYLE
  7
STANDARD
  9
$CLAYER
  8
0
  9
$CELTYPE
  6
BYLAYER
  9
$CECOLOR
 62
   256
  9
$DIMSCALE
 40
1.0
  9
$DIMASZ
 40
2.5
  9
$DIMEXO
 40
0.625
  9
$DIMDLI
 40
3.75
  9
$DIMRND
 40
0.0
  9
$DIMDLE
 40
0.0
  9
$DIMEXE
 40
1.25
  9
$DIMTP
 40
0.0
  9
$DIMTM
 40
0.0
  9
$DIMTXT
 40
2.5
  9
$DIMCEN
 40
2.5
  9
$DIMTSZ
 40
0.0
  9
$DIMTOL
 70
     0
  9
$DIMLIM
 70
     0
  9
$DIMTIH
 70
     0
  9
$DIMTOH
 70
     0
  9
$DIMSE1
 70
     0
  9
$DIMSE2
 70
     0
  9
$DIMTAD
 70
     1
  9
$DIMZIN
 70
     8
  9
$DIMBLK
  1

  9
$DIMASO
 70
     1
  9
$DIMSHO
 70
     1
  9
$DIMPOST
  1

  9
$DIMAPOST
  1

  9
$DIMALT
 70
     0
  9
$DIMALTD
 70
     3
  9
$DIMALTF
 40
0.03937
  9
$DIMLFAC
 40
1.0
  9
$DIMTOFL
 70
     1
  9
$DIMTVP
 40
0.0
  9
$DIMTIX
 70
     0
  9
$DIMSOXD
 70
     0
  9
$DIMSAH
 70
     0
  9
$DIMBLK1
  1

  9
$DIMBLK2
  1

  9
$DIMSTYLE
  2

  9
$DIMCLRD
 70
     0
  9
$DIMCLRE
 70
     0
  9
$DIMCLRT
 70
     0
  9
$DIMTFAC
 40
1.0
  9
$DIMGAP
 40
0.625
  9
$LUNITS
 70
     2
  9
$LUPREC
 70
     4
  9
$AXISMODE
 70
     0
  9
$AXISUNIT
 10
0.0
 20
0.0
  9
$SKETCHINC
 40
1.0
  9
$FILLETRAD
 40
2.5
  9
$AUNITS
 70
     0
  9
$AUPREC
 70
     0
  9
$MENU
  1
.
  9
$ELEVATION
 40
0.0
  9
$PELEVATION
 40
0.0
  9
$THICKNESS
 40
0.0
  9
$LIMCHECK
 70
     0
  9
$BLIPMODE
 70
     1
  9
$CHAMFERA
 40
2.5
  9
$CHAMFERB
 40
2.5
  9
$SKPOLY
 70
     0
  9
$TDCREATE
 40
0.000000000
  9
$TDUPDATE
 40
0.000000000
  9
$TDINDWG
 40
0.0000000000
  9
$TDUSRTIMER
 40
0.0000000000
  9
$USRTIMER
 70
     1
  9
$ANGBASE
 50
0.0
  9
$ANGDIR
 70
     0
  9
$PDMODE
 70
     0
  9
$PDSIZE
 40
0.0
  9
$PLINEWID
 40
0.0
  9
$COORDS
 70
     0
  9
$SPLFRAME
 70
     0
  9
$SPLINETYPE
 70
     6
  9
$SPLINESEGS
 70
     8
  9
$ATTDIA
 70
     0
  9
$ATTREQ
 70
     1
  9
$HANDLING
 70
     0
  9
$HANDSEED
  5
3
  9
$SURFTAB1
 70
     6
  9
$SURFTAB2
 70
     6
  9
$SURFTYPE
 70
     6
  9
$SURFU
 70
     6
  9
$SURFV
 70
     6
  9
$UCSNAME
  2

  9
$UCSORG
 10
0.0
 20
0.0
 30
0.0
  9
$UCSXDIR
 10
1.0
 20
0.0
 30
0.0
  9
$UCSYDIR
 10
0.0
 20
1.0
 30
0.0
  9
$PUCSNAME
  2

  9
$PUCSORG
 10
0.0
 20
0.0
 30
0.0
  9
$PUCSXDIR
 10
1.0
 20
0.0
 30
0.0
  9
$PUCSYDIR
 10
0.0
 20
1.0
 30
0.0
  9
$USERI1
 70
     0
  9
$USERI2
 70
     0
  9
$USERI3
 70
     0
  9
$USERI4
 70
     0
  9
$USERI5
 70
     0
  9
$USERR1
 40
0.0
  9
$USERR2
 40
0.0
  9
$USERR3
 40
0.0
  9
$USERR4
 40
0.0
  9
$USERR5
 40
0.0
  9
$WORLDVIEW
 70
     1
  9
$SHADEDGE
 70
     3
  9
$SHADEDIF
 70
    70
  9
$TILEMODE
 70
     1
  9
$MAXACTVP
 70
    48
  9
$PINSBASE
 10
0.0
 20
0.0
 30
0.0
  9
$PLIMCHECK
 70
     0
  9
$PEXTMIN
 10
0.0
 20
0.0
 30
0.0
  9
$PEXTMAX
 10
156.884338
 20
220.844177
 30
2.0
  9
$PLIMMIN
 10
0.0
 20
0.0
  9
$PLIMMAX
 10
420.0
 20
297.0
  9
$UNITMODE
 70
     0
  9
$VISRETAIN
 70
     0
  9
$PLINEGEN
 70
     0
  9
$PSLTSCALE
 70
     1
  9
$TREEDEPTH
 70
  3020
  0
ENDSEC
  0
SECTION
  2
TABLES
  0
TABLE
  2
VPORT
 70
     1
  0
VPORT
  2
*ACTIVE
 70
     0
 10
0.0
 20
0.0
 11
1.0
 21
1.0
 12
6.591288
 22
4.579184
 13
0.0
 23
0.0
 14
1.0
 24
1.0
 15
0.0
 25
0.0
 16
0.0
 26
0.0
 36
1.0
 17
0.0
 27
0.0
 37
0.0
 40
9.158369
 41
0.688564
 42
50.0
 43
0.0
 44
0.0
 50
0.0
 51
0.0
 71
     0
 72
   100
 73
     1
 74
     1
 75
     0
 76
     0
 77
     0
 78
     0
  0
ENDTAB
  0
TABLE
  2
LTYPE
 70
     2
  0
LTYPE
  2
CONTINUOUS
 70
    64
  3
Solid line
 72
    65
 73
     0
 40
0.0
  0
LTYPE
  2
DASHDOT
 70
     0
  3
 __ . __ . __ . __ . __ . __ . __ . 
 72
    65
 73
     4
 40
18.5
 49
12.0
 49
-3.0
 49
0.5
 49
-3.0
  0
ENDTAB
  0
TABLE
  2
LAYER
 70
     1
  0
LAYER
  2
0
 70
     0
 62
     7
  6
CONTINUOUS
  0
ENDTAB
  0
TABLE
  2
STYLE
 70
     1
  0
STYLE
  2
STANDARD
 70
     0
 40
0.0
 41
1.0
 50
0.0
 71
     0
 42
0.0
  3
txt
  4

  0
ENDTAB
  0
TABLE
  2
VIEW
 70
     0
  0
ENDTAB
  0
TABLE
  2
UCS
 70
     0
  0
ENDTAB
  0
TABLE
  2
APPID
 70
     1
  0
APPID
  2
ACAD
 70
     0
  0
ENDTAB
  0
TABLE
  2
DIMSTYLE
 70
     1
  0
DIMSTYLE
  2
STANDARD
 70
     0
  3

  4

  5

  6

  7

 40
1.0
 41
0.18
 42
0.0625
 43
0.38
 44
0.18
 45
0.0
 46
0.0
 47
0.0
 48
0.0
 71
     0
 72
     0
 73
     1
 74
     1
 75
     0
 76
     0
 77
     0
 78
     0
140
0.18
141
0.09
142
0.0
143
25.4
144
1.0
145
0.0
146
1.0
147
0.09
170
     0
171
     2
172
     0
173
     0
174
     0
175
     0
176
     0
177
     0
178
     0
  0
ENDTAB
  0
ENDSEC
  0
SECTION
  2
BLOCKS
  0
ENDSEC
  0
SECTION
  2
ENTITIES
  0
VIEWPORT
  8
0
 62
     0
 67
     1
 68
     1
 10
0.0
 20
0.0
 30
0.0
 40
1000.0
 41
1000.0
 69
     1
1001
ACAD
1000
MVIEW
1002
{
1070
    16
1010
0.0
1020
0.0
1030
0.0
1010
0.0
1020
0.0
1030
1.0
1040
0.0
1040
1000.0
1040
0.0
1040
0.0
1040
50.0
1040
0.0
1040
0.0
1070
     0
1070
   100
1070
     1
1070
     1
1070
     0
1070
     0
1070
     0
1070
     0
1040
0.0
1040
0.0
1040
0.0
1040
1.0
1040
1.0
1040
1.0
1040
1.0
1070
     0
1002
{
1002
}
1002
}
  0
LINE
  8
0
  6
DASHDOT
 62
     7
 10
125.444344
 20
105.375191
 30
0.0
 11
122.324348
 21
105.375191
 31
0.0
210
0.0
220
0.0
230
1.0
  0
LINE
  8
0
  6
DASHDOT
 62
     7
 10
123.884346
 20
106.935196
 30
0.0
 11
123.884346
 21
103.815193
 31
0.0
210
0.0
220
0.0
230
1.0
  0
POLYLINE
  8
0
 62
     7
 66
     1
 10
0.0
 20
0.0
 30
0.0
 70
     1
 71
    12
  0
VERTEX
  8
0
 10
56.056114
 20
217.495789
 30
0.0
  0
VERTEX
  8
0
 10
56.2663
 20
217.495789
 30
0.0
  0
VERTEX
  8
0
 10
56.2663
 20
219.522903
 30
0.0
  0
VERTEX
  8
0
 10
56.327324
 20
219.338623
 30
0.0
  0
VERTEX
  8
0
 10
57.102531
 20
217.495789
 30
0.0
  0
VERTEX
  8
0
 10
57.342098
 20
217.495789
 30
0.0
  0
VERTEX
  8
0
 10
57.342098
 20
219.995789
 30
0.0
  0
VERTEX
  8
0
 10
57.131912
 20
219.995789
 30
0.0
  0
VERTEX
  8
0
 10
57.131912
 20
217.968674
 30
0.0
  0
VERTEX
  8
0
 10
57.057331
 20
218.180771
 30
0.0
  0
VERTEX
  8
0
 10
56.297943
 20
219.995789
 30
0.0
  0
VERTEX
  8
0
 10
56.056114
 20
219.995789
 30
0.0
  0
SEQEND
  8
0
  0
POLYLINE
  8
0
 62
     7
 66
     1
 10
0.0
 20
0.0
 30
0.0
 70
     1
 71
    32
  0
VERTEX
  8
0
 10
58.117828
 20
218.744049
 30
0.0
  0
VERTEX
  8
0
 10
58.129131
 20
218.445023
 30
0.0
  0
VERTEX
  8
0
 10
58.169811
 20
218.18425
 30
0.0
  0
VERTEX
  8
0
 10
58.235355
 20
217.958237
 30
0.0
  0
VERTEX
  8
0
 10
58.323498
 20
217.770477
 30
0.0
  0
VERTEX
  8
0
 10
58.434242
 20
217.620956
 30
0.0
  0
VERTEX
  8
0
 10
58.565327
 20
217.513168
 30
0.0
  0
VERTEX
  8
0
 10
58.716751
 20
217.450592
 30
0.0
  0
VERTEX
  8
0
 10
58.888519
 20
217.426254
 30
0.0
  0
VERTEX
  8
0
 10
59.058025
 20
217.450592
 30
0.0
  0
VERTEX
  8
0
 10
59.20945
 20
217.513168
 30
0.0
  0
VERTEX
  8
0
 10
59.340534
 20
217.620956
 30
0.0
  0
VERTEX
  8
0
 10
59.451279
 20
217.770477
 30
0.0
  0
VERTEX
  8
0
 10
59.539421
 20
217.958237
 30
0.0
  0
VERTEX
  8
0
 10
59.602703
 20
218.18425
 30
0.0
  0
VERTEX
  8
0
 10
59.641125
 20
218.445023
 30
0.0
  0
VERTEX
  8
0
 10
59.656948
 20
218.744049
 30
0.0
  0
VERTEX
  8
0
 10
59.643387
 20
219.039597
 30
0.0
  0
VERTEX
  8
0
 10
59.602703
 20
219.300385
 30
0.0
  0
VERTEX
  8
0
 10
59.537163
 20
219.526382
 30
0.0
  0
VERTEX
  8
0
 10
59.451279
 20
219.714142
 30
0.0
  0
VERTEX
  8
0
 10
59.340534
 20
219.863663
 30
0.0
  0
VERTEX
  8
0
 10
59.20945
 20
219.971451
 30
0.0
  0
VERTEX
  8
0
 10
59.058025
 20
220.037506
 30
0.0
  0
VERTEX
  8
0
 10
58.888519
 20
220.061859
 30
0.0
  0
VERTEX
  8
0
 10
58.716751
 20
220.037506
 30
0.0
  0
VERTEX
  8
0
 10
58.565327
 20
219.971451
 30
0.0
  0
VERTEX
  8
0
 10
58.434242
 20
219.863663
 30
0.0
  0
VERTEX
  8
0
 10
58.323498
 20
219.714142
 30
0.0
  0
VERTEX
  8
0
 10
58.235355
 20
219.526382
 30
0.0
  0
VERTEX
  8
0
 10
58.169811
 20
219.300385
 30
0.0
  0
VERTEX
  8
0
 10
58.129131
 20
219.039597
 30
0.0
  0
SEQEND
  8
0
  0
POLYLINE
  8
0
 62
     7
 66
     1
 10
0.0
 20
0.0
 30
0.0
 70
     1
 71
    16
  0
VERTEX
  8
0
 10
58.3461
 20
218.744049
 30
0.0
  0
VERTEX
  8
0
 10
58.382259
 20
219.175201
 30
0.0
  0
VERTEX
  8
0
 10
58.490746
 20
219.498566
 30
0.0
  0
VERTEX
  8
0
 10
58.66251
 20
219.696762
 30
0.0
  0
VERTEX
  8
0
 10
58.888519
 20
219.766296
 30
0.0
  0
VERTEX
  8
0
 10
59.112267
 20
219.696762
 30
0.0
  0
VERTEX
  8
0
 10
59.284035
 20
219.498566
 30
0.0
  0
VERTEX
  8
0
 10
59.390255
 20
219.175201
 30
0.0
  0
VERTEX
  8
0
 10
59.428677
 20
218.744049
 30
0.0
  0
VERTEX
  8
0
 10
59.390255
 20
218.309418
 30
0.0
  0
VERTEX
  8
0
 10
59.284035
 20
217.986053
 30
0.0
  0
VERTEX
  8
0
 10
59.112267
 20
217.787857
 30
0.0
  0
VERTEX
  8
0
 10
58.888519
 20
217.721802
 30
0.0
  0
VERTEX
  8
0
 10
58.66251
 20
217.787857
 30
0.0
  0
VERTEX
  8
0
 10
58.490746
 20
217.986053
 30
0.0
  0
VERTEX
  8
0
 10
58.382259
 20
218.309418
 30
0.0
  0
SEQEND
  8
0
  0
POLYLINE
  8
0
 62
     7
 66
     1
 10
0.0
 20
0.0
 30
0.0
 70
     1
 71
    12
  0
VERTEX
  8
0
 10
60.432678
 20
217.495789
 30
0.0
  0
VERTEX
  8
0
 10
60.642864
 20
217.495789
 30
0.0
  0
VERTEX
  8
0
 10
60.642864
 20
219.522903
 30
0.0
  0
VERTEX
  8
0
 10
60.703888
 20
219.338623
 30
0.0
  0
VERTEX
  8
0
 10
61.479095
 20
217.495789
 30
0.0
  0
VERTEX
  8
0
 10
61.718666
 20
217.495789
 30
0.0
  0
VERTEX
  8
0
 10
61.718666
 20
219.995789
 30
0.0
  0
VERTEX
  8
0
 10
61.508476
 20
219.995789
 30
0.0
  0
VERTEX
  8
0
 10
61.508476
 20
217.968674
 30
0.0
  0
VERTEX
  8
0
 10
61.433895
 20
218.180771
 30
0.0
  0
VERTEX
  8
0
 10
60.674507
 20
219.995789
 30
0.0
  0
VERTEX
  8
0
 10
60.432678
 20
219.995789
 30
0.0
  0
SEQEND
  8
0
  0
POLYLINE
  8
0
 62
     7
 66
     1
 10
0.0
 20
0.0
 30
0.0
 70
     1
 71
     4
  0
VERTEX
  8
0
 10
62.469532
 20
218.278122
 30
0.0
  0
VERTEX
  8
0
 10
63.016472
 20
218.278122
 30
0.0
  0
VERTEX
  8
0
 10
63.016472
 20
218.552811
 30
0.0
  0
VERTEX
  8
0
 10
62.469532
 20
218.552811
 30
0.0
  0
SEQEND
  8
0
  0
POLYLINE
  8
0
 62
     7
 66
     1
 10
0.0
 20
0.0
 30
0.0
 70
     1
 71
    22
  0
VERTEX
  8
0
 10
63.760563
 20
218.445023
 30
0.0
  0
VERTEX
  8
0
 10
63.796722
 20
217.99649
 30
0.0
  0
VERTEX
  8
0
 10
63.911987
 20
217.680069
 30
0.0
  0
VERTEX
  8
0
 10
64.101837
 20
217.49231
 30
0.0
  0
VERTEX
  8
0
 10
64.370789
 20
217.426254
 30
0.0
  0
VERTEX
  8
0
 10
64.655556
 20
217.49231
 30
0.0
  0
VERTEX
  8
0
 10
64.86348
 20
217.683548
 30
0.0
  0
VERTEX
  8
0
 10
64.990051
 20
217.999954
 30
0.0
  0
VERTEX
  8
0
 10
65.03299
 20
218.445023
 30
0.0
  0
VERTEX
  8
0
 10
65.03299
 20
219.995789
 30
0.0
  0
VERTEX
  8
0
 10
64.811501
 20
219.995789
 30
0.0
  0
VERTEX
  8
0
 10
64.811501
 20
218.441544
 30
0.0
  0
VERTEX
  8
0
 10
64.784378
 20
218.135559
 30
0.0
  0
VERTEX
  8
0
 10
64.707535
 20
217.923462
 30
0.0
  0
VERTEX
  8
0
 10
64.578712
 20
217.794815
 30
0.0
  0
VERTEX
  8
0
 10
64.395645
 20
217.753098
 30
0.0
  0
VERTEX
  8
0
 10
64.21032
 20
217.794815
 30
0.0
  0
VERTEX
  8
0
 10
64.081497
 20
217.919983
 30
0.0
  0
VERTEX
  8
0
 10
64.004654
 20
218.135559
 30
0.0
  0
VERTEX
  8
0
 10
63.982052
 20
218.441544
 30
0.0
  0
VERTEX
  8
0
 10
63.982052
 20
219.995789
 30
0.0
  0
VERTEX
  8
0
 10
63.760563
 20
219.995789
 30
0.0
  0
SEQEND
  8
0
  0
POLYLINE
  8
0
 62
     7
 66
     1
 10
0.0
 20
0.0
 30
0.0
 70
     1
 71
    50
  0
VERTEX
  8
0
 10
65.797417
 20
218.319855
 30
0.0
  0
VERTEX
  8
0
 10
65.847137
 20
217.937378
 30
0.0
  0
VERTEX
  8
0
 10
65.973709
 20
217.65921
 30
0.0
  0
VERTEX
  8
0
 10
66.170334
 20
217.488831
 30
0.0
  0
VERTEX
  8
0
 10
66.434761
 20
217.429718
 30
0.0
  0
VERTEX
  8
0
 10
66.694672
 20
217.488831
 30
0.0
  0
VERTEX
  8
0
 10
66.891296
 20
217.645294
 30
0.0
  0
VERTEX
  8
0
 10
67.015602
 20
217.892166
 30
0.0
  0
VERTEX
  8
0
 10
67.058548
 20
218.219009
 30
0.0
  0
VERTEX
  8
0
 10
67.022385
 20
218.490219
 30
0.0
  0
VERTEX
  8
0
 10
66.925201
 20
218.695374
 30
0.0
  0
VERTEX
  8
0
 10
66.762474
 20
218.82402
 30
0.0
  0
VERTEX
  8
0
 10
66.552284
 20
218.914429
 30
0.0
  0
VERTEX
  8
0
 10
66.330795
 20
218.9944
 30
0.0
  0
VERTEX
  8
0
 10
66.177109
 20
219.074371
 30
0.0
  0
VERTEX
  8
0
 10
66.086708
 20
219.189117
 30
0.0
  0
VERTEX
  8
0
 10
66.059586
 20
219.380356
 30
0.0
  0
VERTEX
  8
0
 10
66.082191
 20
219.540298
 30
0.0
  0
VERTEX
  8
0
 10
66.15451
 20
219.668945
 30
0.0
  0
VERTEX
  8
0
 10
66.265259
 20
219.748917
 30
0.0
  0
VERTEX
  8
0
 10
66.416679
 20
219.780212
 30
0.0
  0
VERTEX
  8
0
 10
66.570366
 20
219.745438
 30
0.0
  0
VERTEX
  8
0
 10
66.687889
 20
219.644608
 30
0.0
  0
VERTEX
  8
0
 10
66.764732
 20
219.481186
 30
0.0
  0
VERTEX
  8
0
 10
66.800896
 20
219.262131
 30
0.0
  0
VERTEX
  8
0
 10
67.011086
 20
219.262131
 30
0.0
  0
VERTEX
  8
0
 10
66.96814
 20
219.595932
 30
0.0
  0
VERTEX
  8
0
 10
66.852875
 20
219.846283
 30
0.0
  0
VERTEX
  8
0
 10
66.672073
 20
220.006226
 30
0.0
  0
VERTEX
  8
0
 10
66.430244
 20
220.061859
 30
0.0
  0
VERTEX
  8
0
 10
66.188416
 20
220.006226
 30
0.0
  0
VERTEX
  8
0
 10
66.005348
 20
219.853226
 30
0.0
  0
VERTEX
  8
0
 10
65.887825
 20
219.62027
 30
0.0
  0
VERTEX
  8
0
 10
65.849403
 20
219.321243
 30
0.0
  0
VERTEX
  8
0
 10
65.883301
 20
219.046555
 30
0.0
  0
VERTEX
  8
0
 10
65.985008
 20
218.858795
 30
0.0
  0
VERTEX
  8
0
 10
66.156769
 20
218.730148
 30
0.0
  0
VERTEX
  8
0
 10
66.394081
 20
218.629303
 30
0.0
  0
VERTEX
  8
0
 10
66.586189
 20
218.552811
 30
0.0
  0
VERTEX
  8
0
 10
66.726311
 20
218.476318
 30
0.0
  0
VERTEX
  8
0
 10
66.809937
 20
218.361572
 30
0.0
  0
VERTEX
  8
0
 10
66.839317
 20
218.180771
 30
0.0
  0
VERTEX
  8
0
 10
66.809937
 20
217.993011
 30
0.0
  0
VERTEX
  8
0
 10
66.730835
 20
217.84697
 30
0.0
  0
VERTEX
  8
0
 10
66.604271
 20
217.756561
 30
0.0
  0
VERTEX
  8
0
 10
66.432503
 20
217.725281
 30
0.0
  0
VERTEX
  8
0
 10
66.258476
 20
217.763519
 30
0.0
  0
VERTEX
  8
0
 10
66.127388
 20
217.885223
 30
0.0
  0
VERTEX
  8
0
 10
66.041504
 20
218.069504
 30
0.0
  0
VERTEX
  8
0
 10
66.009865
 20
218.319855
 30
0.0
  0
SEQEND
  8
0
  0
POLYLINE
  8
0
 62
     7
 66
     1
 10
0.0
 20
0.0
 30
0.0
 70
     1
 71
     8
  0
VERTEX
  8
0
 10
67.651207
 20
217.495789
 30
0.0
  0
VERTEX
  8
0
 10
67.879478
 20
217.495789
 30
0.0
  0
VERTEX
  8
0
 10
68.053505
 20
218.243347
 30
0.0
  0
VERTEX
  8
0
 10
68.693108
 20
218.243347
 30
0.0
  0
VERTEX
  8
0
 10
68.864876
 20
217.495789
 30
0.0
  0
VERTEX
  8
0
 10
69.104446
 20
217.495789
 30
0.0
  0
VERTEX
  8
0
 10
68.498741
 20
219.995789
 30
0.0
  0
VERTEX
  8
0
 10
68.254654
 20
219.995789
 30
0.0
  0
SEQEND
  8
0
  0
POLYLINE
  8
0
 62
     7
 66
     1
 10
0.0
 20
0.0
 30
0.0
 70
     1
 71
     3
  0
VERTEX
  8
0
 10
68.121307
 20
218.535431
 30
0.0
  0
VERTEX
  8
0
 10
68.376694
 20
219.63765
 30
0.0
  0
VERTEX
  8
0
 10
68.627563
 20
218.535431
 30
0.0
  0
SEQEND
  8
0
  0
POLYLINE
  8
0
 62
     7
 66
     1
 10
0.0
 20
0.0
 30
0.0
 70
     1
 71
    19
  0
VERTEX
  8
0
 10
69.77169
 20
217.495789
 30
0.0
  0
VERTEX
  8
0
 10
70.461014
 20
217.495789
 30
0.0
  0
VERTEX
  8
0
 10
70.691544
 20
217.547943
 30
0.0
  0
VERTEX
  8
0
 10
70.863312
 20
217.700928
 30
0.0
  0
VERTEX
  8
0
 10
70.971794
 20
217.933899
 30
0.0
  0
VERTEX
  8
0
 10
71.010216
 20
218.243347
 30
0.0
  0
VERTEX
  8
0
 10
70.98761
 20
218.465881
 30
0.0
  0
VERTEX
  8
0
 10
70.92659
 20
218.643219
 30
0.0
  0
VERTEX
  8
0
 10
70.829407
 20
218.771866
 30
0.0
  0
VERTEX
  8
0
 10
70.700584
 20
218.844879
 30
0.0
  0
VERTEX
  8
0
 10
70.800026
 20
218.931808
 30
0.0
  0
VERTEX
  8
0
 10
70.874611
 20
219.053513
 30
0.0
  0
VERTEX
  8
0
 10
70.917549
 20
219.203018
 30
0.0
  0
VERTEX
  8
0
 10
70.933372
 20
219.387299
 30
0.0
  0
VERTEX
  8
0
 10
70.899475
 20
219.651566
 30
0.0
  0
VERTEX
  8
0
 10
70.80455
 20
219.842804
 30
0.0
  0
VERTEX
  8
0
 10
70.646339
 20
219.957535
 30
0.0
  0
VERTEX
  8
0
 10
70.427116
 20
219.995789
 30
0.0
  0
VERTEX
  8
0
 10
69.77169
 20
219.995789
 30
0.0
  0
SEQEND
  8
0
  0
POLYLINE
  8
0
 62
     7
 66
     1
 10
0.0
 20
0.0
 30
0.0
 70
     1
 71
    11
  0
VERTEX
  8
0
 10
69.993179
 20
217.798294
 30
0.0
  0
VERTEX
  8
0
 10
69.993179
 20
218.667557
 30
0.0
  0
VERTEX
  8
0
 10
70.415817
 20
218.667557
 30
0.0
  0
VERTEX
  8
0
 10
70.576279
 20
218.643219
 30
0.0
  0
VERTEX
  8
0
 10
70.691544
 20
218.566727
 30
0.0
  0
VERTEX
  8
0
 10
70.759346
 20
218.434586
 30
0.0
  0
VERTEX
  8
0
 10
70.78421
 20
218.246826
 30
0.0
  0
VERTEX
  8
0
 10
70.761604
 20
218.052124
 30
0.0
  0
VERTEX
  8
0
 10
70.69606
 20
217.91304
 30
0.0
  0
VERTEX
  8
0
 10
70.587578
 20
217.826111
 30
0.0
  0
VERTEX
  8
0
 10
70.440674
 20
217.798294
 30
0.0
  0
SEQEND
  8
0
  0
POLYLINE
  8
0
 62
     7
 66
     1
 10
0.0
 20
0.0
 30
0.0
 70
     1
 71
    11
  0
VERTEX
  8
0
 10
69.993179
 20
218.945724
 30
0.0
  0
VERTEX
  8
0
 10
69.993179
 20
219.710663
 30
0.0
  0
VERTEX
  8
0
 10
70.397736
 20
219.710663
 30
0.0
  0
VERTEX
  8
0
 10
70.535599
 20
219.686325
 30
0.0
  0
VERTEX
  8
0
 10
70.632782
 20
219.616791
 30
0.0
  0
VERTEX
  8
0
 10
70.691544
 20
219.502045
 30
0.0
  0
VERTEX
  8
0
 10
70.711884
 20
219.338623
 30
0.0
  0
VERTEX
  8
0
 10
70.689285
 20
219.161301
 30
0.0
  0
VERTEX
  8
0
 10
70.628258
 20
219.036118
 30
0.0
  0
VERTEX
  8
0
 10
70.5243
 20
218.966583
 30
0.0
  0
VERTEX
  8
0
 10
70.379654
 20
218.945724
 30
0.0
  0
SEQEND
  8
0
  0
POLYLINE
  8
0
 62
     7
 66
     1
 10
0.0
 20
0.0
 30
0.0
 70
     1
 71
     6
  0
VERTEX
  8
0
 10
71.767868
 20
217.495789
 30
0.0
  0
VERTEX
  8
0
 10
72.80072
 20
217.495789
 30
0.0
  0
VERTEX
  8
0
 10
72.80072
 20
217.812195
 30
0.0
  0
VERTEX
  8
0
 10
71.991608
 20
217.812195
 30
0.0
  0
VERTEX
  8
0
 10
71.991608
 20
219.995789
 30
0.0
  0
VERTEX
  8
0
 10
71.767868
 20
219.995789
 30
0.0
  0
SEQEND
  8
0
  0
POLYLINE
  8
0
 62
     7
 66
     1
 10
0.0
 20
0.0
 30
0.0
 70
     1
 71
    12
  0
VERTEX
  8
0
 10
73.477005
 20
217.495789
 30
0.0
  0
VERTEX
  8
0
 10
74.65451
 20
217.495789
 30
0.0
  0
VERTEX
  8
0
 10
74.65451
 20
217.808716
 30
0.0
  0
VERTEX
  8
0
 10
73.696236
 20
217.808716
 30
0.0
  0
VERTEX
  8
0
 10
73.696236
 20
218.646698
 30
0.0
  0
VERTEX
  8
0
 10
74.56411
 20
218.646698
 30
0.0
  0
VERTEX
  8
0
 10
74.56411
 20
218.938766
 30
0.0
  0
VERTEX
  8
0
 10
73.696236
 20
218.938766
 30
0.0
  0
VERTEX
  8
0
 10
73.696236
 20
219.686325
 30
0.0
  0
VERTEX
  8
0
 10
74.636429
 20
219.686325
 30
0.0
  0
VERTEX
  8
0
 10
74.636429
 20
219.995789
 30
0.0
  0
VERTEX
  8
0
 10
73.477005
 20
219.995789
 30
0.0
  0
SEQEND
  8
0
  0
POLYLINE
  8
0
 62
     7
 66
     1
 10
0.0
 20
0.0
 30
0.0
 70
     1
 71
     8
  0
VERTEX
  8
0
 10
76.359657
 20
217.495789
 30
0.0
  0
VERTEX
  8
0
 10
76.587929
 20
217.495789
 30
0.0
  0
VERTEX
  8
0
 10
76.761955
 20
218.243347
 30
0.0
  0
VERTEX
  8
0
 10
77.401558
 20
218.243347
 30
0.0
  0
VERTEX
  8
0
 10
77.573318
 20
217.495789
 30
0.0
  0
VERTEX
  8
0
 10
77.812889
 20
217.495789
 30
0.0
  0
VERTEX
  8
0
 10
77.207191
 20
219.995789
 30
0.0
  0
VERTEX
  8
0
 10
76.963104
 20
219.995789
 30
0.0
  0
SEQEND
  8
0
  0
POLYLINE
  8
0
 62
     7
 66
     1
 10
0.0
 20
0.0
 30
0.0
 70
     1
 71
     3
  0
VERTEX
  8
0
 10
76.829758
 20
218.535431
 30
0.0
  0
VERTEX
  8
0
 10
77.085144
 20
219.63765
 30
0.0
  0
VERTEX
  8
0
 10
77.336014
 20
218.535431
 30
0.0
  0
SEQEND
  8
0
  0
POLYLINE
  8
0
 62
     7
 66
     1
 10
0.0
 20
0.0
 30
0.0
 70
     1
 71
    30
  0
VERTEX
  8
0
 10
78.480133
 20
219.995789
 30
0.0
  0
VERTEX
  8
0
 10
78.480133
 20
217.495789
 30
0.0
  0
VERTEX
  8
0
 10
78.699364
 20
217.495789
 30
0.0
  0
VERTEX
  8
0
 10
78.699364
 20
218.566727
 30
0.0
  0
VERTEX
  8
0
 10
79.056458
 20
218.566727
 30
0.0
  0
VERTEX
  8
0
 10
79.228226
 20
218.55629
 30
0.0
  0
VERTEX
  8
0
 10
79.33445
 20
218.504135
 30
0.0
  0
VERTEX
  8
0
 10
79.393211
 20
218.38591
 30
0.0
  0
VERTEX
  8
0
 10
79.418076
 20
218.166855
 30
0.0
  0
VERTEX
  8
0
 10
79.431633
 20
217.840012
 30
0.0
  0
VERTEX
  8
0
 10
79.442932
 20
217.64183
 30
0.0
  0
VERTEX
  8
0
 10
79.474571
 20
217.495789
 30
0.0
  0
VERTEX
  8
0
 10
79.729965
 20
217.495789
 30
0.0
  0
VERTEX
  8
0
 10
79.729965
 20
217.565323
 30
0.0
  0
VERTEX
  8
0
 10
79.67572
 20
217.666168
 30
0.0
  0
VERTEX
  8
0
 10
79.65538
 20
217.857407
 30
0.0
  0
VERTEX
  8
0
 10
79.637299
 20
218.2677
 30
0.0
  0
VERTEX
  8
0
 10
79.621475
 20
218.441544
 30
0.0
  0
VERTEX
  8
0
 10
79.592102
 20
218.577148
 30
0.0
  0
VERTEX
  8
0
 10
79.537857
 20
218.671036
 30
0.0
  0
VERTEX
  8
0
 10
79.451973
 20
218.733612
 30
0.0
  0
VERTEX
  8
0
 10
79.546898
 20
218.827499
 30
0.0
  0
VERTEX
  8
0
 10
79.616959
 20
218.956146
 30
0.0
  0
VERTEX
  8
0
 10
79.659897
 20
219.11261
 30
0.0
  0
VERTEX
  8
0
 10
79.67572
 20
219.303848
 30
0.0
  0
VERTEX
  8
0
 10
79.659897
 20
219.498566
 30
0.0
  0
VERTEX
  8
0
 10
79.621475
 20
219.668945
 30
0.0
  0
VERTEX
  8
0
 10
79.46553
 20
219.908859
 30
0.0
  0
VERTEX
  8
0
 10
79.300545
 20
219.981888
 30
0.0
  0
VERTEX
  8
0
 10
79.110703
 20
219.995789
 30
0.0
  0
SEQEND
  8
0
  0
POLYLINE
  8
0
 62
     7
 66
     1
 10
0.0
 20
0.0
 30
0.0
 70
     1
 71
    11
  0
VERTEX
  8
0
 10
78.697105
 20
219.70372
 30
0.0
  0
VERTEX
  8
0
 10
79.074539
 20
219.70372
 30
0.0
  0
VERTEX
  8
0
 10
79.235001
 20
219.686325
 30
0.0
  0
VERTEX
  8
0
 10
79.352531
 20
219.623749
 30
0.0
  0
VERTEX
  8
0
 10
79.422592
 20
219.502045
 30
0.0
  0
VERTEX
  8
0
 10
79.447449
 20
219.296906
 30
0.0
  0
VERTEX
  8
0
 10
79.422592
 20
219.084808
 30
0.0
  0
VERTEX
  8
0
 10
79.35479
 20
218.949203
 30
0.0
  0
VERTEX
  8
0
 10
79.237267
 20
218.876175
 30
0.0
  0
VERTEX
  8
0
 10
79.074539
 20
218.855316
 30
0.0
  0
VERTEX
  8
0
 10
78.697105
 20
218.855316
 30
0.0
  0
SEQEND
  8
0
  0
POLYLINE
  8
0
 62
     7
 66
     1
 10
0.0
 20
0.0
 30
0.0
 70
     1
 71
    12
  0
VERTEX
  8
0
 10
80.480835
 20
217.495789
 30
0.0
  0
VERTEX
  8
0
 10
81.658333
 20
217.495789
 30
0.0
  0
VERTEX
  8
0
 10
81.658333
 20
217.808716
 30
0.0
  0
VERTEX
  8
0
 10
80.700058
 20
217.808716
 30
0.0
  0
VERTEX
  8
0
 10
80.700058
 20
218.646698
 30
0.0
  0
VERTEX
  8
0
 10
81.567932
 20
218.646698
 30
0.0
  0
VERTEX
  8
0
 10
81.567932
 20
218.938766
 30
0.0
  0
VERTEX
  8
0
 10
80.700058
 20
218.938766
 30
0.0
  0
VERTEX
  8
0
 10
80.700058
 20
219.686325
 30
0.0
  0
VERTEX
  8
0
 10
81.640251
 20
219.686325
 30
0.0
  0
VERTEX
  8
0
 10
81.640251
 20
219.995789
 30
0.0
  0
VERTEX
  8
0
 10
80.480835
 20
219.995789
 30
0.0
  0
SEQEND
  8
0
  0
POLYLINE
  8
0
 62
     7
 66
     1
 10
0.0
 20
0.0
 30
0.0
 70
     1
 71
     8
  0
VERTEX
  8
0
 10
82.244217
 20
217.495789
 30
0.0
  0
VERTEX
  8
0
 10
82.472488
 20
217.495789
 30
0.0
  0
VERTEX
  8
0
 10
82.646515
 20
218.243347
 30
0.0
  0
VERTEX
  8
0
 10
83.286118
 20
218.243347
 30
0.0
  0
VERTEX
  8
0
 10
83.457886
 20
217.495789
 30
0.0
  0
VERTEX
  8
0
 10
83.697449
 20
217.495789
 30
0.0
  0
VERTEX
  8
0
 10
83.091751
 20
219.995789
 30
0.0
  0
VERTEX
  8
0
 10
82.847656
 20
219.995789
 30
0.0
  0
SEQEND
  8
0
  0
POLYLINE
  8
0
 62
     7
 66
     1
 10
0.0
 20
0.0
 30
0.0
 70
     1
 71
     3
  0
VERTEX
  8
0
 10
82.714317
 20
218.535431
 30
0.0
  0
VERTEX
  8
0
 10
82.969704
 20
219.63765
 30
0.0
  0
VERTEX
  8
0
 10
83.220573
 20
218.535431
 30
0.0
  0
SEQEND
  8
0
  0
POLYLINE
  8
0
 62
     7
 66
     1
 10
0.0
 20
0.0
 30
0.0
 70
     1
 71
    32
  0
VERTEX
  8
0
 10
55.988308
 20
215.244049
 30
0.0
  0
VERTEX
  8
0
 10
55.999611
 20
214.945023
 30
0.0
  0
VERTEX
  8
0
 10
56.040291
 20
214.68425
 30
0.0
  0
VERTEX
  8
0
 10
56.105835
 20
214.458237
 30
0.0
  0
VERTEX
  8
0
 10
56.193977
 20
214.270477
 30
0.0
  0
VERTEX
  8
0
 10
56.304722
 20
214.120956
 30
0.0
  0
VERTEX
  8
0
 10
56.435806
 20
214.013168
 30
0.0
  0
VERTEX
  8
0
 10
56.587231
 20
213.950592
 30
0.0
  0
VERTEX
  8
0
 10
56.758999
 20
213.926254
 30
0.0
  0
VERTEX
  8
0
 10
56.928505
 20
213.950592
 30
0.0
  0
VERTEX
  8
0
 10
57.079929
 20
214.013168
 30
0.0
  0
VERTEX
  8
0
 10
57.211014
 20
214.120956
 30
0.0
  0
VERTEX
  8
0
 10
57.321758
 20
214.270477
 30
0.0
  0
VERTEX
  8
0
 10
57.409901
 20
214.458237
 30
0.0
  0
VERTEX
  8
0
 10
57.473183
 20
214.68425
 30
0.0
  0
VERTEX
  8
0
 10
57.511604
 20
214.945023
 30
0.0
  0
VERTEX
  8
0
 10
57.527428
 20
215.244049
 30
0.0
  0
VERTEX
  8
0
 10
57.513866
 20
215.539597
 30
0.0
  0
VERTEX
  8
0
 10
57.473183
 20
215.800385
 30
0.0
  0
VERTEX
  8
0
 10
57.407642
 20
216.026382
 30
0.0
  0
VERTEX
  8
0
 10
57.321758
 20
216.214142
 30
0.0
  0
VERTEX
  8
0
 10
57.211014
 20
216.363663
 30
0.0
  0
VERTEX
  8
0
 10
57.079929
 20
216.471451
 30
0.0
  0
VERTEX
  8
0
 10
56.928505
 20
216.537506
 30
0.0
  0
VERTEX
  8
0
 10
56.758999
 20
216.561859
 30
0.0
  0
VERTEX
  8
0
 10
56.587231
 20
216.537506
 30
0.0
  0
VERTEX
  8
0
 10
56.435806
 20
216.471451
 30
0.0
  0
VERTEX
  8
0
 10
56.304722
 20
216.363663
 30
0.0
  0
VERTEX
  8
0
 10
56.193977
 20
216.214142
 30
0.0
  0
VERTEX
  8
0
 10
56.105835
 20
216.026382
 30
0.0
  0
VERTEX
  8
0
 10
56.040291
 20
215.800385
 30
0.0
  0
VERTEX
  8
0
 10
55.999611
 20
215.539597
 30
0.0
  0
SEQEND
  8
0
  0
POLYLINE
  8
0
 62
     7
 66
     1
 10
0.0
 20
0.0
 30
0.0
 70
     1
 71
    16
  0
VERTEX
  8
0
 10
56.216579
 20
215.244049
 30
0.0
  0
VERTEX
  8
0
 10
56.252739
 20
215.675201
 30
0.0
  0
VERTEX
  8
0
 10
56.361225
 20
215.998566
 30
0.0
  0
VERTEX
  8
0
 10
56.53299
 20
216.196762
 30
0.0
  0
VERTEX
  8
0
 10
56.758999
 20
216.266296
 30
0.0
  0
VERTEX
  8
0
 10
56.982746
 20
216.196762
 30
0.0
  0
VERTEX
  8
0
 10
57.154514
 20
215.998566
 30
0.0
  0
VERTEX
  8
0
 10
57.260738
 20
215.675201
 30
0.0
  0
VERTEX
  8
0
 10
57.29916
 20
215.244049
 30
0.0
  0
VERTEX
  8
0
 10
57.260738
 20
214.809418
 30
0.0
  0
VERTEX
  8
0
 10
57.154514
 20
214.486053
 30
0.0
  0
VERTEX
  8
0
 10
56.982746
 20
214.287857
 30
0.0
  0
VERTEX
  8
0
 10
56.758999
 20
214.221802
 30
0.0
  0
VERTEX
  8
0
 10
56.53299
 20
214.287857
 30
0.0
  0
VERTEX
  8
0
 10
56.361225
 20
214.486053
 30
0.0
  0
VERTEX
  8
0
 10
56.252739
 20
214.809418
 30
0.0
  0
SEQEND
  8
0
  0
POLYLINE
  8
0
 62
     7
 66
     1
 10
0.0
 20
0.0
 30
0.0
 70
     1
 71
    12
  0
VERTEX
  8
0
 10
58.303158
 20
213.995789
 30
0.0
  0
VERTEX
  8
0
 10
58.513344
 20
213.995789
 30
0.0
  0
VERTEX
  8
0
 10
58.513344
 20
216.022903
 30
0.0
  0
VERTEX
  8
0
 10
58.574368
 20
215.838623
 30
0.0
  0
VERTEX
  8
0
 10
59.349575
 20
213.995789
 30
0.0
  0
VERTEX
  8
0
 10
59.589146
 20
213.995789
 30
0.0
  0
VERTEX
  8
0
 10
59.589146
 20
216.495789
 30
0.0
  0
VERTEX
  8
0
 10
59.378956
 20
216.495789
 30
0.0
  0
VERTEX
  8
0
 10
59.378956
 20
214.468674
 30
0.0
  0
VERTEX
  8
0
 10
59.304375
 20
214.680771
 30
0.0
  0
VERTEX
  8
0
 10
58.544987
 20
216.495789
 30
0.0
  0
VERTEX
  8
0
 10
58.303158
 20
216.495789
 30
0.0
  0
SEQEND
  8
0
  0
POLYLINE
  8
0
 62
     7
 66
     1
 10
0.0
 20
0.0
 30
0.0
 70
     1
 71
     6
  0
VERTEX
  8
0
 10
60.434937
 20
213.995789
 30
0.0
  0
VERTEX
  8
0
 10
61.467796
 20
213.995789
 30
0.0
  0
VERTEX
  8
0
 10
61.467796
 20
214.312195
 30
0.0
  0
VERTEX
  8
0
 10
60.658684
 20
214.312195
 30
0.0
  0
VERTEX
  8
0
 10
60.658684
 20
216.495789
 30
0.0
  0
VERTEX
  8
0
 10
60.434937
 20
216.495789
 30
0.0
  0
SEQEND
  8
0
  0
POLYLINE
  8
0
 62
     7
 66
     1
 10
0.0
 20
0.0
 30
0.0
 70
     1
 71
     9
  0
VERTEX
  8
0
 10
62.774643
 20
213.995789
 30
0.0
  0
VERTEX
  8
0
 10
62.774643
 20
215.021515
 30
0.0
  0
VERTEX
  8
0
 10
63.353226
 20
216.495789
 30
0.0
  0
VERTEX
  8
0
 10
63.093315
 20
216.495789
 30
0.0
  0
VERTEX
  8
0
 10
62.66164
 20
215.313599
 30
0.0
  0
VERTEX
  8
0
 10
62.227703
 20
216.495789
 30
0.0
  0
VERTEX
  8
0
 10
61.949715
 20
216.495789
 30
0.0
  0
VERTEX
  8
0
 10
62.553158
 20
214.997177
 30
0.0
  0
VERTEX
  8
0
 10
62.553158
 20
213.995789
 30
0.0
  0
SEQEND
  8
0
  0
POLYLINE
  8
0
 62
     7
 66
     1
 10
0.0
 20
0.0
 30
0.0
 70
     1
 71
    10
  0
VERTEX
  8
0
 10
65.126175
 20
213.995789
 30
0.0
  0
VERTEX
  8
0
 10
65.347664
 20
213.995789
 30
0.0
  0
VERTEX
  8
0
 10
65.347664
 20
215.125824
 30
0.0
  0
VERTEX
  8
0
 10
66.107048
 20
215.125824
 30
0.0
  0
VERTEX
  8
0
 10
66.107048
 20
215.431808
 30
0.0
  0
VERTEX
  8
0
 10
65.347664
 20
215.431808
 30
0.0
  0
VERTEX
  8
0
 10
65.347664
 20
216.182861
 30
0.0
  0
VERTEX
  8
0
 10
66.217796
 20
216.182861
 30
0.0
  0
VERTEX
  8
0
 10
66.217796
 20
216.495789
 30
0.0
  0
VERTEX
  8
0
 10
65.126175
 20
216.495789
 30
0.0
  0
SEQEND
  8
0
  0
POLYLINE
  8
0
 62
     7
 66
     1
 10
0.0
 20
0.0
 30
0.0
 70
     1
 71
    32
  0
VERTEX
  8
0
 10
66.873741
 20
215.244049
 30
0.0
  0
VERTEX
  8
0
 10
66.88504
 20
214.945023
 30
0.0
  0
VERTEX
  8
0
 10
66.92572
 20
214.68425
 30
0.0
  0
VERTEX
  8
0
 10
66.991264
 20
214.458237
 30
0.0
  0
VERTEX
  8
0
 10
67.079407
 20
214.270477
 30
0.0
  0
VERTEX
  8
0
 10
67.190155
 20
214.120956
 30
0.0
  0
VERTEX
  8
0
 10
67.321236
 20
214.013168
 30
0.0
  0
VERTEX
  8
0
 10
67.472664
 20
213.950592
 30
0.0
  0
VERTEX
  8
0
 10
67.644432
 20
213.926254
 30
0.0
  0
VERTEX
  8
0
 10
67.813934
 20
213.950592
 30
0.0
  0
VERTEX
  8
0
 10
67.965363
 20
214.013168
 30
0.0
  0
VERTEX
  8
0
 10
68.096443
 20
214.120956
 30
0.0
  0
VERTEX
  8
0
 10
68.207191
 20
214.270477
 30
0.0
  0
VERTEX
  8
0
 10
68.295334
 20
214.458237
 30
0.0
  0
VERTEX
  8
0
 10
68.358612
 20
214.68425
 30
0.0
  0
VERTEX
  8
0
 10
68.397034
 20
214.945023
 30
0.0
  0
VERTEX
  8
0
 10
68.412857
 20
215.244049
 30
0.0
  0
VERTEX
  8
0
 10
68.3993
 20
215.539597
 30
0.0
  0
VERTEX
  8
0
 10
68.358612
 20
215.800385
 30
0.0
  0
VERTEX
  8
0
 10
68.293076
 20
216.026382
 30
0.0
  0
VERTEX
  8
0
 10
68.207191
 20
216.214142
 30
0.0
  0
VERTEX
  8
0
 10
68.096443
 20
216.363663
 30
0.0
  0
VERTEX
  8
0
 10
67.965363
 20
216.471451
 30
0.0
  0
VERTEX
  8
0
 10
67.813934
 20
216.537506
 30
0.0
  0
VERTEX
  8
0
 10
67.644432
 20
216.561859
 30
0.0
  0
VERTEX
  8
0
 10
67.472664
 20
216.537506
 30
0.0
  0
VERTEX
  8
0
 10
67.321236
 20
216.471451
 30
0.0
  0
VERTEX
  8
0
 10
67.190155
 20
216.363663
 30
0.0
  0
VERTEX
  8
0
 10
67.079407
 20
216.214142
 30
0.0
  0
VERTEX
  8
0
 10
66.991264
 20
216.026382
 30
0.0
  0
VERTEX
  8
0
 10
66.92572
 20
215.800385
 30
0.0
  0
VERTEX
  8
0
 10
66.88504
 20
215.539597
 30
0.0
  0
SEQEND
  8
0
  0
POLYLINE
  8
0
 62
     7
 66
     1
 10
0.0
 20
0.0
 30
0.0
 70
     1
 71
    16
  0
VERTEX
  8
0
 10
67.102013
 20
215.244049
 30
0.0
  0
VERTEX
  8
0
 10
67.138168
 20
215.675201
 30
0.0
  0
VERTEX
  8
0
 10
67.246658
 20
215.998566
 30
0.0
  0
VERTEX
  8
0
 10
67.418419
 20
216.196762
 30
0.0
  0
VERTEX
  8
0
 10
67.644432
 20
216.266296
 30
0.0
  0
VERTEX
  8
0
 10
67.868179
 20
216.196762
 30
0.0
  0
VERTEX
  8
0
 10
68.039948
 20
215.998566
 30
0.0
  0
VERTEX
  8
0
 10
68.146164
 20
215.675201
 30
0.0
  0
VERTEX
  8
0
 10
68.184586
 20
215.244049
 30
0.0
  0
VERTEX
  8
0
 10
68.146164
 20
214.809418
 30
0.0
  0
VERTEX
  8
0
 10
68.039948
 20
214.486053
 30
0.0
  0
VERTEX
  8
0
 10
67.868179
 20
214.287857
 30
0.0
  0
VERTEX
  8
0
 10
67.644432
 20
214.221802
 30
0.0
  0
VERTEX
  8
0
 10
67.418419
 20
214.287857
 30
0.0
  0
VERTEX
  8
0
 10
67.246658
 20
214.486053
 30
0.0
  0
VERTEX
  8
0
 10
67.138168
 20
214.809418
 30
0.0
  0
SEQEND
  8
0
  0
POLYLINE
  8
0
 62
     7
 66
     1
 10
0.0
 20
0.0
 30
0.0
 70
     1
 71
    30
  0
VERTEX
  8
0
 10
69.190849
 20
216.495789
 30
0.0
  0
VERTEX
  8
0
 10
69.190849
 20
213.995789
 30
0.0
  0
VERTEX
  8
0
 10
69.41008
 20
213.995789
 30
0.0
  0
VERTEX
  8
0
 10
69.41008
 20
215.066727
 30
0.0
  0
VERTEX
  8
0
 10
69.767166
 20
215.066727
 30
0.0
  0
VERTEX
  8
0
 10
69.938934
 20
215.05629
 30
0.0
  0
VERTEX
  8
0
 10
70.045158
 20
215.004135
 30
0.0
  0
VERTEX
  8
0
 10
70.10392
 20
214.88591
 30
0.0
  0
VERTEX
  8
0
 10
70.128784
 20
214.666855
 30
0.0
  0
VERTEX
  8
0
 10
70.142342
 20
214.340012
 30
0.0
  0
VERTEX
  8
0
 10
70.153641
 20
214.14183
 30
0.0
  0
VERTEX
  8
0
 10
70.185287
 20
213.995789
 30
0.0
  0
VERTEX
  8
0
 10
70.440674
 20
213.995789
 30
0.0
  0
VERTEX
  8
0
 10
70.440674
 20
214.065323
 30
0.0
  0
VERTEX
  8
0
 10
70.386429
 20
214.166168
 30
0.0
  0
VERTEX
  8
0
 10
70.366089
 20
214.357407
 30
0.0
  0
VERTEX
  8
0
 10
70.348007
 20
214.7677
 30
0.0
  0
VERTEX
  8
0
 10
70.332191
 20
214.941544
 30
0.0
  0
VERTEX
  8
0
 10
70.302811
 20
215.077148
 30
0.0
  0
VERTEX
  8
0
 10
70.248566
 20
215.171036
 30
0.0
  0
VERTEX
  8
0
 10
70.162682
 20
215.233612
 30
0.0
  0
VERTEX
  8
0
 10
70.257607
 20
215.327499
 30
0.0
  0
VERTEX
  8
0
 10
70.327667
 20
215.456146
 30
0.0
  0
VERTEX
  8
0
 10
70.370613
 20
215.61261
 30
0.0
  0
VERTEX
  8
0
 10
70.386429
 20
215.803848
 30
0.0
  0
VERTEX
  8
0
 10
70.370613
 20
215.998566
 30
0.0
  0
VERTEX
  8
0
 10
70.332191
 20
216.168945
 30
0.0
  0
VERTEX
  8
0
 10
70.176247
 20
216.408859
 30
0.0
  0
VERTEX
  8
0
 10
70.011261
 20
216.481888
 30
0.0
  0
VERTEX
  8
0
 10
69.821411
 20
216.495789
 30
0.0
  0
SEQEND
  8
0
  0
POLYLINE
  8
0
 62
     7
 66
     1
 10
0.0
 20
0.0
 30
0.0
 70
     1
 71
    11
  0
VERTEX
  8
0
 10
69.407814
 20
216.20372
 30
0.0
  0
VERTEX
  8
0
 10
69.785248
 20
216.20372
 30
0.0
  0
VERTEX
  8
0
 10
69.945717
 20
216.186325
 30
0.0
  0
VERTEX
  8
0
 10
70.06324
 20
216.123749
 30
0.0
  0
VERTEX
  8
0
 10
70.133301
 20
216.002045
 30
0.0
  0
VERTEX
  8
0
 10
70.158165
 20
215.796906
 30
0.0
  0
VERTEX
  8
0
 10
70.133301
 20
215.584808
 30
0.0
  0
VERTEX
  8
0
 10
70.065498
 20
215.449203
 30
0.0
  0
VERTEX
  8
0
 10
69.947975
 20
215.376175
 30
0.0
  0
VERTEX
  8
0
 10
69.785248
 20
215.355316
 30
0.0
  0
VERTEX
  8
0
 10
69.407814
 20
215.355316
 30
0.0
  0
SEQEND
  8
0
  0
POLYLINE
  8
0
 62
     7
 66
     1
 10
0.0
 20
0.0
 30
0.0
 70
     1
 71
     4
  0
VERTEX
  8
0
 10
72.315323
 20
213.995789
 30
0.0
  0
VERTEX
  8
0
 10
72.536812
 20
213.995789
 30
0.0
  0
VERTEX
  8
0
 10
72.536812
 20
216.495789
 30
0.0
  0
VERTEX
  8
0
 10
72.315323
 20
216.495789
 30
0.0
  0
SEQEND
  8
0
  0
POLYLINE
  8
0
 62
     7
 66
     1
 10
0.0
 20
0.0
 30
0.0
 70
     1
 71
    12
  0
VERTEX
  8
0
 10
73.389389
 20
213.995789
 30
0.0
  0
VERTEX
  8
0
 10
73.599579
 20
213.995789
 30
0.0
  0
VERTEX
  8
0
 10
73.599579
 20
216.022903
 30
0.0
  0
VERTEX
  8
0
 10
73.660599
 20
215.838623
 30
0.0
  0
VERTEX
  8
0
 10
74.435806
 20
213.995789
 30
0.0
  0
VERTEX
  8
0
 10
74.675377
 20
213.995789
 30
0.0
  0
VERTEX
  8
0
 10
74.675377
 20
216.495789
 30
0.0
  0
VERTEX
  8
0
 10
74.465187
 20
216.495789
 30
0.0
  0
VERTEX
  8
0
 10
74.465187
 20
214.468674
 30
0.0
  0
VERTEX
  8
0
 10
74.390602
 20
214.680771
 30
0.0
  0
VERTEX
  8
0
 10
73.631218
 20
216.495789
 30
0.0
  0
VERTEX
  8
0
 10
73.389389
 20
216.495789
 30
0.0
  0
SEQEND
  8
0
  0
POLYLINE
  8
0
 62
     7
 66
     1
 10
0.0
 20
0.0
 30
0.0
 70
     1
 71
    10
  0
VERTEX
  8
0
 10
75.521164
 20
213.995789
 30
0.0
  0
VERTEX
  8
0
 10
75.742661
 20
213.995789
 30
0.0
  0
VERTEX
  8
0
 10
75.742661
 20
215.125824
 30
0.0
  0
VERTEX
  8
0
 10
76.502045
 20
215.125824
 30
0.0
  0
VERTEX
  8
0
 10
76.502045
 20
215.431808
 30
0.0
  0
VERTEX
  8
0
 10
75.742661
 20
215.431808
 30
0.0
  0
VERTEX
  8
0
 10
75.742661
 20
216.182861
 30
0.0
  0
VERTEX
  8
0
 10
76.612785
 20
216.182861
 30
0.0
  0
VERTEX
  8
0
 10
76.612785
 20
216.495789
 30
0.0
  0
VERTEX
  8
0
 10
75.521164
 20
216.495789
 30
0.0
  0
SEQEND
  8
0
  0
POLYLINE
  8
0
 62
     7
 66
     1
 10
0.0
 20
0.0
 30
0.0
 70
     1
 71
    32
  0
VERTEX
  8
0
 10
77.268738
 20
215.244049
 30
0.0
  0
VERTEX
  8
0
 10
77.280037
 20
214.945023
 30
0.0
  0
VERTEX
  8
0
 10
77.320717
 20
214.68425
 30
0.0
  0
VERTEX
  8
0
 10
77.386261
 20
214.458237
 30
0.0
  0
VERTEX
  8
0
 10
77.474403
 20
214.270477
 30
0.0
  0
VERTEX
  8
0
 10
77.585144
 20
214.120956
 30
0.0
  0
VERTEX
  8
0
 10
77.716232
 20
214.013168
 30
0.0
  0
VERTEX
  8
0
 10
77.867661
 20
213.950592
 30
0.0
  0
VERTEX
  8
0
 10
78.039421
 20
213.926254
 30
0.0
  0
VERTEX
  8
0
 10
78.208931
 20
213.950592
 30
0.0
  0
VERTEX
  8
0
 10
78.360352
 20
214.013168
 30
0.0
  0
VERTEX
  8
0
 10
78.49144
 20
214.120956
 30
0.0
  0
VERTEX
  8
0
 10
78.60218
 20
214.270477
 30
0.0
  0
VERTEX
  8
0
 10
78.690323
 20
214.458237
 30
0.0
  0
VERTEX
  8
0
 10
78.753609
 20
214.68425
 30
0.0
  0
VERTEX
  8
0
 10
78.79203
 20
214.945023
 30
0.0
  0
VERTEX
  8
0
 10
78.807846
 20
215.244049
 30
0.0
  0
VERTEX
  8
0
 10
78.794289
 20
215.539597
 30
0.0
  0
VERTEX
  8
0
 10
78.753609
 20
215.800385
 30
0.0
  0
VERTEX
  8
0
 10
78.688065
 20
216.026382
 30
0.0
  0
VERTEX
  8
0
 10
78.60218
 20
216.214142
 30
0.0
  0
VERTEX
  8
0
 10
78.49144
 20
216.363663
 30
0.0
  0
VERTEX
  8
0
 10
78.360352
 20
216.471451
 30
0.0
  0
VERTEX
  8
0
 10
78.208931
 20
216.537506
 30
0.0
  0
VERTEX
  8
0
 10
78.039421
 20
216.561859
 30
0.0
  0
VERTEX
  8
0
 10
77.867661
 20
216.537506
 30
0.0
  0
VERTEX
  8
0
 10
77.716232
 20
216.471451
 30
0.0
  0
VERTEX
  8
0
 10
77.585144
 20
216.363663
 30
0.0
  0
VERTEX
  8
0
 10
77.474403
 20
216.214142
 30
0.0
  0
VERTEX
  8
0
 10
77.386261
 20
216.026382
 30
0.0
  0
VERTEX
  8
0
 10
77.320717
 20
215.800385
 30
0.0
  0
VERTEX
  8
0
 10
77.280037
 20
215.539597
 30
0.0
  0
SEQEND
  8
0
  0
POLYLINE
  8
0
 62
     7
 66
     1
 10
0.0
 20
0.0
 30
0.0
 70
     1
 71
    16
  0
VERTEX
  8
0
 10
77.497002
 20
215.244049
 30
0.0
  0
VERTEX
  8
0
 10
77.533165
 20
215.675201
 30
0.0
  0
VERTEX
  8
0
 10
77.641647
 20
215.998566
 30
0.0
  0
VERTEX
  8
0
 10
77.813416
 20
216.196762
 30
0.0
  0
VERTEX
  8
0
 10
78.039421
 20
216.266296
 30
0.0
  0
VERTEX
  8
0
 10
78.263168
 20
216.196762
 30
0.0
  0
VERTEX
  8
0
 10
78.434937
 20
215.998566
 30
0.0
  0
VERTEX
  8
0
 10
78.541161
 20
215.675201
 30
0.0
  0
VERTEX
  8
0
 10
78.579582
 20
215.244049
 30
0.0
  0
VERTEX
  8
0
 10
78.541161
 20
214.809418
 30
0.0
  0
VERTEX
  8
0
 10
78.434937
 20
214.486053
 30
0.0
  0
VERTEX
  8
0
 10
78.263168
 20
214.287857
 30
0.0
  0
VERTEX
  8
0
 10
78.039421
 20
214.221802
 30
0.0
  0
VERTEX
  8
0
 10
77.813416
 20
214.287857
 30
0.0
  0
VERTEX
  8
0
 10
77.641647
 20
214.486053
 30
0.0
  0
VERTEX
  8
0
 10
77.533165
 20
214.809418
 30
0.0
  0
SEQEND
  8
0
  0
POLYLINE
  8
0
 62
     7
 66
     1
 10
0.0
 20
0.0
 30
0.0
 70
     1
 71
    30
  0
VERTEX
  8
0
 10
79.585846
 20
216.495789
 30
0.0
  0
VERTEX
  8
0
 10
79.585846
 20
213.995789
 30
0.0
  0
VERTEX
  8
0
 10
79.805069
 20
213.995789
 30
0.0
  0
VERTEX
  8
0
 10
79.805069
 20
215.066727
 30
0.0
  0
VERTEX
  8
0
 10
80.162163
 20
215.066727
 30
0.0
  0
VERTEX
  8
0
 10
80.333931
 20
215.05629
 30
0.0
  0
VERTEX
  8
0
 10
80.440155
 20
215.004135
 30
0.0
  0
VERTEX
  8
0
 10
80.498917
 20
214.88591
 30
0.0
  0
VERTEX
  8
0
 10
80.523773
 20
214.666855
 30
0.0
  0
VERTEX
  8
0
 10
80.537338
 20
214.340012
 30
0.0
  0
VERTEX
  8
0
 10
80.548637
 20
214.14183
 30
0.0
  0
VERTEX
  8
0
 10
80.580276
 20
213.995789
 30
0.0
  0
VERTEX
  8
0
 10
80.83567
 20
213.995789
 30
0.0
  0
VERTEX
  8
0
 10
80.83567
 20
214.065323
 30
0.0
  0
VERTEX
  8
0
 10
80.781425
 20
214.166168
 30
0.0
  0
VERTEX
  8
0
 10
80.761086
 20
214.357407
 30
0.0
  0
VERTEX
  8
0
 10
80.743004
 20
214.7677
 30
0.0
  0
VERTEX
  8
0
 10
80.727188
 20
214.941544
 30
0.0
  0
VERTEX
  8
0
 10
80.6978
 20
215.077148
 30
0.0
  0
VERTEX
  8
0
 10
80.643562
 20
215.171036
 30
0.0
  0
VERTEX
  8
0
 10
80.557678
 20
215.233612
 30
0.0
  0
VERTEX
  8
0
 10
80.652603
 20
215.327499
 30
0.0
  0
VERTEX
  8
0
 10
80.722664
 20
215.456146
 30
0.0
  0
VERTEX
  8
0
 10
80.76561
 20
215.61261
 30
0.0
  0
VERTEX
  8
0
 10
80.781425
 20
215.803848
 30
0.0
  0
VERTEX
  8
0
 10
80.76561
 20
215.998566
 30
0.0
  0
VERTEX
  8
0
 10
80.727188
 20
216.168945
 30
0.0
  0
VERTEX
  8
0
 10
80.571236
 20
216.408859
 30
0.0
  0
VERTEX
  8
0
 10
80.40625
 20
216.481888
 30
0.0
  0
VERTEX
  8
0
 10
80.216408
 20
216.495789
 30
0.0
  0
SEQEND
  8
0
  0
POLYLINE
  8
0
 62
     7
 66
     1
 10
0.0
 20
0.0
 30
0.0
 70
     1
 71
    11
  0
VERTEX
  8
0
 10
79.802811
 20
216.20372
 30
0.0
  0
VERTEX
  8
0
 10
80.180244
 20
216.20372
 30
0.0
  0
VERTEX
  8
0
 10
80.340714
 20
216.186325
 30
0.0
  0
VERTEX
  8
0
 10
80.458237
 20
216.123749
 30
0.0
  0
VERTEX
  8
0
 10
80.528297
 20
216.002045
 30
0.0
  0
VERTEX
  8
0
 10
80.553162
 20
215.796906
 30
0.0
  0
VERTEX
  8
0
 10
80.528297
 20
215.584808
 30
0.0
  0
VERTEX
  8
0
 10
80.460495
 20
215.449203
 30
0.0
  0
VERTEX
  8
0
 10
80.342972
 20
215.376175
 30
0.0
  0
VERTEX
  8
0
 10
80.180244
 20
215.355316
 30
0.0
  0
VERTEX
  8
0
 10
79.802811
 20
215.355316
 30
0.0
  0
SEQEND
  8
0
  0
POLYLINE
  8
0
 62
     7
 66
     1
 10
0.0
 20
0.0
 30
0.0
 70
     1
 71
    17
  0
VERTEX
  8
0
 10
81.789948
 20
216.127228
 30
0.0
  0
VERTEX
  8
0
 10
81.826103
 20
215.908173
 30
0.0
  0
VERTEX
  8
0
 10
82.235184
 20
213.995789
 30
0.0
  0
VERTEX
  8
0
 10
82.443108
 20
213.995789
 30
0.0
  0
VERTEX
  8
0
 10
82.861221
 20
215.908173
 30
0.0
  0
VERTEX
  8
0
 10
82.899643
 20
216.127228
 30
0.0
  0
VERTEX
  8
0
 10
82.899643
 20
213.995789
 30
0.0
  0
VERTEX
  8
0
 10
83.114349
 20
213.995789
 30
0.0
  0
VERTEX
  8
0
 10
83.114349
 20
216.495789
 30
0.0
  0
VERTEX
  8
0
 10
82.797943
 20
216.495789
 30
0.0
  0
VERTEX
  8
0
 10
82.379822
 20
214.583405
 30
0.0
  0
VERTEX
  8
0
 10
82.343666
 20
214.378265
 30
0.0
  0
VERTEX
  8
0
 10
82.305244
 20
214.583405
 30
0.0
  0
VERTEX
  8
0
 10
81.902946
 20
216.495789
 30
0.0
  0
VERTEX
  8
0
 10
81.586533
 20
216.495789
 30
0.0
  0
VERTEX
  8
0
 10
81.586533
 20
213.995789
 30
0.0
  0
VERTEX
  8
0
 10
81.789948
 20
213.995789
 30
0.0
  0
SEQEND
  8
0
  0
POLYLINE
  8
0
 62
     7
 66
     1
 10
0.0
 20
0.0
 30
0.0
 70
     1
 71
     8
  0
VERTEX
  8
0
 10
83.781601
 20
213.995789
 30
0.0
  0
VERTEX
  8
0
 10
84.009872
 20
213.995789
 30
0.0
  0
VERTEX
  8
0
 10
84.183899
 20
214.743347
 30
0.0
  0
VERTEX
  8
0
 10
84.823502
 20
214.743347
 30
0.0
  0
VERTEX
  8
0
 10
84.995262
 20
213.995789
 30
0.0
  0
VERTEX
  8
0
 10
85.234833
 20
213.995789
 30
0.0
  0
VERTEX
  8
0
 10
84.629135
 20
216.495789
 30
0.0
  0
VERTEX
  8
0
 10
84.38504
 20
216.495789
 30
0.0
  0
SEQEND
  8
0
  0
POLYLINE
  8
0
 62
     7
 66
     1
 10
0.0
 20
0.0
 30
0.0
 70
     1
 71
     3
  0
VERTEX
  8
0
 10
84.251694
 20
215.035431
 30
0.0
  0
VERTEX
  8
0
 10
84.507088
 20
216.13765
 30
0.0
  0
VERTEX
  8
0
 10
84.757957
 20
215.035431
 30
0.0
  0
SEQEND
  8
0
  0
POLYLINE
  8
0
 62
     7
 66
     1
 10
0.0
 20
0.0
 30
0.0
 70
     1
 71
     8
  0
VERTEX
  8
0
 10
86.261429
 20
213.995789
 30
0.0
  0
VERTEX
  8
0
 10
86.482918
 20
213.995789
 30
0.0
  0
VERTEX
  8
0
 10
86.482918
 20
216.193283
 30
0.0
  0
VERTEX
  8
0
 10
86.995956
 20
216.193283
 30
0.0
  0
VERTEX
  8
0
 10
86.995956
 20
216.495789
 30
0.0
  0
VERTEX
  8
0
 10
85.74839
 20
216.495789
 30
0.0
  0
VERTEX
  8
0
 10
85.74839
 20
216.193283
 30
0.0
  0
VERTEX
  8
0
 10
86.261429
 20
216.193283
 30
0.0
  0
SEQEND
  8
0
  0
POLYLINE
  8
0
 62
     7
 66
     1
 10
0.0
 20
0.0
 30
0.0
 70
     1
 71
     4
  0
VERTEX
  8
0
 10
87.697105
 20
213.995789
 30
0.0
  0
VERTEX
  8
0
 10
87.918594
 20
213.995789
 30
0.0
  0
VERTEX
  8
0
 10
87.918594
 20
216.495789
 30
0.0
  0
VERTEX
  8
0
 10
87.697105
 20
216.495789
 30
0.0
  0
SEQEND
  8
0
  0
POLYLINE
  8
0
 62
     7
 66
     1
 10
0.0
 20
0.0
 30
0.0
 70
     1
 71
    32
  0
VERTEX
  8
0
 10
88.703369
 20
215.244049
 30
0.0
  0
VERTEX
  8
0
 10
88.714668
 20
214.945023
 30
0.0
  0
VERTEX
  8
0
 10
88.755348
 20
214.68425
 30
0.0
  0
VERTEX
  8
0
 10
88.820892
 20
214.458237
 30
0.0
  0
VERTEX
  8
0
 10
88.909035
 20
214.270477
 30
0.0
  0
VERTEX
  8
0
 10
89.019775
 20
214.120956
 30
0.0
  0
VERTEX
  8
0
 10
89.150864
 20
214.013168
 30
0.0
  0
VERTEX
  8
0
 10
89.302292
 20
213.950592
 30
0.0
  0
VERTEX
  8
0
 10
89.47406
 20
213.926254
 30
0.0
  0
VERTEX
  8
0
 10
89.643562
 20
213.950592
 30
0.0
  0
VERTEX
  8
0
 10
89.794983
 20
214.013168
 30
0.0
  0
VERTEX
  8
0
 10
89.926071
 20
214.120956
 30
0.0
  0
VERTEX
  8
0
 10
90.036819
 20
214.270477
 30
0.0
  0
VERTEX
  8
0
 10
90.124954
 20
214.458237
 30
0.0
  0
VERTEX
  8
0
 10
90.18824
 20
214.68425
 30
0.0
  0
VERTEX
  8
0
 10
90.226662
 20
214.945023
 30
0.0
  0
VERTEX
  8
0
 10
90.242485
 20
215.244049
 30
0.0
  0
VERTEX
  8
0
 10
90.228928
 20
215.539597
 30
0.0
  0
VERTEX
  8
0
 10
90.18824
 20
215.800385
 30
0.0
  0
VERTEX
  8
0
 10
90.122696
 20
216.026382
 30
0.0
  0
VERTEX
  8
0
 10
90.036819
 20
216.214142
 30
0.0
  0
VERTEX
  8
0
 10
89.926071
 20
216.363663
 30
0.0
  0
VERTEX
  8
0
 10
89.794983
 20
216.471451
 30
0.0
  0
VERTEX
  8
0
 10
89.643562
 20
216.537506
 30
0.0
  0
VERTEX
  8
0
 10
89.47406
 20
216.561859
 30
0.0
  0
VERTEX
  8
0
 10
89.302292
 20
216.537506
 30
0.0
  0
VERTEX
  8
0
 10
89.150864
 20
216.471451
 30
0.0
  0
VERTEX
  8
0
 10
89.019775
 20
216.363663
 30
0.0
  0
VERTEX
  8
0
 10
88.909035
 20
216.214142
 30
0.0
  0
VERTEX
  8
0
 10
88.820892
 20
216.026382
 30
0.0
  0
VERTEX
  8
0
 10
88.755348
 20
215.800385
 30
0.0
  0
VERTEX
  8
0
 10
88.714668
 20
215.539597
 30
0.0
  0
SEQEND
  8
0
  0
POLYLINE
  8
0
 62
     7
 66
     1
 10
0.0
 20
0.0
 30
0.0
 70
     1
 71
    16
  0
VERTEX
  8
0
 10
88.931641
 20
215.244049
 30
0.0
  0
VERTEX
  8
0
 10
88.967796
 20
215.675201
 30
0.0
  0
VERTEX
  8
0
 10
89.076279
 20
215.998566
 30
0.0
  0
VERTEX
  8
0
 10
89.248047
 20
216.196762
 30
0.0
  0
VERTEX
  8
0
 10
89.47406
 20
216.266296
 30
0.0
  0
VERTEX
  8
0
 10
89.6978
 20
216.196762
 30
0.0
  0
VERTEX
  8
0
 10
89.869568
 20
215.998566
 30
0.0
  0
VERTEX
  8
0
 10
89.9758
 20
215.675201
 30
0.0
  0
VERTEX
  8
0
 10
90.014221
 20
215.244049
 30
0.0
  0
VERTEX
  8
0
 10
89.9758
 20
214.809418
 30
0.0
  0
VERTEX
  8
0
 10
89.869568
 20
214.486053
 30
0.0
  0
VERTEX
  8
0
 10
89.6978
 20
214.287857
 30
0.0
  0
VERTEX
  8
0
 10
89.47406
 20
214.221802
 30
0.0
  0
VERTEX
  8
0
 10
89.248047
 20
214.287857
 30
0.0
  0
VERTEX
  8
0
 10
89.076279
 20
214.486053
 30
0.0
  0
VERTEX
  8
0
 10
88.967796
 20
214.809418
 30
0.0
  0
SEQEND
  8
0
  0
POLYLINE
  8
0
 62
     7
 66
     1
 10
0.0
 20
0.0
 30
0.0
 70
     1
 71
    12
  0
VERTEX
  8
0
 10
91.018219
 20
213.995789
 30
0.0
  0
VERTEX
  8
0
 10
91.228401
 20
213.995789
 30
0.0
  0
VERTEX
  8
0
 10
91.228401
 20
216.022903
 30
0.0
  0
VERTEX
  8
0
 10
91.289429
 20
215.838623
 30
0.0
  0
VERTEX
  8
0
 10
92.064636
 20
213.995789
 30
0.0
  0
VERTEX
  8
0
 10
92.304199
 20
213.995789
 30
0.0
  0
VERTEX
  8
0
 10
92.304199
 20
216.495789
 30
0.0
  0
VERTEX
  8
0
 10
92.094009
 20
216.495789
 30
0.0
  0
VERTEX
  8
0
 10
92.094009
 20
214.468674
 30
0.0
  0
VERTEX
  8
0
 10
92.019432
 20
214.680771
 30
0.0
  0
VERTEX
  8
0
 10
91.26004
 20
216.495789
 30
0.0
  0
VERTEX
  8
0
 10
91.018219
 20
216.495789
 30
0.0
  0
SEQEND
  8
0
  0
LINE
  8
0
 62
     7
 10
72.798561
 20
103.175194
 30
0.0
 11
77.884346
 21
103.175194
 31
0.0
210
0.0
220
0.0
230
1.0
  0
LINE
  8
0
 62
     7
 10
77.884346
 20
109.95118
 30
0.0
 11
77.884346
 21
103.175194
 31
0.0
210
0.0
220
0.0
230
1.0
  0
LINE
  8
0
 62
     7
 10
76.484344
 20
109.167145
 30
0.0
 11
77.884346
 21
109.95118
 31
0.0
210
0.0
220
0.0
230
1.0
  0
LINE
  8
0
 62
     7
 10
76.484344
 20
109.175194
 30
0.0
 11
76.484344
 21
109.167145
 31
0.0
210
0.0
220
0.0
230
1.0
  0
LINE
  8
0
 62
     7
 10
72.484344
 20
106.935089
 30
0.0
 11
76.484344
 21
109.175194
 31
0.0
210
0.0
220
0.0
230
1.0
  0
LINE
  8
0
 62
     7
 10
72.484344
 20
103.695
 30
0.0
 11
72.484344
 21
106.935089
 31
0.0
210
0.0
220
0.0
230
1.0
  0
ARC
  8
0
 62
     7
 10
71.384346
 20
102.675194
 30
0.0
 40
1.5
 50
19.471222
 51
42.833428
210
0.0
220
0.0
230
1.0
  0
ARC
  8
0
 62
     7
 10
82.884346
 20
104.175194
 30
0.0
 40
1.5
 50
90.000003
 51
180.000005
210
0.0
220
0.0
230
1.0
  0
ARC
  8
0
 62
     7
 10
92.184349
 20
104.175194
 30
0.0
 40
1.5
 50
25.841934
 51
90.000003
210
0.0
220
0.0
230
1.0
  0
ARC
  8
0
 62
     7
 10
92.184349
 20
104.175194
 30
0.0
 40
1.5
 50
20.000001
 51
25.841934
210
0.0
220
0.0
230
1.0
  0
LINE
  8
0
 62
     7
 10
93.593887
 20
104.688225
 30
0.0
 11
94.144585
 21
103.175194
 31
0.0
210
0.0
220
0.0
230
1.0
  0
LINE
  8
0
 62
     7
 10
122.684341
 20
103.575195
 30
0.0
 11
121.991524
 21
103.175194
 31
0.0
210
0.0
220
0.0
230
1.0
  0
LINE
  8
0
 62
     7
 10
122.684341
 20
103.575195
 30
0.0
 11
122.684341
 21
105.375191
 31
0.0
210
0.0
220
0.0
230
1.0
  0
ARC
  8
0
 62
     7
 10
123.884346
 20
105.375191
 30
0.0
 40
1.2
 50
0.0
 51
180.000005
210
0.0
220
0.0
230
1.0
  0
LINE
  8
0
 62
     7
 10
125.084351
 20
105.375191
 30
0.0
 11
125.084351
 21
103.175194
 31
0.0
210
0.0
220
0.0
230
1.0
  0
ARC
  8
0
 62
     7
 10
141.384338
 20
102.675194
 30
0.0
 40
1.5
 50
90.000003
 51
137.166577
210
0.0
220
0.0
230
1.0
  0
ARC
  8
0
 62
     7
 10
141.384338
 20
102.675194
 30
0.0
 40
1.5
 50
137.166577
 51
160.528775
210
0.0
220
0.0
230
1.0
  0
LINE
  8
0
 62
     7
 10
151.748108
 20
173.015839
 30
0.0
 11
143.888153
 21
177.417633
 31
0.0
210
0.0
220
0.0
230
1.0
  0
ARC
  8
0
 62
     7
 10
144.621094
 20
178.726379
 30
0.0
 40
1.5
 50
150.750007
 51
240.750006
210
0.0
220
0.0
230
1.0
  0
LINE
  8
0
 62
     7
 10
146.170776
 20
184.5634
 30
0.0
 11
143.312347
 21
179.459305
 31
0.0
210
0.0
220
0.0
230
1.0
  0
LINE
  8
0
 62
     7
 10
146.170776
 20
184.5634
 30
0.0
 11
144.507172
 21
186.874313
 31
0.0
210
0.0
220
0.0
230
1.0
  0
LINE
  8
0
 62
     7
 10
144.507172
 20
186.874313
 30
0.0
 11
144.468948
 21
186.927399
 31
0.0
210
0.0
220
0.0
230
1.0
  0
LINE
  8
0
 62
     7
 10
145.305405
 20
190.810501
 30
0.0
 11
148.384338
 21
196.30835
 31
0.0
210
0.0
220
0.0
230
1.0
  0
LINE
  8
0
 62
     7
 10
67.463287
 20
190.810501
 30
0.0
 11
64.384346
 21
196.30835
 31
0.0
210
0.0
220
0.0
230
1.0
  0
LINE
  8
0
 62
     7
 10
68.261528
 20
186.874313
 30
0.0
 11
68.299744
 21
186.927399
 31
0.0
210
0.0
220
0.0
230
1.0
  0
LINE
  8
0
 62
     7
 10
66.597916
 20
184.5634
 30
0.0
 11
68.261528
 21
186.874313
 31
0.0
210
0.0
220
0.0
230
1.0
  0
LINE
  8
0
 62
     7
 10
66.597916
 20
184.5634
 30
0.0
 11
69.456345
 21
179.459305
 31
0.0
210
0.0
220
0.0
230
1.0
  0
ARC
  8
0
 62
     7
 10
68.147598
 20
178.726379
 30
0.0
 40
1.5
 50
299.250003
 51
29.249998
210
0.0
220
0.0
230
1.0
  0
LINE
  8
0
 62
     7
 10
61.020584
 20
173.015839
 30
0.0
 11
68.880539
 21
177.417633
 31
0.0
210
0.0
220
0.0
230
1.0
  0
LINE
  8
0
 62
     7
 10
106.384346
 20
103.175194
 30
0.0
 11
119.234344
 21
103.175194
 31
0.0
210
0.0
220
0.0
230
1.0
  0
LINE
  8
0
 62
     7
 10
106.384346
 20
103.175194
 30
0.0
 11
94.144585
 21
103.175194
 31
0.0
210
0.0
220
0.0
230
1.0
  0
LINE
  8
0
 62
     7
 10
139.970123
 20
103.175194
 30
0.0
 11
134.884338
 21
103.175194
 31
0.0
210
0.0
220
0.0
230
1.0
  0
LINE
  8
0
 62
     7
 10
140.284348
 20
103.695
 30
0.0
 11
140.284348
 21
106.935089
 31
0.0
210
0.0
220
0.0
230
1.0
  0
LINE
  8
0
 62
     7
 10
140.284348
 20
106.935089
 30
0.0
 11
136.284348
 21
109.175194
 31
0.0
210
0.0
220
0.0
230
1.0
  0
LINE
  8
0
 62
     7
 10
136.284348
 20
109.175194
 30
0.0
 11
136.284348
 21
109.167145
 31
0.0
210
0.0
220
0.0
230
1.0
  0
LINE
  8
0
 62
     7
 10
136.284348
 20
109.167145
 30
0.0
 11
134.484344
 21
110.175194
 31
0.0
210
0.0
220
0.0
230
1.0
  0
LINE
  8
0
 62
     7
 10
134.484344
 20
110.175194
 30
0.0
 11
134.484344
 21
115.675194
 31
0.0
210
0.0
220
0.0
230
1.0
  0
LINE
  8
0
 62
     7
 10
134.484344
 20
115.675194
 30
0.0
 11
136.284348
 21
115.675194
 31
0.0
210
0.0
220
0.0
230
1.0
  0
LINE
  8
0
 62
     7
 10
136.284348
 20
115.675194
 30
0.0
 11
136.284348
 21
119.948883
 31
0.0
210
0.0
220
0.0
230
1.0
  0
LINE
  8
0
 62
     7
 10
136.284348
 20
119.948883
 30
0.0
 11
155.384338
 21
109.252365
 31
0.0
210
0.0
220
0.0
230
1.0
  0
LINE
  8
0
 62
     7
 10
155.384338
 20
109.252365
 30
0.0
 11
155.384338
 21
111.675194
 31
0.0
210
0.0
220
0.0
230
1.0
  0
LINE
  8
0
 62
     7
 10
156.884338
 20
111.675194
 30
0.0
 11
155.384338
 21
111.675194
 31
0.0
210
0.0
220
0.0
230
1.0
  0
LINE
  8
0
 62
     7
 10
156.884338
 20
172.824585
 30
0.0
 11
156.884338
 21
111.675194
 31
0.0
210
0.0
220
0.0
230
1.0
  0
LINE
  8
0
 62
     7
 10
152.481033
 20
172.824585
 30
0.0
 11
156.884338
 21
172.824585
 31
0.0
210
0.0
220
0.0
230
1.0
  0
ARC
  8
0
 62
     7
 10
152.481033
 20
174.324585
 30
0.0
 40
1.5
 50
240.750006
 51
269.999997
210
0.0
220
0.0
230
1.0
  0
LINE
  8
0
 62
     7
 10
152.089615
 20
172.824585
 30
0.0
 11
151.748108
 21
173.015839
 31
0.0
210
0.0
220
0.0
230
1.0
  0
LINE
  8
0
 62
     7
 10
152.089615
 20
172.824585
 30
0.0
 11
150.148605
 21
169.358658
 31
0.0
210
0.0
220
0.0
230
1.0
  0
LINE
  8
0
 62
     7
 10
146.984879
 20
171.130432
 30
0.0
 11
150.148605
 21
169.358658
 31
0.0
210
0.0
220
0.0
230
1.0
  0
LINE
  8
0
 62
     7
 10
146.033539
 20
168.519196
 30
0.0
 11
146.984879
 21
171.130432
 31
0.0
210
0.0
220
0.0
230
1.0
  0
LINE
  8
0
 62
     7
 10
142.937653
 20
165.436188
 30
0.0
 11
146.033539
 21
168.519196
 31
0.0
210
0.0
220
0.0
230
1.0
  0
LINE
  8
0
 62
     7
 10
138.570313
 20
162.821533
 30
0.0
 11
142.937653
 21
165.436188
 31
0.0
210
0.0
220
0.0
230
1.0
  0
LINE
  8
0
 62
     7
 10
137.184296
 20
163.544266
 30
0.0
 11
138.570313
 21
162.821533
 31
0.0
210
0.0
220
0.0
230
1.0
  0
LINE
  8
0
 62
     7
 10
143.284027
 20
180.307922
 30
0.0
 11
137.184296
 21
163.544266
 31
0.0
210
0.0
220
0.0
230
1.0
  0
LINE
  8
0
 62
     7
 10
143.284027
 20
180.307922
 30
0.0
 11
143.294861
 21
183.27771
 31
0.0
210
0.0
220
0.0
230
1.0
  0
LINE
  8
0
 62
     7
 10
144.507172
 20
186.874313
 30
0.0
 11
143.294861
 21
183.27771
 31
0.0
210
0.0
220
0.0
230
1.0
  0
ARC
  8
0
 62
     7
 10
145.882385
 20
187.429596
 30
0.0
 40
1.5
 50
163.750001
 51
199.560496
210
0.0
220
0.0
230
1.0
  0
LINE
  8
0
 62
     7
 10
145.305405
 20
190.810501
 30
0.0
 11
144.442307
 21
187.849335
 31
0.0
210
0.0
220
0.0
230
1.0
  0
LINE
  8
0
 62
     7
 10
148.384338
 20
196.525192
 30
0.0
 11
148.384338
 21
196.30835
 31
0.0
210
0.0
220
0.0
230
1.0
  0
LINE
  8
0
 62
     7
 10
148.384338
 20
196.525192
 30
0.0
 11
144.484344
 21
196.525192
 31
0.0
210
0.0
220
0.0
230
1.0
  0
LINE
  8
0
 62
     7
 10
144.484344
 20
192.575195
 30
0.0
 11
144.484344
 21
196.525192
 31
0.0
210
0.0
220
0.0
230
1.0
  0
LINE
  8
0
 62
     7
 10
144.484344
 20
192.575195
 30
0.0
 11
68.284348
 21
192.575195
 31
0.0
210
0.0
220
0.0
230
1.0
  0
LINE
  8
0
 62
     7
 10
68.284348
 20
196.525192
 30
0.0
 11
68.284348
 21
192.575195
 31
0.0
210
0.0
220
0.0
230
1.0
  0
LINE
  8
0
 62
     7
 10
68.284348
 20
196.525192
 30
0.0
 11
64.384346
 21
196.525192
 31
0.0
210
0.0
220
0.0
230
1.0
  0
LINE
  8
0
 62
     7
 10
64.384346
 20
196.525192
 30
0.0
 11
64.384346
 21
196.30835
 31
0.0
210
0.0
220
0.0
230
1.0
  0
LINE
  8
0
 62
     7
 10
67.463287
 20
190.810501
 30
0.0
 11
68.326385
 21
187.849335
 31
0.0
210
0.0
220
0.0
230
1.0
  0
ARC
  8
0
 62
     7
 10
66.886307
 20
187.429596
 30
0.0
 40
1.5
 50
340.439504
 51
16.25
210
0.0
220
0.0
230
1.0
  0
LINE
  8
0
 62
     7
 10
68.261528
 20
186.874313
 30
0.0
 11
69.473831
 21
183.27771
 31
0.0
210
0.0
220
0.0
230
1.0
  0
LINE
  8
0
 62
     7
 10
69.484665
 20
180.307922
 30
0.0
 11
69.473831
 21
183.27771
 31
0.0
210
0.0
220
0.0
230
1.0
  0
LINE
  8
0
 62
     7
 10
69.484665
 20
180.307922
 30
0.0
 11
75.584396
 21
163.544266
 31
0.0
210
0.0
220
0.0
230
1.0
  0
LINE
  8
0
 62
     7
 10
75.584396
 20
163.544266
 30
0.0
 11
74.19838
 21
162.821533
 31
0.0
210
0.0
220
0.0
230
1.0
  0
LINE
  8
0
 62
     7
 10
74.19838
 20
162.821533
 30
0.0
 11
69.831039
 21
165.436188
 31
0.0
210
0.0
220
0.0
230
1.0
  0
LINE
  8
0
 62
     7
 10
69.831039
 20
165.436188
 30
0.0
 11
66.735153
 21
168.519196
 31
0.0
210
0.0
220
0.0
230
1.0
  0
LINE
  8
0
 62
     7
 10
66.735153
 20
168.519196
 30
0.0
 11
65.783813
 21
171.130432
 31
0.0
210
0.0
220
0.0
230
1.0
  0
LINE
  8
0
 62
     7
 10
65.783813
 20
171.130432
 30
0.0
 11
62.620087
 21
169.358658
 31
0.0
210
0.0
220
0.0
230
1.0
  0
LINE
  8
0
 62
     7
 10
60.679073
 20
172.824585
 30
0.0
 11
62.620087
 21
169.358658
 31
0.0
210
0.0
220
0.0
230
1.0
  0
LINE
  8
0
 62
     7
 10
60.679073
 20
172.824585
 30
0.0
 11
61.020584
 21
173.015839
 31
0.0
210
0.0
220
0.0
230
1.0
  0
ARC
  8
0
 62
     7
 10
60.287655
 20
174.324585
 30
0.0
 40
1.5
 50
269.999997
 51
299.250003
210
0.0
220
0.0
230
1.0
  0
LINE
  8
0
 62
     7
 10
60.287655
 20
172.824585
 30
0.0
 11
55.884346
 21
172.824585
 31
0.0
210
0.0
220
0.0
230
1.0
  0
LINE
  8
0
 62
     7
 10
55.884346
 20
172.824585
 30
0.0
 11
55.884346
 21
111.675194
 31
0.0
210
0.0
220
0.0
230
1.0
  0
LINE
  8
0
 62
     7
 10
55.884346
 20
111.675194
 30
0.0
 11
57.384346
 21
111.675194
 31
0.0
210
0.0
220
0.0
230
1.0
  0
LINE
  8
0
 62
     7
 10
57.384346
 20
109.252365
 30
0.0
 11
57.384346
 21
111.675194
 31
0.0
210
0.0
220
0.0
230
1.0
  0
LINE
  8
0
 62
     7
 10
76.484344
 20
119.948883
 30
0.0
 11
57.384346
 21
109.252365
 31
0.0
210
0.0
220
0.0
230
1.0
  0
LINE
  8
0
 62
     7
 10
76.484344
 20
115.675194
 30
0.0
 11
76.484344
 21
119.948883
 31
0.0
210
0.0
220
0.0
230
1.0
  0
LINE
  8
0
 62
     7
 10
78.284348
 20
115.675194
 30
0.0
 11
76.484344
 21
115.675194
 31
0.0
210
0.0
220
0.0
230
1.0
  0
LINE
  8
0
 62
     7
 10
78.284348
 20
111.675194
 30
0.0
 11
78.284348
 21
115.675194
 31
0.0
210
0.0
220
0.0
230
1.0
  0
LINE
  8
0
 62
     7
 10
78.284348
 20
111.675194
 30
0.0
 11
91.884346
 21
111.675194
 31
0.0
210
0.0
220
0.0
230
1.0
  0
LINE
  8
0
 62
     7
 10
91.884346
 20
105.675194
 30
0.0
 11
91.884346
 21
111.675194
 31
0.0
210
0.0
220
0.0
230
1.0
  0
LINE
  8
0
 62
     7
 10
91.884346
 20
105.675194
 30
0.0
 11
92.184349
 21
105.675194
 31
0.0
210
0.0
220
0.0
230
1.0
  0
LINE
  8
0
 62
     7
 10
93.534348
 20
104.829025
 30
0.0
 11
93.534348
 21
105.625191
 31
0.0
210
0.0
220
0.0
230
1.0
  0
ARC
  8
0
 62
     7
 10
95.284348
 20
105.625191
 30
0.0
 40
1.75
 50
120.949727
 51
180.000005
210
0.0
220
0.0
230
1.0
  0
LINE
  8
0
 62
     7
 10
94.384346
 20
115.985191
 30
0.0
 11
94.384346
 21
107.12603
 31
0.0
210
0.0
220
0.0
230
1.0
  0
LINE
  8
0
 62
     7
 10
94.384346
 20
115.985191
 30
0.0
 11
118.384346
 21
115.985191
 31
0.0
210
0.0
220
0.0
230
1.0
  0
LINE
  8
0
 62
     7
 10
118.384346
 20
115.985191
 30
0.0
 11
118.384346
 21
107.12603
 31
0.0
210
0.0
220
0.0
230
1.0
  0
ARC
  8
0
 62
     7
 10
117.484344
 20
105.625191
 30
0.0
 40
1.75
 50
0.0
 51
59.050278
210
0.0
220
0.0
230
1.0
  0
LINE
  8
0
 62
     7
 10
119.234344
 20
103.175194
 30
0.0
 11
119.234344
 21
105.625191
 31
0.0
210
0.0
220
0.0
230
1.0
  0
LINE
  8
0
 62
     7
 10
121.991524
 20
103.175194
 30
0.0
 11
119.234344
 21
103.175194
 31
0.0
210
0.0
220
0.0
230
1.0
  0
LINE
  8
0
 62
     7
 10
134.884338
 20
103.175194
 30
0.0
 11
125.084351
 21
103.175194
 31
0.0
210
0.0
220
0.0
230
1.0
  0
LINE
  8
0
 62
     7
 10
154.384338
 20
104.175194
 30
0.0
 11
141.384338
 21
104.175194
 31
0.0
210
0.0
220
0.0
230
1.0
  0
LINE
  8
0
 62
     7
 10
136.284348
 20
109.175194
 30
0.0
 11
136.284348
 21
115.675194
 31
0.0
210
0.0
220
0.0
230
1.0
  0
ARC
  8
0
 62
     7
 10
154.384338
 20
105.675194
 30
0.0
 40
1.5
 50
269.999997
 51
0.0
210
0.0
220
0.0
230
1.0
  0
LINE
  8
0
 62
     7
 10
155.884338
 20
107.175194
 30
0.0
 11
155.884338
 21
105.675194
 31
0.0
210
0.0
220
0.0
230
1.0
  0
ARC
  8
0
 62
     7
 10
156.884338
 20
107.175194
 30
0.0
 40
1.0
 50
90.000003
 51
180.000005
210
0.0
220
0.0
230
1.0
  0
LINE
  8
0
 62
     7
 10
156.884338
 20
108.175194
 30
0.0
 11
156.884338
 21
108.412331
 31
0.0
210
0.0
220
0.0
230
1.0
  0
LINE
  8
0
 62
     7
 10
156.884338
 20
111.675194
 30
0.0
 11
156.884338
 21
109.175194
 31
0.0
210
0.0
220
0.0
230
1.0
  0
LINE
  8
0
 62
     7
 10
155.522156
 20
109.175194
 30
0.0
 11
156.884338
 21
108.412331
 31
0.0
210
0.0
220
0.0
230
1.0
  0
LINE
  8
0
 62
     7
 10
155.522156
 20
109.175194
 30
0.0
 11
156.884338
 21
109.175194
 31
0.0
210
0.0
220
0.0
230
1.0
  0
LINE
  8
0
 62
     7
 10
142.734344
 20
202.175201
 30
0.0
 11
142.734344
 21
200.375183
 31
0.0
210
0.0
220
0.0
230
1.0
  0
LINE
  8
0
 62
     7
 10
106.384346
 20
202.175201
 30
0.0
 11
142.734344
 21
202.175201
 31
0.0
210
0.0
220
0.0
230
1.0
  0
ARC
  8
0
 62
     7
 10
55.884346
 20
107.175194
 30
0.0
 40
1.0
 50
0.0
 51
90.000003
210
0.0
220
0.0
230
1.0
  0
LINE
  8
0
 62
     7
 10
71.384346
 20
104.175194
 30
0.0
 11
58.384346
 21
104.175194
 31
0.0
210
0.0
220
0.0
230
1.0
  0
LINE
  8
0
 62
     7
 10
156.884338
 20
109.175194
 30
0.0
 11
156.884338
 21
108.412331
 31
0.0
210
0.0
220
0.0
230
1.0
  0
LINE
  8
0
 62
     7
 10
69.234344
 20
196.525192
 30
0.0
 11
68.284348
 21
196.525192
 31
0.0
210
0.0
220
0.0
230
1.0
  0
LINE
  8
0
 62
     7
 10
143.534348
 20
196.525192
 30
0.0
 11
144.484344
 21
196.525192
 31
0.0
210
0.0
220
0.0
230
1.0
  0
LINE
  8
0
 62
     7
 10
143.534348
 20
198.175201
 30
0.0
 11
143.534348
 21
196.525192
 31
0.0
210
0.0
220
0.0
230
1.0
  0
LINE
  8
0
 62
     7
 10
143.534348
 20
198.175201
 30
0.0
 11
143.034348
 21
198.175201
 31
0.0
210
0.0
220
0.0
230
1.0
  0
LINE
  8
0
 62
     7
 10
143.034348
 20
199.581467
 30
0.0
 11
143.034348
 21
198.175201
 31
0.0
210
0.0
220
0.0
230
1.0
  0
ARC
  8
0
 62
     7
 10
143.934341
 20
200.375183
 30
0.0
 40
1.2
 50
180.000005
 51
221.409615
210
0.0
220
0.0
230
1.0
  0
LINE
  8
0
 62
     7
 10
106.384346
 20
202.175201
 30
0.0
 11
69.734344
 21
202.175201
 31
0.0
210
0.0
220
0.0
230
1.0
  0
LINE
  8
0
 62
     7
 10
69.734344
 20
202.175201
 30
0.0
 11
69.734344
 21
198.175201
 31
0.0
210
0.0
220
0.0
230
1.0
  0
LINE
  8
0
 62
     7
 10
69.234344
 20
198.175201
 30
0.0
 11
69.734344
 21
198.175201
 31
0.0
210
0.0
220
0.0
230
1.0
  0
LINE
  8
0
 62
     7
 10
76.484344
 20
109.175194
 30
0.0
 11
76.484344
 21
115.675194
 31
0.0
210
0.0
220
0.0
230
1.0
  0
LINE
  8
0
 62
     7
 10
55.884346
 20
111.675194
 30
0.0
 11
55.884346
 21
109.175194
 31
0.0
210
0.0
220
0.0
230
1.0
  0
LINE
  8
0
 62
     7
 10
55.884346
 20
108.175194
 30
0.0
 11
55.884346
 21
108.412331
 31
0.0
210
0.0
220
0.0
230
1.0
  0
LINE
  8
0
 62
     7
 10
56.884346
 20
107.175194
 30
0.0
 11
56.884346
 21
105.675194
 31
0.0
210
0.0
220
0.0
230
1.0
  0
ARC
  8
0
 62
     7
 10
58.384346
 20
105.675194
 30
0.0
 40
1.5
 50
180.000005
 51
269.999997
210
0.0
220
0.0
230
1.0
  0
ARC
  8
0
 62
     7
 10
71.384346
 20
102.675194
 30
0.0
 40
1.5
 50
42.833428
 51
90.000003
210
0.0
220
0.0
230
1.0
  0
LINE
  8
0
 62
     7
 10
57.24654
 20
109.175194
 30
0.0
 11
55.884346
 21
109.175194
 31
0.0
210
0.0
220
0.0
230
1.0
  0
LINE
  8
0
 62
     7
 10
57.24654
 20
109.175194
 30
0.0
 11
55.884346
 21
108.412331
 31
0.0
210
0.0
220
0.0
230
1.0
  0
LINE
  8
0
 62
     7
 10
145.134338
 20
202.175201
 30
0.0
 11
145.134338
 21
200.375183
 31
0.0
210
0.0
220
0.0
230
1.0
  0
ARC
  8
0
 62
     7
 10
143.934341
 20
200.375183
 30
0.0
 40
1.2
 50
318.59038
 51
0.0
210
0.0
220
0.0
230
1.0
  0
LINE
  8
0
 62
     7
 10
55.884346
 20
109.175194
 30
0.0
 11
55.884346
 21
108.412331
 31
0.0
210
0.0
220
0.0
230
1.0
  0
LINE
  8
0
 62
     7
 10
69.234344
 20
202.175201
 30
0.0
 11
69.734344
 21
202.175201
 31
0.0
210
0.0
220
0.0
230
1.0
  0
ARC
  8
0
 62
     7
 10
143.934341
 20
200.375183
 30
0.0
 40
1.2
 50
221.409615
 51
250.528781
210
0.0
220
0.0
230
1.0
  0
LINE
  8
0
 62
     7
 10
64.384346
 20
202.175201
 30
0.0
 11
64.384346
 21
196.525192
 31
0.0
210
0.0
220
0.0
230
1.0
  0
LINE
  8
0
 62
     7
 10
78.284348
 20
110.175194
 30
0.0
 11
78.284348
 21
111.675194
 31
0.0
210
0.0
220
0.0
230
1.0
  0
LINE
  8
0
 62
     7
 10
81.384346
 20
103.175194
 30
0.0
 11
81.384346
 21
104.175194
 31
0.0
210
0.0
220
0.0
230
1.0
  0
LINE
  8
0
 62
     7
 10
82.884346
 20
105.675194
 30
0.0
 11
91.884346
 21
105.675194
 31
0.0
210
0.0
220
0.0
230
1.0
  0
LINE
  8
0
 62
     7
 10
78.284348
 20
110.175194
 30
0.0
 11
77.884346
 21
109.95118
 31
0.0
210
0.0
220
0.0
230
1.0
  0
LINE
  8
0
 62
     7
 10
81.384346
 20
103.175194
 30
0.0
 11
77.884346
 21
103.175194
 31
0.0
210
0.0
220
0.0
230
1.0
  0
LINE
  8
0
 62
     7
 10
145.134338
 20
202.175201
 30
0.0
 11
145.134338
 21
200.375183
 31
0.0
210
0.0
220
0.0
230
1.0
  0
ARC
  8
0
 62
     7
 10
143.934341
 20
200.375183
 30
0.0
 40
1.2
 50
250.528781
 51
360.0
210
0.0
220
0.0
230
1.0
  0
LINE
  8
0
 62
     7
 10
143.534348
 20
199.24382
 30
0.0
 11
143.534348
 21
196.525192
 31
0.0
210
0.0
220
0.0
230
1.0
  0
LINE
  8
0
 62
     7
 10
148.384338
 20
196.525192
 30
0.0
 11
143.534348
 21
196.525192
 31
0.0
210
0.0
220
0.0
230
1.0
  0
LINE
  8
0
 62
     7
 10
148.384338
 20
196.525192
 30
0.0
 11
148.384338
 21
202.175201
 31
0.0
210
0.0
220
0.0
230
1.0
  0
LINE
  8
0
 62
     7
 10
145.134338
 20
202.175201
 30
0.0
 11
148.384338
 21
202.175201
 31
0.0
210
0.0
220
0.0
230
1.0
  0
LINE
  8
0
 62
     7
 10
64.384346
 20
202.175201
 30
0.0
 11
64.384346
 21
196.525192
 31
0.0
210
0.0
220
0.0
230
1.0
  0
LINE
  8
0
 62
     7
 10
69.234344
 20
196.525192
 30
0.0
 11
64.384346
 21
196.525192
 31
0.0
210
0.0
220
0.0
230
1.0
  0
LINE
  8
0
 62
     7
 10
69.234344
 20
196.525192
 30
0.0
 11
69.234344
 21
202.175201
 31
0.0
210
0.0
220
0.0
230
1.0
  0
LINE
  8
0
 62
     7
 10
64.384346
 20
202.175201
 30
0.0
 11
69.234344
 21
202.175201
 31
0.0
210
0.0
220
0.0
230
1.0
  0
ENDSEC
  0
EOF
