  0
SECTION
  2
HEADER
  9
$ACADVER
  1
AC1009
  9
$DWGCODEPAGE
  3
ansi_1252
  9
$INSBASE
 10
0.0
 20
0.0
 30
0.0
  9
$EXTMIN
 10
0.0
 20
0.0
 30
0.0
  9
$EXTMAX
 10
150.292236
 20
224.205307
 30
2.0
  9
$LIMMIN
 10
0.0
 20
0.0
  9
$LIMMAX
 10
420.0
 20
297.0
  9
$ORTHOMODE
 70
     0
  9
$REGENMODE
 70
     1
  9
$FILLMODE
 70
     1
  9
$QTEXTMODE
 70
     0
  9
$MIRRTEXT
 70
     1
  9
$DRAGMODE
 70
     2
  9
$LTSCALE
 40
1.0
  9
$OSMODE
 70
     0
  9
$ATTMODE
 70
     1
  9
$TEXTSIZE
 40
2.5
  9
$TRACEWID
 40
1.0
  9
$TEXTSTYLE
  7
STANDARD
  9
$CLAYER
  8
0
  9
$CELTYPE
  6
BYLAYER
  9
$CECOLOR
 62
   256
  9
$DIMSCALE
 40
1.0
  9
$DIMASZ
 40
2.5
  9
$DIMEXO
 40
0.625
  9
$DIMDLI
 40
3.75
  9
$DIMRND
 40
0.0
  9
$DIMDLE
 40
0.0
  9
$DIMEXE
 40
1.25
  9
$DIMTP
 40
0.0
  9
$DIMTM
 40
0.0
  9
$DIMTXT
 40
2.5
  9
$DIMCEN
 40
2.5
  9
$DIMTSZ
 40
0.0
  9
$DIMTOL
 70
     0
  9
$DIMLIM
 70
     0
  9
$DIMTIH
 70
     0
  9
$DIMTOH
 70
     0
  9
$DIMSE1
 70
     0
  9
$DIMSE2
 70
     0
  9
$DIMTAD
 70
     1
  9
$DIMZIN
 70
     8
  9
$DIMBLK
  1

  9
$DIMASO
 70
     1
  9
$DIMSHO
 70
     1
  9
$DIMPOST
  1

  9
$DIMAPOST
  1

  9
$DIMALT
 70
     0
  9
$DIMALTD
 70
     3
  9
$DIMALTF
 40
0.03937
  9
$DIMLFAC
 40
1.0
  9
$DIMTOFL
 70
     1
  9
$DIMTVP
 40
0.0
  9
$DIMTIX
 70
     0
  9
$DIMSOXD
 70
     0
  9
$DIMSAH
 70
     0
  9
$DIMBLK1
  1

  9
$DIMBLK2
  1

  9
$DIMSTYLE
  2

  9
$DIMCLRD
 70
     0
  9
$DIMCLRE
 70
     0
  9
$DIMCLRT
 70
     0
  9
$DIMTFAC
 40
1.0
  9
$DIMGAP
 40
0.625
  9
$LUNITS
 70
     2
  9
$LUPREC
 70
     4
  9
$AXISMODE
 70
     0
  9
$AXISUNIT
 10
0.0
 20
0.0
  9
$SKETCHINC
 40
1.0
  9
$FILLETRAD
 40
2.5
  9
$AUNITS
 70
     0
  9
$AUPREC
 70
     0
  9
$MENU
  1
.
  9
$ELEVATION
 40
0.0
  9
$PELEVATION
 40
0.0
  9
$THICKNESS
 40
0.0
  9
$LIMCHECK
 70
     0
  9
$BLIPMODE
 70
     1
  9
$CHAMFERA
 40
2.5
  9
$CHAMFERB
 40
2.5
  9
$SKPOLY
 70
     0
  9
$TDCREATE
 40
0.000000000
  9
$TDUPDATE
 40
0.000000000
  9
$TDINDWG
 40
0.0000000000
  9
$TDUSRTIMER
 40
0.0000000000
  9
$USRTIMER
 70
     1
  9
$ANGBASE
 50
0.0
  9
$ANGDIR
 70
     0
  9
$PDMODE
 70
     0
  9
$PDSIZE
 40
0.0
  9
$PLINEWID
 40
0.0
  9
$COORDS
 70
     0
  9
$SPLFRAME
 70
     0
  9
$SPLINETYPE
 70
     6
  9
$SPLINESEGS
 70
     8
  9
$ATTDIA
 70
     0
  9
$ATTREQ
 70
     1
  9
$HANDLING
 70
     0
  9
$HANDSEED
  5
3
  9
$SURFTAB1
 70
     6
  9
$SURFTAB2
 70
     6
  9
$SURFTYPE
 70
     6
  9
$SURFU
 70
     6
  9
$SURFV
 70
     6
  9
$UCSNAME
  2

  9
$UCSORG
 10
0.0
 20
0.0
 30
0.0
  9
$UCSXDIR
 10
1.0
 20
0.0
 30
0.0
  9
$UCSYDIR
 10
0.0
 20
1.0
 30
0.0
  9
$PUCSNAME
  2

  9
$PUCSORG
 10
0.0
 20
0.0
 30
0.0
  9
$PUCSXDIR
 10
1.0
 20
0.0
 30
0.0
  9
$PUCSYDIR
 10
0.0
 20
1.0
 30
0.0
  9
$USERI1
 70
     0
  9
$USERI2
 70
     0
  9
$USERI3
 70
     0
  9
$USERI4
 70
     0
  9
$USERI5
 70
     0
  9
$USERR1
 40
0.0
  9
$USERR2
 40
0.0
  9
$USERR3
 40
0.0
  9
$USERR4
 40
0.0
  9
$USERR5
 40
0.0
  9
$WORLDVIEW
 70
     1
  9
$SHADEDGE
 70
     3
  9
$SHADEDIF
 70
    70
  9
$TILEMODE
 70
     1
  9
$MAXACTVP
 70
    48
  9
$PINSBASE
 10
0.0
 20
0.0
 30
0.0
  9
$PLIMCHECK
 70
     0
  9
$PEXTMIN
 10
0.0
 20
0.0
 30
0.0
  9
$PEXTMAX
 10
150.292236
 20
224.205307
 30
2.0
  9
$PLIMMIN
 10
0.0
 20
0.0
  9
$PLIMMAX
 10
420.0
 20
297.0
  9
$UNITMODE
 70
     0
  9
$VISRETAIN
 70
     0
  9
$PLINEGEN
 70
     0
  9
$PSLTSCALE
 70
     1
  9
$TREEDEPTH
 70
  3020
  0
ENDSEC
  0
SECTION
  2
TABLES
  0
TABLE
  2
VPORT
 70
     1
  0
VPORT
  2
*ACTIVE
 70
     0
 10
0.0
 20
0.0
 11
1.0
 21
1.0
 12
6.591288
 22
4.579184
 13
0.0
 23
0.0
 14
1.0
 24
1.0
 15
0.0
 25
0.0
 16
0.0
 26
0.0
 36
1.0
 17
0.0
 27
0.0
 37
0.0
 40
9.158369
 41
0.688564
 42
50.0
 43
0.0
 44
0.0
 50
0.0
 51
0.0
 71
     0
 72
   100
 73
     1
 74
     1
 75
     0
 76
     0
 77
     0
 78
     0
  0
ENDTAB
  0
TABLE
  2
LTYPE
 70
     2
  0
LTYPE
  2
CONTINUOUS
 70
    64
  3
Solid line
 72
    65
 73
     0
 40
0.0
  0
LTYPE
  2
DASHDOT
 70
     0
  3
 __ . __ . __ . __ . __ . __ . __ . 
 72
    65
 73
     4
 40
18.5
 49
12.0
 49
-3.0
 49
0.5
 49
-3.0
  0
ENDTAB
  0
TABLE
  2
LAYER
 70
     1
  0
LAYER
  2
0
 70
     0
 62
     7
  6
CONTINUOUS
  0
ENDTAB
  0
TABLE
  2
STYLE
 70
     1
  0
STYLE
  2
STANDARD
 70
     0
 40
0.0
 41
1.0
 50
0.0
 71
     0
 42
0.0
  3
txt
  4

  0
ENDTAB
  0
TABLE
  2
VIEW
 70
     0
  0
ENDTAB
  0
TABLE
  2
UCS
 70
     0
  0
ENDTAB
  0
TABLE
  2
APPID
 70
     1
  0
APPID
  2
ACAD
 70
     0
  0
ENDTAB
  0
TABLE
  2
DIMSTYLE
 70
     1
  0
DIMSTYLE
  2
STANDARD
 70
     0
  3

  4

  5

  6

  7

 40
1.0
 41
0.18
 42
0.0625
 43
0.38
 44
0.18
 45
0.0
 46
0.0
 47
0.0
 48
0.0
 71
     0
 72
     0
 73
     1
 74
     1
 75
     0
 76
     0
 77
     0
 78
     0
140
0.18
141
0.09
142
0.0
143
25.4
144
1.0
145
0.0
146
1.0
147
0.09
170
     0
171
     2
172
     0
173
     0
174
     0
175
     0
176
     0
177
     0
178
     0
  0
ENDTAB
  0
ENDSEC
  0
SECTION
  2
BLOCKS
  0
ENDSEC
  0
SECTION
  2
ENTITIES
  0
VIEWPORT
  8
0
 62
     0
 67
     1
 68
     1
 10
0.0
 20
0.0
 30
0.0
 40
1000.0
 41
1000.0
 69
     1
1001
ACAD
1000
MVIEW
1002
{
1070
    16
1010
0.0
1020
0.0
1030
0.0
1010
0.0
1020
0.0
1030
1.0
1040
0.0
1040
1000.0
1040
0.0
1040
0.0
1040
50.0
1040
0.0
1040
0.0
1070
     0
1070
   100
1070
     1
1070
     1
1070
     0
1070
     0
1070
     0
1070
     0
1040
0.0
1040
0.0
1040
0.0
1040
1.0
1040
1.0
1040
1.0
1040
1.0
1070
     0
1002
{
1002
}
1002
}
  0
LINE
  8
0
  6
DASHDOT
 62
     7
 10
123.646965
 20
109.736313
 30
0.0
 11
120.52697
 21
109.736313
 31
0.0
210
0.0
220
0.0
230
1.0
  0
LINE
  8
0
  6
DASHDOT
 62
     7
 10
122.086967
 20
111.296318
 30
0.0
 11
122.086967
 21
108.176315
 31
0.0
210
0.0
220
0.0
230
1.0
  0
LINE
  8
0
  6
DASHDOT
 62
     7
 10
143.69696
 20
204.736313
 30
0.0
 11
140.576965
 21
204.736313
 31
0.0
210
0.0
220
0.0
230
1.0
  0
LINE
  8
0
  6
DASHDOT
 62
     7
 10
142.136963
 20
206.296326
 30
0.0
 11
142.136963
 21
203.176315
 31
0.0
210
0.0
220
0.0
230
1.0
  0
POLYLINE
  8
0
 62
     7
 66
     1
 10
0.0
 20
0.0
 30
0.0
 70
     1
 71
    12
  0
VERTEX
  8
0
 10
58.258736
 20
220.856903
 30
0.0
  0
VERTEX
  8
0
 10
58.468922
 20
220.856903
 30
0.0
  0
VERTEX
  8
0
 10
58.468922
 20
222.884018
 30
0.0
  0
VERTEX
  8
0
 10
58.529945
 20
222.699738
 30
0.0
  0
VERTEX
  8
0
 10
59.305153
 20
220.856903
 30
0.0
  0
VERTEX
  8
0
 10
59.54472
 20
220.856903
 30
0.0
  0
VERTEX
  8
0
 10
59.54472
 20
223.356903
 30
0.0
  0
VERTEX
  8
0
 10
59.334534
 20
223.356903
 30
0.0
  0
VERTEX
  8
0
 10
59.334534
 20
221.329788
 30
0.0
  0
VERTEX
  8
0
 10
59.259953
 20
221.541885
 30
0.0
  0
VERTEX
  8
0
 10
58.500565
 20
223.356903
 30
0.0
  0
VERTEX
  8
0
 10
58.258736
 20
223.356903
 30
0.0
  0
SEQEND
  8
0
  0
POLYLINE
  8
0
 62
     7
 66
     1
 10
0.0
 20
0.0
 30
0.0
 70
     1
 71
    32
  0
VERTEX
  8
0
 10
60.32045
 20
222.105164
 30
0.0
  0
VERTEX
  8
0
 10
60.331753
 20
221.806137
 30
0.0
  0
VERTEX
  8
0
 10
60.372433
 20
221.545364
 30
0.0
  0
VERTEX
  8
0
 10
60.437977
 20
221.319351
 30
0.0
  0
VERTEX
  8
0
 10
60.526119
 20
221.131592
 30
0.0
  0
VERTEX
  8
0
 10
60.636864
 20
220.982071
 30
0.0
  0
VERTEX
  8
0
 10
60.767948
 20
220.874283
 30
0.0
  0
VERTEX
  8
0
 10
60.919373
 20
220.811707
 30
0.0
  0
VERTEX
  8
0
 10
61.091141
 20
220.787369
 30
0.0
  0
VERTEX
  8
0
 10
61.260647
 20
220.811707
 30
0.0
  0
VERTEX
  8
0
 10
61.412071
 20
220.874283
 30
0.0
  0
VERTEX
  8
0
 10
61.543156
 20
220.982071
 30
0.0
  0
VERTEX
  8
0
 10
61.6539
 20
221.131592
 30
0.0
  0
VERTEX
  8
0
 10
61.742043
 20
221.319351
 30
0.0
  0
VERTEX
  8
0
 10
61.805325
 20
221.545364
 30
0.0
  0
VERTEX
  8
0
 10
61.843746
 20
221.806137
 30
0.0
  0
VERTEX
  8
0
 10
61.85957
 20
222.105164
 30
0.0
  0
VERTEX
  8
0
 10
61.846008
 20
222.400711
 30
0.0
  0
VERTEX
  8
0
 10
61.805325
 20
222.661499
 30
0.0
  0
VERTEX
  8
0
 10
61.739784
 20
222.887497
 30
0.0
  0
VERTEX
  8
0
 10
61.6539
 20
223.075256
 30
0.0
  0
VERTEX
  8
0
 10
61.543156
 20
223.224777
 30
0.0
  0
VERTEX
  8
0
 10
61.412071
 20
223.332565
 30
0.0
  0
VERTEX
  8
0
 10
61.260647
 20
223.398621
 30
0.0
  0
VERTEX
  8
0
 10
61.091141
 20
223.422974
 30
0.0
  0
VERTEX
  8
0
 10
60.919373
 20
223.398621
 30
0.0
  0
VERTEX
  8
0
 10
60.767948
 20
223.332565
 30
0.0
  0
VERTEX
  8
0
 10
60.636864
 20
223.224777
 30
0.0
  0
VERTEX
  8
0
 10
60.526119
 20
223.075256
 30
0.0
  0
VERTEX
  8
0
 10
60.437977
 20
222.887497
 30
0.0
  0
VERTEX
  8
0
 10
60.372433
 20
222.661499
 30
0.0
  0
VERTEX
  8
0
 10
60.331753
 20
222.400711
 30
0.0
  0
SEQEND
  8
0
  0
POLYLINE
  8
0
 62
     7
 66
     1
 10
0.0
 20
0.0
 30
0.0
 70
     1
 71
    16
  0
VERTEX
  8
0
 10
60.548721
 20
222.105164
 30
0.0
  0
VERTEX
  8
0
 10
60.584881
 20
222.536316
 30
0.0
  0
VERTEX
  8
0
 10
60.693367
 20
222.85968
 30
0.0
  0
VERTEX
  8
0
 10
60.865131
 20
223.057877
 30
0.0
  0
VERTEX
  8
0
 10
61.091141
 20
223.127411
 30
0.0
  0
VERTEX
  8
0
 10
61.314888
 20
223.057877
 30
0.0
  0
VERTEX
  8
0
 10
61.486656
 20
222.85968
 30
0.0
  0
VERTEX
  8
0
 10
61.592876
 20
222.536316
 30
0.0
  0
VERTEX
  8
0
 10
61.631298
 20
222.105164
 30
0.0
  0
VERTEX
  8
0
 10
61.592876
 20
221.670532
 30
0.0
  0
VERTEX
  8
0
 10
61.486656
 20
221.347168
 30
0.0
  0
VERTEX
  8
0
 10
61.314888
 20
221.148972
 30
0.0
  0
VERTEX
  8
0
 10
61.091141
 20
221.082916
 30
0.0
  0
VERTEX
  8
0
 10
60.865131
 20
221.148972
 30
0.0
  0
VERTEX
  8
0
 10
60.693367
 20
221.347168
 30
0.0
  0
VERTEX
  8
0
 10
60.584881
 20
221.670532
 30
0.0
  0
SEQEND
  8
0
  0
POLYLINE
  8
0
 62
     7
 66
     1
 10
0.0
 20
0.0
 30
0.0
 70
     1
 71
    12
  0
VERTEX
  8
0
 10
62.6353
 20
220.856903
 30
0.0
  0
VERTEX
  8
0
 10
62.845486
 20
220.856903
 30
0.0
  0
VERTEX
  8
0
 10
62.845486
 20
222.884018
 30
0.0
  0
VERTEX
  8
0
 10
62.906509
 20
222.699738
 30
0.0
  0
VERTEX
  8
0
 10
63.681717
 20
220.856903
 30
0.0
  0
VERTEX
  8
0
 10
63.921288
 20
220.856903
 30
0.0
  0
VERTEX
  8
0
 10
63.921288
 20
223.356903
 30
0.0
  0
VERTEX
  8
0
 10
63.711098
 20
223.356903
 30
0.0
  0
VERTEX
  8
0
 10
63.711098
 20
221.329788
 30
0.0
  0
VERTEX
  8
0
 10
63.636517
 20
221.541885
 30
0.0
  0
VERTEX
  8
0
 10
62.877129
 20
223.356903
 30
0.0
  0
VERTEX
  8
0
 10
62.6353
 20
223.356903
 30
0.0
  0
SEQEND
  8
0
  0
POLYLINE
  8
0
 62
     7
 66
     1
 10
0.0
 20
0.0
 30
0.0
 70
     1
 71
     4
  0
VERTEX
  8
0
 10
64.672157
 20
221.639236
 30
0.0
  0
VERTEX
  8
0
 10
65.219093
 20
221.639236
 30
0.0
  0
VERTEX
  8
0
 10
65.219093
 20
221.913925
 30
0.0
  0
VERTEX
  8
0
 10
64.672157
 20
221.913925
 30
0.0
  0
SEQEND
  8
0
  0
POLYLINE
  8
0
 62
     7
 66
     1
 10
0.0
 20
0.0
 30
0.0
 70
     1
 71
    22
  0
VERTEX
  8
0
 10
65.963181
 20
221.806137
 30
0.0
  0
VERTEX
  8
0
 10
65.999344
 20
221.357605
 30
0.0
  0
VERTEX
  8
0
 10
66.114609
 20
221.041183
 30
0.0
  0
VERTEX
  8
0
 10
66.304459
 20
220.853424
 30
0.0
  0
VERTEX
  8
0
 10
66.57341
 20
220.787369
 30
0.0
  0
VERTEX
  8
0
 10
66.858177
 20
220.853424
 30
0.0
  0
VERTEX
  8
0
 10
67.066101
 20
221.044662
 30
0.0
  0
VERTEX
  8
0
 10
67.192673
 20
221.361069
 30
0.0
  0
VERTEX
  8
0
 10
67.235611
 20
221.806137
 30
0.0
  0
VERTEX
  8
0
 10
67.235611
 20
223.356903
 30
0.0
  0
VERTEX
  8
0
 10
67.014122
 20
223.356903
 30
0.0
  0
VERTEX
  8
0
 10
67.014122
 20
221.802658
 30
0.0
  0
VERTEX
  8
0
 10
66.987
 20
221.496674
 30
0.0
  0
VERTEX
  8
0
 10
66.910156
 20
221.284576
 30
0.0
  0
VERTEX
  8
0
 10
66.781334
 20
221.15593
 30
0.0
  0
VERTEX
  8
0
 10
66.598267
 20
221.114212
 30
0.0
  0
VERTEX
  8
0
 10
66.412941
 20
221.15593
 30
0.0
  0
VERTEX
  8
0
 10
66.284119
 20
221.281097
 30
0.0
  0
VERTEX
  8
0
 10
66.207275
 20
221.496674
 30
0.0
  0
VERTEX
  8
0
 10
66.184669
 20
221.802658
 30
0.0
  0
VERTEX
  8
0
 10
66.184669
 20
223.356903
 30
0.0
  0
VERTEX
  8
0
 10
65.963181
 20
223.356903
 30
0.0
  0
SEQEND
  8
0
  0
POLYLINE
  8
0
 62
     7
 66
     1
 10
0.0
 20
0.0
 30
0.0
 70
     1
 71
    50
  0
VERTEX
  8
0
 10
68.000038
 20
221.680969
 30
0.0
  0
VERTEX
  8
0
 10
68.049759
 20
221.298492
 30
0.0
  0
VERTEX
  8
0
 10
68.176331
 20
221.020325
 30
0.0
  0
VERTEX
  8
0
 10
68.372955
 20
220.849945
 30
0.0
  0
VERTEX
  8
0
 10
68.637383
 20
220.790833
 30
0.0
  0
VERTEX
  8
0
 10
68.897293
 20
220.849945
 30
0.0
  0
VERTEX
  8
0
 10
69.093918
 20
221.006409
 30
0.0
  0
VERTEX
  8
0
 10
69.218224
 20
221.253281
 30
0.0
  0
VERTEX
  8
0
 10
69.261169
 20
221.580124
 30
0.0
  0
VERTEX
  8
0
 10
69.225006
 20
221.851334
 30
0.0
  0
VERTEX
  8
0
 10
69.127823
 20
222.056488
 30
0.0
  0
VERTEX
  8
0
 10
68.965096
 20
222.185135
 30
0.0
  0
VERTEX
  8
0
 10
68.754906
 20
222.275543
 30
0.0
  0
VERTEX
  8
0
 10
68.533417
 20
222.355515
 30
0.0
  0
VERTEX
  8
0
 10
68.37973
 20
222.435486
 30
0.0
  0
VERTEX
  8
0
 10
68.28933
 20
222.550232
 30
0.0
  0
VERTEX
  8
0
 10
68.262207
 20
222.74147
 30
0.0
  0
VERTEX
  8
0
 10
68.284813
 20
222.901413
 30
0.0
  0
VERTEX
  8
0
 10
68.357132
 20
223.03006
 30
0.0
  0
VERTEX
  8
0
 10
68.46788
 20
223.110031
 30
0.0
  0
VERTEX
  8
0
 10
68.619301
 20
223.141327
 30
0.0
  0
VERTEX
  8
0
 10
68.772987
 20
223.106552
 30
0.0
  0
VERTEX
  8
0
 10
68.890511
 20
223.005722
 30
0.0
  0
VERTEX
  8
0
 10
68.967354
 20
222.8423
 30
0.0
  0
VERTEX
  8
0
 10
69.003517
 20
222.623245
 30
0.0
  0
VERTEX
  8
0
 10
69.213707
 20
222.623245
 30
0.0
  0
VERTEX
  8
0
 10
69.170761
 20
222.957047
 30
0.0
  0
VERTEX
  8
0
 10
69.055496
 20
223.207397
 30
0.0
  0
VERTEX
  8
0
 10
68.874695
 20
223.36734
 30
0.0
  0
VERTEX
  8
0
 10
68.632866
 20
223.422974
 30
0.0
  0
VERTEX
  8
0
 10
68.391037
 20
223.36734
 30
0.0
  0
VERTEX
  8
0
 10
68.20797
 20
223.21434
 30
0.0
  0
VERTEX
  8
0
 10
68.090446
 20
222.981384
 30
0.0
  0
VERTEX
  8
0
 10
68.052025
 20
222.682358
 30
0.0
  0
VERTEX
  8
0
 10
68.085922
 20
222.407669
 30
0.0
  0
VERTEX
  8
0
 10
68.18763
 20
222.21991
 30
0.0
  0
VERTEX
  8
0
 10
68.35939
 20
222.091263
 30
0.0
  0
VERTEX
  8
0
 10
68.596703
 20
221.990417
 30
0.0
  0
VERTEX
  8
0
 10
68.788811
 20
221.913925
 30
0.0
  0
VERTEX
  8
0
 10
68.928932
 20
221.837433
 30
0.0
  0
VERTEX
  8
0
 10
69.012558
 20
221.722687
 30
0.0
  0
VERTEX
  8
0
 10
69.041939
 20
221.541885
 30
0.0
  0
VERTEX
  8
0
 10
69.012558
 20
221.354126
 30
0.0
  0
VERTEX
  8
0
 10
68.933456
 20
221.208084
 30
0.0
  0
VERTEX
  8
0
 10
68.806892
 20
221.117676
 30
0.0
  0
VERTEX
  8
0
 10
68.635124
 20
221.086395
 30
0.0
  0
VERTEX
  8
0
 10
68.461098
 20
221.124634
 30
0.0
  0
VERTEX
  8
0
 10
68.330009
 20
221.246338
 30
0.0
  0
VERTEX
  8
0
 10
68.244125
 20
221.430618
 30
0.0
  0
VERTEX
  8
0
 10
68.212486
 20
221.680969
 30
0.0
  0
SEQEND
  8
0
  0
POLYLINE
  8
0
 62
     7
 66
     1
 10
0.0
 20
0.0
 30
0.0
 70
     1
 71
     8
  0
VERTEX
  8
0
 10
69.853828
 20
220.856903
 30
0.0
  0
VERTEX
  8
0
 10
70.0821
 20
220.856903
 30
0.0
  0
VERTEX
  8
0
 10
70.256126
 20
221.604462
 30
0.0
  0
VERTEX
  8
0
 10
70.895729
 20
221.604462
 30
0.0
  0
VERTEX
  8
0
 10
71.067497
 20
220.856903
 30
0.0
  0
VERTEX
  8
0
 10
71.307068
 20
220.856903
 30
0.0
  0
VERTEX
  8
0
 10
70.701363
 20
223.356903
 30
0.0
  0
VERTEX
  8
0
 10
70.457275
 20
223.356903
 30
0.0
  0
SEQEND
  8
0
  0
POLYLINE
  8
0
 62
     7
 66
     1
 10
0.0
 20
0.0
 30
0.0
 70
     1
 71
     3
  0
VERTEX
  8
0
 10
70.323929
 20
221.896545
 30
0.0
  0
VERTEX
  8
0
 10
70.579315
 20
222.998764
 30
0.0
  0
VERTEX
  8
0
 10
70.830185
 20
221.896545
 30
0.0
  0
SEQEND
  8
0
  0
POLYLINE
  8
0
 62
     7
 66
     1
 10
0.0
 20
0.0
 30
0.0
 70
     1
 71
    19
  0
VERTEX
  8
0
 10
71.974312
 20
220.856903
 30
0.0
  0
VERTEX
  8
0
 10
72.663635
 20
220.856903
 30
0.0
  0
VERTEX
  8
0
 10
72.894165
 20
220.909058
 30
0.0
  0
VERTEX
  8
0
 10
73.065933
 20
221.062042
 30
0.0
  0
VERTEX
  8
0
 10
73.174416
 20
221.295013
 30
0.0
  0
VERTEX
  8
0
 10
73.212837
 20
221.604462
 30
0.0
  0
VERTEX
  8
0
 10
73.190231
 20
221.826996
 30
0.0
  0
VERTEX
  8
0
 10
73.129211
 20
222.004333
 30
0.0
  0
VERTEX
  8
0
 10
73.032028
 20
222.13298
 30
0.0
  0
VERTEX
  8
0
 10
72.903206
 20
222.205994
 30
0.0
  0
VERTEX
  8
0
 10
73.002647
 20
222.292923
 30
0.0
  0
VERTEX
  8
0
 10
73.077232
 20
222.414627
 30
0.0
  0
VERTEX
  8
0
 10
73.120171
 20
222.564133
 30
0.0
  0
VERTEX
  8
0
 10
73.135994
 20
222.748413
 30
0.0
  0
VERTEX
  8
0
 10
73.102097
 20
223.01268
 30
0.0
  0
VERTEX
  8
0
 10
73.007172
 20
223.203918
 30
0.0
  0
VERTEX
  8
0
 10
72.848961
 20
223.318649
 30
0.0
  0
VERTEX
  8
0
 10
72.629738
 20
223.356903
 30
0.0
  0
VERTEX
  8
0
 10
71.974312
 20
223.356903
 30
0.0
  0
SEQEND
  8
0
  0
POLYLINE
  8
0
 62
     7
 66
     1
 10
0.0
 20
0.0
 30
0.0
 70
     1
 71
    11
  0
VERTEX
  8
0
 10
72.195801
 20
221.159409
 30
0.0
  0
VERTEX
  8
0
 10
72.195801
 20
222.028671
 30
0.0
  0
VERTEX
  8
0
 10
72.618439
 20
222.028671
 30
0.0
  0
VERTEX
  8
0
 10
72.7789
 20
222.004333
 30
0.0
  0
VERTEX
  8
0
 10
72.894165
 20
221.927841
 30
0.0
  0
VERTEX
  8
0
 10
72.961967
 20
221.7957
 30
0.0
  0
VERTEX
  8
0
 10
72.986832
 20
221.607941
 30
0.0
  0
VERTEX
  8
0
 10
72.964226
 20
221.413239
 30
0.0
  0
VERTEX
  8
0
 10
72.898682
 20
221.274155
 30
0.0
  0
VERTEX
  8
0
 10
72.790199
 20
221.187225
 30
0.0
  0
VERTEX
  8
0
 10
72.643295
 20
221.159409
 30
0.0
  0
SEQEND
  8
0
  0
POLYLINE
  8
0
 62
     7
 66
     1
 10
0.0
 20
0.0
 30
0.0
 70
     1
 71
    11
  0
VERTEX
  8
0
 10
72.195801
 20
222.306839
 30
0.0
  0
VERTEX
  8
0
 10
72.195801
 20
223.071777
 30
0.0
  0
VERTEX
  8
0
 10
72.600357
 20
223.071777
 30
0.0
  0
VERTEX
  8
0
 10
72.73822
 20
223.04744
 30
0.0
  0
VERTEX
  8
0
 10
72.835403
 20
222.977905
 30
0.0
  0
VERTEX
  8
0
 10
72.894165
 20
222.863159
 30
0.0
  0
VERTEX
  8
0
 10
72.914505
 20
222.699738
 30
0.0
  0
VERTEX
  8
0
 10
72.891907
 20
222.522415
 30
0.0
  0
VERTEX
  8
0
 10
72.830879
 20
222.397232
 30
0.0
  0
VERTEX
  8
0
 10
72.726921
 20
222.327698
 30
0.0
  0
VERTEX
  8
0
 10
72.582275
 20
222.306839
 30
0.0
  0
SEQEND
  8
0
  0
POLYLINE
  8
0
 62
     7
 66
     1
 10
0.0
 20
0.0
 30
0.0
 70
     1
 71
     6
  0
VERTEX
  8
0
 10
73.97049
 20
220.856903
 30
0.0
  0
VERTEX
  8
0
 10
75.003342
 20
220.856903
 30
0.0
  0
VERTEX
  8
0
 10
75.003342
 20
221.173309
 30
0.0
  0
VERTEX
  8
0
 10
74.194229
 20
221.173309
 30
0.0
  0
VERTEX
  8
0
 10
74.194229
 20
223.356903
 30
0.0
  0
VERTEX
  8
0
 10
73.97049
 20
223.356903
 30
0.0
  0
SEQEND
  8
0
  0
POLYLINE
  8
0
 62
     7
 66
     1
 10
0.0
 20
0.0
 30
0.0
 70
     1
 71
    12
  0
VERTEX
  8
0
 10
75.679626
 20
220.856903
 30
0.0
  0
VERTEX
  8
0
 10
76.857132
 20
220.856903
 30
0.0
  0
VERTEX
  8
0
 10
76.857132
 20
221.16983
 30
0.0
  0
VERTEX
  8
0
 10
75.898857
 20
221.16983
 30
0.0
  0
VERTEX
  8
0
 10
75.898857
 20
222.007813
 30
0.0
  0
VERTEX
  8
0
 10
76.766731
 20
222.007813
 30
0.0
  0
VERTEX
  8
0
 10
76.766731
 20
222.299881
 30
0.0
  0
VERTEX
  8
0
 10
75.898857
 20
222.299881
 30
0.0
  0
VERTEX
  8
0
 10
75.898857
 20
223.04744
 30
0.0
  0
VERTEX
  8
0
 10
76.83905
 20
223.04744
 30
0.0
  0
VERTEX
  8
0
 10
76.83905
 20
223.356903
 30
0.0
  0
VERTEX
  8
0
 10
75.679626
 20
223.356903
 30
0.0
  0
SEQEND
  8
0
  0
POLYLINE
  8
0
 62
     7
 66
     1
 10
0.0
 20
0.0
 30
0.0
 70
     1
 71
     8
  0
VERTEX
  8
0
 10
78.562279
 20
220.856903
 30
0.0
  0
VERTEX
  8
0
 10
78.79055
 20
220.856903
 30
0.0
  0
VERTEX
  8
0
 10
78.964577
 20
221.604462
 30
0.0
  0
VERTEX
  8
0
 10
79.604179
 20
221.604462
 30
0.0
  0
VERTEX
  8
0
 10
79.77594
 20
220.856903
 30
0.0
  0
VERTEX
  8
0
 10
80.015511
 20
220.856903
 30
0.0
  0
VERTEX
  8
0
 10
79.409813
 20
223.356903
 30
0.0
  0
VERTEX
  8
0
 10
79.165726
 20
223.356903
 30
0.0
  0
SEQEND
  8
0
  0
POLYLINE
  8
0
 62
     7
 66
     1
 10
0.0
 20
0.0
 30
0.0
 70
     1
 71
     3
  0
VERTEX
  8
0
 10
79.032379
 20
221.896545
 30
0.0
  0
VERTEX
  8
0
 10
79.287766
 20
222.998764
 30
0.0
  0
VERTEX
  8
0
 10
79.538635
 20
221.896545
 30
0.0
  0
SEQEND
  8
0
  0
POLYLINE
  8
0
 62
     7
 66
     1
 10
0.0
 20
0.0
 30
0.0
 70
     1
 71
    30
  0
VERTEX
  8
0
 10
80.682755
 20
223.356903
 30
0.0
  0
VERTEX
  8
0
 10
80.682755
 20
220.856903
 30
0.0
  0
VERTEX
  8
0
 10
80.901985
 20
220.856903
 30
0.0
  0
VERTEX
  8
0
 10
80.901985
 20
221.927841
 30
0.0
  0
VERTEX
  8
0
 10
81.259079
 20
221.927841
 30
0.0
  0
VERTEX
  8
0
 10
81.430847
 20
221.917404
 30
0.0
  0
VERTEX
  8
0
 10
81.537071
 20
221.86525
 30
0.0
  0
VERTEX
  8
0
 10
81.595833
 20
221.747025
 30
0.0
  0
VERTEX
  8
0
 10
81.620697
 20
221.527969
 30
0.0
  0
VERTEX
  8
0
 10
81.634254
 20
221.201126
 30
0.0
  0
VERTEX
  8
0
 10
81.645554
 20
221.002945
 30
0.0
  0
VERTEX
  8
0
 10
81.677193
 20
220.856903
 30
0.0
  0
VERTEX
  8
0
 10
81.932587
 20
220.856903
 30
0.0
  0
VERTEX
  8
0
 10
81.932587
 20
220.926437
 30
0.0
  0
VERTEX
  8
0
 10
81.878342
 20
221.027283
 30
0.0
  0
VERTEX
  8
0
 10
81.858002
 20
221.218521
 30
0.0
  0
VERTEX
  8
0
 10
81.83992
 20
221.628815
 30
0.0
  0
VERTEX
  8
0
 10
81.824097
 20
221.802658
 30
0.0
  0
VERTEX
  8
0
 10
81.794724
 20
221.938263
 30
0.0
  0
VERTEX
  8
0
 10
81.740479
 20
222.03215
 30
0.0
  0
VERTEX
  8
0
 10
81.654594
 20
222.094727
 30
0.0
  0
VERTEX
  8
0
 10
81.749519
 20
222.188614
 30
0.0
  0
VERTEX
  8
0
 10
81.81958
 20
222.317261
 30
0.0
  0
VERTEX
  8
0
 10
81.862518
 20
222.473724
 30
0.0
  0
VERTEX
  8
0
 10
81.878342
 20
222.664963
 30
0.0
  0
VERTEX
  8
0
 10
81.862518
 20
222.85968
 30
0.0
  0
VERTEX
  8
0
 10
81.824097
 20
223.03006
 30
0.0
  0
VERTEX
  8
0
 10
81.668152
 20
223.269974
 30
0.0
  0
VERTEX
  8
0
 10
81.503166
 20
223.343002
 30
0.0
  0
VERTEX
  8
0
 10
81.313324
 20
223.356903
 30
0.0
  0
SEQEND
  8
0
  0
POLYLINE
  8
0
 62
     7
 66
     1
 10
0.0
 20
0.0
 30
0.0
 70
     1
 71
    11
  0
VERTEX
  8
0
 10
80.899727
 20
223.064835
 30
0.0
  0
VERTEX
  8
0
 10
81.277161
 20
223.064835
 30
0.0
  0
VERTEX
  8
0
 10
81.437622
 20
223.04744
 30
0.0
  0
VERTEX
  8
0
 10
81.555153
 20
222.984863
 30
0.0
  0
VERTEX
  8
0
 10
81.625214
 20
222.863159
 30
0.0
  0
VERTEX
  8
0
 10
81.65007
 20
222.65802
 30
0.0
  0
VERTEX
  8
0
 10
81.625214
 20
222.445923
 30
0.0
  0
VERTEX
  8
0
 10
81.557411
 20
222.310318
 30
0.0
  0
VERTEX
  8
0
 10
81.439888
 20
222.237289
 30
0.0
  0
VERTEX
  8
0
 10
81.277161
 20
222.216431
 30
0.0
  0
VERTEX
  8
0
 10
80.899727
 20
222.216431
 30
0.0
  0
SEQEND
  8
0
  0
POLYLINE
  8
0
 62
     7
 66
     1
 10
0.0
 20
0.0
 30
0.0
 70
     1
 71
    12
  0
VERTEX
  8
0
 10
82.683456
 20
220.856903
 30
0.0
  0
VERTEX
  8
0
 10
83.860954
 20
220.856903
 30
0.0
  0
VERTEX
  8
0
 10
83.860954
 20
221.16983
 30
0.0
  0
VERTEX
  8
0
 10
82.902679
 20
221.16983
 30
0.0
  0
VERTEX
  8
0
 10
82.902679
 20
222.007813
 30
0.0
  0
VERTEX
  8
0
 10
83.770554
 20
222.007813
 30
0.0
  0
VERTEX
  8
0
 10
83.770554
 20
222.299881
 30
0.0
  0
VERTEX
  8
0
 10
82.902679
 20
222.299881
 30
0.0
  0
VERTEX
  8
0
 10
82.902679
 20
223.04744
 30
0.0
  0
VERTEX
  8
0
 10
83.842873
 20
223.04744
 30
0.0
  0
VERTEX
  8
0
 10
83.842873
 20
223.356903
 30
0.0
  0
VERTEX
  8
0
 10
82.683456
 20
223.356903
 30
0.0
  0
SEQEND
  8
0
  0
POLYLINE
  8
0
 62
     7
 66
     1
 10
0.0
 20
0.0
 30
0.0
 70
     1
 71
     8
  0
VERTEX
  8
0
 10
84.446838
 20
220.856903
 30
0.0
  0
VERTEX
  8
0
 10
84.67511
 20
220.856903
 30
0.0
  0
VERTEX
  8
0
 10
84.849136
 20
221.604462
 30
0.0
  0
VERTEX
  8
0
 10
85.488739
 20
221.604462
 30
0.0
  0
VERTEX
  8
0
 10
85.660507
 20
220.856903
 30
0.0
  0
VERTEX
  8
0
 10
85.90007
 20
220.856903
 30
0.0
  0
VERTEX
  8
0
 10
85.294373
 20
223.356903
 30
0.0
  0
VERTEX
  8
0
 10
85.050278
 20
223.356903
 30
0.0
  0
SEQEND
  8
0
  0
POLYLINE
  8
0
 62
     7
 66
     1
 10
0.0
 20
0.0
 30
0.0
 70
     1
 71
     3
  0
VERTEX
  8
0
 10
84.916939
 20
221.896545
 30
0.0
  0
VERTEX
  8
0
 10
85.172325
 20
222.998764
 30
0.0
  0
VERTEX
  8
0
 10
85.423195
 20
221.896545
 30
0.0
  0
SEQEND
  8
0
  0
POLYLINE
  8
0
 62
     7
 66
     1
 10
0.0
 20
0.0
 30
0.0
 70
     1
 71
    32
  0
VERTEX
  8
0
 10
58.190929
 20
218.605164
 30
0.0
  0
VERTEX
  8
0
 10
58.202232
 20
218.306137
 30
0.0
  0
VERTEX
  8
0
 10
58.242912
 20
218.045364
 30
0.0
  0
VERTEX
  8
0
 10
58.308456
 20
217.819351
 30
0.0
  0
VERTEX
  8
0
 10
58.396599
 20
217.631592
 30
0.0
  0
VERTEX
  8
0
 10
58.507343
 20
217.482071
 30
0.0
  0
VERTEX
  8
0
 10
58.638428
 20
217.374283
 30
0.0
  0
VERTEX
  8
0
 10
58.789852
 20
217.311707
 30
0.0
  0
VERTEX
  8
0
 10
58.96162
 20
217.287369
 30
0.0
  0
VERTEX
  8
0
 10
59.131126
 20
217.311707
 30
0.0
  0
VERTEX
  8
0
 10
59.282551
 20
217.374283
 30
0.0
  0
VERTEX
  8
0
 10
59.413635
 20
217.482071
 30
0.0
  0
VERTEX
  8
0
 10
59.52438
 20
217.631592
 30
0.0
  0
VERTEX
  8
0
 10
59.612522
 20
217.819351
 30
0.0
  0
VERTEX
  8
0
 10
59.675804
 20
218.045364
 30
0.0
  0
VERTEX
  8
0
 10
59.714226
 20
218.306137
 30
0.0
  0
VERTEX
  8
0
 10
59.730049
 20
218.605164
 30
0.0
  0
VERTEX
  8
0
 10
59.716488
 20
218.900711
 30
0.0
  0
VERTEX
  8
0
 10
59.675804
 20
219.161499
 30
0.0
  0
VERTEX
  8
0
 10
59.610264
 20
219.387497
 30
0.0
  0
VERTEX
  8
0
 10
59.52438
 20
219.575256
 30
0.0
  0
VERTEX
  8
0
 10
59.413635
 20
219.724777
 30
0.0
  0
VERTEX
  8
0
 10
59.282551
 20
219.832565
 30
0.0
  0
VERTEX
  8
0
 10
59.131126
 20
219.898621
 30
0.0
  0
VERTEX
  8
0
 10
58.96162
 20
219.922974
 30
0.0
  0
VERTEX
  8
0
 10
58.789852
 20
219.898621
 30
0.0
  0
VERTEX
  8
0
 10
58.638428
 20
219.832565
 30
0.0
  0
VERTEX
  8
0
 10
58.507343
 20
219.724777
 30
0.0
  0
VERTEX
  8
0
 10
58.396599
 20
219.575256
 30
0.0
  0
VERTEX
  8
0
 10
58.308456
 20
219.387497
 30
0.0
  0
VERTEX
  8
0
 10
58.242912
 20
219.161499
 30
0.0
  0
VERTEX
  8
0
 10
58.202232
 20
218.900711
 30
0.0
  0
SEQEND
  8
0
  0
POLYLINE
  8
0
 62
     7
 66
     1
 10
0.0
 20
0.0
 30
0.0
 70
     1
 71
    16
  0
VERTEX
  8
0
 10
58.419201
 20
218.605164
 30
0.0
  0
VERTEX
  8
0
 10
58.45536
 20
219.036316
 30
0.0
  0
VERTEX
  8
0
 10
58.563847
 20
219.35968
 30
0.0
  0
VERTEX
  8
0
 10
58.735611
 20
219.557877
 30
0.0
  0
VERTEX
  8
0
 10
58.96162
 20
219.627411
 30
0.0
  0
VERTEX
  8
0
 10
59.185368
 20
219.557877
 30
0.0
  0
VERTEX
  8
0
 10
59.357136
 20
219.35968
 30
0.0
  0
VERTEX
  8
0
 10
59.46336
 20
219.036316
 30
0.0
  0
VERTEX
  8
0
 10
59.501781
 20
218.605164
 30
0.0
  0
VERTEX
  8
0
 10
59.46336
 20
218.170532
 30
0.0
  0
VERTEX
  8
0
 10
59.357136
 20
217.847168
 30
0.0
  0
VERTEX
  8
0
 10
59.185368
 20
217.648972
 30
0.0
  0
VERTEX
  8
0
 10
58.96162
 20
217.582916
 30
0.0
  0
VERTEX
  8
0
 10
58.735611
 20
217.648972
 30
0.0
  0
VERTEX
  8
0
 10
58.563847
 20
217.847168
 30
0.0
  0
VERTEX
  8
0
 10
58.45536
 20
218.170532
 30
0.0
  0
SEQEND
  8
0
  0
POLYLINE
  8
0
 62
     7
 66
     1
 10
0.0
 20
0.0
 30
0.0
 70
     1
 71
    12
  0
VERTEX
  8
0
 10
60.505779
 20
217.356903
 30
0.0
  0
VERTEX
  8
0
 10
60.715965
 20
217.356903
 30
0.0
  0
VERTEX
  8
0
 10
60.715965
 20
219.384018
 30
0.0
  0
VERTEX
  8
0
 10
60.776989
 20
219.199738
 30
0.0
  0
VERTEX
  8
0
 10
61.552197
 20
217.356903
 30
0.0
  0
VERTEX
  8
0
 10
61.791767
 20
217.356903
 30
0.0
  0
VERTEX
  8
0
 10
61.791767
 20
219.856903
 30
0.0
  0
VERTEX
  8
0
 10
61.581577
 20
219.856903
 30
0.0
  0
VERTEX
  8
0
 10
61.581577
 20
217.829788
 30
0.0
  0
VERTEX
  8
0
 10
61.506996
 20
218.041885
 30
0.0
  0
VERTEX
  8
0
 10
60.747608
 20
219.856903
 30
0.0
  0
VERTEX
  8
0
 10
60.505779
 20
219.856903
 30
0.0
  0
SEQEND
  8
0
  0
POLYLINE
  8
0
 62
     7
 66
     1
 10
0.0
 20
0.0
 30
0.0
 70
     1
 71
     6
  0
VERTEX
  8
0
 10
62.637558
 20
217.356903
 30
0.0
  0
VERTEX
  8
0
 10
63.670418
 20
217.356903
 30
0.0
  0
VERTEX
  8
0
 10
63.670418
 20
217.673309
 30
0.0
  0
VERTEX
  8
0
 10
62.861305
 20
217.673309
 30
0.0
  0
VERTEX
  8
0
 10
62.861305
 20
219.856903
 30
0.0
  0
VERTEX
  8
0
 10
62.637558
 20
219.856903
 30
0.0
  0
SEQEND
  8
0
  0
POLYLINE
  8
0
 62
     7
 66
     1
 10
0.0
 20
0.0
 30
0.0
 70
     1
 71
     9
  0
VERTEX
  8
0
 10
64.977264
 20
217.356903
 30
0.0
  0
VERTEX
  8
0
 10
64.977264
 20
218.382629
 30
0.0
  0
VERTEX
  8
0
 10
65.555847
 20
219.856903
 30
0.0
  0
VERTEX
  8
0
 10
65.295937
 20
219.856903
 30
0.0
  0
VERTEX
  8
0
 10
64.864265
 20
218.674713
 30
0.0
  0
VERTEX
  8
0
 10
64.430328
 20
219.856903
 30
0.0
  0
VERTEX
  8
0
 10
64.152336
 20
219.856903
 30
0.0
  0
VERTEX
  8
0
 10
64.755775
 20
218.358292
 30
0.0
  0
VERTEX
  8
0
 10
64.755775
 20
217.356903
 30
0.0
  0
SEQEND
  8
0
  0
POLYLINE
  8
0
 62
     7
 66
     1
 10
0.0
 20
0.0
 30
0.0
 70
     1
 71
    10
  0
VERTEX
  8
0
 10
67.328796
 20
217.356903
 30
0.0
  0
VERTEX
  8
0
 10
67.550285
 20
217.356903
 30
0.0
  0
VERTEX
  8
0
 10
67.550285
 20
218.486938
 30
0.0
  0
VERTEX
  8
0
 10
68.309669
 20
218.486938
 30
0.0
  0
VERTEX
  8
0
 10
68.309669
 20
218.792923
 30
0.0
  0
VERTEX
  8
0
 10
67.550285
 20
218.792923
 30
0.0
  0
VERTEX
  8
0
 10
67.550285
 20
219.543976
 30
0.0
  0
VERTEX
  8
0
 10
68.420418
 20
219.543976
 30
0.0
  0
VERTEX
  8
0
 10
68.420418
 20
219.856903
 30
0.0
  0
VERTEX
  8
0
 10
67.328796
 20
219.856903
 30
0.0
  0
SEQEND
  8
0
  0
POLYLINE
  8
0
 62
     7
 66
     1
 10
0.0
 20
0.0
 30
0.0
 70
     1
 71
    32
  0
VERTEX
  8
0
 10
69.076363
 20
218.605164
 30
0.0
  0
VERTEX
  8
0
 10
69.087662
 20
218.306137
 30
0.0
  0
VERTEX
  8
0
 10
69.128342
 20
218.045364
 30
0.0
  0
VERTEX
  8
0
 10
69.193886
 20
217.819351
 30
0.0
  0
VERTEX
  8
0
 10
69.282028
 20
217.631592
 30
0.0
  0
VERTEX
  8
0
 10
69.392776
 20
217.482071
 30
0.0
  0
VERTEX
  8
0
 10
69.523857
 20
217.374283
 30
0.0
  0
VERTEX
  8
0
 10
69.675285
 20
217.311707
 30
0.0
  0
VERTEX
  8
0
 10
69.847054
 20
217.287369
 30
0.0
  0
VERTEX
  8
0
 10
70.016556
 20
217.311707
 30
0.0
  0
VERTEX
  8
0
 10
70.167984
 20
217.374283
 30
0.0
  0
VERTEX
  8
0
 10
70.299065
 20
217.482071
 30
0.0
  0
VERTEX
  8
0
 10
70.409813
 20
217.631592
 30
0.0
  0
VERTEX
  8
0
 10
70.497955
 20
217.819351
 30
0.0
  0
VERTEX
  8
0
 10
70.561234
 20
218.045364
 30
0.0
  0
VERTEX
  8
0
 10
70.599655
 20
218.306137
 30
0.0
  0
VERTEX
  8
0
 10
70.615479
 20
218.605164
 30
0.0
  0
VERTEX
  8
0
 10
70.601921
 20
218.900711
 30
0.0
  0
VERTEX
  8
0
 10
70.561234
 20
219.161499
 30
0.0
  0
VERTEX
  8
0
 10
70.495697
 20
219.387497
 30
0.0
  0
VERTEX
  8
0
 10
70.409813
 20
219.575256
 30
0.0
  0
VERTEX
  8
0
 10
70.299065
 20
219.724777
 30
0.0
  0
VERTEX
  8
0
 10
70.167984
 20
219.832565
 30
0.0
  0
VERTEX
  8
0
 10
70.016556
 20
219.898621
 30
0.0
  0
VERTEX
  8
0
 10
69.847054
 20
219.922974
 30
0.0
  0
VERTEX
  8
0
 10
69.675285
 20
219.898621
 30
0.0
  0
VERTEX
  8
0
 10
69.523857
 20
219.832565
 30
0.0
  0
VERTEX
  8
0
 10
69.392776
 20
219.724777
 30
0.0
  0
VERTEX
  8
0
 10
69.282028
 20
219.575256
 30
0.0
  0
VERTEX
  8
0
 10
69.193886
 20
219.387497
 30
0.0
  0
VERTEX
  8
0
 10
69.128342
 20
219.161499
 30
0.0
  0
VERTEX
  8
0
 10
69.087662
 20
218.900711
 30
0.0
  0
SEQEND
  8
0
  0
POLYLINE
  8
0
 62
     7
 66
     1
 10
0.0
 20
0.0
 30
0.0
 70
     1
 71
    16
  0
VERTEX
  8
0
 10
69.304634
 20
218.605164
 30
0.0
  0
VERTEX
  8
0
 10
69.34079
 20
219.036316
 30
0.0
  0
VERTEX
  8
0
 10
69.44928
 20
219.35968
 30
0.0
  0
VERTEX
  8
0
 10
69.62104
 20
219.557877
 30
0.0
  0
VERTEX
  8
0
 10
69.847054
 20
219.627411
 30
0.0
  0
VERTEX
  8
0
 10
70.070801
 20
219.557877
 30
0.0
  0
VERTEX
  8
0
 10
70.242569
 20
219.35968
 30
0.0
  0
VERTEX
  8
0
 10
70.348785
 20
219.036316
 30
0.0
  0
VERTEX
  8
0
 10
70.387207
 20
218.605164
 30
0.0
  0
VERTEX
  8
0
 10
70.348785
 20
218.170532
 30
0.0
  0
VERTEX
  8
0
 10
70.242569
 20
217.847168
 30
0.0
  0
VERTEX
  8
0
 10
70.070801
 20
217.648972
 30
0.0
  0
VERTEX
  8
0
 10
69.847054
 20
217.582916
 30
0.0
  0
VERTEX
  8
0
 10
69.62104
 20
217.648972
 30
0.0
  0
VERTEX
  8
0
 10
69.44928
 20
217.847168
 30
0.0
  0
VERTEX
  8
0
 10
69.34079
 20
218.170532
 30
0.0
  0
SEQEND
  8
0
  0
POLYLINE
  8
0
 62
     7
 66
     1
 10
0.0
 20
0.0
 30
0.0
 70
     1
 71
    30
  0
VERTEX
  8
0
 10
71.393471
 20
219.856903
 30
0.0
  0
VERTEX
  8
0
 10
71.393471
 20
217.356903
 30
0.0
  0
VERTEX
  8
0
 10
71.612701
 20
217.356903
 30
0.0
  0
VERTEX
  8
0
 10
71.612701
 20
218.427841
 30
0.0
  0
VERTEX
  8
0
 10
71.969788
 20
218.427841
 30
0.0
  0
VERTEX
  8
0
 10
72.141556
 20
218.417404
 30
0.0
  0
VERTEX
  8
0
 10
72.24778
 20
218.36525
 30
0.0
  0
VERTEX
  8
0
 10
72.306541
 20
218.247025
 30
0.0
  0
VERTEX
  8
0
 10
72.331406
 20
218.027969
 30
0.0
  0
VERTEX
  8
0
 10
72.344963
 20
217.701126
 30
0.0
  0
VERTEX
  8
0
 10
72.356262
 20
217.502945
 30
0.0
  0
VERTEX
  8
0
 10
72.387909
 20
217.356903
 30
0.0
  0
VERTEX
  8
0
 10
72.643295
 20
217.356903
 30
0.0
  0
VERTEX
  8
0
 10
72.643295
 20
217.426437
 30
0.0
  0
VERTEX
  8
0
 10
72.58905
 20
217.527283
 30
0.0
  0
VERTEX
  8
0
 10
72.56871
 20
217.718521
 30
0.0
  0
VERTEX
  8
0
 10
72.550629
 20
218.128815
 30
0.0
  0
VERTEX
  8
0
 10
72.534813
 20
218.302658
 30
0.0
  0
VERTEX
  8
0
 10
72.505432
 20
218.438263
 30
0.0
  0
VERTEX
  8
0
 10
72.451187
 20
218.53215
 30
0.0
  0
VERTEX
  8
0
 10
72.365303
 20
218.594727
 30
0.0
  0
VERTEX
  8
0
 10
72.460228
 20
218.688614
 30
0.0
  0
VERTEX
  8
0
 10
72.530289
 20
218.817261
 30
0.0
  0
VERTEX
  8
0
 10
72.573235
 20
218.973724
 30
0.0
  0
VERTEX
  8
0
 10
72.58905
 20
219.164963
 30
0.0
  0
VERTEX
  8
0
 10
72.573235
 20
219.35968
 30
0.0
  0
VERTEX
  8
0
 10
72.534813
 20
219.53006
 30
0.0
  0
VERTEX
  8
0
 10
72.378868
 20
219.769974
 30
0.0
  0
VERTEX
  8
0
 10
72.213882
 20
219.843002
 30
0.0
  0
VERTEX
  8
0
 10
72.024033
 20
219.856903
 30
0.0
  0
SEQEND
  8
0
  0
POLYLINE
  8
0
 62
     7
 66
     1
 10
0.0
 20
0.0
 30
0.0
 70
     1
 71
    11
  0
VERTEX
  8
0
 10
71.610435
 20
219.564835
 30
0.0
  0
VERTEX
  8
0
 10
71.987869
 20
219.564835
 30
0.0
  0
VERTEX
  8
0
 10
72.148338
 20
219.54744
 30
0.0
  0
VERTEX
  8
0
 10
72.265862
 20
219.484863
 30
0.0
  0
VERTEX
  8
0
 10
72.335922
 20
219.363159
 30
0.0
  0
VERTEX
  8
0
 10
72.360786
 20
219.15802
 30
0.0
  0
VERTEX
  8
0
 10
72.335922
 20
218.945923
 30
0.0
  0
VERTEX
  8
0
 10
72.26812
 20
218.810318
 30
0.0
  0
VERTEX
  8
0
 10
72.150597
 20
218.737289
 30
0.0
  0
VERTEX
  8
0
 10
71.987869
 20
218.716431
 30
0.0
  0
VERTEX
  8
0
 10
71.610435
 20
218.716431
 30
0.0
  0
SEQEND
  8
0
  0
POLYLINE
  8
0
 62
     7
 66
     1
 10
0.0
 20
0.0
 30
0.0
 70
     1
 71
     4
  0
VERTEX
  8
0
 10
74.517944
 20
217.356903
 30
0.0
  0
VERTEX
  8
0
 10
74.739433
 20
217.356903
 30
0.0
  0
VERTEX
  8
0
 10
74.739433
 20
219.856903
 30
0.0
  0
VERTEX
  8
0
 10
74.517944
 20
219.856903
 30
0.0
  0
SEQEND
  8
0
  0
POLYLINE
  8
0
 62
     7
 66
     1
 10
0.0
 20
0.0
 30
0.0
 70
     1
 71
    12
  0
VERTEX
  8
0
 10
75.59201
 20
217.356903
 30
0.0
  0
VERTEX
  8
0
 10
75.8022
 20
217.356903
 30
0.0
  0
VERTEX
  8
0
 10
75.8022
 20
219.384018
 30
0.0
  0
VERTEX
  8
0
 10
75.86322
 20
219.199738
 30
0.0
  0
VERTEX
  8
0
 10
76.638428
 20
217.356903
 30
0.0
  0
VERTEX
  8
0
 10
76.877998
 20
217.356903
 30
0.0
  0
VERTEX
  8
0
 10
76.877998
 20
219.856903
 30
0.0
  0
VERTEX
  8
0
 10
76.667809
 20
219.856903
 30
0.0
  0
VERTEX
  8
0
 10
76.667809
 20
217.829788
 30
0.0
  0
VERTEX
  8
0
 10
76.593224
 20
218.041885
 30
0.0
  0
VERTEX
  8
0
 10
75.833839
 20
219.856903
 30
0.0
  0
VERTEX
  8
0
 10
75.59201
 20
219.856903
 30
0.0
  0
SEQEND
  8
0
  0
POLYLINE
  8
0
 62
     7
 66
     1
 10
0.0
 20
0.0
 30
0.0
 70
     1
 71
    10
  0
VERTEX
  8
0
 10
77.723785
 20
217.356903
 30
0.0
  0
VERTEX
  8
0
 10
77.945282
 20
217.356903
 30
0.0
  0
VERTEX
  8
0
 10
77.945282
 20
218.486938
 30
0.0
  0
VERTEX
  8
0
 10
78.704666
 20
218.486938
 30
0.0
  0
VERTEX
  8
0
 10
78.704666
 20
218.792923
 30
0.0
  0
VERTEX
  8
0
 10
77.945282
 20
218.792923
 30
0.0
  0
VERTEX
  8
0
 10
77.945282
 20
219.543976
 30
0.0
  0
VERTEX
  8
0
 10
78.815407
 20
219.543976
 30
0.0
  0
VERTEX
  8
0
 10
78.815407
 20
219.856903
 30
0.0
  0
VERTEX
  8
0
 10
77.723785
 20
219.856903
 30
0.0
  0
SEQEND
  8
0
  0
POLYLINE
  8
0
 62
     7
 66
     1
 10
0.0
 20
0.0
 30
0.0
 70
     1
 71
    32
  0
VERTEX
  8
0
 10
79.471359
 20
218.605164
 30
0.0
  0
VERTEX
  8
0
 10
79.482658
 20
218.306137
 30
0.0
  0
VERTEX
  8
0
 10
79.523338
 20
218.045364
 30
0.0
  0
VERTEX
  8
0
 10
79.588882
 20
217.819351
 30
0.0
  0
VERTEX
  8
0
 10
79.677025
 20
217.631592
 30
0.0
  0
VERTEX
  8
0
 10
79.787766
 20
217.482071
 30
0.0
  0
VERTEX
  8
0
 10
79.918854
 20
217.374283
 30
0.0
  0
VERTEX
  8
0
 10
80.070282
 20
217.311707
 30
0.0
  0
VERTEX
  8
0
 10
80.242043
 20
217.287369
 30
0.0
  0
VERTEX
  8
0
 10
80.411552
 20
217.311707
 30
0.0
  0
VERTEX
  8
0
 10
80.562973
 20
217.374283
 30
0.0
  0
VERTEX
  8
0
 10
80.694061
 20
217.482071
 30
0.0
  0
VERTEX
  8
0
 10
80.804802
 20
217.631592
 30
0.0
  0
VERTEX
  8
0
 10
80.892944
 20
217.819351
 30
0.0
  0
VERTEX
  8
0
 10
80.95623
 20
218.045364
 30
0.0
  0
VERTEX
  8
0
 10
80.994652
 20
218.306137
 30
0.0
  0
VERTEX
  8
0
 10
81.010468
 20
218.605164
 30
0.0
  0
VERTEX
  8
0
 10
80.99691
 20
218.900711
 30
0.0
  0
VERTEX
  8
0
 10
80.95623
 20
219.161499
 30
0.0
  0
VERTEX
  8
0
 10
80.890686
 20
219.387497
 30
0.0
  0
VERTEX
  8
0
 10
80.804802
 20
219.575256
 30
0.0
  0
VERTEX
  8
0
 10
80.694061
 20
219.724777
 30
0.0
  0
VERTEX
  8
0
 10
80.562973
 20
219.832565
 30
0.0
  0
VERTEX
  8
0
 10
80.411552
 20
219.898621
 30
0.0
  0
VERTEX
  8
0
 10
80.242043
 20
219.922974
 30
0.0
  0
VERTEX
  8
0
 10
80.070282
 20
219.898621
 30
0.0
  0
VERTEX
  8
0
 10
79.918854
 20
219.832565
 30
0.0
  0
VERTEX
  8
0
 10
79.787766
 20
219.724777
 30
0.0
  0
VERTEX
  8
0
 10
79.677025
 20
219.575256
 30
0.0
  0
VERTEX
  8
0
 10
79.588882
 20
219.387497
 30
0.0
  0
VERTEX
  8
0
 10
79.523338
 20
219.161499
 30
0.0
  0
VERTEX
  8
0
 10
79.482658
 20
218.900711
 30
0.0
  0
SEQEND
  8
0
  0
POLYLINE
  8
0
 62
     7
 66
     1
 10
0.0
 20
0.0
 30
0.0
 70
     1
 71
    16
  0
VERTEX
  8
0
 10
79.699623
 20
218.605164
 30
0.0
  0
VERTEX
  8
0
 10
79.735786
 20
219.036316
 30
0.0
  0
VERTEX
  8
0
 10
79.844269
 20
219.35968
 30
0.0
  0
VERTEX
  8
0
 10
80.016037
 20
219.557877
 30
0.0
  0
VERTEX
  8
0
 10
80.242043
 20
219.627411
 30
0.0
  0
VERTEX
  8
0
 10
80.46579
 20
219.557877
 30
0.0
  0
VERTEX
  8
0
 10
80.637558
 20
219.35968
 30
0.0
  0
VERTEX
  8
0
 10
80.743782
 20
219.036316
 30
0.0
  0
VERTEX
  8
0
 10
80.782204
 20
218.605164
 30
0.0
  0
VERTEX
  8
0
 10
80.743782
 20
218.170532
 30
0.0
  0
VERTEX
  8
0
 10
80.637558
 20
217.847168
 30
0.0
  0
VERTEX
  8
0
 10
80.46579
 20
217.648972
 30
0.0
  0
VERTEX
  8
0
 10
80.242043
 20
217.582916
 30
0.0
  0
VERTEX
  8
0
 10
80.016037
 20
217.648972
 30
0.0
  0
VERTEX
  8
0
 10
79.844269
 20
217.847168
 30
0.0
  0
VERTEX
  8
0
 10
79.735786
 20
218.170532
 30
0.0
  0
SEQEND
  8
0
  0
POLYLINE
  8
0
 62
     7
 66
     1
 10
0.0
 20
0.0
 30
0.0
 70
     1
 71
    30
  0
VERTEX
  8
0
 10
81.788467
 20
219.856903
 30
0.0
  0
VERTEX
  8
0
 10
81.788467
 20
217.356903
 30
0.0
  0
VERTEX
  8
0
 10
82.00769
 20
217.356903
 30
0.0
  0
VERTEX
  8
0
 10
82.00769
 20
218.427841
 30
0.0
  0
VERTEX
  8
0
 10
82.364784
 20
218.427841
 30
0.0
  0
VERTEX
  8
0
 10
82.536552
 20
218.417404
 30
0.0
  0
VERTEX
  8
0
 10
82.642776
 20
218.36525
 30
0.0
  0
VERTEX
  8
0
 10
82.701538
 20
218.247025
 30
0.0
  0
VERTEX
  8
0
 10
82.726395
 20
218.027969
 30
0.0
  0
VERTEX
  8
0
 10
82.73996
 20
217.701126
 30
0.0
  0
VERTEX
  8
0
 10
82.751259
 20
217.502945
 30
0.0
  0
VERTEX
  8
0
 10
82.782898
 20
217.356903
 30
0.0
  0
VERTEX
  8
0
 10
83.038292
 20
217.356903
 30
0.0
  0
VERTEX
  8
0
 10
83.038292
 20
217.426437
 30
0.0
  0
VERTEX
  8
0
 10
82.984047
 20
217.527283
 30
0.0
  0
VERTEX
  8
0
 10
82.963707
 20
217.718521
 30
0.0
  0
VERTEX
  8
0
 10
82.945625
 20
218.128815
 30
0.0
  0
VERTEX
  8
0
 10
82.92981
 20
218.302658
 30
0.0
  0
VERTEX
  8
0
 10
82.900421
 20
218.438263
 30
0.0
  0
VERTEX
  8
0
 10
82.846184
 20
218.53215
 30
0.0
  0
VERTEX
  8
0
 10
82.7603
 20
218.594727
 30
0.0
  0
VERTEX
  8
0
 10
82.855225
 20
218.688614
 30
0.0
  0
VERTEX
  8
0
 10
82.925285
 20
218.817261
 30
0.0
  0
VERTEX
  8
0
 10
82.968231
 20
218.973724
 30
0.0
  0
VERTEX
  8
0
 10
82.984047
 20
219.164963
 30
0.0
  0
VERTEX
  8
0
 10
82.968231
 20
219.35968
 30
0.0
  0
VERTEX
  8
0
 10
82.92981
 20
219.53006
 30
0.0
  0
VERTEX
  8
0
 10
82.773857
 20
219.769974
 30
0.0
  0
VERTEX
  8
0
 10
82.608871
 20
219.843002
 30
0.0
  0
VERTEX
  8
0
 10
82.419029
 20
219.856903
 30
0.0
  0
SEQEND
  8
0
  0
POLYLINE
  8
0
 62
     7
 66
     1
 10
0.0
 20
0.0
 30
0.0
 70
     1
 71
    11
  0
VERTEX
  8
0
 10
82.005432
 20
219.564835
 30
0.0
  0
VERTEX
  8
0
 10
82.382866
 20
219.564835
 30
0.0
  0
VERTEX
  8
0
 10
82.543335
 20
219.54744
 30
0.0
  0
VERTEX
  8
0
 10
82.660858
 20
219.484863
 30
0.0
  0
VERTEX
  8
0
 10
82.730919
 20
219.363159
 30
0.0
  0
VERTEX
  8
0
 10
82.755783
 20
219.15802
 30
0.0
  0
VERTEX
  8
0
 10
82.730919
 20
218.945923
 30
0.0
  0
VERTEX
  8
0
 10
82.663116
 20
218.810318
 30
0.0
  0
VERTEX
  8
0
 10
82.545593
 20
218.737289
 30
0.0
  0
VERTEX
  8
0
 10
82.382866
 20
218.716431
 30
0.0
  0
VERTEX
  8
0
 10
82.005432
 20
218.716431
 30
0.0
  0
SEQEND
  8
0
  0
POLYLINE
  8
0
 62
     7
 66
     1
 10
0.0
 20
0.0
 30
0.0
 70
     1
 71
    17
  0
VERTEX
  8
0
 10
83.992569
 20
219.488342
 30
0.0
  0
VERTEX
  8
0
 10
84.028725
 20
219.269287
 30
0.0
  0
VERTEX
  8
0
 10
84.437805
 20
217.356903
 30
0.0
  0
VERTEX
  8
0
 10
84.645729
 20
217.356903
 30
0.0
  0
VERTEX
  8
0
 10
85.063843
 20
219.269287
 30
0.0
  0
VERTEX
  8
0
 10
85.102264
 20
219.488342
 30
0.0
  0
VERTEX
  8
0
 10
85.102264
 20
217.356903
 30
0.0
  0
VERTEX
  8
0
 10
85.316971
 20
217.356903
 30
0.0
  0
VERTEX
  8
0
 10
85.316971
 20
219.856903
 30
0.0
  0
VERTEX
  8
0
 10
85.000565
 20
219.856903
 30
0.0
  0
VERTEX
  8
0
 10
84.582443
 20
217.944519
 30
0.0
  0
VERTEX
  8
0
 10
84.546288
 20
217.73938
 30
0.0
  0
VERTEX
  8
0
 10
84.507866
 20
217.944519
 30
0.0
  0
VERTEX
  8
0
 10
84.105568
 20
219.856903
 30
0.0
  0
VERTEX
  8
0
 10
83.789154
 20
219.856903
 30
0.0
  0
VERTEX
  8
0
 10
83.789154
 20
217.356903
 30
0.0
  0
VERTEX
  8
0
 10
83.992569
 20
217.356903
 30
0.0
  0
SEQEND
  8
0
  0
POLYLINE
  8
0
 62
     7
 66
     1
 10
0.0
 20
0.0
 30
0.0
 70
     1
 71
     8
  0
VERTEX
  8
0
 10
85.984222
 20
217.356903
 30
0.0
  0
VERTEX
  8
0
 10
86.212494
 20
217.356903
 30
0.0
  0
VERTEX
  8
0
 10
86.38652
 20
218.104462
 30
0.0
  0
VERTEX
  8
0
 10
87.026123
 20
218.104462
 30
0.0
  0
VERTEX
  8
0
 10
87.197884
 20
217.356903
 30
0.0
  0
VERTEX
  8
0
 10
87.437454
 20
217.356903
 30
0.0
  0
VERTEX
  8
0
 10
86.831757
 20
219.856903
 30
0.0
  0
VERTEX
  8
0
 10
86.587662
 20
219.856903
 30
0.0
  0
SEQEND
  8
0
  0
POLYLINE
  8
0
 62
     7
 66
     1
 10
0.0
 20
0.0
 30
0.0
 70
     1
 71
     3
  0
VERTEX
  8
0
 10
86.454315
 20
218.396545
 30
0.0
  0
VERTEX
  8
0
 10
86.709709
 20
219.498764
 30
0.0
  0
VERTEX
  8
0
 10
86.960579
 20
218.396545
 30
0.0
  0
SEQEND
  8
0
  0
POLYLINE
  8
0
 62
     7
 66
     1
 10
0.0
 20
0.0
 30
0.0
 70
     1
 71
     8
  0
VERTEX
  8
0
 10
88.46405
 20
217.356903
 30
0.0
  0
VERTEX
  8
0
 10
88.685539
 20
217.356903
 30
0.0
  0
VERTEX
  8
0
 10
88.685539
 20
219.554398
 30
0.0
  0
VERTEX
  8
0
 10
89.198578
 20
219.554398
 30
0.0
  0
VERTEX
  8
0
 10
89.198578
 20
219.856903
 30
0.0
  0
VERTEX
  8
0
 10
87.951012
 20
219.856903
 30
0.0
  0
VERTEX
  8
0
 10
87.951012
 20
219.554398
 30
0.0
  0
VERTEX
  8
0
 10
88.46405
 20
219.554398
 30
0.0
  0
SEQEND
  8
0
  0
POLYLINE
  8
0
 62
     7
 66
     1
 10
0.0
 20
0.0
 30
0.0
 70
     1
 71
     4
  0
VERTEX
  8
0
 10
89.899727
 20
217.356903
 30
0.0
  0
VERTEX
  8
0
 10
90.121216
 20
217.356903
 30
0.0
  0
VERTEX
  8
0
 10
90.121216
 20
219.856903
 30
0.0
  0
VERTEX
  8
0
 10
89.899727
 20
219.856903
 30
0.0
  0
SEQEND
  8
0
  0
POLYLINE
  8
0
 62
     7
 66
     1
 10
0.0
 20
0.0
 30
0.0
 70
     1
 71
    32
  0
VERTEX
  8
0
 10
90.905991
 20
218.605164
 30
0.0
  0
VERTEX
  8
0
 10
90.91729
 20
218.306137
 30
0.0
  0
VERTEX
  8
0
 10
90.95797
 20
218.045364
 30
0.0
  0
VERTEX
  8
0
 10
91.023514
 20
217.819351
 30
0.0
  0
VERTEX
  8
0
 10
91.111656
 20
217.631592
 30
0.0
  0
VERTEX
  8
0
 10
91.222397
 20
217.482071
 30
0.0
  0
VERTEX
  8
0
 10
91.353485
 20
217.374283
 30
0.0
  0
VERTEX
  8
0
 10
91.504913
 20
217.311707
 30
0.0
  0
VERTEX
  8
0
 10
91.676682
 20
217.287369
 30
0.0
  0
VERTEX
  8
0
 10
91.846184
 20
217.311707
 30
0.0
  0
VERTEX
  8
0
 10
91.997604
 20
217.374283
 30
0.0
  0
VERTEX
  8
0
 10
92.128693
 20
217.482071
 30
0.0
  0
VERTEX
  8
0
 10
92.239441
 20
217.631592
 30
0.0
  0
VERTEX
  8
0
 10
92.327576
 20
217.819351
 30
0.0
  0
VERTEX
  8
0
 10
92.390862
 20
218.045364
 30
0.0
  0
VERTEX
  8
0
 10
92.429283
 20
218.306137
 30
0.0
  0
VERTEX
  8
0
 10
92.445107
 20
218.605164
 30
0.0
  0
VERTEX
  8
0
 10
92.431549
 20
218.900711
 30
0.0
  0
VERTEX
  8
0
 10
92.390862
 20
219.161499
 30
0.0
  0
VERTEX
  8
0
 10
92.325317
 20
219.387497
 30
0.0
  0
VERTEX
  8
0
 10
92.239441
 20
219.575256
 30
0.0
  0
VERTEX
  8
0
 10
92.128693
 20
219.724777
 30
0.0
  0
VERTEX
  8
0
 10
91.997604
 20
219.832565
 30
0.0
  0
VERTEX
  8
0
 10
91.846184
 20
219.898621
 30
0.0
  0
VERTEX
  8
0
 10
91.676682
 20
219.922974
 30
0.0
  0
VERTEX
  8
0
 10
91.504913
 20
219.898621
 30
0.0
  0
VERTEX
  8
0
 10
91.353485
 20
219.832565
 30
0.0
  0
VERTEX
  8
0
 10
91.222397
 20
219.724777
 30
0.0
  0
VERTEX
  8
0
 10
91.111656
 20
219.575256
 30
0.0
  0
VERTEX
  8
0
 10
91.023514
 20
219.387497
 30
0.0
  0
VERTEX
  8
0
 10
90.95797
 20
219.161499
 30
0.0
  0
VERTEX
  8
0
 10
90.91729
 20
218.900711
 30
0.0
  0
SEQEND
  8
0
  0
POLYLINE
  8
0
 62
     7
 66
     1
 10
0.0
 20
0.0
 30
0.0
 70
     1
 71
    16
  0
VERTEX
  8
0
 10
91.134262
 20
218.605164
 30
0.0
  0
VERTEX
  8
0
 10
91.170418
 20
219.036316
 30
0.0
  0
VERTEX
  8
0
 10
91.2789
 20
219.35968
 30
0.0
  0
VERTEX
  8
0
 10
91.450668
 20
219.557877
 30
0.0
  0
VERTEX
  8
0
 10
91.676682
 20
219.627411
 30
0.0
  0
VERTEX
  8
0
 10
91.900421
 20
219.557877
 30
0.0
  0
VERTEX
  8
0
 10
92.072189
 20
219.35968
 30
0.0
  0
VERTEX
  8
0
 10
92.178421
 20
219.036316
 30
0.0
  0
VERTEX
  8
0
 10
92.216843
 20
218.605164
 30
0.0
  0
VERTEX
  8
0
 10
92.178421
 20
218.170532
 30
0.0
  0
VERTEX
  8
0
 10
92.072189
 20
217.847168
 30
0.0
  0
VERTEX
  8
0
 10
91.900421
 20
217.648972
 30
0.0
  0
VERTEX
  8
0
 10
91.676682
 20
217.582916
 30
0.0
  0
VERTEX
  8
0
 10
91.450668
 20
217.648972
 30
0.0
  0
VERTEX
  8
0
 10
91.2789
 20
217.847168
 30
0.0
  0
VERTEX
  8
0
 10
91.170418
 20
218.170532
 30
0.0
  0
SEQEND
  8
0
  0
POLYLINE
  8
0
 62
     7
 66
     1
 10
0.0
 20
0.0
 30
0.0
 70
     1
 71
    12
  0
VERTEX
  8
0
 10
93.22084
 20
217.356903
 30
0.0
  0
VERTEX
  8
0
 10
93.431023
 20
217.356903
 30
0.0
  0
VERTEX
  8
0
 10
93.431023
 20
219.384018
 30
0.0
  0
VERTEX
  8
0
 10
93.49205
 20
219.199738
 30
0.0
  0
VERTEX
  8
0
 10
94.267258
 20
217.356903
 30
0.0
  0
VERTEX
  8
0
 10
94.506821
 20
217.356903
 30
0.0
  0
VERTEX
  8
0
 10
94.506821
 20
219.856903
 30
0.0
  0
VERTEX
  8
0
 10
94.296631
 20
219.856903
 30
0.0
  0
VERTEX
  8
0
 10
94.296631
 20
217.829788
 30
0.0
  0
VERTEX
  8
0
 10
94.222054
 20
218.041885
 30
0.0
  0
VERTEX
  8
0
 10
93.462662
 20
219.856903
 30
0.0
  0
VERTEX
  8
0
 10
93.22084
 20
219.856903
 30
0.0
  0
SEQEND
  8
0
  0
LINE
  8
0
 62
     7
 10
91.736969
 20
109.190147
 30
0.0
 11
91.736969
 21
109.986313
 31
0.0
210
0.0
220
0.0
230
1.0
  0
ARC
  8
0
 62
     7
 10
93.486969
 20
109.986313
 30
0.0
 40
1.75
 50
120.949727
 51
180.000005
210
0.0
220
0.0
230
1.0
  0
LINE
  8
0
 62
     7
 10
92.586967
 20
120.346313
 30
0.0
 11
92.586967
 21
111.487152
 31
0.0
210
0.0
220
0.0
230
1.0
  0
LINE
  8
0
 62
     7
 10
92.586967
 20
120.346313
 30
0.0
 11
116.586967
 21
120.346313
 31
0.0
210
0.0
220
0.0
230
1.0
  0
LINE
  8
0
 62
     7
 10
116.586967
 20
120.346313
 30
0.0
 11
116.586967
 21
111.487152
 31
0.0
210
0.0
220
0.0
230
1.0
  0
ARC
  8
0
 62
     7
 10
115.686966
 20
109.986313
 30
0.0
 40
1.75
 50
0.0
 51
59.050278
210
0.0
220
0.0
230
1.0
  0
LINE
  8
0
 62
     7
 10
117.436966
 20
107.536316
 30
0.0
 11
117.436966
 21
109.986313
 31
0.0
210
0.0
220
0.0
230
1.0
  0
LINE
  8
0
 62
     7
 10
120.194145
 20
107.536316
 30
0.0
 11
117.436966
 21
107.536316
 31
0.0
210
0.0
220
0.0
230
1.0
  0
LINE
  8
0
 62
     7
 10
104.586967
 20
107.536316
 30
0.0
 11
117.436966
 21
107.536316
 31
0.0
210
0.0
220
0.0
230
1.0
  0
LINE
  8
0
 62
     7
 10
135.404663
 20
107.536316
 30
0.0
 11
123.286972
 21
107.536316
 31
0.0
210
0.0
220
0.0
230
1.0
  0
ARC
  8
0
 62
     7
 10
135.404663
 20
106.036316
 30
0.0
 40
1.5
 50
56.442689
 51
73.597638
210
0.0
220
0.0
230
1.0
  0
ARC
  8
0
 62
     7
 10
135.404663
 20
106.036316
 30
0.0
 40
1.5
 50
73.597638
 51
90.000003
210
0.0
220
0.0
230
1.0
  0
LINE
  8
0
 62
     7
 10
135.828232
 20
107.475273
 30
0.0
 11
135.386917
 21
107.705383
 31
0.0
210
0.0
220
0.0
230
1.0
  0
LINE
  8
0
 62
     7
 10
141.486649
 20
124.469032
 30
0.0
 11
141.497482
 21
127.438828
 31
0.0
210
0.0
220
0.0
230
1.0
  0
LINE
  8
0
 62
     7
 10
144.373398
 20
128.724518
 30
0.0
 11
142.709778
 21
131.035431
 31
0.0
210
0.0
220
0.0
230
1.0
  0
LINE
  8
0
 62
     7
 10
142.709778
 20
131.035431
 30
0.0
 11
142.477219
 21
131.35849
 31
0.0
210
0.0
220
0.0
230
1.0
  0
LINE
  8
0
 62
     7
 10
141.486649
 20
154.569031
 30
0.0
 11
141.497482
 21
157.538834
 31
0.0
210
0.0
220
0.0
230
1.0
  0
LINE
  8
0
 62
     7
 10
142.709778
 20
161.135437
 30
0.0
 11
144.373398
 21
158.824524
 31
0.0
210
0.0
220
0.0
230
1.0
  0
LINE
  8
0
 62
     7
 10
142.709778
 20
161.135437
 30
0.0
 11
142.477219
 21
161.458496
 31
0.0
210
0.0
220
0.0
230
1.0
  0
LINE
  8
0
 62
     7
 10
142.385834
 20
163.067795
 30
0.0
 11
148.351227
 21
173.719788
 31
0.0
210
0.0
220
0.0
230
1.0
  0
LINE
  8
0
 62
     7
 10
148.351227
 20
173.719788
 30
0.0
 11
150.292236
 21
177.185699
 31
0.0
210
0.0
220
0.0
230
1.0
  0
LINE
  8
0
 62
     7
 10
141.486649
 20
184.669037
 30
0.0
 11
141.497482
 21
187.638824
 31
0.0
210
0.0
220
0.0
230
1.0
  0
LINE
  8
0
 62
     7
 10
144.373398
 20
188.92453
 30
0.0
 11
142.709778
 21
191.235443
 31
0.0
210
0.0
220
0.0
230
1.0
  0
LINE
  8
0
 62
     7
 10
142.709778
 20
191.235443
 30
0.0
 11
142.67157
 21
191.288513
 31
0.0
210
0.0
220
0.0
230
1.0
  0
ARC
  8
0
 62
     7
 10
144.085007
 20
191.79071
 30
0.0
 40
1.5
 50
163.750001
 51
199.560496
210
0.0
220
0.0
230
1.0
  0
LINE
  8
0
 62
     7
 10
143.508026
 20
195.171631
 30
0.0
 11
142.644928
 21
192.210464
 31
0.0
210
0.0
220
0.0
230
1.0
  0
LINE
  8
0
 62
     7
 10
143.508026
 20
195.171631
 30
0.0
 11
146.586975
 21
200.669464
 31
0.0
210
0.0
220
0.0
230
1.0
  0
LINE
  8
0
 62
     7
 10
65.665909
 20
195.171631
 30
0.0
 11
66.529007
 21
192.210464
 31
0.0
210
0.0
220
0.0
230
1.0
  0
ARC
  8
0
 62
     7
 10
65.088928
 20
191.79071
 30
0.0
 40
1.5
 50
340.439504
 51
16.25
210
0.0
220
0.0
230
1.0
  0
LINE
  8
0
 62
     7
 10
66.464149
 20
191.235443
 30
0.0
 11
67.676453
 21
187.638824
 31
0.0
210
0.0
220
0.0
230
1.0
  0
LINE
  8
0
 62
     7
 10
67.687286
 20
184.669037
 30
0.0
 11
73.787018
 21
167.90538
 31
0.0
210
0.0
220
0.0
230
1.0
  0
LINE
  8
0
 62
     7
 10
73.787018
 20
167.90538
 30
0.0
 11
72.401001
 21
167.182663
 31
0.0
210
0.0
220
0.0
230
1.0
  0
LINE
  8
0
 62
     7
 10
72.401001
 20
167.182663
 30
0.0
 11
68.033661
 21
169.797302
 31
0.0
210
0.0
220
0.0
230
1.0
  0
LINE
  8
0
 62
     7
 10
68.033661
 20
169.797302
 30
0.0
 11
64.937775
 21
172.88031
 31
0.0
210
0.0
220
0.0
230
1.0
  0
LINE
  8
0
 62
     7
 10
64.937775
 20
172.88031
 30
0.0
 11
63.986431
 21
175.491547
 31
0.0
210
0.0
220
0.0
230
1.0
  0
LINE
  8
0
 62
     7
 10
63.986431
 20
175.491547
 30
0.0
 11
60.822708
 21
173.719788
 31
0.0
210
0.0
220
0.0
230
1.0
  0
LINE
  8
0
 62
     7
 10
66.464149
 20
161.135437
 30
0.0
 11
67.676453
 21
157.538834
 31
0.0
210
0.0
220
0.0
230
1.0
  0
LINE
  8
0
 62
     7
 10
67.687286
 20
154.569031
 30
0.0
 11
73.787018
 21
137.805389
 31
0.0
210
0.0
220
0.0
230
1.0
  0
LINE
  8
0
 62
     7
 10
73.787018
 20
137.805389
 30
0.0
 11
72.401001
 21
137.082657
 31
0.0
210
0.0
220
0.0
230
1.0
  0
LINE
  8
0
 62
     7
 10
72.401001
 20
137.082657
 30
0.0
 11
68.033661
 21
139.697311
 31
0.0
210
0.0
220
0.0
230
1.0
  0
LINE
  8
0
 62
     7
 10
68.033661
 20
139.697311
 30
0.0
 11
64.937775
 21
142.780304
 31
0.0
210
0.0
220
0.0
230
1.0
  0
LINE
  8
0
 62
     7
 10
64.937775
 20
142.780304
 30
0.0
 11
63.986431
 21
145.391541
 31
0.0
210
0.0
220
0.0
230
1.0
  0
LINE
  8
0
 62
     7
 10
63.986431
 20
145.391541
 30
0.0
 11
60.822708
 21
143.619781
 31
0.0
210
0.0
220
0.0
230
1.0
  0
LINE
  8
0
 62
     7
 10
60.822708
 20
143.619781
 30
0.0
 11
58.881695
 21
147.085709
 31
0.0
210
0.0
220
0.0
230
1.0
  0
LINE
  8
0
 62
     7
 10
60.822708
 20
143.619781
 30
0.0
 11
66.788101
 21
132.967804
 31
0.0
210
0.0
220
0.0
230
1.0
  0
LINE
  8
0
 62
     7
 10
66.464149
 20
131.035431
 30
0.0
 11
67.676453
 21
127.438828
 31
0.0
210
0.0
220
0.0
230
1.0
  0
LINE
  8
0
 62
     7
 10
72.176834
 20
112.130577
 30
0.0
 11
68.920258
 21
121.08049
 31
0.0
210
0.0
220
0.0
230
1.0
  0
LINE
  8
0
 62
     7
 10
72.176834
 20
112.130577
 30
0.0
 11
73.787018
 21
107.705383
 31
0.0
210
0.0
220
0.0
230
1.0
  0
LINE
  8
0
 62
     7
 10
67.687286
 20
124.469032
 30
0.0
 11
68.920258
 21
121.08049
 31
0.0
210
0.0
220
0.0
230
1.0
  0
ARC
  8
0
 62
     7
 10
73.769279
 20
106.036316
 30
0.0
 40
1.5
 50
106.402367
 51
123.557316
210
0.0
220
0.0
230
1.0
  0
ARC
  8
0
 62
     7
 10
73.769279
 20
106.036316
 30
0.0
 40
1.5
 50
90.000003
 51
106.402367
210
0.0
220
0.0
230
1.0
  0
LINE
  8
0
 62
     7
 10
150.292236
 20
116.98571
 30
0.0
 11
142.090775
 21
121.578751
 31
0.0
210
0.0
220
0.0
230
1.0
  0
ARC
  8
0
 62
     7
 10
142.823715
 20
122.887489
 30
0.0
 40
1.5
 50
150.750007
 51
240.750006
210
0.0
220
0.0
230
1.0
  0
LINE
  8
0
 62
     7
 10
144.373398
 20
128.724518
 30
0.0
 11
141.514969
 21
123.620422
 31
0.0
210
0.0
220
0.0
230
1.0
  0
LINE
  8
0
 62
     7
 10
150.292236
 20
147.085709
 30
0.0
 11
142.090775
 21
151.678741
 31
0.0
210
0.0
220
0.0
230
1.0
  0
ARC
  8
0
 62
     7
 10
142.823715
 20
152.987488
 30
0.0
 40
1.5
 50
150.750007
 51
240.750006
210
0.0
220
0.0
230
1.0
  0
LINE
  8
0
 62
     7
 10
144.373398
 20
158.824524
 30
0.0
 11
141.514969
 21
153.720428
 31
0.0
210
0.0
220
0.0
230
1.0
  0
LINE
  8
0
 62
     7
 10
150.292236
 20
177.185699
 30
0.0
 11
142.090775
 21
181.778748
 31
0.0
210
0.0
220
0.0
230
1.0
  0
ARC
  8
0
 62
     7
 10
142.823715
 20
183.087494
 30
0.0
 40
1.5
 50
150.750007
 51
240.750006
210
0.0
220
0.0
230
1.0
  0
LINE
  8
0
 62
     7
 10
144.373398
 20
188.92453
 30
0.0
 11
141.514969
 21
183.820435
 31
0.0
210
0.0
220
0.0
230
1.0
  0
LINE
  8
0
 62
     7
 10
64.800537
 20
188.92453
 30
0.0
 11
67.658966
 21
183.820435
 31
0.0
210
0.0
220
0.0
230
1.0
  0
ARC
  8
0
 62
     7
 10
66.35022
 20
183.087494
 30
0.0
 40
1.5
 50
299.250003
 51
29.249998
210
0.0
220
0.0
230
1.0
  0
LINE
  8
0
 62
     7
 10
58.881695
 20
177.185699
 30
0.0
 11
67.08316
 21
181.778748
 31
0.0
210
0.0
220
0.0
230
1.0
  0
LINE
  8
0
 62
     7
 10
64.800537
 20
158.824524
 30
0.0
 11
67.658966
 21
153.720428
 31
0.0
210
0.0
220
0.0
230
1.0
  0
ARC
  8
0
 62
     7
 10
66.35022
 20
152.987488
 30
0.0
 40
1.5
 50
299.250003
 51
29.249998
210
0.0
220
0.0
230
1.0
  0
LINE
  8
0
 62
     7
 10
58.881695
 20
147.085709
 30
0.0
 11
67.08316
 21
151.678741
 31
0.0
210
0.0
220
0.0
230
1.0
  0
LINE
  8
0
 62
     7
 10
64.800537
 20
128.724518
 30
0.0
 11
67.658966
 21
123.620422
 31
0.0
210
0.0
220
0.0
230
1.0
  0
ARC
  8
0
 62
     7
 10
66.35022
 20
122.887489
 30
0.0
 40
1.5
 50
299.250003
 51
29.249998
210
0.0
220
0.0
230
1.0
  0
LINE
  8
0
 62
     7
 10
58.881695
 20
116.98571
 30
0.0
 11
67.08316
 21
121.578751
 31
0.0
210
0.0
220
0.0
230
1.0
  0
LINE
  8
0
 62
     7
 10
91.796509
 20
109.049347
 30
0.0
 11
92.347206
 21
107.536316
 31
0.0
210
0.0
220
0.0
230
1.0
  0
ARC
  8
0
 62
     7
 10
90.386971
 20
108.536316
 30
0.0
 40
1.5
 50
20.000001
 51
25.841934
210
0.0
220
0.0
230
1.0
  0
LINE
  8
0
 62
     7
 10
104.586967
 20
107.536316
 30
0.0
 11
92.347206
 21
107.536316
 31
0.0
210
0.0
220
0.0
230
1.0
  0
ARC
  8
0
 62
     7
 10
139.586975
 20
107.036316
 30
0.0
 40
1.5
 50
99.808543
 51
142.007979
210
0.0
220
0.0
230
1.0
  0
LINE
  8
0
 62
     7
 10
148.586975
 20
113.549301
 30
0.0
 11
148.586975
 21
113.387756
 31
0.0
210
0.0
220
0.0
230
1.0
  0
ARC
  8
0
 62
     7
 10
150.086975
 20
113.549301
 30
0.0
 40
1.5
 50
150.750007
 51
179.999995
210
0.0
220
0.0
230
1.0
  0
LINE
  8
0
 62
     7
 10
150.292236
 20
116.98571
 30
0.0
 11
148.778229
 21
114.282234
 31
0.0
210
0.0
220
0.0
230
1.0
  0
ARC
  8
0
 62
     7
 10
137.062973
 20
108.536316
 30
0.0
 40
1.5
 50
236.442684
 51
263.034222
210
0.0
220
0.0
230
1.0
  0
LINE
  8
0
 62
     7
 10
140.936966
 20
206.536316
 30
0.0
 11
140.936966
 21
204.736313
 31
0.0
210
0.0
220
0.0
230
1.0
  0
ARC
  8
0
 62
     7
 10
142.136963
 20
204.736313
 30
0.0
 40
1.2
 50
221.409615
 51
318.59038
210
0.0
220
0.0
230
1.0
  0
LINE
  8
0
 62
     7
 10
141.236969
 20
203.942596
 30
0.0
 11
141.236969
 21
202.536316
 31
0.0
210
0.0
220
0.0
230
1.0
  0
LINE
  8
0
 62
     7
 10
66.136963
 20
206.536316
 30
0.0
 11
67.936966
 21
206.536316
 31
0.0
210
0.0
220
0.0
230
1.0
  0
LINE
  8
0
 62
     7
 10
74.686966
 20
113.536316
 30
0.0
 11
74.686966
 21
120.036316
 31
0.0
210
0.0
220
0.0
230
1.0
  0
LINE
  8
0
 62
     7
 10
136.881058
 20
107.047386
 30
0.0
 11
138.404816
 21
107.959641
 31
0.0
210
0.0
220
0.0
230
1.0
  0
LINE
  8
0
 62
     7
 10
139.331436
 20
108.514389
 30
0.0
 11
141.140274
 21
109.597313
 31
0.0
210
0.0
220
0.0
230
1.0
  0
LINE
  8
0
 62
     7
 10
141.140274
 20
109.597313
 30
0.0
 11
144.23616
 21
112.680313
 31
0.0
210
0.0
220
0.0
230
1.0
  0
LINE
  8
0
 62
     7
 10
144.23616
 20
112.680313
 30
0.0
 11
145.1875
 21
115.29155
 31
0.0
210
0.0
220
0.0
230
1.0
  0
LINE
  8
0
 62
     7
 10
145.1875
 20
115.29155
 30
0.0
 11
148.586975
 21
113.387756
 31
0.0
210
0.0
220
0.0
230
1.0
  0
LINE
  8
0
 62
     7
 10
148.586975
 20
108.536316
 30
0.0
 11
139.586975
 21
108.536316
 31
0.0
210
0.0
220
0.0
230
1.0
  0
ARC
  8
0
 62
     7
 10
59.086967
 20
113.549301
 30
0.0
 40
1.5
 50
360.0
 51
29.249998
210
0.0
220
0.0
230
1.0
  0
LINE
  8
0
 62
     7
 10
69.586967
 20
108.536316
 30
0.0
 11
60.586967
 21
108.536316
 31
0.0
210
0.0
220
0.0
230
1.0
  0
ARC
  8
0
 62
     7
 10
137.062973
 20
108.536316
 30
0.0
 40
1.5
 50
263.034222
 51
305.352602
210
0.0
220
0.0
230
1.0
  0
ARC
  8
0
 62
     7
 10
137.410126
 20
108.046951
 30
0.0
 40
0.9
 50
305.352602
 51
335.096053
210
0.0
220
0.0
230
1.0
  0
ARC
  8
0
 62
     7
 10
139.586975
 20
107.036316
 30
0.0
 40
1.5
 50
142.007979
 51
155.096056
210
0.0
220
0.0
230
1.0
  0
LINE
  8
0
 62
     7
 10
148.586975
 20
113.387756
 30
0.0
 11
148.586975
 21
108.536316
 31
0.0
210
0.0
220
0.0
230
1.0
  0
ARC
  8
0
 62
     7
 10
139.586975
 20
107.036316
 30
0.0
 40
1.5
 50
90.000003
 51
99.808543
210
0.0
220
0.0
230
1.0
  0
ARC
  8
0
 62
     7
 10
69.586967
 20
107.036316
 30
0.0
 40
1.5
 50
80.191455
 51
90.000003
210
0.0
220
0.0
230
1.0
  0
LINE
  8
0
 62
     7
 10
69.842499
 20
108.514389
 30
0.0
 11
68.033661
 21
109.597313
 31
0.0
210
0.0
220
0.0
230
1.0
  0
LINE
  8
0
 62
     7
 10
68.033661
 20
109.597313
 30
0.0
 11
64.937775
 21
112.680313
 31
0.0
210
0.0
220
0.0
230
1.0
  0
LINE
  8
0
 62
     7
 10
64.937775
 20
112.680313
 30
0.0
 11
63.986431
 21
115.29155
 31
0.0
210
0.0
220
0.0
230
1.0
  0
LINE
  8
0
 62
     7
 10
63.986431
 20
115.29155
 30
0.0
 11
60.586967
 21
113.387756
 31
0.0
210
0.0
220
0.0
230
1.0
  0
LINE
  8
0
 62
     7
 10
60.586967
 20
113.387756
 30
0.0
 11
60.586967
 21
108.536316
 31
0.0
210
0.0
220
0.0
230
1.0
  0
LINE
  8
0
 62
     7
 10
72.292877
 20
107.047386
 30
0.0
 11
70.769112
 21
107.959641
 31
0.0
210
0.0
220
0.0
230
1.0
  0
ARC
  8
0
 62
     7
 10
69.586967
 20
107.036316
 30
0.0
 40
1.5
 50
24.903947
 51
37.992026
210
0.0
220
0.0
230
1.0
  0
ARC
  8
0
 62
     7
 10
71.763802
 20
108.046951
 30
0.0
 40
0.9
 50
204.903944
 51
234.647396
210
0.0
220
0.0
230
1.0
  0
ARC
  8
0
 62
     7
 10
72.110962
 20
108.536316
 30
0.0
 40
1.5
 50
234.647396
 51
276.96578
210
0.0
220
0.0
230
1.0
  0
LINE
  8
0
 62
     7
 10
134.486969
 20
113.536316
 30
0.0
 11
134.486969
 21
120.036316
 31
0.0
210
0.0
220
0.0
230
1.0
  0
LINE
  8
0
 62
     7
 10
136.997101
 20
112.130577
 30
0.0
 11
140.253677
 21
121.08049
 31
0.0
210
0.0
220
0.0
230
1.0
  0
LINE
  8
0
 62
     7
 10
60.586967
 20
113.549301
 30
0.0
 11
60.586967
 21
113.387756
 31
0.0
210
0.0
220
0.0
230
1.0
  0
ARC
  8
0
 62
     7
 10
69.586967
 20
107.036316
 30
0.0
 40
1.5
 50
37.992026
 51
80.191455
210
0.0
220
0.0
230
1.0
  0
ARC
  8
0
 62
     7
 10
72.110962
 20
108.536316
 30
0.0
 40
1.5
 50
276.96578
 51
303.557311
210
0.0
220
0.0
230
1.0
  0
LINE
  8
0
 62
     7
 10
64.800537
 20
128.724518
 30
0.0
 11
66.464149
 21
131.035431
 31
0.0
210
0.0
220
0.0
230
1.0
  0
LINE
  8
0
 62
     7
 10
58.881695
 20
116.98571
 30
0.0
 11
60.39571
 21
114.282234
 31
0.0
210
0.0
220
0.0
230
1.0
  0
LINE
  8
0
 62
     7
 10
66.464149
 20
161.135437
 30
0.0
 11
64.800537
 21
158.824524
 31
0.0
210
0.0
220
0.0
230
1.0
  0
LINE
  8
0
 62
     7
 10
64.800537
 20
188.92453
 30
0.0
 11
66.464149
 21
191.235443
 31
0.0
210
0.0
220
0.0
230
1.0
  0
LINE
  8
0
 62
     7
 10
60.822708
 20
173.719788
 30
0.0
 11
58.881695
 21
177.185699
 31
0.0
210
0.0
220
0.0
230
1.0
  0
LINE
  8
0
 62
     7
 10
67.936966
 20
206.536316
 30
0.0
 11
67.936966
 21
202.536316
 31
0.0
210
0.0
220
0.0
230
1.0
  0
LINE
  8
0
 62
     7
 10
104.586967
 20
206.536316
 30
0.0
 11
140.936966
 21
206.536316
 31
0.0
210
0.0
220
0.0
230
1.0
  0
LINE
  8
0
 62
     7
 10
148.351227
 20
143.619781
 30
0.0
 11
150.292236
 21
147.085709
 31
0.0
210
0.0
220
0.0
230
1.0
  0
ARC
  8
0
 62
     7
 10
90.386971
 20
108.536316
 30
0.0
 40
1.5
 50
25.841934
 51
90.000003
210
0.0
220
0.0
230
1.0
  0
LINE
  8
0
 62
     7
 10
73.345711
 20
107.475273
 30
0.0
 11
73.787018
 21
107.705383
 31
0.0
210
0.0
220
0.0
230
1.0
  0
LINE
  8
0
 62
     7
 10
72.176834
 20
112.130577
 30
0.0
 11
74.686966
 21
113.536316
 31
0.0
210
0.0
220
0.0
230
1.0
  0
LINE
  8
0
 62
     7
 10
74.686966
 20
113.536316
 30
0.0
 11
74.686966
 21
113.528267
 31
0.0
210
0.0
220
0.0
230
1.0
  0
LINE
  8
0
 62
     7
 10
76.486969
 20
120.036316
 30
0.0
 11
74.686966
 21
120.036316
 31
0.0
210
0.0
220
0.0
230
1.0
  0
LINE
  8
0
 62
     7
 10
74.686966
 20
120.036316
 30
0.0
 11
74.686966
 21
124.310005
 31
0.0
210
0.0
220
0.0
230
1.0
  0
LINE
  8
0
 62
     7
 10
74.686966
 20
124.310005
 30
0.0
 11
68.920258
 21
121.08049
 31
0.0
210
0.0
220
0.0
230
1.0
  0
LINE
  8
0
 62
     7
 10
67.687286
 20
124.469032
 30
0.0
 11
67.676453
 21
127.438828
 31
0.0
210
0.0
220
0.0
230
1.0
  0
LINE
  8
0
 62
     7
 10
66.464149
 20
131.035431
 30
0.0
 11
66.696716
 21
131.35849
 31
0.0
210
0.0
220
0.0
230
1.0
  0
ARC
  8
0
 62
     7
 10
65.479355
 20
132.234863
 30
0.0
 40
1.5
 50
324.250001
 51
29.249998
210
0.0
220
0.0
230
1.0
  0
LINE
  8
0
 62
     7
 10
67.687286
 20
154.569031
 30
0.0
 11
67.676453
 21
157.538834
 31
0.0
210
0.0
220
0.0
230
1.0
  0
LINE
  8
0
 62
     7
 10
66.464149
 20
161.135437
 30
0.0
 11
66.696716
 21
161.458496
 31
0.0
210
0.0
220
0.0
230
1.0
  0
ARC
  8
0
 62
     7
 10
65.479355
 20
162.334869
 30
0.0
 40
1.5
 50
324.250001
 51
29.249998
210
0.0
220
0.0
230
1.0
  0
LINE
  8
0
 62
     7
 10
66.788101
 20
163.067795
 30
0.0
 11
60.822708
 21
173.719788
 31
0.0
210
0.0
220
0.0
230
1.0
  0
LINE
  8
0
 62
     7
 10
67.687286
 20
184.669037
 30
0.0
 11
67.676453
 21
187.638824
 31
0.0
210
0.0
220
0.0
230
1.0
  0
LINE
  8
0
 62
     7
 10
66.464149
 20
191.235443
 30
0.0
 11
66.502365
 21
191.288513
 31
0.0
210
0.0
220
0.0
230
1.0
  0
LINE
  8
0
 62
     7
 10
65.665909
 20
195.171631
 30
0.0
 11
62.586967
 21
200.669464
 31
0.0
210
0.0
220
0.0
230
1.0
  0
LINE
  8
0
 62
     7
 10
142.686966
 20
196.93631
 30
0.0
 11
66.486969
 21
196.93631
 31
0.0
210
0.0
220
0.0
230
1.0
  0
LINE
  8
0
 62
     7
 10
142.709778
 20
191.235443
 30
0.0
 11
141.497482
 21
187.638824
 31
0.0
210
0.0
220
0.0
230
1.0
  0
LINE
  8
0
 62
     7
 10
141.486649
 20
184.669037
 30
0.0
 11
135.386917
 21
167.90538
 31
0.0
210
0.0
220
0.0
230
1.0
  0
LINE
  8
0
 62
     7
 10
135.386917
 20
167.90538
 30
0.0
 11
136.772934
 21
167.182663
 31
0.0
210
0.0
220
0.0
230
1.0
  0
LINE
  8
0
 62
     7
 10
136.772934
 20
167.182663
 30
0.0
 11
141.140274
 21
169.797302
 31
0.0
210
0.0
220
0.0
230
1.0
  0
LINE
  8
0
 62
     7
 10
141.140274
 20
169.797302
 30
0.0
 11
144.23616
 21
172.88031
 31
0.0
210
0.0
220
0.0
230
1.0
  0
LINE
  8
0
 62
     7
 10
144.23616
 20
172.88031
 30
0.0
 11
145.1875
 21
175.491547
 31
0.0
210
0.0
220
0.0
230
1.0
  0
LINE
  8
0
 62
     7
 10
145.1875
 20
175.491547
 30
0.0
 11
148.351227
 21
173.719788
 31
0.0
210
0.0
220
0.0
230
1.0
  0
ARC
  8
0
 62
     7
 10
143.69458
 20
162.334869
 30
0.0
 40
1.5
 50
150.750007
 51
215.749997
210
0.0
220
0.0
230
1.0
  0
LINE
  8
0
 62
     7
 10
142.709778
 20
161.135437
 30
0.0
 11
141.497482
 21
157.538834
 31
0.0
210
0.0
220
0.0
230
1.0
  0
LINE
  8
0
 62
     7
 10
141.486649
 20
154.569031
 30
0.0
 11
135.386917
 21
137.805389
 31
0.0
210
0.0
220
0.0
230
1.0
  0
LINE
  8
0
 62
     7
 10
135.386917
 20
137.805389
 30
0.0
 11
136.772934
 21
137.082657
 31
0.0
210
0.0
220
0.0
230
1.0
  0
LINE
  8
0
 62
     7
 10
136.772934
 20
137.082657
 30
0.0
 11
141.140274
 21
139.697311
 31
0.0
210
0.0
220
0.0
230
1.0
  0
LINE
  8
0
 62
     7
 10
141.140274
 20
139.697311
 30
0.0
 11
144.23616
 21
142.780304
 31
0.0
210
0.0
220
0.0
230
1.0
  0
LINE
  8
0
 62
     7
 10
144.23616
 20
142.780304
 30
0.0
 11
145.1875
 21
145.391541
 31
0.0
210
0.0
220
0.0
230
1.0
  0
LINE
  8
0
 62
     7
 10
145.1875
 20
145.391541
 30
0.0
 11
148.351227
 21
143.619781
 31
0.0
210
0.0
220
0.0
230
1.0
  0
LINE
  8
0
 62
     7
 10
148.351227
 20
143.619781
 30
0.0
 11
142.385834
 21
132.967804
 31
0.0
210
0.0
220
0.0
230
1.0
  0
ARC
  8
0
 62
     7
 10
143.69458
 20
132.234863
 30
0.0
 40
1.5
 50
150.750007
 51
215.749997
210
0.0
220
0.0
230
1.0
  0
LINE
  8
0
 62
     7
 10
142.709778
 20
131.035431
 30
0.0
 11
141.497482
 21
127.438828
 31
0.0
210
0.0
220
0.0
230
1.0
  0
LINE
  8
0
 62
     7
 10
134.486969
 20
124.310005
 30
0.0
 11
140.253677
 21
121.08049
 31
0.0
210
0.0
220
0.0
230
1.0
  0
LINE
  8
0
 62
     7
 10
134.486969
 20
120.036316
 30
0.0
 11
134.486969
 21
124.310005
 31
0.0
210
0.0
220
0.0
230
1.0
  0
LINE
  8
0
 62
     7
 10
132.686966
 20
120.036316
 30
0.0
 11
134.486969
 21
120.036316
 31
0.0
210
0.0
220
0.0
230
1.0
  0
LINE
  8
0
 62
     7
 10
132.686966
 20
114.536316
 30
0.0
 11
132.686966
 21
120.036316
 31
0.0
210
0.0
220
0.0
230
1.0
  0
LINE
  8
0
 62
     7
 10
134.486969
 20
113.528267
 30
0.0
 11
132.686966
 21
114.536316
 31
0.0
210
0.0
220
0.0
230
1.0
  0
LINE
  8
0
 62
     7
 10
134.486969
 20
113.536316
 30
0.0
 11
134.486969
 21
113.528267
 31
0.0
210
0.0
220
0.0
230
1.0
  0
LINE
  8
0
 62
     7
 10
136.997101
 20
112.130577
 30
0.0
 11
134.486969
 21
113.536316
 31
0.0
210
0.0
220
0.0
230
1.0
  0
LINE
  8
0
 62
     7
 10
141.486649
 20
124.469032
 30
0.0
 11
140.253677
 21
121.08049
 31
0.0
210
0.0
220
0.0
230
1.0
  0
LINE
  8
0
 62
     7
 10
136.997101
 20
112.130577
 30
0.0
 11
135.386917
 21
107.705383
 31
0.0
210
0.0
220
0.0
230
1.0
  0
LINE
  8
0
 62
     7
 10
123.286972
 20
109.736313
 30
0.0
 11
123.286972
 21
107.536316
 31
0.0
210
0.0
220
0.0
230
1.0
  0
ARC
  8
0
 62
     7
 10
122.086967
 20
109.736313
 30
0.0
 40
1.2
 50
0.0
 51
180.000005
210
0.0
220
0.0
230
1.0
  0
LINE
  8
0
 62
     7
 10
120.886963
 20
107.936317
 30
0.0
 11
120.886963
 21
109.736313
 31
0.0
210
0.0
220
0.0
230
1.0
  0
LINE
  8
0
 62
     7
 10
120.886963
 20
107.936317
 30
0.0
 11
120.194145
 21
107.536316
 31
0.0
210
0.0
220
0.0
230
1.0
  0
ARC
  8
0
 62
     7
 10
81.086967
 20
108.536316
 30
0.0
 40
1.5
 50
90.000003
 51
180.000005
210
0.0
220
0.0
230
1.0
  0
LINE
  8
0
 62
     7
 10
76.486969
 20
114.536316
 30
0.0
 11
76.486969
 21
116.036316
 31
0.0
210
0.0
220
0.0
230
1.0
  0
LINE
  8
0
 62
     7
 10
76.486969
 20
116.036316
 30
0.0
 11
76.486969
 21
120.036316
 31
0.0
210
0.0
220
0.0
230
1.0
  0
LINE
  8
0
 62
     7
 10
76.486969
 20
114.536316
 30
0.0
 11
76.086967
 21
114.312302
 31
0.0
210
0.0
220
0.0
230
1.0
  0
LINE
  8
0
 62
     7
 10
74.686966
 20
113.528267
 30
0.0
 11
76.086967
 21
114.312302
 31
0.0
210
0.0
220
0.0
230
1.0
  0
LINE
  8
0
 62
     7
 10
81.086967
 20
110.036316
 30
0.0
 11
90.086967
 21
110.036316
 31
0.0
210
0.0
220
0.0
230
1.0
  0
LINE
  8
0
 62
     7
 10
90.086967
 20
110.036316
 30
0.0
 11
90.386971
 21
110.036316
 31
0.0
210
0.0
220
0.0
230
1.0
  0
LINE
  8
0
 62
     7
 10
73.769279
 20
107.536316
 30
0.0
 11
76.086967
 21
107.536316
 31
0.0
210
0.0
220
0.0
230
1.0
  0
LINE
  8
0
 62
     7
 10
79.586967
 20
107.536316
 30
0.0
 11
76.086967
 21
107.536316
 31
0.0
210
0.0
220
0.0
230
1.0
  0
LINE
  8
0
 62
     7
 10
76.086967
 20
114.312302
 30
0.0
 11
76.086967
 21
107.536316
 31
0.0
210
0.0
220
0.0
230
1.0
  0
LINE
  8
0
 62
     7
 10
79.586967
 20
107.536316
 30
0.0
 11
79.586967
 21
108.536316
 31
0.0
210
0.0
220
0.0
230
1.0
  0
LINE
  8
0
 62
     7
 10
90.086967
 20
110.036316
 30
0.0
 11
90.086967
 21
116.036316
 31
0.0
210
0.0
220
0.0
230
1.0
  0
LINE
  8
0
 62
     7
 10
76.486969
 20
116.036316
 30
0.0
 11
90.086967
 21
116.036316
 31
0.0
210
0.0
220
0.0
230
1.0
  0
LINE
  8
0
 62
     7
 10
142.686966
 20
196.93631
 30
0.0
 11
142.686966
 21
200.886322
 31
0.0
210
0.0
220
0.0
230
1.0
  0
LINE
  8
0
 62
     7
 10
66.486969
 20
200.886322
 30
0.0
 11
66.486969
 21
196.93631
 31
0.0
210
0.0
220
0.0
230
1.0
  0
LINE
  8
0
 62
     7
 10
66.486969
 20
200.886322
 30
0.0
 11
62.586967
 21
200.886322
 31
0.0
210
0.0
220
0.0
230
1.0
  0
LINE
  8
0
 62
     7
 10
62.586967
 20
200.886322
 30
0.0
 11
62.586967
 21
200.669464
 31
0.0
210
0.0
220
0.0
230
1.0
  0
LINE
  8
0
 62
     7
 10
146.586975
 20
200.886322
 30
0.0
 11
146.586975
 21
200.669464
 31
0.0
210
0.0
220
0.0
230
1.0
  0
LINE
  8
0
 62
     7
 10
146.586975
 20
200.886322
 30
0.0
 11
142.686966
 21
200.886322
 31
0.0
210
0.0
220
0.0
230
1.0
  0
LINE
  8
0
 62
     7
 10
143.036972
 20
203.942596
 30
0.0
 11
143.036972
 21
202.536316
 31
0.0
210
0.0
220
0.0
230
1.0
  0
LINE
  8
0
 62
     7
 10
141.736969
 20
202.536316
 30
0.0
 11
143.036972
 21
202.536316
 31
0.0
210
0.0
220
0.0
230
1.0
  0
LINE
  8
0
 62
     7
 10
141.736969
 20
202.536316
 30
0.0
 11
141.236969
 21
202.536316
 31
0.0
210
0.0
220
0.0
230
1.0
  0
LINE
  8
0
 62
     7
 10
67.436966
 20
202.536316
 30
0.0
 11
66.136963
 21
202.536316
 31
0.0
210
0.0
220
0.0
230
1.0
  0
LINE
  8
0
 62
     7
 10
67.436966
 20
202.536316
 30
0.0
 11
67.936966
 21
202.536316
 31
0.0
210
0.0
220
0.0
230
1.0
  0
LINE
  8
0
 62
     7
 10
66.136963
 20
206.536316
 30
0.0
 11
66.136963
 21
202.536316
 31
0.0
210
0.0
220
0.0
230
1.0
  0
LINE
  8
0
 62
     7
 10
67.436966
 20
202.536316
 30
0.0
 11
67.436966
 21
200.886322
 31
0.0
210
0.0
220
0.0
230
1.0
  0
LINE
  8
0
 62
     7
 10
67.436966
 20
200.886322
 30
0.0
 11
66.486969
 21
200.886322
 31
0.0
210
0.0
220
0.0
230
1.0
  0
LINE
  8
0
 62
     7
 10
141.736969
 20
200.886322
 30
0.0
 11
142.686966
 21
200.886322
 31
0.0
210
0.0
220
0.0
230
1.0
  0
LINE
  8
0
 62
     7
 10
141.736969
 20
202.536316
 30
0.0
 11
141.736969
 21
200.886322
 31
0.0
210
0.0
220
0.0
230
1.0
  0
ARC
  8
0
 62
     7
 10
142.136963
 20
204.736313
 30
0.0
 40
1.2
 50
180.000005
 51
221.409615
210
0.0
220
0.0
230
1.0
  0
LINE
  8
0
 62
     7
 10
104.586967
 20
206.536316
 30
0.0
 11
67.936966
 21
206.536316
 31
0.0
210
0.0
220
0.0
230
1.0
  0
LINE
  8
0
 62
     7
 10
62.586967
 20
206.536316
 30
0.0
 11
62.586967
 21
200.886322
 31
0.0
210
0.0
220
0.0
230
1.0
  0
LINE
  8
0
 62
     7
 10
62.586967
 20
206.536316
 30
0.0
 11
66.136963
 21
206.536316
 31
0.0
210
0.0
220
0.0
230
1.0
  0
ARC
  8
0
 62
     7
 10
142.136963
 20
204.736313
 30
0.0
 40
1.2
 50
318.59038
 51
0.0
210
0.0
220
0.0
230
1.0
  0
LINE
  8
0
 62
     7
 10
143.336975
 20
206.536316
 30
0.0
 11
143.336975
 21
204.736313
 31
0.0
210
0.0
220
0.0
230
1.0
  0
LINE
  8
0
 62
     7
 10
143.336975
 20
206.536316
 30
0.0
 11
146.586975
 21
206.536316
 31
0.0
210
0.0
220
0.0
230
1.0
  0
LINE
  8
0
 62
     7
 10
146.586975
 20
200.886322
 30
0.0
 11
146.586975
 21
206.536316
 31
0.0
210
0.0
220
0.0
230
1.0
  0
ENDSEC
  0
EOF
