  0
SECTION
  2
HEADER
  9
$ACADVER
  1
AC1009
  9
$DWGCODEPAGE
  3
ansi_1252
  9
$INSBASE
 10
0.0
 20
0.0
 30
0.0
  9
$EXTMIN
 10
0.0
 20
0.0
 30
0.0
  9
$EXTMAX
 10
155.099152
 20
239.251617
 30
2.0
  9
$LIMMIN
 10
0.0
 20
0.0
  9
$LIMMAX
 10
420.0
 20
297.0
  9
$ORTHOMODE
 70
     0
  9
$REGENMODE
 70
     1
  9
$FILLMODE
 70
     1
  9
$QTEXTMODE
 70
     0
  9
$MIRRTEXT
 70
     1
  9
$DRAGMODE
 70
     2
  9
$LTSCALE
 40
1.0
  9
$OSMODE
 70
     0
  9
$ATTMODE
 70
     1
  9
$TEXTSIZE
 40
2.5
  9
$TRACEWID
 40
1.0
  9
$TEXTSTYLE
  7
STANDARD
  9
$CLAYER
  8
0
  9
$CELTYPE
  6
BYLAYER
  9
$CECOLOR
 62
   256
  9
$DIMSCALE
 40
1.0
  9
$DIMASZ
 40
2.5
  9
$DIMEXO
 40
0.625
  9
$DIMDLI
 40
3.75
  9
$DIMRND
 40
0.0
  9
$DIMDLE
 40
0.0
  9
$DIMEXE
 40
1.25
  9
$DIMTP
 40
0.0
  9
$DIMTM
 40
0.0
  9
$DIMTXT
 40
2.5
  9
$DIMCEN
 40
2.5
  9
$DIMTSZ
 40
0.0
  9
$DIMTOL
 70
     0
  9
$DIMLIM
 70
     0
  9
$DIMTIH
 70
     0
  9
$DIMTOH
 70
     0
  9
$DIMSE1
 70
     0
  9
$DIMSE2
 70
     0
  9
$DIMTAD
 70
     1
  9
$DIMZIN
 70
     8
  9
$DIMBLK
  1

  9
$DIMASO
 70
     1
  9
$DIMSHO
 70
     1
  9
$DIMPOST
  1

  9
$DIMAPOST
  1

  9
$DIMALT
 70
     0
  9
$DIMALTD
 70
     3
  9
$DIMALTF
 40
0.03937
  9
$DIMLFAC
 40
1.0
  9
$DIMTOFL
 70
     1
  9
$DIMTVP
 40
0.0
  9
$DIMTIX
 70
     0
  9
$DIMSOXD
 70
     0
  9
$DIMSAH
 70
     0
  9
$DIMBLK1
  1

  9
$DIMBLK2
  1

  9
$DIMSTYLE
  2

  9
$DIMCLRD
 70
     0
  9
$DIMCLRE
 70
     0
  9
$DIMCLRT
 70
     0
  9
$DIMTFAC
 40
1.0
  9
$DIMGAP
 40
0.625
  9
$LUNITS
 70
     2
  9
$LUPREC
 70
     4
  9
$AXISMODE
 70
     0
  9
$AXISUNIT
 10
0.0
 20
0.0
  9
$SKETCHINC
 40
1.0
  9
$FILLETRAD
 40
2.5
  9
$AUNITS
 70
     0
  9
$AUPREC
 70
     0
  9
$MENU
  1
.
  9
$ELEVATION
 40
0.0
  9
$PELEVATION
 40
0.0
  9
$THICKNESS
 40
0.0
  9
$LIMCHECK
 70
     0
  9
$BLIPMODE
 70
     1
  9
$CHAMFERA
 40
2.5
  9
$CHAMFERB
 40
2.5
  9
$SKPOLY
 70
     0
  9
$TDCREATE
 40
0.000000000
  9
$TDUPDATE
 40
0.000000000
  9
$TDINDWG
 40
0.0000000000
  9
$TDUSRTIMER
 40
0.0000000000
  9
$USRTIMER
 70
     1
  9
$ANGBASE
 50
0.0
  9
$ANGDIR
 70
     0
  9
$PDMODE
 70
     0
  9
$PDSIZE
 40
0.0
  9
$PLINEWID
 40
0.0
  9
$COORDS
 70
     0
  9
$SPLFRAME
 70
     0
  9
$SPLINETYPE
 70
     6
  9
$SPLINESEGS
 70
     8
  9
$ATTDIA
 70
     0
  9
$ATTREQ
 70
     1
  9
$HANDLING
 70
     0
  9
$HANDSEED
  5
3
  9
$SURFTAB1
 70
     6
  9
$SURFTAB2
 70
     6
  9
$SURFTYPE
 70
     6
  9
$SURFU
 70
     6
  9
$SURFV
 70
     6
  9
$UCSNAME
  2

  9
$UCSORG
 10
0.0
 20
0.0
 30
0.0
  9
$UCSXDIR
 10
1.0
 20
0.0
 30
0.0
  9
$UCSYDIR
 10
0.0
 20
1.0
 30
0.0
  9
$PUCSNAME
  2

  9
$PUCSORG
 10
0.0
 20
0.0
 30
0.0
  9
$PUCSXDIR
 10
1.0
 20
0.0
 30
0.0
  9
$PUCSYDIR
 10
0.0
 20
1.0
 30
0.0
  9
$USERI1
 70
     0
  9
$USERI2
 70
     0
  9
$USERI3
 70
     0
  9
$USERI4
 70
     0
  9
$USERI5
 70
     0
  9
$USERR1
 40
0.0
  9
$USERR2
 40
0.0
  9
$USERR3
 40
0.0
  9
$USERR4
 40
0.0
  9
$USERR5
 40
0.0
  9
$WORLDVIEW
 70
     1
  9
$SHADEDGE
 70
     3
  9
$SHADEDIF
 70
    70
  9
$TILEMODE
 70
     1
  9
$MAXACTVP
 70
    48
  9
$PINSBASE
 10
0.0
 20
0.0
 30
0.0
  9
$PLIMCHECK
 70
     0
  9
$PEXTMIN
 10
0.0
 20
0.0
 30
0.0
  9
$PEXTMAX
 10
155.099152
 20
239.251617
 30
2.0
  9
$PLIMMIN
 10
0.0
 20
0.0
  9
$PLIMMAX
 10
420.0
 20
297.0
  9
$UNITMODE
 70
     0
  9
$VISRETAIN
 70
     0
  9
$PLINEGEN
 70
     0
  9
$PSLTSCALE
 70
     1
  9
$TREEDEPTH
 70
  3020
  0
ENDSEC
  0
SECTION
  2
TABLES
  0
TABLE
  2
VPORT
 70
     1
  0
VPORT
  2
*ACTIVE
 70
     0
 10
0.0
 20
0.0
 11
1.0
 21
1.0
 12
6.591288
 22
4.579184
 13
0.0
 23
0.0
 14
1.0
 24
1.0
 15
0.0
 25
0.0
 16
0.0
 26
0.0
 36
1.0
 17
0.0
 27
0.0
 37
0.0
 40
9.158369
 41
0.688564
 42
50.0
 43
0.0
 44
0.0
 50
0.0
 51
0.0
 71
     0
 72
   100
 73
     1
 74
     1
 75
     0
 76
     0
 77
     0
 78
     0
  0
ENDTAB
  0
TABLE
  2
LTYPE
 70
     2
  0
LTYPE
  2
CONTINUOUS
 70
    64
  3
Solid line
 72
    65
 73
     0
 40
0.0
  0
LTYPE
  2
DASHDOT
 70
     0
  3
 __ . __ . __ . __ . __ . __ . __ . 
 72
    65
 73
     4
 40
18.5
 49
12.0
 49
-3.0
 49
0.5
 49
-3.0
  0
ENDTAB
  0
TABLE
  2
LAYER
 70
     1
  0
LAYER
  2
0
 70
     0
 62
     7
  6
CONTINUOUS
  0
ENDTAB
  0
TABLE
  2
STYLE
 70
     1
  0
STYLE
  2
STANDARD
 70
     0
 40
0.0
 41
1.0
 50
0.0
 71
     0
 42
0.0
  3
txt
  4

  0
ENDTAB
  0
TABLE
  2
VIEW
 70
     0
  0
ENDTAB
  0
TABLE
  2
UCS
 70
     0
  0
ENDTAB
  0
TABLE
  2
APPID
 70
     1
  0
APPID
  2
ACAD
 70
     0
  0
ENDTAB
  0
TABLE
  2
DIMSTYLE
 70
     1
  0
DIMSTYLE
  2
STANDARD
 70
     0
  3

  4

  5

  6

  7

 40
1.0
 41
0.18
 42
0.0625
 43
0.38
 44
0.18
 45
0.0
 46
0.0
 47
0.0
 48
0.0
 71
     0
 72
     0
 73
     1
 74
     1
 75
     0
 76
     0
 77
     0
 78
     0
140
0.18
141
0.09
142
0.0
143
25.4
144
1.0
145
0.0
146
1.0
147
0.09
170
     0
171
     2
172
     0
173
     0
174
     0
175
     0
176
     0
177
     0
178
     0
  0
ENDTAB
  0
ENDSEC
  0
SECTION
  2
BLOCKS
  0
ENDSEC
  0
SECTION
  2
ENTITIES
  0
VIEWPORT
  8
0
 62
     0
 67
     1
 68
     1
 10
0.0
 20
0.0
 30
0.0
 40
1000.0
 41
1000.0
 69
     1
1001
ACAD
1000
MVIEW
1002
{
1070
    16
1010
0.0
1020
0.0
1030
0.0
1010
0.0
1020
0.0
1030
1.0
1040
0.0
1040
1000.0
1040
0.0
1040
0.0
1040
50.0
1040
0.0
1040
0.0
1070
     0
1070
   100
1070
     1
1070
     1
1070
     0
1070
     0
1070
     0
1070
     0
1040
0.0
1040
0.0
1040
0.0
1040
1.0
1040
1.0
1040
1.0
1040
1.0
1070
     0
1002
{
1002
}
1002
}
  0
LINE
  8
0
  6
DASHDOT
 62
     7
 10
123.127907
 20
125.782616
 30
0.0
 11
120.007912
 21
125.782616
 31
0.0
210
0.0
220
0.0
230
1.0
  0
LINE
  8
0
  6
DASHDOT
 62
     7
 10
121.567909
 20
127.342621
 30
0.0
 11
121.567909
 21
124.222618
 31
0.0
210
0.0
220
0.0
230
1.0
  0
LINE
  8
0
  6
DASHDOT
 62
     7
 10
143.177917
 20
220.782623
 30
0.0
 11
140.057907
 21
220.782623
 31
0.0
210
0.0
220
0.0
230
1.0
  0
LINE
  8
0
  6
DASHDOT
 62
     7
 10
141.617905
 20
222.342621
 30
0.0
 11
141.617905
 21
219.222626
 31
0.0
210
0.0
220
0.0
230
1.0
  0
POLYLINE
  8
0
 62
     7
 66
     1
 10
0.0
 20
0.0
 30
0.0
 70
     1
 71
    12
  0
VERTEX
  8
0
 10
59.239677
 20
235.903198
 30
0.0
  0
VERTEX
  8
0
 10
59.449863
 20
235.903198
 30
0.0
  0
VERTEX
  8
0
 10
59.449863
 20
237.930313
 30
0.0
  0
VERTEX
  8
0
 10
59.510887
 20
237.746033
 30
0.0
  0
VERTEX
  8
0
 10
60.286095
 20
235.903198
 30
0.0
  0
VERTEX
  8
0
 10
60.525661
 20
235.903198
 30
0.0
  0
VERTEX
  8
0
 10
60.525661
 20
238.403198
 30
0.0
  0
VERTEX
  8
0
 10
60.315475
 20
238.403198
 30
0.0
  0
VERTEX
  8
0
 10
60.315475
 20
236.376083
 30
0.0
  0
VERTEX
  8
0
 10
60.240894
 20
236.588181
 30
0.0
  0
VERTEX
  8
0
 10
59.481506
 20
238.403198
 30
0.0
  0
VERTEX
  8
0
 10
59.239677
 20
238.403198
 30
0.0
  0
SEQEND
  8
0
  0
POLYLINE
  8
0
 62
     7
 66
     1
 10
0.0
 20
0.0
 30
0.0
 70
     1
 71
    32
  0
VERTEX
  8
0
 10
61.301392
 20
237.151459
 30
0.0
  0
VERTEX
  8
0
 10
61.312695
 20
236.852432
 30
0.0
  0
VERTEX
  8
0
 10
61.353374
 20
236.59166
 30
0.0
  0
VERTEX
  8
0
 10
61.418919
 20
236.365646
 30
0.0
  0
VERTEX
  8
0
 10
61.507061
 20
236.177887
 30
0.0
  0
VERTEX
  8
0
 10
61.617805
 20
236.028366
 30
0.0
  0
VERTEX
  8
0
 10
61.74889
 20
235.920578
 30
0.0
  0
VERTEX
  8
0
 10
61.900314
 20
235.858002
 30
0.0
  0
VERTEX
  8
0
 10
62.072083
 20
235.833664
 30
0.0
  0
VERTEX
  8
0
 10
62.241589
 20
235.858002
 30
0.0
  0
VERTEX
  8
0
 10
62.393013
 20
235.920578
 30
0.0
  0
VERTEX
  8
0
 10
62.524097
 20
236.028366
 30
0.0
  0
VERTEX
  8
0
 10
62.634842
 20
236.177887
 30
0.0
  0
VERTEX
  8
0
 10
62.722984
 20
236.365646
 30
0.0
  0
VERTEX
  8
0
 10
62.786266
 20
236.59166
 30
0.0
  0
VERTEX
  8
0
 10
62.824688
 20
236.852432
 30
0.0
  0
VERTEX
  8
0
 10
62.840511
 20
237.151459
 30
0.0
  0
VERTEX
  8
0
 10
62.82695
 20
237.447006
 30
0.0
  0
VERTEX
  8
0
 10
62.786266
 20
237.707794
 30
0.0
  0
VERTEX
  8
0
 10
62.720726
 20
237.933792
 30
0.0
  0
VERTEX
  8
0
 10
62.634842
 20
238.121552
 30
0.0
  0
VERTEX
  8
0
 10
62.524097
 20
238.271072
 30
0.0
  0
VERTEX
  8
0
 10
62.393013
 20
238.37886
 30
0.0
  0
VERTEX
  8
0
 10
62.241589
 20
238.444916
 30
0.0
  0
VERTEX
  8
0
 10
62.072083
 20
238.469269
 30
0.0
  0
VERTEX
  8
0
 10
61.900314
 20
238.444916
 30
0.0
  0
VERTEX
  8
0
 10
61.74889
 20
238.37886
 30
0.0
  0
VERTEX
  8
0
 10
61.617805
 20
238.271072
 30
0.0
  0
VERTEX
  8
0
 10
61.507061
 20
238.121552
 30
0.0
  0
VERTEX
  8
0
 10
61.418919
 20
237.933792
 30
0.0
  0
VERTEX
  8
0
 10
61.353374
 20
237.707794
 30
0.0
  0
VERTEX
  8
0
 10
61.312695
 20
237.447006
 30
0.0
  0
SEQEND
  8
0
  0
POLYLINE
  8
0
 62
     7
 66
     1
 10
0.0
 20
0.0
 30
0.0
 70
     1
 71
    16
  0
VERTEX
  8
0
 10
61.529663
 20
237.151459
 30
0.0
  0
VERTEX
  8
0
 10
61.565823
 20
237.582611
 30
0.0
  0
VERTEX
  8
0
 10
61.674309
 20
237.905975
 30
0.0
  0
VERTEX
  8
0
 10
61.846073
 20
238.104172
 30
0.0
  0
VERTEX
  8
0
 10
62.072083
 20
238.173706
 30
0.0
  0
VERTEX
  8
0
 10
62.29583
 20
238.104172
 30
0.0
  0
VERTEX
  8
0
 10
62.467598
 20
237.905975
 30
0.0
  0
VERTEX
  8
0
 10
62.573818
 20
237.582611
 30
0.0
  0
VERTEX
  8
0
 10
62.61224
 20
237.151459
 30
0.0
  0
VERTEX
  8
0
 10
62.573818
 20
236.716827
 30
0.0
  0
VERTEX
  8
0
 10
62.467598
 20
236.393463
 30
0.0
  0
VERTEX
  8
0
 10
62.29583
 20
236.195267
 30
0.0
  0
VERTEX
  8
0
 10
62.072083
 20
236.129211
 30
0.0
  0
VERTEX
  8
0
 10
61.846073
 20
236.195267
 30
0.0
  0
VERTEX
  8
0
 10
61.674309
 20
236.393463
 30
0.0
  0
VERTEX
  8
0
 10
61.565823
 20
236.716827
 30
0.0
  0
SEQEND
  8
0
  0
POLYLINE
  8
0
 62
     7
 66
     1
 10
0.0
 20
0.0
 30
0.0
 70
     1
 71
    12
  0
VERTEX
  8
0
 10
63.616241
 20
235.903198
 30
0.0
  0
VERTEX
  8
0
 10
63.826427
 20
235.903198
 30
0.0
  0
VERTEX
  8
0
 10
63.826427
 20
237.930313
 30
0.0
  0
VERTEX
  8
0
 10
63.887451
 20
237.746033
 30
0.0
  0
VERTEX
  8
0
 10
64.662659
 20
235.903198
 30
0.0
  0
VERTEX
  8
0
 10
64.902229
 20
235.903198
 30
0.0
  0
VERTEX
  8
0
 10
64.902229
 20
238.403198
 30
0.0
  0
VERTEX
  8
0
 10
64.692039
 20
238.403198
 30
0.0
  0
VERTEX
  8
0
 10
64.692039
 20
236.376083
 30
0.0
  0
VERTEX
  8
0
 10
64.617455
 20
236.588181
 30
0.0
  0
VERTEX
  8
0
 10
63.85807
 20
238.403198
 30
0.0
  0
VERTEX
  8
0
 10
63.616241
 20
238.403198
 30
0.0
  0
SEQEND
  8
0
  0
POLYLINE
  8
0
 62
     7
 66
     1
 10
0.0
 20
0.0
 30
0.0
 70
     1
 71
     4
  0
VERTEX
  8
0
 10
65.653099
 20
236.685532
 30
0.0
  0
VERTEX
  8
0
 10
66.200035
 20
236.685532
 30
0.0
  0
VERTEX
  8
0
 10
66.200035
 20
236.96022
 30
0.0
  0
VERTEX
  8
0
 10
65.653099
 20
236.96022
 30
0.0
  0
SEQEND
  8
0
  0
POLYLINE
  8
0
 62
     7
 66
     1
 10
0.0
 20
0.0
 30
0.0
 70
     1
 71
    22
  0
VERTEX
  8
0
 10
66.944122
 20
236.852432
 30
0.0
  0
VERTEX
  8
0
 10
66.980286
 20
236.4039
 30
0.0
  0
VERTEX
  8
0
 10
67.095551
 20
236.087479
 30
0.0
  0
VERTEX
  8
0
 10
67.2854
 20
235.899719
 30
0.0
  0
VERTEX
  8
0
 10
67.554352
 20
235.833664
 30
0.0
  0
VERTEX
  8
0
 10
67.839119
 20
235.899719
 30
0.0
  0
VERTEX
  8
0
 10
68.047043
 20
236.090958
 30
0.0
  0
VERTEX
  8
0
 10
68.173615
 20
236.407364
 30
0.0
  0
VERTEX
  8
0
 10
68.216553
 20
236.852432
 30
0.0
  0
VERTEX
  8
0
 10
68.216553
 20
238.403198
 30
0.0
  0
VERTEX
  8
0
 10
67.995064
 20
238.403198
 30
0.0
  0
VERTEX
  8
0
 10
67.995064
 20
236.848953
 30
0.0
  0
VERTEX
  8
0
 10
67.967941
 20
236.542969
 30
0.0
  0
VERTEX
  8
0
 10
67.891098
 20
236.330872
 30
0.0
  0
VERTEX
  8
0
 10
67.762276
 20
236.202225
 30
0.0
  0
VERTEX
  8
0
 10
67.579208
 20
236.160507
 30
0.0
  0
VERTEX
  8
0
 10
67.393883
 20
236.202225
 30
0.0
  0
VERTEX
  8
0
 10
67.26506
 20
236.327393
 30
0.0
  0
VERTEX
  8
0
 10
67.188217
 20
236.542969
 30
0.0
  0
VERTEX
  8
0
 10
67.165611
 20
236.848953
 30
0.0
  0
VERTEX
  8
0
 10
67.165611
 20
238.403198
 30
0.0
  0
VERTEX
  8
0
 10
66.944122
 20
238.403198
 30
0.0
  0
SEQEND
  8
0
  0
POLYLINE
  8
0
 62
     7
 66
     1
 10
0.0
 20
0.0
 30
0.0
 70
     1
 71
    50
  0
VERTEX
  8
0
 10
68.98098
 20
236.727264
 30
0.0
  0
VERTEX
  8
0
 10
69.030701
 20
236.344788
 30
0.0
  0
VERTEX
  8
0
 10
69.157272
 20
236.06662
 30
0.0
  0
VERTEX
  8
0
 10
69.353897
 20
235.89624
 30
0.0
  0
VERTEX
  8
0
 10
69.618324
 20
235.837128
 30
0.0
  0
VERTEX
  8
0
 10
69.878235
 20
235.89624
 30
0.0
  0
VERTEX
  8
0
 10
70.07486
 20
236.052704
 30
0.0
  0
VERTEX
  8
0
 10
70.199165
 20
236.299576
 30
0.0
  0
VERTEX
  8
0
 10
70.242111
 20
236.626419
 30
0.0
  0
VERTEX
  8
0
 10
70.205948
 20
236.897629
 30
0.0
  0
VERTEX
  8
0
 10
70.108765
 20
237.102783
 30
0.0
  0
VERTEX
  8
0
 10
69.946037
 20
237.23143
 30
0.0
  0
VERTEX
  8
0
 10
69.735847
 20
237.321838
 30
0.0
  0
VERTEX
  8
0
 10
69.514359
 20
237.40181
 30
0.0
  0
VERTEX
  8
0
 10
69.360672
 20
237.481781
 30
0.0
  0
VERTEX
  8
0
 10
69.270271
 20
237.596527
 30
0.0
  0
VERTEX
  8
0
 10
69.243149
 20
237.787766
 30
0.0
  0
VERTEX
  8
0
 10
69.265755
 20
237.947708
 30
0.0
  0
VERTEX
  8
0
 10
69.338074
 20
238.076355
 30
0.0
  0
VERTEX
  8
0
 10
69.448822
 20
238.156326
 30
0.0
  0
VERTEX
  8
0
 10
69.600243
 20
238.187622
 30
0.0
  0
VERTEX
  8
0
 10
69.753929
 20
238.152847
 30
0.0
  0
VERTEX
  8
0
 10
69.871452
 20
238.052017
 30
0.0
  0
VERTEX
  8
0
 10
69.948296
 20
237.888596
 30
0.0
  0
VERTEX
  8
0
 10
69.984459
 20
237.66954
 30
0.0
  0
VERTEX
  8
0
 10
70.194649
 20
237.66954
 30
0.0
  0
VERTEX
  8
0
 10
70.151703
 20
238.003342
 30
0.0
  0
VERTEX
  8
0
 10
70.036438
 20
238.253693
 30
0.0
  0
VERTEX
  8
0
 10
69.855637
 20
238.413635
 30
0.0
  0
VERTEX
  8
0
 10
69.613808
 20
238.469269
 30
0.0
  0
VERTEX
  8
0
 10
69.371979
 20
238.413635
 30
0.0
  0
VERTEX
  8
0
 10
69.188911
 20
238.260635
 30
0.0
  0
VERTEX
  8
0
 10
69.071388
 20
238.027679
 30
0.0
  0
VERTEX
  8
0
 10
69.032967
 20
237.728653
 30
0.0
  0
VERTEX
  8
0
 10
69.066864
 20
237.453964
 30
0.0
  0
VERTEX
  8
0
 10
69.168571
 20
237.266205
 30
0.0
  0
VERTEX
  8
0
 10
69.340332
 20
237.137558
 30
0.0
  0
VERTEX
  8
0
 10
69.577644
 20
237.036713
 30
0.0
  0
VERTEX
  8
0
 10
69.769753
 20
236.96022
 30
0.0
  0
VERTEX
  8
0
 10
69.909874
 20
236.883728
 30
0.0
  0
VERTEX
  8
0
 10
69.9935
 20
236.768982
 30
0.0
  0
VERTEX
  8
0
 10
70.022881
 20
236.588181
 30
0.0
  0
VERTEX
  8
0
 10
69.9935
 20
236.400421
 30
0.0
  0
VERTEX
  8
0
 10
69.914398
 20
236.254379
 30
0.0
  0
VERTEX
  8
0
 10
69.787834
 20
236.163971
 30
0.0
  0
VERTEX
  8
0
 10
69.616066
 20
236.13269
 30
0.0
  0
VERTEX
  8
0
 10
69.442039
 20
236.170929
 30
0.0
  0
VERTEX
  8
0
 10
69.310951
 20
236.292633
 30
0.0
  0
VERTEX
  8
0
 10
69.225067
 20
236.476913
 30
0.0
  0
VERTEX
  8
0
 10
69.193428
 20
236.727264
 30
0.0
  0
SEQEND
  8
0
  0
POLYLINE
  8
0
 62
     7
 66
     1
 10
0.0
 20
0.0
 30
0.0
 70
     1
 71
     8
  0
VERTEX
  8
0
 10
70.83477
 20
235.903198
 30
0.0
  0
VERTEX
  8
0
 10
71.063042
 20
235.903198
 30
0.0
  0
VERTEX
  8
0
 10
71.237068
 20
236.650757
 30
0.0
  0
VERTEX
  8
0
 10
71.876671
 20
236.650757
 30
0.0
  0
VERTEX
  8
0
 10
72.048439
 20
235.903198
 30
0.0
  0
VERTEX
  8
0
 10
72.28801
 20
235.903198
 30
0.0
  0
VERTEX
  8
0
 10
71.682304
 20
238.403198
 30
0.0
  0
VERTEX
  8
0
 10
71.438217
 20
238.403198
 30
0.0
  0
SEQEND
  8
0
  0
POLYLINE
  8
0
 62
     7
 66
     1
 10
0.0
 20
0.0
 30
0.0
 70
     1
 71
     3
  0
VERTEX
  8
0
 10
71.304871
 20
236.942841
 30
0.0
  0
VERTEX
  8
0
 10
71.560257
 20
238.045059
 30
0.0
  0
VERTEX
  8
0
 10
71.811127
 20
236.942841
 30
0.0
  0
SEQEND
  8
0
  0
POLYLINE
  8
0
 62
     7
 66
     1
 10
0.0
 20
0.0
 30
0.0
 70
     1
 71
    19
  0
VERTEX
  8
0
 10
72.955254
 20
235.903198
 30
0.0
  0
VERTEX
  8
0
 10
73.644577
 20
235.903198
 30
0.0
  0
VERTEX
  8
0
 10
73.875107
 20
235.955353
 30
0.0
  0
VERTEX
  8
0
 10
74.046875
 20
236.108337
 30
0.0
  0
VERTEX
  8
0
 10
74.155357
 20
236.341309
 30
0.0
  0
VERTEX
  8
0
 10
74.193779
 20
236.650757
 30
0.0
  0
VERTEX
  8
0
 10
74.171173
 20
236.873291
 30
0.0
  0
VERTEX
  8
0
 10
74.110153
 20
237.050629
 30
0.0
  0
VERTEX
  8
0
 10
74.01297
 20
237.179276
 30
0.0
  0
VERTEX
  8
0
 10
73.884148
 20
237.252289
 30
0.0
  0
VERTEX
  8
0
 10
73.983589
 20
237.339218
 30
0.0
  0
VERTEX
  8
0
 10
74.058174
 20
237.460922
 30
0.0
  0
VERTEX
  8
0
 10
74.101112
 20
237.610428
 30
0.0
  0
VERTEX
  8
0
 10
74.116936
 20
237.794708
 30
0.0
  0
VERTEX
  8
0
 10
74.083038
 20
238.058975
 30
0.0
  0
VERTEX
  8
0
 10
73.988113
 20
238.250214
 30
0.0
  0
VERTEX
  8
0
 10
73.829903
 20
238.364944
 30
0.0
  0
VERTEX
  8
0
 10
73.61068
 20
238.403198
 30
0.0
  0
VERTEX
  8
0
 10
72.955254
 20
238.403198
 30
0.0
  0
SEQEND
  8
0
  0
POLYLINE
  8
0
 62
     7
 66
     1
 10
0.0
 20
0.0
 30
0.0
 70
     1
 71
    11
  0
VERTEX
  8
0
 10
73.176743
 20
236.205704
 30
0.0
  0
VERTEX
  8
0
 10
73.176743
 20
237.074966
 30
0.0
  0
VERTEX
  8
0
 10
73.59938
 20
237.074966
 30
0.0
  0
VERTEX
  8
0
 10
73.759842
 20
237.050629
 30
0.0
  0
VERTEX
  8
0
 10
73.875107
 20
236.974136
 30
0.0
  0
VERTEX
  8
0
 10
73.942909
 20
236.841995
 30
0.0
  0
VERTEX
  8
0
 10
73.967773
 20
236.654236
 30
0.0
  0
VERTEX
  8
0
 10
73.945168
 20
236.459534
 30
0.0
  0
VERTEX
  8
0
 10
73.879623
 20
236.32045
 30
0.0
  0
VERTEX
  8
0
 10
73.771141
 20
236.233521
 30
0.0
  0
VERTEX
  8
0
 10
73.624237
 20
236.205704
 30
0.0
  0
SEQEND
  8
0
  0
POLYLINE
  8
0
 62
     7
 66
     1
 10
0.0
 20
0.0
 30
0.0
 70
     1
 71
    11
  0
VERTEX
  8
0
 10
73.176743
 20
237.353134
 30
0.0
  0
VERTEX
  8
0
 10
73.176743
 20
238.118073
 30
0.0
  0
VERTEX
  8
0
 10
73.581299
 20
238.118073
 30
0.0
  0
VERTEX
  8
0
 10
73.719162
 20
238.093735
 30
0.0
  0
VERTEX
  8
0
 10
73.816345
 20
238.0242
 30
0.0
  0
VERTEX
  8
0
 10
73.875107
 20
237.909454
 30
0.0
  0
VERTEX
  8
0
 10
73.895447
 20
237.746033
 30
0.0
  0
VERTEX
  8
0
 10
73.872849
 20
237.56871
 30
0.0
  0
VERTEX
  8
0
 10
73.811821
 20
237.443527
 30
0.0
  0
VERTEX
  8
0
 10
73.707863
 20
237.373993
 30
0.0
  0
VERTEX
  8
0
 10
73.563217
 20
237.353134
 30
0.0
  0
SEQEND
  8
0
  0
POLYLINE
  8
0
 62
     7
 66
     1
 10
0.0
 20
0.0
 30
0.0
 70
     1
 71
     6
  0
VERTEX
  8
0
 10
74.951431
 20
235.903198
 30
0.0
  0
VERTEX
  8
0
 10
75.984283
 20
235.903198
 30
0.0
  0
VERTEX
  8
0
 10
75.984283
 20
236.219604
 30
0.0
  0
VERTEX
  8
0
 10
75.175171
 20
236.219604
 30
0.0
  0
VERTEX
  8
0
 10
75.175171
 20
238.403198
 30
0.0
  0
VERTEX
  8
0
 10
74.951431
 20
238.403198
 30
0.0
  0
SEQEND
  8
0
  0
POLYLINE
  8
0
 62
     7
 66
     1
 10
0.0
 20
0.0
 30
0.0
 70
     1
 71
    12
  0
VERTEX
  8
0
 10
76.660568
 20
235.903198
 30
0.0
  0
VERTEX
  8
0
 10
77.838074
 20
235.903198
 30
0.0
  0
VERTEX
  8
0
 10
77.838074
 20
236.216125
 30
0.0
  0
VERTEX
  8
0
 10
76.879799
 20
236.216125
 30
0.0
  0
VERTEX
  8
0
 10
76.879799
 20
237.054108
 30
0.0
  0
VERTEX
  8
0
 10
77.747673
 20
237.054108
 30
0.0
  0
VERTEX
  8
0
 10
77.747673
 20
237.346176
 30
0.0
  0
VERTEX
  8
0
 10
76.879799
 20
237.346176
 30
0.0
  0
VERTEX
  8
0
 10
76.879799
 20
238.093735
 30
0.0
  0
VERTEX
  8
0
 10
77.819992
 20
238.093735
 30
0.0
  0
VERTEX
  8
0
 10
77.819992
 20
238.403198
 30
0.0
  0
VERTEX
  8
0
 10
76.660568
 20
238.403198
 30
0.0
  0
SEQEND
  8
0
  0
POLYLINE
  8
0
 62
     7
 66
     1
 10
0.0
 20
0.0
 30
0.0
 70
     1
 71
     8
  0
VERTEX
  8
0
 10
79.543221
 20
235.903198
 30
0.0
  0
VERTEX
  8
0
 10
79.771492
 20
235.903198
 30
0.0
  0
VERTEX
  8
0
 10
79.945518
 20
236.650757
 30
0.0
  0
VERTEX
  8
0
 10
80.585121
 20
236.650757
 30
0.0
  0
VERTEX
  8
0
 10
80.756882
 20
235.903198
 30
0.0
  0
VERTEX
  8
0
 10
80.996452
 20
235.903198
 30
0.0
  0
VERTEX
  8
0
 10
80.390755
 20
238.403198
 30
0.0
  0
VERTEX
  8
0
 10
80.146667
 20
238.403198
 30
0.0
  0
SEQEND
  8
0
  0
POLYLINE
  8
0
 62
     7
 66
     1
 10
0.0
 20
0.0
 30
0.0
 70
     1
 71
     3
  0
VERTEX
  8
0
 10
80.013321
 20
236.942841
 30
0.0
  0
VERTEX
  8
0
 10
80.268707
 20
238.045059
 30
0.0
  0
VERTEX
  8
0
 10
80.519577
 20
236.942841
 30
0.0
  0
SEQEND
  8
0
  0
POLYLINE
  8
0
 62
     7
 66
     1
 10
0.0
 20
0.0
 30
0.0
 70
     1
 71
    30
  0
VERTEX
  8
0
 10
81.663696
 20
238.403198
 30
0.0
  0
VERTEX
  8
0
 10
81.663696
 20
235.903198
 30
0.0
  0
VERTEX
  8
0
 10
81.882927
 20
235.903198
 30
0.0
  0
VERTEX
  8
0
 10
81.882927
 20
236.974136
 30
0.0
  0
VERTEX
  8
0
 10
82.240021
 20
236.974136
 30
0.0
  0
VERTEX
  8
0
 10
82.411789
 20
236.963699
 30
0.0
  0
VERTEX
  8
0
 10
82.518013
 20
236.911545
 30
0.0
  0
VERTEX
  8
0
 10
82.576775
 20
236.79332
 30
0.0
  0
VERTEX
  8
0
 10
82.601639
 20
236.574265
 30
0.0
  0
VERTEX
  8
0
 10
82.615196
 20
236.247421
 30
0.0
  0
VERTEX
  8
0
 10
82.626495
 20
236.04924
 30
0.0
  0
VERTEX
  8
0
 10
82.658134
 20
235.903198
 30
0.0
  0
VERTEX
  8
0
 10
82.913528
 20
235.903198
 30
0.0
  0
VERTEX
  8
0
 10
82.913528
 20
235.972733
 30
0.0
  0
VERTEX
  8
0
 10
82.859283
 20
236.073578
 30
0.0
  0
VERTEX
  8
0
 10
82.838943
 20
236.264816
 30
0.0
  0
VERTEX
  8
0
 10
82.820862
 20
236.67511
 30
0.0
  0
VERTEX
  8
0
 10
82.805038
 20
236.848953
 30
0.0
  0
VERTEX
  8
0
 10
82.775665
 20
236.984558
 30
0.0
  0
VERTEX
  8
0
 10
82.72142
 20
237.078445
 30
0.0
  0
VERTEX
  8
0
 10
82.635536
 20
237.141022
 30
0.0
  0
VERTEX
  8
0
 10
82.730461
 20
237.234909
 30
0.0
  0
VERTEX
  8
0
 10
82.800522
 20
237.363556
 30
0.0
  0
VERTEX
  8
0
 10
82.84346
 20
237.52002
 30
0.0
  0
VERTEX
  8
0
 10
82.859283
 20
237.711258
 30
0.0
  0
VERTEX
  8
0
 10
82.84346
 20
237.905975
 30
0.0
  0
VERTEX
  8
0
 10
82.805038
 20
238.076355
 30
0.0
  0
VERTEX
  8
0
 10
82.649094
 20
238.316269
 30
0.0
  0
VERTEX
  8
0
 10
82.484108
 20
238.389297
 30
0.0
  0
VERTEX
  8
0
 10
82.294266
 20
238.403198
 30
0.0
  0
SEQEND
  8
0
  0
POLYLINE
  8
0
 62
     7
 66
     1
 10
0.0
 20
0.0
 30
0.0
 70
     1
 71
    11
  0
VERTEX
  8
0
 10
81.880669
 20
238.11113
 30
0.0
  0
VERTEX
  8
0
 10
82.258102
 20
238.11113
 30
0.0
  0
VERTEX
  8
0
 10
82.418564
 20
238.093735
 30
0.0
  0
VERTEX
  8
0
 10
82.536095
 20
238.031158
 30
0.0
  0
VERTEX
  8
0
 10
82.606155
 20
237.909454
 30
0.0
  0
VERTEX
  8
0
 10
82.631012
 20
237.704315
 30
0.0
  0
VERTEX
  8
0
 10
82.606155
 20
237.492218
 30
0.0
  0
VERTEX
  8
0
 10
82.538353
 20
237.356613
 30
0.0
  0
VERTEX
  8
0
 10
82.42083
 20
237.283585
 30
0.0
  0
VERTEX
  8
0
 10
82.258102
 20
237.262726
 30
0.0
  0
VERTEX
  8
0
 10
81.880669
 20
237.262726
 30
0.0
  0
SEQEND
  8
0
  0
POLYLINE
  8
0
 62
     7
 66
     1
 10
0.0
 20
0.0
 30
0.0
 70
     1
 71
    12
  0
VERTEX
  8
0
 10
83.664398
 20
235.903198
 30
0.0
  0
VERTEX
  8
0
 10
84.841896
 20
235.903198
 30
0.0
  0
VERTEX
  8
0
 10
84.841896
 20
236.216125
 30
0.0
  0
VERTEX
  8
0
 10
83.883621
 20
236.216125
 30
0.0
  0
VERTEX
  8
0
 10
83.883621
 20
237.054108
 30
0.0
  0
VERTEX
  8
0
 10
84.751495
 20
237.054108
 30
0.0
  0
VERTEX
  8
0
 10
84.751495
 20
237.346176
 30
0.0
  0
VERTEX
  8
0
 10
83.883621
 20
237.346176
 30
0.0
  0
VERTEX
  8
0
 10
83.883621
 20
238.093735
 30
0.0
  0
VERTEX
  8
0
 10
84.823814
 20
238.093735
 30
0.0
  0
VERTEX
  8
0
 10
84.823814
 20
238.403198
 30
0.0
  0
VERTEX
  8
0
 10
83.664398
 20
238.403198
 30
0.0
  0
SEQEND
  8
0
  0
POLYLINE
  8
0
 62
     7
 66
     1
 10
0.0
 20
0.0
 30
0.0
 70
     1
 71
     8
  0
VERTEX
  8
0
 10
85.42778
 20
235.903198
 30
0.0
  0
VERTEX
  8
0
 10
85.656052
 20
235.903198
 30
0.0
  0
VERTEX
  8
0
 10
85.830078
 20
236.650757
 30
0.0
  0
VERTEX
  8
0
 10
86.469681
 20
236.650757
 30
0.0
  0
VERTEX
  8
0
 10
86.641449
 20
235.903198
 30
0.0
  0
VERTEX
  8
0
 10
86.881012
 20
235.903198
 30
0.0
  0
VERTEX
  8
0
 10
86.275314
 20
238.403198
 30
0.0
  0
VERTEX
  8
0
 10
86.031219
 20
238.403198
 30
0.0
  0
SEQEND
  8
0
  0
POLYLINE
  8
0
 62
     7
 66
     1
 10
0.0
 20
0.0
 30
0.0
 70
     1
 71
     3
  0
VERTEX
  8
0
 10
85.897881
 20
236.942841
 30
0.0
  0
VERTEX
  8
0
 10
86.153267
 20
238.045059
 30
0.0
  0
VERTEX
  8
0
 10
86.404137
 20
236.942841
 30
0.0
  0
SEQEND
  8
0
  0
POLYLINE
  8
0
 62
     7
 66
     1
 10
0.0
 20
0.0
 30
0.0
 70
     1
 71
    32
  0
VERTEX
  8
0
 10
59.171871
 20
233.651459
 30
0.0
  0
VERTEX
  8
0
 10
59.183174
 20
233.352432
 30
0.0
  0
VERTEX
  8
0
 10
59.223854
 20
233.09166
 30
0.0
  0
VERTEX
  8
0
 10
59.289398
 20
232.865646
 30
0.0
  0
VERTEX
  8
0
 10
59.377541
 20
232.677887
 30
0.0
  0
VERTEX
  8
0
 10
59.488285
 20
232.528366
 30
0.0
  0
VERTEX
  8
0
 10
59.61937
 20
232.420578
 30
0.0
  0
VERTEX
  8
0
 10
59.770794
 20
232.358002
 30
0.0
  0
VERTEX
  8
0
 10
59.942562
 20
232.333664
 30
0.0
  0
VERTEX
  8
0
 10
60.112068
 20
232.358002
 30
0.0
  0
VERTEX
  8
0
 10
60.263493
 20
232.420578
 30
0.0
  0
VERTEX
  8
0
 10
60.394577
 20
232.528366
 30
0.0
  0
VERTEX
  8
0
 10
60.505322
 20
232.677887
 30
0.0
  0
VERTEX
  8
0
 10
60.593464
 20
232.865646
 30
0.0
  0
VERTEX
  8
0
 10
60.656746
 20
233.09166
 30
0.0
  0
VERTEX
  8
0
 10
60.695168
 20
233.352432
 30
0.0
  0
VERTEX
  8
0
 10
60.710991
 20
233.651459
 30
0.0
  0
VERTEX
  8
0
 10
60.69743
 20
233.947006
 30
0.0
  0
VERTEX
  8
0
 10
60.656746
 20
234.207794
 30
0.0
  0
VERTEX
  8
0
 10
60.591206
 20
234.433792
 30
0.0
  0
VERTEX
  8
0
 10
60.505322
 20
234.621552
 30
0.0
  0
VERTEX
  8
0
 10
60.394577
 20
234.771072
 30
0.0
  0
VERTEX
  8
0
 10
60.263493
 20
234.87886
 30
0.0
  0
VERTEX
  8
0
 10
60.112068
 20
234.944916
 30
0.0
  0
VERTEX
  8
0
 10
59.942562
 20
234.969269
 30
0.0
  0
VERTEX
  8
0
 10
59.770794
 20
234.944916
 30
0.0
  0
VERTEX
  8
0
 10
59.61937
 20
234.87886
 30
0.0
  0
VERTEX
  8
0
 10
59.488285
 20
234.771072
 30
0.0
  0
VERTEX
  8
0
 10
59.377541
 20
234.621552
 30
0.0
  0
VERTEX
  8
0
 10
59.289398
 20
234.433792
 30
0.0
  0
VERTEX
  8
0
 10
59.223854
 20
234.207794
 30
0.0
  0
VERTEX
  8
0
 10
59.183174
 20
233.947006
 30
0.0
  0
SEQEND
  8
0
  0
POLYLINE
  8
0
 62
     7
 66
     1
 10
0.0
 20
0.0
 30
0.0
 70
     1
 71
    16
  0
VERTEX
  8
0
 10
59.400143
 20
233.651459
 30
0.0
  0
VERTEX
  8
0
 10
59.436302
 20
234.082611
 30
0.0
  0
VERTEX
  8
0
 10
59.544788
 20
234.405975
 30
0.0
  0
VERTEX
  8
0
 10
59.716553
 20
234.604172
 30
0.0
  0
VERTEX
  8
0
 10
59.942562
 20
234.673706
 30
0.0
  0
VERTEX
  8
0
 10
60.166309
 20
234.604172
 30
0.0
  0
VERTEX
  8
0
 10
60.338078
 20
234.405975
 30
0.0
  0
VERTEX
  8
0
 10
60.444302
 20
234.082611
 30
0.0
  0
VERTEX
  8
0
 10
60.482723
 20
233.651459
 30
0.0
  0
VERTEX
  8
0
 10
60.444302
 20
233.216827
 30
0.0
  0
VERTEX
  8
0
 10
60.338078
 20
232.893463
 30
0.0
  0
VERTEX
  8
0
 10
60.166309
 20
232.695267
 30
0.0
  0
VERTEX
  8
0
 10
59.942562
 20
232.629211
 30
0.0
  0
VERTEX
  8
0
 10
59.716553
 20
232.695267
 30
0.0
  0
VERTEX
  8
0
 10
59.544788
 20
232.893463
 30
0.0
  0
VERTEX
  8
0
 10
59.436302
 20
233.216827
 30
0.0
  0
SEQEND
  8
0
  0
POLYLINE
  8
0
 62
     7
 66
     1
 10
0.0
 20
0.0
 30
0.0
 70
     1
 71
    12
  0
VERTEX
  8
0
 10
61.486721
 20
232.403198
 30
0.0
  0
VERTEX
  8
0
 10
61.696907
 20
232.403198
 30
0.0
  0
VERTEX
  8
0
 10
61.696907
 20
234.430313
 30
0.0
  0
VERTEX
  8
0
 10
61.757931
 20
234.246033
 30
0.0
  0
VERTEX
  8
0
 10
62.533138
 20
232.403198
 30
0.0
  0
VERTEX
  8
0
 10
62.772709
 20
232.403198
 30
0.0
  0
VERTEX
  8
0
 10
62.772709
 20
234.903198
 30
0.0
  0
VERTEX
  8
0
 10
62.562519
 20
234.903198
 30
0.0
  0
VERTEX
  8
0
 10
62.562519
 20
232.876083
 30
0.0
  0
VERTEX
  8
0
 10
62.487938
 20
233.088181
 30
0.0
  0
VERTEX
  8
0
 10
61.72855
 20
234.903198
 30
0.0
  0
VERTEX
  8
0
 10
61.486721
 20
234.903198
 30
0.0
  0
SEQEND
  8
0
  0
POLYLINE
  8
0
 62
     7
 66
     1
 10
0.0
 20
0.0
 30
0.0
 70
     1
 71
     6
  0
VERTEX
  8
0
 10
63.6185
 20
232.403198
 30
0.0
  0
VERTEX
  8
0
 10
64.65136
 20
232.403198
 30
0.0
  0
VERTEX
  8
0
 10
64.65136
 20
232.719604
 30
0.0
  0
VERTEX
  8
0
 10
63.842247
 20
232.719604
 30
0.0
  0
VERTEX
  8
0
 10
63.842247
 20
234.903198
 30
0.0
  0
VERTEX
  8
0
 10
63.6185
 20
234.903198
 30
0.0
  0
SEQEND
  8
0
  0
POLYLINE
  8
0
 62
     7
 66
     1
 10
0.0
 20
0.0
 30
0.0
 70
     1
 71
     9
  0
VERTEX
  8
0
 10
65.958206
 20
232.403198
 30
0.0
  0
VERTEX
  8
0
 10
65.958206
 20
233.428925
 30
0.0
  0
VERTEX
  8
0
 10
66.536789
 20
234.903198
 30
0.0
  0
VERTEX
  8
0
 10
66.276878
 20
234.903198
 30
0.0
  0
VERTEX
  8
0
 10
65.845207
 20
233.721008
 30
0.0
  0
VERTEX
  8
0
 10
65.41127
 20
234.903198
 30
0.0
  0
VERTEX
  8
0
 10
65.133278
 20
234.903198
 30
0.0
  0
VERTEX
  8
0
 10
65.736717
 20
233.404587
 30
0.0
  0
VERTEX
  8
0
 10
65.736717
 20
232.403198
 30
0.0
  0
SEQEND
  8
0
  0
POLYLINE
  8
0
 62
     7
 66
     1
 10
0.0
 20
0.0
 30
0.0
 70
     1
 71
    10
  0
VERTEX
  8
0
 10
68.309738
 20
232.403198
 30
0.0
  0
VERTEX
  8
0
 10
68.531227
 20
232.403198
 30
0.0
  0
VERTEX
  8
0
 10
68.531227
 20
233.533234
 30
0.0
  0
VERTEX
  8
0
 10
69.290611
 20
233.533234
 30
0.0
  0
VERTEX
  8
0
 10
69.290611
 20
233.839218
 30
0.0
  0
VERTEX
  8
0
 10
68.531227
 20
233.839218
 30
0.0
  0
VERTEX
  8
0
 10
68.531227
 20
234.590271
 30
0.0
  0
VERTEX
  8
0
 10
69.40136
 20
234.590271
 30
0.0
  0
VERTEX
  8
0
 10
69.40136
 20
234.903198
 30
0.0
  0
VERTEX
  8
0
 10
68.309738
 20
234.903198
 30
0.0
  0
SEQEND
  8
0
  0
POLYLINE
  8
0
 62
     7
 66
     1
 10
0.0
 20
0.0
 30
0.0
 70
     1
 71
    32
  0
VERTEX
  8
0
 10
70.057304
 20
233.651459
 30
0.0
  0
VERTEX
  8
0
 10
70.068604
 20
233.352432
 30
0.0
  0
VERTEX
  8
0
 10
70.109283
 20
233.09166
 30
0.0
  0
VERTEX
  8
0
 10
70.174828
 20
232.865646
 30
0.0
  0
VERTEX
  8
0
 10
70.26297
 20
232.677887
 30
0.0
  0
VERTEX
  8
0
 10
70.373718
 20
232.528366
 30
0.0
  0
VERTEX
  8
0
 10
70.504799
 20
232.420578
 30
0.0
  0
VERTEX
  8
0
 10
70.656227
 20
232.358002
 30
0.0
  0
VERTEX
  8
0
 10
70.827995
 20
232.333664
 30
0.0
  0
VERTEX
  8
0
 10
70.997498
 20
232.358002
 30
0.0
  0
VERTEX
  8
0
 10
71.148926
 20
232.420578
 30
0.0
  0
VERTEX
  8
0
 10
71.280006
 20
232.528366
 30
0.0
  0
VERTEX
  8
0
 10
71.390755
 20
232.677887
 30
0.0
  0
VERTEX
  8
0
 10
71.478897
 20
232.865646
 30
0.0
  0
VERTEX
  8
0
 10
71.542175
 20
233.09166
 30
0.0
  0
VERTEX
  8
0
 10
71.580597
 20
233.352432
 30
0.0
  0
VERTEX
  8
0
 10
71.59642
 20
233.651459
 30
0.0
  0
VERTEX
  8
0
 10
71.582863
 20
233.947006
 30
0.0
  0
VERTEX
  8
0
 10
71.542175
 20
234.207794
 30
0.0
  0
VERTEX
  8
0
 10
71.476639
 20
234.433792
 30
0.0
  0
VERTEX
  8
0
 10
71.390755
 20
234.621552
 30
0.0
  0
VERTEX
  8
0
 10
71.280006
 20
234.771072
 30
0.0
  0
VERTEX
  8
0
 10
71.148926
 20
234.87886
 30
0.0
  0
VERTEX
  8
0
 10
70.997498
 20
234.944916
 30
0.0
  0
VERTEX
  8
0
 10
70.827995
 20
234.969269
 30
0.0
  0
VERTEX
  8
0
 10
70.656227
 20
234.944916
 30
0.0
  0
VERTEX
  8
0
 10
70.504799
 20
234.87886
 30
0.0
  0
VERTEX
  8
0
 10
70.373718
 20
234.771072
 30
0.0
  0
VERTEX
  8
0
 10
70.26297
 20
234.621552
 30
0.0
  0
VERTEX
  8
0
 10
70.174828
 20
234.433792
 30
0.0
  0
VERTEX
  8
0
 10
70.109283
 20
234.207794
 30
0.0
  0
VERTEX
  8
0
 10
70.068604
 20
233.947006
 30
0.0
  0
SEQEND
  8
0
  0
POLYLINE
  8
0
 62
     7
 66
     1
 10
0.0
 20
0.0
 30
0.0
 70
     1
 71
    16
  0
VERTEX
  8
0
 10
70.285576
 20
233.651459
 30
0.0
  0
VERTEX
  8
0
 10
70.321732
 20
234.082611
 30
0.0
  0
VERTEX
  8
0
 10
70.430222
 20
234.405975
 30
0.0
  0
VERTEX
  8
0
 10
70.601982
 20
234.604172
 30
0.0
  0
VERTEX
  8
0
 10
70.827995
 20
234.673706
 30
0.0
  0
VERTEX
  8
0
 10
71.051743
 20
234.604172
 30
0.0
  0
VERTEX
  8
0
 10
71.223511
 20
234.405975
 30
0.0
  0
VERTEX
  8
0
 10
71.329727
 20
234.082611
 30
0.0
  0
VERTEX
  8
0
 10
71.368149
 20
233.651459
 30
0.0
  0
VERTEX
  8
0
 10
71.329727
 20
233.216827
 30
0.0
  0
VERTEX
  8
0
 10
71.223511
 20
232.893463
 30
0.0
  0
VERTEX
  8
0
 10
71.051743
 20
232.695267
 30
0.0
  0
VERTEX
  8
0
 10
70.827995
 20
232.629211
 30
0.0
  0
VERTEX
  8
0
 10
70.601982
 20
232.695267
 30
0.0
  0
VERTEX
  8
0
 10
70.430222
 20
232.893463
 30
0.0
  0
VERTEX
  8
0
 10
70.321732
 20
233.216827
 30
0.0
  0
SEQEND
  8
0
  0
POLYLINE
  8
0
 62
     7
 66
     1
 10
0.0
 20
0.0
 30
0.0
 70
     1
 71
    30
  0
VERTEX
  8
0
 10
72.374413
 20
234.903198
 30
0.0
  0
VERTEX
  8
0
 10
72.374413
 20
232.403198
 30
0.0
  0
VERTEX
  8
0
 10
72.593643
 20
232.403198
 30
0.0
  0
VERTEX
  8
0
 10
72.593643
 20
233.474136
 30
0.0
  0
VERTEX
  8
0
 10
72.950729
 20
233.474136
 30
0.0
  0
VERTEX
  8
0
 10
73.122498
 20
233.463699
 30
0.0
  0
VERTEX
  8
0
 10
73.228722
 20
233.411545
 30
0.0
  0
VERTEX
  8
0
 10
73.287483
 20
233.29332
 30
0.0
  0
VERTEX
  8
0
 10
73.312347
 20
233.074265
 30
0.0
  0
VERTEX
  8
0
 10
73.325905
 20
232.747421
 30
0.0
  0
VERTEX
  8
0
 10
73.337204
 20
232.54924
 30
0.0
  0
VERTEX
  8
0
 10
73.368851
 20
232.403198
 30
0.0
  0
VERTEX
  8
0
 10
73.624237
 20
232.403198
 30
0.0
  0
VERTEX
  8
0
 10
73.624237
 20
232.472733
 30
0.0
  0
VERTEX
  8
0
 10
73.569992
 20
232.573578
 30
0.0
  0
VERTEX
  8
0
 10
73.549652
 20
232.764816
 30
0.0
  0
VERTEX
  8
0
 10
73.53157
 20
233.17511
 30
0.0
  0
VERTEX
  8
0
 10
73.515755
 20
233.348953
 30
0.0
  0
VERTEX
  8
0
 10
73.486374
 20
233.484558
 30
0.0
  0
VERTEX
  8
0
 10
73.432129
 20
233.578445
 30
0.0
  0
VERTEX
  8
0
 10
73.346245
 20
233.641022
 30
0.0
  0
VERTEX
  8
0
 10
73.44117
 20
233.734909
 30
0.0
  0
VERTEX
  8
0
 10
73.51123
 20
233.863556
 30
0.0
  0
VERTEX
  8
0
 10
73.554176
 20
234.02002
 30
0.0
  0
VERTEX
  8
0
 10
73.569992
 20
234.211258
 30
0.0
  0
VERTEX
  8
0
 10
73.554176
 20
234.405975
 30
0.0
  0
VERTEX
  8
0
 10
73.515755
 20
234.576355
 30
0.0
  0
VERTEX
  8
0
 10
73.35981
 20
234.816269
 30
0.0
  0
VERTEX
  8
0
 10
73.194824
 20
234.889297
 30
0.0
  0
VERTEX
  8
0
 10
73.004974
 20
234.903198
 30
0.0
  0
SEQEND
  8
0
  0
POLYLINE
  8
0
 62
     7
 66
     1
 10
0.0
 20
0.0
 30
0.0
 70
     1
 71
    11
  0
VERTEX
  8
0
 10
72.591377
 20
234.61113
 30
0.0
  0
VERTEX
  8
0
 10
72.968811
 20
234.61113
 30
0.0
  0
VERTEX
  8
0
 10
73.12928
 20
234.593735
 30
0.0
  0
VERTEX
  8
0
 10
73.246803
 20
234.531158
 30
0.0
  0
VERTEX
  8
0
 10
73.316864
 20
234.409454
 30
0.0
  0
VERTEX
  8
0
 10
73.341728
 20
234.204315
 30
0.0
  0
VERTEX
  8
0
 10
73.316864
 20
233.992218
 30
0.0
  0
VERTEX
  8
0
 10
73.249062
 20
233.856613
 30
0.0
  0
VERTEX
  8
0
 10
73.131538
 20
233.783585
 30
0.0
  0
VERTEX
  8
0
 10
72.968811
 20
233.762726
 30
0.0
  0
VERTEX
  8
0
 10
72.591377
 20
233.762726
 30
0.0
  0
SEQEND
  8
0
  0
POLYLINE
  8
0
 62
     7
 66
     1
 10
0.0
 20
0.0
 30
0.0
 70
     1
 71
     4
  0
VERTEX
  8
0
 10
75.498886
 20
232.403198
 30
0.0
  0
VERTEX
  8
0
 10
75.720375
 20
232.403198
 30
0.0
  0
VERTEX
  8
0
 10
75.720375
 20
234.903198
 30
0.0
  0
VERTEX
  8
0
 10
75.498886
 20
234.903198
 30
0.0
  0
SEQEND
  8
0
  0
POLYLINE
  8
0
 62
     7
 66
     1
 10
0.0
 20
0.0
 30
0.0
 70
     1
 71
    12
  0
VERTEX
  8
0
 10
76.572952
 20
232.403198
 30
0.0
  0
VERTEX
  8
0
 10
76.783142
 20
232.403198
 30
0.0
  0
VERTEX
  8
0
 10
76.783142
 20
234.430313
 30
0.0
  0
VERTEX
  8
0
 10
76.844162
 20
234.246033
 30
0.0
  0
VERTEX
  8
0
 10
77.61937
 20
232.403198
 30
0.0
  0
VERTEX
  8
0
 10
77.85894
 20
232.403198
 30
0.0
  0
VERTEX
  8
0
 10
77.85894
 20
234.903198
 30
0.0
  0
VERTEX
  8
0
 10
77.64875
 20
234.903198
 30
0.0
  0
VERTEX
  8
0
 10
77.64875
 20
232.876083
 30
0.0
  0
VERTEX
  8
0
 10
77.574165
 20
233.088181
 30
0.0
  0
VERTEX
  8
0
 10
76.814781
 20
234.903198
 30
0.0
  0
VERTEX
  8
0
 10
76.572952
 20
234.903198
 30
0.0
  0
SEQEND
  8
0
  0
POLYLINE
  8
0
 62
     7
 66
     1
 10
0.0
 20
0.0
 30
0.0
 70
     1
 71
    10
  0
VERTEX
  8
0
 10
78.704727
 20
232.403198
 30
0.0
  0
VERTEX
  8
0
 10
78.926224
 20
232.403198
 30
0.0
  0
VERTEX
  8
0
 10
78.926224
 20
233.533234
 30
0.0
  0
VERTEX
  8
0
 10
79.685608
 20
233.533234
 30
0.0
  0
VERTEX
  8
0
 10
79.685608
 20
233.839218
 30
0.0
  0
VERTEX
  8
0
 10
78.926224
 20
233.839218
 30
0.0
  0
VERTEX
  8
0
 10
78.926224
 20
234.590271
 30
0.0
  0
VERTEX
  8
0
 10
79.796349
 20
234.590271
 30
0.0
  0
VERTEX
  8
0
 10
79.796349
 20
234.903198
 30
0.0
  0
VERTEX
  8
0
 10
78.704727
 20
234.903198
 30
0.0
  0
SEQEND
  8
0
  0
POLYLINE
  8
0
 62
     7
 66
     1
 10
0.0
 20
0.0
 30
0.0
 70
     1
 71
    32
  0
VERTEX
  8
0
 10
80.452301
 20
233.651459
 30
0.0
  0
VERTEX
  8
0
 10
80.4636
 20
233.352432
 30
0.0
  0
VERTEX
  8
0
 10
80.50428
 20
233.09166
 30
0.0
  0
VERTEX
  8
0
 10
80.569824
 20
232.865646
 30
0.0
  0
VERTEX
  8
0
 10
80.657967
 20
232.677887
 30
0.0
  0
VERTEX
  8
0
 10
80.768707
 20
232.528366
 30
0.0
  0
VERTEX
  8
0
 10
80.899796
 20
232.420578
 30
0.0
  0
VERTEX
  8
0
 10
81.051224
 20
232.358002
 30
0.0
  0
VERTEX
  8
0
 10
81.222984
 20
232.333664
 30
0.0
  0
VERTEX
  8
0
 10
81.392494
 20
232.358002
 30
0.0
  0
VERTEX
  8
0
 10
81.543915
 20
232.420578
 30
0.0
  0
VERTEX
  8
0
 10
81.675003
 20
232.528366
 30
0.0
  0
VERTEX
  8
0
 10
81.785744
 20
232.677887
 30
0.0
  0
VERTEX
  8
0
 10
81.873886
 20
232.865646
 30
0.0
  0
VERTEX
  8
0
 10
81.937172
 20
233.09166
 30
0.0
  0
VERTEX
  8
0
 10
81.975594
 20
233.352432
 30
0.0
  0
VERTEX
  8
0
 10
81.991409
 20
233.651459
 30
0.0
  0
VERTEX
  8
0
 10
81.977852
 20
233.947006
 30
0.0
  0
VERTEX
  8
0
 10
81.937172
 20
234.207794
 30
0.0
  0
VERTEX
  8
0
 10
81.871628
 20
234.433792
 30
0.0
  0
VERTEX
  8
0
 10
81.785744
 20
234.621552
 30
0.0
  0
VERTEX
  8
0
 10
81.675003
 20
234.771072
 30
0.0
  0
VERTEX
  8
0
 10
81.543915
 20
234.87886
 30
0.0
  0
VERTEX
  8
0
 10
81.392494
 20
234.944916
 30
0.0
  0
VERTEX
  8
0
 10
81.222984
 20
234.969269
 30
0.0
  0
VERTEX
  8
0
 10
81.051224
 20
234.944916
 30
0.0
  0
VERTEX
  8
0
 10
80.899796
 20
234.87886
 30
0.0
  0
VERTEX
  8
0
 10
80.768707
 20
234.771072
 30
0.0
  0
VERTEX
  8
0
 10
80.657967
 20
234.621552
 30
0.0
  0
VERTEX
  8
0
 10
80.569824
 20
234.433792
 30
0.0
  0
VERTEX
  8
0
 10
80.50428
 20
234.207794
 30
0.0
  0
VERTEX
  8
0
 10
80.4636
 20
233.947006
 30
0.0
  0
SEQEND
  8
0
  0
POLYLINE
  8
0
 62
     7
 66
     1
 10
0.0
 20
0.0
 30
0.0
 70
     1
 71
    16
  0
VERTEX
  8
0
 10
80.680565
 20
233.651459
 30
0.0
  0
VERTEX
  8
0
 10
80.716728
 20
234.082611
 30
0.0
  0
VERTEX
  8
0
 10
80.825211
 20
234.405975
 30
0.0
  0
VERTEX
  8
0
 10
80.996979
 20
234.604172
 30
0.0
  0
VERTEX
  8
0
 10
81.222984
 20
234.673706
 30
0.0
  0
VERTEX
  8
0
 10
81.446732
 20
234.604172
 30
0.0
  0
VERTEX
  8
0
 10
81.6185
 20
234.405975
 30
0.0
  0
VERTEX
  8
0
 10
81.724724
 20
234.082611
 30
0.0
  0
VERTEX
  8
0
 10
81.763145
 20
233.651459
 30
0.0
  0
VERTEX
  8
0
 10
81.724724
 20
233.216827
 30
0.0
  0
VERTEX
  8
0
 10
81.6185
 20
232.893463
 30
0.0
  0
VERTEX
  8
0
 10
81.446732
 20
232.695267
 30
0.0
  0
VERTEX
  8
0
 10
81.222984
 20
232.629211
 30
0.0
  0
VERTEX
  8
0
 10
80.996979
 20
232.695267
 30
0.0
  0
VERTEX
  8
0
 10
80.825211
 20
232.893463
 30
0.0
  0
VERTEX
  8
0
 10
80.716728
 20
233.216827
 30
0.0
  0
SEQEND
  8
0
  0
POLYLINE
  8
0
 62
     7
 66
     1
 10
0.0
 20
0.0
 30
0.0
 70
     1
 71
    30
  0
VERTEX
  8
0
 10
82.769409
 20
234.903198
 30
0.0
  0
VERTEX
  8
0
 10
82.769409
 20
232.403198
 30
0.0
  0
VERTEX
  8
0
 10
82.988632
 20
232.403198
 30
0.0
  0
VERTEX
  8
0
 10
82.988632
 20
233.474136
 30
0.0
  0
VERTEX
  8
0
 10
83.345726
 20
233.474136
 30
0.0
  0
VERTEX
  8
0
 10
83.517494
 20
233.463699
 30
0.0
  0
VERTEX
  8
0
 10
83.623718
 20
233.411545
 30
0.0
  0
VERTEX
  8
0
 10
83.68248
 20
233.29332
 30
0.0
  0
VERTEX
  8
0
 10
83.707336
 20
233.074265
 30
0.0
  0
VERTEX
  8
0
 10
83.720901
 20
232.747421
 30
0.0
  0
VERTEX
  8
0
 10
83.732201
 20
232.54924
 30
0.0
  0
VERTEX
  8
0
 10
83.76384
 20
232.403198
 30
0.0
  0
VERTEX
  8
0
 10
84.019234
 20
232.403198
 30
0.0
  0
VERTEX
  8
0
 10
84.019234
 20
232.472733
 30
0.0
  0
VERTEX
  8
0
 10
83.964989
 20
232.573578
 30
0.0
  0
VERTEX
  8
0
 10
83.944649
 20
232.764816
 30
0.0
  0
VERTEX
  8
0
 10
83.926567
 20
233.17511
 30
0.0
  0
VERTEX
  8
0
 10
83.910751
 20
233.348953
 30
0.0
  0
VERTEX
  8
0
 10
83.881363
 20
233.484558
 30
0.0
  0
VERTEX
  8
0
 10
83.827126
 20
233.578445
 30
0.0
  0
VERTEX
  8
0
 10
83.741241
 20
233.641022
 30
0.0
  0
VERTEX
  8
0
 10
83.836166
 20
233.734909
 30
0.0
  0
VERTEX
  8
0
 10
83.906227
 20
233.863556
 30
0.0
  0
VERTEX
  8
0
 10
83.949173
 20
234.02002
 30
0.0
  0
VERTEX
  8
0
 10
83.964989
 20
234.211258
 30
0.0
  0
VERTEX
  8
0
 10
83.949173
 20
234.405975
 30
0.0
  0
VERTEX
  8
0
 10
83.910751
 20
234.576355
 30
0.0
  0
VERTEX
  8
0
 10
83.754799
 20
234.816269
 30
0.0
  0
VERTEX
  8
0
 10
83.589813
 20
234.889297
 30
0.0
  0
VERTEX
  8
0
 10
83.399971
 20
234.903198
 30
0.0
  0
SEQEND
  8
0
  0
POLYLINE
  8
0
 62
     7
 66
     1
 10
0.0
 20
0.0
 30
0.0
 70
     1
 71
    11
  0
VERTEX
  8
0
 10
82.986374
 20
234.61113
 30
0.0
  0
VERTEX
  8
0
 10
83.363808
 20
234.61113
 30
0.0
  0
VERTEX
  8
0
 10
83.524277
 20
234.593735
 30
0.0
  0
VERTEX
  8
0
 10
83.6418
 20
234.531158
 30
0.0
  0
VERTEX
  8
0
 10
83.711861
 20
234.409454
 30
0.0
  0
VERTEX
  8
0
 10
83.736725
 20
234.204315
 30
0.0
  0
VERTEX
  8
0
 10
83.711861
 20
233.992218
 30
0.0
  0
VERTEX
  8
0
 10
83.644058
 20
233.856613
 30
0.0
  0
VERTEX
  8
0
 10
83.526535
 20
233.783585
 30
0.0
  0
VERTEX
  8
0
 10
83.363808
 20
233.762726
 30
0.0
  0
VERTEX
  8
0
 10
82.986374
 20
233.762726
 30
0.0
  0
SEQEND
  8
0
  0
POLYLINE
  8
0
 62
     7
 66
     1
 10
0.0
 20
0.0
 30
0.0
 70
     1
 71
    17
  0
VERTEX
  8
0
 10
84.973511
 20
234.534637
 30
0.0
  0
VERTEX
  8
0
 10
85.009666
 20
234.315582
 30
0.0
  0
VERTEX
  8
0
 10
85.418747
 20
232.403198
 30
0.0
  0
VERTEX
  8
0
 10
85.626671
 20
232.403198
 30
0.0
  0
VERTEX
  8
0
 10
86.044785
 20
234.315582
 30
0.0
  0
VERTEX
  8
0
 10
86.083206
 20
234.534637
 30
0.0
  0
VERTEX
  8
0
 10
86.083206
 20
232.403198
 30
0.0
  0
VERTEX
  8
0
 10
86.297913
 20
232.403198
 30
0.0
  0
VERTEX
  8
0
 10
86.297913
 20
234.903198
 30
0.0
  0
VERTEX
  8
0
 10
85.981506
 20
234.903198
 30
0.0
  0
VERTEX
  8
0
 10
85.563385
 20
232.990814
 30
0.0
  0
VERTEX
  8
0
 10
85.527229
 20
232.785675
 30
0.0
  0
VERTEX
  8
0
 10
85.488808
 20
232.990814
 30
0.0
  0
VERTEX
  8
0
 10
85.08651
 20
234.903198
 30
0.0
  0
VERTEX
  8
0
 10
84.770096
 20
234.903198
 30
0.0
  0
VERTEX
  8
0
 10
84.770096
 20
232.403198
 30
0.0
  0
VERTEX
  8
0
 10
84.973511
 20
232.403198
 30
0.0
  0
SEQEND
  8
0
  0
POLYLINE
  8
0
 62
     7
 66
     1
 10
0.0
 20
0.0
 30
0.0
 70
     1
 71
     8
  0
VERTEX
  8
0
 10
86.965164
 20
232.403198
 30
0.0
  0
VERTEX
  8
0
 10
87.193436
 20
232.403198
 30
0.0
  0
VERTEX
  8
0
 10
87.367462
 20
233.150757
 30
0.0
  0
VERTEX
  8
0
 10
88.007065
 20
233.150757
 30
0.0
  0
VERTEX
  8
0
 10
88.178825
 20
232.403198
 30
0.0
  0
VERTEX
  8
0
 10
88.418396
 20
232.403198
 30
0.0
  0
VERTEX
  8
0
 10
87.812698
 20
234.903198
 30
0.0
  0
VERTEX
  8
0
 10
87.568604
 20
234.903198
 30
0.0
  0
SEQEND
  8
0
  0
POLYLINE
  8
0
 62
     7
 66
     1
 10
0.0
 20
0.0
 30
0.0
 70
     1
 71
     3
  0
VERTEX
  8
0
 10
87.435257
 20
233.442841
 30
0.0
  0
VERTEX
  8
0
 10
87.690651
 20
234.545059
 30
0.0
  0
VERTEX
  8
0
 10
87.941521
 20
233.442841
 30
0.0
  0
SEQEND
  8
0
  0
POLYLINE
  8
0
 62
     7
 66
     1
 10
0.0
 20
0.0
 30
0.0
 70
     1
 71
     8
  0
VERTEX
  8
0
 10
89.444992
 20
232.403198
 30
0.0
  0
VERTEX
  8
0
 10
89.666481
 20
232.403198
 30
0.0
  0
VERTEX
  8
0
 10
89.666481
 20
234.600693
 30
0.0
  0
VERTEX
  8
0
 10
90.17952
 20
234.600693
 30
0.0
  0
VERTEX
  8
0
 10
90.17952
 20
234.903198
 30
0.0
  0
VERTEX
  8
0
 10
88.931953
 20
234.903198
 30
0.0
  0
VERTEX
  8
0
 10
88.931953
 20
234.600693
 30
0.0
  0
VERTEX
  8
0
 10
89.444992
 20
234.600693
 30
0.0
  0
SEQEND
  8
0
  0
POLYLINE
  8
0
 62
     7
 66
     1
 10
0.0
 20
0.0
 30
0.0
 70
     1
 71
     4
  0
VERTEX
  8
0
 10
90.880669
 20
232.403198
 30
0.0
  0
VERTEX
  8
0
 10
91.102158
 20
232.403198
 30
0.0
  0
VERTEX
  8
0
 10
91.102158
 20
234.903198
 30
0.0
  0
VERTEX
  8
0
 10
90.880669
 20
234.903198
 30
0.0
  0
SEQEND
  8
0
  0
POLYLINE
  8
0
 62
     7
 66
     1
 10
0.0
 20
0.0
 30
0.0
 70
     1
 71
    32
  0
VERTEX
  8
0
 10
91.886932
 20
233.651459
 30
0.0
  0
VERTEX
  8
0
 10
91.898232
 20
233.352432
 30
0.0
  0
VERTEX
  8
0
 10
91.938911
 20
233.09166
 30
0.0
  0
VERTEX
  8
0
 10
92.004456
 20
232.865646
 30
0.0
  0
VERTEX
  8
0
 10
92.092598
 20
232.677887
 30
0.0
  0
VERTEX
  8
0
 10
92.203339
 20
232.528366
 30
0.0
  0
VERTEX
  8
0
 10
92.334427
 20
232.420578
 30
0.0
  0
VERTEX
  8
0
 10
92.485855
 20
232.358002
 30
0.0
  0
VERTEX
  8
0
 10
92.657623
 20
232.333664
 30
0.0
  0
VERTEX
  8
0
 10
92.827126
 20
232.358002
 30
0.0
  0
VERTEX
  8
0
 10
92.978546
 20
232.420578
 30
0.0
  0
VERTEX
  8
0
 10
93.109634
 20
232.528366
 30
0.0
  0
VERTEX
  8
0
 10
93.220383
 20
232.677887
 30
0.0
  0
VERTEX
  8
0
 10
93.308517
 20
232.865646
 30
0.0
  0
VERTEX
  8
0
 10
93.371803
 20
233.09166
 30
0.0
  0
VERTEX
  8
0
 10
93.410225
 20
233.352432
 30
0.0
  0
VERTEX
  8
0
 10
93.426048
 20
233.651459
 30
0.0
  0
VERTEX
  8
0
 10
93.412491
 20
233.947006
 30
0.0
  0
VERTEX
  8
0
 10
93.371803
 20
234.207794
 30
0.0
  0
VERTEX
  8
0
 10
93.306259
 20
234.433792
 30
0.0
  0
VERTEX
  8
0
 10
93.220383
 20
234.621552
 30
0.0
  0
VERTEX
  8
0
 10
93.109634
 20
234.771072
 30
0.0
  0
VERTEX
  8
0
 10
92.978546
 20
234.87886
 30
0.0
  0
VERTEX
  8
0
 10
92.827126
 20
234.944916
 30
0.0
  0
VERTEX
  8
0
 10
92.657623
 20
234.969269
 30
0.0
  0
VERTEX
  8
0
 10
92.485855
 20
234.944916
 30
0.0
  0
VERTEX
  8
0
 10
92.334427
 20
234.87886
 30
0.0
  0
VERTEX
  8
0
 10
92.203339
 20
234.771072
 30
0.0
  0
VERTEX
  8
0
 10
92.092598
 20
234.621552
 30
0.0
  0
VERTEX
  8
0
 10
92.004456
 20
234.433792
 30
0.0
  0
VERTEX
  8
0
 10
91.938911
 20
234.207794
 30
0.0
  0
VERTEX
  8
0
 10
91.898232
 20
233.947006
 30
0.0
  0
SEQEND
  8
0
  0
POLYLINE
  8
0
 62
     7
 66
     1
 10
0.0
 20
0.0
 30
0.0
 70
     1
 71
    16
  0
VERTEX
  8
0
 10
92.115204
 20
233.651459
 30
0.0
  0
VERTEX
  8
0
 10
92.15136
 20
234.082611
 30
0.0
  0
VERTEX
  8
0
 10
92.259842
 20
234.405975
 30
0.0
  0
VERTEX
  8
0
 10
92.43161
 20
234.604172
 30
0.0
  0
VERTEX
  8
0
 10
92.657623
 20
234.673706
 30
0.0
  0
VERTEX
  8
0
 10
92.881363
 20
234.604172
 30
0.0
  0
VERTEX
  8
0
 10
93.053131
 20
234.405975
 30
0.0
  0
VERTEX
  8
0
 10
93.159363
 20
234.082611
 30
0.0
  0
VERTEX
  8
0
 10
93.197784
 20
233.651459
 30
0.0
  0
VERTEX
  8
0
 10
93.159363
 20
233.216827
 30
0.0
  0
VERTEX
  8
0
 10
93.053131
 20
232.893463
 30
0.0
  0
VERTEX
  8
0
 10
92.881363
 20
232.695267
 30
0.0
  0
VERTEX
  8
0
 10
92.657623
 20
232.629211
 30
0.0
  0
VERTEX
  8
0
 10
92.43161
 20
232.695267
 30
0.0
  0
VERTEX
  8
0
 10
92.259842
 20
232.893463
 30
0.0
  0
VERTEX
  8
0
 10
92.15136
 20
233.216827
 30
0.0
  0
SEQEND
  8
0
  0
POLYLINE
  8
0
 62
     7
 66
     1
 10
0.0
 20
0.0
 30
0.0
 70
     1
 71
    12
  0
VERTEX
  8
0
 10
94.201782
 20
232.403198
 30
0.0
  0
VERTEX
  8
0
 10
94.411964
 20
232.403198
 30
0.0
  0
VERTEX
  8
0
 10
94.411964
 20
234.430313
 30
0.0
  0
VERTEX
  8
0
 10
94.472992
 20
234.246033
 30
0.0
  0
VERTEX
  8
0
 10
95.248199
 20
232.403198
 30
0.0
  0
VERTEX
  8
0
 10
95.487762
 20
232.403198
 30
0.0
  0
VERTEX
  8
0
 10
95.487762
 20
234.903198
 30
0.0
  0
VERTEX
  8
0
 10
95.277573
 20
234.903198
 30
0.0
  0
VERTEX
  8
0
 10
95.277573
 20
232.876083
 30
0.0
  0
VERTEX
  8
0
 10
95.202995
 20
233.088181
 30
0.0
  0
VERTEX
  8
0
 10
94.443604
 20
234.903198
 30
0.0
  0
VERTEX
  8
0
 10
94.201782
 20
234.903198
 30
0.0
  0
SEQEND
  8
0
  0
LINE
  8
0
 62
     7
 10
91.217911
 20
125.23645
 30
0.0
 11
91.217911
 21
126.032616
 31
0.0
210
0.0
220
0.0
230
1.0
  0
ARC
  8
0
 62
     7
 10
89.867912
 20
124.582619
 30
0.0
 40
1.5
 50
25.841934
 51
90.000003
210
0.0
220
0.0
230
1.0
  0
ARC
  8
0
 62
     7
 10
89.867912
 20
124.582619
 30
0.0
 40
1.5
 50
20.000001
 51
25.841934
210
0.0
220
0.0
230
1.0
  0
ARC
  8
0
 62
     7
 10
92.967911
 20
126.032616
 30
0.0
 40
1.75
 50
120.949727
 51
180.000005
210
0.0
220
0.0
230
1.0
  0
LINE
  8
0
 62
     7
 10
91.277451
 20
125.09565
 30
0.0
 11
91.828148
 21
123.582619
 31
0.0
210
0.0
220
0.0
230
1.0
  0
LINE
  8
0
 62
     7
 10
104.067909
 20
123.582619
 30
0.0
 11
116.917908
 21
123.582619
 31
0.0
210
0.0
220
0.0
230
1.0
  0
LINE
  8
0
 62
     7
 10
104.067909
 20
123.582619
 30
0.0
 11
91.828148
 21
123.582619
 31
0.0
210
0.0
220
0.0
230
1.0
  0
LINE
  8
0
 62
     7
 10
80.567909
 20
126.082619
 30
0.0
 11
89.567909
 21
126.082619
 31
0.0
210
0.0
220
0.0
230
1.0
  0
LINE
  8
0
 62
     7
 10
89.567909
 20
126.082619
 30
0.0
 11
89.867912
 21
126.082619
 31
0.0
210
0.0
220
0.0
230
1.0
  0
LINE
  8
0
 62
     7
 10
65.967911
 20
216.932617
 30
0.0
 11
65.967911
 21
212.98262
 31
0.0
210
0.0
220
0.0
230
1.0
  0
LINE
  8
0
 62
     7
 10
66.917908
 20
216.932617
 30
0.0
 11
65.967911
 21
216.932617
 31
0.0
210
0.0
220
0.0
230
1.0
  0
LINE
  8
0
 62
     7
 10
65.967911
 20
216.932617
 30
0.0
 11
62.067909
 21
216.932617
 31
0.0
210
0.0
220
0.0
230
1.0
  0
LINE
  8
0
 62
     7
 10
62.067909
 20
216.932617
 30
0.0
 11
62.067909
 21
216.715759
 31
0.0
210
0.0
220
0.0
230
1.0
  0
LINE
  8
0
 62
     7
 10
62.067909
 20
222.582611
 30
0.0
 11
62.067909
 21
216.932617
 31
0.0
210
0.0
220
0.0
230
1.0
  0
LINE
  8
0
 62
     7
 10
65.146851
 20
211.217926
 30
0.0
 11
62.067909
 21
216.715759
 31
0.0
210
0.0
220
0.0
230
1.0
  0
LINE
  8
0
 62
     7
 10
65.146851
 20
211.217926
 30
0.0
 11
66.009949
 21
208.256775
 31
0.0
210
0.0
220
0.0
230
1.0
  0
ARC
  8
0
 62
     7
 10
64.56987
 20
207.837021
 30
0.0
 40
1.5
 50
340.439504
 51
16.25
210
0.0
220
0.0
230
1.0
  0
LINE
  8
0
 62
     7
 10
65.945091
 20
207.281738
 30
0.0
 11
65.983307
 21
207.334808
 31
0.0
210
0.0
220
0.0
230
1.0
  0
LINE
  8
0
 62
     7
 10
64.281479
 20
204.970825
 30
0.0
 11
65.945091
 21
207.281738
 31
0.0
210
0.0
220
0.0
230
1.0
  0
LINE
  8
0
 62
     7
 10
65.945091
 20
207.281738
 30
0.0
 11
67.157394
 21
203.685135
 31
0.0
210
0.0
220
0.0
230
1.0
  0
LINE
  8
0
 62
     7
 10
67.168228
 20
200.715332
 30
0.0
 11
67.157394
 21
203.685135
 31
0.0
210
0.0
220
0.0
230
1.0
  0
LINE
  8
0
 62
     7
 10
67.168228
 20
200.715332
 30
0.0
 11
73.26796
 21
183.951691
 31
0.0
210
0.0
220
0.0
230
1.0
  0
LINE
  8
0
 62
     7
 10
73.26796
 20
183.951691
 30
0.0
 11
71.881943
 21
183.228958
 31
0.0
210
0.0
220
0.0
230
1.0
  0
LINE
  8
0
 62
     7
 10
71.881943
 20
183.228958
 30
0.0
 11
67.514603
 21
185.843613
 31
0.0
210
0.0
220
0.0
230
1.0
  0
LINE
  8
0
 62
     7
 10
67.514603
 20
185.843613
 30
0.0
 11
64.418716
 21
188.926605
 31
0.0
210
0.0
220
0.0
230
1.0
  0
LINE
  8
0
 62
     7
 10
64.418716
 20
188.926605
 30
0.0
 11
63.467373
 21
191.537842
 31
0.0
210
0.0
220
0.0
230
1.0
  0
LINE
  8
0
 62
     7
 10
63.467373
 20
191.537842
 30
0.0
 11
60.30365
 21
189.766083
 31
0.0
210
0.0
220
0.0
230
1.0
  0
LINE
  8
0
 62
     7
 10
60.30365
 20
189.766083
 30
0.0
 11
58.362637
 21
193.23201
 31
0.0
210
0.0
220
0.0
230
1.0
  0
LINE
  8
0
 62
     7
 10
66.269043
 20
179.114105
 30
0.0
 11
60.30365
 21
189.766083
 31
0.0
210
0.0
220
0.0
230
1.0
  0
ARC
  8
0
 62
     7
 10
64.960297
 20
178.381165
 30
0.0
 40
1.5
 50
324.250001
 51
29.249998
210
0.0
220
0.0
230
1.0
  0
LINE
  8
0
 62
     7
 10
65.945091
 20
177.181732
 30
0.0
 11
66.177658
 21
177.504791
 31
0.0
210
0.0
220
0.0
230
1.0
  0
LINE
  8
0
 62
     7
 10
65.945091
 20
177.181732
 30
0.0
 11
64.281479
 21
174.870819
 31
0.0
210
0.0
220
0.0
230
1.0
  0
LINE
  8
0
 62
     7
 10
65.945091
 20
177.181732
 30
0.0
 11
67.157394
 21
173.585129
 31
0.0
210
0.0
220
0.0
230
1.0
  0
LINE
  8
0
 62
     7
 10
67.168228
 20
170.615341
 30
0.0
 11
67.157394
 21
173.585129
 31
0.0
210
0.0
220
0.0
230
1.0
  0
LINE
  8
0
 62
     7
 10
67.168228
 20
170.615341
 30
0.0
 11
73.26796
 21
153.851685
 31
0.0
210
0.0
220
0.0
230
1.0
  0
LINE
  8
0
 62
     7
 10
73.26796
 20
153.851685
 30
0.0
 11
71.881943
 21
153.128967
 31
0.0
210
0.0
220
0.0
230
1.0
  0
LINE
  8
0
 62
     7
 10
71.881943
 20
153.128967
 30
0.0
 11
67.514603
 21
155.743622
 31
0.0
210
0.0
220
0.0
230
1.0
  0
LINE
  8
0
 62
     7
 10
67.514603
 20
155.743622
 30
0.0
 11
64.418716
 21
158.826614
 31
0.0
210
0.0
220
0.0
230
1.0
  0
LINE
  8
0
 62
     7
 10
64.418716
 20
158.826614
 30
0.0
 11
63.467373
 21
161.437851
 31
0.0
210
0.0
220
0.0
230
1.0
  0
LINE
  8
0
 62
     7
 10
63.467373
 20
161.437851
 30
0.0
 11
60.30365
 21
159.666077
 31
0.0
210
0.0
220
0.0
230
1.0
  0
LINE
  8
0
 62
     7
 10
60.30365
 20
159.666077
 30
0.0
 11
58.362637
 21
163.132019
 31
0.0
210
0.0
220
0.0
230
1.0
  0
LINE
  8
0
 62
     7
 10
60.30365
 20
159.666077
 30
0.0
 11
66.269043
 21
149.014099
 31
0.0
210
0.0
220
0.0
230
1.0
  0
ARC
  8
0
 62
     7
 10
64.960297
 20
148.281174
 30
0.0
 40
1.5
 50
324.250001
 51
29.249998
210
0.0
220
0.0
230
1.0
  0
LINE
  8
0
 62
     7
 10
65.945091
 20
147.081741
 30
0.0
 11
66.177658
 21
147.4048
 31
0.0
210
0.0
220
0.0
230
1.0
  0
LINE
  8
0
 62
     7
 10
64.281479
 20
144.770828
 30
0.0
 11
65.945091
 21
147.081741
 31
0.0
210
0.0
220
0.0
230
1.0
  0
LINE
  8
0
 62
     7
 10
65.945091
 20
147.081741
 30
0.0
 11
67.157394
 21
143.485138
 31
0.0
210
0.0
220
0.0
230
1.0
  0
LINE
  8
0
 62
     7
 10
67.168228
 20
140.515335
 30
0.0
 11
67.157394
 21
143.485138
 31
0.0
210
0.0
220
0.0
230
1.0
  0
LINE
  8
0
 62
     7
 10
71.657776
 20
128.17688
 30
0.0
 11
68.401199
 21
137.126801
 31
0.0
210
0.0
220
0.0
230
1.0
  0
LINE
  8
0
 62
     7
 10
71.657776
 20
128.17688
 30
0.0
 11
73.26796
 21
123.751686
 31
0.0
210
0.0
220
0.0
230
1.0
  0
LINE
  8
0
 62
     7
 10
67.168228
 20
140.515335
 30
0.0
 11
68.401199
 21
137.126801
 31
0.0
210
0.0
220
0.0
230
1.0
  0
LINE
  8
0
 62
     7
 10
74.167908
 20
140.356308
 30
0.0
 11
68.401199
 21
137.126801
 31
0.0
210
0.0
220
0.0
230
1.0
  0
LINE
  8
0
 62
     7
 10
74.167908
 20
136.082611
 30
0.0
 11
74.167908
 21
140.356308
 31
0.0
210
0.0
220
0.0
230
1.0
  0
LINE
  8
0
 62
     7
 10
75.967911
 20
136.082611
 30
0.0
 11
74.167908
 21
136.082611
 31
0.0
210
0.0
220
0.0
230
1.0
  0
LINE
  8
0
 62
     7
 10
75.967911
 20
130.582611
 30
0.0
 11
75.967911
 21
132.082611
 31
0.0
210
0.0
220
0.0
230
1.0
  0
LINE
  8
0
 62
     7
 10
75.967911
 20
132.082611
 30
0.0
 11
75.967911
 21
136.082611
 31
0.0
210
0.0
220
0.0
230
1.0
  0
LINE
  8
0
 62
     7
 10
75.967911
 20
132.082611
 30
0.0
 11
89.567909
 21
132.082611
 31
0.0
210
0.0
220
0.0
230
1.0
  0
LINE
  8
0
 62
     7
 10
89.567909
 20
126.082619
 30
0.0
 11
89.567909
 21
132.082611
 31
0.0
210
0.0
220
0.0
230
1.0
  0
LINE
  8
0
 62
     7
 10
92.067909
 20
136.392624
 30
0.0
 11
92.067909
 21
127.533455
 31
0.0
210
0.0
220
0.0
230
1.0
  0
LINE
  8
0
 62
     7
 10
92.067909
 20
136.392624
 30
0.0
 11
116.067909
 21
136.392624
 31
0.0
210
0.0
220
0.0
230
1.0
  0
LINE
  8
0
 62
     7
 10
116.067909
 20
136.392624
 30
0.0
 11
116.067909
 21
127.533455
 31
0.0
210
0.0
220
0.0
230
1.0
  0
ARC
  8
0
 62
     7
 10
115.167908
 20
126.032616
 30
0.0
 40
1.75
 50
0.0
 51
59.050278
210
0.0
220
0.0
230
1.0
  0
LINE
  8
0
 62
     7
 10
116.917908
 20
123.582619
 30
0.0
 11
116.917908
 21
126.032616
 31
0.0
210
0.0
220
0.0
230
1.0
  0
LINE
  8
0
 62
     7
 10
119.675087
 20
123.582619
 30
0.0
 11
116.917908
 21
123.582619
 31
0.0
210
0.0
220
0.0
230
1.0
  0
LINE
  8
0
 62
     7
 10
120.367905
 20
123.98262
 30
0.0
 11
119.675087
 21
123.582619
 31
0.0
210
0.0
220
0.0
230
1.0
  0
LINE
  8
0
 62
     7
 10
120.367905
 20
123.98262
 30
0.0
 11
120.367905
 21
125.782616
 31
0.0
210
0.0
220
0.0
230
1.0
  0
ARC
  8
0
 62
     7
 10
121.567909
 20
125.782616
 30
0.0
 40
1.2
 50
0.0
 51
180.000005
210
0.0
220
0.0
230
1.0
  0
LINE
  8
0
 62
     7
 10
122.767914
 20
125.782616
 30
0.0
 11
122.767914
 21
123.582619
 31
0.0
210
0.0
220
0.0
230
1.0
  0
LINE
  8
0
 62
     7
 10
134.88559
 20
123.582619
 30
0.0
 11
122.767914
 21
123.582619
 31
0.0
210
0.0
220
0.0
230
1.0
  0
ARC
  8
0
 62
     7
 10
134.88559
 20
122.082619
 30
0.0
 40
1.5
 50
56.442689
 51
73.597638
210
0.0
220
0.0
230
1.0
  0
ARC
  8
0
 62
     7
 10
134.88559
 20
122.082619
 30
0.0
 40
1.5
 50
73.597638
 51
90.000003
210
0.0
220
0.0
230
1.0
  0
LINE
  8
0
 62
     7
 10
135.309174
 20
123.521576
 30
0.0
 11
134.867859
 21
123.751686
 31
0.0
210
0.0
220
0.0
230
1.0
  0
LINE
  8
0
 62
     7
 10
140.96759
 20
140.515335
 30
0.0
 11
139.734619
 21
137.126801
 31
0.0
210
0.0
220
0.0
230
1.0
  0
LINE
  8
0
 62
     7
 10
136.478043
 20
128.17688
 30
0.0
 11
134.867859
 21
123.751686
 31
0.0
210
0.0
220
0.0
230
1.0
  0
LINE
  8
0
 62
     7
 10
136.478043
 20
128.17688
 30
0.0
 11
139.734619
 21
137.126801
 31
0.0
210
0.0
220
0.0
230
1.0
  0
LINE
  8
0
 62
     7
 10
136.478043
 20
128.17688
 30
0.0
 11
133.967911
 21
129.582611
 31
0.0
210
0.0
220
0.0
230
1.0
  0
LINE
  8
0
 62
     7
 10
133.967911
 20
129.582611
 30
0.0
 11
133.967911
 21
136.082611
 31
0.0
210
0.0
220
0.0
230
1.0
  0
LINE
  8
0
 62
     7
 10
133.967911
 20
129.582611
 30
0.0
 11
133.967911
 21
129.57457
 31
0.0
210
0.0
220
0.0
230
1.0
  0
LINE
  8
0
 62
     7
 10
133.967911
 20
129.57457
 30
0.0
 11
132.167908
 21
130.582611
 31
0.0
210
0.0
220
0.0
230
1.0
  0
LINE
  8
0
 62
     7
 10
132.167908
 20
130.582611
 30
0.0
 11
132.167908
 21
136.082611
 31
0.0
210
0.0
220
0.0
230
1.0
  0
LINE
  8
0
 62
     7
 10
132.167908
 20
136.082611
 30
0.0
 11
133.967911
 21
136.082611
 31
0.0
210
0.0
220
0.0
230
1.0
  0
LINE
  8
0
 62
     7
 10
133.967911
 20
136.082611
 30
0.0
 11
133.967911
 21
140.356308
 31
0.0
210
0.0
220
0.0
230
1.0
  0
LINE
  8
0
 62
     7
 10
133.967911
 20
140.356308
 30
0.0
 11
139.734619
 21
137.126801
 31
0.0
210
0.0
220
0.0
230
1.0
  0
LINE
  8
0
 62
     7
 10
140.96759
 20
140.515335
 30
0.0
 11
140.978424
 21
143.485138
 31
0.0
210
0.0
220
0.0
230
1.0
  0
LINE
  8
0
 62
     7
 10
142.190735
 20
147.081741
 30
0.0
 11
140.978424
 21
143.485138
 31
0.0
210
0.0
220
0.0
230
1.0
  0
LINE
  8
0
 62
     7
 10
143.85434
 20
144.770828
 30
0.0
 11
142.190735
 21
147.081741
 31
0.0
210
0.0
220
0.0
230
1.0
  0
LINE
  8
0
 62
     7
 10
142.190735
 20
147.081741
 30
0.0
 11
141.95816
 21
147.4048
 31
0.0
210
0.0
220
0.0
230
1.0
  0
ARC
  8
0
 62
     7
 10
143.175522
 20
148.281174
 30
0.0
 40
1.5
 50
150.750007
 51
215.749997
210
0.0
220
0.0
230
1.0
  0
LINE
  8
0
 62
     7
 10
147.832169
 20
159.666077
 30
0.0
 11
141.866776
 21
149.014099
 31
0.0
210
0.0
220
0.0
230
1.0
  0
LINE
  8
0
 62
     7
 10
147.832169
 20
159.666077
 30
0.0
 11
149.773178
 21
163.132019
 31
0.0
210
0.0
220
0.0
230
1.0
  0
LINE
  8
0
 62
     7
 10
144.668442
 20
161.437851
 30
0.0
 11
147.832169
 21
159.666077
 31
0.0
210
0.0
220
0.0
230
1.0
  0
LINE
  8
0
 62
     7
 10
143.717102
 20
158.826614
 30
0.0
 11
144.668442
 21
161.437851
 31
0.0
210
0.0
220
0.0
230
1.0
  0
LINE
  8
0
 62
     7
 10
140.621216
 20
155.743622
 30
0.0
 11
143.717102
 21
158.826614
 31
0.0
210
0.0
220
0.0
230
1.0
  0
LINE
  8
0
 62
     7
 10
136.253876
 20
153.128967
 30
0.0
 11
140.621216
 21
155.743622
 31
0.0
210
0.0
220
0.0
230
1.0
  0
LINE
  8
0
 62
     7
 10
134.867859
 20
153.851685
 30
0.0
 11
136.253876
 21
153.128967
 31
0.0
210
0.0
220
0.0
230
1.0
  0
LINE
  8
0
 62
     7
 10
140.96759
 20
170.615341
 30
0.0
 11
134.867859
 21
153.851685
 31
0.0
210
0.0
220
0.0
230
1.0
  0
LINE
  8
0
 62
     7
 10
140.96759
 20
170.615341
 30
0.0
 11
140.978424
 21
173.585129
 31
0.0
210
0.0
220
0.0
230
1.0
  0
LINE
  8
0
 62
     7
 10
142.190735
 20
177.181732
 30
0.0
 11
140.978424
 21
173.585129
 31
0.0
210
0.0
220
0.0
230
1.0
  0
LINE
  8
0
 62
     7
 10
142.190735
 20
177.181732
 30
0.0
 11
143.85434
 21
174.870819
 31
0.0
210
0.0
220
0.0
230
1.0
  0
LINE
  8
0
 62
     7
 10
142.190735
 20
177.181732
 30
0.0
 11
141.95816
 21
177.504791
 31
0.0
210
0.0
220
0.0
230
1.0
  0
ARC
  8
0
 62
     7
 10
143.175522
 20
178.381165
 30
0.0
 40
1.5
 50
150.750007
 51
215.749997
210
0.0
220
0.0
230
1.0
  0
LINE
  8
0
 62
     7
 10
142.817902
 20
222.582611
 30
0.0
 11
142.817902
 21
220.782623
 31
0.0
210
0.0
220
0.0
230
1.0
  0
ARC
  8
0
 62
     7
 10
141.617905
 20
220.782623
 30
0.0
 40
1.2
 50
318.59038
 51
0.0
210
0.0
220
0.0
230
1.0
  0
ARC
  8
0
 62
     7
 10
141.617905
 20
220.782623
 30
0.0
 40
1.2
 50
180.000005
 51
221.409615
210
0.0
220
0.0
230
1.0
  0
ARC
  8
0
 62
     7
 10
141.617905
 20
220.782623
 30
0.0
 40
1.2
 50
221.409615
 51
318.59038
210
0.0
220
0.0
230
1.0
  0
LINE
  8
0
 62
     7
 10
62.067909
 20
222.582611
 30
0.0
 11
65.617905
 21
222.582611
 31
0.0
210
0.0
220
0.0
230
1.0
  0
LINE
  8
0
 62
     7
 10
65.617905
 20
222.582611
 30
0.0
 11
67.417908
 21
222.582611
 31
0.0
210
0.0
220
0.0
230
1.0
  0
LINE
  8
0
 62
     7
 10
104.067909
 20
222.582611
 30
0.0
 11
67.417908
 21
222.582611
 31
0.0
210
0.0
220
0.0
230
1.0
  0
LINE
  8
0
 62
     7
 10
64.281479
 20
204.970825
 30
0.0
 11
67.139908
 21
199.86673
 31
0.0
210
0.0
220
0.0
230
1.0
  0
ARC
  8
0
 62
     7
 10
65.831161
 20
199.133789
 30
0.0
 40
1.5
 50
299.250003
 51
29.249998
210
0.0
220
0.0
230
1.0
  0
LINE
  8
0
 62
     7
 10
58.362637
 20
193.23201
 30
0.0
 11
66.564102
 21
197.825043
 31
0.0
210
0.0
220
0.0
230
1.0
  0
LINE
  8
0
 62
     7
 10
64.281479
 20
174.870819
 30
0.0
 11
67.139908
 21
169.766724
 31
0.0
210
0.0
220
0.0
230
1.0
  0
ARC
  8
0
 62
     7
 10
65.831161
 20
169.033798
 30
0.0
 40
1.5
 50
299.250003
 51
29.249998
210
0.0
220
0.0
230
1.0
  0
LINE
  8
0
 62
     7
 10
58.362637
 20
163.132019
 30
0.0
 11
66.564102
 21
167.725052
 31
0.0
210
0.0
220
0.0
230
1.0
  0
LINE
  8
0
 62
     7
 10
64.281479
 20
144.770828
 30
0.0
 11
67.139908
 21
139.666718
 31
0.0
210
0.0
220
0.0
230
1.0
  0
ARC
  8
0
 62
     7
 10
65.831161
 20
138.933792
 30
0.0
 40
1.5
 50
299.250003
 51
29.249998
210
0.0
220
0.0
230
1.0
  0
LINE
  8
0
 62
     7
 10
58.362637
 20
133.032013
 30
0.0
 11
66.564102
 21
137.625046
 31
0.0
210
0.0
220
0.0
230
1.0
  0
LINE
  8
0
 62
     7
 10
58.362637
 20
133.032013
 30
0.0
 11
59.876652
 21
130.328537
 31
0.0
210
0.0
220
0.0
230
1.0
  0
ARC
  8
0
 62
     7
 10
69.067909
 20
123.082619
 30
0.0
 40
1.5
 50
80.191455
 51
90.000003
210
0.0
220
0.0
230
1.0
  0
ARC
  8
0
 62
     7
 10
69.067909
 20
123.082619
 30
0.0
 40
1.5
 50
24.903947
 51
37.992026
210
0.0
220
0.0
230
1.0
  0
ARC
  8
0
 62
     7
 10
69.067909
 20
123.082619
 30
0.0
 40
1.5
 50
37.992026
 51
80.191455
210
0.0
220
0.0
230
1.0
  0
ARC
  8
0
 62
     7
 10
71.244743
 20
124.093254
 30
0.0
 40
0.9
 50
204.903944
 51
234.647396
210
0.0
220
0.0
230
1.0
  0
ARC
  8
0
 62
     7
 10
71.591904
 20
124.582619
 30
0.0
 40
1.5
 50
234.647396
 51
276.96578
210
0.0
220
0.0
230
1.0
  0
ARC
  8
0
 62
     7
 10
71.591904
 20
124.582619
 30
0.0
 40
1.5
 50
276.96578
 51
303.557311
210
0.0
220
0.0
230
1.0
  0
ARC
  8
0
 62
     7
 10
73.250221
 20
122.082619
 30
0.0
 40
1.5
 50
106.402367
 51
123.557316
210
0.0
220
0.0
230
1.0
  0
ARC
  8
0
 62
     7
 10
73.250221
 20
122.082619
 30
0.0
 40
1.5
 50
90.000003
 51
106.402367
210
0.0
220
0.0
230
1.0
  0
LINE
  8
0
 62
     7
 10
73.250221
 20
123.582619
 30
0.0
 11
75.567909
 21
123.582619
 31
0.0
210
0.0
220
0.0
230
1.0
  0
LINE
  8
0
 62
     7
 10
79.067909
 20
123.582619
 30
0.0
 11
75.567909
 21
123.582619
 31
0.0
210
0.0
220
0.0
230
1.0
  0
LINE
  8
0
 62
     7
 10
79.067909
 20
123.582619
 30
0.0
 11
79.067909
 21
124.582619
 31
0.0
210
0.0
220
0.0
230
1.0
  0
ARC
  8
0
 62
     7
 10
80.567909
 20
124.582619
 30
0.0
 40
1.5
 50
90.000003
 51
180.000005
210
0.0
220
0.0
230
1.0
  0
ARC
  8
0
 62
     7
 10
136.543915
 20
124.582619
 30
0.0
 40
1.5
 50
263.034222
 51
305.352602
210
0.0
220
0.0
230
1.0
  0
ARC
  8
0
 62
     7
 10
136.543915
 20
124.582619
 30
0.0
 40
1.5
 50
236.442684
 51
263.034222
210
0.0
220
0.0
230
1.0
  0
ARC
  8
0
 62
     7
 10
136.891083
 20
124.093254
 30
0.0
 40
0.9
 50
305.352602
 51
335.096053
210
0.0
220
0.0
230
1.0
  0
ARC
  8
0
 62
     7
 10
139.067902
 20
123.082619
 30
0.0
 40
1.5
 50
90.000003
 51
99.808543
210
0.0
220
0.0
230
1.0
  0
ARC
  8
0
 62
     7
 10
139.067902
 20
123.082619
 30
0.0
 40
1.5
 50
99.808543
 51
142.007979
210
0.0
220
0.0
230
1.0
  0
ARC
  8
0
 62
     7
 10
139.067902
 20
123.082619
 30
0.0
 40
1.5
 50
142.007979
 51
155.096056
210
0.0
220
0.0
230
1.0
  0
LINE
  8
0
 62
     7
 10
149.773178
 20
133.032013
 30
0.0
 11
148.259171
 21
130.328537
 31
0.0
210
0.0
220
0.0
230
1.0
  0
LINE
  8
0
 62
     7
 10
149.773178
 20
133.032013
 30
0.0
 11
141.571716
 21
137.625046
 31
0.0
210
0.0
220
0.0
230
1.0
  0
ARC
  8
0
 62
     7
 10
142.304657
 20
138.933792
 30
0.0
 40
1.5
 50
150.750007
 51
240.750006
210
0.0
220
0.0
230
1.0
  0
LINE
  8
0
 62
     7
 10
143.85434
 20
144.770828
 30
0.0
 11
140.995911
 21
139.666718
 31
0.0
210
0.0
220
0.0
230
1.0
  0
LINE
  8
0
 62
     7
 10
149.773178
 20
163.132019
 30
0.0
 11
141.571716
 21
167.725052
 31
0.0
210
0.0
220
0.0
230
1.0
  0
ARC
  8
0
 62
     7
 10
142.304657
 20
169.033798
 30
0.0
 40
1.5
 50
150.750007
 51
240.750006
210
0.0
220
0.0
230
1.0
  0
LINE
  8
0
 62
     7
 10
143.85434
 20
174.870819
 30
0.0
 11
140.995911
 21
169.766724
 31
0.0
210
0.0
220
0.0
230
1.0
  0
LINE
  8
0
 62
     7
 10
75.967911
 20
130.582611
 30
0.0
 11
75.567909
 21
130.358612
 31
0.0
210
0.0
220
0.0
230
1.0
  0
LINE
  8
0
 62
     7
 10
141.217911
 20
218.582611
 30
0.0
 11
141.217911
 21
216.932617
 31
0.0
210
0.0
220
0.0
230
1.0
  0
LINE
  8
0
 62
     7
 10
66.917908
 20
218.582611
 30
0.0
 11
65.617905
 21
218.582611
 31
0.0
210
0.0
220
0.0
230
1.0
  0
LINE
  8
0
 62
     7
 10
65.617905
 20
222.582611
 30
0.0
 11
65.617905
 21
218.582611
 31
0.0
210
0.0
220
0.0
230
1.0
  0
LINE
  8
0
 62
     7
 10
66.917908
 20
218.582611
 30
0.0
 11
66.917908
 21
216.932617
 31
0.0
210
0.0
220
0.0
230
1.0
  0
ARC
  8
0
 62
     7
 10
58.567909
 20
129.595612
 30
0.0
 40
1.5
 50
360.0
 51
29.249998
210
0.0
220
0.0
230
1.0
  0
LINE
  8
0
 62
     7
 10
60.067909
 20
129.595612
 30
0.0
 11
60.067909
 21
129.434052
 31
0.0
210
0.0
220
0.0
230
1.0
  0
LINE
  8
0
 62
     7
 10
72.826653
 20
123.521576
 30
0.0
 11
73.26796
 21
123.751686
 31
0.0
210
0.0
220
0.0
230
1.0
  0
LINE
  8
0
 62
     7
 10
74.167908
 20
129.57457
 30
0.0
 11
75.567909
 21
130.358612
 31
0.0
210
0.0
220
0.0
230
1.0
  0
LINE
  8
0
 62
     7
 10
74.167908
 20
129.582611
 30
0.0
 11
74.167908
 21
129.57457
 31
0.0
210
0.0
220
0.0
230
1.0
  0
LINE
  8
0
 62
     7
 10
71.657776
 20
128.17688
 30
0.0
 11
74.167908
 21
129.582611
 31
0.0
210
0.0
220
0.0
230
1.0
  0
LINE
  8
0
 62
     7
 10
75.567909
 20
130.358612
 30
0.0
 11
75.567909
 21
123.582619
 31
0.0
210
0.0
220
0.0
230
1.0
  0
LINE
  8
0
 62
     7
 10
74.167908
 20
129.582611
 30
0.0
 11
74.167908
 21
136.082611
 31
0.0
210
0.0
220
0.0
230
1.0
  0
LINE
  8
0
 62
     7
 10
148.067902
 20
129.595612
 30
0.0
 11
148.067902
 21
129.434052
 31
0.0
210
0.0
220
0.0
230
1.0
  0
ARC
  8
0
 62
     7
 10
149.567902
 20
129.595612
 30
0.0
 40
1.5
 50
150.750007
 51
179.999995
210
0.0
220
0.0
230
1.0
  0
LINE
  8
0
 62
     7
 10
142.517914
 20
219.988892
 30
0.0
 11
142.517914
 21
218.582611
 31
0.0
210
0.0
220
0.0
230
1.0
  0
LINE
  8
0
 62
     7
 10
140.717911
 20
219.988892
 30
0.0
 11
140.717911
 21
218.582611
 31
0.0
210
0.0
220
0.0
230
1.0
  0
LINE
  8
0
 62
     7
 10
140.417908
 20
222.582611
 30
0.0
 11
140.417908
 21
220.782623
 31
0.0
210
0.0
220
0.0
230
1.0
  0
LINE
  8
0
 62
     7
 10
104.067909
 20
222.582611
 30
0.0
 11
140.417908
 21
222.582611
 31
0.0
210
0.0
220
0.0
230
1.0
  0
LINE
  8
0
 62
     7
 10
67.417908
 20
222.582611
 30
0.0
 11
67.417908
 21
218.582611
 31
0.0
210
0.0
220
0.0
230
1.0
  0
LINE
  8
0
 62
     7
 10
69.323441
 20
124.560692
 30
0.0
 11
67.514603
 21
125.643616
 31
0.0
210
0.0
220
0.0
230
1.0
  0
LINE
  8
0
 62
     7
 10
71.773819
 20
123.093689
 30
0.0
 11
70.250053
 21
124.005943
 31
0.0
210
0.0
220
0.0
230
1.0
  0
LINE
  8
0
 62
     7
 10
69.067909
 20
124.582619
 30
0.0
 11
60.067909
 21
124.582619
 31
0.0
210
0.0
220
0.0
230
1.0
  0
LINE
  8
0
 62
     7
 10
67.514603
 20
125.643616
 30
0.0
 11
64.418716
 21
128.726624
 31
0.0
210
0.0
220
0.0
230
1.0
  0
LINE
  8
0
 62
     7
 10
64.418716
 20
128.726624
 30
0.0
 11
63.467373
 21
131.337845
 31
0.0
210
0.0
220
0.0
230
1.0
  0
LINE
  8
0
 62
     7
 10
63.467373
 20
131.337845
 30
0.0
 11
60.067909
 21
129.434052
 31
0.0
210
0.0
220
0.0
230
1.0
  0
LINE
  8
0
 62
     7
 10
60.067909
 20
129.434052
 30
0.0
 11
60.067909
 21
124.582619
 31
0.0
210
0.0
220
0.0
230
1.0
  0
LINE
  8
0
 62
     7
 10
136.362
 20
123.093689
 30
0.0
 11
137.885773
 21
124.005943
 31
0.0
210
0.0
220
0.0
230
1.0
  0
LINE
  8
0
 62
     7
 10
148.067902
 20
124.582619
 30
0.0
 11
139.067902
 21
124.582619
 31
0.0
210
0.0
220
0.0
230
1.0
  0
LINE
  8
0
 62
     7
 10
138.812378
 20
124.560692
 30
0.0
 11
140.621216
 21
125.643616
 31
0.0
210
0.0
220
0.0
230
1.0
  0
LINE
  8
0
 62
     7
 10
148.067902
 20
129.434052
 30
0.0
 11
148.067902
 21
124.582619
 31
0.0
210
0.0
220
0.0
230
1.0
  0
LINE
  8
0
 62
     7
 10
144.668442
 20
131.337845
 30
0.0
 11
148.067902
 21
129.434052
 31
0.0
210
0.0
220
0.0
230
1.0
  0
LINE
  8
0
 62
     7
 10
143.717102
 20
128.726624
 30
0.0
 11
144.668442
 21
131.337845
 31
0.0
210
0.0
220
0.0
230
1.0
  0
LINE
  8
0
 62
     7
 10
140.621216
 20
125.643616
 30
0.0
 11
143.717102
 21
128.726624
 31
0.0
210
0.0
220
0.0
230
1.0
  0
LINE
  8
0
 62
     7
 10
141.217911
 20
218.582611
 30
0.0
 11
142.517914
 21
218.582611
 31
0.0
210
0.0
220
0.0
230
1.0
  0
LINE
  8
0
 62
     7
 10
141.217911
 20
218.582611
 30
0.0
 11
140.717911
 21
218.582611
 31
0.0
210
0.0
220
0.0
230
1.0
  0
LINE
  8
0
 62
     7
 10
66.917908
 20
218.582611
 30
0.0
 11
67.417908
 21
218.582611
 31
0.0
210
0.0
220
0.0
230
1.0
  0
LINE
  8
0
 62
     7
 10
142.817902
 20
222.582611
 30
0.0
 11
146.067902
 21
222.582611
 31
0.0
210
0.0
220
0.0
230
1.0
  0
LINE
  8
0
 62
     7
 10
148.22464
 20
198.269669
 30
0.0
 11
150.529099
 21
194.581787
 31
0.0
210
0.0
220
0.0
230
1.0
  0
LINE
  8
0
 62
     7
 10
150.529099
 20
194.581787
 30
0.0
 11
154.946777
 21
202.470123
 31
0.0
210
0.0
220
0.0
230
1.0
  0
LINE
  8
0
 62
     7
 10
154.946777
 20
202.470123
 30
0.0
 11
148.22464
 21
198.269669
 31
0.0
210
0.0
220
0.0
230
1.0
  0
LINE
  8
0
 62
     7
 10
141.866776
 20
179.114105
 30
0.0
 11
150.529099
 21
194.581787
 31
0.0
210
0.0
220
0.0
230
1.0
  0
LINE
  8
0
 62
     7
 10
155.099152
 20
202.742218
 30
0.0
 11
154.946777
 21
202.470123
 31
0.0
210
0.0
220
0.0
230
1.0
  0
LINE
  8
0
 62
     7
 10
145.741135
 20
218.178848
 30
0.0
 11
146.067902
 21
218.383041
 31
0.0
210
0.0
220
0.0
230
1.0
  0
LINE
  8
0
 62
     7
 10
146.067902
 20
218.762344
 30
0.0
 11
145.741135
 21
218.178848
 31
0.0
210
0.0
220
0.0
230
1.0
  0
LINE
  8
0
 62
     7
 10
146.067902
 20
218.383041
 30
0.0
 11
146.067902
 21
218.762344
 31
0.0
210
0.0
220
0.0
230
1.0
  0
ARC
  8
0
 62
     7
 10
134.594299
 20
211.213531
 30
0.0
 40
1.785
 50
97.655039
 51
212.000005
210
0.0
220
0.0
230
1.0
  0
LINE
  8
0
 62
     7
 10
125.011345
 20
205.225433
 30
0.0
 11
133.080521
 21
210.267624
 31
0.0
210
0.0
220
0.0
230
1.0
  0
LINE
  8
0
 62
     7
 10
134.655884
 20
189.790955
 30
0.0
 11
125.011345
 21
205.225433
 31
0.0
210
0.0
220
0.0
230
1.0
  0
LINE
  8
0
 62
     7
 10
142.725052
 20
194.833145
 30
0.0
 11
134.655884
 21
189.790955
 31
0.0
210
0.0
220
0.0
230
1.0
  0
ARC
  8
0
 62
     7
 10
144.238831
 20
195.779053
 30
0.0
 40
1.785
 50
212.000005
 51
32.0
210
0.0
220
0.0
230
1.0
  0
LINE
  8
0
 62
     7
 10
148.22464
 20
198.269669
 30
0.0
 11
145.752594
 21
196.72496
 31
0.0
210
0.0
220
0.0
230
1.0
  0
LINE
  8
0
 62
     7
 10
134.356506
 20
212.98262
 30
0.0
 11
65.967911
 21
212.98262
 31
0.0
210
0.0
220
0.0
230
1.0
  0
LINE
  8
0
 62
     7
 10
136.108063
 20
212.159424
 30
0.0
 11
137.42543
 21
212.98262
 31
0.0
210
0.0
220
0.0
230
1.0
  0
ARC
  8
0
 62
     7
 10
134.594299
 20
211.213531
 30
0.0
 40
1.785
 50
32.0
 51
82.344959
210
0.0
220
0.0
230
1.0
  0
LINE
  8
0
 62
     7
 10
137.42543
 20
212.98262
 30
0.0
 11
134.832062
 21
212.98262
 31
0.0
210
0.0
220
0.0
230
1.0
  0
LINE
  8
0
 62
     7
 10
142.167908
 20
215.946045
 30
0.0
 11
143.74675
 21
216.932617
 31
0.0
210
0.0
220
0.0
230
1.0
  0
LINE
  8
0
 62
     7
 10
142.167908
 20
215.946045
 30
0.0
 11
142.167908
 21
216.932617
 31
0.0
210
0.0
220
0.0
230
1.0
  0
LINE
  8
0
 62
     7
 10
143.74675
 20
216.932617
 30
0.0
 11
142.167908
 21
216.932617
 31
0.0
210
0.0
220
0.0
230
1.0
  0
LINE
  8
0
 62
     7
 10
146.067902
 20
218.762344
 30
0.0
 11
146.067902
 21
222.582611
 31
0.0
210
0.0
220
0.0
230
1.0
  0
LINE
  8
0
 62
     7
 10
146.067902
 20
217.625351
 30
0.0
 11
146.067902
 21
218.383041
 31
0.0
210
0.0
220
0.0
230
1.0
  0
LINE
  8
0
 62
     7
 10
145.741135
 20
218.178848
 30
0.0
 11
143.74675
 21
216.932617
 31
0.0
210
0.0
220
0.0
230
1.0
  0
LINE
  8
0
 62
     7
 10
142.167908
 20
215.946045
 30
0.0
 11
137.42543
 21
212.98262
 31
0.0
210
0.0
220
0.0
230
1.0
  0
LINE
  8
0
 62
     7
 10
141.217911
 20
216.932617
 30
0.0
 11
142.167908
 21
216.932617
 31
0.0
210
0.0
220
0.0
230
1.0
  0
ARC
  8
0
 62
     7
 10
134.594299
 20
211.213531
 30
0.0
 40
1.785
 50
82.344959
 51
97.655039
210
0.0
220
0.0
230
1.0
  0
LINE
  8
0
 62
     7
 10
146.295837
 20
216.830475
 30
0.0
 11
155.099152
 21
202.742218
 31
0.0
210
0.0
220
0.0
230
1.0
  0
ARC
  8
0
 62
     7
 10
147.567902
 20
217.625351
 30
0.0
 40
1.5
 50
180.000005
 51
212.000005
210
0.0
220
0.0
230
1.0
  0
ENDSEC
  0
EOF
