  0
SECTION
  2
HEADER
  9
$ACADVER
  1
AC1009
  9
$DWGCODEPAGE
  3
ansi_1252
  9
$INSBASE
 10
0.0
 20
0.0
 30
0.0
  9
$EXTMIN
 10
0.0
 20
0.0
 30
0.0
  9
$EXTMAX
 10
159.560669
 20
223.891693
 30
2.0
  9
$LIMMIN
 10
0.0
 20
0.0
  9
$LIMMAX
 10
420.0
 20
297.0
  9
$ORTHOMODE
 70
     0
  9
$REGENMODE
 70
     1
  9
$FILLMODE
 70
     1
  9
$QTEXTMODE
 70
     0
  9
$MIRRTEXT
 70
     1
  9
$DRAGMODE
 70
     2
  9
$LTSCALE
 40
1.0
  9
$OSMODE
 70
     0
  9
$ATTMODE
 70
     1
  9
$TEXTSIZE
 40
2.5
  9
$TRACEWID
 40
1.0
  9
$TEXTSTYLE
  7
STANDARD
  9
$CLAYER
  8
0
  9
$CELTYPE
  6
BYLAYER
  9
$CECOLOR
 62
   256
  9
$DIMSCALE
 40
1.0
  9
$DIMASZ
 40
2.5
  9
$DIMEXO
 40
0.625
  9
$DIMDLI
 40
3.75
  9
$DIMRND
 40
0.0
  9
$DIMDLE
 40
0.0
  9
$DIMEXE
 40
1.25
  9
$DIMTP
 40
0.0
  9
$DIMTM
 40
0.0
  9
$DIMTXT
 40
2.5
  9
$DIMCEN
 40
2.5
  9
$DIMTSZ
 40
0.0
  9
$DIMTOL
 70
     0
  9
$DIMLIM
 70
     0
  9
$DIMTIH
 70
     0
  9
$DIMTOH
 70
     0
  9
$DIMSE1
 70
     0
  9
$DIMSE2
 70
     0
  9
$DIMTAD
 70
     1
  9
$DIMZIN
 70
     8
  9
$DIMBLK
  1

  9
$DIMASO
 70
     1
  9
$DIMSHO
 70
     1
  9
$DIMPOST
  1

  9
$DIMAPOST
  1

  9
$DIMALT
 70
     0
  9
$DIMALTD
 70
     3
  9
$DIMALTF
 40
0.03937
  9
$DIMLFAC
 40
1.0
  9
$DIMTOFL
 70
     1
  9
$DIMTVP
 40
0.0
  9
$DIMTIX
 70
     0
  9
$DIMSOXD
 70
     0
  9
$DIMSAH
 70
     0
  9
$DIMBLK1
  1

  9
$DIMBLK2
  1

  9
$DIMSTYLE
  2

  9
$DIMCLRD
 70
     0
  9
$DIMCLRE
 70
     0
  9
$DIMCLRT
 70
     0
  9
$DIMTFAC
 40
1.0
  9
$DIMGAP
 40
0.625
  9
$LUNITS
 70
     2
  9
$LUPREC
 70
     4
  9
$AXISMODE
 70
     0
  9
$AXISUNIT
 10
0.0
 20
0.0
  9
$SKETCHINC
 40
1.0
  9
$FILLETRAD
 40
2.5
  9
$AUNITS
 70
     0
  9
$AUPREC
 70
     0
  9
$MENU
  1
.
  9
$ELEVATION
 40
0.0
  9
$PELEVATION
 40
0.0
  9
$THICKNESS
 40
0.0
  9
$LIMCHECK
 70
     0
  9
$BLIPMODE
 70
     1
  9
$CHAMFERA
 40
2.5
  9
$CHAMFERB
 40
2.5
  9
$SKPOLY
 70
     0
  9
$TDCREATE
 40
0.000000000
  9
$TDUPDATE
 40
0.000000000
  9
$TDINDWG
 40
0.0000000000
  9
$TDUSRTIMER
 40
0.0000000000
  9
$USRTIMER
 70
     1
  9
$ANGBASE
 50
0.0
  9
$ANGDIR
 70
     0
  9
$PDMODE
 70
     0
  9
$PDSIZE
 40
0.0
  9
$PLINEWID
 40
0.0
  9
$COORDS
 70
     0
  9
$SPLFRAME
 70
     0
  9
$SPLINETYPE
 70
     6
  9
$SPLINESEGS
 70
     8
  9
$ATTDIA
 70
     0
  9
$ATTREQ
 70
     1
  9
$HANDLING
 70
     0
  9
$HANDSEED
  5
3
  9
$SURFTAB1
 70
     6
  9
$SURFTAB2
 70
     6
  9
$SURFTYPE
 70
     6
  9
$SURFU
 70
     6
  9
$SURFV
 70
     6
  9
$UCSNAME
  2

  9
$UCSORG
 10
0.0
 20
0.0
 30
0.0
  9
$UCSXDIR
 10
1.0
 20
0.0
 30
0.0
  9
$UCSYDIR
 10
0.0
 20
1.0
 30
0.0
  9
$PUCSNAME
  2

  9
$PUCSORG
 10
0.0
 20
0.0
 30
0.0
  9
$PUCSXDIR
 10
1.0
 20
0.0
 30
0.0
  9
$PUCSYDIR
 10
0.0
 20
1.0
 30
0.0
  9
$USERI1
 70
     0
  9
$USERI2
 70
     0
  9
$USERI3
 70
     0
  9
$USERI4
 70
     0
  9
$USERI5
 70
     0
  9
$USERR1
 40
0.0
  9
$USERR2
 40
0.0
  9
$USERR3
 40
0.0
  9
$USERR4
 40
0.0
  9
$USERR5
 40
0.0
  9
$WORLDVIEW
 70
     1
  9
$SHADEDGE
 70
     3
  9
$SHADEDIF
 70
    70
  9
$TILEMODE
 70
     1
  9
$MAXACTVP
 70
    48
  9
$PINSBASE
 10
0.0
 20
0.0
 30
0.0
  9
$PLIMCHECK
 70
     0
  9
$PEXTMIN
 10
0.0
 20
0.0
 30
0.0
  9
$PEXTMAX
 10
159.560669
 20
223.891693
 30
2.0
  9
$PLIMMIN
 10
0.0
 20
0.0
  9
$PLIMMAX
 10
420.0
 20
297.0
  9
$UNITMODE
 70
     0
  9
$VISRETAIN
 70
     0
  9
$PLINEGEN
 70
     0
  9
$PSLTSCALE
 70
     1
  9
$TREEDEPTH
 70
  3020
  0
ENDSEC
  0
SECTION
  2
TABLES
  0
TABLE
  2
VPORT
 70
     1
  0
VPORT
  2
*ACTIVE
 70
     0
 10
0.0
 20
0.0
 11
1.0
 21
1.0
 12
6.591288
 22
4.579184
 13
0.0
 23
0.0
 14
1.0
 24
1.0
 15
0.0
 25
0.0
 16
0.0
 26
0.0
 36
1.0
 17
0.0
 27
0.0
 37
0.0
 40
9.158369
 41
0.688564
 42
50.0
 43
0.0
 44
0.0
 50
0.0
 51
0.0
 71
     0
 72
   100
 73
     1
 74
     1
 75
     0
 76
     0
 77
     0
 78
     0
  0
ENDTAB
  0
TABLE
  2
LTYPE
 70
     3
  0
LTYPE
  2
CONTINUOUS
 70
    64
  3
Solid line
 72
    65
 73
     0
 40
0.0
  0
LTYPE
  2
DASHDOT
 70
     0
  3
 __ . __ . __ . __ . __ . __ . __ . 
 72
    65
 73
     4
 40
18.5
 49
12.0
 49
-3.0
 49
0.5
 49
-3.0
  0
LTYPE
  2
DASHED
 70
     0
  3
__ __ __ __ __ __ __ __ __ __ __ __ __ __ __ __
 72
    65
 73
     2
 40
15.0
 49
12.0
 49
-3.0
  0
ENDTAB
  0
TABLE
  2
LAYER
 70
     1
  0
LAYER
  2
0
 70
     0
 62
     7
  6
CONTINUOUS
  0
ENDTAB
  0
TABLE
  2
STYLE
 70
     1
  0
STYLE
  2
STANDARD
 70
     0
 40
0.0
 41
1.0
 50
0.0
 71
     0
 42
0.0
  3
txt
  4

  0
ENDTAB
  0
TABLE
  2
VIEW
 70
     0
  0
ENDTAB
  0
TABLE
  2
UCS
 70
     0
  0
ENDTAB
  0
TABLE
  2
APPID
 70
     1
  0
APPID
  2
ACAD
 70
     0
  0
ENDTAB
  0
TABLE
  2
DIMSTYLE
 70
     1
  0
DIMSTYLE
  2
STANDARD
 70
     0
  3

  4

  5

  6

  7

 40
1.0
 41
0.18
 42
0.0625
 43
0.38
 44
0.18
 45
0.0
 46
0.0
 47
0.0
 48
0.0
 71
     0
 72
     0
 73
     1
 74
     1
 75
     0
 76
     0
 77
     0
 78
     0
140
0.18
141
0.09
142
0.0
143
25.4
144
1.0
145
0.0
146
1.0
147
0.09
170
     0
171
     2
172
     0
173
     0
174
     0
175
     0
176
     0
177
     0
178
     0
  0
ENDTAB
  0
ENDSEC
  0
SECTION
  2
BLOCKS
  0
ENDSEC
  0
SECTION
  2
ENTITIES
  0
VIEWPORT
  8
0
 62
     0
 67
     1
 68
     1
 10
0.0
 20
0.0
 30
0.0
 40
1000.0
 41
1000.0
 69
     1
1001
ACAD
1000
MVIEW
1002
{
1070
    16
1010
0.0
1020
0.0
1030
0.0
1010
0.0
1020
0.0
1030
1.0
1040
0.0
1040
1000.0
1040
0.0
1040
0.0
1040
50.0
1040
0.0
1040
0.0
1070
     0
1070
   100
1070
     1
1070
     1
1070
     0
1070
     0
1070
     0
1070
     0
1040
0.0
1040
0.0
1040
0.0
1040
1.0
1040
1.0
1040
1.0
1040
1.0
1070
     0
1002
{
1002
}
1002
}
  0
LINE
  8
0
  6
DASHDOT
 62
     7
 10
127.589424
 20
107.922691
 30
0.0
 11
124.469429
 21
107.922691
 31
0.0
210
0.0
220
0.0
230
1.0
  0
LINE
  8
0
  6
DASHDOT
 62
     7
 10
126.029427
 20
109.482697
 30
0.0
 11
126.029427
 21
106.362694
 31
0.0
210
0.0
220
0.0
230
1.0
  0
LINE
  8
0
  6
DASHDOT
 62
     7
 10
147.639435
 20
202.922699
 30
0.0
 11
144.519424
 21
202.922699
 31
0.0
210
0.0
220
0.0
230
1.0
  0
LINE
  8
0
  6
DASHDOT
 62
     7
 10
146.079422
 20
204.482697
 30
0.0
 11
146.079422
 21
201.362701
 31
0.0
210
0.0
220
0.0
230
1.0
  0
POLYLINE
  8
0
 62
     7
 66
     1
 10
0.0
 20
0.0
 30
0.0
 70
     1
 71
    12
  0
VERTEX
  8
0
 10
58.701195
 20
220.543274
 30
0.0
  0
VERTEX
  8
0
 10
58.911381
 20
220.543274
 30
0.0
  0
VERTEX
  8
0
 10
58.911381
 20
222.570389
 30
0.0
  0
VERTEX
  8
0
 10
58.972404
 20
222.386108
 30
0.0
  0
VERTEX
  8
0
 10
59.747612
 20
220.543274
 30
0.0
  0
VERTEX
  8
0
 10
59.987179
 20
220.543274
 30
0.0
  0
VERTEX
  8
0
 10
59.987179
 20
223.043274
 30
0.0
  0
VERTEX
  8
0
 10
59.776993
 20
223.043274
 30
0.0
  0
VERTEX
  8
0
 10
59.776993
 20
221.016159
 30
0.0
  0
VERTEX
  8
0
 10
59.702412
 20
221.228256
 30
0.0
  0
VERTEX
  8
0
 10
58.943024
 20
223.043274
 30
0.0
  0
VERTEX
  8
0
 10
58.701195
 20
223.043274
 30
0.0
  0
SEQEND
  8
0
  0
POLYLINE
  8
0
 62
     7
 66
     1
 10
0.0
 20
0.0
 30
0.0
 70
     1
 71
    32
  0
VERTEX
  8
0
 10
60.762909
 20
221.791534
 30
0.0
  0
VERTEX
  8
0
 10
60.774212
 20
221.492508
 30
0.0
  0
VERTEX
  8
0
 10
60.814892
 20
221.231735
 30
0.0
  0
VERTEX
  8
0
 10
60.880436
 20
221.005722
 30
0.0
  0
VERTEX
  8
0
 10
60.968578
 20
220.817963
 30
0.0
  0
VERTEX
  8
0
 10
61.079323
 20
220.668442
 30
0.0
  0
VERTEX
  8
0
 10
61.210407
 20
220.560654
 30
0.0
  0
VERTEX
  8
0
 10
61.361832
 20
220.498077
 30
0.0
  0
VERTEX
  8
0
 10
61.5336
 20
220.47374
 30
0.0
  0
VERTEX
  8
0
 10
61.703106
 20
220.498077
 30
0.0
  0
VERTEX
  8
0
 10
61.85453
 20
220.560654
 30
0.0
  0
VERTEX
  8
0
 10
61.985615
 20
220.668442
 30
0.0
  0
VERTEX
  8
0
 10
62.096359
 20
220.817963
 30
0.0
  0
VERTEX
  8
0
 10
62.184502
 20
221.005722
 30
0.0
  0
VERTEX
  8
0
 10
62.247784
 20
221.231735
 30
0.0
  0
VERTEX
  8
0
 10
62.286205
 20
221.492508
 30
0.0
  0
VERTEX
  8
0
 10
62.302029
 20
221.791534
 30
0.0
  0
VERTEX
  8
0
 10
62.288467
 20
222.087082
 30
0.0
  0
VERTEX
  8
0
 10
62.247784
 20
222.34787
 30
0.0
  0
VERTEX
  8
0
 10
62.182243
 20
222.573868
 30
0.0
  0
VERTEX
  8
0
 10
62.096359
 20
222.761627
 30
0.0
  0
VERTEX
  8
0
 10
61.985615
 20
222.911148
 30
0.0
  0
VERTEX
  8
0
 10
61.85453
 20
223.018936
 30
0.0
  0
VERTEX
  8
0
 10
61.703106
 20
223.084991
 30
0.0
  0
VERTEX
  8
0
 10
61.5336
 20
223.109344
 30
0.0
  0
VERTEX
  8
0
 10
61.361832
 20
223.084991
 30
0.0
  0
VERTEX
  8
0
 10
61.210407
 20
223.018936
 30
0.0
  0
VERTEX
  8
0
 10
61.079323
 20
222.911148
 30
0.0
  0
VERTEX
  8
0
 10
60.968578
 20
222.761627
 30
0.0
  0
VERTEX
  8
0
 10
60.880436
 20
222.573868
 30
0.0
  0
VERTEX
  8
0
 10
60.814892
 20
222.34787
 30
0.0
  0
VERTEX
  8
0
 10
60.774212
 20
222.087082
 30
0.0
  0
SEQEND
  8
0
  0
POLYLINE
  8
0
 62
     7
 66
     1
 10
0.0
 20
0.0
 30
0.0
 70
     1
 71
    16
  0
VERTEX
  8
0
 10
60.99118
 20
221.791534
 30
0.0
  0
VERTEX
  8
0
 10
61.02734
 20
222.222687
 30
0.0
  0
VERTEX
  8
0
 10
61.135826
 20
222.546051
 30
0.0
  0
VERTEX
  8
0
 10
61.30759
 20
222.744247
 30
0.0
  0
VERTEX
  8
0
 10
61.5336
 20
222.813782
 30
0.0
  0
VERTEX
  8
0
 10
61.757347
 20
222.744247
 30
0.0
  0
VERTEX
  8
0
 10
61.929115
 20
222.546051
 30
0.0
  0
VERTEX
  8
0
 10
62.035336
 20
222.222687
 30
0.0
  0
VERTEX
  8
0
 10
62.073757
 20
221.791534
 30
0.0
  0
VERTEX
  8
0
 10
62.035336
 20
221.356903
 30
0.0
  0
VERTEX
  8
0
 10
61.929115
 20
221.033539
 30
0.0
  0
VERTEX
  8
0
 10
61.757347
 20
220.835342
 30
0.0
  0
VERTEX
  8
0
 10
61.5336
 20
220.769287
 30
0.0
  0
VERTEX
  8
0
 10
61.30759
 20
220.835342
 30
0.0
  0
VERTEX
  8
0
 10
61.135826
 20
221.033539
 30
0.0
  0
VERTEX
  8
0
 10
61.02734
 20
221.356903
 30
0.0
  0
SEQEND
  8
0
  0
POLYLINE
  8
0
 62
     7
 66
     1
 10
0.0
 20
0.0
 30
0.0
 70
     1
 71
    12
  0
VERTEX
  8
0
 10
63.077759
 20
220.543274
 30
0.0
  0
VERTEX
  8
0
 10
63.287945
 20
220.543274
 30
0.0
  0
VERTEX
  8
0
 10
63.287945
 20
222.570389
 30
0.0
  0
VERTEX
  8
0
 10
63.348969
 20
222.386108
 30
0.0
  0
VERTEX
  8
0
 10
64.124176
 20
220.543274
 30
0.0
  0
VERTEX
  8
0
 10
64.363747
 20
220.543274
 30
0.0
  0
VERTEX
  8
0
 10
64.363747
 20
223.043274
 30
0.0
  0
VERTEX
  8
0
 10
64.153557
 20
223.043274
 30
0.0
  0
VERTEX
  8
0
 10
64.153557
 20
221.016159
 30
0.0
  0
VERTEX
  8
0
 10
64.078972
 20
221.228256
 30
0.0
  0
VERTEX
  8
0
 10
63.319588
 20
223.043274
 30
0.0
  0
VERTEX
  8
0
 10
63.077759
 20
223.043274
 30
0.0
  0
SEQEND
  8
0
  0
POLYLINE
  8
0
 62
     7
 66
     1
 10
0.0
 20
0.0
 30
0.0
 70
     1
 71
     4
  0
VERTEX
  8
0
 10
65.114616
 20
221.325607
 30
0.0
  0
VERTEX
  8
0
 10
65.661552
 20
221.325607
 30
0.0
  0
VERTEX
  8
0
 10
65.661552
 20
221.600296
 30
0.0
  0
VERTEX
  8
0
 10
65.114616
 20
221.600296
 30
0.0
  0
SEQEND
  8
0
  0
POLYLINE
  8
0
 62
     7
 66
     1
 10
0.0
 20
0.0
 30
0.0
 70
     1
 71
    22
  0
VERTEX
  8
0
 10
66.40564
 20
221.492508
 30
0.0
  0
VERTEX
  8
0
 10
66.441803
 20
221.043976
 30
0.0
  0
VERTEX
  8
0
 10
66.557068
 20
220.727554
 30
0.0
  0
VERTEX
  8
0
 10
66.746918
 20
220.539795
 30
0.0
  0
VERTEX
  8
0
 10
67.015869
 20
220.47374
 30
0.0
  0
VERTEX
  8
0
 10
67.300636
 20
220.539795
 30
0.0
  0
VERTEX
  8
0
 10
67.50856
 20
220.731033
 30
0.0
  0
VERTEX
  8
0
 10
67.635132
 20
221.04744
 30
0.0
  0
VERTEX
  8
0
 10
67.67807
 20
221.492508
 30
0.0
  0
VERTEX
  8
0
 10
67.67807
 20
223.043274
 30
0.0
  0
VERTEX
  8
0
 10
67.456581
 20
223.043274
 30
0.0
  0
VERTEX
  8
0
 10
67.456581
 20
221.489029
 30
0.0
  0
VERTEX
  8
0
 10
67.429459
 20
221.183044
 30
0.0
  0
VERTEX
  8
0
 10
67.352615
 20
220.970947
 30
0.0
  0
VERTEX
  8
0
 10
67.223793
 20
220.8423
 30
0.0
  0
VERTEX
  8
0
 10
67.040726
 20
220.800583
 30
0.0
  0
VERTEX
  8
0
 10
66.8554
 20
220.8423
 30
0.0
  0
VERTEX
  8
0
 10
66.726578
 20
220.967468
 30
0.0
  0
VERTEX
  8
0
 10
66.649734
 20
221.183044
 30
0.0
  0
VERTEX
  8
0
 10
66.627129
 20
221.489029
 30
0.0
  0
VERTEX
  8
0
 10
66.627129
 20
223.043274
 30
0.0
  0
VERTEX
  8
0
 10
66.40564
 20
223.043274
 30
0.0
  0
SEQEND
  8
0
  0
POLYLINE
  8
0
 62
     7
 66
     1
 10
0.0
 20
0.0
 30
0.0
 70
     1
 71
    50
  0
VERTEX
  8
0
 10
68.442497
 20
221.36734
 30
0.0
  0
VERTEX
  8
0
 10
68.492218
 20
220.984863
 30
0.0
  0
VERTEX
  8
0
 10
68.61879
 20
220.706696
 30
0.0
  0
VERTEX
  8
0
 10
68.815414
 20
220.536316
 30
0.0
  0
VERTEX
  8
0
 10
69.079842
 20
220.477203
 30
0.0
  0
VERTEX
  8
0
 10
69.339752
 20
220.536316
 30
0.0
  0
VERTEX
  8
0
 10
69.536377
 20
220.69278
 30
0.0
  0
VERTEX
  8
0
 10
69.660683
 20
220.939651
 30
0.0
  0
VERTEX
  8
0
 10
69.703629
 20
221.266495
 30
0.0
  0
VERTEX
  8
0
 10
69.667465
 20
221.537704
 30
0.0
  0
VERTEX
  8
0
 10
69.570282
 20
221.742859
 30
0.0
  0
VERTEX
  8
0
 10
69.407555
 20
221.871506
 30
0.0
  0
VERTEX
  8
0
 10
69.197365
 20
221.961914
 30
0.0
  0
VERTEX
  8
0
 10
68.975876
 20
222.041885
 30
0.0
  0
VERTEX
  8
0
 10
68.822189
 20
222.121857
 30
0.0
  0
VERTEX
  8
0
 10
68.731789
 20
222.236603
 30
0.0
  0
VERTEX
  8
0
 10
68.704666
 20
222.427841
 30
0.0
  0
VERTEX
  8
0
 10
68.727272
 20
222.587784
 30
0.0
  0
VERTEX
  8
0
 10
68.799591
 20
222.716431
 30
0.0
  0
VERTEX
  8
0
 10
68.910339
 20
222.796402
 30
0.0
  0
VERTEX
  8
0
 10
69.06176
 20
222.827698
 30
0.0
  0
VERTEX
  8
0
 10
69.215446
 20
222.792923
 30
0.0
  0
VERTEX
  8
0
 10
69.33297
 20
222.692093
 30
0.0
  0
VERTEX
  8
0
 10
69.409813
 20
222.528671
 30
0.0
  0
VERTEX
  8
0
 10
69.445976
 20
222.309616
 30
0.0
  0
VERTEX
  8
0
 10
69.656166
 20
222.309616
 30
0.0
  0
VERTEX
  8
0
 10
69.61322
 20
222.643417
 30
0.0
  0
VERTEX
  8
0
 10
69.497955
 20
222.893768
 30
0.0
  0
VERTEX
  8
0
 10
69.317154
 20
223.053711
 30
0.0
  0
VERTEX
  8
0
 10
69.075325
 20
223.109344
 30
0.0
  0
VERTEX
  8
0
 10
68.833496
 20
223.053711
 30
0.0
  0
VERTEX
  8
0
 10
68.650429
 20
222.900711
 30
0.0
  0
VERTEX
  8
0
 10
68.532906
 20
222.667755
 30
0.0
  0
VERTEX
  8
0
 10
68.494484
 20
222.368729
 30
0.0
  0
VERTEX
  8
0
 10
68.528381
 20
222.09404
 30
0.0
  0
VERTEX
  8
0
 10
68.630089
 20
221.906281
 30
0.0
  0
VERTEX
  8
0
 10
68.801849
 20
221.777634
 30
0.0
  0
VERTEX
  8
0
 10
69.039162
 20
221.676788
 30
0.0
  0
VERTEX
  8
0
 10
69.23127
 20
221.600296
 30
0.0
  0
VERTEX
  8
0
 10
69.371391
 20
221.523804
 30
0.0
  0
VERTEX
  8
0
 10
69.455017
 20
221.409058
 30
0.0
  0
VERTEX
  8
0
 10
69.484398
 20
221.228256
 30
0.0
  0
VERTEX
  8
0
 10
69.455017
 20
221.040497
 30
0.0
  0
VERTEX
  8
0
 10
69.375916
 20
220.894455
 30
0.0
  0
VERTEX
  8
0
 10
69.249352
 20
220.804047
 30
0.0
  0
VERTEX
  8
0
 10
69.077583
 20
220.772766
 30
0.0
  0
VERTEX
  8
0
 10
68.903557
 20
220.811005
 30
0.0
  0
VERTEX
  8
0
 10
68.772469
 20
220.932709
 30
0.0
  0
VERTEX
  8
0
 10
68.686584
 20
221.116989
 30
0.0
  0
VERTEX
  8
0
 10
68.654945
 20
221.36734
 30
0.0
  0
SEQEND
  8
0
  0
POLYLINE
  8
0
 62
     7
 66
     1
 10
0.0
 20
0.0
 30
0.0
 70
     1
 71
     8
  0
VERTEX
  8
0
 10
70.296288
 20
220.543274
 30
0.0
  0
VERTEX
  8
0
 10
70.524559
 20
220.543274
 30
0.0
  0
VERTEX
  8
0
 10
70.698586
 20
221.290833
 30
0.0
  0
VERTEX
  8
0
 10
71.338188
 20
221.290833
 30
0.0
  0
VERTEX
  8
0
 10
71.509956
 20
220.543274
 30
0.0
  0
VERTEX
  8
0
 10
71.749527
 20
220.543274
 30
0.0
  0
VERTEX
  8
0
 10
71.143822
 20
223.043274
 30
0.0
  0
VERTEX
  8
0
 10
70.899734
 20
223.043274
 30
0.0
  0
SEQEND
  8
0
  0
POLYLINE
  8
0
 62
     7
 66
     1
 10
0.0
 20
0.0
 30
0.0
 70
     1
 71
     3
  0
VERTEX
  8
0
 10
70.766388
 20
221.582916
 30
0.0
  0
VERTEX
  8
0
 10
71.021774
 20
222.685135
 30
0.0
  0
VERTEX
  8
0
 10
71.272644
 20
221.582916
 30
0.0
  0
SEQEND
  8
0
  0
POLYLINE
  8
0
 62
     7
 66
     1
 10
0.0
 20
0.0
 30
0.0
 70
     1
 71
    19
  0
VERTEX
  8
0
 10
72.416771
 20
220.543274
 30
0.0
  0
VERTEX
  8
0
 10
73.106094
 20
220.543274
 30
0.0
  0
VERTEX
  8
0
 10
73.336624
 20
220.595428
 30
0.0
  0
VERTEX
  8
0
 10
73.508392
 20
220.748413
 30
0.0
  0
VERTEX
  8
0
 10
73.616875
 20
220.981384
 30
0.0
  0
VERTEX
  8
0
 10
73.655296
 20
221.290833
 30
0.0
  0
VERTEX
  8
0
 10
73.63269
 20
221.513367
 30
0.0
  0
VERTEX
  8
0
 10
73.571671
 20
221.690704
 30
0.0
  0
VERTEX
  8
0
 10
73.474487
 20
221.819351
 30
0.0
  0
VERTEX
  8
0
 10
73.345665
 20
221.892365
 30
0.0
  0
VERTEX
  8
0
 10
73.445107
 20
221.979294
 30
0.0
  0
VERTEX
  8
0
 10
73.519691
 20
222.100998
 30
0.0
  0
VERTEX
  8
0
 10
73.56263
 20
222.250504
 30
0.0
  0
VERTEX
  8
0
 10
73.578453
 20
222.434784
 30
0.0
  0
VERTEX
  8
0
 10
73.544556
 20
222.699051
 30
0.0
  0
VERTEX
  8
0
 10
73.449631
 20
222.890289
 30
0.0
  0
VERTEX
  8
0
 10
73.29142
 20
223.00502
 30
0.0
  0
VERTEX
  8
0
 10
73.072197
 20
223.043274
 30
0.0
  0
VERTEX
  8
0
 10
72.416771
 20
223.043274
 30
0.0
  0
SEQEND
  8
0
  0
POLYLINE
  8
0
 62
     7
 66
     1
 10
0.0
 20
0.0
 30
0.0
 70
     1
 71
    11
  0
VERTEX
  8
0
 10
72.63826
 20
220.845779
 30
0.0
  0
VERTEX
  8
0
 10
72.63826
 20
221.715042
 30
0.0
  0
VERTEX
  8
0
 10
73.060898
 20
221.715042
 30
0.0
  0
VERTEX
  8
0
 10
73.221359
 20
221.690704
 30
0.0
  0
VERTEX
  8
0
 10
73.336624
 20
221.614212
 30
0.0
  0
VERTEX
  8
0
 10
73.404427
 20
221.482071
 30
0.0
  0
VERTEX
  8
0
 10
73.429291
 20
221.294312
 30
0.0
  0
VERTEX
  8
0
 10
73.406685
 20
221.099609
 30
0.0
  0
VERTEX
  8
0
 10
73.341141
 20
220.960526
 30
0.0
  0
VERTEX
  8
0
 10
73.232658
 20
220.873596
 30
0.0
  0
VERTEX
  8
0
 10
73.085754
 20
220.845779
 30
0.0
  0
SEQEND
  8
0
  0
POLYLINE
  8
0
 62
     7
 66
     1
 10
0.0
 20
0.0
 30
0.0
 70
     1
 71
    11
  0
VERTEX
  8
0
 10
72.63826
 20
221.99321
 30
0.0
  0
VERTEX
  8
0
 10
72.63826
 20
222.758148
 30
0.0
  0
VERTEX
  8
0
 10
73.042816
 20
222.758148
 30
0.0
  0
VERTEX
  8
0
 10
73.180679
 20
222.73381
 30
0.0
  0
VERTEX
  8
0
 10
73.277863
 20
222.664276
 30
0.0
  0
VERTEX
  8
0
 10
73.336624
 20
222.54953
 30
0.0
  0
VERTEX
  8
0
 10
73.356964
 20
222.386108
 30
0.0
  0
VERTEX
  8
0
 10
73.334366
 20
222.208786
 30
0.0
  0
VERTEX
  8
0
 10
73.273338
 20
222.083603
 30
0.0
  0
VERTEX
  8
0
 10
73.16938
 20
222.014069
 30
0.0
  0
VERTEX
  8
0
 10
73.024734
 20
221.99321
 30
0.0
  0
SEQEND
  8
0
  0
POLYLINE
  8
0
 62
     7
 66
     1
 10
0.0
 20
0.0
 30
0.0
 70
     1
 71
     6
  0
VERTEX
  8
0
 10
74.412949
 20
220.543274
 30
0.0
  0
VERTEX
  8
0
 10
75.445801
 20
220.543274
 30
0.0
  0
VERTEX
  8
0
 10
75.445801
 20
220.85968
 30
0.0
  0
VERTEX
  8
0
 10
74.636688
 20
220.85968
 30
0.0
  0
VERTEX
  8
0
 10
74.636688
 20
223.043274
 30
0.0
  0
VERTEX
  8
0
 10
74.412949
 20
223.043274
 30
0.0
  0
SEQEND
  8
0
  0
POLYLINE
  8
0
 62
     7
 66
     1
 10
0.0
 20
0.0
 30
0.0
 70
     1
 71
    12
  0
VERTEX
  8
0
 10
76.122086
 20
220.543274
 30
0.0
  0
VERTEX
  8
0
 10
77.299591
 20
220.543274
 30
0.0
  0
VERTEX
  8
0
 10
77.299591
 20
220.856201
 30
0.0
  0
VERTEX
  8
0
 10
76.341316
 20
220.856201
 30
0.0
  0
VERTEX
  8
0
 10
76.341316
 20
221.694183
 30
0.0
  0
VERTEX
  8
0
 10
77.20919
 20
221.694183
 30
0.0
  0
VERTEX
  8
0
 10
77.20919
 20
221.986252
 30
0.0
  0
VERTEX
  8
0
 10
76.341316
 20
221.986252
 30
0.0
  0
VERTEX
  8
0
 10
76.341316
 20
222.73381
 30
0.0
  0
VERTEX
  8
0
 10
77.281509
 20
222.73381
 30
0.0
  0
VERTEX
  8
0
 10
77.281509
 20
223.043274
 30
0.0
  0
VERTEX
  8
0
 10
76.122086
 20
223.043274
 30
0.0
  0
SEQEND
  8
0
  0
POLYLINE
  8
0
 62
     7
 66
     1
 10
0.0
 20
0.0
 30
0.0
 70
     1
 71
     8
  0
VERTEX
  8
0
 10
79.004738
 20
220.543274
 30
0.0
  0
VERTEX
  8
0
 10
79.233009
 20
220.543274
 30
0.0
  0
VERTEX
  8
0
 10
79.407036
 20
221.290833
 30
0.0
  0
VERTEX
  8
0
 10
80.046638
 20
221.290833
 30
0.0
  0
VERTEX
  8
0
 10
80.218399
 20
220.543274
 30
0.0
  0
VERTEX
  8
0
 10
80.45797
 20
220.543274
 30
0.0
  0
VERTEX
  8
0
 10
79.852272
 20
223.043274
 30
0.0
  0
VERTEX
  8
0
 10
79.608185
 20
223.043274
 30
0.0
  0
SEQEND
  8
0
  0
POLYLINE
  8
0
 62
     7
 66
     1
 10
0.0
 20
0.0
 30
0.0
 70
     1
 71
     3
  0
VERTEX
  8
0
 10
79.474838
 20
221.582916
 30
0.0
  0
VERTEX
  8
0
 10
79.730225
 20
222.685135
 30
0.0
  0
VERTEX
  8
0
 10
79.981094
 20
221.582916
 30
0.0
  0
SEQEND
  8
0
  0
POLYLINE
  8
0
 62
     7
 66
     1
 10
0.0
 20
0.0
 30
0.0
 70
     1
 71
    30
  0
VERTEX
  8
0
 10
81.125214
 20
223.043274
 30
0.0
  0
VERTEX
  8
0
 10
81.125214
 20
220.543274
 30
0.0
  0
VERTEX
  8
0
 10
81.344444
 20
220.543274
 30
0.0
  0
VERTEX
  8
0
 10
81.344444
 20
221.614212
 30
0.0
  0
VERTEX
  8
0
 10
81.701538
 20
221.614212
 30
0.0
  0
VERTEX
  8
0
 10
81.873306
 20
221.603775
 30
0.0
  0
VERTEX
  8
0
 10
81.97953
 20
221.55162
 30
0.0
  0
VERTEX
  8
0
 10
82.038292
 20
221.433395
 30
0.0
  0
VERTEX
  8
0
 10
82.063156
 20
221.21434
 30
0.0
  0
VERTEX
  8
0
 10
82.076714
 20
220.887497
 30
0.0
  0
VERTEX
  8
0
 10
82.088013
 20
220.689316
 30
0.0
  0
VERTEX
  8
0
 10
82.119652
 20
220.543274
 30
0.0
  0
VERTEX
  8
0
 10
82.375046
 20
220.543274
 30
0.0
  0
VERTEX
  8
0
 10
82.375046
 20
220.612808
 30
0.0
  0
VERTEX
  8
0
 10
82.320801
 20
220.713654
 30
0.0
  0
VERTEX
  8
0
 10
82.300461
 20
220.904892
 30
0.0
  0
VERTEX
  8
0
 10
82.282379
 20
221.315186
 30
0.0
  0
VERTEX
  8
0
 10
82.266556
 20
221.489029
 30
0.0
  0
VERTEX
  8
0
 10
82.237183
 20
221.624634
 30
0.0
  0
VERTEX
  8
0
 10
82.182938
 20
221.718521
 30
0.0
  0
VERTEX
  8
0
 10
82.097054
 20
221.781097
 30
0.0
  0
VERTEX
  8
0
 10
82.191978
 20
221.874985
 30
0.0
  0
VERTEX
  8
0
 10
82.262039
 20
222.003632
 30
0.0
  0
VERTEX
  8
0
 10
82.304977
 20
222.160095
 30
0.0
  0
VERTEX
  8
0
 10
82.320801
 20
222.351334
 30
0.0
  0
VERTEX
  8
0
 10
82.304977
 20
222.546051
 30
0.0
  0
VERTEX
  8
0
 10
82.266556
 20
222.716431
 30
0.0
  0
VERTEX
  8
0
 10
82.110611
 20
222.956345
 30
0.0
  0
VERTEX
  8
0
 10
81.945625
 20
223.029373
 30
0.0
  0
VERTEX
  8
0
 10
81.755783
 20
223.043274
 30
0.0
  0
SEQEND
  8
0
  0
POLYLINE
  8
0
 62
     7
 66
     1
 10
0.0
 20
0.0
 30
0.0
 70
     1
 71
    11
  0
VERTEX
  8
0
 10
81.342186
 20
222.751205
 30
0.0
  0
VERTEX
  8
0
 10
81.71962
 20
222.751205
 30
0.0
  0
VERTEX
  8
0
 10
81.880081
 20
222.73381
 30
0.0
  0
VERTEX
  8
0
 10
81.997612
 20
222.671234
 30
0.0
  0
VERTEX
  8
0
 10
82.067673
 20
222.54953
 30
0.0
  0
VERTEX
  8
0
 10
82.092529
 20
222.344391
 30
0.0
  0
VERTEX
  8
0
 10
82.067673
 20
222.132294
 30
0.0
  0
VERTEX
  8
0
 10
81.99987
 20
221.996689
 30
0.0
  0
VERTEX
  8
0
 10
81.882347
 20
221.92366
 30
0.0
  0
VERTEX
  8
0
 10
81.71962
 20
221.902802
 30
0.0
  0
VERTEX
  8
0
 10
81.342186
 20
221.902802
 30
0.0
  0
SEQEND
  8
0
  0
POLYLINE
  8
0
 62
     7
 66
     1
 10
0.0
 20
0.0
 30
0.0
 70
     1
 71
    12
  0
VERTEX
  8
0
 10
83.125916
 20
220.543274
 30
0.0
  0
VERTEX
  8
0
 10
84.303413
 20
220.543274
 30
0.0
  0
VERTEX
  8
0
 10
84.303413
 20
220.856201
 30
0.0
  0
VERTEX
  8
0
 10
83.345139
 20
220.856201
 30
0.0
  0
VERTEX
  8
0
 10
83.345139
 20
221.694183
 30
0.0
  0
VERTEX
  8
0
 10
84.213013
 20
221.694183
 30
0.0
  0
VERTEX
  8
0
 10
84.213013
 20
221.986252
 30
0.0
  0
VERTEX
  8
0
 10
83.345139
 20
221.986252
 30
0.0
  0
VERTEX
  8
0
 10
83.345139
 20
222.73381
 30
0.0
  0
VERTEX
  8
0
 10
84.285332
 20
222.73381
 30
0.0
  0
VERTEX
  8
0
 10
84.285332
 20
223.043274
 30
0.0
  0
VERTEX
  8
0
 10
83.125916
 20
223.043274
 30
0.0
  0
SEQEND
  8
0
  0
POLYLINE
  8
0
 62
     7
 66
     1
 10
0.0
 20
0.0
 30
0.0
 70
     1
 71
     8
  0
VERTEX
  8
0
 10
84.889297
 20
220.543274
 30
0.0
  0
VERTEX
  8
0
 10
85.117569
 20
220.543274
 30
0.0
  0
VERTEX
  8
0
 10
85.291595
 20
221.290833
 30
0.0
  0
VERTEX
  8
0
 10
85.931198
 20
221.290833
 30
0.0
  0
VERTEX
  8
0
 10
86.102966
 20
220.543274
 30
0.0
  0
VERTEX
  8
0
 10
86.342529
 20
220.543274
 30
0.0
  0
VERTEX
  8
0
 10
85.736832
 20
223.043274
 30
0.0
  0
VERTEX
  8
0
 10
85.492737
 20
223.043274
 30
0.0
  0
SEQEND
  8
0
  0
POLYLINE
  8
0
 62
     7
 66
     1
 10
0.0
 20
0.0
 30
0.0
 70
     1
 71
     3
  0
VERTEX
  8
0
 10
85.359398
 20
221.582916
 30
0.0
  0
VERTEX
  8
0
 10
85.614784
 20
222.685135
 30
0.0
  0
VERTEX
  8
0
 10
85.865654
 20
221.582916
 30
0.0
  0
SEQEND
  8
0
  0
POLYLINE
  8
0
 62
     7
 66
     1
 10
0.0
 20
0.0
 30
0.0
 70
     1
 71
    32
  0
VERTEX
  8
0
 10
58.633389
 20
218.291534
 30
0.0
  0
VERTEX
  8
0
 10
58.644691
 20
217.992508
 30
0.0
  0
VERTEX
  8
0
 10
58.685371
 20
217.731735
 30
0.0
  0
VERTEX
  8
0
 10
58.750916
 20
217.505722
 30
0.0
  0
VERTEX
  8
0
 10
58.839058
 20
217.317963
 30
0.0
  0
VERTEX
  8
0
 10
58.949802
 20
217.168442
 30
0.0
  0
VERTEX
  8
0
 10
59.080887
 20
217.060654
 30
0.0
  0
VERTEX
  8
0
 10
59.232311
 20
216.998077
 30
0.0
  0
VERTEX
  8
0
 10
59.404079
 20
216.97374
 30
0.0
  0
VERTEX
  8
0
 10
59.573586
 20
216.998077
 30
0.0
  0
VERTEX
  8
0
 10
59.72501
 20
217.060654
 30
0.0
  0
VERTEX
  8
0
 10
59.856094
 20
217.168442
 30
0.0
  0
VERTEX
  8
0
 10
59.966839
 20
217.317963
 30
0.0
  0
VERTEX
  8
0
 10
60.054981
 20
217.505722
 30
0.0
  0
VERTEX
  8
0
 10
60.118263
 20
217.731735
 30
0.0
  0
VERTEX
  8
0
 10
60.156685
 20
217.992508
 30
0.0
  0
VERTEX
  8
0
 10
60.172508
 20
218.291534
 30
0.0
  0
VERTEX
  8
0
 10
60.158947
 20
218.587082
 30
0.0
  0
VERTEX
  8
0
 10
60.118263
 20
218.84787
 30
0.0
  0
VERTEX
  8
0
 10
60.052723
 20
219.073868
 30
0.0
  0
VERTEX
  8
0
 10
59.966839
 20
219.261627
 30
0.0
  0
VERTEX
  8
0
 10
59.856094
 20
219.411148
 30
0.0
  0
VERTEX
  8
0
 10
59.72501
 20
219.518936
 30
0.0
  0
VERTEX
  8
0
 10
59.573586
 20
219.584991
 30
0.0
  0
VERTEX
  8
0
 10
59.404079
 20
219.609344
 30
0.0
  0
VERTEX
  8
0
 10
59.232311
 20
219.584991
 30
0.0
  0
VERTEX
  8
0
 10
59.080887
 20
219.518936
 30
0.0
  0
VERTEX
  8
0
 10
58.949802
 20
219.411148
 30
0.0
  0
VERTEX
  8
0
 10
58.839058
 20
219.261627
 30
0.0
  0
VERTEX
  8
0
 10
58.750916
 20
219.073868
 30
0.0
  0
VERTEX
  8
0
 10
58.685371
 20
218.84787
 30
0.0
  0
VERTEX
  8
0
 10
58.644691
 20
218.587082
 30
0.0
  0
SEQEND
  8
0
  0
POLYLINE
  8
0
 62
     7
 66
     1
 10
0.0
 20
0.0
 30
0.0
 70
     1
 71
    16
  0
VERTEX
  8
0
 10
58.86166
 20
218.291534
 30
0.0
  0
VERTEX
  8
0
 10
58.89782
 20
218.722687
 30
0.0
  0
VERTEX
  8
0
 10
59.006306
 20
219.046051
 30
0.0
  0
VERTEX
  8
0
 10
59.17807
 20
219.244247
 30
0.0
  0
VERTEX
  8
0
 10
59.404079
 20
219.313782
 30
0.0
  0
VERTEX
  8
0
 10
59.627827
 20
219.244247
 30
0.0
  0
VERTEX
  8
0
 10
59.799595
 20
219.046051
 30
0.0
  0
VERTEX
  8
0
 10
59.905819
 20
218.722687
 30
0.0
  0
VERTEX
  8
0
 10
59.944241
 20
218.291534
 30
0.0
  0
VERTEX
  8
0
 10
59.905819
 20
217.856903
 30
0.0
  0
VERTEX
  8
0
 10
59.799595
 20
217.533539
 30
0.0
  0
VERTEX
  8
0
 10
59.627827
 20
217.335342
 30
0.0
  0
VERTEX
  8
0
 10
59.404079
 20
217.269287
 30
0.0
  0
VERTEX
  8
0
 10
59.17807
 20
217.335342
 30
0.0
  0
VERTEX
  8
0
 10
59.006306
 20
217.533539
 30
0.0
  0
VERTEX
  8
0
 10
58.89782
 20
217.856903
 30
0.0
  0
SEQEND
  8
0
  0
POLYLINE
  8
0
 62
     7
 66
     1
 10
0.0
 20
0.0
 30
0.0
 70
     1
 71
    12
  0
VERTEX
  8
0
 10
60.948238
 20
217.043274
 30
0.0
  0
VERTEX
  8
0
 10
61.158424
 20
217.043274
 30
0.0
  0
VERTEX
  8
0
 10
61.158424
 20
219.070389
 30
0.0
  0
VERTEX
  8
0
 10
61.219448
 20
218.886108
 30
0.0
  0
VERTEX
  8
0
 10
61.994656
 20
217.043274
 30
0.0
  0
VERTEX
  8
0
 10
62.234226
 20
217.043274
 30
0.0
  0
VERTEX
  8
0
 10
62.234226
 20
219.543274
 30
0.0
  0
VERTEX
  8
0
 10
62.024036
 20
219.543274
 30
0.0
  0
VERTEX
  8
0
 10
62.024036
 20
217.516159
 30
0.0
  0
VERTEX
  8
0
 10
61.949455
 20
217.728256
 30
0.0
  0
VERTEX
  8
0
 10
61.190067
 20
219.543274
 30
0.0
  0
VERTEX
  8
0
 10
60.948238
 20
219.543274
 30
0.0
  0
SEQEND
  8
0
  0
POLYLINE
  8
0
 62
     7
 66
     1
 10
0.0
 20
0.0
 30
0.0
 70
     1
 71
     6
  0
VERTEX
  8
0
 10
63.080017
 20
217.043274
 30
0.0
  0
VERTEX
  8
0
 10
64.112877
 20
217.043274
 30
0.0
  0
VERTEX
  8
0
 10
64.112877
 20
217.35968
 30
0.0
  0
VERTEX
  8
0
 10
63.303764
 20
217.35968
 30
0.0
  0
VERTEX
  8
0
 10
63.303764
 20
219.543274
 30
0.0
  0
VERTEX
  8
0
 10
63.080017
 20
219.543274
 30
0.0
  0
SEQEND
  8
0
  0
POLYLINE
  8
0
 62
     7
 66
     1
 10
0.0
 20
0.0
 30
0.0
 70
     1
 71
     9
  0
VERTEX
  8
0
 10
65.419724
 20
217.043274
 30
0.0
  0
VERTEX
  8
0
 10
65.419724
 20
218.069
 30
0.0
  0
VERTEX
  8
0
 10
65.998306
 20
219.543274
 30
0.0
  0
VERTEX
  8
0
 10
65.738396
 20
219.543274
 30
0.0
  0
VERTEX
  8
0
 10
65.306725
 20
218.361084
 30
0.0
  0
VERTEX
  8
0
 10
64.872787
 20
219.543274
 30
0.0
  0
VERTEX
  8
0
 10
64.594795
 20
219.543274
 30
0.0
  0
VERTEX
  8
0
 10
65.198235
 20
218.044662
 30
0.0
  0
VERTEX
  8
0
 10
65.198235
 20
217.043274
 30
0.0
  0
SEQEND
  8
0
  0
POLYLINE
  8
0
 62
     7
 66
     1
 10
0.0
 20
0.0
 30
0.0
 70
     1
 71
    10
  0
VERTEX
  8
0
 10
67.771255
 20
217.043274
 30
0.0
  0
VERTEX
  8
0
 10
67.992744
 20
217.043274
 30
0.0
  0
VERTEX
  8
0
 10
67.992744
 20
218.173309
 30
0.0
  0
VERTEX
  8
0
 10
68.752129
 20
218.173309
 30
0.0
  0
VERTEX
  8
0
 10
68.752129
 20
218.479294
 30
0.0
  0
VERTEX
  8
0
 10
67.992744
 20
218.479294
 30
0.0
  0
VERTEX
  8
0
 10
67.992744
 20
219.230347
 30
0.0
  0
VERTEX
  8
0
 10
68.862877
 20
219.230347
 30
0.0
  0
VERTEX
  8
0
 10
68.862877
 20
219.543274
 30
0.0
  0
VERTEX
  8
0
 10
67.771255
 20
219.543274
 30
0.0
  0
SEQEND
  8
0
  0
POLYLINE
  8
0
 62
     7
 66
     1
 10
0.0
 20
0.0
 30
0.0
 70
     1
 71
    32
  0
VERTEX
  8
0
 10
69.518822
 20
218.291534
 30
0.0
  0
VERTEX
  8
0
 10
69.530121
 20
217.992508
 30
0.0
  0
VERTEX
  8
0
 10
69.570801
 20
217.731735
 30
0.0
  0
VERTEX
  8
0
 10
69.636345
 20
217.505722
 30
0.0
  0
VERTEX
  8
0
 10
69.724487
 20
217.317963
 30
0.0
  0
VERTEX
  8
0
 10
69.835236
 20
217.168442
 30
0.0
  0
VERTEX
  8
0
 10
69.966316
 20
217.060654
 30
0.0
  0
VERTEX
  8
0
 10
70.117744
 20
216.998077
 30
0.0
  0
VERTEX
  8
0
 10
70.289513
 20
216.97374
 30
0.0
  0
VERTEX
  8
0
 10
70.459015
 20
216.998077
 30
0.0
  0
VERTEX
  8
0
 10
70.610443
 20
217.060654
 30
0.0
  0
VERTEX
  8
0
 10
70.741524
 20
217.168442
 30
0.0
  0
VERTEX
  8
0
 10
70.852272
 20
217.317963
 30
0.0
  0
VERTEX
  8
0
 10
70.940414
 20
217.505722
 30
0.0
  0
VERTEX
  8
0
 10
71.003693
 20
217.731735
 30
0.0
  0
VERTEX
  8
0
 10
71.042114
 20
217.992508
 30
0.0
  0
VERTEX
  8
0
 10
71.057938
 20
218.291534
 30
0.0
  0
VERTEX
  8
0
 10
71.04438
 20
218.587082
 30
0.0
  0
VERTEX
  8
0
 10
71.003693
 20
218.84787
 30
0.0
  0
VERTEX
  8
0
 10
70.938156
 20
219.073868
 30
0.0
  0
VERTEX
  8
0
 10
70.852272
 20
219.261627
 30
0.0
  0
VERTEX
  8
0
 10
70.741524
 20
219.411148
 30
0.0
  0
VERTEX
  8
0
 10
70.610443
 20
219.518936
 30
0.0
  0
VERTEX
  8
0
 10
70.459015
 20
219.584991
 30
0.0
  0
VERTEX
  8
0
 10
70.289513
 20
219.609344
 30
0.0
  0
VERTEX
  8
0
 10
70.117744
 20
219.584991
 30
0.0
  0
VERTEX
  8
0
 10
69.966316
 20
219.518936
 30
0.0
  0
VERTEX
  8
0
 10
69.835236
 20
219.411148
 30
0.0
  0
VERTEX
  8
0
 10
69.724487
 20
219.261627
 30
0.0
  0
VERTEX
  8
0
 10
69.636345
 20
219.073868
 30
0.0
  0
VERTEX
  8
0
 10
69.570801
 20
218.84787
 30
0.0
  0
VERTEX
  8
0
 10
69.530121
 20
218.587082
 30
0.0
  0
SEQEND
  8
0
  0
POLYLINE
  8
0
 62
     7
 66
     1
 10
0.0
 20
0.0
 30
0.0
 70
     1
 71
    16
  0
VERTEX
  8
0
 10
69.747093
 20
218.291534
 30
0.0
  0
VERTEX
  8
0
 10
69.783249
 20
218.722687
 30
0.0
  0
VERTEX
  8
0
 10
69.891739
 20
219.046051
 30
0.0
  0
VERTEX
  8
0
 10
70.063499
 20
219.244247
 30
0.0
  0
VERTEX
  8
0
 10
70.289513
 20
219.313782
 30
0.0
  0
VERTEX
  8
0
 10
70.51326
 20
219.244247
 30
0.0
  0
VERTEX
  8
0
 10
70.685028
 20
219.046051
 30
0.0
  0
VERTEX
  8
0
 10
70.791245
 20
218.722687
 30
0.0
  0
VERTEX
  8
0
 10
70.829666
 20
218.291534
 30
0.0
  0
VERTEX
  8
0
 10
70.791245
 20
217.856903
 30
0.0
  0
VERTEX
  8
0
 10
70.685028
 20
217.533539
 30
0.0
  0
VERTEX
  8
0
 10
70.51326
 20
217.335342
 30
0.0
  0
VERTEX
  8
0
 10
70.289513
 20
217.269287
 30
0.0
  0
VERTEX
  8
0
 10
70.063499
 20
217.335342
 30
0.0
  0
VERTEX
  8
0
 10
69.891739
 20
217.533539
 30
0.0
  0
VERTEX
  8
0
 10
69.783249
 20
217.856903
 30
0.0
  0
SEQEND
  8
0
  0
POLYLINE
  8
0
 62
     7
 66
     1
 10
0.0
 20
0.0
 30
0.0
 70
     1
 71
    30
  0
VERTEX
  8
0
 10
71.83593
 20
219.543274
 30
0.0
  0
VERTEX
  8
0
 10
71.83593
 20
217.043274
 30
0.0
  0
VERTEX
  8
0
 10
72.055161
 20
217.043274
 30
0.0
  0
VERTEX
  8
0
 10
72.055161
 20
218.114212
 30
0.0
  0
VERTEX
  8
0
 10
72.412247
 20
218.114212
 30
0.0
  0
VERTEX
  8
0
 10
72.584015
 20
218.103775
 30
0.0
  0
VERTEX
  8
0
 10
72.690239
 20
218.05162
 30
0.0
  0
VERTEX
  8
0
 10
72.749001
 20
217.933395
 30
0.0
  0
VERTEX
  8
0
 10
72.773865
 20
217.71434
 30
0.0
  0
VERTEX
  8
0
 10
72.787422
 20
217.387497
 30
0.0
  0
VERTEX
  8
0
 10
72.798721
 20
217.189316
 30
0.0
  0
VERTEX
  8
0
 10
72.830368
 20
217.043274
 30
0.0
  0
VERTEX
  8
0
 10
73.085754
 20
217.043274
 30
0.0
  0
VERTEX
  8
0
 10
73.085754
 20
217.112808
 30
0.0
  0
VERTEX
  8
0
 10
73.031509
 20
217.213654
 30
0.0
  0
VERTEX
  8
0
 10
73.011169
 20
217.404892
 30
0.0
  0
VERTEX
  8
0
 10
72.993088
 20
217.815186
 30
0.0
  0
VERTEX
  8
0
 10
72.977272
 20
217.989029
 30
0.0
  0
VERTEX
  8
0
 10
72.947891
 20
218.124634
 30
0.0
  0
VERTEX
  8
0
 10
72.893646
 20
218.218521
 30
0.0
  0
VERTEX
  8
0
 10
72.807762
 20
218.281097
 30
0.0
  0
VERTEX
  8
0
 10
72.902687
 20
218.374985
 30
0.0
  0
VERTEX
  8
0
 10
72.972748
 20
218.503632
 30
0.0
  0
VERTEX
  8
0
 10
73.015694
 20
218.660095
 30
0.0
  0
VERTEX
  8
0
 10
73.031509
 20
218.851334
 30
0.0
  0
VERTEX
  8
0
 10
73.015694
 20
219.046051
 30
0.0
  0
VERTEX
  8
0
 10
72.977272
 20
219.216431
 30
0.0
  0
VERTEX
  8
0
 10
72.821327
 20
219.456345
 30
0.0
  0
VERTEX
  8
0
 10
72.656342
 20
219.529373
 30
0.0
  0
VERTEX
  8
0
 10
72.466492
 20
219.543274
 30
0.0
  0
SEQEND
  8
0
  0
POLYLINE
  8
0
 62
     7
 66
     1
 10
0.0
 20
0.0
 30
0.0
 70
     1
 71
    11
  0
VERTEX
  8
0
 10
72.052895
 20
219.251205
 30
0.0
  0
VERTEX
  8
0
 10
72.430328
 20
219.251205
 30
0.0
  0
VERTEX
  8
0
 10
72.590797
 20
219.23381
 30
0.0
  0
VERTEX
  8
0
 10
72.708321
 20
219.171234
 30
0.0
  0
VERTEX
  8
0
 10
72.778381
 20
219.04953
 30
0.0
  0
VERTEX
  8
0
 10
72.803246
 20
218.844391
 30
0.0
  0
VERTEX
  8
0
 10
72.778381
 20
218.632294
 30
0.0
  0
VERTEX
  8
0
 10
72.710579
 20
218.496689
 30
0.0
  0
VERTEX
  8
0
 10
72.593056
 20
218.42366
 30
0.0
  0
VERTEX
  8
0
 10
72.430328
 20
218.402802
 30
0.0
  0
VERTEX
  8
0
 10
72.052895
 20
218.402802
 30
0.0
  0
SEQEND
  8
0
  0
POLYLINE
  8
0
 62
     7
 66
     1
 10
0.0
 20
0.0
 30
0.0
 70
     1
 71
     4
  0
VERTEX
  8
0
 10
74.960403
 20
217.043274
 30
0.0
  0
VERTEX
  8
0
 10
75.181892
 20
217.043274
 30
0.0
  0
VERTEX
  8
0
 10
75.181892
 20
219.543274
 30
0.0
  0
VERTEX
  8
0
 10
74.960403
 20
219.543274
 30
0.0
  0
SEQEND
  8
0
  0
POLYLINE
  8
0
 62
     7
 66
     1
 10
0.0
 20
0.0
 30
0.0
 70
     1
 71
    12
  0
VERTEX
  8
0
 10
76.03447
 20
217.043274
 30
0.0
  0
VERTEX
  8
0
 10
76.244659
 20
217.043274
 30
0.0
  0
VERTEX
  8
0
 10
76.244659
 20
219.070389
 30
0.0
  0
VERTEX
  8
0
 10
76.305679
 20
218.886108
 30
0.0
  0
VERTEX
  8
0
 10
77.080887
 20
217.043274
 30
0.0
  0
VERTEX
  8
0
 10
77.320457
 20
217.043274
 30
0.0
  0
VERTEX
  8
0
 10
77.320457
 20
219.543274
 30
0.0
  0
VERTEX
  8
0
 10
77.110268
 20
219.543274
 30
0.0
  0
VERTEX
  8
0
 10
77.110268
 20
217.516159
 30
0.0
  0
VERTEX
  8
0
 10
77.035683
 20
217.728256
 30
0.0
  0
VERTEX
  8
0
 10
76.276299
 20
219.543274
 30
0.0
  0
VERTEX
  8
0
 10
76.03447
 20
219.543274
 30
0.0
  0
SEQEND
  8
0
  0
POLYLINE
  8
0
 62
     7
 66
     1
 10
0.0
 20
0.0
 30
0.0
 70
     1
 71
    10
  0
VERTEX
  8
0
 10
78.166245
 20
217.043274
 30
0.0
  0
VERTEX
  8
0
 10
78.387741
 20
217.043274
 30
0.0
  0
VERTEX
  8
0
 10
78.387741
 20
218.173309
 30
0.0
  0
VERTEX
  8
0
 10
79.147125
 20
218.173309
 30
0.0
  0
VERTEX
  8
0
 10
79.147125
 20
218.479294
 30
0.0
  0
VERTEX
  8
0
 10
78.387741
 20
218.479294
 30
0.0
  0
VERTEX
  8
0
 10
78.387741
 20
219.230347
 30
0.0
  0
VERTEX
  8
0
 10
79.257866
 20
219.230347
 30
0.0
  0
VERTEX
  8
0
 10
79.257866
 20
219.543274
 30
0.0
  0
VERTEX
  8
0
 10
78.166245
 20
219.543274
 30
0.0
  0
SEQEND
  8
0
  0
POLYLINE
  8
0
 62
     7
 66
     1
 10
0.0
 20
0.0
 30
0.0
 70
     1
 71
    32
  0
VERTEX
  8
0
 10
79.913818
 20
218.291534
 30
0.0
  0
VERTEX
  8
0
 10
79.925117
 20
217.992508
 30
0.0
  0
VERTEX
  8
0
 10
79.965797
 20
217.731735
 30
0.0
  0
VERTEX
  8
0
 10
80.031342
 20
217.505722
 30
0.0
  0
VERTEX
  8
0
 10
80.119484
 20
217.317963
 30
0.0
  0
VERTEX
  8
0
 10
80.230225
 20
217.168442
 30
0.0
  0
VERTEX
  8
0
 10
80.361313
 20
217.060654
 30
0.0
  0
VERTEX
  8
0
 10
80.512741
 20
216.998077
 30
0.0
  0
VERTEX
  8
0
 10
80.684502
 20
216.97374
 30
0.0
  0
VERTEX
  8
0
 10
80.854012
 20
216.998077
 30
0.0
  0
VERTEX
  8
0
 10
81.005432
 20
217.060654
 30
0.0
  0
VERTEX
  8
0
 10
81.13652
 20
217.168442
 30
0.0
  0
VERTEX
  8
0
 10
81.247261
 20
217.317963
 30
0.0
  0
VERTEX
  8
0
 10
81.335403
 20
217.505722
 30
0.0
  0
VERTEX
  8
0
 10
81.398689
 20
217.731735
 30
0.0
  0
VERTEX
  8
0
 10
81.437111
 20
217.992508
 30
0.0
  0
VERTEX
  8
0
 10
81.452927
 20
218.291534
 30
0.0
  0
VERTEX
  8
0
 10
81.439369
 20
218.587082
 30
0.0
  0
VERTEX
  8
0
 10
81.398689
 20
218.84787
 30
0.0
  0
VERTEX
  8
0
 10
81.333145
 20
219.073868
 30
0.0
  0
VERTEX
  8
0
 10
81.247261
 20
219.261627
 30
0.0
  0
VERTEX
  8
0
 10
81.13652
 20
219.411148
 30
0.0
  0
VERTEX
  8
0
 10
81.005432
 20
219.518936
 30
0.0
  0
VERTEX
  8
0
 10
80.854012
 20
219.584991
 30
0.0
  0
VERTEX
  8
0
 10
80.684502
 20
219.609344
 30
0.0
  0
VERTEX
  8
0
 10
80.512741
 20
219.584991
 30
0.0
  0
VERTEX
  8
0
 10
80.361313
 20
219.518936
 30
0.0
  0
VERTEX
  8
0
 10
80.230225
 20
219.411148
 30
0.0
  0
VERTEX
  8
0
 10
80.119484
 20
219.261627
 30
0.0
  0
VERTEX
  8
0
 10
80.031342
 20
219.073868
 30
0.0
  0
VERTEX
  8
0
 10
79.965797
 20
218.84787
 30
0.0
  0
VERTEX
  8
0
 10
79.925117
 20
218.587082
 30
0.0
  0
SEQEND
  8
0
  0
POLYLINE
  8
0
 62
     7
 66
     1
 10
0.0
 20
0.0
 30
0.0
 70
     1
 71
    16
  0
VERTEX
  8
0
 10
80.142082
 20
218.291534
 30
0.0
  0
VERTEX
  8
0
 10
80.178246
 20
218.722687
 30
0.0
  0
VERTEX
  8
0
 10
80.286728
 20
219.046051
 30
0.0
  0
VERTEX
  8
0
 10
80.458496
 20
219.244247
 30
0.0
  0
VERTEX
  8
0
 10
80.684502
 20
219.313782
 30
0.0
  0
VERTEX
  8
0
 10
80.908249
 20
219.244247
 30
0.0
  0
VERTEX
  8
0
 10
81.080017
 20
219.046051
 30
0.0
  0
VERTEX
  8
0
 10
81.186241
 20
218.722687
 30
0.0
  0
VERTEX
  8
0
 10
81.224663
 20
218.291534
 30
0.0
  0
VERTEX
  8
0
 10
81.186241
 20
217.856903
 30
0.0
  0
VERTEX
  8
0
 10
81.080017
 20
217.533539
 30
0.0
  0
VERTEX
  8
0
 10
80.908249
 20
217.335342
 30
0.0
  0
VERTEX
  8
0
 10
80.684502
 20
217.269287
 30
0.0
  0
VERTEX
  8
0
 10
80.458496
 20
217.335342
 30
0.0
  0
VERTEX
  8
0
 10
80.286728
 20
217.533539
 30
0.0
  0
VERTEX
  8
0
 10
80.178246
 20
217.856903
 30
0.0
  0
SEQEND
  8
0
  0
POLYLINE
  8
0
 62
     7
 66
     1
 10
0.0
 20
0.0
 30
0.0
 70
     1
 71
    30
  0
VERTEX
  8
0
 10
82.230927
 20
219.543274
 30
0.0
  0
VERTEX
  8
0
 10
82.230927
 20
217.043274
 30
0.0
  0
VERTEX
  8
0
 10
82.45015
 20
217.043274
 30
0.0
  0
VERTEX
  8
0
 10
82.45015
 20
218.114212
 30
0.0
  0
VERTEX
  8
0
 10
82.807243
 20
218.114212
 30
0.0
  0
VERTEX
  8
0
 10
82.979012
 20
218.103775
 30
0.0
  0
VERTEX
  8
0
 10
83.085236
 20
218.05162
 30
0.0
  0
VERTEX
  8
0
 10
83.143997
 20
217.933395
 30
0.0
  0
VERTEX
  8
0
 10
83.168854
 20
217.71434
 30
0.0
  0
VERTEX
  8
0
 10
83.182419
 20
217.387497
 30
0.0
  0
VERTEX
  8
0
 10
83.193718
 20
217.189316
 30
0.0
  0
VERTEX
  8
0
 10
83.225357
 20
217.043274
 30
0.0
  0
VERTEX
  8
0
 10
83.480751
 20
217.043274
 30
0.0
  0
VERTEX
  8
0
 10
83.480751
 20
217.112808
 30
0.0
  0
VERTEX
  8
0
 10
83.426506
 20
217.213654
 30
0.0
  0
VERTEX
  8
0
 10
83.406166
 20
217.404892
 30
0.0
  0
VERTEX
  8
0
 10
83.388084
 20
217.815186
 30
0.0
  0
VERTEX
  8
0
 10
83.372269
 20
217.989029
 30
0.0
  0
VERTEX
  8
0
 10
83.34288
 20
218.124634
 30
0.0
  0
VERTEX
  8
0
 10
83.288643
 20
218.218521
 30
0.0
  0
VERTEX
  8
0
 10
83.202759
 20
218.281097
 30
0.0
  0
VERTEX
  8
0
 10
83.297684
 20
218.374985
 30
0.0
  0
VERTEX
  8
0
 10
83.367744
 20
218.503632
 30
0.0
  0
VERTEX
  8
0
 10
83.41069
 20
218.660095
 30
0.0
  0
VERTEX
  8
0
 10
83.426506
 20
218.851334
 30
0.0
  0
VERTEX
  8
0
 10
83.41069
 20
219.046051
 30
0.0
  0
VERTEX
  8
0
 10
83.372269
 20
219.216431
 30
0.0
  0
VERTEX
  8
0
 10
83.216316
 20
219.456345
 30
0.0
  0
VERTEX
  8
0
 10
83.051331
 20
219.529373
 30
0.0
  0
VERTEX
  8
0
 10
82.861488
 20
219.543274
 30
0.0
  0
SEQEND
  8
0
  0
POLYLINE
  8
0
 62
     7
 66
     1
 10
0.0
 20
0.0
 30
0.0
 70
     1
 71
    11
  0
VERTEX
  8
0
 10
82.447891
 20
219.251205
 30
0.0
  0
VERTEX
  8
0
 10
82.825325
 20
219.251205
 30
0.0
  0
VERTEX
  8
0
 10
82.985794
 20
219.23381
 30
0.0
  0
VERTEX
  8
0
 10
83.103317
 20
219.171234
 30
0.0
  0
VERTEX
  8
0
 10
83.173378
 20
219.04953
 30
0.0
  0
VERTEX
  8
0
 10
83.198242
 20
218.844391
 30
0.0
  0
VERTEX
  8
0
 10
83.173378
 20
218.632294
 30
0.0
  0
VERTEX
  8
0
 10
83.105576
 20
218.496689
 30
0.0
  0
VERTEX
  8
0
 10
82.988052
 20
218.42366
 30
0.0
  0
VERTEX
  8
0
 10
82.825325
 20
218.402802
 30
0.0
  0
VERTEX
  8
0
 10
82.447891
 20
218.402802
 30
0.0
  0
SEQEND
  8
0
  0
POLYLINE
  8
0
 62
     7
 66
     1
 10
0.0
 20
0.0
 30
0.0
 70
     1
 71
    17
  0
VERTEX
  8
0
 10
84.435028
 20
219.174713
 30
0.0
  0
VERTEX
  8
0
 10
84.471184
 20
218.955658
 30
0.0
  0
VERTEX
  8
0
 10
84.880264
 20
217.043274
 30
0.0
  0
VERTEX
  8
0
 10
85.088188
 20
217.043274
 30
0.0
  0
VERTEX
  8
0
 10
85.506302
 20
218.955658
 30
0.0
  0
VERTEX
  8
0
 10
85.544724
 20
219.174713
 30
0.0
  0
VERTEX
  8
0
 10
85.544724
 20
217.043274
 30
0.0
  0
VERTEX
  8
0
 10
85.75943
 20
217.043274
 30
0.0
  0
VERTEX
  8
0
 10
85.75943
 20
219.543274
 30
0.0
  0
VERTEX
  8
0
 10
85.443024
 20
219.543274
 30
0.0
  0
VERTEX
  8
0
 10
85.024902
 20
217.63089
 30
0.0
  0
VERTEX
  8
0
 10
84.988747
 20
217.425751
 30
0.0
  0
VERTEX
  8
0
 10
84.950325
 20
217.63089
 30
0.0
  0
VERTEX
  8
0
 10
84.548027
 20
219.543274
 30
0.0
  0
VERTEX
  8
0
 10
84.231613
 20
219.543274
 30
0.0
  0
VERTEX
  8
0
 10
84.231613
 20
217.043274
 30
0.0
  0
VERTEX
  8
0
 10
84.435028
 20
217.043274
 30
0.0
  0
SEQEND
  8
0
  0
POLYLINE
  8
0
 62
     7
 66
     1
 10
0.0
 20
0.0
 30
0.0
 70
     1
 71
     8
  0
VERTEX
  8
0
 10
86.426682
 20
217.043274
 30
0.0
  0
VERTEX
  8
0
 10
86.654953
 20
217.043274
 30
0.0
  0
VERTEX
  8
0
 10
86.828979
 20
217.790833
 30
0.0
  0
VERTEX
  8
0
 10
87.468582
 20
217.790833
 30
0.0
  0
VERTEX
  8
0
 10
87.640343
 20
217.043274
 30
0.0
  0
VERTEX
  8
0
 10
87.879913
 20
217.043274
 30
0.0
  0
VERTEX
  8
0
 10
87.274216
 20
219.543274
 30
0.0
  0
VERTEX
  8
0
 10
87.030121
 20
219.543274
 30
0.0
  0
SEQEND
  8
0
  0
POLYLINE
  8
0
 62
     7
 66
     1
 10
0.0
 20
0.0
 30
0.0
 70
     1
 71
     3
  0
VERTEX
  8
0
 10
86.896774
 20
218.082916
 30
0.0
  0
VERTEX
  8
0
 10
87.152168
 20
219.185135
 30
0.0
  0
VERTEX
  8
0
 10
87.403038
 20
218.082916
 30
0.0
  0
SEQEND
  8
0
  0
POLYLINE
  8
0
 62
     7
 66
     1
 10
0.0
 20
0.0
 30
0.0
 70
     1
 71
     8
  0
VERTEX
  8
0
 10
88.906509
 20
217.043274
 30
0.0
  0
VERTEX
  8
0
 10
89.127998
 20
217.043274
 30
0.0
  0
VERTEX
  8
0
 10
89.127998
 20
219.240768
 30
0.0
  0
VERTEX
  8
0
 10
89.641037
 20
219.240768
 30
0.0
  0
VERTEX
  8
0
 10
89.641037
 20
219.543274
 30
0.0
  0
VERTEX
  8
0
 10
88.393471
 20
219.543274
 30
0.0
  0
VERTEX
  8
0
 10
88.393471
 20
219.240768
 30
0.0
  0
VERTEX
  8
0
 10
88.906509
 20
219.240768
 30
0.0
  0
SEQEND
  8
0
  0
POLYLINE
  8
0
 62
     7
 66
     1
 10
0.0
 20
0.0
 30
0.0
 70
     1
 71
     4
  0
VERTEX
  8
0
 10
90.342186
 20
217.043274
 30
0.0
  0
VERTEX
  8
0
 10
90.563675
 20
217.043274
 30
0.0
  0
VERTEX
  8
0
 10
90.563675
 20
219.543274
 30
0.0
  0
VERTEX
  8
0
 10
90.342186
 20
219.543274
 30
0.0
  0
SEQEND
  8
0
  0
POLYLINE
  8
0
 62
     7
 66
     1
 10
0.0
 20
0.0
 30
0.0
 70
     1
 71
    32
  0
VERTEX
  8
0
 10
91.34845
 20
218.291534
 30
0.0
  0
VERTEX
  8
0
 10
91.359749
 20
217.992508
 30
0.0
  0
VERTEX
  8
0
 10
91.400429
 20
217.731735
 30
0.0
  0
VERTEX
  8
0
 10
91.465973
 20
217.505722
 30
0.0
  0
VERTEX
  8
0
 10
91.554115
 20
217.317963
 30
0.0
  0
VERTEX
  8
0
 10
91.664856
 20
217.168442
 30
0.0
  0
VERTEX
  8
0
 10
91.795944
 20
217.060654
 30
0.0
  0
VERTEX
  8
0
 10
91.947372
 20
216.998077
 30
0.0
  0
VERTEX
  8
0
 10
92.119141
 20
216.97374
 30
0.0
  0
VERTEX
  8
0
 10
92.288643
 20
216.998077
 30
0.0
  0
VERTEX
  8
0
 10
92.440063
 20
217.060654
 30
0.0
  0
VERTEX
  8
0
 10
92.571152
 20
217.168442
 30
0.0
  0
VERTEX
  8
0
 10
92.6819
 20
217.317963
 30
0.0
  0
VERTEX
  8
0
 10
92.770035
 20
217.505722
 30
0.0
  0
VERTEX
  8
0
 10
92.833321
 20
217.731735
 30
0.0
  0
VERTEX
  8
0
 10
92.871742
 20
217.992508
 30
0.0
  0
VERTEX
  8
0
 10
92.887566
 20
218.291534
 30
0.0
  0
VERTEX
  8
0
 10
92.874008
 20
218.587082
 30
0.0
  0
VERTEX
  8
0
 10
92.833321
 20
218.84787
 30
0.0
  0
VERTEX
  8
0
 10
92.767776
 20
219.073868
 30
0.0
  0
VERTEX
  8
0
 10
92.6819
 20
219.261627
 30
0.0
  0
VERTEX
  8
0
 10
92.571152
 20
219.411148
 30
0.0
  0
VERTEX
  8
0
 10
92.440063
 20
219.518936
 30
0.0
  0
VERTEX
  8
0
 10
92.288643
 20
219.584991
 30
0.0
  0
VERTEX
  8
0
 10
92.119141
 20
219.609344
 30
0.0
  0
VERTEX
  8
0
 10
91.947372
 20
219.584991
 30
0.0
  0
VERTEX
  8
0
 10
91.795944
 20
219.518936
 30
0.0
  0
VERTEX
  8
0
 10
91.664856
 20
219.411148
 30
0.0
  0
VERTEX
  8
0
 10
91.554115
 20
219.261627
 30
0.0
  0
VERTEX
  8
0
 10
91.465973
 20
219.073868
 30
0.0
  0
VERTEX
  8
0
 10
91.400429
 20
218.84787
 30
0.0
  0
VERTEX
  8
0
 10
91.359749
 20
218.587082
 30
0.0
  0
SEQEND
  8
0
  0
POLYLINE
  8
0
 62
     7
 66
     1
 10
0.0
 20
0.0
 30
0.0
 70
     1
 71
    16
  0
VERTEX
  8
0
 10
91.576721
 20
218.291534
 30
0.0
  0
VERTEX
  8
0
 10
91.612877
 20
218.722687
 30
0.0
  0
VERTEX
  8
0
 10
91.721359
 20
219.046051
 30
0.0
  0
VERTEX
  8
0
 10
91.893127
 20
219.244247
 30
0.0
  0
VERTEX
  8
0
 10
92.119141
 20
219.313782
 30
0.0
  0
VERTEX
  8
0
 10
92.34288
 20
219.244247
 30
0.0
  0
VERTEX
  8
0
 10
92.514648
 20
219.046051
 30
0.0
  0
VERTEX
  8
0
 10
92.62088
 20
218.722687
 30
0.0
  0
VERTEX
  8
0
 10
92.659302
 20
218.291534
 30
0.0
  0
VERTEX
  8
0
 10
92.62088
 20
217.856903
 30
0.0
  0
VERTEX
  8
0
 10
92.514648
 20
217.533539
 30
0.0
  0
VERTEX
  8
0
 10
92.34288
 20
217.335342
 30
0.0
  0
VERTEX
  8
0
 10
92.119141
 20
217.269287
 30
0.0
  0
VERTEX
  8
0
 10
91.893127
 20
217.335342
 30
0.0
  0
VERTEX
  8
0
 10
91.721359
 20
217.533539
 30
0.0
  0
VERTEX
  8
0
 10
91.612877
 20
217.856903
 30
0.0
  0
SEQEND
  8
0
  0
POLYLINE
  8
0
 62
     7
 66
     1
 10
0.0
 20
0.0
 30
0.0
 70
     1
 71
    12
  0
VERTEX
  8
0
 10
93.6633
 20
217.043274
 30
0.0
  0
VERTEX
  8
0
 10
93.873482
 20
217.043274
 30
0.0
  0
VERTEX
  8
0
 10
93.873482
 20
219.070389
 30
0.0
  0
VERTEX
  8
0
 10
93.934509
 20
218.886108
 30
0.0
  0
VERTEX
  8
0
 10
94.709717
 20
217.043274
 30
0.0
  0
VERTEX
  8
0
 10
94.94928
 20
217.043274
 30
0.0
  0
VERTEX
  8
0
 10
94.94928
 20
219.543274
 30
0.0
  0
VERTEX
  8
0
 10
94.73909
 20
219.543274
 30
0.0
  0
VERTEX
  8
0
 10
94.73909
 20
217.516159
 30
0.0
  0
VERTEX
  8
0
 10
94.664513
 20
217.728256
 30
0.0
  0
VERTEX
  8
0
 10
93.905121
 20
219.543274
 30
0.0
  0
VERTEX
  8
0
 10
93.6633
 20
219.543274
 30
0.0
  0
SEQEND
  8
0
  0
LINE
  8
0
 62
     7
 10
95.679428
 20
107.376526
 30
0.0
 11
95.679428
 21
108.172691
 31
0.0
210
0.0
220
0.0
230
1.0
  0
ARC
  8
0
 62
     7
 10
94.32943
 20
106.722694
 30
0.0
 40
1.5
 50
25.841934
 51
90.000003
210
0.0
220
0.0
230
1.0
  0
ARC
  8
0
 62
     7
 10
94.32943
 20
106.722694
 30
0.0
 40
1.5
 50
20.000001
 51
25.841934
210
0.0
220
0.0
230
1.0
  0
ARC
  8
0
 62
     7
 10
97.429428
 20
108.172691
 30
0.0
 40
1.75
 50
120.949727
 51
180.000005
210
0.0
220
0.0
230
1.0
  0
LINE
  8
0
 62
     7
 10
95.738968
 20
107.235725
 30
0.0
 11
96.289665
 21
105.722694
 31
0.0
210
0.0
220
0.0
230
1.0
  0
LINE
  8
0
 62
     7
 10
108.529427
 20
105.722694
 30
0.0
 11
121.379425
 21
105.722694
 31
0.0
210
0.0
220
0.0
230
1.0
  0
LINE
  8
0
 62
     7
 10
108.529427
 20
105.722694
 30
0.0
 11
96.289665
 21
105.722694
 31
0.0
210
0.0
220
0.0
230
1.0
  0
LINE
  8
0
 62
     7
 10
85.029427
 20
108.222694
 30
0.0
 11
94.029427
 21
108.222694
 31
0.0
210
0.0
220
0.0
230
1.0
  0
LINE
  8
0
 62
     7
 10
94.029427
 20
108.222694
 30
0.0
 11
94.32943
 21
108.222694
 31
0.0
210
0.0
220
0.0
230
1.0
  0
LINE
  8
0
 62
     7
 10
70.406609
 20
159.321808
 30
0.0
 11
70.639175
 21
159.644867
 31
0.0
210
0.0
220
0.0
230
1.0
  0
LINE
  8
0
 62
     7
 10
70.406609
 20
159.321808
 30
0.0
 11
68.742996
 21
157.010895
 31
0.0
210
0.0
220
0.0
230
1.0
  0
LINE
  8
0
 62
     7
 10
70.406609
 20
159.321808
 30
0.0
 11
71.618912
 21
155.725204
 31
0.0
210
0.0
220
0.0
230
1.0
  0
LINE
  8
0
 62
     7
 10
71.629745
 20
152.755417
 30
0.0
 11
71.618912
 21
155.725204
 31
0.0
210
0.0
220
0.0
230
1.0
  0
LINE
  8
0
 62
     7
 10
71.629745
 20
152.755417
 30
0.0
 11
77.729477
 21
135.99176
 31
0.0
210
0.0
220
0.0
230
1.0
  0
LINE
  8
0
 62
     7
 10
77.729477
 20
135.99176
 30
0.0
 11
76.34346
 21
135.269043
 31
0.0
210
0.0
220
0.0
230
1.0
  0
LINE
  8
0
 62
     7
 10
76.34346
 20
135.269043
 30
0.0
 11
71.97612
 21
137.883698
 31
0.0
210
0.0
220
0.0
230
1.0
  0
LINE
  8
0
 62
     7
 10
71.97612
 20
137.883698
 30
0.0
 11
68.880234
 21
140.96669
 31
0.0
210
0.0
220
0.0
230
1.0
  0
LINE
  8
0
 62
     7
 10
68.880234
 20
140.96669
 30
0.0
 11
67.928894
 21
143.577927
 31
0.0
210
0.0
220
0.0
230
1.0
  0
LINE
  8
0
 62
     7
 10
67.928894
 20
143.577927
 30
0.0
 11
64.765167
 21
141.806152
 31
0.0
210
0.0
220
0.0
230
1.0
  0
LINE
  8
0
 62
     7
 10
64.765167
 20
141.806152
 30
0.0
 11
62.824154
 21
145.272095
 31
0.0
210
0.0
220
0.0
230
1.0
  0
LINE
  8
0
 62
     7
 10
64.765167
 20
141.806152
 30
0.0
 11
70.73056
 21
131.154175
 31
0.0
210
0.0
220
0.0
230
1.0
  0
ARC
  8
0
 62
     7
 10
69.421814
 20
130.421249
 30
0.0
 40
1.5
 50
324.250001
 51
29.249998
210
0.0
220
0.0
230
1.0
  0
LINE
  8
0
 62
     7
 10
70.406609
 20
129.221817
 30
0.0
 11
70.639175
 21
129.544876
 31
0.0
210
0.0
220
0.0
230
1.0
  0
LINE
  8
0
 62
     7
 10
68.742996
 20
126.910904
 30
0.0
 11
70.406609
 21
129.221817
 31
0.0
210
0.0
220
0.0
230
1.0
  0
LINE
  8
0
 62
     7
 10
70.406609
 20
129.221817
 30
0.0
 11
71.618912
 21
125.625214
 31
0.0
210
0.0
220
0.0
230
1.0
  0
LINE
  8
0
 62
     7
 10
71.629745
 20
122.655411
 30
0.0
 11
71.618912
 21
125.625214
 31
0.0
210
0.0
220
0.0
230
1.0
  0
LINE
  8
0
 62
     7
 10
76.119293
 20
110.316956
 30
0.0
 11
72.862717
 21
119.266869
 31
0.0
210
0.0
220
0.0
230
1.0
  0
LINE
  8
0
 62
     7
 10
76.119293
 20
110.316956
 30
0.0
 11
77.729477
 21
105.891762
 31
0.0
210
0.0
220
0.0
230
1.0
  0
LINE
  8
0
 62
     7
 10
71.629745
 20
122.655411
 30
0.0
 11
72.862717
 21
119.266869
 31
0.0
210
0.0
220
0.0
230
1.0
  0
LINE
  8
0
 62
     7
 10
78.629425
 20
122.496384
 30
0.0
 11
72.862717
 21
119.266869
 31
0.0
210
0.0
220
0.0
230
1.0
  0
LINE
  8
0
 62
     7
 10
78.629425
 20
118.222694
 30
0.0
 11
78.629425
 21
122.496384
 31
0.0
210
0.0
220
0.0
230
1.0
  0
LINE
  8
0
 62
     7
 10
80.429428
 20
118.222694
 30
0.0
 11
78.629425
 21
118.222694
 31
0.0
210
0.0
220
0.0
230
1.0
  0
LINE
  8
0
 62
     7
 10
80.429428
 20
112.722694
 30
0.0
 11
80.429428
 21
114.222694
 31
0.0
210
0.0
220
0.0
230
1.0
  0
LINE
  8
0
 62
     7
 10
80.429428
 20
114.222694
 30
0.0
 11
80.429428
 21
118.222694
 31
0.0
210
0.0
220
0.0
230
1.0
  0
LINE
  8
0
 62
     7
 10
80.429428
 20
114.222694
 30
0.0
 11
94.029427
 21
114.222694
 31
0.0
210
0.0
220
0.0
230
1.0
  0
LINE
  8
0
 62
     7
 10
94.029427
 20
108.222694
 30
0.0
 11
94.029427
 21
114.222694
 31
0.0
210
0.0
220
0.0
230
1.0
  0
LINE
  8
0
 62
     7
 10
96.529427
 20
118.532692
 30
0.0
 11
96.529427
 21
109.673531
 31
0.0
210
0.0
220
0.0
230
1.0
  0
LINE
  8
0
 62
     7
 10
96.529427
 20
118.532692
 30
0.0
 11
120.529427
 21
118.532692
 31
0.0
210
0.0
220
0.0
230
1.0
  0
LINE
  8
0
 62
     7
 10
120.529427
 20
118.532692
 30
0.0
 11
120.529427
 21
109.673531
 31
0.0
210
0.0
220
0.0
230
1.0
  0
ARC
  8
0
 62
     7
 10
119.629425
 20
108.172691
 30
0.0
 40
1.75
 50
0.0
 51
59.050278
210
0.0
220
0.0
230
1.0
  0
LINE
  8
0
 62
     7
 10
121.379425
 20
105.722694
 30
0.0
 11
121.379425
 21
108.172691
 31
0.0
210
0.0
220
0.0
230
1.0
  0
LINE
  8
0
 62
     7
 10
124.136604
 20
105.722694
 30
0.0
 11
121.379425
 21
105.722694
 31
0.0
210
0.0
220
0.0
230
1.0
  0
LINE
  8
0
 62
     7
 10
124.829422
 20
106.122696
 30
0.0
 11
124.136604
 21
105.722694
 31
0.0
210
0.0
220
0.0
230
1.0
  0
LINE
  8
0
 62
     7
 10
124.829422
 20
106.122696
 30
0.0
 11
124.829422
 21
107.922691
 31
0.0
210
0.0
220
0.0
230
1.0
  0
ARC
  8
0
 62
     7
 10
126.029427
 20
107.922691
 30
0.0
 40
1.2
 50
0.0
 51
180.000005
210
0.0
220
0.0
230
1.0
  0
LINE
  8
0
 62
     7
 10
127.229431
 20
107.922691
 30
0.0
 11
127.229431
 21
105.722694
 31
0.0
210
0.0
220
0.0
230
1.0
  0
LINE
  8
0
 62
     7
 10
139.347107
 20
105.722694
 30
0.0
 11
127.229431
 21
105.722694
 31
0.0
210
0.0
220
0.0
230
1.0
  0
ARC
  8
0
 62
     7
 10
139.347107
 20
104.222694
 30
0.0
 40
1.5
 50
56.442689
 51
73.597638
210
0.0
220
0.0
230
1.0
  0
ARC
  8
0
 62
     7
 10
139.347107
 20
104.222694
 30
0.0
 40
1.5
 50
73.597638
 51
90.000003
210
0.0
220
0.0
230
1.0
  0
LINE
  8
0
 62
     7
 10
139.770691
 20
105.661652
 30
0.0
 11
139.329376
 21
105.891762
 31
0.0
210
0.0
220
0.0
230
1.0
  0
LINE
  8
0
 62
     7
 10
145.429108
 20
122.655411
 30
0.0
 11
144.196136
 21
119.266869
 31
0.0
210
0.0
220
0.0
230
1.0
  0
LINE
  8
0
 62
     7
 10
140.93956
 20
110.316956
 30
0.0
 11
139.329376
 21
105.891762
 31
0.0
210
0.0
220
0.0
230
1.0
  0
LINE
  8
0
 62
     7
 10
140.93956
 20
110.316956
 30
0.0
 11
144.196136
 21
119.266869
 31
0.0
210
0.0
220
0.0
230
1.0
  0
LINE
  8
0
 62
     7
 10
140.93956
 20
110.316956
 30
0.0
 11
138.429428
 21
111.722694
 31
0.0
210
0.0
220
0.0
230
1.0
  0
LINE
  8
0
 62
     7
 10
138.429428
 20
111.722694
 30
0.0
 11
138.429428
 21
118.222694
 31
0.0
210
0.0
220
0.0
230
1.0
  0
LINE
  8
0
 62
     7
 10
138.429428
 20
111.722694
 30
0.0
 11
138.429428
 21
111.714645
 31
0.0
210
0.0
220
0.0
230
1.0
  0
LINE
  8
0
 62
     7
 10
138.429428
 20
111.714645
 30
0.0
 11
136.629425
 21
112.722694
 31
0.0
210
0.0
220
0.0
230
1.0
  0
LINE
  8
0
 62
     7
 10
136.629425
 20
112.722694
 30
0.0
 11
136.629425
 21
118.222694
 31
0.0
210
0.0
220
0.0
230
1.0
  0
LINE
  8
0
 62
     7
 10
136.629425
 20
118.222694
 30
0.0
 11
138.429428
 21
118.222694
 31
0.0
210
0.0
220
0.0
230
1.0
  0
LINE
  8
0
 62
     7
 10
138.429428
 20
118.222694
 30
0.0
 11
138.429428
 21
122.496384
 31
0.0
210
0.0
220
0.0
230
1.0
  0
LINE
  8
0
 62
     7
 10
138.429428
 20
122.496384
 30
0.0
 11
144.196136
 21
119.266869
 31
0.0
210
0.0
220
0.0
230
1.0
  0
LINE
  8
0
 62
     7
 10
145.429108
 20
122.655411
 30
0.0
 11
145.439941
 21
125.625214
 31
0.0
210
0.0
220
0.0
230
1.0
  0
LINE
  8
0
 62
     7
 10
146.652252
 20
129.221817
 30
0.0
 11
145.439941
 21
125.625214
 31
0.0
210
0.0
220
0.0
230
1.0
  0
LINE
  8
0
 62
     7
 10
148.315857
 20
126.910904
 30
0.0
 11
146.652252
 21
129.221817
 31
0.0
210
0.0
220
0.0
230
1.0
  0
LINE
  8
0
 62
     7
 10
146.652252
 20
129.221817
 30
0.0
 11
146.419678
 21
129.544876
 31
0.0
210
0.0
220
0.0
230
1.0
  0
ARC
  8
0
 62
     7
 10
147.637039
 20
130.421249
 30
0.0
 40
1.5
 50
150.750007
 51
215.749997
210
0.0
220
0.0
230
1.0
  0
LINE
  8
0
 62
     7
 10
152.293686
 20
141.806152
 30
0.0
 11
146.328293
 21
131.154175
 31
0.0
210
0.0
220
0.0
230
1.0
  0
LINE
  8
0
 62
     7
 10
152.293686
 20
141.806152
 30
0.0
 11
154.234695
 21
145.272095
 31
0.0
210
0.0
220
0.0
230
1.0
  0
LINE
  8
0
 62
     7
 10
149.129959
 20
143.577927
 30
0.0
 11
152.293686
 21
141.806152
 31
0.0
210
0.0
220
0.0
230
1.0
  0
LINE
  8
0
 62
     7
 10
148.178619
 20
140.96669
 30
0.0
 11
149.129959
 21
143.577927
 31
0.0
210
0.0
220
0.0
230
1.0
  0
LINE
  8
0
 62
     7
 10
145.082733
 20
137.883698
 30
0.0
 11
148.178619
 21
140.96669
 31
0.0
210
0.0
220
0.0
230
1.0
  0
LINE
  8
0
 62
     7
 10
140.715393
 20
135.269043
 30
0.0
 11
145.082733
 21
137.883698
 31
0.0
210
0.0
220
0.0
230
1.0
  0
LINE
  8
0
 62
     7
 10
139.329376
 20
135.99176
 30
0.0
 11
140.715393
 21
135.269043
 31
0.0
210
0.0
220
0.0
230
1.0
  0
LINE
  8
0
 62
     7
 10
145.429108
 20
152.755417
 30
0.0
 11
139.329376
 21
135.99176
 31
0.0
210
0.0
220
0.0
230
1.0
  0
LINE
  8
0
 62
     7
 10
145.429108
 20
152.755417
 30
0.0
 11
145.439941
 21
155.725204
 31
0.0
210
0.0
220
0.0
230
1.0
  0
LINE
  8
0
 62
     7
 10
146.652252
 20
159.321808
 30
0.0
 11
145.439941
 21
155.725204
 31
0.0
210
0.0
220
0.0
230
1.0
  0
LINE
  8
0
 62
     7
 10
146.652252
 20
159.321808
 30
0.0
 11
148.315857
 21
157.010895
 31
0.0
210
0.0
220
0.0
230
1.0
  0
LINE
  8
0
 62
     7
 10
146.652252
 20
159.321808
 30
0.0
 11
146.419678
 21
159.644867
 31
0.0
210
0.0
220
0.0
230
1.0
  0
ARC
  8
0
 62
     7
 10
147.637039
 20
160.52124
 30
0.0
 40
1.5
 50
150.750007
 51
215.749997
210
0.0
220
0.0
230
1.0
  0
LINE
  8
0
 62
     7
 10
146.328293
 20
161.254181
 30
0.0
 11
154.990616
 21
176.721863
 31
0.0
210
0.0
220
0.0
230
1.0
  0
LINE
  8
0
 62
     7
 10
154.990616
 20
176.721863
 30
0.0
 11
159.408295
 21
184.610199
 31
0.0
210
0.0
220
0.0
230
1.0
  0
LINE
  8
0
 62
     7
 10
159.560669
 20
184.882294
 30
0.0
 11
159.408295
 21
184.610199
 31
0.0
210
0.0
220
0.0
230
1.0
  0
LINE
  8
0
 62
     7
 10
152.686157
 20
180.409744
 30
0.0
 11
154.990616
 21
176.721863
 31
0.0
210
0.0
220
0.0
230
1.0
  0
LINE
  8
0
 62
     7
 10
152.686157
 20
180.409744
 30
0.0
 11
150.214111
 21
178.865036
 31
0.0
210
0.0
220
0.0
230
1.0
  0
ARC
  8
0
 62
     7
 10
148.700348
 20
177.919128
 30
0.0
 40
1.785
 50
212.000005
 51
32.0
210
0.0
220
0.0
230
1.0
  0
LINE
  8
0
 62
     7
 10
147.186569
 20
176.973221
 30
0.0
 11
139.117401
 21
171.93103
 31
0.0
210
0.0
220
0.0
230
1.0
  0
LINE
  8
0
 62
     7
 10
139.117401
 20
171.93103
 30
0.0
 11
129.47287
 21
187.365509
 31
0.0
210
0.0
220
0.0
230
1.0
  0
LINE
  8
0
 62
     7
 10
129.47287
 20
187.365509
 30
0.0
 11
137.542038
 21
192.4077
 31
0.0
210
0.0
220
0.0
230
1.0
  0
ARC
  8
0
 62
     7
 10
139.055817
 20
193.353607
 30
0.0
 40
1.785
 50
82.344959
 51
97.655039
210
0.0
220
0.0
230
1.0
  0
ARC
  8
0
 62
     7
 10
139.055817
 20
193.353607
 30
0.0
 40
1.785
 50
97.655039
 51
212.000005
210
0.0
220
0.0
230
1.0
  0
ARC
  8
0
 62
     7
 10
139.055817
 20
193.353607
 30
0.0
 40
1.785
 50
32.0
 51
82.344959
210
0.0
220
0.0
230
1.0
  0
LINE
  8
0
 62
     7
 10
68.742996
 20
157.010895
 30
0.0
 11
71.601425
 21
151.906799
 31
0.0
210
0.0
220
0.0
230
1.0
  0
ARC
  8
0
 62
     7
 10
70.292679
 20
151.173874
 30
0.0
 40
1.5
 50
299.250003
 51
29.249998
210
0.0
220
0.0
230
1.0
  0
LINE
  8
0
 62
     7
 10
62.824154
 20
145.272095
 30
0.0
 11
71.02562
 21
149.865128
 31
0.0
210
0.0
220
0.0
230
1.0
  0
LINE
  8
0
 62
     7
 10
68.742996
 20
126.910904
 30
0.0
 11
71.601425
 21
121.806801
 31
0.0
210
0.0
220
0.0
230
1.0
  0
ARC
  8
0
 62
     7
 10
70.292679
 20
121.073868
 30
0.0
 40
1.5
 50
299.250003
 51
29.249998
210
0.0
220
0.0
230
1.0
  0
LINE
  8
0
 62
     7
 10
62.824154
 20
115.172089
 30
0.0
 11
71.02562
 21
119.765129
 31
0.0
210
0.0
220
0.0
230
1.0
  0
LINE
  8
0
 62
     7
 10
62.824154
 20
115.172089
 30
0.0
 11
64.338165
 21
112.468613
 31
0.0
210
0.0
220
0.0
230
1.0
  0
ARC
  8
0
 62
     7
 10
73.529427
 20
105.222694
 30
0.0
 40
1.5
 50
80.191455
 51
90.000003
210
0.0
220
0.0
230
1.0
  0
ARC
  8
0
 62
     7
 10
73.529427
 20
105.222694
 30
0.0
 40
1.5
 50
24.903947
 51
37.992026
210
0.0
220
0.0
230
1.0
  0
ARC
  8
0
 62
     7
 10
73.529427
 20
105.222694
 30
0.0
 40
1.5
 50
37.992026
 51
80.191455
210
0.0
220
0.0
230
1.0
  0
ARC
  8
0
 62
     7
 10
75.706261
 20
106.23333
 30
0.0
 40
0.9
 50
204.903944
 51
234.647396
210
0.0
220
0.0
230
1.0
  0
ARC
  8
0
 62
     7
 10
76.053421
 20
106.722694
 30
0.0
 40
1.5
 50
234.647396
 51
276.96578
210
0.0
220
0.0
230
1.0
  0
ARC
  8
0
 62
     7
 10
76.053421
 20
106.722694
 30
0.0
 40
1.5
 50
276.96578
 51
303.557311
210
0.0
220
0.0
230
1.0
  0
ARC
  8
0
 62
     7
 10
77.711739
 20
104.222694
 30
0.0
 40
1.5
 50
106.402367
 51
123.557316
210
0.0
220
0.0
230
1.0
  0
ARC
  8
0
 62
     7
 10
77.711739
 20
104.222694
 30
0.0
 40
1.5
 50
90.000003
 51
106.402367
210
0.0
220
0.0
230
1.0
  0
LINE
  8
0
 62
     7
 10
77.711739
 20
105.722694
 30
0.0
 11
80.029427
 21
105.722694
 31
0.0
210
0.0
220
0.0
230
1.0
  0
LINE
  8
0
 62
     7
 10
83.529427
 20
105.722694
 30
0.0
 11
80.029427
 21
105.722694
 31
0.0
210
0.0
220
0.0
230
1.0
  0
LINE
  8
0
 62
     7
 10
83.529427
 20
105.722694
 30
0.0
 11
83.529427
 21
106.722694
 31
0.0
210
0.0
220
0.0
230
1.0
  0
ARC
  8
0
 62
     7
 10
85.029427
 20
106.722694
 30
0.0
 40
1.5
 50
90.000003
 51
180.000005
210
0.0
220
0.0
230
1.0
  0
ARC
  8
0
 62
     7
 10
141.005432
 20
106.722694
 30
0.0
 40
1.5
 50
263.034222
 51
305.352602
210
0.0
220
0.0
230
1.0
  0
ARC
  8
0
 62
     7
 10
141.005432
 20
106.722694
 30
0.0
 40
1.5
 50
236.442684
 51
263.034222
210
0.0
220
0.0
230
1.0
  0
ARC
  8
0
 62
     7
 10
141.3526
 20
106.23333
 30
0.0
 40
0.9
 50
305.352602
 51
335.096053
210
0.0
220
0.0
230
1.0
  0
ARC
  8
0
 62
     7
 10
143.529419
 20
105.222694
 30
0.0
 40
1.5
 50
90.000003
 51
99.808543
210
0.0
220
0.0
230
1.0
  0
ARC
  8
0
 62
     7
 10
143.529419
 20
105.222694
 30
0.0
 40
1.5
 50
99.808543
 51
142.007979
210
0.0
220
0.0
230
1.0
  0
ARC
  8
0
 62
     7
 10
143.529419
 20
105.222694
 30
0.0
 40
1.5
 50
142.007979
 51
155.096056
210
0.0
220
0.0
230
1.0
  0
LINE
  8
0
 62
     7
 10
154.234695
 20
115.172089
 30
0.0
 11
152.720688
 21
112.468613
 31
0.0
210
0.0
220
0.0
230
1.0
  0
LINE
  8
0
 62
     7
 10
154.234695
 20
115.172089
 30
0.0
 11
146.033234
 21
119.765129
 31
0.0
210
0.0
220
0.0
230
1.0
  0
ARC
  8
0
 62
     7
 10
146.766174
 20
121.073868
 30
0.0
 40
1.5
 50
150.750007
 51
240.750006
210
0.0
220
0.0
230
1.0
  0
LINE
  8
0
 62
     7
 10
148.315857
 20
126.910904
 30
0.0
 11
145.457428
 21
121.806801
 31
0.0
210
0.0
220
0.0
230
1.0
  0
LINE
  8
0
 62
     7
 10
154.234695
 20
145.272095
 30
0.0
 11
146.033234
 21
149.865128
 31
0.0
210
0.0
220
0.0
230
1.0
  0
ARC
  8
0
 62
     7
 10
146.766174
 20
151.173874
 30
0.0
 40
1.5
 50
150.750007
 51
240.750006
210
0.0
220
0.0
230
1.0
  0
LINE
  8
0
 62
     7
 10
148.315857
 20
157.010895
 30
0.0
 11
145.457428
 21
151.906799
 31
0.0
210
0.0
220
0.0
230
1.0
  0
LINE
  8
0
 62
     7
 10
150.757355
 20
198.970551
 30
0.0
 11
159.560669
 21
184.882294
 31
0.0
210
0.0
220
0.0
230
1.0
  0
ARC
  8
0
 62
     7
 10
152.029419
 20
199.765427
 30
0.0
 40
1.5
 50
180.000005
 51
212.000005
210
0.0
220
0.0
230
1.0
  0
LINE
  8
0
 62
     7
 10
150.529419
 20
200.523117
 30
0.0
 11
150.529419
 21
200.90242
 31
0.0
210
0.0
220
0.0
230
1.0
  0
LINE
  8
0
 62
     7
 10
150.529419
 20
200.90242
 30
0.0
 11
150.529419
 21
204.722687
 31
0.0
210
0.0
220
0.0
230
1.0
  0
LINE
  8
0
 62
     7
 10
150.529419
 20
199.765427
 30
0.0
 11
150.529419
 21
200.523117
 31
0.0
210
0.0
220
0.0
230
1.0
  0
LINE
  8
0
 62
     7
 10
147.279419
 20
204.722687
 30
0.0
 11
150.529419
 21
204.722687
 31
0.0
210
0.0
220
0.0
230
1.0
  0
LINE
  8
0
 62
     7
 10
147.279419
 20
204.722687
 30
0.0
 11
147.279419
 21
202.922699
 31
0.0
210
0.0
220
0.0
230
1.0
  0
ARC
  8
0
 62
     7
 10
146.079422
 20
202.922699
 30
0.0
 40
1.2
 50
318.59038
 51
0.0
210
0.0
220
0.0
230
1.0
  0
ARC
  8
0
 62
     7
 10
146.079422
 20
202.922699
 30
0.0
 40
1.2
 50
180.000005
 51
221.409615
210
0.0
220
0.0
230
1.0
  0
ARC
  8
0
 62
     7
 10
146.079422
 20
202.922699
 30
0.0
 40
1.2
 50
221.409615
 51
318.59038
210
0.0
220
0.0
230
1.0
  0
LINE
  8
0
 62
     7
 10
66.529427
 20
204.722687
 30
0.0
 11
70.079422
 21
204.722687
 31
0.0
210
0.0
220
0.0
230
1.0
  0
LINE
  8
0
 62
     7
 10
70.079422
 20
204.722687
 30
0.0
 11
71.879425
 21
204.722687
 31
0.0
210
0.0
220
0.0
230
1.0
  0
LINE
  8
0
 62
     7
 10
108.529427
 20
204.722687
 30
0.0
 11
71.879425
 21
204.722687
 31
0.0
210
0.0
220
0.0
230
1.0
  0
LINE
  8
0
 62
     7
 10
80.429428
 20
112.722694
 30
0.0
 11
80.029427
 21
112.49868
 31
0.0
210
0.0
220
0.0
230
1.0
  0
ARC
  8
0
 62
     7
 10
63.029427
 20
111.73568
 30
0.0
 40
1.5
 50
360.0
 51
29.249998
210
0.0
220
0.0
230
1.0
  0
LINE
  8
0
 62
     7
 10
64.529427
 20
111.73568
 30
0.0
 11
64.529427
 21
111.574135
 31
0.0
210
0.0
220
0.0
230
1.0
  0
LINE
  8
0
 62
     7
 10
77.28817
 20
105.661652
 30
0.0
 11
77.729477
 21
105.891762
 31
0.0
210
0.0
220
0.0
230
1.0
  0
LINE
  8
0
 62
     7
 10
78.629425
 20
111.714645
 30
0.0
 11
80.029427
 21
112.49868
 31
0.0
210
0.0
220
0.0
230
1.0
  0
LINE
  8
0
 62
     7
 10
78.629425
 20
111.722694
 30
0.0
 11
78.629425
 21
111.714645
 31
0.0
210
0.0
220
0.0
230
1.0
  0
LINE
  8
0
 62
     7
 10
76.119293
 20
110.316956
 30
0.0
 11
78.629425
 21
111.722694
 31
0.0
210
0.0
220
0.0
230
1.0
  0
LINE
  8
0
 62
     7
 10
80.029427
 20
112.49868
 30
0.0
 11
80.029427
 21
105.722694
 31
0.0
210
0.0
220
0.0
230
1.0
  0
LINE
  8
0
 62
     7
 10
78.629425
 20
111.722694
 30
0.0
 11
78.629425
 21
118.222694
 31
0.0
210
0.0
220
0.0
230
1.0
  0
LINE
  8
0
 62
     7
 10
152.529419
 20
111.73568
 30
0.0
 11
152.529419
 21
111.574135
 31
0.0
210
0.0
220
0.0
230
1.0
  0
ARC
  8
0
 62
     7
 10
154.029419
 20
111.73568
 30
0.0
 40
1.5
 50
150.750007
 51
179.999995
210
0.0
220
0.0
230
1.0
  0
LINE
  8
0
 62
     7
 10
159.408295
 20
184.610199
 30
0.0
 11
152.686157
 21
180.409744
 31
0.0
210
0.0
220
0.0
230
1.0
  0
LINE
  8
0
 62
     7
 10
140.56958
 20
194.2995
 30
0.0
 11
141.886948
 21
195.122696
 31
0.0
210
0.0
220
0.0
230
1.0
  0
LINE
  8
0
 62
     7
 10
141.886948
 20
195.122696
 30
0.0
 11
139.293579
 21
195.122696
 31
0.0
210
0.0
220
0.0
230
1.0
  0
LINE
  8
0
 62
     7
 10
150.202652
 20
200.318924
 30
0.0
 11
150.529419
 21
200.523117
 31
0.0
210
0.0
220
0.0
230
1.0
  0
LINE
  8
0
 62
     7
 10
150.202652
 20
200.318924
 30
0.0
 11
148.208267
 21
199.072693
 31
0.0
210
0.0
220
0.0
230
1.0
  0
LINE
  8
0
 62
     7
 10
146.629425
 20
198.086121
 30
0.0
 11
148.208267
 21
199.072693
 31
0.0
210
0.0
220
0.0
230
1.0
  0
LINE
  8
0
 62
     7
 10
146.629425
 20
198.086121
 30
0.0
 11
141.886948
 21
195.122696
 31
0.0
210
0.0
220
0.0
230
1.0
  0
LINE
  8
0
 62
     7
 10
71.379425
 20
200.722687
 30
0.0
 11
71.379425
 21
199.072693
 31
0.0
210
0.0
220
0.0
230
1.0
  0
LINE
  8
0
 62
     7
 10
73.784958
 20
106.700768
 30
0.0
 11
71.97612
 21
107.783691
 31
0.0
210
0.0
220
0.0
230
1.0
  0
LINE
  8
0
 62
     7
 10
76.235336
 20
105.233765
 30
0.0
 11
74.711571
 21
106.146019
 31
0.0
210
0.0
220
0.0
230
1.0
  0
LINE
  8
0
 62
     7
 10
73.529427
 20
106.722694
 30
0.0
 11
64.529427
 21
106.722694
 31
0.0
210
0.0
220
0.0
230
1.0
  0
LINE
  8
0
 62
     7
 10
71.97612
 20
107.783691
 30
0.0
 11
68.880234
 21
110.866692
 31
0.0
210
0.0
220
0.0
230
1.0
  0
LINE
  8
0
 62
     7
 10
68.880234
 20
110.866692
 30
0.0
 11
67.928894
 21
113.477928
 31
0.0
210
0.0
220
0.0
230
1.0
  0
LINE
  8
0
 62
     7
 10
67.928894
 20
113.477928
 30
0.0
 11
64.529427
 21
111.574135
 31
0.0
210
0.0
220
0.0
230
1.0
  0
LINE
  8
0
 62
     7
 10
64.529427
 20
111.574135
 30
0.0
 11
64.529427
 21
106.722694
 31
0.0
210
0.0
220
0.0
230
1.0
  0
LINE
  8
0
 62
     7
 10
140.823517
 20
105.233765
 30
0.0
 11
142.34729
 21
106.146019
 31
0.0
210
0.0
220
0.0
230
1.0
  0
LINE
  8
0
 62
     7
 10
152.529419
 20
106.722694
 30
0.0
 11
143.529419
 21
106.722694
 31
0.0
210
0.0
220
0.0
230
1.0
  0
LINE
  8
0
 62
     7
 10
143.273895
 20
106.700768
 30
0.0
 11
145.082733
 21
107.783691
 31
0.0
210
0.0
220
0.0
230
1.0
  0
LINE
  8
0
 62
     7
 10
152.529419
 20
111.574135
 30
0.0
 11
152.529419
 21
106.722694
 31
0.0
210
0.0
220
0.0
230
1.0
  0
LINE
  8
0
 62
     7
 10
149.129959
 20
113.477928
 30
0.0
 11
152.529419
 21
111.574135
 31
0.0
210
0.0
220
0.0
230
1.0
  0
LINE
  8
0
 62
     7
 10
148.178619
 20
110.866692
 30
0.0
 11
149.129959
 21
113.477928
 31
0.0
210
0.0
220
0.0
230
1.0
  0
LINE
  8
0
 62
     7
 10
145.082733
 20
107.783691
 30
0.0
 11
148.178619
 21
110.866692
 31
0.0
210
0.0
220
0.0
230
1.0
  0
LINE
  8
0
 62
     7
 10
150.529419
 20
200.90242
 30
0.0
 11
150.202652
 21
200.318924
 31
0.0
210
0.0
220
0.0
230
1.0
  0
LINE
  8
0
 62
     7
 10
146.979431
 20
202.128967
 30
0.0
 11
146.979431
 21
200.722687
 31
0.0
210
0.0
220
0.0
230
1.0
  0
LINE
  8
0
 62
     7
 10
145.679428
 20
200.722687
 30
0.0
 11
146.979431
 21
200.722687
 31
0.0
210
0.0
220
0.0
230
1.0
  0
LINE
  8
0
 62
     7
 10
145.179428
 20
202.128967
 30
0.0
 11
145.179428
 21
200.722687
 31
0.0
210
0.0
220
0.0
230
1.0
  0
LINE
  8
0
 62
     7
 10
144.879425
 20
204.722687
 30
0.0
 11
144.879425
 21
202.922699
 31
0.0
210
0.0
220
0.0
230
1.0
  0
LINE
  8
0
 62
     7
 10
108.529427
 20
204.722687
 30
0.0
 11
144.879425
 21
204.722687
 31
0.0
210
0.0
220
0.0
230
1.0
  0
LINE
  8
0
 62
     7
 10
71.879425
 20
204.722687
 30
0.0
 11
71.879425
 21
200.722687
 31
0.0
210
0.0
220
0.0
230
1.0
  0
LINE
  8
0
 62
     7
 10
70.079422
 20
204.722687
 30
0.0
 11
70.079422
 21
200.722687
 31
0.0
210
0.0
220
0.0
230
1.0
  0
LINE
  8
0
 62
     7
 10
146.629425
 20
198.086121
 30
0.0
 11
146.629425
 21
199.072693
 31
0.0
210
0.0
220
0.0
230
1.0
  0
LINE
  8
0
 62
     7
 10
148.208267
 20
199.072693
 30
0.0
 11
146.629425
 21
199.072693
 31
0.0
210
0.0
220
0.0
230
1.0
  0
LINE
  8
0
 62
     7
 10
145.679428
 20
199.072693
 30
0.0
 11
146.629425
 21
199.072693
 31
0.0
210
0.0
220
0.0
230
1.0
  0
LINE
  8
0
 62
     7
 10
145.679428
 20
200.722687
 30
0.0
 11
145.679428
 21
199.072693
 31
0.0
210
0.0
220
0.0
230
1.0
  0
LINE
  8
0
 62
     7
 10
145.679428
 20
200.722687
 30
0.0
 11
145.179428
 21
200.722687
 31
0.0
210
0.0
220
0.0
230
1.0
  0
LINE
  8
0
 62
     7
 10
71.379425
 20
200.722687
 30
0.0
 11
70.079422
 21
200.722687
 31
0.0
210
0.0
220
0.0
230
1.0
  0
LINE
  8
0
 62
     7
 10
71.379425
 20
200.722687
 30
0.0
 11
71.879425
 21
200.722687
 31
0.0
210
0.0
220
0.0
230
1.0
  0
ARC
  8
0
 62
     7
 10
69.421814
 20
160.52124
 30
0.0
 40
1.5
 50
324.250001
 51
29.249998
210
0.0
220
0.0
230
1.0
  0
ARC
  8
0
 62
     7
 10
65.029427
 20
199.765427
 30
0.0
 40
1.5
 50
328.0
 51
360.0
210
0.0
220
0.0
230
1.0
  0
LINE
  8
0
 62
     7
 10
66.529427
 20
204.722687
 30
0.0
 11
66.529427
 21
200.523499
 31
0.0
210
0.0
220
0.0
230
1.0
  0
LINE
  8
0
 62
     7
 10
66.529427
 20
199.765427
 30
0.0
 11
66.529427
 21
200.523499
 31
0.0
210
0.0
220
0.0
230
1.0
  0
LINE
  8
0
 62
     7
 10
66.301498
 20
198.970551
 30
0.0
 11
57.49818
 21
184.882294
 31
0.0
210
0.0
220
0.0
230
1.0
  0
LINE
  8
0
 62
     7
 10
66.529427
 20
200.523499
 30
0.0
 11
68.851196
 21
199.072693
 31
0.0
210
0.0
220
0.0
230
1.0
  0
LINE
  8
0
 62
     7
 10
70.429428
 20
199.072693
 30
0.0
 11
68.851196
 21
199.072693
 31
0.0
210
0.0
220
0.0
230
1.0
  0
LINE
  8
0
 62
     7
 10
68.851196
 20
199.072693
 30
0.0
 11
70.429428
 21
198.086517
 31
0.0
210
0.0
220
0.0
230
1.0
  0
LINE
  8
0
 62
     7
 10
77.763382
 20
195.122696
 30
0.0
 11
75.172523
 21
195.122696
 31
0.0
210
0.0
220
0.0
230
1.0
  0
LINE
  8
0
 62
     7
 10
75.172523
 20
195.122696
 30
0.0
 11
76.489456
 21
194.299789
 31
0.0
210
0.0
220
0.0
230
1.0
  0
ARC
  8
0
 62
     7
 10
78.00322
 20
193.353882
 30
0.0
 40
1.785
 50
97.721634
 51
147.999995
210
0.0
220
0.0
230
1.0
  0
ARC
  8
0
 62
     7
 10
78.00322
 20
193.353882
 30
0.0
 40
1.785
 50
82.278364
 51
97.721634
210
0.0
220
0.0
230
1.0
  0
LINE
  8
0
 62
     7
 10
71.379425
 20
199.072693
 30
0.0
 11
70.429428
 21
199.072693
 31
0.0
210
0.0
220
0.0
230
1.0
  0
LINE
  8
0
 62
     7
 10
70.429428
 20
198.086517
 30
0.0
 11
75.172523
 21
195.122696
 31
0.0
210
0.0
220
0.0
230
1.0
  0
LINE
  8
0
 62
     7
 10
138.818024
 20
195.122696
 30
0.0
 11
78.24305
 21
195.122696
 31
0.0
210
0.0
220
0.0
230
1.0
  0
ARC
  8
0
 62
     7
 10
68.358688
 20
177.919403
 30
0.0
 40
1.785
 50
147.999995
 51
328.0
210
0.0
220
0.0
230
1.0
  0
LINE
  8
0
 62
     7
 10
77.939423
 20
171.932693
 30
0.0
 11
69.872452
 21
176.973495
 31
0.0
210
0.0
220
0.0
230
1.0
  0
LINE
  8
0
 62
     7
 10
87.583954
 20
187.367172
 30
0.0
 11
77.939423
 21
171.932693
 31
0.0
210
0.0
220
0.0
230
1.0
  0
LINE
  8
0
 62
     7
 10
79.516983
 20
192.407974
 30
0.0
 11
87.583954
 21
187.367172
 31
0.0
210
0.0
220
0.0
230
1.0
  0
ARC
  8
0
 62
     7
 10
78.00322
 20
193.353882
 30
0.0
 40
1.785
 50
328.0
 51
82.278364
210
0.0
220
0.0
230
1.0
  0
LINE
  8
0
 62
     7
 10
57.65023
 20
184.610794
 30
0.0
 11
64.372864
 21
180.410034
 31
0.0
210
0.0
220
0.0
230
1.0
  0
LINE
  8
0
 62
     7
 10
66.844925
 20
178.865311
 30
0.0
 11
64.372864
 21
180.410034
 31
0.0
210
0.0
220
0.0
230
1.0
  0
LINE
  8
0
 62
     7
 10
57.49818
 20
184.882294
 30
0.0
 11
57.65023
 21
184.610794
 31
0.0
210
0.0
220
0.0
230
1.0
  0
LINE
  8
0
 62
     7
 10
62.068241
 20
176.721863
 30
0.0
 11
70.73056
 21
161.254181
 31
0.0
210
0.0
220
0.0
230
1.0
  0
LINE
  8
0
 62
     7
 10
57.65023
 20
184.610794
 30
0.0
 11
62.068241
 21
176.721863
 31
0.0
210
0.0
220
0.0
230
1.0
  0
LINE
  8
0
 62
     7
 10
64.372864
 20
180.410034
 30
0.0
 11
62.068241
 21
176.721863
 31
0.0
210
0.0
220
0.0
230
1.0
  0
LINE
  8
0
  6
DASHED
 62
     7
 10
78.243057
 20
195.122696
 30
0.0
 11
77.763382
 21
195.122696
 31
0.0
210
0.0
220
0.0
230
1.0
  0
LINE
  8
0
  6
DASHED
 62
     7
 10
139.293579
 20
195.122696
 30
0.0
 11
138.818024
 21
195.122696
 31
0.0
210
0.0
220
0.0
230
1.0
  0
ENDSEC
  0
EOF
