  0
SECTION
  2
HEADER
  9
$ACADVER
  1
AC1009
  9
$DWGCODEPAGE
  3
ansi_1252
  9
$INSBASE
 10
0.0
 20
0.0
 30
0.0
  9
$EXTMIN
 10
0.0
 20
0.0
 30
0.0
  9
$EXTMAX
 10
160.694519
 20
213.813446
 30
2.0
  9
$LIMMIN
 10
0.0
 20
0.0
  9
$LIMMAX
 10
420.0
 20
297.0
  9
$ORTHOMODE
 70
     0
  9
$REGENMODE
 70
     1
  9
$FILLMODE
 70
     1
  9
$QTEXTMODE
 70
     0
  9
$MIRRTEXT
 70
     1
  9
$DRAGMODE
 70
     2
  9
$LTSCALE
 40
1.0
  9
$OSMODE
 70
     0
  9
$ATTMODE
 70
     1
  9
$TEXTSIZE
 40
2.5
  9
$TRACEWID
 40
1.0
  9
$TEXTSTYLE
  7
STANDARD
  9
$CLAYER
  8
0
  9
$CELTYPE
  6
BYLAYER
  9
$CECOLOR
 62
   256
  9
$DIMSCALE
 40
1.0
  9
$DIMASZ
 40
2.5
  9
$DIMEXO
 40
0.625
  9
$DIMDLI
 40
3.75
  9
$DIMRND
 40
0.0
  9
$DIMDLE
 40
0.0
  9
$DIMEXE
 40
1.25
  9
$DIMTP
 40
0.0
  9
$DIMTM
 40
0.0
  9
$DIMTXT
 40
2.5
  9
$DIMCEN
 40
2.5
  9
$DIMTSZ
 40
0.0
  9
$DIMTOL
 70
     0
  9
$DIMLIM
 70
     0
  9
$DIMTIH
 70
     0
  9
$DIMTOH
 70
     0
  9
$DIMSE1
 70
     0
  9
$DIMSE2
 70
     0
  9
$DIMTAD
 70
     1
  9
$DIMZIN
 70
     8
  9
$DIMBLK
  1

  9
$DIMASO
 70
     1
  9
$DIMSHO
 70
     1
  9
$DIMPOST
  1

  9
$DIMAPOST
  1

  9
$DIMALT
 70
     0
  9
$DIMALTD
 70
     3
  9
$DIMALTF
 40
0.03937
  9
$DIMLFAC
 40
1.0
  9
$DIMTOFL
 70
     1
  9
$DIMTVP
 40
0.0
  9
$DIMTIX
 70
     0
  9
$DIMSOXD
 70
     0
  9
$DIMSAH
 70
     0
  9
$DIMBLK1
  1

  9
$DIMBLK2
  1

  9
$DIMSTYLE
  2

  9
$DIMCLRD
 70
     0
  9
$DIMCLRE
 70
     0
  9
$DIMCLRT
 70
     0
  9
$DIMTFAC
 40
1.0
  9
$DIMGAP
 40
0.625
  9
$LUNITS
 70
     2
  9
$LUPREC
 70
     4
  9
$AXISMODE
 70
     0
  9
$AXISUNIT
 10
0.0
 20
0.0
  9
$SKETCHINC
 40
1.0
  9
$FILLETRAD
 40
2.5
  9
$AUNITS
 70
     0
  9
$AUPREC
 70
     0
  9
$MENU
  1
.
  9
$ELEVATION
 40
0.0
  9
$PELEVATION
 40
0.0
  9
$THICKNESS
 40
0.0
  9
$LIMCHECK
 70
     0
  9
$BLIPMODE
 70
     1
  9
$CHAMFERA
 40
2.5
  9
$CHAMFERB
 40
2.5
  9
$SKPOLY
 70
     0
  9
$TDCREATE
 40
0.000000000
  9
$TDUPDATE
 40
0.000000000
  9
$TDINDWG
 40
0.0000000000
  9
$TDUSRTIMER
 40
0.0000000000
  9
$USRTIMER
 70
     1
  9
$ANGBASE
 50
0.0
  9
$ANGDIR
 70
     0
  9
$PDMODE
 70
     0
  9
$PDSIZE
 40
0.0
  9
$PLINEWID
 40
0.0
  9
$COORDS
 70
     0
  9
$SPLFRAME
 70
     0
  9
$SPLINETYPE
 70
     6
  9
$SPLINESEGS
 70
     8
  9
$ATTDIA
 70
     0
  9
$ATTREQ
 70
     1
  9
$HANDLING
 70
     0
  9
$HANDSEED
  5
3
  9
$SURFTAB1
 70
     6
  9
$SURFTAB2
 70
     6
  9
$SURFTYPE
 70
     6
  9
$SURFU
 70
     6
  9
$SURFV
 70
     6
  9
$UCSNAME
  2

  9
$UCSORG
 10
0.0
 20
0.0
 30
0.0
  9
$UCSXDIR
 10
1.0
 20
0.0
 30
0.0
  9
$UCSYDIR
 10
0.0
 20
1.0
 30
0.0
  9
$PUCSNAME
  2

  9
$PUCSORG
 10
0.0
 20
0.0
 30
0.0
  9
$PUCSXDIR
 10
1.0
 20
0.0
 30
0.0
  9
$PUCSYDIR
 10
0.0
 20
1.0
 30
0.0
  9
$USERI1
 70
     0
  9
$USERI2
 70
     0
  9
$USERI3
 70
     0
  9
$USERI4
 70
     0
  9
$USERI5
 70
     0
  9
$USERR1
 40
0.0
  9
$USERR2
 40
0.0
  9
$USERR3
 40
0.0
  9
$USERR4
 40
0.0
  9
$USERR5
 40
0.0
  9
$WORLDVIEW
 70
     1
  9
$SHADEDGE
 70
     3
  9
$SHADEDIF
 70
    70
  9
$TILEMODE
 70
     1
  9
$MAXACTVP
 70
    48
  9
$PINSBASE
 10
0.0
 20
0.0
 30
0.0
  9
$PLIMCHECK
 70
     0
  9
$PEXTMIN
 10
0.0
 20
0.0
 30
0.0
  9
$PEXTMAX
 10
160.694519
 20
213.813446
 30
2.0
  9
$PLIMMIN
 10
0.0
 20
0.0
  9
$PLIMMAX
 10
420.0
 20
297.0
  9
$UNITMODE
 70
     0
  9
$VISRETAIN
 70
     0
  9
$PLINEGEN
 70
     0
  9
$PSLTSCALE
 70
     1
  9
$TREEDEPTH
 70
  3020
  0
ENDSEC
  0
SECTION
  2
TABLES
  0
TABLE
  2
VPORT
 70
     1
  0
VPORT
  2
*ACTIVE
 70
     0
 10
0.0
 20
0.0
 11
1.0
 21
1.0
 12
6.591288
 22
4.579184
 13
0.0
 23
0.0
 14
1.0
 24
1.0
 15
0.0
 25
0.0
 16
0.0
 26
0.0
 36
1.0
 17
0.0
 27
0.0
 37
0.0
 40
9.158369
 41
0.688564
 42
50.0
 43
0.0
 44
0.0
 50
0.0
 51
0.0
 71
     0
 72
   100
 73
     1
 74
     1
 75
     0
 76
     0
 77
     0
 78
     0
  0
ENDTAB
  0
TABLE
  2
LTYPE
 70
     2
  0
LTYPE
  2
CONTINUOUS
 70
    64
  3
Solid line
 72
    65
 73
     0
 40
0.0
  0
LTYPE
  2
DASHDOT
 70
     0
  3
 __ . __ . __ . __ . __ . __ . __ . 
 72
    65
 73
     4
 40
18.5
 49
12.0
 49
-3.0
 49
0.5
 49
-3.0
  0
ENDTAB
  0
TABLE
  2
LAYER
 70
     1
  0
LAYER
  2
0
 70
     0
 62
     7
  6
CONTINUOUS
  0
ENDTAB
  0
TABLE
  2
STYLE
 70
     1
  0
STYLE
  2
STANDARD
 70
     0
 40
0.0
 41
1.0
 50
0.0
 71
     0
 42
0.0
  3
txt
  4

  0
ENDTAB
  0
TABLE
  2
VIEW
 70
     0
  0
ENDTAB
  0
TABLE
  2
UCS
 70
     0
  0
ENDTAB
  0
TABLE
  2
APPID
 70
     1
  0
APPID
  2
ACAD
 70
     0
  0
ENDTAB
  0
TABLE
  2
DIMSTYLE
 70
     1
  0
DIMSTYLE
  2
STANDARD
 70
     0
  3

  4

  5

  6

  7

 40
1.0
 41
0.18
 42
0.0625
 43
0.38
 44
0.18
 45
0.0
 46
0.0
 47
0.0
 48
0.0
 71
     0
 72
     0
 73
     1
 74
     1
 75
     0
 76
     0
 77
     0
 78
     0
140
0.18
141
0.09
142
0.0
143
25.4
144
1.0
145
0.0
146
1.0
147
0.09
170
     0
171
     2
172
     0
173
     0
174
     0
175
     0
176
     0
177
     0
178
     0
  0
ENDTAB
  0
ENDSEC
  0
SECTION
  2
BLOCKS
  0
ENDSEC
  0
SECTION
  2
ENTITIES
  0
VIEWPORT
  8
0
 62
     0
 67
     1
 68
     1
 10
0.0
 20
0.0
 30
0.0
 40
1000.0
 41
1000.0
 69
     1
1001
ACAD
1000
MVIEW
1002
{
1070
    16
1010
0.0
1020
0.0
1030
0.0
1010
0.0
1020
0.0
1030
1.0
1040
0.0
1040
1000.0
1040
0.0
1040
0.0
1040
50.0
1040
0.0
1040
0.0
1070
     0
1070
   100
1070
     1
1070
     1
1070
     0
1070
     0
1070
     0
1070
     0
1040
0.0
1040
0.0
1040
0.0
1040
1.0
1040
1.0
1040
1.0
1040
1.0
1070
     0
1002
{
1002
}
1002
}
  0
LINE
  8
0
  6
DASHDOT
 62
     7
 10
129.254517
 20
103.844452
 30
0.0
 11
126.134521
 21
103.844452
 31
0.0
210
0.0
220
0.0
230
1.0
  0
LINE
  8
0
  6
DASHDOT
 62
     7
 10
127.694519
 20
105.404457
 30
0.0
 11
127.694519
 21
102.284454
 31
0.0
210
0.0
220
0.0
230
1.0
  0
LINE
  8
0
  6
DASHDOT
 62
     7
 10
153.490768
 20
140.850143
 30
0.0
 11
151.670776
 21
140.850143
 31
0.0
210
0.0
220
0.0
230
1.0
  0
LINE
  8
0
  6
DASHDOT
 62
     7
 10
152.580765
 20
141.760147
 30
0.0
 11
152.580765
 21
139.94014
 31
0.0
210
0.0
220
0.0
230
1.0
  0
LINE
  8
0
  6
DASHDOT
 62
     7
 10
74.1819
 20
140.815353
 30
0.0
 11
72.361908
 21
140.815353
 31
0.0
210
0.0
220
0.0
230
1.0
  0
LINE
  8
0
  6
DASHDOT
 62
     7
 10
73.271904
 20
141.725357
 30
0.0
 11
73.271904
 21
139.905365
 31
0.0
210
0.0
220
0.0
230
1.0
  0
LINE
  8
0
  6
DASHDOT
 62
     7
 10
78.628357
 20
132.875641
 30
0.0
 11
76.808357
 21
132.875641
 31
0.0
210
0.0
220
0.0
230
1.0
  0
LINE
  8
0
  6
DASHDOT
 62
     7
 10
77.718353
 20
133.785645
 30
0.0
 11
77.718353
 21
131.965637
 31
0.0
210
0.0
220
0.0
230
1.0
  0
LINE
  8
0
  6
DASHDOT
 62
     7
 10
74.223892
 20
135.623947
 30
0.0
 11
72.403893
 21
135.623947
 31
0.0
210
0.0
220
0.0
230
1.0
  0
LINE
  8
0
  6
DASHDOT
 62
     7
 10
73.313889
 20
136.533951
 30
0.0
 11
73.313889
 21
134.713943
 31
0.0
210
0.0
220
0.0
230
1.0
  0
LINE
  8
0
  6
DASHDOT
 62
     7
 10
147.985138
 20
135.623947
 30
0.0
 11
146.165146
 21
135.623947
 31
0.0
210
0.0
220
0.0
230
1.0
  0
LINE
  8
0
  6
DASHDOT
 62
     7
 10
147.07515
 20
136.533951
 30
0.0
 11
147.07515
 21
134.713943
 31
0.0
210
0.0
220
0.0
230
1.0
  0
LINE
  8
0
  6
DASHDOT
 62
     7
 10
68.718269
 20
170.950134
 30
0.0
 11
66.89827
 21
170.950134
 31
0.0
210
0.0
220
0.0
230
1.0
  0
LINE
  8
0
  6
DASHDOT
 62
     7
 10
67.808273
 20
171.860138
 30
0.0
 11
67.808273
 21
170.040146
 31
0.0
210
0.0
220
0.0
230
1.0
  0
LINE
  8
0
  6
DASHDOT
 62
     7
 10
148.02713
 20
170.915359
 30
0.0
 11
146.207138
 21
170.915359
 31
0.0
210
0.0
220
0.0
230
1.0
  0
LINE
  8
0
  6
DASHDOT
 62
     7
 10
147.117126
 20
171.825348
 30
0.0
 11
147.117126
 21
170.005356
 31
0.0
210
0.0
220
0.0
230
1.0
  0
LINE
  8
0
  6
DASHDOT
 62
     7
 10
153.490768
 20
170.950134
 30
0.0
 11
151.670776
 21
170.950134
 31
0.0
210
0.0
220
0.0
230
1.0
  0
LINE
  8
0
  6
DASHDOT
 62
     7
 10
152.580765
 20
171.860138
 30
0.0
 11
152.580765
 21
170.040146
 31
0.0
210
0.0
220
0.0
230
1.0
  0
LINE
  8
0
  6
DASHDOT
 62
     7
 10
143.580688
 20
162.975647
 30
0.0
 11
141.760681
 21
162.975647
 31
0.0
210
0.0
220
0.0
230
1.0
  0
LINE
  8
0
  6
DASHDOT
 62
     7
 10
142.670685
 20
163.885651
 30
0.0
 11
142.670685
 21
162.065643
 31
0.0
210
0.0
220
0.0
230
1.0
  0
LINE
  8
0
  6
DASHDOT
 62
     7
 10
74.1819
 20
170.915359
 30
0.0
 11
72.361908
 21
170.915359
 31
0.0
210
0.0
220
0.0
230
1.0
  0
LINE
  8
0
  6
DASHDOT
 62
     7
 10
73.271904
 20
171.825348
 30
0.0
 11
73.271904
 21
170.005356
 31
0.0
210
0.0
220
0.0
230
1.0
  0
LINE
  8
0
  6
DASHDOT
 62
     7
 10
78.628357
 20
162.975647
 30
0.0
 11
76.808357
 21
162.975647
 31
0.0
210
0.0
220
0.0
230
1.0
  0
LINE
  8
0
  6
DASHDOT
 62
     7
 10
77.718353
 20
163.885651
 30
0.0
 11
77.718353
 21
162.065643
 31
0.0
210
0.0
220
0.0
230
1.0
  0
LINE
  8
0
  6
DASHDOT
 62
     7
 10
74.223892
 20
165.723938
 30
0.0
 11
72.403893
 21
165.723938
 31
0.0
210
0.0
220
0.0
230
1.0
  0
LINE
  8
0
  6
DASHDOT
 62
     7
 10
73.313889
 20
166.633942
 30
0.0
 11
73.313889
 21
164.81395
 31
0.0
210
0.0
220
0.0
230
1.0
  0
LINE
  8
0
  6
DASHDOT
 62
     7
 10
84.954521
 20
108.044456
 30
0.0
 11
83.134521
 21
108.044456
 31
0.0
210
0.0
220
0.0
230
1.0
  0
LINE
  8
0
  6
DASHDOT
 62
     7
 10
84.044518
 20
108.954453
 30
0.0
 11
84.044518
 21
107.134453
 31
0.0
210
0.0
220
0.0
230
1.0
  0
LINE
  8
0
  6
DASHDOT
 62
     7
 10
94.794518
 20
106.444458
 30
0.0
 11
92.974518
 21
106.444458
 31
0.0
210
0.0
220
0.0
230
1.0
  0
LINE
  8
0
  6
DASHDOT
 62
     7
 10
93.884521
 20
107.354454
 30
0.0
 11
93.884521
 21
105.534454
 31
0.0
210
0.0
220
0.0
230
1.0
  0
LINE
  8
0
  6
DASHDOT
 62
     7
 10
147.985138
 20
165.723938
 30
0.0
 11
146.165146
 21
165.723938
 31
0.0
210
0.0
220
0.0
230
1.0
  0
LINE
  8
0
  6
DASHDOT
 62
     7
 10
147.07515
 20
166.633942
 30
0.0
 11
147.07515
 21
164.81395
 31
0.0
210
0.0
220
0.0
230
1.0
  0
LINE
  8
0
  6
DASHDOT
 62
     7
 10
68.718269
 20
140.850143
 30
0.0
 11
66.89827
 21
140.850143
 31
0.0
210
0.0
220
0.0
230
1.0
  0
LINE
  8
0
  6
DASHDOT
 62
     7
 10
67.808273
 20
141.760147
 30
0.0
 11
67.808273
 21
139.94014
 31
0.0
210
0.0
220
0.0
230
1.0
  0
LINE
  8
0
  6
DASHDOT
 62
     7
 10
143.580688
 20
132.875641
 30
0.0
 11
141.760681
 21
132.875641
 31
0.0
210
0.0
220
0.0
230
1.0
  0
LINE
  8
0
  6
DASHDOT
 62
     7
 10
142.670685
 20
133.785645
 30
0.0
 11
142.670685
 21
131.965637
 31
0.0
210
0.0
220
0.0
230
1.0
  0
LINE
  8
0
  6
DASHDOT
 62
     7
 10
148.02713
 20
140.815353
 30
0.0
 11
146.207138
 21
140.815353
 31
0.0
210
0.0
220
0.0
230
1.0
  0
LINE
  8
0
  6
DASHDOT
 62
     7
 10
147.117126
 20
141.725357
 30
0.0
 11
147.117126
 21
139.905365
 31
0.0
210
0.0
220
0.0
230
1.0
  0
LINE
  8
0
  6
DASHDOT
 62
     7
 10
122.204521
 20
104.094452
 30
0.0
 11
120.384521
 21
104.094452
 31
0.0
210
0.0
220
0.0
230
1.0
  0
LINE
  8
0
  6
DASHDOT
 62
     7
 10
121.294518
 20
105.004456
 30
0.0
 11
121.294518
 21
103.184456
 31
0.0
210
0.0
220
0.0
230
1.0
  0
LINE
  8
0
  6
DASHDOT
 62
     7
 10
100.004517
 20
104.094452
 30
0.0
 11
98.184517
 21
104.094452
 31
0.0
210
0.0
220
0.0
230
1.0
  0
LINE
  8
0
  6
DASHDOT
 62
     7
 10
99.094521
 20
105.004456
 30
0.0
 11
99.094521
 21
103.184456
 31
0.0
210
0.0
220
0.0
230
1.0
  0
LINE
  8
0
  6
DASHDOT
 62
     7
 10
117.854523
 20
104.094452
 30
0.0
 11
116.034515
 21
104.094452
 31
0.0
210
0.0
220
0.0
230
1.0
  0
LINE
  8
0
  6
DASHDOT
 62
     7
 10
116.944519
 20
105.004456
 30
0.0
 11
116.944519
 21
103.184456
 31
0.0
210
0.0
220
0.0
230
1.0
  0
LINE
  8
0
  6
DASHDOT
 62
     7
 10
104.354523
 20
104.094452
 30
0.0
 11
102.534515
 21
104.094452
 31
0.0
210
0.0
220
0.0
230
1.0
  0
LINE
  8
0
  6
DASHDOT
 62
     7
 10
103.444519
 20
105.004456
 30
0.0
 11
103.444519
 21
103.184456
 31
0.0
210
0.0
220
0.0
230
1.0
  0
LINE
  8
0
  6
DASHDOT
 62
     7
 10
104.614517
 20
112.254456
 30
0.0
 11
102.274521
 21
112.254456
 31
0.0
210
0.0
220
0.0
230
1.0
  0
LINE
  8
0
  6
DASHDOT
 62
     7
 10
103.444519
 20
113.424454
 30
0.0
 11
103.444519
 21
111.084457
 31
0.0
210
0.0
220
0.0
230
1.0
  0
LINE
  8
0
  6
DASHDOT
 62
     7
 10
118.114517
 20
112.254456
 30
0.0
 11
115.774521
 21
112.254456
 31
0.0
210
0.0
220
0.0
230
1.0
  0
LINE
  8
0
  6
DASHDOT
 62
     7
 10
116.944519
 20
113.424454
 30
0.0
 11
116.944519
 21
111.084457
 31
0.0
210
0.0
220
0.0
230
1.0
  0
POLYLINE
  8
0
 62
     7
 66
     1
 10
0.0
 20
0.0
 30
0.0
 70
     1
 71
    12
  0
VERTEX
  8
0
 10
68.368546
 20
210.465042
 30
0.0
  0
VERTEX
  8
0
 10
68.590034
 20
210.465042
 30
0.0
  0
VERTEX
  8
0
 10
68.590034
 20
211.63681
 30
0.0
  0
VERTEX
  8
0
 10
69.433044
 20
211.63681
 30
0.0
  0
VERTEX
  8
0
 10
69.433044
 20
210.465042
 30
0.0
  0
VERTEX
  8
0
 10
69.654533
 20
210.465042
 30
0.0
  0
VERTEX
  8
0
 10
69.654533
 20
212.965042
 30
0.0
  0
VERTEX
  8
0
 10
69.433044
 20
212.965042
 30
0.0
  0
VERTEX
  8
0
 10
69.433044
 20
211.939316
 30
0.0
  0
VERTEX
  8
0
 10
68.590034
 20
211.939316
 30
0.0
  0
VERTEX
  8
0
 10
68.590034
 20
212.965042
 30
0.0
  0
VERTEX
  8
0
 10
68.368546
 20
212.965042
 30
0.0
  0
SEQEND
  8
0
  0
POLYLINE
  8
0
 62
     7
 66
     1
 10
0.0
 20
0.0
 30
0.0
 70
     1
 71
    32
  0
VERTEX
  8
0
 10
70.432526
 20
211.713303
 30
0.0
  0
VERTEX
  8
0
 10
70.443825
 20
211.414276
 30
0.0
  0
VERTEX
  8
0
 10
70.484505
 20
211.153503
 30
0.0
  0
VERTEX
  8
0
 10
70.550049
 20
210.92749
 30
0.0
  0
VERTEX
  8
0
 10
70.638191
 20
210.739731
 30
0.0
  0
VERTEX
  8
0
 10
70.748932
 20
210.59021
 30
0.0
  0
VERTEX
  8
0
 10
70.88002
 20
210.482422
 30
0.0
  0
VERTEX
  8
0
 10
71.031448
 20
210.419846
 30
0.0
  0
VERTEX
  8
0
 10
71.203209
 20
210.395508
 30
0.0
  0
VERTEX
  8
0
 10
71.372719
 20
210.419846
 30
0.0
  0
VERTEX
  8
0
 10
71.524147
 20
210.482422
 30
0.0
  0
VERTEX
  8
0
 10
71.655228
 20
210.59021
 30
0.0
  0
VERTEX
  8
0
 10
71.765976
 20
210.739731
 30
0.0
  0
VERTEX
  8
0
 10
71.854118
 20
210.92749
 30
0.0
  0
VERTEX
  8
0
 10
71.917397
 20
211.153503
 30
0.0
  0
VERTEX
  8
0
 10
71.955818
 20
211.414276
 30
0.0
  0
VERTEX
  8
0
 10
71.971642
 20
211.713303
 30
0.0
  0
VERTEX
  8
0
 10
71.958076
 20
212.00885
 30
0.0
  0
VERTEX
  8
0
 10
71.917397
 20
212.269638
 30
0.0
  0
VERTEX
  8
0
 10
71.851852
 20
212.495636
 30
0.0
  0
VERTEX
  8
0
 10
71.765976
 20
212.683395
 30
0.0
  0
VERTEX
  8
0
 10
71.655228
 20
212.832916
 30
0.0
  0
VERTEX
  8
0
 10
71.524147
 20
212.940704
 30
0.0
  0
VERTEX
  8
0
 10
71.372719
 20
213.00676
 30
0.0
  0
VERTEX
  8
0
 10
71.203209
 20
213.031113
 30
0.0
  0
VERTEX
  8
0
 10
71.031448
 20
213.00676
 30
0.0
  0
VERTEX
  8
0
 10
70.88002
 20
212.940704
 30
0.0
  0
VERTEX
  8
0
 10
70.748932
 20
212.832916
 30
0.0
  0
VERTEX
  8
0
 10
70.638191
 20
212.683395
 30
0.0
  0
VERTEX
  8
0
 10
70.550049
 20
212.495636
 30
0.0
  0
VERTEX
  8
0
 10
70.484505
 20
212.269638
 30
0.0
  0
VERTEX
  8
0
 10
70.443825
 20
212.00885
 30
0.0
  0
SEQEND
  8
0
  0
POLYLINE
  8
0
 62
     7
 66
     1
 10
0.0
 20
0.0
 30
0.0
 70
     1
 71
    16
  0
VERTEX
  8
0
 10
70.660789
 20
211.713303
 30
0.0
  0
VERTEX
  8
0
 10
70.696953
 20
212.144455
 30
0.0
  0
VERTEX
  8
0
 10
70.805435
 20
212.467819
 30
0.0
  0
VERTEX
  8
0
 10
70.977203
 20
212.666016
 30
0.0
  0
VERTEX
  8
0
 10
71.203209
 20
212.73555
 30
0.0
  0
VERTEX
  8
0
 10
71.426956
 20
212.666016
 30
0.0
  0
VERTEX
  8
0
 10
71.598724
 20
212.467819
 30
0.0
  0
VERTEX
  8
0
 10
71.704948
 20
212.144455
 30
0.0
  0
VERTEX
  8
0
 10
71.74337
 20
211.713303
 30
0.0
  0
VERTEX
  8
0
 10
71.704948
 20
211.278671
 30
0.0
  0
VERTEX
  8
0
 10
71.598724
 20
210.955307
 30
0.0
  0
VERTEX
  8
0
 10
71.426956
 20
210.757111
 30
0.0
  0
VERTEX
  8
0
 10
71.203209
 20
210.691055
 30
0.0
  0
VERTEX
  8
0
 10
70.977203
 20
210.757111
 30
0.0
  0
VERTEX
  8
0
 10
70.805435
 20
210.955307
 30
0.0
  0
VERTEX
  8
0
 10
70.696953
 20
211.278671
 30
0.0
  0
SEQEND
  8
0
  0
POLYLINE
  8
0
 62
     7
 66
     1
 10
0.0
 20
0.0
 30
0.0
 70
     1
 71
     6
  0
VERTEX
  8
0
 10
72.749634
 20
210.465042
 30
0.0
  0
VERTEX
  8
0
 10
73.782486
 20
210.465042
 30
0.0
  0
VERTEX
  8
0
 10
73.782486
 20
210.781448
 30
0.0
  0
VERTEX
  8
0
 10
72.973381
 20
210.781448
 30
0.0
  0
VERTEX
  8
0
 10
72.973381
 20
212.965042
 30
0.0
  0
VERTEX
  8
0
 10
72.749634
 20
212.965042
 30
0.0
  0
SEQEND
  8
0
  0
POLYLINE
  8
0
 62
     7
 66
     1
 10
0.0
 20
0.0
 30
0.0
 70
     1
 71
    12
  0
VERTEX
  8
0
 10
74.458778
 20
210.465042
 30
0.0
  0
VERTEX
  8
0
 10
75.636276
 20
210.465042
 30
0.0
  0
VERTEX
  8
0
 10
75.636276
 20
210.777969
 30
0.0
  0
VERTEX
  8
0
 10
74.678001
 20
210.777969
 30
0.0
  0
VERTEX
  8
0
 10
74.678001
 20
211.615952
 30
0.0
  0
VERTEX
  8
0
 10
75.545876
 20
211.615952
 30
0.0
  0
VERTEX
  8
0
 10
75.545876
 20
211.90802
 30
0.0
  0
VERTEX
  8
0
 10
74.678001
 20
211.90802
 30
0.0
  0
VERTEX
  8
0
 10
74.678001
 20
212.655579
 30
0.0
  0
VERTEX
  8
0
 10
75.618195
 20
212.655579
 30
0.0
  0
VERTEX
  8
0
 10
75.618195
 20
212.965042
 30
0.0
  0
VERTEX
  8
0
 10
74.458778
 20
212.965042
 30
0.0
  0
SEQEND
  8
0
  0
POLYLINE
  8
0
 62
     7
 66
     1
 10
0.0
 20
0.0
 30
0.0
 70
     1
 71
    15
  0
VERTEX
  8
0
 10
77.522232
 20
210.465042
 30
0.0
  0
VERTEX
  8
0
 10
77.743721
 20
210.465042
 30
0.0
  0
VERTEX
  8
0
 10
77.743721
 20
211.518585
 30
0.0
  0
VERTEX
  8
0
 10
78.078209
 20
211.518585
 30
0.0
  0
VERTEX
  8
0
 10
78.299698
 20
211.532501
 30
0.0
  0
VERTEX
  8
0
 10
78.475983
 20
211.619431
 30
0.0
  0
VERTEX
  8
0
 10
78.629669
 20
211.869766
 30
0.0
  0
VERTEX
  8
0
 10
78.683914
 20
212.241821
 30
0.0
  0
VERTEX
  8
0
 10
78.668091
 20
212.44696
 30
0.0
  0
VERTEX
  8
0
 10
78.629669
 20
212.624298
 30
0.0
  0
VERTEX
  8
0
 10
78.564133
 20
212.766846
 30
0.0
  0
VERTEX
  8
0
 10
78.478249
 20
212.871155
 30
0.0
  0
VERTEX
  8
0
 10
78.310997
 20
212.947662
 30
0.0
  0
VERTEX
  8
0
 10
78.121155
 20
212.965042
 30
0.0
  0
VERTEX
  8
0
 10
77.522232
 20
212.965042
 30
0.0
  0
SEQEND
  8
0
  0
POLYLINE
  8
0
 62
     7
 66
     1
 10
0.0
 20
0.0
 30
0.0
 70
     1
 71
    11
  0
VERTEX
  8
0
 10
77.743721
 20
211.821091
 30
0.0
  0
VERTEX
  8
0
 10
77.743721
 20
212.659058
 30
0.0
  0
VERTEX
  8
0
 10
78.130196
 20
212.659058
 30
0.0
  0
VERTEX
  8
0
 10
78.2771
 20
212.63472
 30
0.0
  0
VERTEX
  8
0
 10
78.378799
 20
212.565186
 30
0.0
  0
VERTEX
  8
0
 10
78.439827
 20
212.436523
 30
0.0
  0
VERTEX
  8
0
 10
78.460167
 20
212.241821
 30
0.0
  0
VERTEX
  8
0
 10
78.439827
 20
212.036667
 30
0.0
  0
VERTEX
  8
0
 10
78.376541
 20
211.90802
 30
0.0
  0
VERTEX
  8
0
 10
78.268059
 20
211.83847
 30
0.0
  0
VERTEX
  8
0
 10
78.114372
 20
211.821091
 30
0.0
  0
SEQEND
  8
0
  0
POLYLINE
  8
0
 62
     7
 66
     1
 10
0.0
 20
0.0
 30
0.0
 70
     1
 71
     8
  0
VERTEX
  8
0
 10
79.265274
 20
210.465042
 30
0.0
  0
VERTEX
  8
0
 10
79.493546
 20
210.465042
 30
0.0
  0
VERTEX
  8
0
 10
79.667572
 20
211.212601
 30
0.0
  0
VERTEX
  8
0
 10
80.307175
 20
211.212601
 30
0.0
  0
VERTEX
  8
0
 10
80.478943
 20
210.465042
 30
0.0
  0
VERTEX
  8
0
 10
80.718506
 20
210.465042
 30
0.0
  0
VERTEX
  8
0
 10
80.112808
 20
212.965042
 30
0.0
  0
VERTEX
  8
0
 10
79.868721
 20
212.965042
 30
0.0
  0
SEQEND
  8
0
  0
POLYLINE
  8
0
 62
     7
 66
     1
 10
0.0
 20
0.0
 30
0.0
 70
     1
 71
     3
  0
VERTEX
  8
0
 10
79.735374
 20
211.504684
 30
0.0
  0
VERTEX
  8
0
 10
79.990761
 20
212.606903
 30
0.0
  0
VERTEX
  8
0
 10
80.241631
 20
211.504684
 30
0.0
  0
SEQEND
  8
0
  0
POLYLINE
  8
0
 62
     7
 66
     1
 10
0.0
 20
0.0
 30
0.0
 70
     1
 71
     8
  0
VERTEX
  8
0
 10
81.74511
 20
210.465042
 30
0.0
  0
VERTEX
  8
0
 10
81.966599
 20
210.465042
 30
0.0
  0
VERTEX
  8
0
 10
81.966599
 20
212.662537
 30
0.0
  0
VERTEX
  8
0
 10
82.479637
 20
212.662537
 30
0.0
  0
VERTEX
  8
0
 10
82.479637
 20
212.965042
 30
0.0
  0
VERTEX
  8
0
 10
81.232071
 20
212.965042
 30
0.0
  0
VERTEX
  8
0
 10
81.232071
 20
212.662537
 30
0.0
  0
VERTEX
  8
0
 10
81.74511
 20
212.662537
 30
0.0
  0
SEQEND
  8
0
  0
POLYLINE
  8
0
 62
     7
 66
     1
 10
0.0
 20
0.0
 30
0.0
 70
     1
 71
     8
  0
VERTEX
  8
0
 10
83.535614
 20
210.465042
 30
0.0
  0
VERTEX
  8
0
 10
83.757103
 20
210.465042
 30
0.0
  0
VERTEX
  8
0
 10
83.757103
 20
212.662537
 30
0.0
  0
VERTEX
  8
0
 10
84.270142
 20
212.662537
 30
0.0
  0
VERTEX
  8
0
 10
84.270142
 20
212.965042
 30
0.0
  0
VERTEX
  8
0
 10
83.022575
 20
212.965042
 30
0.0
  0
VERTEX
  8
0
 10
83.022575
 20
212.662537
 30
0.0
  0
VERTEX
  8
0
 10
83.535614
 20
212.662537
 30
0.0
  0
SEQEND
  8
0
  0
POLYLINE
  8
0
 62
     7
 66
     1
 10
0.0
 20
0.0
 30
0.0
 70
     1
 71
    12
  0
VERTEX
  8
0
 10
84.966774
 20
210.465042
 30
0.0
  0
VERTEX
  8
0
 10
86.144272
 20
210.465042
 30
0.0
  0
VERTEX
  8
0
 10
86.144272
 20
210.777969
 30
0.0
  0
VERTEX
  8
0
 10
85.186005
 20
210.777969
 30
0.0
  0
VERTEX
  8
0
 10
85.186005
 20
211.615952
 30
0.0
  0
VERTEX
  8
0
 10
86.053871
 20
211.615952
 30
0.0
  0
VERTEX
  8
0
 10
86.053871
 20
211.90802
 30
0.0
  0
VERTEX
  8
0
 10
85.186005
 20
211.90802
 30
0.0
  0
VERTEX
  8
0
 10
85.186005
 20
212.655579
 30
0.0
  0
VERTEX
  8
0
 10
86.12619
 20
212.655579
 30
0.0
  0
VERTEX
  8
0
 10
86.12619
 20
212.965042
 30
0.0
  0
VERTEX
  8
0
 10
84.966774
 20
212.965042
 30
0.0
  0
SEQEND
  8
0
  0
POLYLINE
  8
0
 62
     7
 66
     1
 10
0.0
 20
0.0
 30
0.0
 70
     1
 71
    30
  0
VERTEX
  8
0
 10
86.910965
 20
212.965042
 30
0.0
  0
VERTEX
  8
0
 10
86.910965
 20
210.465042
 30
0.0
  0
VERTEX
  8
0
 10
87.130196
 20
210.465042
 30
0.0
  0
VERTEX
  8
0
 10
87.130196
 20
211.53598
 30
0.0
  0
VERTEX
  8
0
 10
87.487289
 20
211.53598
 30
0.0
  0
VERTEX
  8
0
 10
87.65905
 20
211.525543
 30
0.0
  0
VERTEX
  8
0
 10
87.765274
 20
211.473389
 30
0.0
  0
VERTEX
  8
0
 10
87.824036
 20
211.355164
 30
0.0
  0
VERTEX
  8
0
 10
87.8489
 20
211.136108
 30
0.0
  0
VERTEX
  8
0
 10
87.862457
 20
210.809265
 30
0.0
  0
VERTEX
  8
0
 10
87.873764
 20
210.611084
 30
0.0
  0
VERTEX
  8
0
 10
87.905403
 20
210.465042
 30
0.0
  0
VERTEX
  8
0
 10
88.160789
 20
210.465042
 30
0.0
  0
VERTEX
  8
0
 10
88.160789
 20
210.534576
 30
0.0
  0
VERTEX
  8
0
 10
88.106552
 20
210.635422
 30
0.0
  0
VERTEX
  8
0
 10
88.086212
 20
210.82666
 30
0.0
  0
VERTEX
  8
0
 10
88.06813
 20
211.236954
 30
0.0
  0
VERTEX
  8
0
 10
88.052307
 20
211.410797
 30
0.0
  0
VERTEX
  8
0
 10
88.022926
 20
211.546402
 30
0.0
  0
VERTEX
  8
0
 10
87.968681
 20
211.640289
 30
0.0
  0
VERTEX
  8
0
 10
87.882797
 20
211.702866
 30
0.0
  0
VERTEX
  8
0
 10
87.977722
 20
211.796753
 30
0.0
  0
VERTEX
  8
0
 10
88.047791
 20
211.9254
 30
0.0
  0
VERTEX
  8
0
 10
88.090729
 20
212.081879
 30
0.0
  0
VERTEX
  8
0
 10
88.106552
 20
212.273102
 30
0.0
  0
VERTEX
  8
0
 10
88.090729
 20
212.467819
 30
0.0
  0
VERTEX
  8
0
 10
88.052307
 20
212.638199
 30
0.0
  0
VERTEX
  8
0
 10
87.896362
 20
212.878113
 30
0.0
  0
VERTEX
  8
0
 10
87.731377
 20
212.951141
 30
0.0
  0
VERTEX
  8
0
 10
87.541527
 20
212.965042
 30
0.0
  0
SEQEND
  8
0
  0
POLYLINE
  8
0
 62
     7
 66
     1
 10
0.0
 20
0.0
 30
0.0
 70
     1
 71
    11
  0
VERTEX
  8
0
 10
87.12793
 20
212.672974
 30
0.0
  0
VERTEX
  8
0
 10
87.505371
 20
212.672974
 30
0.0
  0
VERTEX
  8
0
 10
87.665833
 20
212.655579
 30
0.0
  0
VERTEX
  8
0
 10
87.783356
 20
212.593002
 30
0.0
  0
VERTEX
  8
0
 10
87.853424
 20
212.471298
 30
0.0
  0
VERTEX
  8
0
 10
87.878281
 20
212.266159
 30
0.0
  0
VERTEX
  8
0
 10
87.853424
 20
212.054062
 30
0.0
  0
VERTEX
  8
0
 10
87.785614
 20
211.918457
 30
0.0
  0
VERTEX
  8
0
 10
87.668091
 20
211.845428
 30
0.0
  0
VERTEX
  8
0
 10
87.505371
 20
211.82457
 30
0.0
  0
VERTEX
  8
0
 10
87.12793
 20
211.82457
 30
0.0
  0
SEQEND
  8
0
  0
POLYLINE
  8
0
 62
     7
 66
     1
 10
0.0
 20
0.0
 30
0.0
 70
     1
 71
    12
  0
VERTEX
  8
0
 10
88.909401
 20
210.465042
 30
0.0
  0
VERTEX
  8
0
 10
89.119583
 20
210.465042
 30
0.0
  0
VERTEX
  8
0
 10
89.119583
 20
212.492157
 30
0.0
  0
VERTEX
  8
0
 10
89.180611
 20
212.307877
 30
0.0
  0
VERTEX
  8
0
 10
89.955818
 20
210.465042
 30
0.0
  0
VERTEX
  8
0
 10
90.195389
 20
210.465042
 30
0.0
  0
VERTEX
  8
0
 10
90.195389
 20
212.965042
 30
0.0
  0
VERTEX
  8
0
 10
89.985199
 20
212.965042
 30
0.0
  0
VERTEX
  8
0
 10
89.985199
 20
210.937927
 30
0.0
  0
VERTEX
  8
0
 10
89.910614
 20
211.150024
 30
0.0
  0
VERTEX
  8
0
 10
89.15123
 20
212.965042
 30
0.0
  0
VERTEX
  8
0
 10
88.909401
 20
212.965042
 30
0.0
  0
SEQEND
  8
0
  0
LINE
  8
0
 62
     7
 10
79.376831
 20
101.644455
 30
0.0
 11
81.694519
 21
101.644455
 31
0.0
210
0.0
220
0.0
230
1.0
  0
ARC
  8
0
 62
     7
 10
75.194519
 20
101.144455
 30
0.0
 40
1.5
 50
19.471222
 51
42.833428
210
0.0
220
0.0
230
1.0
  0
LINE
  8
0
 62
     7
 10
76.608734
 20
101.644455
 30
0.0
 11
76.630241
 21
101.644455
 31
0.0
210
0.0
220
0.0
230
1.0
  0
LINE
  8
0
 62
     7
 10
79.376831
 20
101.644455
 30
0.0
 11
76.630241
 21
101.644455
 31
0.0
210
0.0
220
0.0
230
1.0
  0
ARC
  8
0
 62
     7
 10
86.694519
 20
102.644455
 30
0.0
 40
1.5
 50
90.000003
 51
180.000005
210
0.0
220
0.0
230
1.0
  0
ARC
  8
0
 62
     7
 10
95.994522
 20
102.644455
 30
0.0
 40
1.5
 50
25.841934
 51
90.000003
210
0.0
220
0.0
230
1.0
  0
ARC
  8
0
 62
     7
 10
95.994522
 20
102.644455
 30
0.0
 40
1.5
 50
20.000001
 51
25.841934
210
0.0
220
0.0
230
1.0
  0
LINE
  8
0
 62
     7
 10
97.40406
 20
103.157486
 30
0.0
 11
97.954758
 21
101.644455
 31
0.0
210
0.0
220
0.0
230
1.0
  0
LINE
  8
0
 62
     7
 10
126.494522
 20
102.044456
 30
0.0
 11
125.801697
 21
101.644455
 31
0.0
210
0.0
220
0.0
230
1.0
  0
LINE
  8
0
 62
     7
 10
126.494522
 20
102.044456
 30
0.0
 11
126.494522
 21
103.844452
 31
0.0
210
0.0
220
0.0
230
1.0
  0
ARC
  8
0
 62
     7
 10
127.694519
 20
103.844452
 30
0.0
 40
1.2
 50
0.0
 51
180.000005
210
0.0
220
0.0
230
1.0
  0
LINE
  8
0
 62
     7
 10
128.894516
 20
103.844452
 30
0.0
 11
128.894516
 21
101.644455
 31
0.0
210
0.0
220
0.0
230
1.0
  0
LINE
  8
0
 62
     7
 10
155.558289
 20
141.385101
 30
0.0
 11
147.698334
 21
145.786896
 31
0.0
210
0.0
220
0.0
230
1.0
  0
ARC
  8
0
 62
     7
 10
148.431259
 20
147.095627
 30
0.0
 40
1.5
 50
150.750007
 51
240.750006
210
0.0
220
0.0
230
1.0
  0
LINE
  8
0
 62
     7
 10
149.980957
 20
152.932663
 30
0.0
 11
147.122513
 21
147.828568
 31
0.0
210
0.0
220
0.0
230
1.0
  0
LINE
  8
0
 62
     7
 10
148.317337
 20
155.243576
 30
0.0
 11
149.980957
 21
152.932663
 31
0.0
210
0.0
220
0.0
230
1.0
  0
LINE
  8
0
 62
     7
 10
148.317337
 20
155.243576
 30
0.0
 11
148.084763
 21
155.566635
 31
0.0
210
0.0
220
0.0
230
1.0
  0
ARC
  8
0
 62
     7
 10
149.302124
 20
156.443008
 30
0.0
 40
1.5
 50
150.750007
 51
215.749997
210
0.0
220
0.0
230
1.0
  0
LINE
  8
0
 62
     7
 10
147.993378
 20
157.175934
 30
0.0
 11
153.958771
 21
167.827911
 31
0.0
210
0.0
220
0.0
230
1.0
  0
LINE
  8
0
 62
     7
 10
153.958771
 20
167.827911
 30
0.0
 11
155.899796
 21
171.293854
 31
0.0
210
0.0
220
0.0
230
1.0
  0
LINE
  8
0
 62
     7
 10
155.899796
 20
171.293854
 30
0.0
 11
147.698334
 21
175.886887
 31
0.0
210
0.0
220
0.0
230
1.0
  0
ARC
  8
0
 62
     7
 10
148.431259
 20
177.195633
 30
0.0
 40
1.5
 50
150.750007
 51
240.750006
210
0.0
220
0.0
230
1.0
  0
LINE
  8
0
 62
     7
 10
149.980957
 20
183.032654
 30
0.0
 11
147.122513
 21
177.928558
 31
0.0
210
0.0
220
0.0
230
1.0
  0
LINE
  8
0
 62
     7
 10
149.980957
 20
183.032654
 30
0.0
 11
148.317337
 21
185.343567
 31
0.0
210
0.0
220
0.0
230
1.0
  0
LINE
  8
0
 62
     7
 10
148.317337
 20
185.343567
 30
0.0
 11
148.279114
 21
185.396652
 31
0.0
210
0.0
220
0.0
230
1.0
  0
LINE
  8
0
 62
     7
 10
149.115585
 20
189.279755
 30
0.0
 11
152.194519
 21
194.777603
 31
0.0
210
0.0
220
0.0
230
1.0
  0
LINE
  8
0
 62
     7
 10
71.273453
 20
189.279755
 30
0.0
 11
68.194519
 21
194.777603
 31
0.0
210
0.0
220
0.0
230
1.0
  0
LINE
  8
0
 62
     7
 10
72.071701
 20
185.343567
 30
0.0
 11
72.109917
 21
185.396652
 31
0.0
210
0.0
220
0.0
230
1.0
  0
LINE
  8
0
 62
     7
 10
70.408081
 20
183.032654
 30
0.0
 11
72.071701
 21
185.343567
 31
0.0
210
0.0
220
0.0
230
1.0
  0
LINE
  8
0
 62
     7
 10
70.408081
 20
183.032654
 30
0.0
 11
73.266525
 21
177.928558
 31
0.0
210
0.0
220
0.0
230
1.0
  0
ARC
  8
0
 62
     7
 10
71.957779
 20
177.195633
 30
0.0
 40
1.5
 50
299.250003
 51
29.249998
210
0.0
220
0.0
230
1.0
  0
LINE
  8
0
 62
     7
 10
64.489243
 20
171.293854
 30
0.0
 11
72.690704
 21
175.886887
 31
0.0
210
0.0
220
0.0
230
1.0
  0
LINE
  8
0
 62
     7
 10
66.43026
 20
167.827911
 30
0.0
 11
64.489243
 21
171.293854
 31
0.0
210
0.0
220
0.0
230
1.0
  0
LINE
  8
0
 62
     7
 10
72.395653
 20
157.175934
 30
0.0
 11
66.43026
 21
167.827911
 31
0.0
210
0.0
220
0.0
230
1.0
  0
ARC
  8
0
 62
     7
 10
71.086914
 20
156.443008
 30
0.0
 40
1.5
 50
324.250001
 51
29.249998
210
0.0
220
0.0
230
1.0
  0
LINE
  8
0
 62
     7
 10
72.071701
 20
155.243576
 30
0.0
 11
72.304276
 21
155.566635
 31
0.0
210
0.0
220
0.0
230
1.0
  0
LINE
  8
0
 62
     7
 10
72.071701
 20
155.243576
 30
0.0
 11
70.408081
 21
152.932663
 31
0.0
210
0.0
220
0.0
230
1.0
  0
LINE
  8
0
 62
     7
 10
70.408081
 20
152.932663
 30
0.0
 11
73.266525
 21
147.828568
 31
0.0
210
0.0
220
0.0
230
1.0
  0
ARC
  8
0
 62
     7
 10
71.957779
 20
147.095627
 30
0.0
 40
1.5
 50
299.250003
 51
29.249998
210
0.0
220
0.0
230
1.0
  0
LINE
  8
0
 62
     7
 10
64.830757
 20
141.385101
 30
0.0
 11
72.690704
 21
145.786896
 31
0.0
210
0.0
220
0.0
230
1.0
  0
CIRCLE
  8
0
 62
     7
 10
152.580765
 20
140.850143
 30
0.0
 40
0.7
210
0.0
220
0.0
230
1.0
  0
CIRCLE
  8
0
 62
     7
 10
73.271904
 20
140.815353
 30
0.0
 40
0.7
210
0.0
220
0.0
230
1.0
  0
CIRCLE
  8
0
 62
     7
 10
77.718353
 20
132.875641
 30
0.0
 40
0.7
210
0.0
220
0.0
230
1.0
  0
CIRCLE
  8
0
 62
     7
 10
73.313889
 20
135.623947
 30
0.0
 40
0.7
210
0.0
220
0.0
230
1.0
  0
CIRCLE
  8
0
 62
     7
 10
147.07515
 20
135.623947
 30
0.0
 40
0.7
210
0.0
220
0.0
230
1.0
  0
CIRCLE
  8
0
 62
     7
 10
67.808273
 20
170.950134
 30
0.0
 40
0.7
210
0.0
220
0.0
230
1.0
  0
CIRCLE
  8
0
 62
     7
 10
147.117126
 20
170.915359
 30
0.0
 40
0.7
210
0.0
220
0.0
230
1.0
  0
CIRCLE
  8
0
 62
     7
 10
152.580765
 20
170.950134
 30
0.0
 40
0.7
210
0.0
220
0.0
230
1.0
  0
CIRCLE
  8
0
 62
     7
 10
142.670685
 20
162.975647
 30
0.0
 40
0.7
210
0.0
220
0.0
230
1.0
  0
CIRCLE
  8
0
 62
     7
 10
73.271904
 20
170.915359
 30
0.0
 40
0.7
210
0.0
220
0.0
230
1.0
  0
CIRCLE
  8
0
 62
     7
 10
77.718353
 20
162.975647
 30
0.0
 40
0.7
210
0.0
220
0.0
230
1.0
  0
CIRCLE
  8
0
 62
     7
 10
73.313889
 20
165.723938
 30
0.0
 40
0.7
210
0.0
220
0.0
230
1.0
  0
CIRCLE
  8
0
 62
     7
 10
84.044518
 20
108.044456
 30
0.0
 40
0.7
210
0.0
220
0.0
230
1.0
  0
CIRCLE
  8
0
 62
     7
 10
93.884521
 20
106.444458
 30
0.0
 40
0.7
210
0.0
220
0.0
230
1.0
  0
CIRCLE
  8
0
 62
     7
 10
147.07515
 20
165.723938
 30
0.0
 40
0.7
210
0.0
220
0.0
230
1.0
  0
CIRCLE
  8
0
 62
     7
 10
67.808273
 20
140.850143
 30
0.0
 40
0.7
210
0.0
220
0.0
230
1.0
  0
CIRCLE
  8
0
 62
     7
 10
142.670685
 20
132.875641
 30
0.0
 40
0.7
210
0.0
220
0.0
230
1.0
  0
CIRCLE
  8
0
 62
     7
 10
147.117126
 20
140.815353
 30
0.0
 40
0.7
210
0.0
220
0.0
230
1.0
  0
LINE
  8
0
 62
     7
 10
110.194519
 20
101.644455
 30
0.0
 11
123.044518
 21
101.644455
 31
0.0
210
0.0
220
0.0
230
1.0
  0
LINE
  8
0
 62
     7
 10
110.194519
 20
101.644455
 30
0.0
 11
97.954758
 21
101.644455
 31
0.0
210
0.0
220
0.0
230
1.0
  0
CIRCLE
  8
0
 62
     7
 10
116.944519
 20
104.094452
 30
0.0
 40
0.7
210
0.0
220
0.0
230
1.0
  0
CIRCLE
  8
0
 62
     7
 10
103.444519
 20
112.254456
 30
0.0
 40
0.9
210
0.0
220
0.0
230
1.0
  0
CIRCLE
  8
0
 62
     7
 10
121.294518
 20
104.094452
 30
0.0
 40
0.7
210
0.0
220
0.0
230
1.0
  0
CIRCLE
  8
0
 62
     7
 10
103.444519
 20
104.094452
 30
0.0
 40
0.7
210
0.0
220
0.0
230
1.0
  0
CIRCLE
  8
0
 62
     7
 10
99.094521
 20
104.094452
 30
0.0
 40
0.7
210
0.0
220
0.0
230
1.0
  0
CIRCLE
  8
0
 62
     7
 10
116.944519
 20
112.254456
 30
0.0
 40
0.9
210
0.0
220
0.0
230
1.0
  0
LINE
  8
0
 62
     7
 10
143.780304
 20
101.644455
 30
0.0
 11
143.758789
 21
101.644455
 31
0.0
210
0.0
220
0.0
230
1.0
  0
ARC
  8
0
 62
     7
 10
145.194519
 20
101.144455
 30
0.0
 40
1.5
 50
137.166577
 51
160.528775
210
0.0
220
0.0
230
1.0
  0
LINE
  8
0
 62
     7
 10
160.694519
 20
141.193848
 30
0.0
 11
160.694519
 21
110.144455
 31
0.0
210
0.0
220
0.0
230
1.0
  0
LINE
  8
0
 62
     7
 10
156.291214
 20
141.193848
 30
0.0
 11
160.694519
 21
141.193848
 31
0.0
210
0.0
220
0.0
230
1.0
  0
ARC
  8
0
 62
     7
 10
156.291214
 20
142.693848
 30
0.0
 40
1.5
 50
240.750006
 51
269.999997
210
0.0
220
0.0
230
1.0
  0
LINE
  8
0
 62
     7
 10
155.899796
 20
141.193848
 30
0.0
 11
155.558289
 21
141.385101
 31
0.0
210
0.0
220
0.0
230
1.0
  0
ARC
  8
0
 62
     7
 10
149.692551
 20
185.898865
 30
0.0
 40
1.5
 50
163.750001
 51
199.560496
210
0.0
220
0.0
230
1.0
  0
LINE
  8
0
 62
     7
 10
149.115585
 20
189.279755
 30
0.0
 11
148.252472
 21
186.318604
 31
0.0
210
0.0
220
0.0
230
1.0
  0
LINE
  8
0
 62
     7
 10
152.194519
 20
194.994446
 30
0.0
 11
152.194519
 21
194.777603
 31
0.0
210
0.0
220
0.0
230
1.0
  0
LINE
  8
0
 62
     7
 10
68.194519
 20
194.994446
 30
0.0
 11
68.194519
 21
194.777603
 31
0.0
210
0.0
220
0.0
230
1.0
  0
LINE
  8
0
 62
     7
 10
71.273453
 20
189.279755
 30
0.0
 11
72.136559
 21
186.318604
 31
0.0
210
0.0
220
0.0
230
1.0
  0
ARC
  8
0
 62
     7
 10
70.696487
 20
185.898865
 30
0.0
 40
1.5
 50
340.439504
 51
16.25
210
0.0
220
0.0
230
1.0
  0
LINE
  8
0
 62
     7
 10
64.489243
 20
141.193848
 30
0.0
 11
64.830757
 21
141.385101
 31
0.0
210
0.0
220
0.0
230
1.0
  0
ARC
  8
0
 62
     7
 10
64.097824
 20
142.693848
 30
0.0
 40
1.5
 50
269.999997
 51
299.250003
210
0.0
220
0.0
230
1.0
  0
LINE
  8
0
 62
     7
 10
64.097824
 20
141.193848
 30
0.0
 11
59.694519
 21
141.193848
 31
0.0
210
0.0
220
0.0
230
1.0
  0
LINE
  8
0
 62
     7
 10
59.694519
 20
141.193848
 30
0.0
 11
59.694519
 21
110.144455
 31
0.0
210
0.0
220
0.0
230
1.0
  0
LINE
  8
0
 62
     7
 10
95.694519
 20
104.144455
 30
0.0
 11
95.994522
 21
104.144455
 31
0.0
210
0.0
220
0.0
230
1.0
  0
LINE
  8
0
 62
     7
 10
125.801697
 20
101.644455
 30
0.0
 11
123.044518
 21
101.644455
 31
0.0
210
0.0
220
0.0
230
1.0
  0
LINE
  8
0
 62
     7
 10
138.694519
 20
101.644455
 30
0.0
 11
128.894516
 21
101.644455
 31
0.0
210
0.0
220
0.0
230
1.0
  0
LINE
  8
0
 62
     7
 10
141.012207
 20
101.644455
 30
0.0
 11
138.694519
 21
101.644455
 31
0.0
210
0.0
220
0.0
230
1.0
  0
LINE
  8
0
 62
     7
 10
141.012207
 20
101.644455
 30
0.0
 11
143.758789
 21
101.644455
 31
0.0
210
0.0
220
0.0
230
1.0
  0
LINE
  8
0
 62
     7
 10
100.544518
 20
111.294456
 30
0.0
 11
101.844521
 21
111.294456
 31
0.0
210
0.0
220
0.0
230
1.0
  0
LINE
  8
0
 62
     7
 10
101.844521
 20
112.944458
 30
0.0
 11
101.844521
 21
111.294456
 31
0.0
210
0.0
220
0.0
230
1.0
  0
LINE
  8
0
 62
     7
 10
101.844521
 20
112.944458
 30
0.0
 11
100.544518
 21
112.944458
 31
0.0
210
0.0
220
0.0
230
1.0
  0
LINE
  8
0
 62
     7
 10
100.544518
 20
111.294456
 30
0.0
 11
100.544518
 21
112.944458
 31
0.0
210
0.0
220
0.0
230
1.0
  0
LINE
  8
0
 62
     7
 10
105.044518
 20
111.294456
 30
0.0
 11
106.344521
 21
111.294456
 31
0.0
210
0.0
220
0.0
230
1.0
  0
LINE
  8
0
 62
     7
 10
106.344521
 20
112.944458
 30
0.0
 11
106.344521
 21
111.294456
 31
0.0
210
0.0
220
0.0
230
1.0
  0
LINE
  8
0
 62
     7
 10
106.344521
 20
112.944458
 30
0.0
 11
105.044518
 21
112.944458
 31
0.0
210
0.0
220
0.0
230
1.0
  0
LINE
  8
0
 62
     7
 10
105.044518
 20
111.294456
 30
0.0
 11
105.044518
 21
112.944458
 31
0.0
210
0.0
220
0.0
230
1.0
  0
LINE
  8
0
 62
     7
 10
119.844521
 20
111.294456
 30
0.0
 11
119.844521
 21
112.944458
 31
0.0
210
0.0
220
0.0
230
1.0
  0
LINE
  8
0
 62
     7
 10
118.544518
 20
112.944458
 30
0.0
 11
119.844521
 21
112.944458
 31
0.0
210
0.0
220
0.0
230
1.0
  0
LINE
  8
0
 62
     7
 10
118.544518
 20
112.944458
 30
0.0
 11
118.544518
 21
111.294456
 31
0.0
210
0.0
220
0.0
230
1.0
  0
LINE
  8
0
 62
     7
 10
119.844521
 20
111.294456
 30
0.0
 11
118.544518
 21
111.294456
 31
0.0
210
0.0
220
0.0
230
1.0
  0
LINE
  8
0
 62
     7
 10
115.344521
 20
111.294456
 30
0.0
 11
115.344521
 21
112.944458
 31
0.0
210
0.0
220
0.0
230
1.0
  0
LINE
  8
0
 62
     7
 10
114.044518
 20
112.944458
 30
0.0
 11
115.344521
 21
112.944458
 31
0.0
210
0.0
220
0.0
230
1.0
  0
LINE
  8
0
 62
     7
 10
114.044518
 20
112.944458
 30
0.0
 11
114.044518
 21
111.294456
 31
0.0
210
0.0
220
0.0
230
1.0
  0
LINE
  8
0
 62
     7
 10
115.344521
 20
111.294456
 30
0.0
 11
114.044518
 21
111.294456
 31
0.0
210
0.0
220
0.0
230
1.0
  0
LINE
  8
0
 62
     7
 10
109.544518
 20
111.294456
 30
0.0
 11
110.844521
 21
111.294456
 31
0.0
210
0.0
220
0.0
230
1.0
  0
LINE
  8
0
 62
     7
 10
110.844521
 20
112.944458
 30
0.0
 11
110.844521
 21
111.294456
 31
0.0
210
0.0
220
0.0
230
1.0
  0
LINE
  8
0
 62
     7
 10
110.844521
 20
112.944458
 30
0.0
 11
109.544518
 21
112.944458
 31
0.0
210
0.0
220
0.0
230
1.0
  0
LINE
  8
0
 62
     7
 10
109.544518
 20
111.294456
 30
0.0
 11
109.544518
 21
112.944458
 31
0.0
210
0.0
220
0.0
230
1.0
  0
LINE
  8
0
 62
     7
 10
158.194519
 20
102.644455
 30
0.0
 11
145.194519
 21
102.644455
 31
0.0
210
0.0
220
0.0
230
1.0
  0
LINE
  8
0
 62
     7
 10
159.694519
 20
105.644455
 30
0.0
 11
159.694519
 21
104.144455
 31
0.0
210
0.0
220
0.0
230
1.0
  0
ARC
  8
0
 62
     7
 10
160.694519
 20
105.644455
 30
0.0
 40
1.0
 50
90.000003
 51
180.000005
210
0.0
220
0.0
230
1.0
  0
LINE
  8
0
 62
     7
 10
146.544525
 20
200.644455
 30
0.0
 11
146.544525
 21
198.844452
 31
0.0
210
0.0
220
0.0
230
1.0
  0
LINE
  8
0
 62
     7
 10
110.194519
 20
200.644455
 30
0.0
 11
146.544525
 21
200.644455
 31
0.0
210
0.0
220
0.0
230
1.0
  0
ARC
  8
0
 62
     7
 10
59.694519
 20
105.644455
 30
0.0
 40
1.0
 50
0.0
 51
90.000003
210
0.0
220
0.0
230
1.0
  0
LINE
  8
0
 62
     7
 10
75.194519
 20
102.644455
 30
0.0
 11
62.194519
 21
102.644455
 31
0.0
210
0.0
220
0.0
230
1.0
  0
ARC
  8
0
 62
     7
 10
147.744522
 20
198.844452
 30
0.0
 40
1.2
 50
180.000005
 51
221.409615
210
0.0
220
0.0
230
1.0
  0
LINE
  8
0
 62
     7
 10
110.194519
 20
200.644455
 30
0.0
 11
73.544518
 21
200.644455
 31
0.0
210
0.0
220
0.0
230
1.0
  0
LINE
  8
0
 62
     7
 10
61.194519
 20
107.644455
 30
0.0
 11
61.194519
 21
107.721626
 31
0.0
210
0.0
220
0.0
230
1.0
  0
LINE
  8
0
 62
     7
 10
59.694519
 20
106.644455
 30
0.0
 11
59.694519
 21
106.881592
 31
0.0
210
0.0
220
0.0
230
1.0
  0
LINE
  8
0
 62
     7
 10
60.694519
 20
105.644455
 30
0.0
 11
60.694519
 21
104.144455
 31
0.0
210
0.0
220
0.0
230
1.0
  0
ARC
  8
0
 62
     7
 10
62.194519
 20
104.144455
 30
0.0
 40
1.5
 50
180.000005
 51
269.999997
210
0.0
220
0.0
230
1.0
  0
ARC
  8
0
 62
     7
 10
75.194519
 20
101.144455
 30
0.0
 40
1.5
 50
42.833428
 51
90.000003
210
0.0
220
0.0
230
1.0
  0
LINE
  8
0
 62
     7
 10
148.944519
 20
200.644455
 30
0.0
 11
148.944519
 21
198.844452
 31
0.0
210
0.0
220
0.0
230
1.0
  0
ARC
  8
0
 62
     7
 10
147.744522
 20
198.844452
 30
0.0
 40
1.2
 50
318.59038
 51
0.0
210
0.0
220
0.0
230
1.0
  0
LINE
  8
0
 62
     7
 10
59.694519
 20
107.644455
 30
0.0
 11
59.694519
 21
106.881592
 31
0.0
210
0.0
220
0.0
230
1.0
  0
LINE
  8
0
 62
     7
 10
160.694519
 20
107.644455
 30
0.0
 11
160.694519
 21
106.881592
 31
0.0
210
0.0
220
0.0
230
1.0
  0
LINE
  8
0
 62
     7
 10
73.044518
 20
200.644455
 30
0.0
 11
73.544518
 21
200.644455
 31
0.0
210
0.0
220
0.0
230
1.0
  0
ARC
  8
0
 62
     7
 10
147.744522
 20
198.844452
 30
0.0
 40
1.2
 50
221.409615
 51
250.528781
210
0.0
220
0.0
230
1.0
  0
LINE
  8
0
 62
     7
 10
68.194519
 20
200.644455
 30
0.0
 11
68.194519
 21
194.994446
 31
0.0
210
0.0
220
0.0
230
1.0
  0
LINE
  8
0
 62
     7
 10
59.694519
 20
110.144455
 30
0.0
 11
59.694519
 21
107.644455
 31
0.0
210
0.0
220
0.0
230
1.0
  0
ARC
  8
0
 62
     7
 10
145.194519
 20
101.144455
 30
0.0
 40
1.5
 50
90.000003
 51
137.166577
210
0.0
220
0.0
230
1.0
  0
ARC
  8
0
 62
     7
 10
158.194519
 20
104.144455
 30
0.0
 40
1.5
 50
269.999997
 51
0.0
210
0.0
220
0.0
230
1.0
  0
LINE
  8
0
 62
     7
 10
160.694519
 20
106.644455
 30
0.0
 11
160.694519
 21
106.881592
 31
0.0
210
0.0
220
0.0
230
1.0
  0
LINE
  8
0
 62
     7
 10
160.694519
 20
110.144455
 30
0.0
 11
160.694519
 21
107.644455
 31
0.0
210
0.0
220
0.0
230
1.0
  0
LINE
  8
0
 62
     7
 10
85.194519
 20
101.644455
 30
0.0
 11
85.194519
 21
102.644455
 31
0.0
210
0.0
220
0.0
230
1.0
  0
LINE
  8
0
 62
     7
 10
86.694519
 20
104.144455
 30
0.0
 11
95.694519
 21
104.144455
 31
0.0
210
0.0
220
0.0
230
1.0
  0
LINE
  8
0
 62
     7
 10
85.194519
 20
101.644455
 30
0.0
 11
81.694519
 21
101.644455
 31
0.0
210
0.0
220
0.0
230
1.0
  0
LINE
  8
0
 62
     7
 10
148.944519
 20
200.644455
 30
0.0
 11
148.944519
 21
198.844452
 31
0.0
210
0.0
220
0.0
230
1.0
  0
ARC
  8
0
 62
     7
 10
147.744522
 20
198.844452
 30
0.0
 40
1.2
 50
250.528781
 51
360.0
210
0.0
220
0.0
230
1.0
  0
LINE
  8
0
 62
     7
 10
152.194519
 20
194.994446
 30
0.0
 11
152.194519
 21
200.644455
 31
0.0
210
0.0
220
0.0
230
1.0
  0
LINE
  8
0
 62
     7
 10
148.944519
 20
200.644455
 30
0.0
 11
152.194519
 21
200.644455
 31
0.0
210
0.0
220
0.0
230
1.0
  0
LINE
  8
0
 62
     7
 10
68.194519
 20
200.644455
 30
0.0
 11
68.194519
 21
194.994446
 31
0.0
210
0.0
220
0.0
230
1.0
  0
LINE
  8
0
 62
     7
 10
68.194519
 20
200.644455
 30
0.0
 11
73.044518
 21
200.644455
 31
0.0
210
0.0
220
0.0
230
1.0
  0
ENDSEC
  0
EOF
