  0
SECTION
  2
HEADER
  9
$ACADVER
  1
AC1009
  9
$DWGCODEPAGE
  3
ansi_1252
  9
$INSBASE
 10
0.0
 20
0.0
 30
0.0
  9
$EXTMIN
 10
0.0
 20
0.0
 30
0.0
  9
$EXTMAX
 10
154.301453
 20
225.917358
 30
2.0
  9
$LIMMIN
 10
0.0
 20
0.0
  9
$LIMMAX
 10
420.0
 20
297.0
  9
$ORTHOMODE
 70
     0
  9
$REGENMODE
 70
     1
  9
$FILLMODE
 70
     1
  9
$QTEXTMODE
 70
     0
  9
$MIRRTEXT
 70
     1
  9
$DRAGMODE
 70
     2
  9
$LTSCALE
 40
1.0
  9
$OSMODE
 70
     0
  9
$ATTMODE
 70
     1
  9
$TEXTSIZE
 40
2.5
  9
$TRACEWID
 40
1.0
  9
$TEXTSTYLE
  7
STANDARD
  9
$CLAYER
  8
0
  9
$CELTYPE
  6
BYLAYER
  9
$CECOLOR
 62
   256
  9
$DIMSCALE
 40
1.0
  9
$DIMASZ
 40
2.5
  9
$DIMEXO
 40
0.625
  9
$DIMDLI
 40
3.75
  9
$DIMRND
 40
0.0
  9
$DIMDLE
 40
0.0
  9
$DIMEXE
 40
1.25
  9
$DIMTP
 40
0.0
  9
$DIMTM
 40
0.0
  9
$DIMTXT
 40
2.5
  9
$DIMCEN
 40
2.5
  9
$DIMTSZ
 40
0.0
  9
$DIMTOL
 70
     0
  9
$DIMLIM
 70
     0
  9
$DIMTIH
 70
     0
  9
$DIMTOH
 70
     0
  9
$DIMSE1
 70
     0
  9
$DIMSE2
 70
     0
  9
$DIMTAD
 70
     1
  9
$DIMZIN
 70
     8
  9
$DIMBLK
  1

  9
$DIMASO
 70
     1
  9
$DIMSHO
 70
     1
  9
$DIMPOST
  1

  9
$DIMAPOST
  1

  9
$DIMALT
 70
     0
  9
$DIMALTD
 70
     3
  9
$DIMALTF
 40
0.03937
  9
$DIMLFAC
 40
1.0
  9
$DIMTOFL
 70
     1
  9
$DIMTVP
 40
0.0
  9
$DIMTIX
 70
     0
  9
$DIMSOXD
 70
     0
  9
$DIMSAH
 70
     0
  9
$DIMBLK1
  1

  9
$DIMBLK2
  1

  9
$DIMSTYLE
  2

  9
$DIMCLRD
 70
     0
  9
$DIMCLRE
 70
     0
  9
$DIMCLRT
 70
     0
  9
$DIMTFAC
 40
1.0
  9
$DIMGAP
 40
0.625
  9
$LUNITS
 70
     2
  9
$LUPREC
 70
     4
  9
$AXISMODE
 70
     0
  9
$AXISUNIT
 10
0.0
 20
0.0
  9
$SKETCHINC
 40
1.0
  9
$FILLETRAD
 40
2.5
  9
$AUNITS
 70
     0
  9
$AUPREC
 70
     0
  9
$MENU
  1
.
  9
$ELEVATION
 40
0.0
  9
$PELEVATION
 40
0.0
  9
$THICKNESS
 40
0.0
  9
$LIMCHECK
 70
     0
  9
$BLIPMODE
 70
     1
  9
$CHAMFERA
 40
2.5
  9
$CHAMFERB
 40
2.5
  9
$SKPOLY
 70
     0
  9
$TDCREATE
 40
0.000000000
  9
$TDUPDATE
 40
0.000000000
  9
$TDINDWG
 40
0.0000000000
  9
$TDUSRTIMER
 40
0.0000000000
  9
$USRTIMER
 70
     1
  9
$ANGBASE
 50
0.0
  9
$ANGDIR
 70
     0
  9
$PDMODE
 70
     0
  9
$PDSIZE
 40
0.0
  9
$PLINEWID
 40
0.0
  9
$COORDS
 70
     0
  9
$SPLFRAME
 70
     0
  9
$SPLINETYPE
 70
     6
  9
$SPLINESEGS
 70
     8
  9
$ATTDIA
 70
     0
  9
$ATTREQ
 70
     1
  9
$HANDLING
 70
     0
  9
$HANDSEED
  5
3
  9
$SURFTAB1
 70
     6
  9
$SURFTAB2
 70
     6
  9
$SURFTYPE
 70
     6
  9
$SURFU
 70
     6
  9
$SURFV
 70
     6
  9
$UCSNAME
  2

  9
$UCSORG
 10
0.0
 20
0.0
 30
0.0
  9
$UCSXDIR
 10
1.0
 20
0.0
 30
0.0
  9
$UCSYDIR
 10
0.0
 20
1.0
 30
0.0
  9
$PUCSNAME
  2

  9
$PUCSORG
 10
0.0
 20
0.0
 30
0.0
  9
$PUCSXDIR
 10
1.0
 20
0.0
 30
0.0
  9
$PUCSYDIR
 10
0.0
 20
1.0
 30
0.0
  9
$USERI1
 70
     0
  9
$USERI2
 70
     0
  9
$USERI3
 70
     0
  9
$USERI4
 70
     0
  9
$USERI5
 70
     0
  9
$USERR1
 40
0.0
  9
$USERR2
 40
0.0
  9
$USERR3
 40
0.0
  9
$USERR4
 40
0.0
  9
$USERR5
 40
0.0
  9
$WORLDVIEW
 70
     1
  9
$SHADEDGE
 70
     3
  9
$SHADEDIF
 70
    70
  9
$TILEMODE
 70
     1
  9
$MAXACTVP
 70
    48
  9
$PINSBASE
 10
0.0
 20
0.0
 30
0.0
  9
$PLIMCHECK
 70
     0
  9
$PEXTMIN
 10
0.0
 20
0.0
 30
0.0
  9
$PEXTMAX
 10
154.301453
 20
225.917358
 30
2.0
  9
$PLIMMIN
 10
0.0
 20
0.0
  9
$PLIMMAX
 10
420.0
 20
297.0
  9
$UNITMODE
 70
     0
  9
$VISRETAIN
 70
     0
  9
$PLINEGEN
 70
     0
  9
$PSLTSCALE
 70
     1
  9
$TREEDEPTH
 70
  3020
  0
ENDSEC
  0
SECTION
  2
TABLES
  0
TABLE
  2
VPORT
 70
     1
  0
VPORT
  2
*ACTIVE
 70
     0
 10
0.0
 20
0.0
 11
1.0
 21
1.0
 12
6.591288
 22
4.579184
 13
0.0
 23
0.0
 14
1.0
 24
1.0
 15
0.0
 25
0.0
 16
0.0
 26
0.0
 36
1.0
 17
0.0
 27
0.0
 37
0.0
 40
9.158369
 41
0.688564
 42
50.0
 43
0.0
 44
0.0
 50
0.0
 51
0.0
 71
     0
 72
   100
 73
     1
 74
     1
 75
     0
 76
     0
 77
     0
 78
     0
  0
ENDTAB
  0
TABLE
  2
LTYPE
 70
     2
  0
LTYPE
  2
CONTINUOUS
 70
    64
  3
Solid line
 72
    65
 73
     0
 40
0.0
  0
LTYPE
  2
DASHDOT
 70
     0
  3
 __ . __ . __ . __ . __ . __ . __ . 
 72
    65
 73
     4
 40
18.5
 49
12.0
 49
-3.0
 49
0.5
 49
-3.0
  0
ENDTAB
  0
TABLE
  2
LAYER
 70
     1
  0
LAYER
  2
0
 70
     0
 62
     7
  6
CONTINUOUS
  0
ENDTAB
  0
TABLE
  2
STYLE
 70
     1
  0
STYLE
  2
STANDARD
 70
     0
 40
0.0
 41
1.0
 50
0.0
 71
     0
 42
0.0
  3
txt
  4

  0
ENDTAB
  0
TABLE
  2
VIEW
 70
     0
  0
ENDTAB
  0
TABLE
  2
UCS
 70
     0
  0
ENDTAB
  0
TABLE
  2
APPID
 70
     1
  0
APPID
  2
ACAD
 70
     0
  0
ENDTAB
  0
TABLE
  2
DIMSTYLE
 70
     1
  0
DIMSTYLE
  2
STANDARD
 70
     0
  3

  4

  5

  6

  7

 40
1.0
 41
0.18
 42
0.0625
 43
0.38
 44
0.18
 45
0.0
 46
0.0
 47
0.0
 48
0.0
 71
     0
 72
     0
 73
     1
 74
     1
 75
     0
 76
     0
 77
     0
 78
     0
140
0.18
141
0.09
142
0.0
143
25.4
144
1.0
145
0.0
146
1.0
147
0.09
170
     0
171
     2
172
     0
173
     0
174
     0
175
     0
176
     0
177
     0
178
     0
  0
ENDTAB
  0
ENDSEC
  0
SECTION
  2
BLOCKS
  0
ENDSEC
  0
SECTION
  2
ENTITIES
  0
VIEWPORT
  8
0
 62
     0
 67
     1
 68
     1
 10
0.0
 20
0.0
 30
0.0
 40
1000.0
 41
1000.0
 69
     1
1001
ACAD
1000
MVIEW
1002
{
1070
    16
1010
0.0
1020
0.0
1030
0.0
1010
0.0
1020
0.0
1030
1.0
1040
0.0
1040
1000.0
1040
0.0
1040
0.0
1040
50.0
1040
0.0
1040
0.0
1070
     0
1070
   100
1070
     1
1070
     1
1070
     0
1070
     0
1070
     0
1070
     0
1040
0.0
1040
0.0
1040
0.0
1040
1.0
1040
1.0
1040
1.0
1040
1.0
1070
     0
1002
{
1002
}
1002
}
  0
LINE
  8
0
  6
DASHDOT
 62
     7
 10
127.656174
 20
111.948357
 30
0.0
 11
124.536179
 21
111.948357
 31
0.0
210
0.0
220
0.0
230
1.0
  0
LINE
  8
0
  6
DASHDOT
 62
     7
 10
126.096176
 20
113.508362
 30
0.0
 11
126.096176
 21
110.388359
 31
0.0
210
0.0
220
0.0
230
1.0
  0
LINE
  8
0
  6
DASHDOT
 62
     7
 10
147.706177
 20
206.948364
 30
0.0
 11
144.586182
 21
206.948364
 31
0.0
210
0.0
220
0.0
230
1.0
  0
LINE
  8
0
  6
DASHDOT
 62
     7
 10
146.146179
 20
208.508362
 30
0.0
 11
146.146179
 21
205.388367
 31
0.0
210
0.0
220
0.0
230
1.0
  0
POLYLINE
  8
0
 62
     7
 66
     1
 10
0.0
 20
0.0
 30
0.0
 70
     1
 71
    12
  0
VERTEX
  8
0
 10
60.267944
 20
222.568939
 30
0.0
  0
VERTEX
  8
0
 10
60.47813
 20
222.568939
 30
0.0
  0
VERTEX
  8
0
 10
60.47813
 20
224.596054
 30
0.0
  0
VERTEX
  8
0
 10
60.539154
 20
224.411774
 30
0.0
  0
VERTEX
  8
0
 10
61.314362
 20
222.568939
 30
0.0
  0
VERTEX
  8
0
 10
61.553928
 20
222.568939
 30
0.0
  0
VERTEX
  8
0
 10
61.553928
 20
225.068939
 30
0.0
  0
VERTEX
  8
0
 10
61.343742
 20
225.068939
 30
0.0
  0
VERTEX
  8
0
 10
61.343742
 20
223.041824
 30
0.0
  0
VERTEX
  8
0
 10
61.269161
 20
223.253922
 30
0.0
  0
VERTEX
  8
0
 10
60.509773
 20
225.068939
 30
0.0
  0
VERTEX
  8
0
 10
60.267944
 20
225.068939
 30
0.0
  0
SEQEND
  8
0
  0
POLYLINE
  8
0
 62
     7
 66
     1
 10
0.0
 20
0.0
 30
0.0
 70
     1
 71
    32
  0
VERTEX
  8
0
 10
62.329659
 20
223.8172
 30
0.0
  0
VERTEX
  8
0
 10
62.340961
 20
223.518173
 30
0.0
  0
VERTEX
  8
0
 10
62.381641
 20
223.257401
 30
0.0
  0
VERTEX
  8
0
 10
62.447186
 20
223.031387
 30
0.0
  0
VERTEX
  8
0
 10
62.535328
 20
222.843628
 30
0.0
  0
VERTEX
  8
0
 10
62.646072
 20
222.694107
 30
0.0
  0
VERTEX
  8
0
 10
62.777157
 20
222.586319
 30
0.0
  0
VERTEX
  8
0
 10
62.928581
 20
222.523743
 30
0.0
  0
VERTEX
  8
0
 10
63.100349
 20
222.499405
 30
0.0
  0
VERTEX
  8
0
 10
63.269855
 20
222.523743
 30
0.0
  0
VERTEX
  8
0
 10
63.42128
 20
222.586319
 30
0.0
  0
VERTEX
  8
0
 10
63.552364
 20
222.694107
 30
0.0
  0
VERTEX
  8
0
 10
63.663109
 20
222.843628
 30
0.0
  0
VERTEX
  8
0
 10
63.751251
 20
223.031387
 30
0.0
  0
VERTEX
  8
0
 10
63.814533
 20
223.257401
 30
0.0
  0
VERTEX
  8
0
 10
63.852955
 20
223.518173
 30
0.0
  0
VERTEX
  8
0
 10
63.868778
 20
223.8172
 30
0.0
  0
VERTEX
  8
0
 10
63.855217
 20
224.112747
 30
0.0
  0
VERTEX
  8
0
 10
63.814533
 20
224.373535
 30
0.0
  0
VERTEX
  8
0
 10
63.748993
 20
224.599533
 30
0.0
  0
VERTEX
  8
0
 10
63.663109
 20
224.787292
 30
0.0
  0
VERTEX
  8
0
 10
63.552364
 20
224.936813
 30
0.0
  0
VERTEX
  8
0
 10
63.42128
 20
225.044601
 30
0.0
  0
VERTEX
  8
0
 10
63.269855
 20
225.110657
 30
0.0
  0
VERTEX
  8
0
 10
63.100349
 20
225.13501
 30
0.0
  0
VERTEX
  8
0
 10
62.928581
 20
225.110657
 30
0.0
  0
VERTEX
  8
0
 10
62.777157
 20
225.044601
 30
0.0
  0
VERTEX
  8
0
 10
62.646072
 20
224.936813
 30
0.0
  0
VERTEX
  8
0
 10
62.535328
 20
224.787292
 30
0.0
  0
VERTEX
  8
0
 10
62.447186
 20
224.599533
 30
0.0
  0
VERTEX
  8
0
 10
62.381641
 20
224.373535
 30
0.0
  0
VERTEX
  8
0
 10
62.340961
 20
224.112747
 30
0.0
  0
SEQEND
  8
0
  0
POLYLINE
  8
0
 62
     7
 66
     1
 10
0.0
 20
0.0
 30
0.0
 70
     1
 71
    16
  0
VERTEX
  8
0
 10
62.55793
 20
223.8172
 30
0.0
  0
VERTEX
  8
0
 10
62.59409
 20
224.248352
 30
0.0
  0
VERTEX
  8
0
 10
62.702576
 20
224.571716
 30
0.0
  0
VERTEX
  8
0
 10
62.87434
 20
224.769913
 30
0.0
  0
VERTEX
  8
0
 10
63.100349
 20
224.839447
 30
0.0
  0
VERTEX
  8
0
 10
63.324097
 20
224.769913
 30
0.0
  0
VERTEX
  8
0
 10
63.495865
 20
224.571716
 30
0.0
  0
VERTEX
  8
0
 10
63.602085
 20
224.248352
 30
0.0
  0
VERTEX
  8
0
 10
63.640507
 20
223.8172
 30
0.0
  0
VERTEX
  8
0
 10
63.602085
 20
223.382568
 30
0.0
  0
VERTEX
  8
0
 10
63.495865
 20
223.059204
 30
0.0
  0
VERTEX
  8
0
 10
63.324097
 20
222.861008
 30
0.0
  0
VERTEX
  8
0
 10
63.100349
 20
222.794952
 30
0.0
  0
VERTEX
  8
0
 10
62.87434
 20
222.861008
 30
0.0
  0
VERTEX
  8
0
 10
62.702576
 20
223.059204
 30
0.0
  0
VERTEX
  8
0
 10
62.59409
 20
223.382568
 30
0.0
  0
SEQEND
  8
0
  0
POLYLINE
  8
0
 62
     7
 66
     1
 10
0.0
 20
0.0
 30
0.0
 70
     1
 71
    12
  0
VERTEX
  8
0
 10
64.644508
 20
222.568939
 30
0.0
  0
VERTEX
  8
0
 10
64.854698
 20
222.568939
 30
0.0
  0
VERTEX
  8
0
 10
64.854698
 20
224.596054
 30
0.0
  0
VERTEX
  8
0
 10
64.915718
 20
224.411774
 30
0.0
  0
VERTEX
  8
0
 10
65.690926
 20
222.568939
 30
0.0
  0
VERTEX
  8
0
 10
65.930496
 20
222.568939
 30
0.0
  0
VERTEX
  8
0
 10
65.930496
 20
225.068939
 30
0.0
  0
VERTEX
  8
0
 10
65.720306
 20
225.068939
 30
0.0
  0
VERTEX
  8
0
 10
65.720306
 20
223.041824
 30
0.0
  0
VERTEX
  8
0
 10
65.645721
 20
223.253922
 30
0.0
  0
VERTEX
  8
0
 10
64.886337
 20
225.068939
 30
0.0
  0
VERTEX
  8
0
 10
64.644508
 20
225.068939
 30
0.0
  0
SEQEND
  8
0
  0
POLYLINE
  8
0
 62
     7
 66
     1
 10
0.0
 20
0.0
 30
0.0
 70
     1
 71
     4
  0
VERTEX
  8
0
 10
66.681366
 20
223.351273
 30
0.0
  0
VERTEX
  8
0
 10
67.228302
 20
223.351273
 30
0.0
  0
VERTEX
  8
0
 10
67.228302
 20
223.625961
 30
0.0
  0
VERTEX
  8
0
 10
66.681366
 20
223.625961
 30
0.0
  0
SEQEND
  8
0
  0
POLYLINE
  8
0
 62
     7
 66
     1
 10
0.0
 20
0.0
 30
0.0
 70
     1
 71
    22
  0
VERTEX
  8
0
 10
67.972389
 20
223.518173
 30
0.0
  0
VERTEX
  8
0
 10
68.008553
 20
223.069641
 30
0.0
  0
VERTEX
  8
0
 10
68.123817
 20
222.75322
 30
0.0
  0
VERTEX
  8
0
 10
68.313667
 20
222.56546
 30
0.0
  0
VERTEX
  8
0
 10
68.582611
 20
222.499405
 30
0.0
  0
VERTEX
  8
0
 10
68.867386
 20
222.56546
 30
0.0
  0
VERTEX
  8
0
 10
69.075317
 20
222.756699
 30
0.0
  0
VERTEX
  8
0
 10
69.201874
 20
223.073105
 30
0.0
  0
VERTEX
  8
0
 10
69.24482
 20
223.518173
 30
0.0
  0
VERTEX
  8
0
 10
69.24482
 20
225.068939
 30
0.0
  0
VERTEX
  8
0
 10
69.023331
 20
225.068939
 30
0.0
  0
VERTEX
  8
0
 10
69.023331
 20
223.514694
 30
0.0
  0
VERTEX
  8
0
 10
68.996208
 20
223.20871
 30
0.0
  0
VERTEX
  8
0
 10
68.919365
 20
222.996613
 30
0.0
  0
VERTEX
  8
0
 10
68.790543
 20
222.867966
 30
0.0
  0
VERTEX
  8
0
 10
68.607475
 20
222.826248
 30
0.0
  0
VERTEX
  8
0
 10
68.42215
 20
222.867966
 30
0.0
  0
VERTEX
  8
0
 10
68.293327
 20
222.993134
 30
0.0
  0
VERTEX
  8
0
 10
68.216484
 20
223.20871
 30
0.0
  0
VERTEX
  8
0
 10
68.193878
 20
223.514694
 30
0.0
  0
VERTEX
  8
0
 10
68.193878
 20
225.068939
 30
0.0
  0
VERTEX
  8
0
 10
67.972389
 20
225.068939
 30
0.0
  0
SEQEND
  8
0
  0
POLYLINE
  8
0
 62
     7
 66
     1
 10
0.0
 20
0.0
 30
0.0
 70
     1
 71
    50
  0
VERTEX
  8
0
 10
70.009247
 20
223.393005
 30
0.0
  0
VERTEX
  8
0
 10
70.058968
 20
223.010529
 30
0.0
  0
VERTEX
  8
0
 10
70.185532
 20
222.732361
 30
0.0
  0
VERTEX
  8
0
 10
70.382164
 20
222.561981
 30
0.0
  0
VERTEX
  8
0
 10
70.646591
 20
222.502869
 30
0.0
  0
VERTEX
  8
0
 10
70.906502
 20
222.561981
 30
0.0
  0
VERTEX
  8
0
 10
71.103127
 20
222.718445
 30
0.0
  0
VERTEX
  8
0
 10
71.227432
 20
222.965317
 30
0.0
  0
VERTEX
  8
0
 10
71.270378
 20
223.29216
 30
0.0
  0
VERTEX
  8
0
 10
71.234215
 20
223.56337
 30
0.0
  0
VERTEX
  8
0
 10
71.137032
 20
223.768524
 30
0.0
  0
VERTEX
  8
0
 10
70.974304
 20
223.897171
 30
0.0
  0
VERTEX
  8
0
 10
70.764114
 20
223.987579
 30
0.0
  0
VERTEX
  8
0
 10
70.542625
 20
224.067551
 30
0.0
  0
VERTEX
  8
0
 10
70.388947
 20
224.147522
 30
0.0
  0
VERTEX
  8
0
 10
70.298538
 20
224.262268
 30
0.0
  0
VERTEX
  8
0
 10
70.271416
 20
224.453506
 30
0.0
  0
VERTEX
  8
0
 10
70.294022
 20
224.613449
 30
0.0
  0
VERTEX
  8
0
 10
70.366341
 20
224.742096
 30
0.0
  0
VERTEX
  8
0
 10
70.477089
 20
224.822067
 30
0.0
  0
VERTEX
  8
0
 10
70.62851
 20
224.853363
 30
0.0
  0
VERTEX
  8
0
 10
70.782196
 20
224.818588
 30
0.0
  0
VERTEX
  8
0
 10
70.899719
 20
224.717758
 30
0.0
  0
VERTEX
  8
0
 10
70.976563
 20
224.554337
 30
0.0
  0
VERTEX
  8
0
 10
71.012726
 20
224.335281
 30
0.0
  0
VERTEX
  8
0
 10
71.222916
 20
224.335281
 30
0.0
  0
VERTEX
  8
0
 10
71.17997
 20
224.669083
 30
0.0
  0
VERTEX
  8
0
 10
71.064705
 20
224.919434
 30
0.0
  0
VERTEX
  8
0
 10
70.883904
 20
225.079376
 30
0.0
  0
VERTEX
  8
0
 10
70.642075
 20
225.13501
 30
0.0
  0
VERTEX
  8
0
 10
70.400246
 20
225.079376
 30
0.0
  0
VERTEX
  8
0
 10
70.217178
 20
224.926376
 30
0.0
  0
VERTEX
  8
0
 10
70.099655
 20
224.69342
 30
0.0
  0
VERTEX
  8
0
 10
70.061234
 20
224.394394
 30
0.0
  0
VERTEX
  8
0
 10
70.095131
 20
224.119705
 30
0.0
  0
VERTEX
  8
0
 10
70.196838
 20
223.931946
 30
0.0
  0
VERTEX
  8
0
 10
70.368599
 20
223.803299
 30
0.0
  0
VERTEX
  8
0
 10
70.605911
 20
223.702454
 30
0.0
  0
VERTEX
  8
0
 10
70.798019
 20
223.625961
 30
0.0
  0
VERTEX
  8
0
 10
70.938141
 20
223.549469
 30
0.0
  0
VERTEX
  8
0
 10
71.021767
 20
223.434723
 30
0.0
  0
VERTEX
  8
0
 10
71.051147
 20
223.253922
 30
0.0
  0
VERTEX
  8
0
 10
71.021767
 20
223.066162
 30
0.0
  0
VERTEX
  8
0
 10
70.942665
 20
222.92012
 30
0.0
  0
VERTEX
  8
0
 10
70.816101
 20
222.829712
 30
0.0
  0
VERTEX
  8
0
 10
70.644333
 20
222.798431
 30
0.0
  0
VERTEX
  8
0
 10
70.470306
 20
222.83667
 30
0.0
  0
VERTEX
  8
0
 10
70.339218
 20
222.958374
 30
0.0
  0
VERTEX
  8
0
 10
70.253342
 20
223.142654
 30
0.0
  0
VERTEX
  8
0
 10
70.221695
 20
223.393005
 30
0.0
  0
SEQEND
  8
0
  0
POLYLINE
  8
0
 62
     7
 66
     1
 10
0.0
 20
0.0
 30
0.0
 70
     1
 71
     8
  0
VERTEX
  8
0
 10
71.863037
 20
222.568939
 30
0.0
  0
VERTEX
  8
0
 10
72.091309
 20
222.568939
 30
0.0
  0
VERTEX
  8
0
 10
72.265335
 20
223.316498
 30
0.0
  0
VERTEX
  8
0
 10
72.904938
 20
223.316498
 30
0.0
  0
VERTEX
  8
0
 10
73.076706
 20
222.568939
 30
0.0
  0
VERTEX
  8
0
 10
73.316269
 20
222.568939
 30
0.0
  0
VERTEX
  8
0
 10
72.710571
 20
225.068939
 30
0.0
  0
VERTEX
  8
0
 10
72.466484
 20
225.068939
 30
0.0
  0
SEQEND
  8
0
  0
POLYLINE
  8
0
 62
     7
 66
     1
 10
0.0
 20
0.0
 30
0.0
 70
     1
 71
     3
  0
VERTEX
  8
0
 10
72.333138
 20
223.608582
 30
0.0
  0
VERTEX
  8
0
 10
72.588524
 20
224.7108
 30
0.0
  0
VERTEX
  8
0
 10
72.839394
 20
223.608582
 30
0.0
  0
SEQEND
  8
0
  0
POLYLINE
  8
0
 62
     7
 66
     1
 10
0.0
 20
0.0
 30
0.0
 70
     1
 71
    19
  0
VERTEX
  8
0
 10
73.983521
 20
222.568939
 30
0.0
  0
VERTEX
  8
0
 10
74.672844
 20
222.568939
 30
0.0
  0
VERTEX
  8
0
 10
74.903374
 20
222.621094
 30
0.0
  0
VERTEX
  8
0
 10
75.075142
 20
222.774078
 30
0.0
  0
VERTEX
  8
0
 10
75.183624
 20
223.00705
 30
0.0
  0
VERTEX
  8
0
 10
75.222046
 20
223.316498
 30
0.0
  0
VERTEX
  8
0
 10
75.199448
 20
223.539032
 30
0.0
  0
VERTEX
  8
0
 10
75.13842
 20
223.71637
 30
0.0
  0
VERTEX
  8
0
 10
75.041237
 20
223.845016
 30
0.0
  0
VERTEX
  8
0
 10
74.912415
 20
223.91803
 30
0.0
  0
VERTEX
  8
0
 10
75.011856
 20
224.004959
 30
0.0
  0
VERTEX
  8
0
 10
75.086441
 20
224.126663
 30
0.0
  0
VERTEX
  8
0
 10
75.129379
 20
224.276169
 30
0.0
  0
VERTEX
  8
0
 10
75.145203
 20
224.460449
 30
0.0
  0
VERTEX
  8
0
 10
75.111298
 20
224.724716
 30
0.0
  0
VERTEX
  8
0
 10
75.01638
 20
224.915955
 30
0.0
  0
VERTEX
  8
0
 10
74.85817
 20
225.030685
 30
0.0
  0
VERTEX
  8
0
 10
74.638947
 20
225.068939
 30
0.0
  0
VERTEX
  8
0
 10
73.983521
 20
225.068939
 30
0.0
  0
SEQEND
  8
0
  0
POLYLINE
  8
0
 62
     7
 66
     1
 10
0.0
 20
0.0
 30
0.0
 70
     1
 71
    11
  0
VERTEX
  8
0
 10
74.205009
 20
222.871445
 30
0.0
  0
VERTEX
  8
0
 10
74.205009
 20
223.740707
 30
0.0
  0
VERTEX
  8
0
 10
74.62764
 20
223.740707
 30
0.0
  0
VERTEX
  8
0
 10
74.788109
 20
223.71637
 30
0.0
  0
VERTEX
  8
0
 10
74.903374
 20
223.639877
 30
0.0
  0
VERTEX
  8
0
 10
74.971176
 20
223.507736
 30
0.0
  0
VERTEX
  8
0
 10
74.996033
 20
223.319977
 30
0.0
  0
VERTEX
  8
0
 10
74.973434
 20
223.125275
 30
0.0
  0
VERTEX
  8
0
 10
74.90789
 20
222.986191
 30
0.0
  0
VERTEX
  8
0
 10
74.799408
 20
222.899261
 30
0.0
  0
VERTEX
  8
0
 10
74.652504
 20
222.871445
 30
0.0
  0
SEQEND
  8
0
  0
POLYLINE
  8
0
 62
     7
 66
     1
 10
0.0
 20
0.0
 30
0.0
 70
     1
 71
    11
  0
VERTEX
  8
0
 10
74.205009
 20
224.018875
 30
0.0
  0
VERTEX
  8
0
 10
74.205009
 20
224.783813
 30
0.0
  0
VERTEX
  8
0
 10
74.609566
 20
224.783813
 30
0.0
  0
VERTEX
  8
0
 10
74.747429
 20
224.759476
 30
0.0
  0
VERTEX
  8
0
 10
74.844612
 20
224.689941
 30
0.0
  0
VERTEX
  8
0
 10
74.903374
 20
224.575195
 30
0.0
  0
VERTEX
  8
0
 10
74.923714
 20
224.411774
 30
0.0
  0
VERTEX
  8
0
 10
74.901115
 20
224.234451
 30
0.0
  0
VERTEX
  8
0
 10
74.840088
 20
224.109268
 30
0.0
  0
VERTEX
  8
0
 10
74.73613
 20
224.039734
 30
0.0
  0
VERTEX
  8
0
 10
74.591484
 20
224.018875
 30
0.0
  0
SEQEND
  8
0
  0
POLYLINE
  8
0
 62
     7
 66
     1
 10
0.0
 20
0.0
 30
0.0
 70
     1
 71
     6
  0
VERTEX
  8
0
 10
75.979691
 20
222.568939
 30
0.0
  0
VERTEX
  8
0
 10
77.01255
 20
222.568939
 30
0.0
  0
VERTEX
  8
0
 10
77.01255
 20
222.885345
 30
0.0
  0
VERTEX
  8
0
 10
76.203445
 20
222.885345
 30
0.0
  0
VERTEX
  8
0
 10
76.203445
 20
225.068939
 30
0.0
  0
VERTEX
  8
0
 10
75.979691
 20
225.068939
 30
0.0
  0
SEQEND
  8
0
  0
POLYLINE
  8
0
 62
     7
 66
     1
 10
0.0
 20
0.0
 30
0.0
 70
     1
 71
    12
  0
VERTEX
  8
0
 10
77.688843
 20
222.568939
 30
0.0
  0
VERTEX
  8
0
 10
78.866341
 20
222.568939
 30
0.0
  0
VERTEX
  8
0
 10
78.866341
 20
222.881866
 30
0.0
  0
VERTEX
  8
0
 10
77.908066
 20
222.881866
 30
0.0
  0
VERTEX
  8
0
 10
77.908066
 20
223.719849
 30
0.0
  0
VERTEX
  8
0
 10
78.77594
 20
223.719849
 30
0.0
  0
VERTEX
  8
0
 10
78.77594
 20
224.011917
 30
0.0
  0
VERTEX
  8
0
 10
77.908066
 20
224.011917
 30
0.0
  0
VERTEX
  8
0
 10
77.908066
 20
224.759476
 30
0.0
  0
VERTEX
  8
0
 10
78.848259
 20
224.759476
 30
0.0
  0
VERTEX
  8
0
 10
78.848259
 20
225.068939
 30
0.0
  0
VERTEX
  8
0
 10
77.688843
 20
225.068939
 30
0.0
  0
SEQEND
  8
0
  0
POLYLINE
  8
0
 62
     7
 66
     1
 10
0.0
 20
0.0
 30
0.0
 70
     1
 71
     8
  0
VERTEX
  8
0
 10
80.571487
 20
222.568939
 30
0.0
  0
VERTEX
  8
0
 10
80.799759
 20
222.568939
 30
0.0
  0
VERTEX
  8
0
 10
80.973785
 20
223.316498
 30
0.0
  0
VERTEX
  8
0
 10
81.613388
 20
223.316498
 30
0.0
  0
VERTEX
  8
0
 10
81.785156
 20
222.568939
 30
0.0
  0
VERTEX
  8
0
 10
82.024719
 20
222.568939
 30
0.0
  0
VERTEX
  8
0
 10
81.419022
 20
225.068939
 30
0.0
  0
VERTEX
  8
0
 10
81.174927
 20
225.068939
 30
0.0
  0
SEQEND
  8
0
  0
POLYLINE
  8
0
 62
     7
 66
     1
 10
0.0
 20
0.0
 30
0.0
 70
     1
 71
     3
  0
VERTEX
  8
0
 10
81.041588
 20
223.608582
 30
0.0
  0
VERTEX
  8
0
 10
81.296974
 20
224.7108
 30
0.0
  0
VERTEX
  8
0
 10
81.547844
 20
223.608582
 30
0.0
  0
SEQEND
  8
0
  0
POLYLINE
  8
0
 62
     7
 66
     1
 10
0.0
 20
0.0
 30
0.0
 70
     1
 71
    30
  0
VERTEX
  8
0
 10
82.691971
 20
225.068939
 30
0.0
  0
VERTEX
  8
0
 10
82.691971
 20
222.568939
 30
0.0
  0
VERTEX
  8
0
 10
82.911194
 20
222.568939
 30
0.0
  0
VERTEX
  8
0
 10
82.911194
 20
223.639877
 30
0.0
  0
VERTEX
  8
0
 10
83.268288
 20
223.639877
 30
0.0
  0
VERTEX
  8
0
 10
83.440056
 20
223.62944
 30
0.0
  0
VERTEX
  8
0
 10
83.54628
 20
223.577286
 30
0.0
  0
VERTEX
  8
0
 10
83.605042
 20
223.459061
 30
0.0
  0
VERTEX
  8
0
 10
83.629898
 20
223.240005
 30
0.0
  0
VERTEX
  8
0
 10
83.643463
 20
222.913162
 30
0.0
  0
VERTEX
  8
0
 10
83.654762
 20
222.714981
 30
0.0
  0
VERTEX
  8
0
 10
83.686401
 20
222.568939
 30
0.0
  0
VERTEX
  8
0
 10
83.941795
 20
222.568939
 30
0.0
  0
VERTEX
  8
0
 10
83.941795
 20
222.638474
 30
0.0
  0
VERTEX
  8
0
 10
83.88755
 20
222.739319
 30
0.0
  0
VERTEX
  8
0
 10
83.86721
 20
222.930557
 30
0.0
  0
VERTEX
  8
0
 10
83.849129
 20
223.340851
 30
0.0
  0
VERTEX
  8
0
 10
83.833313
 20
223.514694
 30
0.0
  0
VERTEX
  8
0
 10
83.803925
 20
223.650299
 30
0.0
  0
VERTEX
  8
0
 10
83.749687
 20
223.744186
 30
0.0
  0
VERTEX
  8
0
 10
83.663803
 20
223.806763
 30
0.0
  0
VERTEX
  8
0
 10
83.758728
 20
223.90065
 30
0.0
  0
VERTEX
  8
0
 10
83.828789
 20
224.029297
 30
0.0
  0
VERTEX
  8
0
 10
83.871735
 20
224.18576
 30
0.0
  0
VERTEX
  8
0
 10
83.88755
 20
224.376999
 30
0.0
  0
VERTEX
  8
0
 10
83.871735
 20
224.571716
 30
0.0
  0
VERTEX
  8
0
 10
83.833313
 20
224.742096
 30
0.0
  0
VERTEX
  8
0
 10
83.677361
 20
224.98201
 30
0.0
  0
VERTEX
  8
0
 10
83.512375
 20
225.055038
 30
0.0
  0
VERTEX
  8
0
 10
83.322533
 20
225.068939
 30
0.0
  0
SEQEND
  8
0
  0
POLYLINE
  8
0
 62
     7
 66
     1
 10
0.0
 20
0.0
 30
0.0
 70
     1
 71
    11
  0
VERTEX
  8
0
 10
82.908936
 20
224.776871
 30
0.0
  0
VERTEX
  8
0
 10
83.286369
 20
224.776871
 30
0.0
  0
VERTEX
  8
0
 10
83.446838
 20
224.759476
 30
0.0
  0
VERTEX
  8
0
 10
83.564362
 20
224.696899
 30
0.0
  0
VERTEX
  8
0
 10
83.634422
 20
224.575195
 30
0.0
  0
VERTEX
  8
0
 10
83.659286
 20
224.370056
 30
0.0
  0
VERTEX
  8
0
 10
83.634422
 20
224.157959
 30
0.0
  0
VERTEX
  8
0
 10
83.56662
 20
224.022354
 30
0.0
  0
VERTEX
  8
0
 10
83.449097
 20
223.949326
 30
0.0
  0
VERTEX
  8
0
 10
83.286369
 20
223.928467
 30
0.0
  0
VERTEX
  8
0
 10
82.908936
 20
223.928467
 30
0.0
  0
SEQEND
  8
0
  0
POLYLINE
  8
0
 62
     7
 66
     1
 10
0.0
 20
0.0
 30
0.0
 70
     1
 71
    12
  0
VERTEX
  8
0
 10
84.692657
 20
222.568939
 30
0.0
  0
VERTEX
  8
0
 10
85.870163
 20
222.568939
 30
0.0
  0
VERTEX
  8
0
 10
85.870163
 20
222.881866
 30
0.0
  0
VERTEX
  8
0
 10
84.911888
 20
222.881866
 30
0.0
  0
VERTEX
  8
0
 10
84.911888
 20
223.719849
 30
0.0
  0
VERTEX
  8
0
 10
85.779762
 20
223.719849
 30
0.0
  0
VERTEX
  8
0
 10
85.779762
 20
224.011917
 30
0.0
  0
VERTEX
  8
0
 10
84.911888
 20
224.011917
 30
0.0
  0
VERTEX
  8
0
 10
84.911888
 20
224.759476
 30
0.0
  0
VERTEX
  8
0
 10
85.852081
 20
224.759476
 30
0.0
  0
VERTEX
  8
0
 10
85.852081
 20
225.068939
 30
0.0
  0
VERTEX
  8
0
 10
84.692657
 20
225.068939
 30
0.0
  0
SEQEND
  8
0
  0
POLYLINE
  8
0
 62
     7
 66
     1
 10
0.0
 20
0.0
 30
0.0
 70
     1
 71
     8
  0
VERTEX
  8
0
 10
86.456047
 20
222.568939
 30
0.0
  0
VERTEX
  8
0
 10
86.684319
 20
222.568939
 30
0.0
  0
VERTEX
  8
0
 10
86.858345
 20
223.316498
 30
0.0
  0
VERTEX
  8
0
 10
87.497948
 20
223.316498
 30
0.0
  0
VERTEX
  8
0
 10
87.669708
 20
222.568939
 30
0.0
  0
VERTEX
  8
0
 10
87.909279
 20
222.568939
 30
0.0
  0
VERTEX
  8
0
 10
87.303581
 20
225.068939
 30
0.0
  0
VERTEX
  8
0
 10
87.059494
 20
225.068939
 30
0.0
  0
SEQEND
  8
0
  0
POLYLINE
  8
0
 62
     7
 66
     1
 10
0.0
 20
0.0
 30
0.0
 70
     1
 71
     3
  0
VERTEX
  8
0
 10
86.926147
 20
223.608582
 30
0.0
  0
VERTEX
  8
0
 10
87.181534
 20
224.7108
 30
0.0
  0
VERTEX
  8
0
 10
87.432404
 20
223.608582
 30
0.0
  0
SEQEND
  8
0
  0
POLYLINE
  8
0
 62
     7
 66
     1
 10
0.0
 20
0.0
 30
0.0
 70
     1
 71
    32
  0
VERTEX
  8
0
 10
60.200138
 20
220.3172
 30
0.0
  0
VERTEX
  8
0
 10
60.211441
 20
220.018173
 30
0.0
  0
VERTEX
  8
0
 10
60.252121
 20
219.757401
 30
0.0
  0
VERTEX
  8
0
 10
60.317665
 20
219.531387
 30
0.0
  0
VERTEX
  8
0
 10
60.405807
 20
219.343628
 30
0.0
  0
VERTEX
  8
0
 10
60.516552
 20
219.194107
 30
0.0
  0
VERTEX
  8
0
 10
60.647636
 20
219.086319
 30
0.0
  0
VERTEX
  8
0
 10
60.799061
 20
219.023743
 30
0.0
  0
VERTEX
  8
0
 10
60.970829
 20
218.999405
 30
0.0
  0
VERTEX
  8
0
 10
61.140335
 20
219.023743
 30
0.0
  0
VERTEX
  8
0
 10
61.291759
 20
219.086319
 30
0.0
  0
VERTEX
  8
0
 10
61.422844
 20
219.194107
 30
0.0
  0
VERTEX
  8
0
 10
61.533588
 20
219.343628
 30
0.0
  0
VERTEX
  8
0
 10
61.621731
 20
219.531387
 30
0.0
  0
VERTEX
  8
0
 10
61.685013
 20
219.757401
 30
0.0
  0
VERTEX
  8
0
 10
61.723434
 20
220.018173
 30
0.0
  0
VERTEX
  8
0
 10
61.739258
 20
220.3172
 30
0.0
  0
VERTEX
  8
0
 10
61.725697
 20
220.612747
 30
0.0
  0
VERTEX
  8
0
 10
61.685013
 20
220.873535
 30
0.0
  0
VERTEX
  8
0
 10
61.619473
 20
221.099533
 30
0.0
  0
VERTEX
  8
0
 10
61.533588
 20
221.287292
 30
0.0
  0
VERTEX
  8
0
 10
61.422844
 20
221.436813
 30
0.0
  0
VERTEX
  8
0
 10
61.291759
 20
221.544601
 30
0.0
  0
VERTEX
  8
0
 10
61.140335
 20
221.610657
 30
0.0
  0
VERTEX
  8
0
 10
60.970829
 20
221.63501
 30
0.0
  0
VERTEX
  8
0
 10
60.799061
 20
221.610657
 30
0.0
  0
VERTEX
  8
0
 10
60.647636
 20
221.544601
 30
0.0
  0
VERTEX
  8
0
 10
60.516552
 20
221.436813
 30
0.0
  0
VERTEX
  8
0
 10
60.405807
 20
221.287292
 30
0.0
  0
VERTEX
  8
0
 10
60.317665
 20
221.099533
 30
0.0
  0
VERTEX
  8
0
 10
60.252121
 20
220.873535
 30
0.0
  0
VERTEX
  8
0
 10
60.211441
 20
220.612747
 30
0.0
  0
SEQEND
  8
0
  0
POLYLINE
  8
0
 62
     7
 66
     1
 10
0.0
 20
0.0
 30
0.0
 70
     1
 71
    16
  0
VERTEX
  8
0
 10
60.42841
 20
220.3172
 30
0.0
  0
VERTEX
  8
0
 10
60.464569
 20
220.748352
 30
0.0
  0
VERTEX
  8
0
 10
60.573055
 20
221.071716
 30
0.0
  0
VERTEX
  8
0
 10
60.74482
 20
221.269913
 30
0.0
  0
VERTEX
  8
0
 10
60.970829
 20
221.339447
 30
0.0
  0
VERTEX
  8
0
 10
61.194576
 20
221.269913
 30
0.0
  0
VERTEX
  8
0
 10
61.366344
 20
221.071716
 30
0.0
  0
VERTEX
  8
0
 10
61.472569
 20
220.748352
 30
0.0
  0
VERTEX
  8
0
 10
61.51099
 20
220.3172
 30
0.0
  0
VERTEX
  8
0
 10
61.472569
 20
219.882568
 30
0.0
  0
VERTEX
  8
0
 10
61.366344
 20
219.559204
 30
0.0
  0
VERTEX
  8
0
 10
61.194576
 20
219.361008
 30
0.0
  0
VERTEX
  8
0
 10
60.970829
 20
219.294952
 30
0.0
  0
VERTEX
  8
0
 10
60.74482
 20
219.361008
 30
0.0
  0
VERTEX
  8
0
 10
60.573055
 20
219.559204
 30
0.0
  0
VERTEX
  8
0
 10
60.464569
 20
219.882568
 30
0.0
  0
SEQEND
  8
0
  0
POLYLINE
  8
0
 62
     7
 66
     1
 10
0.0
 20
0.0
 30
0.0
 70
     1
 71
    12
  0
VERTEX
  8
0
 10
62.514988
 20
219.068939
 30
0.0
  0
VERTEX
  8
0
 10
62.725174
 20
219.068939
 30
0.0
  0
VERTEX
  8
0
 10
62.725174
 20
221.096054
 30
0.0
  0
VERTEX
  8
0
 10
62.786198
 20
220.911774
 30
0.0
  0
VERTEX
  8
0
 10
63.561405
 20
219.068939
 30
0.0
  0
VERTEX
  8
0
 10
63.800976
 20
219.068939
 30
0.0
  0
VERTEX
  8
0
 10
63.800976
 20
221.568939
 30
0.0
  0
VERTEX
  8
0
 10
63.590786
 20
221.568939
 30
0.0
  0
VERTEX
  8
0
 10
63.590786
 20
219.541824
 30
0.0
  0
VERTEX
  8
0
 10
63.516205
 20
219.753922
 30
0.0
  0
VERTEX
  8
0
 10
62.756817
 20
221.568939
 30
0.0
  0
VERTEX
  8
0
 10
62.514988
 20
221.568939
 30
0.0
  0
SEQEND
  8
0
  0
POLYLINE
  8
0
 62
     7
 66
     1
 10
0.0
 20
0.0
 30
0.0
 70
     1
 71
     6
  0
VERTEX
  8
0
 10
64.646767
 20
219.068939
 30
0.0
  0
VERTEX
  8
0
 10
65.679626
 20
219.068939
 30
0.0
  0
VERTEX
  8
0
 10
65.679626
 20
219.385345
 30
0.0
  0
VERTEX
  8
0
 10
64.870514
 20
219.385345
 30
0.0
  0
VERTEX
  8
0
 10
64.870514
 20
221.568939
 30
0.0
  0
VERTEX
  8
0
 10
64.646767
 20
221.568939
 30
0.0
  0
SEQEND
  8
0
  0
POLYLINE
  8
0
 62
     7
 66
     1
 10
0.0
 20
0.0
 30
0.0
 70
     1
 71
     9
  0
VERTEX
  8
0
 10
66.986473
 20
219.068939
 30
0.0
  0
VERTEX
  8
0
 10
66.986473
 20
220.094666
 30
0.0
  0
VERTEX
  8
0
 10
67.565056
 20
221.568939
 30
0.0
  0
VERTEX
  8
0
 10
67.305145
 20
221.568939
 30
0.0
  0
VERTEX
  8
0
 10
66.873474
 20
220.386749
 30
0.0
  0
VERTEX
  8
0
 10
66.439537
 20
221.568939
 30
0.0
  0
VERTEX
  8
0
 10
66.161545
 20
221.568939
 30
0.0
  0
VERTEX
  8
0
 10
66.764984
 20
220.070328
 30
0.0
  0
VERTEX
  8
0
 10
66.764984
 20
219.068939
 30
0.0
  0
SEQEND
  8
0
  0
POLYLINE
  8
0
 62
     7
 66
     1
 10
0.0
 20
0.0
 30
0.0
 70
     1
 71
    10
  0
VERTEX
  8
0
 10
69.338005
 20
219.068939
 30
0.0
  0
VERTEX
  8
0
 10
69.559494
 20
219.068939
 30
0.0
  0
VERTEX
  8
0
 10
69.559494
 20
220.198975
 30
0.0
  0
VERTEX
  8
0
 10
70.318878
 20
220.198975
 30
0.0
  0
VERTEX
  8
0
 10
70.318878
 20
220.504959
 30
0.0
  0
VERTEX
  8
0
 10
69.559494
 20
220.504959
 30
0.0
  0
VERTEX
  8
0
 10
69.559494
 20
221.256012
 30
0.0
  0
VERTEX
  8
0
 10
70.429626
 20
221.256012
 30
0.0
  0
VERTEX
  8
0
 10
70.429626
 20
221.568939
 30
0.0
  0
VERTEX
  8
0
 10
69.338005
 20
221.568939
 30
0.0
  0
SEQEND
  8
0
  0
POLYLINE
  8
0
 62
     7
 66
     1
 10
0.0
 20
0.0
 30
0.0
 70
     1
 71
    32
  0
VERTEX
  8
0
 10
71.085571
 20
220.3172
 30
0.0
  0
VERTEX
  8
0
 10
71.09687
 20
220.018173
 30
0.0
  0
VERTEX
  8
0
 10
71.13755
 20
219.757401
 30
0.0
  0
VERTEX
  8
0
 10
71.203094
 20
219.531387
 30
0.0
  0
VERTEX
  8
0
 10
71.291237
 20
219.343628
 30
0.0
  0
VERTEX
  8
0
 10
71.401985
 20
219.194107
 30
0.0
  0
VERTEX
  8
0
 10
71.533066
 20
219.086319
 30
0.0
  0
VERTEX
  8
0
 10
71.684494
 20
219.023743
 30
0.0
  0
VERTEX
  8
0
 10
71.856262
 20
218.999405
 30
0.0
  0
VERTEX
  8
0
 10
72.025764
 20
219.023743
 30
0.0
  0
VERTEX
  8
0
 10
72.177193
 20
219.086319
 30
0.0
  0
VERTEX
  8
0
 10
72.308273
 20
219.194107
 30
0.0
  0
VERTEX
  8
0
 10
72.419022
 20
219.343628
 30
0.0
  0
VERTEX
  8
0
 10
72.507164
 20
219.531387
 30
0.0
  0
VERTEX
  8
0
 10
72.57045
 20
219.757401
 30
0.0
  0
VERTEX
  8
0
 10
72.608871
 20
220.018173
 30
0.0
  0
VERTEX
  8
0
 10
72.624687
 20
220.3172
 30
0.0
  0
VERTEX
  8
0
 10
72.61113
 20
220.612747
 30
0.0
  0
VERTEX
  8
0
 10
72.57045
 20
220.873535
 30
0.0
  0
VERTEX
  8
0
 10
72.504906
 20
221.099533
 30
0.0
  0
VERTEX
  8
0
 10
72.419022
 20
221.287292
 30
0.0
  0
VERTEX
  8
0
 10
72.308273
 20
221.436813
 30
0.0
  0
VERTEX
  8
0
 10
72.177193
 20
221.544601
 30
0.0
  0
VERTEX
  8
0
 10
72.025764
 20
221.610657
 30
0.0
  0
VERTEX
  8
0
 10
71.856262
 20
221.63501
 30
0.0
  0
VERTEX
  8
0
 10
71.684494
 20
221.610657
 30
0.0
  0
VERTEX
  8
0
 10
71.533066
 20
221.544601
 30
0.0
  0
VERTEX
  8
0
 10
71.401985
 20
221.436813
 30
0.0
  0
VERTEX
  8
0
 10
71.291237
 20
221.287292
 30
0.0
  0
VERTEX
  8
0
 10
71.203094
 20
221.099533
 30
0.0
  0
VERTEX
  8
0
 10
71.13755
 20
220.873535
 30
0.0
  0
VERTEX
  8
0
 10
71.09687
 20
220.612747
 30
0.0
  0
SEQEND
  8
0
  0
POLYLINE
  8
0
 62
     7
 66
     1
 10
0.0
 20
0.0
 30
0.0
 70
     1
 71
    16
  0
VERTEX
  8
0
 10
71.313843
 20
220.3172
 30
0.0
  0
VERTEX
  8
0
 10
71.349998
 20
220.748352
 30
0.0
  0
VERTEX
  8
0
 10
71.458481
 20
221.071716
 30
0.0
  0
VERTEX
  8
0
 10
71.630249
 20
221.269913
 30
0.0
  0
VERTEX
  8
0
 10
71.856262
 20
221.339447
 30
0.0
  0
VERTEX
  8
0
 10
72.080009
 20
221.269913
 30
0.0
  0
VERTEX
  8
0
 10
72.25177
 20
221.071716
 30
0.0
  0
VERTEX
  8
0
 10
72.358002
 20
220.748352
 30
0.0
  0
VERTEX
  8
0
 10
72.396423
 20
220.3172
 30
0.0
  0
VERTEX
  8
0
 10
72.358002
 20
219.882568
 30
0.0
  0
VERTEX
  8
0
 10
72.25177
 20
219.559204
 30
0.0
  0
VERTEX
  8
0
 10
72.080009
 20
219.361008
 30
0.0
  0
VERTEX
  8
0
 10
71.856262
 20
219.294952
 30
0.0
  0
VERTEX
  8
0
 10
71.630249
 20
219.361008
 30
0.0
  0
VERTEX
  8
0
 10
71.458481
 20
219.559204
 30
0.0
  0
VERTEX
  8
0
 10
71.349998
 20
219.882568
 30
0.0
  0
SEQEND
  8
0
  0
POLYLINE
  8
0
 62
     7
 66
     1
 10
0.0
 20
0.0
 30
0.0
 70
     1
 71
    30
  0
VERTEX
  8
0
 10
73.402679
 20
221.568939
 30
0.0
  0
VERTEX
  8
0
 10
73.402679
 20
219.068939
 30
0.0
  0
VERTEX
  8
0
 10
73.621902
 20
219.068939
 30
0.0
  0
VERTEX
  8
0
 10
73.621902
 20
220.139877
 30
0.0
  0
VERTEX
  8
0
 10
73.979004
 20
220.139877
 30
0.0
  0
VERTEX
  8
0
 10
74.150764
 20
220.12944
 30
0.0
  0
VERTEX
  8
0
 10
74.256989
 20
220.077286
 30
0.0
  0
VERTEX
  8
0
 10
74.31575
 20
219.959061
 30
0.0
  0
VERTEX
  8
0
 10
74.340614
 20
219.740005
 30
0.0
  0
VERTEX
  8
0
 10
74.354172
 20
219.413162
 30
0.0
  0
VERTEX
  8
0
 10
74.365471
 20
219.214981
 30
0.0
  0
VERTEX
  8
0
 10
74.397118
 20
219.068939
 30
0.0
  0
VERTEX
  8
0
 10
74.652504
 20
219.068939
 30
0.0
  0
VERTEX
  8
0
 10
74.652504
 20
219.138474
 30
0.0
  0
VERTEX
  8
0
 10
74.598267
 20
219.239319
 30
0.0
  0
VERTEX
  8
0
 10
74.577919
 20
219.430557
 30
0.0
  0
VERTEX
  8
0
 10
74.559845
 20
219.840851
 30
0.0
  0
VERTEX
  8
0
 10
74.544022
 20
220.014694
 30
0.0
  0
VERTEX
  8
0
 10
74.514641
 20
220.150299
 30
0.0
  0
VERTEX
  8
0
 10
74.460396
 20
220.244186
 30
0.0
  0
VERTEX
  8
0
 10
74.374512
 20
220.306763
 30
0.0
  0
VERTEX
  8
0
 10
74.469437
 20
220.40065
 30
0.0
  0
VERTEX
  8
0
 10
74.539497
 20
220.529297
 30
0.0
  0
VERTEX
  8
0
 10
74.582443
 20
220.68576
 30
0.0
  0
VERTEX
  8
0
 10
74.598267
 20
220.876999
 30
0.0
  0
VERTEX
  8
0
 10
74.582443
 20
221.071716
 30
0.0
  0
VERTEX
  8
0
 10
74.544022
 20
221.242096
 30
0.0
  0
VERTEX
  8
0
 10
74.388077
 20
221.48201
 30
0.0
  0
VERTEX
  8
0
 10
74.223091
 20
221.555038
 30
0.0
  0
VERTEX
  8
0
 10
74.033241
 20
221.568939
 30
0.0
  0
SEQEND
  8
0
  0
POLYLINE
  8
0
 62
     7
 66
     1
 10
0.0
 20
0.0
 30
0.0
 70
     1
 71
    11
  0
VERTEX
  8
0
 10
73.619644
 20
221.276871
 30
0.0
  0
VERTEX
  8
0
 10
73.997078
 20
221.276871
 30
0.0
  0
VERTEX
  8
0
 10
74.157547
 20
221.259476
 30
0.0
  0
VERTEX
  8
0
 10
74.27507
 20
221.196899
 30
0.0
  0
VERTEX
  8
0
 10
74.345131
 20
221.075195
 30
0.0
  0
VERTEX
  8
0
 10
74.369995
 20
220.870056
 30
0.0
  0
VERTEX
  8
0
 10
74.345131
 20
220.657959
 30
0.0
  0
VERTEX
  8
0
 10
74.277328
 20
220.522354
 30
0.0
  0
VERTEX
  8
0
 10
74.159805
 20
220.449326
 30
0.0
  0
VERTEX
  8
0
 10
73.997078
 20
220.428467
 30
0.0
  0
VERTEX
  8
0
 10
73.619644
 20
220.428467
 30
0.0
  0
SEQEND
  8
0
  0
POLYLINE
  8
0
 62
     7
 66
     1
 10
0.0
 20
0.0
 30
0.0
 70
     1
 71
     4
  0
VERTEX
  8
0
 10
76.527161
 20
219.068939
 30
0.0
  0
VERTEX
  8
0
 10
76.748642
 20
219.068939
 30
0.0
  0
VERTEX
  8
0
 10
76.748642
 20
221.568939
 30
0.0
  0
VERTEX
  8
0
 10
76.527161
 20
221.568939
 30
0.0
  0
SEQEND
  8
0
  0
POLYLINE
  8
0
 62
     7
 66
     1
 10
0.0
 20
0.0
 30
0.0
 70
     1
 71
    12
  0
VERTEX
  8
0
 10
77.601219
 20
219.068939
 30
0.0
  0
VERTEX
  8
0
 10
77.811401
 20
219.068939
 30
0.0
  0
VERTEX
  8
0
 10
77.811401
 20
221.096054
 30
0.0
  0
VERTEX
  8
0
 10
77.872429
 20
220.911774
 30
0.0
  0
VERTEX
  8
0
 10
78.647636
 20
219.068939
 30
0.0
  0
VERTEX
  8
0
 10
78.887207
 20
219.068939
 30
0.0
  0
VERTEX
  8
0
 10
78.887207
 20
221.568939
 30
0.0
  0
VERTEX
  8
0
 10
78.677017
 20
221.568939
 30
0.0
  0
VERTEX
  8
0
 10
78.677017
 20
219.541824
 30
0.0
  0
VERTEX
  8
0
 10
78.602432
 20
219.753922
 30
0.0
  0
VERTEX
  8
0
 10
77.843048
 20
221.568939
 30
0.0
  0
VERTEX
  8
0
 10
77.601219
 20
221.568939
 30
0.0
  0
SEQEND
  8
0
  0
POLYLINE
  8
0
 62
     7
 66
     1
 10
0.0
 20
0.0
 30
0.0
 70
     1
 71
    10
  0
VERTEX
  8
0
 10
79.733002
 20
219.068939
 30
0.0
  0
VERTEX
  8
0
 10
79.954483
 20
219.068939
 30
0.0
  0
VERTEX
  8
0
 10
79.954483
 20
220.198975
 30
0.0
  0
VERTEX
  8
0
 10
80.713875
 20
220.198975
 30
0.0
  0
VERTEX
  8
0
 10
80.713875
 20
220.504959
 30
0.0
  0
VERTEX
  8
0
 10
79.954483
 20
220.504959
 30
0.0
  0
VERTEX
  8
0
 10
79.954483
 20
221.256012
 30
0.0
  0
VERTEX
  8
0
 10
80.824615
 20
221.256012
 30
0.0
  0
VERTEX
  8
0
 10
80.824615
 20
221.568939
 30
0.0
  0
VERTEX
  8
0
 10
79.733002
 20
221.568939
 30
0.0
  0
SEQEND
  8
0
  0
POLYLINE
  8
0
 62
     7
 66
     1
 10
0.0
 20
0.0
 30
0.0
 70
     1
 71
    32
  0
VERTEX
  8
0
 10
81.48056
 20
220.3172
 30
0.0
  0
VERTEX
  8
0
 10
81.491867
 20
220.018173
 30
0.0
  0
VERTEX
  8
0
 10
81.532547
 20
219.757401
 30
0.0
  0
VERTEX
  8
0
 10
81.598091
 20
219.531387
 30
0.0
  0
VERTEX
  8
0
 10
81.686234
 20
219.343628
 30
0.0
  0
VERTEX
  8
0
 10
81.796974
 20
219.194107
 30
0.0
  0
VERTEX
  8
0
 10
81.928062
 20
219.086319
 30
0.0
  0
VERTEX
  8
0
 10
82.079483
 20
219.023743
 30
0.0
  0
VERTEX
  8
0
 10
82.251251
 20
218.999405
 30
0.0
  0
VERTEX
  8
0
 10
82.420761
 20
219.023743
 30
0.0
  0
VERTEX
  8
0
 10
82.572182
 20
219.086319
 30
0.0
  0
VERTEX
  8
0
 10
82.70327
 20
219.194107
 30
0.0
  0
VERTEX
  8
0
 10
82.814011
 20
219.343628
 30
0.0
  0
VERTEX
  8
0
 10
82.902161
 20
219.531387
 30
0.0
  0
VERTEX
  8
0
 10
82.965439
 20
219.757401
 30
0.0
  0
VERTEX
  8
0
 10
83.00386
 20
220.018173
 30
0.0
  0
VERTEX
  8
0
 10
83.019684
 20
220.3172
 30
0.0
  0
VERTEX
  8
0
 10
83.006119
 20
220.612747
 30
0.0
  0
VERTEX
  8
0
 10
82.965439
 20
220.873535
 30
0.0
  0
VERTEX
  8
0
 10
82.899895
 20
221.099533
 30
0.0
  0
VERTEX
  8
0
 10
82.814011
 20
221.287292
 30
0.0
  0
VERTEX
  8
0
 10
82.70327
 20
221.436813
 30
0.0
  0
VERTEX
  8
0
 10
82.572182
 20
221.544601
 30
0.0
  0
VERTEX
  8
0
 10
82.420761
 20
221.610657
 30
0.0
  0
VERTEX
  8
0
 10
82.251251
 20
221.63501
 30
0.0
  0
VERTEX
  8
0
 10
82.079483
 20
221.610657
 30
0.0
  0
VERTEX
  8
0
 10
81.928062
 20
221.544601
 30
0.0
  0
VERTEX
  8
0
 10
81.796974
 20
221.436813
 30
0.0
  0
VERTEX
  8
0
 10
81.686234
 20
221.287292
 30
0.0
  0
VERTEX
  8
0
 10
81.598091
 20
221.099533
 30
0.0
  0
VERTEX
  8
0
 10
81.532547
 20
220.873535
 30
0.0
  0
VERTEX
  8
0
 10
81.491867
 20
220.612747
 30
0.0
  0
SEQEND
  8
0
  0
POLYLINE
  8
0
 62
     7
 66
     1
 10
0.0
 20
0.0
 30
0.0
 70
     1
 71
    16
  0
VERTEX
  8
0
 10
81.708832
 20
220.3172
 30
0.0
  0
VERTEX
  8
0
 10
81.744995
 20
220.748352
 30
0.0
  0
VERTEX
  8
0
 10
81.853477
 20
221.071716
 30
0.0
  0
VERTEX
  8
0
 10
82.025246
 20
221.269913
 30
0.0
  0
VERTEX
  8
0
 10
82.251251
 20
221.339447
 30
0.0
  0
VERTEX
  8
0
 10
82.474998
 20
221.269913
 30
0.0
  0
VERTEX
  8
0
 10
82.646767
 20
221.071716
 30
0.0
  0
VERTEX
  8
0
 10
82.752991
 20
220.748352
 30
0.0
  0
VERTEX
  8
0
 10
82.791412
 20
220.3172
 30
0.0
  0
VERTEX
  8
0
 10
82.752991
 20
219.882568
 30
0.0
  0
VERTEX
  8
0
 10
82.646767
 20
219.559204
 30
0.0
  0
VERTEX
  8
0
 10
82.474998
 20
219.361008
 30
0.0
  0
VERTEX
  8
0
 10
82.251251
 20
219.294952
 30
0.0
  0
VERTEX
  8
0
 10
82.025246
 20
219.361008
 30
0.0
  0
VERTEX
  8
0
 10
81.853477
 20
219.559204
 30
0.0
  0
VERTEX
  8
0
 10
81.744995
 20
219.882568
 30
0.0
  0
SEQEND
  8
0
  0
POLYLINE
  8
0
 62
     7
 66
     1
 10
0.0
 20
0.0
 30
0.0
 70
     1
 71
    30
  0
VERTEX
  8
0
 10
83.797668
 20
221.568939
 30
0.0
  0
VERTEX
  8
0
 10
83.797668
 20
219.068939
 30
0.0
  0
VERTEX
  8
0
 10
84.016899
 20
219.068939
 30
0.0
  0
VERTEX
  8
0
 10
84.016899
 20
220.139877
 30
0.0
  0
VERTEX
  8
0
 10
84.373993
 20
220.139877
 30
0.0
  0
VERTEX
  8
0
 10
84.545761
 20
220.12944
 30
0.0
  0
VERTEX
  8
0
 10
84.651985
 20
220.077286
 30
0.0
  0
VERTEX
  8
0
 10
84.710747
 20
219.959061
 30
0.0
  0
VERTEX
  8
0
 10
84.735611
 20
219.740005
 30
0.0
  0
VERTEX
  8
0
 10
84.749168
 20
219.413162
 30
0.0
  0
VERTEX
  8
0
 10
84.760468
 20
219.214981
 30
0.0
  0
VERTEX
  8
0
 10
84.792107
 20
219.068939
 30
0.0
  0
VERTEX
  8
0
 10
85.047501
 20
219.068939
 30
0.0
  0
VERTEX
  8
0
 10
85.047501
 20
219.138474
 30
0.0
  0
VERTEX
  8
0
 10
84.993256
 20
219.239319
 30
0.0
  0
VERTEX
  8
0
 10
84.972916
 20
219.430557
 30
0.0
  0
VERTEX
  8
0
 10
84.954834
 20
219.840851
 30
0.0
  0
VERTEX
  8
0
 10
84.939011
 20
220.014694
 30
0.0
  0
VERTEX
  8
0
 10
84.909637
 20
220.150299
 30
0.0
  0
VERTEX
  8
0
 10
84.855392
 20
220.244186
 30
0.0
  0
VERTEX
  8
0
 10
84.769508
 20
220.306763
 30
0.0
  0
VERTEX
  8
0
 10
84.864433
 20
220.40065
 30
0.0
  0
VERTEX
  8
0
 10
84.934494
 20
220.529297
 30
0.0
  0
VERTEX
  8
0
 10
84.977432
 20
220.68576
 30
0.0
  0
VERTEX
  8
0
 10
84.993256
 20
220.876999
 30
0.0
  0
VERTEX
  8
0
 10
84.977432
 20
221.071716
 30
0.0
  0
VERTEX
  8
0
 10
84.939011
 20
221.242096
 30
0.0
  0
VERTEX
  8
0
 10
84.783066
 20
221.48201
 30
0.0
  0
VERTEX
  8
0
 10
84.61808
 20
221.555038
 30
0.0
  0
VERTEX
  8
0
 10
84.428238
 20
221.568939
 30
0.0
  0
SEQEND
  8
0
  0
POLYLINE
  8
0
 62
     7
 66
     1
 10
0.0
 20
0.0
 30
0.0
 70
     1
 71
    11
  0
VERTEX
  8
0
 10
84.014641
 20
221.276871
 30
0.0
  0
VERTEX
  8
0
 10
84.392075
 20
221.276871
 30
0.0
  0
VERTEX
  8
0
 10
84.552536
 20
221.259476
 30
0.0
  0
VERTEX
  8
0
 10
84.670067
 20
221.196899
 30
0.0
  0
VERTEX
  8
0
 10
84.740128
 20
221.075195
 30
0.0
  0
VERTEX
  8
0
 10
84.764984
 20
220.870056
 30
0.0
  0
VERTEX
  8
0
 10
84.740128
 20
220.657959
 30
0.0
  0
VERTEX
  8
0
 10
84.672325
 20
220.522354
 30
0.0
  0
VERTEX
  8
0
 10
84.554802
 20
220.449326
 30
0.0
  0
VERTEX
  8
0
 10
84.392075
 20
220.428467
 30
0.0
  0
VERTEX
  8
0
 10
84.014641
 20
220.428467
 30
0.0
  0
SEQEND
  8
0
  0
POLYLINE
  8
0
 62
     7
 66
     1
 10
0.0
 20
0.0
 30
0.0
 70
     1
 71
    17
  0
VERTEX
  8
0
 10
86.00177
 20
221.200378
 30
0.0
  0
VERTEX
  8
0
 10
86.037933
 20
220.981323
 30
0.0
  0
VERTEX
  8
0
 10
86.447006
 20
219.068939
 30
0.0
  0
VERTEX
  8
0
 10
86.654938
 20
219.068939
 30
0.0
  0
VERTEX
  8
0
 10
87.073051
 20
220.981323
 30
0.0
  0
VERTEX
  8
0
 10
87.111473
 20
221.200378
 30
0.0
  0
VERTEX
  8
0
 10
87.111473
 20
219.068939
 30
0.0
  0
VERTEX
  8
0
 10
87.326187
 20
219.068939
 30
0.0
  0
VERTEX
  8
0
 10
87.326187
 20
221.568939
 30
0.0
  0
VERTEX
  8
0
 10
87.009773
 20
221.568939
 30
0.0
  0
VERTEX
  8
0
 10
86.59166
 20
219.656555
 30
0.0
  0
VERTEX
  8
0
 10
86.555496
 20
219.451416
 30
0.0
  0
VERTEX
  8
0
 10
86.517075
 20
219.656555
 30
0.0
  0
VERTEX
  8
0
 10
86.114777
 20
221.568939
 30
0.0
  0
VERTEX
  8
0
 10
85.79837
 20
221.568939
 30
0.0
  0
VERTEX
  8
0
 10
85.79837
 20
219.068939
 30
0.0
  0
VERTEX
  8
0
 10
86.00177
 20
219.068939
 30
0.0
  0
SEQEND
  8
0
  0
POLYLINE
  8
0
 62
     7
 66
     1
 10
0.0
 20
0.0
 30
0.0
 70
     1
 71
     8
  0
VERTEX
  8
0
 10
87.993431
 20
219.068939
 30
0.0
  0
VERTEX
  8
0
 10
88.221695
 20
219.068939
 30
0.0
  0
VERTEX
  8
0
 10
88.395721
 20
219.816498
 30
0.0
  0
VERTEX
  8
0
 10
89.035324
 20
219.816498
 30
0.0
  0
VERTEX
  8
0
 10
89.207092
 20
219.068939
 30
0.0
  0
VERTEX
  8
0
 10
89.446663
 20
219.068939
 30
0.0
  0
VERTEX
  8
0
 10
88.840958
 20
221.568939
 30
0.0
  0
VERTEX
  8
0
 10
88.59687
 20
221.568939
 30
0.0
  0
SEQEND
  8
0
  0
POLYLINE
  8
0
 62
     7
 66
     1
 10
0.0
 20
0.0
 30
0.0
 70
     1
 71
     3
  0
VERTEX
  8
0
 10
88.463531
 20
220.108582
 30
0.0
  0
VERTEX
  8
0
 10
88.718918
 20
221.2108
 30
0.0
  0
VERTEX
  8
0
 10
88.969788
 20
220.108582
 30
0.0
  0
SEQEND
  8
0
  0
POLYLINE
  8
0
 62
     7
 66
     1
 10
0.0
 20
0.0
 30
0.0
 70
     1
 71
     8
  0
VERTEX
  8
0
 10
90.473267
 20
219.068939
 30
0.0
  0
VERTEX
  8
0
 10
90.694748
 20
219.068939
 30
0.0
  0
VERTEX
  8
0
 10
90.694748
 20
221.266434
 30
0.0
  0
VERTEX
  8
0
 10
91.207787
 20
221.266434
 30
0.0
  0
VERTEX
  8
0
 10
91.207787
 20
221.568939
 30
0.0
  0
VERTEX
  8
0
 10
89.96022
 20
221.568939
 30
0.0
  0
VERTEX
  8
0
 10
89.96022
 20
221.266434
 30
0.0
  0
VERTEX
  8
0
 10
90.473267
 20
221.266434
 30
0.0
  0
SEQEND
  8
0
  0
POLYLINE
  8
0
 62
     7
 66
     1
 10
0.0
 20
0.0
 30
0.0
 70
     1
 71
     4
  0
VERTEX
  8
0
 10
91.908936
 20
219.068939
 30
0.0
  0
VERTEX
  8
0
 10
92.130424
 20
219.068939
 30
0.0
  0
VERTEX
  8
0
 10
92.130424
 20
221.568939
 30
0.0
  0
VERTEX
  8
0
 10
91.908936
 20
221.568939
 30
0.0
  0
SEQEND
  8
0
  0
POLYLINE
  8
0
 62
     7
 66
     1
 10
0.0
 20
0.0
 30
0.0
 70
     1
 71
    32
  0
VERTEX
  8
0
 10
92.915192
 20
220.3172
 30
0.0
  0
VERTEX
  8
0
 10
92.926498
 20
220.018173
 30
0.0
  0
VERTEX
  8
0
 10
92.967178
 20
219.757401
 30
0.0
  0
VERTEX
  8
0
 10
93.032722
 20
219.531387
 30
0.0
  0
VERTEX
  8
0
 10
93.120865
 20
219.343628
 30
0.0
  0
VERTEX
  8
0
 10
93.231613
 20
219.194107
 30
0.0
  0
VERTEX
  8
0
 10
93.362694
 20
219.086319
 30
0.0
  0
VERTEX
  8
0
 10
93.514114
 20
219.023743
 30
0.0
  0
VERTEX
  8
0
 10
93.685883
 20
218.999405
 30
0.0
  0
VERTEX
  8
0
 10
93.855392
 20
219.023743
 30
0.0
  0
VERTEX
  8
0
 10
94.006821
 20
219.086319
 30
0.0
  0
VERTEX
  8
0
 10
94.137901
 20
219.194107
 30
0.0
  0
VERTEX
  8
0
 10
94.248642
 20
219.343628
 30
0.0
  0
VERTEX
  8
0
 10
94.336792
 20
219.531387
 30
0.0
  0
VERTEX
  8
0
 10
94.40007
 20
219.757401
 30
0.0
  0
VERTEX
  8
0
 10
94.438492
 20
220.018173
 30
0.0
  0
VERTEX
  8
0
 10
94.454315
 20
220.3172
 30
0.0
  0
VERTEX
  8
0
 10
94.44075
 20
220.612747
 30
0.0
  0
VERTEX
  8
0
 10
94.40007
 20
220.873535
 30
0.0
  0
VERTEX
  8
0
 10
94.334534
 20
221.099533
 30
0.0
  0
VERTEX
  8
0
 10
94.248642
 20
221.287292
 30
0.0
  0
VERTEX
  8
0
 10
94.137901
 20
221.436813
 30
0.0
  0
VERTEX
  8
0
 10
94.006821
 20
221.544601
 30
0.0
  0
VERTEX
  8
0
 10
93.855392
 20
221.610657
 30
0.0
  0
VERTEX
  8
0
 10
93.685883
 20
221.63501
 30
0.0
  0
VERTEX
  8
0
 10
93.514114
 20
221.610657
 30
0.0
  0
VERTEX
  8
0
 10
93.362694
 20
221.544601
 30
0.0
  0
VERTEX
  8
0
 10
93.231613
 20
221.436813
 30
0.0
  0
VERTEX
  8
0
 10
93.120865
 20
221.287292
 30
0.0
  0
VERTEX
  8
0
 10
93.032722
 20
221.099533
 30
0.0
  0
VERTEX
  8
0
 10
92.967178
 20
220.873535
 30
0.0
  0
VERTEX
  8
0
 10
92.926498
 20
220.612747
 30
0.0
  0
SEQEND
  8
0
  0
POLYLINE
  8
0
 62
     7
 66
     1
 10
0.0
 20
0.0
 30
0.0
 70
     1
 71
    16
  0
VERTEX
  8
0
 10
93.143463
 20
220.3172
 30
0.0
  0
VERTEX
  8
0
 10
93.179626
 20
220.748352
 30
0.0
  0
VERTEX
  8
0
 10
93.288116
 20
221.071716
 30
0.0
  0
VERTEX
  8
0
 10
93.459877
 20
221.269913
 30
0.0
  0
VERTEX
  8
0
 10
93.685883
 20
221.339447
 30
0.0
  0
VERTEX
  8
0
 10
93.909637
 20
221.269913
 30
0.0
  0
VERTEX
  8
0
 10
94.081406
 20
221.071716
 30
0.0
  0
VERTEX
  8
0
 10
94.187622
 20
220.748352
 30
0.0
  0
VERTEX
  8
0
 10
94.226044
 20
220.3172
 30
0.0
  0
VERTEX
  8
0
 10
94.187622
 20
219.882568
 30
0.0
  0
VERTEX
  8
0
 10
94.081406
 20
219.559204
 30
0.0
  0
VERTEX
  8
0
 10
93.909637
 20
219.361008
 30
0.0
  0
VERTEX
  8
0
 10
93.685883
 20
219.294952
 30
0.0
  0
VERTEX
  8
0
 10
93.459877
 20
219.361008
 30
0.0
  0
VERTEX
  8
0
 10
93.288116
 20
219.559204
 30
0.0
  0
VERTEX
  8
0
 10
93.179626
 20
219.882568
 30
0.0
  0
SEQEND
  8
0
  0
POLYLINE
  8
0
 62
     7
 66
     1
 10
0.0
 20
0.0
 30
0.0
 70
     1
 71
    12
  0
VERTEX
  8
0
 10
95.230042
 20
219.068939
 30
0.0
  0
VERTEX
  8
0
 10
95.440231
 20
219.068939
 30
0.0
  0
VERTEX
  8
0
 10
95.440231
 20
221.096054
 30
0.0
  0
VERTEX
  8
0
 10
95.501251
 20
220.911774
 30
0.0
  0
VERTEX
  8
0
 10
96.276459
 20
219.068939
 30
0.0
  0
VERTEX
  8
0
 10
96.516029
 20
219.068939
 30
0.0
  0
VERTEX
  8
0
 10
96.516029
 20
221.568939
 30
0.0
  0
VERTEX
  8
0
 10
96.305847
 20
221.568939
 30
0.0
  0
VERTEX
  8
0
 10
96.305847
 20
219.541824
 30
0.0
  0
VERTEX
  8
0
 10
96.231262
 20
219.753922
 30
0.0
  0
VERTEX
  8
0
 10
95.471878
 20
221.568939
 30
0.0
  0
VERTEX
  8
0
 10
95.230042
 20
221.568939
 30
0.0
  0
SEQEND
  8
0
  0
LINE
  8
0
 62
     7
 10
95.746178
 20
111.402191
 30
0.0
 11
95.746178
 21
112.198357
 31
0.0
210
0.0
220
0.0
230
1.0
  0
ARC
  8
0
 62
     7
 10
94.396179
 20
110.74836
 30
0.0
 40
1.5
 50
25.841934
 51
90.000003
210
0.0
220
0.0
230
1.0
  0
ARC
  8
0
 62
     7
 10
94.396179
 20
110.74836
 30
0.0
 40
1.5
 50
20.000001
 51
25.841934
210
0.0
220
0.0
230
1.0
  0
ARC
  8
0
 62
     7
 10
97.496178
 20
112.198357
 30
0.0
 40
1.75
 50
120.949727
 51
180.000005
210
0.0
220
0.0
230
1.0
  0
LINE
  8
0
 62
     7
 10
95.805717
 20
111.261391
 30
0.0
 11
96.356415
 21
109.74836
 31
0.0
210
0.0
220
0.0
230
1.0
  0
LINE
  8
0
 62
     7
 10
108.596176
 20
109.74836
 30
0.0
 11
121.446175
 21
109.74836
 31
0.0
210
0.0
220
0.0
230
1.0
  0
LINE
  8
0
 62
     7
 10
108.596176
 20
109.74836
 30
0.0
 11
96.356415
 21
109.74836
 31
0.0
210
0.0
220
0.0
230
1.0
  0
LINE
  8
0
 62
     7
 10
85.096176
 20
112.24836
 30
0.0
 11
94.096176
 21
112.24836
 31
0.0
210
0.0
220
0.0
230
1.0
  0
LINE
  8
0
 62
     7
 10
94.096176
 20
112.24836
 30
0.0
 11
94.396179
 21
112.24836
 31
0.0
210
0.0
220
0.0
230
1.0
  0
LINE
  8
0
 62
     7
 10
70.473358
 20
163.347473
 30
0.0
 11
70.705933
 21
163.670532
 31
0.0
210
0.0
220
0.0
230
1.0
  0
LINE
  8
0
 62
     7
 10
70.473358
 20
163.347473
 30
0.0
 11
68.809738
 21
161.03656
 31
0.0
210
0.0
220
0.0
230
1.0
  0
LINE
  8
0
 62
     7
 10
70.473358
 20
163.347473
 30
0.0
 11
71.685669
 21
159.75087
 31
0.0
210
0.0
220
0.0
230
1.0
  0
LINE
  8
0
 62
     7
 10
71.696487
 20
156.781082
 30
0.0
 11
71.685669
 21
159.75087
 31
0.0
210
0.0
220
0.0
230
1.0
  0
LINE
  8
0
 62
     7
 10
71.696487
 20
156.781082
 30
0.0
 11
77.796219
 21
140.017426
 31
0.0
210
0.0
220
0.0
230
1.0
  0
LINE
  8
0
 62
     7
 10
77.796219
 20
140.017426
 30
0.0
 11
76.41021
 21
139.294708
 31
0.0
210
0.0
220
0.0
230
1.0
  0
LINE
  8
0
 62
     7
 10
76.41021
 20
139.294708
 30
0.0
 11
72.042877
 21
141.909363
 31
0.0
210
0.0
220
0.0
230
1.0
  0
LINE
  8
0
 62
     7
 10
72.042877
 20
141.909363
 30
0.0
 11
68.946991
 21
144.992355
 31
0.0
210
0.0
220
0.0
230
1.0
  0
LINE
  8
0
 62
     7
 10
68.946991
 20
144.992355
 30
0.0
 11
67.995636
 21
147.603592
 31
0.0
210
0.0
220
0.0
230
1.0
  0
LINE
  8
0
 62
     7
 10
67.995636
 20
147.603592
 30
0.0
 11
64.831917
 21
145.831818
 31
0.0
210
0.0
220
0.0
230
1.0
  0
LINE
  8
0
 62
     7
 10
64.831917
 20
145.831818
 30
0.0
 11
62.890903
 21
149.29776
 31
0.0
210
0.0
220
0.0
230
1.0
  0
LINE
  8
0
 62
     7
 10
64.831917
 20
145.831818
 30
0.0
 11
70.79731
 21
135.17984
 31
0.0
210
0.0
220
0.0
230
1.0
  0
ARC
  8
0
 62
     7
 10
69.488571
 20
134.446915
 30
0.0
 40
1.5
 50
324.250001
 51
29.249998
210
0.0
220
0.0
230
1.0
  0
LINE
  8
0
 62
     7
 10
70.473358
 20
133.247482
 30
0.0
 11
70.705933
 21
133.570541
 31
0.0
210
0.0
220
0.0
230
1.0
  0
LINE
  8
0
 62
     7
 10
68.809738
 20
130.936569
 30
0.0
 11
70.473358
 21
133.247482
 31
0.0
210
0.0
220
0.0
230
1.0
  0
LINE
  8
0
 62
     7
 10
70.473358
 20
133.247482
 30
0.0
 11
71.685669
 21
129.650879
 31
0.0
210
0.0
220
0.0
230
1.0
  0
LINE
  8
0
 62
     7
 10
71.696487
 20
126.681076
 30
0.0
 11
71.685669
 21
129.650879
 31
0.0
210
0.0
220
0.0
230
1.0
  0
LINE
  8
0
 62
     7
 10
76.186043
 20
114.342621
 30
0.0
 11
72.929466
 21
123.292534
 31
0.0
210
0.0
220
0.0
230
1.0
  0
LINE
  8
0
 62
     7
 10
76.186043
 20
114.342621
 30
0.0
 11
77.796219
 21
109.917427
 31
0.0
210
0.0
220
0.0
230
1.0
  0
LINE
  8
0
 62
     7
 10
71.696487
 20
126.681076
 30
0.0
 11
72.929466
 21
123.292534
 31
0.0
210
0.0
220
0.0
230
1.0
  0
LINE
  8
0
 62
     7
 10
78.696175
 20
126.522049
 30
0.0
 11
72.929466
 21
123.292534
 31
0.0
210
0.0
220
0.0
230
1.0
  0
LINE
  8
0
 62
     7
 10
78.696175
 20
122.24836
 30
0.0
 11
78.696175
 21
126.522049
 31
0.0
210
0.0
220
0.0
230
1.0
  0
LINE
  8
0
 62
     7
 10
80.496178
 20
122.24836
 30
0.0
 11
78.696175
 21
122.24836
 31
0.0
210
0.0
220
0.0
230
1.0
  0
LINE
  8
0
 62
     7
 10
80.496178
 20
116.74836
 30
0.0
 11
80.496178
 21
118.24836
 31
0.0
210
0.0
220
0.0
230
1.0
  0
LINE
  8
0
 62
     7
 10
80.496178
 20
118.24836
 30
0.0
 11
80.496178
 21
122.24836
 31
0.0
210
0.0
220
0.0
230
1.0
  0
LINE
  8
0
 62
     7
 10
80.496178
 20
118.24836
 30
0.0
 11
94.096176
 21
118.24836
 31
0.0
210
0.0
220
0.0
230
1.0
  0
LINE
  8
0
 62
     7
 10
94.096176
 20
112.24836
 30
0.0
 11
94.096176
 21
118.24836
 31
0.0
210
0.0
220
0.0
230
1.0
  0
LINE
  8
0
 62
     7
 10
96.596176
 20
122.558357
 30
0.0
 11
96.596176
 21
113.699196
 31
0.0
210
0.0
220
0.0
230
1.0
  0
LINE
  8
0
 62
     7
 10
96.596176
 20
122.558357
 30
0.0
 11
120.596176
 21
122.558357
 31
0.0
210
0.0
220
0.0
230
1.0
  0
LINE
  8
0
 62
     7
 10
120.596176
 20
122.558357
 30
0.0
 11
120.596176
 21
113.699196
 31
0.0
210
0.0
220
0.0
230
1.0
  0
ARC
  8
0
 62
     7
 10
119.696175
 20
112.198357
 30
0.0
 40
1.75
 50
0.0
 51
59.050278
210
0.0
220
0.0
230
1.0
  0
LINE
  8
0
 62
     7
 10
121.446175
 20
109.74836
 30
0.0
 11
121.446175
 21
112.198357
 31
0.0
210
0.0
220
0.0
230
1.0
  0
LINE
  8
0
 62
     7
 10
124.203354
 20
109.74836
 30
0.0
 11
121.446175
 21
109.74836
 31
0.0
210
0.0
220
0.0
230
1.0
  0
LINE
  8
0
 62
     7
 10
124.896179
 20
110.148361
 30
0.0
 11
124.203354
 21
109.74836
 31
0.0
210
0.0
220
0.0
230
1.0
  0
LINE
  8
0
 62
     7
 10
124.896179
 20
110.148361
 30
0.0
 11
124.896179
 21
111.948357
 31
0.0
210
0.0
220
0.0
230
1.0
  0
ARC
  8
0
 62
     7
 10
126.096176
 20
111.948357
 30
0.0
 40
1.2
 50
0.0
 51
180.000005
210
0.0
220
0.0
230
1.0
  0
LINE
  8
0
 62
     7
 10
127.296173
 20
111.948357
 30
0.0
 11
127.296173
 21
109.74836
 31
0.0
210
0.0
220
0.0
230
1.0
  0
LINE
  8
0
 62
     7
 10
139.413864
 20
109.74836
 30
0.0
 11
127.296173
 21
109.74836
 31
0.0
210
0.0
220
0.0
230
1.0
  0
ARC
  8
0
 62
     7
 10
139.413864
 20
108.24836
 30
0.0
 40
1.5
 50
56.442689
 51
73.597638
210
0.0
220
0.0
230
1.0
  0
ARC
  8
0
 62
     7
 10
139.413864
 20
108.24836
 30
0.0
 40
1.5
 50
73.597638
 51
90.000003
210
0.0
220
0.0
230
1.0
  0
LINE
  8
0
 62
     7
 10
139.837433
 20
109.687317
 30
0.0
 11
139.396133
 21
109.917427
 31
0.0
210
0.0
220
0.0
230
1.0
  0
LINE
  8
0
 62
     7
 10
145.495865
 20
126.681076
 30
0.0
 11
144.262878
 21
123.292534
 31
0.0
210
0.0
220
0.0
230
1.0
  0
LINE
  8
0
 62
     7
 10
141.006317
 20
114.342621
 30
0.0
 11
139.396133
 21
109.917427
 31
0.0
210
0.0
220
0.0
230
1.0
  0
LINE
  8
0
 62
     7
 10
141.006317
 20
114.342621
 30
0.0
 11
144.262878
 21
123.292534
 31
0.0
210
0.0
220
0.0
230
1.0
  0
LINE
  8
0
 62
     7
 10
141.006317
 20
114.342621
 30
0.0
 11
138.49617
 21
115.74836
 31
0.0
210
0.0
220
0.0
230
1.0
  0
LINE
  8
0
 62
     7
 10
138.49617
 20
115.74836
 30
0.0
 11
138.49617
 21
122.24836
 31
0.0
210
0.0
220
0.0
230
1.0
  0
LINE
  8
0
 62
     7
 10
138.49617
 20
115.74836
 30
0.0
 11
138.49617
 21
115.740311
 31
0.0
210
0.0
220
0.0
230
1.0
  0
LINE
  8
0
 62
     7
 10
138.49617
 20
115.740311
 30
0.0
 11
136.696182
 21
116.74836
 31
0.0
210
0.0
220
0.0
230
1.0
  0
LINE
  8
0
 62
     7
 10
136.696182
 20
116.74836
 30
0.0
 11
136.696182
 21
122.24836
 31
0.0
210
0.0
220
0.0
230
1.0
  0
LINE
  8
0
 62
     7
 10
136.696182
 20
122.24836
 30
0.0
 11
138.49617
 21
122.24836
 31
0.0
210
0.0
220
0.0
230
1.0
  0
LINE
  8
0
 62
     7
 10
138.49617
 20
122.24836
 30
0.0
 11
138.49617
 21
126.522049
 31
0.0
210
0.0
220
0.0
230
1.0
  0
LINE
  8
0
 62
     7
 10
138.49617
 20
126.522049
 30
0.0
 11
144.262878
 21
123.292534
 31
0.0
210
0.0
220
0.0
230
1.0
  0
LINE
  8
0
 62
     7
 10
145.495865
 20
126.681076
 30
0.0
 11
145.506683
 21
129.650879
 31
0.0
210
0.0
220
0.0
230
1.0
  0
LINE
  8
0
 62
     7
 10
146.718994
 20
133.247482
 30
0.0
 11
145.506683
 21
129.650879
 31
0.0
210
0.0
220
0.0
230
1.0
  0
LINE
  8
0
 62
     7
 10
148.382614
 20
130.936569
 30
0.0
 11
146.718994
 21
133.247482
 31
0.0
210
0.0
220
0.0
230
1.0
  0
LINE
  8
0
 62
     7
 10
146.718994
 20
133.247482
 30
0.0
 11
146.48642
 21
133.570541
 31
0.0
210
0.0
220
0.0
230
1.0
  0
ARC
  8
0
 62
     7
 10
147.703781
 20
134.446915
 30
0.0
 40
1.5
 50
150.750007
 51
215.749997
210
0.0
220
0.0
230
1.0
  0
LINE
  8
0
 62
     7
 10
152.360443
 20
145.831818
 30
0.0
 11
146.39505
 21
135.17984
 31
0.0
210
0.0
220
0.0
230
1.0
  0
LINE
  8
0
 62
     7
 10
152.360443
 20
145.831818
 30
0.0
 11
154.301453
 21
149.29776
 31
0.0
210
0.0
220
0.0
230
1.0
  0
LINE
  8
0
 62
     7
 10
149.196716
 20
147.603592
 30
0.0
 11
152.360443
 21
145.831818
 31
0.0
210
0.0
220
0.0
230
1.0
  0
LINE
  8
0
 62
     7
 10
148.245361
 20
144.992355
 30
0.0
 11
149.196716
 21
147.603592
 31
0.0
210
0.0
220
0.0
230
1.0
  0
LINE
  8
0
 62
     7
 10
145.149475
 20
141.909363
 30
0.0
 11
148.245361
 21
144.992355
 31
0.0
210
0.0
220
0.0
230
1.0
  0
LINE
  8
0
 62
     7
 10
140.782135
 20
139.294708
 30
0.0
 11
145.149475
 21
141.909363
 31
0.0
210
0.0
220
0.0
230
1.0
  0
LINE
  8
0
 62
     7
 10
139.396133
 20
140.017426
 30
0.0
 11
140.782135
 21
139.294708
 31
0.0
210
0.0
220
0.0
230
1.0
  0
LINE
  8
0
 62
     7
 10
145.495865
 20
156.781082
 30
0.0
 11
139.396133
 21
140.017426
 31
0.0
210
0.0
220
0.0
230
1.0
  0
LINE
  8
0
 62
     7
 10
145.495865
 20
156.781082
 30
0.0
 11
145.506683
 21
159.75087
 31
0.0
210
0.0
220
0.0
230
1.0
  0
LINE
  8
0
 62
     7
 10
146.718994
 20
163.347473
 30
0.0
 11
145.506683
 21
159.75087
 31
0.0
210
0.0
220
0.0
230
1.0
  0
LINE
  8
0
 62
     7
 10
146.718994
 20
163.347473
 30
0.0
 11
148.382614
 21
161.03656
 31
0.0
210
0.0
220
0.0
230
1.0
  0
LINE
  8
0
 62
     7
 10
146.718994
 20
163.347473
 30
0.0
 11
146.48642
 21
163.670532
 31
0.0
210
0.0
220
0.0
230
1.0
  0
ARC
  8
0
 62
     7
 10
147.703781
 20
164.546906
 30
0.0
 40
1.5
 50
150.750007
 51
215.749997
210
0.0
220
0.0
230
1.0
  0
LINE
  8
0
 62
     7
 10
146.39505
 20
165.279846
 30
0.0
 11
152.360443
 21
175.931824
 31
0.0
210
0.0
220
0.0
230
1.0
  0
LINE
  8
0
 62
     7
 10
152.360443
 20
175.931824
 30
0.0
 11
154.301453
 21
179.397751
 31
0.0
210
0.0
220
0.0
230
1.0
  0
LINE
  8
0
 62
     7
 10
149.196716
 20
177.703583
 30
0.0
 11
152.360443
 21
175.931824
 31
0.0
210
0.0
220
0.0
230
1.0
  0
LINE
  8
0
 62
     7
 10
148.245361
 20
175.092346
 30
0.0
 11
149.196716
 21
177.703583
 31
0.0
210
0.0
220
0.0
230
1.0
  0
LINE
  8
0
 62
     7
 10
145.149475
 20
172.009354
 30
0.0
 11
148.245361
 21
175.092346
 31
0.0
210
0.0
220
0.0
230
1.0
  0
LINE
  8
0
 62
     7
 10
140.782135
 20
169.394699
 30
0.0
 11
145.149475
 21
172.009354
 31
0.0
210
0.0
220
0.0
230
1.0
  0
LINE
  8
0
 62
     7
 10
139.396133
 20
170.117432
 30
0.0
 11
140.782135
 21
169.394699
 31
0.0
210
0.0
220
0.0
230
1.0
  0
LINE
  8
0
 62
     7
 10
145.495865
 20
186.881073
 30
0.0
 11
139.396133
 21
170.117432
 31
0.0
210
0.0
220
0.0
230
1.0
  0
LINE
  8
0
 62
     7
 10
145.495865
 20
186.881073
 30
0.0
 11
145.506683
 21
189.850876
 31
0.0
210
0.0
220
0.0
230
1.0
  0
LINE
  8
0
 62
     7
 10
146.718994
 20
193.447479
 30
0.0
 11
145.506683
 21
189.850876
 31
0.0
210
0.0
220
0.0
230
1.0
  0
LINE
  8
0
 62
     7
 10
148.382614
 20
191.136566
 30
0.0
 11
146.718994
 21
193.447479
 31
0.0
210
0.0
220
0.0
230
1.0
  0
LINE
  8
0
 62
     7
 10
146.718994
 20
193.447479
 30
0.0
 11
146.680786
 21
193.500549
 31
0.0
210
0.0
220
0.0
230
1.0
  0
ARC
  8
0
 62
     7
 10
148.094208
 20
194.002762
 30
0.0
 40
1.5
 50
163.750001
 51
199.560496
210
0.0
220
0.0
230
1.0
  0
LINE
  8
0
 62
     7
 10
147.517242
 20
197.383667
 30
0.0
 11
146.654144
 21
194.422516
 31
0.0
210
0.0
220
0.0
230
1.0
  0
LINE
  8
0
 62
     7
 10
147.517242
 20
197.383667
 30
0.0
 11
150.596176
 21
202.8815
 31
0.0
210
0.0
220
0.0
230
1.0
  0
LINE
  8
0
 62
     7
 10
150.596176
 20
203.098358
 30
0.0
 11
150.596176
 21
208.748352
 31
0.0
210
0.0
220
0.0
230
1.0
  0
LINE
  8
0
 62
     7
 10
150.596176
 20
203.098358
 30
0.0
 11
150.596176
 21
202.8815
 31
0.0
210
0.0
220
0.0
230
1.0
  0
LINE
  8
0
 62
     7
 10
145.746185
 20
203.098358
 30
0.0
 11
146.696167
 21
203.098358
 31
0.0
210
0.0
220
0.0
230
1.0
  0
LINE
  8
0
 62
     7
 10
150.596176
 20
203.098358
 30
0.0
 11
146.696167
 21
203.098358
 31
0.0
210
0.0
220
0.0
230
1.0
  0
LINE
  8
0
 62
     7
 10
146.696167
 20
199.148361
 30
0.0
 11
146.696167
 21
203.098358
 31
0.0
210
0.0
220
0.0
230
1.0
  0
LINE
  8
0
 62
     7
 10
68.809738
 20
161.03656
 30
0.0
 11
71.668182
 21
155.932465
 31
0.0
210
0.0
220
0.0
230
1.0
  0
ARC
  8
0
 62
     7
 10
70.359436
 20
155.199539
 30
0.0
 40
1.5
 50
299.250003
 51
29.249998
210
0.0
220
0.0
230
1.0
  0
LINE
  8
0
 62
     7
 10
62.890903
 20
149.29776
 30
0.0
 11
71.092361
 21
153.890793
 31
0.0
210
0.0
220
0.0
230
1.0
  0
LINE
  8
0
 62
     7
 10
68.809738
 20
130.936569
 30
0.0
 11
71.668182
 21
125.832466
 31
0.0
210
0.0
220
0.0
230
1.0
  0
ARC
  8
0
 62
     7
 10
70.359436
 20
125.099533
 30
0.0
 40
1.5
 50
299.250003
 51
29.249998
210
0.0
220
0.0
230
1.0
  0
LINE
  8
0
 62
     7
 10
62.890903
 20
119.197754
 30
0.0
 11
71.092361
 21
123.790794
 31
0.0
210
0.0
220
0.0
230
1.0
  0
LINE
  8
0
 62
     7
 10
62.890903
 20
119.197754
 30
0.0
 11
64.404922
 21
116.494278
 31
0.0
210
0.0
220
0.0
230
1.0
  0
ARC
  8
0
 62
     7
 10
73.596176
 20
109.24836
 30
0.0
 40
1.5
 50
80.191455
 51
90.000003
210
0.0
220
0.0
230
1.0
  0
ARC
  8
0
 62
     7
 10
73.596176
 20
109.24836
 30
0.0
 40
1.5
 50
24.903947
 51
37.992026
210
0.0
220
0.0
230
1.0
  0
ARC
  8
0
 62
     7
 10
73.596176
 20
109.24836
 30
0.0
 40
1.5
 50
37.992026
 51
80.191455
210
0.0
220
0.0
230
1.0
  0
ARC
  8
0
 62
     7
 10
75.77301
 20
110.258995
 30
0.0
 40
0.9
 50
204.903944
 51
234.647396
210
0.0
220
0.0
230
1.0
  0
ARC
  8
0
 62
     7
 10
76.120178
 20
110.74836
 30
0.0
 40
1.5
 50
234.647396
 51
276.96578
210
0.0
220
0.0
230
1.0
  0
ARC
  8
0
 62
     7
 10
76.120178
 20
110.74836
 30
0.0
 40
1.5
 50
276.96578
 51
303.557311
210
0.0
220
0.0
230
1.0
  0
ARC
  8
0
 62
     7
 10
77.778488
 20
108.24836
 30
0.0
 40
1.5
 50
106.402367
 51
123.557316
210
0.0
220
0.0
230
1.0
  0
ARC
  8
0
 62
     7
 10
77.778488
 20
108.24836
 30
0.0
 40
1.5
 50
90.000003
 51
106.402367
210
0.0
220
0.0
230
1.0
  0
LINE
  8
0
 62
     7
 10
77.778488
 20
109.74836
 30
0.0
 11
80.096176
 21
109.74836
 31
0.0
210
0.0
220
0.0
230
1.0
  0
LINE
  8
0
 62
     7
 10
83.596176
 20
109.74836
 30
0.0
 11
80.096176
 21
109.74836
 31
0.0
210
0.0
220
0.0
230
1.0
  0
LINE
  8
0
 62
     7
 10
83.596176
 20
109.74836
 30
0.0
 11
83.596176
 21
110.74836
 31
0.0
210
0.0
220
0.0
230
1.0
  0
ARC
  8
0
 62
     7
 10
85.096176
 20
110.74836
 30
0.0
 40
1.5
 50
90.000003
 51
180.000005
210
0.0
220
0.0
230
1.0
  0
ARC
  8
0
 62
     7
 10
141.072174
 20
110.74836
 30
0.0
 40
1.5
 50
263.034222
 51
305.352602
210
0.0
220
0.0
230
1.0
  0
ARC
  8
0
 62
     7
 10
141.072174
 20
110.74836
 30
0.0
 40
1.5
 50
236.442684
 51
263.034222
210
0.0
220
0.0
230
1.0
  0
ARC
  8
0
 62
     7
 10
141.419342
 20
110.258995
 30
0.0
 40
0.9
 50
305.352602
 51
335.096053
210
0.0
220
0.0
230
1.0
  0
ARC
  8
0
 62
     7
 10
143.596176
 20
109.24836
 30
0.0
 40
1.5
 50
90.000003
 51
99.808543
210
0.0
220
0.0
230
1.0
  0
ARC
  8
0
 62
     7
 10
143.596176
 20
109.24836
 30
0.0
 40
1.5
 50
99.808543
 51
142.007979
210
0.0
220
0.0
230
1.0
  0
ARC
  8
0
 62
     7
 10
143.596176
 20
109.24836
 30
0.0
 40
1.5
 50
142.007979
 51
155.096056
210
0.0
220
0.0
230
1.0
  0
LINE
  8
0
 62
     7
 10
154.301453
 20
119.197754
 30
0.0
 11
152.78743
 21
116.494278
 31
0.0
210
0.0
220
0.0
230
1.0
  0
LINE
  8
0
 62
     7
 10
154.301453
 20
119.197754
 30
0.0
 11
146.099991
 21
123.790794
 31
0.0
210
0.0
220
0.0
230
1.0
  0
ARC
  8
0
 62
     7
 10
146.832916
 20
125.099533
 30
0.0
 40
1.5
 50
150.750007
 51
240.750006
210
0.0
220
0.0
230
1.0
  0
LINE
  8
0
 62
     7
 10
148.382614
 20
130.936569
 30
0.0
 11
145.52417
 21
125.832466
 31
0.0
210
0.0
220
0.0
230
1.0
  0
LINE
  8
0
 62
     7
 10
154.301453
 20
149.29776
 30
0.0
 11
146.099991
 21
153.890793
 31
0.0
210
0.0
220
0.0
230
1.0
  0
ARC
  8
0
 62
     7
 10
146.832916
 20
155.199539
 30
0.0
 40
1.5
 50
150.750007
 51
240.750006
210
0.0
220
0.0
230
1.0
  0
LINE
  8
0
 62
     7
 10
148.382614
 20
161.03656
 30
0.0
 11
145.52417
 21
155.932465
 31
0.0
210
0.0
220
0.0
230
1.0
  0
LINE
  8
0
 62
     7
 10
154.301453
 20
179.397751
 30
0.0
 11
146.099991
 21
183.990784
 31
0.0
210
0.0
220
0.0
230
1.0
  0
ARC
  8
0
 62
     7
 10
146.832916
 20
185.29953
 30
0.0
 40
1.5
 50
150.750007
 51
240.750006
210
0.0
220
0.0
230
1.0
  0
LINE
  8
0
 62
     7
 10
148.382614
 20
191.136566
 30
0.0
 11
145.52417
 21
186.032471
 31
0.0
210
0.0
220
0.0
230
1.0
  0
LINE
  8
0
 62
     7
 10
147.346176
 20
208.748352
 30
0.0
 11
150.596176
 21
208.748352
 31
0.0
210
0.0
220
0.0
230
1.0
  0
LINE
  8
0
 62
     7
 10
147.346176
 20
208.748352
 30
0.0
 11
147.346176
 21
206.948364
 31
0.0
210
0.0
220
0.0
230
1.0
  0
ARC
  8
0
 62
     7
 10
146.146179
 20
206.948364
 30
0.0
 40
1.2
 50
318.59038
 51
0.0
210
0.0
220
0.0
230
1.0
  0
ARC
  8
0
 62
     7
 10
146.146179
 20
206.948364
 30
0.0
 40
1.2
 50
180.000005
 51
221.409615
210
0.0
220
0.0
230
1.0
  0
ARC
  8
0
 62
     7
 10
146.146179
 20
206.948364
 30
0.0
 40
1.2
 50
221.409615
 51
318.59038
210
0.0
220
0.0
230
1.0
  0
LINE
  8
0
 62
     7
 10
66.596176
 20
208.748352
 30
0.0
 11
70.146179
 21
208.748352
 31
0.0
210
0.0
220
0.0
230
1.0
  0
LINE
  8
0
 62
     7
 10
70.146179
 20
208.748352
 30
0.0
 11
71.946175
 21
208.748352
 31
0.0
210
0.0
220
0.0
230
1.0
  0
LINE
  8
0
 62
     7
 10
108.596176
 20
208.748352
 30
0.0
 11
71.946175
 21
208.748352
 31
0.0
210
0.0
220
0.0
230
1.0
  0
LINE
  8
0
 62
     7
 10
80.496178
 20
116.74836
 30
0.0
 11
80.096176
 21
116.524345
 31
0.0
210
0.0
220
0.0
230
1.0
  0
ARC
  8
0
 62
     7
 10
63.096176
 20
115.761345
 30
0.0
 40
1.5
 50
360.0
 51
29.249998
210
0.0
220
0.0
230
1.0
  0
LINE
  8
0
 62
     7
 10
64.596176
 20
115.761345
 30
0.0
 11
64.596176
 21
115.5998
 31
0.0
210
0.0
220
0.0
230
1.0
  0
LINE
  8
0
 62
     7
 10
77.354919
 20
109.687317
 30
0.0
 11
77.796219
 21
109.917427
 31
0.0
210
0.0
220
0.0
230
1.0
  0
LINE
  8
0
 62
     7
 10
78.696175
 20
115.740311
 30
0.0
 11
80.096176
 21
116.524345
 31
0.0
210
0.0
220
0.0
230
1.0
  0
LINE
  8
0
 62
     7
 10
78.696175
 20
115.74836
 30
0.0
 11
78.696175
 21
115.740311
 31
0.0
210
0.0
220
0.0
230
1.0
  0
LINE
  8
0
 62
     7
 10
76.186043
 20
114.342621
 30
0.0
 11
78.696175
 21
115.74836
 31
0.0
210
0.0
220
0.0
230
1.0
  0
LINE
  8
0
 62
     7
 10
80.096176
 20
116.524345
 30
0.0
 11
80.096176
 21
109.74836
 31
0.0
210
0.0
220
0.0
230
1.0
  0
LINE
  8
0
 62
     7
 10
78.696175
 20
115.74836
 30
0.0
 11
78.696175
 21
122.24836
 31
0.0
210
0.0
220
0.0
230
1.0
  0
LINE
  8
0
 62
     7
 10
152.596176
 20
115.761345
 30
0.0
 11
152.596176
 21
115.5998
 31
0.0
210
0.0
220
0.0
230
1.0
  0
ARC
  8
0
 62
     7
 10
154.096176
 20
115.761345
 30
0.0
 40
1.5
 50
150.750007
 51
179.999995
210
0.0
220
0.0
230
1.0
  0
LINE
  8
0
 62
     7
 10
147.046173
 20
206.154633
 30
0.0
 11
147.046173
 21
204.748352
 31
0.0
210
0.0
220
0.0
230
1.0
  0
LINE
  8
0
 62
     7
 10
145.746185
 20
204.748352
 30
0.0
 11
147.046173
 21
204.748352
 31
0.0
210
0.0
220
0.0
230
1.0
  0
LINE
  8
0
 62
     7
 10
145.746185
 20
204.748352
 30
0.0
 11
145.746185
 21
203.098358
 31
0.0
210
0.0
220
0.0
230
1.0
  0
LINE
  8
0
 62
     7
 10
71.446175
 20
204.748352
 30
0.0
 11
71.446175
 21
203.098358
 31
0.0
210
0.0
220
0.0
230
1.0
  0
LINE
  8
0
 62
     7
 10
73.851715
 20
110.726433
 30
0.0
 11
72.042877
 21
111.809357
 31
0.0
210
0.0
220
0.0
230
1.0
  0
LINE
  8
0
 62
     7
 10
76.302094
 20
109.25943
 30
0.0
 11
74.77832
 21
110.171684
 31
0.0
210
0.0
220
0.0
230
1.0
  0
LINE
  8
0
 62
     7
 10
73.596176
 20
110.74836
 30
0.0
 11
64.596176
 21
110.74836
 31
0.0
210
0.0
220
0.0
230
1.0
  0
LINE
  8
0
 62
     7
 10
72.042877
 20
111.809357
 30
0.0
 11
68.946991
 21
114.892357
 31
0.0
210
0.0
220
0.0
230
1.0
  0
LINE
  8
0
 62
     7
 10
68.946991
 20
114.892357
 30
0.0
 11
67.995636
 21
117.503593
 31
0.0
210
0.0
220
0.0
230
1.0
  0
LINE
  8
0
 62
     7
 10
67.995636
 20
117.503593
 30
0.0
 11
64.596176
 21
115.5998
 31
0.0
210
0.0
220
0.0
230
1.0
  0
LINE
  8
0
 62
     7
 10
64.596176
 20
115.5998
 30
0.0
 11
64.596176
 21
110.74836
 31
0.0
210
0.0
220
0.0
230
1.0
  0
LINE
  8
0
 62
     7
 10
140.890259
 20
109.25943
 30
0.0
 11
142.414032
 21
110.171684
 31
0.0
210
0.0
220
0.0
230
1.0
  0
LINE
  8
0
 62
     7
 10
152.596176
 20
110.74836
 30
0.0
 11
143.596176
 21
110.74836
 31
0.0
210
0.0
220
0.0
230
1.0
  0
LINE
  8
0
 62
     7
 10
143.340637
 20
110.726433
 30
0.0
 11
145.149475
 21
111.809357
 31
0.0
210
0.0
220
0.0
230
1.0
  0
LINE
  8
0
 62
     7
 10
152.596176
 20
115.5998
 30
0.0
 11
152.596176
 21
110.74836
 31
0.0
210
0.0
220
0.0
230
1.0
  0
LINE
  8
0
 62
     7
 10
149.196716
 20
117.503593
 30
0.0
 11
152.596176
 21
115.5998
 31
0.0
210
0.0
220
0.0
230
1.0
  0
LINE
  8
0
 62
     7
 10
148.245361
 20
114.892357
 30
0.0
 11
149.196716
 21
117.503593
 31
0.0
210
0.0
220
0.0
230
1.0
  0
LINE
  8
0
 62
     7
 10
145.149475
 20
111.809357
 30
0.0
 11
148.245361
 21
114.892357
 31
0.0
210
0.0
220
0.0
230
1.0
  0
LINE
  8
0
 62
     7
 10
145.246185
 20
206.154633
 30
0.0
 11
145.246185
 21
204.748352
 31
0.0
210
0.0
220
0.0
230
1.0
  0
LINE
  8
0
 62
     7
 10
144.946167
 20
208.748352
 30
0.0
 11
144.946167
 21
206.948364
 31
0.0
210
0.0
220
0.0
230
1.0
  0
LINE
  8
0
 62
     7
 10
108.596176
 20
208.748352
 30
0.0
 11
144.946167
 21
208.748352
 31
0.0
210
0.0
220
0.0
230
1.0
  0
LINE
  8
0
 62
     7
 10
71.946175
 20
208.748352
 30
0.0
 11
71.946175
 21
204.748352
 31
0.0
210
0.0
220
0.0
230
1.0
  0
LINE
  8
0
 62
     7
 10
70.146179
 20
208.748352
 30
0.0
 11
70.146179
 21
204.748352
 31
0.0
210
0.0
220
0.0
230
1.0
  0
LINE
  8
0
 62
     7
 10
145.746185
 20
204.748352
 30
0.0
 11
145.246185
 21
204.748352
 31
0.0
210
0.0
220
0.0
230
1.0
  0
LINE
  8
0
 62
     7
 10
71.446175
 20
204.748352
 30
0.0
 11
70.146179
 21
204.748352
 31
0.0
210
0.0
220
0.0
230
1.0
  0
LINE
  8
0
 62
     7
 10
71.446175
 20
204.748352
 30
0.0
 11
71.946175
 21
204.748352
 31
0.0
210
0.0
220
0.0
230
1.0
  0
ARC
  8
0
 62
     7
 10
69.488571
 20
164.546906
 30
0.0
 40
1.5
 50
324.250001
 51
29.249998
210
0.0
220
0.0
230
1.0
  0
ARC
  8
0
 62
     7
 10
65.096176
 20
203.791092
 30
0.0
 40
1.5
 50
328.0
 51
360.0
210
0.0
220
0.0
230
1.0
  0
LINE
  8
0
 62
     7
 10
66.596176
 20
208.748352
 30
0.0
 11
66.596176
 21
204.549164
 31
0.0
210
0.0
220
0.0
230
1.0
  0
LINE
  8
0
 62
     7
 10
66.596176
 20
203.791092
 30
0.0
 11
66.596176
 21
204.549164
 31
0.0
210
0.0
220
0.0
230
1.0
  0
LINE
  8
0
 62
     7
 10
66.368248
 20
202.996216
 30
0.0
 11
57.56493
 21
188.907959
 31
0.0
210
0.0
220
0.0
230
1.0
  0
LINE
  8
0
 62
     7
 10
66.596176
 20
204.549164
 30
0.0
 11
68.917953
 21
203.098358
 31
0.0
210
0.0
220
0.0
230
1.0
  0
LINE
  8
0
 62
     7
 10
70.496178
 20
203.098358
 30
0.0
 11
70.496178
 21
202.112183
 31
0.0
210
0.0
220
0.0
230
1.0
  0
LINE
  8
0
 62
     7
 10
70.496178
 20
203.098358
 30
0.0
 11
68.917953
 21
203.098358
 31
0.0
210
0.0
220
0.0
230
1.0
  0
LINE
  8
0
 62
     7
 10
68.917953
 20
203.098358
 30
0.0
 11
70.496178
 21
202.112183
 31
0.0
210
0.0
220
0.0
230
1.0
  0
LINE
  8
0
 62
     7
 10
77.830139
 20
199.148361
 30
0.0
 11
75.239273
 21
199.148361
 31
0.0
210
0.0
220
0.0
230
1.0
  0
LINE
  8
0
 62
     7
 10
75.239273
 20
199.148361
 30
0.0
 11
76.556198
 21
198.325455
 31
0.0
210
0.0
220
0.0
230
1.0
  0
ARC
  8
0
 62
     7
 10
78.069969
 20
197.379547
 30
0.0
 40
1.785
 50
97.721634
 51
147.999995
210
0.0
220
0.0
230
1.0
  0
ARC
  8
0
 62
     7
 10
78.069969
 20
197.379547
 30
0.0
 40
1.785
 50
82.278364
 51
97.721634
210
0.0
220
0.0
230
1.0
  0
LINE
  8
0
 62
     7
 10
71.446175
 20
203.098358
 30
0.0
 11
70.496178
 21
203.098358
 31
0.0
210
0.0
220
0.0
230
1.0
  0
LINE
  8
0
 62
     7
 10
70.496178
 20
202.112183
 30
0.0
 11
75.239273
 21
199.148361
 31
0.0
210
0.0
220
0.0
230
1.0
  0
LINE
  8
0
 62
     7
 10
146.696167
 20
199.148361
 30
0.0
 11
78.309799
 21
199.148361
 31
0.0
210
0.0
220
0.0
230
1.0
  0
ARC
  8
0
 62
     7
 10
68.425438
 20
181.945068
 30
0.0
 40
1.785
 50
147.999995
 51
328.0
210
0.0
220
0.0
230
1.0
  0
LINE
  8
0
 62
     7
 10
78.00618
 20
175.958359
 30
0.0
 11
69.939201
 21
180.999161
 31
0.0
210
0.0
220
0.0
230
1.0
  0
LINE
  8
0
 62
     7
 10
87.650711
 20
191.392838
 30
0.0
 11
78.00618
 21
175.958359
 31
0.0
210
0.0
220
0.0
230
1.0
  0
LINE
  8
0
 62
     7
 10
79.583733
 20
196.43364
 30
0.0
 11
87.650711
 21
191.392838
 31
0.0
210
0.0
220
0.0
230
1.0
  0
ARC
  8
0
 62
     7
 10
78.069969
 20
197.379547
 30
0.0
 40
1.785
 50
328.0
 51
82.278364
210
0.0
220
0.0
230
1.0
  0
LINE
  8
0
 62
     7
 10
57.71698
 20
188.636459
 30
0.0
 11
64.439606
 21
184.435699
 31
0.0
210
0.0
220
0.0
230
1.0
  0
LINE
  8
0
 62
     7
 10
66.911667
 20
182.890976
 30
0.0
 11
64.439606
 21
184.435699
 31
0.0
210
0.0
220
0.0
230
1.0
  0
LINE
  8
0
 62
     7
 10
57.71698
 20
188.636459
 30
0.0
 11
62.134991
 21
180.747528
 31
0.0
210
0.0
220
0.0
230
1.0
  0
LINE
  8
0
 62
     7
 10
70.79731
 20
165.279846
 30
0.0
 11
62.134991
 21
180.747528
 31
0.0
210
0.0
220
0.0
230
1.0
  0
LINE
  8
0
 62
     7
 10
57.56493
 20
188.907959
 30
0.0
 11
57.71698
 21
188.636459
 31
0.0
210
0.0
220
0.0
230
1.0
  0
LINE
  8
0
 62
     7
 10
64.439606
 20
184.435699
 30
0.0
 11
62.134991
 21
180.747528
 31
0.0
210
0.0
220
0.0
230
1.0
  0
ENDSEC
  0
EOF
