  0
SECTION
  2
HEADER
  9
$ACADVER
  1
AC1009
  9
$DWGCODEPAGE
  3
ansi_1252
  9
$INSBASE
 10
0.0
 20
0.0
 30
0.0
  9
$EXTMIN
 10
0.0
 20
0.0
 30
0.0
  9
$EXTMAX
 10
155.099152
 20
237.751617
 30
2.0
  9
$LIMMIN
 10
0.0
 20
0.0
  9
$LIMMAX
 10
420.0
 20
297.0
  9
$ORTHOMODE
 70
     0
  9
$REGENMODE
 70
     1
  9
$FILLMODE
 70
     1
  9
$QTEXTMODE
 70
     0
  9
$MIRRTEXT
 70
     1
  9
$DRAGMODE
 70
     2
  9
$LTSCALE
 40
1.0
  9
$OSMODE
 70
     0
  9
$ATTMODE
 70
     1
  9
$TEXTSIZE
 40
2.5
  9
$TRACEWID
 40
1.0
  9
$TEXTSTYLE
  7
STANDARD
  9
$CLAYER
  8
0
  9
$CELTYPE
  6
BYLAYER
  9
$CECOLOR
 62
   256
  9
$DIMSCALE
 40
1.0
  9
$DIMASZ
 40
2.5
  9
$DIMEXO
 40
0.625
  9
$DIMDLI
 40
3.75
  9
$DIMRND
 40
0.0
  9
$DIMDLE
 40
0.0
  9
$DIMEXE
 40
1.25
  9
$DIMTP
 40
0.0
  9
$DIMTM
 40
0.0
  9
$DIMTXT
 40
2.5
  9
$DIMCEN
 40
2.5
  9
$DIMTSZ
 40
0.0
  9
$DIMTOL
 70
     0
  9
$DIMLIM
 70
     0
  9
$DIMTIH
 70
     0
  9
$DIMTOH
 70
     0
  9
$DIMSE1
 70
     0
  9
$DIMSE2
 70
     0
  9
$DIMTAD
 70
     1
  9
$DIMZIN
 70
     8
  9
$DIMBLK
  1

  9
$DIMASO
 70
     1
  9
$DIMSHO
 70
     1
  9
$DIMPOST
  1

  9
$DIMAPOST
  1

  9
$DIMALT
 70
     0
  9
$DIMALTD
 70
     3
  9
$DIMALTF
 40
0.03937
  9
$DIMLFAC
 40
1.0
  9
$DIMTOFL
 70
     1
  9
$DIMTVP
 40
0.0
  9
$DIMTIX
 70
     0
  9
$DIMSOXD
 70
     0
  9
$DIMSAH
 70
     0
  9
$DIMBLK1
  1

  9
$DIMBLK2
  1

  9
$DIMSTYLE
  2

  9
$DIMCLRD
 70
     0
  9
$DIMCLRE
 70
     0
  9
$DIMCLRT
 70
     0
  9
$DIMTFAC
 40
1.0
  9
$DIMGAP
 40
0.625
  9
$LUNITS
 70
     2
  9
$LUPREC
 70
     4
  9
$AXISMODE
 70
     0
  9
$AXISUNIT
 10
0.0
 20
0.0
  9
$SKETCHINC
 40
1.0
  9
$FILLETRAD
 40
2.5
  9
$AUNITS
 70
     0
  9
$AUPREC
 70
     0
  9
$MENU
  1
.
  9
$ELEVATION
 40
0.0
  9
$PELEVATION
 40
0.0
  9
$THICKNESS
 40
0.0
  9
$LIMCHECK
 70
     0
  9
$BLIPMODE
 70
     1
  9
$CHAMFERA
 40
2.5
  9
$CHAMFERB
 40
2.5
  9
$SKPOLY
 70
     0
  9
$TDCREATE
 40
0.000000000
  9
$TDUPDATE
 40
0.000000000
  9
$TDINDWG
 40
0.0000000000
  9
$TDUSRTIMER
 40
0.0000000000
  9
$USRTIMER
 70
     1
  9
$ANGBASE
 50
0.0
  9
$ANGDIR
 70
     0
  9
$PDMODE
 70
     0
  9
$PDSIZE
 40
0.0
  9
$PLINEWID
 40
0.0
  9
$COORDS
 70
     0
  9
$SPLFRAME
 70
     0
  9
$SPLINETYPE
 70
     6
  9
$SPLINESEGS
 70
     8
  9
$ATTDIA
 70
     0
  9
$ATTREQ
 70
     1
  9
$HANDLING
 70
     0
  9
$HANDSEED
  5
3
  9
$SURFTAB1
 70
     6
  9
$SURFTAB2
 70
     6
  9
$SURFTYPE
 70
     6
  9
$SURFU
 70
     6
  9
$SURFV
 70
     6
  9
$UCSNAME
  2

  9
$UCSORG
 10
0.0
 20
0.0
 30
0.0
  9
$UCSXDIR
 10
1.0
 20
0.0
 30
0.0
  9
$UCSYDIR
 10
0.0
 20
1.0
 30
0.0
  9
$PUCSNAME
  2

  9
$PUCSORG
 10
0.0
 20
0.0
 30
0.0
  9
$PUCSXDIR
 10
1.0
 20
0.0
 30
0.0
  9
$PUCSYDIR
 10
0.0
 20
1.0
 30
0.0
  9
$USERI1
 70
     0
  9
$USERI2
 70
     0
  9
$USERI3
 70
     0
  9
$USERI4
 70
     0
  9
$USERI5
 70
     0
  9
$USERR1
 40
0.0
  9
$USERR2
 40
0.0
  9
$USERR3
 40
0.0
  9
$USERR4
 40
0.0
  9
$USERR5
 40
0.0
  9
$WORLDVIEW
 70
     1
  9
$SHADEDGE
 70
     3
  9
$SHADEDIF
 70
    70
  9
$TILEMODE
 70
     1
  9
$MAXACTVP
 70
    48
  9
$PINSBASE
 10
0.0
 20
0.0
 30
0.0
  9
$PLIMCHECK
 70
     0
  9
$PEXTMIN
 10
0.0
 20
0.0
 30
0.0
  9
$PEXTMAX
 10
155.099152
 20
237.751617
 30
2.0
  9
$PLIMMIN
 10
0.0
 20
0.0
  9
$PLIMMAX
 10
420.0
 20
297.0
  9
$UNITMODE
 70
     0
  9
$VISRETAIN
 70
     0
  9
$PLINEGEN
 70
     0
  9
$PSLTSCALE
 70
     1
  9
$TREEDEPTH
 70
  3020
  0
ENDSEC
  0
SECTION
  2
TABLES
  0
TABLE
  2
VPORT
 70
     1
  0
VPORT
  2
*ACTIVE
 70
     0
 10
0.0
 20
0.0
 11
1.0
 21
1.0
 12
6.591288
 22
4.579184
 13
0.0
 23
0.0
 14
1.0
 24
1.0
 15
0.0
 25
0.0
 16
0.0
 26
0.0
 36
1.0
 17
0.0
 27
0.0
 37
0.0
 40
9.158369
 41
0.688564
 42
50.0
 43
0.0
 44
0.0
 50
0.0
 51
0.0
 71
     0
 72
   100
 73
     1
 74
     1
 75
     0
 76
     0
 77
     0
 78
     0
  0
ENDTAB
  0
TABLE
  2
LTYPE
 70
     2
  0
LTYPE
  2
CONTINUOUS
 70
    64
  3
Solid line
 72
    65
 73
     0
 40
0.0
  0
LTYPE
  2
DASHDOT
 70
     0
  3
 __ . __ . __ . __ . __ . __ . __ . 
 72
    65
 73
     4
 40
18.5
 49
12.0
 49
-3.0
 49
0.5
 49
-3.0
  0
ENDTAB
  0
TABLE
  2
LAYER
 70
     1
  0
LAYER
  2
0
 70
     0
 62
     7
  6
CONTINUOUS
  0
ENDTAB
  0
TABLE
  2
STYLE
 70
     1
  0
STYLE
  2
STANDARD
 70
     0
 40
0.0
 41
1.0
 50
0.0
 71
     0
 42
0.0
  3
txt
  4

  0
ENDTAB
  0
TABLE
  2
VIEW
 70
     0
  0
ENDTAB
  0
TABLE
  2
UCS
 70
     0
  0
ENDTAB
  0
TABLE
  2
APPID
 70
     1
  0
APPID
  2
ACAD
 70
     0
  0
ENDTAB
  0
TABLE
  2
DIMSTYLE
 70
     1
  0
DIMSTYLE
  2
STANDARD
 70
     0
  3

  4

  5

  6

  7

 40
1.0
 41
0.18
 42
0.0625
 43
0.38
 44
0.18
 45
0.0
 46
0.0
 47
0.0
 48
0.0
 71
     0
 72
     0
 73
     1
 74
     1
 75
     0
 76
     0
 77
     0
 78
     0
140
0.18
141
0.09
142
0.0
143
25.4
144
1.0
145
0.0
146
1.0
147
0.09
170
     0
171
     2
172
     0
173
     0
174
     0
175
     0
176
     0
177
     0
178
     0
  0
ENDTAB
  0
ENDSEC
  0
SECTION
  2
BLOCKS
  0
ENDSEC
  0
SECTION
  2
ENTITIES
  0
VIEWPORT
  8
0
 62
     0
 67
     1
 68
     1
 10
0.0
 20
0.0
 30
0.0
 40
1000.0
 41
1000.0
 69
     1
1001
ACAD
1000
MVIEW
1002
{
1070
    16
1010
0.0
1020
0.0
1030
0.0
1010
0.0
1020
0.0
1030
1.0
1040
0.0
1040
1000.0
1040
0.0
1040
0.0
1040
50.0
1040
0.0
1040
0.0
1070
     0
1070
   100
1070
     1
1070
     1
1070
     0
1070
     0
1070
     0
1070
     0
1040
0.0
1040
0.0
1040
0.0
1040
1.0
1040
1.0
1040
1.0
1040
1.0
1070
     0
1002
{
1002
}
1002
}
  0
LINE
  8
0
  6
DASHDOT
 62
     7
 10
123.127907
 20
125.782616
 30
0.0
 11
120.007912
 21
125.782616
 31
0.0
210
0.0
220
0.0
230
1.0
  0
LINE
  8
0
  6
DASHDOT
 62
     7
 10
121.567909
 20
127.342621
 30
0.0
 11
121.567909
 21
124.222618
 31
0.0
210
0.0
220
0.0
230
1.0
  0
LINE
  8
0
  6
DASHDOT
 62
     7
 10
111.727905
 20
126.032616
 30
0.0
 11
109.907913
 21
126.032616
 31
0.0
210
0.0
220
0.0
230
1.0
  0
LINE
  8
0
  6
DASHDOT
 62
     7
 10
110.817909
 20
126.942619
 30
0.0
 11
110.817909
 21
125.12262
 31
0.0
210
0.0
220
0.0
230
1.0
  0
LINE
  8
0
  6
DASHDOT
 62
     7
 10
98.487907
 20
134.192612
 30
0.0
 11
96.147911
 21
134.192612
 31
0.0
210
0.0
220
0.0
230
1.0
  0
LINE
  8
0
  6
DASHDOT
 62
     7
 10
97.317909
 20
135.362625
 30
0.0
 11
97.317909
 21
133.022614
 31
0.0
210
0.0
220
0.0
230
1.0
  0
LINE
  8
0
  6
DASHDOT
 62
     7
 10
116.077911
 20
126.032616
 30
0.0
 11
114.257912
 21
126.032616
 31
0.0
210
0.0
220
0.0
230
1.0
  0
LINE
  8
0
  6
DASHDOT
 62
     7
 10
115.167908
 20
126.942619
 30
0.0
 11
115.167908
 21
125.12262
 31
0.0
210
0.0
220
0.0
230
1.0
  0
LINE
  8
0
  6
DASHDOT
 62
     7
 10
98.227905
 20
126.032616
 30
0.0
 11
96.407913
 21
126.032616
 31
0.0
210
0.0
220
0.0
230
1.0
  0
LINE
  8
0
  6
DASHDOT
 62
     7
 10
97.317909
 20
126.942619
 30
0.0
 11
97.317909
 21
125.12262
 31
0.0
210
0.0
220
0.0
230
1.0
  0
LINE
  8
0
  6
DASHDOT
 62
     7
 10
93.877907
 20
126.032616
 30
0.0
 11
92.057907
 21
126.032616
 31
0.0
210
0.0
220
0.0
230
1.0
  0
LINE
  8
0
  6
DASHDOT
 62
     7
 10
92.967911
 20
126.942619
 30
0.0
 11
92.967911
 21
125.12262
 31
0.0
210
0.0
220
0.0
230
1.0
  0
LINE
  8
0
  6
DASHDOT
 62
     7
 10
111.987907
 20
134.192612
 30
0.0
 11
109.647911
 21
134.192612
 31
0.0
210
0.0
220
0.0
230
1.0
  0
LINE
  8
0
  6
DASHDOT
 62
     7
 10
110.817909
 20
135.362625
 30
0.0
 11
110.817909
 21
133.022614
 31
0.0
210
0.0
220
0.0
230
1.0
  0
LINE
  8
0
  6
DASHDOT
 62
     7
 10
143.177917
 20
220.782623
 30
0.0
 11
140.057907
 21
220.782623
 31
0.0
210
0.0
220
0.0
230
1.0
  0
LINE
  8
0
  6
DASHDOT
 62
     7
 10
141.617905
 20
222.342621
 30
0.0
 11
141.617905
 21
219.222626
 31
0.0
210
0.0
220
0.0
230
1.0
  0
LINE
  8
0
  6
DASHDOT
 62
     7
 10
62.59166
 20
132.688309
 30
0.0
 11
60.77166
 21
132.688309
 31
0.0
210
0.0
220
0.0
230
1.0
  0
LINE
  8
0
  6
DASHDOT
 62
     7
 10
61.68166
 20
133.598312
 30
0.0
 11
61.68166
 21
131.778305
 31
0.0
210
0.0
220
0.0
230
1.0
  0
LINE
  8
0
  6
DASHDOT
 62
     7
 10
147.364166
 20
132.688309
 30
0.0
 11
145.544159
 21
132.688309
 31
0.0
210
0.0
220
0.0
230
1.0
  0
LINE
  8
0
  6
DASHDOT
 62
     7
 10
146.454163
 20
133.598312
 30
0.0
 11
146.454163
 21
131.778305
 31
0.0
210
0.0
220
0.0
230
1.0
  0
LINE
  8
0
  6
DASHDOT
 62
     7
 10
88.667908
 20
128.382614
 30
0.0
 11
86.847908
 21
128.382614
 31
0.0
210
0.0
220
0.0
230
1.0
  0
LINE
  8
0
  6
DASHDOT
 62
     7
 10
87.757912
 20
129.292618
 30
0.0
 11
87.757912
 21
127.472618
 31
0.0
210
0.0
220
0.0
230
1.0
  0
LINE
  8
0
  6
DASHDOT
 62
     7
 10
78.827911
 20
129.98262
 30
0.0
 11
77.007912
 21
129.98262
 31
0.0
210
0.0
220
0.0
230
1.0
  0
LINE
  8
0
  6
DASHDOT
 62
     7
 10
77.917908
 20
130.892624
 30
0.0
 11
77.917908
 21
129.072617
 31
0.0
210
0.0
220
0.0
230
1.0
  0
LINE
  8
0
  6
DASHDOT
 62
     7
 10
72.501747
 20
124.713806
 30
0.0
 11
70.681747
 21
124.713806
 31
0.0
210
0.0
220
0.0
230
1.0
  0
LINE
  8
0
  6
DASHDOT
 62
     7
 10
71.591751
 20
125.62381
 30
0.0
 11
71.591751
 21
123.803802
 31
0.0
210
0.0
220
0.0
230
1.0
  0
LINE
  8
0
  6
DASHDOT
 62
     7
 10
137.454071
 20
124.713806
 30
0.0
 11
135.634064
 21
124.713806
 31
0.0
210
0.0
220
0.0
230
1.0
  0
LINE
  8
0
  6
DASHDOT
 62
     7
 10
136.544067
 20
125.62381
 30
0.0
 11
136.544067
 21
123.803802
 31
0.0
210
0.0
220
0.0
230
1.0
  0
LINE
  8
0
  6
DASHDOT
 62
     7
 10
62.59166
 20
162.7883
 30
0.0
 11
60.77166
 21
162.7883
 31
0.0
210
0.0
220
0.0
230
1.0
  0
LINE
  8
0
  6
DASHDOT
 62
     7
 10
61.68166
 20
163.698303
 30
0.0
 11
61.68166
 21
161.878311
 31
0.0
210
0.0
220
0.0
230
1.0
  0
LINE
  8
0
  6
DASHDOT
 62
     7
 10
141.900528
 20
162.753525
 30
0.0
 11
140.080521
 21
162.753525
 31
0.0
210
0.0
220
0.0
230
1.0
  0
LINE
  8
0
  6
DASHDOT
 62
     7
 10
140.990524
 20
163.663513
 30
0.0
 11
140.990524
 21
161.843521
 31
0.0
210
0.0
220
0.0
230
1.0
  0
LINE
  8
0
  6
DASHDOT
 62
     7
 10
147.364166
 20
162.7883
 30
0.0
 11
145.544159
 21
162.7883
 31
0.0
210
0.0
220
0.0
230
1.0
  0
LINE
  8
0
  6
DASHDOT
 62
     7
 10
146.454163
 20
163.698303
 30
0.0
 11
146.454163
 21
161.878311
 31
0.0
210
0.0
220
0.0
230
1.0
  0
LINE
  8
0
  6
DASHDOT
 62
     7
 10
137.454071
 20
154.813812
 30
0.0
 11
135.634064
 21
154.813812
 31
0.0
210
0.0
220
0.0
230
1.0
  0
LINE
  8
0
  6
DASHDOT
 62
     7
 10
136.544067
 20
155.723801
 30
0.0
 11
136.544067
 21
153.903809
 31
0.0
210
0.0
220
0.0
230
1.0
  0
LINE
  8
0
  6
DASHDOT
 62
     7
 10
68.055298
 20
162.753525
 30
0.0
 11
66.235291
 21
162.753525
 31
0.0
210
0.0
220
0.0
230
1.0
  0
LINE
  8
0
  6
DASHDOT
 62
     7
 10
67.145294
 20
163.663513
 30
0.0
 11
67.145294
 21
161.843521
 31
0.0
210
0.0
220
0.0
230
1.0
  0
LINE
  8
0
  6
DASHDOT
 62
     7
 10
72.501747
 20
154.813812
 30
0.0
 11
70.681747
 21
154.813812
 31
0.0
210
0.0
220
0.0
230
1.0
  0
LINE
  8
0
  6
DASHDOT
 62
     7
 10
71.591751
 20
155.723801
 30
0.0
 11
71.591751
 21
153.903809
 31
0.0
210
0.0
220
0.0
230
1.0
  0
LINE
  8
0
  6
DASHDOT
 62
     7
 10
68.097282
 20
157.562103
 30
0.0
 11
66.277283
 21
157.562103
 31
0.0
210
0.0
220
0.0
230
1.0
  0
LINE
  8
0
  6
DASHDOT
 62
     7
 10
67.187286
 20
158.472107
 30
0.0
 11
67.187286
 21
156.652115
 31
0.0
210
0.0
220
0.0
230
1.0
  0
LINE
  8
0
  6
DASHDOT
 62
     7
 10
141.858536
 20
157.562103
 30
0.0
 11
140.038544
 21
157.562103
 31
0.0
210
0.0
220
0.0
230
1.0
  0
LINE
  8
0
  6
DASHDOT
 62
     7
 10
140.948532
 20
158.472107
 30
0.0
 11
140.948532
 21
156.652115
 31
0.0
210
0.0
220
0.0
230
1.0
  0
LINE
  8
0
  6
DASHDOT
 62
     7
 10
62.59166
 20
192.888306
 30
0.0
 11
60.77166
 21
192.888306
 31
0.0
210
0.0
220
0.0
230
1.0
  0
LINE
  8
0
  6
DASHDOT
 62
     7
 10
61.68166
 20
193.798309
 30
0.0
 11
61.68166
 21
191.978302
 31
0.0
210
0.0
220
0.0
230
1.0
  0
LINE
  8
0
  6
DASHDOT
 62
     7
 10
68.055298
 20
192.853516
 30
0.0
 11
66.235291
 21
192.853516
 31
0.0
210
0.0
220
0.0
230
1.0
  0
LINE
  8
0
  6
DASHDOT
 62
     7
 10
67.145294
 20
193.763519
 30
0.0
 11
67.145294
 21
191.943512
 31
0.0
210
0.0
220
0.0
230
1.0
  0
LINE
  8
0
  6
DASHDOT
 62
     7
 10
72.501747
 20
184.913803
 30
0.0
 11
70.681747
 21
184.913803
 31
0.0
210
0.0
220
0.0
230
1.0
  0
LINE
  8
0
  6
DASHDOT
 62
     7
 10
71.591751
 20
185.823807
 30
0.0
 11
71.591751
 21
184.003815
 31
0.0
210
0.0
220
0.0
230
1.0
  0
LINE
  8
0
  6
DASHDOT
 62
     7
 10
68.097282
 20
187.662109
 30
0.0
 11
66.277283
 21
187.662109
 31
0.0
210
0.0
220
0.0
230
1.0
  0
LINE
  8
0
  6
DASHDOT
 62
     7
 10
67.187286
 20
188.572113
 30
0.0
 11
67.187286
 21
186.752106
 31
0.0
210
0.0
220
0.0
230
1.0
  0
LINE
  8
0
  6
DASHDOT
 62
     7
 10
68.055298
 20
132.653519
 30
0.0
 11
66.235291
 21
132.653519
 31
0.0
210
0.0
220
0.0
230
1.0
  0
LINE
  8
0
  6
DASHDOT
 62
     7
 10
67.145294
 20
133.563522
 30
0.0
 11
67.145294
 21
131.743515
 31
0.0
210
0.0
220
0.0
230
1.0
  0
LINE
  8
0
  6
DASHDOT
 62
     7
 10
68.097282
 20
127.462112
 30
0.0
 11
66.277283
 21
127.462112
 31
0.0
210
0.0
220
0.0
230
1.0
  0
LINE
  8
0
  6
DASHDOT
 62
     7
 10
67.187286
 20
128.372116
 30
0.0
 11
67.187286
 21
126.552109
 31
0.0
210
0.0
220
0.0
230
1.0
  0
LINE
  8
0
  6
DASHDOT
 62
     7
 10
141.900528
 20
132.653519
 30
0.0
 11
140.080521
 21
132.653519
 31
0.0
210
0.0
220
0.0
230
1.0
  0
LINE
  8
0
  6
DASHDOT
 62
     7
 10
140.990524
 20
133.563522
 30
0.0
 11
140.990524
 21
131.743515
 31
0.0
210
0.0
220
0.0
230
1.0
  0
LINE
  8
0
  6
DASHDOT
 62
     7
 10
141.858536
 20
127.462112
 30
0.0
 11
140.038544
 21
127.462112
 31
0.0
210
0.0
220
0.0
230
1.0
  0
LINE
  8
0
  6
DASHDOT
 62
     7
 10
140.948532
 20
128.372116
 30
0.0
 11
140.948532
 21
126.552109
 31
0.0
210
0.0
220
0.0
230
1.0
  0
LINE
  8
0
  6
DASHDOT
 62
     7
 10
131.165512
 20
200.378601
 30
0.0
 11
130.008514
 21
200.378601
 31
0.0
210
0.0
220
0.0
230
1.0
  0
LINE
  8
0
  6
DASHDOT
 62
     7
 10
130.587006
 20
200.957108
 30
0.0
 11
130.587006
 21
199.80011
 31
0.0
210
0.0
220
0.0
230
1.0
  0
LINE
  8
0
  6
DASHDOT
 62
     7
 10
143.796204
 20
214.584595
 30
0.0
 11
142.145203
 21
214.584595
 31
0.0
210
0.0
220
0.0
230
1.0
  0
LINE
  8
0
  6
DASHDOT
 62
     7
 10
142.970703
 20
215.410095
 30
0.0
 11
142.970703
 21
213.759094
 31
0.0
210
0.0
220
0.0
230
1.0
  0
LINE
  8
0
  6
DASHDOT
 62
     7
 10
151.766205
 20
201.829956
 30
0.0
 11
150.115204
 21
201.829956
 31
0.0
210
0.0
220
0.0
230
1.0
  0
LINE
  8
0
  6
DASHDOT
 62
     7
 10
150.940704
 20
202.655457
 30
0.0
 11
150.940704
 21
201.004456
 31
0.0
210
0.0
220
0.0
230
1.0
  0
LINE
  8
0
  6
DASHDOT
 62
     7
 10
138.939697
 20
207.58812
 30
0.0
 11
134.779694
 21
207.58812
 31
0.0
210
0.0
220
0.0
230
1.0
  0
LINE
  8
0
  6
DASHDOT
 62
     7
 10
136.859695
 20
209.668121
 30
0.0
 11
136.859695
 21
205.508118
 31
0.0
210
0.0
220
0.0
230
1.0
  0
LINE
  8
0
  6
DASHDOT
 62
     7
 10
137.08728
 20
195.694977
 30
0.0
 11
135.930283
 21
195.694977
 31
0.0
210
0.0
220
0.0
230
1.0
  0
LINE
  8
0
  6
DASHDOT
 62
     7
 10
136.508774
 20
196.273468
 30
0.0
 11
136.508774
 21
195.116486
 31
0.0
210
0.0
220
0.0
230
1.0
  0
LINE
  8
0
  6
DASHDOT
 62
     7
 10
141.642166
 20
213.238602
 30
0.0
 11
139.991165
 21
213.238602
 31
0.0
210
0.0
220
0.0
230
1.0
  0
LINE
  8
0
  6
DASHDOT
 62
     7
 10
140.816666
 20
214.064087
 30
0.0
 11
140.816666
 21
212.413101
 31
0.0
210
0.0
220
0.0
230
1.0
  0
LINE
  8
0
  6
DASHDOT
 62
     7
 10
130.089783
 20
202.100143
 30
0.0
 11
128.93277
 21
202.100143
 31
0.0
210
0.0
220
0.0
230
1.0
  0
LINE
  8
0
  6
DASHDOT
 62
     7
 10
129.511276
 20
202.67865
 30
0.0
 11
129.511276
 21
201.521637
 31
0.0
210
0.0
220
0.0
230
1.0
  0
LINE
  8
0
  6
DASHDOT
 62
     7
 10
147.458115
 20
199.13797
 30
0.0
 11
145.807114
 21
199.13797
 31
0.0
210
0.0
220
0.0
230
1.0
  0
LINE
  8
0
  6
DASHDOT
 62
     7
 10
146.632614
 20
199.96347
 30
0.0
 11
146.632614
 21
198.312469
 31
0.0
210
0.0
220
0.0
230
1.0
  0
LINE
  8
0
  6
DASHDOT
 62
     7
 10
129.014038
 20
203.821686
 30
0.0
 11
127.85704
 21
203.821686
 31
0.0
210
0.0
220
0.0
230
1.0
  0
LINE
  8
0
  6
DASHDOT
 62
     7
 10
128.435547
 20
204.400177
 30
0.0
 11
128.435547
 21
203.243179
 31
0.0
210
0.0
220
0.0
230
1.0
  0
LINE
  8
0
  6
DASHDOT
 62
     7
 10
149.612152
 20
200.483948
 30
0.0
 11
147.961151
 21
200.483948
 31
0.0
210
0.0
220
0.0
230
1.0
  0
LINE
  8
0
  6
DASHDOT
 62
     7
 10
148.786652
 20
201.309448
 30
0.0
 11
148.786652
 21
199.658447
 31
0.0
210
0.0
220
0.0
230
1.0
  0
LINE
  8
0
  6
DASHDOT
 62
     7
 10
145.095047
 20
196.041946
 30
0.0
 11
143.054047
 21
196.041946
 31
0.0
210
0.0
220
0.0
230
1.0
  0
LINE
  8
0
  6
DASHDOT
 62
     7
 10
144.074554
 20
197.062439
 30
0.0
 11
144.074554
 21
195.021454
 31
0.0
210
0.0
220
0.0
230
1.0
  0
LINE
  8
0
  6
DASHDOT
 62
     7
 10
133.860077
 20
200.859589
 30
0.0
 11
132.703064
 21
200.859589
 31
0.0
210
0.0
220
0.0
230
1.0
  0
LINE
  8
0
  6
DASHDOT
 62
     7
 10
133.28157
 20
201.43808
 30
0.0
 11
133.28157
 21
200.281097
 31
0.0
210
0.0
220
0.0
230
1.0
  0
LINE
  8
0
  6
DASHDOT
 62
     7
 10
131.708603
 20
204.302673
 30
0.0
 11
130.551605
 21
204.302673
 31
0.0
210
0.0
220
0.0
230
1.0
  0
LINE
  8
0
  6
DASHDOT
 62
     7
 10
131.130096
 20
204.881165
 30
0.0
 11
131.130096
 21
203.724167
 31
0.0
210
0.0
220
0.0
230
1.0
  0
LINE
  8
0
  6
DASHDOT
 62
     7
 10
134.935806
 20
199.138062
 30
0.0
 11
133.778809
 21
199.138062
 31
0.0
210
0.0
220
0.0
230
1.0
  0
LINE
  8
0
  6
DASHDOT
 62
     7
 10
134.3573
 20
199.716553
 30
0.0
 11
134.3573
 21
198.559555
 31
0.0
210
0.0
220
0.0
230
1.0
  0
LINE
  8
0
  6
DASHDOT
 62
     7
 10
132.784332
 20
202.581131
 30
0.0
 11
131.627335
 21
202.581131
 31
0.0
210
0.0
220
0.0
230
1.0
  0
LINE
  8
0
  6
DASHDOT
 62
     7
 10
132.205841
 20
203.159637
 30
0.0
 11
132.205841
 21
202.002625
 31
0.0
210
0.0
220
0.0
230
1.0
  0
LINE
  8
0
  6
DASHDOT
 62
     7
 10
133.322281
 20
196.927048
 30
0.0
 11
132.165283
 21
196.927048
 31
0.0
210
0.0
220
0.0
230
1.0
  0
LINE
  8
0
  6
DASHDOT
 62
     7
 10
132.743774
 20
197.505554
 30
0.0
 11
132.743774
 21
196.348541
 31
0.0
210
0.0
220
0.0
230
1.0
  0
LINE
  8
0
  6
DASHDOT
 62
     7
 10
135.779068
 20
210.950623
 30
0.0
 11
133.738068
 21
210.950623
 31
0.0
210
0.0
220
0.0
230
1.0
  0
LINE
  8
0
  6
DASHDOT
 62
     7
 10
134.75856
 20
211.97113
 30
0.0
 11
134.75856
 21
209.93013
 31
0.0
210
0.0
220
0.0
230
1.0
  0
LINE
  8
0
  6
DASHDOT
 62
     7
 10
136.011536
 20
197.416504
 30
0.0
 11
134.854538
 21
197.416504
 31
0.0
210
0.0
220
0.0
230
1.0
  0
LINE
  8
0
  6
DASHDOT
 62
     7
 10
135.433044
 20
197.995026
 30
0.0
 11
135.433044
 21
196.838013
 31
0.0
210
0.0
220
0.0
230
1.0
  0
LINE
  8
0
  6
DASHDOT
 62
     7
 10
135.473755
 20
193.483978
 30
0.0
 11
134.316757
 21
193.483978
 31
0.0
210
0.0
220
0.0
230
1.0
  0
LINE
  8
0
  6
DASHDOT
 62
     7
 10
134.895248
 20
194.062469
 30
0.0
 11
134.895248
 21
192.905472
 31
0.0
210
0.0
220
0.0
230
1.0
  0
LINE
  8
0
  6
DASHDOT
 62
     7
 10
134.39801
 20
195.205505
 30
0.0
 11
133.241013
 21
195.205505
 31
0.0
210
0.0
220
0.0
230
1.0
  0
LINE
  8
0
  6
DASHDOT
 62
     7
 10
133.819519
 20
195.784012
 30
0.0
 11
133.819519
 21
194.627014
 31
0.0
210
0.0
220
0.0
230
1.0
  0
LINE
  8
0
  6
DASHDOT
 62
     7
 10
144.053421
 20
199.404449
 30
0.0
 11
139.893417
 21
199.404449
 31
0.0
210
0.0
220
0.0
230
1.0
  0
LINE
  8
0
  6
DASHDOT
 62
     7
 10
141.973419
 20
201.484467
 30
0.0
 11
141.973419
 21
197.324463
 31
0.0
210
0.0
220
0.0
230
1.0
  0
POLYLINE
  8
0
 62
     7
 66
     1
 10
0.0
 20
0.0
 30
0.0
 70
     1
 71
    12
  0
VERTEX
  8
0
 10
58.241936
 20
234.403198
 30
0.0
  0
VERTEX
  8
0
 10
58.463425
 20
234.403198
 30
0.0
  0
VERTEX
  8
0
 10
58.463425
 20
235.574966
 30
0.0
  0
VERTEX
  8
0
 10
59.306435
 20
235.574966
 30
0.0
  0
VERTEX
  8
0
 10
59.306435
 20
234.403198
 30
0.0
  0
VERTEX
  8
0
 10
59.527924
 20
234.403198
 30
0.0
  0
VERTEX
  8
0
 10
59.527924
 20
236.903198
 30
0.0
  0
VERTEX
  8
0
 10
59.306435
 20
236.903198
 30
0.0
  0
VERTEX
  8
0
 10
59.306435
 20
235.877472
 30
0.0
  0
VERTEX
  8
0
 10
58.463425
 20
235.877472
 30
0.0
  0
VERTEX
  8
0
 10
58.463425
 20
236.903198
 30
0.0
  0
VERTEX
  8
0
 10
58.241936
 20
236.903198
 30
0.0
  0
SEQEND
  8
0
  0
POLYLINE
  8
0
 62
     7
 66
     1
 10
0.0
 20
0.0
 30
0.0
 70
     1
 71
    32
  0
VERTEX
  8
0
 10
60.305912
 20
235.651459
 30
0.0
  0
VERTEX
  8
0
 10
60.317215
 20
235.352432
 30
0.0
  0
VERTEX
  8
0
 10
60.357895
 20
235.09166
 30
0.0
  0
VERTEX
  8
0
 10
60.423439
 20
234.865646
 30
0.0
  0
VERTEX
  8
0
 10
60.511581
 20
234.677887
 30
0.0
  0
VERTEX
  8
0
 10
60.622326
 20
234.528366
 30
0.0
  0
VERTEX
  8
0
 10
60.75341
 20
234.420578
 30
0.0
  0
VERTEX
  8
0
 10
60.904835
 20
234.358002
 30
0.0
  0
VERTEX
  8
0
 10
61.076603
 20
234.333664
 30
0.0
  0
VERTEX
  8
0
 10
61.246109
 20
234.358002
 30
0.0
  0
VERTEX
  8
0
 10
61.397533
 20
234.420578
 30
0.0
  0
VERTEX
  8
0
 10
61.528618
 20
234.528366
 30
0.0
  0
VERTEX
  8
0
 10
61.639362
 20
234.677887
 30
0.0
  0
VERTEX
  8
0
 10
61.727505
 20
234.865646
 30
0.0
  0
VERTEX
  8
0
 10
61.790787
 20
235.09166
 30
0.0
  0
VERTEX
  8
0
 10
61.829208
 20
235.352432
 30
0.0
  0
VERTEX
  8
0
 10
61.845032
 20
235.651459
 30
0.0
  0
VERTEX
  8
0
 10
61.83147
 20
235.947006
 30
0.0
  0
VERTEX
  8
0
 10
61.790787
 20
236.207794
 30
0.0
  0
VERTEX
  8
0
 10
61.725246
 20
236.433792
 30
0.0
  0
VERTEX
  8
0
 10
61.639362
 20
236.621552
 30
0.0
  0
VERTEX
  8
0
 10
61.528618
 20
236.771072
 30
0.0
  0
VERTEX
  8
0
 10
61.397533
 20
236.87886
 30
0.0
  0
VERTEX
  8
0
 10
61.246109
 20
236.944916
 30
0.0
  0
VERTEX
  8
0
 10
61.076603
 20
236.969269
 30
0.0
  0
VERTEX
  8
0
 10
60.904835
 20
236.944916
 30
0.0
  0
VERTEX
  8
0
 10
60.75341
 20
236.87886
 30
0.0
  0
VERTEX
  8
0
 10
60.622326
 20
236.771072
 30
0.0
  0
VERTEX
  8
0
 10
60.511581
 20
236.621552
 30
0.0
  0
VERTEX
  8
0
 10
60.423439
 20
236.433792
 30
0.0
  0
VERTEX
  8
0
 10
60.357895
 20
236.207794
 30
0.0
  0
VERTEX
  8
0
 10
60.317215
 20
235.947006
 30
0.0
  0
SEQEND
  8
0
  0
POLYLINE
  8
0
 62
     7
 66
     1
 10
0.0
 20
0.0
 30
0.0
 70
     1
 71
    16
  0
VERTEX
  8
0
 10
60.534184
 20
235.651459
 30
0.0
  0
VERTEX
  8
0
 10
60.570343
 20
236.082611
 30
0.0
  0
VERTEX
  8
0
 10
60.678825
 20
236.405975
 30
0.0
  0
VERTEX
  8
0
 10
60.850594
 20
236.604172
 30
0.0
  0
VERTEX
  8
0
 10
61.076603
 20
236.673706
 30
0.0
  0
VERTEX
  8
0
 10
61.30035
 20
236.604172
 30
0.0
  0
VERTEX
  8
0
 10
61.472115
 20
236.405975
 30
0.0
  0
VERTEX
  8
0
 10
61.578339
 20
236.082611
 30
0.0
  0
VERTEX
  8
0
 10
61.61676
 20
235.651459
 30
0.0
  0
VERTEX
  8
0
 10
61.578339
 20
235.216827
 30
0.0
  0
VERTEX
  8
0
 10
61.472115
 20
234.893463
 30
0.0
  0
VERTEX
  8
0
 10
61.30035
 20
234.695267
 30
0.0
  0
VERTEX
  8
0
 10
61.076603
 20
234.629211
 30
0.0
  0
VERTEX
  8
0
 10
60.850594
 20
234.695267
 30
0.0
  0
VERTEX
  8
0
 10
60.678825
 20
234.893463
 30
0.0
  0
VERTEX
  8
0
 10
60.570343
 20
235.216827
 30
0.0
  0
SEQEND
  8
0
  0
POLYLINE
  8
0
 62
     7
 66
     1
 10
0.0
 20
0.0
 30
0.0
 70
     1
 71
     6
  0
VERTEX
  8
0
 10
62.62302
 20
234.403198
 30
0.0
  0
VERTEX
  8
0
 10
63.65588
 20
234.403198
 30
0.0
  0
VERTEX
  8
0
 10
63.65588
 20
234.719604
 30
0.0
  0
VERTEX
  8
0
 10
62.846767
 20
234.719604
 30
0.0
  0
VERTEX
  8
0
 10
62.846767
 20
236.903198
 30
0.0
  0
VERTEX
  8
0
 10
62.62302
 20
236.903198
 30
0.0
  0
SEQEND
  8
0
  0
POLYLINE
  8
0
 62
     7
 66
     1
 10
0.0
 20
0.0
 30
0.0
 70
     1
 71
    12
  0
VERTEX
  8
0
 10
64.332169
 20
234.403198
 30
0.0
  0
VERTEX
  8
0
 10
65.509666
 20
234.403198
 30
0.0
  0
VERTEX
  8
0
 10
65.509666
 20
234.716125
 30
0.0
  0
VERTEX
  8
0
 10
64.551392
 20
234.716125
 30
0.0
  0
VERTEX
  8
0
 10
64.551392
 20
235.554108
 30
0.0
  0
VERTEX
  8
0
 10
65.419266
 20
235.554108
 30
0.0
  0
VERTEX
  8
0
 10
65.419266
 20
235.846176
 30
0.0
  0
VERTEX
  8
0
 10
64.551392
 20
235.846176
 30
0.0
  0
VERTEX
  8
0
 10
64.551392
 20
236.593735
 30
0.0
  0
VERTEX
  8
0
 10
65.491585
 20
236.593735
 30
0.0
  0
VERTEX
  8
0
 10
65.491585
 20
236.903198
 30
0.0
  0
VERTEX
  8
0
 10
64.332169
 20
236.903198
 30
0.0
  0
SEQEND
  8
0
  0
POLYLINE
  8
0
 62
     7
 66
     1
 10
0.0
 20
0.0
 30
0.0
 70
     1
 71
    15
  0
VERTEX
  8
0
 10
67.395622
 20
234.403198
 30
0.0
  0
VERTEX
  8
0
 10
67.617111
 20
234.403198
 30
0.0
  0
VERTEX
  8
0
 10
67.617111
 20
235.456741
 30
0.0
  0
VERTEX
  8
0
 10
67.951599
 20
235.456741
 30
0.0
  0
VERTEX
  8
0
 10
68.173088
 20
235.470657
 30
0.0
  0
VERTEX
  8
0
 10
68.34938
 20
235.557587
 30
0.0
  0
VERTEX
  8
0
 10
68.503059
 20
235.807922
 30
0.0
  0
VERTEX
  8
0
 10
68.557304
 20
236.179977
 30
0.0
  0
VERTEX
  8
0
 10
68.541481
 20
236.385117
 30
0.0
  0
VERTEX
  8
0
 10
68.503059
 20
236.562454
 30
0.0
  0
VERTEX
  8
0
 10
68.437523
 20
236.705002
 30
0.0
  0
VERTEX
  8
0
 10
68.351639
 20
236.809311
 30
0.0
  0
VERTEX
  8
0
 10
68.184387
 20
236.885818
 30
0.0
  0
VERTEX
  8
0
 10
67.994545
 20
236.903198
 30
0.0
  0
VERTEX
  8
0
 10
67.395622
 20
236.903198
 30
0.0
  0
SEQEND
  8
0
  0
POLYLINE
  8
0
 62
     7
 66
     1
 10
0.0
 20
0.0
 30
0.0
 70
     1
 71
    11
  0
VERTEX
  8
0
 10
67.617111
 20
235.759247
 30
0.0
  0
VERTEX
  8
0
 10
67.617111
 20
236.597214
 30
0.0
  0
VERTEX
  8
0
 10
68.003586
 20
236.597214
 30
0.0
  0
VERTEX
  8
0
 10
68.15049
 20
236.572876
 30
0.0
  0
VERTEX
  8
0
 10
68.25219
 20
236.503342
 30
0.0
  0
VERTEX
  8
0
 10
68.313217
 20
236.37468
 30
0.0
  0
VERTEX
  8
0
 10
68.333557
 20
236.179977
 30
0.0
  0
VERTEX
  8
0
 10
68.313217
 20
235.974823
 30
0.0
  0
VERTEX
  8
0
 10
68.249931
 20
235.846176
 30
0.0
  0
VERTEX
  8
0
 10
68.141449
 20
235.776627
 30
0.0
  0
VERTEX
  8
0
 10
67.987762
 20
235.759247
 30
0.0
  0
SEQEND
  8
0
  0
POLYLINE
  8
0
 62
     7
 66
     1
 10
0.0
 20
0.0
 30
0.0
 70
     1
 71
     8
  0
VERTEX
  8
0
 10
69.138664
 20
234.403198
 30
0.0
  0
VERTEX
  8
0
 10
69.366936
 20
234.403198
 30
0.0
  0
VERTEX
  8
0
 10
69.540962
 20
235.150757
 30
0.0
  0
VERTEX
  8
0
 10
70.180565
 20
235.150757
 30
0.0
  0
VERTEX
  8
0
 10
70.352333
 20
234.403198
 30
0.0
  0
VERTEX
  8
0
 10
70.591904
 20
234.403198
 30
0.0
  0
VERTEX
  8
0
 10
69.986198
 20
236.903198
 30
0.0
  0
VERTEX
  8
0
 10
69.742111
 20
236.903198
 30
0.0
  0
SEQEND
  8
0
  0
POLYLINE
  8
0
 62
     7
 66
     1
 10
0.0
 20
0.0
 30
0.0
 70
     1
 71
     3
  0
VERTEX
  8
0
 10
69.608765
 20
235.442841
 30
0.0
  0
VERTEX
  8
0
 10
69.864151
 20
236.545059
 30
0.0
  0
VERTEX
  8
0
 10
70.115021
 20
235.442841
 30
0.0
  0
SEQEND
  8
0
  0
POLYLINE
  8
0
 62
     7
 66
     1
 10
0.0
 20
0.0
 30
0.0
 70
     1
 71
     8
  0
VERTEX
  8
0
 10
71.6185
 20
234.403198
 30
0.0
  0
VERTEX
  8
0
 10
71.839989
 20
234.403198
 30
0.0
  0
VERTEX
  8
0
 10
71.839989
 20
236.600693
 30
0.0
  0
VERTEX
  8
0
 10
72.353027
 20
236.600693
 30
0.0
  0
VERTEX
  8
0
 10
72.353027
 20
236.903198
 30
0.0
  0
VERTEX
  8
0
 10
71.105461
 20
236.903198
 30
0.0
  0
VERTEX
  8
0
 10
71.105461
 20
236.600693
 30
0.0
  0
VERTEX
  8
0
 10
71.6185
 20
236.600693
 30
0.0
  0
SEQEND
  8
0
  0
POLYLINE
  8
0
 62
     7
 66
     1
 10
0.0
 20
0.0
 30
0.0
 70
     1
 71
     8
  0
VERTEX
  8
0
 10
73.409004
 20
234.403198
 30
0.0
  0
VERTEX
  8
0
 10
73.630493
 20
234.403198
 30
0.0
  0
VERTEX
  8
0
 10
73.630493
 20
236.600693
 30
0.0
  0
VERTEX
  8
0
 10
74.143532
 20
236.600693
 30
0.0
  0
VERTEX
  8
0
 10
74.143532
 20
236.903198
 30
0.0
  0
VERTEX
  8
0
 10
72.895966
 20
236.903198
 30
0.0
  0
VERTEX
  8
0
 10
72.895966
 20
236.600693
 30
0.0
  0
VERTEX
  8
0
 10
73.409004
 20
236.600693
 30
0.0
  0
SEQEND
  8
0
  0
POLYLINE
  8
0
 62
     7
 66
     1
 10
0.0
 20
0.0
 30
0.0
 70
     1
 71
    12
  0
VERTEX
  8
0
 10
74.840164
 20
234.403198
 30
0.0
  0
VERTEX
  8
0
 10
76.01767
 20
234.403198
 30
0.0
  0
VERTEX
  8
0
 10
76.01767
 20
234.716125
 30
0.0
  0
VERTEX
  8
0
 10
75.059387
 20
234.716125
 30
0.0
  0
VERTEX
  8
0
 10
75.059387
 20
235.554108
 30
0.0
  0
VERTEX
  8
0
 10
75.927261
 20
235.554108
 30
0.0
  0
VERTEX
  8
0
 10
75.927261
 20
235.846176
 30
0.0
  0
VERTEX
  8
0
 10
75.059387
 20
235.846176
 30
0.0
  0
VERTEX
  8
0
 10
75.059387
 20
236.593735
 30
0.0
  0
VERTEX
  8
0
 10
75.999588
 20
236.593735
 30
0.0
  0
VERTEX
  8
0
 10
75.999588
 20
236.903198
 30
0.0
  0
VERTEX
  8
0
 10
74.840164
 20
236.903198
 30
0.0
  0
SEQEND
  8
0
  0
POLYLINE
  8
0
 62
     7
 66
     1
 10
0.0
 20
0.0
 30
0.0
 70
     1
 71
    30
  0
VERTEX
  8
0
 10
76.784355
 20
236.903198
 30
0.0
  0
VERTEX
  8
0
 10
76.784355
 20
234.403198
 30
0.0
  0
VERTEX
  8
0
 10
77.003586
 20
234.403198
 30
0.0
  0
VERTEX
  8
0
 10
77.003586
 20
235.474136
 30
0.0
  0
VERTEX
  8
0
 10
77.360672
 20
235.474136
 30
0.0
  0
VERTEX
  8
0
 10
77.53244
 20
235.463699
 30
0.0
  0
VERTEX
  8
0
 10
77.638664
 20
235.411545
 30
0.0
  0
VERTEX
  8
0
 10
77.697433
 20
235.29332
 30
0.0
  0
VERTEX
  8
0
 10
77.72229
 20
235.074265
 30
0.0
  0
VERTEX
  8
0
 10
77.735847
 20
234.747421
 30
0.0
  0
VERTEX
  8
0
 10
77.747147
 20
234.54924
 30
0.0
  0
VERTEX
  8
0
 10
77.778793
 20
234.403198
 30
0.0
  0
VERTEX
  8
0
 10
78.03418
 20
234.403198
 30
0.0
  0
VERTEX
  8
0
 10
78.03418
 20
234.472733
 30
0.0
  0
VERTEX
  8
0
 10
77.979935
 20
234.573578
 30
0.0
  0
VERTEX
  8
0
 10
77.959595
 20
234.764816
 30
0.0
  0
VERTEX
  8
0
 10
77.941513
 20
235.17511
 30
0.0
  0
VERTEX
  8
0
 10
77.925697
 20
235.348953
 30
0.0
  0
VERTEX
  8
0
 10
77.896317
 20
235.484558
 30
0.0
  0
VERTEX
  8
0
 10
77.842072
 20
235.578445
 30
0.0
  0
VERTEX
  8
0
 10
77.756195
 20
235.641022
 30
0.0
  0
VERTEX
  8
0
 10
77.851112
 20
235.734909
 30
0.0
  0
VERTEX
  8
0
 10
77.921173
 20
235.863556
 30
0.0
  0
VERTEX
  8
0
 10
77.964119
 20
236.02002
 30
0.0
  0
VERTEX
  8
0
 10
77.979935
 20
236.211258
 30
0.0
  0
VERTEX
  8
0
 10
77.964119
 20
236.405975
 30
0.0
  0
VERTEX
  8
0
 10
77.925697
 20
236.576355
 30
0.0
  0
VERTEX
  8
0
 10
77.769753
 20
236.816269
 30
0.0
  0
VERTEX
  8
0
 10
77.604767
 20
236.889297
 30
0.0
  0
VERTEX
  8
0
 10
77.414917
 20
236.903198
 30
0.0
  0
SEQEND
  8
0
  0
POLYLINE
  8
0
 62
     7
 66
     1
 10
0.0
 20
0.0
 30
0.0
 70
     1
 71
    11
  0
VERTEX
  8
0
 10
77.001328
 20
236.61113
 30
0.0
  0
VERTEX
  8
0
 10
77.378754
 20
236.61113
 30
0.0
  0
VERTEX
  8
0
 10
77.539223
 20
236.593735
 30
0.0
  0
VERTEX
  8
0
 10
77.656746
 20
236.531158
 30
0.0
  0
VERTEX
  8
0
 10
77.726807
 20
236.409454
 30
0.0
  0
VERTEX
  8
0
 10
77.751671
 20
236.204315
 30
0.0
  0
VERTEX
  8
0
 10
77.726807
 20
235.992218
 30
0.0
  0
VERTEX
  8
0
 10
77.659012
 20
235.856613
 30
0.0
  0
VERTEX
  8
0
 10
77.541481
 20
235.783585
 30
0.0
  0
VERTEX
  8
0
 10
77.378754
 20
235.762726
 30
0.0
  0
VERTEX
  8
0
 10
77.001328
 20
235.762726
 30
0.0
  0
SEQEND
  8
0
  0
POLYLINE
  8
0
 62
     7
 66
     1
 10
0.0
 20
0.0
 30
0.0
 70
     1
 71
    12
  0
VERTEX
  8
0
 10
78.782791
 20
234.403198
 30
0.0
  0
VERTEX
  8
0
 10
78.992981
 20
234.403198
 30
0.0
  0
VERTEX
  8
0
 10
78.992981
 20
236.430313
 30
0.0
  0
VERTEX
  8
0
 10
79.054001
 20
236.246033
 30
0.0
  0
VERTEX
  8
0
 10
79.829208
 20
234.403198
 30
0.0
  0
VERTEX
  8
0
 10
80.068779
 20
234.403198
 30
0.0
  0
VERTEX
  8
0
 10
80.068779
 20
236.903198
 30
0.0
  0
VERTEX
  8
0
 10
79.858589
 20
236.903198
 30
0.0
  0
VERTEX
  8
0
 10
79.858589
 20
234.876083
 30
0.0
  0
VERTEX
  8
0
 10
79.784004
 20
235.088181
 30
0.0
  0
VERTEX
  8
0
 10
79.02462
 20
236.903198
 30
0.0
  0
VERTEX
  8
0
 10
78.782791
 20
236.903198
 30
0.0
  0
SEQEND
  8
0
  0
ARC
  8
0
 62
     7
 10
89.867912
 20
124.582619
 30
0.0
 40
1.5
 50
25.841934
 51
90.000003
210
0.0
220
0.0
230
1.0
  0
ARC
  8
0
 62
     7
 10
89.867912
 20
124.582619
 30
0.0
 40
1.5
 50
20.000001
 51
25.841934
210
0.0
220
0.0
230
1.0
  0
LINE
  8
0
 62
     7
 10
91.277451
 20
125.09565
 30
0.0
 11
91.828148
 21
123.582619
 31
0.0
210
0.0
220
0.0
230
1.0
  0
LINE
  8
0
 62
     7
 10
104.067909
 20
123.582619
 30
0.0
 11
116.917908
 21
123.582619
 31
0.0
210
0.0
220
0.0
230
1.0
  0
LINE
  8
0
 62
     7
 10
104.067909
 20
123.582619
 30
0.0
 11
91.828148
 21
123.582619
 31
0.0
210
0.0
220
0.0
230
1.0
  0
CIRCLE
  8
0
 62
     7
 10
110.817909
 20
126.032616
 30
0.0
 40
0.7
210
0.0
220
0.0
230
1.0
  0
CIRCLE
  8
0
 62
     7
 10
97.317909
 20
134.192612
 30
0.0
 40
0.9
210
0.0
220
0.0
230
1.0
  0
CIRCLE
  8
0
 62
     7
 10
115.167908
 20
126.032616
 30
0.0
 40
0.7
210
0.0
220
0.0
230
1.0
  0
CIRCLE
  8
0
 62
     7
 10
97.317909
 20
126.032616
 30
0.0
 40
0.7
210
0.0
220
0.0
230
1.0
  0
CIRCLE
  8
0
 62
     7
 10
92.967911
 20
126.032616
 30
0.0
 40
0.7
210
0.0
220
0.0
230
1.0
  0
CIRCLE
  8
0
 62
     7
 10
110.817909
 20
134.192612
 30
0.0
 40
0.9
210
0.0
220
0.0
230
1.0
  0
LINE
  8
0
 62
     7
 10
80.567909
 20
126.082619
 30
0.0
 11
89.567909
 21
126.082619
 31
0.0
210
0.0
220
0.0
230
1.0
  0
LINE
  8
0
 62
     7
 10
89.567909
 20
126.082619
 30
0.0
 11
89.867912
 21
126.082619
 31
0.0
210
0.0
220
0.0
230
1.0
  0
LINE
  8
0
 62
     7
 10
62.067909
 20
216.932617
 30
0.0
 11
62.067909
 21
216.715759
 31
0.0
210
0.0
220
0.0
230
1.0
  0
LINE
  8
0
 62
     7
 10
62.067909
 20
222.582611
 30
0.0
 11
62.067909
 21
216.932617
 31
0.0
210
0.0
220
0.0
230
1.0
  0
LINE
  8
0
 62
     7
 10
65.146851
 20
211.217926
 30
0.0
 11
62.067909
 21
216.715759
 31
0.0
210
0.0
220
0.0
230
1.0
  0
LINE
  8
0
 62
     7
 10
65.146851
 20
211.217926
 30
0.0
 11
66.009949
 21
208.256775
 31
0.0
210
0.0
220
0.0
230
1.0
  0
ARC
  8
0
 62
     7
 10
64.56987
 20
207.837021
 30
0.0
 40
1.5
 50
340.439504
 51
16.25
210
0.0
220
0.0
230
1.0
  0
LINE
  8
0
 62
     7
 10
65.945091
 20
207.281738
 30
0.0
 11
65.983307
 21
207.334808
 31
0.0
210
0.0
220
0.0
230
1.0
  0
LINE
  8
0
 62
     7
 10
64.281479
 20
204.970825
 30
0.0
 11
65.945091
 21
207.281738
 31
0.0
210
0.0
220
0.0
230
1.0
  0
LINE
  8
0
 62
     7
 10
60.30365
 20
189.766083
 30
0.0
 11
58.362637
 21
193.23201
 31
0.0
210
0.0
220
0.0
230
1.0
  0
LINE
  8
0
 62
     7
 10
66.269043
 20
179.114105
 30
0.0
 11
60.30365
 21
189.766083
 31
0.0
210
0.0
220
0.0
230
1.0
  0
ARC
  8
0
 62
     7
 10
64.960297
 20
178.381165
 30
0.0
 40
1.5
 50
324.250001
 51
29.249998
210
0.0
220
0.0
230
1.0
  0
LINE
  8
0
 62
     7
 10
65.945091
 20
177.181732
 30
0.0
 11
66.177658
 21
177.504791
 31
0.0
210
0.0
220
0.0
230
1.0
  0
LINE
  8
0
 62
     7
 10
65.945091
 20
177.181732
 30
0.0
 11
64.281479
 21
174.870819
 31
0.0
210
0.0
220
0.0
230
1.0
  0
LINE
  8
0
 62
     7
 10
60.30365
 20
159.666077
 30
0.0
 11
58.362637
 21
163.132019
 31
0.0
210
0.0
220
0.0
230
1.0
  0
LINE
  8
0
 62
     7
 10
60.30365
 20
159.666077
 30
0.0
 11
66.269043
 21
149.014099
 31
0.0
210
0.0
220
0.0
230
1.0
  0
ARC
  8
0
 62
     7
 10
64.960297
 20
148.281174
 30
0.0
 40
1.5
 50
324.250001
 51
29.249998
210
0.0
220
0.0
230
1.0
  0
LINE
  8
0
 62
     7
 10
65.945091
 20
147.081741
 30
0.0
 11
66.177658
 21
147.4048
 31
0.0
210
0.0
220
0.0
230
1.0
  0
LINE
  8
0
 62
     7
 10
64.281479
 20
144.770828
 30
0.0
 11
65.945091
 21
147.081741
 31
0.0
210
0.0
220
0.0
230
1.0
  0
LINE
  8
0
 62
     7
 10
119.675087
 20
123.582619
 30
0.0
 11
116.917908
 21
123.582619
 31
0.0
210
0.0
220
0.0
230
1.0
  0
LINE
  8
0
 62
     7
 10
120.367905
 20
123.98262
 30
0.0
 11
119.675087
 21
123.582619
 31
0.0
210
0.0
220
0.0
230
1.0
  0
LINE
  8
0
 62
     7
 10
120.367905
 20
123.98262
 30
0.0
 11
120.367905
 21
125.782616
 31
0.0
210
0.0
220
0.0
230
1.0
  0
ARC
  8
0
 62
     7
 10
121.567909
 20
125.782616
 30
0.0
 40
1.2
 50
0.0
 51
180.000005
210
0.0
220
0.0
230
1.0
  0
LINE
  8
0
 62
     7
 10
122.767914
 20
125.782616
 30
0.0
 11
122.767914
 21
123.582619
 31
0.0
210
0.0
220
0.0
230
1.0
  0
LINE
  8
0
 62
     7
 10
134.88559
 20
123.582619
 30
0.0
 11
122.767914
 21
123.582619
 31
0.0
210
0.0
220
0.0
230
1.0
  0
ARC
  8
0
 62
     7
 10
134.88559
 20
122.082619
 30
0.0
 40
1.5
 50
56.442689
 51
73.597638
210
0.0
220
0.0
230
1.0
  0
ARC
  8
0
 62
     7
 10
134.88559
 20
122.082619
 30
0.0
 40
1.5
 50
73.597638
 51
90.000003
210
0.0
220
0.0
230
1.0
  0
LINE
  8
0
 62
     7
 10
143.85434
 20
144.770828
 30
0.0
 11
142.190735
 21
147.081741
 31
0.0
210
0.0
220
0.0
230
1.0
  0
LINE
  8
0
 62
     7
 10
142.190735
 20
147.081741
 30
0.0
 11
141.95816
 21
147.4048
 31
0.0
210
0.0
220
0.0
230
1.0
  0
ARC
  8
0
 62
     7
 10
143.175522
 20
148.281174
 30
0.0
 40
1.5
 50
150.750007
 51
215.749997
210
0.0
220
0.0
230
1.0
  0
LINE
  8
0
 62
     7
 10
147.832169
 20
159.666077
 30
0.0
 11
141.866776
 21
149.014099
 31
0.0
210
0.0
220
0.0
230
1.0
  0
LINE
  8
0
 62
     7
 10
147.832169
 20
159.666077
 30
0.0
 11
149.773178
 21
163.132019
 31
0.0
210
0.0
220
0.0
230
1.0
  0
LINE
  8
0
 62
     7
 10
142.190735
 20
177.181732
 30
0.0
 11
143.85434
 21
174.870819
 31
0.0
210
0.0
220
0.0
230
1.0
  0
LINE
  8
0
 62
     7
 10
142.190735
 20
177.181732
 30
0.0
 11
141.95816
 21
177.504791
 31
0.0
210
0.0
220
0.0
230
1.0
  0
ARC
  8
0
 62
     7
 10
143.175522
 20
178.381165
 30
0.0
 40
1.5
 50
150.750007
 51
215.749997
210
0.0
220
0.0
230
1.0
  0
LINE
  8
0
 62
     7
 10
94.417908
 20
133.23262
 30
0.0
 11
95.717911
 21
133.23262
 31
0.0
210
0.0
220
0.0
230
1.0
  0
LINE
  8
0
 62
     7
 10
95.717911
 20
134.882614
 30
0.0
 11
95.717911
 21
133.23262
 31
0.0
210
0.0
220
0.0
230
1.0
  0
LINE
  8
0
 62
     7
 10
95.717911
 20
134.882614
 30
0.0
 11
94.417908
 21
134.882614
 31
0.0
210
0.0
220
0.0
230
1.0
  0
LINE
  8
0
 62
     7
 10
94.417908
 20
133.23262
 30
0.0
 11
94.417908
 21
134.882614
 31
0.0
210
0.0
220
0.0
230
1.0
  0
LINE
  8
0
 62
     7
 10
98.917908
 20
133.23262
 30
0.0
 11
100.217911
 21
133.23262
 31
0.0
210
0.0
220
0.0
230
1.0
  0
LINE
  8
0
 62
     7
 10
100.217911
 20
134.882614
 30
0.0
 11
100.217911
 21
133.23262
 31
0.0
210
0.0
220
0.0
230
1.0
  0
LINE
  8
0
 62
     7
 10
100.217911
 20
134.882614
 30
0.0
 11
98.917908
 21
134.882614
 31
0.0
210
0.0
220
0.0
230
1.0
  0
LINE
  8
0
 62
     7
 10
98.917908
 20
133.23262
 30
0.0
 11
98.917908
 21
134.882614
 31
0.0
210
0.0
220
0.0
230
1.0
  0
LINE
  8
0
 62
     7
 10
113.717911
 20
133.23262
 30
0.0
 11
113.717911
 21
134.882614
 31
0.0
210
0.0
220
0.0
230
1.0
  0
LINE
  8
0
 62
     7
 10
112.417908
 20
134.882614
 30
0.0
 11
113.717911
 21
134.882614
 31
0.0
210
0.0
220
0.0
230
1.0
  0
LINE
  8
0
 62
     7
 10
112.417908
 20
134.882614
 30
0.0
 11
112.417908
 21
133.23262
 31
0.0
210
0.0
220
0.0
230
1.0
  0
LINE
  8
0
 62
     7
 10
113.717911
 20
133.23262
 30
0.0
 11
112.417908
 21
133.23262
 31
0.0
210
0.0
220
0.0
230
1.0
  0
LINE
  8
0
 62
     7
 10
109.217911
 20
133.23262
 30
0.0
 11
109.217911
 21
134.882614
 31
0.0
210
0.0
220
0.0
230
1.0
  0
LINE
  8
0
 62
     7
 10
107.917908
 20
134.882614
 30
0.0
 11
109.217911
 21
134.882614
 31
0.0
210
0.0
220
0.0
230
1.0
  0
LINE
  8
0
 62
     7
 10
107.917908
 20
134.882614
 30
0.0
 11
107.917908
 21
133.23262
 31
0.0
210
0.0
220
0.0
230
1.0
  0
LINE
  8
0
 62
     7
 10
109.217911
 20
133.23262
 30
0.0
 11
107.917908
 21
133.23262
 31
0.0
210
0.0
220
0.0
230
1.0
  0
LINE
  8
0
 62
     7
 10
103.417908
 20
133.23262
 30
0.0
 11
104.717911
 21
133.23262
 31
0.0
210
0.0
220
0.0
230
1.0
  0
LINE
  8
0
 62
     7
 10
104.717911
 20
134.882614
 30
0.0
 11
104.717911
 21
133.23262
 31
0.0
210
0.0
220
0.0
230
1.0
  0
LINE
  8
0
 62
     7
 10
104.717911
 20
134.882614
 30
0.0
 11
103.417908
 21
134.882614
 31
0.0
210
0.0
220
0.0
230
1.0
  0
LINE
  8
0
 62
     7
 10
103.417908
 20
133.23262
 30
0.0
 11
103.417908
 21
134.882614
 31
0.0
210
0.0
220
0.0
230
1.0
  0
LINE
  8
0
 62
     7
 10
142.817902
 20
222.582611
 30
0.0
 11
142.817902
 21
220.782623
 31
0.0
210
0.0
220
0.0
230
1.0
  0
ARC
  8
0
 62
     7
 10
141.617905
 20
220.782623
 30
0.0
 40
1.2
 50
318.59038
 51
0.0
210
0.0
220
0.0
230
1.0
  0
ARC
  8
0
 62
     7
 10
141.617905
 20
220.782623
 30
0.0
 40
1.2
 50
180.000005
 51
221.409615
210
0.0
220
0.0
230
1.0
  0
ARC
  8
0
 62
     7
 10
141.617905
 20
220.782623
 30
0.0
 40
1.2
 50
221.409615
 51
318.59038
210
0.0
220
0.0
230
1.0
  0
LINE
  8
0
 62
     7
 10
62.067909
 20
222.582611
 30
0.0
 11
65.617905
 21
222.582611
 31
0.0
210
0.0
220
0.0
230
1.0
  0
LINE
  8
0
 62
     7
 10
65.617905
 20
222.582611
 30
0.0
 11
67.417908
 21
222.582611
 31
0.0
210
0.0
220
0.0
230
1.0
  0
LINE
  8
0
 62
     7
 10
104.067909
 20
222.582611
 30
0.0
 11
67.417908
 21
222.582611
 31
0.0
210
0.0
220
0.0
230
1.0
  0
LINE
  8
0
 62
     7
 10
64.281479
 20
204.970825
 30
0.0
 11
67.139908
 21
199.86673
 31
0.0
210
0.0
220
0.0
230
1.0
  0
ARC
  8
0
 62
     7
 10
65.831161
 20
199.133789
 30
0.0
 40
1.5
 50
299.250003
 51
29.249998
210
0.0
220
0.0
230
1.0
  0
LINE
  8
0
 62
     7
 10
58.362637
 20
193.23201
 30
0.0
 11
66.564102
 21
197.825043
 31
0.0
210
0.0
220
0.0
230
1.0
  0
LINE
  8
0
 62
     7
 10
64.281479
 20
174.870819
 30
0.0
 11
67.139908
 21
169.766724
 31
0.0
210
0.0
220
0.0
230
1.0
  0
ARC
  8
0
 62
     7
 10
65.831161
 20
169.033798
 30
0.0
 40
1.5
 50
299.250003
 51
29.249998
210
0.0
220
0.0
230
1.0
  0
LINE
  8
0
 62
     7
 10
58.362637
 20
163.132019
 30
0.0
 11
66.564102
 21
167.725052
 31
0.0
210
0.0
220
0.0
230
1.0
  0
LINE
  8
0
 62
     7
 10
64.281479
 20
144.770828
 30
0.0
 11
67.139908
 21
139.666718
 31
0.0
210
0.0
220
0.0
230
1.0
  0
ARC
  8
0
 62
     7
 10
65.831161
 20
138.933792
 30
0.0
 40
1.5
 50
299.250003
 51
29.249998
210
0.0
220
0.0
230
1.0
  0
LINE
  8
0
 62
     7
 10
58.362637
 20
133.032013
 30
0.0
 11
66.564102
 21
137.625046
 31
0.0
210
0.0
220
0.0
230
1.0
  0
LINE
  8
0
 62
     7
 10
58.362637
 20
133.032013
 30
0.0
 11
59.876652
 21
130.328537
 31
0.0
210
0.0
220
0.0
230
1.0
  0
CIRCLE
  8
0
 62
     7
 10
61.68166
 20
132.688309
 30
0.0
 40
0.7
210
0.0
220
0.0
230
1.0
  0
ARC
  8
0
 62
     7
 10
69.067909
 20
123.082619
 30
0.0
 40
1.5
 50
80.191455
 51
90.000003
210
0.0
220
0.0
230
1.0
  0
ARC
  8
0
 62
     7
 10
69.067909
 20
123.082619
 30
0.0
 40
1.5
 50
24.903947
 51
37.992026
210
0.0
220
0.0
230
1.0
  0
ARC
  8
0
 62
     7
 10
69.067909
 20
123.082619
 30
0.0
 40
1.5
 50
37.992026
 51
80.191455
210
0.0
220
0.0
230
1.0
  0
ARC
  8
0
 62
     7
 10
71.244743
 20
124.093254
 30
0.0
 40
0.9
 50
204.903944
 51
234.647396
210
0.0
220
0.0
230
1.0
  0
ARC
  8
0
 62
     7
 10
71.591904
 20
124.582619
 30
0.0
 40
1.5
 50
234.647396
 51
276.96578
210
0.0
220
0.0
230
1.0
  0
ARC
  8
0
 62
     7
 10
71.591904
 20
124.582619
 30
0.0
 40
1.5
 50
276.96578
 51
303.557311
210
0.0
220
0.0
230
1.0
  0
ARC
  8
0
 62
     7
 10
73.250221
 20
122.082619
 30
0.0
 40
1.5
 50
106.402367
 51
123.557316
210
0.0
220
0.0
230
1.0
  0
ARC
  8
0
 62
     7
 10
73.250221
 20
122.082619
 30
0.0
 40
1.5
 50
90.000003
 51
106.402367
210
0.0
220
0.0
230
1.0
  0
LINE
  8
0
 62
     7
 10
73.250221
 20
123.582619
 30
0.0
 11
75.567909
 21
123.582619
 31
0.0
210
0.0
220
0.0
230
1.0
  0
LINE
  8
0
 62
     7
 10
79.067909
 20
123.582619
 30
0.0
 11
75.567909
 21
123.582619
 31
0.0
210
0.0
220
0.0
230
1.0
  0
LINE
  8
0
 62
     7
 10
79.067909
 20
123.582619
 30
0.0
 11
79.067909
 21
124.582619
 31
0.0
210
0.0
220
0.0
230
1.0
  0
ARC
  8
0
 62
     7
 10
80.567909
 20
124.582619
 30
0.0
 40
1.5
 50
90.000003
 51
180.000005
210
0.0
220
0.0
230
1.0
  0
ARC
  8
0
 62
     7
 10
136.543915
 20
124.582619
 30
0.0
 40
1.5
 50
263.034222
 51
305.352602
210
0.0
220
0.0
230
1.0
  0
ARC
  8
0
 62
     7
 10
136.543915
 20
124.582619
 30
0.0
 40
1.5
 50
236.442684
 51
263.034222
210
0.0
220
0.0
230
1.0
  0
ARC
  8
0
 62
     7
 10
136.891083
 20
124.093254
 30
0.0
 40
0.9
 50
305.352602
 51
335.096053
210
0.0
220
0.0
230
1.0
  0
ARC
  8
0
 62
     7
 10
139.067902
 20
123.082619
 30
0.0
 40
1.5
 50
90.000003
 51
99.808543
210
0.0
220
0.0
230
1.0
  0
ARC
  8
0
 62
     7
 10
139.067902
 20
123.082619
 30
0.0
 40
1.5
 50
99.808543
 51
142.007979
210
0.0
220
0.0
230
1.0
  0
ARC
  8
0
 62
     7
 10
139.067902
 20
123.082619
 30
0.0
 40
1.5
 50
142.007979
 51
155.096056
210
0.0
220
0.0
230
1.0
  0
CIRCLE
  8
0
 62
     7
 10
146.454163
 20
132.688309
 30
0.0
 40
0.7
210
0.0
220
0.0
230
1.0
  0
LINE
  8
0
 62
     7
 10
149.773178
 20
133.032013
 30
0.0
 11
148.259171
 21
130.328537
 31
0.0
210
0.0
220
0.0
230
1.0
  0
LINE
  8
0
 62
     7
 10
149.773178
 20
133.032013
 30
0.0
 11
141.571716
 21
137.625046
 31
0.0
210
0.0
220
0.0
230
1.0
  0
ARC
  8
0
 62
     7
 10
142.304657
 20
138.933792
 30
0.0
 40
1.5
 50
150.750007
 51
240.750006
210
0.0
220
0.0
230
1.0
  0
LINE
  8
0
 62
     7
 10
143.85434
 20
144.770828
 30
0.0
 11
140.995911
 21
139.666718
 31
0.0
210
0.0
220
0.0
230
1.0
  0
LINE
  8
0
 62
     7
 10
149.773178
 20
163.132019
 30
0.0
 11
141.571716
 21
167.725052
 31
0.0
210
0.0
220
0.0
230
1.0
  0
ARC
  8
0
 62
     7
 10
142.304657
 20
169.033798
 30
0.0
 40
1.5
 50
150.750007
 51
240.750006
210
0.0
220
0.0
230
1.0
  0
LINE
  8
0
 62
     7
 10
143.85434
 20
174.870819
 30
0.0
 11
140.995911
 21
169.766724
 31
0.0
210
0.0
220
0.0
230
1.0
  0
CIRCLE
  8
0
 62
     7
 10
87.757912
 20
128.382614
 30
0.0
 40
0.7
210
0.0
220
0.0
230
1.0
  0
CIRCLE
  8
0
 62
     7
 10
77.917908
 20
129.98262
 30
0.0
 40
0.7
210
0.0
220
0.0
230
1.0
  0
CIRCLE
  8
0
 62
     7
 10
71.591751
 20
124.713806
 30
0.0
 40
0.7
210
0.0
220
0.0
230
1.0
  0
CIRCLE
  8
0
 62
     7
 10
136.544067
 20
124.713806
 30
0.0
 40
0.7
210
0.0
220
0.0
230
1.0
  0
CIRCLE
  8
0
 62
     7
 10
61.68166
 20
162.7883
 30
0.0
 40
0.7
210
0.0
220
0.0
230
1.0
  0
CIRCLE
  8
0
 62
     7
 10
140.990524
 20
162.753525
 30
0.0
 40
0.7
210
0.0
220
0.0
230
1.0
  0
CIRCLE
  8
0
 62
     7
 10
146.454163
 20
162.7883
 30
0.0
 40
0.7
210
0.0
220
0.0
230
1.0
  0
CIRCLE
  8
0
 62
     7
 10
136.544067
 20
154.813812
 30
0.0
 40
0.7
210
0.0
220
0.0
230
1.0
  0
CIRCLE
  8
0
 62
     7
 10
67.145294
 20
162.753525
 30
0.0
 40
0.7
210
0.0
220
0.0
230
1.0
  0
CIRCLE
  8
0
 62
     7
 10
71.591751
 20
154.813812
 30
0.0
 40
0.7
210
0.0
220
0.0
230
1.0
  0
CIRCLE
  8
0
 62
     7
 10
67.187286
 20
157.562103
 30
0.0
 40
0.7
210
0.0
220
0.0
230
1.0
  0
CIRCLE
  8
0
 62
     7
 10
140.948532
 20
157.562103
 30
0.0
 40
0.7
210
0.0
220
0.0
230
1.0
  0
CIRCLE
  8
0
 62
     7
 10
61.68166
 20
192.888306
 30
0.0
 40
0.7
210
0.0
220
0.0
230
1.0
  0
CIRCLE
  8
0
 62
     7
 10
67.145294
 20
192.853516
 30
0.0
 40
0.7
210
0.0
220
0.0
230
1.0
  0
CIRCLE
  8
0
 62
     7
 10
71.591751
 20
184.913803
 30
0.0
 40
0.7
210
0.0
220
0.0
230
1.0
  0
CIRCLE
  8
0
 62
     7
 10
67.187286
 20
187.662109
 30
0.0
 40
0.7
210
0.0
220
0.0
230
1.0
  0
ARC
  8
0
 62
     7
 10
58.567909
 20
129.595612
 30
0.0
 40
1.5
 50
360.0
 51
29.249998
210
0.0
220
0.0
230
1.0
  0
LINE
  8
0
 62
     7
 10
60.067909
 20
129.595612
 30
0.0
 11
60.067909
 21
129.434052
 31
0.0
210
0.0
220
0.0
230
1.0
  0
CIRCLE
  8
0
 62
     7
 10
67.145294
 20
132.653519
 30
0.0
 40
0.7
210
0.0
220
0.0
230
1.0
  0
CIRCLE
  8
0
 62
     7
 10
67.187286
 20
127.462112
 30
0.0
 40
0.7
210
0.0
220
0.0
230
1.0
  0
LINE
  8
0
 62
     7
 10
74.167908
 20
129.582611
 30
0.0
 11
74.167908
 21
129.57457
 31
0.0
210
0.0
220
0.0
230
1.0
  0
LINE
  8
0
 62
     7
 10
148.067902
 20
129.595612
 30
0.0
 11
148.067902
 21
129.434052
 31
0.0
210
0.0
220
0.0
230
1.0
  0
ARC
  8
0
 62
     7
 10
149.567902
 20
129.595612
 30
0.0
 40
1.5
 50
150.750007
 51
179.999995
210
0.0
220
0.0
230
1.0
  0
CIRCLE
  8
0
 62
     7
 10
140.990524
 20
132.653519
 30
0.0
 40
0.7
210
0.0
220
0.0
230
1.0
  0
CIRCLE
  8
0
 62
     7
 10
140.948532
 20
127.462112
 30
0.0
 40
0.7
210
0.0
220
0.0
230
1.0
  0
LINE
  8
0
 62
     7
 10
140.417908
 20
222.582611
 30
0.0
 11
140.417908
 21
220.782623
 31
0.0
210
0.0
220
0.0
230
1.0
  0
LINE
  8
0
 62
     7
 10
104.067909
 20
222.582611
 30
0.0
 11
140.417908
 21
222.582611
 31
0.0
210
0.0
220
0.0
230
1.0
  0
LINE
  8
0
 62
     7
 10
69.067909
 20
124.582619
 30
0.0
 11
60.067909
 21
124.582619
 31
0.0
210
0.0
220
0.0
230
1.0
  0
LINE
  8
0
 62
     7
 10
60.067909
 20
129.434052
 30
0.0
 11
60.067909
 21
124.582619
 31
0.0
210
0.0
220
0.0
230
1.0
  0
LINE
  8
0
 62
     7
 10
148.067902
 20
124.582619
 30
0.0
 11
139.067902
 21
124.582619
 31
0.0
210
0.0
220
0.0
230
1.0
  0
LINE
  8
0
 62
     7
 10
148.067902
 20
129.434052
 30
0.0
 11
148.067902
 21
124.582619
 31
0.0
210
0.0
220
0.0
230
1.0
  0
LINE
  8
0
 62
     7
 10
142.817902
 20
222.582611
 30
0.0
 11
146.067902
 21
222.582611
 31
0.0
210
0.0
220
0.0
230
1.0
  0
LINE
  8
0
 62
     7
 10
150.529099
 20
194.581787
 30
0.0
 11
154.946777
 21
202.470123
 31
0.0
210
0.0
220
0.0
230
1.0
  0
LINE
  8
0
 62
     7
 10
141.866776
 20
179.114105
 30
0.0
 11
150.529099
 21
194.581787
 31
0.0
210
0.0
220
0.0
230
1.0
  0
LINE
  8
0
 62
     7
 10
155.099152
 20
202.742218
 30
0.0
 11
154.946777
 21
202.470123
 31
0.0
210
0.0
220
0.0
230
1.0
  0
LINE
  8
0
 62
     7
 10
146.067902
 20
218.383041
 30
0.0
 11
146.067902
 21
218.762344
 31
0.0
210
0.0
220
0.0
230
1.0
  0
LINE
  8
0
 62
     7
 10
146.067902
 20
218.762344
 30
0.0
 11
146.067902
 21
222.582611
 31
0.0
210
0.0
220
0.0
230
1.0
  0
LINE
  8
0
 62
     7
 10
146.067902
 20
217.625351
 30
0.0
 11
146.067902
 21
218.383041
 31
0.0
210
0.0
220
0.0
230
1.0
  0
LINE
  8
0
 62
     7
 10
146.295837
 20
216.830475
 30
0.0
 11
155.099152
 21
202.742218
 31
0.0
210
0.0
220
0.0
230
1.0
  0
ARC
  8
0
 62
     7
 10
147.567902
 20
217.625351
 30
0.0
 40
1.5
 50
180.000005
 51
212.000005
210
0.0
220
0.0
230
1.0
  0
CIRCLE
  8
0
 62
     7
 10
141.973419
 20
199.404449
 30
0.0
 40
1.6
210
0.0
220
0.0
230
1.0
  0
CIRCLE
  8
0
 62
     7
 10
136.859695
 20
207.58812
 30
0.0
 40
1.6
210
0.0
220
0.0
230
1.0
  0
CIRCLE
  8
0
 62
     7
 10
140.816666
 20
213.238602
 30
0.0
 40
0.635
210
0.0
220
0.0
230
1.0
  0
CIRCLE
  8
0
 62
     7
 10
142.970703
 20
214.584595
 30
0.0
 40
0.635
210
0.0
220
0.0
230
1.0
  0
CIRCLE
  8
0
 62
     7
 10
146.632614
 20
199.13797
 30
0.0
 40
0.635
210
0.0
220
0.0
230
1.0
  0
CIRCLE
  8
0
 62
     7
 10
148.786652
 20
200.483948
 30
0.0
 40
0.635
210
0.0
220
0.0
230
1.0
  0
CIRCLE
  8
0
 62
     7
 10
133.28157
 20
200.859589
 30
0.0
 40
0.445
210
0.0
220
0.0
230
1.0
  0
CIRCLE
  8
0
 62
     7
 10
134.3573
 20
199.138062
 30
0.0
 40
0.445
210
0.0
220
0.0
230
1.0
  0
CIRCLE
  8
0
 62
     7
 10
132.743774
 20
196.927048
 30
0.0
 40
0.445
210
0.0
220
0.0
230
1.0
  0
CIRCLE
  8
0
 62
     7
 10
135.433044
 20
197.416504
 30
0.0
 40
0.445
210
0.0
220
0.0
230
1.0
  0
CIRCLE
  8
0
 62
     7
 10
133.819519
 20
195.205505
 30
0.0
 40
0.445
210
0.0
220
0.0
230
1.0
  0
CIRCLE
  8
0
 62
     7
 10
136.508774
 20
195.694977
 30
0.0
 40
0.445
210
0.0
220
0.0
230
1.0
  0
CIRCLE
  8
0
 62
     7
 10
134.895248
 20
193.483978
 30
0.0
 40
0.445
210
0.0
220
0.0
230
1.0
  0
CIRCLE
  8
0
 62
     7
 10
130.587006
 20
200.378601
 30
0.0
 40
0.445
210
0.0
220
0.0
230
1.0
  0
CIRCLE
  8
0
 62
     7
 10
132.205841
 20
202.581131
 30
0.0
 40
0.445
210
0.0
220
0.0
230
1.0
  0
CIRCLE
  8
0
 62
     7
 10
129.511276
 20
202.100143
 30
0.0
 40
0.445
210
0.0
220
0.0
230
1.0
  0
CIRCLE
  8
0
 62
     7
 10
131.130096
 20
204.302673
 30
0.0
 40
0.445
210
0.0
220
0.0
230
1.0
  0
CIRCLE
  8
0
 62
     7
 10
128.435547
 20
203.821686
 30
0.0
 40
0.445
210
0.0
220
0.0
230
1.0
  0
CIRCLE
  8
0
 62
     7
 10
134.75856
 20
210.950623
 30
0.0
 40
0.785
210
0.0
220
0.0
230
1.0
  0
CIRCLE
  8
0
 62
     7
 10
144.074554
 20
196.041946
 30
0.0
 40
0.785
210
0.0
220
0.0
230
1.0
  0
CIRCLE
  8
0
 62
     7
 10
150.940704
 20
201.829956
 30
0.0
 40
0.635
210
0.0
220
0.0
230
1.0
  0
ENDSEC
  0
EOF
