  0
SECTION
  2
HEADER
  9
$ACADVER
  1
AC1009
  9
$DWGCODEPAGE
  3
ansi_1252
  9
$INSBASE
 10
0.0
 20
0.0
 30
0.0
  9
$EXTMIN
 10
0.0
 20
0.0
 30
0.0
  9
$EXTMAX
 10
156.884338
 20
218.344177
 30
2.0
  9
$LIMMIN
 10
0.0
 20
0.0
  9
$LIMMAX
 10
420.0
 20
297.0
  9
$ORTHOMODE
 70
     0
  9
$REGENMODE
 70
     1
  9
$FILLMODE
 70
     1
  9
$QTEXTMODE
 70
     0
  9
$MIRRTEXT
 70
     1
  9
$DRAGMODE
 70
     2
  9
$LTSCALE
 40
1.0
  9
$OSMODE
 70
     0
  9
$ATTMODE
 70
     1
  9
$TEXTSIZE
 40
2.5
  9
$TRACEWID
 40
1.0
  9
$TEXTSTYLE
  7
STANDARD
  9
$CLAYER
  8
0
  9
$CELTYPE
  6
BYLAYER
  9
$CECOLOR
 62
   256
  9
$DIMSCALE
 40
1.0
  9
$DIMASZ
 40
2.5
  9
$DIMEXO
 40
0.625
  9
$DIMDLI
 40
3.75
  9
$DIMRND
 40
0.0
  9
$DIMDLE
 40
0.0
  9
$DIMEXE
 40
1.25
  9
$DIMTP
 40
0.0
  9
$DIMTM
 40
0.0
  9
$DIMTXT
 40
2.5
  9
$DIMCEN
 40
2.5
  9
$DIMTSZ
 40
0.0
  9
$DIMTOL
 70
     0
  9
$DIMLIM
 70
     0
  9
$DIMTIH
 70
     0
  9
$DIMTOH
 70
     0
  9
$DIMSE1
 70
     0
  9
$DIMSE2
 70
     0
  9
$DIMTAD
 70
     1
  9
$DIMZIN
 70
     8
  9
$DIMBLK
  1

  9
$DIMASO
 70
     1
  9
$DIMSHO
 70
     1
  9
$DIMPOST
  1

  9
$DIMAPOST
  1

  9
$DIMALT
 70
     0
  9
$DIMALTD
 70
     3
  9
$DIMALTF
 40
0.03937
  9
$DIMLFAC
 40
1.0
  9
$DIMTOFL
 70
     1
  9
$DIMTVP
 40
0.0
  9
$DIMTIX
 70
     0
  9
$DIMSOXD
 70
     0
  9
$DIMSAH
 70
     0
  9
$DIMBLK1
  1

  9
$DIMBLK2
  1

  9
$DIMSTYLE
  2

  9
$DIMCLRD
 70
     0
  9
$DIMCLRE
 70
     0
  9
$DIMCLRT
 70
     0
  9
$DIMTFAC
 40
1.0
  9
$DIMGAP
 40
0.625
  9
$LUNITS
 70
     2
  9
$LUPREC
 70
     4
  9
$AXISMODE
 70
     0
  9
$AXISUNIT
 10
0.0
 20
0.0
  9
$SKETCHINC
 40
1.0
  9
$FILLETRAD
 40
2.5
  9
$AUNITS
 70
     0
  9
$AUPREC
 70
     0
  9
$MENU
  1
.
  9
$ELEVATION
 40
0.0
  9
$PELEVATION
 40
0.0
  9
$THICKNESS
 40
0.0
  9
$LIMCHECK
 70
     0
  9
$BLIPMODE
 70
     1
  9
$CHAMFERA
 40
2.5
  9
$CHAMFERB
 40
2.5
  9
$SKPOLY
 70
     0
  9
$TDCREATE
 40
0.000000000
  9
$TDUPDATE
 40
0.000000000
  9
$TDINDWG
 40
0.0000000000
  9
$TDUSRTIMER
 40
0.0000000000
  9
$USRTIMER
 70
     1
  9
$ANGBASE
 50
0.0
  9
$ANGDIR
 70
     0
  9
$PDMODE
 70
     0
  9
$PDSIZE
 40
0.0
  9
$PLINEWID
 40
0.0
  9
$COORDS
 70
     0
  9
$SPLFRAME
 70
     0
  9
$SPLINETYPE
 70
     6
  9
$SPLINESEGS
 70
     8
  9
$ATTDIA
 70
     0
  9
$ATTREQ
 70
     1
  9
$HANDLING
 70
     0
  9
$HANDSEED
  5
3
  9
$SURFTAB1
 70
     6
  9
$SURFTAB2
 70
     6
  9
$SURFTYPE
 70
     6
  9
$SURFU
 70
     6
  9
$SURFV
 70
     6
  9
$UCSNAME
  2

  9
$UCSORG
 10
0.0
 20
0.0
 30
0.0
  9
$UCSXDIR
 10
1.0
 20
0.0
 30
0.0
  9
$UCSYDIR
 10
0.0
 20
1.0
 30
0.0
  9
$PUCSNAME
  2

  9
$PUCSORG
 10
0.0
 20
0.0
 30
0.0
  9
$PUCSXDIR
 10
1.0
 20
0.0
 30
0.0
  9
$PUCSYDIR
 10
0.0
 20
1.0
 30
0.0
  9
$USERI1
 70
     0
  9
$USERI2
 70
     0
  9
$USERI3
 70
     0
  9
$USERI4
 70
     0
  9
$USERI5
 70
     0
  9
$USERR1
 40
0.0
  9
$USERR2
 40
0.0
  9
$USERR3
 40
0.0
  9
$USERR4
 40
0.0
  9
$USERR5
 40
0.0
  9
$WORLDVIEW
 70
     1
  9
$SHADEDGE
 70
     3
  9
$SHADEDIF
 70
    70
  9
$TILEMODE
 70
     1
  9
$MAXACTVP
 70
    48
  9
$PINSBASE
 10
0.0
 20
0.0
 30
0.0
  9
$PLIMCHECK
 70
     0
  9
$PEXTMIN
 10
0.0
 20
0.0
 30
0.0
  9
$PEXTMAX
 10
156.884338
 20
218.344177
 30
2.0
  9
$PLIMMIN
 10
0.0
 20
0.0
  9
$PLIMMAX
 10
420.0
 20
297.0
  9
$UNITMODE
 70
     0
  9
$VISRETAIN
 70
     0
  9
$PLINEGEN
 70
     0
  9
$PSLTSCALE
 70
     1
  9
$TREEDEPTH
 70
  3020
  0
ENDSEC
  0
SECTION
  2
TABLES
  0
TABLE
  2
VPORT
 70
     1
  0
VPORT
  2
*ACTIVE
 70
     0
 10
0.0
 20
0.0
 11
1.0
 21
1.0
 12
6.591288
 22
4.579184
 13
0.0
 23
0.0
 14
1.0
 24
1.0
 15
0.0
 25
0.0
 16
0.0
 26
0.0
 36
1.0
 17
0.0
 27
0.0
 37
0.0
 40
9.158369
 41
0.688564
 42
50.0
 43
0.0
 44
0.0
 50
0.0
 51
0.0
 71
     0
 72
   100
 73
     1
 74
     1
 75
     0
 76
     0
 77
     0
 78
     0
  0
ENDTAB
  0
TABLE
  2
LTYPE
 70
     2
  0
LTYPE
  2
CONTINUOUS
 70
    64
  3
Solid line
 72
    65
 73
     0
 40
0.0
  0
LTYPE
  2
DASHDOT
 70
     0
  3
 __ . __ . __ . __ . __ . __ . __ . 
 72
    65
 73
     4
 40
18.5
 49
12.0
 49
-3.0
 49
0.5
 49
-3.0
  0
ENDTAB
  0
TABLE
  2
LAYER
 70
     1
  0
LAYER
  2
0
 70
     0
 62
     7
  6
CONTINUOUS
  0
ENDTAB
  0
TABLE
  2
STYLE
 70
     1
  0
STYLE
  2
STANDARD
 70
     0
 40
0.0
 41
1.0
 50
0.0
 71
     0
 42
0.0
  3
txt
  4

  0
ENDTAB
  0
TABLE
  2
VIEW
 70
     0
  0
ENDTAB
  0
TABLE
  2
UCS
 70
     0
  0
ENDTAB
  0
TABLE
  2
APPID
 70
     1
  0
APPID
  2
ACAD
 70
     0
  0
ENDTAB
  0
TABLE
  2
DIMSTYLE
 70
     1
  0
DIMSTYLE
  2
STANDARD
 70
     0
  3

  4

  5

  6

  7

 40
1.0
 41
0.18
 42
0.0625
 43
0.38
 44
0.18
 45
0.0
 46
0.0
 47
0.0
 48
0.0
 71
     0
 72
     0
 73
     1
 74
     1
 75
     0
 76
     0
 77
     0
 78
     0
140
0.18
141
0.09
142
0.0
143
25.4
144
1.0
145
0.0
146
1.0
147
0.09
170
     0
171
     2
172
     0
173
     0
174
     0
175
     0
176
     0
177
     0
178
     0
  0
ENDTAB
  0
ENDSEC
  0
SECTION
  2
BLOCKS
  0
ENDSEC
  0
SECTION
  2
ENTITIES
  0
VIEWPORT
  8
0
 62
     0
 67
     1
 68
     1
 10
0.0
 20
0.0
 30
0.0
 40
1000.0
 41
1000.0
 69
     1
1001
ACAD
1000
MVIEW
1002
{
1070
    16
1010
0.0
1020
0.0
1030
0.0
1010
0.0
1020
0.0
1030
1.0
1040
0.0
1040
1000.0
1040
0.0
1040
0.0
1040
50.0
1040
0.0
1040
0.0
1070
     0
1070
   100
1070
     1
1070
     1
1070
     0
1070
     0
1070
     0
1070
     0
1040
0.0
1040
0.0
1040
0.0
1040
1.0
1040
1.0
1040
1.0
1040
1.0
1070
     0
1002
{
1002
}
1002
}
  0
LINE
  8
0
  6
DASHDOT
 62
     7
 10
125.444344
 20
105.375191
 30
0.0
 11
122.324348
 21
105.375191
 31
0.0
210
0.0
220
0.0
230
1.0
  0
LINE
  8
0
  6
DASHDOT
 62
     7
 10
123.884346
 20
106.935196
 30
0.0
 11
123.884346
 21
103.815193
 31
0.0
210
0.0
220
0.0
230
1.0
  0
LINE
  8
0
  6
DASHDOT
 62
     7
 10
144.216965
 20
172.446106
 30
0.0
 11
142.396957
 21
172.446106
 31
0.0
210
0.0
220
0.0
230
1.0
  0
LINE
  8
0
  6
DASHDOT
 62
     7
 10
143.306961
 20
173.356094
 30
0.0
 11
143.306961
 21
171.536102
 31
0.0
210
0.0
220
0.0
230
1.0
  0
LINE
  8
0
  6
DASHDOT
 62
     7
 10
139.770508
 20
164.506378
 30
0.0
 11
137.9505
 21
164.506378
 31
0.0
210
0.0
220
0.0
230
1.0
  0
LINE
  8
0
  6
DASHDOT
 62
     7
 10
138.860504
 20
165.416382
 30
0.0
 11
138.860504
 21
163.596375
 31
0.0
210
0.0
220
0.0
230
1.0
  0
LINE
  8
0
  6
DASHDOT
 62
     7
 10
70.371735
 20
172.446106
 30
0.0
 11
68.551727
 21
172.446106
 31
0.0
210
0.0
220
0.0
230
1.0
  0
LINE
  8
0
  6
DASHDOT
 62
     7
 10
69.461731
 20
173.356094
 30
0.0
 11
69.461731
 21
171.536102
 31
0.0
210
0.0
220
0.0
230
1.0
  0
LINE
  8
0
  6
DASHDOT
 62
     7
 10
90.984344
 20
107.975197
 30
0.0
 11
89.164345
 21
107.975197
 31
0.0
210
0.0
220
0.0
230
1.0
  0
LINE
  8
0
  6
DASHDOT
 62
     7
 10
90.074348
 20
108.885193
 30
0.0
 11
90.074348
 21
107.065193
 31
0.0
210
0.0
220
0.0
230
1.0
  0
LINE
  8
0
  6
DASHDOT
 62
     7
 10
81.144348
 20
109.575195
 30
0.0
 11
79.324348
 21
109.575195
 31
0.0
210
0.0
220
0.0
230
1.0
  0
LINE
  8
0
  6
DASHDOT
 62
     7
 10
80.234344
 20
110.485191
 30
0.0
 11
80.234344
 21
108.665192
 31
0.0
210
0.0
220
0.0
230
1.0
  0
LINE
  8
0
  6
DASHDOT
 62
     7
 10
144.174973
 20
167.254684
 30
0.0
 11
142.35498
 21
167.254684
 31
0.0
210
0.0
220
0.0
230
1.0
  0
LINE
  8
0
  6
DASHDOT
 62
     7
 10
143.264969
 20
168.164688
 30
0.0
 11
143.264969
 21
166.344681
 31
0.0
210
0.0
220
0.0
230
1.0
  0
LINE
  8
0
  6
DASHDOT
 62
     7
 10
149.680603
 20
172.480881
 30
0.0
 11
147.860596
 21
172.480881
 31
0.0
210
0.0
220
0.0
230
1.0
  0
LINE
  8
0
  6
DASHDOT
 62
     7
 10
148.770599
 20
173.390884
 30
0.0
 11
148.770599
 21
171.570892
 31
0.0
210
0.0
220
0.0
230
1.0
  0
LINE
  8
0
  6
DASHDOT
 62
     7
 10
64.908096
 20
172.480881
 30
0.0
 11
63.088097
 21
172.480881
 31
0.0
210
0.0
220
0.0
230
1.0
  0
LINE
  8
0
  6
DASHDOT
 62
     7
 10
63.998096
 20
173.390884
 30
0.0
 11
63.998096
 21
171.570892
 31
0.0
210
0.0
220
0.0
230
1.0
  0
LINE
  8
0
  6
DASHDOT
 62
     7
 10
74.818184
 20
164.506378
 30
0.0
 11
72.998184
 21
164.506378
 31
0.0
210
0.0
220
0.0
230
1.0
  0
LINE
  8
0
  6
DASHDOT
 62
     7
 10
73.908188
 20
165.416382
 30
0.0
 11
73.908188
 21
163.596375
 31
0.0
210
0.0
220
0.0
230
1.0
  0
LINE
  8
0
  6
DASHDOT
 62
     7
 10
70.413719
 20
167.254684
 30
0.0
 11
68.593719
 21
167.254684
 31
0.0
210
0.0
220
0.0
230
1.0
  0
LINE
  8
0
  6
DASHDOT
 62
     7
 10
69.503723
 20
168.164688
 30
0.0
 11
69.503723
 21
166.344681
 31
0.0
210
0.0
220
0.0
230
1.0
  0
LINE
  8
0
  6
DASHDOT
 62
     7
 10
118.394348
 20
105.625191
 30
0.0
 11
116.574348
 21
105.625191
 31
0.0
210
0.0
220
0.0
230
1.0
  0
LINE
  8
0
  6
DASHDOT
 62
     7
 10
117.484344
 20
106.535194
 30
0.0
 11
117.484344
 21
104.715195
 31
0.0
210
0.0
220
0.0
230
1.0
  0
LINE
  8
0
  6
DASHDOT
 62
     7
 10
100.544342
 20
105.625191
 30
0.0
 11
98.72435
 21
105.625191
 31
0.0
210
0.0
220
0.0
230
1.0
  0
LINE
  8
0
  6
DASHDOT
 62
     7
 10
99.634346
 20
106.535194
 30
0.0
 11
99.634346
 21
104.715195
 31
0.0
210
0.0
220
0.0
230
1.0
  0
LINE
  8
0
  6
DASHDOT
 62
     7
 10
114.044342
 20
105.625191
 30
0.0
 11
112.22435
 21
105.625191
 31
0.0
210
0.0
220
0.0
230
1.0
  0
LINE
  8
0
  6
DASHDOT
 62
     7
 10
113.134346
 20
106.535194
 30
0.0
 11
113.134346
 21
104.715195
 31
0.0
210
0.0
220
0.0
230
1.0
  0
LINE
  8
0
  6
DASHDOT
 62
     7
 10
100.804344
 20
113.785194
 30
0.0
 11
98.464348
 21
113.785194
 31
0.0
210
0.0
220
0.0
230
1.0
  0
LINE
  8
0
  6
DASHDOT
 62
     7
 10
99.634346
 20
114.955193
 30
0.0
 11
99.634346
 21
112.615196
 31
0.0
210
0.0
220
0.0
230
1.0
  0
LINE
  8
0
  6
DASHDOT
 62
     7
 10
114.304344
 20
113.785194
 30
0.0
 11
111.964348
 21
113.785194
 31
0.0
210
0.0
220
0.0
230
1.0
  0
LINE
  8
0
  6
DASHDOT
 62
     7
 10
113.134346
 20
114.955193
 30
0.0
 11
113.134346
 21
112.615196
 31
0.0
210
0.0
220
0.0
230
1.0
  0
LINE
  8
0
  6
DASHDOT
 62
     7
 10
96.194344
 20
105.625191
 30
0.0
 11
94.374344
 21
105.625191
 31
0.0
210
0.0
220
0.0
230
1.0
  0
LINE
  8
0
  6
DASHDOT
 62
     7
 10
95.284348
 20
106.535194
 30
0.0
 11
95.284348
 21
104.715195
 31
0.0
210
0.0
220
0.0
230
1.0
  0
POLYLINE
  8
0
 62
     7
 66
     1
 10
0.0
 20
0.0
 30
0.0
 70
     1
 71
    12
  0
VERTEX
  8
0
 10
57.058372
 20
214.995789
 30
0.0
  0
VERTEX
  8
0
 10
57.279861
 20
214.995789
 30
0.0
  0
VERTEX
  8
0
 10
57.279861
 20
216.167557
 30
0.0
  0
VERTEX
  8
0
 10
58.122871
 20
216.167557
 30
0.0
  0
VERTEX
  8
0
 10
58.122871
 20
214.995789
 30
0.0
  0
VERTEX
  8
0
 10
58.34436
 20
214.995789
 30
0.0
  0
VERTEX
  8
0
 10
58.34436
 20
217.495789
 30
0.0
  0
VERTEX
  8
0
 10
58.122871
 20
217.495789
 30
0.0
  0
VERTEX
  8
0
 10
58.122871
 20
216.470062
 30
0.0
  0
VERTEX
  8
0
 10
57.279861
 20
216.470062
 30
0.0
  0
VERTEX
  8
0
 10
57.279861
 20
217.495789
 30
0.0
  0
VERTEX
  8
0
 10
57.058372
 20
217.495789
 30
0.0
  0
SEQEND
  8
0
  0
POLYLINE
  8
0
 62
     7
 66
     1
 10
0.0
 20
0.0
 30
0.0
 70
     1
 71
    32
  0
VERTEX
  8
0
 10
59.122349
 20
216.244049
 30
0.0
  0
VERTEX
  8
0
 10
59.133652
 20
215.945023
 30
0.0
  0
VERTEX
  8
0
 10
59.174332
 20
215.68425
 30
0.0
  0
VERTEX
  8
0
 10
59.239876
 20
215.458237
 30
0.0
  0
VERTEX
  8
0
 10
59.328018
 20
215.270477
 30
0.0
  0
VERTEX
  8
0
 10
59.438763
 20
215.120956
 30
0.0
  0
VERTEX
  8
0
 10
59.569847
 20
215.013168
 30
0.0
  0
VERTEX
  8
0
 10
59.721272
 20
214.950592
 30
0.0
  0
VERTEX
  8
0
 10
59.89304
 20
214.926254
 30
0.0
  0
VERTEX
  8
0
 10
60.062546
 20
214.950592
 30
0.0
  0
VERTEX
  8
0
 10
60.21397
 20
215.013168
 30
0.0
  0
VERTEX
  8
0
 10
60.345055
 20
215.120956
 30
0.0
  0
VERTEX
  8
0
 10
60.455799
 20
215.270477
 30
0.0
  0
VERTEX
  8
0
 10
60.543941
 20
215.458237
 30
0.0
  0
VERTEX
  8
0
 10
60.607224
 20
215.68425
 30
0.0
  0
VERTEX
  8
0
 10
60.645645
 20
215.945023
 30
0.0
  0
VERTEX
  8
0
 10
60.661469
 20
216.244049
 30
0.0
  0
VERTEX
  8
0
 10
60.647907
 20
216.539597
 30
0.0
  0
VERTEX
  8
0
 10
60.607224
 20
216.800385
 30
0.0
  0
VERTEX
  8
0
 10
60.541683
 20
217.026382
 30
0.0
  0
VERTEX
  8
0
 10
60.455799
 20
217.214142
 30
0.0
  0
VERTEX
  8
0
 10
60.345055
 20
217.363663
 30
0.0
  0
VERTEX
  8
0
 10
60.21397
 20
217.471451
 30
0.0
  0
VERTEX
  8
0
 10
60.062546
 20
217.537506
 30
0.0
  0
VERTEX
  8
0
 10
59.89304
 20
217.561859
 30
0.0
  0
VERTEX
  8
0
 10
59.721272
 20
217.537506
 30
0.0
  0
VERTEX
  8
0
 10
59.569847
 20
217.471451
 30
0.0
  0
VERTEX
  8
0
 10
59.438763
 20
217.363663
 30
0.0
  0
VERTEX
  8
0
 10
59.328018
 20
217.214142
 30
0.0
  0
VERTEX
  8
0
 10
59.239876
 20
217.026382
 30
0.0
  0
VERTEX
  8
0
 10
59.174332
 20
216.800385
 30
0.0
  0
VERTEX
  8
0
 10
59.133652
 20
216.539597
 30
0.0
  0
SEQEND
  8
0
  0
POLYLINE
  8
0
 62
     7
 66
     1
 10
0.0
 20
0.0
 30
0.0
 70
     1
 71
    16
  0
VERTEX
  8
0
 10
59.35062
 20
216.244049
 30
0.0
  0
VERTEX
  8
0
 10
59.38678
 20
216.675201
 30
0.0
  0
VERTEX
  8
0
 10
59.495262
 20
216.998566
 30
0.0
  0
VERTEX
  8
0
 10
59.66703
 20
217.196762
 30
0.0
  0
VERTEX
  8
0
 10
59.89304
 20
217.266296
 30
0.0
  0
VERTEX
  8
0
 10
60.116787
 20
217.196762
 30
0.0
  0
VERTEX
  8
0
 10
60.288551
 20
216.998566
 30
0.0
  0
VERTEX
  8
0
 10
60.394775
 20
216.675201
 30
0.0
  0
VERTEX
  8
0
 10
60.433197
 20
216.244049
 30
0.0
  0
VERTEX
  8
0
 10
60.394775
 20
215.809418
 30
0.0
  0
VERTEX
  8
0
 10
60.288551
 20
215.486053
 30
0.0
  0
VERTEX
  8
0
 10
60.116787
 20
215.287857
 30
0.0
  0
VERTEX
  8
0
 10
59.89304
 20
215.221802
 30
0.0
  0
VERTEX
  8
0
 10
59.66703
 20
215.287857
 30
0.0
  0
VERTEX
  8
0
 10
59.495262
 20
215.486053
 30
0.0
  0
VERTEX
  8
0
 10
59.38678
 20
215.809418
 30
0.0
  0
SEQEND
  8
0
  0
POLYLINE
  8
0
 62
     7
 66
     1
 10
0.0
 20
0.0
 30
0.0
 70
     1
 71
     6
  0
VERTEX
  8
0
 10
61.439457
 20
214.995789
 30
0.0
  0
VERTEX
  8
0
 10
62.472317
 20
214.995789
 30
0.0
  0
VERTEX
  8
0
 10
62.472317
 20
215.312195
 30
0.0
  0
VERTEX
  8
0
 10
61.663204
 20
215.312195
 30
0.0
  0
VERTEX
  8
0
 10
61.663204
 20
217.495789
 30
0.0
  0
VERTEX
  8
0
 10
61.439457
 20
217.495789
 30
0.0
  0
SEQEND
  8
0
  0
POLYLINE
  8
0
 62
     7
 66
     1
 10
0.0
 20
0.0
 30
0.0
 70
     1
 71
    12
  0
VERTEX
  8
0
 10
63.148602
 20
214.995789
 30
0.0
  0
VERTEX
  8
0
 10
64.326103
 20
214.995789
 30
0.0
  0
VERTEX
  8
0
 10
64.326103
 20
215.308716
 30
0.0
  0
VERTEX
  8
0
 10
63.367828
 20
215.308716
 30
0.0
  0
VERTEX
  8
0
 10
63.367828
 20
216.146698
 30
0.0
  0
VERTEX
  8
0
 10
64.235703
 20
216.146698
 30
0.0
  0
VERTEX
  8
0
 10
64.235703
 20
216.438766
 30
0.0
  0
VERTEX
  8
0
 10
63.367828
 20
216.438766
 30
0.0
  0
VERTEX
  8
0
 10
63.367828
 20
217.186325
 30
0.0
  0
VERTEX
  8
0
 10
64.308022
 20
217.186325
 30
0.0
  0
VERTEX
  8
0
 10
64.308022
 20
217.495789
 30
0.0
  0
VERTEX
  8
0
 10
63.148602
 20
217.495789
 30
0.0
  0
SEQEND
  8
0
  0
POLYLINE
  8
0
 62
     7
 66
     1
 10
0.0
 20
0.0
 30
0.0
 70
     1
 71
    15
  0
VERTEX
  8
0
 10
66.212059
 20
214.995789
 30
0.0
  0
VERTEX
  8
0
 10
66.433548
 20
214.995789
 30
0.0
  0
VERTEX
  8
0
 10
66.433548
 20
216.049332
 30
0.0
  0
VERTEX
  8
0
 10
66.768036
 20
216.049332
 30
0.0
  0
VERTEX
  8
0
 10
66.989525
 20
216.063248
 30
0.0
  0
VERTEX
  8
0
 10
67.165817
 20
216.150177
 30
0.0
  0
VERTEX
  8
0
 10
67.319496
 20
216.400513
 30
0.0
  0
VERTEX
  8
0
 10
67.373741
 20
216.772568
 30
0.0
  0
VERTEX
  8
0
 10
67.357918
 20
216.977707
 30
0.0
  0
VERTEX
  8
0
 10
67.319496
 20
217.155045
 30
0.0
  0
VERTEX
  8
0
 10
67.25396
 20
217.297592
 30
0.0
  0
VERTEX
  8
0
 10
67.168076
 20
217.401901
 30
0.0
  0
VERTEX
  8
0
 10
67.000824
 20
217.478409
 30
0.0
  0
VERTEX
  8
0
 10
66.810982
 20
217.495789
 30
0.0
  0
VERTEX
  8
0
 10
66.212059
 20
217.495789
 30
0.0
  0
SEQEND
  8
0
  0
POLYLINE
  8
0
 62
     7
 66
     1
 10
0.0
 20
0.0
 30
0.0
 70
     1
 71
    11
  0
VERTEX
  8
0
 10
66.433548
 20
216.351837
 30
0.0
  0
VERTEX
  8
0
 10
66.433548
 20
217.189804
 30
0.0
  0
VERTEX
  8
0
 10
66.820023
 20
217.189804
 30
0.0
  0
VERTEX
  8
0
 10
66.966927
 20
217.165466
 30
0.0
  0
VERTEX
  8
0
 10
67.068626
 20
217.095932
 30
0.0
  0
VERTEX
  8
0
 10
67.129654
 20
216.96727
 30
0.0
  0
VERTEX
  8
0
 10
67.149994
 20
216.772568
 30
0.0
  0
VERTEX
  8
0
 10
67.129654
 20
216.567413
 30
0.0
  0
VERTEX
  8
0
 10
67.066368
 20
216.438766
 30
0.0
  0
VERTEX
  8
0
 10
66.957886
 20
216.369217
 30
0.0
  0
VERTEX
  8
0
 10
66.804199
 20
216.351837
 30
0.0
  0
SEQEND
  8
0
  0
POLYLINE
  8
0
 62
     7
 66
     1
 10
0.0
 20
0.0
 30
0.0
 70
     1
 71
     8
  0
VERTEX
  8
0
 10
67.955101
 20
214.995789
 30
0.0
  0
VERTEX
  8
0
 10
68.183372
 20
214.995789
 30
0.0
  0
VERTEX
  8
0
 10
68.357399
 20
215.743347
 30
0.0
  0
VERTEX
  8
0
 10
68.997002
 20
215.743347
 30
0.0
  0
VERTEX
  8
0
 10
69.16877
 20
214.995789
 30
0.0
  0
VERTEX
  8
0
 10
69.40834
 20
214.995789
 30
0.0
  0
VERTEX
  8
0
 10
68.802635
 20
217.495789
 30
0.0
  0
VERTEX
  8
0
 10
68.558548
 20
217.495789
 30
0.0
  0
SEQEND
  8
0
  0
POLYLINE
  8
0
 62
     7
 66
     1
 10
0.0
 20
0.0
 30
0.0
 70
     1
 71
     3
  0
VERTEX
  8
0
 10
68.425201
 20
216.035431
 30
0.0
  0
VERTEX
  8
0
 10
68.680588
 20
217.13765
 30
0.0
  0
VERTEX
  8
0
 10
68.931458
 20
216.035431
 30
0.0
  0
SEQEND
  8
0
  0
POLYLINE
  8
0
 62
     7
 66
     1
 10
0.0
 20
0.0
 30
0.0
 70
     1
 71
     8
  0
VERTEX
  8
0
 10
70.434937
 20
214.995789
 30
0.0
  0
VERTEX
  8
0
 10
70.656425
 20
214.995789
 30
0.0
  0
VERTEX
  8
0
 10
70.656425
 20
217.193283
 30
0.0
  0
VERTEX
  8
0
 10
71.169464
 20
217.193283
 30
0.0
  0
VERTEX
  8
0
 10
71.169464
 20
217.495789
 30
0.0
  0
VERTEX
  8
0
 10
69.921898
 20
217.495789
 30
0.0
  0
VERTEX
  8
0
 10
69.921898
 20
217.193283
 30
0.0
  0
VERTEX
  8
0
 10
70.434937
 20
217.193283
 30
0.0
  0
SEQEND
  8
0
  0
POLYLINE
  8
0
 62
     7
 66
     1
 10
0.0
 20
0.0
 30
0.0
 70
     1
 71
     8
  0
VERTEX
  8
0
 10
72.225441
 20
214.995789
 30
0.0
  0
VERTEX
  8
0
 10
72.44693
 20
214.995789
 30
0.0
  0
VERTEX
  8
0
 10
72.44693
 20
217.193283
 30
0.0
  0
VERTEX
  8
0
 10
72.959969
 20
217.193283
 30
0.0
  0
VERTEX
  8
0
 10
72.959969
 20
217.495789
 30
0.0
  0
VERTEX
  8
0
 10
71.712402
 20
217.495789
 30
0.0
  0
VERTEX
  8
0
 10
71.712402
 20
217.193283
 30
0.0
  0
VERTEX
  8
0
 10
72.225441
 20
217.193283
 30
0.0
  0
SEQEND
  8
0
  0
POLYLINE
  8
0
 62
     7
 66
     1
 10
0.0
 20
0.0
 30
0.0
 70
     1
 71
    12
  0
VERTEX
  8
0
 10
73.656601
 20
214.995789
 30
0.0
  0
VERTEX
  8
0
 10
74.834106
 20
214.995789
 30
0.0
  0
VERTEX
  8
0
 10
74.834106
 20
215.308716
 30
0.0
  0
VERTEX
  8
0
 10
73.875824
 20
215.308716
 30
0.0
  0
VERTEX
  8
0
 10
73.875824
 20
216.146698
 30
0.0
  0
VERTEX
  8
0
 10
74.743698
 20
216.146698
 30
0.0
  0
VERTEX
  8
0
 10
74.743698
 20
216.438766
 30
0.0
  0
VERTEX
  8
0
 10
73.875824
 20
216.438766
 30
0.0
  0
VERTEX
  8
0
 10
73.875824
 20
217.186325
 30
0.0
  0
VERTEX
  8
0
 10
74.816025
 20
217.186325
 30
0.0
  0
VERTEX
  8
0
 10
74.816025
 20
217.495789
 30
0.0
  0
VERTEX
  8
0
 10
73.656601
 20
217.495789
 30
0.0
  0
SEQEND
  8
0
  0
POLYLINE
  8
0
 62
     7
 66
     1
 10
0.0
 20
0.0
 30
0.0
 70
     1
 71
    30
  0
VERTEX
  8
0
 10
75.600792
 20
217.495789
 30
0.0
  0
VERTEX
  8
0
 10
75.600792
 20
214.995789
 30
0.0
  0
VERTEX
  8
0
 10
75.820023
 20
214.995789
 30
0.0
  0
VERTEX
  8
0
 10
75.820023
 20
216.066727
 30
0.0
  0
VERTEX
  8
0
 10
76.177109
 20
216.066727
 30
0.0
  0
VERTEX
  8
0
 10
76.348877
 20
216.05629
 30
0.0
  0
VERTEX
  8
0
 10
76.455101
 20
216.004135
 30
0.0
  0
VERTEX
  8
0
 10
76.51387
 20
215.88591
 30
0.0
  0
VERTEX
  8
0
 10
76.538727
 20
215.666855
 30
0.0
  0
VERTEX
  8
0
 10
76.552284
 20
215.340012
 30
0.0
  0
VERTEX
  8
0
 10
76.563583
 20
215.14183
 30
0.0
  0
VERTEX
  8
0
 10
76.59523
 20
214.995789
 30
0.0
  0
VERTEX
  8
0
 10
76.850616
 20
214.995789
 30
0.0
  0
VERTEX
  8
0
 10
76.850616
 20
215.065323
 30
0.0
  0
VERTEX
  8
0
 10
76.796371
 20
215.166168
 30
0.0
  0
VERTEX
  8
0
 10
76.776031
 20
215.357407
 30
0.0
  0
VERTEX
  8
0
 10
76.75795
 20
215.7677
 30
0.0
  0
VERTEX
  8
0
 10
76.742134
 20
215.941544
 30
0.0
  0
VERTEX
  8
0
 10
76.712753
 20
216.077148
 30
0.0
  0
VERTEX
  8
0
 10
76.658508
 20
216.171036
 30
0.0
  0
VERTEX
  8
0
 10
76.572632
 20
216.233612
 30
0.0
  0
VERTEX
  8
0
 10
76.667549
 20
216.327499
 30
0.0
  0
VERTEX
  8
0
 10
76.73761
 20
216.456146
 30
0.0
  0
VERTEX
  8
0
 10
76.780556
 20
216.61261
 30
0.0
  0
VERTEX
  8
0
 10
76.796371
 20
216.803848
 30
0.0
  0
VERTEX
  8
0
 10
76.780556
 20
216.998566
 30
0.0
  0
VERTEX
  8
0
 10
76.742134
 20
217.168945
 30
0.0
  0
VERTEX
  8
0
 10
76.586189
 20
217.408859
 30
0.0
  0
VERTEX
  8
0
 10
76.421204
 20
217.481888
 30
0.0
  0
VERTEX
  8
0
 10
76.231354
 20
217.495789
 30
0.0
  0
SEQEND
  8
0
  0
POLYLINE
  8
0
 62
     7
 66
     1
 10
0.0
 20
0.0
 30
0.0
 70
     1
 71
    11
  0
VERTEX
  8
0
 10
75.817764
 20
217.20372
 30
0.0
  0
VERTEX
  8
0
 10
76.19519
 20
217.20372
 30
0.0
  0
VERTEX
  8
0
 10
76.355659
 20
217.186325
 30
0.0
  0
VERTEX
  8
0
 10
76.473183
 20
217.123749
 30
0.0
  0
VERTEX
  8
0
 10
76.543243
 20
217.002045
 30
0.0
  0
VERTEX
  8
0
 10
76.568108
 20
216.796906
 30
0.0
  0
VERTEX
  8
0
 10
76.543243
 20
216.584808
 30
0.0
  0
VERTEX
  8
0
 10
76.475449
 20
216.449203
 30
0.0
  0
VERTEX
  8
0
 10
76.357918
 20
216.376175
 30
0.0
  0
VERTEX
  8
0
 10
76.19519
 20
216.355316
 30
0.0
  0
VERTEX
  8
0
 10
75.817764
 20
216.355316
 30
0.0
  0
SEQEND
  8
0
  0
POLYLINE
  8
0
 62
     7
 66
     1
 10
0.0
 20
0.0
 30
0.0
 70
     1
 71
    12
  0
VERTEX
  8
0
 10
77.599228
 20
214.995789
 30
0.0
  0
VERTEX
  8
0
 10
77.809418
 20
214.995789
 30
0.0
  0
VERTEX
  8
0
 10
77.809418
 20
217.022903
 30
0.0
  0
VERTEX
  8
0
 10
77.870438
 20
216.838623
 30
0.0
  0
VERTEX
  8
0
 10
78.645645
 20
214.995789
 30
0.0
  0
VERTEX
  8
0
 10
78.885216
 20
214.995789
 30
0.0
  0
VERTEX
  8
0
 10
78.885216
 20
217.495789
 30
0.0
  0
VERTEX
  8
0
 10
78.675026
 20
217.495789
 30
0.0
  0
VERTEX
  8
0
 10
78.675026
 20
215.468674
 30
0.0
  0
VERTEX
  8
0
 10
78.600441
 20
215.680771
 30
0.0
  0
VERTEX
  8
0
 10
77.841057
 20
217.495789
 30
0.0
  0
VERTEX
  8
0
 10
77.599228
 20
217.495789
 30
0.0
  0
SEQEND
  8
0
  0
LINE
  8
0
 62
     7
 10
72.798561
 20
103.175194
 30
0.0
 11
77.884346
 21
103.175194
 31
0.0
210
0.0
220
0.0
230
1.0
  0
LINE
  8
0
 62
     7
 10
76.484344
 20
109.175194
 30
0.0
 11
76.484344
 21
109.167145
 31
0.0
210
0.0
220
0.0
230
1.0
  0
ARC
  8
0
 62
     7
 10
71.384346
 20
102.675194
 30
0.0
 40
1.5
 50
19.471222
 51
42.833428
210
0.0
220
0.0
230
1.0
  0
ARC
  8
0
 62
     7
 10
82.884346
 20
104.175194
 30
0.0
 40
1.5
 50
90.000003
 51
180.000005
210
0.0
220
0.0
230
1.0
  0
ARC
  8
0
 62
     7
 10
92.184349
 20
104.175194
 30
0.0
 40
1.5
 50
25.841934
 51
90.000003
210
0.0
220
0.0
230
1.0
  0
ARC
  8
0
 62
     7
 10
92.184349
 20
104.175194
 30
0.0
 40
1.5
 50
20.000001
 51
25.841934
210
0.0
220
0.0
230
1.0
  0
LINE
  8
0
 62
     7
 10
93.593887
 20
104.688225
 30
0.0
 11
94.144585
 21
103.175194
 31
0.0
210
0.0
220
0.0
230
1.0
  0
LINE
  8
0
 62
     7
 10
122.684341
 20
103.575195
 30
0.0
 11
121.991524
 21
103.175194
 31
0.0
210
0.0
220
0.0
230
1.0
  0
LINE
  8
0
 62
     7
 10
122.684341
 20
103.575195
 30
0.0
 11
122.684341
 21
105.375191
 31
0.0
210
0.0
220
0.0
230
1.0
  0
ARC
  8
0
 62
     7
 10
123.884346
 20
105.375191
 30
0.0
 40
1.2
 50
0.0
 51
180.000005
210
0.0
220
0.0
230
1.0
  0
LINE
  8
0
 62
     7
 10
125.084351
 20
105.375191
 30
0.0
 11
125.084351
 21
103.175194
 31
0.0
210
0.0
220
0.0
230
1.0
  0
ARC
  8
0
 62
     7
 10
141.384338
 20
102.675194
 30
0.0
 40
1.5
 50
90.000003
 51
137.166577
210
0.0
220
0.0
230
1.0
  0
ARC
  8
0
 62
     7
 10
141.384338
 20
102.675194
 30
0.0
 40
1.5
 50
137.166577
 51
160.528775
210
0.0
220
0.0
230
1.0
  0
LINE
  8
0
 62
     7
 10
151.748108
 20
173.015839
 30
0.0
 11
143.888153
 21
177.417633
 31
0.0
210
0.0
220
0.0
230
1.0
  0
ARC
  8
0
 62
     7
 10
144.621094
 20
178.726379
 30
0.0
 40
1.5
 50
150.750007
 51
240.750006
210
0.0
220
0.0
230
1.0
  0
LINE
  8
0
 62
     7
 10
146.170776
 20
184.5634
 30
0.0
 11
143.312347
 21
179.459305
 31
0.0
210
0.0
220
0.0
230
1.0
  0
LINE
  8
0
 62
     7
 10
146.170776
 20
184.5634
 30
0.0
 11
144.507172
 21
186.874313
 31
0.0
210
0.0
220
0.0
230
1.0
  0
LINE
  8
0
 62
     7
 10
144.507172
 20
186.874313
 30
0.0
 11
144.468948
 21
186.927399
 31
0.0
210
0.0
220
0.0
230
1.0
  0
LINE
  8
0
 62
     7
 10
145.305405
 20
190.810501
 30
0.0
 11
148.384338
 21
196.30835
 31
0.0
210
0.0
220
0.0
230
1.0
  0
LINE
  8
0
 62
     7
 10
67.463287
 20
190.810501
 30
0.0
 11
64.384346
 21
196.30835
 31
0.0
210
0.0
220
0.0
230
1.0
  0
LINE
  8
0
 62
     7
 10
68.261528
 20
186.874313
 30
0.0
 11
68.299744
 21
186.927399
 31
0.0
210
0.0
220
0.0
230
1.0
  0
LINE
  8
0
 62
     7
 10
66.597916
 20
184.5634
 30
0.0
 11
68.261528
 21
186.874313
 31
0.0
210
0.0
220
0.0
230
1.0
  0
LINE
  8
0
 62
     7
 10
66.597916
 20
184.5634
 30
0.0
 11
69.456345
 21
179.459305
 31
0.0
210
0.0
220
0.0
230
1.0
  0
ARC
  8
0
 62
     7
 10
68.147598
 20
178.726379
 30
0.0
 40
1.5
 50
299.250003
 51
29.249998
210
0.0
220
0.0
230
1.0
  0
LINE
  8
0
 62
     7
 10
61.020584
 20
173.015839
 30
0.0
 11
68.880539
 21
177.417633
 31
0.0
210
0.0
220
0.0
230
1.0
  0
CIRCLE
  8
0
 62
     7
 10
143.306961
 20
172.446106
 30
0.0
 40
0.7
210
0.0
220
0.0
230
1.0
  0
CIRCLE
  8
0
 62
     7
 10
138.860504
 20
164.506378
 30
0.0
 40
0.7
210
0.0
220
0.0
230
1.0
  0
CIRCLE
  8
0
 62
     7
 10
69.461731
 20
172.446106
 30
0.0
 40
0.7
210
0.0
220
0.0
230
1.0
  0
CIRCLE
  8
0
 62
     7
 10
90.074348
 20
107.975197
 30
0.0
 40
0.7
210
0.0
220
0.0
230
1.0
  0
CIRCLE
  8
0
 62
     7
 10
80.234344
 20
109.575195
 30
0.0
 40
0.7
210
0.0
220
0.0
230
1.0
  0
CIRCLE
  8
0
 62
     7
 10
143.264969
 20
167.254684
 30
0.0
 40
0.7
210
0.0
220
0.0
230
1.0
  0
CIRCLE
  8
0
 62
     7
 10
148.770599
 20
172.480881
 30
0.0
 40
0.7
210
0.0
220
0.0
230
1.0
  0
CIRCLE
  8
0
 62
     7
 10
63.998096
 20
172.480881
 30
0.0
 40
0.7
210
0.0
220
0.0
230
1.0
  0
CIRCLE
  8
0
 62
     7
 10
73.908188
 20
164.506378
 30
0.0
 40
0.7
210
0.0
220
0.0
230
1.0
  0
CIRCLE
  8
0
 62
     7
 10
69.503723
 20
167.254684
 30
0.0
 40
0.7
210
0.0
220
0.0
230
1.0
  0
LINE
  8
0
 62
     7
 10
106.384346
 20
103.175194
 30
0.0
 11
119.234344
 21
103.175194
 31
0.0
210
0.0
220
0.0
230
1.0
  0
LINE
  8
0
 62
     7
 10
106.384346
 20
103.175194
 30
0.0
 11
94.144585
 21
103.175194
 31
0.0
210
0.0
220
0.0
230
1.0
  0
CIRCLE
  8
0
 62
     7
 10
113.134346
 20
105.625191
 30
0.0
 40
0.7
210
0.0
220
0.0
230
1.0
  0
CIRCLE
  8
0
 62
     7
 10
99.634346
 20
113.785194
 30
0.0
 40
0.9
210
0.0
220
0.0
230
1.0
  0
CIRCLE
  8
0
 62
     7
 10
117.484344
 20
105.625191
 30
0.0
 40
0.7
210
0.0
220
0.0
230
1.0
  0
CIRCLE
  8
0
 62
     7
 10
99.634346
 20
105.625191
 30
0.0
 40
0.7
210
0.0
220
0.0
230
1.0
  0
CIRCLE
  8
0
 62
     7
 10
95.284348
 20
105.625191
 30
0.0
 40
0.7
210
0.0
220
0.0
230
1.0
  0
CIRCLE
  8
0
 62
     7
 10
113.134346
 20
113.785194
 30
0.0
 40
0.9
210
0.0
220
0.0
230
1.0
  0
LINE
  8
0
 62
     7
 10
139.970123
 20
103.175194
 30
0.0
 11
134.884338
 21
103.175194
 31
0.0
210
0.0
220
0.0
230
1.0
  0
LINE
  8
0
 62
     7
 10
136.284348
 20
109.175194
 30
0.0
 11
136.284348
 21
109.167145
 31
0.0
210
0.0
220
0.0
230
1.0
  0
LINE
  8
0
 62
     7
 10
156.884338
 20
172.824585
 30
0.0
 11
156.884338
 21
111.675194
 31
0.0
210
0.0
220
0.0
230
1.0
  0
LINE
  8
0
 62
     7
 10
152.481033
 20
172.824585
 30
0.0
 11
156.884338
 21
172.824585
 31
0.0
210
0.0
220
0.0
230
1.0
  0
ARC
  8
0
 62
     7
 10
152.481033
 20
174.324585
 30
0.0
 40
1.5
 50
240.750006
 51
269.999997
210
0.0
220
0.0
230
1.0
  0
LINE
  8
0
 62
     7
 10
152.089615
 20
172.824585
 30
0.0
 11
151.748108
 21
173.015839
 31
0.0
210
0.0
220
0.0
230
1.0
  0
ARC
  8
0
 62
     7
 10
145.882385
 20
187.429596
 30
0.0
 40
1.5
 50
163.750001
 51
199.560496
210
0.0
220
0.0
230
1.0
  0
LINE
  8
0
 62
     7
 10
145.305405
 20
190.810501
 30
0.0
 11
144.442307
 21
187.849335
 31
0.0
210
0.0
220
0.0
230
1.0
  0
LINE
  8
0
 62
     7
 10
148.384338
 20
196.525192
 30
0.0
 11
148.384338
 21
196.30835
 31
0.0
210
0.0
220
0.0
230
1.0
  0
LINE
  8
0
 62
     7
 10
64.384346
 20
196.525192
 30
0.0
 11
64.384346
 21
196.30835
 31
0.0
210
0.0
220
0.0
230
1.0
  0
LINE
  8
0
 62
     7
 10
67.463287
 20
190.810501
 30
0.0
 11
68.326385
 21
187.849335
 31
0.0
210
0.0
220
0.0
230
1.0
  0
ARC
  8
0
 62
     7
 10
66.886307
 20
187.429596
 30
0.0
 40
1.5
 50
340.439504
 51
16.25
210
0.0
220
0.0
230
1.0
  0
LINE
  8
0
 62
     7
 10
60.679073
 20
172.824585
 30
0.0
 11
61.020584
 21
173.015839
 31
0.0
210
0.0
220
0.0
230
1.0
  0
ARC
  8
0
 62
     7
 10
60.287655
 20
174.324585
 30
0.0
 40
1.5
 50
269.999997
 51
299.250003
210
0.0
220
0.0
230
1.0
  0
LINE
  8
0
 62
     7
 10
60.287655
 20
172.824585
 30
0.0
 11
55.884346
 21
172.824585
 31
0.0
210
0.0
220
0.0
230
1.0
  0
LINE
  8
0
 62
     7
 10
55.884346
 20
172.824585
 30
0.0
 11
55.884346
 21
111.675194
 31
0.0
210
0.0
220
0.0
230
1.0
  0
LINE
  8
0
 62
     7
 10
91.884346
 20
105.675194
 30
0.0
 11
92.184349
 21
105.675194
 31
0.0
210
0.0
220
0.0
230
1.0
  0
LINE
  8
0
 62
     7
 10
121.991524
 20
103.175194
 30
0.0
 11
119.234344
 21
103.175194
 31
0.0
210
0.0
220
0.0
230
1.0
  0
LINE
  8
0
 62
     7
 10
134.884338
 20
103.175194
 30
0.0
 11
125.084351
 21
103.175194
 31
0.0
210
0.0
220
0.0
230
1.0
  0
LINE
  8
0
 62
     7
 10
154.384338
 20
104.175194
 30
0.0
 11
141.384338
 21
104.175194
 31
0.0
210
0.0
220
0.0
230
1.0
  0
ARC
  8
0
 62
     7
 10
154.384338
 20
105.675194
 30
0.0
 40
1.5
 50
269.999997
 51
0.0
210
0.0
220
0.0
230
1.0
  0
LINE
  8
0
 62
     7
 10
155.884338
 20
107.175194
 30
0.0
 11
155.884338
 21
105.675194
 31
0.0
210
0.0
220
0.0
230
1.0
  0
ARC
  8
0
 62
     7
 10
156.884338
 20
107.175194
 30
0.0
 40
1.0
 50
90.000003
 51
180.000005
210
0.0
220
0.0
230
1.0
  0
LINE
  8
0
 62
     7
 10
156.884338
 20
108.175194
 30
0.0
 11
156.884338
 21
108.412331
 31
0.0
210
0.0
220
0.0
230
1.0
  0
LINE
  8
0
 62
     7
 10
156.884338
 20
111.675194
 30
0.0
 11
156.884338
 21
109.175194
 31
0.0
210
0.0
220
0.0
230
1.0
  0
LINE
  8
0
 62
     7
 10
96.734344
 20
112.825195
 30
0.0
 11
98.034348
 21
112.825195
 31
0.0
210
0.0
220
0.0
230
1.0
  0
LINE
  8
0
 62
     7
 10
98.034348
 20
114.475197
 30
0.0
 11
98.034348
 21
112.825195
 31
0.0
210
0.0
220
0.0
230
1.0
  0
LINE
  8
0
 62
     7
 10
98.034348
 20
114.475197
 30
0.0
 11
96.734344
 21
114.475197
 31
0.0
210
0.0
220
0.0
230
1.0
  0
LINE
  8
0
 62
     7
 10
96.734344
 20
112.825195
 30
0.0
 11
96.734344
 21
114.475197
 31
0.0
210
0.0
220
0.0
230
1.0
  0
LINE
  8
0
 62
     7
 10
101.234344
 20
112.825195
 30
0.0
 11
102.534348
 21
112.825195
 31
0.0
210
0.0
220
0.0
230
1.0
  0
LINE
  8
0
 62
     7
 10
102.534348
 20
114.475197
 30
0.0
 11
102.534348
 21
112.825195
 31
0.0
210
0.0
220
0.0
230
1.0
  0
LINE
  8
0
 62
     7
 10
102.534348
 20
114.475197
 30
0.0
 11
101.234344
 21
114.475197
 31
0.0
210
0.0
220
0.0
230
1.0
  0
LINE
  8
0
 62
     7
 10
101.234344
 20
112.825195
 30
0.0
 11
101.234344
 21
114.475197
 31
0.0
210
0.0
220
0.0
230
1.0
  0
LINE
  8
0
 62
     7
 10
116.034348
 20
112.825195
 30
0.0
 11
116.034348
 21
114.475197
 31
0.0
210
0.0
220
0.0
230
1.0
  0
LINE
  8
0
 62
     7
 10
114.734344
 20
114.475197
 30
0.0
 11
116.034348
 21
114.475197
 31
0.0
210
0.0
220
0.0
230
1.0
  0
LINE
  8
0
 62
     7
 10
114.734344
 20
114.475197
 30
0.0
 11
114.734344
 21
112.825195
 31
0.0
210
0.0
220
0.0
230
1.0
  0
LINE
  8
0
 62
     7
 10
116.034348
 20
112.825195
 30
0.0
 11
114.734344
 21
112.825195
 31
0.0
210
0.0
220
0.0
230
1.0
  0
LINE
  8
0
 62
     7
 10
111.534348
 20
112.825195
 30
0.0
 11
111.534348
 21
114.475197
 31
0.0
210
0.0
220
0.0
230
1.0
  0
LINE
  8
0
 62
     7
 10
110.234344
 20
114.475197
 30
0.0
 11
111.534348
 21
114.475197
 31
0.0
210
0.0
220
0.0
230
1.0
  0
LINE
  8
0
 62
     7
 10
110.234344
 20
114.475197
 30
0.0
 11
110.234344
 21
112.825195
 31
0.0
210
0.0
220
0.0
230
1.0
  0
LINE
  8
0
 62
     7
 10
111.534348
 20
112.825195
 30
0.0
 11
110.234344
 21
112.825195
 31
0.0
210
0.0
220
0.0
230
1.0
  0
LINE
  8
0
 62
     7
 10
105.734344
 20
112.825195
 30
0.0
 11
107.034348
 21
112.825195
 31
0.0
210
0.0
220
0.0
230
1.0
  0
LINE
  8
0
 62
     7
 10
107.034348
 20
114.475197
 30
0.0
 11
107.034348
 21
112.825195
 31
0.0
210
0.0
220
0.0
230
1.0
  0
LINE
  8
0
 62
     7
 10
107.034348
 20
114.475197
 30
0.0
 11
105.734344
 21
114.475197
 31
0.0
210
0.0
220
0.0
230
1.0
  0
LINE
  8
0
 62
     7
 10
105.734344
 20
112.825195
 30
0.0
 11
105.734344
 21
114.475197
 31
0.0
210
0.0
220
0.0
230
1.0
  0
LINE
  8
0
 62
     7
 10
142.734344
 20
202.175201
 30
0.0
 11
142.734344
 21
200.375183
 31
0.0
210
0.0
220
0.0
230
1.0
  0
LINE
  8
0
 62
     7
 10
106.384346
 20
202.175201
 30
0.0
 11
142.734344
 21
202.175201
 31
0.0
210
0.0
220
0.0
230
1.0
  0
ARC
  8
0
 62
     7
 10
55.884346
 20
107.175194
 30
0.0
 40
1.0
 50
0.0
 51
90.000003
210
0.0
220
0.0
230
1.0
  0
LINE
  8
0
 62
     7
 10
71.384346
 20
104.175194
 30
0.0
 11
58.384346
 21
104.175194
 31
0.0
210
0.0
220
0.0
230
1.0
  0
LINE
  8
0
 62
     7
 10
156.884338
 20
109.175194
 30
0.0
 11
156.884338
 21
108.412331
 31
0.0
210
0.0
220
0.0
230
1.0
  0
ARC
  8
0
 62
     7
 10
143.934341
 20
200.375183
 30
0.0
 40
1.2
 50
180.000005
 51
221.409615
210
0.0
220
0.0
230
1.0
  0
LINE
  8
0
 62
     7
 10
106.384346
 20
202.175201
 30
0.0
 11
69.734344
 21
202.175201
 31
0.0
210
0.0
220
0.0
230
1.0
  0
LINE
  8
0
 62
     7
 10
55.884346
 20
111.675194
 30
0.0
 11
55.884346
 21
109.175194
 31
0.0
210
0.0
220
0.0
230
1.0
  0
LINE
  8
0
 62
     7
 10
55.884346
 20
108.175194
 30
0.0
 11
55.884346
 21
108.412331
 31
0.0
210
0.0
220
0.0
230
1.0
  0
LINE
  8
0
 62
     7
 10
56.884346
 20
107.175194
 30
0.0
 11
56.884346
 21
105.675194
 31
0.0
210
0.0
220
0.0
230
1.0
  0
ARC
  8
0
 62
     7
 10
58.384346
 20
105.675194
 30
0.0
 40
1.5
 50
180.000005
 51
269.999997
210
0.0
220
0.0
230
1.0
  0
ARC
  8
0
 62
     7
 10
71.384346
 20
102.675194
 30
0.0
 40
1.5
 50
42.833428
 51
90.000003
210
0.0
220
0.0
230
1.0
  0
LINE
  8
0
 62
     7
 10
145.134338
 20
202.175201
 30
0.0
 11
145.134338
 21
200.375183
 31
0.0
210
0.0
220
0.0
230
1.0
  0
ARC
  8
0
 62
     7
 10
143.934341
 20
200.375183
 30
0.0
 40
1.2
 50
318.59038
 51
0.0
210
0.0
220
0.0
230
1.0
  0
LINE
  8
0
 62
     7
 10
55.884346
 20
109.175194
 30
0.0
 11
55.884346
 21
108.412331
 31
0.0
210
0.0
220
0.0
230
1.0
  0
LINE
  8
0
 62
     7
 10
69.234344
 20
202.175201
 30
0.0
 11
69.734344
 21
202.175201
 31
0.0
210
0.0
220
0.0
230
1.0
  0
ARC
  8
0
 62
     7
 10
143.934341
 20
200.375183
 30
0.0
 40
1.2
 50
221.409615
 51
250.528781
210
0.0
220
0.0
230
1.0
  0
LINE
  8
0
 62
     7
 10
64.384346
 20
202.175201
 30
0.0
 11
64.384346
 21
196.525192
 31
0.0
210
0.0
220
0.0
230
1.0
  0
LINE
  8
0
 62
     7
 10
81.384346
 20
103.175194
 30
0.0
 11
81.384346
 21
104.175194
 31
0.0
210
0.0
220
0.0
230
1.0
  0
LINE
  8
0
 62
     7
 10
82.884346
 20
105.675194
 30
0.0
 11
91.884346
 21
105.675194
 31
0.0
210
0.0
220
0.0
230
1.0
  0
LINE
  8
0
 62
     7
 10
81.384346
 20
103.175194
 30
0.0
 11
77.884346
 21
103.175194
 31
0.0
210
0.0
220
0.0
230
1.0
  0
LINE
  8
0
 62
     7
 10
145.134338
 20
202.175201
 30
0.0
 11
145.134338
 21
200.375183
 31
0.0
210
0.0
220
0.0
230
1.0
  0
ARC
  8
0
 62
     7
 10
143.934341
 20
200.375183
 30
0.0
 40
1.2
 50
250.528781
 51
360.0
210
0.0
220
0.0
230
1.0
  0
LINE
  8
0
 62
     7
 10
148.384338
 20
196.525192
 30
0.0
 11
148.384338
 21
202.175201
 31
0.0
210
0.0
220
0.0
230
1.0
  0
LINE
  8
0
 62
     7
 10
145.134338
 20
202.175201
 30
0.0
 11
148.384338
 21
202.175201
 31
0.0
210
0.0
220
0.0
230
1.0
  0
LINE
  8
0
 62
     7
 10
64.384346
 20
202.175201
 30
0.0
 11
64.384346
 21
196.525192
 31
0.0
210
0.0
220
0.0
230
1.0
  0
LINE
  8
0
 62
     7
 10
64.384346
 20
202.175201
 30
0.0
 11
69.234344
 21
202.175201
 31
0.0
210
0.0
220
0.0
230
1.0
  0
ENDSEC
  0
EOF
