  0
SECTION
  2
HEADER
  9
$ACADVER
  1
AC1009
  9
$DWGCODEPAGE
  3
ansi_1252
  9
$INSBASE
 10
0.0
 20
0.0
 30
0.0
  9
$EXTMIN
 10
0.0
 20
0.0
 30
0.0
  9
$EXTMAX
 10
150.292236
 20
219.705307
 30
2.0
  9
$LIMMIN
 10
0.0
 20
0.0
  9
$LIMMAX
 10
420.0
 20
297.0
  9
$ORTHOMODE
 70
     0
  9
$REGENMODE
 70
     1
  9
$FILLMODE
 70
     1
  9
$QTEXTMODE
 70
     0
  9
$MIRRTEXT
 70
     1
  9
$DRAGMODE
 70
     2
  9
$LTSCALE
 40
1.0
  9
$OSMODE
 70
     0
  9
$ATTMODE
 70
     1
  9
$TEXTSIZE
 40
2.5
  9
$TRACEWID
 40
1.0
  9
$TEXTSTYLE
  7
STANDARD
  9
$CLAYER
  8
0
  9
$CELTYPE
  6
BYLAYER
  9
$CECOLOR
 62
   256
  9
$DIMSCALE
 40
1.0
  9
$DIMASZ
 40
2.5
  9
$DIMEXO
 40
0.625
  9
$DIMDLI
 40
3.75
  9
$DIMRND
 40
0.0
  9
$DIMDLE
 40
0.0
  9
$DIMEXE
 40
1.25
  9
$DIMTP
 40
0.0
  9
$DIMTM
 40
0.0
  9
$DIMTXT
 40
2.5
  9
$DIMCEN
 40
2.5
  9
$DIMTSZ
 40
0.0
  9
$DIMTOL
 70
     0
  9
$DIMLIM
 70
     0
  9
$DIMTIH
 70
     0
  9
$DIMTOH
 70
     0
  9
$DIMSE1
 70
     0
  9
$DIMSE2
 70
     0
  9
$DIMTAD
 70
     1
  9
$DIMZIN
 70
     8
  9
$DIMBLK
  1

  9
$DIMASO
 70
     1
  9
$DIMSHO
 70
     1
  9
$DIMPOST
  1

  9
$DIMAPOST
  1

  9
$DIMALT
 70
     0
  9
$DIMALTD
 70
     3
  9
$DIMALTF
 40
0.03937
  9
$DIMLFAC
 40
1.0
  9
$DIMTOFL
 70
     1
  9
$DIMTVP
 40
0.0
  9
$DIMTIX
 70
     0
  9
$DIMSOXD
 70
     0
  9
$DIMSAH
 70
     0
  9
$DIMBLK1
  1

  9
$DIMBLK2
  1

  9
$DIMSTYLE
  2

  9
$DIMCLRD
 70
     0
  9
$DIMCLRE
 70
     0
  9
$DIMCLRT
 70
     0
  9
$DIMTFAC
 40
1.0
  9
$DIMGAP
 40
0.625
  9
$LUNITS
 70
     2
  9
$LUPREC
 70
     4
  9
$AXISMODE
 70
     0
  9
$AXISUNIT
 10
0.0
 20
0.0
  9
$SKETCHINC
 40
1.0
  9
$FILLETRAD
 40
2.5
  9
$AUNITS
 70
     0
  9
$AUPREC
 70
     0
  9
$MENU
  1
.
  9
$ELEVATION
 40
0.0
  9
$PELEVATION
 40
0.0
  9
$THICKNESS
 40
0.0
  9
$LIMCHECK
 70
     0
  9
$BLIPMODE
 70
     1
  9
$CHAMFERA
 40
2.5
  9
$CHAMFERB
 40
2.5
  9
$SKPOLY
 70
     0
  9
$TDCREATE
 40
0.000000000
  9
$TDUPDATE
 40
0.000000000
  9
$TDINDWG
 40
0.0000000000
  9
$TDUSRTIMER
 40
0.0000000000
  9
$USRTIMER
 70
     1
  9
$ANGBASE
 50
0.0
  9
$ANGDIR
 70
     0
  9
$PDMODE
 70
     0
  9
$PDSIZE
 40
0.0
  9
$PLINEWID
 40
0.0
  9
$COORDS
 70
     0
  9
$SPLFRAME
 70
     0
  9
$SPLINETYPE
 70
     6
  9
$SPLINESEGS
 70
     8
  9
$ATTDIA
 70
     0
  9
$ATTREQ
 70
     1
  9
$HANDLING
 70
     0
  9
$HANDSEED
  5
3
  9
$SURFTAB1
 70
     6
  9
$SURFTAB2
 70
     6
  9
$SURFTYPE
 70
     6
  9
$SURFU
 70
     6
  9
$SURFV
 70
     6
  9
$UCSNAME
  2

  9
$UCSORG
 10
0.0
 20
0.0
 30
0.0
  9
$UCSXDIR
 10
1.0
 20
0.0
 30
0.0
  9
$UCSYDIR
 10
0.0
 20
1.0
 30
0.0
  9
$PUCSNAME
  2

  9
$PUCSORG
 10
0.0
 20
0.0
 30
0.0
  9
$PUCSXDIR
 10
1.0
 20
0.0
 30
0.0
  9
$PUCSYDIR
 10
0.0
 20
1.0
 30
0.0
  9
$USERI1
 70
     0
  9
$USERI2
 70
     0
  9
$USERI3
 70
     0
  9
$USERI4
 70
     0
  9
$USERI5
 70
     0
  9
$USERR1
 40
0.0
  9
$USERR2
 40
0.0
  9
$USERR3
 40
0.0
  9
$USERR4
 40
0.0
  9
$USERR5
 40
0.0
  9
$WORLDVIEW
 70
     1
  9
$SHADEDGE
 70
     3
  9
$SHADEDIF
 70
    70
  9
$TILEMODE
 70
     1
  9
$MAXACTVP
 70
    48
  9
$PINSBASE
 10
0.0
 20
0.0
 30
0.0
  9
$PLIMCHECK
 70
     0
  9
$PEXTMIN
 10
0.0
 20
0.0
 30
0.0
  9
$PEXTMAX
 10
150.292236
 20
219.705307
 30
2.0
  9
$PLIMMIN
 10
0.0
 20
0.0
  9
$PLIMMAX
 10
420.0
 20
297.0
  9
$UNITMODE
 70
     0
  9
$VISRETAIN
 70
     0
  9
$PLINEGEN
 70
     0
  9
$PSLTSCALE
 70
     1
  9
$TREEDEPTH
 70
  3020
  0
ENDSEC
  0
SECTION
  2
TABLES
  0
TABLE
  2
VPORT
 70
     1
  0
VPORT
  2
*ACTIVE
 70
     0
 10
0.0
 20
0.0
 11
1.0
 21
1.0
 12
6.591288
 22
4.579184
 13
0.0
 23
0.0
 14
1.0
 24
1.0
 15
0.0
 25
0.0
 16
0.0
 26
0.0
 36
1.0
 17
0.0
 27
0.0
 37
0.0
 40
9.158369
 41
0.688564
 42
50.0
 43
0.0
 44
0.0
 50
0.0
 51
0.0
 71
     0
 72
   100
 73
     1
 74
     1
 75
     0
 76
     0
 77
     0
 78
     0
  0
ENDTAB
  0
TABLE
  2
LTYPE
 70
     2
  0
LTYPE
  2
CONTINUOUS
 70
    64
  3
Solid line
 72
    65
 73
     0
 40
0.0
  0
LTYPE
  2
DASHDOT
 70
     0
  3
 __ . __ . __ . __ . __ . __ . __ . 
 72
    65
 73
     4
 40
18.5
 49
12.0
 49
-3.0
 49
0.5
 49
-3.0
  0
ENDTAB
  0
TABLE
  2
LAYER
 70
     1
  0
LAYER
  2
0
 70
     0
 62
     7
  6
CONTINUOUS
  0
ENDTAB
  0
TABLE
  2
STYLE
 70
     1
  0
STYLE
  2
STANDARD
 70
     0
 40
0.0
 41
1.0
 50
0.0
 71
     0
 42
0.0
  3
txt
  4

  0
ENDTAB
  0
TABLE
  2
VIEW
 70
     0
  0
ENDTAB
  0
TABLE
  2
UCS
 70
     0
  0
ENDTAB
  0
TABLE
  2
APPID
 70
     1
  0
APPID
  2
ACAD
 70
     0
  0
ENDTAB
  0
TABLE
  2
DIMSTYLE
 70
     1
  0
DIMSTYLE
  2
STANDARD
 70
     0
  3

  4

  5

  6

  7

 40
1.0
 41
0.18
 42
0.0625
 43
0.38
 44
0.18
 45
0.0
 46
0.0
 47
0.0
 48
0.0
 71
     0
 72
     0
 73
     1
 74
     1
 75
     0
 76
     0
 77
     0
 78
     0
140
0.18
141
0.09
142
0.0
143
25.4
144
1.0
145
0.0
146
1.0
147
0.09
170
     0
171
     2
172
     0
173
     0
174
     0
175
     0
176
     0
177
     0
178
     0
  0
ENDTAB
  0
ENDSEC
  0
SECTION
  2
BLOCKS
  0
ENDSEC
  0
SECTION
  2
ENTITIES
  0
VIEWPORT
  8
0
 62
     0
 67
     1
 68
     1
 10
0.0
 20
0.0
 30
0.0
 40
1000.0
 41
1000.0
 69
     1
1001
ACAD
1000
MVIEW
1002
{
1070
    16
1010
0.0
1020
0.0
1030
0.0
1010
0.0
1020
0.0
1030
1.0
1040
0.0
1040
1000.0
1040
0.0
1040
0.0
1040
50.0
1040
0.0
1040
0.0
1070
     0
1070
   100
1070
     1
1070
     1
1070
     0
1070
     0
1070
     0
1070
     0
1040
0.0
1040
0.0
1040
0.0
1040
1.0
1040
1.0
1040
1.0
1040
1.0
1070
     0
1002
{
1002
}
1002
}
  0
LINE
  8
0
  6
DASHDOT
 62
     7
 10
147.883209
 20
116.642006
 30
0.0
 11
146.063217
 21
116.642006
 31
0.0
210
0.0
220
0.0
230
1.0
  0
LINE
  8
0
  6
DASHDOT
 62
     7
 10
146.973221
 20
117.552002
 30
0.0
 11
146.973221
 21
115.732002
 31
0.0
210
0.0
220
0.0
230
1.0
  0
LINE
  8
0
  6
DASHDOT
 62
     7
 10
63.110718
 20
116.642006
 30
0.0
 11
61.290718
 21
116.642006
 31
0.0
210
0.0
220
0.0
230
1.0
  0
LINE
  8
0
  6
DASHDOT
 62
     7
 10
62.200718
 20
117.552002
 30
0.0
 11
62.200718
 21
115.732002
 31
0.0
210
0.0
220
0.0
230
1.0
  0
LINE
  8
0
  6
DASHDOT
 62
     7
 10
142.377594
 20
171.615814
 30
0.0
 11
140.557587
 21
171.615814
 31
0.0
210
0.0
220
0.0
230
1.0
  0
LINE
  8
0
  6
DASHDOT
 62
     7
 10
141.46759
 20
172.525818
 30
0.0
 11
141.46759
 21
170.705811
 31
0.0
210
0.0
220
0.0
230
1.0
  0
LINE
  8
0
  6
DASHDOT
 62
     7
 10
73.020805
 20
108.667503
 30
0.0
 11
71.200806
 21
108.667503
 31
0.0
210
0.0
220
0.0
230
1.0
  0
LINE
  8
0
  6
DASHDOT
 62
     7
 10
72.110809
 20
109.577499
 30
0.0
 11
72.110809
 21
107.7575
 31
0.0
210
0.0
220
0.0
230
1.0
  0
LINE
  8
0
  6
DASHDOT
 62
     7
 10
137.973129
 20
108.667503
 30
0.0
 11
136.153137
 21
108.667503
 31
0.0
210
0.0
220
0.0
230
1.0
  0
LINE
  8
0
  6
DASHDOT
 62
     7
 10
137.063126
 20
109.577499
 30
0.0
 11
137.063126
 21
107.7575
 31
0.0
210
0.0
220
0.0
230
1.0
  0
LINE
  8
0
  6
DASHDOT
 62
     7
 10
63.110718
 20
146.742004
 30
0.0
 11
61.290718
 21
146.742004
 31
0.0
210
0.0
220
0.0
230
1.0
  0
LINE
  8
0
  6
DASHDOT
 62
     7
 10
62.200718
 20
147.652008
 30
0.0
 11
62.200718
 21
145.832001
 31
0.0
210
0.0
220
0.0
230
1.0
  0
LINE
  8
0
  6
DASHDOT
 62
     7
 10
142.419586
 20
146.707214
 30
0.0
 11
140.599579
 21
146.707214
 31
0.0
210
0.0
220
0.0
230
1.0
  0
LINE
  8
0
  6
DASHDOT
 62
     7
 10
141.509583
 20
147.617218
 30
0.0
 11
141.509583
 21
145.797211
 31
0.0
210
0.0
220
0.0
230
1.0
  0
LINE
  8
0
  6
DASHDOT
 62
     7
 10
147.883209
 20
146.742004
 30
0.0
 11
146.063217
 21
146.742004
 31
0.0
210
0.0
220
0.0
230
1.0
  0
LINE
  8
0
  6
DASHDOT
 62
     7
 10
146.973221
 20
147.652008
 30
0.0
 11
146.973221
 21
145.832001
 31
0.0
210
0.0
220
0.0
230
1.0
  0
LINE
  8
0
  6
DASHDOT
 62
     7
 10
137.973129
 20
138.767502
 30
0.0
 11
136.153137
 21
138.767502
 31
0.0
210
0.0
220
0.0
230
1.0
  0
LINE
  8
0
  6
DASHDOT
 62
     7
 10
137.063126
 20
139.677505
 30
0.0
 11
137.063126
 21
137.857498
 31
0.0
210
0.0
220
0.0
230
1.0
  0
LINE
  8
0
  6
DASHDOT
 62
     7
 10
68.574356
 20
146.707214
 30
0.0
 11
66.754349
 21
146.707214
 31
0.0
210
0.0
220
0.0
230
1.0
  0
LINE
  8
0
  6
DASHDOT
 62
     7
 10
67.664352
 20
147.617218
 30
0.0
 11
67.664352
 21
145.797211
 31
0.0
210
0.0
220
0.0
230
1.0
  0
LINE
  8
0
  6
DASHDOT
 62
     7
 10
73.020805
 20
138.767502
 30
0.0
 11
71.200806
 21
138.767502
 31
0.0
210
0.0
220
0.0
230
1.0
  0
LINE
  8
0
  6
DASHDOT
 62
     7
 10
72.110809
 20
139.677505
 30
0.0
 11
72.110809
 21
137.857498
 31
0.0
210
0.0
220
0.0
230
1.0
  0
LINE
  8
0
  6
DASHDOT
 62
     7
 10
68.616341
 20
141.515808
 30
0.0
 11
66.796341
 21
141.515808
 31
0.0
210
0.0
220
0.0
230
1.0
  0
LINE
  8
0
  6
DASHDOT
 62
     7
 10
67.706345
 20
142.425812
 30
0.0
 11
67.706345
 21
140.605804
 31
0.0
210
0.0
220
0.0
230
1.0
  0
LINE
  8
0
  6
DASHDOT
 62
     7
 10
142.377594
 20
141.515808
 30
0.0
 11
140.557587
 21
141.515808
 31
0.0
210
0.0
220
0.0
230
1.0
  0
LINE
  8
0
  6
DASHDOT
 62
     7
 10
141.46759
 20
142.425812
 30
0.0
 11
141.46759
 21
140.605804
 31
0.0
210
0.0
220
0.0
230
1.0
  0
LINE
  8
0
  6
DASHDOT
 62
     7
 10
63.110718
 20
176.84201
 30
0.0
 11
61.290718
 21
176.84201
 31
0.0
210
0.0
220
0.0
230
1.0
  0
LINE
  8
0
  6
DASHDOT
 62
     7
 10
62.200718
 20
177.752014
 30
0.0
 11
62.200718
 21
175.932007
 31
0.0
210
0.0
220
0.0
230
1.0
  0
LINE
  8
0
  6
DASHDOT
 62
     7
 10
142.419586
 20
176.80722
 30
0.0
 11
140.599579
 21
176.80722
 31
0.0
210
0.0
220
0.0
230
1.0
  0
LINE
  8
0
  6
DASHDOT
 62
     7
 10
141.509583
 20
177.717224
 30
0.0
 11
141.509583
 21
175.897217
 31
0.0
210
0.0
220
0.0
230
1.0
  0
LINE
  8
0
  6
DASHDOT
 62
     7
 10
147.883209
 20
176.84201
 30
0.0
 11
146.063217
 21
176.84201
 31
0.0
210
0.0
220
0.0
230
1.0
  0
LINE
  8
0
  6
DASHDOT
 62
     7
 10
146.973221
 20
177.752014
 30
0.0
 11
146.973221
 21
175.932007
 31
0.0
210
0.0
220
0.0
230
1.0
  0
LINE
  8
0
  6
DASHDOT
 62
     7
 10
137.973129
 20
168.867508
 30
0.0
 11
136.153137
 21
168.867508
 31
0.0
210
0.0
220
0.0
230
1.0
  0
LINE
  8
0
  6
DASHDOT
 62
     7
 10
137.063126
 20
169.777496
 30
0.0
 11
137.063126
 21
167.957504
 31
0.0
210
0.0
220
0.0
230
1.0
  0
LINE
  8
0
  6
DASHDOT
 62
     7
 10
68.574356
 20
176.80722
 30
0.0
 11
66.754349
 21
176.80722
 31
0.0
210
0.0
220
0.0
230
1.0
  0
LINE
  8
0
  6
DASHDOT
 62
     7
 10
67.664352
 20
177.717224
 30
0.0
 11
67.664352
 21
175.897217
 31
0.0
210
0.0
220
0.0
230
1.0
  0
LINE
  8
0
  6
DASHDOT
 62
     7
 10
73.020805
 20
168.867508
 30
0.0
 11
71.200806
 21
168.867508
 31
0.0
210
0.0
220
0.0
230
1.0
  0
LINE
  8
0
  6
DASHDOT
 62
     7
 10
72.110809
 20
169.777496
 30
0.0
 11
72.110809
 21
167.957504
 31
0.0
210
0.0
220
0.0
230
1.0
  0
LINE
  8
0
  6
DASHDOT
 62
     7
 10
68.616341
 20
171.615814
 30
0.0
 11
66.796341
 21
171.615814
 31
0.0
210
0.0
220
0.0
230
1.0
  0
LINE
  8
0
  6
DASHDOT
 62
     7
 10
67.706345
 20
172.525818
 30
0.0
 11
67.706345
 21
170.705811
 31
0.0
210
0.0
220
0.0
230
1.0
  0
LINE
  8
0
  6
DASHDOT
 62
     7
 10
68.616341
 20
111.41581
 30
0.0
 11
66.796341
 21
111.41581
 31
0.0
210
0.0
220
0.0
230
1.0
  0
LINE
  8
0
  6
DASHDOT
 62
     7
 10
67.706345
 20
112.325806
 30
0.0
 11
67.706345
 21
110.505806
 31
0.0
210
0.0
220
0.0
230
1.0
  0
LINE
  8
0
  6
DASHDOT
 62
     7
 10
68.574356
 20
116.607216
 30
0.0
 11
66.754349
 21
116.607216
 31
0.0
210
0.0
220
0.0
230
1.0
  0
LINE
  8
0
  6
DASHDOT
 62
     7
 10
67.664352
 20
117.51722
 30
0.0
 11
67.664352
 21
115.69722
 31
0.0
210
0.0
220
0.0
230
1.0
  0
LINE
  8
0
  6
DASHDOT
 62
     7
 10
142.377594
 20
111.41581
 30
0.0
 11
140.557587
 21
111.41581
 31
0.0
210
0.0
220
0.0
230
1.0
  0
LINE
  8
0
  6
DASHDOT
 62
     7
 10
141.46759
 20
112.325806
 30
0.0
 11
141.46759
 21
110.505806
 31
0.0
210
0.0
220
0.0
230
1.0
  0
LINE
  8
0
  6
DASHDOT
 62
     7
 10
142.419586
 20
116.607216
 30
0.0
 11
140.599579
 21
116.607216
 31
0.0
210
0.0
220
0.0
230
1.0
  0
LINE
  8
0
  6
DASHDOT
 62
     7
 10
141.509583
 20
117.51722
 30
0.0
 11
141.509583
 21
115.69722
 31
0.0
210
0.0
220
0.0
230
1.0
  0
LINE
  8
0
  6
DASHDOT
 62
     7
 10
94.396965
 20
109.986313
 30
0.0
 11
92.576965
 21
109.986313
 31
0.0
210
0.0
220
0.0
230
1.0
  0
LINE
  8
0
  6
DASHDOT
 62
     7
 10
93.486969
 20
110.896317
 30
0.0
 11
93.486969
 21
109.076317
 31
0.0
210
0.0
220
0.0
230
1.0
  0
LINE
  8
0
  6
DASHDOT
 62
     7
 10
116.59697
 20
109.986313
 30
0.0
 11
114.77697
 21
109.986313
 31
0.0
210
0.0
220
0.0
230
1.0
  0
LINE
  8
0
  6
DASHDOT
 62
     7
 10
115.686966
 20
110.896317
 30
0.0
 11
115.686966
 21
109.076317
 31
0.0
210
0.0
220
0.0
230
1.0
  0
LINE
  8
0
  6
DASHDOT
 62
     7
 10
112.246964
 20
109.986313
 30
0.0
 11
110.426971
 21
109.986313
 31
0.0
210
0.0
220
0.0
230
1.0
  0
LINE
  8
0
  6
DASHDOT
 62
     7
 10
111.336967
 20
110.896317
 30
0.0
 11
111.336967
 21
109.076317
 31
0.0
210
0.0
220
0.0
230
1.0
  0
LINE
  8
0
  6
DASHDOT
 62
     7
 10
98.746964
 20
109.986313
 30
0.0
 11
96.926971
 21
109.986313
 31
0.0
210
0.0
220
0.0
230
1.0
  0
LINE
  8
0
  6
DASHDOT
 62
     7
 10
97.836967
 20
110.896317
 30
0.0
 11
97.836967
 21
109.076317
 31
0.0
210
0.0
220
0.0
230
1.0
  0
LINE
  8
0
  6
DASHDOT
 62
     7
 10
99.006966
 20
118.146317
 30
0.0
 11
96.666969
 21
118.146317
 31
0.0
210
0.0
220
0.0
230
1.0
  0
LINE
  8
0
  6
DASHDOT
 62
     7
 10
97.836967
 20
119.316315
 30
0.0
 11
97.836967
 21
116.976318
 31
0.0
210
0.0
220
0.0
230
1.0
  0
LINE
  8
0
  6
DASHDOT
 62
     7
 10
112.506966
 20
118.146317
 30
0.0
 11
110.166969
 21
118.146317
 31
0.0
210
0.0
220
0.0
230
1.0
  0
LINE
  8
0
  6
DASHDOT
 62
     7
 10
111.336967
 20
119.316315
 30
0.0
 11
111.336967
 21
116.976318
 31
0.0
210
0.0
220
0.0
230
1.0
  0
LINE
  8
0
  6
DASHDOT
 62
     7
 10
123.646965
 20
109.736313
 30
0.0
 11
120.52697
 21
109.736313
 31
0.0
210
0.0
220
0.0
230
1.0
  0
LINE
  8
0
  6
DASHDOT
 62
     7
 10
122.086967
 20
111.296318
 30
0.0
 11
122.086967
 21
108.176315
 31
0.0
210
0.0
220
0.0
230
1.0
  0
LINE
  8
0
  6
DASHDOT
 62
     7
 10
89.186966
 20
112.336319
 30
0.0
 11
87.366966
 21
112.336319
 31
0.0
210
0.0
220
0.0
230
1.0
  0
LINE
  8
0
  6
DASHDOT
 62
     7
 10
88.27697
 20
113.246315
 30
0.0
 11
88.27697
 21
111.426315
 31
0.0
210
0.0
220
0.0
230
1.0
  0
LINE
  8
0
  6
DASHDOT
 62
     7
 10
79.34697
 20
113.936317
 30
0.0
 11
77.52697
 21
113.936317
 31
0.0
210
0.0
220
0.0
230
1.0
  0
LINE
  8
0
  6
DASHDOT
 62
     7
 10
78.436966
 20
114.846313
 30
0.0
 11
78.436966
 21
113.026314
 31
0.0
210
0.0
220
0.0
230
1.0
  0
LINE
  8
0
  6
DASHDOT
 62
     7
 10
143.69696
 20
204.736313
 30
0.0
 11
140.576965
 21
204.736313
 31
0.0
210
0.0
220
0.0
230
1.0
  0
LINE
  8
0
  6
DASHDOT
 62
     7
 10
142.136963
 20
206.296326
 30
0.0
 11
142.136963
 21
203.176315
 31
0.0
210
0.0
220
0.0
230
1.0
  0
POLYLINE
  8
0
 62
     7
 66
     1
 10
0.0
 20
0.0
 30
0.0
 70
     1
 71
    12
  0
VERTEX
  8
0
 10
58.260994
 20
216.356903
 30
0.0
  0
VERTEX
  8
0
 10
58.482483
 20
216.356903
 30
0.0
  0
VERTEX
  8
0
 10
58.482483
 20
217.528671
 30
0.0
  0
VERTEX
  8
0
 10
59.325493
 20
217.528671
 30
0.0
  0
VERTEX
  8
0
 10
59.325493
 20
216.356903
 30
0.0
  0
VERTEX
  8
0
 10
59.546982
 20
216.356903
 30
0.0
  0
VERTEX
  8
0
 10
59.546982
 20
218.856903
 30
0.0
  0
VERTEX
  8
0
 10
59.325493
 20
218.856903
 30
0.0
  0
VERTEX
  8
0
 10
59.325493
 20
217.831177
 30
0.0
  0
VERTEX
  8
0
 10
58.482483
 20
217.831177
 30
0.0
  0
VERTEX
  8
0
 10
58.482483
 20
218.856903
 30
0.0
  0
VERTEX
  8
0
 10
58.260994
 20
218.856903
 30
0.0
  0
SEQEND
  8
0
  0
POLYLINE
  8
0
 62
     7
 66
     1
 10
0.0
 20
0.0
 30
0.0
 70
     1
 71
    32
  0
VERTEX
  8
0
 10
60.32497
 20
217.605164
 30
0.0
  0
VERTEX
  8
0
 10
60.336273
 20
217.306137
 30
0.0
  0
VERTEX
  8
0
 10
60.376953
 20
217.045364
 30
0.0
  0
VERTEX
  8
0
 10
60.442497
 20
216.819351
 30
0.0
  0
VERTEX
  8
0
 10
60.53064
 20
216.631592
 30
0.0
  0
VERTEX
  8
0
 10
60.641384
 20
216.482071
 30
0.0
  0
VERTEX
  8
0
 10
60.772469
 20
216.374283
 30
0.0
  0
VERTEX
  8
0
 10
60.923893
 20
216.311707
 30
0.0
  0
VERTEX
  8
0
 10
61.095661
 20
216.287369
 30
0.0
  0
VERTEX
  8
0
 10
61.265167
 20
216.311707
 30
0.0
  0
VERTEX
  8
0
 10
61.416592
 20
216.374283
 30
0.0
  0
VERTEX
  8
0
 10
61.547676
 20
216.482071
 30
0.0
  0
VERTEX
  8
0
 10
61.658421
 20
216.631592
 30
0.0
  0
VERTEX
  8
0
 10
61.746563
 20
216.819351
 30
0.0
  0
VERTEX
  8
0
 10
61.809845
 20
217.045364
 30
0.0
  0
VERTEX
  8
0
 10
61.848267
 20
217.306137
 30
0.0
  0
VERTEX
  8
0
 10
61.86409
 20
217.605164
 30
0.0
  0
VERTEX
  8
0
 10
61.850529
 20
217.900711
 30
0.0
  0
VERTEX
  8
0
 10
61.809845
 20
218.161499
 30
0.0
  0
VERTEX
  8
0
 10
61.744305
 20
218.387497
 30
0.0
  0
VERTEX
  8
0
 10
61.658421
 20
218.575256
 30
0.0
  0
VERTEX
  8
0
 10
61.547676
 20
218.724777
 30
0.0
  0
VERTEX
  8
0
 10
61.416592
 20
218.832565
 30
0.0
  0
VERTEX
  8
0
 10
61.265167
 20
218.898621
 30
0.0
  0
VERTEX
  8
0
 10
61.095661
 20
218.922974
 30
0.0
  0
VERTEX
  8
0
 10
60.923893
 20
218.898621
 30
0.0
  0
VERTEX
  8
0
 10
60.772469
 20
218.832565
 30
0.0
  0
VERTEX
  8
0
 10
60.641384
 20
218.724777
 30
0.0
  0
VERTEX
  8
0
 10
60.53064
 20
218.575256
 30
0.0
  0
VERTEX
  8
0
 10
60.442497
 20
218.387497
 30
0.0
  0
VERTEX
  8
0
 10
60.376953
 20
218.161499
 30
0.0
  0
VERTEX
  8
0
 10
60.336273
 20
217.900711
 30
0.0
  0
SEQEND
  8
0
  0
POLYLINE
  8
0
 62
     7
 66
     1
 10
0.0
 20
0.0
 30
0.0
 70
     1
 71
    16
  0
VERTEX
  8
0
 10
60.553242
 20
217.605164
 30
0.0
  0
VERTEX
  8
0
 10
60.589401
 20
218.036316
 30
0.0
  0
VERTEX
  8
0
 10
60.697884
 20
218.35968
 30
0.0
  0
VERTEX
  8
0
 10
60.869652
 20
218.557877
 30
0.0
  0
VERTEX
  8
0
 10
61.095661
 20
218.627411
 30
0.0
  0
VERTEX
  8
0
 10
61.319408
 20
218.557877
 30
0.0
  0
VERTEX
  8
0
 10
61.491173
 20
218.35968
 30
0.0
  0
VERTEX
  8
0
 10
61.597397
 20
218.036316
 30
0.0
  0
VERTEX
  8
0
 10
61.635818
 20
217.605164
 30
0.0
  0
VERTEX
  8
0
 10
61.597397
 20
217.170532
 30
0.0
  0
VERTEX
  8
0
 10
61.491173
 20
216.847168
 30
0.0
  0
VERTEX
  8
0
 10
61.319408
 20
216.648972
 30
0.0
  0
VERTEX
  8
0
 10
61.095661
 20
216.582916
 30
0.0
  0
VERTEX
  8
0
 10
60.869652
 20
216.648972
 30
0.0
  0
VERTEX
  8
0
 10
60.697884
 20
216.847168
 30
0.0
  0
VERTEX
  8
0
 10
60.589401
 20
217.170532
 30
0.0
  0
SEQEND
  8
0
  0
POLYLINE
  8
0
 62
     7
 66
     1
 10
0.0
 20
0.0
 30
0.0
 70
     1
 71
     6
  0
VERTEX
  8
0
 10
62.642078
 20
216.356903
 30
0.0
  0
VERTEX
  8
0
 10
63.674938
 20
216.356903
 30
0.0
  0
VERTEX
  8
0
 10
63.674938
 20
216.673309
 30
0.0
  0
VERTEX
  8
0
 10
62.865826
 20
216.673309
 30
0.0
  0
VERTEX
  8
0
 10
62.865826
 20
218.856903
 30
0.0
  0
VERTEX
  8
0
 10
62.642078
 20
218.856903
 30
0.0
  0
SEQEND
  8
0
  0
POLYLINE
  8
0
 62
     7
 66
     1
 10
0.0
 20
0.0
 30
0.0
 70
     1
 71
    12
  0
VERTEX
  8
0
 10
64.351227
 20
216.356903
 30
0.0
  0
VERTEX
  8
0
 10
65.528725
 20
216.356903
 30
0.0
  0
VERTEX
  8
0
 10
65.528725
 20
216.66983
 30
0.0
  0
VERTEX
  8
0
 10
64.57045
 20
216.66983
 30
0.0
  0
VERTEX
  8
0
 10
64.57045
 20
217.507813
 30
0.0
  0
VERTEX
  8
0
 10
65.438324
 20
217.507813
 30
0.0
  0
VERTEX
  8
0
 10
65.438324
 20
217.799881
 30
0.0
  0
VERTEX
  8
0
 10
64.57045
 20
217.799881
 30
0.0
  0
VERTEX
  8
0
 10
64.57045
 20
218.54744
 30
0.0
  0
VERTEX
  8
0
 10
65.510643
 20
218.54744
 30
0.0
  0
VERTEX
  8
0
 10
65.510643
 20
218.856903
 30
0.0
  0
VERTEX
  8
0
 10
64.351227
 20
218.856903
 30
0.0
  0
SEQEND
  8
0
  0
POLYLINE
  8
0
 62
     7
 66
     1
 10
0.0
 20
0.0
 30
0.0
 70
     1
 71
    15
  0
VERTEX
  8
0
 10
67.41468
 20
216.356903
 30
0.0
  0
VERTEX
  8
0
 10
67.636169
 20
216.356903
 30
0.0
  0
VERTEX
  8
0
 10
67.636169
 20
217.410446
 30
0.0
  0
VERTEX
  8
0
 10
67.970657
 20
217.410446
 30
0.0
  0
VERTEX
  8
0
 10
68.192146
 20
217.424362
 30
0.0
  0
VERTEX
  8
0
 10
68.368439
 20
217.511292
 30
0.0
  0
VERTEX
  8
0
 10
68.522118
 20
217.761627
 30
0.0
  0
VERTEX
  8
0
 10
68.576363
 20
218.133682
 30
0.0
  0
VERTEX
  8
0
 10
68.560539
 20
218.338821
 30
0.0
  0
VERTEX
  8
0
 10
68.522118
 20
218.516159
 30
0.0
  0
VERTEX
  8
0
 10
68.456581
 20
218.658707
 30
0.0
  0
VERTEX
  8
0
 10
68.370697
 20
218.763016
 30
0.0
  0
VERTEX
  8
0
 10
68.203445
 20
218.839523
 30
0.0
  0
VERTEX
  8
0
 10
68.013603
 20
218.856903
 30
0.0
  0
VERTEX
  8
0
 10
67.41468
 20
218.856903
 30
0.0
  0
SEQEND
  8
0
  0
POLYLINE
  8
0
 62
     7
 66
     1
 10
0.0
 20
0.0
 30
0.0
 70
     1
 71
    11
  0
VERTEX
  8
0
 10
67.636169
 20
217.712952
 30
0.0
  0
VERTEX
  8
0
 10
67.636169
 20
218.550919
 30
0.0
  0
VERTEX
  8
0
 10
68.022644
 20
218.550919
 30
0.0
  0
VERTEX
  8
0
 10
68.169548
 20
218.526581
 30
0.0
  0
VERTEX
  8
0
 10
68.271248
 20
218.457047
 30
0.0
  0
VERTEX
  8
0
 10
68.332275
 20
218.328384
 30
0.0
  0
VERTEX
  8
0
 10
68.352615
 20
218.133682
 30
0.0
  0
VERTEX
  8
0
 10
68.332275
 20
217.928528
 30
0.0
  0
VERTEX
  8
0
 10
68.26899
 20
217.799881
 30
0.0
  0
VERTEX
  8
0
 10
68.160507
 20
217.730331
 30
0.0
  0
VERTEX
  8
0
 10
68.006821
 20
217.712952
 30
0.0
  0
SEQEND
  8
0
  0
POLYLINE
  8
0
 62
     7
 66
     1
 10
0.0
 20
0.0
 30
0.0
 70
     1
 71
     8
  0
VERTEX
  8
0
 10
69.157722
 20
216.356903
 30
0.0
  0
VERTEX
  8
0
 10
69.385994
 20
216.356903
 30
0.0
  0
VERTEX
  8
0
 10
69.56002
 20
217.104462
 30
0.0
  0
VERTEX
  8
0
 10
70.199623
 20
217.104462
 30
0.0
  0
VERTEX
  8
0
 10
70.371391
 20
216.356903
 30
0.0
  0
VERTEX
  8
0
 10
70.610962
 20
216.356903
 30
0.0
  0
VERTEX
  8
0
 10
70.005257
 20
218.856903
 30
0.0
  0
VERTEX
  8
0
 10
69.761169
 20
218.856903
 30
0.0
  0
SEQEND
  8
0
  0
POLYLINE
  8
0
 62
     7
 66
     1
 10
0.0
 20
0.0
 30
0.0
 70
     1
 71
     3
  0
VERTEX
  8
0
 10
69.627823
 20
217.396545
 30
0.0
  0
VERTEX
  8
0
 10
69.883209
 20
218.498764
 30
0.0
  0
VERTEX
  8
0
 10
70.134079
 20
217.396545
 30
0.0
  0
SEQEND
  8
0
  0
POLYLINE
  8
0
 62
     7
 66
     1
 10
0.0
 20
0.0
 30
0.0
 70
     1
 71
     8
  0
VERTEX
  8
0
 10
71.637558
 20
216.356903
 30
0.0
  0
VERTEX
  8
0
 10
71.859047
 20
216.356903
 30
0.0
  0
VERTEX
  8
0
 10
71.859047
 20
218.554398
 30
0.0
  0
VERTEX
  8
0
 10
72.372086
 20
218.554398
 30
0.0
  0
VERTEX
  8
0
 10
72.372086
 20
218.856903
 30
0.0
  0
VERTEX
  8
0
 10
71.124519
 20
218.856903
 30
0.0
  0
VERTEX
  8
0
 10
71.124519
 20
218.554398
 30
0.0
  0
VERTEX
  8
0
 10
71.637558
 20
218.554398
 30
0.0
  0
SEQEND
  8
0
  0
POLYLINE
  8
0
 62
     7
 66
     1
 10
0.0
 20
0.0
 30
0.0
 70
     1
 71
     8
  0
VERTEX
  8
0
 10
73.428062
 20
216.356903
 30
0.0
  0
VERTEX
  8
0
 10
73.649551
 20
216.356903
 30
0.0
  0
VERTEX
  8
0
 10
73.649551
 20
218.554398
 30
0.0
  0
VERTEX
  8
0
 10
74.16259
 20
218.554398
 30
0.0
  0
VERTEX
  8
0
 10
74.16259
 20
218.856903
 30
0.0
  0
VERTEX
  8
0
 10
72.915024
 20
218.856903
 30
0.0
  0
VERTEX
  8
0
 10
72.915024
 20
218.554398
 30
0.0
  0
VERTEX
  8
0
 10
73.428062
 20
218.554398
 30
0.0
  0
SEQEND
  8
0
  0
POLYLINE
  8
0
 62
     7
 66
     1
 10
0.0
 20
0.0
 30
0.0
 70
     1
 71
    12
  0
VERTEX
  8
0
 10
74.859222
 20
216.356903
 30
0.0
  0
VERTEX
  8
0
 10
76.036728
 20
216.356903
 30
0.0
  0
VERTEX
  8
0
 10
76.036728
 20
216.66983
 30
0.0
  0
VERTEX
  8
0
 10
75.078445
 20
216.66983
 30
0.0
  0
VERTEX
  8
0
 10
75.078445
 20
217.507813
 30
0.0
  0
VERTEX
  8
0
 10
75.94632
 20
217.507813
 30
0.0
  0
VERTEX
  8
0
 10
75.94632
 20
217.799881
 30
0.0
  0
VERTEX
  8
0
 10
75.078445
 20
217.799881
 30
0.0
  0
VERTEX
  8
0
 10
75.078445
 20
218.54744
 30
0.0
  0
VERTEX
  8
0
 10
76.018646
 20
218.54744
 30
0.0
  0
VERTEX
  8
0
 10
76.018646
 20
218.856903
 30
0.0
  0
VERTEX
  8
0
 10
74.859222
 20
218.856903
 30
0.0
  0
SEQEND
  8
0
  0
POLYLINE
  8
0
 62
     7
 66
     1
 10
0.0
 20
0.0
 30
0.0
 70
     1
 71
    30
  0
VERTEX
  8
0
 10
76.803413
 20
218.856903
 30
0.0
  0
VERTEX
  8
0
 10
76.803413
 20
216.356903
 30
0.0
  0
VERTEX
  8
0
 10
77.022644
 20
216.356903
 30
0.0
  0
VERTEX
  8
0
 10
77.022644
 20
217.427841
 30
0.0
  0
VERTEX
  8
0
 10
77.37973
 20
217.427841
 30
0.0
  0
VERTEX
  8
0
 10
77.551498
 20
217.417404
 30
0.0
  0
VERTEX
  8
0
 10
77.657722
 20
217.36525
 30
0.0
  0
VERTEX
  8
0
 10
77.716492
 20
217.247025
 30
0.0
  0
VERTEX
  8
0
 10
77.741348
 20
217.027969
 30
0.0
  0
VERTEX
  8
0
 10
77.754906
 20
216.701126
 30
0.0
  0
VERTEX
  8
0
 10
77.766205
 20
216.502945
 30
0.0
  0
VERTEX
  8
0
 10
77.797852
 20
216.356903
 30
0.0
  0
VERTEX
  8
0
 10
78.053238
 20
216.356903
 30
0.0
  0
VERTEX
  8
0
 10
78.053238
 20
216.426437
 30
0.0
  0
VERTEX
  8
0
 10
77.998993
 20
216.527283
 30
0.0
  0
VERTEX
  8
0
 10
77.978653
 20
216.718521
 30
0.0
  0
VERTEX
  8
0
 10
77.960571
 20
217.128815
 30
0.0
  0
VERTEX
  8
0
 10
77.944756
 20
217.302658
 30
0.0
  0
VERTEX
  8
0
 10
77.915375
 20
217.438263
 30
0.0
  0
VERTEX
  8
0
 10
77.86113
 20
217.53215
 30
0.0
  0
VERTEX
  8
0
 10
77.775253
 20
217.594727
 30
0.0
  0
VERTEX
  8
0
 10
77.870171
 20
217.688614
 30
0.0
  0
VERTEX
  8
0
 10
77.940231
 20
217.817261
 30
0.0
  0
VERTEX
  8
0
 10
77.983177
 20
217.973724
 30
0.0
  0
VERTEX
  8
0
 10
77.998993
 20
218.164963
 30
0.0
  0
VERTEX
  8
0
 10
77.983177
 20
218.35968
 30
0.0
  0
VERTEX
  8
0
 10
77.944756
 20
218.53006
 30
0.0
  0
VERTEX
  8
0
 10
77.788811
 20
218.769974
 30
0.0
  0
VERTEX
  8
0
 10
77.623825
 20
218.843002
 30
0.0
  0
VERTEX
  8
0
 10
77.433975
 20
218.856903
 30
0.0
  0
SEQEND
  8
0
  0
POLYLINE
  8
0
 62
     7
 66
     1
 10
0.0
 20
0.0
 30
0.0
 70
     1
 71
    11
  0
VERTEX
  8
0
 10
77.020386
 20
218.564835
 30
0.0
  0
VERTEX
  8
0
 10
77.397812
 20
218.564835
 30
0.0
  0
VERTEX
  8
0
 10
77.558281
 20
218.54744
 30
0.0
  0
VERTEX
  8
0
 10
77.675804
 20
218.484863
 30
0.0
  0
VERTEX
  8
0
 10
77.745865
 20
218.363159
 30
0.0
  0
VERTEX
  8
0
 10
77.770729
 20
218.15802
 30
0.0
  0
VERTEX
  8
0
 10
77.745865
 20
217.945923
 30
0.0
  0
VERTEX
  8
0
 10
77.67807
 20
217.810318
 30
0.0
  0
VERTEX
  8
0
 10
77.560539
 20
217.737289
 30
0.0
  0
VERTEX
  8
0
 10
77.397812
 20
217.716431
 30
0.0
  0
VERTEX
  8
0
 10
77.020386
 20
217.716431
 30
0.0
  0
SEQEND
  8
0
  0
POLYLINE
  8
0
 62
     7
 66
     1
 10
0.0
 20
0.0
 30
0.0
 70
     1
 71
    12
  0
VERTEX
  8
0
 10
78.801849
 20
216.356903
 30
0.0
  0
VERTEX
  8
0
 10
79.012039
 20
216.356903
 30
0.0
  0
VERTEX
  8
0
 10
79.012039
 20
218.384018
 30
0.0
  0
VERTEX
  8
0
 10
79.073059
 20
218.199738
 30
0.0
  0
VERTEX
  8
0
 10
79.848267
 20
216.356903
 30
0.0
  0
VERTEX
  8
0
 10
80.087837
 20
216.356903
 30
0.0
  0
VERTEX
  8
0
 10
80.087837
 20
218.856903
 30
0.0
  0
VERTEX
  8
0
 10
79.877647
 20
218.856903
 30
0.0
  0
VERTEX
  8
0
 10
79.877647
 20
216.829788
 30
0.0
  0
VERTEX
  8
0
 10
79.803062
 20
217.041885
 30
0.0
  0
VERTEX
  8
0
 10
79.043678
 20
218.856903
 30
0.0
  0
VERTEX
  8
0
 10
78.801849
 20
218.856903
 30
0.0
  0
SEQEND
  8
0
  0
LINE
  8
0
 62
     7
 10
120.194145
 20
107.536316
 30
0.0
 11
117.436966
 21
107.536316
 31
0.0
210
0.0
220
0.0
230
1.0
  0
LINE
  8
0
 62
     7
 10
104.586967
 20
107.536316
 30
0.0
 11
117.436966
 21
107.536316
 31
0.0
210
0.0
220
0.0
230
1.0
  0
LINE
  8
0
 62
     7
 10
135.404663
 20
107.536316
 30
0.0
 11
123.286972
 21
107.536316
 31
0.0
210
0.0
220
0.0
230
1.0
  0
ARC
  8
0
 62
     7
 10
135.404663
 20
106.036316
 30
0.0
 40
1.5
 50
56.442689
 51
73.597638
210
0.0
220
0.0
230
1.0
  0
ARC
  8
0
 62
     7
 10
135.404663
 20
106.036316
 30
0.0
 40
1.5
 50
73.597638
 51
90.000003
210
0.0
220
0.0
230
1.0
  0
LINE
  8
0
 62
     7
 10
144.373398
 20
128.724518
 30
0.0
 11
142.709778
 21
131.035431
 31
0.0
210
0.0
220
0.0
230
1.0
  0
LINE
  8
0
 62
     7
 10
142.709778
 20
131.035431
 30
0.0
 11
142.477219
 21
131.35849
 31
0.0
210
0.0
220
0.0
230
1.0
  0
LINE
  8
0
 62
     7
 10
142.709778
 20
161.135437
 30
0.0
 11
144.373398
 21
158.824524
 31
0.0
210
0.0
220
0.0
230
1.0
  0
LINE
  8
0
 62
     7
 10
142.709778
 20
161.135437
 30
0.0
 11
142.477219
 21
161.458496
 31
0.0
210
0.0
220
0.0
230
1.0
  0
LINE
  8
0
 62
     7
 10
142.385834
 20
163.067795
 30
0.0
 11
148.351227
 21
173.719788
 31
0.0
210
0.0
220
0.0
230
1.0
  0
LINE
  8
0
 62
     7
 10
148.351227
 20
173.719788
 30
0.0
 11
150.292236
 21
177.185699
 31
0.0
210
0.0
220
0.0
230
1.0
  0
LINE
  8
0
 62
     7
 10
144.373398
 20
188.92453
 30
0.0
 11
142.709778
 21
191.235443
 31
0.0
210
0.0
220
0.0
230
1.0
  0
LINE
  8
0
 62
     7
 10
142.709778
 20
191.235443
 30
0.0
 11
142.67157
 21
191.288513
 31
0.0
210
0.0
220
0.0
230
1.0
  0
ARC
  8
0
 62
     7
 10
144.085007
 20
191.79071
 30
0.0
 40
1.5
 50
163.750001
 51
199.560496
210
0.0
220
0.0
230
1.0
  0
LINE
  8
0
 62
     7
 10
143.508026
 20
195.171631
 30
0.0
 11
142.644928
 21
192.210464
 31
0.0
210
0.0
220
0.0
230
1.0
  0
LINE
  8
0
 62
     7
 10
143.508026
 20
195.171631
 30
0.0
 11
146.586975
 21
200.669464
 31
0.0
210
0.0
220
0.0
230
1.0
  0
LINE
  8
0
 62
     7
 10
65.665909
 20
195.171631
 30
0.0
 11
66.529007
 21
192.210464
 31
0.0
210
0.0
220
0.0
230
1.0
  0
ARC
  8
0
 62
     7
 10
65.088928
 20
191.79071
 30
0.0
 40
1.5
 50
340.439504
 51
16.25
210
0.0
220
0.0
230
1.0
  0
LINE
  8
0
 62
     7
 10
60.822708
 20
143.619781
 30
0.0
 11
58.881695
 21
147.085709
 31
0.0
210
0.0
220
0.0
230
1.0
  0
LINE
  8
0
 62
     7
 10
60.822708
 20
143.619781
 30
0.0
 11
66.788101
 21
132.967804
 31
0.0
210
0.0
220
0.0
230
1.0
  0
ARC
  8
0
 62
     7
 10
73.769279
 20
106.036316
 30
0.0
 40
1.5
 50
106.402367
 51
123.557316
210
0.0
220
0.0
230
1.0
  0
ARC
  8
0
 62
     7
 10
73.769279
 20
106.036316
 30
0.0
 40
1.5
 50
90.000003
 51
106.402367
210
0.0
220
0.0
230
1.0
  0
CIRCLE
  8
0
 62
     7
 10
146.973221
 20
116.642006
 30
0.0
 40
0.7
210
0.0
220
0.0
230
1.0
  0
LINE
  8
0
 62
     7
 10
150.292236
 20
116.98571
 30
0.0
 11
142.090775
 21
121.578751
 31
0.0
210
0.0
220
0.0
230
1.0
  0
ARC
  8
0
 62
     7
 10
142.823715
 20
122.887489
 30
0.0
 40
1.5
 50
150.750007
 51
240.750006
210
0.0
220
0.0
230
1.0
  0
LINE
  8
0
 62
     7
 10
144.373398
 20
128.724518
 30
0.0
 11
141.514969
 21
123.620422
 31
0.0
210
0.0
220
0.0
230
1.0
  0
LINE
  8
0
 62
     7
 10
150.292236
 20
147.085709
 30
0.0
 11
142.090775
 21
151.678741
 31
0.0
210
0.0
220
0.0
230
1.0
  0
ARC
  8
0
 62
     7
 10
142.823715
 20
152.987488
 30
0.0
 40
1.5
 50
150.750007
 51
240.750006
210
0.0
220
0.0
230
1.0
  0
LINE
  8
0
 62
     7
 10
144.373398
 20
158.824524
 30
0.0
 11
141.514969
 21
153.720428
 31
0.0
210
0.0
220
0.0
230
1.0
  0
LINE
  8
0
 62
     7
 10
150.292236
 20
177.185699
 30
0.0
 11
142.090775
 21
181.778748
 31
0.0
210
0.0
220
0.0
230
1.0
  0
ARC
  8
0
 62
     7
 10
142.823715
 20
183.087494
 30
0.0
 40
1.5
 50
150.750007
 51
240.750006
210
0.0
220
0.0
230
1.0
  0
LINE
  8
0
 62
     7
 10
144.373398
 20
188.92453
 30
0.0
 11
141.514969
 21
183.820435
 31
0.0
210
0.0
220
0.0
230
1.0
  0
LINE
  8
0
 62
     7
 10
64.800537
 20
188.92453
 30
0.0
 11
67.658966
 21
183.820435
 31
0.0
210
0.0
220
0.0
230
1.0
  0
ARC
  8
0
 62
     7
 10
66.35022
 20
183.087494
 30
0.0
 40
1.5
 50
299.250003
 51
29.249998
210
0.0
220
0.0
230
1.0
  0
LINE
  8
0
 62
     7
 10
58.881695
 20
177.185699
 30
0.0
 11
67.08316
 21
181.778748
 31
0.0
210
0.0
220
0.0
230
1.0
  0
LINE
  8
0
 62
     7
 10
64.800537
 20
158.824524
 30
0.0
 11
67.658966
 21
153.720428
 31
0.0
210
0.0
220
0.0
230
1.0
  0
ARC
  8
0
 62
     7
 10
66.35022
 20
152.987488
 30
0.0
 40
1.5
 50
299.250003
 51
29.249998
210
0.0
220
0.0
230
1.0
  0
LINE
  8
0
 62
     7
 10
58.881695
 20
147.085709
 30
0.0
 11
67.08316
 21
151.678741
 31
0.0
210
0.0
220
0.0
230
1.0
  0
LINE
  8
0
 62
     7
 10
64.800537
 20
128.724518
 30
0.0
 11
67.658966
 21
123.620422
 31
0.0
210
0.0
220
0.0
230
1.0
  0
ARC
  8
0
 62
     7
 10
66.35022
 20
122.887489
 30
0.0
 40
1.5
 50
299.250003
 51
29.249998
210
0.0
220
0.0
230
1.0
  0
LINE
  8
0
 62
     7
 10
58.881695
 20
116.98571
 30
0.0
 11
67.08316
 21
121.578751
 31
0.0
210
0.0
220
0.0
230
1.0
  0
CIRCLE
  8
0
 62
     7
 10
62.200718
 20
116.642006
 30
0.0
 40
0.7
210
0.0
220
0.0
230
1.0
  0
LINE
  8
0
 62
     7
 10
91.796509
 20
109.049347
 30
0.0
 11
92.347206
 21
107.536316
 31
0.0
210
0.0
220
0.0
230
1.0
  0
CIRCLE
  8
0
 62
     7
 10
141.46759
 20
171.615814
 30
0.0
 40
0.7
210
0.0
220
0.0
230
1.0
  0
CIRCLE
  8
0
 62
     7
 10
72.110809
 20
108.667503
 30
0.0
 40
0.7
210
0.0
220
0.0
230
1.0
  0
CIRCLE
  8
0
 62
     7
 10
137.063126
 20
108.667503
 30
0.0
 40
0.7
210
0.0
220
0.0
230
1.0
  0
CIRCLE
  8
0
 62
     7
 10
62.200718
 20
146.742004
 30
0.0
 40
0.7
210
0.0
220
0.0
230
1.0
  0
CIRCLE
  8
0
 62
     7
 10
141.509583
 20
146.707214
 30
0.0
 40
0.7
210
0.0
220
0.0
230
1.0
  0
CIRCLE
  8
0
 62
     7
 10
146.973221
 20
146.742004
 30
0.0
 40
0.7
210
0.0
220
0.0
230
1.0
  0
CIRCLE
  8
0
 62
     7
 10
137.063126
 20
138.767502
 30
0.0
 40
0.7
210
0.0
220
0.0
230
1.0
  0
CIRCLE
  8
0
 62
     7
 10
67.664352
 20
146.707214
 30
0.0
 40
0.7
210
0.0
220
0.0
230
1.0
  0
CIRCLE
  8
0
 62
     7
 10
72.110809
 20
138.767502
 30
0.0
 40
0.7
210
0.0
220
0.0
230
1.0
  0
CIRCLE
  8
0
 62
     7
 10
67.706345
 20
141.515808
 30
0.0
 40
0.7
210
0.0
220
0.0
230
1.0
  0
CIRCLE
  8
0
 62
     7
 10
141.46759
 20
141.515808
 30
0.0
 40
0.7
210
0.0
220
0.0
230
1.0
  0
CIRCLE
  8
0
 62
     7
 10
62.200718
 20
176.84201
 30
0.0
 40
0.7
210
0.0
220
0.0
230
1.0
  0
CIRCLE
  8
0
 62
     7
 10
141.509583
 20
176.80722
 30
0.0
 40
0.7
210
0.0
220
0.0
230
1.0
  0
CIRCLE
  8
0
 62
     7
 10
146.973221
 20
176.84201
 30
0.0
 40
0.7
210
0.0
220
0.0
230
1.0
  0
CIRCLE
  8
0
 62
     7
 10
137.063126
 20
168.867508
 30
0.0
 40
0.7
210
0.0
220
0.0
230
1.0
  0
CIRCLE
  8
0
 62
     7
 10
67.664352
 20
176.80722
 30
0.0
 40
0.7
210
0.0
220
0.0
230
1.0
  0
CIRCLE
  8
0
 62
     7
 10
72.110809
 20
168.867508
 30
0.0
 40
0.7
210
0.0
220
0.0
230
1.0
  0
CIRCLE
  8
0
 62
     7
 10
67.706345
 20
171.615814
 30
0.0
 40
0.7
210
0.0
220
0.0
230
1.0
  0
ARC
  8
0
 62
     7
 10
90.386971
 20
108.536316
 30
0.0
 40
1.5
 50
20.000001
 51
25.841934
210
0.0
220
0.0
230
1.0
  0
LINE
  8
0
 62
     7
 10
104.586967
 20
107.536316
 30
0.0
 11
92.347206
 21
107.536316
 31
0.0
210
0.0
220
0.0
230
1.0
  0
CIRCLE
  8
0
 62
     7
 10
111.336967
 20
109.986313
 30
0.0
 40
0.7
210
0.0
220
0.0
230
1.0
  0
CIRCLE
  8
0
 62
     7
 10
97.836967
 20
118.146317
 30
0.0
 40
0.9
210
0.0
220
0.0
230
1.0
  0
CIRCLE
  8
0
 62
     7
 10
115.686966
 20
109.986313
 30
0.0
 40
0.7
210
0.0
220
0.0
230
1.0
  0
CIRCLE
  8
0
 62
     7
 10
97.836967
 20
109.986313
 30
0.0
 40
0.7
210
0.0
220
0.0
230
1.0
  0
CIRCLE
  8
0
 62
     7
 10
93.486969
 20
109.986313
 30
0.0
 40
0.7
210
0.0
220
0.0
230
1.0
  0
CIRCLE
  8
0
 62
     7
 10
111.336967
 20
118.146317
 30
0.0
 40
0.9
210
0.0
220
0.0
230
1.0
  0
ARC
  8
0
 62
     7
 10
139.586975
 20
107.036316
 30
0.0
 40
1.5
 50
99.808543
 51
142.007979
210
0.0
220
0.0
230
1.0
  0
LINE
  8
0
 62
     7
 10
148.586975
 20
113.549301
 30
0.0
 11
148.586975
 21
113.387756
 31
0.0
210
0.0
220
0.0
230
1.0
  0
ARC
  8
0
 62
     7
 10
150.086975
 20
113.549301
 30
0.0
 40
1.5
 50
150.750007
 51
179.999995
210
0.0
220
0.0
230
1.0
  0
LINE
  8
0
 62
     7
 10
150.292236
 20
116.98571
 30
0.0
 11
148.778229
 21
114.282234
 31
0.0
210
0.0
220
0.0
230
1.0
  0
ARC
  8
0
 62
     7
 10
137.062973
 20
108.536316
 30
0.0
 40
1.5
 50
236.442684
 51
263.034222
210
0.0
220
0.0
230
1.0
  0
CIRCLE
  8
0
 62
     7
 10
141.509583
 20
116.607216
 30
0.0
 40
0.7
210
0.0
220
0.0
230
1.0
  0
CIRCLE
  8
0
 62
     7
 10
141.46759
 20
111.41581
 30
0.0
 40
0.7
210
0.0
220
0.0
230
1.0
  0
LINE
  8
0
 62
     7
 10
140.936966
 20
206.536316
 30
0.0
 11
140.936966
 21
204.736313
 31
0.0
210
0.0
220
0.0
230
1.0
  0
ARC
  8
0
 62
     7
 10
142.136963
 20
204.736313
 30
0.0
 40
1.2
 50
221.409615
 51
318.59038
210
0.0
220
0.0
230
1.0
  0
LINE
  8
0
 62
     7
 10
66.136963
 20
206.536316
 30
0.0
 11
67.936966
 21
206.536316
 31
0.0
210
0.0
220
0.0
230
1.0
  0
LINE
  8
0
 62
     7
 10
94.936966
 20
117.186317
 30
0.0
 11
96.236969
 21
117.186317
 31
0.0
210
0.0
220
0.0
230
1.0
  0
LINE
  8
0
 62
     7
 10
96.236969
 20
118.836319
 30
0.0
 11
96.236969
 21
117.186317
 31
0.0
210
0.0
220
0.0
230
1.0
  0
LINE
  8
0
 62
     7
 10
96.236969
 20
118.836319
 30
0.0
 11
94.936966
 21
118.836319
 31
0.0
210
0.0
220
0.0
230
1.0
  0
LINE
  8
0
 62
     7
 10
94.936966
 20
117.186317
 30
0.0
 11
94.936966
 21
118.836319
 31
0.0
210
0.0
220
0.0
230
1.0
  0
LINE
  8
0
 62
     7
 10
99.436966
 20
117.186317
 30
0.0
 11
100.736969
 21
117.186317
 31
0.0
210
0.0
220
0.0
230
1.0
  0
LINE
  8
0
 62
     7
 10
100.736969
 20
118.836319
 30
0.0
 11
100.736969
 21
117.186317
 31
0.0
210
0.0
220
0.0
230
1.0
  0
LINE
  8
0
 62
     7
 10
100.736969
 20
118.836319
 30
0.0
 11
99.436966
 21
118.836319
 31
0.0
210
0.0
220
0.0
230
1.0
  0
LINE
  8
0
 62
     7
 10
99.436966
 20
117.186317
 30
0.0
 11
99.436966
 21
118.836319
 31
0.0
210
0.0
220
0.0
230
1.0
  0
LINE
  8
0
 62
     7
 10
114.236969
 20
117.186317
 30
0.0
 11
114.236969
 21
118.836319
 31
0.0
210
0.0
220
0.0
230
1.0
  0
LINE
  8
0
 62
     7
 10
112.936966
 20
118.836319
 30
0.0
 11
114.236969
 21
118.836319
 31
0.0
210
0.0
220
0.0
230
1.0
  0
LINE
  8
0
 62
     7
 10
112.936966
 20
118.836319
 30
0.0
 11
112.936966
 21
117.186317
 31
0.0
210
0.0
220
0.0
230
1.0
  0
LINE
  8
0
 62
     7
 10
114.236969
 20
117.186317
 30
0.0
 11
112.936966
 21
117.186317
 31
0.0
210
0.0
220
0.0
230
1.0
  0
LINE
  8
0
 62
     7
 10
109.736969
 20
117.186317
 30
0.0
 11
109.736969
 21
118.836319
 31
0.0
210
0.0
220
0.0
230
1.0
  0
LINE
  8
0
 62
     7
 10
108.436966
 20
118.836319
 30
0.0
 11
109.736969
 21
118.836319
 31
0.0
210
0.0
220
0.0
230
1.0
  0
LINE
  8
0
 62
     7
 10
108.436966
 20
118.836319
 30
0.0
 11
108.436966
 21
117.186317
 31
0.0
210
0.0
220
0.0
230
1.0
  0
LINE
  8
0
 62
     7
 10
109.736969
 20
117.186317
 30
0.0
 11
108.436966
 21
117.186317
 31
0.0
210
0.0
220
0.0
230
1.0
  0
LINE
  8
0
 62
     7
 10
103.936966
 20
117.186317
 30
0.0
 11
105.236969
 21
117.186317
 31
0.0
210
0.0
220
0.0
230
1.0
  0
LINE
  8
0
 62
     7
 10
105.236969
 20
118.836319
 30
0.0
 11
105.236969
 21
117.186317
 31
0.0
210
0.0
220
0.0
230
1.0
  0
LINE
  8
0
 62
     7
 10
105.236969
 20
118.836319
 30
0.0
 11
103.936966
 21
118.836319
 31
0.0
210
0.0
220
0.0
230
1.0
  0
LINE
  8
0
 62
     7
 10
103.936966
 20
117.186317
 30
0.0
 11
103.936966
 21
118.836319
 31
0.0
210
0.0
220
0.0
230
1.0
  0
LINE
  8
0
 62
     7
 10
148.586975
 20
108.536316
 30
0.0
 11
139.586975
 21
108.536316
 31
0.0
210
0.0
220
0.0
230
1.0
  0
ARC
  8
0
 62
     7
 10
59.086967
 20
113.549301
 30
0.0
 40
1.5
 50
360.0
 51
29.249998
210
0.0
220
0.0
230
1.0
  0
LINE
  8
0
 62
     7
 10
69.586967
 20
108.536316
 30
0.0
 11
60.586967
 21
108.536316
 31
0.0
210
0.0
220
0.0
230
1.0
  0
CIRCLE
  8
0
 62
     7
 10
67.706345
 20
111.41581
 30
0.0
 40
0.7
210
0.0
220
0.0
230
1.0
  0
CIRCLE
  8
0
 62
     7
 10
67.664352
 20
116.607216
 30
0.0
 40
0.7
210
0.0
220
0.0
230
1.0
  0
ARC
  8
0
 62
     7
 10
137.062973
 20
108.536316
 30
0.0
 40
1.5
 50
263.034222
 51
305.352602
210
0.0
220
0.0
230
1.0
  0
ARC
  8
0
 62
     7
 10
137.410126
 20
108.046951
 30
0.0
 40
0.9
 50
305.352602
 51
335.096053
210
0.0
220
0.0
230
1.0
  0
ARC
  8
0
 62
     7
 10
139.586975
 20
107.036316
 30
0.0
 40
1.5
 50
142.007979
 51
155.096056
210
0.0
220
0.0
230
1.0
  0
LINE
  8
0
 62
     7
 10
148.586975
 20
113.387756
 30
0.0
 11
148.586975
 21
108.536316
 31
0.0
210
0.0
220
0.0
230
1.0
  0
ARC
  8
0
 62
     7
 10
139.586975
 20
107.036316
 30
0.0
 40
1.5
 50
90.000003
 51
99.808543
210
0.0
220
0.0
230
1.0
  0
ARC
  8
0
 62
     7
 10
69.586967
 20
107.036316
 30
0.0
 40
1.5
 50
80.191455
 51
90.000003
210
0.0
220
0.0
230
1.0
  0
LINE
  8
0
 62
     7
 10
60.586967
 20
113.387756
 30
0.0
 11
60.586967
 21
108.536316
 31
0.0
210
0.0
220
0.0
230
1.0
  0
ARC
  8
0
 62
     7
 10
69.586967
 20
107.036316
 30
0.0
 40
1.5
 50
24.903947
 51
37.992026
210
0.0
220
0.0
230
1.0
  0
ARC
  8
0
 62
     7
 10
71.763802
 20
108.046951
 30
0.0
 40
0.9
 50
204.903944
 51
234.647396
210
0.0
220
0.0
230
1.0
  0
ARC
  8
0
 62
     7
 10
72.110962
 20
108.536316
 30
0.0
 40
1.5
 50
234.647396
 51
276.96578
210
0.0
220
0.0
230
1.0
  0
LINE
  8
0
 62
     7
 10
60.586967
 20
113.549301
 30
0.0
 11
60.586967
 21
113.387756
 31
0.0
210
0.0
220
0.0
230
1.0
  0
ARC
  8
0
 62
     7
 10
69.586967
 20
107.036316
 30
0.0
 40
1.5
 50
37.992026
 51
80.191455
210
0.0
220
0.0
230
1.0
  0
ARC
  8
0
 62
     7
 10
72.110962
 20
108.536316
 30
0.0
 40
1.5
 50
276.96578
 51
303.557311
210
0.0
220
0.0
230
1.0
  0
LINE
  8
0
 62
     7
 10
64.800537
 20
128.724518
 30
0.0
 11
66.464149
 21
131.035431
 31
0.0
210
0.0
220
0.0
230
1.0
  0
LINE
  8
0
 62
     7
 10
58.881695
 20
116.98571
 30
0.0
 11
60.39571
 21
114.282234
 31
0.0
210
0.0
220
0.0
230
1.0
  0
LINE
  8
0
 62
     7
 10
66.464149
 20
161.135437
 30
0.0
 11
64.800537
 21
158.824524
 31
0.0
210
0.0
220
0.0
230
1.0
  0
LINE
  8
0
 62
     7
 10
64.800537
 20
188.92453
 30
0.0
 11
66.464149
 21
191.235443
 31
0.0
210
0.0
220
0.0
230
1.0
  0
LINE
  8
0
 62
     7
 10
60.822708
 20
173.719788
 30
0.0
 11
58.881695
 21
177.185699
 31
0.0
210
0.0
220
0.0
230
1.0
  0
LINE
  8
0
 62
     7
 10
104.586967
 20
206.536316
 30
0.0
 11
140.936966
 21
206.536316
 31
0.0
210
0.0
220
0.0
230
1.0
  0
LINE
  8
0
 62
     7
 10
148.351227
 20
143.619781
 30
0.0
 11
150.292236
 21
147.085709
 31
0.0
210
0.0
220
0.0
230
1.0
  0
ARC
  8
0
 62
     7
 10
90.386971
 20
108.536316
 30
0.0
 40
1.5
 50
25.841934
 51
90.000003
210
0.0
220
0.0
230
1.0
  0
LINE
  8
0
 62
     7
 10
66.464149
 20
131.035431
 30
0.0
 11
66.696716
 21
131.35849
 31
0.0
210
0.0
220
0.0
230
1.0
  0
ARC
  8
0
 62
     7
 10
65.479355
 20
132.234863
 30
0.0
 40
1.5
 50
324.250001
 51
29.249998
210
0.0
220
0.0
230
1.0
  0
LINE
  8
0
 62
     7
 10
66.464149
 20
161.135437
 30
0.0
 11
66.696716
 21
161.458496
 31
0.0
210
0.0
220
0.0
230
1.0
  0
ARC
  8
0
 62
     7
 10
65.479355
 20
162.334869
 30
0.0
 40
1.5
 50
324.250001
 51
29.249998
210
0.0
220
0.0
230
1.0
  0
LINE
  8
0
 62
     7
 10
66.788101
 20
163.067795
 30
0.0
 11
60.822708
 21
173.719788
 31
0.0
210
0.0
220
0.0
230
1.0
  0
LINE
  8
0
 62
     7
 10
66.464149
 20
191.235443
 30
0.0
 11
66.502365
 21
191.288513
 31
0.0
210
0.0
220
0.0
230
1.0
  0
LINE
  8
0
 62
     7
 10
65.665909
 20
195.171631
 30
0.0
 11
62.586967
 21
200.669464
 31
0.0
210
0.0
220
0.0
230
1.0
  0
ARC
  8
0
 62
     7
 10
143.69458
 20
162.334869
 30
0.0
 40
1.5
 50
150.750007
 51
215.749997
210
0.0
220
0.0
230
1.0
  0
LINE
  8
0
 62
     7
 10
148.351227
 20
143.619781
 30
0.0
 11
142.385834
 21
132.967804
 31
0.0
210
0.0
220
0.0
230
1.0
  0
ARC
  8
0
 62
     7
 10
143.69458
 20
132.234863
 30
0.0
 40
1.5
 50
150.750007
 51
215.749997
210
0.0
220
0.0
230
1.0
  0
LINE
  8
0
 62
     7
 10
134.486969
 20
113.536316
 30
0.0
 11
134.486969
 21
113.528267
 31
0.0
210
0.0
220
0.0
230
1.0
  0
LINE
  8
0
 62
     7
 10
123.286972
 20
109.736313
 30
0.0
 11
123.286972
 21
107.536316
 31
0.0
210
0.0
220
0.0
230
1.0
  0
ARC
  8
0
 62
     7
 10
122.086967
 20
109.736313
 30
0.0
 40
1.2
 50
0.0
 51
180.000005
210
0.0
220
0.0
230
1.0
  0
LINE
  8
0
 62
     7
 10
120.886963
 20
107.936317
 30
0.0
 11
120.886963
 21
109.736313
 31
0.0
210
0.0
220
0.0
230
1.0
  0
LINE
  8
0
 62
     7
 10
120.886963
 20
107.936317
 30
0.0
 11
120.194145
 21
107.536316
 31
0.0
210
0.0
220
0.0
230
1.0
  0
ARC
  8
0
 62
     7
 10
81.086967
 20
108.536316
 30
0.0
 40
1.5
 50
90.000003
 51
180.000005
210
0.0
220
0.0
230
1.0
  0
LINE
  8
0
 62
     7
 10
81.086967
 20
110.036316
 30
0.0
 11
90.086967
 21
110.036316
 31
0.0
210
0.0
220
0.0
230
1.0
  0
LINE
  8
0
 62
     7
 10
90.086967
 20
110.036316
 30
0.0
 11
90.386971
 21
110.036316
 31
0.0
210
0.0
220
0.0
230
1.0
  0
CIRCLE
  8
0
 62
     7
 10
88.27697
 20
112.336319
 30
0.0
 40
0.7
210
0.0
220
0.0
230
1.0
  0
CIRCLE
  8
0
 62
     7
 10
78.436966
 20
113.936317
 30
0.0
 40
0.7
210
0.0
220
0.0
230
1.0
  0
LINE
  8
0
 62
     7
 10
73.769279
 20
107.536316
 30
0.0
 11
76.086967
 21
107.536316
 31
0.0
210
0.0
220
0.0
230
1.0
  0
LINE
  8
0
 62
     7
 10
79.586967
 20
107.536316
 30
0.0
 11
76.086967
 21
107.536316
 31
0.0
210
0.0
220
0.0
230
1.0
  0
LINE
  8
0
 62
     7
 10
79.586967
 20
107.536316
 30
0.0
 11
79.586967
 21
108.536316
 31
0.0
210
0.0
220
0.0
230
1.0
  0
LINE
  8
0
 62
     7
 10
62.586967
 20
200.886322
 30
0.0
 11
62.586967
 21
200.669464
 31
0.0
210
0.0
220
0.0
230
1.0
  0
LINE
  8
0
 62
     7
 10
146.586975
 20
200.886322
 30
0.0
 11
146.586975
 21
200.669464
 31
0.0
210
0.0
220
0.0
230
1.0
  0
ARC
  8
0
 62
     7
 10
142.136963
 20
204.736313
 30
0.0
 40
1.2
 50
180.000005
 51
221.409615
210
0.0
220
0.0
230
1.0
  0
LINE
  8
0
 62
     7
 10
104.586967
 20
206.536316
 30
0.0
 11
67.936966
 21
206.536316
 31
0.0
210
0.0
220
0.0
230
1.0
  0
LINE
  8
0
 62
     7
 10
62.586967
 20
206.536316
 30
0.0
 11
62.586967
 21
200.886322
 31
0.0
210
0.0
220
0.0
230
1.0
  0
LINE
  8
0
 62
     7
 10
62.586967
 20
206.536316
 30
0.0
 11
66.136963
 21
206.536316
 31
0.0
210
0.0
220
0.0
230
1.0
  0
ARC
  8
0
 62
     7
 10
142.136963
 20
204.736313
 30
0.0
 40
1.2
 50
318.59038
 51
0.0
210
0.0
220
0.0
230
1.0
  0
LINE
  8
0
 62
     7
 10
143.336975
 20
206.536316
 30
0.0
 11
143.336975
 21
204.736313
 31
0.0
210
0.0
220
0.0
230
1.0
  0
LINE
  8
0
 62
     7
 10
143.336975
 20
206.536316
 30
0.0
 11
146.586975
 21
206.536316
 31
0.0
210
0.0
220
0.0
230
1.0
  0
LINE
  8
0
 62
     7
 10
146.586975
 20
200.886322
 30
0.0
 11
146.586975
 21
206.536316
 31
0.0
210
0.0
220
0.0
230
1.0
  0
ENDSEC
  0
EOF
