  0
SECTION
  2
HEADER
  9
$ACADVER
  1
AC1009
  9
$DWGCODEPAGE
  3
ansi_1252
  9
$INSBASE
 10
0.0
 20
0.0
 30
0.0
  9
$EXTMIN
 10
0.0
 20
0.0
 30
0.0
  9
$EXTMAX
 10
154.301453
 20
222.417358
 30
2.0
  9
$LIMMIN
 10
0.0
 20
0.0
  9
$LIMMAX
 10
420.0
 20
297.0
  9
$ORTHOMODE
 70
     0
  9
$REGENMODE
 70
     1
  9
$FILLMODE
 70
     1
  9
$QTEXTMODE
 70
     0
  9
$MIRRTEXT
 70
     1
  9
$DRAGMODE
 70
     2
  9
$LTSCALE
 40
1.0
  9
$OSMODE
 70
     0
  9
$ATTMODE
 70
     1
  9
$TEXTSIZE
 40
2.5
  9
$TRACEWID
 40
1.0
  9
$TEXTSTYLE
  7
STANDARD
  9
$CLAYER
  8
0
  9
$CELTYPE
  6
BYLAYER
  9
$CECOLOR
 62
   256
  9
$DIMSCALE
 40
1.0
  9
$DIMASZ
 40
2.5
  9
$DIMEXO
 40
0.625
  9
$DIMDLI
 40
3.75
  9
$DIMRND
 40
0.0
  9
$DIMDLE
 40
0.0
  9
$DIMEXE
 40
1.25
  9
$DIMTP
 40
0.0
  9
$DIMTM
 40
0.0
  9
$DIMTXT
 40
2.5
  9
$DIMCEN
 40
2.5
  9
$DIMTSZ
 40
0.0
  9
$DIMTOL
 70
     0
  9
$DIMLIM
 70
     0
  9
$DIMTIH
 70
     0
  9
$DIMTOH
 70
     0
  9
$DIMSE1
 70
     0
  9
$DIMSE2
 70
     0
  9
$DIMTAD
 70
     1
  9
$DIMZIN
 70
     8
  9
$DIMBLK
  1

  9
$DIMASO
 70
     1
  9
$DIMSHO
 70
     1
  9
$DIMPOST
  1

  9
$DIMAPOST
  1

  9
$DIMALT
 70
     0
  9
$DIMALTD
 70
     3
  9
$DIMALTF
 40
0.03937
  9
$DIMLFAC
 40
1.0
  9
$DIMTOFL
 70
     1
  9
$DIMTVP
 40
0.0
  9
$DIMTIX
 70
     0
  9
$DIMSOXD
 70
     0
  9
$DIMSAH
 70
     0
  9
$DIMBLK1
  1

  9
$DIMBLK2
  1

  9
$DIMSTYLE
  2

  9
$DIMCLRD
 70
     0
  9
$DIMCLRE
 70
     0
  9
$DIMCLRT
 70
     0
  9
$DIMTFAC
 40
1.0
  9
$DIMGAP
 40
0.625
  9
$LUNITS
 70
     2
  9
$LUPREC
 70
     4
  9
$AXISMODE
 70
     0
  9
$AXISUNIT
 10
0.0
 20
0.0
  9
$SKETCHINC
 40
1.0
  9
$FILLETRAD
 40
2.5
  9
$AUNITS
 70
     0
  9
$AUPREC
 70
     0
  9
$MENU
  1
.
  9
$ELEVATION
 40
0.0
  9
$PELEVATION
 40
0.0
  9
$THICKNESS
 40
0.0
  9
$LIMCHECK
 70
     0
  9
$BLIPMODE
 70
     1
  9
$CHAMFERA
 40
2.5
  9
$CHAMFERB
 40
2.5
  9
$SKPOLY
 70
     0
  9
$TDCREATE
 40
0.000000000
  9
$TDUPDATE
 40
0.000000000
  9
$TDINDWG
 40
0.0000000000
  9
$TDUSRTIMER
 40
0.0000000000
  9
$USRTIMER
 70
     1
  9
$ANGBASE
 50
0.0
  9
$ANGDIR
 70
     0
  9
$PDMODE
 70
     0
  9
$PDSIZE
 40
0.0
  9
$PLINEWID
 40
0.0
  9
$COORDS
 70
     0
  9
$SPLFRAME
 70
     0
  9
$SPLINETYPE
 70
     6
  9
$SPLINESEGS
 70
     8
  9
$ATTDIA
 70
     0
  9
$ATTREQ
 70
     1
  9
$HANDLING
 70
     0
  9
$HANDSEED
  5
3
  9
$SURFTAB1
 70
     6
  9
$SURFTAB2
 70
     6
  9
$SURFTYPE
 70
     6
  9
$SURFU
 70
     6
  9
$SURFV
 70
     6
  9
$UCSNAME
  2

  9
$UCSORG
 10
0.0
 20
0.0
 30
0.0
  9
$UCSXDIR
 10
1.0
 20
0.0
 30
0.0
  9
$UCSYDIR
 10
0.0
 20
1.0
 30
0.0
  9
$PUCSNAME
  2

  9
$PUCSORG
 10
0.0
 20
0.0
 30
0.0
  9
$PUCSXDIR
 10
1.0
 20
0.0
 30
0.0
  9
$PUCSYDIR
 10
0.0
 20
1.0
 30
0.0
  9
$USERI1
 70
     0
  9
$USERI2
 70
     0
  9
$USERI3
 70
     0
  9
$USERI4
 70
     0
  9
$USERI5
 70
     0
  9
$USERR1
 40
0.0
  9
$USERR2
 40
0.0
  9
$USERR3
 40
0.0
  9
$USERR4
 40
0.0
  9
$USERR5
 40
0.0
  9
$WORLDVIEW
 70
     1
  9
$SHADEDGE
 70
     3
  9
$SHADEDIF
 70
    70
  9
$TILEMODE
 70
     1
  9
$MAXACTVP
 70
    48
  9
$PINSBASE
 10
0.0
 20
0.0
 30
0.0
  9
$PLIMCHECK
 70
     0
  9
$PEXTMIN
 10
0.0
 20
0.0
 30
0.0
  9
$PEXTMAX
 10
154.301453
 20
222.417358
 30
2.0
  9
$PLIMMIN
 10
0.0
 20
0.0
  9
$PLIMMAX
 10
420.0
 20
297.0
  9
$UNITMODE
 70
     0
  9
$VISRETAIN
 70
     0
  9
$PLINEGEN
 70
     0
  9
$PSLTSCALE
 70
     1
  9
$TREEDEPTH
 70
  3020
  0
ENDSEC
  0
SECTION
  2
TABLES
  0
TABLE
  2
VPORT
 70
     1
  0
VPORT
  2
*ACTIVE
 70
     0
 10
0.0
 20
0.0
 11
1.0
 21
1.0
 12
6.591288
 22
4.579184
 13
0.0
 23
0.0
 14
1.0
 24
1.0
 15
0.0
 25
0.0
 16
0.0
 26
0.0
 36
1.0
 17
0.0
 27
0.0
 37
0.0
 40
9.158369
 41
0.688564
 42
50.0
 43
0.0
 44
0.0
 50
0.0
 51
0.0
 71
     0
 72
   100
 73
     1
 74
     1
 75
     0
 76
     0
 77
     0
 78
     0
  0
ENDTAB
  0
TABLE
  2
LTYPE
 70
     2
  0
LTYPE
  2
CONTINUOUS
 70
    64
  3
Solid line
 72
    65
 73
     0
 40
0.0
  0
LTYPE
  2
DASHDOT
 70
     0
  3
 __ . __ . __ . __ . __ . __ . __ . 
 72
    65
 73
     4
 40
18.5
 49
12.0
 49
-3.0
 49
0.5
 49
-3.0
  0
ENDTAB
  0
TABLE
  2
LAYER
 70
     1
  0
LAYER
  2
0
 70
     0
 62
     7
  6
CONTINUOUS
  0
ENDTAB
  0
TABLE
  2
STYLE
 70
     1
  0
STYLE
  2
STANDARD
 70
     0
 40
0.0
 41
1.0
 50
0.0
 71
     0
 42
0.0
  3
txt
  4

  0
ENDTAB
  0
TABLE
  2
VIEW
 70
     0
  0
ENDTAB
  0
TABLE
  2
UCS
 70
     0
  0
ENDTAB
  0
TABLE
  2
APPID
 70
     1
  0
APPID
  2
ACAD
 70
     0
  0
ENDTAB
  0
TABLE
  2
DIMSTYLE
 70
     1
  0
DIMSTYLE
  2
STANDARD
 70
     0
  3

  4

  5

  6

  7

 40
1.0
 41
0.18
 42
0.0625
 43
0.38
 44
0.18
 45
0.0
 46
0.0
 47
0.0
 48
0.0
 71
     0
 72
     0
 73
     1
 74
     1
 75
     0
 76
     0
 77
     0
 78
     0
140
0.18
141
0.09
142
0.0
143
25.4
144
1.0
145
0.0
146
1.0
147
0.09
170
     0
171
     2
172
     0
173
     0
174
     0
175
     0
176
     0
177
     0
178
     0
  0
ENDTAB
  0
ENDSEC
  0
SECTION
  2
BLOCKS
  0
ENDSEC
  0
SECTION
  2
ENTITIES
  0
VIEWPORT
  8
0
 62
     0
 67
     1
 68
     1
 10
0.0
 20
0.0
 30
0.0
 40
1000.0
 41
1000.0
 69
     1
1001
ACAD
1000
MVIEW
1002
{
1070
    16
1010
0.0
1020
0.0
1030
0.0
1010
0.0
1020
0.0
1030
1.0
1040
0.0
1040
1000.0
1040
0.0
1040
0.0
1040
50.0
1040
0.0
1040
0.0
1070
     0
1070
   100
1070
     1
1070
     1
1070
     0
1070
     0
1070
     0
1070
     0
1040
0.0
1040
0.0
1040
0.0
1040
1.0
1040
1.0
1040
1.0
1040
1.0
1070
     0
1002
{
1002
}
1002
}
  0
LINE
  8
0
  6
DASHDOT
 62
     7
 10
127.656174
 20
111.948357
 30
0.0
 11
124.536179
 21
111.948357
 31
0.0
210
0.0
220
0.0
230
1.0
  0
LINE
  8
0
  6
DASHDOT
 62
     7
 10
126.096176
 20
113.508362
 30
0.0
 11
126.096176
 21
110.388359
 31
0.0
210
0.0
220
0.0
230
1.0
  0
LINE
  8
0
  6
DASHDOT
 62
     7
 10
116.25618
 20
112.198357
 30
0.0
 11
114.436172
 21
112.198357
 31
0.0
210
0.0
220
0.0
230
1.0
  0
LINE
  8
0
  6
DASHDOT
 62
     7
 10
115.346176
 20
113.10836
 30
0.0
 11
115.346176
 21
111.288361
 31
0.0
210
0.0
220
0.0
230
1.0
  0
LINE
  8
0
  6
DASHDOT
 62
     7
 10
103.016174
 20
120.35836
 30
0.0
 11
100.676178
 21
120.35836
 31
0.0
210
0.0
220
0.0
230
1.0
  0
LINE
  8
0
  6
DASHDOT
 62
     7
 10
101.846176
 20
121.528358
 30
0.0
 11
101.846176
 21
119.188362
 31
0.0
210
0.0
220
0.0
230
1.0
  0
LINE
  8
0
  6
DASHDOT
 62
     7
 10
120.606178
 20
112.198357
 30
0.0
 11
118.786179
 21
112.198357
 31
0.0
210
0.0
220
0.0
230
1.0
  0
LINE
  8
0
  6
DASHDOT
 62
     7
 10
119.696175
 20
113.10836
 30
0.0
 11
119.696175
 21
111.288361
 31
0.0
210
0.0
220
0.0
230
1.0
  0
LINE
  8
0
  6
DASHDOT
 62
     7
 10
102.75618
 20
112.198357
 30
0.0
 11
100.936172
 21
112.198357
 31
0.0
210
0.0
220
0.0
230
1.0
  0
LINE
  8
0
  6
DASHDOT
 62
     7
 10
101.846176
 20
113.10836
 30
0.0
 11
101.846176
 21
111.288361
 31
0.0
210
0.0
220
0.0
230
1.0
  0
LINE
  8
0
  6
DASHDOT
 62
     7
 10
98.406174
 20
112.198357
 30
0.0
 11
96.586174
 21
112.198357
 31
0.0
210
0.0
220
0.0
230
1.0
  0
LINE
  8
0
  6
DASHDOT
 62
     7
 10
97.496178
 20
113.10836
 30
0.0
 11
97.496178
 21
111.288361
 31
0.0
210
0.0
220
0.0
230
1.0
  0
LINE
  8
0
  6
DASHDOT
 62
     7
 10
116.516174
 20
120.35836
 30
0.0
 11
114.176178
 21
120.35836
 31
0.0
210
0.0
220
0.0
230
1.0
  0
LINE
  8
0
  6
DASHDOT
 62
     7
 10
115.346176
 20
121.528358
 30
0.0
 11
115.346176
 21
119.188362
 31
0.0
210
0.0
220
0.0
230
1.0
  0
LINE
  8
0
  6
DASHDOT
 62
     7
 10
67.119926
 20
118.85405
 30
0.0
 11
65.299927
 21
118.85405
 31
0.0
210
0.0
220
0.0
230
1.0
  0
LINE
  8
0
  6
DASHDOT
 62
     7
 10
66.20993
 20
119.764053
 30
0.0
 11
66.20993
 21
117.944046
 31
0.0
210
0.0
220
0.0
230
1.0
  0
LINE
  8
0
  6
DASHDOT
 62
     7
 10
151.892426
 20
118.85405
 30
0.0
 11
150.072418
 21
118.85405
 31
0.0
210
0.0
220
0.0
230
1.0
  0
LINE
  8
0
  6
DASHDOT
 62
     7
 10
150.982422
 20
119.764053
 30
0.0
 11
150.982422
 21
117.944046
 31
0.0
210
0.0
220
0.0
230
1.0
  0
LINE
  8
0
  6
DASHDOT
 62
     7
 10
147.706177
 20
206.948364
 30
0.0
 11
144.586182
 21
206.948364
 31
0.0
210
0.0
220
0.0
230
1.0
  0
LINE
  8
0
  6
DASHDOT
 62
     7
 10
146.146179
 20
208.508362
 30
0.0
 11
146.146179
 21
205.388367
 31
0.0
210
0.0
220
0.0
230
1.0
  0
LINE
  8
0
  6
DASHDOT
 62
     7
 10
93.196175
 20
114.548363
 30
0.0
 11
91.376175
 21
114.548363
 31
0.0
210
0.0
220
0.0
230
1.0
  0
LINE
  8
0
  6
DASHDOT
 62
     7
 10
92.286179
 20
115.458359
 30
0.0
 11
92.286179
 21
113.638359
 31
0.0
210
0.0
220
0.0
230
1.0
  0
LINE
  8
0
  6
DASHDOT
 62
     7
 10
83.356178
 20
116.148361
 30
0.0
 11
81.536179
 21
116.148361
 31
0.0
210
0.0
220
0.0
230
1.0
  0
LINE
  8
0
  6
DASHDOT
 62
     7
 10
82.446175
 20
117.058357
 30
0.0
 11
82.446175
 21
115.238358
 31
0.0
210
0.0
220
0.0
230
1.0
  0
LINE
  8
0
  6
DASHDOT
 62
     7
 10
146.38681
 20
173.82785
 30
0.0
 11
144.566803
 21
173.82785
 31
0.0
210
0.0
220
0.0
230
1.0
  0
LINE
  8
0
  6
DASHDOT
 62
     7
 10
145.476807
 20
174.737854
 30
0.0
 11
145.476807
 21
172.917847
 31
0.0
210
0.0
220
0.0
230
1.0
  0
LINE
  8
0
  6
DASHDOT
 62
     7
 10
77.030014
 20
110.879547
 30
0.0
 11
75.210014
 21
110.879547
 31
0.0
210
0.0
220
0.0
230
1.0
  0
LINE
  8
0
  6
DASHDOT
 62
     7
 10
76.12001
 20
111.789551
 30
0.0
 11
76.12001
 21
109.969543
 31
0.0
210
0.0
220
0.0
230
1.0
  0
LINE
  8
0
  6
DASHDOT
 62
     7
 10
141.98233
 20
110.879547
 30
0.0
 11
140.162338
 21
110.879547
 31
0.0
210
0.0
220
0.0
230
1.0
  0
LINE
  8
0
  6
DASHDOT
 62
     7
 10
141.072342
 20
111.789551
 30
0.0
 11
141.072342
 21
109.969543
 31
0.0
210
0.0
220
0.0
230
1.0
  0
LINE
  8
0
  6
DASHDOT
 62
     7
 10
67.119926
 20
148.954041
 30
0.0
 11
65.299927
 21
148.954041
 31
0.0
210
0.0
220
0.0
230
1.0
  0
LINE
  8
0
  6
DASHDOT
 62
     7
 10
66.20993
 20
149.864044
 30
0.0
 11
66.20993
 21
148.044052
 31
0.0
210
0.0
220
0.0
230
1.0
  0
LINE
  8
0
  6
DASHDOT
 62
     7
 10
146.428787
 20
148.919266
 30
0.0
 11
144.608795
 21
148.919266
 31
0.0
210
0.0
220
0.0
230
1.0
  0
LINE
  8
0
  6
DASHDOT
 62
     7
 10
145.518799
 20
149.829254
 30
0.0
 11
145.518799
 21
148.009262
 31
0.0
210
0.0
220
0.0
230
1.0
  0
LINE
  8
0
  6
DASHDOT
 62
     7
 10
151.892426
 20
148.954041
 30
0.0
 11
150.072418
 21
148.954041
 31
0.0
210
0.0
220
0.0
230
1.0
  0
LINE
  8
0
  6
DASHDOT
 62
     7
 10
150.982422
 20
149.864044
 30
0.0
 11
150.982422
 21
148.044052
 31
0.0
210
0.0
220
0.0
230
1.0
  0
LINE
  8
0
  6
DASHDOT
 62
     7
 10
141.98233
 20
140.979553
 30
0.0
 11
140.162338
 21
140.979553
 31
0.0
210
0.0
220
0.0
230
1.0
  0
LINE
  8
0
  6
DASHDOT
 62
     7
 10
141.072342
 20
141.889542
 30
0.0
 11
141.072342
 21
140.06955
 31
0.0
210
0.0
220
0.0
230
1.0
  0
LINE
  8
0
  6
DASHDOT
 62
     7
 10
72.583557
 20
148.919266
 30
0.0
 11
70.763565
 21
148.919266
 31
0.0
210
0.0
220
0.0
230
1.0
  0
LINE
  8
0
  6
DASHDOT
 62
     7
 10
71.673561
 20
149.829254
 30
0.0
 11
71.673561
 21
148.009262
 31
0.0
210
0.0
220
0.0
230
1.0
  0
LINE
  8
0
  6
DASHDOT
 62
     7
 10
77.030014
 20
140.979553
 30
0.0
 11
75.210014
 21
140.979553
 31
0.0
210
0.0
220
0.0
230
1.0
  0
LINE
  8
0
  6
DASHDOT
 62
     7
 10
76.12001
 20
141.889542
 30
0.0
 11
76.12001
 21
140.06955
 31
0.0
210
0.0
220
0.0
230
1.0
  0
LINE
  8
0
  6
DASHDOT
 62
     7
 10
72.625549
 20
143.727844
 30
0.0
 11
70.80555
 21
143.727844
 31
0.0
210
0.0
220
0.0
230
1.0
  0
LINE
  8
0
  6
DASHDOT
 62
     7
 10
71.715546
 20
144.637848
 30
0.0
 11
71.715546
 21
142.817856
 31
0.0
210
0.0
220
0.0
230
1.0
  0
LINE
  8
0
  6
DASHDOT
 62
     7
 10
146.38681
 20
143.727844
 30
0.0
 11
144.566803
 21
143.727844
 31
0.0
210
0.0
220
0.0
230
1.0
  0
LINE
  8
0
  6
DASHDOT
 62
     7
 10
145.476807
 20
144.637848
 30
0.0
 11
145.476807
 21
142.817856
 31
0.0
210
0.0
220
0.0
230
1.0
  0
LINE
  8
0
  6
DASHDOT
 62
     7
 10
146.428787
 20
179.019257
 30
0.0
 11
144.608795
 21
179.019257
 31
0.0
210
0.0
220
0.0
230
1.0
  0
LINE
  8
0
  6
DASHDOT
 62
     7
 10
145.518799
 20
179.92926
 30
0.0
 11
145.518799
 21
178.109253
 31
0.0
210
0.0
220
0.0
230
1.0
  0
LINE
  8
0
  6
DASHDOT
 62
     7
 10
151.892426
 20
179.054047
 30
0.0
 11
150.072418
 21
179.054047
 31
0.0
210
0.0
220
0.0
230
1.0
  0
LINE
  8
0
  6
DASHDOT
 62
     7
 10
150.982422
 20
179.96405
 30
0.0
 11
150.982422
 21
178.144043
 31
0.0
210
0.0
220
0.0
230
1.0
  0
LINE
  8
0
  6
DASHDOT
 62
     7
 10
141.98233
 20
171.079544
 30
0.0
 11
140.162338
 21
171.079544
 31
0.0
210
0.0
220
0.0
230
1.0
  0
LINE
  8
0
  6
DASHDOT
 62
     7
 10
141.072342
 20
171.989548
 30
0.0
 11
141.072342
 21
170.169556
 31
0.0
210
0.0
220
0.0
230
1.0
  0
LINE
  8
0
  6
DASHDOT
 62
     7
 10
72.583557
 20
118.81926
 30
0.0
 11
70.763565
 21
118.81926
 31
0.0
210
0.0
220
0.0
230
1.0
  0
LINE
  8
0
  6
DASHDOT
 62
     7
 10
71.673561
 20
119.729263
 30
0.0
 11
71.673561
 21
117.909264
 31
0.0
210
0.0
220
0.0
230
1.0
  0
LINE
  8
0
  6
DASHDOT
 62
     7
 10
72.625549
 20
113.627853
 30
0.0
 11
70.80555
 21
113.627853
 31
0.0
210
0.0
220
0.0
230
1.0
  0
LINE
  8
0
  6
DASHDOT
 62
     7
 10
71.715546
 20
114.537849
 30
0.0
 11
71.715546
 21
112.71785
 31
0.0
210
0.0
220
0.0
230
1.0
  0
LINE
  8
0
  6
DASHDOT
 62
     7
 10
146.428787
 20
118.81926
 30
0.0
 11
144.608795
 21
118.81926
 31
0.0
210
0.0
220
0.0
230
1.0
  0
LINE
  8
0
  6
DASHDOT
 62
     7
 10
145.518799
 20
119.729263
 30
0.0
 11
145.518799
 21
117.909264
 31
0.0
210
0.0
220
0.0
230
1.0
  0
LINE
  8
0
  6
DASHDOT
 62
     7
 10
146.38681
 20
113.627853
 30
0.0
 11
144.566803
 21
113.627853
 31
0.0
210
0.0
220
0.0
230
1.0
  0
LINE
  8
0
  6
DASHDOT
 62
     7
 10
145.476807
 20
114.537849
 30
0.0
 11
145.476807
 21
112.71785
 31
0.0
210
0.0
220
0.0
230
1.0
  0
LINE
  8
0
  6
DASHDOT
 62
     7
 10
76.733978
 20
181.860992
 30
0.0
 11
75.576981
 21
181.860992
 31
0.0
210
0.0
220
0.0
230
1.0
  0
LINE
  8
0
  6
DASHDOT
 62
     7
 10
76.155479
 20
182.439499
 30
0.0
 11
76.155479
 21
181.282501
 31
0.0
210
0.0
220
0.0
230
1.0
  0
LINE
  8
0
  6
DASHDOT
 62
     7
 10
72.770844
 20
185.570465
 30
0.0
 11
68.61084
 21
185.570465
 31
0.0
210
0.0
220
0.0
230
1.0
  0
LINE
  8
0
  6
DASHDOT
 62
     7
 10
70.690842
 20
187.650482
 30
0.0
 11
70.690842
 21
183.490479
 31
0.0
210
0.0
220
0.0
230
1.0
  0
LINE
  8
0
  6
DASHDOT
 62
     7
 10
81.036926
 20
188.747147
 30
0.0
 11
79.879929
 21
188.747147
 31
0.0
210
0.0
220
0.0
230
1.0
  0
LINE
  8
0
  6
DASHDOT
 62
     7
 10
80.45842
 20
189.325653
 30
0.0
 11
80.45842
 21
188.16864
 31
0.0
210
0.0
220
0.0
230
1.0
  0
LINE
  8
0
  6
DASHDOT
 62
     7
 10
77.884567
 20
193.75415
 30
0.0
 11
73.724564
 21
193.75415
 31
0.0
210
0.0
220
0.0
230
1.0
  0
LINE
  8
0
  6
DASHDOT
 62
     7
 10
75.804565
 20
195.834137
 30
0.0
 11
75.804565
 21
191.674133
 31
0.0
210
0.0
220
0.0
230
1.0
  0
LINE
  8
0
  6
DASHDOT
 62
     7
 10
82.112656
 20
190.468689
 30
0.0
 11
80.955658
 21
190.468689
 31
0.0
210
0.0
220
0.0
230
1.0
  0
LINE
  8
0
  6
DASHDOT
 62
     7
 10
81.534164
 20
191.04718
 30
0.0
 11
81.534164
 21
189.890182
 31
0.0
210
0.0
220
0.0
230
1.0
  0
LINE
  8
0
  6
DASHDOT
 62
     7
 10
70.519043
 20
200.75061
 30
0.0
 11
68.86805
 21
200.75061
 31
0.0
210
0.0
220
0.0
230
1.0
  0
LINE
  8
0
  6
DASHDOT
 62
     7
 10
69.693542
 20
201.576111
 30
0.0
 11
69.693542
 21
199.92511
 31
0.0
210
0.0
220
0.0
230
1.0
  0
LINE
  8
0
  6
DASHDOT
 62
     7
 10
78.926193
 20
197.116653
 30
0.0
 11
76.885193
 21
197.116653
 31
0.0
210
0.0
220
0.0
230
1.0
  0
LINE
  8
0
  6
DASHDOT
 62
     7
 10
77.905693
 20
198.137146
 30
0.0
 11
77.905693
 21
196.096161
 31
0.0
210
0.0
220
0.0
230
1.0
  0
LINE
  8
0
  6
DASHDOT
 62
     7
 10
74.827133
 20
198.058624
 30
0.0
 11
73.176132
 21
198.058624
 31
0.0
210
0.0
220
0.0
230
1.0
  0
LINE
  8
0
  6
DASHDOT
 62
     7
 10
74.001633
 20
198.884125
 30
0.0
 11
74.001633
 21
197.233124
 31
0.0
210
0.0
220
0.0
230
1.0
  0
LINE
  8
0
  6
DASHDOT
 62
     7
 10
62.549061
 20
187.995972
 30
0.0
 11
60.898064
 21
187.995972
 31
0.0
210
0.0
220
0.0
230
1.0
  0
LINE
  8
0
  6
DASHDOT
 62
     7
 10
61.72356
 20
188.821472
 30
0.0
 11
61.72356
 21
187.170471
 31
0.0
210
0.0
220
0.0
230
1.0
  0
LINE
  8
0
  6
DASHDOT
 62
     7
 10
64.70311
 20
186.649963
 30
0.0
 11
63.052105
 21
186.649963
 31
0.0
210
0.0
220
0.0
230
1.0
  0
LINE
  8
0
  6
DASHDOT
 62
     7
 10
63.877605
 20
187.475464
 30
0.0
 11
63.877605
 21
185.824463
 31
0.0
210
0.0
220
0.0
230
1.0
  0
LINE
  8
0
  6
DASHDOT
 62
     7
 10
78.347504
 20
179.649994
 30
0.0
 11
77.190506
 21
179.649994
 31
0.0
210
0.0
220
0.0
230
1.0
  0
LINE
  8
0
  6
DASHDOT
 62
     7
 10
77.769005
 20
180.228485
 30
0.0
 11
77.769005
 21
179.071503
 31
0.0
210
0.0
220
0.0
230
1.0
  0
LINE
  8
0
  6
DASHDOT
 62
     7
 10
79.961189
 20
187.025604
 30
0.0
 11
78.804184
 21
187.025604
 31
0.0
210
0.0
220
0.0
230
1.0
  0
LINE
  8
0
  6
DASHDOT
 62
     7
 10
79.38269
 20
187.604111
 30
0.0
 11
79.38269
 21
186.447113
 31
0.0
210
0.0
220
0.0
230
1.0
  0
LINE
  8
0
  6
DASHDOT
 62
     7
 10
83.731483
 20
188.266159
 30
0.0
 11
82.574486
 21
188.266159
 31
0.0
210
0.0
220
0.0
230
1.0
  0
LINE
  8
0
  6
DASHDOT
 62
     7
 10
83.152985
 20
188.844666
 30
0.0
 11
83.152985
 21
187.687653
 31
0.0
210
0.0
220
0.0
230
1.0
  0
LINE
  8
0
  6
DASHDOT
 62
     7
 10
78.885452
 20
185.304077
 30
0.0
 11
77.728455
 21
185.304077
 31
0.0
210
0.0
220
0.0
230
1.0
  0
LINE
  8
0
  6
DASHDOT
 62
     7
 10
78.306953
 20
185.882568
 30
0.0
 11
78.306953
 21
184.725571
 31
0.0
210
0.0
220
0.0
230
1.0
  0
LINE
  8
0
  6
DASHDOT
 62
     7
 10
69.610214
 20
182.207962
 30
0.0
 11
67.569214
 21
182.207962
 31
0.0
210
0.0
220
0.0
230
1.0
  0
LINE
  8
0
  6
DASHDOT
 62
     7
 10
68.589714
 20
183.228455
 30
0.0
 11
68.589714
 21
181.187469
 31
0.0
210
0.0
220
0.0
230
1.0
  0
LINE
  8
0
  6
DASHDOT
 62
     7
 10
80.498978
 20
183.093079
 30
0.0
 11
79.34198
 21
183.093079
 31
0.0
210
0.0
220
0.0
230
1.0
  0
LINE
  8
0
  6
DASHDOT
 62
     7
 10
79.920479
 20
183.67157
 30
0.0
 11
79.920479
 21
182.514557
 31
0.0
210
0.0
220
0.0
230
1.0
  0
LINE
  8
0
  6
DASHDOT
 62
     7
 10
82.655746
 20
186.544617
 30
0.0
 11
81.498749
 21
186.544617
 31
0.0
210
0.0
220
0.0
230
1.0
  0
LINE
  8
0
  6
DASHDOT
 62
     7
 10
82.077248
 20
187.123123
 30
0.0
 11
82.077248
 21
185.966125
 31
0.0
210
0.0
220
0.0
230
1.0
  0
LINE
  8
0
  6
DASHDOT
 62
     7
 10
77.809715
 20
183.582535
 30
0.0
 11
76.652718
 21
183.582535
 31
0.0
210
0.0
220
0.0
230
1.0
  0
LINE
  8
0
  6
DASHDOT
 62
     7
 10
77.231216
 20
184.161041
 30
0.0
 11
77.231216
 21
183.004028
 31
0.0
210
0.0
220
0.0
230
1.0
  0
LINE
  8
0
  6
DASHDOT
 62
     7
 10
84.80722
 20
189.987701
 30
0.0
 11
83.650223
 21
189.987701
 31
0.0
210
0.0
220
0.0
230
1.0
  0
LINE
  8
0
  6
DASHDOT
 62
     7
 10
84.228722
 20
190.566193
 30
0.0
 11
84.228722
 21
189.409195
 31
0.0
210
0.0
220
0.0
230
1.0
  0
LINE
  8
0
  6
DASHDOT
 62
     7
 10
79.423241
 20
181.371521
 30
0.0
 11
78.266243
 21
181.371521
 31
0.0
210
0.0
220
0.0
230
1.0
  0
LINE
  8
0
  6
DASHDOT
 62
     7
 10
78.844742
 20
181.950027
 30
0.0
 11
78.844742
 21
180.79303
 31
0.0
210
0.0
220
0.0
230
1.0
  0
LINE
  8
0
  6
DASHDOT
 62
     7
 10
72.673096
 20
199.404617
 30
0.0
 11
71.022095
 21
199.404617
 31
0.0
210
0.0
220
0.0
230
1.0
  0
LINE
  8
0
  6
DASHDOT
 62
     7
 10
71.847595
 20
200.230118
 30
0.0
 11
71.847595
 21
198.579117
 31
0.0
210
0.0
220
0.0
230
1.0
  0
POLYLINE
  8
0
 62
     7
 66
     1
 10
0.0
 20
0.0
 30
0.0
 70
     1
 71
    12
  0
VERTEX
  8
0
 10
62.270203
 20
219.068939
 30
0.0
  0
VERTEX
  8
0
 10
62.491692
 20
219.068939
 30
0.0
  0
VERTEX
  8
0
 10
62.491692
 20
220.240707
 30
0.0
  0
VERTEX
  8
0
 10
63.334702
 20
220.240707
 30
0.0
  0
VERTEX
  8
0
 10
63.334702
 20
219.068939
 30
0.0
  0
VERTEX
  8
0
 10
63.55619
 20
219.068939
 30
0.0
  0
VERTEX
  8
0
 10
63.55619
 20
221.568939
 30
0.0
  0
VERTEX
  8
0
 10
63.334702
 20
221.568939
 30
0.0
  0
VERTEX
  8
0
 10
63.334702
 20
220.543213
 30
0.0
  0
VERTEX
  8
0
 10
62.491692
 20
220.543213
 30
0.0
  0
VERTEX
  8
0
 10
62.491692
 20
221.568939
 30
0.0
  0
VERTEX
  8
0
 10
62.270203
 20
221.568939
 30
0.0
  0
SEQEND
  8
0
  0
POLYLINE
  8
0
 62
     7
 66
     1
 10
0.0
 20
0.0
 30
0.0
 70
     1
 71
    32
  0
VERTEX
  8
0
 10
64.334183
 20
220.3172
 30
0.0
  0
VERTEX
  8
0
 10
64.345482
 20
220.018173
 30
0.0
  0
VERTEX
  8
0
 10
64.386162
 20
219.757401
 30
0.0
  0
VERTEX
  8
0
 10
64.451706
 20
219.531387
 30
0.0
  0
VERTEX
  8
0
 10
64.539848
 20
219.343628
 30
0.0
  0
VERTEX
  8
0
 10
64.650589
 20
219.194107
 30
0.0
  0
VERTEX
  8
0
 10
64.781677
 20
219.086319
 30
0.0
  0
VERTEX
  8
0
 10
64.933105
 20
219.023743
 30
0.0
  0
VERTEX
  8
0
 10
65.104866
 20
218.999405
 30
0.0
  0
VERTEX
  8
0
 10
65.274376
 20
219.023743
 30
0.0
  0
VERTEX
  8
0
 10
65.425804
 20
219.086319
 30
0.0
  0
VERTEX
  8
0
 10
65.556885
 20
219.194107
 30
0.0
  0
VERTEX
  8
0
 10
65.667633
 20
219.343628
 30
0.0
  0
VERTEX
  8
0
 10
65.755775
 20
219.531387
 30
0.0
  0
VERTEX
  8
0
 10
65.819054
 20
219.757401
 30
0.0
  0
VERTEX
  8
0
 10
65.857475
 20
220.018173
 30
0.0
  0
VERTEX
  8
0
 10
65.873299
 20
220.3172
 30
0.0
  0
VERTEX
  8
0
 10
65.859734
 20
220.612747
 30
0.0
  0
VERTEX
  8
0
 10
65.819054
 20
220.873535
 30
0.0
  0
VERTEX
  8
0
 10
65.75351
 20
221.099533
 30
0.0
  0
VERTEX
  8
0
 10
65.667633
 20
221.287292
 30
0.0
  0
VERTEX
  8
0
 10
65.556885
 20
221.436813
 30
0.0
  0
VERTEX
  8
0
 10
65.425804
 20
221.544601
 30
0.0
  0
VERTEX
  8
0
 10
65.274376
 20
221.610657
 30
0.0
  0
VERTEX
  8
0
 10
65.104866
 20
221.63501
 30
0.0
  0
VERTEX
  8
0
 10
64.933105
 20
221.610657
 30
0.0
  0
VERTEX
  8
0
 10
64.781677
 20
221.544601
 30
0.0
  0
VERTEX
  8
0
 10
64.650589
 20
221.436813
 30
0.0
  0
VERTEX
  8
0
 10
64.539848
 20
221.287292
 30
0.0
  0
VERTEX
  8
0
 10
64.451706
 20
221.099533
 30
0.0
  0
VERTEX
  8
0
 10
64.386162
 20
220.873535
 30
0.0
  0
VERTEX
  8
0
 10
64.345482
 20
220.612747
 30
0.0
  0
SEQEND
  8
0
  0
POLYLINE
  8
0
 62
     7
 66
     1
 10
0.0
 20
0.0
 30
0.0
 70
     1
 71
    16
  0
VERTEX
  8
0
 10
64.562447
 20
220.3172
 30
0.0
  0
VERTEX
  8
0
 10
64.59861
 20
220.748352
 30
0.0
  0
VERTEX
  8
0
 10
64.707092
 20
221.071716
 30
0.0
  0
VERTEX
  8
0
 10
64.87886
 20
221.269913
 30
0.0
  0
VERTEX
  8
0
 10
65.104866
 20
221.339447
 30
0.0
  0
VERTEX
  8
0
 10
65.328613
 20
221.269913
 30
0.0
  0
VERTEX
  8
0
 10
65.500381
 20
221.071716
 30
0.0
  0
VERTEX
  8
0
 10
65.606606
 20
220.748352
 30
0.0
  0
VERTEX
  8
0
 10
65.645027
 20
220.3172
 30
0.0
  0
VERTEX
  8
0
 10
65.606606
 20
219.882568
 30
0.0
  0
VERTEX
  8
0
 10
65.500381
 20
219.559204
 30
0.0
  0
VERTEX
  8
0
 10
65.328613
 20
219.361008
 30
0.0
  0
VERTEX
  8
0
 10
65.104866
 20
219.294952
 30
0.0
  0
VERTEX
  8
0
 10
64.87886
 20
219.361008
 30
0.0
  0
VERTEX
  8
0
 10
64.707092
 20
219.559204
 30
0.0
  0
VERTEX
  8
0
 10
64.59861
 20
219.882568
 30
0.0
  0
SEQEND
  8
0
  0
POLYLINE
  8
0
 62
     7
 66
     1
 10
0.0
 20
0.0
 30
0.0
 70
     1
 71
     6
  0
VERTEX
  8
0
 10
66.651291
 20
219.068939
 30
0.0
  0
VERTEX
  8
0
 10
67.684143
 20
219.068939
 30
0.0
  0
VERTEX
  8
0
 10
67.684143
 20
219.385345
 30
0.0
  0
VERTEX
  8
0
 10
66.875038
 20
219.385345
 30
0.0
  0
VERTEX
  8
0
 10
66.875038
 20
221.568939
 30
0.0
  0
VERTEX
  8
0
 10
66.651291
 20
221.568939
 30
0.0
  0
SEQEND
  8
0
  0
POLYLINE
  8
0
 62
     7
 66
     1
 10
0.0
 20
0.0
 30
0.0
 70
     1
 71
    12
  0
VERTEX
  8
0
 10
68.360435
 20
219.068939
 30
0.0
  0
VERTEX
  8
0
 10
69.537933
 20
219.068939
 30
0.0
  0
VERTEX
  8
0
 10
69.537933
 20
219.381866
 30
0.0
  0
VERTEX
  8
0
 10
68.579659
 20
219.381866
 30
0.0
  0
VERTEX
  8
0
 10
68.579659
 20
220.219849
 30
0.0
  0
VERTEX
  8
0
 10
69.447533
 20
220.219849
 30
0.0
  0
VERTEX
  8
0
 10
69.447533
 20
220.511917
 30
0.0
  0
VERTEX
  8
0
 10
68.579659
 20
220.511917
 30
0.0
  0
VERTEX
  8
0
 10
68.579659
 20
221.259476
 30
0.0
  0
VERTEX
  8
0
 10
69.519852
 20
221.259476
 30
0.0
  0
VERTEX
  8
0
 10
69.519852
 20
221.568939
 30
0.0
  0
VERTEX
  8
0
 10
68.360435
 20
221.568939
 30
0.0
  0
SEQEND
  8
0
  0
POLYLINE
  8
0
 62
     7
 66
     1
 10
0.0
 20
0.0
 30
0.0
 70
     1
 71
    15
  0
VERTEX
  8
0
 10
71.423889
 20
219.068939
 30
0.0
  0
VERTEX
  8
0
 10
71.645378
 20
219.068939
 30
0.0
  0
VERTEX
  8
0
 10
71.645378
 20
220.122482
 30
0.0
  0
VERTEX
  8
0
 10
71.979866
 20
220.122482
 30
0.0
  0
VERTEX
  8
0
 10
72.201355
 20
220.136398
 30
0.0
  0
VERTEX
  8
0
 10
72.37764
 20
220.223328
 30
0.0
  0
VERTEX
  8
0
 10
72.531326
 20
220.473663
 30
0.0
  0
VERTEX
  8
0
 10
72.585571
 20
220.845718
 30
0.0
  0
VERTEX
  8
0
 10
72.569748
 20
221.050858
 30
0.0
  0
VERTEX
  8
0
 10
72.531326
 20
221.228195
 30
0.0
  0
VERTEX
  8
0
 10
72.46579
 20
221.370743
 30
0.0
  0
VERTEX
  8
0
 10
72.379906
 20
221.475052
 30
0.0
  0
VERTEX
  8
0
 10
72.212654
 20
221.551559
 30
0.0
  0
VERTEX
  8
0
 10
72.022812
 20
221.568939
 30
0.0
  0
VERTEX
  8
0
 10
71.423889
 20
221.568939
 30
0.0
  0
SEQEND
  8
0
  0
POLYLINE
  8
0
 62
     7
 66
     1
 10
0.0
 20
0.0
 30
0.0
 70
     1
 71
    11
  0
VERTEX
  8
0
 10
71.645378
 20
220.424988
 30
0.0
  0
VERTEX
  8
0
 10
71.645378
 20
221.262955
 30
0.0
  0
VERTEX
  8
0
 10
72.031853
 20
221.262955
 30
0.0
  0
VERTEX
  8
0
 10
72.178757
 20
221.238617
 30
0.0
  0
VERTEX
  8
0
 10
72.280457
 20
221.169083
 30
0.0
  0
VERTEX
  8
0
 10
72.341484
 20
221.040421
 30
0.0
  0
VERTEX
  8
0
 10
72.361824
 20
220.845718
 30
0.0
  0
VERTEX
  8
0
 10
72.341484
 20
220.640564
 30
0.0
  0
VERTEX
  8
0
 10
72.278198
 20
220.511917
 30
0.0
  0
VERTEX
  8
0
 10
72.169716
 20
220.442368
 30
0.0
  0
VERTEX
  8
0
 10
72.016029
 20
220.424988
 30
0.0
  0
SEQEND
  8
0
  0
POLYLINE
  8
0
 62
     7
 66
     1
 10
0.0
 20
0.0
 30
0.0
 70
     1
 71
     8
  0
VERTEX
  8
0
 10
73.166931
 20
219.068939
 30
0.0
  0
VERTEX
  8
0
 10
73.395203
 20
219.068939
 30
0.0
  0
VERTEX
  8
0
 10
73.569229
 20
219.816498
 30
0.0
  0
VERTEX
  8
0
 10
74.208832
 20
219.816498
 30
0.0
  0
VERTEX
  8
0
 10
74.3806
 20
219.068939
 30
0.0
  0
VERTEX
  8
0
 10
74.620163
 20
219.068939
 30
0.0
  0
VERTEX
  8
0
 10
74.014465
 20
221.568939
 30
0.0
  0
VERTEX
  8
0
 10
73.770378
 20
221.568939
 30
0.0
  0
SEQEND
  8
0
  0
POLYLINE
  8
0
 62
     7
 66
     1
 10
0.0
 20
0.0
 30
0.0
 70
     1
 71
     3
  0
VERTEX
  8
0
 10
73.637032
 20
220.108582
 30
0.0
  0
VERTEX
  8
0
 10
73.892418
 20
221.2108
 30
0.0
  0
VERTEX
  8
0
 10
74.143288
 20
220.108582
 30
0.0
  0
SEQEND
  8
0
  0
POLYLINE
  8
0
 62
     7
 66
     1
 10
0.0
 20
0.0
 30
0.0
 70
     1
 71
     8
  0
VERTEX
  8
0
 10
75.646767
 20
219.068939
 30
0.0
  0
VERTEX
  8
0
 10
75.868256
 20
219.068939
 30
0.0
  0
VERTEX
  8
0
 10
75.868256
 20
221.266434
 30
0.0
  0
VERTEX
  8
0
 10
76.381294
 20
221.266434
 30
0.0
  0
VERTEX
  8
0
 10
76.381294
 20
221.568939
 30
0.0
  0
VERTEX
  8
0
 10
75.133728
 20
221.568939
 30
0.0
  0
VERTEX
  8
0
 10
75.133728
 20
221.266434
 30
0.0
  0
VERTEX
  8
0
 10
75.646767
 20
221.266434
 30
0.0
  0
SEQEND
  8
0
  0
POLYLINE
  8
0
 62
     7
 66
     1
 10
0.0
 20
0.0
 30
0.0
 70
     1
 71
     8
  0
VERTEX
  8
0
 10
77.437271
 20
219.068939
 30
0.0
  0
VERTEX
  8
0
 10
77.65876
 20
219.068939
 30
0.0
  0
VERTEX
  8
0
 10
77.65876
 20
221.266434
 30
0.0
  0
VERTEX
  8
0
 10
78.171799
 20
221.266434
 30
0.0
  0
VERTEX
  8
0
 10
78.171799
 20
221.568939
 30
0.0
  0
VERTEX
  8
0
 10
76.924232
 20
221.568939
 30
0.0
  0
VERTEX
  8
0
 10
76.924232
 20
221.266434
 30
0.0
  0
VERTEX
  8
0
 10
77.437271
 20
221.266434
 30
0.0
  0
SEQEND
  8
0
  0
POLYLINE
  8
0
 62
     7
 66
     1
 10
0.0
 20
0.0
 30
0.0
 70
     1
 71
    12
  0
VERTEX
  8
0
 10
78.868431
 20
219.068939
 30
0.0
  0
VERTEX
  8
0
 10
80.045929
 20
219.068939
 30
0.0
  0
VERTEX
  8
0
 10
80.045929
 20
219.381866
 30
0.0
  0
VERTEX
  8
0
 10
79.087662
 20
219.381866
 30
0.0
  0
VERTEX
  8
0
 10
79.087662
 20
220.219849
 30
0.0
  0
VERTEX
  8
0
 10
79.955528
 20
220.219849
 30
0.0
  0
VERTEX
  8
0
 10
79.955528
 20
220.511917
 30
0.0
  0
VERTEX
  8
0
 10
79.087662
 20
220.511917
 30
0.0
  0
VERTEX
  8
0
 10
79.087662
 20
221.259476
 30
0.0
  0
VERTEX
  8
0
 10
80.027847
 20
221.259476
 30
0.0
  0
VERTEX
  8
0
 10
80.027847
 20
221.568939
 30
0.0
  0
VERTEX
  8
0
 10
78.868431
 20
221.568939
 30
0.0
  0
SEQEND
  8
0
  0
POLYLINE
  8
0
 62
     7
 66
     1
 10
0.0
 20
0.0
 30
0.0
 70
     1
 71
    30
  0
VERTEX
  8
0
 10
80.812622
 20
221.568939
 30
0.0
  0
VERTEX
  8
0
 10
80.812622
 20
219.068939
 30
0.0
  0
VERTEX
  8
0
 10
81.031853
 20
219.068939
 30
0.0
  0
VERTEX
  8
0
 10
81.031853
 20
220.139877
 30
0.0
  0
VERTEX
  8
0
 10
81.388947
 20
220.139877
 30
0.0
  0
VERTEX
  8
0
 10
81.560707
 20
220.12944
 30
0.0
  0
VERTEX
  8
0
 10
81.666931
 20
220.077286
 30
0.0
  0
VERTEX
  8
0
 10
81.725693
 20
219.959061
 30
0.0
  0
VERTEX
  8
0
 10
81.750557
 20
219.740005
 30
0.0
  0
VERTEX
  8
0
 10
81.764114
 20
219.413162
 30
0.0
  0
VERTEX
  8
0
 10
81.775421
 20
219.214981
 30
0.0
  0
VERTEX
  8
0
 10
81.80706
 20
219.068939
 30
0.0
  0
VERTEX
  8
0
 10
82.062447
 20
219.068939
 30
0.0
  0
VERTEX
  8
0
 10
82.062447
 20
219.138474
 30
0.0
  0
VERTEX
  8
0
 10
82.008209
 20
219.239319
 30
0.0
  0
VERTEX
  8
0
 10
81.987869
 20
219.430557
 30
0.0
  0
VERTEX
  8
0
 10
81.969788
 20
219.840851
 30
0.0
  0
VERTEX
  8
0
 10
81.953964
 20
220.014694
 30
0.0
  0
VERTEX
  8
0
 10
81.924583
 20
220.150299
 30
0.0
  0
VERTEX
  8
0
 10
81.870338
 20
220.244186
 30
0.0
  0
VERTEX
  8
0
 10
81.784454
 20
220.306763
 30
0.0
  0
VERTEX
  8
0
 10
81.879379
 20
220.40065
 30
0.0
  0
VERTEX
  8
0
 10
81.949448
 20
220.529297
 30
0.0
  0
VERTEX
  8
0
 10
81.992386
 20
220.68576
 30
0.0
  0
VERTEX
  8
0
 10
82.008209
 20
220.876999
 30
0.0
  0
VERTEX
  8
0
 10
81.992386
 20
221.071716
 30
0.0
  0
VERTEX
  8
0
 10
81.953964
 20
221.242096
 30
0.0
  0
VERTEX
  8
0
 10
81.798019
 20
221.48201
 30
0.0
  0
VERTEX
  8
0
 10
81.633034
 20
221.555038
 30
0.0
  0
VERTEX
  8
0
 10
81.443184
 20
221.568939
 30
0.0
  0
SEQEND
  8
0
  0
POLYLINE
  8
0
 62
     7
 66
     1
 10
0.0
 20
0.0
 30
0.0
 70
     1
 71
    11
  0
VERTEX
  8
0
 10
81.029587
 20
221.276871
 30
0.0
  0
VERTEX
  8
0
 10
81.407028
 20
221.276871
 30
0.0
  0
VERTEX
  8
0
 10
81.56749
 20
221.259476
 30
0.0
  0
VERTEX
  8
0
 10
81.685013
 20
221.196899
 30
0.0
  0
VERTEX
  8
0
 10
81.755081
 20
221.075195
 30
0.0
  0
VERTEX
  8
0
 10
81.779938
 20
220.870056
 30
0.0
  0
VERTEX
  8
0
 10
81.755081
 20
220.657959
 30
0.0
  0
VERTEX
  8
0
 10
81.687271
 20
220.522354
 30
0.0
  0
VERTEX
  8
0
 10
81.569748
 20
220.449326
 30
0.0
  0
VERTEX
  8
0
 10
81.407028
 20
220.428467
 30
0.0
  0
VERTEX
  8
0
 10
81.029587
 20
220.428467
 30
0.0
  0
SEQEND
  8
0
  0
POLYLINE
  8
0
 62
     7
 66
     1
 10
0.0
 20
0.0
 30
0.0
 70
     1
 71
    12
  0
VERTEX
  8
0
 10
82.811058
 20
219.068939
 30
0.0
  0
VERTEX
  8
0
 10
83.02124
 20
219.068939
 30
0.0
  0
VERTEX
  8
0
 10
83.02124
 20
221.096054
 30
0.0
  0
VERTEX
  8
0
 10
83.082268
 20
220.911774
 30
0.0
  0
VERTEX
  8
0
 10
83.857475
 20
219.068939
 30
0.0
  0
VERTEX
  8
0
 10
84.097046
 20
219.068939
 30
0.0
  0
VERTEX
  8
0
 10
84.097046
 20
221.568939
 30
0.0
  0
VERTEX
  8
0
 10
83.886856
 20
221.568939
 30
0.0
  0
VERTEX
  8
0
 10
83.886856
 20
219.541824
 30
0.0
  0
VERTEX
  8
0
 10
83.812271
 20
219.753922
 30
0.0
  0
VERTEX
  8
0
 10
83.052887
 20
221.568939
 30
0.0
  0
VERTEX
  8
0
 10
82.811058
 20
221.568939
 30
0.0
  0
SEQEND
  8
0
  0
ARC
  8
0
 62
     7
 10
94.396179
 20
110.74836
 30
0.0
 40
1.5
 50
25.841934
 51
90.000003
210
0.0
220
0.0
230
1.0
  0
ARC
  8
0
 62
     7
 10
94.396179
 20
110.74836
 30
0.0
 40
1.5
 50
20.000001
 51
25.841934
210
0.0
220
0.0
230
1.0
  0
LINE
  8
0
 62
     7
 10
95.805717
 20
111.261391
 30
0.0
 11
96.356415
 21
109.74836
 31
0.0
210
0.0
220
0.0
230
1.0
  0
LINE
  8
0
 62
     7
 10
108.596176
 20
109.74836
 30
0.0
 11
121.446175
 21
109.74836
 31
0.0
210
0.0
220
0.0
230
1.0
  0
LINE
  8
0
 62
     7
 10
108.596176
 20
109.74836
 30
0.0
 11
96.356415
 21
109.74836
 31
0.0
210
0.0
220
0.0
230
1.0
  0
CIRCLE
  8
0
 62
     7
 10
115.346176
 20
112.198357
 30
0.0
 40
0.7
210
0.0
220
0.0
230
1.0
  0
CIRCLE
  8
0
 62
     7
 10
101.846176
 20
120.35836
 30
0.0
 40
0.9
210
0.0
220
0.0
230
1.0
  0
CIRCLE
  8
0
 62
     7
 10
119.696175
 20
112.198357
 30
0.0
 40
0.7
210
0.0
220
0.0
230
1.0
  0
CIRCLE
  8
0
 62
     7
 10
101.846176
 20
112.198357
 30
0.0
 40
0.7
210
0.0
220
0.0
230
1.0
  0
CIRCLE
  8
0
 62
     7
 10
97.496178
 20
112.198357
 30
0.0
 40
0.7
210
0.0
220
0.0
230
1.0
  0
CIRCLE
  8
0
 62
     7
 10
115.346176
 20
120.35836
 30
0.0
 40
0.9
210
0.0
220
0.0
230
1.0
  0
LINE
  8
0
 62
     7
 10
85.096176
 20
112.24836
 30
0.0
 11
94.096176
 21
112.24836
 31
0.0
210
0.0
220
0.0
230
1.0
  0
LINE
  8
0
 62
     7
 10
94.096176
 20
112.24836
 30
0.0
 11
94.396179
 21
112.24836
 31
0.0
210
0.0
220
0.0
230
1.0
  0
LINE
  8
0
 62
     7
 10
70.473358
 20
163.347473
 30
0.0
 11
70.705933
 21
163.670532
 31
0.0
210
0.0
220
0.0
230
1.0
  0
LINE
  8
0
 62
     7
 10
70.473358
 20
163.347473
 30
0.0
 11
68.809738
 21
161.03656
 31
0.0
210
0.0
220
0.0
230
1.0
  0
LINE
  8
0
 62
     7
 10
64.831917
 20
145.831818
 30
0.0
 11
62.890903
 21
149.29776
 31
0.0
210
0.0
220
0.0
230
1.0
  0
LINE
  8
0
 62
     7
 10
64.831917
 20
145.831818
 30
0.0
 11
70.79731
 21
135.17984
 31
0.0
210
0.0
220
0.0
230
1.0
  0
ARC
  8
0
 62
     7
 10
69.488571
 20
134.446915
 30
0.0
 40
1.5
 50
324.250001
 51
29.249998
210
0.0
220
0.0
230
1.0
  0
LINE
  8
0
 62
     7
 10
70.473358
 20
133.247482
 30
0.0
 11
70.705933
 21
133.570541
 31
0.0
210
0.0
220
0.0
230
1.0
  0
LINE
  8
0
 62
     7
 10
68.809738
 20
130.936569
 30
0.0
 11
70.473358
 21
133.247482
 31
0.0
210
0.0
220
0.0
230
1.0
  0
LINE
  8
0
 62
     7
 10
124.203354
 20
109.74836
 30
0.0
 11
121.446175
 21
109.74836
 31
0.0
210
0.0
220
0.0
230
1.0
  0
LINE
  8
0
 62
     7
 10
124.896179
 20
110.148361
 30
0.0
 11
124.203354
 21
109.74836
 31
0.0
210
0.0
220
0.0
230
1.0
  0
LINE
  8
0
 62
     7
 10
124.896179
 20
110.148361
 30
0.0
 11
124.896179
 21
111.948357
 31
0.0
210
0.0
220
0.0
230
1.0
  0
ARC
  8
0
 62
     7
 10
126.096176
 20
111.948357
 30
0.0
 40
1.2
 50
0.0
 51
180.000005
210
0.0
220
0.0
230
1.0
  0
LINE
  8
0
 62
     7
 10
127.296173
 20
111.948357
 30
0.0
 11
127.296173
 21
109.74836
 31
0.0
210
0.0
220
0.0
230
1.0
  0
LINE
  8
0
 62
     7
 10
139.413864
 20
109.74836
 30
0.0
 11
127.296173
 21
109.74836
 31
0.0
210
0.0
220
0.0
230
1.0
  0
ARC
  8
0
 62
     7
 10
139.413864
 20
108.24836
 30
0.0
 40
1.5
 50
56.442689
 51
73.597638
210
0.0
220
0.0
230
1.0
  0
ARC
  8
0
 62
     7
 10
139.413864
 20
108.24836
 30
0.0
 40
1.5
 50
73.597638
 51
90.000003
210
0.0
220
0.0
230
1.0
  0
LINE
  8
0
 62
     7
 10
138.49617
 20
115.74836
 30
0.0
 11
138.49617
 21
115.740311
 31
0.0
210
0.0
220
0.0
230
1.0
  0
LINE
  8
0
 62
     7
 10
148.382614
 20
130.936569
 30
0.0
 11
146.718994
 21
133.247482
 31
0.0
210
0.0
220
0.0
230
1.0
  0
LINE
  8
0
 62
     7
 10
146.718994
 20
133.247482
 30
0.0
 11
146.48642
 21
133.570541
 31
0.0
210
0.0
220
0.0
230
1.0
  0
ARC
  8
0
 62
     7
 10
147.703781
 20
134.446915
 30
0.0
 40
1.5
 50
150.750007
 51
215.749997
210
0.0
220
0.0
230
1.0
  0
LINE
  8
0
 62
     7
 10
152.360443
 20
145.831818
 30
0.0
 11
146.39505
 21
135.17984
 31
0.0
210
0.0
220
0.0
230
1.0
  0
LINE
  8
0
 62
     7
 10
152.360443
 20
145.831818
 30
0.0
 11
154.301453
 21
149.29776
 31
0.0
210
0.0
220
0.0
230
1.0
  0
LINE
  8
0
 62
     7
 10
146.718994
 20
163.347473
 30
0.0
 11
148.382614
 21
161.03656
 31
0.0
210
0.0
220
0.0
230
1.0
  0
LINE
  8
0
 62
     7
 10
146.718994
 20
163.347473
 30
0.0
 11
146.48642
 21
163.670532
 31
0.0
210
0.0
220
0.0
230
1.0
  0
ARC
  8
0
 62
     7
 10
147.703781
 20
164.546906
 30
0.0
 40
1.5
 50
150.750007
 51
215.749997
210
0.0
220
0.0
230
1.0
  0
LINE
  8
0
 62
     7
 10
146.39505
 20
165.279846
 30
0.0
 11
152.360443
 21
175.931824
 31
0.0
210
0.0
220
0.0
230
1.0
  0
LINE
  8
0
 62
     7
 10
152.360443
 20
175.931824
 30
0.0
 11
154.301453
 21
179.397751
 31
0.0
210
0.0
220
0.0
230
1.0
  0
LINE
  8
0
 62
     7
 10
148.382614
 20
191.136566
 30
0.0
 11
146.718994
 21
193.447479
 31
0.0
210
0.0
220
0.0
230
1.0
  0
LINE
  8
0
 62
     7
 10
146.718994
 20
193.447479
 30
0.0
 11
146.680786
 21
193.500549
 31
0.0
210
0.0
220
0.0
230
1.0
  0
ARC
  8
0
 62
     7
 10
148.094208
 20
194.002762
 30
0.0
 40
1.5
 50
163.750001
 51
199.560496
210
0.0
220
0.0
230
1.0
  0
LINE
  8
0
 62
     7
 10
147.517242
 20
197.383667
 30
0.0
 11
146.654144
 21
194.422516
 31
0.0
210
0.0
220
0.0
230
1.0
  0
LINE
  8
0
 62
     7
 10
147.517242
 20
197.383667
 30
0.0
 11
150.596176
 21
202.8815
 31
0.0
210
0.0
220
0.0
230
1.0
  0
LINE
  8
0
 62
     7
 10
150.596176
 20
203.098358
 30
0.0
 11
150.596176
 21
208.748352
 31
0.0
210
0.0
220
0.0
230
1.0
  0
LINE
  8
0
 62
     7
 10
150.596176
 20
203.098358
 30
0.0
 11
150.596176
 21
202.8815
 31
0.0
210
0.0
220
0.0
230
1.0
  0
LINE
  8
0
 62
     7
 10
98.946175
 20
119.398361
 30
0.0
 11
100.246178
 21
119.398361
 31
0.0
210
0.0
220
0.0
230
1.0
  0
LINE
  8
0
 62
     7
 10
100.246178
 20
121.048363
 30
0.0
 11
100.246178
 21
119.398361
 31
0.0
210
0.0
220
0.0
230
1.0
  0
LINE
  8
0
 62
     7
 10
100.246178
 20
121.048363
 30
0.0
 11
98.946175
 21
121.048363
 31
0.0
210
0.0
220
0.0
230
1.0
  0
LINE
  8
0
 62
     7
 10
98.946175
 20
119.398361
 30
0.0
 11
98.946175
 21
121.048363
 31
0.0
210
0.0
220
0.0
230
1.0
  0
LINE
  8
0
 62
     7
 10
103.446175
 20
119.398361
 30
0.0
 11
104.746178
 21
119.398361
 31
0.0
210
0.0
220
0.0
230
1.0
  0
LINE
  8
0
 62
     7
 10
104.746178
 20
121.048363
 30
0.0
 11
104.746178
 21
119.398361
 31
0.0
210
0.0
220
0.0
230
1.0
  0
LINE
  8
0
 62
     7
 10
104.746178
 20
121.048363
 30
0.0
 11
103.446175
 21
121.048363
 31
0.0
210
0.0
220
0.0
230
1.0
  0
LINE
  8
0
 62
     7
 10
103.446175
 20
119.398361
 30
0.0
 11
103.446175
 21
121.048363
 31
0.0
210
0.0
220
0.0
230
1.0
  0
LINE
  8
0
 62
     7
 10
118.246178
 20
119.398361
 30
0.0
 11
118.246178
 21
121.048363
 31
0.0
210
0.0
220
0.0
230
1.0
  0
LINE
  8
0
 62
     7
 10
116.946175
 20
121.048363
 30
0.0
 11
118.246178
 21
121.048363
 31
0.0
210
0.0
220
0.0
230
1.0
  0
LINE
  8
0
 62
     7
 10
116.946175
 20
121.048363
 30
0.0
 11
116.946175
 21
119.398361
 31
0.0
210
0.0
220
0.0
230
1.0
  0
LINE
  8
0
 62
     7
 10
118.246178
 20
119.398361
 30
0.0
 11
116.946175
 21
119.398361
 31
0.0
210
0.0
220
0.0
230
1.0
  0
LINE
  8
0
 62
     7
 10
113.746178
 20
119.398361
 30
0.0
 11
113.746178
 21
121.048363
 31
0.0
210
0.0
220
0.0
230
1.0
  0
LINE
  8
0
 62
     7
 10
112.446175
 20
121.048363
 30
0.0
 11
113.746178
 21
121.048363
 31
0.0
210
0.0
220
0.0
230
1.0
  0
LINE
  8
0
 62
     7
 10
112.446175
 20
121.048363
 30
0.0
 11
112.446175
 21
119.398361
 31
0.0
210
0.0
220
0.0
230
1.0
  0
LINE
  8
0
 62
     7
 10
113.746178
 20
119.398361
 30
0.0
 11
112.446175
 21
119.398361
 31
0.0
210
0.0
220
0.0
230
1.0
  0
LINE
  8
0
 62
     7
 10
107.946175
 20
119.398361
 30
0.0
 11
109.246178
 21
119.398361
 31
0.0
210
0.0
220
0.0
230
1.0
  0
LINE
  8
0
 62
     7
 10
109.246178
 20
121.048363
 30
0.0
 11
109.246178
 21
119.398361
 31
0.0
210
0.0
220
0.0
230
1.0
  0
LINE
  8
0
 62
     7
 10
109.246178
 20
121.048363
 30
0.0
 11
107.946175
 21
121.048363
 31
0.0
210
0.0
220
0.0
230
1.0
  0
LINE
  8
0
 62
     7
 10
107.946175
 20
119.398361
 30
0.0
 11
107.946175
 21
121.048363
 31
0.0
210
0.0
220
0.0
230
1.0
  0
LINE
  8
0
 62
     7
 10
68.809738
 20
161.03656
 30
0.0
 11
71.668182
 21
155.932465
 31
0.0
210
0.0
220
0.0
230
1.0
  0
ARC
  8
0
 62
     7
 10
70.359436
 20
155.199539
 30
0.0
 40
1.5
 50
299.250003
 51
29.249998
210
0.0
220
0.0
230
1.0
  0
LINE
  8
0
 62
     7
 10
62.890903
 20
149.29776
 30
0.0
 11
71.092361
 21
153.890793
 31
0.0
210
0.0
220
0.0
230
1.0
  0
LINE
  8
0
 62
     7
 10
68.809738
 20
130.936569
 30
0.0
 11
71.668182
 21
125.832466
 31
0.0
210
0.0
220
0.0
230
1.0
  0
ARC
  8
0
 62
     7
 10
70.359436
 20
125.099533
 30
0.0
 40
1.5
 50
299.250003
 51
29.249998
210
0.0
220
0.0
230
1.0
  0
LINE
  8
0
 62
     7
 10
62.890903
 20
119.197754
 30
0.0
 11
71.092361
 21
123.790794
 31
0.0
210
0.0
220
0.0
230
1.0
  0
LINE
  8
0
 62
     7
 10
62.890903
 20
119.197754
 30
0.0
 11
64.404922
 21
116.494278
 31
0.0
210
0.0
220
0.0
230
1.0
  0
CIRCLE
  8
0
 62
     7
 10
66.20993
 20
118.85405
 30
0.0
 40
0.7
210
0.0
220
0.0
230
1.0
  0
ARC
  8
0
 62
     7
 10
73.596176
 20
109.24836
 30
0.0
 40
1.5
 50
80.191455
 51
90.000003
210
0.0
220
0.0
230
1.0
  0
ARC
  8
0
 62
     7
 10
73.596176
 20
109.24836
 30
0.0
 40
1.5
 50
24.903947
 51
37.992026
210
0.0
220
0.0
230
1.0
  0
ARC
  8
0
 62
     7
 10
73.596176
 20
109.24836
 30
0.0
 40
1.5
 50
37.992026
 51
80.191455
210
0.0
220
0.0
230
1.0
  0
ARC
  8
0
 62
     7
 10
75.77301
 20
110.258995
 30
0.0
 40
0.9
 50
204.903944
 51
234.647396
210
0.0
220
0.0
230
1.0
  0
ARC
  8
0
 62
     7
 10
76.120178
 20
110.74836
 30
0.0
 40
1.5
 50
234.647396
 51
276.96578
210
0.0
220
0.0
230
1.0
  0
ARC
  8
0
 62
     7
 10
76.120178
 20
110.74836
 30
0.0
 40
1.5
 50
276.96578
 51
303.557311
210
0.0
220
0.0
230
1.0
  0
ARC
  8
0
 62
     7
 10
77.778488
 20
108.24836
 30
0.0
 40
1.5
 50
106.402367
 51
123.557316
210
0.0
220
0.0
230
1.0
  0
ARC
  8
0
 62
     7
 10
77.778488
 20
108.24836
 30
0.0
 40
1.5
 50
90.000003
 51
106.402367
210
0.0
220
0.0
230
1.0
  0
LINE
  8
0
 62
     7
 10
77.778488
 20
109.74836
 30
0.0
 11
80.096176
 21
109.74836
 31
0.0
210
0.0
220
0.0
230
1.0
  0
LINE
  8
0
 62
     7
 10
83.596176
 20
109.74836
 30
0.0
 11
80.096176
 21
109.74836
 31
0.0
210
0.0
220
0.0
230
1.0
  0
LINE
  8
0
 62
     7
 10
83.596176
 20
109.74836
 30
0.0
 11
83.596176
 21
110.74836
 31
0.0
210
0.0
220
0.0
230
1.0
  0
ARC
  8
0
 62
     7
 10
85.096176
 20
110.74836
 30
0.0
 40
1.5
 50
90.000003
 51
180.000005
210
0.0
220
0.0
230
1.0
  0
ARC
  8
0
 62
     7
 10
141.072174
 20
110.74836
 30
0.0
 40
1.5
 50
263.034222
 51
305.352602
210
0.0
220
0.0
230
1.0
  0
ARC
  8
0
 62
     7
 10
141.072174
 20
110.74836
 30
0.0
 40
1.5
 50
236.442684
 51
263.034222
210
0.0
220
0.0
230
1.0
  0
ARC
  8
0
 62
     7
 10
141.419342
 20
110.258995
 30
0.0
 40
0.9
 50
305.352602
 51
335.096053
210
0.0
220
0.0
230
1.0
  0
ARC
  8
0
 62
     7
 10
143.596176
 20
109.24836
 30
0.0
 40
1.5
 50
90.000003
 51
99.808543
210
0.0
220
0.0
230
1.0
  0
ARC
  8
0
 62
     7
 10
143.596176
 20
109.24836
 30
0.0
 40
1.5
 50
99.808543
 51
142.007979
210
0.0
220
0.0
230
1.0
  0
ARC
  8
0
 62
     7
 10
143.596176
 20
109.24836
 30
0.0
 40
1.5
 50
142.007979
 51
155.096056
210
0.0
220
0.0
230
1.0
  0
CIRCLE
  8
0
 62
     7
 10
150.982422
 20
118.85405
 30
0.0
 40
0.7
210
0.0
220
0.0
230
1.0
  0
LINE
  8
0
 62
     7
 10
154.301453
 20
119.197754
 30
0.0
 11
152.78743
 21
116.494278
 31
0.0
210
0.0
220
0.0
230
1.0
  0
LINE
  8
0
 62
     7
 10
154.301453
 20
119.197754
 30
0.0
 11
146.099991
 21
123.790794
 31
0.0
210
0.0
220
0.0
230
1.0
  0
ARC
  8
0
 62
     7
 10
146.832916
 20
125.099533
 30
0.0
 40
1.5
 50
150.750007
 51
240.750006
210
0.0
220
0.0
230
1.0
  0
LINE
  8
0
 62
     7
 10
148.382614
 20
130.936569
 30
0.0
 11
145.52417
 21
125.832466
 31
0.0
210
0.0
220
0.0
230
1.0
  0
LINE
  8
0
 62
     7
 10
154.301453
 20
149.29776
 30
0.0
 11
146.099991
 21
153.890793
 31
0.0
210
0.0
220
0.0
230
1.0
  0
ARC
  8
0
 62
     7
 10
146.832916
 20
155.199539
 30
0.0
 40
1.5
 50
150.750007
 51
240.750006
210
0.0
220
0.0
230
1.0
  0
LINE
  8
0
 62
     7
 10
148.382614
 20
161.03656
 30
0.0
 11
145.52417
 21
155.932465
 31
0.0
210
0.0
220
0.0
230
1.0
  0
LINE
  8
0
 62
     7
 10
154.301453
 20
179.397751
 30
0.0
 11
146.099991
 21
183.990784
 31
0.0
210
0.0
220
0.0
230
1.0
  0
ARC
  8
0
 62
     7
 10
146.832916
 20
185.29953
 30
0.0
 40
1.5
 50
150.750007
 51
240.750006
210
0.0
220
0.0
230
1.0
  0
LINE
  8
0
 62
     7
 10
148.382614
 20
191.136566
 30
0.0
 11
145.52417
 21
186.032471
 31
0.0
210
0.0
220
0.0
230
1.0
  0
LINE
  8
0
 62
     7
 10
147.346176
 20
208.748352
 30
0.0
 11
150.596176
 21
208.748352
 31
0.0
210
0.0
220
0.0
230
1.0
  0
LINE
  8
0
 62
     7
 10
147.346176
 20
208.748352
 30
0.0
 11
147.346176
 21
206.948364
 31
0.0
210
0.0
220
0.0
230
1.0
  0
ARC
  8
0
 62
     7
 10
146.146179
 20
206.948364
 30
0.0
 40
1.2
 50
318.59038
 51
0.0
210
0.0
220
0.0
230
1.0
  0
ARC
  8
0
 62
     7
 10
146.146179
 20
206.948364
 30
0.0
 40
1.2
 50
180.000005
 51
221.409615
210
0.0
220
0.0
230
1.0
  0
ARC
  8
0
 62
     7
 10
146.146179
 20
206.948364
 30
0.0
 40
1.2
 50
221.409615
 51
318.59038
210
0.0
220
0.0
230
1.0
  0
LINE
  8
0
 62
     7
 10
66.596176
 20
208.748352
 30
0.0
 11
70.146179
 21
208.748352
 31
0.0
210
0.0
220
0.0
230
1.0
  0
LINE
  8
0
 62
     7
 10
70.146179
 20
208.748352
 30
0.0
 11
71.946175
 21
208.748352
 31
0.0
210
0.0
220
0.0
230
1.0
  0
LINE
  8
0
 62
     7
 10
108.596176
 20
208.748352
 30
0.0
 11
71.946175
 21
208.748352
 31
0.0
210
0.0
220
0.0
230
1.0
  0
CIRCLE
  8
0
 62
     7
 10
92.286179
 20
114.548363
 30
0.0
 40
0.7
210
0.0
220
0.0
230
1.0
  0
CIRCLE
  8
0
 62
     7
 10
82.446175
 20
116.148361
 30
0.0
 40
0.7
210
0.0
220
0.0
230
1.0
  0
CIRCLE
  8
0
 62
     7
 10
145.476807
 20
173.82785
 30
0.0
 40
0.7
210
0.0
220
0.0
230
1.0
  0
CIRCLE
  8
0
 62
     7
 10
76.12001
 20
110.879547
 30
0.0
 40
0.7
210
0.0
220
0.0
230
1.0
  0
CIRCLE
  8
0
 62
     7
 10
141.072342
 20
110.879547
 30
0.0
 40
0.7
210
0.0
220
0.0
230
1.0
  0
CIRCLE
  8
0
 62
     7
 10
66.20993
 20
148.954041
 30
0.0
 40
0.7
210
0.0
220
0.0
230
1.0
  0
CIRCLE
  8
0
 62
     7
 10
145.518799
 20
148.919266
 30
0.0
 40
0.7
210
0.0
220
0.0
230
1.0
  0
CIRCLE
  8
0
 62
     7
 10
150.982422
 20
148.954041
 30
0.0
 40
0.7
210
0.0
220
0.0
230
1.0
  0
CIRCLE
  8
0
 62
     7
 10
141.072342
 20
140.979553
 30
0.0
 40
0.7
210
0.0
220
0.0
230
1.0
  0
CIRCLE
  8
0
 62
     7
 10
71.673561
 20
148.919266
 30
0.0
 40
0.7
210
0.0
220
0.0
230
1.0
  0
CIRCLE
  8
0
 62
     7
 10
76.12001
 20
140.979553
 30
0.0
 40
0.7
210
0.0
220
0.0
230
1.0
  0
CIRCLE
  8
0
 62
     7
 10
71.715546
 20
143.727844
 30
0.0
 40
0.7
210
0.0
220
0.0
230
1.0
  0
CIRCLE
  8
0
 62
     7
 10
145.476807
 20
143.727844
 30
0.0
 40
0.7
210
0.0
220
0.0
230
1.0
  0
CIRCLE
  8
0
 62
     7
 10
145.518799
 20
179.019257
 30
0.0
 40
0.7
210
0.0
220
0.0
230
1.0
  0
CIRCLE
  8
0
 62
     7
 10
150.982422
 20
179.054047
 30
0.0
 40
0.7
210
0.0
220
0.0
230
1.0
  0
CIRCLE
  8
0
 62
     7
 10
141.072342
 20
171.079544
 30
0.0
 40
0.7
210
0.0
220
0.0
230
1.0
  0
ARC
  8
0
 62
     7
 10
63.096176
 20
115.761345
 30
0.0
 40
1.5
 50
360.0
 51
29.249998
210
0.0
220
0.0
230
1.0
  0
LINE
  8
0
 62
     7
 10
64.596176
 20
115.761345
 30
0.0
 11
64.596176
 21
115.5998
 31
0.0
210
0.0
220
0.0
230
1.0
  0
CIRCLE
  8
0
 62
     7
 10
71.673561
 20
118.81926
 30
0.0
 40
0.7
210
0.0
220
0.0
230
1.0
  0
CIRCLE
  8
0
 62
     7
 10
71.715546
 20
113.627853
 30
0.0
 40
0.7
210
0.0
220
0.0
230
1.0
  0
LINE
  8
0
 62
     7
 10
77.354919
 20
109.687317
 30
0.0
 11
77.796219
 21
109.917427
 31
0.0
210
0.0
220
0.0
230
1.0
  0
LINE
  8
0
 62
     7
 10
78.696175
 20
115.74836
 30
0.0
 11
78.696175
 21
115.740311
 31
0.0
210
0.0
220
0.0
230
1.0
  0
LINE
  8
0
 62
     7
 10
152.596176
 20
115.761345
 30
0.0
 11
152.596176
 21
115.5998
 31
0.0
210
0.0
220
0.0
230
1.0
  0
ARC
  8
0
 62
     7
 10
154.096176
 20
115.761345
 30
0.0
 40
1.5
 50
150.750007
 51
179.999995
210
0.0
220
0.0
230
1.0
  0
CIRCLE
  8
0
 62
     7
 10
145.518799
 20
118.81926
 30
0.0
 40
0.7
210
0.0
220
0.0
230
1.0
  0
CIRCLE
  8
0
 62
     7
 10
145.476807
 20
113.627853
 30
0.0
 40
0.7
210
0.0
220
0.0
230
1.0
  0
LINE
  8
0
 62
     7
 10
73.596176
 20
110.74836
 30
0.0
 11
64.596176
 21
110.74836
 31
0.0
210
0.0
220
0.0
230
1.0
  0
LINE
  8
0
 62
     7
 10
64.596176
 20
115.5998
 30
0.0
 11
64.596176
 21
110.74836
 31
0.0
210
0.0
220
0.0
230
1.0
  0
LINE
  8
0
 62
     7
 10
152.596176
 20
110.74836
 30
0.0
 11
143.596176
 21
110.74836
 31
0.0
210
0.0
220
0.0
230
1.0
  0
LINE
  8
0
 62
     7
 10
152.596176
 20
115.5998
 30
0.0
 11
152.596176
 21
110.74836
 31
0.0
210
0.0
220
0.0
230
1.0
  0
LINE
  8
0
 62
     7
 10
144.946167
 20
208.748352
 30
0.0
 11
144.946167
 21
206.948364
 31
0.0
210
0.0
220
0.0
230
1.0
  0
LINE
  8
0
 62
     7
 10
108.596176
 20
208.748352
 30
0.0
 11
144.946167
 21
208.748352
 31
0.0
210
0.0
220
0.0
230
1.0
  0
ARC
  8
0
 62
     7
 10
69.488571
 20
164.546906
 30
0.0
 40
1.5
 50
324.250001
 51
29.249998
210
0.0
220
0.0
230
1.0
  0
ARC
  8
0
 62
     7
 10
65.096176
 20
203.791092
 30
0.0
 40
1.5
 50
328.0
 51
360.0
210
0.0
220
0.0
230
1.0
  0
LINE
  8
0
 62
     7
 10
66.596176
 20
208.748352
 30
0.0
 11
66.596176
 21
204.549164
 31
0.0
210
0.0
220
0.0
230
1.0
  0
LINE
  8
0
 62
     7
 10
66.596176
 20
203.791092
 30
0.0
 11
66.596176
 21
204.549164
 31
0.0
210
0.0
220
0.0
230
1.0
  0
LINE
  8
0
 62
     7
 10
66.368248
 20
202.996216
 30
0.0
 11
57.56493
 21
188.907959
 31
0.0
210
0.0
220
0.0
230
1.0
  0
LINE
  8
0
 62
     7
 10
57.71698
 20
188.636459
 30
0.0
 11
62.134991
 21
180.747528
 31
0.0
210
0.0
220
0.0
230
1.0
  0
LINE
  8
0
 62
     7
 10
70.79731
 20
165.279846
 30
0.0
 11
62.134991
 21
180.747528
 31
0.0
210
0.0
220
0.0
230
1.0
  0
LINE
  8
0
 62
     7
 10
57.56493
 20
188.907959
 30
0.0
 11
57.71698
 21
188.636459
 31
0.0
210
0.0
220
0.0
230
1.0
  0
CIRCLE
  8
0
 62
     7
 10
70.690842
 20
185.570465
 30
0.0
 40
1.6
210
0.0
220
0.0
230
1.0
  0
CIRCLE
  8
0
 62
     7
 10
75.804565
 20
193.75415
 30
0.0
 40
1.6
210
0.0
220
0.0
230
1.0
  0
CIRCLE
  8
0
 62
     7
 10
71.847595
 20
199.404617
 30
0.0
 40
0.635
210
0.0
220
0.0
230
1.0
  0
CIRCLE
  8
0
 62
     7
 10
69.693542
 20
200.75061
 30
0.0
 40
0.635
210
0.0
220
0.0
230
1.0
  0
CIRCLE
  8
0
 62
     7
 10
74.001633
 20
198.058624
 30
0.0
 40
0.635
210
0.0
220
0.0
230
1.0
  0
CIRCLE
  8
0
 62
     7
 10
63.877605
 20
186.649963
 30
0.0
 40
0.635
210
0.0
220
0.0
230
1.0
  0
CIRCLE
  8
0
 62
     7
 10
79.38269
 20
187.025604
 30
0.0
 40
0.445
210
0.0
220
0.0
230
1.0
  0
CIRCLE
  8
0
 62
     7
 10
78.306953
 20
185.304077
 30
0.0
 40
0.445
210
0.0
220
0.0
230
1.0
  0
CIRCLE
  8
0
 62
     7
 10
79.920479
 20
183.093079
 30
0.0
 40
0.445
210
0.0
220
0.0
230
1.0
  0
CIRCLE
  8
0
 62
     7
 10
77.231216
 20
183.582535
 30
0.0
 40
0.445
210
0.0
220
0.0
230
1.0
  0
CIRCLE
  8
0
 62
     7
 10
78.844742
 20
181.371521
 30
0.0
 40
0.445
210
0.0
220
0.0
230
1.0
  0
CIRCLE
  8
0
 62
     7
 10
76.155479
 20
181.860992
 30
0.0
 40
0.445
210
0.0
220
0.0
230
1.0
  0
CIRCLE
  8
0
 62
     7
 10
77.769005
 20
179.649994
 30
0.0
 40
0.445
210
0.0
220
0.0
230
1.0
  0
CIRCLE
  8
0
 62
     7
 10
82.077248
 20
186.544617
 30
0.0
 40
0.445
210
0.0
220
0.0
230
1.0
  0
CIRCLE
  8
0
 62
     7
 10
80.45842
 20
188.747147
 30
0.0
 40
0.445
210
0.0
220
0.0
230
1.0
  0
CIRCLE
  8
0
 62
     7
 10
83.152985
 20
188.266159
 30
0.0
 40
0.445
210
0.0
220
0.0
230
1.0
  0
CIRCLE
  8
0
 62
     7
 10
81.534164
 20
190.468689
 30
0.0
 40
0.445
210
0.0
220
0.0
230
1.0
  0
CIRCLE
  8
0
 62
     7
 10
84.228722
 20
189.987701
 30
0.0
 40
0.445
210
0.0
220
0.0
230
1.0
  0
CIRCLE
  8
0
 62
     7
 10
77.905693
 20
197.116653
 30
0.0
 40
0.785
210
0.0
220
0.0
230
1.0
  0
CIRCLE
  8
0
 62
     7
 10
68.589714
 20
182.207962
 30
0.0
 40
0.785
210
0.0
220
0.0
230
1.0
  0
CIRCLE
  8
0
 62
     7
 10
61.72356
 20
187.995972
 30
0.0
 40
0.635
210
0.0
220
0.0
230
1.0
  0
ENDSEC
  0
EOF
