<?xml version="1.0" encoding="UTF-8"?>
<!-- 2019-08-29 09:40:45 Generated by QCAD SVG Exporter -->
<svg width="160mm" height="100mm" viewBox="0 -100 160 100" version="1.1" xmlns="http://www.w3.org/2000/svg" style="stroke-linecap:round;stroke-linejoin:round;fill:none">
    <g transform="scale(1,-1)">
        <!-- Line -->
        <!-- Line -->
        <!-- Line -->
        <!-- Line -->
        <!-- Line -->
        <!-- Line -->
        <!-- Line -->
        <!-- Line -->
        <!-- Line -->
        <path d="M132.5426703206669,71.76380819229003 L132.5426703206669,23.76380819229003 " style="stroke:#ff0000;stroke-width:0.25;"/>
        <!-- Line -->
        <path d="M102.54267032066689,71.76380819229003 L102.54267032066689,23.76380819229003 " style="stroke:#ff0000;stroke-width:0.25;"/>
        <!-- Line -->
        <path d="M72.54267032066689,71.76380819229003 L72.54267032066689,23.76380819229003 " style="stroke:#ff0000;stroke-width:0.25;"/>
        <!-- Line -->
        <path d="M12.54267032066689,71.76380819229003 L12.54267032066689,23.76380819229003 " style="stroke:#ff0000;stroke-width:0.25;"/>
        <!-- Line -->
        <path d="M42.542670320666886,71.76380819229003 L42.542670320666886,23.76380819229003 " style="stroke:#ff0000;stroke-width:0.25;"/>
        <!-- Line -->
        <path d="M140.5426703206669,71.76380819229003 L140.5426703206669,23.76380819229003 " style="stroke:#ff0000;stroke-width:0.25;"/>
        <!-- Line -->
        <path d="M110.54267032066689,71.76380819229003 L110.54267032066689,23.76380819229003 " style="stroke:#ff0000;stroke-width:0.25;"/>
        <!-- Line -->
        <path d="M80.54267032066689,71.76380819229003 L80.54267032066689,23.76380819229003 " style="stroke:#ff0000;stroke-width:0.25;"/>
        <!-- Line -->
        <path d="M20.54267032066689,71.76380819229003 L20.54267032066689,23.76380819229003 " style="stroke:#ff0000;stroke-width:0.25;"/>
        <!-- Line -->
        <path d="M50.542670320666886,71.76380819229003 L50.542670320666886,23.76380819229003 " style="stroke:#ff0000;stroke-width:0.25;"/>
        <!-- Line -->
        <path d="M132.5426703206669,23.76380819229004 L140.5426703206669,23.76380819229004 " style="stroke:#ff0000;stroke-width:0.25;"/>
        <!-- Line -->
        <path d="M102.54267032066689,23.76380819229004 L110.54267032066689,23.76380819229004 " style="stroke:#ff0000;stroke-width:0.25;"/>
        <!-- Line -->
        <path d="M72.54267032066689,23.76380819229004 L80.54267032066689,23.76380819229004 " style="stroke:#ff0000;stroke-width:0.25;"/>
        <!-- Line -->
        <path d="M12.54267032066689,23.76380819229004 L20.54267032066689,23.76380819229004 " style="stroke:#ff0000;stroke-width:0.25;"/>
        <!-- Line -->
        <path d="M42.542670320666886,23.76380819229004 L50.542670320666886,23.76380819229004 " style="stroke:#ff0000;stroke-width:0.25;"/>
        <!-- Line -->
        <path d="M132.5426703206669,71.76380819229003 L140.5426703206669,71.76380819229003 " style="stroke:#ff0000;stroke-width:0.25;"/>
        <!-- Line -->
        <path d="M102.54267032066689,71.76380819229003 L110.54267032066689,71.76380819229003 " style="stroke:#ff0000;stroke-width:0.25;"/>
        <!-- Line -->
        <path d="M72.54267032066689,71.76380819229003 L80.54267032066689,71.76380819229003 " style="stroke:#ff0000;stroke-width:0.25;"/>
        <!-- Line -->
        <path d="M12.54267032066689,71.76380819229003 L20.54267032066689,71.76380819229003 " style="stroke:#ff0000;stroke-width:0.25;"/>
        <!-- Line -->
        <path d="M42.542670320666886,71.76380819229003 L50.542670320666886,71.76380819229003 " style="stroke:#ff0000;stroke-width:0.25;"/>
        <!-- Line -->
        <!-- Line -->
        <!-- Line -->
        <!-- Circle -->
        <circle cx="19.54267032066689" cy="77.76380819229003" r="1.25" style="stroke:#ff0000;stroke-width:0.25;"/>
        <!-- Circle -->
        <circle cx="139.5426703206669" cy="77.76380819229003" r="1.25" style="stroke:#ff0000;stroke-width:0.25;"/>
        <!-- Circle -->
        <circle cx="109.54267032066689" cy="77.76380819229003" r="1.25" style="stroke:#ff0000;stroke-width:0.25;"/>
        <!-- Circle -->
        <circle cx="79.54267032066689" cy="77.76380819229003" r="1.25" style="stroke:#ff0000;stroke-width:0.25;"/>
        <!-- Circle -->
        <circle cx="49.542670320666886" cy="77.76380819229003" r="1.25" style="stroke:#ff0000;stroke-width:0.25;"/>
        <!-- Circle -->
        <circle cx="15.54267032066689" cy="77.76380819229003" r="1.25" style="stroke:#ff0000;stroke-width:0.25;"/>
        <!-- Circle -->
        <circle cx="135.5426703206669" cy="77.76380819229003" r="1.25" style="stroke:#ff0000;stroke-width:0.25;"/>
        <!-- Circle -->
        <circle cx="105.54267032066689" cy="77.76380819229003" r="1.25" style="stroke:#ff0000;stroke-width:0.25;"/>
        <!-- Circle -->
        <circle cx="75.54267032066689" cy="77.76380819229003" r="1.25" style="stroke:#ff0000;stroke-width:0.25;"/>
        <!-- Circle -->
        <circle cx="45.542670320666886" cy="77.76380819229003" r="1.25" style="stroke:#ff0000;stroke-width:0.25;"/>
        <!-- Line -->
        <path d="M0,100 L0,0 " style="stroke:#0000ff;stroke-width:0.25;"/>
        <!-- Line -->
        <path d="M0,0 L100,0 " style="stroke:#0000ff;stroke-width:0.25;"/>
        <!-- Line -->
        <path d="M0,100 L160,100 " style="stroke:#0000ff;stroke-width:0.25;"/>
        <!-- Line -->
        <path d="M160,0 L100,0 " style="stroke:#0000ff;stroke-width:0.25;"/>
        <!-- Line -->
        <path d="M160,100 L160,0 " style="stroke:#0000ff;stroke-width:0.25;"/>
        <!-- Line -->
        <path d="M6.542670320666879,85.76380819229001 L8.542670320666893,85.76380819229001 " style="stroke:#ff7f00;stroke-width:0.25;"/>
        <!-- Line -->
        <path d="M126.54267032066687,85.76380819229001 L128.5426703206669,85.76380819229001 " style="stroke:#ff7f00;stroke-width:0.25;"/>
        <!-- Line -->
        <path d="M96.54267032066687,85.76380819229001 L98.5426703206669,85.76380819229001 " style="stroke:#ff7f00;stroke-width:0.25;"/>
        <!-- Line -->
        <path d="M66.54267032066687,85.76380819229001 L68.5426703206669,85.76380819229001 " style="stroke:#ff7f00;stroke-width:0.25;"/>
        <!-- Line -->
        <path d="M36.54267032066688,85.76380819229001 L38.54267032066689,85.76380819229001 " style="stroke:#ff7f00;stroke-width:0.25;"/>
        <!-- Line -->
        <path d="M8.542670320666893,85.76380819229001 L8.542670320666893,8.763808192290044 " style="stroke:#ff7f00;stroke-width:0.25;"/>
        <!-- Line -->
        <path d="M128.5426703206669,85.76380819229001 L128.5426703206669,8.763808192290044 " style="stroke:#ff7f00;stroke-width:0.25;"/>
        <!-- Line -->
        <path d="M98.5426703206669,85.76380819229001 L98.5426703206669,8.763808192290044 " style="stroke:#ff7f00;stroke-width:0.25;"/>
        <!-- Line -->
        <path d="M68.5426703206669,85.76380819229001 L68.5426703206669,8.763808192290044 " style="stroke:#ff7f00;stroke-width:0.25;"/>
        <!-- Line -->
        <path d="M38.54267032066689,85.76380819229001 L38.54267032066689,8.763808192290044 " style="stroke:#ff7f00;stroke-width:0.25;"/>
        <!-- Line -->
        <path d="M8.542670320666893,8.763808192290044 L6.542670320666879,8.763808192290044 " style="stroke:#ff7f00;stroke-width:0.25;"/>
        <!-- Line -->
        <path d="M128.5426703206669,8.763808192290044 L126.54267032066687,8.763808192290044 " style="stroke:#ff7f00;stroke-width:0.25;"/>
        <!-- Line -->
        <path d="M98.5426703206669,8.763808192290044 L96.54267032066687,8.763808192290044 " style="stroke:#ff7f00;stroke-width:0.25;"/>
        <!-- Line -->
        <path d="M68.5426703206669,8.763808192290044 L66.54267032066687,8.763808192290044 " style="stroke:#ff7f00;stroke-width:0.25;"/>
        <!-- Line -->
        <path d="M38.54267032066689,8.763808192290044 L36.54267032066688,8.763808192290044 " style="stroke:#ff7f00;stroke-width:0.25;"/>
        <!-- Line -->
        <path d="M6.542670320666879,8.763808192290044 L6.542670320666879,85.76380819229001 " style="stroke:#ff7f00;stroke-width:0.25;"/>
        <!-- Line -->
        <path d="M126.54267032066687,8.763808192290044 L126.54267032066687,85.76380819229001 " style="stroke:#ff7f00;stroke-width:0.25;"/>
        <!-- Line -->
        <path d="M96.54267032066687,8.763808192290044 L96.54267032066687,85.76380819229001 " style="stroke:#ff7f00;stroke-width:0.25;"/>
        <!-- Line -->
        <path d="M66.54267032066687,8.763808192290044 L66.54267032066687,85.76380819229001 " style="stroke:#ff7f00;stroke-width:0.25;"/>
        <!-- Line -->
        <path d="M36.54267032066688,8.763808192290044 L36.54267032066688,85.76380819229001 " style="stroke:#ff7f00;stroke-width:0.25;"/>
        <!-- Line -->
        <path d="M27.54267032066689,86.26380819229001 L27.54267032066689,8.206381623036194 " style="stroke:#ff7f00;stroke-width:0.25;"/>
        <!-- Line -->
        <path d="M147.5426703206669,86.26380819229001 L147.5426703206669,8.206381623036194 " style="stroke:#ff7f00;stroke-width:0.25;"/>
        <!-- Line -->
        <path d="M117.54267032066689,86.26380819229001 L117.54267032066689,8.206381623036194 " style="stroke:#ff7f00;stroke-width:0.25;"/>
        <!-- Line -->
        <path d="M87.54267032066689,86.26380819229001 L87.54267032066689,8.206381623036194 " style="stroke:#ff7f00;stroke-width:0.25;"/>
        <!-- Line -->
        <path d="M57.542670320666886,86.26380819229001 L57.542670320666886,8.206381623036194 " style="stroke:#ff7f00;stroke-width:0.25;"/>
        <!-- Line -->
        <path d="M27.54267032066689,8.763808192290043 L27.522059510345983,8.763808192290043 " style="stroke:#ff7f00;stroke-width:0.25;"/>
        <!-- Line -->
        <path d="M147.5426703206669,8.763808192290043 L147.52205951034597,8.763808192290043 " style="stroke:#ff7f00;stroke-width:0.25;"/>
        <!-- Line -->
        <path d="M117.54267032066689,8.763808192290043 L117.52205951034598,8.763808192290043 " style="stroke:#ff7f00;stroke-width:0.25;"/>
        <!-- Line -->
        <path d="M87.54267032066689,8.763808192290043 L87.52205951034598,8.763808192290043 " style="stroke:#ff7f00;stroke-width:0.25;"/>
        <!-- Line -->
        <path d="M57.542670320666886,8.763808192290043 L57.52205951034598,8.763808192290043 " style="stroke:#ff7f00;stroke-width:0.25;"/>
        <!-- Line -->
        <path d="M25.54267032066688,10.26380819229004 L25.54267032066688,84.07451622547147 " style="stroke:#ff7f00;stroke-width:0.25;"/>
        <!-- Line -->
        <path d="M145.54267032066687,10.26380819229004 L145.54267032066687,84.07451622547147 " style="stroke:#ff7f00;stroke-width:0.25;"/>
        <!-- Line -->
        <path d="M115.54267032066687,10.26380819229004 L115.54267032066687,84.07451622547147 " style="stroke:#ff7f00;stroke-width:0.25;"/>
        <!-- Line -->
        <path d="M85.54267032066687,10.26380819229004 L85.54267032066687,84.07451622547147 " style="stroke:#ff7f00;stroke-width:0.25;"/>
        <!-- Line -->
        <path d="M55.54267032066688,10.26380819229004 L55.54267032066688,84.07451622547147 " style="stroke:#ff7f00;stroke-width:0.25;"/>
        <!-- Line -->
        <path d="M18.54267032066688,86.26380819229001 L27.549906252108883,86.26380819229001 " style="stroke:#ff7f00;stroke-width:0.25;"/>
        <!-- Line -->
        <path d="M138.54267032066687,86.26380819229001 L147.54990625210888,86.26380819229001 " style="stroke:#ff7f00;stroke-width:0.25;"/>
        <!-- Line -->
        <path d="M108.54267032066687,86.26380819229001 L117.54990625210888,86.26380819229001 " style="stroke:#ff7f00;stroke-width:0.25;"/>
        <!-- Line -->
        <path d="M78.54267032066687,86.26380819229001 L87.54990625210888,86.26380819229001 " style="stroke:#ff7f00;stroke-width:0.25;"/>
        <!-- Line -->
        <path d="M48.54267032066688,86.26380819229001 L57.54990625210888,86.26380819229001 " style="stroke:#ff7f00;stroke-width:0.25;"/>
        <!-- Line -->
        <path d="M25.542670320666883,84.07451622547147 L18.54267032066688,84.07451622547147 " style="stroke:#ff7f00;stroke-width:0.25;"/>
        <!-- Line -->
        <path d="M27.549906252108883,84.07451622547147 L27.54267032066689,84.07451622547147 " style="stroke:#ff7f00;stroke-width:0.25;"/>
        <!-- Line -->
        <path d="M145.54267032066687,84.07451622547147 L138.54267032066687,84.07451622547147 " style="stroke:#ff7f00;stroke-width:0.25;"/>
        <!-- Line -->
        <path d="M147.54990625210888,84.07451622547147 L147.5426703206669,84.07451622547147 " style="stroke:#ff7f00;stroke-width:0.25;"/>
        <!-- Line -->
        <path d="M115.54267032066689,84.07451622547147 L108.54267032066687,84.07451622547147 " style="stroke:#ff7f00;stroke-width:0.25;"/>
        <!-- Line -->
        <path d="M117.54990625210888,84.07451622547147 L117.54267032066689,84.07451622547147 " style="stroke:#ff7f00;stroke-width:0.25;"/>
        <!-- Line -->
        <path d="M87.54990625210888,84.07451622547147 L87.54267032066689,84.07451622547147 " style="stroke:#ff7f00;stroke-width:0.25;"/>
        <!-- Line -->
        <path d="M85.54267032066689,84.07451622547147 L78.54267032066687,84.07451622547147 " style="stroke:#ff7f00;stroke-width:0.25;"/>
        <!-- Line -->
        <path d="M55.542670320666886,84.07451622547147 L48.54267032066688,84.07451622547147 " style="stroke:#ff7f00;stroke-width:0.25;"/>
        <!-- Line -->
        <path d="M57.54990625210888,84.07451622547147 L57.542670320666886,84.07451622547147 " style="stroke:#ff7f00;stroke-width:0.25;"/>
        <!-- Line -->
        <path d="M18.54267032066688,84.07451622547147 L18.54267032066688,86.26380819229001 " style="stroke:#ff7f00;stroke-width:0.25;"/>
        <!-- Line -->
        <path d="M138.54267032066687,84.07451622547147 L138.54267032066687,86.26380819229001 " style="stroke:#ff7f00;stroke-width:0.25;"/>
        <!-- Line -->
        <path d="M108.54267032066687,84.07451622547147 L108.54267032066687,86.26380819229001 " style="stroke:#ff7f00;stroke-width:0.25;"/>
        <!-- Line -->
        <path d="M78.54267032066687,84.07451622547147 L78.54267032066687,86.26380819229001 " style="stroke:#ff7f00;stroke-width:0.25;"/>
        <!-- Line -->
        <path d="M48.54267032066688,84.07451622547147 L48.54267032066688,86.26380819229001 " style="stroke:#ff7f00;stroke-width:0.25;"/>
        <!-- Line -->
        <path d="M18.54267032066689,10.26380819229004 L25.542670320666883,10.26380819229004 " style="stroke:#ff7f00;stroke-width:0.25;"/>
        <!-- Line -->
        <path d="M138.5426703206669,10.26380819229004 L145.54267032066687,10.26380819229004 " style="stroke:#ff7f00;stroke-width:0.25;"/>
        <!-- Line -->
        <path d="M108.54267032066689,10.26380819229004 L115.54267032066689,10.26380819229004 " style="stroke:#ff7f00;stroke-width:0.25;"/>
        <!-- Line -->
        <path d="M78.54267032066689,10.26380819229004 L85.54267032066689,10.26380819229004 " style="stroke:#ff7f00;stroke-width:0.25;"/>
        <!-- Line -->
        <path d="M48.542670320666886,10.26380819229004 L55.542670320666886,10.26380819229004 " style="stroke:#ff7f00;stroke-width:0.25;"/>
        <!-- Line -->
        <path d="M27.522059510345986,8.206381623036194 L18.54267032066689,8.206381623036194 " style="stroke:#ff7f00;stroke-width:0.25;"/>
        <!-- Line -->
        <path d="M147.522059510346,8.206381623036194 L138.5426703206669,8.206381623036194 " style="stroke:#ff7f00;stroke-width:0.25;"/>
        <!-- Line -->
        <path d="M117.52205951034598,8.206381623036194 L108.54267032066689,8.206381623036194 " style="stroke:#ff7f00;stroke-width:0.25;"/>
        <!-- Line -->
        <path d="M87.52205951034598,8.206381623036194 L78.54267032066689,8.206381623036194 " style="stroke:#ff7f00;stroke-width:0.25;"/>
        <!-- Line -->
        <path d="M57.52205951034598,8.206381623036194 L48.542670320666886,8.206381623036194 " style="stroke:#ff7f00;stroke-width:0.25;"/>
        <!-- Line -->
        <path d="M18.54267032066689,8.206381623036194 L18.54267032066689,10.26380819229004 " style="stroke:#ff7f00;stroke-width:0.25;"/>
        <!-- Line -->
        <path d="M138.5426703206669,8.206381623036194 L138.5426703206669,10.26380819229004 " style="stroke:#ff7f00;stroke-width:0.25;"/>
        <!-- Line -->
        <path d="M108.54267032066689,8.206381623036194 L108.54267032066689,10.26380819229004 " style="stroke:#ff7f00;stroke-width:0.25;"/>
        <!-- Line -->
        <path d="M78.54267032066689,8.206381623036194 L78.54267032066689,10.26380819229004 " style="stroke:#ff7f00;stroke-width:0.25;"/>
        <!-- Line -->
        <path d="M48.542670320666886,8.206381623036194 L48.542670320666886,10.26380819229004 " style="stroke:#ff7f00;stroke-width:0.25;"/>
    </g>
</svg>
