G04 #@! TF.FileFunction,Copper,L2,Bot,Signal*
%FSLAX46Y46*%
G04 Gerber Fmt 4.6, Leading zero omitted, Abs format (unit mm)*
G04 Created by KiCad (PCBNEW 4.0.7-e2-6376~58~ubuntu16.04.1) date Mon Jun 25 07:50:44 2018*
%MOMM*%
%LPD*%
G01*
G04 APERTURE LIST*
%ADD10C,0.100000*%
%ADD11R,3.500000X1.600000*%
%ADD12R,3.200000X1.500000*%
%ADD13R,1.600000X2.000000*%
%ADD14R,2.000000X1.700000*%
%ADD15O,2.032000X2.540000*%
%ADD16R,1.700000X1.700000*%
%ADD17O,1.700000X1.700000*%
%ADD18R,2.200000X1.800000*%
%ADD19R,1.300000X0.300000*%
%ADD20C,0.250000*%
G04 APERTURE END LIST*
D10*
D11*
X167300000Y-94050000D03*
X172700000Y-94050000D03*
D12*
X168800000Y-84700000D03*
X172800000Y-84700000D03*
X168800000Y-87900000D03*
X172800000Y-87900000D03*
D13*
X177000000Y-92000000D03*
X177000000Y-96000000D03*
D14*
X169000000Y-51000000D03*
X173000000Y-51000000D03*
D15*
X171000000Y-102000000D03*
X173540000Y-102000000D03*
X168460000Y-102000000D03*
D16*
X178000000Y-64000000D03*
D17*
X178000000Y-66540000D03*
X178000000Y-69080000D03*
X178000000Y-71620000D03*
X178000000Y-74160000D03*
X178000000Y-76700000D03*
X178000000Y-79240000D03*
X178000000Y-81780000D03*
X178000000Y-84320000D03*
X178000000Y-86860000D03*
D18*
X170010000Y-81060000D03*
X170010000Y-64760000D03*
D19*
X173260000Y-66660000D03*
X173260000Y-67160000D03*
X173260000Y-67660000D03*
X173260000Y-68160000D03*
X173260000Y-68660000D03*
X173260000Y-69160000D03*
X173260000Y-69660000D03*
X173260000Y-70160000D03*
X173260000Y-70660000D03*
X173260000Y-71160000D03*
X173260000Y-71660000D03*
X173260000Y-72160000D03*
X173260000Y-72660000D03*
X173260000Y-73160000D03*
X173260000Y-73660000D03*
X173260000Y-74160000D03*
X173260000Y-74660000D03*
X173260000Y-75160000D03*
X173260000Y-75660000D03*
X173260000Y-76160000D03*
X173260000Y-76660000D03*
X173260000Y-77160000D03*
X173260000Y-77660000D03*
X173260000Y-78160000D03*
X173260000Y-78660000D03*
X173260000Y-79160000D03*
D20*
X173260000Y-78660000D02*
X172284700Y-78660000D01*
X173260000Y-67160000D02*
X172284700Y-67160000D01*
X172159800Y-78784900D02*
X172109800Y-78784900D01*
X172284700Y-78660000D02*
X172159800Y-78784900D01*
X172284700Y-54134700D02*
X172284700Y-67160000D01*
X170325400Y-52175400D02*
X172284700Y-54134700D01*
X170325400Y-49957400D02*
X170325400Y-52175400D01*
X170192600Y-49824600D02*
X170325400Y-49957400D01*
X167826200Y-49824600D02*
X170192600Y-49824600D01*
X167674600Y-49976200D02*
X167826200Y-49824600D01*
X167674600Y-74349700D02*
X167674600Y-49976200D01*
X172109800Y-78784900D02*
X167674600Y-74349700D01*
X169937400Y-83624700D02*
X168800000Y-83624700D01*
X172109800Y-81452300D02*
X169937400Y-83624700D01*
X172109800Y-78784900D02*
X172109800Y-81452300D01*
X168800000Y-84700000D02*
X168800000Y-83624700D01*
X168800000Y-84700000D02*
X168800000Y-85775300D01*
X167300000Y-95760000D02*
X167300000Y-94050000D01*
X173540000Y-102000000D02*
X167300000Y-95760000D01*
X169505700Y-85775300D02*
X168800000Y-85775300D01*
X170725400Y-86995000D02*
X169505700Y-85775300D01*
X170725400Y-89499300D02*
X170725400Y-86995000D01*
X167300000Y-92924700D02*
X170725400Y-89499300D01*
X167300000Y-94050000D02*
X167300000Y-92924700D01*
X178000000Y-64000000D02*
X178000000Y-62824700D01*
X173260000Y-75160000D02*
X172284700Y-75160000D01*
X173260000Y-76160000D02*
X173044400Y-76160000D01*
X173044400Y-76160000D02*
X172428200Y-76160000D01*
X172284700Y-76303500D02*
X172284700Y-77660000D01*
X172428200Y-76160000D02*
X172284700Y-76303500D01*
X173260000Y-75660000D02*
X172397300Y-75660000D01*
X172397300Y-76129100D02*
X172397300Y-75660000D01*
X172428200Y-76160000D02*
X172397300Y-76129100D01*
X173747700Y-70160000D02*
X173747700Y-69660000D01*
X173260000Y-70160000D02*
X173747700Y-70160000D01*
X172772400Y-77660000D02*
X172284700Y-77660000D01*
X172772400Y-77660000D02*
X173260000Y-77660000D01*
X173260000Y-77660000D02*
X174235300Y-77660000D01*
X172800000Y-84700000D02*
X172800000Y-83624700D01*
X173260000Y-70660000D02*
X172772400Y-70660000D01*
X173260000Y-70160000D02*
X172284700Y-70160000D01*
X174235300Y-82189400D02*
X174235300Y-77660000D01*
X172800000Y-83624700D02*
X174235300Y-82189400D01*
X178000000Y-57175300D02*
X173000000Y-52175300D01*
X178000000Y-62824700D02*
X178000000Y-57175300D01*
X173000000Y-51000000D02*
X173000000Y-52175300D01*
X172284700Y-75547400D02*
X172284700Y-75160000D01*
X172397300Y-75660000D02*
X172284700Y-75547400D01*
X172284700Y-75160000D02*
X172284700Y-73160000D01*
X173260000Y-73160000D02*
X172772400Y-73160000D01*
X173260000Y-72660000D02*
X172284700Y-72660000D01*
X172428200Y-73160000D02*
X172284700Y-73160000D01*
X172772400Y-73160000D02*
X172428200Y-73160000D01*
X172284700Y-73016500D02*
X172284700Y-72660000D01*
X172428200Y-73160000D02*
X172284700Y-73016500D01*
X172284700Y-70803500D02*
X172428200Y-70660000D01*
X172284700Y-72660000D02*
X172284700Y-70803500D01*
X172772400Y-70660000D02*
X172428200Y-70660000D01*
X172284700Y-70516500D02*
X172284700Y-70160000D01*
X172428200Y-70660000D02*
X172284700Y-70516500D01*
X177398200Y-65175300D02*
X178000000Y-65175300D01*
X174413500Y-68160000D02*
X177398200Y-65175300D01*
X174235300Y-68160000D02*
X174413500Y-68160000D01*
X178000000Y-64000000D02*
X178000000Y-65175300D01*
X172800000Y-84700000D02*
X172800000Y-87900000D01*
X172800000Y-92824700D02*
X172700000Y-92924700D01*
X172800000Y-87900000D02*
X172800000Y-92824700D01*
X172700000Y-94050000D02*
X172700000Y-93575000D01*
X172700000Y-93575000D02*
X172700000Y-92924700D01*
X177000000Y-96000000D02*
X175874700Y-96000000D01*
X175349800Y-96000000D02*
X175874700Y-96000000D01*
X172924800Y-93575000D02*
X175349800Y-96000000D01*
X172700000Y-93575000D02*
X172924800Y-93575000D01*
X172632100Y-103632100D02*
X171000000Y-102000000D01*
X174085400Y-103632100D02*
X172632100Y-103632100D01*
X175349800Y-102367700D02*
X174085400Y-103632100D01*
X175349800Y-96000000D02*
X175349800Y-102367700D01*
X173747700Y-68660000D02*
X173747700Y-68160000D01*
X173260000Y-68660000D02*
X173747700Y-68660000D01*
X173260000Y-68160000D02*
X173747700Y-68160000D01*
X173747700Y-68160000D02*
X174235300Y-68160000D01*
X173260000Y-69660000D02*
X173503900Y-69660000D01*
X173503900Y-69660000D02*
X173747700Y-69660000D01*
X174235300Y-69516500D02*
X174235300Y-69160000D01*
X174091800Y-69660000D02*
X174235300Y-69516500D01*
X173747700Y-69660000D02*
X174091800Y-69660000D01*
X173747700Y-69160000D02*
X173747700Y-68660000D01*
X173260000Y-69160000D02*
X173747700Y-69160000D01*
X173747700Y-69160000D02*
X174235300Y-69160000D01*
X168094300Y-86824700D02*
X168800000Y-86824700D01*
X166874600Y-85605000D02*
X168094300Y-86824700D01*
X166874600Y-50067100D02*
X166874600Y-85605000D01*
X167616800Y-49324900D02*
X166874600Y-50067100D01*
X170330400Y-49324900D02*
X167616800Y-49324900D01*
X170883300Y-49877800D02*
X170330400Y-49324900D01*
X170883300Y-51899500D02*
X170883300Y-49877800D01*
X174235300Y-55251500D02*
X170883300Y-51899500D01*
X174235300Y-67660000D02*
X174235300Y-55251500D01*
X173260000Y-67660000D02*
X174235300Y-67660000D01*
X168800000Y-87900000D02*
X168800000Y-86824700D01*
X173260000Y-77160000D02*
X174235300Y-77160000D01*
X173260000Y-76660000D02*
X174235300Y-76660000D01*
X174235300Y-77160000D02*
X174235300Y-76660000D01*
X177632600Y-83144700D02*
X178000000Y-83144700D01*
X176824700Y-82336800D02*
X177632600Y-83144700D01*
X176824700Y-79499400D02*
X176824700Y-82336800D01*
X174485300Y-77160000D02*
X176824700Y-79499400D01*
X174235300Y-77160000D02*
X174485300Y-77160000D01*
X178000000Y-84320000D02*
X178000000Y-83732300D01*
X178000000Y-83732300D02*
X178000000Y-83144700D01*
X176805300Y-90480000D02*
X177000000Y-90674700D01*
X176805300Y-84927000D02*
X176805300Y-90480000D01*
X178000000Y-83732300D02*
X176805300Y-84927000D01*
X177000000Y-92000000D02*
X177000000Y-90674700D01*
X177537300Y-67715300D02*
X178000000Y-67715300D01*
X174235300Y-71017300D02*
X177537300Y-67715300D01*
X174235300Y-71444800D02*
X174235300Y-71017300D01*
X174020100Y-71660000D02*
X174235300Y-71444800D01*
X173260000Y-71660000D02*
X174020100Y-71660000D01*
X178000000Y-66540000D02*
X178000000Y-67715300D01*
X178000000Y-69080000D02*
X176824700Y-69080000D01*
X173260000Y-72160000D02*
X174235300Y-72160000D01*
X176824700Y-69570600D02*
X176824700Y-69080000D01*
X174235300Y-72160000D02*
X176824700Y-69570600D01*
X174235300Y-74747500D02*
X174235300Y-74660000D01*
X177391400Y-77903600D02*
X174235300Y-74747500D01*
X178479800Y-77903600D02*
X177391400Y-77903600D01*
X179177600Y-77205800D02*
X178479800Y-77903600D01*
X179177600Y-73605600D02*
X179177600Y-77205800D01*
X178367300Y-72795300D02*
X179177600Y-73605600D01*
X178000000Y-72795300D02*
X178367300Y-72795300D01*
X178000000Y-71620000D02*
X178000000Y-72795300D01*
X173260000Y-74660000D02*
X174235300Y-74660000D01*
X176324700Y-73660000D02*
X173260000Y-73660000D01*
X176824700Y-74160000D02*
X176324700Y-73660000D01*
X178000000Y-74160000D02*
X176824700Y-74160000D01*
X178000000Y-76700000D02*
X176824700Y-76700000D01*
X174444000Y-74160000D02*
X173260000Y-74160000D01*
X176824700Y-76540700D02*
X174444000Y-74160000D01*
X176824700Y-76700000D02*
X176824700Y-76540700D01*
X169000000Y-51000000D02*
X169000000Y-52175300D01*
X172139100Y-78160000D02*
X173260000Y-78160000D01*
X171620100Y-77641000D02*
X172139100Y-78160000D01*
X171620100Y-54795400D02*
X171620100Y-77641000D01*
X169000000Y-52175300D02*
X171620100Y-54795400D01*
M02*
