G04 #@! TF.FileFunction,Legend,Bot*
%FSLAX46Y46*%
G04 Gerber Fmt 4.6, Leading zero omitted, Abs format (unit mm)*
G04 Created by KiCad (PCBNEW 4.0.7-e2-6376~58~ubuntu16.04.1) date Mon Jun 25 07:50:44 2018*
%MOMM*%
%LPD*%
G01*
G04 APERTURE LIST*
%ADD10C,0.100000*%
%ADD11C,0.120000*%
%ADD12C,0.150000*%
G04 APERTURE END LIST*
D10*
D11*
X173300000Y-90750000D02*
X173300000Y-92930000D01*
X173300000Y-97350000D02*
X173300000Y-95170000D01*
X166700000Y-91510000D02*
X166700000Y-92930000D01*
X166700000Y-96590000D02*
X166700000Y-95170000D01*
X173300000Y-90750000D02*
X167460000Y-90750000D01*
X167460000Y-90750000D02*
X166700000Y-91510000D01*
X166700000Y-96590000D02*
X167460000Y-97350000D01*
X167460000Y-97350000D02*
X173300000Y-97350000D01*
X166900000Y-85750000D02*
X172400000Y-85750000D01*
X166900000Y-83650000D02*
X172400000Y-83650000D01*
X166900000Y-85750000D02*
X166900000Y-83650000D01*
X166900000Y-88950000D02*
X172400000Y-88950000D01*
X166900000Y-86850000D02*
X172400000Y-86850000D01*
X166900000Y-88950000D02*
X166900000Y-86850000D01*
X175980000Y-95000000D02*
X175980000Y-93000000D01*
X178020000Y-93000000D02*
X178020000Y-95000000D01*
X172000000Y-49930000D02*
X170000000Y-49930000D01*
X170000000Y-52070000D02*
X172000000Y-52070000D01*
D12*
X175826000Y-103651000D02*
X175826000Y-100222000D01*
X166174000Y-103651000D02*
X166174000Y-100222000D01*
X176334000Y-104794000D02*
X165666000Y-104794000D01*
X172778000Y-103778000D02*
X172778000Y-105048000D01*
X169222000Y-103778000D02*
X169222000Y-105048000D01*
X165666000Y-103651000D02*
X176334000Y-103651000D01*
X176334000Y-100222000D02*
X165666000Y-100222000D01*
X165666000Y-105048000D02*
X165666000Y-100222000D01*
X176334000Y-105048000D02*
X176334000Y-100222000D01*
X176334000Y-105048000D02*
X165666000Y-105048000D01*
D11*
X172710000Y-66250000D02*
X172710000Y-64760000D01*
X172710000Y-64760000D02*
X171370000Y-64760000D01*
X172710000Y-79570000D02*
X172710000Y-81060000D01*
X172710000Y-81060000D02*
X171370000Y-81060000D01*
X168650000Y-64760000D02*
X166910000Y-64760000D01*
X166910000Y-64760000D02*
X166910000Y-81060000D01*
X166910000Y-81060000D02*
X168650000Y-81060000D01*
X172710000Y-66250000D02*
X173910000Y-66250000D01*
D12*
X170166666Y-89847143D02*
X170214285Y-89894762D01*
X170357142Y-89942381D01*
X170452380Y-89942381D01*
X170595238Y-89894762D01*
X170690476Y-89799524D01*
X170738095Y-89704286D01*
X170785714Y-89513810D01*
X170785714Y-89370952D01*
X170738095Y-89180476D01*
X170690476Y-89085238D01*
X170595238Y-88990000D01*
X170452380Y-88942381D01*
X170357142Y-88942381D01*
X170214285Y-88990000D01*
X170166666Y-89037619D01*
X169214285Y-89942381D02*
X169785714Y-89942381D01*
X169500000Y-89942381D02*
X169500000Y-88942381D01*
X169595238Y-89085238D01*
X169690476Y-89180476D01*
X169785714Y-89228095D01*
X172647619Y-99152381D02*
X173219048Y-99152381D01*
X172933334Y-99152381D02*
X172933334Y-98152381D01*
X173028572Y-98295238D01*
X173123810Y-98390476D01*
X173219048Y-98438095D01*
X172028572Y-98152381D02*
X171933333Y-98152381D01*
X171838095Y-98200000D01*
X171790476Y-98247619D01*
X171742857Y-98342857D01*
X171695238Y-98533333D01*
X171695238Y-98771429D01*
X171742857Y-98961905D01*
X171790476Y-99057143D01*
X171838095Y-99104762D01*
X171933333Y-99152381D01*
X172028572Y-99152381D01*
X172123810Y-99104762D01*
X172171429Y-99057143D01*
X172219048Y-98961905D01*
X172266667Y-98771429D01*
X172266667Y-98533333D01*
X172219048Y-98342857D01*
X172171429Y-98247619D01*
X172123810Y-98200000D01*
X172028572Y-98152381D01*
X171076191Y-98152381D02*
X170980952Y-98152381D01*
X170885714Y-98200000D01*
X170838095Y-98247619D01*
X170790476Y-98342857D01*
X170742857Y-98533333D01*
X170742857Y-98771429D01*
X170790476Y-98961905D01*
X170838095Y-99057143D01*
X170885714Y-99104762D01*
X170980952Y-99152381D01*
X171076191Y-99152381D01*
X171171429Y-99104762D01*
X171219048Y-99057143D01*
X171266667Y-98961905D01*
X171314286Y-98771429D01*
X171314286Y-98533333D01*
X171266667Y-98342857D01*
X171219048Y-98247619D01*
X171171429Y-98200000D01*
X171076191Y-98152381D01*
X169885714Y-98485714D02*
X169885714Y-99152381D01*
X170314286Y-98485714D02*
X170314286Y-99009524D01*
X170266667Y-99104762D01*
X170171429Y-99152381D01*
X170028571Y-99152381D01*
X169933333Y-99104762D01*
X169885714Y-99057143D01*
X169076190Y-98628571D02*
X169409524Y-98628571D01*
X169409524Y-99152381D02*
X169409524Y-98152381D01*
X168933333Y-98152381D01*
X166100952Y-91111429D02*
X165339047Y-91111429D01*
X165719999Y-91492381D02*
X165719999Y-90730476D01*
X165966666Y-85057143D02*
X166014285Y-85104762D01*
X166157142Y-85152381D01*
X166252380Y-85152381D01*
X166395238Y-85104762D01*
X166490476Y-85009524D01*
X166538095Y-84914286D01*
X166585714Y-84723810D01*
X166585714Y-84580952D01*
X166538095Y-84390476D01*
X166490476Y-84295238D01*
X166395238Y-84200000D01*
X166252380Y-84152381D01*
X166157142Y-84152381D01*
X166014285Y-84200000D01*
X165966666Y-84247619D01*
X165585714Y-84247619D02*
X165538095Y-84200000D01*
X165442857Y-84152381D01*
X165204761Y-84152381D01*
X165109523Y-84200000D01*
X165061904Y-84247619D01*
X165014285Y-84342857D01*
X165014285Y-84438095D01*
X165061904Y-84580952D01*
X165633333Y-85152381D01*
X165014285Y-85152381D01*
X175335714Y-83273810D02*
X176002381Y-83273810D01*
X174954762Y-83035714D02*
X175669048Y-82797619D01*
X175669048Y-83416667D01*
X175907143Y-83797619D02*
X175954762Y-83845238D01*
X176002381Y-83797619D01*
X175954762Y-83750000D01*
X175907143Y-83797619D01*
X176002381Y-83797619D01*
X175002381Y-84178571D02*
X175002381Y-84845238D01*
X176002381Y-84416666D01*
X175335714Y-85654762D02*
X176002381Y-85654762D01*
X175335714Y-85226190D02*
X175859524Y-85226190D01*
X175954762Y-85273809D01*
X176002381Y-85369047D01*
X176002381Y-85511905D01*
X175954762Y-85607143D01*
X175907143Y-85654762D01*
X165966666Y-88257143D02*
X166014285Y-88304762D01*
X166157142Y-88352381D01*
X166252380Y-88352381D01*
X166395238Y-88304762D01*
X166490476Y-88209524D01*
X166538095Y-88114286D01*
X166585714Y-87923810D01*
X166585714Y-87780952D01*
X166538095Y-87590476D01*
X166490476Y-87495238D01*
X166395238Y-87400000D01*
X166252380Y-87352381D01*
X166157142Y-87352381D01*
X166014285Y-87400000D01*
X165966666Y-87447619D01*
X165633333Y-87352381D02*
X165014285Y-87352381D01*
X165347619Y-87733333D01*
X165204761Y-87733333D01*
X165109523Y-87780952D01*
X165061904Y-87828571D01*
X165014285Y-87923810D01*
X165014285Y-88161905D01*
X165061904Y-88257143D01*
X165109523Y-88304762D01*
X165204761Y-88352381D01*
X165490476Y-88352381D01*
X165585714Y-88304762D01*
X165633333Y-88257143D01*
X175385714Y-87023810D02*
X176052381Y-87023810D01*
X175004762Y-86785714D02*
X175719048Y-86547619D01*
X175719048Y-87166667D01*
X175957143Y-87547619D02*
X176004762Y-87595238D01*
X176052381Y-87547619D01*
X176004762Y-87500000D01*
X175957143Y-87547619D01*
X176052381Y-87547619D01*
X175052381Y-87928571D02*
X175052381Y-88595238D01*
X176052381Y-88166666D01*
X175385714Y-89404762D02*
X176052381Y-89404762D01*
X175385714Y-88976190D02*
X175909524Y-88976190D01*
X176004762Y-89023809D01*
X176052381Y-89119047D01*
X176052381Y-89261905D01*
X176004762Y-89357143D01*
X175957143Y-89404762D01*
X175607143Y-93833334D02*
X175654762Y-93785715D01*
X175702381Y-93642858D01*
X175702381Y-93547620D01*
X175654762Y-93404762D01*
X175559524Y-93309524D01*
X175464286Y-93261905D01*
X175273810Y-93214286D01*
X175130952Y-93214286D01*
X174940476Y-93261905D01*
X174845238Y-93309524D01*
X174750000Y-93404762D01*
X174702381Y-93547620D01*
X174702381Y-93642858D01*
X174750000Y-93785715D01*
X174797619Y-93833334D01*
X175035714Y-94690477D02*
X175702381Y-94690477D01*
X174654762Y-94452381D02*
X175369048Y-94214286D01*
X175369048Y-94833334D01*
X179357143Y-93071429D02*
X179404762Y-93119048D01*
X179452381Y-93071429D01*
X179404762Y-93023810D01*
X179357143Y-93071429D01*
X179452381Y-93071429D01*
X179452381Y-94071429D02*
X179452381Y-93500000D01*
X179452381Y-93785714D02*
X178452381Y-93785714D01*
X178595238Y-93690476D01*
X178690476Y-93595238D01*
X178738095Y-93500000D01*
X178785714Y-94928572D02*
X179452381Y-94928572D01*
X178785714Y-94500000D02*
X179309524Y-94500000D01*
X179404762Y-94547619D01*
X179452381Y-94642857D01*
X179452381Y-94785715D01*
X179404762Y-94880953D01*
X179357143Y-94928572D01*
X171166666Y-53302381D02*
X171500000Y-52826190D01*
X171738095Y-53302381D02*
X171738095Y-52302381D01*
X171357142Y-52302381D01*
X171261904Y-52350000D01*
X171214285Y-52397619D01*
X171166666Y-52492857D01*
X171166666Y-52635714D01*
X171214285Y-52730952D01*
X171261904Y-52778571D01*
X171357142Y-52826190D01*
X171738095Y-52826190D01*
X170833333Y-52302381D02*
X170214285Y-52302381D01*
X170547619Y-52683333D01*
X170404761Y-52683333D01*
X170309523Y-52730952D01*
X170261904Y-52778571D01*
X170214285Y-52873810D01*
X170214285Y-53111905D01*
X170261904Y-53207143D01*
X170309523Y-53254762D01*
X170404761Y-53302381D01*
X170690476Y-53302381D01*
X170785714Y-53254762D01*
X170833333Y-53207143D01*
X172166666Y-48552381D02*
X172357143Y-48552381D01*
X172452381Y-48600000D01*
X172500000Y-48647619D01*
X172595238Y-48790476D01*
X172642857Y-48980952D01*
X172642857Y-49361905D01*
X172595238Y-49457143D01*
X172547619Y-49504762D01*
X172452381Y-49552381D01*
X172261904Y-49552381D01*
X172166666Y-49504762D01*
X172119047Y-49457143D01*
X172071428Y-49361905D01*
X172071428Y-49123810D01*
X172119047Y-49028571D01*
X172166666Y-48980952D01*
X172261904Y-48933333D01*
X172452381Y-48933333D01*
X172547619Y-48980952D01*
X172595238Y-49028571D01*
X172642857Y-49123810D01*
X171500000Y-48980952D02*
X171595238Y-48933333D01*
X171642857Y-48885714D01*
X171690476Y-48790476D01*
X171690476Y-48742857D01*
X171642857Y-48647619D01*
X171595238Y-48600000D01*
X171500000Y-48552381D01*
X171309523Y-48552381D01*
X171214285Y-48600000D01*
X171166666Y-48647619D01*
X171119047Y-48742857D01*
X171119047Y-48790476D01*
X171166666Y-48885714D01*
X171214285Y-48933333D01*
X171309523Y-48980952D01*
X171500000Y-48980952D01*
X171595238Y-49028571D01*
X171642857Y-49076190D01*
X171690476Y-49171429D01*
X171690476Y-49361905D01*
X171642857Y-49457143D01*
X171595238Y-49504762D01*
X171500000Y-49552381D01*
X171309523Y-49552381D01*
X171214285Y-49504762D01*
X171166666Y-49457143D01*
X171119047Y-49361905D01*
X171119047Y-49171429D01*
X171166666Y-49076190D01*
X171214285Y-49028571D01*
X171309523Y-48980952D01*
X170500000Y-48552381D02*
X170404761Y-48552381D01*
X170309523Y-48600000D01*
X170261904Y-48647619D01*
X170214285Y-48742857D01*
X170166666Y-48933333D01*
X170166666Y-49171429D01*
X170214285Y-49361905D01*
X170261904Y-49457143D01*
X170309523Y-49504762D01*
X170404761Y-49552381D01*
X170500000Y-49552381D01*
X170595238Y-49504762D01*
X170642857Y-49457143D01*
X170690476Y-49361905D01*
X170738095Y-49171429D01*
X170738095Y-48933333D01*
X170690476Y-48742857D01*
X170642857Y-48647619D01*
X170595238Y-48600000D01*
X170500000Y-48552381D01*
X169738095Y-49552381D02*
X169738095Y-48552381D01*
X169642857Y-49171429D02*
X169357142Y-49552381D01*
X169357142Y-48885714D02*
X169738095Y-49266667D01*
X178761905Y-102452381D02*
X178761905Y-103261905D01*
X178714286Y-103357143D01*
X178666667Y-103404762D01*
X178571429Y-103452381D01*
X178380952Y-103452381D01*
X178285714Y-103404762D01*
X178238095Y-103357143D01*
X178190476Y-103261905D01*
X178190476Y-102452381D01*
X177190476Y-103452381D02*
X177761905Y-103452381D01*
X177476191Y-103452381D02*
X177476191Y-102452381D01*
X177571429Y-102595238D01*
X177666667Y-102690476D01*
X177761905Y-102738095D01*
X174562381Y-72576667D02*
X175276667Y-72576667D01*
X175419524Y-72529047D01*
X175514762Y-72433809D01*
X175562381Y-72290952D01*
X175562381Y-72195714D01*
X174657619Y-73005238D02*
X174610000Y-73052857D01*
X174562381Y-73148095D01*
X174562381Y-73386191D01*
X174610000Y-73481429D01*
X174657619Y-73529048D01*
X174752857Y-73576667D01*
X174848095Y-73576667D01*
X174990952Y-73529048D01*
X175562381Y-72957619D01*
X175562381Y-73576667D01*
M02*
