G04 #@! TF.FileFunction,Copper,L2,Bot,Signal*
%FSLAX46Y46*%
G04 Gerber Fmt 4.6, Leading zero omitted, Abs format (unit mm)*
G04 Created by KiCad (PCBNEW 4.0.7-e2-6376~58~ubuntu16.04.1) date Tue Jun 26 14:16:29 2018*
%MOMM*%
%LPD*%
G01*
G04 APERTURE LIST*
%ADD10C,0.100000*%
%ADD11R,3.500000X1.600000*%
%ADD12R,3.200000X1.500000*%
%ADD13R,2.000000X1.600000*%
%ADD14R,2.000000X1.700000*%
%ADD15O,2.032000X2.540000*%
%ADD16R,1.700000X1.700000*%
%ADD17O,1.700000X1.700000*%
%ADD18R,2.200000X1.800000*%
%ADD19R,1.300000X0.300000*%
%ADD20C,0.600000*%
%ADD21C,0.250000*%
G04 APERTURE END LIST*
D10*
D11*
X169500000Y-51600000D03*
X174900000Y-51600000D03*
D12*
X168400000Y-86700000D03*
X172400000Y-86700000D03*
X168700000Y-90700000D03*
X172700000Y-90700000D03*
D13*
X168600000Y-96300000D03*
X172600000Y-96300000D03*
D14*
X169400000Y-59500000D03*
X173400000Y-59500000D03*
D15*
X172000000Y-42200000D03*
X174540000Y-42200000D03*
X169460000Y-42200000D03*
D16*
X178300000Y-88400000D03*
D17*
X178300000Y-85860000D03*
X178300000Y-83320000D03*
X178300000Y-80780000D03*
X178300000Y-78240000D03*
X178300000Y-75700000D03*
X178300000Y-73160000D03*
X178300000Y-70620000D03*
X178300000Y-68080000D03*
X178300000Y-65540000D03*
D18*
X170000000Y-82880000D03*
X170000000Y-66580000D03*
D19*
X173250000Y-68480000D03*
X173250000Y-68980000D03*
X173250000Y-69480000D03*
X173250000Y-69980000D03*
X173250000Y-70480000D03*
X173250000Y-70980000D03*
X173250000Y-71480000D03*
X173250000Y-71980000D03*
X173250000Y-72480000D03*
X173250000Y-72980000D03*
X173250000Y-73480000D03*
X173250000Y-73980000D03*
X173250000Y-74480000D03*
X173250000Y-74980000D03*
X173250000Y-75480000D03*
X173250000Y-75980000D03*
X173250000Y-76480000D03*
X173250000Y-76980000D03*
X173250000Y-77480000D03*
X173250000Y-77980000D03*
X173250000Y-78480000D03*
X173250000Y-78980000D03*
X173250000Y-79480000D03*
X173250000Y-79980000D03*
X173250000Y-80480000D03*
X173250000Y-80980000D03*
D20*
X168700100Y-88509600D03*
X171373400Y-70381300D03*
X174879100Y-73973300D03*
X174463800Y-75068400D03*
X172095700Y-75214300D03*
D21*
X173250000Y-68980000D02*
X172274700Y-68980000D01*
X170325300Y-85029600D02*
X170325300Y-86700000D01*
X172274700Y-83080200D02*
X170325300Y-85029600D01*
X172274700Y-80480000D02*
X172274700Y-83080200D01*
X173250000Y-80480000D02*
X172274700Y-80480000D01*
X168400000Y-86700000D02*
X170325300Y-86700000D01*
X169496600Y-52728700D02*
X169500000Y-52725300D01*
X169496600Y-57240100D02*
X169496600Y-52728700D01*
X171957300Y-80480000D02*
X172274700Y-80480000D01*
X168074600Y-76597300D02*
X171957300Y-80480000D01*
X168074600Y-58484200D02*
X168074600Y-76597300D01*
X169318700Y-57240100D02*
X168074600Y-58484200D01*
X169496600Y-57240100D02*
X169318700Y-57240100D01*
X172020600Y-59764100D02*
X169496600Y-57240100D01*
X172020600Y-68725900D02*
X172020600Y-59764100D01*
X172274700Y-68980000D02*
X172020600Y-68725900D01*
X169500000Y-52162600D02*
X169500000Y-52725300D01*
X169500000Y-52162600D02*
X169500000Y-51600000D01*
X169500000Y-47240000D02*
X174540000Y-42200000D01*
X169500000Y-51600000D02*
X169500000Y-47240000D01*
X173250000Y-71980000D02*
X174225300Y-71980000D01*
X174225300Y-71605000D02*
X174100300Y-71480000D01*
X174225300Y-71980000D02*
X174225300Y-71605000D01*
X174081800Y-71480000D02*
X174100300Y-71480000D01*
X173250000Y-71980000D02*
X172762400Y-71980000D01*
X173250000Y-72480000D02*
X172405700Y-72480000D01*
X172405700Y-72336700D02*
X172762400Y-71980000D01*
X172405700Y-72480000D02*
X172405700Y-72336700D01*
X173250000Y-74980000D02*
X173250000Y-74480000D01*
X173250000Y-69980000D02*
X173750200Y-69980000D01*
X173250000Y-71480000D02*
X173462600Y-71480000D01*
X173462600Y-71480000D02*
X174081800Y-71480000D01*
X174225300Y-71336500D02*
X174225300Y-70980000D01*
X174081800Y-71480000D02*
X174225300Y-71336500D01*
X173250000Y-70980000D02*
X173737700Y-70980000D01*
X173737700Y-70980000D02*
X174225300Y-70980000D01*
X173250000Y-70480000D02*
X173737700Y-70480000D01*
X173737700Y-70980000D02*
X173737700Y-70480000D01*
X173400000Y-59500000D02*
X173400000Y-60675300D01*
X173750200Y-70467500D02*
X173750200Y-69980000D01*
X173737700Y-70480000D02*
X173750200Y-70467500D01*
X173400000Y-59500000D02*
X173400000Y-58324700D01*
X174236400Y-61511700D02*
X173400000Y-60675300D01*
X174236400Y-69774100D02*
X174236400Y-61511700D01*
X174030500Y-69980000D02*
X174236400Y-69774100D01*
X173750200Y-69980000D02*
X174030500Y-69980000D01*
X174900000Y-56824700D02*
X174900000Y-51600000D01*
X173400000Y-58324700D02*
X174900000Y-56824700D01*
X173597200Y-40602800D02*
X172000000Y-42200000D01*
X175104100Y-40602800D02*
X173597200Y-40602800D01*
X175906200Y-41404900D02*
X175104100Y-40602800D01*
X175906200Y-49468500D02*
X175906200Y-41404900D01*
X174900000Y-50474700D02*
X175906200Y-49468500D01*
X174900000Y-51600000D02*
X174900000Y-50474700D01*
X172400000Y-89324700D02*
X172700000Y-89624700D01*
X172400000Y-86700000D02*
X172400000Y-89324700D01*
X172600000Y-96300000D02*
X172600000Y-95174700D01*
X172700000Y-95074700D02*
X172600000Y-95174700D01*
X172700000Y-90700000D02*
X172700000Y-95074700D01*
X172700000Y-90700000D02*
X172700000Y-90162300D01*
X172700000Y-90162300D02*
X172700000Y-89624700D01*
X175362400Y-90162300D02*
X177124700Y-88400000D01*
X172700000Y-90162300D02*
X175362400Y-90162300D01*
X178300000Y-88400000D02*
X177124700Y-88400000D01*
X174225300Y-83799400D02*
X172400000Y-85624700D01*
X174225300Y-79480000D02*
X174225300Y-83799400D01*
X172400000Y-86700000D02*
X172400000Y-85624700D01*
X173625100Y-79480000D02*
X174225300Y-79480000D01*
X173250000Y-74480000D02*
X172387300Y-74480000D01*
X172387300Y-74480000D02*
X172274600Y-74480000D01*
X171457000Y-76162300D02*
X172274700Y-76980000D01*
X171457000Y-74959900D02*
X171457000Y-76162300D01*
X171936900Y-74480000D02*
X171457000Y-74959900D01*
X172274600Y-74480000D02*
X171936900Y-74480000D01*
X172274600Y-72611100D02*
X172405700Y-72480000D01*
X172274600Y-74480000D02*
X172274600Y-72611100D01*
X173250000Y-77980000D02*
X172762400Y-77980000D01*
X173250000Y-77480000D02*
X172762300Y-77480000D01*
X172762300Y-77480000D02*
X172274700Y-77480000D01*
X172749800Y-77467500D02*
X172749800Y-76980000D01*
X172762300Y-77480000D02*
X172749800Y-77467500D01*
X173250000Y-76980000D02*
X172749800Y-76980000D01*
X172749800Y-76980000D02*
X172274700Y-76980000D01*
X173625100Y-79480000D02*
X173250000Y-79480000D01*
X173250000Y-79480000D02*
X172274700Y-79480000D01*
X172274700Y-78123500D02*
X172418200Y-77980000D01*
X172274700Y-79480000D02*
X172274700Y-78123500D01*
X172762400Y-77980000D02*
X172418200Y-77980000D01*
X172274700Y-77836500D02*
X172274700Y-77480000D01*
X172418200Y-77980000D02*
X172274700Y-77836500D01*
X168700100Y-89624700D02*
X168700100Y-88509600D01*
X168700000Y-89624700D02*
X168700100Y-89624700D01*
X173250000Y-69480000D02*
X172274700Y-69480000D01*
X168700000Y-90700000D02*
X168700000Y-89624700D01*
X172274700Y-69480000D02*
X171373400Y-70381300D01*
X173250000Y-78980000D02*
X174225300Y-78980000D01*
X173250000Y-78480000D02*
X174225300Y-78480000D01*
X178300000Y-68080000D02*
X178300000Y-69255300D01*
X174225300Y-78980000D02*
X174225300Y-78480000D01*
X168600000Y-96300000D02*
X168600000Y-97425300D01*
X173804900Y-97425300D02*
X168600000Y-97425300D01*
X179475400Y-91754800D02*
X173804900Y-97425300D01*
X179475400Y-82592700D02*
X179475400Y-91754800D01*
X178842200Y-81959500D02*
X179475400Y-82592700D01*
X177454800Y-81959500D02*
X178842200Y-81959500D01*
X174475300Y-78980000D02*
X177454800Y-81959500D01*
X174225300Y-78980000D02*
X174475300Y-78980000D01*
X178667400Y-69255300D02*
X178300000Y-69255300D01*
X179475300Y-70063200D02*
X178667400Y-69255300D01*
X179475300Y-81326400D02*
X179475300Y-70063200D01*
X178842200Y-81959500D02*
X179475300Y-81326400D01*
X174385800Y-73480000D02*
X174879100Y-73973300D01*
X173250000Y-73480000D02*
X174385800Y-73480000D01*
X174225300Y-74829900D02*
X174463800Y-75068400D01*
X174225300Y-73980000D02*
X174225300Y-74829900D01*
X173250000Y-73980000D02*
X174225300Y-73980000D01*
X177350000Y-79604700D02*
X178300000Y-79604700D01*
X174225300Y-76480000D02*
X177350000Y-79604700D01*
X173250000Y-76480000D02*
X174225300Y-76480000D01*
X178300000Y-80780000D02*
X178300000Y-79604700D01*
X172274700Y-75393300D02*
X172095700Y-75214300D01*
X172274700Y-75480000D02*
X172274700Y-75393300D01*
X173250000Y-75480000D02*
X172274700Y-75480000D01*
X176844700Y-75980000D02*
X177124700Y-75700000D01*
X173250000Y-75980000D02*
X176844700Y-75980000D01*
X178300000Y-75700000D02*
X177124700Y-75700000D01*
X173250000Y-79980000D02*
X172274700Y-79980000D01*
X169400000Y-59500000D02*
X169400000Y-60675300D01*
X171426100Y-62701400D02*
X169400000Y-60675300D01*
X171426100Y-69351200D02*
X171426100Y-62701400D01*
X170743200Y-70034100D02*
X171426100Y-69351200D01*
X170743200Y-78617600D02*
X170743200Y-70034100D01*
X172105600Y-79980000D02*
X170743200Y-78617600D01*
X172274700Y-79980000D02*
X172105600Y-79980000D01*
M02*
