G04 #@! TF.GenerationSoftware,KiCad,Pcbnew,5.0.2-bee76a0~70~ubuntu18.10.1*
G04 #@! TF.CreationDate,2019-08-14T12:15:04-04:00*
G04 #@! TF.ProjectId,LCD,4c43442e-6b69-4636-9164-5f7063625858,rev?*
G04 #@! TF.SameCoordinates,Original*
G04 #@! TF.FileFunction,Legend,Top*
G04 #@! TF.FilePolarity,Positive*
%FSLAX46Y46*%
G04 Gerber Fmt 4.6, Leading zero omitted, Abs format (unit mm)*
G04 Created by KiCad (PCBNEW 5.0.2-bee76a0~70~ubuntu18.10.1) date Wed 14 Aug 2019 12:15:04 PM EDT*
%MOMM*%
%LPD*%
G01*
G04 APERTURE LIST*
%ADD10C,0.300000*%
%ADD11C,0.200000*%
%ADD12C,0.120000*%
%ADD13C,0.150000*%
G04 APERTURE END LIST*
D10*
X171678571Y-76214285D02*
X171678571Y-76928571D01*
X170178571Y-76928571D01*
X171535714Y-74857142D02*
X171607142Y-74928571D01*
X171678571Y-75142857D01*
X171678571Y-75285714D01*
X171607142Y-75500000D01*
X171464285Y-75642857D01*
X171321428Y-75714285D01*
X171035714Y-75785714D01*
X170821428Y-75785714D01*
X170535714Y-75714285D01*
X170392857Y-75642857D01*
X170250000Y-75500000D01*
X170178571Y-75285714D01*
X170178571Y-75142857D01*
X170250000Y-74928571D01*
X170321428Y-74857142D01*
X171678571Y-74214285D02*
X170178571Y-74214285D01*
X170178571Y-73857142D01*
X170250000Y-73642857D01*
X170392857Y-73500000D01*
X170535714Y-73428571D01*
X170821428Y-73357142D01*
X171035714Y-73357142D01*
X171321428Y-73428571D01*
X171464285Y-73500000D01*
X171607142Y-73642857D01*
X171678571Y-73857142D01*
X171678571Y-74214285D01*
X170892857Y-71071428D02*
X170892857Y-71571428D01*
X171678571Y-71571428D02*
X170178571Y-71571428D01*
X170178571Y-70857142D01*
X171678571Y-70285714D02*
X170678571Y-70285714D01*
X170964285Y-70285714D02*
X170821428Y-70214285D01*
X170750000Y-70142857D01*
X170678571Y-70000000D01*
X170678571Y-69857142D01*
X171678571Y-69142857D02*
X171607142Y-69285714D01*
X171535714Y-69357142D01*
X171392857Y-69428571D01*
X170964285Y-69428571D01*
X170821428Y-69357142D01*
X170750000Y-69285714D01*
X170678571Y-69142857D01*
X170678571Y-68928571D01*
X170750000Y-68785714D01*
X170821428Y-68714285D01*
X170964285Y-68642857D01*
X171392857Y-68642857D01*
X171535714Y-68714285D01*
X171607142Y-68785714D01*
X171678571Y-68928571D01*
X171678571Y-69142857D01*
X170678571Y-68000000D02*
X171678571Y-68000000D01*
X170821428Y-68000000D02*
X170750000Y-67928571D01*
X170678571Y-67785714D01*
X170678571Y-67571428D01*
X170750000Y-67428571D01*
X170892857Y-67357142D01*
X171678571Y-67357142D01*
X170678571Y-66857142D02*
X170678571Y-66285714D01*
X170178571Y-66642857D02*
X171464285Y-66642857D01*
X171607142Y-66571428D01*
X171678571Y-66428571D01*
X171678571Y-66285714D01*
X171678571Y-64642857D02*
X170178571Y-64642857D01*
X170178571Y-64071428D01*
X170250000Y-63928571D01*
X170321428Y-63857142D01*
X170464285Y-63785714D01*
X170678571Y-63785714D01*
X170821428Y-63857142D01*
X170892857Y-63928571D01*
X170964285Y-64071428D01*
X170964285Y-64642857D01*
X171678571Y-62500000D02*
X170892857Y-62500000D01*
X170750000Y-62571428D01*
X170678571Y-62714285D01*
X170678571Y-63000000D01*
X170750000Y-63142857D01*
X171607142Y-62500000D02*
X171678571Y-62642857D01*
X171678571Y-63000000D01*
X171607142Y-63142857D01*
X171464285Y-63214285D01*
X171321428Y-63214285D01*
X171178571Y-63142857D01*
X171107142Y-63000000D01*
X171107142Y-62642857D01*
X171035714Y-62500000D01*
X170678571Y-61785714D02*
X171678571Y-61785714D01*
X170821428Y-61785714D02*
X170750000Y-61714285D01*
X170678571Y-61571428D01*
X170678571Y-61357142D01*
X170750000Y-61214285D01*
X170892857Y-61142857D01*
X171678571Y-61142857D01*
X171607142Y-59857142D02*
X171678571Y-60000000D01*
X171678571Y-60285714D01*
X171607142Y-60428571D01*
X171464285Y-60500000D01*
X170892857Y-60500000D01*
X170750000Y-60428571D01*
X170678571Y-60285714D01*
X170678571Y-60000000D01*
X170750000Y-59857142D01*
X170892857Y-59785714D01*
X171035714Y-59785714D01*
X171178571Y-60500000D01*
X171678571Y-58928571D02*
X171607142Y-59071428D01*
X171464285Y-59142857D01*
X170178571Y-59142857D01*
D11*
X177000000Y-100000000D02*
X165000000Y-100000000D01*
X177000000Y-48000000D02*
X177000000Y-100000000D01*
X165000000Y-48000000D02*
X177000000Y-48000000D01*
D12*
G04 #@! TO.C,D1*
X171450000Y-103000000D02*
X171450000Y-106200000D01*
X169950000Y-106200000D02*
X169950000Y-103000000D01*
X169950000Y-106200000D02*
X171450000Y-106200000D01*
G04 #@! TO.C,D2*
X175150000Y-102900000D02*
X175150000Y-106100000D01*
X173650000Y-106100000D02*
X173650000Y-102900000D01*
X173650000Y-106100000D02*
X175150000Y-106100000D01*
G04 #@! TO.C,R1*
X179670000Y-102400000D02*
X179670000Y-104400000D01*
X177530000Y-104400000D02*
X177530000Y-102400000D01*
G04 #@! TO.C,R2*
X165230000Y-104500000D02*
X165230000Y-102500000D01*
X167370000Y-102500000D02*
X167370000Y-104500000D01*
G04 #@! TO.C,D1*
D13*
X169452380Y-104738095D02*
X168452380Y-104738095D01*
X168452380Y-104500000D01*
X168500000Y-104357142D01*
X168595238Y-104261904D01*
X168690476Y-104214285D01*
X168880952Y-104166666D01*
X169023809Y-104166666D01*
X169214285Y-104214285D01*
X169309523Y-104261904D01*
X169404761Y-104357142D01*
X169452380Y-104500000D01*
X169452380Y-104738095D01*
X169452380Y-103214285D02*
X169452380Y-103785714D01*
X169452380Y-103500000D02*
X168452380Y-103500000D01*
X168595238Y-103595238D01*
X168690476Y-103690476D01*
X168738095Y-103785714D01*
G04 #@! TO.C,D2*
X173152380Y-104638095D02*
X172152380Y-104638095D01*
X172152380Y-104400000D01*
X172200000Y-104257142D01*
X172295238Y-104161904D01*
X172390476Y-104114285D01*
X172580952Y-104066666D01*
X172723809Y-104066666D01*
X172914285Y-104114285D01*
X173009523Y-104161904D01*
X173104761Y-104257142D01*
X173152380Y-104400000D01*
X173152380Y-104638095D01*
X172247619Y-103685714D02*
X172200000Y-103638095D01*
X172152380Y-103542857D01*
X172152380Y-103304761D01*
X172200000Y-103209523D01*
X172247619Y-103161904D01*
X172342857Y-103114285D01*
X172438095Y-103114285D01*
X172580952Y-103161904D01*
X173152380Y-103733333D01*
X173152380Y-103114285D01*
G04 #@! TO.C,R1*
X177202380Y-103566666D02*
X176726190Y-103900000D01*
X177202380Y-104138095D02*
X176202380Y-104138095D01*
X176202380Y-103757142D01*
X176250000Y-103661904D01*
X176297619Y-103614285D01*
X176392857Y-103566666D01*
X176535714Y-103566666D01*
X176630952Y-103614285D01*
X176678571Y-103661904D01*
X176726190Y-103757142D01*
X176726190Y-104138095D01*
X177202380Y-102614285D02*
X177202380Y-103185714D01*
X177202380Y-102900000D02*
X176202380Y-102900000D01*
X176345238Y-102995238D01*
X176440476Y-103090476D01*
X176488095Y-103185714D01*
X178909523Y-107852380D02*
X178576190Y-107376190D01*
X178338095Y-107852380D02*
X178338095Y-106852380D01*
X178719047Y-106852380D01*
X178814285Y-106900000D01*
X178861904Y-106947619D01*
X178909523Y-107042857D01*
X178909523Y-107185714D01*
X178861904Y-107280952D01*
X178814285Y-107328571D01*
X178719047Y-107376190D01*
X178338095Y-107376190D01*
G04 #@! TO.C,R2*
X168602380Y-103666666D02*
X168126190Y-104000000D01*
X168602380Y-104238095D02*
X167602380Y-104238095D01*
X167602380Y-103857142D01*
X167650000Y-103761904D01*
X167697619Y-103714285D01*
X167792857Y-103666666D01*
X167935714Y-103666666D01*
X168030952Y-103714285D01*
X168078571Y-103761904D01*
X168126190Y-103857142D01*
X168126190Y-104238095D01*
X167697619Y-103285714D02*
X167650000Y-103238095D01*
X167602380Y-103142857D01*
X167602380Y-102904761D01*
X167650000Y-102809523D01*
X167697619Y-102761904D01*
X167792857Y-102714285D01*
X167888095Y-102714285D01*
X168030952Y-102761904D01*
X168602380Y-103333333D01*
X168602380Y-102714285D01*
X169209523Y-106752380D02*
X168876190Y-106276190D01*
X168638095Y-106752380D02*
X168638095Y-105752380D01*
X169019047Y-105752380D01*
X169114285Y-105800000D01*
X169161904Y-105847619D01*
X169209523Y-105942857D01*
X169209523Y-106085714D01*
X169161904Y-106180952D01*
X169114285Y-106228571D01*
X169019047Y-106276190D01*
X168638095Y-106276190D01*
G04 #@! TD*
M02*
