G04 #@! TF.GenerationSoftware,KiCad,Pcbnew,5.0.2-bee76a0~70~ubuntu18.10.1*
G04 #@! TF.CreationDate,2019-08-14T12:15:04-04:00*
G04 #@! TF.ProjectId,LCD,4c43442e-6b69-4636-9164-5f7063625858,rev?*
G04 #@! TF.SameCoordinates,Original*
G04 #@! TF.FileFunction,Copper,L1,Top*
G04 #@! TF.FilePolarity,Positive*
%FSLAX46Y46*%
G04 Gerber Fmt 4.6, Leading zero omitted, Abs format (unit mm)*
G04 Created by KiCad (PCBNEW 5.0.2-bee76a0~70~ubuntu18.10.1) date Wed 14 Aug 2019 12:15:04 PM EDT*
%MOMM*%
%LPD*%
G01*
G04 APERTURE LIST*
G04 #@! TA.AperFunction,SMDPad,CuDef*
%ADD10R,1.300000X1.500000*%
G04 #@! TD*
G04 #@! TA.AperFunction,SMDPad,CuDef*
%ADD11R,1.700000X2.000000*%
G04 #@! TD*
G04 #@! TA.AperFunction,ComponentPad*
%ADD12R,1.700000X1.700000*%
G04 #@! TD*
G04 #@! TA.AperFunction,ComponentPad*
%ADD13O,1.700000X1.700000*%
G04 #@! TD*
G04 #@! TA.AperFunction,ViaPad*
%ADD14C,0.600000*%
G04 #@! TD*
G04 #@! TA.AperFunction,Conductor*
%ADD15C,0.250000*%
G04 #@! TD*
G04 APERTURE END LIST*
D10*
G04 #@! TO.P,D1,1*
G04 #@! TO.N,Net-(D1-Pad1)*
X170700000Y-105350000D03*
G04 #@! TO.P,D1,2*
G04 #@! TO.N,Net-(D1-Pad2)*
X170700000Y-102650000D03*
G04 #@! TD*
G04 #@! TO.P,D2,1*
G04 #@! TO.N,Net-(D2-Pad1)*
X174400000Y-105250000D03*
G04 #@! TO.P,D2,2*
G04 #@! TO.N,Net-(D2-Pad2)*
X174400000Y-102550000D03*
G04 #@! TD*
D11*
G04 #@! TO.P,R1,1*
G04 #@! TO.N,GND*
X178600000Y-105400000D03*
G04 #@! TO.P,R1,2*
G04 #@! TO.N,Net-(D1-Pad1)*
X178600000Y-101400000D03*
G04 #@! TD*
G04 #@! TO.P,R2,1*
G04 #@! TO.N,GND*
X166300000Y-101500000D03*
G04 #@! TO.P,R2,2*
G04 #@! TO.N,Net-(D2-Pad1)*
X166300000Y-105500000D03*
G04 #@! TD*
D12*
G04 #@! TO.P,J1,1*
G04 #@! TO.N,GND*
X178300000Y-88400000D03*
D13*
G04 #@! TO.P,J1,2*
G04 #@! TO.N,Net-(J1-Pad2)*
X178300000Y-85860000D03*
G04 #@! TO.P,J1,3*
G04 #@! TO.N,Net-(J1-Pad3)*
X178300000Y-83320000D03*
G04 #@! TO.P,J1,4*
G04 #@! TO.N,Net-(J1-Pad4)*
X178300000Y-80780000D03*
G04 #@! TO.P,J1,5*
G04 #@! TO.N,Net-(J1-Pad5)*
X178300000Y-78240000D03*
G04 #@! TO.P,J1,6*
G04 #@! TO.N,Net-(J1-Pad6)*
X178300000Y-75700000D03*
G04 #@! TO.P,J1,7*
G04 #@! TO.N,Net-(D2-Pad2)*
X178300000Y-73160000D03*
G04 #@! TO.P,J1,8*
G04 #@! TO.N,Net-(D1-Pad2)*
X178300000Y-70620000D03*
G04 #@! TO.P,J1,9*
G04 #@! TO.N,+3V3*
X178300000Y-68080000D03*
G04 #@! TO.P,J1,10*
G04 #@! TO.N,Net-(J1-Pad10)*
X178300000Y-65540000D03*
G04 #@! TD*
D14*
G04 #@! TO.N,GND*
X169456700Y-57839200D03*
X172505500Y-56342300D03*
G04 #@! TO.N,Net-(J1-Pad4)*
X171946000Y-57114000D03*
G04 #@! TD*
D15*
G04 #@! TO.N,GND*
X166300000Y-101500000D02*
X167475300Y-101500000D01*
X167475300Y-101500000D02*
X167475300Y-59820600D01*
X167475300Y-59820600D02*
X169456700Y-57839200D01*
X172505500Y-56342300D02*
X170953600Y-56342300D01*
X170953600Y-56342300D02*
X169456700Y-57839200D01*
X178600000Y-105400000D02*
X177424700Y-105400000D01*
X178300000Y-88400000D02*
X178300000Y-89575300D01*
X178300000Y-89575300D02*
X177424700Y-90450600D01*
X177424700Y-90450600D02*
X177424700Y-105400000D01*
G04 #@! TO.N,Net-(D1-Pad1)*
X170700000Y-105350000D02*
X171675300Y-105350000D01*
X178600000Y-101400000D02*
X178600000Y-100074700D01*
X178600000Y-100074700D02*
X179475400Y-99199300D01*
X179475400Y-99199300D02*
X179475400Y-87368900D01*
X179475400Y-87368900D02*
X179331100Y-87224600D01*
X179331100Y-87224600D02*
X177253700Y-87224600D01*
X177253700Y-87224600D02*
X176974300Y-87504000D01*
X176974300Y-87504000D02*
X176974300Y-101900600D01*
X176974300Y-101900600D02*
X175149500Y-103725400D01*
X175149500Y-103725400D02*
X173299900Y-103725400D01*
X173299900Y-103725400D02*
X171675300Y-105350000D01*
G04 #@! TO.N,Net-(D1-Pad2)*
X170700000Y-101574700D02*
X170700000Y-79028000D01*
X170700000Y-79028000D02*
X177932700Y-71795300D01*
X177932700Y-71795300D02*
X178300000Y-71795300D01*
X170700000Y-102650000D02*
X170700000Y-101574700D01*
X178300000Y-70620000D02*
X178300000Y-71795300D01*
G04 #@! TO.N,Net-(D2-Pad1)*
X174400000Y-105250000D02*
X173424700Y-105250000D01*
X166300000Y-105500000D02*
X167475300Y-105500000D01*
X167475300Y-105500000D02*
X168400700Y-106425400D01*
X168400700Y-106425400D02*
X172249300Y-106425400D01*
X172249300Y-106425400D02*
X173424700Y-105250000D01*
G04 #@! TO.N,Net-(D2-Pad2)*
X178300000Y-73160000D02*
X178300000Y-74335300D01*
X178300000Y-74335300D02*
X177932700Y-74335300D01*
X177932700Y-74335300D02*
X174400000Y-77868000D01*
X174400000Y-77868000D02*
X174400000Y-102550000D01*
G04 #@! TO.N,Net-(J1-Pad4)*
X178300000Y-79604700D02*
X178667300Y-79604700D01*
X178667300Y-79604700D02*
X179570000Y-78702000D01*
X179570000Y-78702000D02*
X179570000Y-70141700D01*
X179570000Y-70141700D02*
X178778300Y-69350000D01*
X178778300Y-69350000D02*
X177868400Y-69350000D01*
X177868400Y-69350000D02*
X171946000Y-63427600D01*
X171946000Y-63427600D02*
X171946000Y-57114000D01*
X178300000Y-80780000D02*
X178300000Y-79604700D01*
G04 #@! TD*
M02*
