G04 #@! TF.GenerationSoftware,KiCad,Pcbnew,5.0.2-bee76a0~70~ubuntu18.10.1*
G04 #@! TF.CreationDate,2019-08-20T10:46:16-04:00*
G04 #@! TF.ProjectId,LCD,4c43442e-6b69-4636-9164-5f7063625858,rev?*
G04 #@! TF.SameCoordinates,Original*
G04 #@! TF.FileFunction,Copper,L2,Bot*
G04 #@! TF.FilePolarity,Positive*
%FSLAX46Y46*%
G04 Gerber Fmt 4.6, Leading zero omitted, Abs format (unit mm)*
G04 Created by KiCad (PCBNEW 5.0.2-bee76a0~70~ubuntu18.10.1) date Tue 20 Aug 2019 10:46:16 AM EDT*
%MOMM*%
%LPD*%
G01*
G04 APERTURE LIST*
G04 #@! TA.AperFunction,SMDPad,CuDef*
%ADD10R,0.300000X1.300000*%
G04 #@! TD*
G04 #@! TA.AperFunction,SMDPad,CuDef*
%ADD11R,2.600000X2.200000*%
G04 #@! TD*
G04 #@! TA.AperFunction,ComponentPad*
%ADD12R,1.700000X1.700000*%
G04 #@! TD*
G04 #@! TA.AperFunction,ComponentPad*
%ADD13O,1.700000X1.700000*%
G04 #@! TD*
G04 #@! TA.AperFunction,Conductor*
%ADD14C,0.100000*%
G04 #@! TD*
G04 #@! TA.AperFunction,SMDPad,CuDef*
%ADD15C,1.250000*%
G04 #@! TD*
G04 #@! TA.AperFunction,ViaPad*
%ADD16C,0.600000*%
G04 #@! TD*
G04 #@! TA.AperFunction,Conductor*
%ADD17C,0.250000*%
G04 #@! TD*
G04 APERTURE END LIST*
D10*
G04 #@! TO.P,J2,11*
G04 #@! TO.N,+3V3*
X173920000Y-55047800D03*
G04 #@! TO.P,J2,10*
X173420000Y-55047800D03*
G04 #@! TO.P,J2,9*
G04 #@! TO.N,GND*
X172920000Y-55047800D03*
G04 #@! TO.P,J2,8*
X172420000Y-55047800D03*
G04 #@! TO.P,J2,7*
G04 #@! TO.N,Net-(J1-Pad4)*
X171920000Y-55047800D03*
G04 #@! TO.P,J2,6*
G04 #@! TO.N,Net-(J1-Pad6)*
X171420000Y-55047800D03*
G04 #@! TO.P,J2,5*
G04 #@! TO.N,Net-(J1-Pad5)*
X170920000Y-55047800D03*
G04 #@! TO.P,J2,4*
G04 #@! TO.N,Net-(J1-Pad3)*
X170420000Y-55047800D03*
G04 #@! TO.P,J2,3*
G04 #@! TO.N,Net-(J1-Pad2)*
X169920000Y-55047800D03*
G04 #@! TO.P,J2,2*
G04 #@! TO.N,Net-(J2-Pad2)*
X169420000Y-55047800D03*
G04 #@! TO.P,J2,1*
G04 #@! TO.N,GND*
X168920000Y-55047800D03*
D11*
G04 #@! TO.P,J2,MP*
G04 #@! TO.N,N/C*
X167020000Y-53697800D03*
X175820000Y-53697800D03*
G04 #@! TD*
D12*
G04 #@! TO.P,J1,1*
G04 #@! TO.N,GND*
X178300000Y-88400000D03*
D13*
G04 #@! TO.P,J1,2*
G04 #@! TO.N,Net-(J1-Pad2)*
X178300000Y-85860000D03*
G04 #@! TO.P,J1,3*
G04 #@! TO.N,Net-(J1-Pad3)*
X178300000Y-83320000D03*
G04 #@! TO.P,J1,4*
G04 #@! TO.N,Net-(J1-Pad4)*
X178300000Y-80780000D03*
G04 #@! TO.P,J1,5*
G04 #@! TO.N,Net-(J1-Pad5)*
X178300000Y-78240000D03*
G04 #@! TO.P,J1,6*
G04 #@! TO.N,Net-(J1-Pad6)*
X178300000Y-75700000D03*
G04 #@! TO.P,J1,7*
G04 #@! TO.N,Net-(D2-Pad2)*
X178300000Y-73160000D03*
G04 #@! TO.P,J1,8*
G04 #@! TO.N,Net-(D1-Pad2)*
X178300000Y-70620000D03*
G04 #@! TO.P,J1,9*
G04 #@! TO.N,+3V3*
X178300000Y-68080000D03*
G04 #@! TO.P,J1,10*
G04 #@! TO.N,Net-(J1-Pad10)*
X178300000Y-65540000D03*
G04 #@! TD*
D14*
G04 #@! TO.N,+3V3*
G04 #@! TO.C,C1*
G36*
X169423504Y-72237604D02*
X169447773Y-72241204D01*
X169471571Y-72247165D01*
X169494671Y-72255430D01*
X169516849Y-72265920D01*
X169537893Y-72278533D01*
X169557598Y-72293147D01*
X169575777Y-72309623D01*
X169592253Y-72327802D01*
X169606867Y-72347507D01*
X169619480Y-72368551D01*
X169629970Y-72390729D01*
X169638235Y-72413829D01*
X169644196Y-72437627D01*
X169647796Y-72461896D01*
X169649000Y-72486400D01*
X169649000Y-73736400D01*
X169647796Y-73760904D01*
X169644196Y-73785173D01*
X169638235Y-73808971D01*
X169629970Y-73832071D01*
X169619480Y-73854249D01*
X169606867Y-73875293D01*
X169592253Y-73894998D01*
X169575777Y-73913177D01*
X169557598Y-73929653D01*
X169537893Y-73944267D01*
X169516849Y-73956880D01*
X169494671Y-73967370D01*
X169471571Y-73975635D01*
X169447773Y-73981596D01*
X169423504Y-73985196D01*
X169399000Y-73986400D01*
X168649000Y-73986400D01*
X168624496Y-73985196D01*
X168600227Y-73981596D01*
X168576429Y-73975635D01*
X168553329Y-73967370D01*
X168531151Y-73956880D01*
X168510107Y-73944267D01*
X168490402Y-73929653D01*
X168472223Y-73913177D01*
X168455747Y-73894998D01*
X168441133Y-73875293D01*
X168428520Y-73854249D01*
X168418030Y-73832071D01*
X168409765Y-73808971D01*
X168403804Y-73785173D01*
X168400204Y-73760904D01*
X168399000Y-73736400D01*
X168399000Y-72486400D01*
X168400204Y-72461896D01*
X168403804Y-72437627D01*
X168409765Y-72413829D01*
X168418030Y-72390729D01*
X168428520Y-72368551D01*
X168441133Y-72347507D01*
X168455747Y-72327802D01*
X168472223Y-72309623D01*
X168490402Y-72293147D01*
X168510107Y-72278533D01*
X168531151Y-72265920D01*
X168553329Y-72255430D01*
X168576429Y-72247165D01*
X168600227Y-72241204D01*
X168624496Y-72237604D01*
X168649000Y-72236400D01*
X169399000Y-72236400D01*
X169423504Y-72237604D01*
X169423504Y-72237604D01*
G37*
D15*
G04 #@! TD*
G04 #@! TO.P,C1,1*
G04 #@! TO.N,+3V3*
X169024000Y-73111400D03*
D14*
G04 #@! TO.N,GND*
G04 #@! TO.C,C1*
G36*
X172223504Y-72237604D02*
X172247773Y-72241204D01*
X172271571Y-72247165D01*
X172294671Y-72255430D01*
X172316849Y-72265920D01*
X172337893Y-72278533D01*
X172357598Y-72293147D01*
X172375777Y-72309623D01*
X172392253Y-72327802D01*
X172406867Y-72347507D01*
X172419480Y-72368551D01*
X172429970Y-72390729D01*
X172438235Y-72413829D01*
X172444196Y-72437627D01*
X172447796Y-72461896D01*
X172449000Y-72486400D01*
X172449000Y-73736400D01*
X172447796Y-73760904D01*
X172444196Y-73785173D01*
X172438235Y-73808971D01*
X172429970Y-73832071D01*
X172419480Y-73854249D01*
X172406867Y-73875293D01*
X172392253Y-73894998D01*
X172375777Y-73913177D01*
X172357598Y-73929653D01*
X172337893Y-73944267D01*
X172316849Y-73956880D01*
X172294671Y-73967370D01*
X172271571Y-73975635D01*
X172247773Y-73981596D01*
X172223504Y-73985196D01*
X172199000Y-73986400D01*
X171449000Y-73986400D01*
X171424496Y-73985196D01*
X171400227Y-73981596D01*
X171376429Y-73975635D01*
X171353329Y-73967370D01*
X171331151Y-73956880D01*
X171310107Y-73944267D01*
X171290402Y-73929653D01*
X171272223Y-73913177D01*
X171255747Y-73894998D01*
X171241133Y-73875293D01*
X171228520Y-73854249D01*
X171218030Y-73832071D01*
X171209765Y-73808971D01*
X171203804Y-73785173D01*
X171200204Y-73760904D01*
X171199000Y-73736400D01*
X171199000Y-72486400D01*
X171200204Y-72461896D01*
X171203804Y-72437627D01*
X171209765Y-72413829D01*
X171218030Y-72390729D01*
X171228520Y-72368551D01*
X171241133Y-72347507D01*
X171255747Y-72327802D01*
X171272223Y-72309623D01*
X171290402Y-72293147D01*
X171310107Y-72278533D01*
X171331151Y-72265920D01*
X171353329Y-72255430D01*
X171376429Y-72247165D01*
X171400227Y-72241204D01*
X171424496Y-72237604D01*
X171449000Y-72236400D01*
X172199000Y-72236400D01*
X172223504Y-72237604D01*
X172223504Y-72237604D01*
G37*
D15*
G04 #@! TD*
G04 #@! TO.P,C1,2*
G04 #@! TO.N,GND*
X171824000Y-73111400D03*
D16*
G04 #@! TO.N,GND*
X169456700Y-57839200D03*
X172505500Y-56342300D03*
G04 #@! TO.N,Net-(J1-Pad4)*
X171946000Y-57114000D03*
G04 #@! TD*
D17*
G04 #@! TO.N,GND*
X178300000Y-87992900D02*
X166664300Y-76357200D01*
X166664300Y-76357200D02*
X166664300Y-60631600D01*
X166664300Y-60631600D02*
X169456700Y-57839200D01*
X178300000Y-87992900D02*
X178300000Y-87224700D01*
X178300000Y-88400000D02*
X178300000Y-87992900D01*
X171824000Y-73111400D02*
X171824000Y-75970700D01*
X171824000Y-75970700D02*
X177903300Y-82050000D01*
X177903300Y-82050000D02*
X178787700Y-82050000D01*
X178787700Y-82050000D02*
X179475300Y-82737600D01*
X179475300Y-82737600D02*
X179475300Y-86416800D01*
X179475300Y-86416800D02*
X178667400Y-87224700D01*
X178667400Y-87224700D02*
X178300000Y-87224700D01*
X168920000Y-55047800D02*
X168920000Y-57302500D01*
X168920000Y-57302500D02*
X169456700Y-57839200D01*
X172420000Y-56023100D02*
X172420000Y-56256800D01*
X172420000Y-56256800D02*
X172505500Y-56342300D01*
X172920000Y-55047800D02*
X172920000Y-56023100D01*
X172420000Y-56023100D02*
X172920000Y-56023100D01*
X172420000Y-55047800D02*
X172420000Y-56023100D01*
G04 #@! TO.N,+3V3*
X169024000Y-73111400D02*
X169024000Y-72976000D01*
X169024000Y-72976000D02*
X173920000Y-68080000D01*
X173920000Y-68080000D02*
X178300000Y-68080000D01*
X173920000Y-68080000D02*
X173920000Y-56023100D01*
X173920000Y-55047800D02*
X173920000Y-56023100D01*
X173420000Y-55047800D02*
X173420000Y-56023100D01*
X173420000Y-56023100D02*
X173920000Y-56023100D01*
G04 #@! TO.N,Net-(J1-Pad2)*
X169920000Y-55047800D02*
X169920000Y-56723000D01*
X169920000Y-56723000D02*
X170113600Y-56916600D01*
X170113600Y-56916600D02*
X170113600Y-67562800D01*
X170113600Y-67562800D02*
X167165900Y-70510500D01*
X167165900Y-70510500D02*
X167165900Y-74431100D01*
X167165900Y-74431100D02*
X177419500Y-84684700D01*
X177419500Y-84684700D02*
X178300000Y-84684700D01*
X178300000Y-85860000D02*
X178300000Y-84684700D01*
G04 #@! TO.N,Net-(J1-Pad3)*
X170420000Y-55047800D02*
X170420000Y-56335800D01*
X170420000Y-56335800D02*
X170588900Y-56504700D01*
X170588900Y-56504700D02*
X170588900Y-67724400D01*
X170588900Y-67724400D02*
X167616200Y-70697100D01*
X167616200Y-70697100D02*
X167616200Y-74244500D01*
X167616200Y-74244500D02*
X176691700Y-83320000D01*
X176691700Y-83320000D02*
X178300000Y-83320000D01*
G04 #@! TO.N,Net-(J1-Pad4)*
X171920000Y-56023100D02*
X171859100Y-56084000D01*
X171859100Y-56084000D02*
X171859100Y-57027100D01*
X171859100Y-57027100D02*
X171946000Y-57114000D01*
X171920000Y-55047800D02*
X171920000Y-56023100D01*
G04 #@! TO.N,Net-(J1-Pad5)*
X178300000Y-78240000D02*
X178300000Y-77064700D01*
X178300000Y-77064700D02*
X177591100Y-77064700D01*
X177591100Y-77064700D02*
X172389100Y-71862700D01*
X172389100Y-71862700D02*
X171259000Y-71862700D01*
X171259000Y-71862700D02*
X170343800Y-72777900D01*
X170343800Y-72777900D02*
X170343800Y-73610000D01*
X170343800Y-73610000D02*
X169619900Y-74333900D01*
X169619900Y-74333900D02*
X168422300Y-74333900D01*
X168422300Y-74333900D02*
X168066500Y-73978100D01*
X168066500Y-73978100D02*
X168066500Y-71109000D01*
X168066500Y-71109000D02*
X171080900Y-68094600D01*
X171080900Y-68094600D02*
X171080900Y-56359800D01*
X171080900Y-56359800D02*
X170920000Y-56198900D01*
X170920000Y-56198900D02*
X170920000Y-55047800D01*
G04 #@! TO.N,Net-(J1-Pad6)*
X171420000Y-55047800D02*
X171420000Y-54072500D01*
X178300000Y-75700000D02*
X178300000Y-74524700D01*
X178300000Y-74524700D02*
X178667300Y-74524700D01*
X178667300Y-74524700D02*
X179476900Y-73715100D01*
X179476900Y-73715100D02*
X179476900Y-54477100D01*
X179476900Y-54477100D02*
X177265300Y-52265500D01*
X177265300Y-52265500D02*
X173227000Y-52265500D01*
X173227000Y-52265500D02*
X171420000Y-54072500D01*
G04 #@! TD*
M02*
