G04 #@! TF.GenerationSoftware,KiCad,Pcbnew,5.0.2-bee76a0~70~ubuntu18.10.1*
G04 #@! TF.CreationDate,2019-08-20T10:46:16-04:00*
G04 #@! TF.ProjectId,LCD,4c43442e-6b69-4636-9164-5f7063625858,rev?*
G04 #@! TF.SameCoordinates,Original*
G04 #@! TF.FileFunction,Soldermask,Bot*
G04 #@! TF.FilePolarity,Negative*
%FSLAX46Y46*%
G04 Gerber Fmt 4.6, Leading zero omitted, Abs format (unit mm)*
G04 Created by KiCad (PCBNEW 5.0.2-bee76a0~70~ubuntu18.10.1) date Tue 20 Aug 2019 10:46:16 AM EDT*
%MOMM*%
%LPD*%
G01*
G04 APERTURE LIST*
%ADD10C,0.100000*%
G04 APERTURE END LIST*
D10*
G36*
X179350000Y-89450000D02*
X177250000Y-89450000D01*
X177250000Y-87350000D01*
X179350000Y-87350000D01*
X179350000Y-89450000D01*
X179350000Y-89450000D01*
G37*
G36*
X178428707Y-84817597D02*
X178505836Y-84825193D01*
X178637787Y-84865220D01*
X178703763Y-84885233D01*
X178886172Y-84982733D01*
X179046054Y-85113946D01*
X179177267Y-85273828D01*
X179274767Y-85456237D01*
X179274767Y-85456238D01*
X179334807Y-85654164D01*
X179355080Y-85860000D01*
X179334807Y-86065836D01*
X179294780Y-86197787D01*
X179274767Y-86263763D01*
X179177267Y-86446172D01*
X179046054Y-86606054D01*
X178886172Y-86737267D01*
X178703763Y-86834767D01*
X178637787Y-86854780D01*
X178505836Y-86894807D01*
X178428707Y-86902404D01*
X178351580Y-86910000D01*
X178248420Y-86910000D01*
X178171293Y-86902404D01*
X178094164Y-86894807D01*
X177962213Y-86854780D01*
X177896237Y-86834767D01*
X177713828Y-86737267D01*
X177553946Y-86606054D01*
X177422733Y-86446172D01*
X177325233Y-86263763D01*
X177305220Y-86197787D01*
X177265193Y-86065836D01*
X177244920Y-85860000D01*
X177265193Y-85654164D01*
X177325233Y-85456238D01*
X177325233Y-85456237D01*
X177422733Y-85273828D01*
X177553946Y-85113946D01*
X177713828Y-84982733D01*
X177896237Y-84885233D01*
X177962213Y-84865220D01*
X178094164Y-84825193D01*
X178171293Y-84817597D01*
X178248420Y-84810000D01*
X178351580Y-84810000D01*
X178428707Y-84817597D01*
X178428707Y-84817597D01*
G37*
G36*
X178428707Y-82277597D02*
X178505836Y-82285193D01*
X178637787Y-82325220D01*
X178703763Y-82345233D01*
X178886172Y-82442733D01*
X179046054Y-82573946D01*
X179177267Y-82733828D01*
X179274767Y-82916237D01*
X179274767Y-82916238D01*
X179334807Y-83114164D01*
X179355080Y-83320000D01*
X179334807Y-83525836D01*
X179294780Y-83657787D01*
X179274767Y-83723763D01*
X179177267Y-83906172D01*
X179046054Y-84066054D01*
X178886172Y-84197267D01*
X178703763Y-84294767D01*
X178637787Y-84314780D01*
X178505836Y-84354807D01*
X178428707Y-84362403D01*
X178351580Y-84370000D01*
X178248420Y-84370000D01*
X178171293Y-84362403D01*
X178094164Y-84354807D01*
X177962213Y-84314780D01*
X177896237Y-84294767D01*
X177713828Y-84197267D01*
X177553946Y-84066054D01*
X177422733Y-83906172D01*
X177325233Y-83723763D01*
X177305220Y-83657787D01*
X177265193Y-83525836D01*
X177244920Y-83320000D01*
X177265193Y-83114164D01*
X177325233Y-82916238D01*
X177325233Y-82916237D01*
X177422733Y-82733828D01*
X177553946Y-82573946D01*
X177713828Y-82442733D01*
X177896237Y-82345233D01*
X177962213Y-82325220D01*
X178094164Y-82285193D01*
X178171293Y-82277597D01*
X178248420Y-82270000D01*
X178351580Y-82270000D01*
X178428707Y-82277597D01*
X178428707Y-82277597D01*
G37*
G36*
X178428707Y-79737597D02*
X178505836Y-79745193D01*
X178637787Y-79785220D01*
X178703763Y-79805233D01*
X178886172Y-79902733D01*
X179046054Y-80033946D01*
X179177267Y-80193828D01*
X179274767Y-80376237D01*
X179274767Y-80376238D01*
X179334807Y-80574164D01*
X179355080Y-80780000D01*
X179334807Y-80985836D01*
X179294780Y-81117787D01*
X179274767Y-81183763D01*
X179177267Y-81366172D01*
X179046054Y-81526054D01*
X178886172Y-81657267D01*
X178703763Y-81754767D01*
X178637787Y-81774780D01*
X178505836Y-81814807D01*
X178428707Y-81822404D01*
X178351580Y-81830000D01*
X178248420Y-81830000D01*
X178171293Y-81822404D01*
X178094164Y-81814807D01*
X177962213Y-81774780D01*
X177896237Y-81754767D01*
X177713828Y-81657267D01*
X177553946Y-81526054D01*
X177422733Y-81366172D01*
X177325233Y-81183763D01*
X177305220Y-81117787D01*
X177265193Y-80985836D01*
X177244920Y-80780000D01*
X177265193Y-80574164D01*
X177325233Y-80376238D01*
X177325233Y-80376237D01*
X177422733Y-80193828D01*
X177553946Y-80033946D01*
X177713828Y-79902733D01*
X177896237Y-79805233D01*
X177962213Y-79785220D01*
X178094164Y-79745193D01*
X178171293Y-79737597D01*
X178248420Y-79730000D01*
X178351580Y-79730000D01*
X178428707Y-79737597D01*
X178428707Y-79737597D01*
G37*
G36*
X178428707Y-77197597D02*
X178505836Y-77205193D01*
X178637787Y-77245220D01*
X178703763Y-77265233D01*
X178886172Y-77362733D01*
X179046054Y-77493946D01*
X179177267Y-77653828D01*
X179274767Y-77836237D01*
X179274767Y-77836238D01*
X179334807Y-78034164D01*
X179355080Y-78240000D01*
X179334807Y-78445836D01*
X179294780Y-78577787D01*
X179274767Y-78643763D01*
X179177267Y-78826172D01*
X179046054Y-78986054D01*
X178886172Y-79117267D01*
X178703763Y-79214767D01*
X178637787Y-79234780D01*
X178505836Y-79274807D01*
X178428707Y-79282404D01*
X178351580Y-79290000D01*
X178248420Y-79290000D01*
X178171293Y-79282404D01*
X178094164Y-79274807D01*
X177962213Y-79234780D01*
X177896237Y-79214767D01*
X177713828Y-79117267D01*
X177553946Y-78986054D01*
X177422733Y-78826172D01*
X177325233Y-78643763D01*
X177305220Y-78577787D01*
X177265193Y-78445836D01*
X177244920Y-78240000D01*
X177265193Y-78034164D01*
X177325233Y-77836238D01*
X177325233Y-77836237D01*
X177422733Y-77653828D01*
X177553946Y-77493946D01*
X177713828Y-77362733D01*
X177896237Y-77265233D01*
X177962213Y-77245220D01*
X178094164Y-77205193D01*
X178171293Y-77197597D01*
X178248420Y-77190000D01*
X178351580Y-77190000D01*
X178428707Y-77197597D01*
X178428707Y-77197597D01*
G37*
G36*
X178428707Y-74657597D02*
X178505836Y-74665193D01*
X178637787Y-74705220D01*
X178703763Y-74725233D01*
X178886172Y-74822733D01*
X179046054Y-74953946D01*
X179177267Y-75113828D01*
X179274767Y-75296237D01*
X179274767Y-75296238D01*
X179334807Y-75494164D01*
X179355080Y-75700000D01*
X179334807Y-75905836D01*
X179294780Y-76037787D01*
X179274767Y-76103763D01*
X179177267Y-76286172D01*
X179046054Y-76446054D01*
X178886172Y-76577267D01*
X178703763Y-76674767D01*
X178637787Y-76694780D01*
X178505836Y-76734807D01*
X178428707Y-76742404D01*
X178351580Y-76750000D01*
X178248420Y-76750000D01*
X178171293Y-76742404D01*
X178094164Y-76734807D01*
X177962213Y-76694780D01*
X177896237Y-76674767D01*
X177713828Y-76577267D01*
X177553946Y-76446054D01*
X177422733Y-76286172D01*
X177325233Y-76103763D01*
X177305220Y-76037787D01*
X177265193Y-75905836D01*
X177244920Y-75700000D01*
X177265193Y-75494164D01*
X177325233Y-75296238D01*
X177325233Y-75296237D01*
X177422733Y-75113828D01*
X177553946Y-74953946D01*
X177713828Y-74822733D01*
X177896237Y-74725233D01*
X177962213Y-74705220D01*
X178094164Y-74665193D01*
X178171293Y-74657597D01*
X178248420Y-74650000D01*
X178351580Y-74650000D01*
X178428707Y-74657597D01*
X178428707Y-74657597D01*
G37*
G36*
X178428707Y-72117596D02*
X178505836Y-72125193D01*
X178637787Y-72165220D01*
X178703763Y-72185233D01*
X178886172Y-72282733D01*
X179046054Y-72413946D01*
X179177267Y-72573828D01*
X179274767Y-72756237D01*
X179274767Y-72756238D01*
X179334807Y-72954164D01*
X179355080Y-73160000D01*
X179334807Y-73365836D01*
X179294780Y-73497787D01*
X179274767Y-73563763D01*
X179177267Y-73746172D01*
X179046054Y-73906054D01*
X178886172Y-74037267D01*
X178703763Y-74134767D01*
X178676882Y-74142921D01*
X178505836Y-74194807D01*
X178428707Y-74202404D01*
X178351580Y-74210000D01*
X178248420Y-74210000D01*
X178171293Y-74202404D01*
X178094164Y-74194807D01*
X177923118Y-74142921D01*
X177896237Y-74134767D01*
X177713828Y-74037267D01*
X177553946Y-73906054D01*
X177422733Y-73746172D01*
X177325233Y-73563763D01*
X177305220Y-73497787D01*
X177265193Y-73365836D01*
X177244920Y-73160000D01*
X177265193Y-72954164D01*
X177325233Y-72756238D01*
X177325233Y-72756237D01*
X177422733Y-72573828D01*
X177553946Y-72413946D01*
X177713828Y-72282733D01*
X177896237Y-72185233D01*
X177962213Y-72165220D01*
X178094164Y-72125193D01*
X178171293Y-72117596D01*
X178248420Y-72110000D01*
X178351580Y-72110000D01*
X178428707Y-72117596D01*
X178428707Y-72117596D01*
G37*
G36*
X172443628Y-72041893D02*
X172491354Y-72056370D01*
X172535336Y-72079879D01*
X172573885Y-72111515D01*
X172605521Y-72150064D01*
X172629030Y-72194046D01*
X172643507Y-72241772D01*
X172649000Y-72297541D01*
X172649000Y-73925259D01*
X172643507Y-73981028D01*
X172629030Y-74028754D01*
X172605521Y-74072736D01*
X172573885Y-74111285D01*
X172535336Y-74142921D01*
X172491354Y-74166430D01*
X172443628Y-74180907D01*
X172387859Y-74186400D01*
X171260141Y-74186400D01*
X171204372Y-74180907D01*
X171156646Y-74166430D01*
X171112664Y-74142921D01*
X171074115Y-74111285D01*
X171042479Y-74072736D01*
X171018970Y-74028754D01*
X171004493Y-73981028D01*
X170999000Y-73925259D01*
X170999000Y-72297541D01*
X171004493Y-72241772D01*
X171018970Y-72194046D01*
X171042479Y-72150064D01*
X171074115Y-72111515D01*
X171112664Y-72079879D01*
X171156646Y-72056370D01*
X171204372Y-72041893D01*
X171260141Y-72036400D01*
X172387859Y-72036400D01*
X172443628Y-72041893D01*
X172443628Y-72041893D01*
G37*
G36*
X169643628Y-72041893D02*
X169691354Y-72056370D01*
X169735336Y-72079879D01*
X169773885Y-72111515D01*
X169805521Y-72150064D01*
X169829030Y-72194046D01*
X169843507Y-72241772D01*
X169849000Y-72297541D01*
X169849000Y-73925259D01*
X169843507Y-73981028D01*
X169829030Y-74028754D01*
X169805521Y-74072736D01*
X169773885Y-74111285D01*
X169735336Y-74142921D01*
X169691354Y-74166430D01*
X169643628Y-74180907D01*
X169587859Y-74186400D01*
X168460141Y-74186400D01*
X168404372Y-74180907D01*
X168356646Y-74166430D01*
X168312664Y-74142921D01*
X168274115Y-74111285D01*
X168242479Y-74072736D01*
X168218970Y-74028754D01*
X168204493Y-73981028D01*
X168199000Y-73925259D01*
X168199000Y-72297541D01*
X168204493Y-72241772D01*
X168218970Y-72194046D01*
X168242479Y-72150064D01*
X168274115Y-72111515D01*
X168312664Y-72079879D01*
X168356646Y-72056370D01*
X168404372Y-72041893D01*
X168460141Y-72036400D01*
X169587859Y-72036400D01*
X169643628Y-72041893D01*
X169643628Y-72041893D01*
G37*
G36*
X178428707Y-69577596D02*
X178505836Y-69585193D01*
X178637787Y-69625220D01*
X178703763Y-69645233D01*
X178886172Y-69742733D01*
X179046054Y-69873946D01*
X179177267Y-70033828D01*
X179274767Y-70216237D01*
X179274767Y-70216238D01*
X179334807Y-70414164D01*
X179355080Y-70620000D01*
X179334807Y-70825836D01*
X179294780Y-70957787D01*
X179274767Y-71023763D01*
X179177267Y-71206172D01*
X179046054Y-71366054D01*
X178886172Y-71497267D01*
X178703763Y-71594767D01*
X178637787Y-71614780D01*
X178505836Y-71654807D01*
X178428707Y-71662404D01*
X178351580Y-71670000D01*
X178248420Y-71670000D01*
X178171293Y-71662404D01*
X178094164Y-71654807D01*
X177962213Y-71614780D01*
X177896237Y-71594767D01*
X177713828Y-71497267D01*
X177553946Y-71366054D01*
X177422733Y-71206172D01*
X177325233Y-71023763D01*
X177305220Y-70957787D01*
X177265193Y-70825836D01*
X177244920Y-70620000D01*
X177265193Y-70414164D01*
X177325233Y-70216238D01*
X177325233Y-70216237D01*
X177422733Y-70033828D01*
X177553946Y-69873946D01*
X177713828Y-69742733D01*
X177896237Y-69645233D01*
X177962213Y-69625220D01*
X178094164Y-69585193D01*
X178171293Y-69577596D01*
X178248420Y-69570000D01*
X178351580Y-69570000D01*
X178428707Y-69577596D01*
X178428707Y-69577596D01*
G37*
G36*
X178428707Y-67037596D02*
X178505836Y-67045193D01*
X178637787Y-67085220D01*
X178703763Y-67105233D01*
X178886172Y-67202733D01*
X179046054Y-67333946D01*
X179177267Y-67493828D01*
X179274767Y-67676237D01*
X179274767Y-67676238D01*
X179334807Y-67874164D01*
X179355080Y-68080000D01*
X179334807Y-68285836D01*
X179294780Y-68417787D01*
X179274767Y-68483763D01*
X179177267Y-68666172D01*
X179046054Y-68826054D01*
X178886172Y-68957267D01*
X178703763Y-69054767D01*
X178637787Y-69074780D01*
X178505836Y-69114807D01*
X178428707Y-69122404D01*
X178351580Y-69130000D01*
X178248420Y-69130000D01*
X178171293Y-69122404D01*
X178094164Y-69114807D01*
X177962213Y-69074780D01*
X177896237Y-69054767D01*
X177713828Y-68957267D01*
X177553946Y-68826054D01*
X177422733Y-68666172D01*
X177325233Y-68483763D01*
X177305220Y-68417787D01*
X177265193Y-68285836D01*
X177244920Y-68080000D01*
X177265193Y-67874164D01*
X177325233Y-67676238D01*
X177325233Y-67676237D01*
X177422733Y-67493828D01*
X177553946Y-67333946D01*
X177713828Y-67202733D01*
X177896237Y-67105233D01*
X177962213Y-67085220D01*
X178094164Y-67045193D01*
X178171293Y-67037596D01*
X178248420Y-67030000D01*
X178351580Y-67030000D01*
X178428707Y-67037596D01*
X178428707Y-67037596D01*
G37*
G36*
X178428707Y-64497596D02*
X178505836Y-64505193D01*
X178637787Y-64545220D01*
X178703763Y-64565233D01*
X178886172Y-64662733D01*
X179046054Y-64793946D01*
X179177267Y-64953828D01*
X179274767Y-65136237D01*
X179274767Y-65136238D01*
X179334807Y-65334164D01*
X179355080Y-65540000D01*
X179334807Y-65745836D01*
X179294780Y-65877787D01*
X179274767Y-65943763D01*
X179177267Y-66126172D01*
X179046054Y-66286054D01*
X178886172Y-66417267D01*
X178703763Y-66514767D01*
X178637787Y-66534780D01*
X178505836Y-66574807D01*
X178428707Y-66582403D01*
X178351580Y-66590000D01*
X178248420Y-66590000D01*
X178171293Y-66582403D01*
X178094164Y-66574807D01*
X177962213Y-66534780D01*
X177896237Y-66514767D01*
X177713828Y-66417267D01*
X177553946Y-66286054D01*
X177422733Y-66126172D01*
X177325233Y-65943763D01*
X177305220Y-65877787D01*
X177265193Y-65745836D01*
X177244920Y-65540000D01*
X177265193Y-65334164D01*
X177325233Y-65136238D01*
X177325233Y-65136237D01*
X177422733Y-64953828D01*
X177553946Y-64793946D01*
X177713828Y-64662733D01*
X177896237Y-64565233D01*
X177962213Y-64545220D01*
X178094164Y-64505193D01*
X178171293Y-64497596D01*
X178248420Y-64490000D01*
X178351580Y-64490000D01*
X178428707Y-64497596D01*
X178428707Y-64497596D01*
G37*
G36*
X168520000Y-54072800D02*
X168522402Y-54097186D01*
X168529515Y-54120635D01*
X168541066Y-54142246D01*
X168556612Y-54161188D01*
X168575554Y-54176734D01*
X168597165Y-54188285D01*
X168620614Y-54195398D01*
X168645000Y-54197800D01*
X174195000Y-54197800D01*
X174219386Y-54195398D01*
X174242835Y-54188285D01*
X174264446Y-54176734D01*
X174283388Y-54161188D01*
X174298934Y-54142246D01*
X174310485Y-54120635D01*
X174317598Y-54097186D01*
X174320000Y-54072800D01*
X174320000Y-52397800D01*
X177320000Y-52397800D01*
X177320000Y-54997800D01*
X174395000Y-54997800D01*
X174370614Y-55000202D01*
X174347165Y-55007315D01*
X174325554Y-55018866D01*
X174306612Y-55034412D01*
X174291066Y-55053354D01*
X174279515Y-55074965D01*
X174272402Y-55098414D01*
X174270000Y-55122800D01*
X174270000Y-55897800D01*
X168570000Y-55897800D01*
X168570000Y-55122800D01*
X168567598Y-55098414D01*
X168560485Y-55074965D01*
X168548934Y-55053354D01*
X168533388Y-55034412D01*
X168514446Y-55018866D01*
X168492835Y-55007315D01*
X168469386Y-55000202D01*
X168445000Y-54997800D01*
X165520000Y-54997800D01*
X165520000Y-52397800D01*
X168520000Y-52397800D01*
X168520000Y-54072800D01*
X168520000Y-54072800D01*
G37*
M02*
