G04 #@! TF.FileFunction,Soldermask,Bot*
%FSLAX46Y46*%
G04 Gerber Fmt 4.6, Leading zero omitted, Abs format (unit mm)*
G04 Created by KiCad (PCBNEW 4.0.7-e2-6376~58~ubuntu16.04.1) date Tue Jun 26 14:16:29 2018*
%MOMM*%
%LPD*%
G01*
G04 APERTURE LIST*
%ADD10C,0.100000*%
%ADD11R,3.900000X2.000000*%
%ADD12R,3.600000X1.900000*%
%ADD13R,2.400000X2.000000*%
%ADD14R,2.400000X2.100000*%
%ADD15O,2.432000X2.940000*%
%ADD16R,2.100000X2.100000*%
%ADD17O,2.100000X2.100000*%
%ADD18R,2.600000X2.200000*%
%ADD19R,1.700000X0.700000*%
G04 APERTURE END LIST*
D10*
D11*
X169500000Y-51600000D03*
X174900000Y-51600000D03*
D12*
X168400000Y-86700000D03*
X172400000Y-86700000D03*
X168700000Y-90700000D03*
X172700000Y-90700000D03*
D13*
X168600000Y-96300000D03*
X172600000Y-96300000D03*
D14*
X169400000Y-59500000D03*
X173400000Y-59500000D03*
D15*
X172000000Y-42200000D03*
X174540000Y-42200000D03*
X169460000Y-42200000D03*
D16*
X178300000Y-88400000D03*
D17*
X178300000Y-85860000D03*
X178300000Y-83320000D03*
X178300000Y-80780000D03*
X178300000Y-78240000D03*
X178300000Y-75700000D03*
X178300000Y-73160000D03*
X178300000Y-70620000D03*
X178300000Y-68080000D03*
X178300000Y-65540000D03*
D18*
X170000000Y-82880000D03*
X170000000Y-66580000D03*
D19*
X173250000Y-68480000D03*
X173250000Y-68980000D03*
X173250000Y-69480000D03*
X173250000Y-69980000D03*
X173250000Y-70480000D03*
X173250000Y-70980000D03*
X173250000Y-71480000D03*
X173250000Y-71980000D03*
X173250000Y-72480000D03*
X173250000Y-72980000D03*
X173250000Y-73480000D03*
X173250000Y-73980000D03*
X173250000Y-74480000D03*
X173250000Y-74980000D03*
X173250000Y-75480000D03*
X173250000Y-75980000D03*
X173250000Y-76480000D03*
X173250000Y-76980000D03*
X173250000Y-77480000D03*
X173250000Y-77980000D03*
X173250000Y-78480000D03*
X173250000Y-78980000D03*
X173250000Y-79480000D03*
X173250000Y-79980000D03*
X173250000Y-80480000D03*
X173250000Y-80980000D03*
M02*
