  0
SECTION
  2
HEADER
  9
$ACADVER
  1
AC1009
  9
$DWGCODEPAGE
  3
ansi_1252
  9
$INSBASE
 10
0.0
 20
0.0
 30
0.0
  9
$EXTMIN
 10
0.0
 20
0.0
 30
0.0
  9
$EXTMAX
 10
146.107834
 20
240.877197
 30
2.0
  9
$LIMMIN
 10
0.0
 20
0.0
  9
$LIMMAX
 10
420.0
 20
297.0
  9
$ORTHOMODE
 70
     0
  9
$REGENMODE
 70
     1
  9
$FILLMODE
 70
     1
  9
$QTEXTMODE
 70
     0
  9
$MIRRTEXT
 70
     1
  9
$DRAGMODE
 70
     2
  9
$LTSCALE
 40
1.0
  9
$OSMODE
 70
     0
  9
$ATTMODE
 70
     1
  9
$TEXTSIZE
 40
2.5
  9
$TRACEWID
 40
1.0
  9
$TEXTSTYLE
  7
STANDARD
  9
$CLAYER
  8
0
  9
$CELTYPE
  6
BYLAYER
  9
$CECOLOR
 62
   256
  9
$DIMSCALE
 40
1.0
  9
$DIMASZ
 40
2.5
  9
$DIMEXO
 40
0.625
  9
$DIMDLI
 40
3.75
  9
$DIMRND
 40
0.0
  9
$DIMDLE
 40
0.0
  9
$DIMEXE
 40
1.25
  9
$DIMTP
 40
0.0
  9
$DIMTM
 40
0.0
  9
$DIMTXT
 40
2.5
  9
$DIMCEN
 40
2.5
  9
$DIMTSZ
 40
0.0
  9
$DIMTOL
 70
     0
  9
$DIMLIM
 70
     0
  9
$DIMTIH
 70
     0
  9
$DIMTOH
 70
     0
  9
$DIMSE1
 70
     0
  9
$DIMSE2
 70
     0
  9
$DIMTAD
 70
     1
  9
$DIMZIN
 70
     8
  9
$DIMBLK
  1

  9
$DIMASO
 70
     1
  9
$DIMSHO
 70
     1
  9
$DIMPOST
  1

  9
$DIMAPOST
  1

  9
$DIMALT
 70
     0
  9
$DIMALTD
 70
     3
  9
$DIMALTF
 40
0.03937
  9
$DIMLFAC
 40
1.0
  9
$DIMTOFL
 70
     1
  9
$DIMTVP
 40
0.0
  9
$DIMTIX
 70
     0
  9
$DIMSOXD
 70
     0
  9
$DIMSAH
 70
     0
  9
$DIMBLK1
  1

  9
$DIMBLK2
  1

  9
$DIMSTYLE
  2

  9
$DIMCLRD
 70
     0
  9
$DIMCLRE
 70
     0
  9
$DIMCLRT
 70
     0
  9
$DIMTFAC
 40
1.0
  9
$DIMGAP
 40
0.625
  9
$LUNITS
 70
     2
  9
$LUPREC
 70
     4
  9
$AXISMODE
 70
     0
  9
$AXISUNIT
 10
0.0
 20
0.0
  9
$SKETCHINC
 40
1.0
  9
$FILLETRAD
 40
2.5
  9
$AUNITS
 70
     0
  9
$AUPREC
 70
     0
  9
$MENU
  1
.
  9
$ELEVATION
 40
0.0
  9
$PELEVATION
 40
0.0
  9
$THICKNESS
 40
0.0
  9
$LIMCHECK
 70
     0
  9
$BLIPMODE
 70
     1
  9
$CHAMFERA
 40
2.5
  9
$CHAMFERB
 40
2.5
  9
$SKPOLY
 70
     0
  9
$TDCREATE
 40
0.000000000
  9
$TDUPDATE
 40
0.000000000
  9
$TDINDWG
 40
0.0000000000
  9
$TDUSRTIMER
 40
0.0000000000
  9
$USRTIMER
 70
     1
  9
$ANGBASE
 50
0.0
  9
$ANGDIR
 70
     0
  9
$PDMODE
 70
     0
  9
$PDSIZE
 40
0.0
  9
$PLINEWID
 40
0.0
  9
$COORDS
 70
     0
  9
$SPLFRAME
 70
     0
  9
$SPLINETYPE
 70
     6
  9
$SPLINESEGS
 70
     8
  9
$ATTDIA
 70
     0
  9
$ATTREQ
 70
     1
  9
$HANDLING
 70
     0
  9
$HANDSEED
  5
3
  9
$SURFTAB1
 70
     6
  9
$SURFTAB2
 70
     6
  9
$SURFTYPE
 70
     6
  9
$SURFU
 70
     6
  9
$SURFV
 70
     6
  9
$UCSNAME
  2

  9
$UCSORG
 10
0.0
 20
0.0
 30
0.0
  9
$UCSXDIR
 10
1.0
 20
0.0
 30
0.0
  9
$UCSYDIR
 10
0.0
 20
1.0
 30
0.0
  9
$PUCSNAME
  2

  9
$PUCSORG
 10
0.0
 20
0.0
 30
0.0
  9
$PUCSXDIR
 10
1.0
 20
0.0
 30
0.0
  9
$PUCSYDIR
 10
0.0
 20
1.0
 30
0.0
  9
$USERI1
 70
     0
  9
$USERI2
 70
     0
  9
$USERI3
 70
     0
  9
$USERI4
 70
     0
  9
$USERI5
 70
     0
  9
$USERR1
 40
0.0
  9
$USERR2
 40
0.0
  9
$USERR3
 40
0.0
  9
$USERR4
 40
0.0
  9
$USERR5
 40
0.0
  9
$WORLDVIEW
 70
     1
  9
$SHADEDGE
 70
     3
  9
$SHADEDIF
 70
    70
  9
$TILEMODE
 70
     1
  9
$MAXACTVP
 70
    48
  9
$PINSBASE
 10
0.0
 20
0.0
 30
0.0
  9
$PLIMCHECK
 70
     0
  9
$PEXTMIN
 10
0.0
 20
0.0
 30
0.0
  9
$PEXTMAX
 10
146.107834
 20
240.877197
 30
2.0
  9
$PLIMMIN
 10
0.0
 20
0.0
  9
$PLIMMAX
 10
420.0
 20
297.0
  9
$UNITMODE
 70
     0
  9
$VISRETAIN
 70
     0
  9
$PLINEGEN
 70
     0
  9
$PSLTSCALE
 70
     1
  9
$TREEDEPTH
 70
  3020
  0
ENDSEC
  0
SECTION
  2
TABLES
  0
TABLE
  2
VPORT
 70
     1
  0
VPORT
  2
*ACTIVE
 70
     0
 10
0.0
 20
0.0
 11
1.0
 21
1.0
 12
6.591288
 22
4.579184
 13
0.0
 23
0.0
 14
1.0
 24
1.0
 15
0.0
 25
0.0
 16
0.0
 26
0.0
 36
1.0
 17
0.0
 27
0.0
 37
0.0
 40
9.158369
 41
0.688564
 42
50.0
 43
0.0
 44
0.0
 50
0.0
 51
0.0
 71
     0
 72
   100
 73
     1
 74
     1
 75
     0
 76
     0
 77
     0
 78
     0
  0
ENDTAB
  0
TABLE
  2
LTYPE
 70
     2
  0
LTYPE
  2
CONTINUOUS
 70
    64
  3
Solid line
 72
    65
 73
     0
 40
0.0
  0
LTYPE
  2
DASHDOT
 70
     0
  3
 __ . __ . __ . __ . __ . __ . __ . 
 72
    65
 73
     4
 40
18.5
 49
12.0
 49
-3.0
 49
0.5
 49
-3.0
  0
ENDTAB
  0
TABLE
  2
LAYER
 70
     1
  0
LAYER
  2
0
 70
     0
 62
     7
  6
CONTINUOUS
  0
ENDTAB
  0
TABLE
  2
STYLE
 70
     1
  0
STYLE
  2
STANDARD
 70
     0
 40
0.0
 41
1.0
 50
0.0
 71
     0
 42
0.0
  3
txt
  4

  0
ENDTAB
  0
TABLE
  2
VIEW
 70
     0
  0
ENDTAB
  0
TABLE
  2
UCS
 70
     0
  0
ENDTAB
  0
TABLE
  2
APPID
 70
     1
  0
APPID
  2
ACAD
 70
     0
  0
ENDTAB
  0
TABLE
  2
DIMSTYLE
 70
     1
  0
DIMSTYLE
  2
STANDARD
 70
     0
  3

  4

  5

  6

  7

 40
1.0
 41
0.18
 42
0.0625
 43
0.38
 44
0.18
 45
0.0
 46
0.0
 47
0.0
 48
0.0
 71
     0
 72
     0
 73
     1
 74
     1
 75
     0
 76
     0
 77
     0
 78
     0
140
0.18
141
0.09
142
0.0
143
25.4
144
1.0
145
0.0
146
1.0
147
0.09
170
     0
171
     2
172
     0
173
     0
174
     0
175
     0
176
     0
177
     0
178
     0
  0
ENDTAB
  0
ENDSEC
  0
SECTION
  2
BLOCKS
  0
ENDSEC
  0
SECTION
  2
ENTITIES
  0
VIEWPORT
  8
0
 62
     0
 67
     1
 68
     1
 10
0.0
 20
0.0
 30
0.0
 40
1000.0
 41
1000.0
 69
     1
1001
ACAD
1000
MVIEW
1002
{
1070
    16
1010
0.0
1020
0.0
1030
0.0
1010
0.0
1020
0.0
1030
1.0
1040
0.0
1040
1000.0
1040
0.0
1040
0.0
1040
50.0
1040
0.0
1040
0.0
1070
     0
1070
   100
1070
     1
1070
     1
1070
     0
1070
     0
1070
     0
1070
     0
1040
0.0
1040
0.0
1040
0.0
1040
1.0
1040
1.0
1040
1.0
1040
1.0
1070
     0
1002
{
1002
}
1002
}
  0
LINE
  8
0
  6
DASHDOT
 62
     7
 10
121.167831
 20
130.908203
 30
0.0
 11
118.047836
 21
130.908203
 31
0.0
210
0.0
220
0.0
230
1.0
  0
LINE
  8
0
  6
DASHDOT
 62
     7
 10
119.607834
 20
132.468201
 30
0.0
 11
119.607834
 21
129.348206
 31
0.0
210
0.0
220
0.0
230
1.0
  0
LINE
  8
0
  6
DASHDOT
 62
     7
 10
109.767838
 20
131.158203
 30
0.0
 11
107.94783
 21
131.158203
 31
0.0
210
0.0
220
0.0
230
1.0
  0
LINE
  8
0
  6
DASHDOT
 62
     7
 10
108.857834
 20
132.068207
 30
0.0
 11
108.857834
 21
130.248199
 31
0.0
210
0.0
220
0.0
230
1.0
  0
LINE
  8
0
  6
DASHDOT
 62
     7
 10
96.527832
 20
139.318207
 30
0.0
 11
94.187836
 21
139.318207
 31
0.0
210
0.0
220
0.0
230
1.0
  0
LINE
  8
0
  6
DASHDOT
 62
     7
 10
95.357834
 20
140.488205
 30
0.0
 11
95.357834
 21
138.148209
 31
0.0
210
0.0
220
0.0
230
1.0
  0
LINE
  8
0
  6
DASHDOT
 62
     7
 10
114.117836
 20
131.158203
 30
0.0
 11
112.297836
 21
131.158203
 31
0.0
210
0.0
220
0.0
230
1.0
  0
LINE
  8
0
  6
DASHDOT
 62
     7
 10
113.207832
 20
132.068207
 30
0.0
 11
113.207832
 21
130.248199
 31
0.0
210
0.0
220
0.0
230
1.0
  0
LINE
  8
0
  6
DASHDOT
 62
     7
 10
96.267838
 20
131.158203
 30
0.0
 11
94.44783
 21
131.158203
 31
0.0
210
0.0
220
0.0
230
1.0
  0
LINE
  8
0
  6
DASHDOT
 62
     7
 10
95.357834
 20
132.068207
 30
0.0
 11
95.357834
 21
130.248199
 31
0.0
210
0.0
220
0.0
230
1.0
  0
LINE
  8
0
  6
DASHDOT
 62
     7
 10
91.917831
 20
131.158203
 30
0.0
 11
90.097832
 21
131.158203
 31
0.0
210
0.0
220
0.0
230
1.0
  0
LINE
  8
0
  6
DASHDOT
 62
     7
 10
91.007835
 20
132.068207
 30
0.0
 11
91.007835
 21
130.248199
 31
0.0
210
0.0
220
0.0
230
1.0
  0
LINE
  8
0
  6
DASHDOT
 62
     7
 10
110.027832
 20
139.318207
 30
0.0
 11
107.687836
 21
139.318207
 31
0.0
210
0.0
220
0.0
230
1.0
  0
LINE
  8
0
  6
DASHDOT
 62
     7
 10
108.857834
 20
140.488205
 30
0.0
 11
108.857834
 21
138.148209
 31
0.0
210
0.0
220
0.0
230
1.0
  0
LINE
  8
0
  6
DASHDOT
 62
     7
 10
60.631584
 20
137.813889
 30
0.0
 11
58.811584
 21
137.813889
 31
0.0
210
0.0
220
0.0
230
1.0
  0
LINE
  8
0
  6
DASHDOT
 62
     7
 10
59.721584
 20
138.723892
 30
0.0
 11
59.721584
 21
136.9039
 31
0.0
210
0.0
220
0.0
230
1.0
  0
LINE
  8
0
  6
DASHDOT
 62
     7
 10
145.404083
 20
137.813889
 30
0.0
 11
143.584076
 21
137.813889
 31
0.0
210
0.0
220
0.0
230
1.0
  0
LINE
  8
0
  6
DASHDOT
 62
     7
 10
144.49408
 20
138.723892
 30
0.0
 11
144.49408
 21
136.9039
 31
0.0
210
0.0
220
0.0
230
1.0
  0
LINE
  8
0
  6
DASHDOT
 62
     7
 10
86.707832
 20
133.508209
 30
0.0
 11
84.887833
 21
133.508209
 31
0.0
210
0.0
220
0.0
230
1.0
  0
LINE
  8
0
  6
DASHDOT
 62
     7
 10
85.797836
 20
134.418213
 30
0.0
 11
85.797836
 21
132.598206
 31
0.0
210
0.0
220
0.0
230
1.0
  0
LINE
  8
0
  6
DASHDOT
 62
     7
 10
76.867836
 20
135.1082
 30
0.0
 11
75.047836
 21
135.1082
 31
0.0
210
0.0
220
0.0
230
1.0
  0
LINE
  8
0
  6
DASHDOT
 62
     7
 10
75.957832
 20
136.018204
 30
0.0
 11
75.957832
 21
134.198212
 31
0.0
210
0.0
220
0.0
230
1.0
  0
LINE
  8
0
  6
DASHDOT
 62
     7
 10
139.898468
 20
192.787689
 30
0.0
 11
138.078461
 21
192.787689
 31
0.0
210
0.0
220
0.0
230
1.0
  0
LINE
  8
0
  6
DASHDOT
 62
     7
 10
138.988464
 20
193.697693
 30
0.0
 11
138.988464
 21
191.877701
 31
0.0
210
0.0
220
0.0
230
1.0
  0
LINE
  8
0
  6
DASHDOT
 62
     7
 10
70.541672
 20
129.839386
 30
0.0
 11
68.721672
 21
129.839386
 31
0.0
210
0.0
220
0.0
230
1.0
  0
LINE
  8
0
  6
DASHDOT
 62
     7
 10
69.631668
 20
130.74939
 30
0.0
 11
69.631668
 21
128.929398
 31
0.0
210
0.0
220
0.0
230
1.0
  0
LINE
  8
0
  6
DASHDOT
 62
     7
 10
135.493988
 20
129.839386
 30
0.0
 11
133.673996
 21
129.839386
 31
0.0
210
0.0
220
0.0
230
1.0
  0
LINE
  8
0
  6
DASHDOT
 62
     7
 10
134.584
 20
130.74939
 30
0.0
 11
134.584
 21
128.929398
 31
0.0
210
0.0
220
0.0
230
1.0
  0
LINE
  8
0
  6
DASHDOT
 62
     7
 10
60.631584
 20
167.913895
 30
0.0
 11
58.811584
 21
167.913895
 31
0.0
210
0.0
220
0.0
230
1.0
  0
LINE
  8
0
  6
DASHDOT
 62
     7
 10
59.721584
 20
168.823898
 30
0.0
 11
59.721584
 21
167.003891
 31
0.0
210
0.0
220
0.0
230
1.0
  0
LINE
  8
0
  6
DASHDOT
 62
     7
 10
139.940445
 20
167.879105
 30
0.0
 11
138.120453
 21
167.879105
 31
0.0
210
0.0
220
0.0
230
1.0
  0
LINE
  8
0
  6
DASHDOT
 62
     7
 10
139.030457
 20
168.789108
 30
0.0
 11
139.030457
 21
166.969116
 31
0.0
210
0.0
220
0.0
230
1.0
  0
LINE
  8
0
  6
DASHDOT
 62
     7
 10
145.404083
 20
167.913895
 30
0.0
 11
143.584076
 21
167.913895
 31
0.0
210
0.0
220
0.0
230
1.0
  0
LINE
  8
0
  6
DASHDOT
 62
     7
 10
144.49408
 20
168.823898
 30
0.0
 11
144.49408
 21
167.003891
 31
0.0
210
0.0
220
0.0
230
1.0
  0
LINE
  8
0
  6
DASHDOT
 62
     7
 10
135.493988
 20
159.939392
 30
0.0
 11
133.673996
 21
159.939392
 31
0.0
210
0.0
220
0.0
230
1.0
  0
LINE
  8
0
  6
DASHDOT
 62
     7
 10
134.584
 20
160.849396
 30
0.0
 11
134.584
 21
159.029388
 31
0.0
210
0.0
220
0.0
230
1.0
  0
LINE
  8
0
  6
DASHDOT
 62
     7
 10
66.095215
 20
167.879105
 30
0.0
 11
64.275223
 21
167.879105
 31
0.0
210
0.0
220
0.0
230
1.0
  0
LINE
  8
0
  6
DASHDOT
 62
     7
 10
65.185219
 20
168.789108
 30
0.0
 11
65.185219
 21
166.969116
 31
0.0
210
0.0
220
0.0
230
1.0
  0
LINE
  8
0
  6
DASHDOT
 62
     7
 10
70.541672
 20
159.939392
 30
0.0
 11
68.721672
 21
159.939392
 31
0.0
210
0.0
220
0.0
230
1.0
  0
LINE
  8
0
  6
DASHDOT
 62
     7
 10
69.631668
 20
160.849396
 30
0.0
 11
69.631668
 21
159.029388
 31
0.0
210
0.0
220
0.0
230
1.0
  0
LINE
  8
0
  6
DASHDOT
 62
     7
 10
66.137207
 20
162.687698
 30
0.0
 11
64.317207
 21
162.687698
 31
0.0
210
0.0
220
0.0
230
1.0
  0
LINE
  8
0
  6
DASHDOT
 62
     7
 10
65.227203
 20
163.597702
 30
0.0
 11
65.227203
 21
161.777695
 31
0.0
210
0.0
220
0.0
230
1.0
  0
LINE
  8
0
  6
DASHDOT
 62
     7
 10
139.898468
 20
162.687698
 30
0.0
 11
138.078461
 21
162.687698
 31
0.0
210
0.0
220
0.0
230
1.0
  0
LINE
  8
0
  6
DASHDOT
 62
     7
 10
138.988464
 20
163.597702
 30
0.0
 11
138.988464
 21
161.777695
 31
0.0
210
0.0
220
0.0
230
1.0
  0
LINE
  8
0
  6
DASHDOT
 62
     7
 10
60.631584
 20
198.013885
 30
0.0
 11
58.811584
 21
198.013885
 31
0.0
210
0.0
220
0.0
230
1.0
  0
LINE
  8
0
  6
DASHDOT
 62
     7
 10
59.721584
 20
198.923889
 30
0.0
 11
59.721584
 21
197.103897
 31
0.0
210
0.0
220
0.0
230
1.0
  0
LINE
  8
0
  6
DASHDOT
 62
     7
 10
139.940445
 20
197.979111
 30
0.0
 11
138.120453
 21
197.979111
 31
0.0
210
0.0
220
0.0
230
1.0
  0
LINE
  8
0
  6
DASHDOT
 62
     7
 10
139.030457
 20
198.889099
 30
0.0
 11
139.030457
 21
197.069107
 31
0.0
210
0.0
220
0.0
230
1.0
  0
LINE
  8
0
  6
DASHDOT
 62
     7
 10
145.404083
 20
198.013885
 30
0.0
 11
143.584076
 21
198.013885
 31
0.0
210
0.0
220
0.0
230
1.0
  0
LINE
  8
0
  6
DASHDOT
 62
     7
 10
144.49408
 20
198.923889
 30
0.0
 11
144.49408
 21
197.103897
 31
0.0
210
0.0
220
0.0
230
1.0
  0
LINE
  8
0
  6
DASHDOT
 62
     7
 10
135.493988
 20
190.039398
 30
0.0
 11
133.673996
 21
190.039398
 31
0.0
210
0.0
220
0.0
230
1.0
  0
LINE
  8
0
  6
DASHDOT
 62
     7
 10
134.584
 20
190.949402
 30
0.0
 11
134.584
 21
189.129395
 31
0.0
210
0.0
220
0.0
230
1.0
  0
LINE
  8
0
  6
DASHDOT
 62
     7
 10
66.095215
 20
197.979111
 30
0.0
 11
64.275223
 21
197.979111
 31
0.0
210
0.0
220
0.0
230
1.0
  0
LINE
  8
0
  6
DASHDOT
 62
     7
 10
65.185219
 20
198.889099
 30
0.0
 11
65.185219
 21
197.069107
 31
0.0
210
0.0
220
0.0
230
1.0
  0
LINE
  8
0
  6
DASHDOT
 62
     7
 10
70.541672
 20
190.039398
 30
0.0
 11
68.721672
 21
190.039398
 31
0.0
210
0.0
220
0.0
230
1.0
  0
LINE
  8
0
  6
DASHDOT
 62
     7
 10
69.631668
 20
190.949402
 30
0.0
 11
69.631668
 21
189.129395
 31
0.0
210
0.0
220
0.0
230
1.0
  0
LINE
  8
0
  6
DASHDOT
 62
     7
 10
66.137207
 20
192.787689
 30
0.0
 11
64.317207
 21
192.787689
 31
0.0
210
0.0
220
0.0
230
1.0
  0
LINE
  8
0
  6
DASHDOT
 62
     7
 10
65.227203
 20
193.697693
 30
0.0
 11
65.227203
 21
191.877701
 31
0.0
210
0.0
220
0.0
230
1.0
  0
LINE
  8
0
  6
DASHDOT
 62
     7
 10
138.295731
 20
166.497101
 30
0.0
 11
135.69574
 21
166.497101
 31
0.0
210
0.0
220
0.0
230
1.0
  0
LINE
  8
0
  6
DASHDOT
 62
     7
 10
136.995728
 20
167.797104
 30
0.0
 11
136.995728
 21
165.197098
 31
0.0
210
0.0
220
0.0
230
1.0
  0
LINE
  8
0
  6
DASHDOT
 62
     7
 10
68.519928
 20
166.497101
 30
0.0
 11
65.919937
 21
166.497101
 31
0.0
210
0.0
220
0.0
230
1.0
  0
LINE
  8
0
  6
DASHDOT
 62
     7
 10
67.219933
 20
167.797104
 30
0.0
 11
67.219933
 21
165.197098
 31
0.0
210
0.0
220
0.0
230
1.0
  0
LINE
  8
0
  6
DASHDOT
 62
     7
 10
68.519928
 20
196.597107
 30
0.0
 11
65.919937
 21
196.597107
 31
0.0
210
0.0
220
0.0
230
1.0
  0
LINE
  8
0
  6
DASHDOT
 62
     7
 10
67.219933
 20
197.897095
 30
0.0
 11
67.219933
 21
195.297089
 31
0.0
210
0.0
220
0.0
230
1.0
  0
LINE
  8
0
  6
DASHDOT
 62
     7
 10
138.295731
 20
196.597107
 30
0.0
 11
135.69574
 21
196.597107
 31
0.0
210
0.0
220
0.0
230
1.0
  0
LINE
  8
0
  6
DASHDOT
 62
     7
 10
136.995728
 20
197.897095
 30
0.0
 11
136.995728
 21
195.297089
 31
0.0
210
0.0
220
0.0
230
1.0
  0
LINE
  8
0
  6
DASHDOT
 62
     7
 10
68.519928
 20
136.397095
 30
0.0
 11
65.919937
 21
136.397095
 31
0.0
210
0.0
220
0.0
230
1.0
  0
LINE
  8
0
  6
DASHDOT
 62
     7
 10
67.219933
 20
137.697098
 30
0.0
 11
67.219933
 21
135.097107
 31
0.0
210
0.0
220
0.0
230
1.0
  0
LINE
  8
0
  6
DASHDOT
 62
     7
 10
66.095215
 20
137.779114
 30
0.0
 11
64.275223
 21
137.779114
 31
0.0
210
0.0
220
0.0
230
1.0
  0
LINE
  8
0
  6
DASHDOT
 62
     7
 10
65.185219
 20
138.689102
 30
0.0
 11
65.185219
 21
136.86911
 31
0.0
210
0.0
220
0.0
230
1.0
  0
LINE
  8
0
  6
DASHDOT
 62
     7
 10
66.137207
 20
132.587692
 30
0.0
 11
64.317207
 21
132.587692
 31
0.0
210
0.0
220
0.0
230
1.0
  0
LINE
  8
0
  6
DASHDOT
 62
     7
 10
65.227203
 20
133.497696
 30
0.0
 11
65.227203
 21
131.677704
 31
0.0
210
0.0
220
0.0
230
1.0
  0
LINE
  8
0
  6
DASHDOT
 62
     7
 10
139.940445
 20
137.779114
 30
0.0
 11
138.120453
 21
137.779114
 31
0.0
210
0.0
220
0.0
230
1.0
  0
LINE
  8
0
  6
DASHDOT
 62
     7
 10
139.030457
 20
138.689102
 30
0.0
 11
139.030457
 21
136.86911
 31
0.0
210
0.0
220
0.0
230
1.0
  0
LINE
  8
0
  6
DASHDOT
 62
     7
 10
139.898468
 20
132.587692
 30
0.0
 11
138.078461
 21
132.587692
 31
0.0
210
0.0
220
0.0
230
1.0
  0
LINE
  8
0
  6
DASHDOT
 62
     7
 10
138.988464
 20
133.497696
 30
0.0
 11
138.988464
 21
131.677704
 31
0.0
210
0.0
220
0.0
230
1.0
  0
LINE
  8
0
  6
DASHDOT
 62
     7
 10
138.295731
 20
136.397095
 30
0.0
 11
135.69574
 21
136.397095
 31
0.0
210
0.0
220
0.0
230
1.0
  0
LINE
  8
0
  6
DASHDOT
 62
     7
 10
136.995728
 20
137.697098
 30
0.0
 11
136.995728
 21
135.097107
 31
0.0
210
0.0
220
0.0
230
1.0
  0
LINE
  8
0
  6
DASHDOT
 62
     7
 10
141.217834
 20
225.908203
 30
0.0
 11
138.097839
 21
225.908203
 31
0.0
210
0.0
220
0.0
230
1.0
  0
LINE
  8
0
  6
DASHDOT
 62
     7
 10
139.657837
 20
227.468201
 30
0.0
 11
139.657837
 21
224.348206
 31
0.0
210
0.0
220
0.0
230
1.0
  0
POLYLINE
  8
0
 62
     7
 66
     1
 10
0.0
 20
0.0
 30
0.0
 70
     1
 71
    12
  0
VERTEX
  8
0
 10
57.28186
 20
237.528793
 30
0.0
  0
VERTEX
  8
0
 10
57.503349
 20
237.528793
 30
0.0
  0
VERTEX
  8
0
 10
57.503349
 20
238.700562
 30
0.0
  0
VERTEX
  8
0
 10
58.346359
 20
238.700562
 30
0.0
  0
VERTEX
  8
0
 10
58.346359
 20
237.528793
 30
0.0
  0
VERTEX
  8
0
 10
58.567848
 20
237.528793
 30
0.0
  0
VERTEX
  8
0
 10
58.567848
 20
240.028793
 30
0.0
  0
VERTEX
  8
0
 10
58.346359
 20
240.028793
 30
0.0
  0
VERTEX
  8
0
 10
58.346359
 20
239.003067
 30
0.0
  0
VERTEX
  8
0
 10
57.503349
 20
239.003067
 30
0.0
  0
VERTEX
  8
0
 10
57.503349
 20
240.028793
 30
0.0
  0
VERTEX
  8
0
 10
57.28186
 20
240.028793
 30
0.0
  0
SEQEND
  8
0
  0
POLYLINE
  8
0
 62
     7
 66
     1
 10
0.0
 20
0.0
 30
0.0
 70
     1
 71
    32
  0
VERTEX
  8
0
 10
59.345837
 20
238.777054
 30
0.0
  0
VERTEX
  8
0
 10
59.35714
 20
238.478027
 30
0.0
  0
VERTEX
  8
0
 10
59.39782
 20
238.217255
 30
0.0
  0
VERTEX
  8
0
 10
59.463364
 20
237.991241
 30
0.0
  0
VERTEX
  8
0
 10
59.551506
 20
237.803482
 30
0.0
  0
VERTEX
  8
0
 10
59.662251
 20
237.653961
 30
0.0
  0
VERTEX
  8
0
 10
59.793335
 20
237.546173
 30
0.0
  0
VERTEX
  8
0
 10
59.944759
 20
237.483597
 30
0.0
  0
VERTEX
  8
0
 10
60.116528
 20
237.459259
 30
0.0
  0
VERTEX
  8
0
 10
60.286034
 20
237.483597
 30
0.0
  0
VERTEX
  8
0
 10
60.437458
 20
237.546173
 30
0.0
  0
VERTEX
  8
0
 10
60.568542
 20
237.653961
 30
0.0
  0
VERTEX
  8
0
 10
60.679287
 20
237.803482
 30
0.0
  0
VERTEX
  8
0
 10
60.767429
 20
237.991241
 30
0.0
  0
VERTEX
  8
0
 10
60.830711
 20
238.217255
 30
0.0
  0
VERTEX
  8
0
 10
60.869133
 20
238.478027
 30
0.0
  0
VERTEX
  8
0
 10
60.884956
 20
238.777054
 30
0.0
  0
VERTEX
  8
0
 10
60.871395
 20
239.072601
 30
0.0
  0
VERTEX
  8
0
 10
60.830711
 20
239.333389
 30
0.0
  0
VERTEX
  8
0
 10
60.765171
 20
239.559387
 30
0.0
  0
VERTEX
  8
0
 10
60.679287
 20
239.747147
 30
0.0
  0
VERTEX
  8
0
 10
60.568542
 20
239.896667
 30
0.0
  0
VERTEX
  8
0
 10
60.437458
 20
240.004456
 30
0.0
  0
VERTEX
  8
0
 10
60.286034
 20
240.070511
 30
0.0
  0
VERTEX
  8
0
 10
60.116528
 20
240.094864
 30
0.0
  0
VERTEX
  8
0
 10
59.944759
 20
240.070511
 30
0.0
  0
VERTEX
  8
0
 10
59.793335
 20
240.004456
 30
0.0
  0
VERTEX
  8
0
 10
59.662251
 20
239.896667
 30
0.0
  0
VERTEX
  8
0
 10
59.551506
 20
239.747147
 30
0.0
  0
VERTEX
  8
0
 10
59.463364
 20
239.559387
 30
0.0
  0
VERTEX
  8
0
 10
59.39782
 20
239.333389
 30
0.0
  0
VERTEX
  8
0
 10
59.35714
 20
239.072601
 30
0.0
  0
SEQEND
  8
0
  0
POLYLINE
  8
0
 62
     7
 66
     1
 10
0.0
 20
0.0
 30
0.0
 70
     1
 71
    16
  0
VERTEX
  8
0
 10
59.574108
 20
238.777054
 30
0.0
  0
VERTEX
  8
0
 10
59.610268
 20
239.208206
 30
0.0
  0
VERTEX
  8
0
 10
59.71875
 20
239.53157
 30
0.0
  0
VERTEX
  8
0
 10
59.890518
 20
239.729767
 30
0.0
  0
VERTEX
  8
0
 10
60.116528
 20
239.799301
 30
0.0
  0
VERTEX
  8
0
 10
60.340275
 20
239.729767
 30
0.0
  0
VERTEX
  8
0
 10
60.512039
 20
239.53157
 30
0.0
  0
VERTEX
  8
0
 10
60.618263
 20
239.208206
 30
0.0
  0
VERTEX
  8
0
 10
60.656685
 20
238.777054
 30
0.0
  0
VERTEX
  8
0
 10
60.618263
 20
238.342422
 30
0.0
  0
VERTEX
  8
0
 10
60.512039
 20
238.019058
 30
0.0
  0
VERTEX
  8
0
 10
60.340275
 20
237.820862
 30
0.0
  0
VERTEX
  8
0
 10
60.116528
 20
237.754807
 30
0.0
  0
VERTEX
  8
0
 10
59.890518
 20
237.820862
 30
0.0
  0
VERTEX
  8
0
 10
59.71875
 20
238.019058
 30
0.0
  0
VERTEX
  8
0
 10
59.610268
 20
238.342422
 30
0.0
  0
SEQEND
  8
0
  0
POLYLINE
  8
0
 62
     7
 66
     1
 10
0.0
 20
0.0
 30
0.0
 70
     1
 71
     6
  0
VERTEX
  8
0
 10
61.662945
 20
237.528793
 30
0.0
  0
VERTEX
  8
0
 10
62.695805
 20
237.528793
 30
0.0
  0
VERTEX
  8
0
 10
62.695805
 20
237.8452
 30
0.0
  0
VERTEX
  8
0
 10
61.886692
 20
237.8452
 30
0.0
  0
VERTEX
  8
0
 10
61.886692
 20
240.028793
 30
0.0
  0
VERTEX
  8
0
 10
61.662945
 20
240.028793
 30
0.0
  0
SEQEND
  8
0
  0
POLYLINE
  8
0
 62
     7
 66
     1
 10
0.0
 20
0.0
 30
0.0
 70
     1
 71
    12
  0
VERTEX
  8
0
 10
63.372089
 20
237.528793
 30
0.0
  0
VERTEX
  8
0
 10
64.549591
 20
237.528793
 30
0.0
  0
VERTEX
  8
0
 10
64.549591
 20
237.841721
 30
0.0
  0
VERTEX
  8
0
 10
63.591316
 20
237.841721
 30
0.0
  0
VERTEX
  8
0
 10
63.591316
 20
238.679703
 30
0.0
  0
VERTEX
  8
0
 10
64.45919
 20
238.679703
 30
0.0
  0
VERTEX
  8
0
 10
64.45919
 20
238.971771
 30
0.0
  0
VERTEX
  8
0
 10
63.591316
 20
238.971771
 30
0.0
  0
VERTEX
  8
0
 10
63.591316
 20
239.71933
 30
0.0
  0
VERTEX
  8
0
 10
64.531509
 20
239.71933
 30
0.0
  0
VERTEX
  8
0
 10
64.531509
 20
240.028793
 30
0.0
  0
VERTEX
  8
0
 10
63.372089
 20
240.028793
 30
0.0
  0
SEQEND
  8
0
  0
POLYLINE
  8
0
 62
     7
 66
     1
 10
0.0
 20
0.0
 30
0.0
 70
     1
 71
    15
  0
VERTEX
  8
0
 10
66.435547
 20
237.528793
 30
0.0
  0
VERTEX
  8
0
 10
66.657036
 20
237.528793
 30
0.0
  0
VERTEX
  8
0
 10
66.657036
 20
238.582336
 30
0.0
  0
VERTEX
  8
0
 10
66.991524
 20
238.582336
 30
0.0
  0
VERTEX
  8
0
 10
67.213013
 20
238.596252
 30
0.0
  0
VERTEX
  8
0
 10
67.389297
 20
238.683182
 30
0.0
  0
VERTEX
  8
0
 10
67.542984
 20
238.933517
 30
0.0
  0
VERTEX
  8
0
 10
67.597229
 20
239.305573
 30
0.0
  0
VERTEX
  8
0
 10
67.581406
 20
239.510712
 30
0.0
  0
VERTEX
  8
0
 10
67.542984
 20
239.688049
 30
0.0
  0
VERTEX
  8
0
 10
67.477448
 20
239.830597
 30
0.0
  0
VERTEX
  8
0
 10
67.391563
 20
239.934906
 30
0.0
  0
VERTEX
  8
0
 10
67.224312
 20
240.011414
 30
0.0
  0
VERTEX
  8
0
 10
67.03447
 20
240.028793
 30
0.0
  0
VERTEX
  8
0
 10
66.435547
 20
240.028793
 30
0.0
  0
SEQEND
  8
0
  0
POLYLINE
  8
0
 62
     7
 66
     1
 10
0.0
 20
0.0
 30
0.0
 70
     1
 71
    11
  0
VERTEX
  8
0
 10
66.657036
 20
238.884842
 30
0.0
  0
VERTEX
  8
0
 10
66.657036
 20
239.722809
 30
0.0
  0
VERTEX
  8
0
 10
67.04351
 20
239.722809
 30
0.0
  0
VERTEX
  8
0
 10
67.190414
 20
239.698471
 30
0.0
  0
VERTEX
  8
0
 10
67.292114
 20
239.628937
 30
0.0
  0
VERTEX
  8
0
 10
67.353142
 20
239.500275
 30
0.0
  0
VERTEX
  8
0
 10
67.373482
 20
239.305573
 30
0.0
  0
VERTEX
  8
0
 10
67.353142
 20
239.100418
 30
0.0
  0
VERTEX
  8
0
 10
67.289856
 20
238.971771
 30
0.0
  0
VERTEX
  8
0
 10
67.181374
 20
238.902222
 30
0.0
  0
VERTEX
  8
0
 10
67.027687
 20
238.884842
 30
0.0
  0
SEQEND
  8
0
  0
POLYLINE
  8
0
 62
     7
 66
     1
 10
0.0
 20
0.0
 30
0.0
 70
     1
 71
     8
  0
VERTEX
  8
0
 10
68.178589
 20
237.528793
 30
0.0
  0
VERTEX
  8
0
 10
68.40686
 20
237.528793
 30
0.0
  0
VERTEX
  8
0
 10
68.580887
 20
238.276352
 30
0.0
  0
VERTEX
  8
0
 10
69.22049
 20
238.276352
 30
0.0
  0
VERTEX
  8
0
 10
69.392258
 20
237.528793
 30
0.0
  0
VERTEX
  8
0
 10
69.631821
 20
237.528793
 30
0.0
  0
VERTEX
  8
0
 10
69.026123
 20
240.028793
 30
0.0
  0
VERTEX
  8
0
 10
68.782036
 20
240.028793
 30
0.0
  0
SEQEND
  8
0
  0
POLYLINE
  8
0
 62
     7
 66
     1
 10
0.0
 20
0.0
 30
0.0
 70
     1
 71
     3
  0
VERTEX
  8
0
 10
68.648689
 20
238.568436
 30
0.0
  0
VERTEX
  8
0
 10
68.904076
 20
239.670654
 30
0.0
  0
VERTEX
  8
0
 10
69.154945
 20
238.568436
 30
0.0
  0
SEQEND
  8
0
  0
POLYLINE
  8
0
 62
     7
 66
     1
 10
0.0
 20
0.0
 30
0.0
 70
     1
 71
     8
  0
VERTEX
  8
0
 10
70.658424
 20
237.528793
 30
0.0
  0
VERTEX
  8
0
 10
70.879913
 20
237.528793
 30
0.0
  0
VERTEX
  8
0
 10
70.879913
 20
239.726288
 30
0.0
  0
VERTEX
  8
0
 10
71.392952
 20
239.726288
 30
0.0
  0
VERTEX
  8
0
 10
71.392952
 20
240.028793
 30
0.0
  0
VERTEX
  8
0
 10
70.145386
 20
240.028793
 30
0.0
  0
VERTEX
  8
0
 10
70.145386
 20
239.726288
 30
0.0
  0
VERTEX
  8
0
 10
70.658424
 20
239.726288
 30
0.0
  0
SEQEND
  8
0
  0
POLYLINE
  8
0
 62
     7
 66
     1
 10
0.0
 20
0.0
 30
0.0
 70
     1
 71
     8
  0
VERTEX
  8
0
 10
72.448929
 20
237.528793
 30
0.0
  0
VERTEX
  8
0
 10
72.670418
 20
237.528793
 30
0.0
  0
VERTEX
  8
0
 10
72.670418
 20
239.726288
 30
0.0
  0
VERTEX
  8
0
 10
73.183456
 20
239.726288
 30
0.0
  0
VERTEX
  8
0
 10
73.183456
 20
240.028793
 30
0.0
  0
VERTEX
  8
0
 10
71.93589
 20
240.028793
 30
0.0
  0
VERTEX
  8
0
 10
71.93589
 20
239.726288
 30
0.0
  0
VERTEX
  8
0
 10
72.448929
 20
239.726288
 30
0.0
  0
SEQEND
  8
0
  0
POLYLINE
  8
0
 62
     7
 66
     1
 10
0.0
 20
0.0
 30
0.0
 70
     1
 71
    12
  0
VERTEX
  8
0
 10
73.880089
 20
237.528793
 30
0.0
  0
VERTEX
  8
0
 10
75.057587
 20
237.528793
 30
0.0
  0
VERTEX
  8
0
 10
75.057587
 20
237.841721
 30
0.0
  0
VERTEX
  8
0
 10
74.099319
 20
237.841721
 30
0.0
  0
VERTEX
  8
0
 10
74.099319
 20
238.679703
 30
0.0
  0
VERTEX
  8
0
 10
74.967186
 20
238.679703
 30
0.0
  0
VERTEX
  8
0
 10
74.967186
 20
238.971771
 30
0.0
  0
VERTEX
  8
0
 10
74.099319
 20
238.971771
 30
0.0
  0
VERTEX
  8
0
 10
74.099319
 20
239.71933
 30
0.0
  0
VERTEX
  8
0
 10
75.039505
 20
239.71933
 30
0.0
  0
VERTEX
  8
0
 10
75.039505
 20
240.028793
 30
0.0
  0
VERTEX
  8
0
 10
73.880089
 20
240.028793
 30
0.0
  0
SEQEND
  8
0
  0
POLYLINE
  8
0
 62
     7
 66
     1
 10
0.0
 20
0.0
 30
0.0
 70
     1
 71
    30
  0
VERTEX
  8
0
 10
75.82428
 20
240.028793
 30
0.0
  0
VERTEX
  8
0
 10
75.82428
 20
237.528793
 30
0.0
  0
VERTEX
  8
0
 10
76.04351
 20
237.528793
 30
0.0
  0
VERTEX
  8
0
 10
76.04351
 20
238.599731
 30
0.0
  0
VERTEX
  8
0
 10
76.400604
 20
238.599731
 30
0.0
  0
VERTEX
  8
0
 10
76.572365
 20
238.589294
 30
0.0
  0
VERTEX
  8
0
 10
76.678589
 20
238.53714
 30
0.0
  0
VERTEX
  8
0
 10
76.73735
 20
238.418915
 30
0.0
  0
VERTEX
  8
0
 10
76.762215
 20
238.19986
 30
0.0
  0
VERTEX
  8
0
 10
76.775772
 20
237.873016
 30
0.0
  0
VERTEX
  8
0
 10
76.787079
 20
237.674835
 30
0.0
  0
VERTEX
  8
0
 10
76.818718
 20
237.528793
 30
0.0
  0
VERTEX
  8
0
 10
77.074104
 20
237.528793
 30
0.0
  0
VERTEX
  8
0
 10
77.074104
 20
237.598328
 30
0.0
  0
VERTEX
  8
0
 10
77.019867
 20
237.699173
 30
0.0
  0
VERTEX
  8
0
 10
76.999527
 20
237.890411
 30
0.0
  0
VERTEX
  8
0
 10
76.981445
 20
238.300705
 30
0.0
  0
VERTEX
  8
0
 10
76.965622
 20
238.474548
 30
0.0
  0
VERTEX
  8
0
 10
76.936241
 20
238.610153
 30
0.0
  0
VERTEX
  8
0
 10
76.881996
 20
238.704041
 30
0.0
  0
VERTEX
  8
0
 10
76.796112
 20
238.766617
 30
0.0
  0
VERTEX
  8
0
 10
76.891037
 20
238.860504
 30
0.0
  0
VERTEX
  8
0
 10
76.961105
 20
238.989151
 30
0.0
  0
VERTEX
  8
0
 10
77.004044
 20
239.14563
 30
0.0
  0
VERTEX
  8
0
 10
77.019867
 20
239.336853
 30
0.0
  0
VERTEX
  8
0
 10
77.004044
 20
239.53157
 30
0.0
  0
VERTEX
  8
0
 10
76.965622
 20
239.70195
 30
0.0
  0
VERTEX
  8
0
 10
76.809677
 20
239.941864
 30
0.0
  0
VERTEX
  8
0
 10
76.644691
 20
240.014893
 30
0.0
  0
VERTEX
  8
0
 10
76.454842
 20
240.028793
 30
0.0
  0
SEQEND
  8
0
  0
POLYLINE
  8
0
 62
     7
 66
     1
 10
0.0
 20
0.0
 30
0.0
 70
     1
 71
    11
  0
VERTEX
  8
0
 10
76.041245
 20
239.736725
 30
0.0
  0
VERTEX
  8
0
 10
76.418686
 20
239.736725
 30
0.0
  0
VERTEX
  8
0
 10
76.579147
 20
239.71933
 30
0.0
  0
VERTEX
  8
0
 10
76.696671
 20
239.656754
 30
0.0
  0
VERTEX
  8
0
 10
76.766739
 20
239.535049
 30
0.0
  0
VERTEX
  8
0
 10
76.791595
 20
239.32991
 30
0.0
  0
VERTEX
  8
0
 10
76.766739
 20
239.117813
 30
0.0
  0
VERTEX
  8
0
 10
76.698929
 20
238.982208
 30
0.0
  0
VERTEX
  8
0
 10
76.581406
 20
238.90918
 30
0.0
  0
VERTEX
  8
0
 10
76.418686
 20
238.888321
 30
0.0
  0
VERTEX
  8
0
 10
76.041245
 20
238.888321
 30
0.0
  0
SEQEND
  8
0
  0
POLYLINE
  8
0
 62
     7
 66
     1
 10
0.0
 20
0.0
 30
0.0
 70
     1
 71
    12
  0
VERTEX
  8
0
 10
77.822716
 20
237.528793
 30
0.0
  0
VERTEX
  8
0
 10
78.032898
 20
237.528793
 30
0.0
  0
VERTEX
  8
0
 10
78.032898
 20
239.555908
 30
0.0
  0
VERTEX
  8
0
 10
78.093925
 20
239.371628
 30
0.0
  0
VERTEX
  8
0
 10
78.869133
 20
237.528793
 30
0.0
  0
VERTEX
  8
0
 10
79.108704
 20
237.528793
 30
0.0
  0
VERTEX
  8
0
 10
79.108704
 20
240.028793
 30
0.0
  0
VERTEX
  8
0
 10
78.898514
 20
240.028793
 30
0.0
  0
VERTEX
  8
0
 10
78.898514
 20
238.001678
 30
0.0
  0
VERTEX
  8
0
 10
78.823929
 20
238.213776
 30
0.0
  0
VERTEX
  8
0
 10
78.064545
 20
240.028793
 30
0.0
  0
VERTEX
  8
0
 10
77.822716
 20
240.028793
 30
0.0
  0
SEQEND
  8
0
  0
ARC
  8
0
 62
     7
 10
87.907837
 20
129.708206
 30
0.0
 40
1.5
 50
25.841934
 51
90.000003
210
0.0
220
0.0
230
1.0
  0
ARC
  8
0
 62
     7
 10
87.907837
 20
129.708206
 30
0.0
 40
1.5
 50
20.000001
 51
25.841934
210
0.0
220
0.0
230
1.0
  0
LINE
  8
0
 62
     7
 10
89.317375
 20
130.221237
 30
0.0
 11
89.868073
 21
128.708206
 31
0.0
210
0.0
220
0.0
230
1.0
  0
LINE
  8
0
 62
     7
 10
102.107834
 20
128.708206
 30
0.0
 11
114.957832
 21
128.708206
 31
0.0
210
0.0
220
0.0
230
1.0
  0
LINE
  8
0
 62
     7
 10
102.107834
 20
128.708206
 30
0.0
 11
89.868073
 21
128.708206
 31
0.0
210
0.0
220
0.0
230
1.0
  0
CIRCLE
  8
0
 62
     7
 10
108.857834
 20
131.158203
 30
0.0
 40
0.7
210
0.0
220
0.0
230
1.0
  0
CIRCLE
  8
0
 62
     7
 10
95.357834
 20
139.318207
 30
0.0
 40
0.9
210
0.0
220
0.0
230
1.0
  0
CIRCLE
  8
0
 62
     7
 10
113.207832
 20
131.158203
 30
0.0
 40
0.7
210
0.0
220
0.0
230
1.0
  0
CIRCLE
  8
0
 62
     7
 10
95.357834
 20
131.158203
 30
0.0
 40
0.7
210
0.0
220
0.0
230
1.0
  0
CIRCLE
  8
0
 62
     7
 10
91.007835
 20
131.158203
 30
0.0
 40
0.7
210
0.0
220
0.0
230
1.0
  0
CIRCLE
  8
0
 62
     7
 10
108.857834
 20
139.318207
 30
0.0
 40
0.9
210
0.0
220
0.0
230
1.0
  0
LINE
  8
0
 62
     7
 10
78.607834
 20
131.208206
 30
0.0
 11
87.607834
 21
131.208206
 31
0.0
210
0.0
220
0.0
230
1.0
  0
LINE
  8
0
 62
     7
 10
87.607834
 20
131.208206
 30
0.0
 11
87.907837
 21
131.208206
 31
0.0
210
0.0
220
0.0
230
1.0
  0
ARC
  8
0
 62
     7
 10
64.65229
 20
180.818542
 30
0.0
 40
1.5
 50
299.250003
 51
29.249998
210
0.0
220
0.0
230
1.0
  0
LINE
  8
0
 62
     7
 10
65.000587
 20
179.294388
 30
0.0
 11
65.385223
 21
179.509796
 31
0.0
210
0.0
220
0.0
230
1.0
  0
LINE
  8
0
 62
     7
 10
63.260349
 20
178.319809
 30
0.0
 11
65.000587
 21
179.294388
 31
0.0
210
0.0
220
0.0
230
1.0
  0
ARC
  8
0
 62
     7
 10
64.65229
 20
150.718536
 30
0.0
 40
1.5
 50
299.250003
 51
29.249998
210
0.0
220
0.0
230
1.0
  0
LINE
  8
0
 62
     7
 10
65.000587
 20
149.194382
 30
0.0
 11
65.385223
 21
149.40979
 31
0.0
210
0.0
220
0.0
230
1.0
  0
LINE
  8
0
 62
     7
 10
63.260349
 20
148.219803
 30
0.0
 11
65.000587
 21
149.194382
 31
0.0
210
0.0
220
0.0
230
1.0
  0
LINE
  8
0
 62
     7
 10
117.715012
 20
128.708206
 30
0.0
 11
114.957832
 21
128.708206
 31
0.0
210
0.0
220
0.0
230
1.0
  0
LINE
  8
0
 62
     7
 10
118.407837
 20
129.1082
 30
0.0
 11
117.715012
 21
128.708206
 31
0.0
210
0.0
220
0.0
230
1.0
  0
LINE
  8
0
 62
     7
 10
118.407837
 20
129.1082
 30
0.0
 11
118.407837
 21
130.908203
 31
0.0
210
0.0
220
0.0
230
1.0
  0
ARC
  8
0
 62
     7
 10
119.607834
 20
130.908203
 30
0.0
 40
1.2
 50
0.0
 51
180.000005
210
0.0
220
0.0
230
1.0
  0
LINE
  8
0
 62
     7
 10
120.807831
 20
130.908203
 30
0.0
 11
120.807831
 21
128.708206
 31
0.0
210
0.0
220
0.0
230
1.0
  0
LINE
  8
0
 62
     7
 10
132.925522
 20
128.708206
 30
0.0
 11
120.807831
 21
128.708206
 31
0.0
210
0.0
220
0.0
230
1.0
  0
ARC
  8
0
 62
     7
 10
132.925522
 20
127.208206
 30
0.0
 40
1.5
 50
56.442689
 51
73.597638
210
0.0
220
0.0
230
1.0
  0
ARC
  8
0
 62
     7
 10
132.925522
 20
127.208206
 30
0.0
 40
1.5
 50
73.597638
 51
90.000003
210
0.0
220
0.0
230
1.0
  0
LINE
  8
0
 62
     7
 10
132.007828
 20
134.708206
 30
0.0
 11
132.007828
 21
134.700165
 31
0.0
210
0.0
220
0.0
230
1.0
  0
LINE
  8
0
 62
     7
 10
140.955322
 20
148.219803
 30
0.0
 11
139.215088
 21
149.194382
 31
0.0
210
0.0
220
0.0
230
1.0
  0
LINE
  8
0
 62
     7
 10
139.215088
 20
149.194382
 30
0.0
 11
138.830444
 21
149.40979
 31
0.0
210
0.0
220
0.0
230
1.0
  0
ARC
  8
0
 62
     7
 10
139.563385
 20
150.718536
 30
0.0
 40
1.5
 50
150.750007
 51
240.750006
210
0.0
220
0.0
230
1.0
  0
LINE
  8
0
 62
     7
 10
140.955322
 20
178.319809
 30
0.0
 11
139.215088
 21
179.294388
 31
0.0
210
0.0
220
0.0
230
1.0
  0
LINE
  8
0
 62
     7
 10
139.215088
 20
179.294388
 30
0.0
 11
138.830444
 21
179.509796
 31
0.0
210
0.0
220
0.0
230
1.0
  0
ARC
  8
0
 62
     7
 10
139.563385
 20
180.818542
 30
0.0
 40
1.5
 50
150.750007
 51
240.750006
210
0.0
220
0.0
230
1.0
  0
LINE
  8
0
 62
     7
 10
92.457832
 20
138.3582
 30
0.0
 11
93.757835
 21
138.3582
 31
0.0
210
0.0
220
0.0
230
1.0
  0
LINE
  8
0
 62
     7
 10
93.757835
 20
140.008209
 30
0.0
 11
93.757835
 21
138.3582
 31
0.0
210
0.0
220
0.0
230
1.0
  0
LINE
  8
0
 62
     7
 10
93.757835
 20
140.008209
 30
0.0
 11
92.457832
 21
140.008209
 31
0.0
210
0.0
220
0.0
230
1.0
  0
LINE
  8
0
 62
     7
 10
92.457832
 20
138.3582
 30
0.0
 11
92.457832
 21
140.008209
 31
0.0
210
0.0
220
0.0
230
1.0
  0
LINE
  8
0
 62
     7
 10
96.957832
 20
138.3582
 30
0.0
 11
98.257835
 21
138.3582
 31
0.0
210
0.0
220
0.0
230
1.0
  0
LINE
  8
0
 62
     7
 10
98.257835
 20
140.008209
 30
0.0
 11
98.257835
 21
138.3582
 31
0.0
210
0.0
220
0.0
230
1.0
  0
LINE
  8
0
 62
     7
 10
98.257835
 20
140.008209
 30
0.0
 11
96.957832
 21
140.008209
 31
0.0
210
0.0
220
0.0
230
1.0
  0
LINE
  8
0
 62
     7
 10
96.957832
 20
138.3582
 30
0.0
 11
96.957832
 21
140.008209
 31
0.0
210
0.0
220
0.0
230
1.0
  0
LINE
  8
0
 62
     7
 10
111.757835
 20
138.3582
 30
0.0
 11
111.757835
 21
140.008209
 31
0.0
210
0.0
220
0.0
230
1.0
  0
LINE
  8
0
 62
     7
 10
110.457832
 20
140.008209
 30
0.0
 11
111.757835
 21
140.008209
 31
0.0
210
0.0
220
0.0
230
1.0
  0
LINE
  8
0
 62
     7
 10
110.457832
 20
140.008209
 30
0.0
 11
110.457832
 21
138.3582
 31
0.0
210
0.0
220
0.0
230
1.0
  0
LINE
  8
0
 62
     7
 10
111.757835
 20
138.3582
 30
0.0
 11
110.457832
 21
138.3582
 31
0.0
210
0.0
220
0.0
230
1.0
  0
LINE
  8
0
 62
     7
 10
107.257835
 20
138.3582
 30
0.0
 11
107.257835
 21
140.008209
 31
0.0
210
0.0
220
0.0
230
1.0
  0
LINE
  8
0
 62
     7
 10
105.957832
 20
140.008209
 30
0.0
 11
107.257835
 21
140.008209
 31
0.0
210
0.0
220
0.0
230
1.0
  0
LINE
  8
0
 62
     7
 10
105.957832
 20
140.008209
 30
0.0
 11
105.957832
 21
138.3582
 31
0.0
210
0.0
220
0.0
230
1.0
  0
LINE
  8
0
 62
     7
 10
107.257835
 20
138.3582
 30
0.0
 11
105.957832
 21
138.3582
 31
0.0
210
0.0
220
0.0
230
1.0
  0
LINE
  8
0
 62
     7
 10
101.457832
 20
138.3582
 30
0.0
 11
102.757835
 21
138.3582
 31
0.0
210
0.0
220
0.0
230
1.0
  0
LINE
  8
0
 62
     7
 10
102.757835
 20
140.008209
 30
0.0
 11
102.757835
 21
138.3582
 31
0.0
210
0.0
220
0.0
230
1.0
  0
LINE
  8
0
 62
     7
 10
102.757835
 20
140.008209
 30
0.0
 11
101.457832
 21
140.008209
 31
0.0
210
0.0
220
0.0
230
1.0
  0
LINE
  8
0
 62
     7
 10
101.457832
 20
138.3582
 30
0.0
 11
101.457832
 21
140.008209
 31
0.0
210
0.0
220
0.0
230
1.0
  0
LINE
  8
0
 62
     7
 10
140.857834
 20
227.708206
 30
0.0
 11
144.107834
 21
227.708206
 31
0.0
210
0.0
220
0.0
230
1.0
  0
LINE
  8
0
 62
     7
 10
140.857834
 20
227.708206
 30
0.0
 11
140.857834
 21
225.908203
 31
0.0
210
0.0
220
0.0
230
1.0
  0
ARC
  8
0
 62
     7
 10
139.657837
 20
225.908203
 30
0.0
 40
1.2
 50
318.59038
 51
0.0
210
0.0
220
0.0
230
1.0
  0
ARC
  8
0
 62
     7
 10
139.657837
 20
225.908203
 30
0.0
 40
1.2
 50
180.000005
 51
221.409615
210
0.0
220
0.0
230
1.0
  0
ARC
  8
0
 62
     7
 10
139.657837
 20
225.908203
 30
0.0
 40
1.2
 50
221.409615
 51
318.59038
210
0.0
220
0.0
230
1.0
  0
LINE
  8
0
 62
     7
 10
60.107834
 20
227.708206
 30
0.0
 11
63.657833
 21
227.708206
 31
0.0
210
0.0
220
0.0
230
1.0
  0
LINE
  8
0
 62
     7
 10
63.657833
 20
227.708206
 30
0.0
 11
65.457832
 21
227.708206
 31
0.0
210
0.0
220
0.0
230
1.0
  0
LINE
  8
0
 62
     7
 10
102.107834
 20
227.708206
 30
0.0
 11
65.457832
 21
227.708206
 31
0.0
210
0.0
220
0.0
230
1.0
  0
ARC
  8
0
 62
     7
 10
63.87109
 20
204.259384
 30
0.0
 40
1.5
 50
299.250003
 51
29.249998
210
0.0
220
0.0
230
1.0
  0
LINE
  8
0
 62
     7
 10
63.260349
 20
178.319809
 30
0.0
 11
65.17984
 21
174.892319
 31
0.0
210
0.0
220
0.0
230
1.0
  0
ARC
  8
0
 62
     7
 10
63.87109
 20
174.159378
 30
0.0
 40
1.5
 50
299.250003
 51
29.249998
210
0.0
220
0.0
230
1.0
  0
LINE
  8
0
 62
     7
 10
63.260349
 20
148.219803
 30
0.0
 11
65.17984
 21
144.792313
 31
0.0
210
0.0
220
0.0
230
1.0
  0
ARC
  8
0
 62
     7
 10
63.87109
 20
144.059387
 30
0.0
 40
1.5
 50
299.250003
 51
29.249998
210
0.0
220
0.0
230
1.0
  0
CIRCLE
  8
0
 62
     7
 10
59.721584
 20
137.813889
 30
0.0
 40
0.7
210
0.0
220
0.0
230
1.0
  0
ARC
  8
0
 62
     7
 10
67.107834
 20
128.208206
 30
0.0
 40
1.5
 50
80.191455
 51
90.000003
210
0.0
220
0.0
230
1.0
  0
ARC
  8
0
 62
     7
 10
67.107834
 20
128.208206
 30
0.0
 40
1.5
 50
24.903947
 51
37.992026
210
0.0
220
0.0
230
1.0
  0
ARC
  8
0
 62
     7
 10
67.107834
 20
128.208206
 30
0.0
 40
1.5
 50
37.992026
 51
80.191455
210
0.0
220
0.0
230
1.0
  0
ARC
  8
0
 62
     7
 10
69.284668
 20
129.218842
 30
0.0
 40
0.9
 50
204.903944
 51
234.647396
210
0.0
220
0.0
230
1.0
  0
ARC
  8
0
 62
     7
 10
69.631836
 20
129.708206
 30
0.0
 40
1.5
 50
234.647396
 51
276.96578
210
0.0
220
0.0
230
1.0
  0
ARC
  8
0
 62
     7
 10
69.631836
 20
129.708206
 30
0.0
 40
1.5
 50
276.96578
 51
303.557311
210
0.0
220
0.0
230
1.0
  0
ARC
  8
0
 62
     7
 10
71.290146
 20
127.208206
 30
0.0
 40
1.5
 50
106.402367
 51
123.557316
210
0.0
220
0.0
230
1.0
  0
ARC
  8
0
 62
     7
 10
71.290146
 20
127.208206
 30
0.0
 40
1.5
 50
90.000003
 51
106.402367
210
0.0
220
0.0
230
1.0
  0
LINE
  8
0
 62
     7
 10
71.290146
 20
128.708206
 30
0.0
 11
73.607834
 21
128.708206
 31
0.0
210
0.0
220
0.0
230
1.0
  0
LINE
  8
0
 62
     7
 10
77.107834
 20
128.708206
 30
0.0
 11
73.607834
 21
128.708206
 31
0.0
210
0.0
220
0.0
230
1.0
  0
LINE
  8
0
 62
     7
 10
77.107834
 20
128.708206
 30
0.0
 11
77.107834
 21
129.708206
 31
0.0
210
0.0
220
0.0
230
1.0
  0
ARC
  8
0
 62
     7
 10
78.607834
 20
129.708206
 30
0.0
 40
1.5
 50
90.000003
 51
180.000005
210
0.0
220
0.0
230
1.0
  0
ARC
  8
0
 62
     7
 10
134.583832
 20
129.708206
 30
0.0
 40
1.5
 50
263.034222
 51
305.352602
210
0.0
220
0.0
230
1.0
  0
ARC
  8
0
 62
     7
 10
134.583832
 20
129.708206
 30
0.0
 40
1.5
 50
236.442684
 51
263.034222
210
0.0
220
0.0
230
1.0
  0
ARC
  8
0
 62
     7
 10
134.931
 20
129.218842
 30
0.0
 40
0.9
 50
305.352602
 51
335.096053
210
0.0
220
0.0
230
1.0
  0
ARC
  8
0
 62
     7
 10
137.107834
 20
128.208206
 30
0.0
 40
1.5
 50
90.000003
 51
99.808543
210
0.0
220
0.0
230
1.0
  0
ARC
  8
0
 62
     7
 10
137.107834
 20
128.208206
 30
0.0
 40
1.5
 50
99.808543
 51
142.007979
210
0.0
220
0.0
230
1.0
  0
ARC
  8
0
 62
     7
 10
137.107834
 20
128.208206
 30
0.0
 40
1.5
 50
142.007979
 51
155.096056
210
0.0
220
0.0
230
1.0
  0
CIRCLE
  8
0
 62
     7
 10
144.49408
 20
137.813889
 30
0.0
 40
0.7
210
0.0
220
0.0
230
1.0
  0
ARC
  8
0
 62
     7
 10
140.344574
 20
144.059387
 30
0.0
 40
1.5
 50
150.750007
 51
240.750006
210
0.0
220
0.0
230
1.0
  0
LINE
  8
0
 62
     7
 10
140.955322
 20
148.219803
 30
0.0
 11
139.035828
 21
144.792313
 31
0.0
210
0.0
220
0.0
230
1.0
  0
ARC
  8
0
 62
     7
 10
140.344574
 20
174.159378
 30
0.0
 40
1.5
 50
150.750007
 51
240.750006
210
0.0
220
0.0
230
1.0
  0
LINE
  8
0
 62
     7
 10
140.955322
 20
178.319809
 30
0.0
 11
139.035828
 21
174.892319
 31
0.0
210
0.0
220
0.0
230
1.0
  0
ARC
  8
0
 62
     7
 10
140.344574
 20
204.259384
 30
0.0
 40
1.5
 50
150.750007
 51
240.750006
210
0.0
220
0.0
230
1.0
  0
CIRCLE
  8
0
 62
     7
 10
85.797836
 20
133.508209
 30
0.0
 40
0.7
210
0.0
220
0.0
230
1.0
  0
CIRCLE
  8
0
 62
     7
 10
75.957832
 20
135.1082
 30
0.0
 40
0.7
210
0.0
220
0.0
230
1.0
  0
CIRCLE
  8
0
 62
     7
 10
138.988464
 20
192.787689
 30
0.0
 40
0.7
210
0.0
220
0.0
230
1.0
  0
CIRCLE
  8
0
 62
     7
 10
69.631668
 20
129.839386
 30
0.0
 40
0.7
210
0.0
220
0.0
230
1.0
  0
CIRCLE
  8
0
 62
     7
 10
134.584
 20
129.839386
 30
0.0
 40
0.7
210
0.0
220
0.0
230
1.0
  0
CIRCLE
  8
0
 62
     7
 10
59.721584
 20
167.913895
 30
0.0
 40
0.7
210
0.0
220
0.0
230
1.0
  0
CIRCLE
  8
0
 62
     7
 10
139.030457
 20
167.879105
 30
0.0
 40
0.7
210
0.0
220
0.0
230
1.0
  0
CIRCLE
  8
0
 62
     7
 10
144.49408
 20
167.913895
 30
0.0
 40
0.7
210
0.0
220
0.0
230
1.0
  0
CIRCLE
  8
0
 62
     7
 10
134.584
 20
159.939392
 30
0.0
 40
0.7
210
0.0
220
0.0
230
1.0
  0
CIRCLE
  8
0
 62
     7
 10
65.185219
 20
167.879105
 30
0.0
 40
0.7
210
0.0
220
0.0
230
1.0
  0
CIRCLE
  8
0
 62
     7
 10
69.631668
 20
159.939392
 30
0.0
 40
0.7
210
0.0
220
0.0
230
1.0
  0
CIRCLE
  8
0
 62
     7
 10
65.227203
 20
162.687698
 30
0.0
 40
0.7
210
0.0
220
0.0
230
1.0
  0
CIRCLE
  8
0
 62
     7
 10
138.988464
 20
162.687698
 30
0.0
 40
0.7
210
0.0
220
0.0
230
1.0
  0
CIRCLE
  8
0
 62
     7
 10
59.721584
 20
198.013885
 30
0.0
 40
0.7
210
0.0
220
0.0
230
1.0
  0
CIRCLE
  8
0
 62
     7
 10
139.030457
 20
197.979111
 30
0.0
 40
0.7
210
0.0
220
0.0
230
1.0
  0
CIRCLE
  8
0
 62
     7
 10
144.49408
 20
198.013885
 30
0.0
 40
0.7
210
0.0
220
0.0
230
1.0
  0
CIRCLE
  8
0
 62
     7
 10
134.584
 20
190.039398
 30
0.0
 40
0.7
210
0.0
220
0.0
230
1.0
  0
CIRCLE
  8
0
 62
     7
 10
65.185219
 20
197.979111
 30
0.0
 40
0.7
210
0.0
220
0.0
230
1.0
  0
CIRCLE
  8
0
 62
     7
 10
69.631668
 20
190.039398
 30
0.0
 40
0.7
210
0.0
220
0.0
230
1.0
  0
CIRCLE
  8
0
 62
     7
 10
65.227203
 20
192.787689
 30
0.0
 40
0.7
210
0.0
220
0.0
230
1.0
  0
CIRCLE
  8
0
 62
     7
 10
136.995728
 20
166.497101
 30
0.0
 40
1.0
210
0.0
220
0.0
230
1.0
  0
CIRCLE
  8
0
 62
     7
 10
67.219933
 20
166.497101
 30
0.0
 40
1.0
210
0.0
220
0.0
230
1.0
  0
CIRCLE
  8
0
 62
     7
 10
67.219933
 20
196.597107
 30
0.0
 40
1.0
210
0.0
220
0.0
230
1.0
  0
CIRCLE
  8
0
 62
     7
 10
136.995728
 20
196.597107
 30
0.0
 40
1.0
210
0.0
220
0.0
230
1.0
  0
LINE
  8
0
 62
     7
 10
72.207832
 20
134.708206
 30
0.0
 11
72.207832
 21
134.700165
 31
0.0
210
0.0
220
0.0
230
1.0
  0
LINE
  8
0
 62
     7
 10
144.107834
 20
222.058197
 30
0.0
 11
144.107834
 21
227.708206
 31
0.0
210
0.0
220
0.0
230
1.0
  0
LINE
  8
0
 62
     7
 10
138.457825
 20
227.708206
 30
0.0
 11
138.457825
 21
225.908203
 31
0.0
210
0.0
220
0.0
230
1.0
  0
LINE
  8
0
 62
     7
 10
102.107834
 20
227.708206
 30
0.0
 11
138.457825
 21
227.708206
 31
0.0
210
0.0
220
0.0
230
1.0
  0
LINE
  8
0
 62
     7
 10
60.107834
 20
227.708206
 30
0.0
 11
60.107834
 21
222.058197
 31
0.0
210
0.0
220
0.0
230
1.0
  0
LINE
  8
0
 62
     7
 10
58.107834
 20
134.559647
 30
0.0
 11
58.107834
 21
129.708206
 31
0.0
210
0.0
220
0.0
230
1.0
  0
LINE
  8
0
 62
     7
 10
67.107834
 20
129.708206
 30
0.0
 11
58.107834
 21
129.708206
 31
0.0
210
0.0
220
0.0
230
1.0
  0
LINE
  8
0
 62
     7
 10
146.107834
 20
134.559647
 30
0.0
 11
146.107834
 21
129.708206
 31
0.0
210
0.0
220
0.0
230
1.0
  0
LINE
  8
0
 62
     7
 10
146.107834
 20
129.708206
 30
0.0
 11
137.107834
 21
129.708206
 31
0.0
210
0.0
220
0.0
230
1.0
  0
CIRCLE
  8
0
 62
     7
 10
67.219933
 20
136.397095
 30
0.0
 40
1.0
210
0.0
220
0.0
230
1.0
  0
CIRCLE
  8
0
 62
     7
 10
65.185219
 20
137.779114
 30
0.0
 40
0.7
210
0.0
220
0.0
230
1.0
  0
CIRCLE
  8
0
 62
     7
 10
65.227203
 20
132.587692
 30
0.0
 40
0.7
210
0.0
220
0.0
230
1.0
  0
CIRCLE
  8
0
 62
     7
 10
139.030457
 20
137.779114
 30
0.0
 40
0.7
210
0.0
220
0.0
230
1.0
  0
CIRCLE
  8
0
 62
     7
 10
138.988464
 20
132.587692
 30
0.0
 40
0.7
210
0.0
220
0.0
230
1.0
  0
CIRCLE
  8
0
 62
     7
 10
136.995728
 20
136.397095
 30
0.0
 40
1.0
210
0.0
220
0.0
230
1.0
  0
LINE
  8
0
 62
     7
 10
58.455162
 20
194.954163
 30
0.0
 11
65.961029
 21
181.551468
 31
0.0
210
0.0
220
0.0
230
1.0
  0
LINE
  8
0
 62
     7
 10
58.455162
 20
164.854156
 30
0.0
 11
65.961029
 21
151.451462
 31
0.0
210
0.0
220
0.0
230
1.0
  0
LINE
  8
0
 62
     7
 10
145.760498
 20
164.854156
 30
0.0
 11
138.254639
 21
151.451462
 31
0.0
210
0.0
220
0.0
230
1.0
  0
LINE
  8
0
 62
     7
 10
145.760498
 20
194.954163
 30
0.0
 11
138.254639
 21
181.551468
 31
0.0
210
0.0
220
0.0
230
1.0
  0
ARC
  8
0
 62
     7
 10
140.061569
 20
210.066467
 30
0.0
 40
1.0
 50
163.750001
 51
215.394254
210
0.0
220
0.0
230
1.0
  0
LINE
  8
0
 62
     7
 10
140.607086
 20
215.511627
 30
0.0
 11
139.101532
 21
210.346283
 31
0.0
210
0.0
220
0.0
230
1.0
  0
ARC
  8
0
 62
     7
 10
142.04715
 20
215.091888
 30
0.0
 40
1.5
 50
150.750007
 51
163.750001
210
0.0
220
0.0
230
1.0
  0
LINE
  8
0
 62
     7
 10
140.738419
 20
215.824829
 30
0.0
 11
144.107834
 21
221.841354
 31
0.0
210
0.0
220
0.0
230
1.0
  0
LINE
  8
0
 62
     7
 10
144.107834
 20
222.058197
 30
0.0
 11
144.107834
 21
221.841354
 31
0.0
210
0.0
220
0.0
230
1.0
  0
LINE
  8
0
 62
     7
 10
60.107834
 20
222.058197
 30
0.0
 11
60.107834
 21
221.841354
 31
0.0
210
0.0
220
0.0
230
1.0
  0
LINE
  8
0
 62
     7
 10
63.477253
 20
215.824829
 30
0.0
 11
60.107834
 21
221.841354
 31
0.0
210
0.0
220
0.0
230
1.0
  0
ARC
  8
0
 62
     7
 10
62.16851
 20
215.091888
 30
0.0
 40
1.5
 50
16.25
 51
29.249998
210
0.0
220
0.0
230
1.0
  0
LINE
  8
0
 62
     7
 10
63.608585
 20
215.511627
 30
0.0
 11
65.114143
 21
210.346283
 31
0.0
210
0.0
220
0.0
230
1.0
  0
ARC
  8
0
 62
     7
 10
64.154099
 20
210.066467
 30
0.0
 40
1.0
 50
324.605748
 51
16.25
210
0.0
220
0.0
230
1.0
  0
LINE
  8
0
 62
     7
 10
146.107834
 20
199.312592
 30
0.0
 11
146.107834
 21
195.574371
 31
0.0
210
0.0
220
0.0
230
1.0
  0
LINE
  8
0
 62
     7
 10
146.107834
 20
199.312592
 30
0.0
 11
139.611649
 21
202.950638
 31
0.0
210
0.0
220
0.0
230
1.0
  0
LINE
  8
0
 62
     7
 10
140.955322
 20
208.4198
 30
0.0
 11
139.035828
 21
204.99231
 31
0.0
210
0.0
220
0.0
230
1.0
  0
LINE
  8
0
 62
     7
 10
140.955322
 20
208.4198
 30
0.0
 11
139.572952
 21
209.19397
 31
0.0
210
0.0
220
0.0
230
1.0
  0
ARC
  8
0
 62
     7
 10
140.061569
 20
210.066467
 30
0.0
 40
1.0
 50
215.394254
 51
240.750006
210
0.0
220
0.0
230
1.0
  0
LINE
  8
0
 62
     7
 10
146.107834
 20
195.574371
 30
0.0
 11
145.760498
 21
194.954163
 31
0.0
210
0.0
220
0.0
230
1.0
  0
LINE
  8
0
 62
     7
 10
146.107834
 20
169.212601
 30
0.0
 11
139.611649
 21
172.850647
 31
0.0
210
0.0
220
0.0
230
1.0
  0
LINE
  8
0
 62
     7
 10
146.107834
 20
165.474365
 30
0.0
 11
145.760498
 21
164.854156
 31
0.0
210
0.0
220
0.0
230
1.0
  0
LINE
  8
0
 62
     7
 10
146.107834
 20
169.212601
 30
0.0
 11
146.107834
 21
165.474365
 31
0.0
210
0.0
220
0.0
230
1.0
  0
LINE
  8
0
 62
     7
 10
146.107834
 20
139.112595
 30
0.0
 11
139.611649
 21
142.750641
 31
0.0
210
0.0
220
0.0
230
1.0
  0
LINE
  8
0
 62
     7
 10
146.107834
 20
139.112595
 30
0.0
 11
146.107834
 21
134.559647
 31
0.0
210
0.0
220
0.0
230
1.0
  0
LINE
  8
0
 62
     7
 10
58.107834
 20
139.112595
 30
0.0
 11
58.107834
 21
134.559647
 31
0.0
210
0.0
220
0.0
230
1.0
  0
LINE
  8
0
 62
     7
 10
58.107834
 20
139.112595
 30
0.0
 11
64.604019
 21
142.750641
 31
0.0
210
0.0
220
0.0
230
1.0
  0
LINE
  8
0
 62
     7
 10
58.107834
 20
165.474365
 30
0.0
 11
58.455162
 21
164.854156
 31
0.0
210
0.0
220
0.0
230
1.0
  0
LINE
  8
0
 62
     7
 10
58.107834
 20
169.212601
 30
0.0
 11
64.604019
 21
172.850647
 31
0.0
210
0.0
220
0.0
230
1.0
  0
LINE
  8
0
 62
     7
 10
58.107834
 20
169.212601
 30
0.0
 11
58.107834
 21
165.474365
 31
0.0
210
0.0
220
0.0
230
1.0
  0
LINE
  8
0
 62
     7
 10
58.107834
 20
199.312592
 30
0.0
 11
58.107834
 21
195.574371
 31
0.0
210
0.0
220
0.0
230
1.0
  0
LINE
  8
0
 62
     7
 10
58.107834
 20
195.574371
 30
0.0
 11
58.455162
 21
194.954163
 31
0.0
210
0.0
220
0.0
230
1.0
  0
ARC
  8
0
 62
     7
 10
64.154099
 20
210.066467
 30
0.0
 40
1.0
 50
299.250003
 51
324.605748
210
0.0
220
0.0
230
1.0
  0
LINE
  8
0
 62
     7
 10
63.260349
 20
208.4198
 30
0.0
 11
64.642715
 21
209.19397
 31
0.0
210
0.0
220
0.0
230
1.0
  0
LINE
  8
0
 62
     7
 10
63.260349
 20
208.4198
 30
0.0
 11
65.17984
 21
204.99231
 31
0.0
210
0.0
220
0.0
230
1.0
  0
LINE
  8
0
 62
     7
 10
58.107834
 20
199.312592
 30
0.0
 11
64.604019
 21
202.950638
 31
0.0
210
0.0
220
0.0
230
1.0
  0
ENDSEC
  0
EOF
