  0
SECTION
  2
HEADER
  9
$ACADVER
  1
AC1009
  9
$DWGCODEPAGE
  3
ansi_1252
  9
$INSBASE
 10
0.0
 20
0.0
 30
0.0
  9
$EXTMIN
 10
0.0
 20
0.0
 30
0.0
  9
$EXTMAX
 10
146.107834
 20
245.877197
 30
2.0
  9
$LIMMIN
 10
0.0
 20
0.0
  9
$LIMMAX
 10
420.0
 20
297.0
  9
$ORTHOMODE
 70
     0
  9
$REGENMODE
 70
     1
  9
$FILLMODE
 70
     1
  9
$QTEXTMODE
 70
     0
  9
$MIRRTEXT
 70
     1
  9
$DRAGMODE
 70
     2
  9
$LTSCALE
 40
1.0
  9
$OSMODE
 70
     0
  9
$ATTMODE
 70
     1
  9
$TEXTSIZE
 40
2.5
  9
$TRACEWID
 40
1.0
  9
$TEXTSTYLE
  7
STANDARD
  9
$CLAYER
  8
0
  9
$CELTYPE
  6
BYLAYER
  9
$CECOLOR
 62
   256
  9
$DIMSCALE
 40
1.0
  9
$DIMASZ
 40
2.5
  9
$DIMEXO
 40
0.625
  9
$DIMDLI
 40
3.75
  9
$DIMRND
 40
0.0
  9
$DIMDLE
 40
0.0
  9
$DIMEXE
 40
1.25
  9
$DIMTP
 40
0.0
  9
$DIMTM
 40
0.0
  9
$DIMTXT
 40
2.5
  9
$DIMCEN
 40
2.5
  9
$DIMTSZ
 40
0.0
  9
$DIMTOL
 70
     0
  9
$DIMLIM
 70
     0
  9
$DIMTIH
 70
     0
  9
$DIMTOH
 70
     0
  9
$DIMSE1
 70
     0
  9
$DIMSE2
 70
     0
  9
$DIMTAD
 70
     1
  9
$DIMZIN
 70
     8
  9
$DIMBLK
  1

  9
$DIMASO
 70
     1
  9
$DIMSHO
 70
     1
  9
$DIMPOST
  1

  9
$DIMAPOST
  1

  9
$DIMALT
 70
     0
  9
$DIMALTD
 70
     3
  9
$DIMALTF
 40
0.03937
  9
$DIMLFAC
 40
1.0
  9
$DIMTOFL
 70
     1
  9
$DIMTVP
 40
0.0
  9
$DIMTIX
 70
     0
  9
$DIMSOXD
 70
     0
  9
$DIMSAH
 70
     0
  9
$DIMBLK1
  1

  9
$DIMBLK2
  1

  9
$DIMSTYLE
  2

  9
$DIMCLRD
 70
     0
  9
$DIMCLRE
 70
     0
  9
$DIMCLRT
 70
     0
  9
$DIMTFAC
 40
1.0
  9
$DIMGAP
 40
0.625
  9
$LUNITS
 70
     2
  9
$LUPREC
 70
     4
  9
$AXISMODE
 70
     0
  9
$AXISUNIT
 10
0.0
 20
0.0
  9
$SKETCHINC
 40
1.0
  9
$FILLETRAD
 40
2.5
  9
$AUNITS
 70
     0
  9
$AUPREC
 70
     0
  9
$MENU
  1
.
  9
$ELEVATION
 40
0.0
  9
$PELEVATION
 40
0.0
  9
$THICKNESS
 40
0.0
  9
$LIMCHECK
 70
     0
  9
$BLIPMODE
 70
     1
  9
$CHAMFERA
 40
2.5
  9
$CHAMFERB
 40
2.5
  9
$SKPOLY
 70
     0
  9
$TDCREATE
 40
0.000000000
  9
$TDUPDATE
 40
0.000000000
  9
$TDINDWG
 40
0.0000000000
  9
$TDUSRTIMER
 40
0.0000000000
  9
$USRTIMER
 70
     1
  9
$ANGBASE
 50
0.0
  9
$ANGDIR
 70
     0
  9
$PDMODE
 70
     0
  9
$PDSIZE
 40
0.0
  9
$PLINEWID
 40
0.0
  9
$COORDS
 70
     0
  9
$SPLFRAME
 70
     0
  9
$SPLINETYPE
 70
     6
  9
$SPLINESEGS
 70
     8
  9
$ATTDIA
 70
     0
  9
$ATTREQ
 70
     1
  9
$HANDLING
 70
     0
  9
$HANDSEED
  5
3
  9
$SURFTAB1
 70
     6
  9
$SURFTAB2
 70
     6
  9
$SURFTYPE
 70
     6
  9
$SURFU
 70
     6
  9
$SURFV
 70
     6
  9
$UCSNAME
  2

  9
$UCSORG
 10
0.0
 20
0.0
 30
0.0
  9
$UCSXDIR
 10
1.0
 20
0.0
 30
0.0
  9
$UCSYDIR
 10
0.0
 20
1.0
 30
0.0
  9
$PUCSNAME
  2

  9
$PUCSORG
 10
0.0
 20
0.0
 30
0.0
  9
$PUCSXDIR
 10
1.0
 20
0.0
 30
0.0
  9
$PUCSYDIR
 10
0.0
 20
1.0
 30
0.0
  9
$USERI1
 70
     0
  9
$USERI2
 70
     0
  9
$USERI3
 70
     0
  9
$USERI4
 70
     0
  9
$USERI5
 70
     0
  9
$USERR1
 40
0.0
  9
$USERR2
 40
0.0
  9
$USERR3
 40
0.0
  9
$USERR4
 40
0.0
  9
$USERR5
 40
0.0
  9
$WORLDVIEW
 70
     1
  9
$SHADEDGE
 70
     3
  9
$SHADEDIF
 70
    70
  9
$TILEMODE
 70
     1
  9
$MAXACTVP
 70
    48
  9
$PINSBASE
 10
0.0
 20
0.0
 30
0.0
  9
$PLIMCHECK
 70
     0
  9
$PEXTMIN
 10
0.0
 20
0.0
 30
0.0
  9
$PEXTMAX
 10
146.107834
 20
245.877197
 30
2.0
  9
$PLIMMIN
 10
0.0
 20
0.0
  9
$PLIMMAX
 10
420.0
 20
297.0
  9
$UNITMODE
 70
     0
  9
$VISRETAIN
 70
     0
  9
$PLINEGEN
 70
     0
  9
$PSLTSCALE
 70
     1
  9
$TREEDEPTH
 70
  3020
  0
ENDSEC
  0
SECTION
  2
TABLES
  0
TABLE
  2
VPORT
 70
     1
  0
VPORT
  2
*ACTIVE
 70
     0
 10
0.0
 20
0.0
 11
1.0
 21
1.0
 12
6.591288
 22
4.579184
 13
0.0
 23
0.0
 14
1.0
 24
1.0
 15
0.0
 25
0.0
 16
0.0
 26
0.0
 36
1.0
 17
0.0
 27
0.0
 37
0.0
 40
9.158369
 41
0.688564
 42
50.0
 43
0.0
 44
0.0
 50
0.0
 51
0.0
 71
     0
 72
   100
 73
     1
 74
     1
 75
     0
 76
     0
 77
     0
 78
     0
  0
ENDTAB
  0
TABLE
  2
LTYPE
 70
     2
  0
LTYPE
  2
CONTINUOUS
 70
    64
  3
Solid line
 72
    65
 73
     0
 40
0.0
  0
LTYPE
  2
DASHDOT
 70
     0
  3
 __ . __ . __ . __ . __ . __ . __ . 
 72
    65
 73
     4
 40
18.5
 49
12.0
 49
-3.0
 49
0.5
 49
-3.0
  0
ENDTAB
  0
TABLE
  2
LAYER
 70
     1
  0
LAYER
  2
0
 70
     0
 62
     7
  6
CONTINUOUS
  0
ENDTAB
  0
TABLE
  2
STYLE
 70
     1
  0
STYLE
  2
STANDARD
 70
     0
 40
0.0
 41
1.0
 50
0.0
 71
     0
 42
0.0
  3
txt
  4

  0
ENDTAB
  0
TABLE
  2
VIEW
 70
     0
  0
ENDTAB
  0
TABLE
  2
UCS
 70
     0
  0
ENDTAB
  0
TABLE
  2
APPID
 70
     1
  0
APPID
  2
ACAD
 70
     0
  0
ENDTAB
  0
TABLE
  2
DIMSTYLE
 70
     1
  0
DIMSTYLE
  2
STANDARD
 70
     0
  3

  4

  5

  6

  7

 40
1.0
 41
0.18
 42
0.0625
 43
0.38
 44
0.18
 45
0.0
 46
0.0
 47
0.0
 48
0.0
 71
     0
 72
     0
 73
     1
 74
     1
 75
     0
 76
     0
 77
     0
 78
     0
140
0.18
141
0.09
142
0.0
143
25.4
144
1.0
145
0.0
146
1.0
147
0.09
170
     0
171
     2
172
     0
173
     0
174
     0
175
     0
176
     0
177
     0
178
     0
  0
ENDTAB
  0
ENDSEC
  0
SECTION
  2
BLOCKS
  0
ENDSEC
  0
SECTION
  2
ENTITIES
  0
VIEWPORT
  8
0
 62
     0
 67
     1
 68
     1
 10
0.0
 20
0.0
 30
0.0
 40
1000.0
 41
1000.0
 69
     1
1001
ACAD
1000
MVIEW
1002
{
1070
    16
1010
0.0
1020
0.0
1030
0.0
1010
0.0
1020
0.0
1030
1.0
1040
0.0
1040
1000.0
1040
0.0
1040
0.0
1040
50.0
1040
0.0
1040
0.0
1070
     0
1070
   100
1070
     1
1070
     1
1070
     0
1070
     0
1070
     0
1070
     0
1040
0.0
1040
0.0
1040
0.0
1040
1.0
1040
1.0
1040
1.0
1040
1.0
1070
     0
1002
{
1002
}
1002
}
  0
LINE
  8
0
  6
DASHDOT
 62
     7
 10
121.167831
 20
130.908203
 30
0.0
 11
118.047836
 21
130.908203
 31
0.0
210
0.0
220
0.0
230
1.0
  0
LINE
  8
0
  6
DASHDOT
 62
     7
 10
119.607834
 20
132.468201
 30
0.0
 11
119.607834
 21
129.348206
 31
0.0
210
0.0
220
0.0
230
1.0
  0
LINE
  8
0
  6
DASHDOT
 62
     7
 10
141.217834
 20
225.908203
 30
0.0
 11
138.097839
 21
225.908203
 31
0.0
210
0.0
220
0.0
230
1.0
  0
LINE
  8
0
  6
DASHDOT
 62
     7
 10
139.657837
 20
227.468201
 30
0.0
 11
139.657837
 21
224.348206
 31
0.0
210
0.0
220
0.0
230
1.0
  0
POLYLINE
  8
0
 62
     7
 66
     1
 10
0.0
 20
0.0
 30
0.0
 70
     1
 71
    12
  0
VERTEX
  8
0
 10
56.779602
 20
242.528793
 30
0.0
  0
VERTEX
  8
0
 10
56.989788
 20
242.528793
 30
0.0
  0
VERTEX
  8
0
 10
56.989788
 20
244.555908
 30
0.0
  0
VERTEX
  8
0
 10
57.050812
 20
244.371628
 30
0.0
  0
VERTEX
  8
0
 10
57.826019
 20
242.528793
 30
0.0
  0
VERTEX
  8
0
 10
58.065586
 20
242.528793
 30
0.0
  0
VERTEX
  8
0
 10
58.065586
 20
245.028793
 30
0.0
  0
VERTEX
  8
0
 10
57.8554
 20
245.028793
 30
0.0
  0
VERTEX
  8
0
 10
57.8554
 20
243.001678
 30
0.0
  0
VERTEX
  8
0
 10
57.780819
 20
243.213776
 30
0.0
  0
VERTEX
  8
0
 10
57.021431
 20
245.028793
 30
0.0
  0
VERTEX
  8
0
 10
56.779602
 20
245.028793
 30
0.0
  0
SEQEND
  8
0
  0
POLYLINE
  8
0
 62
     7
 66
     1
 10
0.0
 20
0.0
 30
0.0
 70
     1
 71
    32
  0
VERTEX
  8
0
 10
58.841316
 20
243.777054
 30
0.0
  0
VERTEX
  8
0
 10
58.852619
 20
243.478027
 30
0.0
  0
VERTEX
  8
0
 10
58.893299
 20
243.217255
 30
0.0
  0
VERTEX
  8
0
 10
58.958843
 20
242.991241
 30
0.0
  0
VERTEX
  8
0
 10
59.046986
 20
242.803482
 30
0.0
  0
VERTEX
  8
0
 10
59.15773
 20
242.653961
 30
0.0
  0
VERTEX
  8
0
 10
59.288815
 20
242.546173
 30
0.0
  0
VERTEX
  8
0
 10
59.440239
 20
242.483597
 30
0.0
  0
VERTEX
  8
0
 10
59.612007
 20
242.459259
 30
0.0
  0
VERTEX
  8
0
 10
59.781513
 20
242.483597
 30
0.0
  0
VERTEX
  8
0
 10
59.932938
 20
242.546173
 30
0.0
  0
VERTEX
  8
0
 10
60.064022
 20
242.653961
 30
0.0
  0
VERTEX
  8
0
 10
60.174767
 20
242.803482
 30
0.0
  0
VERTEX
  8
0
 10
60.262909
 20
242.991241
 30
0.0
  0
VERTEX
  8
0
 10
60.326191
 20
243.217255
 30
0.0
  0
VERTEX
  8
0
 10
60.364613
 20
243.478027
 30
0.0
  0
VERTEX
  8
0
 10
60.380436
 20
243.777054
 30
0.0
  0
VERTEX
  8
0
 10
60.366875
 20
244.072601
 30
0.0
  0
VERTEX
  8
0
 10
60.326191
 20
244.333389
 30
0.0
  0
VERTEX
  8
0
 10
60.260651
 20
244.559387
 30
0.0
  0
VERTEX
  8
0
 10
60.174767
 20
244.747147
 30
0.0
  0
VERTEX
  8
0
 10
60.064022
 20
244.896667
 30
0.0
  0
VERTEX
  8
0
 10
59.932938
 20
245.004456
 30
0.0
  0
VERTEX
  8
0
 10
59.781513
 20
245.070511
 30
0.0
  0
VERTEX
  8
0
 10
59.612007
 20
245.094864
 30
0.0
  0
VERTEX
  8
0
 10
59.440239
 20
245.070511
 30
0.0
  0
VERTEX
  8
0
 10
59.288815
 20
245.004456
 30
0.0
  0
VERTEX
  8
0
 10
59.15773
 20
244.896667
 30
0.0
  0
VERTEX
  8
0
 10
59.046986
 20
244.747147
 30
0.0
  0
VERTEX
  8
0
 10
58.958843
 20
244.559387
 30
0.0
  0
VERTEX
  8
0
 10
58.893299
 20
244.333389
 30
0.0
  0
VERTEX
  8
0
 10
58.852619
 20
244.072601
 30
0.0
  0
SEQEND
  8
0
  0
POLYLINE
  8
0
 62
     7
 66
     1
 10
0.0
 20
0.0
 30
0.0
 70
     1
 71
    16
  0
VERTEX
  8
0
 10
59.069588
 20
243.777054
 30
0.0
  0
VERTEX
  8
0
 10
59.105747
 20
244.208206
 30
0.0
  0
VERTEX
  8
0
 10
59.214233
 20
244.53157
 30
0.0
  0
VERTEX
  8
0
 10
59.385998
 20
244.729767
 30
0.0
  0
VERTEX
  8
0
 10
59.612007
 20
244.799301
 30
0.0
  0
VERTEX
  8
0
 10
59.835754
 20
244.729767
 30
0.0
  0
VERTEX
  8
0
 10
60.007523
 20
244.53157
 30
0.0
  0
VERTEX
  8
0
 10
60.113743
 20
244.208206
 30
0.0
  0
VERTEX
  8
0
 10
60.152164
 20
243.777054
 30
0.0
  0
VERTEX
  8
0
 10
60.113743
 20
243.342422
 30
0.0
  0
VERTEX
  8
0
 10
60.007523
 20
243.019058
 30
0.0
  0
VERTEX
  8
0
 10
59.835754
 20
242.820862
 30
0.0
  0
VERTEX
  8
0
 10
59.612007
 20
242.754807
 30
0.0
  0
VERTEX
  8
0
 10
59.385998
 20
242.820862
 30
0.0
  0
VERTEX
  8
0
 10
59.214233
 20
243.019058
 30
0.0
  0
VERTEX
  8
0
 10
59.105747
 20
243.342422
 30
0.0
  0
SEQEND
  8
0
  0
POLYLINE
  8
0
 62
     7
 66
     1
 10
0.0
 20
0.0
 30
0.0
 70
     1
 71
    12
  0
VERTEX
  8
0
 10
61.156166
 20
242.528793
 30
0.0
  0
VERTEX
  8
0
 10
61.366352
 20
242.528793
 30
0.0
  0
VERTEX
  8
0
 10
61.366352
 20
244.555908
 30
0.0
  0
VERTEX
  8
0
 10
61.427376
 20
244.371628
 30
0.0
  0
VERTEX
  8
0
 10
62.202583
 20
242.528793
 30
0.0
  0
VERTEX
  8
0
 10
62.442154
 20
242.528793
 30
0.0
  0
VERTEX
  8
0
 10
62.442154
 20
245.028793
 30
0.0
  0
VERTEX
  8
0
 10
62.231964
 20
245.028793
 30
0.0
  0
VERTEX
  8
0
 10
62.231964
 20
243.001678
 30
0.0
  0
VERTEX
  8
0
 10
62.157383
 20
243.213776
 30
0.0
  0
VERTEX
  8
0
 10
61.397995
 20
245.028793
 30
0.0
  0
VERTEX
  8
0
 10
61.156166
 20
245.028793
 30
0.0
  0
SEQEND
  8
0
  0
POLYLINE
  8
0
 62
     7
 66
     1
 10
0.0
 20
0.0
 30
0.0
 70
     1
 71
     4
  0
VERTEX
  8
0
 10
63.19302
 20
243.311127
 30
0.0
  0
VERTEX
  8
0
 10
63.73996
 20
243.311127
 30
0.0
  0
VERTEX
  8
0
 10
63.73996
 20
243.585815
 30
0.0
  0
VERTEX
  8
0
 10
63.19302
 20
243.585815
 30
0.0
  0
SEQEND
  8
0
  0
POLYLINE
  8
0
 62
     7
 66
     1
 10
0.0
 20
0.0
 30
0.0
 70
     1
 71
    22
  0
VERTEX
  8
0
 10
64.484047
 20
243.478027
 30
0.0
  0
VERTEX
  8
0
 10
64.52021
 20
243.029495
 30
0.0
  0
VERTEX
  8
0
 10
64.635475
 20
242.713074
 30
0.0
  0
VERTEX
  8
0
 10
64.825325
 20
242.525314
 30
0.0
  0
VERTEX
  8
0
 10
65.094269
 20
242.459259
 30
0.0
  0
VERTEX
  8
0
 10
65.379044
 20
242.525314
 30
0.0
  0
VERTEX
  8
0
 10
65.586975
 20
242.716553
 30
0.0
  0
VERTEX
  8
0
 10
65.713531
 20
243.032959
 30
0.0
  0
VERTEX
  8
0
 10
65.756477
 20
243.478027
 30
0.0
  0
VERTEX
  8
0
 10
65.756477
 20
245.028793
 30
0.0
  0
VERTEX
  8
0
 10
65.534988
 20
245.028793
 30
0.0
  0
VERTEX
  8
0
 10
65.534988
 20
243.474548
 30
0.0
  0
VERTEX
  8
0
 10
65.507866
 20
243.168564
 30
0.0
  0
VERTEX
  8
0
 10
65.431023
 20
242.956467
 30
0.0
  0
VERTEX
  8
0
 10
65.3022
 20
242.82782
 30
0.0
  0
VERTEX
  8
0
 10
65.119133
 20
242.786102
 30
0.0
  0
VERTEX
  8
0
 10
64.933807
 20
242.82782
 30
0.0
  0
VERTEX
  8
0
 10
64.804985
 20
242.952988
 30
0.0
  0
VERTEX
  8
0
 10
64.728142
 20
243.168564
 30
0.0
  0
VERTEX
  8
0
 10
64.705536
 20
243.474548
 30
0.0
  0
VERTEX
  8
0
 10
64.705536
 20
245.028793
 30
0.0
  0
VERTEX
  8
0
 10
64.484047
 20
245.028793
 30
0.0
  0
SEQEND
  8
0
  0
POLYLINE
  8
0
 62
     7
 66
     1
 10
0.0
 20
0.0
 30
0.0
 70
     1
 71
    50
  0
VERTEX
  8
0
 10
66.520905
 20
243.352859
 30
0.0
  0
VERTEX
  8
0
 10
66.570625
 20
242.970383
 30
0.0
  0
VERTEX
  8
0
 10
66.697189
 20
242.692215
 30
0.0
  0
VERTEX
  8
0
 10
66.893822
 20
242.521835
 30
0.0
  0
VERTEX
  8
0
 10
67.158249
 20
242.462723
 30
0.0
  0
VERTEX
  8
0
 10
67.418159
 20
242.521835
 30
0.0
  0
VERTEX
  8
0
 10
67.614784
 20
242.678299
 30
0.0
  0
VERTEX
  8
0
 10
67.73909
 20
242.925171
 30
0.0
  0
VERTEX
  8
0
 10
67.782036
 20
243.252014
 30
0.0
  0
VERTEX
  8
0
 10
67.745872
 20
243.523224
 30
0.0
  0
VERTEX
  8
0
 10
67.648689
 20
243.728378
 30
0.0
  0
VERTEX
  8
0
 10
67.485962
 20
243.857025
 30
0.0
  0
VERTEX
  8
0
 10
67.275772
 20
243.947433
 30
0.0
  0
VERTEX
  8
0
 10
67.054283
 20
244.027405
 30
0.0
  0
VERTEX
  8
0
 10
66.900604
 20
244.107376
 30
0.0
  0
VERTEX
  8
0
 10
66.810196
 20
244.222122
 30
0.0
  0
VERTEX
  8
0
 10
66.783073
 20
244.413361
 30
0.0
  0
VERTEX
  8
0
 10
66.805679
 20
244.573303
 30
0.0
  0
VERTEX
  8
0
 10
66.877998
 20
244.70195
 30
0.0
  0
VERTEX
  8
0
 10
66.988747
 20
244.781921
 30
0.0
  0
VERTEX
  8
0
 10
67.140167
 20
244.813217
 30
0.0
  0
VERTEX
  8
0
 10
67.293854
 20
244.778442
 30
0.0
  0
VERTEX
  8
0
 10
67.411377
 20
244.677612
 30
0.0
  0
VERTEX
  8
0
 10
67.48822
 20
244.514191
 30
0.0
  0
VERTEX
  8
0
 10
67.524384
 20
244.295135
 30
0.0
  0
VERTEX
  8
0
 10
67.734573
 20
244.295135
 30
0.0
  0
VERTEX
  8
0
 10
67.691628
 20
244.628937
 30
0.0
  0
VERTEX
  8
0
 10
67.576363
 20
244.879272
 30
0.0
  0
VERTEX
  8
0
 10
67.395561
 20
245.03923
 30
0.0
  0
VERTEX
  8
0
 10
67.153732
 20
245.094864
 30
0.0
  0
VERTEX
  8
0
 10
66.911903
 20
245.03923
 30
0.0
  0
VERTEX
  8
0
 10
66.728836
 20
244.88623
 30
0.0
  0
VERTEX
  8
0
 10
66.611313
 20
244.653275
 30
0.0
  0
VERTEX
  8
0
 10
66.572891
 20
244.354248
 30
0.0
  0
VERTEX
  8
0
 10
66.606789
 20
244.079559
 30
0.0
  0
VERTEX
  8
0
 10
66.708496
 20
243.8918
 30
0.0
  0
VERTEX
  8
0
 10
66.880257
 20
243.763153
 30
0.0
  0
VERTEX
  8
0
 10
67.117569
 20
243.662308
 30
0.0
  0
VERTEX
  8
0
 10
67.309677
 20
243.585815
 30
0.0
  0
VERTEX
  8
0
 10
67.449799
 20
243.509323
 30
0.0
  0
VERTEX
  8
0
 10
67.533424
 20
243.394577
 30
0.0
  0
VERTEX
  8
0
 10
67.562805
 20
243.213776
 30
0.0
  0
VERTEX
  8
0
 10
67.533424
 20
243.026016
 30
0.0
  0
VERTEX
  8
0
 10
67.454323
 20
242.879974
 30
0.0
  0
VERTEX
  8
0
 10
67.327759
 20
242.789566
 30
0.0
  0
VERTEX
  8
0
 10
67.155991
 20
242.758286
 30
0.0
  0
VERTEX
  8
0
 10
66.981964
 20
242.796524
 30
0.0
  0
VERTEX
  8
0
 10
66.850876
 20
242.918228
 30
0.0
  0
VERTEX
  8
0
 10
66.764999
 20
243.102509
 30
0.0
  0
VERTEX
  8
0
 10
66.733353
 20
243.352859
 30
0.0
  0
SEQEND
  8
0
  0
POLYLINE
  8
0
 62
     7
 66
     1
 10
0.0
 20
0.0
 30
0.0
 70
     1
 71
     8
  0
VERTEX
  8
0
 10
68.374695
 20
242.528793
 30
0.0
  0
VERTEX
  8
0
 10
68.602966
 20
242.528793
 30
0.0
  0
VERTEX
  8
0
 10
68.776993
 20
243.276352
 30
0.0
  0
VERTEX
  8
0
 10
69.416595
 20
243.276352
 30
0.0
  0
VERTEX
  8
0
 10
69.588364
 20
242.528793
 30
0.0
  0
VERTEX
  8
0
 10
69.827927
 20
242.528793
 30
0.0
  0
VERTEX
  8
0
 10
69.222229
 20
245.028793
 30
0.0
  0
VERTEX
  8
0
 10
68.978142
 20
245.028793
 30
0.0
  0
SEQEND
  8
0
  0
POLYLINE
  8
0
 62
     7
 66
     1
 10
0.0
 20
0.0
 30
0.0
 70
     1
 71
     3
  0
VERTEX
  8
0
 10
68.844795
 20
243.568436
 30
0.0
  0
VERTEX
  8
0
 10
69.100182
 20
244.670654
 30
0.0
  0
VERTEX
  8
0
 10
69.351051
 20
243.568436
 30
0.0
  0
SEQEND
  8
0
  0
POLYLINE
  8
0
 62
     7
 66
     1
 10
0.0
 20
0.0
 30
0.0
 70
     1
 71
    19
  0
VERTEX
  8
0
 10
70.495178
 20
242.528793
 30
0.0
  0
VERTEX
  8
0
 10
71.184502
 20
242.528793
 30
0.0
  0
VERTEX
  8
0
 10
71.415031
 20
242.580948
 30
0.0
  0
VERTEX
  8
0
 10
71.5868
 20
242.733932
 30
0.0
  0
VERTEX
  8
0
 10
71.695282
 20
242.966904
 30
0.0
  0
VERTEX
  8
0
 10
71.733704
 20
243.276352
 30
0.0
  0
VERTEX
  8
0
 10
71.711105
 20
243.498886
 30
0.0
  0
VERTEX
  8
0
 10
71.650078
 20
243.676224
 30
0.0
  0
VERTEX
  8
0
 10
71.552895
 20
243.804871
 30
0.0
  0
VERTEX
  8
0
 10
71.424072
 20
243.877884
 30
0.0
  0
VERTEX
  8
0
 10
71.523514
 20
243.964813
 30
0.0
  0
VERTEX
  8
0
 10
71.598099
 20
244.086517
 30
0.0
  0
VERTEX
  8
0
 10
71.641037
 20
244.236023
 30
0.0
  0
VERTEX
  8
0
 10
71.65686
 20
244.420303
 30
0.0
  0
VERTEX
  8
0
 10
71.622955
 20
244.68457
 30
0.0
  0
VERTEX
  8
0
 10
71.528038
 20
244.875809
 30
0.0
  0
VERTEX
  8
0
 10
71.369827
 20
244.99054
 30
0.0
  0
VERTEX
  8
0
 10
71.150604
 20
245.028793
 30
0.0
  0
VERTEX
  8
0
 10
70.495178
 20
245.028793
 30
0.0
  0
SEQEND
  8
0
  0
POLYLINE
  8
0
 62
     7
 66
     1
 10
0.0
 20
0.0
 30
0.0
 70
     1
 71
    11
  0
VERTEX
  8
0
 10
70.716667
 20
242.831299
 30
0.0
  0
VERTEX
  8
0
 10
70.716667
 20
243.700562
 30
0.0
  0
VERTEX
  8
0
 10
71.139297
 20
243.700562
 30
0.0
  0
VERTEX
  8
0
 10
71.299767
 20
243.676224
 30
0.0
  0
VERTEX
  8
0
 10
71.415031
 20
243.599731
 30
0.0
  0
VERTEX
  8
0
 10
71.482834
 20
243.46759
 30
0.0
  0
VERTEX
  8
0
 10
71.50769
 20
243.279831
 30
0.0
  0
VERTEX
  8
0
 10
71.485092
 20
243.085129
 30
0.0
  0
VERTEX
  8
0
 10
71.419548
 20
242.946045
 30
0.0
  0
VERTEX
  8
0
 10
71.311066
 20
242.859116
 30
0.0
  0
VERTEX
  8
0
 10
71.164162
 20
242.831299
 30
0.0
  0
SEQEND
  8
0
  0
POLYLINE
  8
0
 62
     7
 66
     1
 10
0.0
 20
0.0
 30
0.0
 70
     1
 71
    11
  0
VERTEX
  8
0
 10
70.716667
 20
243.978729
 30
0.0
  0
VERTEX
  8
0
 10
70.716667
 20
244.743668
 30
0.0
  0
VERTEX
  8
0
 10
71.121223
 20
244.743668
 30
0.0
  0
VERTEX
  8
0
 10
71.259087
 20
244.71933
 30
0.0
  0
VERTEX
  8
0
 10
71.35627
 20
244.649796
 30
0.0
  0
VERTEX
  8
0
 10
71.415031
 20
244.535049
 30
0.0
  0
VERTEX
  8
0
 10
71.435371
 20
244.371628
 30
0.0
  0
VERTEX
  8
0
 10
71.412773
 20
244.194305
 30
0.0
  0
VERTEX
  8
0
 10
71.351746
 20
244.069122
 30
0.0
  0
VERTEX
  8
0
 10
71.247787
 20
243.999588
 30
0.0
  0
VERTEX
  8
0
 10
71.103142
 20
243.978729
 30
0.0
  0
SEQEND
  8
0
  0
POLYLINE
  8
0
 62
     7
 66
     1
 10
0.0
 20
0.0
 30
0.0
 70
     1
 71
     6
  0
VERTEX
  8
0
 10
72.491348
 20
242.528793
 30
0.0
  0
VERTEX
  8
0
 10
73.524208
 20
242.528793
 30
0.0
  0
VERTEX
  8
0
 10
73.524208
 20
242.8452
 30
0.0
  0
VERTEX
  8
0
 10
72.715103
 20
242.8452
 30
0.0
  0
VERTEX
  8
0
 10
72.715103
 20
245.028793
 30
0.0
  0
VERTEX
  8
0
 10
72.491348
 20
245.028793
 30
0.0
  0
SEQEND
  8
0
  0
POLYLINE
  8
0
 62
     7
 66
     1
 10
0.0
 20
0.0
 30
0.0
 70
     1
 71
    12
  0
VERTEX
  8
0
 10
74.2005
 20
242.528793
 30
0.0
  0
VERTEX
  8
0
 10
75.377998
 20
242.528793
 30
0.0
  0
VERTEX
  8
0
 10
75.377998
 20
242.841721
 30
0.0
  0
VERTEX
  8
0
 10
74.419724
 20
242.841721
 30
0.0
  0
VERTEX
  8
0
 10
74.419724
 20
243.679703
 30
0.0
  0
VERTEX
  8
0
 10
75.287598
 20
243.679703
 30
0.0
  0
VERTEX
  8
0
 10
75.287598
 20
243.971771
 30
0.0
  0
VERTEX
  8
0
 10
74.419724
 20
243.971771
 30
0.0
  0
VERTEX
  8
0
 10
74.419724
 20
244.71933
 30
0.0
  0
VERTEX
  8
0
 10
75.359917
 20
244.71933
 30
0.0
  0
VERTEX
  8
0
 10
75.359917
 20
245.028793
 30
0.0
  0
VERTEX
  8
0
 10
74.2005
 20
245.028793
 30
0.0
  0
SEQEND
  8
0
  0
POLYLINE
  8
0
 62
     7
 66
     1
 10
0.0
 20
0.0
 30
0.0
 70
     1
 71
     8
  0
VERTEX
  8
0
 10
77.083145
 20
242.528793
 30
0.0
  0
VERTEX
  8
0
 10
77.311417
 20
242.528793
 30
0.0
  0
VERTEX
  8
0
 10
77.485443
 20
243.276352
 30
0.0
  0
VERTEX
  8
0
 10
78.125046
 20
243.276352
 30
0.0
  0
VERTEX
  8
0
 10
78.296814
 20
242.528793
 30
0.0
  0
VERTEX
  8
0
 10
78.536377
 20
242.528793
 30
0.0
  0
VERTEX
  8
0
 10
77.930679
 20
245.028793
 30
0.0
  0
VERTEX
  8
0
 10
77.686584
 20
245.028793
 30
0.0
  0
SEQEND
  8
0
  0
POLYLINE
  8
0
 62
     7
 66
     1
 10
0.0
 20
0.0
 30
0.0
 70
     1
 71
     3
  0
VERTEX
  8
0
 10
77.553246
 20
243.568436
 30
0.0
  0
VERTEX
  8
0
 10
77.808632
 20
244.670654
 30
0.0
  0
VERTEX
  8
0
 10
78.059502
 20
243.568436
 30
0.0
  0
SEQEND
  8
0
  0
POLYLINE
  8
0
 62
     7
 66
     1
 10
0.0
 20
0.0
 30
0.0
 70
     1
 71
    30
  0
VERTEX
  8
0
 10
79.203629
 20
245.028793
 30
0.0
  0
VERTEX
  8
0
 10
79.203629
 20
242.528793
 30
0.0
  0
VERTEX
  8
0
 10
79.422852
 20
242.528793
 30
0.0
  0
VERTEX
  8
0
 10
79.422852
 20
243.599731
 30
0.0
  0
VERTEX
  8
0
 10
79.779945
 20
243.599731
 30
0.0
  0
VERTEX
  8
0
 10
79.951714
 20
243.589294
 30
0.0
  0
VERTEX
  8
0
 10
80.057938
 20
243.53714
 30
0.0
  0
VERTEX
  8
0
 10
80.116699
 20
243.418915
 30
0.0
  0
VERTEX
  8
0
 10
80.141556
 20
243.19986
 30
0.0
  0
VERTEX
  8
0
 10
80.155121
 20
242.873016
 30
0.0
  0
VERTEX
  8
0
 10
80.16642
 20
242.674835
 30
0.0
  0
VERTEX
  8
0
 10
80.198059
 20
242.528793
 30
0.0
  0
VERTEX
  8
0
 10
80.453453
 20
242.528793
 30
0.0
  0
VERTEX
  8
0
 10
80.453453
 20
242.598328
 30
0.0
  0
VERTEX
  8
0
 10
80.399208
 20
242.699173
 30
0.0
  0
VERTEX
  8
0
 10
80.378868
 20
242.890411
 30
0.0
  0
VERTEX
  8
0
 10
80.360786
 20
243.300705
 30
0.0
  0
VERTEX
  8
0
 10
80.344971
 20
243.474548
 30
0.0
  0
VERTEX
  8
0
 10
80.315582
 20
243.610153
 30
0.0
  0
VERTEX
  8
0
 10
80.261345
 20
243.704041
 30
0.0
  0
VERTEX
  8
0
 10
80.175461
 20
243.766617
 30
0.0
  0
VERTEX
  8
0
 10
80.270386
 20
243.860504
 30
0.0
  0
VERTEX
  8
0
 10
80.340446
 20
243.989151
 30
0.0
  0
VERTEX
  8
0
 10
80.383392
 20
244.14563
 30
0.0
  0
VERTEX
  8
0
 10
80.399208
 20
244.336853
 30
0.0
  0
VERTEX
  8
0
 10
80.383392
 20
244.53157
 30
0.0
  0
VERTEX
  8
0
 10
80.344971
 20
244.70195
 30
0.0
  0
VERTEX
  8
0
 10
80.189018
 20
244.941864
 30
0.0
  0
VERTEX
  8
0
 10
80.024033
 20
245.014893
 30
0.0
  0
VERTEX
  8
0
 10
79.83419
 20
245.028793
 30
0.0
  0
SEQEND
  8
0
  0
POLYLINE
  8
0
 62
     7
 66
     1
 10
0.0
 20
0.0
 30
0.0
 70
     1
 71
    11
  0
VERTEX
  8
0
 10
79.420593
 20
244.736725
 30
0.0
  0
VERTEX
  8
0
 10
79.798027
 20
244.736725
 30
0.0
  0
VERTEX
  8
0
 10
79.958496
 20
244.71933
 30
0.0
  0
VERTEX
  8
0
 10
80.076019
 20
244.656754
 30
0.0
  0
VERTEX
  8
0
 10
80.14608
 20
244.535049
 30
0.0
  0
VERTEX
  8
0
 10
80.170944
 20
244.32991
 30
0.0
  0
VERTEX
  8
0
 10
80.14608
 20
244.117813
 30
0.0
  0
VERTEX
  8
0
 10
80.078278
 20
243.982208
 30
0.0
  0
VERTEX
  8
0
 10
79.960754
 20
243.90918
 30
0.0
  0
VERTEX
  8
0
 10
79.798027
 20
243.888321
 30
0.0
  0
VERTEX
  8
0
 10
79.420593
 20
243.888321
 30
0.0
  0
SEQEND
  8
0
  0
POLYLINE
  8
0
 62
     7
 66
     1
 10
0.0
 20
0.0
 30
0.0
 70
     1
 71
    12
  0
VERTEX
  8
0
 10
81.204315
 20
242.528793
 30
0.0
  0
VERTEX
  8
0
 10
82.381821
 20
242.528793
 30
0.0
  0
VERTEX
  8
0
 10
82.381821
 20
242.841721
 30
0.0
  0
VERTEX
  8
0
 10
81.423546
 20
242.841721
 30
0.0
  0
VERTEX
  8
0
 10
81.423546
 20
243.679703
 30
0.0
  0
VERTEX
  8
0
 10
82.29142
 20
243.679703
 30
0.0
  0
VERTEX
  8
0
 10
82.29142
 20
243.971771
 30
0.0
  0
VERTEX
  8
0
 10
81.423546
 20
243.971771
 30
0.0
  0
VERTEX
  8
0
 10
81.423546
 20
244.71933
 30
0.0
  0
VERTEX
  8
0
 10
82.363739
 20
244.71933
 30
0.0
  0
VERTEX
  8
0
 10
82.363739
 20
245.028793
 30
0.0
  0
VERTEX
  8
0
 10
81.204315
 20
245.028793
 30
0.0
  0
SEQEND
  8
0
  0
POLYLINE
  8
0
 62
     7
 66
     1
 10
0.0
 20
0.0
 30
0.0
 70
     1
 71
     8
  0
VERTEX
  8
0
 10
82.967705
 20
242.528793
 30
0.0
  0
VERTEX
  8
0
 10
83.195976
 20
242.528793
 30
0.0
  0
VERTEX
  8
0
 10
83.370003
 20
243.276352
 30
0.0
  0
VERTEX
  8
0
 10
84.009605
 20
243.276352
 30
0.0
  0
VERTEX
  8
0
 10
84.181366
 20
242.528793
 30
0.0
  0
VERTEX
  8
0
 10
84.420937
 20
242.528793
 30
0.0
  0
VERTEX
  8
0
 10
83.815239
 20
245.028793
 30
0.0
  0
VERTEX
  8
0
 10
83.571152
 20
245.028793
 30
0.0
  0
SEQEND
  8
0
  0
POLYLINE
  8
0
 62
     7
 66
     1
 10
0.0
 20
0.0
 30
0.0
 70
     1
 71
     3
  0
VERTEX
  8
0
 10
83.437805
 20
243.568436
 30
0.0
  0
VERTEX
  8
0
 10
83.693192
 20
244.670654
 30
0.0
  0
VERTEX
  8
0
 10
83.944061
 20
243.568436
 30
0.0
  0
SEQEND
  8
0
  0
POLYLINE
  8
0
 62
     7
 66
     1
 10
0.0
 20
0.0
 30
0.0
 70
     1
 71
    32
  0
VERTEX
  8
0
 10
56.711796
 20
240.277054
 30
0.0
  0
VERTEX
  8
0
 10
56.723099
 20
239.978027
 30
0.0
  0
VERTEX
  8
0
 10
56.763779
 20
239.717255
 30
0.0
  0
VERTEX
  8
0
 10
56.829323
 20
239.491241
 30
0.0
  0
VERTEX
  8
0
 10
56.917465
 20
239.303482
 30
0.0
  0
VERTEX
  8
0
 10
57.02821
 20
239.153961
 30
0.0
  0
VERTEX
  8
0
 10
57.159294
 20
239.046173
 30
0.0
  0
VERTEX
  8
0
 10
57.310719
 20
238.983597
 30
0.0
  0
VERTEX
  8
0
 10
57.482487
 20
238.959259
 30
0.0
  0
VERTEX
  8
0
 10
57.651993
 20
238.983597
 30
0.0
  0
VERTEX
  8
0
 10
57.803417
 20
239.046173
 30
0.0
  0
VERTEX
  8
0
 10
57.934502
 20
239.153961
 30
0.0
  0
VERTEX
  8
0
 10
58.045246
 20
239.303482
 30
0.0
  0
VERTEX
  8
0
 10
58.133389
 20
239.491241
 30
0.0
  0
VERTEX
  8
0
 10
58.196671
 20
239.717255
 30
0.0
  0
VERTEX
  8
0
 10
58.235092
 20
239.978027
 30
0.0
  0
VERTEX
  8
0
 10
58.250916
 20
240.277054
 30
0.0
  0
VERTEX
  8
0
 10
58.237354
 20
240.572601
 30
0.0
  0
VERTEX
  8
0
 10
58.196671
 20
240.833389
 30
0.0
  0
VERTEX
  8
0
 10
58.13113
 20
241.059387
 30
0.0
  0
VERTEX
  8
0
 10
58.045246
 20
241.247147
 30
0.0
  0
VERTEX
  8
0
 10
57.934502
 20
241.396667
 30
0.0
  0
VERTEX
  8
0
 10
57.803417
 20
241.504456
 30
0.0
  0
VERTEX
  8
0
 10
57.651993
 20
241.570511
 30
0.0
  0
VERTEX
  8
0
 10
57.482487
 20
241.594864
 30
0.0
  0
VERTEX
  8
0
 10
57.310719
 20
241.570511
 30
0.0
  0
VERTEX
  8
0
 10
57.159294
 20
241.504456
 30
0.0
  0
VERTEX
  8
0
 10
57.02821
 20
241.396667
 30
0.0
  0
VERTEX
  8
0
 10
56.917465
 20
241.247147
 30
0.0
  0
VERTEX
  8
0
 10
56.829323
 20
241.059387
 30
0.0
  0
VERTEX
  8
0
 10
56.763779
 20
240.833389
 30
0.0
  0
VERTEX
  8
0
 10
56.723099
 20
240.572601
 30
0.0
  0
SEQEND
  8
0
  0
POLYLINE
  8
0
 62
     7
 66
     1
 10
0.0
 20
0.0
 30
0.0
 70
     1
 71
    16
  0
VERTEX
  8
0
 10
56.940067
 20
240.277054
 30
0.0
  0
VERTEX
  8
0
 10
56.976227
 20
240.708206
 30
0.0
  0
VERTEX
  8
0
 10
57.084713
 20
241.03157
 30
0.0
  0
VERTEX
  8
0
 10
57.256477
 20
241.229767
 30
0.0
  0
VERTEX
  8
0
 10
57.482487
 20
241.299301
 30
0.0
  0
VERTEX
  8
0
 10
57.706234
 20
241.229767
 30
0.0
  0
VERTEX
  8
0
 10
57.878002
 20
241.03157
 30
0.0
  0
VERTEX
  8
0
 10
57.984226
 20
240.708206
 30
0.0
  0
VERTEX
  8
0
 10
58.022648
 20
240.277054
 30
0.0
  0
VERTEX
  8
0
 10
57.984226
 20
239.842422
 30
0.0
  0
VERTEX
  8
0
 10
57.878002
 20
239.519058
 30
0.0
  0
VERTEX
  8
0
 10
57.706234
 20
239.320862
 30
0.0
  0
VERTEX
  8
0
 10
57.482487
 20
239.254807
 30
0.0
  0
VERTEX
  8
0
 10
57.256477
 20
239.320862
 30
0.0
  0
VERTEX
  8
0
 10
57.084713
 20
239.519058
 30
0.0
  0
VERTEX
  8
0
 10
56.976227
 20
239.842422
 30
0.0
  0
SEQEND
  8
0
  0
POLYLINE
  8
0
 62
     7
 66
     1
 10
0.0
 20
0.0
 30
0.0
 70
     1
 71
    12
  0
VERTEX
  8
0
 10
59.026646
 20
239.028793
 30
0.0
  0
VERTEX
  8
0
 10
59.236832
 20
239.028793
 30
0.0
  0
VERTEX
  8
0
 10
59.236832
 20
241.055908
 30
0.0
  0
VERTEX
  8
0
 10
59.297855
 20
240.871628
 30
0.0
  0
VERTEX
  8
0
 10
60.073063
 20
239.028793
 30
0.0
  0
VERTEX
  8
0
 10
60.312634
 20
239.028793
 30
0.0
  0
VERTEX
  8
0
 10
60.312634
 20
241.528793
 30
0.0
  0
VERTEX
  8
0
 10
60.102444
 20
241.528793
 30
0.0
  0
VERTEX
  8
0
 10
60.102444
 20
239.501678
 30
0.0
  0
VERTEX
  8
0
 10
60.027863
 20
239.713776
 30
0.0
  0
VERTEX
  8
0
 10
59.268475
 20
241.528793
 30
0.0
  0
VERTEX
  8
0
 10
59.026646
 20
241.528793
 30
0.0
  0
SEQEND
  8
0
  0
POLYLINE
  8
0
 62
     7
 66
     1
 10
0.0
 20
0.0
 30
0.0
 70
     1
 71
     6
  0
VERTEX
  8
0
 10
61.158424
 20
239.028793
 30
0.0
  0
VERTEX
  8
0
 10
62.191284
 20
239.028793
 30
0.0
  0
VERTEX
  8
0
 10
62.191284
 20
239.3452
 30
0.0
  0
VERTEX
  8
0
 10
61.382172
 20
239.3452
 30
0.0
  0
VERTEX
  8
0
 10
61.382172
 20
241.528793
 30
0.0
  0
VERTEX
  8
0
 10
61.158424
 20
241.528793
 30
0.0
  0
SEQEND
  8
0
  0
POLYLINE
  8
0
 62
     7
 66
     1
 10
0.0
 20
0.0
 30
0.0
 70
     1
 71
     9
  0
VERTEX
  8
0
 10
63.498131
 20
239.028793
 30
0.0
  0
VERTEX
  8
0
 10
63.498131
 20
240.05452
 30
0.0
  0
VERTEX
  8
0
 10
64.076714
 20
241.528793
 30
0.0
  0
VERTEX
  8
0
 10
63.816803
 20
241.528793
 30
0.0
  0
VERTEX
  8
0
 10
63.385128
 20
240.346588
 30
0.0
  0
VERTEX
  8
0
 10
62.951191
 20
241.528793
 30
0.0
  0
VERTEX
  8
0
 10
62.673203
 20
241.528793
 30
0.0
  0
VERTEX
  8
0
 10
63.276646
 20
240.030182
 30
0.0
  0
VERTEX
  8
0
 10
63.276646
 20
239.028793
 30
0.0
  0
SEQEND
  8
0
  0
POLYLINE
  8
0
 62
     7
 66
     1
 10
0.0
 20
0.0
 30
0.0
 70
     1
 71
    10
  0
VERTEX
  8
0
 10
65.849663
 20
239.028793
 30
0.0
  0
VERTEX
  8
0
 10
66.071152
 20
239.028793
 30
0.0
  0
VERTEX
  8
0
 10
66.071152
 20
240.158829
 30
0.0
  0
VERTEX
  8
0
 10
66.830536
 20
240.158829
 30
0.0
  0
VERTEX
  8
0
 10
66.830536
 20
240.464813
 30
0.0
  0
VERTEX
  8
0
 10
66.071152
 20
240.464813
 30
0.0
  0
VERTEX
  8
0
 10
66.071152
 20
241.215866
 30
0.0
  0
VERTEX
  8
0
 10
66.941284
 20
241.215866
 30
0.0
  0
VERTEX
  8
0
 10
66.941284
 20
241.528793
 30
0.0
  0
VERTEX
  8
0
 10
65.849663
 20
241.528793
 30
0.0
  0
SEQEND
  8
0
  0
POLYLINE
  8
0
 62
     7
 66
     1
 10
0.0
 20
0.0
 30
0.0
 70
     1
 71
    32
  0
VERTEX
  8
0
 10
67.597229
 20
240.277054
 30
0.0
  0
VERTEX
  8
0
 10
67.608528
 20
239.978027
 30
0.0
  0
VERTEX
  8
0
 10
67.649208
 20
239.717255
 30
0.0
  0
VERTEX
  8
0
 10
67.714752
 20
239.491241
 30
0.0
  0
VERTEX
  8
0
 10
67.802895
 20
239.303482
 30
0.0
  0
VERTEX
  8
0
 10
67.913643
 20
239.153961
 30
0.0
  0
VERTEX
  8
0
 10
68.044724
 20
239.046173
 30
0.0
  0
VERTEX
  8
0
 10
68.196152
 20
238.983597
 30
0.0
  0
VERTEX
  8
0
 10
68.36792
 20
238.959259
 30
0.0
  0
VERTEX
  8
0
 10
68.537422
 20
238.983597
 30
0.0
  0
VERTEX
  8
0
 10
68.68885
 20
239.046173
 30
0.0
  0
VERTEX
  8
0
 10
68.819931
 20
239.153961
 30
0.0
  0
VERTEX
  8
0
 10
68.930679
 20
239.303482
 30
0.0
  0
VERTEX
  8
0
 10
69.018822
 20
239.491241
 30
0.0
  0
VERTEX
  8
0
 10
69.082108
 20
239.717255
 30
0.0
  0
VERTEX
  8
0
 10
69.120529
 20
239.978027
 30
0.0
  0
VERTEX
  8
0
 10
69.136345
 20
240.277054
 30
0.0
  0
VERTEX
  8
0
 10
69.122787
 20
240.572601
 30
0.0
  0
VERTEX
  8
0
 10
69.082108
 20
240.833389
 30
0.0
  0
VERTEX
  8
0
 10
69.016563
 20
241.059387
 30
0.0
  0
VERTEX
  8
0
 10
68.930679
 20
241.247147
 30
0.0
  0
VERTEX
  8
0
 10
68.819931
 20
241.396667
 30
0.0
  0
VERTEX
  8
0
 10
68.68885
 20
241.504456
 30
0.0
  0
VERTEX
  8
0
 10
68.537422
 20
241.570511
 30
0.0
  0
VERTEX
  8
0
 10
68.36792
 20
241.594864
 30
0.0
  0
VERTEX
  8
0
 10
68.196152
 20
241.570511
 30
0.0
  0
VERTEX
  8
0
 10
68.044724
 20
241.504456
 30
0.0
  0
VERTEX
  8
0
 10
67.913643
 20
241.396667
 30
0.0
  0
VERTEX
  8
0
 10
67.802895
 20
241.247147
 30
0.0
  0
VERTEX
  8
0
 10
67.714752
 20
241.059387
 30
0.0
  0
VERTEX
  8
0
 10
67.649208
 20
240.833389
 30
0.0
  0
VERTEX
  8
0
 10
67.608528
 20
240.572601
 30
0.0
  0
SEQEND
  8
0
  0
POLYLINE
  8
0
 62
     7
 66
     1
 10
0.0
 20
0.0
 30
0.0
 70
     1
 71
    16
  0
VERTEX
  8
0
 10
67.8255
 20
240.277054
 30
0.0
  0
VERTEX
  8
0
 10
67.861656
 20
240.708206
 30
0.0
  0
VERTEX
  8
0
 10
67.970139
 20
241.03157
 30
0.0
  0
VERTEX
  8
0
 10
68.141907
 20
241.229767
 30
0.0
  0
VERTEX
  8
0
 10
68.36792
 20
241.299301
 30
0.0
  0
VERTEX
  8
0
 10
68.591667
 20
241.229767
 30
0.0
  0
VERTEX
  8
0
 10
68.763428
 20
241.03157
 30
0.0
  0
VERTEX
  8
0
 10
68.869659
 20
240.708206
 30
0.0
  0
VERTEX
  8
0
 10
68.908081
 20
240.277054
 30
0.0
  0
VERTEX
  8
0
 10
68.869659
 20
239.842422
 30
0.0
  0
VERTEX
  8
0
 10
68.763428
 20
239.519058
 30
0.0
  0
VERTEX
  8
0
 10
68.591667
 20
239.320862
 30
0.0
  0
VERTEX
  8
0
 10
68.36792
 20
239.254807
 30
0.0
  0
VERTEX
  8
0
 10
68.141907
 20
239.320862
 30
0.0
  0
VERTEX
  8
0
 10
67.970139
 20
239.519058
 30
0.0
  0
VERTEX
  8
0
 10
67.861656
 20
239.842422
 30
0.0
  0
SEQEND
  8
0
  0
POLYLINE
  8
0
 62
     7
 66
     1
 10
0.0
 20
0.0
 30
0.0
 70
     1
 71
    30
  0
VERTEX
  8
0
 10
69.914337
 20
241.528793
 30
0.0
  0
VERTEX
  8
0
 10
69.914337
 20
239.028793
 30
0.0
  0
VERTEX
  8
0
 10
70.13356
 20
239.028793
 30
0.0
  0
VERTEX
  8
0
 10
70.13356
 20
240.099731
 30
0.0
  0
VERTEX
  8
0
 10
70.490662
 20
240.099731
 30
0.0
  0
VERTEX
  8
0
 10
70.662422
 20
240.089294
 30
0.0
  0
VERTEX
  8
0
 10
70.768646
 20
240.03714
 30
0.0
  0
VERTEX
  8
0
 10
70.827408
 20
239.918915
 30
0.0
  0
VERTEX
  8
0
 10
70.852272
 20
239.69986
 30
0.0
  0
VERTEX
  8
0
 10
70.865829
 20
239.373016
 30
0.0
  0
VERTEX
  8
0
 10
70.877129
 20
239.174835
 30
0.0
  0
VERTEX
  8
0
 10
70.908775
 20
239.028793
 30
0.0
  0
VERTEX
  8
0
 10
71.164162
 20
239.028793
 30
0.0
  0
VERTEX
  8
0
 10
71.164162
 20
239.098328
 30
0.0
  0
VERTEX
  8
0
 10
71.109924
 20
239.199173
 30
0.0
  0
VERTEX
  8
0
 10
71.089577
 20
239.390411
 30
0.0
  0
VERTEX
  8
0
 10
71.071503
 20
239.800705
 30
0.0
  0
VERTEX
  8
0
 10
71.055679
 20
239.974548
 30
0.0
  0
VERTEX
  8
0
 10
71.026299
 20
240.110153
 30
0.0
  0
VERTEX
  8
0
 10
70.972054
 20
240.204041
 30
0.0
  0
VERTEX
  8
0
 10
70.886169
 20
240.266617
 30
0.0
  0
VERTEX
  8
0
 10
70.981094
 20
240.360504
 30
0.0
  0
VERTEX
  8
0
 10
71.051155
 20
240.489151
 30
0.0
  0
VERTEX
  8
0
 10
71.094101
 20
240.64563
 30
0.0
  0
VERTEX
  8
0
 10
71.109924
 20
240.836853
 30
0.0
  0
VERTEX
  8
0
 10
71.094101
 20
241.03157
 30
0.0
  0
VERTEX
  8
0
 10
71.055679
 20
241.20195
 30
0.0
  0
VERTEX
  8
0
 10
70.899734
 20
241.441864
 30
0.0
  0
VERTEX
  8
0
 10
70.734749
 20
241.514893
 30
0.0
  0
VERTEX
  8
0
 10
70.544899
 20
241.528793
 30
0.0
  0
SEQEND
  8
0
  0
POLYLINE
  8
0
 62
     7
 66
     1
 10
0.0
 20
0.0
 30
0.0
 70
     1
 71
    11
  0
VERTEX
  8
0
 10
70.131302
 20
241.236725
 30
0.0
  0
VERTEX
  8
0
 10
70.508736
 20
241.236725
 30
0.0
  0
VERTEX
  8
0
 10
70.669205
 20
241.21933
 30
0.0
  0
VERTEX
  8
0
 10
70.786728
 20
241.156754
 30
0.0
  0
VERTEX
  8
0
 10
70.856789
 20
241.035049
 30
0.0
  0
VERTEX
  8
0
 10
70.881653
 20
240.82991
 30
0.0
  0
VERTEX
  8
0
 10
70.856789
 20
240.617813
 30
0.0
  0
VERTEX
  8
0
 10
70.788986
 20
240.482208
 30
0.0
  0
VERTEX
  8
0
 10
70.671463
 20
240.40918
 30
0.0
  0
VERTEX
  8
0
 10
70.508736
 20
240.388321
 30
0.0
  0
VERTEX
  8
0
 10
70.131302
 20
240.388321
 30
0.0
  0
SEQEND
  8
0
  0
POLYLINE
  8
0
 62
     7
 66
     1
 10
0.0
 20
0.0
 30
0.0
 70
     1
 71
     4
  0
VERTEX
  8
0
 10
73.038818
 20
239.028793
 30
0.0
  0
VERTEX
  8
0
 10
73.2603
 20
239.028793
 30
0.0
  0
VERTEX
  8
0
 10
73.2603
 20
241.528793
 30
0.0
  0
VERTEX
  8
0
 10
73.038818
 20
241.528793
 30
0.0
  0
SEQEND
  8
0
  0
POLYLINE
  8
0
 62
     7
 66
     1
 10
0.0
 20
0.0
 30
0.0
 70
     1
 71
    12
  0
VERTEX
  8
0
 10
74.112877
 20
239.028793
 30
0.0
  0
VERTEX
  8
0
 10
74.323059
 20
239.028793
 30
0.0
  0
VERTEX
  8
0
 10
74.323059
 20
241.055908
 30
0.0
  0
VERTEX
  8
0
 10
74.384087
 20
240.871628
 30
0.0
  0
VERTEX
  8
0
 10
75.159294
 20
239.028793
 30
0.0
  0
VERTEX
  8
0
 10
75.398865
 20
239.028793
 30
0.0
  0
VERTEX
  8
0
 10
75.398865
 20
241.528793
 30
0.0
  0
VERTEX
  8
0
 10
75.188675
 20
241.528793
 30
0.0
  0
VERTEX
  8
0
 10
75.188675
 20
239.501678
 30
0.0
  0
VERTEX
  8
0
 10
75.11409
 20
239.713776
 30
0.0
  0
VERTEX
  8
0
 10
74.354706
 20
241.528793
 30
0.0
  0
VERTEX
  8
0
 10
74.112877
 20
241.528793
 30
0.0
  0
SEQEND
  8
0
  0
POLYLINE
  8
0
 62
     7
 66
     1
 10
0.0
 20
0.0
 30
0.0
 70
     1
 71
    10
  0
VERTEX
  8
0
 10
76.244659
 20
239.028793
 30
0.0
  0
VERTEX
  8
0
 10
76.466141
 20
239.028793
 30
0.0
  0
VERTEX
  8
0
 10
76.466141
 20
240.158829
 30
0.0
  0
VERTEX
  8
0
 10
77.225533
 20
240.158829
 30
0.0
  0
VERTEX
  8
0
 10
77.225533
 20
240.464813
 30
0.0
  0
VERTEX
  8
0
 10
76.466141
 20
240.464813
 30
0.0
  0
VERTEX
  8
0
 10
76.466141
 20
241.215866
 30
0.0
  0
VERTEX
  8
0
 10
77.336273
 20
241.215866
 30
0.0
  0
VERTEX
  8
0
 10
77.336273
 20
241.528793
 30
0.0
  0
VERTEX
  8
0
 10
76.244659
 20
241.528793
 30
0.0
  0
SEQEND
  8
0
  0
POLYLINE
  8
0
 62
     7
 66
     1
 10
0.0
 20
0.0
 30
0.0
 70
     1
 71
    32
  0
VERTEX
  8
0
 10
77.992218
 20
240.277054
 30
0.0
  0
VERTEX
  8
0
 10
78.003525
 20
239.978027
 30
0.0
  0
VERTEX
  8
0
 10
78.044205
 20
239.717255
 30
0.0
  0
VERTEX
  8
0
 10
78.109749
 20
239.491241
 30
0.0
  0
VERTEX
  8
0
 10
78.197891
 20
239.303482
 30
0.0
  0
VERTEX
  8
0
 10
78.308632
 20
239.153961
 30
0.0
  0
VERTEX
  8
0
 10
78.43972
 20
239.046173
 30
0.0
  0
VERTEX
  8
0
 10
78.591141
 20
238.983597
 30
0.0
  0
VERTEX
  8
0
 10
78.762909
 20
238.959259
 30
0.0
  0
VERTEX
  8
0
 10
78.932419
 20
238.983597
 30
0.0
  0
VERTEX
  8
0
 10
79.083839
 20
239.046173
 30
0.0
  0
VERTEX
  8
0
 10
79.214928
 20
239.153961
 30
0.0
  0
VERTEX
  8
0
 10
79.325668
 20
239.303482
 30
0.0
  0
VERTEX
  8
0
 10
79.413818
 20
239.491241
 30
0.0
  0
VERTEX
  8
0
 10
79.477097
 20
239.717255
 30
0.0
  0
VERTEX
  8
0
 10
79.515518
 20
239.978027
 30
0.0
  0
VERTEX
  8
0
 10
79.531342
 20
240.277054
 30
0.0
  0
VERTEX
  8
0
 10
79.517776
 20
240.572601
 30
0.0
  0
VERTEX
  8
0
 10
79.477097
 20
240.833389
 30
0.0
  0
VERTEX
  8
0
 10
79.411552
 20
241.059387
 30
0.0
  0
VERTEX
  8
0
 10
79.325668
 20
241.247147
 30
0.0
  0
VERTEX
  8
0
 10
79.214928
 20
241.396667
 30
0.0
  0
VERTEX
  8
0
 10
79.083839
 20
241.504456
 30
0.0
  0
VERTEX
  8
0
 10
78.932419
 20
241.570511
 30
0.0
  0
VERTEX
  8
0
 10
78.762909
 20
241.594864
 30
0.0
  0
VERTEX
  8
0
 10
78.591141
 20
241.570511
 30
0.0
  0
VERTEX
  8
0
 10
78.43972
 20
241.504456
 30
0.0
  0
VERTEX
  8
0
 10
78.308632
 20
241.396667
 30
0.0
  0
VERTEX
  8
0
 10
78.197891
 20
241.247147
 30
0.0
  0
VERTEX
  8
0
 10
78.109749
 20
241.059387
 30
0.0
  0
VERTEX
  8
0
 10
78.044205
 20
240.833389
 30
0.0
  0
VERTEX
  8
0
 10
78.003525
 20
240.572601
 30
0.0
  0
SEQEND
  8
0
  0
POLYLINE
  8
0
 62
     7
 66
     1
 10
0.0
 20
0.0
 30
0.0
 70
     1
 71
    16
  0
VERTEX
  8
0
 10
78.22049
 20
240.277054
 30
0.0
  0
VERTEX
  8
0
 10
78.256653
 20
240.708206
 30
0.0
  0
VERTEX
  8
0
 10
78.365135
 20
241.03157
 30
0.0
  0
VERTEX
  8
0
 10
78.536903
 20
241.229767
 30
0.0
  0
VERTEX
  8
0
 10
78.762909
 20
241.299301
 30
0.0
  0
VERTEX
  8
0
 10
78.986656
 20
241.229767
 30
0.0
  0
VERTEX
  8
0
 10
79.158424
 20
241.03157
 30
0.0
  0
VERTEX
  8
0
 10
79.264648
 20
240.708206
 30
0.0
  0
VERTEX
  8
0
 10
79.30307
 20
240.277054
 30
0.0
  0
VERTEX
  8
0
 10
79.264648
 20
239.842422
 30
0.0
  0
VERTEX
  8
0
 10
79.158424
 20
239.519058
 30
0.0
  0
VERTEX
  8
0
 10
78.986656
 20
239.320862
 30
0.0
  0
VERTEX
  8
0
 10
78.762909
 20
239.254807
 30
0.0
  0
VERTEX
  8
0
 10
78.536903
 20
239.320862
 30
0.0
  0
VERTEX
  8
0
 10
78.365135
 20
239.519058
 30
0.0
  0
VERTEX
  8
0
 10
78.256653
 20
239.842422
 30
0.0
  0
SEQEND
  8
0
  0
POLYLINE
  8
0
 62
     7
 66
     1
 10
0.0
 20
0.0
 30
0.0
 70
     1
 71
    30
  0
VERTEX
  8
0
 10
80.309326
 20
241.528793
 30
0.0
  0
VERTEX
  8
0
 10
80.309326
 20
239.028793
 30
0.0
  0
VERTEX
  8
0
 10
80.528557
 20
239.028793
 30
0.0
  0
VERTEX
  8
0
 10
80.528557
 20
240.099731
 30
0.0
  0
VERTEX
  8
0
 10
80.885651
 20
240.099731
 30
0.0
  0
VERTEX
  8
0
 10
81.057419
 20
240.089294
 30
0.0
  0
VERTEX
  8
0
 10
81.163643
 20
240.03714
 30
0.0
  0
VERTEX
  8
0
 10
81.222404
 20
239.918915
 30
0.0
  0
VERTEX
  8
0
 10
81.247269
 20
239.69986
 30
0.0
  0
VERTEX
  8
0
 10
81.260826
 20
239.373016
 30
0.0
  0
VERTEX
  8
0
 10
81.272125
 20
239.174835
 30
0.0
  0
VERTEX
  8
0
 10
81.303764
 20
239.028793
 30
0.0
  0
VERTEX
  8
0
 10
81.559158
 20
239.028793
 30
0.0
  0
VERTEX
  8
0
 10
81.559158
 20
239.098328
 30
0.0
  0
VERTEX
  8
0
 10
81.504913
 20
239.199173
 30
0.0
  0
VERTEX
  8
0
 10
81.484573
 20
239.390411
 30
0.0
  0
VERTEX
  8
0
 10
81.466492
 20
239.800705
 30
0.0
  0
VERTEX
  8
0
 10
81.450668
 20
239.974548
 30
0.0
  0
VERTEX
  8
0
 10
81.421295
 20
240.110153
 30
0.0
  0
VERTEX
  8
0
 10
81.36705
 20
240.204041
 30
0.0
  0
VERTEX
  8
0
 10
81.281166
 20
240.266617
 30
0.0
  0
VERTEX
  8
0
 10
81.376091
 20
240.360504
 30
0.0
  0
VERTEX
  8
0
 10
81.446152
 20
240.489151
 30
0.0
  0
VERTEX
  8
0
 10
81.48909
 20
240.64563
 30
0.0
  0
VERTEX
  8
0
 10
81.504913
 20
240.836853
 30
0.0
  0
VERTEX
  8
0
 10
81.48909
 20
241.03157
 30
0.0
  0
VERTEX
  8
0
 10
81.450668
 20
241.20195
 30
0.0
  0
VERTEX
  8
0
 10
81.294724
 20
241.441864
 30
0.0
  0
VERTEX
  8
0
 10
81.129738
 20
241.514893
 30
0.0
  0
VERTEX
  8
0
 10
80.939896
 20
241.528793
 30
0.0
  0
SEQEND
  8
0
  0
POLYLINE
  8
0
 62
     7
 66
     1
 10
0.0
 20
0.0
 30
0.0
 70
     1
 71
    11
  0
VERTEX
  8
0
 10
80.526299
 20
241.236725
 30
0.0
  0
VERTEX
  8
0
 10
80.903732
 20
241.236725
 30
0.0
  0
VERTEX
  8
0
 10
81.064194
 20
241.21933
 30
0.0
  0
VERTEX
  8
0
 10
81.181725
 20
241.156754
 30
0.0
  0
VERTEX
  8
0
 10
81.251785
 20
241.035049
 30
0.0
  0
VERTEX
  8
0
 10
81.276642
 20
240.82991
 30
0.0
  0
VERTEX
  8
0
 10
81.251785
 20
240.617813
 30
0.0
  0
VERTEX
  8
0
 10
81.183983
 20
240.482208
 30
0.0
  0
VERTEX
  8
0
 10
81.06646
 20
240.40918
 30
0.0
  0
VERTEX
  8
0
 10
80.903732
 20
240.388321
 30
0.0
  0
VERTEX
  8
0
 10
80.526299
 20
240.388321
 30
0.0
  0
SEQEND
  8
0
  0
POLYLINE
  8
0
 62
     7
 66
     1
 10
0.0
 20
0.0
 30
0.0
 70
     1
 71
    17
  0
VERTEX
  8
0
 10
82.513428
 20
241.160233
 30
0.0
  0
VERTEX
  8
0
 10
82.549591
 20
240.941177
 30
0.0
  0
VERTEX
  8
0
 10
82.958664
 20
239.028793
 30
0.0
  0
VERTEX
  8
0
 10
83.166595
 20
239.028793
 30
0.0
  0
VERTEX
  8
0
 10
83.584709
 20
240.941177
 30
0.0
  0
VERTEX
  8
0
 10
83.623131
 20
241.160233
 30
0.0
  0
VERTEX
  8
0
 10
83.623131
 20
239.028793
 30
0.0
  0
VERTEX
  8
0
 10
83.837845
 20
239.028793
 30
0.0
  0
VERTEX
  8
0
 10
83.837845
 20
241.528793
 30
0.0
  0
VERTEX
  8
0
 10
83.521431
 20
241.528793
 30
0.0
  0
VERTEX
  8
0
 10
83.103317
 20
239.616409
 30
0.0
  0
VERTEX
  8
0
 10
83.067154
 20
239.41127
 30
0.0
  0
VERTEX
  8
0
 10
83.028732
 20
239.616409
 30
0.0
  0
VERTEX
  8
0
 10
82.626434
 20
241.528793
 30
0.0
  0
VERTEX
  8
0
 10
82.310028
 20
241.528793
 30
0.0
  0
VERTEX
  8
0
 10
82.310028
 20
239.028793
 30
0.0
  0
VERTEX
  8
0
 10
82.513428
 20
239.028793
 30
0.0
  0
SEQEND
  8
0
  0
POLYLINE
  8
0
 62
     7
 66
     1
 10
0.0
 20
0.0
 30
0.0
 70
     1
 71
     8
  0
VERTEX
  8
0
 10
84.505089
 20
239.028793
 30
0.0
  0
VERTEX
  8
0
 10
84.733353
 20
239.028793
 30
0.0
  0
VERTEX
  8
0
 10
84.907379
 20
239.776352
 30
0.0
  0
VERTEX
  8
0
 10
85.546982
 20
239.776352
 30
0.0
  0
VERTEX
  8
0
 10
85.71875
 20
239.028793
 30
0.0
  0
VERTEX
  8
0
 10
85.958321
 20
239.028793
 30
0.0
  0
VERTEX
  8
0
 10
85.352615
 20
241.528793
 30
0.0
  0
VERTEX
  8
0
 10
85.108528
 20
241.528793
 30
0.0
  0
SEQEND
  8
0
  0
POLYLINE
  8
0
 62
     7
 66
     1
 10
0.0
 20
0.0
 30
0.0
 70
     1
 71
     3
  0
VERTEX
  8
0
 10
84.975189
 20
240.068436
 30
0.0
  0
VERTEX
  8
0
 10
85.230576
 20
241.170654
 30
0.0
  0
VERTEX
  8
0
 10
85.481445
 20
240.068436
 30
0.0
  0
SEQEND
  8
0
  0
POLYLINE
  8
0
 62
     7
 66
     1
 10
0.0
 20
0.0
 30
0.0
 70
     1
 71
     8
  0
VERTEX
  8
0
 10
86.984924
 20
239.028793
 30
0.0
  0
VERTEX
  8
0
 10
87.206406
 20
239.028793
 30
0.0
  0
VERTEX
  8
0
 10
87.206406
 20
241.226288
 30
0.0
  0
VERTEX
  8
0
 10
87.719444
 20
241.226288
 30
0.0
  0
VERTEX
  8
0
 10
87.719444
 20
241.528793
 30
0.0
  0
VERTEX
  8
0
 10
86.471878
 20
241.528793
 30
0.0
  0
VERTEX
  8
0
 10
86.471878
 20
241.226288
 30
0.0
  0
VERTEX
  8
0
 10
86.984924
 20
241.226288
 30
0.0
  0
SEQEND
  8
0
  0
POLYLINE
  8
0
 62
     7
 66
     1
 10
0.0
 20
0.0
 30
0.0
 70
     1
 71
     4
  0
VERTEX
  8
0
 10
88.420593
 20
239.028793
 30
0.0
  0
VERTEX
  8
0
 10
88.642082
 20
239.028793
 30
0.0
  0
VERTEX
  8
0
 10
88.642082
 20
241.528793
 30
0.0
  0
VERTEX
  8
0
 10
88.420593
 20
241.528793
 30
0.0
  0
SEQEND
  8
0
  0
POLYLINE
  8
0
 62
     7
 66
     1
 10
0.0
 20
0.0
 30
0.0
 70
     1
 71
    32
  0
VERTEX
  8
0
 10
89.426849
 20
240.277054
 30
0.0
  0
VERTEX
  8
0
 10
89.438156
 20
239.978027
 30
0.0
  0
VERTEX
  8
0
 10
89.478836
 20
239.717255
 30
0.0
  0
VERTEX
  8
0
 10
89.54438
 20
239.491241
 30
0.0
  0
VERTEX
  8
0
 10
89.632523
 20
239.303482
 30
0.0
  0
VERTEX
  8
0
 10
89.743271
 20
239.153961
 30
0.0
  0
VERTEX
  8
0
 10
89.874352
 20
239.046173
 30
0.0
  0
VERTEX
  8
0
 10
90.025772
 20
238.983597
 30
0.0
  0
VERTEX
  8
0
 10
90.19754
 20
238.959259
 30
0.0
  0
VERTEX
  8
0
 10
90.36705
 20
238.983597
 30
0.0
  0
VERTEX
  8
0
 10
90.518478
 20
239.046173
 30
0.0
  0
VERTEX
  8
0
 10
90.649559
 20
239.153961
 30
0.0
  0
VERTEX
  8
0
 10
90.7603
 20
239.303482
 30
0.0
  0
VERTEX
  8
0
 10
90.84845
 20
239.491241
 30
0.0
  0
VERTEX
  8
0
 10
90.911728
 20
239.717255
 30
0.0
  0
VERTEX
  8
0
 10
90.95015
 20
239.978027
 30
0.0
  0
VERTEX
  8
0
 10
90.965973
 20
240.277054
 30
0.0
  0
VERTEX
  8
0
 10
90.952408
 20
240.572601
 30
0.0
  0
VERTEX
  8
0
 10
90.911728
 20
240.833389
 30
0.0
  0
VERTEX
  8
0
 10
90.846191
 20
241.059387
 30
0.0
  0
VERTEX
  8
0
 10
90.7603
 20
241.247147
 30
0.0
  0
VERTEX
  8
0
 10
90.649559
 20
241.396667
 30
0.0
  0
VERTEX
  8
0
 10
90.518478
 20
241.504456
 30
0.0
  0
VERTEX
  8
0
 10
90.36705
 20
241.570511
 30
0.0
  0
VERTEX
  8
0
 10
90.19754
 20
241.594864
 30
0.0
  0
VERTEX
  8
0
 10
90.025772
 20
241.570511
 30
0.0
  0
VERTEX
  8
0
 10
89.874352
 20
241.504456
 30
0.0
  0
VERTEX
  8
0
 10
89.743271
 20
241.396667
 30
0.0
  0
VERTEX
  8
0
 10
89.632523
 20
241.247147
 30
0.0
  0
VERTEX
  8
0
 10
89.54438
 20
241.059387
 30
0.0
  0
VERTEX
  8
0
 10
89.478836
 20
240.833389
 30
0.0
  0
VERTEX
  8
0
 10
89.438156
 20
240.572601
 30
0.0
  0
SEQEND
  8
0
  0
POLYLINE
  8
0
 62
     7
 66
     1
 10
0.0
 20
0.0
 30
0.0
 70
     1
 71
    16
  0
VERTEX
  8
0
 10
89.655121
 20
240.277054
 30
0.0
  0
VERTEX
  8
0
 10
89.691284
 20
240.708206
 30
0.0
  0
VERTEX
  8
0
 10
89.799774
 20
241.03157
 30
0.0
  0
VERTEX
  8
0
 10
89.971535
 20
241.229767
 30
0.0
  0
VERTEX
  8
0
 10
90.19754
 20
241.299301
 30
0.0
  0
VERTEX
  8
0
 10
90.421295
 20
241.229767
 30
0.0
  0
VERTEX
  8
0
 10
90.593063
 20
241.03157
 30
0.0
  0
VERTEX
  8
0
 10
90.69928
 20
240.708206
 30
0.0
  0
VERTEX
  8
0
 10
90.737701
 20
240.277054
 30
0.0
  0
VERTEX
  8
0
 10
90.69928
 20
239.842422
 30
0.0
  0
VERTEX
  8
0
 10
90.593063
 20
239.519058
 30
0.0
  0
VERTEX
  8
0
 10
90.421295
 20
239.320862
 30
0.0
  0
VERTEX
  8
0
 10
90.19754
 20
239.254807
 30
0.0
  0
VERTEX
  8
0
 10
89.971535
 20
239.320862
 30
0.0
  0
VERTEX
  8
0
 10
89.799774
 20
239.519058
 30
0.0
  0
VERTEX
  8
0
 10
89.691284
 20
239.842422
 30
0.0
  0
SEQEND
  8
0
  0
POLYLINE
  8
0
 62
     7
 66
     1
 10
0.0
 20
0.0
 30
0.0
 70
     1
 71
    12
  0
VERTEX
  8
0
 10
91.741699
 20
239.028793
 30
0.0
  0
VERTEX
  8
0
 10
91.951889
 20
239.028793
 30
0.0
  0
VERTEX
  8
0
 10
91.951889
 20
241.055908
 30
0.0
  0
VERTEX
  8
0
 10
92.012909
 20
240.871628
 30
0.0
  0
VERTEX
  8
0
 10
92.788116
 20
239.028793
 30
0.0
  0
VERTEX
  8
0
 10
93.027687
 20
239.028793
 30
0.0
  0
VERTEX
  8
0
 10
93.027687
 20
241.528793
 30
0.0
  0
VERTEX
  8
0
 10
92.817505
 20
241.528793
 30
0.0
  0
VERTEX
  8
0
 10
92.817505
 20
239.501678
 30
0.0
  0
VERTEX
  8
0
 10
92.74292
 20
239.713776
 30
0.0
  0
VERTEX
  8
0
 10
91.983536
 20
241.528793
 30
0.0
  0
VERTEX
  8
0
 10
91.741699
 20
241.528793
 30
0.0
  0
SEQEND
  8
0
  0
LINE
  8
0
 62
     7
 10
89.257835
 20
130.362045
 30
0.0
 11
89.257835
 21
131.158203
 31
0.0
210
0.0
220
0.0
230
1.0
  0
ARC
  8
0
 62
     7
 10
87.907837
 20
129.708206
 30
0.0
 40
1.5
 50
25.841934
 51
90.000003
210
0.0
220
0.0
230
1.0
  0
ARC
  8
0
 62
     7
 10
87.907837
 20
129.708206
 30
0.0
 40
1.5
 50
20.000001
 51
25.841934
210
0.0
220
0.0
230
1.0
  0
ARC
  8
0
 62
     7
 10
91.007835
 20
131.158203
 30
0.0
 40
1.75
 50
120.949727
 51
180.000005
210
0.0
220
0.0
230
1.0
  0
LINE
  8
0
 62
     7
 10
89.317375
 20
130.221237
 30
0.0
 11
89.868073
 21
128.708206
 31
0.0
210
0.0
220
0.0
230
1.0
  0
LINE
  8
0
 62
     7
 10
102.107834
 20
128.708206
 30
0.0
 11
114.957832
 21
128.708206
 31
0.0
210
0.0
220
0.0
230
1.0
  0
LINE
  8
0
 62
     7
 10
102.107834
 20
128.708206
 30
0.0
 11
89.868073
 21
128.708206
 31
0.0
210
0.0
220
0.0
230
1.0
  0
LINE
  8
0
 62
     7
 10
78.607834
 20
131.208206
 30
0.0
 11
87.607834
 21
131.208206
 31
0.0
210
0.0
220
0.0
230
1.0
  0
LINE
  8
0
 62
     7
 10
87.607834
 20
131.208206
 30
0.0
 11
87.907837
 21
131.208206
 31
0.0
210
0.0
220
0.0
230
1.0
  0
LINE
  8
0
 62
     7
 10
65.208145
 20
205.840927
 30
0.0
 11
65.197327
 21
208.81073
 31
0.0
210
0.0
220
0.0
230
1.0
  0
LINE
  8
0
 62
     7
 10
65.208145
 20
205.840927
 30
0.0
 11
71.307877
 21
189.077271
 31
0.0
210
0.0
220
0.0
230
1.0
  0
LINE
  8
0
 62
     7
 10
71.307877
 20
189.077271
 30
0.0
 11
69.921867
 21
188.354553
 31
0.0
210
0.0
220
0.0
230
1.0
  0
LINE
  8
0
 62
     7
 10
69.921867
 20
188.354553
 30
0.0
 11
65.554535
 21
190.969208
 31
0.0
210
0.0
220
0.0
230
1.0
  0
LINE
  8
0
 62
     7
 10
65.554535
 20
190.969208
 30
0.0
 11
62.458645
 21
194.0522
 31
0.0
210
0.0
220
0.0
230
1.0
  0
LINE
  8
0
 62
     7
 10
62.458645
 20
194.0522
 30
0.0
 11
61.507298
 21
196.663437
 31
0.0
210
0.0
220
0.0
230
1.0
  0
LINE
  8
0
 62
     7
 10
61.507298
 20
196.663437
 30
0.0
 11
58.455162
 21
194.954163
 31
0.0
210
0.0
220
0.0
230
1.0
  0
ARC
  8
0
 62
     7
 10
64.65229
 20
180.818542
 30
0.0
 40
1.5
 50
299.250003
 51
29.249998
210
0.0
220
0.0
230
1.0
  0
LINE
  8
0
 62
     7
 10
65.000587
 20
179.294388
 30
0.0
 11
65.385223
 21
179.509796
 31
0.0
210
0.0
220
0.0
230
1.0
  0
LINE
  8
0
 62
     7
 10
63.260349
 20
178.319809
 30
0.0
 11
65.000587
 21
179.294388
 31
0.0
210
0.0
220
0.0
230
1.0
  0
LINE
  8
0
 62
     7
 10
65.000587
 20
179.294388
 30
0.0
 11
65.197327
 21
178.710724
 31
0.0
210
0.0
220
0.0
230
1.0
  0
LINE
  8
0
 62
     7
 10
65.208145
 20
175.740921
 30
0.0
 11
65.197327
 21
178.710724
 31
0.0
210
0.0
220
0.0
230
1.0
  0
LINE
  8
0
 62
     7
 10
65.208145
 20
175.740921
 30
0.0
 11
71.307877
 21
158.97728
 31
0.0
210
0.0
220
0.0
230
1.0
  0
LINE
  8
0
 62
     7
 10
71.307877
 20
158.97728
 30
0.0
 11
69.921867
 21
158.254547
 31
0.0
210
0.0
220
0.0
230
1.0
  0
LINE
  8
0
 62
     7
 10
69.921867
 20
158.254547
 30
0.0
 11
65.554535
 21
160.869202
 31
0.0
210
0.0
220
0.0
230
1.0
  0
LINE
  8
0
 62
     7
 10
65.554535
 20
160.869202
 30
0.0
 11
62.458645
 21
163.952209
 31
0.0
210
0.0
220
0.0
230
1.0
  0
LINE
  8
0
 62
     7
 10
62.458645
 20
163.952209
 30
0.0
 11
61.507298
 21
166.563446
 31
0.0
210
0.0
220
0.0
230
1.0
  0
LINE
  8
0
 62
     7
 10
61.507298
 20
166.563446
 30
0.0
 11
58.455162
 21
164.854156
 31
0.0
210
0.0
220
0.0
230
1.0
  0
ARC
  8
0
 62
     7
 10
64.65229
 20
150.718536
 30
0.0
 40
1.5
 50
299.250003
 51
29.249998
210
0.0
220
0.0
230
1.0
  0
LINE
  8
0
 62
     7
 10
65.000587
 20
149.194382
 30
0.0
 11
65.385223
 21
149.40979
 31
0.0
210
0.0
220
0.0
230
1.0
  0
LINE
  8
0
 62
     7
 10
63.260349
 20
148.219803
 30
0.0
 11
65.000587
 21
149.194382
 31
0.0
210
0.0
220
0.0
230
1.0
  0
LINE
  8
0
 62
     7
 10
65.000587
 20
149.194382
 30
0.0
 11
65.197327
 21
148.610718
 31
0.0
210
0.0
220
0.0
230
1.0
  0
LINE
  8
0
 62
     7
 10
65.208145
 20
145.64093
 30
0.0
 11
65.197327
 21
148.610718
 31
0.0
210
0.0
220
0.0
230
1.0
  0
LINE
  8
0
 62
     7
 10
69.697701
 20
133.30246
 30
0.0
 11
66.441124
 21
142.25238
 31
0.0
210
0.0
220
0.0
230
1.0
  0
LINE
  8
0
 62
     7
 10
69.697701
 20
133.30246
 30
0.0
 11
71.307877
 21
128.877274
 31
0.0
210
0.0
220
0.0
230
1.0
  0
LINE
  8
0
 62
     7
 10
65.208145
 20
145.64093
 30
0.0
 11
66.441124
 21
142.25238
 31
0.0
210
0.0
220
0.0
230
1.0
  0
LINE
  8
0
 62
     7
 10
72.207832
 20
145.481888
 30
0.0
 11
66.441124
 21
142.25238
 31
0.0
210
0.0
220
0.0
230
1.0
  0
LINE
  8
0
 62
     7
 10
72.207832
 20
141.208206
 30
0.0
 11
72.207832
 21
145.481888
 31
0.0
210
0.0
220
0.0
230
1.0
  0
LINE
  8
0
 62
     7
 10
74.007835
 20
141.208206
 30
0.0
 11
72.207832
 21
141.208206
 31
0.0
210
0.0
220
0.0
230
1.0
  0
LINE
  8
0
 62
     7
 10
74.007835
 20
135.708206
 30
0.0
 11
74.007835
 21
137.208206
 31
0.0
210
0.0
220
0.0
230
1.0
  0
LINE
  8
0
 62
     7
 10
74.007835
 20
137.208206
 30
0.0
 11
74.007835
 21
141.208206
 31
0.0
210
0.0
220
0.0
230
1.0
  0
LINE
  8
0
 62
     7
 10
74.007835
 20
137.208206
 30
0.0
 11
87.607834
 21
137.208206
 31
0.0
210
0.0
220
0.0
230
1.0
  0
LINE
  8
0
 62
     7
 10
87.607834
 20
131.208206
 30
0.0
 11
87.607834
 21
137.208206
 31
0.0
210
0.0
220
0.0
230
1.0
  0
LINE
  8
0
 62
     7
 10
90.107834
 20
141.518204
 30
0.0
 11
90.107834
 21
132.659042
 31
0.0
210
0.0
220
0.0
230
1.0
  0
LINE
  8
0
 62
     7
 10
90.107834
 20
141.518204
 30
0.0
 11
114.107834
 21
141.518204
 31
0.0
210
0.0
220
0.0
230
1.0
  0
LINE
  8
0
 62
     7
 10
114.107834
 20
141.518204
 30
0.0
 11
114.107834
 21
132.659042
 31
0.0
210
0.0
220
0.0
230
1.0
  0
ARC
  8
0
 62
     7
 10
113.207832
 20
131.158203
 30
0.0
 40
1.75
 50
0.0
 51
59.050278
210
0.0
220
0.0
230
1.0
  0
LINE
  8
0
 62
     7
 10
114.957832
 20
128.708206
 30
0.0
 11
114.957832
 21
131.158203
 31
0.0
210
0.0
220
0.0
230
1.0
  0
LINE
  8
0
 62
     7
 10
117.715012
 20
128.708206
 30
0.0
 11
114.957832
 21
128.708206
 31
0.0
210
0.0
220
0.0
230
1.0
  0
LINE
  8
0
 62
     7
 10
118.407837
 20
129.1082
 30
0.0
 11
117.715012
 21
128.708206
 31
0.0
210
0.0
220
0.0
230
1.0
  0
LINE
  8
0
 62
     7
 10
118.407837
 20
129.1082
 30
0.0
 11
118.407837
 21
130.908203
 31
0.0
210
0.0
220
0.0
230
1.0
  0
ARC
  8
0
 62
     7
 10
119.607834
 20
130.908203
 30
0.0
 40
1.2
 50
0.0
 51
180.000005
210
0.0
220
0.0
230
1.0
  0
LINE
  8
0
 62
     7
 10
120.807831
 20
130.908203
 30
0.0
 11
120.807831
 21
128.708206
 31
0.0
210
0.0
220
0.0
230
1.0
  0
LINE
  8
0
 62
     7
 10
132.925522
 20
128.708206
 30
0.0
 11
120.807831
 21
128.708206
 31
0.0
210
0.0
220
0.0
230
1.0
  0
ARC
  8
0
 62
     7
 10
132.925522
 20
127.208206
 30
0.0
 40
1.5
 50
56.442689
 51
73.597638
210
0.0
220
0.0
230
1.0
  0
ARC
  8
0
 62
     7
 10
132.925522
 20
127.208206
 30
0.0
 40
1.5
 50
73.597638
 51
90.000003
210
0.0
220
0.0
230
1.0
  0
LINE
  8
0
 62
     7
 10
133.349091
 20
128.647156
 30
0.0
 11
132.907791
 21
128.877274
 31
0.0
210
0.0
220
0.0
230
1.0
  0
LINE
  8
0
 62
     7
 10
139.007523
 20
145.64093
 30
0.0
 11
137.774536
 21
142.25238
 31
0.0
210
0.0
220
0.0
230
1.0
  0
LINE
  8
0
 62
     7
 10
134.517975
 20
133.30246
 30
0.0
 11
132.907791
 21
128.877274
 31
0.0
210
0.0
220
0.0
230
1.0
  0
LINE
  8
0
 62
     7
 10
134.517975
 20
133.30246
 30
0.0
 11
137.774536
 21
142.25238
 31
0.0
210
0.0
220
0.0
230
1.0
  0
LINE
  8
0
 62
     7
 10
134.517975
 20
133.30246
 30
0.0
 11
132.007828
 21
134.708206
 31
0.0
210
0.0
220
0.0
230
1.0
  0
LINE
  8
0
 62
     7
 10
132.007828
 20
134.708206
 30
0.0
 11
132.007828
 21
141.208206
 31
0.0
210
0.0
220
0.0
230
1.0
  0
LINE
  8
0
 62
     7
 10
132.007828
 20
134.708206
 30
0.0
 11
132.007828
 21
134.700165
 31
0.0
210
0.0
220
0.0
230
1.0
  0
LINE
  8
0
 62
     7
 10
132.007828
 20
134.700165
 30
0.0
 11
130.20784
 21
135.708206
 31
0.0
210
0.0
220
0.0
230
1.0
  0
LINE
  8
0
 62
     7
 10
130.20784
 20
135.708206
 30
0.0
 11
130.20784
 21
141.208206
 31
0.0
210
0.0
220
0.0
230
1.0
  0
LINE
  8
0
 62
     7
 10
130.20784
 20
141.208206
 30
0.0
 11
132.007828
 21
141.208206
 31
0.0
210
0.0
220
0.0
230
1.0
  0
LINE
  8
0
 62
     7
 10
132.007828
 20
141.208206
 30
0.0
 11
132.007828
 21
145.481888
 31
0.0
210
0.0
220
0.0
230
1.0
  0
LINE
  8
0
 62
     7
 10
132.007828
 20
145.481888
 30
0.0
 11
137.774536
 21
142.25238
 31
0.0
210
0.0
220
0.0
230
1.0
  0
LINE
  8
0
 62
     7
 10
139.007523
 20
145.64093
 30
0.0
 11
139.018341
 21
148.610718
 31
0.0
210
0.0
220
0.0
230
1.0
  0
LINE
  8
0
 62
     7
 10
139.215088
 20
149.194382
 30
0.0
 11
139.018341
 21
148.610718
 31
0.0
210
0.0
220
0.0
230
1.0
  0
LINE
  8
0
 62
     7
 10
140.955322
 20
148.219803
 30
0.0
 11
139.215088
 21
149.194382
 31
0.0
210
0.0
220
0.0
230
1.0
  0
LINE
  8
0
 62
     7
 10
139.215088
 20
149.194382
 30
0.0
 11
138.830444
 21
149.40979
 31
0.0
210
0.0
220
0.0
230
1.0
  0
ARC
  8
0
 62
     7
 10
139.563385
 20
150.718536
 30
0.0
 40
1.5
 50
150.750007
 51
240.750006
210
0.0
220
0.0
230
1.0
  0
LINE
  8
0
 62
     7
 10
142.708374
 20
166.563446
 30
0.0
 11
145.760498
 21
164.854156
 31
0.0
210
0.0
220
0.0
230
1.0
  0
LINE
  8
0
 62
     7
 10
141.757019
 20
163.952209
 30
0.0
 11
142.708374
 21
166.563446
 31
0.0
210
0.0
220
0.0
230
1.0
  0
LINE
  8
0
 62
     7
 10
138.661133
 20
160.869202
 30
0.0
 11
141.757019
 21
163.952209
 31
0.0
210
0.0
220
0.0
230
1.0
  0
LINE
  8
0
 62
     7
 10
134.293793
 20
158.254547
 30
0.0
 11
138.661133
 21
160.869202
 31
0.0
210
0.0
220
0.0
230
1.0
  0
LINE
  8
0
 62
     7
 10
132.907791
 20
158.97728
 30
0.0
 11
134.293793
 21
158.254547
 31
0.0
210
0.0
220
0.0
230
1.0
  0
LINE
  8
0
 62
     7
 10
139.007523
 20
175.740921
 30
0.0
 11
132.907791
 21
158.97728
 31
0.0
210
0.0
220
0.0
230
1.0
  0
LINE
  8
0
 62
     7
 10
139.007523
 20
175.740921
 30
0.0
 11
139.018341
 21
178.710724
 31
0.0
210
0.0
220
0.0
230
1.0
  0
LINE
  8
0
 62
     7
 10
139.215088
 20
179.294388
 30
0.0
 11
139.018341
 21
178.710724
 31
0.0
210
0.0
220
0.0
230
1.0
  0
LINE
  8
0
 62
     7
 10
140.955322
 20
178.319809
 30
0.0
 11
139.215088
 21
179.294388
 31
0.0
210
0.0
220
0.0
230
1.0
  0
LINE
  8
0
 62
     7
 10
139.215088
 20
179.294388
 30
0.0
 11
138.830444
 21
179.509796
 31
0.0
210
0.0
220
0.0
230
1.0
  0
ARC
  8
0
 62
     7
 10
139.563385
 20
180.818542
 30
0.0
 40
1.5
 50
150.750007
 51
240.750006
210
0.0
220
0.0
230
1.0
  0
LINE
  8
0
 62
     7
 10
142.708374
 20
196.663437
 30
0.0
 11
145.760498
 21
194.954163
 31
0.0
210
0.0
220
0.0
230
1.0
  0
LINE
  8
0
 62
     7
 10
141.757019
 20
194.0522
 30
0.0
 11
142.708374
 21
196.663437
 31
0.0
210
0.0
220
0.0
230
1.0
  0
LINE
  8
0
 62
     7
 10
138.661133
 20
190.969208
 30
0.0
 11
141.757019
 21
194.0522
 31
0.0
210
0.0
220
0.0
230
1.0
  0
LINE
  8
0
 62
     7
 10
134.293793
 20
188.354553
 30
0.0
 11
138.661133
 21
190.969208
 31
0.0
210
0.0
220
0.0
230
1.0
  0
LINE
  8
0
 62
     7
 10
132.907791
 20
189.077271
 30
0.0
 11
134.293793
 21
188.354553
 31
0.0
210
0.0
220
0.0
230
1.0
  0
LINE
  8
0
 62
     7
 10
139.007523
 20
205.840927
 30
0.0
 11
132.907791
 21
189.077271
 31
0.0
210
0.0
220
0.0
230
1.0
  0
LINE
  8
0
 62
     7
 10
139.007523
 20
205.840927
 30
0.0
 11
139.018341
 21
208.81073
 31
0.0
210
0.0
220
0.0
230
1.0
  0
LINE
  8
0
 62
     7
 10
139.257843
 20
222.058197
 30
0.0
 11
140.207825
 21
222.058197
 31
0.0
210
0.0
220
0.0
230
1.0
  0
LINE
  8
0
 62
     7
 10
144.107834
 20
222.058197
 30
0.0
 11
140.207825
 21
222.058197
 31
0.0
210
0.0
220
0.0
230
1.0
  0
LINE
  8
0
 62
     7
 10
140.207825
 20
218.108215
 30
0.0
 11
140.207825
 21
222.058197
 31
0.0
210
0.0
220
0.0
230
1.0
  0
LINE
  8
0
 62
     7
 10
140.207825
 20
218.108215
 30
0.0
 11
64.007835
 21
218.108215
 31
0.0
210
0.0
220
0.0
230
1.0
  0
LINE
  8
0
 62
     7
 10
64.007835
 20
222.058197
 30
0.0
 11
64.007835
 21
218.108215
 31
0.0
210
0.0
220
0.0
230
1.0
  0
LINE
  8
0
 62
     7
 10
64.957832
 20
222.058197
 30
0.0
 11
64.007835
 21
222.058197
 31
0.0
210
0.0
220
0.0
230
1.0
  0
LINE
  8
0
 62
     7
 10
64.007835
 20
222.058197
 30
0.0
 11
60.107834
 21
222.058197
 31
0.0
210
0.0
220
0.0
230
1.0
  0
LINE
  8
0
 62
     7
 10
140.857834
 20
227.708206
 30
0.0
 11
144.107834
 21
227.708206
 31
0.0
210
0.0
220
0.0
230
1.0
  0
LINE
  8
0
 62
     7
 10
140.857834
 20
227.708206
 30
0.0
 11
140.857834
 21
225.908203
 31
0.0
210
0.0
220
0.0
230
1.0
  0
ARC
  8
0
 62
     7
 10
139.657837
 20
225.908203
 30
0.0
 40
1.2
 50
318.59038
 51
0.0
210
0.0
220
0.0
230
1.0
  0
ARC
  8
0
 62
     7
 10
139.657837
 20
225.908203
 30
0.0
 40
1.2
 50
180.000005
 51
221.409615
210
0.0
220
0.0
230
1.0
  0
ARC
  8
0
 62
     7
 10
139.657837
 20
225.908203
 30
0.0
 40
1.2
 50
221.409615
 51
318.59038
210
0.0
220
0.0
230
1.0
  0
LINE
  8
0
 62
     7
 10
60.107834
 20
227.708206
 30
0.0
 11
63.657833
 21
227.708206
 31
0.0
210
0.0
220
0.0
230
1.0
  0
LINE
  8
0
 62
     7
 10
63.657833
 20
227.708206
 30
0.0
 11
65.457832
 21
227.708206
 31
0.0
210
0.0
220
0.0
230
1.0
  0
LINE
  8
0
 62
     7
 10
102.107834
 20
227.708206
 30
0.0
 11
65.457832
 21
227.708206
 31
0.0
210
0.0
220
0.0
230
1.0
  0
ARC
  8
0
 62
     7
 10
63.87109
 20
204.259384
 30
0.0
 40
1.5
 50
299.250003
 51
29.249998
210
0.0
220
0.0
230
1.0
  0
LINE
  8
0
 62
     7
 10
63.260349
 20
178.319809
 30
0.0
 11
65.17984
 21
174.892319
 31
0.0
210
0.0
220
0.0
230
1.0
  0
ARC
  8
0
 62
     7
 10
63.87109
 20
174.159378
 30
0.0
 40
1.5
 50
299.250003
 51
29.249998
210
0.0
220
0.0
230
1.0
  0
LINE
  8
0
 62
     7
 10
63.260349
 20
148.219803
 30
0.0
 11
65.17984
 21
144.792313
 31
0.0
210
0.0
220
0.0
230
1.0
  0
ARC
  8
0
 62
     7
 10
63.87109
 20
144.059387
 30
0.0
 40
1.5
 50
299.250003
 51
29.249998
210
0.0
220
0.0
230
1.0
  0
ARC
  8
0
 62
     7
 10
67.107834
 20
128.208206
 30
0.0
 40
1.5
 50
80.191455
 51
90.000003
210
0.0
220
0.0
230
1.0
  0
ARC
  8
0
 62
     7
 10
67.107834
 20
128.208206
 30
0.0
 40
1.5
 50
24.903947
 51
37.992026
210
0.0
220
0.0
230
1.0
  0
ARC
  8
0
 62
     7
 10
67.107834
 20
128.208206
 30
0.0
 40
1.5
 50
37.992026
 51
80.191455
210
0.0
220
0.0
230
1.0
  0
ARC
  8
0
 62
     7
 10
69.284668
 20
129.218842
 30
0.0
 40
0.9
 50
204.903944
 51
234.647396
210
0.0
220
0.0
230
1.0
  0
ARC
  8
0
 62
     7
 10
69.631836
 20
129.708206
 30
0.0
 40
1.5
 50
234.647396
 51
276.96578
210
0.0
220
0.0
230
1.0
  0
ARC
  8
0
 62
     7
 10
69.631836
 20
129.708206
 30
0.0
 40
1.5
 50
276.96578
 51
303.557311
210
0.0
220
0.0
230
1.0
  0
ARC
  8
0
 62
     7
 10
71.290146
 20
127.208206
 30
0.0
 40
1.5
 50
106.402367
 51
123.557316
210
0.0
220
0.0
230
1.0
  0
ARC
  8
0
 62
     7
 10
71.290146
 20
127.208206
 30
0.0
 40
1.5
 50
90.000003
 51
106.402367
210
0.0
220
0.0
230
1.0
  0
LINE
  8
0
 62
     7
 10
71.290146
 20
128.708206
 30
0.0
 11
73.607834
 21
128.708206
 31
0.0
210
0.0
220
0.0
230
1.0
  0
LINE
  8
0
 62
     7
 10
77.107834
 20
128.708206
 30
0.0
 11
73.607834
 21
128.708206
 31
0.0
210
0.0
220
0.0
230
1.0
  0
LINE
  8
0
 62
     7
 10
77.107834
 20
128.708206
 30
0.0
 11
77.107834
 21
129.708206
 31
0.0
210
0.0
220
0.0
230
1.0
  0
ARC
  8
0
 62
     7
 10
78.607834
 20
129.708206
 30
0.0
 40
1.5
 50
90.000003
 51
180.000005
210
0.0
220
0.0
230
1.0
  0
ARC
  8
0
 62
     7
 10
134.583832
 20
129.708206
 30
0.0
 40
1.5
 50
263.034222
 51
305.352602
210
0.0
220
0.0
230
1.0
  0
ARC
  8
0
 62
     7
 10
134.583832
 20
129.708206
 30
0.0
 40
1.5
 50
236.442684
 51
263.034222
210
0.0
220
0.0
230
1.0
  0
ARC
  8
0
 62
     7
 10
134.931
 20
129.218842
 30
0.0
 40
0.9
 50
305.352602
 51
335.096053
210
0.0
220
0.0
230
1.0
  0
ARC
  8
0
 62
     7
 10
137.107834
 20
128.208206
 30
0.0
 40
1.5
 50
90.000003
 51
99.808543
210
0.0
220
0.0
230
1.0
  0
ARC
  8
0
 62
     7
 10
137.107834
 20
128.208206
 30
0.0
 40
1.5
 50
99.808543
 51
142.007979
210
0.0
220
0.0
230
1.0
  0
ARC
  8
0
 62
     7
 10
137.107834
 20
128.208206
 30
0.0
 40
1.5
 50
142.007979
 51
155.096056
210
0.0
220
0.0
230
1.0
  0
ARC
  8
0
 62
     7
 10
140.344574
 20
144.059387
 30
0.0
 40
1.5
 50
150.750007
 51
240.750006
210
0.0
220
0.0
230
1.0
  0
LINE
  8
0
 62
     7
 10
140.955322
 20
148.219803
 30
0.0
 11
139.035828
 21
144.792313
 31
0.0
210
0.0
220
0.0
230
1.0
  0
ARC
  8
0
 62
     7
 10
140.344574
 20
174.159378
 30
0.0
 40
1.5
 50
150.750007
 51
240.750006
210
0.0
220
0.0
230
1.0
  0
LINE
  8
0
 62
     7
 10
140.955322
 20
178.319809
 30
0.0
 11
139.035828
 21
174.892319
 31
0.0
210
0.0
220
0.0
230
1.0
  0
ARC
  8
0
 62
     7
 10
140.344574
 20
204.259384
 30
0.0
 40
1.5
 50
150.750007
 51
240.750006
210
0.0
220
0.0
230
1.0
  0
LINE
  8
0
 62
     7
 10
74.007835
 20
135.708206
 30
0.0
 11
73.607834
 21
135.484192
 31
0.0
210
0.0
220
0.0
230
1.0
  0
LINE
  8
0
 62
     7
 10
70.866577
 20
128.647156
 30
0.0
 11
71.307877
 21
128.877274
 31
0.0
210
0.0
220
0.0
230
1.0
  0
LINE
  8
0
 62
     7
 10
72.207832
 20
134.700165
 30
0.0
 11
73.607834
 21
135.484192
 31
0.0
210
0.0
220
0.0
230
1.0
  0
LINE
  8
0
 62
     7
 10
72.207832
 20
134.708206
 30
0.0
 11
72.207832
 21
134.700165
 31
0.0
210
0.0
220
0.0
230
1.0
  0
LINE
  8
0
 62
     7
 10
69.697701
 20
133.30246
 30
0.0
 11
72.207832
 21
134.708206
 31
0.0
210
0.0
220
0.0
230
1.0
  0
LINE
  8
0
 62
     7
 10
73.607834
 20
135.484192
 30
0.0
 11
73.607834
 21
128.708206
 31
0.0
210
0.0
220
0.0
230
1.0
  0
LINE
  8
0
 62
     7
 10
72.207832
 20
134.708206
 30
0.0
 11
72.207832
 21
141.208206
 31
0.0
210
0.0
220
0.0
230
1.0
  0
LINE
  8
0
 62
     7
 10
144.107834
 20
222.058197
 30
0.0
 11
144.107834
 21
227.708206
 31
0.0
210
0.0
220
0.0
230
1.0
  0
LINE
  8
0
 62
     7
 10
140.557831
 20
225.114471
 30
0.0
 11
140.557831
 21
223.708206
 31
0.0
210
0.0
220
0.0
230
1.0
  0
LINE
  8
0
 62
     7
 10
139.257843
 20
223.708206
 30
0.0
 11
140.557831
 21
223.708206
 31
0.0
210
0.0
220
0.0
230
1.0
  0
LINE
  8
0
 62
     7
 10
139.257843
 20
223.708206
 30
0.0
 11
139.257843
 21
222.058197
 31
0.0
210
0.0
220
0.0
230
1.0
  0
LINE
  8
0
 62
     7
 10
64.957832
 20
223.708206
 30
0.0
 11
64.957832
 21
222.058197
 31
0.0
210
0.0
220
0.0
230
1.0
  0
LINE
  8
0
 62
     7
 10
139.257843
 20
223.708206
 30
0.0
 11
138.757843
 21
223.708206
 31
0.0
210
0.0
220
0.0
230
1.0
  0
LINE
  8
0
 62
     7
 10
138.757843
 20
225.114471
 30
0.0
 11
138.757843
 21
223.708206
 31
0.0
210
0.0
220
0.0
230
1.0
  0
LINE
  8
0
 62
     7
 10
138.457825
 20
227.708206
 30
0.0
 11
138.457825
 21
225.908203
 31
0.0
210
0.0
220
0.0
230
1.0
  0
LINE
  8
0
 62
     7
 10
102.107834
 20
227.708206
 30
0.0
 11
138.457825
 21
227.708206
 31
0.0
210
0.0
220
0.0
230
1.0
  0
LINE
  8
0
 62
     7
 10
65.457832
 20
227.708206
 30
0.0
 11
65.457832
 21
223.708206
 31
0.0
210
0.0
220
0.0
230
1.0
  0
LINE
  8
0
 62
     7
 10
64.957832
 20
223.708206
 30
0.0
 11
65.457832
 21
223.708206
 31
0.0
210
0.0
220
0.0
230
1.0
  0
LINE
  8
0
 62
     7
 10
60.107834
 20
227.708206
 30
0.0
 11
60.107834
 21
222.058197
 31
0.0
210
0.0
220
0.0
230
1.0
  0
LINE
  8
0
 62
     7
 10
64.957832
 20
223.708206
 30
0.0
 11
63.657833
 21
223.708206
 31
0.0
210
0.0
220
0.0
230
1.0
  0
LINE
  8
0
 62
     7
 10
63.657833
 20
227.708206
 30
0.0
 11
63.657833
 21
223.708206
 31
0.0
210
0.0
220
0.0
230
1.0
  0
LINE
  8
0
 62
     7
 10
67.363373
 20
129.686279
 30
0.0
 11
65.554535
 21
130.769196
 31
0.0
210
0.0
220
0.0
230
1.0
  0
LINE
  8
0
 62
     7
 10
69.813751
 20
128.219284
 30
0.0
 11
68.289978
 21
129.131531
 31
0.0
210
0.0
220
0.0
230
1.0
  0
LINE
  8
0
 62
     7
 10
65.554535
 20
130.769196
 30
0.0
 11
62.458645
 21
133.852203
 31
0.0
210
0.0
220
0.0
230
1.0
  0
LINE
  8
0
 62
     7
 10
62.458645
 20
133.852203
 30
0.0
 11
61.507298
 21
136.46344
 31
0.0
210
0.0
220
0.0
230
1.0
  0
LINE
  8
0
 62
     7
 10
61.507298
 20
136.46344
 30
0.0
 11
58.107834
 21
134.559647
 31
0.0
210
0.0
220
0.0
230
1.0
  0
LINE
  8
0
 62
     7
 10
58.107834
 20
134.559647
 30
0.0
 11
58.107834
 21
129.708206
 31
0.0
210
0.0
220
0.0
230
1.0
  0
LINE
  8
0
 62
     7
 10
67.107834
 20
129.708206
 30
0.0
 11
58.107834
 21
129.708206
 31
0.0
210
0.0
220
0.0
230
1.0
  0
LINE
  8
0
 62
     7
 10
134.401917
 20
128.219284
 30
0.0
 11
135.92569
 21
129.131531
 31
0.0
210
0.0
220
0.0
230
1.0
  0
LINE
  8
0
 62
     7
 10
136.852295
 20
129.686279
 30
0.0
 11
138.661133
 21
130.769196
 31
0.0
210
0.0
220
0.0
230
1.0
  0
LINE
  8
0
 62
     7
 10
146.107834
 20
134.559647
 30
0.0
 11
146.107834
 21
129.708206
 31
0.0
210
0.0
220
0.0
230
1.0
  0
LINE
  8
0
 62
     7
 10
142.708374
 20
136.46344
 30
0.0
 11
146.107834
 21
134.559647
 31
0.0
210
0.0
220
0.0
230
1.0
  0
LINE
  8
0
 62
     7
 10
141.757019
 20
133.852203
 30
0.0
 11
142.708374
 21
136.46344
 31
0.0
210
0.0
220
0.0
230
1.0
  0
LINE
  8
0
 62
     7
 10
138.661133
 20
130.769196
 30
0.0
 11
141.757019
 21
133.852203
 31
0.0
210
0.0
220
0.0
230
1.0
  0
LINE
  8
0
 62
     7
 10
146.107834
 20
129.708206
 30
0.0
 11
137.107834
 21
129.708206
 31
0.0
210
0.0
220
0.0
230
1.0
  0
LINE
  8
0
 62
     7
 10
64.969284
 20
209.487274
 30
0.0
 11
65.197327
 21
208.81073
 31
0.0
210
0.0
220
0.0
230
1.0
  0
LINE
  8
0
 62
     7
 10
58.455162
 20
194.954163
 30
0.0
 11
65.961029
 21
181.551468
 31
0.0
210
0.0
220
0.0
230
1.0
  0
LINE
  8
0
 62
     7
 10
58.455162
 20
164.854156
 30
0.0
 11
65.961029
 21
151.451462
 31
0.0
210
0.0
220
0.0
230
1.0
  0
LINE
  8
0
 62
     7
 10
145.760498
 20
164.854156
 30
0.0
 11
138.254639
 21
151.451462
 31
0.0
210
0.0
220
0.0
230
1.0
  0
LINE
  8
0
 62
     7
 10
145.760498
 20
194.954163
 30
0.0
 11
138.254639
 21
181.551468
 31
0.0
210
0.0
220
0.0
230
1.0
  0
LINE
  8
0
 62
     7
 10
139.246384
 20
209.487274
 30
0.0
 11
139.018341
 21
208.81073
 31
0.0
210
0.0
220
0.0
230
1.0
  0
ARC
  8
0
 62
     7
 10
140.061569
 20
210.066467
 30
0.0
 40
1.0
 50
163.750001
 51
215.394254
210
0.0
220
0.0
230
1.0
  0
LINE
  8
0
 62
     7
 10
140.607086
 20
215.511627
 30
0.0
 11
139.101532
 21
210.346283
 31
0.0
210
0.0
220
0.0
230
1.0
  0
ARC
  8
0
 62
     7
 10
142.04715
 20
215.091888
 30
0.0
 40
1.5
 50
150.750007
 51
163.750001
210
0.0
220
0.0
230
1.0
  0
LINE
  8
0
 62
     7
 10
140.738419
 20
215.824829
 30
0.0
 11
144.107834
 21
221.841354
 31
0.0
210
0.0
220
0.0
230
1.0
  0
LINE
  8
0
 62
     7
 10
144.107834
 20
222.058197
 30
0.0
 11
144.107834
 21
221.841354
 31
0.0
210
0.0
220
0.0
230
1.0
  0
LINE
  8
0
 62
     7
 10
60.107834
 20
222.058197
 30
0.0
 11
60.107834
 21
221.841354
 31
0.0
210
0.0
220
0.0
230
1.0
  0
LINE
  8
0
 62
     7
 10
63.477253
 20
215.824829
 30
0.0
 11
60.107834
 21
221.841354
 31
0.0
210
0.0
220
0.0
230
1.0
  0
ARC
  8
0
 62
     7
 10
62.16851
 20
215.091888
 30
0.0
 40
1.5
 50
16.25
 51
29.249998
210
0.0
220
0.0
230
1.0
  0
LINE
  8
0
 62
     7
 10
63.608585
 20
215.511627
 30
0.0
 11
65.114143
 21
210.346283
 31
0.0
210
0.0
220
0.0
230
1.0
  0
ARC
  8
0
 62
     7
 10
64.154099
 20
210.066467
 30
0.0
 40
1.0
 50
324.605748
 51
16.25
210
0.0
220
0.0
230
1.0
  0
LINE
  8
0
 62
     7
 10
146.107834
 20
199.312592
 30
0.0
 11
146.107834
 21
195.574371
 31
0.0
210
0.0
220
0.0
230
1.0
  0
LINE
  8
0
 62
     7
 10
146.107834
 20
199.312592
 30
0.0
 11
139.611649
 21
202.950638
 31
0.0
210
0.0
220
0.0
230
1.0
  0
LINE
  8
0
 62
     7
 10
140.955322
 20
208.4198
 30
0.0
 11
139.035828
 21
204.99231
 31
0.0
210
0.0
220
0.0
230
1.0
  0
LINE
  8
0
 62
     7
 10
140.955322
 20
208.4198
 30
0.0
 11
139.572952
 21
209.19397
 31
0.0
210
0.0
220
0.0
230
1.0
  0
ARC
  8
0
 62
     7
 10
140.061569
 20
210.066467
 30
0.0
 40
1.0
 50
215.394254
 51
240.750006
210
0.0
220
0.0
230
1.0
  0
LINE
  8
0
 62
     7
 10
146.107834
 20
195.574371
 30
0.0
 11
145.760498
 21
194.954163
 31
0.0
210
0.0
220
0.0
230
1.0
  0
LINE
  8
0
 62
     7
 10
146.107834
 20
169.212601
 30
0.0
 11
139.611649
 21
172.850647
 31
0.0
210
0.0
220
0.0
230
1.0
  0
LINE
  8
0
 62
     7
 10
146.107834
 20
165.474365
 30
0.0
 11
145.760498
 21
164.854156
 31
0.0
210
0.0
220
0.0
230
1.0
  0
LINE
  8
0
 62
     7
 10
146.107834
 20
169.212601
 30
0.0
 11
146.107834
 21
165.474365
 31
0.0
210
0.0
220
0.0
230
1.0
  0
LINE
  8
0
 62
     7
 10
146.107834
 20
139.112595
 30
0.0
 11
139.611649
 21
142.750641
 31
0.0
210
0.0
220
0.0
230
1.0
  0
LINE
  8
0
 62
     7
 10
146.107834
 20
139.112595
 30
0.0
 11
146.107834
 21
134.559647
 31
0.0
210
0.0
220
0.0
230
1.0
  0
LINE
  8
0
 62
     7
 10
58.107834
 20
139.112595
 30
0.0
 11
58.107834
 21
134.559647
 31
0.0
210
0.0
220
0.0
230
1.0
  0
LINE
  8
0
 62
     7
 10
58.107834
 20
139.112595
 30
0.0
 11
64.604019
 21
142.750641
 31
0.0
210
0.0
220
0.0
230
1.0
  0
LINE
  8
0
 62
     7
 10
58.107834
 20
165.474365
 30
0.0
 11
58.455162
 21
164.854156
 31
0.0
210
0.0
220
0.0
230
1.0
  0
LINE
  8
0
 62
     7
 10
58.107834
 20
169.212601
 30
0.0
 11
64.604019
 21
172.850647
 31
0.0
210
0.0
220
0.0
230
1.0
  0
LINE
  8
0
 62
     7
 10
58.107834
 20
169.212601
 30
0.0
 11
58.107834
 21
165.474365
 31
0.0
210
0.0
220
0.0
230
1.0
  0
LINE
  8
0
 62
     7
 10
58.107834
 20
199.312592
 30
0.0
 11
58.107834
 21
195.574371
 31
0.0
210
0.0
220
0.0
230
1.0
  0
LINE
  8
0
 62
     7
 10
58.107834
 20
195.574371
 30
0.0
 11
58.455162
 21
194.954163
 31
0.0
210
0.0
220
0.0
230
1.0
  0
ARC
  8
0
 62
     7
 10
64.154099
 20
210.066467
 30
0.0
 40
1.0
 50
299.250003
 51
324.605748
210
0.0
220
0.0
230
1.0
  0
LINE
  8
0
 62
     7
 10
63.260349
 20
208.4198
 30
0.0
 11
64.642715
 21
209.19397
 31
0.0
210
0.0
220
0.0
230
1.0
  0
LINE
  8
0
 62
     7
 10
63.260349
 20
208.4198
 30
0.0
 11
65.17984
 21
204.99231
 31
0.0
210
0.0
220
0.0
230
1.0
  0
LINE
  8
0
 62
     7
 10
58.107834
 20
199.312592
 30
0.0
 11
64.604019
 21
202.950638
 31
0.0
210
0.0
220
0.0
230
1.0
  0
ENDSEC
  0
EOF
