  0
SECTION
  2
HEADER
  9
$ACADVER
  1
AC1009
  9
$DWGCODEPAGE
  3
ansi_1252
  9
$INSBASE
 10
0.0
 20
0.0
 30
0.0
  9
$EXTMIN
 10
0.0
 20
0.0
 30
0.0
  9
$EXTMAX
 10
156.067169
 20
235.789444
 30
2.0
  9
$LIMMIN
 10
0.0
 20
0.0
  9
$LIMMAX
 10
420.0
 20
297.0
  9
$ORTHOMODE
 70
     0
  9
$REGENMODE
 70
     1
  9
$FILLMODE
 70
     1
  9
$QTEXTMODE
 70
     0
  9
$MIRRTEXT
 70
     1
  9
$DRAGMODE
 70
     2
  9
$LTSCALE
 40
1.0
  9
$OSMODE
 70
     0
  9
$ATTMODE
 70
     1
  9
$TEXTSIZE
 40
2.5
  9
$TRACEWID
 40
1.0
  9
$TEXTSTYLE
  7
STANDARD
  9
$CLAYER
  8
0
  9
$CELTYPE
  6
BYLAYER
  9
$CECOLOR
 62
   256
  9
$DIMSCALE
 40
1.0
  9
$DIMASZ
 40
2.5
  9
$DIMEXO
 40
0.625
  9
$DIMDLI
 40
3.75
  9
$DIMRND
 40
0.0
  9
$DIMDLE
 40
0.0
  9
$DIMEXE
 40
1.25
  9
$DIMTP
 40
0.0
  9
$DIMTM
 40
0.0
  9
$DIMTXT
 40
2.5
  9
$DIMCEN
 40
2.5
  9
$DIMTSZ
 40
0.0
  9
$DIMTOL
 70
     0
  9
$DIMLIM
 70
     0
  9
$DIMTIH
 70
     0
  9
$DIMTOH
 70
     0
  9
$DIMSE1
 70
     0
  9
$DIMSE2
 70
     0
  9
$DIMTAD
 70
     1
  9
$DIMZIN
 70
     8
  9
$DIMBLK
  1

  9
$DIMASO
 70
     1
  9
$DIMSHO
 70
     1
  9
$DIMPOST
  1

  9
$DIMAPOST
  1

  9
$DIMALT
 70
     0
  9
$DIMALTD
 70
     3
  9
$DIMALTF
 40
0.03937
  9
$DIMLFAC
 40
1.0
  9
$DIMTOFL
 70
     1
  9
$DIMTVP
 40
0.0
  9
$DIMTIX
 70
     0
  9
$DIMSOXD
 70
     0
  9
$DIMSAH
 70
     0
  9
$DIMBLK1
  1

  9
$DIMBLK2
  1

  9
$DIMSTYLE
  2

  9
$DIMCLRD
 70
     0
  9
$DIMCLRE
 70
     0
  9
$DIMCLRT
 70
     0
  9
$DIMTFAC
 40
1.0
  9
$DIMGAP
 40
0.625
  9
$LUNITS
 70
     2
  9
$LUPREC
 70
     4
  9
$AXISMODE
 70
     0
  9
$AXISUNIT
 10
0.0
 20
0.0
  9
$SKETCHINC
 40
1.0
  9
$FILLETRAD
 40
2.5
  9
$AUNITS
 70
     0
  9
$AUPREC
 70
     0
  9
$MENU
  1
.
  9
$ELEVATION
 40
0.0
  9
$PELEVATION
 40
0.0
  9
$THICKNESS
 40
0.0
  9
$LIMCHECK
 70
     0
  9
$BLIPMODE
 70
     1
  9
$CHAMFERA
 40
2.5
  9
$CHAMFERB
 40
2.5
  9
$SKPOLY
 70
     0
  9
$TDCREATE
 40
0.000000000
  9
$TDUPDATE
 40
0.000000000
  9
$TDINDWG
 40
0.0000000000
  9
$TDUSRTIMER
 40
0.0000000000
  9
$USRTIMER
 70
     1
  9
$ANGBASE
 50
0.0
  9
$ANGDIR
 70
     0
  9
$PDMODE
 70
     0
  9
$PDSIZE
 40
0.0
  9
$PLINEWID
 40
0.0
  9
$COORDS
 70
     0
  9
$SPLFRAME
 70
     0
  9
$SPLINETYPE
 70
     6
  9
$SPLINESEGS
 70
     8
  9
$ATTDIA
 70
     0
  9
$ATTREQ
 70
     1
  9
$HANDLING
 70
     0
  9
$HANDSEED
  5
3
  9
$SURFTAB1
 70
     6
  9
$SURFTAB2
 70
     6
  9
$SURFTYPE
 70
     6
  9
$SURFU
 70
     6
  9
$SURFV
 70
     6
  9
$UCSNAME
  2

  9
$UCSORG
 10
0.0
 20
0.0
 30
0.0
  9
$UCSXDIR
 10
1.0
 20
0.0
 30
0.0
  9
$UCSYDIR
 10
0.0
 20
1.0
 30
0.0
  9
$PUCSNAME
  2

  9
$PUCSORG
 10
0.0
 20
0.0
 30
0.0
  9
$PUCSXDIR
 10
1.0
 20
0.0
 30
0.0
  9
$PUCSYDIR
 10
0.0
 20
1.0
 30
0.0
  9
$USERI1
 70
     0
  9
$USERI2
 70
     0
  9
$USERI3
 70
     0
  9
$USERI4
 70
     0
  9
$USERI5
 70
     0
  9
$USERR1
 40
0.0
  9
$USERR2
 40
0.0
  9
$USERR3
 40
0.0
  9
$USERR4
 40
0.0
  9
$USERR5
 40
0.0
  9
$WORLDVIEW
 70
     1
  9
$SHADEDGE
 70
     3
  9
$SHADEDIF
 70
    70
  9
$TILEMODE
 70
     1
  9
$MAXACTVP
 70
    48
  9
$PINSBASE
 10
0.0
 20
0.0
 30
0.0
  9
$PLIMCHECK
 70
     0
  9
$PEXTMIN
 10
0.0
 20
0.0
 30
0.0
  9
$PEXTMAX
 10
156.067169
 20
235.789444
 30
2.0
  9
$PLIMMIN
 10
0.0
 20
0.0
  9
$PLIMMAX
 10
420.0
 20
297.0
  9
$UNITMODE
 70
     0
  9
$VISRETAIN
 70
     0
  9
$PLINEGEN
 70
     0
  9
$PSLTSCALE
 70
     1
  9
$TREEDEPTH
 70
  3020
  0
ENDSEC
  0
SECTION
  2
TABLES
  0
TABLE
  2
VPORT
 70
     1
  0
VPORT
  2
*ACTIVE
 70
     0
 10
0.0
 20
0.0
 11
1.0
 21
1.0
 12
6.591288
 22
4.579184
 13
0.0
 23
0.0
 14
1.0
 24
1.0
 15
0.0
 25
0.0
 16
0.0
 26
0.0
 36
1.0
 17
0.0
 27
0.0
 37
0.0
 40
9.158369
 41
0.688564
 42
50.0
 43
0.0
 44
0.0
 50
0.0
 51
0.0
 71
     0
 72
   100
 73
     1
 74
     1
 75
     0
 76
     0
 77
     0
 78
     0
  0
ENDTAB
  0
TABLE
  2
LTYPE
 70
     2
  0
LTYPE
  2
CONTINUOUS
 70
    64
  3
Solid line
 72
    65
 73
     0
 40
0.0
  0
LTYPE
  2
DASHDOT
 70
     0
  3
 __ . __ . __ . __ . __ . __ . __ . 
 72
    65
 73
     4
 40
18.5
 49
12.0
 49
-3.0
 49
0.5
 49
-3.0
  0
ENDTAB
  0
TABLE
  2
LAYER
 70
     1
  0
LAYER
  2
0
 70
     0
 62
     7
  6
CONTINUOUS
  0
ENDTAB
  0
TABLE
  2
STYLE
 70
     1
  0
STYLE
  2
STANDARD
 70
     0
 40
0.0
 41
1.0
 50
0.0
 71
     0
 42
0.0
  3
txt
  4

  0
ENDTAB
  0
TABLE
  2
VIEW
 70
     0
  0
ENDTAB
  0
TABLE
  2
UCS
 70
     0
  0
ENDTAB
  0
TABLE
  2
APPID
 70
     1
  0
APPID
  2
ACAD
 70
     0
  0
ENDTAB
  0
TABLE
  2
DIMSTYLE
 70
     1
  0
DIMSTYLE
  2
STANDARD
 70
     0
  3

  4

  5

  6

  7

 40
1.0
 41
0.18
 42
0.0625
 43
0.38
 44
0.18
 45
0.0
 46
0.0
 47
0.0
 48
0.0
 71
     0
 72
     0
 73
     1
 74
     1
 75
     0
 76
     0
 77
     0
 78
     0
140
0.18
141
0.09
142
0.0
143
25.4
144
1.0
145
0.0
146
1.0
147
0.09
170
     0
171
     2
172
     0
173
     0
174
     0
175
     0
176
     0
177
     0
178
     0
  0
ENDTAB
  0
ENDSEC
  0
SECTION
  2
BLOCKS
  0
ENDSEC
  0
SECTION
  2
ENTITIES
  0
VIEWPORT
  8
0
 62
     0
 67
     1
 68
     1
 10
0.0
 20
0.0
 30
0.0
 40
1000.0
 41
1000.0
 69
     1
1001
ACAD
1000
MVIEW
1002
{
1070
    16
1010
0.0
1020
0.0
1030
0.0
1010
0.0
1020
0.0
1030
1.0
1040
0.0
1040
1000.0
1040
0.0
1040
0.0
1040
50.0
1040
0.0
1040
0.0
1070
     0
1070
   100
1070
     1
1070
     1
1070
     0
1070
     0
1070
     0
1070
     0
1040
0.0
1040
0.0
1040
0.0
1040
1.0
1040
1.0
1040
1.0
1040
1.0
1070
     0
1002
{
1002
}
1002
}
  0
LINE
  8
0
  6
DASHDOT
 62
     7
 10
124.627174
 20
118.82045
 30
0.0
 11
121.507179
 21
118.82045
 31
0.0
210
0.0
220
0.0
230
1.0
  0
LINE
  8
0
  6
DASHDOT
 62
     7
 10
123.067177
 20
120.380455
 30
0.0
 11
123.067177
 21
117.260452
 31
0.0
210
0.0
220
0.0
230
1.0
  0
LINE
  8
0
  6
DASHDOT
 62
     7
 10
144.677185
 20
213.82045
 30
0.0
 11
141.557175
 21
213.82045
 31
0.0
210
0.0
220
0.0
230
1.0
  0
LINE
  8
0
  6
DASHDOT
 62
     7
 10
143.117172
 20
215.380463
 30
0.0
 11
143.117172
 21
212.260452
 31
0.0
210
0.0
220
0.0
230
1.0
  0
POLYLINE
  8
0
 62
     7
 66
     1
 10
0.0
 20
0.0
 30
0.0
 70
     1
 71
    12
  0
VERTEX
  8
0
 10
57.738945
 20
232.44104
 30
0.0
  0
VERTEX
  8
0
 10
57.949131
 20
232.44104
 30
0.0
  0
VERTEX
  8
0
 10
57.949131
 20
234.468155
 30
0.0
  0
VERTEX
  8
0
 10
58.010155
 20
234.283875
 30
0.0
  0
VERTEX
  8
0
 10
58.785362
 20
232.44104
 30
0.0
  0
VERTEX
  8
0
 10
59.024929
 20
232.44104
 30
0.0
  0
VERTEX
  8
0
 10
59.024929
 20
234.94104
 30
0.0
  0
VERTEX
  8
0
 10
58.814743
 20
234.94104
 30
0.0
  0
VERTEX
  8
0
 10
58.814743
 20
232.913925
 30
0.0
  0
VERTEX
  8
0
 10
58.740162
 20
233.126022
 30
0.0
  0
VERTEX
  8
0
 10
57.980774
 20
234.94104
 30
0.0
  0
VERTEX
  8
0
 10
57.738945
 20
234.94104
 30
0.0
  0
SEQEND
  8
0
  0
POLYLINE
  8
0
 62
     7
 66
     1
 10
0.0
 20
0.0
 30
0.0
 70
     1
 71
    32
  0
VERTEX
  8
0
 10
59.800659
 20
233.689301
 30
0.0
  0
VERTEX
  8
0
 10
59.811962
 20
233.390274
 30
0.0
  0
VERTEX
  8
0
 10
59.852642
 20
233.129501
 30
0.0
  0
VERTEX
  8
0
 10
59.918186
 20
232.903488
 30
0.0
  0
VERTEX
  8
0
 10
60.006329
 20
232.715729
 30
0.0
  0
VERTEX
  8
0
 10
60.117073
 20
232.566208
 30
0.0
  0
VERTEX
  8
0
 10
60.248158
 20
232.45842
 30
0.0
  0
VERTEX
  8
0
 10
60.399582
 20
232.395844
 30
0.0
  0
VERTEX
  8
0
 10
60.57135
 20
232.371506
 30
0.0
  0
VERTEX
  8
0
 10
60.740856
 20
232.395844
 30
0.0
  0
VERTEX
  8
0
 10
60.892281
 20
232.45842
 30
0.0
  0
VERTEX
  8
0
 10
61.023365
 20
232.566208
 30
0.0
  0
VERTEX
  8
0
 10
61.134109
 20
232.715729
 30
0.0
  0
VERTEX
  8
0
 10
61.222252
 20
232.903488
 30
0.0
  0
VERTEX
  8
0
 10
61.285534
 20
233.129501
 30
0.0
  0
VERTEX
  8
0
 10
61.323956
 20
233.390274
 30
0.0
  0
VERTEX
  8
0
 10
61.339779
 20
233.689301
 30
0.0
  0
VERTEX
  8
0
 10
61.326218
 20
233.984848
 30
0.0
  0
VERTEX
  8
0
 10
61.285534
 20
234.245636
 30
0.0
  0
VERTEX
  8
0
 10
61.219994
 20
234.471634
 30
0.0
  0
VERTEX
  8
0
 10
61.134109
 20
234.659393
 30
0.0
  0
VERTEX
  8
0
 10
61.023365
 20
234.808914
 30
0.0
  0
VERTEX
  8
0
 10
60.892281
 20
234.916702
 30
0.0
  0
VERTEX
  8
0
 10
60.740856
 20
234.982758
 30
0.0
  0
VERTEX
  8
0
 10
60.57135
 20
235.007111
 30
0.0
  0
VERTEX
  8
0
 10
60.399582
 20
234.982758
 30
0.0
  0
VERTEX
  8
0
 10
60.248158
 20
234.916702
 30
0.0
  0
VERTEX
  8
0
 10
60.117073
 20
234.808914
 30
0.0
  0
VERTEX
  8
0
 10
60.006329
 20
234.659393
 30
0.0
  0
VERTEX
  8
0
 10
59.918186
 20
234.471634
 30
0.0
  0
VERTEX
  8
0
 10
59.852642
 20
234.245636
 30
0.0
  0
VERTEX
  8
0
 10
59.811962
 20
233.984848
 30
0.0
  0
SEQEND
  8
0
  0
POLYLINE
  8
0
 62
     7
 66
     1
 10
0.0
 20
0.0
 30
0.0
 70
     1
 71
    16
  0
VERTEX
  8
0
 10
60.028931
 20
233.689301
 30
0.0
  0
VERTEX
  8
0
 10
60.06509
 20
234.120453
 30
0.0
  0
VERTEX
  8
0
 10
60.173576
 20
234.443817
 30
0.0
  0
VERTEX
  8
0
 10
60.345341
 20
234.642014
 30
0.0
  0
VERTEX
  8
0
 10
60.57135
 20
234.711548
 30
0.0
  0
VERTEX
  8
0
 10
60.795097
 20
234.642014
 30
0.0
  0
VERTEX
  8
0
 10
60.966866
 20
234.443817
 30
0.0
  0
VERTEX
  8
0
 10
61.073086
 20
234.120453
 30
0.0
  0
VERTEX
  8
0
 10
61.111507
 20
233.689301
 30
0.0
  0
VERTEX
  8
0
 10
61.073086
 20
233.254669
 30
0.0
  0
VERTEX
  8
0
 10
60.966866
 20
232.931305
 30
0.0
  0
VERTEX
  8
0
 10
60.795097
 20
232.733109
 30
0.0
  0
VERTEX
  8
0
 10
60.57135
 20
232.667053
 30
0.0
  0
VERTEX
  8
0
 10
60.345341
 20
232.733109
 30
0.0
  0
VERTEX
  8
0
 10
60.173576
 20
232.931305
 30
0.0
  0
VERTEX
  8
0
 10
60.06509
 20
233.254669
 30
0.0
  0
SEQEND
  8
0
  0
POLYLINE
  8
0
 62
     7
 66
     1
 10
0.0
 20
0.0
 30
0.0
 70
     1
 71
    12
  0
VERTEX
  8
0
 10
62.115509
 20
232.44104
 30
0.0
  0
VERTEX
  8
0
 10
62.325695
 20
232.44104
 30
0.0
  0
VERTEX
  8
0
 10
62.325695
 20
234.468155
 30
0.0
  0
VERTEX
  8
0
 10
62.386719
 20
234.283875
 30
0.0
  0
VERTEX
  8
0
 10
63.161926
 20
232.44104
 30
0.0
  0
VERTEX
  8
0
 10
63.401497
 20
232.44104
 30
0.0
  0
VERTEX
  8
0
 10
63.401497
 20
234.94104
 30
0.0
  0
VERTEX
  8
0
 10
63.191307
 20
234.94104
 30
0.0
  0
VERTEX
  8
0
 10
63.191307
 20
232.913925
 30
0.0
  0
VERTEX
  8
0
 10
63.116726
 20
233.126022
 30
0.0
  0
VERTEX
  8
0
 10
62.357338
 20
234.94104
 30
0.0
  0
VERTEX
  8
0
 10
62.115509
 20
234.94104
 30
0.0
  0
SEQEND
  8
0
  0
POLYLINE
  8
0
 62
     7
 66
     1
 10
0.0
 20
0.0
 30
0.0
 70
     1
 71
     4
  0
VERTEX
  8
0
 10
64.152367
 20
233.223373
 30
0.0
  0
VERTEX
  8
0
 10
64.699303
 20
233.223373
 30
0.0
  0
VERTEX
  8
0
 10
64.699303
 20
233.498062
 30
0.0
  0
VERTEX
  8
0
 10
64.152367
 20
233.498062
 30
0.0
  0
SEQEND
  8
0
  0
POLYLINE
  8
0
 62
     7
 66
     1
 10
0.0
 20
0.0
 30
0.0
 70
     1
 71
    22
  0
VERTEX
  8
0
 10
65.44339
 20
233.390274
 30
0.0
  0
VERTEX
  8
0
 10
65.479553
 20
232.941742
 30
0.0
  0
VERTEX
  8
0
 10
65.594818
 20
232.62532
 30
0.0
  0
VERTEX
  8
0
 10
65.784668
 20
232.437561
 30
0.0
  0
VERTEX
  8
0
 10
66.053619
 20
232.371506
 30
0.0
  0
VERTEX
  8
0
 10
66.338387
 20
232.437561
 30
0.0
  0
VERTEX
  8
0
 10
66.54631
 20
232.628799
 30
0.0
  0
VERTEX
  8
0
 10
66.672882
 20
232.945206
 30
0.0
  0
VERTEX
  8
0
 10
66.71582
 20
233.390274
 30
0.0
  0
VERTEX
  8
0
 10
66.71582
 20
234.94104
 30
0.0
  0
VERTEX
  8
0
 10
66.494331
 20
234.94104
 30
0.0
  0
VERTEX
  8
0
 10
66.494331
 20
233.386795
 30
0.0
  0
VERTEX
  8
0
 10
66.467209
 20
233.080811
 30
0.0
  0
VERTEX
  8
0
 10
66.390366
 20
232.868713
 30
0.0
  0
VERTEX
  8
0
 10
66.261543
 20
232.740067
 30
0.0
  0
VERTEX
  8
0
 10
66.078476
 20
232.698349
 30
0.0
  0
VERTEX
  8
0
 10
65.89315
 20
232.740067
 30
0.0
  0
VERTEX
  8
0
 10
65.764328
 20
232.865234
 30
0.0
  0
VERTEX
  8
0
 10
65.687485
 20
233.080811
 30
0.0
  0
VERTEX
  8
0
 10
65.664879
 20
233.386795
 30
0.0
  0
VERTEX
  8
0
 10
65.664879
 20
234.94104
 30
0.0
  0
VERTEX
  8
0
 10
65.44339
 20
234.94104
 30
0.0
  0
SEQEND
  8
0
  0
POLYLINE
  8
0
 62
     7
 66
     1
 10
0.0
 20
0.0
 30
0.0
 70
     1
 71
    50
  0
VERTEX
  8
0
 10
67.480247
 20
233.265106
 30
0.0
  0
VERTEX
  8
0
 10
67.529968
 20
232.882629
 30
0.0
  0
VERTEX
  8
0
 10
67.65654
 20
232.604462
 30
0.0
  0
VERTEX
  8
0
 10
67.853165
 20
232.434082
 30
0.0
  0
VERTEX
  8
0
 10
68.117592
 20
232.374969
 30
0.0
  0
VERTEX
  8
0
 10
68.377502
 20
232.434082
 30
0.0
  0
VERTEX
  8
0
 10
68.574127
 20
232.590546
 30
0.0
  0
VERTEX
  8
0
 10
68.698433
 20
232.837418
 30
0.0
  0
VERTEX
  8
0
 10
68.741379
 20
233.164261
 30
0.0
  0
VERTEX
  8
0
 10
68.705215
 20
233.435471
 30
0.0
  0
VERTEX
  8
0
 10
68.608032
 20
233.640625
 30
0.0
  0
VERTEX
  8
0
 10
68.445305
 20
233.769272
 30
0.0
  0
VERTEX
  8
0
 10
68.235115
 20
233.85968
 30
0.0
  0
VERTEX
  8
0
 10
68.013626
 20
233.939651
 30
0.0
  0
VERTEX
  8
0
 10
67.85994
 20
234.019623
 30
0.0
  0
VERTEX
  8
0
 10
67.769539
 20
234.134369
 30
0.0
  0
VERTEX
  8
0
 10
67.742416
 20
234.325607
 30
0.0
  0
VERTEX
  8
0
 10
67.765022
 20
234.48555
 30
0.0
  0
VERTEX
  8
0
 10
67.837341
 20
234.614197
 30
0.0
  0
VERTEX
  8
0
 10
67.94809
 20
234.694168
 30
0.0
  0
VERTEX
  8
0
 10
68.09951
 20
234.725464
 30
0.0
  0
VERTEX
  8
0
 10
68.253197
 20
234.690689
 30
0.0
  0
VERTEX
  8
0
 10
68.37072
 20
234.589859
 30
0.0
  0
VERTEX
  8
0
 10
68.447563
 20
234.426437
 30
0.0
  0
VERTEX
  8
0
 10
68.483727
 20
234.207382
 30
0.0
  0
VERTEX
  8
0
 10
68.693916
 20
234.207382
 30
0.0
  0
VERTEX
  8
0
 10
68.65097
 20
234.541183
 30
0.0
  0
VERTEX
  8
0
 10
68.535706
 20
234.791534
 30
0.0
  0
VERTEX
  8
0
 10
68.354904
 20
234.951477
 30
0.0
  0
VERTEX
  8
0
 10
68.113075
 20
235.007111
 30
0.0
  0
VERTEX
  8
0
 10
67.871246
 20
234.951477
 30
0.0
  0
VERTEX
  8
0
 10
67.688179
 20
234.798477
 30
0.0
  0
VERTEX
  8
0
 10
67.570656
 20
234.565521
 30
0.0
  0
VERTEX
  8
0
 10
67.532234
 20
234.266495
 30
0.0
  0
VERTEX
  8
0
 10
67.566132
 20
233.991806
 30
0.0
  0
VERTEX
  8
0
 10
67.667839
 20
233.804047
 30
0.0
  0
VERTEX
  8
0
 10
67.8396
 20
233.6754
 30
0.0
  0
VERTEX
  8
0
 10
68.076912
 20
233.574554
 30
0.0
  0
VERTEX
  8
0
 10
68.26902
 20
233.498062
 30
0.0
  0
VERTEX
  8
0
 10
68.409142
 20
233.42157
 30
0.0
  0
VERTEX
  8
0
 10
68.492767
 20
233.306824
 30
0.0
  0
VERTEX
  8
0
 10
68.522148
 20
233.126022
 30
0.0
  0
VERTEX
  8
0
 10
68.492767
 20
232.938263
 30
0.0
  0
VERTEX
  8
0
 10
68.413666
 20
232.792221
 30
0.0
  0
VERTEX
  8
0
 10
68.287102
 20
232.701813
 30
0.0
  0
VERTEX
  8
0
 10
68.115334
 20
232.670532
 30
0.0
  0
VERTEX
  8
0
 10
67.941307
 20
232.708771
 30
0.0
  0
VERTEX
  8
0
 10
67.810219
 20
232.830475
 30
0.0
  0
VERTEX
  8
0
 10
67.724335
 20
233.014755
 30
0.0
  0
VERTEX
  8
0
 10
67.692696
 20
233.265106
 30
0.0
  0
SEQEND
  8
0
  0
POLYLINE
  8
0
 62
     7
 66
     1
 10
0.0
 20
0.0
 30
0.0
 70
     1
 71
     8
  0
VERTEX
  8
0
 10
69.334038
 20
232.44104
 30
0.0
  0
VERTEX
  8
0
 10
69.562309
 20
232.44104
 30
0.0
  0
VERTEX
  8
0
 10
69.736336
 20
233.188599
 30
0.0
  0
VERTEX
  8
0
 10
70.375938
 20
233.188599
 30
0.0
  0
VERTEX
  8
0
 10
70.547707
 20
232.44104
 30
0.0
  0
VERTEX
  8
0
 10
70.787277
 20
232.44104
 30
0.0
  0
VERTEX
  8
0
 10
70.181572
 20
234.94104
 30
0.0
  0
VERTEX
  8
0
 10
69.937485
 20
234.94104
 30
0.0
  0
SEQEND
  8
0
  0
POLYLINE
  8
0
 62
     7
 66
     1
 10
0.0
 20
0.0
 30
0.0
 70
     1
 71
     3
  0
VERTEX
  8
0
 10
69.804138
 20
233.480682
 30
0.0
  0
VERTEX
  8
0
 10
70.059525
 20
234.582901
 30
0.0
  0
VERTEX
  8
0
 10
70.310394
 20
233.480682
 30
0.0
  0
SEQEND
  8
0
  0
POLYLINE
  8
0
 62
     7
 66
     1
 10
0.0
 20
0.0
 30
0.0
 70
     1
 71
    19
  0
VERTEX
  8
0
 10
71.454521
 20
232.44104
 30
0.0
  0
VERTEX
  8
0
 10
72.143845
 20
232.44104
 30
0.0
  0
VERTEX
  8
0
 10
72.374374
 20
232.493195
 30
0.0
  0
VERTEX
  8
0
 10
72.546143
 20
232.646179
 30
0.0
  0
VERTEX
  8
0
 10
72.654625
 20
232.87915
 30
0.0
  0
VERTEX
  8
0
 10
72.693047
 20
233.188599
 30
0.0
  0
VERTEX
  8
0
 10
72.670441
 20
233.411133
 30
0.0
  0
VERTEX
  8
0
 10
72.609421
 20
233.58847
 30
0.0
  0
VERTEX
  8
0
 10
72.512238
 20
233.717117
 30
0.0
  0
VERTEX
  8
0
 10
72.383415
 20
233.790131
 30
0.0
  0
VERTEX
  8
0
 10
72.482857
 20
233.87706
 30
0.0
  0
VERTEX
  8
0
 10
72.557442
 20
233.998764
 30
0.0
  0
VERTEX
  8
0
 10
72.60038
 20
234.14827
 30
0.0
  0
VERTEX
  8
0
 10
72.616203
 20
234.33255
 30
0.0
  0
VERTEX
  8
0
 10
72.582306
 20
234.596817
 30
0.0
  0
VERTEX
  8
0
 10
72.487381
 20
234.788055
 30
0.0
  0
VERTEX
  8
0
 10
72.32917
 20
234.902786
 30
0.0
  0
VERTEX
  8
0
 10
72.109947
 20
234.94104
 30
0.0
  0
VERTEX
  8
0
 10
71.454521
 20
234.94104
 30
0.0
  0
SEQEND
  8
0
  0
POLYLINE
  8
0
 62
     7
 66
     1
 10
0.0
 20
0.0
 30
0.0
 70
     1
 71
    11
  0
VERTEX
  8
0
 10
71.67601
 20
232.743546
 30
0.0
  0
VERTEX
  8
0
 10
71.67601
 20
233.612808
 30
0.0
  0
VERTEX
  8
0
 10
72.098648
 20
233.612808
 30
0.0
  0
VERTEX
  8
0
 10
72.259109
 20
233.58847
 30
0.0
  0
VERTEX
  8
0
 10
72.374374
 20
233.511978
 30
0.0
  0
VERTEX
  8
0
 10
72.442177
 20
233.379837
 30
0.0
  0
VERTEX
  8
0
 10
72.467041
 20
233.192078
 30
0.0
  0
VERTEX
  8
0
 10
72.444435
 20
232.997375
 30
0.0
  0
VERTEX
  8
0
 10
72.378891
 20
232.858292
 30
0.0
  0
VERTEX
  8
0
 10
72.270409
 20
232.771362
 30
0.0
  0
VERTEX
  8
0
 10
72.123505
 20
232.743546
 30
0.0
  0
SEQEND
  8
0
  0
POLYLINE
  8
0
 62
     7
 66
     1
 10
0.0
 20
0.0
 30
0.0
 70
     1
 71
    11
  0
VERTEX
  8
0
 10
71.67601
 20
233.890976
 30
0.0
  0
VERTEX
  8
0
 10
71.67601
 20
234.655914
 30
0.0
  0
VERTEX
  8
0
 10
72.080566
 20
234.655914
 30
0.0
  0
VERTEX
  8
0
 10
72.21843
 20
234.631577
 30
0.0
  0
VERTEX
  8
0
 10
72.315613
 20
234.562042
 30
0.0
  0
VERTEX
  8
0
 10
72.374374
 20
234.447296
 30
0.0
  0
VERTEX
  8
0
 10
72.394714
 20
234.283875
 30
0.0
  0
VERTEX
  8
0
 10
72.372116
 20
234.106552
 30
0.0
  0
VERTEX
  8
0
 10
72.311089
 20
233.981369
 30
0.0
  0
VERTEX
  8
0
 10
72.20713
 20
233.911835
 30
0.0
  0
VERTEX
  8
0
 10
72.062485
 20
233.890976
 30
0.0
  0
SEQEND
  8
0
  0
POLYLINE
  8
0
 62
     7
 66
     1
 10
0.0
 20
0.0
 30
0.0
 70
     1
 71
     6
  0
VERTEX
  8
0
 10
73.450699
 20
232.44104
 30
0.0
  0
VERTEX
  8
0
 10
74.483551
 20
232.44104
 30
0.0
  0
VERTEX
  8
0
 10
74.483551
 20
232.757446
 30
0.0
  0
VERTEX
  8
0
 10
73.674438
 20
232.757446
 30
0.0
  0
VERTEX
  8
0
 10
73.674438
 20
234.94104
 30
0.0
  0
VERTEX
  8
0
 10
73.450699
 20
234.94104
 30
0.0
  0
SEQEND
  8
0
  0
POLYLINE
  8
0
 62
     7
 66
     1
 10
0.0
 20
0.0
 30
0.0
 70
     1
 71
    12
  0
VERTEX
  8
0
 10
75.159836
 20
232.44104
 30
0.0
  0
VERTEX
  8
0
 10
76.337341
 20
232.44104
 30
0.0
  0
VERTEX
  8
0
 10
76.337341
 20
232.753967
 30
0.0
  0
VERTEX
  8
0
 10
75.379066
 20
232.753967
 30
0.0
  0
VERTEX
  8
0
 10
75.379066
 20
233.591949
 30
0.0
  0
VERTEX
  8
0
 10
76.246941
 20
233.591949
 30
0.0
  0
VERTEX
  8
0
 10
76.246941
 20
233.884018
 30
0.0
  0
VERTEX
  8
0
 10
75.379066
 20
233.884018
 30
0.0
  0
VERTEX
  8
0
 10
75.379066
 20
234.631577
 30
0.0
  0
VERTEX
  8
0
 10
76.31926
 20
234.631577
 30
0.0
  0
VERTEX
  8
0
 10
76.31926
 20
234.94104
 30
0.0
  0
VERTEX
  8
0
 10
75.159836
 20
234.94104
 30
0.0
  0
SEQEND
  8
0
  0
POLYLINE
  8
0
 62
     7
 66
     1
 10
0.0
 20
0.0
 30
0.0
 70
     1
 71
     8
  0
VERTEX
  8
0
 10
78.042488
 20
232.44104
 30
0.0
  0
VERTEX
  8
0
 10
78.27076
 20
232.44104
 30
0.0
  0
VERTEX
  8
0
 10
78.444786
 20
233.188599
 30
0.0
  0
VERTEX
  8
0
 10
79.084389
 20
233.188599
 30
0.0
  0
VERTEX
  8
0
 10
79.256149
 20
232.44104
 30
0.0
  0
VERTEX
  8
0
 10
79.49572
 20
232.44104
 30
0.0
  0
VERTEX
  8
0
 10
78.890022
 20
234.94104
 30
0.0
  0
VERTEX
  8
0
 10
78.645935
 20
234.94104
 30
0.0
  0
SEQEND
  8
0
  0
POLYLINE
  8
0
 62
     7
 66
     1
 10
0.0
 20
0.0
 30
0.0
 70
     1
 71
     3
  0
VERTEX
  8
0
 10
78.512589
 20
233.480682
 30
0.0
  0
VERTEX
  8
0
 10
78.767975
 20
234.582901
 30
0.0
  0
VERTEX
  8
0
 10
79.018845
 20
233.480682
 30
0.0
  0
SEQEND
  8
0
  0
POLYLINE
  8
0
 62
     7
 66
     1
 10
0.0
 20
0.0
 30
0.0
 70
     1
 71
    30
  0
VERTEX
  8
0
 10
80.162964
 20
234.94104
 30
0.0
  0
VERTEX
  8
0
 10
80.162964
 20
232.44104
 30
0.0
  0
VERTEX
  8
0
 10
80.382195
 20
232.44104
 30
0.0
  0
VERTEX
  8
0
 10
80.382195
 20
233.511978
 30
0.0
  0
VERTEX
  8
0
 10
80.739288
 20
233.511978
 30
0.0
  0
VERTEX
  8
0
 10
80.911057
 20
233.501541
 30
0.0
  0
VERTEX
  8
0
 10
81.017281
 20
233.449387
 30
0.0
  0
VERTEX
  8
0
 10
81.076042
 20
233.331161
 30
0.0
  0
VERTEX
  8
0
 10
81.100906
 20
233.112106
 30
0.0
  0
VERTEX
  8
0
 10
81.114464
 20
232.785263
 30
0.0
  0
VERTEX
  8
0
 10
81.125763
 20
232.587082
 30
0.0
  0
VERTEX
  8
0
 10
81.157402
 20
232.44104
 30
0.0
  0
VERTEX
  8
0
 10
81.412796
 20
232.44104
 30
0.0
  0
VERTEX
  8
0
 10
81.412796
 20
232.510574
 30
0.0
  0
VERTEX
  8
0
 10
81.358551
 20
232.61142
 30
0.0
  0
VERTEX
  8
0
 10
81.338211
 20
232.802658
 30
0.0
  0
VERTEX
  8
0
 10
81.320129
 20
233.212952
 30
0.0
  0
VERTEX
  8
0
 10
81.304306
 20
233.386795
 30
0.0
  0
VERTEX
  8
0
 10
81.274933
 20
233.5224
 30
0.0
  0
VERTEX
  8
0
 10
81.220688
 20
233.616287
 30
0.0
  0
VERTEX
  8
0
 10
81.134804
 20
233.678864
 30
0.0
  0
VERTEX
  8
0
 10
81.229729
 20
233.772751
 30
0.0
  0
VERTEX
  8
0
 10
81.299789
 20
233.901398
 30
0.0
  0
VERTEX
  8
0
 10
81.342728
 20
234.057861
 30
0.0
  0
VERTEX
  8
0
 10
81.358551
 20
234.2491
 30
0.0
  0
VERTEX
  8
0
 10
81.342728
 20
234.443817
 30
0.0
  0
VERTEX
  8
0
 10
81.304306
 20
234.614197
 30
0.0
  0
VERTEX
  8
0
 10
81.148361
 20
234.854111
 30
0.0
  0
VERTEX
  8
0
 10
80.983376
 20
234.927139
 30
0.0
  0
VERTEX
  8
0
 10
80.793533
 20
234.94104
 30
0.0
  0
SEQEND
  8
0
  0
POLYLINE
  8
0
 62
     7
 66
     1
 10
0.0
 20
0.0
 30
0.0
 70
     1
 71
    11
  0
VERTEX
  8
0
 10
80.379936
 20
234.648972
 30
0.0
  0
VERTEX
  8
0
 10
80.75737
 20
234.648972
 30
0.0
  0
VERTEX
  8
0
 10
80.917831
 20
234.631577
 30
0.0
  0
VERTEX
  8
0
 10
81.035362
 20
234.569
 30
0.0
  0
VERTEX
  8
0
 10
81.105423
 20
234.447296
 30
0.0
  0
VERTEX
  8
0
 10
81.13028
 20
234.242157
 30
0.0
  0
VERTEX
  8
0
 10
81.105423
 20
234.03006
 30
0.0
  0
VERTEX
  8
0
 10
81.037621
 20
233.894455
 30
0.0
  0
VERTEX
  8
0
 10
80.920097
 20
233.821426
 30
0.0
  0
VERTEX
  8
0
 10
80.75737
 20
233.800568
 30
0.0
  0
VERTEX
  8
0
 10
80.379936
 20
233.800568
 30
0.0
  0
SEQEND
  8
0
  0
POLYLINE
  8
0
 62
     7
 66
     1
 10
0.0
 20
0.0
 30
0.0
 70
     1
 71
    12
  0
VERTEX
  8
0
 10
82.163666
 20
232.44104
 30
0.0
  0
VERTEX
  8
0
 10
83.341164
 20
232.44104
 30
0.0
  0
VERTEX
  8
0
 10
83.341164
 20
232.753967
 30
0.0
  0
VERTEX
  8
0
 10
82.382889
 20
232.753967
 30
0.0
  0
VERTEX
  8
0
 10
82.382889
 20
233.591949
 30
0.0
  0
VERTEX
  8
0
 10
83.250763
 20
233.591949
 30
0.0
  0
VERTEX
  8
0
 10
83.250763
 20
233.884018
 30
0.0
  0
VERTEX
  8
0
 10
82.382889
 20
233.884018
 30
0.0
  0
VERTEX
  8
0
 10
82.382889
 20
234.631577
 30
0.0
  0
VERTEX
  8
0
 10
83.323082
 20
234.631577
 30
0.0
  0
VERTEX
  8
0
 10
83.323082
 20
234.94104
 30
0.0
  0
VERTEX
  8
0
 10
82.163666
 20
234.94104
 30
0.0
  0
SEQEND
  8
0
  0
POLYLINE
  8
0
 62
     7
 66
     1
 10
0.0
 20
0.0
 30
0.0
 70
     1
 71
     8
  0
VERTEX
  8
0
 10
83.927048
 20
232.44104
 30
0.0
  0
VERTEX
  8
0
 10
84.155319
 20
232.44104
 30
0.0
  0
VERTEX
  8
0
 10
84.329346
 20
233.188599
 30
0.0
  0
VERTEX
  8
0
 10
84.968948
 20
233.188599
 30
0.0
  0
VERTEX
  8
0
 10
85.140717
 20
232.44104
 30
0.0
  0
VERTEX
  8
0
 10
85.38028
 20
232.44104
 30
0.0
  0
VERTEX
  8
0
 10
84.774582
 20
234.94104
 30
0.0
  0
VERTEX
  8
0
 10
84.530487
 20
234.94104
 30
0.0
  0
SEQEND
  8
0
  0
POLYLINE
  8
0
 62
     7
 66
     1
 10
0.0
 20
0.0
 30
0.0
 70
     1
 71
     3
  0
VERTEX
  8
0
 10
84.397148
 20
233.480682
 30
0.0
  0
VERTEX
  8
0
 10
84.652534
 20
234.582901
 30
0.0
  0
VERTEX
  8
0
 10
84.903404
 20
233.480682
 30
0.0
  0
SEQEND
  8
0
  0
POLYLINE
  8
0
 62
     7
 66
     1
 10
0.0
 20
0.0
 30
0.0
 70
     1
 71
    32
  0
VERTEX
  8
0
 10
57.671139
 20
230.189301
 30
0.0
  0
VERTEX
  8
0
 10
57.682442
 20
229.890274
 30
0.0
  0
VERTEX
  8
0
 10
57.723122
 20
229.629501
 30
0.0
  0
VERTEX
  8
0
 10
57.788666
 20
229.403488
 30
0.0
  0
VERTEX
  8
0
 10
57.876808
 20
229.215729
 30
0.0
  0
VERTEX
  8
0
 10
57.987553
 20
229.066208
 30
0.0
  0
VERTEX
  8
0
 10
58.118637
 20
228.95842
 30
0.0
  0
VERTEX
  8
0
 10
58.270061
 20
228.895844
 30
0.0
  0
VERTEX
  8
0
 10
58.44183
 20
228.871506
 30
0.0
  0
VERTEX
  8
0
 10
58.611336
 20
228.895844
 30
0.0
  0
VERTEX
  8
0
 10
58.76276
 20
228.95842
 30
0.0
  0
VERTEX
  8
0
 10
58.893845
 20
229.066208
 30
0.0
  0
VERTEX
  8
0
 10
59.004589
 20
229.215729
 30
0.0
  0
VERTEX
  8
0
 10
59.092731
 20
229.403488
 30
0.0
  0
VERTEX
  8
0
 10
59.156013
 20
229.629501
 30
0.0
  0
VERTEX
  8
0
 10
59.194435
 20
229.890274
 30
0.0
  0
VERTEX
  8
0
 10
59.210258
 20
230.189301
 30
0.0
  0
VERTEX
  8
0
 10
59.196697
 20
230.484848
 30
0.0
  0
VERTEX
  8
0
 10
59.156013
 20
230.745636
 30
0.0
  0
VERTEX
  8
0
 10
59.090473
 20
230.971634
 30
0.0
  0
VERTEX
  8
0
 10
59.004589
 20
231.159393
 30
0.0
  0
VERTEX
  8
0
 10
58.893845
 20
231.308914
 30
0.0
  0
VERTEX
  8
0
 10
58.76276
 20
231.416702
 30
0.0
  0
VERTEX
  8
0
 10
58.611336
 20
231.482758
 30
0.0
  0
VERTEX
  8
0
 10
58.44183
 20
231.507111
 30
0.0
  0
VERTEX
  8
0
 10
58.270061
 20
231.482758
 30
0.0
  0
VERTEX
  8
0
 10
58.118637
 20
231.416702
 30
0.0
  0
VERTEX
  8
0
 10
57.987553
 20
231.308914
 30
0.0
  0
VERTEX
  8
0
 10
57.876808
 20
231.159393
 30
0.0
  0
VERTEX
  8
0
 10
57.788666
 20
230.971634
 30
0.0
  0
VERTEX
  8
0
 10
57.723122
 20
230.745636
 30
0.0
  0
VERTEX
  8
0
 10
57.682442
 20
230.484848
 30
0.0
  0
SEQEND
  8
0
  0
POLYLINE
  8
0
 62
     7
 66
     1
 10
0.0
 20
0.0
 30
0.0
 70
     1
 71
    16
  0
VERTEX
  8
0
 10
57.89941
 20
230.189301
 30
0.0
  0
VERTEX
  8
0
 10
57.93557
 20
230.620453
 30
0.0
  0
VERTEX
  8
0
 10
58.044056
 20
230.943817
 30
0.0
  0
VERTEX
  8
0
 10
58.21582
 20
231.142014
 30
0.0
  0
VERTEX
  8
0
 10
58.44183
 20
231.211548
 30
0.0
  0
VERTEX
  8
0
 10
58.665577
 20
231.142014
 30
0.0
  0
VERTEX
  8
0
 10
58.837345
 20
230.943817
 30
0.0
  0
VERTEX
  8
0
 10
58.943569
 20
230.620453
 30
0.0
  0
VERTEX
  8
0
 10
58.981991
 20
230.189301
 30
0.0
  0
VERTEX
  8
0
 10
58.943569
 20
229.754669
 30
0.0
  0
VERTEX
  8
0
 10
58.837345
 20
229.431305
 30
0.0
  0
VERTEX
  8
0
 10
58.665577
 20
229.233109
 30
0.0
  0
VERTEX
  8
0
 10
58.44183
 20
229.167053
 30
0.0
  0
VERTEX
  8
0
 10
58.21582
 20
229.233109
 30
0.0
  0
VERTEX
  8
0
 10
58.044056
 20
229.431305
 30
0.0
  0
VERTEX
  8
0
 10
57.93557
 20
229.754669
 30
0.0
  0
SEQEND
  8
0
  0
POLYLINE
  8
0
 62
     7
 66
     1
 10
0.0
 20
0.0
 30
0.0
 70
     1
 71
    12
  0
VERTEX
  8
0
 10
59.985989
 20
228.94104
 30
0.0
  0
VERTEX
  8
0
 10
60.196175
 20
228.94104
 30
0.0
  0
VERTEX
  8
0
 10
60.196175
 20
230.968155
 30
0.0
  0
VERTEX
  8
0
 10
60.257198
 20
230.783875
 30
0.0
  0
VERTEX
  8
0
 10
61.032406
 20
228.94104
 30
0.0
  0
VERTEX
  8
0
 10
61.271976
 20
228.94104
 30
0.0
  0
VERTEX
  8
0
 10
61.271976
 20
231.44104
 30
0.0
  0
VERTEX
  8
0
 10
61.061787
 20
231.44104
 30
0.0
  0
VERTEX
  8
0
 10
61.061787
 20
229.413925
 30
0.0
  0
VERTEX
  8
0
 10
60.987206
 20
229.626022
 30
0.0
  0
VERTEX
  8
0
 10
60.227818
 20
231.44104
 30
0.0
  0
VERTEX
  8
0
 10
59.985989
 20
231.44104
 30
0.0
  0
SEQEND
  8
0
  0
POLYLINE
  8
0
 62
     7
 66
     1
 10
0.0
 20
0.0
 30
0.0
 70
     1
 71
     6
  0
VERTEX
  8
0
 10
62.117767
 20
228.94104
 30
0.0
  0
VERTEX
  8
0
 10
63.150627
 20
228.94104
 30
0.0
  0
VERTEX
  8
0
 10
63.150627
 20
229.257446
 30
0.0
  0
VERTEX
  8
0
 10
62.341515
 20
229.257446
 30
0.0
  0
VERTEX
  8
0
 10
62.341515
 20
231.44104
 30
0.0
  0
VERTEX
  8
0
 10
62.117767
 20
231.44104
 30
0.0
  0
SEQEND
  8
0
  0
POLYLINE
  8
0
 62
     7
 66
     1
 10
0.0
 20
0.0
 30
0.0
 70
     1
 71
     9
  0
VERTEX
  8
0
 10
64.457474
 20
228.94104
 30
0.0
  0
VERTEX
  8
0
 10
64.457474
 20
229.966766
 30
0.0
  0
VERTEX
  8
0
 10
65.036057
 20
231.44104
 30
0.0
  0
VERTEX
  8
0
 10
64.776146
 20
231.44104
 30
0.0
  0
VERTEX
  8
0
 10
64.344475
 20
230.25885
 30
0.0
  0
VERTEX
  8
0
 10
63.910534
 20
231.44104
 30
0.0
  0
VERTEX
  8
0
 10
63.632545
 20
231.44104
 30
0.0
  0
VERTEX
  8
0
 10
64.235985
 20
229.942429
 30
0.0
  0
VERTEX
  8
0
 10
64.235985
 20
228.94104
 30
0.0
  0
SEQEND
  8
0
  0
POLYLINE
  8
0
 62
     7
 66
     1
 10
0.0
 20
0.0
 30
0.0
 70
     1
 71
    10
  0
VERTEX
  8
0
 10
66.809006
 20
228.94104
 30
0.0
  0
VERTEX
  8
0
 10
67.030495
 20
228.94104
 30
0.0
  0
VERTEX
  8
0
 10
67.030495
 20
230.071075
 30
0.0
  0
VERTEX
  8
0
 10
67.789879
 20
230.071075
 30
0.0
  0
VERTEX
  8
0
 10
67.789879
 20
230.37706
 30
0.0
  0
VERTEX
  8
0
 10
67.030495
 20
230.37706
 30
0.0
  0
VERTEX
  8
0
 10
67.030495
 20
231.128113
 30
0.0
  0
VERTEX
  8
0
 10
67.900627
 20
231.128113
 30
0.0
  0
VERTEX
  8
0
 10
67.900627
 20
231.44104
 30
0.0
  0
VERTEX
  8
0
 10
66.809006
 20
231.44104
 30
0.0
  0
SEQEND
  8
0
  0
POLYLINE
  8
0
 62
     7
 66
     1
 10
0.0
 20
0.0
 30
0.0
 70
     1
 71
    32
  0
VERTEX
  8
0
 10
68.556572
 20
230.189301
 30
0.0
  0
VERTEX
  8
0
 10
68.567871
 20
229.890274
 30
0.0
  0
VERTEX
  8
0
 10
68.608551
 20
229.629501
 30
0.0
  0
VERTEX
  8
0
 10
68.674095
 20
229.403488
 30
0.0
  0
VERTEX
  8
0
 10
68.762238
 20
229.215729
 30
0.0
  0
VERTEX
  8
0
 10
68.872986
 20
229.066208
 30
0.0
  0
VERTEX
  8
0
 10
69.004066
 20
228.95842
 30
0.0
  0
VERTEX
  8
0
 10
69.155495
 20
228.895844
 30
0.0
  0
VERTEX
  8
0
 10
69.327263
 20
228.871506
 30
0.0
  0
VERTEX
  8
0
 10
69.496765
 20
228.895844
 30
0.0
  0
VERTEX
  8
0
 10
69.648193
 20
228.95842
 30
0.0
  0
VERTEX
  8
0
 10
69.779274
 20
229.066208
 30
0.0
  0
VERTEX
  8
0
 10
69.890022
 20
229.215729
 30
0.0
  0
VERTEX
  8
0
 10
69.978165
 20
229.403488
 30
0.0
  0
VERTEX
  8
0
 10
70.041443
 20
229.629501
 30
0.0
  0
VERTEX
  8
0
 10
70.079865
 20
229.890274
 30
0.0
  0
VERTEX
  8
0
 10
70.095688
 20
230.189301
 30
0.0
  0
VERTEX
  8
0
 10
70.08213
 20
230.484848
 30
0.0
  0
VERTEX
  8
0
 10
70.041443
 20
230.745636
 30
0.0
  0
VERTEX
  8
0
 10
69.975906
 20
230.971634
 30
0.0
  0
VERTEX
  8
0
 10
69.890022
 20
231.159393
 30
0.0
  0
VERTEX
  8
0
 10
69.779274
 20
231.308914
 30
0.0
  0
VERTEX
  8
0
 10
69.648193
 20
231.416702
 30
0.0
  0
VERTEX
  8
0
 10
69.496765
 20
231.482758
 30
0.0
  0
VERTEX
  8
0
 10
69.327263
 20
231.507111
 30
0.0
  0
VERTEX
  8
0
 10
69.155495
 20
231.482758
 30
0.0
  0
VERTEX
  8
0
 10
69.004066
 20
231.416702
 30
0.0
  0
VERTEX
  8
0
 10
68.872986
 20
231.308914
 30
0.0
  0
VERTEX
  8
0
 10
68.762238
 20
231.159393
 30
0.0
  0
VERTEX
  8
0
 10
68.674095
 20
230.971634
 30
0.0
  0
VERTEX
  8
0
 10
68.608551
 20
230.745636
 30
0.0
  0
VERTEX
  8
0
 10
68.567871
 20
230.484848
 30
0.0
  0
SEQEND
  8
0
  0
POLYLINE
  8
0
 62
     7
 66
     1
 10
0.0
 20
0.0
 30
0.0
 70
     1
 71
    16
  0
VERTEX
  8
0
 10
68.784843
 20
230.189301
 30
0.0
  0
VERTEX
  8
0
 10
68.820999
 20
230.620453
 30
0.0
  0
VERTEX
  8
0
 10
68.929489
 20
230.943817
 30
0.0
  0
VERTEX
  8
0
 10
69.10125
 20
231.142014
 30
0.0
  0
VERTEX
  8
0
 10
69.327263
 20
231.211548
 30
0.0
  0
VERTEX
  8
0
 10
69.55101
 20
231.142014
 30
0.0
  0
VERTEX
  8
0
 10
69.722778
 20
230.943817
 30
0.0
  0
VERTEX
  8
0
 10
69.828995
 20
230.620453
 30
0.0
  0
VERTEX
  8
0
 10
69.867416
 20
230.189301
 30
0.0
  0
VERTEX
  8
0
 10
69.828995
 20
229.754669
 30
0.0
  0
VERTEX
  8
0
 10
69.722778
 20
229.431305
 30
0.0
  0
VERTEX
  8
0
 10
69.55101
 20
229.233109
 30
0.0
  0
VERTEX
  8
0
 10
69.327263
 20
229.167053
 30
0.0
  0
VERTEX
  8
0
 10
69.10125
 20
229.233109
 30
0.0
  0
VERTEX
  8
0
 10
68.929489
 20
229.431305
 30
0.0
  0
VERTEX
  8
0
 10
68.820999
 20
229.754669
 30
0.0
  0
SEQEND
  8
0
  0
POLYLINE
  8
0
 62
     7
 66
     1
 10
0.0
 20
0.0
 30
0.0
 70
     1
 71
    30
  0
VERTEX
  8
0
 10
70.87368
 20
231.44104
 30
0.0
  0
VERTEX
  8
0
 10
70.87368
 20
228.94104
 30
0.0
  0
VERTEX
  8
0
 10
71.092911
 20
228.94104
 30
0.0
  0
VERTEX
  8
0
 10
71.092911
 20
230.011978
 30
0.0
  0
VERTEX
  8
0
 10
71.449997
 20
230.011978
 30
0.0
  0
VERTEX
  8
0
 10
71.621765
 20
230.001541
 30
0.0
  0
VERTEX
  8
0
 10
71.727989
 20
229.949387
 30
0.0
  0
VERTEX
  8
0
 10
71.786751
 20
229.831161
 30
0.0
  0
VERTEX
  8
0
 10
71.811615
 20
229.612106
 30
0.0
  0
VERTEX
  8
0
 10
71.825172
 20
229.285263
 30
0.0
  0
VERTEX
  8
0
 10
71.836472
 20
229.087082
 30
0.0
  0
VERTEX
  8
0
 10
71.868118
 20
228.94104
 30
0.0
  0
VERTEX
  8
0
 10
72.123505
 20
228.94104
 30
0.0
  0
VERTEX
  8
0
 10
72.123505
 20
229.010574
 30
0.0
  0
VERTEX
  8
0
 10
72.06926
 20
229.11142
 30
0.0
  0
VERTEX
  8
0
 10
72.04892
 20
229.302658
 30
0.0
  0
VERTEX
  8
0
 10
72.030838
 20
229.712952
 30
0.0
  0
VERTEX
  8
0
 10
72.015022
 20
229.886795
 30
0.0
  0
VERTEX
  8
0
 10
71.985641
 20
230.0224
 30
0.0
  0
VERTEX
  8
0
 10
71.931396
 20
230.116287
 30
0.0
  0
VERTEX
  8
0
 10
71.845512
 20
230.178864
 30
0.0
  0
VERTEX
  8
0
 10
71.940437
 20
230.272751
 30
0.0
  0
VERTEX
  8
0
 10
72.010498
 20
230.401398
 30
0.0
  0
VERTEX
  8
0
 10
72.053444
 20
230.557861
 30
0.0
  0
VERTEX
  8
0
 10
72.06926
 20
230.7491
 30
0.0
  0
VERTEX
  8
0
 10
72.053444
 20
230.943817
 30
0.0
  0
VERTEX
  8
0
 10
72.015022
 20
231.114197
 30
0.0
  0
VERTEX
  8
0
 10
71.859077
 20
231.354111
 30
0.0
  0
VERTEX
  8
0
 10
71.694092
 20
231.427139
 30
0.0
  0
VERTEX
  8
0
 10
71.504242
 20
231.44104
 30
0.0
  0
SEQEND
  8
0
  0
POLYLINE
  8
0
 62
     7
 66
     1
 10
0.0
 20
0.0
 30
0.0
 70
     1
 71
    11
  0
VERTEX
  8
0
 10
71.090645
 20
231.148972
 30
0.0
  0
VERTEX
  8
0
 10
71.468079
 20
231.148972
 30
0.0
  0
VERTEX
  8
0
 10
71.628548
 20
231.131577
 30
0.0
  0
VERTEX
  8
0
 10
71.746071
 20
231.069
 30
0.0
  0
VERTEX
  8
0
 10
71.816132
 20
230.947296
 30
0.0
  0
VERTEX
  8
0
 10
71.840996
 20
230.742157
 30
0.0
  0
VERTEX
  8
0
 10
71.816132
 20
230.53006
 30
0.0
  0
VERTEX
  8
0
 10
71.748329
 20
230.394455
 30
0.0
  0
VERTEX
  8
0
 10
71.630806
 20
230.321426
 30
0.0
  0
VERTEX
  8
0
 10
71.468079
 20
230.300568
 30
0.0
  0
VERTEX
  8
0
 10
71.090645
 20
230.300568
 30
0.0
  0
SEQEND
  8
0
  0
POLYLINE
  8
0
 62
     7
 66
     1
 10
0.0
 20
0.0
 30
0.0
 70
     1
 71
     4
  0
VERTEX
  8
0
 10
73.998154
 20
228.94104
 30
0.0
  0
VERTEX
  8
0
 10
74.219643
 20
228.94104
 30
0.0
  0
VERTEX
  8
0
 10
74.219643
 20
231.44104
 30
0.0
  0
VERTEX
  8
0
 10
73.998154
 20
231.44104
 30
0.0
  0
SEQEND
  8
0
  0
POLYLINE
  8
0
 62
     7
 66
     1
 10
0.0
 20
0.0
 30
0.0
 70
     1
 71
    12
  0
VERTEX
  8
0
 10
75.07222
 20
228.94104
 30
0.0
  0
VERTEX
  8
0
 10
75.28241
 20
228.94104
 30
0.0
  0
VERTEX
  8
0
 10
75.28241
 20
230.968155
 30
0.0
  0
VERTEX
  8
0
 10
75.34343
 20
230.783875
 30
0.0
  0
VERTEX
  8
0
 10
76.118637
 20
228.94104
 30
0.0
  0
VERTEX
  8
0
 10
76.358208
 20
228.94104
 30
0.0
  0
VERTEX
  8
0
 10
76.358208
 20
231.44104
 30
0.0
  0
VERTEX
  8
0
 10
76.148018
 20
231.44104
 30
0.0
  0
VERTEX
  8
0
 10
76.148018
 20
229.413925
 30
0.0
  0
VERTEX
  8
0
 10
76.073433
 20
229.626022
 30
0.0
  0
VERTEX
  8
0
 10
75.314049
 20
231.44104
 30
0.0
  0
VERTEX
  8
0
 10
75.07222
 20
231.44104
 30
0.0
  0
SEQEND
  8
0
  0
POLYLINE
  8
0
 62
     7
 66
     1
 10
0.0
 20
0.0
 30
0.0
 70
     1
 71
    10
  0
VERTEX
  8
0
 10
77.203995
 20
228.94104
 30
0.0
  0
VERTEX
  8
0
 10
77.425491
 20
228.94104
 30
0.0
  0
VERTEX
  8
0
 10
77.425491
 20
230.071075
 30
0.0
  0
VERTEX
  8
0
 10
78.184875
 20
230.071075
 30
0.0
  0
VERTEX
  8
0
 10
78.184875
 20
230.37706
 30
0.0
  0
VERTEX
  8
0
 10
77.425491
 20
230.37706
 30
0.0
  0
VERTEX
  8
0
 10
77.425491
 20
231.128113
 30
0.0
  0
VERTEX
  8
0
 10
78.295616
 20
231.128113
 30
0.0
  0
VERTEX
  8
0
 10
78.295616
 20
231.44104
 30
0.0
  0
VERTEX
  8
0
 10
77.203995
 20
231.44104
 30
0.0
  0
SEQEND
  8
0
  0
POLYLINE
  8
0
 62
     7
 66
     1
 10
0.0
 20
0.0
 30
0.0
 70
     1
 71
    32
  0
VERTEX
  8
0
 10
78.951569
 20
230.189301
 30
0.0
  0
VERTEX
  8
0
 10
78.962868
 20
229.890274
 30
0.0
  0
VERTEX
  8
0
 10
79.003548
 20
229.629501
 30
0.0
  0
VERTEX
  8
0
 10
79.069092
 20
229.403488
 30
0.0
  0
VERTEX
  8
0
 10
79.157234
 20
229.215729
 30
0.0
  0
VERTEX
  8
0
 10
79.267975
 20
229.066208
 30
0.0
  0
VERTEX
  8
0
 10
79.399063
 20
228.95842
 30
0.0
  0
VERTEX
  8
0
 10
79.550491
 20
228.895844
 30
0.0
  0
VERTEX
  8
0
 10
79.722252
 20
228.871506
 30
0.0
  0
VERTEX
  8
0
 10
79.891762
 20
228.895844
 30
0.0
  0
VERTEX
  8
0
 10
80.043182
 20
228.95842
 30
0.0
  0
VERTEX
  8
0
 10
80.174271
 20
229.066208
 30
0.0
  0
VERTEX
  8
0
 10
80.285011
 20
229.215729
 30
0.0
  0
VERTEX
  8
0
 10
80.373154
 20
229.403488
 30
0.0
  0
VERTEX
  8
0
 10
80.43644
 20
229.629501
 30
0.0
  0
VERTEX
  8
0
 10
80.474861
 20
229.890274
 30
0.0
  0
VERTEX
  8
0
 10
80.490677
 20
230.189301
 30
0.0
  0
VERTEX
  8
0
 10
80.477119
 20
230.484848
 30
0.0
  0
VERTEX
  8
0
 10
80.43644
 20
230.745636
 30
0.0
  0
VERTEX
  8
0
 10
80.370895
 20
230.971634
 30
0.0
  0
VERTEX
  8
0
 10
80.285011
 20
231.159393
 30
0.0
  0
VERTEX
  8
0
 10
80.174271
 20
231.308914
 30
0.0
  0
VERTEX
  8
0
 10
80.043182
 20
231.416702
 30
0.0
  0
VERTEX
  8
0
 10
79.891762
 20
231.482758
 30
0.0
  0
VERTEX
  8
0
 10
79.722252
 20
231.507111
 30
0.0
  0
VERTEX
  8
0
 10
79.550491
 20
231.482758
 30
0.0
  0
VERTEX
  8
0
 10
79.399063
 20
231.416702
 30
0.0
  0
VERTEX
  8
0
 10
79.267975
 20
231.308914
 30
0.0
  0
VERTEX
  8
0
 10
79.157234
 20
231.159393
 30
0.0
  0
VERTEX
  8
0
 10
79.069092
 20
230.971634
 30
0.0
  0
VERTEX
  8
0
 10
79.003548
 20
230.745636
 30
0.0
  0
VERTEX
  8
0
 10
78.962868
 20
230.484848
 30
0.0
  0
SEQEND
  8
0
  0
POLYLINE
  8
0
 62
     7
 66
     1
 10
0.0
 20
0.0
 30
0.0
 70
     1
 71
    16
  0
VERTEX
  8
0
 10
79.179832
 20
230.189301
 30
0.0
  0
VERTEX
  8
0
 10
79.215996
 20
230.620453
 30
0.0
  0
VERTEX
  8
0
 10
79.324478
 20
230.943817
 30
0.0
  0
VERTEX
  8
0
 10
79.496246
 20
231.142014
 30
0.0
  0
VERTEX
  8
0
 10
79.722252
 20
231.211548
 30
0.0
  0
VERTEX
  8
0
 10
79.945999
 20
231.142014
 30
0.0
  0
VERTEX
  8
0
 10
80.117767
 20
230.943817
 30
0.0
  0
VERTEX
  8
0
 10
80.223991
 20
230.620453
 30
0.0
  0
VERTEX
  8
0
 10
80.262413
 20
230.189301
 30
0.0
  0
VERTEX
  8
0
 10
80.223991
 20
229.754669
 30
0.0
  0
VERTEX
  8
0
 10
80.117767
 20
229.431305
 30
0.0
  0
VERTEX
  8
0
 10
79.945999
 20
229.233109
 30
0.0
  0
VERTEX
  8
0
 10
79.722252
 20
229.167053
 30
0.0
  0
VERTEX
  8
0
 10
79.496246
 20
229.233109
 30
0.0
  0
VERTEX
  8
0
 10
79.324478
 20
229.431305
 30
0.0
  0
VERTEX
  8
0
 10
79.215996
 20
229.754669
 30
0.0
  0
SEQEND
  8
0
  0
POLYLINE
  8
0
 62
     7
 66
     1
 10
0.0
 20
0.0
 30
0.0
 70
     1
 71
    30
  0
VERTEX
  8
0
 10
81.268677
 20
231.44104
 30
0.0
  0
VERTEX
  8
0
 10
81.268677
 20
228.94104
 30
0.0
  0
VERTEX
  8
0
 10
81.4879
 20
228.94104
 30
0.0
  0
VERTEX
  8
0
 10
81.4879
 20
230.011978
 30
0.0
  0
VERTEX
  8
0
 10
81.844994
 20
230.011978
 30
0.0
  0
VERTEX
  8
0
 10
82.016762
 20
230.001541
 30
0.0
  0
VERTEX
  8
0
 10
82.122986
 20
229.949387
 30
0.0
  0
VERTEX
  8
0
 10
82.181747
 20
229.831161
 30
0.0
  0
VERTEX
  8
0
 10
82.206604
 20
229.612106
 30
0.0
  0
VERTEX
  8
0
 10
82.220169
 20
229.285263
 30
0.0
  0
VERTEX
  8
0
 10
82.231468
 20
229.087082
 30
0.0
  0
VERTEX
  8
0
 10
82.263107
 20
228.94104
 30
0.0
  0
VERTEX
  8
0
 10
82.518501
 20
228.94104
 30
0.0
  0
VERTEX
  8
0
 10
82.518501
 20
229.010574
 30
0.0
  0
VERTEX
  8
0
 10
82.464256
 20
229.11142
 30
0.0
  0
VERTEX
  8
0
 10
82.443916
 20
229.302658
 30
0.0
  0
VERTEX
  8
0
 10
82.425835
 20
229.712952
 30
0.0
  0
VERTEX
  8
0
 10
82.410019
 20
229.886795
 30
0.0
  0
VERTEX
  8
0
 10
82.38063
 20
230.0224
 30
0.0
  0
VERTEX
  8
0
 10
82.326393
 20
230.116287
 30
0.0
  0
VERTEX
  8
0
 10
82.240509
 20
230.178864
 30
0.0
  0
VERTEX
  8
0
 10
82.335434
 20
230.272751
 30
0.0
  0
VERTEX
  8
0
 10
82.405495
 20
230.401398
 30
0.0
  0
VERTEX
  8
0
 10
82.448441
 20
230.557861
 30
0.0
  0
VERTEX
  8
0
 10
82.464256
 20
230.7491
 30
0.0
  0
VERTEX
  8
0
 10
82.448441
 20
230.943817
 30
0.0
  0
VERTEX
  8
0
 10
82.410019
 20
231.114197
 30
0.0
  0
VERTEX
  8
0
 10
82.254066
 20
231.354111
 30
0.0
  0
VERTEX
  8
0
 10
82.089081
 20
231.427139
 30
0.0
  0
VERTEX
  8
0
 10
81.899239
 20
231.44104
 30
0.0
  0
SEQEND
  8
0
  0
POLYLINE
  8
0
 62
     7
 66
     1
 10
0.0
 20
0.0
 30
0.0
 70
     1
 71
    11
  0
VERTEX
  8
0
 10
81.485641
 20
231.148972
 30
0.0
  0
VERTEX
  8
0
 10
81.863075
 20
231.148972
 30
0.0
  0
VERTEX
  8
0
 10
82.023544
 20
231.131577
 30
0.0
  0
VERTEX
  8
0
 10
82.141068
 20
231.069
 30
0.0
  0
VERTEX
  8
0
 10
82.211128
 20
230.947296
 30
0.0
  0
VERTEX
  8
0
 10
82.235992
 20
230.742157
 30
0.0
  0
VERTEX
  8
0
 10
82.211128
 20
230.53006
 30
0.0
  0
VERTEX
  8
0
 10
82.143326
 20
230.394455
 30
0.0
  0
VERTEX
  8
0
 10
82.025803
 20
230.321426
 30
0.0
  0
VERTEX
  8
0
 10
81.863075
 20
230.300568
 30
0.0
  0
VERTEX
  8
0
 10
81.485641
 20
230.300568
 30
0.0
  0
SEQEND
  8
0
  0
POLYLINE
  8
0
 62
     7
 66
     1
 10
0.0
 20
0.0
 30
0.0
 70
     1
 71
    17
  0
VERTEX
  8
0
 10
83.472778
 20
231.072479
 30
0.0
  0
VERTEX
  8
0
 10
83.508934
 20
230.853424
 30
0.0
  0
VERTEX
  8
0
 10
83.918015
 20
228.94104
 30
0.0
  0
VERTEX
  8
0
 10
84.125938
 20
228.94104
 30
0.0
  0
VERTEX
  8
0
 10
84.544052
 20
230.853424
 30
0.0
  0
VERTEX
  8
0
 10
84.582474
 20
231.072479
 30
0.0
  0
VERTEX
  8
0
 10
84.582474
 20
228.94104
 30
0.0
  0
VERTEX
  8
0
 10
84.79718
 20
228.94104
 30
0.0
  0
VERTEX
  8
0
 10
84.79718
 20
231.44104
 30
0.0
  0
VERTEX
  8
0
 10
84.480774
 20
231.44104
 30
0.0
  0
VERTEX
  8
0
 10
84.062653
 20
229.528656
 30
0.0
  0
VERTEX
  8
0
 10
84.026497
 20
229.323517
 30
0.0
  0
VERTEX
  8
0
 10
83.988075
 20
229.528656
 30
0.0
  0
VERTEX
  8
0
 10
83.585777
 20
231.44104
 30
0.0
  0
VERTEX
  8
0
 10
83.269363
 20
231.44104
 30
0.0
  0
VERTEX
  8
0
 10
83.269363
 20
228.94104
 30
0.0
  0
VERTEX
  8
0
 10
83.472778
 20
228.94104
 30
0.0
  0
SEQEND
  8
0
  0
POLYLINE
  8
0
 62
     7
 66
     1
 10
0.0
 20
0.0
 30
0.0
 70
     1
 71
     8
  0
VERTEX
  8
0
 10
85.464432
 20
228.94104
 30
0.0
  0
VERTEX
  8
0
 10
85.692703
 20
228.94104
 30
0.0
  0
VERTEX
  8
0
 10
85.86673
 20
229.688599
 30
0.0
  0
VERTEX
  8
0
 10
86.506332
 20
229.688599
 30
0.0
  0
VERTEX
  8
0
 10
86.678093
 20
228.94104
 30
0.0
  0
VERTEX
  8
0
 10
86.917664
 20
228.94104
 30
0.0
  0
VERTEX
  8
0
 10
86.311966
 20
231.44104
 30
0.0
  0
VERTEX
  8
0
 10
86.067871
 20
231.44104
 30
0.0
  0
SEQEND
  8
0
  0
POLYLINE
  8
0
 62
     7
 66
     1
 10
0.0
 20
0.0
 30
0.0
 70
     1
 71
     3
  0
VERTEX
  8
0
 10
85.934525
 20
229.980682
 30
0.0
  0
VERTEX
  8
0
 10
86.189919
 20
231.082901
 30
0.0
  0
VERTEX
  8
0
 10
86.440788
 20
229.980682
 30
0.0
  0
SEQEND
  8
0
  0
POLYLINE
  8
0
 62
     7
 66
     1
 10
0.0
 20
0.0
 30
0.0
 70
     1
 71
     8
  0
VERTEX
  8
0
 10
87.94426
 20
228.94104
 30
0.0
  0
VERTEX
  8
0
 10
88.165749
 20
228.94104
 30
0.0
  0
VERTEX
  8
0
 10
88.165749
 20
231.138535
 30
0.0
  0
VERTEX
  8
0
 10
88.678787
 20
231.138535
 30
0.0
  0
VERTEX
  8
0
 10
88.678787
 20
231.44104
 30
0.0
  0
VERTEX
  8
0
 10
87.431221
 20
231.44104
 30
0.0
  0
VERTEX
  8
0
 10
87.431221
 20
231.138535
 30
0.0
  0
VERTEX
  8
0
 10
87.94426
 20
231.138535
 30
0.0
  0
SEQEND
  8
0
  0
POLYLINE
  8
0
 62
     7
 66
     1
 10
0.0
 20
0.0
 30
0.0
 70
     1
 71
     4
  0
VERTEX
  8
0
 10
89.379936
 20
228.94104
 30
0.0
  0
VERTEX
  8
0
 10
89.601425
 20
228.94104
 30
0.0
  0
VERTEX
  8
0
 10
89.601425
 20
231.44104
 30
0.0
  0
VERTEX
  8
0
 10
89.379936
 20
231.44104
 30
0.0
  0
SEQEND
  8
0
  0
POLYLINE
  8
0
 62
     7
 66
     1
 10
0.0
 20
0.0
 30
0.0
 70
     1
 71
    32
  0
VERTEX
  8
0
 10
90.3862
 20
230.189301
 30
0.0
  0
VERTEX
  8
0
 10
90.397499
 20
229.890274
 30
0.0
  0
VERTEX
  8
0
 10
90.438179
 20
229.629501
 30
0.0
  0
VERTEX
  8
0
 10
90.503723
 20
229.403488
 30
0.0
  0
VERTEX
  8
0
 10
90.591866
 20
229.215729
 30
0.0
  0
VERTEX
  8
0
 10
90.702606
 20
229.066208
 30
0.0
  0
VERTEX
  8
0
 10
90.833694
 20
228.95842
 30
0.0
  0
VERTEX
  8
0
 10
90.985123
 20
228.895844
 30
0.0
  0
VERTEX
  8
0
 10
91.156891
 20
228.871506
 30
0.0
  0
VERTEX
  8
0
 10
91.326393
 20
228.895844
 30
0.0
  0
VERTEX
  8
0
 10
91.477814
 20
228.95842
 30
0.0
  0
VERTEX
  8
0
 10
91.608902
 20
229.066208
 30
0.0
  0
VERTEX
  8
0
 10
91.71965
 20
229.215729
 30
0.0
  0
VERTEX
  8
0
 10
91.807785
 20
229.403488
 30
0.0
  0
VERTEX
  8
0
 10
91.871071
 20
229.629501
 30
0.0
  0
VERTEX
  8
0
 10
91.909492
 20
229.890274
 30
0.0
  0
VERTEX
  8
0
 10
91.925316
 20
230.189301
 30
0.0
  0
VERTEX
  8
0
 10
91.911758
 20
230.484848
 30
0.0
  0
VERTEX
  8
0
 10
91.871071
 20
230.745636
 30
0.0
  0
VERTEX
  8
0
 10
91.805527
 20
230.971634
 30
0.0
  0
VERTEX
  8
0
 10
91.71965
 20
231.159393
 30
0.0
  0
VERTEX
  8
0
 10
91.608902
 20
231.308914
 30
0.0
  0
VERTEX
  8
0
 10
91.477814
 20
231.416702
 30
0.0
  0
VERTEX
  8
0
 10
91.326393
 20
231.482758
 30
0.0
  0
VERTEX
  8
0
 10
91.156891
 20
231.507111
 30
0.0
  0
VERTEX
  8
0
 10
90.985123
 20
231.482758
 30
0.0
  0
VERTEX
  8
0
 10
90.833694
 20
231.416702
 30
0.0
  0
VERTEX
  8
0
 10
90.702606
 20
231.308914
 30
0.0
  0
VERTEX
  8
0
 10
90.591866
 20
231.159393
 30
0.0
  0
VERTEX
  8
0
 10
90.503723
 20
230.971634
 30
0.0
  0
VERTEX
  8
0
 10
90.438179
 20
230.745636
 30
0.0
  0
VERTEX
  8
0
 10
90.397499
 20
230.484848
 30
0.0
  0
SEQEND
  8
0
  0
POLYLINE
  8
0
 62
     7
 66
     1
 10
0.0
 20
0.0
 30
0.0
 70
     1
 71
    16
  0
VERTEX
  8
0
 10
90.614471
 20
230.189301
 30
0.0
  0
VERTEX
  8
0
 10
90.650627
 20
230.620453
 30
0.0
  0
VERTEX
  8
0
 10
90.759109
 20
230.943817
 30
0.0
  0
VERTEX
  8
0
 10
90.930878
 20
231.142014
 30
0.0
  0
VERTEX
  8
0
 10
91.156891
 20
231.211548
 30
0.0
  0
VERTEX
  8
0
 10
91.38063
 20
231.142014
 30
0.0
  0
VERTEX
  8
0
 10
91.552399
 20
230.943817
 30
0.0
  0
VERTEX
  8
0
 10
91.65863
 20
230.620453
 30
0.0
  0
VERTEX
  8
0
 10
91.697052
 20
230.189301
 30
0.0
  0
VERTEX
  8
0
 10
91.65863
 20
229.754669
 30
0.0
  0
VERTEX
  8
0
 10
91.552399
 20
229.431305
 30
0.0
  0
VERTEX
  8
0
 10
91.38063
 20
229.233109
 30
0.0
  0
VERTEX
  8
0
 10
91.156891
 20
229.167053
 30
0.0
  0
VERTEX
  8
0
 10
90.930878
 20
229.233109
 30
0.0
  0
VERTEX
  8
0
 10
90.759109
 20
229.431305
 30
0.0
  0
VERTEX
  8
0
 10
90.650627
 20
229.754669
 30
0.0
  0
SEQEND
  8
0
  0
POLYLINE
  8
0
 62
     7
 66
     1
 10
0.0
 20
0.0
 30
0.0
 70
     1
 71
    12
  0
VERTEX
  8
0
 10
92.70105
 20
228.94104
 30
0.0
  0
VERTEX
  8
0
 10
92.911232
 20
228.94104
 30
0.0
  0
VERTEX
  8
0
 10
92.911232
 20
230.968155
 30
0.0
  0
VERTEX
  8
0
 10
92.97226
 20
230.783875
 30
0.0
  0
VERTEX
  8
0
 10
93.747467
 20
228.94104
 30
0.0
  0
VERTEX
  8
0
 10
93.98703
 20
228.94104
 30
0.0
  0
VERTEX
  8
0
 10
93.98703
 20
231.44104
 30
0.0
  0
VERTEX
  8
0
 10
93.77684
 20
231.44104
 30
0.0
  0
VERTEX
  8
0
 10
93.77684
 20
229.413925
 30
0.0
  0
VERTEX
  8
0
 10
93.702263
 20
229.626022
 30
0.0
  0
VERTEX
  8
0
 10
92.942871
 20
231.44104
 30
0.0
  0
VERTEX
  8
0
 10
92.70105
 20
231.44104
 30
0.0
  0
SEQEND
  8
0
  0
LINE
  8
0
 62
     7
 10
71.981392
 20
116.620453
 30
0.0
 11
77.067177
 21
116.620453
 31
0.0
210
0.0
220
0.0
230
1.0
  0
LINE
  8
0
 62
     7
 10
77.067177
 20
123.396439
 30
0.0
 11
77.067177
 21
116.620453
 31
0.0
210
0.0
220
0.0
230
1.0
  0
LINE
  8
0
 62
     7
 10
77.467178
 20
123.620453
 30
0.0
 11
77.067177
 21
123.396439
 31
0.0
210
0.0
220
0.0
230
1.0
  0
LINE
  8
0
 62
     7
 10
77.467178
 20
123.620453
 30
0.0
 11
77.467178
 21
123.628502
 31
0.0
210
0.0
220
0.0
230
1.0
  0
LINE
  8
0
 62
     7
 10
71.667175
 20
120.380348
 30
0.0
 11
77.467178
 21
123.628502
 31
0.0
210
0.0
220
0.0
230
1.0
  0
LINE
  8
0
 62
     7
 10
71.667175
 20
117.140259
 30
0.0
 11
71.667175
 21
120.380348
 31
0.0
210
0.0
220
0.0
230
1.0
  0
ARC
  8
0
 62
     7
 10
70.567177
 20
116.120453
 30
0.0
 40
1.5
 50
19.471222
 51
42.833428
210
0.0
220
0.0
230
1.0
  0
ARC
  8
0
 62
     7
 10
82.067177
 20
117.620453
 30
0.0
 40
1.5
 50
90.000003
 51
180.000005
210
0.0
220
0.0
230
1.0
  0
ARC
  8
0
 62
     7
 10
91.36718
 20
117.620453
 30
0.0
 40
1.5
 50
25.841934
 51
90.000003
210
0.0
220
0.0
230
1.0
  0
ARC
  8
0
 62
     7
 10
91.36718
 20
117.620453
 30
0.0
 40
1.5
 50
20.000001
 51
25.841934
210
0.0
220
0.0
230
1.0
  0
LINE
  8
0
 62
     7
 10
92.776718
 20
118.133484
 30
0.0
 11
93.327415
 21
116.620453
 31
0.0
210
0.0
220
0.0
230
1.0
  0
LINE
  8
0
 62
     7
 10
121.867172
 20
117.020454
 30
0.0
 11
121.174355
 21
116.620453
 31
0.0
210
0.0
220
0.0
230
1.0
  0
LINE
  8
0
 62
     7
 10
121.867172
 20
117.020454
 30
0.0
 11
121.867172
 21
118.82045
 31
0.0
210
0.0
220
0.0
230
1.0
  0
ARC
  8
0
 62
     7
 10
123.067177
 20
118.82045
 30
0.0
 40
1.2
 50
0.0
 51
180.000005
210
0.0
220
0.0
230
1.0
  0
LINE
  8
0
 62
     7
 10
124.267181
 20
118.82045
 30
0.0
 11
124.267181
 21
116.620453
 31
0.0
210
0.0
220
0.0
230
1.0
  0
ARC
  8
0
 62
     7
 10
140.567169
 20
116.120453
 30
0.0
 40
1.5
 50
90.000003
 51
99.808543
210
0.0
220
0.0
230
1.0
  0
ARC
  8
0
 62
     7
 10
140.567169
 20
116.120453
 30
0.0
 40
1.5
 50
99.808543
 51
137.166577
210
0.0
220
0.0
230
1.0
  0
ARC
  8
0
 62
     7
 10
140.567169
 20
116.120453
 30
0.0
 40
1.5
 50
137.166577
 51
160.528775
210
0.0
220
0.0
230
1.0
  0
LINE
  8
0
 62
     7
 10
149.567169
 20
157.124847
 30
0.0
 11
149.567169
 21
154.386612
 31
0.0
210
0.0
220
0.0
230
1.0
  0
LINE
  8
0
 62
     7
 10
149.567169
 20
157.124847
 30
0.0
 11
143.070984
 21
160.762878
 31
0.0
210
0.0
220
0.0
230
1.0
  0
ARC
  8
0
 62
     7
 10
143.803925
 20
162.071625
 30
0.0
 40
1.5
 50
150.750007
 51
240.750006
210
0.0
220
0.0
230
1.0
  0
LINE
  8
0
 62
     7
 10
144.414658
 20
166.232056
 30
0.0
 11
142.495178
 21
162.804565
 31
0.0
210
0.0
220
0.0
230
1.0
  0
LINE
  8
0
 62
     7
 10
144.414658
 20
166.232056
 30
0.0
 11
142.674423
 21
167.206635
 31
0.0
210
0.0
220
0.0
230
1.0
  0
LINE
  8
0
 62
     7
 10
142.674423
 20
167.206635
 30
0.0
 11
142.289795
 21
167.422043
 31
0.0
210
0.0
220
0.0
230
1.0
  0
ARC
  8
0
 62
     7
 10
143.02272
 20
168.730774
 30
0.0
 40
1.5
 50
150.750007
 51
240.750006
210
0.0
220
0.0
230
1.0
  0
LINE
  8
0
 62
     7
 10
149.219849
 20
182.866409
 30
0.0
 11
141.713974
 21
169.463715
 31
0.0
210
0.0
220
0.0
230
1.0
  0
LINE
  8
0
 62
     7
 10
149.567169
 20
183.486603
 30
0.0
 11
149.219849
 21
182.866409
 31
0.0
210
0.0
220
0.0
230
1.0
  0
LINE
  8
0
 62
     7
 10
149.567169
 20
183.486603
 30
0.0
 11
149.567169
 21
187.224854
 31
0.0
210
0.0
220
0.0
230
1.0
  0
LINE
  8
0
 62
     7
 10
149.567169
 20
187.224854
 30
0.0
 11
143.070984
 21
190.862885
 31
0.0
210
0.0
220
0.0
230
1.0
  0
ARC
  8
0
 62
     7
 10
143.803925
 20
192.171631
 30
0.0
 40
1.5
 50
150.750007
 51
240.750006
210
0.0
220
0.0
230
1.0
  0
LINE
  8
0
 62
     7
 10
144.414658
 20
196.332062
 30
0.0
 11
142.495178
 21
192.904572
 31
0.0
210
0.0
220
0.0
230
1.0
  0
LINE
  8
0
 62
     7
 10
144.414658
 20
196.332062
 30
0.0
 11
143.032288
 21
197.106216
 31
0.0
210
0.0
220
0.0
230
1.0
  0
ARC
  8
0
 62
     7
 10
143.52092
 20
197.978714
 30
0.0
 40
1.0
 50
163.750001
 51
215.394254
210
0.0
220
0.0
230
1.0
  0
ARC
  8
0
 62
     7
 10
143.52092
 20
197.978714
 30
0.0
 40
1.0
 50
215.394254
 51
240.750006
210
0.0
220
0.0
230
1.0
  0
LINE
  8
0
 62
     7
 10
144.066422
 20
203.423889
 30
0.0
 11
142.560867
 21
198.258545
 31
0.0
210
0.0
220
0.0
230
1.0
  0
ARC
  8
0
 62
     7
 10
145.5065
 20
203.00415
 30
0.0
 40
1.5
 50
150.750007
 51
163.750001
210
0.0
220
0.0
230
1.0
  0
LINE
  8
0
 62
     7
 10
144.197754
 20
203.737061
 30
0.0
 11
147.567169
 21
209.753601
 31
0.0
210
0.0
220
0.0
230
1.0
  0
LINE
  8
0
 62
     7
 10
63.567177
 20
209.753601
 30
0.0
 11
66.9366
 21
203.737061
 31
0.0
210
0.0
220
0.0
230
1.0
  0
ARC
  8
0
 62
     7
 10
65.627853
 20
203.00415
 30
0.0
 40
1.5
 50
16.25
 51
29.249998
210
0.0
220
0.0
230
1.0
  0
LINE
  8
0
 62
     7
 10
67.067932
 20
203.423889
 30
0.0
 11
68.573486
 21
198.258545
 31
0.0
210
0.0
220
0.0
230
1.0
  0
ARC
  8
0
 62
     7
 10
67.613434
 20
197.978714
 30
0.0
 40
1.0
 50
324.605748
 51
16.25
210
0.0
220
0.0
230
1.0
  0
ARC
  8
0
 62
     7
 10
67.613434
 20
197.978714
 30
0.0
 40
1.0
 50
299.250003
 51
324.605748
210
0.0
220
0.0
230
1.0
  0
LINE
  8
0
 62
     7
 10
66.719696
 20
196.332062
 30
0.0
 11
68.102058
 21
197.106216
 31
0.0
210
0.0
220
0.0
230
1.0
  0
LINE
  8
0
 62
     7
 10
66.719696
 20
196.332062
 30
0.0
 11
68.639175
 21
192.904572
 31
0.0
210
0.0
220
0.0
230
1.0
  0
ARC
  8
0
 62
     7
 10
67.330429
 20
192.171631
 30
0.0
 40
1.5
 50
299.250003
 51
29.249998
210
0.0
220
0.0
230
1.0
  0
LINE
  8
0
 62
     7
 10
61.567177
 20
187.224854
 30
0.0
 11
68.06337
 21
190.862885
 31
0.0
210
0.0
220
0.0
230
1.0
  0
LINE
  8
0
 62
     7
 10
61.567177
 20
183.486603
 30
0.0
 11
61.567177
 21
187.224854
 31
0.0
210
0.0
220
0.0
230
1.0
  0
LINE
  8
0
 62
     7
 10
61.567177
 20
183.486603
 30
0.0
 11
61.914505
 21
182.866409
 31
0.0
210
0.0
220
0.0
230
1.0
  0
LINE
  8
0
 62
     7
 10
61.914505
 20
182.866409
 30
0.0
 11
69.42038
 21
169.463715
 31
0.0
210
0.0
220
0.0
230
1.0
  0
ARC
  8
0
 62
     7
 10
68.111633
 20
168.730774
 30
0.0
 40
1.5
 50
299.250003
 51
29.249998
210
0.0
220
0.0
230
1.0
  0
LINE
  8
0
 62
     7
 10
68.45993
 20
167.206635
 30
0.0
 11
68.844559
 21
167.422043
 31
0.0
210
0.0
220
0.0
230
1.0
  0
LINE
  8
0
 62
     7
 10
66.719696
 20
166.232056
 30
0.0
 11
68.45993
 21
167.206635
 31
0.0
210
0.0
220
0.0
230
1.0
  0
LINE
  8
0
 62
     7
 10
66.719696
 20
166.232056
 30
0.0
 11
68.639175
 21
162.804565
 31
0.0
210
0.0
220
0.0
230
1.0
  0
ARC
  8
0
 62
     7
 10
67.330429
 20
162.071625
 30
0.0
 40
1.5
 50
299.250003
 51
29.249998
210
0.0
220
0.0
230
1.0
  0
LINE
  8
0
 62
     7
 10
61.567177
 20
157.124847
 30
0.0
 11
68.06337
 21
160.762878
 31
0.0
210
0.0
220
0.0
230
1.0
  0
LINE
  8
0
 62
     7
 10
61.567177
 20
157.124847
 30
0.0
 11
61.567177
 21
154.386612
 31
0.0
210
0.0
220
0.0
230
1.0
  0
LINE
  8
0
 62
     7
 10
105.567177
 20
116.620453
 30
0.0
 11
118.417175
 21
116.620453
 31
0.0
210
0.0
220
0.0
230
1.0
  0
LINE
  8
0
 62
     7
 10
105.567177
 20
116.620453
 30
0.0
 11
93.327415
 21
116.620453
 31
0.0
210
0.0
220
0.0
230
1.0
  0
LINE
  8
0
 62
     7
 10
139.152954
 20
116.620453
 30
0.0
 11
134.067169
 21
116.620453
 31
0.0
210
0.0
220
0.0
230
1.0
  0
LINE
  8
0
 62
     7
 10
139.467178
 20
117.140259
 30
0.0
 11
139.467178
 21
120.380348
 31
0.0
210
0.0
220
0.0
230
1.0
  0
LINE
  8
0
 62
     7
 10
139.467178
 20
120.380348
 30
0.0
 11
133.667175
 21
123.628502
 31
0.0
210
0.0
220
0.0
230
1.0
  0
LINE
  8
0
 62
     7
 10
133.667175
 20
129.120453
 30
0.0
 11
133.667175
 21
123.628502
 31
0.0
210
0.0
220
0.0
230
1.0
  0
LINE
  8
0
 62
     7
 10
135.467178
 20
129.120453
 30
0.0
 11
133.667175
 21
129.120453
 31
0.0
210
0.0
220
0.0
230
1.0
  0
LINE
  8
0
 62
     7
 10
135.467178
 20
129.120453
 30
0.0
 11
135.467178
 21
133.394135
 31
0.0
210
0.0
220
0.0
230
1.0
  0
LINE
  8
0
 62
     7
 10
135.467178
 20
133.394135
 30
0.0
 11
154.567169
 21
122.697624
 31
0.0
210
0.0
220
0.0
230
1.0
  0
LINE
  8
0
 62
     7
 10
154.567169
 20
122.697624
 30
0.0
 11
154.567169
 21
125.120453
 31
0.0
210
0.0
220
0.0
230
1.0
  0
LINE
  8
0
 62
     7
 10
156.067169
 20
125.120453
 30
0.0
 11
154.567169
 21
125.120453
 31
0.0
210
0.0
220
0.0
230
1.0
  0
LINE
  8
0
 62
     7
 10
156.067169
 20
153.386612
 30
0.0
 11
156.067169
 21
125.120453
 31
0.0
210
0.0
220
0.0
230
1.0
  0
LINE
  8
0
 62
     7
 10
150.567169
 20
153.386612
 30
0.0
 11
156.067169
 21
153.386612
 31
0.0
210
0.0
220
0.0
230
1.0
  0
ARC
  8
0
 62
     7
 10
150.567169
 20
154.386612
 30
0.0
 40
1.0
 50
179.999995
 51
269.999997
210
0.0
220
0.0
230
1.0
  0
LINE
  8
0
 62
     7
 10
149.567169
 20
154.386612
 30
0.0
 11
149.567169
 21
153.386612
 31
0.0
210
0.0
220
0.0
230
1.0
  0
LINE
  8
0
 62
     7
 10
149.567169
 20
153.386612
 30
0.0
 11
149.219849
 21
152.766403
 31
0.0
210
0.0
220
0.0
230
1.0
  0
LINE
  8
0
 62
     7
 10
146.167709
 20
154.475677
 30
0.0
 11
149.219849
 21
152.766403
 31
0.0
210
0.0
220
0.0
230
1.0
  0
LINE
  8
0
 62
     7
 10
145.21637
 20
151.864441
 30
0.0
 11
146.167709
 21
154.475677
 31
0.0
210
0.0
220
0.0
230
1.0
  0
LINE
  8
0
 62
     7
 10
142.120483
 20
148.781448
 30
0.0
 11
145.21637
 21
151.864441
 31
0.0
210
0.0
220
0.0
230
1.0
  0
LINE
  8
0
 62
     7
 10
137.753143
 20
146.166794
 30
0.0
 11
142.120483
 21
148.781448
 31
0.0
210
0.0
220
0.0
230
1.0
  0
LINE
  8
0
 62
     7
 10
136.367126
 20
146.889526
 30
0.0
 11
137.753143
 21
146.166794
 31
0.0
210
0.0
220
0.0
230
1.0
  0
LINE
  8
0
 62
     7
 10
142.466858
 20
163.653168
 30
0.0
 11
136.367126
 21
146.889526
 31
0.0
210
0.0
220
0.0
230
1.0
  0
LINE
  8
0
 62
     7
 10
142.466858
 20
163.653168
 30
0.0
 11
142.477692
 21
166.622971
 31
0.0
210
0.0
220
0.0
230
1.0
  0
LINE
  8
0
 62
     7
 10
142.674423
 20
167.206635
 30
0.0
 11
142.477692
 21
166.622971
 31
0.0
210
0.0
220
0.0
230
1.0
  0
LINE
  8
0
 62
     7
 10
146.167709
 20
184.575684
 30
0.0
 11
149.219849
 21
182.866409
 31
0.0
210
0.0
220
0.0
230
1.0
  0
LINE
  8
0
 62
     7
 10
145.21637
 20
181.964447
 30
0.0
 11
146.167709
 21
184.575684
 31
0.0
210
0.0
220
0.0
230
1.0
  0
LINE
  8
0
 62
     7
 10
142.120483
 20
178.881439
 30
0.0
 11
145.21637
 21
181.964447
 31
0.0
210
0.0
220
0.0
230
1.0
  0
LINE
  8
0
 62
     7
 10
137.753143
 20
176.2668
 30
0.0
 11
142.120483
 21
178.881439
 31
0.0
210
0.0
220
0.0
230
1.0
  0
LINE
  8
0
 62
     7
 10
136.367126
 20
176.989517
 30
0.0
 11
137.753143
 21
176.2668
 31
0.0
210
0.0
220
0.0
230
1.0
  0
LINE
  8
0
 62
     7
 10
142.466858
 20
193.753174
 30
0.0
 11
136.367126
 21
176.989517
 31
0.0
210
0.0
220
0.0
230
1.0
  0
LINE
  8
0
 62
     7
 10
142.466858
 20
193.753174
 30
0.0
 11
142.477692
 21
196.722961
 31
0.0
210
0.0
220
0.0
230
1.0
  0
LINE
  8
0
 62
     7
 10
142.705734
 20
197.399506
 30
0.0
 11
142.477692
 21
196.722961
 31
0.0
210
0.0
220
0.0
230
1.0
  0
LINE
  8
0
 62
     7
 10
147.567169
 20
209.970459
 30
0.0
 11
147.567169
 21
209.753601
 31
0.0
210
0.0
220
0.0
230
1.0
  0
LINE
  8
0
 62
     7
 10
147.567169
 20
209.970459
 30
0.0
 11
143.667175
 21
209.970459
 31
0.0
210
0.0
220
0.0
230
1.0
  0
LINE
  8
0
 62
     7
 10
143.667175
 20
206.020447
 30
0.0
 11
143.667175
 21
209.970459
 31
0.0
210
0.0
220
0.0
230
1.0
  0
LINE
  8
0
 62
     7
 10
143.667175
 20
206.020447
 30
0.0
 11
67.467178
 21
206.020447
 31
0.0
210
0.0
220
0.0
230
1.0
  0
LINE
  8
0
 62
     7
 10
67.467178
 20
209.970459
 30
0.0
 11
67.467178
 21
206.020447
 31
0.0
210
0.0
220
0.0
230
1.0
  0
LINE
  8
0
 62
     7
 10
67.467178
 20
209.970459
 30
0.0
 11
63.567177
 21
209.970459
 31
0.0
210
0.0
220
0.0
230
1.0
  0
LINE
  8
0
 62
     7
 10
63.567177
 20
209.970459
 30
0.0
 11
63.567177
 21
209.753601
 31
0.0
210
0.0
220
0.0
230
1.0
  0
LINE
  8
0
 62
     7
 10
68.428619
 20
197.399506
 30
0.0
 11
68.656662
 21
196.722961
 31
0.0
210
0.0
220
0.0
230
1.0
  0
LINE
  8
0
 62
     7
 10
68.667496
 20
193.753174
 30
0.0
 11
68.656662
 21
196.722961
 31
0.0
210
0.0
220
0.0
230
1.0
  0
LINE
  8
0
 62
     7
 10
68.667496
 20
193.753174
 30
0.0
 11
74.767227
 21
176.989517
 31
0.0
210
0.0
220
0.0
230
1.0
  0
LINE
  8
0
 62
     7
 10
74.767227
 20
176.989517
 30
0.0
 11
73.38121
 21
176.2668
 31
0.0
210
0.0
220
0.0
230
1.0
  0
LINE
  8
0
 62
     7
 10
73.38121
 20
176.2668
 30
0.0
 11
69.01387
 21
178.881439
 31
0.0
210
0.0
220
0.0
230
1.0
  0
LINE
  8
0
 62
     7
 10
69.01387
 20
178.881439
 30
0.0
 11
65.917984
 21
181.964447
 31
0.0
210
0.0
220
0.0
230
1.0
  0
LINE
  8
0
 62
     7
 10
65.917984
 20
181.964447
 30
0.0
 11
64.966644
 21
184.575684
 31
0.0
210
0.0
220
0.0
230
1.0
  0
LINE
  8
0
 62
     7
 10
64.966644
 20
184.575684
 30
0.0
 11
61.914505
 21
182.866409
 31
0.0
210
0.0
220
0.0
230
1.0
  0
LINE
  8
0
 62
     7
 10
68.45993
 20
167.206635
 30
0.0
 11
68.656662
 21
166.622971
 31
0.0
210
0.0
220
0.0
230
1.0
  0
LINE
  8
0
 62
     7
 10
68.667496
 20
163.653168
 30
0.0
 11
68.656662
 21
166.622971
 31
0.0
210
0.0
220
0.0
230
1.0
  0
LINE
  8
0
 62
     7
 10
68.667496
 20
163.653168
 30
0.0
 11
74.767227
 21
146.889526
 31
0.0
210
0.0
220
0.0
230
1.0
  0
LINE
  8
0
 62
     7
 10
74.767227
 20
146.889526
 30
0.0
 11
73.38121
 21
146.166794
 31
0.0
210
0.0
220
0.0
230
1.0
  0
LINE
  8
0
 62
     7
 10
73.38121
 20
146.166794
 30
0.0
 11
69.01387
 21
148.781448
 31
0.0
210
0.0
220
0.0
230
1.0
  0
LINE
  8
0
 62
     7
 10
69.01387
 20
148.781448
 30
0.0
 11
65.917984
 21
151.864441
 31
0.0
210
0.0
220
0.0
230
1.0
  0
LINE
  8
0
 62
     7
 10
65.917984
 20
151.864441
 30
0.0
 11
64.966644
 21
154.475677
 31
0.0
210
0.0
220
0.0
230
1.0
  0
LINE
  8
0
 62
     7
 10
64.966644
 20
154.475677
 30
0.0
 11
61.914505
 21
152.766403
 31
0.0
210
0.0
220
0.0
230
1.0
  0
LINE
  8
0
 62
     7
 10
61.567177
 20
153.386612
 30
0.0
 11
61.914505
 21
152.766403
 31
0.0
210
0.0
220
0.0
230
1.0
  0
LINE
  8
0
 62
     7
 10
61.567177
 20
154.386612
 30
0.0
 11
61.567177
 21
153.386612
 31
0.0
210
0.0
220
0.0
230
1.0
  0
ARC
  8
0
 62
     7
 10
60.567177
 20
154.386612
 30
0.0
 40
1.0
 50
269.999997
 51
360.0
210
0.0
220
0.0
230
1.0
  0
LINE
  8
0
 62
     7
 10
60.567177
 20
153.386612
 30
0.0
 11
55.067177
 21
153.386612
 31
0.0
210
0.0
220
0.0
230
1.0
  0
LINE
  8
0
 62
     7
 10
55.067177
 20
153.386612
 30
0.0
 11
55.067177
 21
125.120453
 31
0.0
210
0.0
220
0.0
230
1.0
  0
LINE
  8
0
 62
     7
 10
55.067177
 20
125.120453
 30
0.0
 11
56.567177
 21
125.120453
 31
0.0
210
0.0
220
0.0
230
1.0
  0
LINE
  8
0
 62
     7
 10
56.567177
 20
122.697624
 30
0.0
 11
56.567177
 21
125.120453
 31
0.0
210
0.0
220
0.0
230
1.0
  0
LINE
  8
0
 62
     7
 10
75.667175
 20
133.394135
 30
0.0
 11
56.567177
 21
122.697624
 31
0.0
210
0.0
220
0.0
230
1.0
  0
LINE
  8
0
 62
     7
 10
75.667175
 20
129.120453
 30
0.0
 11
75.667175
 21
133.394135
 31
0.0
210
0.0
220
0.0
230
1.0
  0
LINE
  8
0
 62
     7
 10
75.667175
 20
129.120453
 30
0.0
 11
77.467178
 21
129.120453
 31
0.0
210
0.0
220
0.0
230
1.0
  0
LINE
  8
0
 62
     7
 10
77.467178
 20
129.120453
 30
0.0
 11
77.467178
 21
125.120453
 31
0.0
210
0.0
220
0.0
230
1.0
  0
LINE
  8
0
 62
     7
 10
77.467178
 20
125.120453
 30
0.0
 11
91.067177
 21
125.120453
 31
0.0
210
0.0
220
0.0
230
1.0
  0
LINE
  8
0
 62
     7
 10
91.067177
 20
119.120453
 30
0.0
 11
91.067177
 21
125.120453
 31
0.0
210
0.0
220
0.0
230
1.0
  0
LINE
  8
0
 62
     7
 10
91.067177
 20
119.120453
 30
0.0
 11
91.36718
 21
119.120453
 31
0.0
210
0.0
220
0.0
230
1.0
  0
LINE
  8
0
 62
     7
 10
92.717178
 20
118.274284
 30
0.0
 11
92.717178
 21
119.07045
 31
0.0
210
0.0
220
0.0
230
1.0
  0
ARC
  8
0
 62
     7
 10
94.467178
 20
119.07045
 30
0.0
 40
1.75
 50
120.949727
 51
180.000005
210
0.0
220
0.0
230
1.0
  0
LINE
  8
0
 62
     7
 10
93.567177
 20
129.43045
 30
0.0
 11
93.567177
 21
120.571289
 31
0.0
210
0.0
220
0.0
230
1.0
  0
LINE
  8
0
 62
     7
 10
93.567177
 20
129.43045
 30
0.0
 11
117.567177
 21
129.43045
 31
0.0
210
0.0
220
0.0
230
1.0
  0
LINE
  8
0
 62
     7
 10
117.567177
 20
129.43045
 30
0.0
 11
117.567177
 21
120.571289
 31
0.0
210
0.0
220
0.0
230
1.0
  0
ARC
  8
0
 62
     7
 10
116.667175
 20
119.07045
 30
0.0
 40
1.75
 50
0.0
 51
59.050278
210
0.0
220
0.0
230
1.0
  0
LINE
  8
0
 62
     7
 10
118.417175
 20
116.620453
 30
0.0
 11
118.417175
 21
119.07045
 31
0.0
210
0.0
220
0.0
230
1.0
  0
LINE
  8
0
 62
     7
 10
121.174355
 20
116.620453
 30
0.0
 11
118.417175
 21
116.620453
 31
0.0
210
0.0
220
0.0
230
1.0
  0
LINE
  8
0
 62
     7
 10
134.067169
 20
116.620453
 30
0.0
 11
124.267181
 21
116.620453
 31
0.0
210
0.0
220
0.0
230
1.0
  0
LINE
  8
0
 62
     7
 10
153.567169
 20
117.620453
 30
0.0
 11
140.567169
 21
117.620453
 31
0.0
210
0.0
220
0.0
230
1.0
  0
LINE
  8
0
 62
     7
 10
140.311646
 20
117.598526
 30
0.0
 11
140.348267
 21
117.620453
 31
0.0
210
0.0
220
0.0
230
1.0
  0
LINE
  8
0
 62
     7
 10
140.348267
 20
117.620453
 30
0.0
 11
139.467178
 21
117.620453
 31
0.0
210
0.0
220
0.0
230
1.0
  0
ARC
  8
0
 62
     7
 10
153.567169
 20
119.120453
 30
0.0
 40
1.5
 50
269.999997
 51
360.0
210
0.0
220
0.0
230
1.0
  0
LINE
  8
0
 62
     7
 10
155.067169
 20
120.620453
 30
0.0
 11
155.067169
 21
119.120453
 31
0.0
210
0.0
220
0.0
230
1.0
  0
ARC
  8
0
 62
     7
 10
156.067169
 20
120.620453
 30
0.0
 40
1.0
 50
90.000003
 51
179.999995
210
0.0
220
0.0
230
1.0
  0
LINE
  8
0
 62
     7
 10
156.067169
 20
121.620453
 30
0.0
 11
156.067169
 21
121.85759
 31
0.0
210
0.0
220
0.0
230
1.0
  0
LINE
  8
0
 62
     7
 10
154.704987
 20
122.620453
 30
0.0
 11
154.567169
 21
122.620453
 31
0.0
210
0.0
220
0.0
230
1.0
  0
LINE
  8
0
 62
     7
 10
154.567169
 20
122.620453
 30
0.0
 11
154.567169
 21
122.697624
 31
0.0
210
0.0
220
0.0
230
1.0
  0
LINE
  8
0
 62
     7
 10
135.467178
 20
129.120453
 30
0.0
 11
135.467178
 21
122.620453
 31
0.0
210
0.0
220
0.0
230
1.0
  0
LINE
  8
0
 62
     7
 10
154.704987
 20
122.620453
 30
0.0
 11
156.067169
 21
121.85759
 31
0.0
210
0.0
220
0.0
230
1.0
  0
LINE
  8
0
 62
     7
 10
156.067169
 20
122.620453
 30
0.0
 11
154.704987
 21
122.620453
 31
0.0
210
0.0
220
0.0
230
1.0
  0
LINE
  8
0
 62
     7
 10
141.917175
 20
215.620453
 30
0.0
 11
141.917175
 21
213.82045
 31
0.0
210
0.0
220
0.0
230
1.0
  0
LINE
  8
0
 62
     7
 10
105.567177
 20
215.620453
 30
0.0
 11
141.917175
 21
215.620453
 31
0.0
210
0.0
220
0.0
230
1.0
  0
LINE
  8
0
 62
     7
 10
156.067169
 20
122.620453
 30
0.0
 11
156.067169
 21
121.85759
 31
0.0
210
0.0
220
0.0
230
1.0
  0
LINE
  8
0
 62
     7
 10
68.417175
 20
211.620453
 30
0.0
 11
68.417175
 21
209.970459
 31
0.0
210
0.0
220
0.0
230
1.0
  0
LINE
  8
0
 62
     7
 10
68.417175
 20
209.970459
 30
0.0
 11
67.467178
 21
209.970459
 31
0.0
210
0.0
220
0.0
230
1.0
  0
LINE
  8
0
 62
     7
 10
142.717178
 20
209.970459
 30
0.0
 11
143.667175
 21
209.970459
 31
0.0
210
0.0
220
0.0
230
1.0
  0
LINE
  8
0
 62
     7
 10
142.717178
 20
211.620453
 30
0.0
 11
142.717178
 21
209.970459
 31
0.0
210
0.0
220
0.0
230
1.0
  0
LINE
  8
0
 62
     7
 10
142.717178
 20
211.620453
 30
0.0
 11
142.217178
 21
211.620453
 31
0.0
210
0.0
220
0.0
230
1.0
  0
LINE
  8
0
 62
     7
 10
142.217178
 20
213.026733
 30
0.0
 11
142.217178
 21
211.620453
 31
0.0
210
0.0
220
0.0
230
1.0
  0
ARC
  8
0
 62
     7
 10
143.117172
 20
213.82045
 30
0.0
 40
1.2
 50
180.000005
 51
221.409615
210
0.0
220
0.0
230
1.0
  0
LINE
  8
0
 62
     7
 10
105.567177
 20
215.620453
 30
0.0
 11
68.917175
 21
215.620453
 31
0.0
210
0.0
220
0.0
230
1.0
  0
LINE
  8
0
 62
     7
 10
68.917175
 20
215.620453
 30
0.0
 11
68.917175
 21
211.620453
 31
0.0
210
0.0
220
0.0
230
1.0
  0
LINE
  8
0
 62
     7
 10
68.417175
 20
211.620453
 30
0.0
 11
68.917175
 21
211.620453
 31
0.0
210
0.0
220
0.0
230
1.0
  0
LINE
  8
0
 62
     7
 10
56.567177
 20
122.620453
 30
0.0
 11
56.567177
 21
122.697624
 31
0.0
210
0.0
220
0.0
230
1.0
  0
LINE
  8
0
 62
     7
 10
56.567177
 20
122.620453
 30
0.0
 11
56.429371
 21
122.620453
 31
0.0
210
0.0
220
0.0
230
1.0
  0
LINE
  8
0
 62
     7
 10
55.067177
 20
121.620453
 30
0.0
 11
55.067177
 21
121.85759
 31
0.0
210
0.0
220
0.0
230
1.0
  0
ARC
  8
0
 62
     7
 10
55.067177
 20
120.620453
 30
0.0
 40
1.0
 50
0.0
 51
90.000003
210
0.0
220
0.0
230
1.0
  0
LINE
  8
0
 62
     7
 10
56.067177
 20
120.620453
 30
0.0
 11
56.067177
 21
119.120453
 31
0.0
210
0.0
220
0.0
230
1.0
  0
ARC
  8
0
 62
     7
 10
57.567177
 20
119.120453
 30
0.0
 40
1.5
 50
179.999995
 51
269.999997
210
0.0
220
0.0
230
1.0
  0
LINE
  8
0
 62
     7
 10
70.567177
 20
117.620453
 30
0.0
 11
57.567177
 21
117.620453
 31
0.0
210
0.0
220
0.0
230
1.0
  0
ARC
  8
0
 62
     7
 10
70.567177
 20
116.120453
 30
0.0
 40
1.5
 50
80.191455
 51
90.000003
210
0.0
220
0.0
230
1.0
  0
LINE
  8
0
 62
     7
 10
70.822708
 20
117.598526
 30
0.0
 11
70.786087
 21
117.620453
 31
0.0
210
0.0
220
0.0
230
1.0
  0
LINE
  8
0
 62
     7
 10
71.667175
 20
117.620453
 30
0.0
 11
70.786087
 21
117.620453
 31
0.0
210
0.0
220
0.0
230
1.0
  0
LINE
  8
0
 62
     7
 10
75.667175
 20
122.620453
 30
0.0
 11
75.667175
 21
129.120453
 31
0.0
210
0.0
220
0.0
230
1.0
  0
ARC
  8
0
 62
     7
 10
70.567177
 20
116.120453
 30
0.0
 40
1.5
 50
42.833428
 51
80.191455
210
0.0
220
0.0
230
1.0
  0
LINE
  8
0
 62
     7
 10
142.717178
 20
211.620453
 30
0.0
 11
144.017181
 21
211.620453
 31
0.0
210
0.0
220
0.0
230
1.0
  0
LINE
  8
0
 62
     7
 10
55.067177
 20
122.620453
 30
0.0
 11
56.429371
 21
122.620453
 31
0.0
210
0.0
220
0.0
230
1.0
  0
LINE
  8
0
 62
     7
 10
56.429371
 20
122.620453
 30
0.0
 11
55.067177
 21
121.85759
 31
0.0
210
0.0
220
0.0
230
1.0
  0
LINE
  8
0
 62
     7
 10
144.017181
 20
213.026733
 30
0.0
 11
144.017181
 21
211.620453
 31
0.0
210
0.0
220
0.0
230
1.0
  0
LINE
  8
0
 62
     7
 10
147.567169
 20
209.970459
 30
0.0
 11
147.567169
 21
215.620453
 31
0.0
210
0.0
220
0.0
230
1.0
  0
LINE
  8
0
 62
     7
 10
144.317169
 20
215.620453
 30
0.0
 11
147.567169
 21
215.620453
 31
0.0
210
0.0
220
0.0
230
1.0
  0
LINE
  8
0
 62
     7
 10
144.317169
 20
215.620453
 30
0.0
 11
144.317169
 21
213.82045
 31
0.0
210
0.0
220
0.0
230
1.0
  0
ARC
  8
0
 62
     7
 10
143.117172
 20
213.82045
 30
0.0
 40
1.2
 50
318.59038
 51
0.0
210
0.0
220
0.0
230
1.0
  0
LINE
  8
0
 62
     7
 10
55.067177
 20
122.620453
 30
0.0
 11
55.067177
 21
121.85759
 31
0.0
210
0.0
220
0.0
230
1.0
  0
LINE
  8
0
 62
     7
 10
67.117172
 20
215.620453
 30
0.0
 11
67.117172
 21
211.620453
 31
0.0
210
0.0
220
0.0
230
1.0
  0
LINE
  8
0
 62
     7
 10
67.117172
 20
215.620453
 30
0.0
 11
68.917175
 21
215.620453
 31
0.0
210
0.0
220
0.0
230
1.0
  0
ARC
  8
0
 62
     7
 10
143.117172
 20
213.82045
 30
0.0
 40
1.2
 50
221.409615
 51
318.59038
210
0.0
220
0.0
230
1.0
  0
LINE
  8
0
 62
     7
 10
63.567177
 20
215.620453
 30
0.0
 11
67.117172
 21
215.620453
 31
0.0
210
0.0
220
0.0
230
1.0
  0
LINE
  8
0
 62
     7
 10
63.567177
 20
215.620453
 30
0.0
 11
63.567177
 21
209.970459
 31
0.0
210
0.0
220
0.0
230
1.0
  0
LINE
  8
0
 62
     7
 10
68.417175
 20
211.620453
 30
0.0
 11
67.117172
 21
211.620453
 31
0.0
210
0.0
220
0.0
230
1.0
  0
LINE
  8
0
 62
     7
 10
55.067177
 20
125.120453
 30
0.0
 11
55.067177
 21
122.620453
 31
0.0
210
0.0
220
0.0
230
1.0
  0
LINE
  8
0
 62
     7
 10
156.067169
 20
125.120453
 30
0.0
 11
156.067169
 21
122.620453
 31
0.0
210
0.0
220
0.0
230
1.0
  0
LINE
  8
0
 62
     7
 10
77.467178
 20
123.628502
 30
0.0
 11
77.467178
 21
125.120453
 31
0.0
210
0.0
220
0.0
230
1.0
  0
LINE
  8
0
 62
     7
 10
80.567177
 20
116.620453
 30
0.0
 11
80.567177
 21
117.620453
 31
0.0
210
0.0
220
0.0
230
1.0
  0
LINE
  8
0
 62
     7
 10
82.067177
 20
119.120453
 30
0.0
 11
91.067177
 21
119.120453
 31
0.0
210
0.0
220
0.0
230
1.0
  0
LINE
  8
0
 62
     7
 10
80.567177
 20
116.620453
 30
0.0
 11
77.067177
 21
116.620453
 31
0.0
210
0.0
220
0.0
230
1.0
  0
ENDSEC
  0
EOF
