  0
SECTION
  2
HEADER
  9
$ACADVER
  1
AC1009
  9
$DWGCODEPAGE
  3
ansi_1252
  9
$INSBASE
 10
0.0
 20
0.0
 30
0.0
  9
$EXTMIN
 10
0.0
 20
0.0
 30
0.0
  9
$EXTMAX
 10
156.067169
 20
231.789444
 30
2.0
  9
$LIMMIN
 10
0.0
 20
0.0
  9
$LIMMAX
 10
420.0
 20
297.0
  9
$ORTHOMODE
 70
     0
  9
$REGENMODE
 70
     1
  9
$FILLMODE
 70
     1
  9
$QTEXTMODE
 70
     0
  9
$MIRRTEXT
 70
     1
  9
$DRAGMODE
 70
     2
  9
$LTSCALE
 40
1.0
  9
$OSMODE
 70
     0
  9
$ATTMODE
 70
     1
  9
$TEXTSIZE
 40
2.5
  9
$TRACEWID
 40
1.0
  9
$TEXTSTYLE
  7
STANDARD
  9
$CLAYER
  8
0
  9
$CELTYPE
  6
BYLAYER
  9
$CECOLOR
 62
   256
  9
$DIMSCALE
 40
1.0
  9
$DIMASZ
 40
2.5
  9
$DIMEXO
 40
0.625
  9
$DIMDLI
 40
3.75
  9
$DIMRND
 40
0.0
  9
$DIMDLE
 40
0.0
  9
$DIMEXE
 40
1.25
  9
$DIMTP
 40
0.0
  9
$DIMTM
 40
0.0
  9
$DIMTXT
 40
2.5
  9
$DIMCEN
 40
2.5
  9
$DIMTSZ
 40
0.0
  9
$DIMTOL
 70
     0
  9
$DIMLIM
 70
     0
  9
$DIMTIH
 70
     0
  9
$DIMTOH
 70
     0
  9
$DIMSE1
 70
     0
  9
$DIMSE2
 70
     0
  9
$DIMTAD
 70
     1
  9
$DIMZIN
 70
     8
  9
$DIMBLK
  1

  9
$DIMASO
 70
     1
  9
$DIMSHO
 70
     1
  9
$DIMPOST
  1

  9
$DIMAPOST
  1

  9
$DIMALT
 70
     0
  9
$DIMALTD
 70
     3
  9
$DIMALTF
 40
0.03937
  9
$DIMLFAC
 40
1.0
  9
$DIMTOFL
 70
     1
  9
$DIMTVP
 40
0.0
  9
$DIMTIX
 70
     0
  9
$DIMSOXD
 70
     0
  9
$DIMSAH
 70
     0
  9
$DIMBLK1
  1

  9
$DIMBLK2
  1

  9
$DIMSTYLE
  2

  9
$DIMCLRD
 70
     0
  9
$DIMCLRE
 70
     0
  9
$DIMCLRT
 70
     0
  9
$DIMTFAC
 40
1.0
  9
$DIMGAP
 40
0.625
  9
$LUNITS
 70
     2
  9
$LUPREC
 70
     4
  9
$AXISMODE
 70
     0
  9
$AXISUNIT
 10
0.0
 20
0.0
  9
$SKETCHINC
 40
1.0
  9
$FILLETRAD
 40
2.5
  9
$AUNITS
 70
     0
  9
$AUPREC
 70
     0
  9
$MENU
  1
.
  9
$ELEVATION
 40
0.0
  9
$PELEVATION
 40
0.0
  9
$THICKNESS
 40
0.0
  9
$LIMCHECK
 70
     0
  9
$BLIPMODE
 70
     1
  9
$CHAMFERA
 40
2.5
  9
$CHAMFERB
 40
2.5
  9
$SKPOLY
 70
     0
  9
$TDCREATE
 40
0.000000000
  9
$TDUPDATE
 40
0.000000000
  9
$TDINDWG
 40
0.0000000000
  9
$TDUSRTIMER
 40
0.0000000000
  9
$USRTIMER
 70
     1
  9
$ANGBASE
 50
0.0
  9
$ANGDIR
 70
     0
  9
$PDMODE
 70
     0
  9
$PDSIZE
 40
0.0
  9
$PLINEWID
 40
0.0
  9
$COORDS
 70
     0
  9
$SPLFRAME
 70
     0
  9
$SPLINETYPE
 70
     6
  9
$SPLINESEGS
 70
     8
  9
$ATTDIA
 70
     0
  9
$ATTREQ
 70
     1
  9
$HANDLING
 70
     0
  9
$HANDSEED
  5
3
  9
$SURFTAB1
 70
     6
  9
$SURFTAB2
 70
     6
  9
$SURFTYPE
 70
     6
  9
$SURFU
 70
     6
  9
$SURFV
 70
     6
  9
$UCSNAME
  2

  9
$UCSORG
 10
0.0
 20
0.0
 30
0.0
  9
$UCSXDIR
 10
1.0
 20
0.0
 30
0.0
  9
$UCSYDIR
 10
0.0
 20
1.0
 30
0.0
  9
$PUCSNAME
  2

  9
$PUCSORG
 10
0.0
 20
0.0
 30
0.0
  9
$PUCSXDIR
 10
1.0
 20
0.0
 30
0.0
  9
$PUCSYDIR
 10
0.0
 20
1.0
 30
0.0
  9
$USERI1
 70
     0
  9
$USERI2
 70
     0
  9
$USERI3
 70
     0
  9
$USERI4
 70
     0
  9
$USERI5
 70
     0
  9
$USERR1
 40
0.0
  9
$USERR2
 40
0.0
  9
$USERR3
 40
0.0
  9
$USERR4
 40
0.0
  9
$USERR5
 40
0.0
  9
$WORLDVIEW
 70
     1
  9
$SHADEDGE
 70
     3
  9
$SHADEDIF
 70
    70
  9
$TILEMODE
 70
     1
  9
$MAXACTVP
 70
    48
  9
$PINSBASE
 10
0.0
 20
0.0
 30
0.0
  9
$PLIMCHECK
 70
     0
  9
$PEXTMIN
 10
0.0
 20
0.0
 30
0.0
  9
$PEXTMAX
 10
156.067169
 20
231.789444
 30
2.0
  9
$PLIMMIN
 10
0.0
 20
0.0
  9
$PLIMMAX
 10
420.0
 20
297.0
  9
$UNITMODE
 70
     0
  9
$VISRETAIN
 70
     0
  9
$PLINEGEN
 70
     0
  9
$PSLTSCALE
 70
     1
  9
$TREEDEPTH
 70
  3020
  0
ENDSEC
  0
SECTION
  2
TABLES
  0
TABLE
  2
VPORT
 70
     1
  0
VPORT
  2
*ACTIVE
 70
     0
 10
0.0
 20
0.0
 11
1.0
 21
1.0
 12
6.591288
 22
4.579184
 13
0.0
 23
0.0
 14
1.0
 24
1.0
 15
0.0
 25
0.0
 16
0.0
 26
0.0
 36
1.0
 17
0.0
 27
0.0
 37
0.0
 40
9.158369
 41
0.688564
 42
50.0
 43
0.0
 44
0.0
 50
0.0
 51
0.0
 71
     0
 72
   100
 73
     1
 74
     1
 75
     0
 76
     0
 77
     0
 78
     0
  0
ENDTAB
  0
TABLE
  2
LTYPE
 70
     2
  0
LTYPE
  2
CONTINUOUS
 70
    64
  3
Solid line
 72
    65
 73
     0
 40
0.0
  0
LTYPE
  2
DASHDOT
 70
     0
  3
 __ . __ . __ . __ . __ . __ . __ . 
 72
    65
 73
     4
 40
18.5
 49
12.0
 49
-3.0
 49
0.5
 49
-3.0
  0
ENDTAB
  0
TABLE
  2
LAYER
 70
     1
  0
LAYER
  2
0
 70
     0
 62
     7
  6
CONTINUOUS
  0
ENDTAB
  0
TABLE
  2
STYLE
 70
     1
  0
STYLE
  2
STANDARD
 70
     0
 40
0.0
 41
1.0
 50
0.0
 71
     0
 42
0.0
  3
txt
  4

  0
ENDTAB
  0
TABLE
  2
VIEW
 70
     0
  0
ENDTAB
  0
TABLE
  2
UCS
 70
     0
  0
ENDTAB
  0
TABLE
  2
APPID
 70
     1
  0
APPID
  2
ACAD
 70
     0
  0
ENDTAB
  0
TABLE
  2
DIMSTYLE
 70
     1
  0
DIMSTYLE
  2
STANDARD
 70
     0
  3

  4

  5

  6

  7

 40
1.0
 41
0.18
 42
0.0625
 43
0.38
 44
0.18
 45
0.0
 46
0.0
 47
0.0
 48
0.0
 71
     0
 72
     0
 73
     1
 74
     1
 75
     0
 76
     0
 77
     0
 78
     0
140
0.18
141
0.09
142
0.0
143
25.4
144
1.0
145
0.0
146
1.0
147
0.09
170
     0
171
     2
172
     0
173
     0
174
     0
175
     0
176
     0
177
     0
178
     0
  0
ENDTAB
  0
ENDSEC
  0
SECTION
  2
BLOCKS
  0
ENDSEC
  0
SECTION
  2
ENTITIES
  0
VIEWPORT
  8
0
 62
     0
 67
     1
 68
     1
 10
0.0
 20
0.0
 30
0.0
 40
1000.0
 41
1000.0
 69
     1
1001
ACAD
1000
MVIEW
1002
{
1070
    16
1010
0.0
1020
0.0
1030
0.0
1010
0.0
1020
0.0
1030
1.0
1040
0.0
1040
1000.0
1040
0.0
1040
0.0
1040
50.0
1040
0.0
1040
0.0
1070
     0
1070
   100
1070
     1
1070
     1
1070
     0
1070
     0
1070
     0
1070
     0
1040
0.0
1040
0.0
1040
0.0
1040
1.0
1040
1.0
1040
1.0
1040
1.0
1070
     0
1002
{
1002
}
1002
}
  0
LINE
  8
0
  6
DASHDOT
 62
     7
 10
124.627174
 20
118.82045
 30
0.0
 11
121.507179
 21
118.82045
 31
0.0
210
0.0
220
0.0
230
1.0
  0
LINE
  8
0
  6
DASHDOT
 62
     7
 10
123.067177
 20
120.380455
 30
0.0
 11
123.067177
 21
117.260452
 31
0.0
210
0.0
220
0.0
230
1.0
  0
LINE
  8
0
  6
DASHDOT
 62
     7
 10
143.399796
 20
155.791351
 30
0.0
 11
141.579788
 21
155.791351
 31
0.0
210
0.0
220
0.0
230
1.0
  0
LINE
  8
0
  6
DASHDOT
 62
     7
 10
142.489792
 20
156.701355
 30
0.0
 11
142.489792
 21
154.881348
 31
0.0
210
0.0
220
0.0
230
1.0
  0
LINE
  8
0
  6
DASHDOT
 62
     7
 10
138.953339
 20
147.851639
 30
0.0
 11
137.133331
 21
147.851639
 31
0.0
210
0.0
220
0.0
230
1.0
  0
LINE
  8
0
  6
DASHDOT
 62
     7
 10
138.043335
 20
148.761642
 30
0.0
 11
138.043335
 21
146.941635
 31
0.0
210
0.0
220
0.0
230
1.0
  0
LINE
  8
0
  6
DASHDOT
 62
     7
 10
69.554565
 20
155.791351
 30
0.0
 11
67.734558
 21
155.791351
 31
0.0
210
0.0
220
0.0
230
1.0
  0
LINE
  8
0
  6
DASHDOT
 62
     7
 10
68.644562
 20
156.701355
 30
0.0
 11
68.644562
 21
154.881348
 31
0.0
210
0.0
220
0.0
230
1.0
  0
LINE
  8
0
  6
DASHDOT
 62
     7
 10
74.001015
 20
147.851639
 30
0.0
 11
72.181015
 21
147.851639
 31
0.0
210
0.0
220
0.0
230
1.0
  0
LINE
  8
0
  6
DASHDOT
 62
     7
 10
73.091019
 20
148.761642
 30
0.0
 11
73.091019
 21
146.941635
 31
0.0
210
0.0
220
0.0
230
1.0
  0
LINE
  8
0
  6
DASHDOT
 62
     7
 10
69.59655
 20
150.599945
 30
0.0
 11
67.77655
 21
150.599945
 31
0.0
210
0.0
220
0.0
230
1.0
  0
LINE
  8
0
  6
DASHDOT
 62
     7
 10
68.686554
 20
151.509949
 30
0.0
 11
68.686554
 21
149.689941
 31
0.0
210
0.0
220
0.0
230
1.0
  0
LINE
  8
0
  6
DASHDOT
 62
     7
 10
143.357803
 20
150.599945
 30
0.0
 11
141.537811
 21
150.599945
 31
0.0
210
0.0
220
0.0
230
1.0
  0
LINE
  8
0
  6
DASHDOT
 62
     7
 10
142.4478
 20
151.509949
 30
0.0
 11
142.4478
 21
149.689941
 31
0.0
210
0.0
220
0.0
230
1.0
  0
LINE
  8
0
  6
DASHDOT
 62
     7
 10
64.090927
 20
185.926147
 30
0.0
 11
62.270927
 21
185.926147
 31
0.0
210
0.0
220
0.0
230
1.0
  0
LINE
  8
0
  6
DASHDOT
 62
     7
 10
63.180927
 20
186.836151
 30
0.0
 11
63.180927
 21
185.016144
 31
0.0
210
0.0
220
0.0
230
1.0
  0
LINE
  8
0
  6
DASHDOT
 62
     7
 10
143.399796
 20
185.891357
 30
0.0
 11
141.579788
 21
185.891357
 31
0.0
210
0.0
220
0.0
230
1.0
  0
LINE
  8
0
  6
DASHDOT
 62
     7
 10
142.489792
 20
186.801361
 30
0.0
 11
142.489792
 21
184.981354
 31
0.0
210
0.0
220
0.0
230
1.0
  0
LINE
  8
0
  6
DASHDOT
 62
     7
 10
148.863434
 20
185.926147
 30
0.0
 11
147.043427
 21
185.926147
 31
0.0
210
0.0
220
0.0
230
1.0
  0
LINE
  8
0
  6
DASHDOT
 62
     7
 10
147.95343
 20
186.836151
 30
0.0
 11
147.95343
 21
185.016144
 31
0.0
210
0.0
220
0.0
230
1.0
  0
LINE
  8
0
  6
DASHDOT
 62
     7
 10
138.953339
 20
177.951645
 30
0.0
 11
137.133331
 21
177.951645
 31
0.0
210
0.0
220
0.0
230
1.0
  0
LINE
  8
0
  6
DASHDOT
 62
     7
 10
138.043335
 20
178.861633
 30
0.0
 11
138.043335
 21
177.041641
 31
0.0
210
0.0
220
0.0
230
1.0
  0
LINE
  8
0
  6
DASHDOT
 62
     7
 10
69.554565
 20
185.891357
 30
0.0
 11
67.734558
 21
185.891357
 31
0.0
210
0.0
220
0.0
230
1.0
  0
LINE
  8
0
  6
DASHDOT
 62
     7
 10
68.644562
 20
186.801361
 30
0.0
 11
68.644562
 21
184.981354
 31
0.0
210
0.0
220
0.0
230
1.0
  0
LINE
  8
0
  6
DASHDOT
 62
     7
 10
74.001015
 20
177.951645
 30
0.0
 11
72.181015
 21
177.951645
 31
0.0
210
0.0
220
0.0
230
1.0
  0
LINE
  8
0
  6
DASHDOT
 62
     7
 10
73.091019
 20
178.861633
 30
0.0
 11
73.091019
 21
177.041641
 31
0.0
210
0.0
220
0.0
230
1.0
  0
LINE
  8
0
  6
DASHDOT
 62
     7
 10
69.59655
 20
180.699951
 30
0.0
 11
67.77655
 21
180.699951
 31
0.0
210
0.0
220
0.0
230
1.0
  0
LINE
  8
0
  6
DASHDOT
 62
     7
 10
68.686554
 20
181.609955
 30
0.0
 11
68.686554
 21
179.789948
 31
0.0
210
0.0
220
0.0
230
1.0
  0
LINE
  8
0
  6
DASHDOT
 62
     7
 10
141.755081
 20
184.509338
 30
0.0
 11
139.155075
 21
184.509338
 31
0.0
210
0.0
220
0.0
230
1.0
  0
LINE
  8
0
  6
DASHDOT
 62
     7
 10
140.455078
 20
185.809357
 30
0.0
 11
140.455078
 21
183.209351
 31
0.0
210
0.0
220
0.0
230
1.0
  0
LINE
  8
0
  6
DASHDOT
 62
     7
 10
90.167175
 20
121.420456
 30
0.0
 11
88.347176
 21
121.420456
 31
0.0
210
0.0
220
0.0
230
1.0
  0
LINE
  8
0
  6
DASHDOT
 62
     7
 10
89.257179
 20
122.330452
 30
0.0
 11
89.257179
 21
120.510452
 31
0.0
210
0.0
220
0.0
230
1.0
  0
LINE
  8
0
  6
DASHDOT
 62
     7
 10
80.327179
 20
123.020454
 30
0.0
 11
78.507179
 21
123.020454
 31
0.0
210
0.0
220
0.0
230
1.0
  0
LINE
  8
0
  6
DASHDOT
 62
     7
 10
79.417175
 20
123.93045
 30
0.0
 11
79.417175
 21
122.110451
 31
0.0
210
0.0
220
0.0
230
1.0
  0
LINE
  8
0
  6
DASHDOT
 62
     7
 10
143.357803
 20
180.699951
 30
0.0
 11
141.537811
 21
180.699951
 31
0.0
210
0.0
220
0.0
230
1.0
  0
LINE
  8
0
  6
DASHDOT
 62
     7
 10
142.4478
 20
181.609955
 30
0.0
 11
142.4478
 21
179.789948
 31
0.0
210
0.0
220
0.0
230
1.0
  0
LINE
  8
0
  6
DASHDOT
 62
     7
 10
148.863434
 20
155.826141
 30
0.0
 11
147.043427
 21
155.826141
 31
0.0
210
0.0
220
0.0
230
1.0
  0
LINE
  8
0
  6
DASHDOT
 62
     7
 10
147.95343
 20
156.736145
 30
0.0
 11
147.95343
 21
154.916138
 31
0.0
210
0.0
220
0.0
230
1.0
  0
LINE
  8
0
  6
DASHDOT
 62
     7
 10
64.090927
 20
155.826141
 30
0.0
 11
62.270927
 21
155.826141
 31
0.0
210
0.0
220
0.0
230
1.0
  0
LINE
  8
0
  6
DASHDOT
 62
     7
 10
63.180927
 20
156.736145
 30
0.0
 11
63.180927
 21
154.916138
 31
0.0
210
0.0
220
0.0
230
1.0
  0
LINE
  8
0
  6
DASHDOT
 62
     7
 10
71.979279
 20
154.409348
 30
0.0
 11
69.379272
 21
154.409348
 31
0.0
210
0.0
220
0.0
230
1.0
  0
LINE
  8
0
  6
DASHDOT
 62
     7
 10
70.679276
 20
155.709351
 30
0.0
 11
70.679276
 21
153.109344
 31
0.0
210
0.0
220
0.0
230
1.0
  0
LINE
  8
0
  6
DASHDOT
 62
     7
 10
141.755081
 20
154.409348
 30
0.0
 11
139.155075
 21
154.409348
 31
0.0
210
0.0
220
0.0
230
1.0
  0
LINE
  8
0
  6
DASHDOT
 62
     7
 10
140.455078
 20
155.709351
 30
0.0
 11
140.455078
 21
153.109344
 31
0.0
210
0.0
220
0.0
230
1.0
  0
LINE
  8
0
  6
DASHDOT
 62
     7
 10
71.979279
 20
184.509338
 30
0.0
 11
69.379272
 21
184.509338
 31
0.0
210
0.0
220
0.0
230
1.0
  0
LINE
  8
0
  6
DASHDOT
 62
     7
 10
70.679276
 20
185.809357
 30
0.0
 11
70.679276
 21
183.209351
 31
0.0
210
0.0
220
0.0
230
1.0
  0
LINE
  8
0
  6
DASHDOT
 62
     7
 10
95.377174
 20
119.07045
 30
0.0
 11
93.557175
 21
119.07045
 31
0.0
210
0.0
220
0.0
230
1.0
  0
LINE
  8
0
  6
DASHDOT
 62
     7
 10
94.467178
 20
119.980453
 30
0.0
 11
94.467178
 21
118.160454
 31
0.0
210
0.0
220
0.0
230
1.0
  0
LINE
  8
0
  6
DASHDOT
 62
     7
 10
117.577179
 20
119.07045
 30
0.0
 11
115.757179
 21
119.07045
 31
0.0
210
0.0
220
0.0
230
1.0
  0
LINE
  8
0
  6
DASHDOT
 62
     7
 10
116.667175
 20
119.980453
 30
0.0
 11
116.667175
 21
118.160454
 31
0.0
210
0.0
220
0.0
230
1.0
  0
LINE
  8
0
  6
DASHDOT
 62
     7
 10
113.227173
 20
119.07045
 30
0.0
 11
111.407181
 21
119.07045
 31
0.0
210
0.0
220
0.0
230
1.0
  0
LINE
  8
0
  6
DASHDOT
 62
     7
 10
112.317177
 20
119.980453
 30
0.0
 11
112.317177
 21
118.160454
 31
0.0
210
0.0
220
0.0
230
1.0
  0
LINE
  8
0
  6
DASHDOT
 62
     7
 10
99.727173
 20
119.07045
 30
0.0
 11
97.907181
 21
119.07045
 31
0.0
210
0.0
220
0.0
230
1.0
  0
LINE
  8
0
  6
DASHDOT
 62
     7
 10
98.817177
 20
119.980453
 30
0.0
 11
98.817177
 21
118.160454
 31
0.0
210
0.0
220
0.0
230
1.0
  0
LINE
  8
0
  6
DASHDOT
 62
     7
 10
99.987175
 20
127.230453
 30
0.0
 11
97.647179
 21
127.230453
 31
0.0
210
0.0
220
0.0
230
1.0
  0
LINE
  8
0
  6
DASHDOT
 62
     7
 10
98.817177
 20
128.400452
 30
0.0
 11
98.817177
 21
126.060455
 31
0.0
210
0.0
220
0.0
230
1.0
  0
LINE
  8
0
  6
DASHDOT
 62
     7
 10
113.487175
 20
127.230453
 30
0.0
 11
111.147179
 21
127.230453
 31
0.0
210
0.0
220
0.0
230
1.0
  0
LINE
  8
0
  6
DASHDOT
 62
     7
 10
112.317177
 20
128.400452
 30
0.0
 11
112.317177
 21
126.060455
 31
0.0
210
0.0
220
0.0
230
1.0
  0
LINE
  8
0
  6
DASHDOT
 62
     7
 10
144.677185
 20
213.82045
 30
0.0
 11
141.557175
 21
213.82045
 31
0.0
210
0.0
220
0.0
230
1.0
  0
LINE
  8
0
  6
DASHDOT
 62
     7
 10
143.117172
 20
215.380463
 30
0.0
 11
143.117172
 21
212.260452
 31
0.0
210
0.0
220
0.0
230
1.0
  0
POLYLINE
  8
0
 62
     7
 66
     1
 10
0.0
 20
0.0
 30
0.0
 70
     1
 71
    12
  0
VERTEX
  8
0
 10
56.741203
 20
228.44104
 30
0.0
  0
VERTEX
  8
0
 10
56.962692
 20
228.44104
 30
0.0
  0
VERTEX
  8
0
 10
56.962692
 20
229.612808
 30
0.0
  0
VERTEX
  8
0
 10
57.805702
 20
229.612808
 30
0.0
  0
VERTEX
  8
0
 10
57.805702
 20
228.44104
 30
0.0
  0
VERTEX
  8
0
 10
58.027191
 20
228.44104
 30
0.0
  0
VERTEX
  8
0
 10
58.027191
 20
230.94104
 30
0.0
  0
VERTEX
  8
0
 10
57.805702
 20
230.94104
 30
0.0
  0
VERTEX
  8
0
 10
57.805702
 20
229.915314
 30
0.0
  0
VERTEX
  8
0
 10
56.962692
 20
229.915314
 30
0.0
  0
VERTEX
  8
0
 10
56.962692
 20
230.94104
 30
0.0
  0
VERTEX
  8
0
 10
56.741203
 20
230.94104
 30
0.0
  0
SEQEND
  8
0
  0
POLYLINE
  8
0
 62
     7
 66
     1
 10
0.0
 20
0.0
 30
0.0
 70
     1
 71
    32
  0
VERTEX
  8
0
 10
58.80518
 20
229.689301
 30
0.0
  0
VERTEX
  8
0
 10
58.816483
 20
229.390274
 30
0.0
  0
VERTEX
  8
0
 10
58.857162
 20
229.129501
 30
0.0
  0
VERTEX
  8
0
 10
58.922707
 20
228.903488
 30
0.0
  0
VERTEX
  8
0
 10
59.010849
 20
228.715729
 30
0.0
  0
VERTEX
  8
0
 10
59.121593
 20
228.566208
 30
0.0
  0
VERTEX
  8
0
 10
59.252678
 20
228.45842
 30
0.0
  0
VERTEX
  8
0
 10
59.404102
 20
228.395844
 30
0.0
  0
VERTEX
  8
0
 10
59.575871
 20
228.371506
 30
0.0
  0
VERTEX
  8
0
 10
59.745377
 20
228.395844
 30
0.0
  0
VERTEX
  8
0
 10
59.896801
 20
228.45842
 30
0.0
  0
VERTEX
  8
0
 10
60.027885
 20
228.566208
 30
0.0
  0
VERTEX
  8
0
 10
60.13863
 20
228.715729
 30
0.0
  0
VERTEX
  8
0
 10
60.226772
 20
228.903488
 30
0.0
  0
VERTEX
  8
0
 10
60.290054
 20
229.129501
 30
0.0
  0
VERTEX
  8
0
 10
60.328476
 20
229.390274
 30
0.0
  0
VERTEX
  8
0
 10
60.344299
 20
229.689301
 30
0.0
  0
VERTEX
  8
0
 10
60.330738
 20
229.984848
 30
0.0
  0
VERTEX
  8
0
 10
60.290054
 20
230.245636
 30
0.0
  0
VERTEX
  8
0
 10
60.224514
 20
230.471634
 30
0.0
  0
VERTEX
  8
0
 10
60.13863
 20
230.659393
 30
0.0
  0
VERTEX
  8
0
 10
60.027885
 20
230.808914
 30
0.0
  0
VERTEX
  8
0
 10
59.896801
 20
230.916702
 30
0.0
  0
VERTEX
  8
0
 10
59.745377
 20
230.982758
 30
0.0
  0
VERTEX
  8
0
 10
59.575871
 20
231.007111
 30
0.0
  0
VERTEX
  8
0
 10
59.404102
 20
230.982758
 30
0.0
  0
VERTEX
  8
0
 10
59.252678
 20
230.916702
 30
0.0
  0
VERTEX
  8
0
 10
59.121593
 20
230.808914
 30
0.0
  0
VERTEX
  8
0
 10
59.010849
 20
230.659393
 30
0.0
  0
VERTEX
  8
0
 10
58.922707
 20
230.471634
 30
0.0
  0
VERTEX
  8
0
 10
58.857162
 20
230.245636
 30
0.0
  0
VERTEX
  8
0
 10
58.816483
 20
229.984848
 30
0.0
  0
SEQEND
  8
0
  0
POLYLINE
  8
0
 62
     7
 66
     1
 10
0.0
 20
0.0
 30
0.0
 70
     1
 71
    16
  0
VERTEX
  8
0
 10
59.033451
 20
229.689301
 30
0.0
  0
VERTEX
  8
0
 10
59.069611
 20
230.120453
 30
0.0
  0
VERTEX
  8
0
 10
59.178093
 20
230.443817
 30
0.0
  0
VERTEX
  8
0
 10
59.349861
 20
230.642014
 30
0.0
  0
VERTEX
  8
0
 10
59.575871
 20
230.711548
 30
0.0
  0
VERTEX
  8
0
 10
59.799618
 20
230.642014
 30
0.0
  0
VERTEX
  8
0
 10
59.971382
 20
230.443817
 30
0.0
  0
VERTEX
  8
0
 10
60.077606
 20
230.120453
 30
0.0
  0
VERTEX
  8
0
 10
60.116028
 20
229.689301
 30
0.0
  0
VERTEX
  8
0
 10
60.077606
 20
229.254669
 30
0.0
  0
VERTEX
  8
0
 10
59.971382
 20
228.931305
 30
0.0
  0
VERTEX
  8
0
 10
59.799618
 20
228.733109
 30
0.0
  0
VERTEX
  8
0
 10
59.575871
 20
228.667053
 30
0.0
  0
VERTEX
  8
0
 10
59.349861
 20
228.733109
 30
0.0
  0
VERTEX
  8
0
 10
59.178093
 20
228.931305
 30
0.0
  0
VERTEX
  8
0
 10
59.069611
 20
229.254669
 30
0.0
  0
SEQEND
  8
0
  0
POLYLINE
  8
0
 62
     7
 66
     1
 10
0.0
 20
0.0
 30
0.0
 70
     1
 71
     6
  0
VERTEX
  8
0
 10
61.122288
 20
228.44104
 30
0.0
  0
VERTEX
  8
0
 10
62.155148
 20
228.44104
 30
0.0
  0
VERTEX
  8
0
 10
62.155148
 20
228.757446
 30
0.0
  0
VERTEX
  8
0
 10
61.346035
 20
228.757446
 30
0.0
  0
VERTEX
  8
0
 10
61.346035
 20
230.94104
 30
0.0
  0
VERTEX
  8
0
 10
61.122288
 20
230.94104
 30
0.0
  0
SEQEND
  8
0
  0
POLYLINE
  8
0
 62
     7
 66
     1
 10
0.0
 20
0.0
 30
0.0
 70
     1
 71
    12
  0
VERTEX
  8
0
 10
62.831432
 20
228.44104
 30
0.0
  0
VERTEX
  8
0
 10
64.008934
 20
228.44104
 30
0.0
  0
VERTEX
  8
0
 10
64.008934
 20
228.753967
 30
0.0
  0
VERTEX
  8
0
 10
63.050659
 20
228.753967
 30
0.0
  0
VERTEX
  8
0
 10
63.050659
 20
229.591949
 30
0.0
  0
VERTEX
  8
0
 10
63.918533
 20
229.591949
 30
0.0
  0
VERTEX
  8
0
 10
63.918533
 20
229.884018
 30
0.0
  0
VERTEX
  8
0
 10
63.050659
 20
229.884018
 30
0.0
  0
VERTEX
  8
0
 10
63.050659
 20
230.631577
 30
0.0
  0
VERTEX
  8
0
 10
63.990856
 20
230.631577
 30
0.0
  0
VERTEX
  8
0
 10
63.990856
 20
230.94104
 30
0.0
  0
VERTEX
  8
0
 10
62.831432
 20
230.94104
 30
0.0
  0
SEQEND
  8
0
  0
POLYLINE
  8
0
 62
     7
 66
     1
 10
0.0
 20
0.0
 30
0.0
 70
     1
 71
    15
  0
VERTEX
  8
0
 10
65.89489
 20
228.44104
 30
0.0
  0
VERTEX
  8
0
 10
66.116379
 20
228.44104
 30
0.0
  0
VERTEX
  8
0
 10
66.116379
 20
229.494583
 30
0.0
  0
VERTEX
  8
0
 10
66.450867
 20
229.494583
 30
0.0
  0
VERTEX
  8
0
 10
66.672356
 20
229.508499
 30
0.0
  0
VERTEX
  8
0
 10
66.848648
 20
229.595428
 30
0.0
  0
VERTEX
  8
0
 10
67.002327
 20
229.845764
 30
0.0
  0
VERTEX
  8
0
 10
67.056572
 20
230.217819
 30
0.0
  0
VERTEX
  8
0
 10
67.040749
 20
230.422958
 30
0.0
  0
VERTEX
  8
0
 10
67.002327
 20
230.600296
 30
0.0
  0
VERTEX
  8
0
 10
66.93679
 20
230.742844
 30
0.0
  0
VERTEX
  8
0
 10
66.850906
 20
230.847153
 30
0.0
  0
VERTEX
  8
0
 10
66.683655
 20
230.92366
 30
0.0
  0
VERTEX
  8
0
 10
66.493813
 20
230.94104
 30
0.0
  0
VERTEX
  8
0
 10
65.89489
 20
230.94104
 30
0.0
  0
SEQEND
  8
0
  0
POLYLINE
  8
0
 62
     7
 66
     1
 10
0.0
 20
0.0
 30
0.0
 70
     1
 71
    11
  0
VERTEX
  8
0
 10
66.116379
 20
229.797089
 30
0.0
  0
VERTEX
  8
0
 10
66.116379
 20
230.635056
 30
0.0
  0
VERTEX
  8
0
 10
66.502853
 20
230.635056
 30
0.0
  0
VERTEX
  8
0
 10
66.649757
 20
230.610718
 30
0.0
  0
VERTEX
  8
0
 10
66.751457
 20
230.541183
 30
0.0
  0
VERTEX
  8
0
 10
66.812485
 20
230.412521
 30
0.0
  0
VERTEX
  8
0
 10
66.832825
 20
230.217819
 30
0.0
  0
VERTEX
  8
0
 10
66.812485
 20
230.012665
 30
0.0
  0
VERTEX
  8
0
 10
66.749199
 20
229.884018
 30
0.0
  0
VERTEX
  8
0
 10
66.640717
 20
229.814468
 30
0.0
  0
VERTEX
  8
0
 10
66.48703
 20
229.797089
 30
0.0
  0
SEQEND
  8
0
  0
POLYLINE
  8
0
 62
     7
 66
     1
 10
0.0
 20
0.0
 30
0.0
 70
     1
 71
     8
  0
VERTEX
  8
0
 10
67.637932
 20
228.44104
 30
0.0
  0
VERTEX
  8
0
 10
67.866203
 20
228.44104
 30
0.0
  0
VERTEX
  8
0
 10
68.04023
 20
229.188599
 30
0.0
  0
VERTEX
  8
0
 10
68.679832
 20
229.188599
 30
0.0
  0
VERTEX
  8
0
 10
68.851601
 20
228.44104
 30
0.0
  0
VERTEX
  8
0
 10
69.091171
 20
228.44104
 30
0.0
  0
VERTEX
  8
0
 10
68.485466
 20
230.94104
 30
0.0
  0
VERTEX
  8
0
 10
68.241379
 20
230.94104
 30
0.0
  0
SEQEND
  8
0
  0
POLYLINE
  8
0
 62
     7
 66
     1
 10
0.0
 20
0.0
 30
0.0
 70
     1
 71
     3
  0
VERTEX
  8
0
 10
68.108032
 20
229.480682
 30
0.0
  0
VERTEX
  8
0
 10
68.363419
 20
230.582901
 30
0.0
  0
VERTEX
  8
0
 10
68.614288
 20
229.480682
 30
0.0
  0
SEQEND
  8
0
  0
POLYLINE
  8
0
 62
     7
 66
     1
 10
0.0
 20
0.0
 30
0.0
 70
     1
 71
     8
  0
VERTEX
  8
0
 10
70.117767
 20
228.44104
 30
0.0
  0
VERTEX
  8
0
 10
70.339256
 20
228.44104
 30
0.0
  0
VERTEX
  8
0
 10
70.339256
 20
230.638535
 30
0.0
  0
VERTEX
  8
0
 10
70.852295
 20
230.638535
 30
0.0
  0
VERTEX
  8
0
 10
70.852295
 20
230.94104
 30
0.0
  0
VERTEX
  8
0
 10
69.604729
 20
230.94104
 30
0.0
  0
VERTEX
  8
0
 10
69.604729
 20
230.638535
 30
0.0
  0
VERTEX
  8
0
 10
70.117767
 20
230.638535
 30
0.0
  0
SEQEND
  8
0
  0
POLYLINE
  8
0
 62
     7
 66
     1
 10
0.0
 20
0.0
 30
0.0
 70
     1
 71
     8
  0
VERTEX
  8
0
 10
71.908272
 20
228.44104
 30
0.0
  0
VERTEX
  8
0
 10
72.129761
 20
228.44104
 30
0.0
  0
VERTEX
  8
0
 10
72.129761
 20
230.638535
 30
0.0
  0
VERTEX
  8
0
 10
72.642799
 20
230.638535
 30
0.0
  0
VERTEX
  8
0
 10
72.642799
 20
230.94104
 30
0.0
  0
VERTEX
  8
0
 10
71.395233
 20
230.94104
 30
0.0
  0
VERTEX
  8
0
 10
71.395233
 20
230.638535
 30
0.0
  0
VERTEX
  8
0
 10
71.908272
 20
230.638535
 30
0.0
  0
SEQEND
  8
0
  0
POLYLINE
  8
0
 62
     7
 66
     1
 10
0.0
 20
0.0
 30
0.0
 70
     1
 71
    12
  0
VERTEX
  8
0
 10
73.339432
 20
228.44104
 30
0.0
  0
VERTEX
  8
0
 10
74.516937
 20
228.44104
 30
0.0
  0
VERTEX
  8
0
 10
74.516937
 20
228.753967
 30
0.0
  0
VERTEX
  8
0
 10
73.558655
 20
228.753967
 30
0.0
  0
VERTEX
  8
0
 10
73.558655
 20
229.591949
 30
0.0
  0
VERTEX
  8
0
 10
74.426529
 20
229.591949
 30
0.0
  0
VERTEX
  8
0
 10
74.426529
 20
229.884018
 30
0.0
  0
VERTEX
  8
0
 10
73.558655
 20
229.884018
 30
0.0
  0
VERTEX
  8
0
 10
73.558655
 20
230.631577
 30
0.0
  0
VERTEX
  8
0
 10
74.498856
 20
230.631577
 30
0.0
  0
VERTEX
  8
0
 10
74.498856
 20
230.94104
 30
0.0
  0
VERTEX
  8
0
 10
73.339432
 20
230.94104
 30
0.0
  0
SEQEND
  8
0
  0
POLYLINE
  8
0
 62
     7
 66
     1
 10
0.0
 20
0.0
 30
0.0
 70
     1
 71
    30
  0
VERTEX
  8
0
 10
75.283623
 20
230.94104
 30
0.0
  0
VERTEX
  8
0
 10
75.283623
 20
228.44104
 30
0.0
  0
VERTEX
  8
0
 10
75.502853
 20
228.44104
 30
0.0
  0
VERTEX
  8
0
 10
75.502853
 20
229.511978
 30
0.0
  0
VERTEX
  8
0
 10
75.85994
 20
229.511978
 30
0.0
  0
VERTEX
  8
0
 10
76.031708
 20
229.501541
 30
0.0
  0
VERTEX
  8
0
 10
76.137932
 20
229.449387
 30
0.0
  0
VERTEX
  8
0
 10
76.196701
 20
229.331161
 30
0.0
  0
VERTEX
  8
0
 10
76.221558
 20
229.112106
 30
0.0
  0
VERTEX
  8
0
 10
76.235115
 20
228.785263
 30
0.0
  0
VERTEX
  8
0
 10
76.246414
 20
228.587082
 30
0.0
  0
VERTEX
  8
0
 10
76.278061
 20
228.44104
 30
0.0
  0
VERTEX
  8
0
 10
76.533447
 20
228.44104
 30
0.0
  0
VERTEX
  8
0
 10
76.533447
 20
228.510574
 30
0.0
  0
VERTEX
  8
0
 10
76.479202
 20
228.61142
 30
0.0
  0
VERTEX
  8
0
 10
76.458862
 20
228.802658
 30
0.0
  0
VERTEX
  8
0
 10
76.440781
 20
229.212952
 30
0.0
  0
VERTEX
  8
0
 10
76.424965
 20
229.386795
 30
0.0
  0
VERTEX
  8
0
 10
76.395584
 20
229.5224
 30
0.0
  0
VERTEX
  8
0
 10
76.341339
 20
229.616287
 30
0.0
  0
VERTEX
  8
0
 10
76.255463
 20
229.678864
 30
0.0
  0
VERTEX
  8
0
 10
76.35038
 20
229.772751
 30
0.0
  0
VERTEX
  8
0
 10
76.420441
 20
229.901398
 30
0.0
  0
VERTEX
  8
0
 10
76.463387
 20
230.057861
 30
0.0
  0
VERTEX
  8
0
 10
76.479202
 20
230.2491
 30
0.0
  0
VERTEX
  8
0
 10
76.463387
 20
230.443817
 30
0.0
  0
VERTEX
  8
0
 10
76.424965
 20
230.614197
 30
0.0
  0
VERTEX
  8
0
 10
76.26902
 20
230.854111
 30
0.0
  0
VERTEX
  8
0
 10
76.104034
 20
230.927139
 30
0.0
  0
VERTEX
  8
0
 10
75.914185
 20
230.94104
 30
0.0
  0
SEQEND
  8
0
  0
POLYLINE
  8
0
 62
     7
 66
     1
 10
0.0
 20
0.0
 30
0.0
 70
     1
 71
    11
  0
VERTEX
  8
0
 10
75.500595
 20
230.648972
 30
0.0
  0
VERTEX
  8
0
 10
75.878021
 20
230.648972
 30
0.0
  0
VERTEX
  8
0
 10
76.03849
 20
230.631577
 30
0.0
  0
VERTEX
  8
0
 10
76.156013
 20
230.569
 30
0.0
  0
VERTEX
  8
0
 10
76.226074
 20
230.447296
 30
0.0
  0
VERTEX
  8
0
 10
76.250938
 20
230.242157
 30
0.0
  0
VERTEX
  8
0
 10
76.226074
 20
230.03006
 30
0.0
  0
VERTEX
  8
0
 10
76.158279
 20
229.894455
 30
0.0
  0
VERTEX
  8
0
 10
76.040749
 20
229.821426
 30
0.0
  0
VERTEX
  8
0
 10
75.878021
 20
229.800568
 30
0.0
  0
VERTEX
  8
0
 10
75.500595
 20
229.800568
 30
0.0
  0
SEQEND
  8
0
  0
POLYLINE
  8
0
 62
     7
 66
     1
 10
0.0
 20
0.0
 30
0.0
 70
     1
 71
    12
  0
VERTEX
  8
0
 10
77.282059
 20
228.44104
 30
0.0
  0
VERTEX
  8
0
 10
77.492249
 20
228.44104
 30
0.0
  0
VERTEX
  8
0
 10
77.492249
 20
230.468155
 30
0.0
  0
VERTEX
  8
0
 10
77.553268
 20
230.283875
 30
0.0
  0
VERTEX
  8
0
 10
78.328476
 20
228.44104
 30
0.0
  0
VERTEX
  8
0
 10
78.568047
 20
228.44104
 30
0.0
  0
VERTEX
  8
0
 10
78.568047
 20
230.94104
 30
0.0
  0
VERTEX
  8
0
 10
78.357857
 20
230.94104
 30
0.0
  0
VERTEX
  8
0
 10
78.357857
 20
228.913925
 30
0.0
  0
VERTEX
  8
0
 10
78.283272
 20
229.126022
 30
0.0
  0
VERTEX
  8
0
 10
77.523888
 20
230.94104
 30
0.0
  0
VERTEX
  8
0
 10
77.282059
 20
230.94104
 30
0.0
  0
SEQEND
  8
0
  0
LINE
  8
0
 62
     7
 10
71.981392
 20
116.620453
 30
0.0
 11
77.067177
 21
116.620453
 31
0.0
210
0.0
220
0.0
230
1.0
  0
LINE
  8
0
 62
     7
 10
77.467178
 20
123.620453
 30
0.0
 11
77.467178
 21
123.628502
 31
0.0
210
0.0
220
0.0
230
1.0
  0
ARC
  8
0
 62
     7
 10
70.567177
 20
116.120453
 30
0.0
 40
1.5
 50
19.471222
 51
42.833428
210
0.0
220
0.0
230
1.0
  0
ARC
  8
0
 62
     7
 10
82.067177
 20
117.620453
 30
0.0
 40
1.5
 50
90.000003
 51
180.000005
210
0.0
220
0.0
230
1.0
  0
ARC
  8
0
 62
     7
 10
91.36718
 20
117.620453
 30
0.0
 40
1.5
 50
25.841934
 51
90.000003
210
0.0
220
0.0
230
1.0
  0
ARC
  8
0
 62
     7
 10
91.36718
 20
117.620453
 30
0.0
 40
1.5
 50
20.000001
 51
25.841934
210
0.0
220
0.0
230
1.0
  0
LINE
  8
0
 62
     7
 10
92.776718
 20
118.133484
 30
0.0
 11
93.327415
 21
116.620453
 31
0.0
210
0.0
220
0.0
230
1.0
  0
LINE
  8
0
 62
     7
 10
121.867172
 20
117.020454
 30
0.0
 11
121.174355
 21
116.620453
 31
0.0
210
0.0
220
0.0
230
1.0
  0
LINE
  8
0
 62
     7
 10
121.867172
 20
117.020454
 30
0.0
 11
121.867172
 21
118.82045
 31
0.0
210
0.0
220
0.0
230
1.0
  0
ARC
  8
0
 62
     7
 10
123.067177
 20
118.82045
 30
0.0
 40
1.2
 50
0.0
 51
180.000005
210
0.0
220
0.0
230
1.0
  0
LINE
  8
0
 62
     7
 10
124.267181
 20
118.82045
 30
0.0
 11
124.267181
 21
116.620453
 31
0.0
210
0.0
220
0.0
230
1.0
  0
ARC
  8
0
 62
     7
 10
140.567169
 20
116.120453
 30
0.0
 40
1.5
 50
90.000003
 51
99.808543
210
0.0
220
0.0
230
1.0
  0
ARC
  8
0
 62
     7
 10
140.567169
 20
116.120453
 30
0.0
 40
1.5
 50
99.808543
 51
137.166577
210
0.0
220
0.0
230
1.0
  0
ARC
  8
0
 62
     7
 10
140.567169
 20
116.120453
 30
0.0
 40
1.5
 50
137.166577
 51
160.528775
210
0.0
220
0.0
230
1.0
  0
LINE
  8
0
 62
     7
 10
149.567169
 20
157.124847
 30
0.0
 11
149.567169
 21
154.386612
 31
0.0
210
0.0
220
0.0
230
1.0
  0
LINE
  8
0
 62
     7
 10
149.567169
 20
157.124847
 30
0.0
 11
143.070984
 21
160.762878
 31
0.0
210
0.0
220
0.0
230
1.0
  0
ARC
  8
0
 62
     7
 10
143.803925
 20
162.071625
 30
0.0
 40
1.5
 50
150.750007
 51
240.750006
210
0.0
220
0.0
230
1.0
  0
LINE
  8
0
 62
     7
 10
144.414658
 20
166.232056
 30
0.0
 11
142.495178
 21
162.804565
 31
0.0
210
0.0
220
0.0
230
1.0
  0
LINE
  8
0
 62
     7
 10
144.414658
 20
166.232056
 30
0.0
 11
142.674423
 21
167.206635
 31
0.0
210
0.0
220
0.0
230
1.0
  0
LINE
  8
0
 62
     7
 10
142.674423
 20
167.206635
 30
0.0
 11
142.289795
 21
167.422043
 31
0.0
210
0.0
220
0.0
230
1.0
  0
ARC
  8
0
 62
     7
 10
143.02272
 20
168.730774
 30
0.0
 40
1.5
 50
150.750007
 51
240.750006
210
0.0
220
0.0
230
1.0
  0
LINE
  8
0
 62
     7
 10
149.219849
 20
182.866409
 30
0.0
 11
141.713974
 21
169.463715
 31
0.0
210
0.0
220
0.0
230
1.0
  0
LINE
  8
0
 62
     7
 10
149.567169
 20
183.486603
 30
0.0
 11
149.219849
 21
182.866409
 31
0.0
210
0.0
220
0.0
230
1.0
  0
LINE
  8
0
 62
     7
 10
149.567169
 20
183.486603
 30
0.0
 11
149.567169
 21
187.224854
 31
0.0
210
0.0
220
0.0
230
1.0
  0
LINE
  8
0
 62
     7
 10
149.567169
 20
187.224854
 30
0.0
 11
143.070984
 21
190.862885
 31
0.0
210
0.0
220
0.0
230
1.0
  0
ARC
  8
0
 62
     7
 10
143.803925
 20
192.171631
 30
0.0
 40
1.5
 50
150.750007
 51
240.750006
210
0.0
220
0.0
230
1.0
  0
LINE
  8
0
 62
     7
 10
144.414658
 20
196.332062
 30
0.0
 11
142.495178
 21
192.904572
 31
0.0
210
0.0
220
0.0
230
1.0
  0
LINE
  8
0
 62
     7
 10
144.414658
 20
196.332062
 30
0.0
 11
143.032288
 21
197.106216
 31
0.0
210
0.0
220
0.0
230
1.0
  0
ARC
  8
0
 62
     7
 10
143.52092
 20
197.978714
 30
0.0
 40
1.0
 50
163.750001
 51
215.394254
210
0.0
220
0.0
230
1.0
  0
ARC
  8
0
 62
     7
 10
143.52092
 20
197.978714
 30
0.0
 40
1.0
 50
215.394254
 51
240.750006
210
0.0
220
0.0
230
1.0
  0
LINE
  8
0
 62
     7
 10
144.066422
 20
203.423889
 30
0.0
 11
142.560867
 21
198.258545
 31
0.0
210
0.0
220
0.0
230
1.0
  0
ARC
  8
0
 62
     7
 10
145.5065
 20
203.00415
 30
0.0
 40
1.5
 50
150.750007
 51
163.750001
210
0.0
220
0.0
230
1.0
  0
LINE
  8
0
 62
     7
 10
144.197754
 20
203.737061
 30
0.0
 11
147.567169
 21
209.753601
 31
0.0
210
0.0
220
0.0
230
1.0
  0
LINE
  8
0
 62
     7
 10
63.567177
 20
209.753601
 30
0.0
 11
66.9366
 21
203.737061
 31
0.0
210
0.0
220
0.0
230
1.0
  0
ARC
  8
0
 62
     7
 10
65.627853
 20
203.00415
 30
0.0
 40
1.5
 50
16.25
 51
29.249998
210
0.0
220
0.0
230
1.0
  0
LINE
  8
0
 62
     7
 10
67.067932
 20
203.423889
 30
0.0
 11
68.573486
 21
198.258545
 31
0.0
210
0.0
220
0.0
230
1.0
  0
ARC
  8
0
 62
     7
 10
67.613434
 20
197.978714
 30
0.0
 40
1.0
 50
324.605748
 51
16.25
210
0.0
220
0.0
230
1.0
  0
ARC
  8
0
 62
     7
 10
67.613434
 20
197.978714
 30
0.0
 40
1.0
 50
299.250003
 51
324.605748
210
0.0
220
0.0
230
1.0
  0
LINE
  8
0
 62
     7
 10
66.719696
 20
196.332062
 30
0.0
 11
68.102058
 21
197.106216
 31
0.0
210
0.0
220
0.0
230
1.0
  0
LINE
  8
0
 62
     7
 10
66.719696
 20
196.332062
 30
0.0
 11
68.639175
 21
192.904572
 31
0.0
210
0.0
220
0.0
230
1.0
  0
ARC
  8
0
 62
     7
 10
67.330429
 20
192.171631
 30
0.0
 40
1.5
 50
299.250003
 51
29.249998
210
0.0
220
0.0
230
1.0
  0
LINE
  8
0
 62
     7
 10
61.567177
 20
187.224854
 30
0.0
 11
68.06337
 21
190.862885
 31
0.0
210
0.0
220
0.0
230
1.0
  0
LINE
  8
0
 62
     7
 10
61.567177
 20
183.486603
 30
0.0
 11
61.567177
 21
187.224854
 31
0.0
210
0.0
220
0.0
230
1.0
  0
LINE
  8
0
 62
     7
 10
61.567177
 20
183.486603
 30
0.0
 11
61.914505
 21
182.866409
 31
0.0
210
0.0
220
0.0
230
1.0
  0
LINE
  8
0
 62
     7
 10
61.914505
 20
182.866409
 30
0.0
 11
69.42038
 21
169.463715
 31
0.0
210
0.0
220
0.0
230
1.0
  0
ARC
  8
0
 62
     7
 10
68.111633
 20
168.730774
 30
0.0
 40
1.5
 50
299.250003
 51
29.249998
210
0.0
220
0.0
230
1.0
  0
LINE
  8
0
 62
     7
 10
68.45993
 20
167.206635
 30
0.0
 11
68.844559
 21
167.422043
 31
0.0
210
0.0
220
0.0
230
1.0
  0
LINE
  8
0
 62
     7
 10
66.719696
 20
166.232056
 30
0.0
 11
68.45993
 21
167.206635
 31
0.0
210
0.0
220
0.0
230
1.0
  0
LINE
  8
0
 62
     7
 10
66.719696
 20
166.232056
 30
0.0
 11
68.639175
 21
162.804565
 31
0.0
210
0.0
220
0.0
230
1.0
  0
ARC
  8
0
 62
     7
 10
67.330429
 20
162.071625
 30
0.0
 40
1.5
 50
299.250003
 51
29.249998
210
0.0
220
0.0
230
1.0
  0
LINE
  8
0
 62
     7
 10
61.567177
 20
157.124847
 30
0.0
 11
68.06337
 21
160.762878
 31
0.0
210
0.0
220
0.0
230
1.0
  0
LINE
  8
0
 62
     7
 10
61.567177
 20
157.124847
 30
0.0
 11
61.567177
 21
154.386612
 31
0.0
210
0.0
220
0.0
230
1.0
  0
CIRCLE
  8
0
 62
     7
 10
142.489792
 20
155.791351
 30
0.0
 40
0.7
210
0.0
220
0.0
230
1.0
  0
CIRCLE
  8
0
 62
     7
 10
138.043335
 20
147.851639
 30
0.0
 40
0.7
210
0.0
220
0.0
230
1.0
  0
CIRCLE
  8
0
 62
     7
 10
68.644562
 20
155.791351
 30
0.0
 40
0.7
210
0.0
220
0.0
230
1.0
  0
CIRCLE
  8
0
 62
     7
 10
73.091019
 20
147.851639
 30
0.0
 40
0.7
210
0.0
220
0.0
230
1.0
  0
CIRCLE
  8
0
 62
     7
 10
68.686554
 20
150.599945
 30
0.0
 40
0.7
210
0.0
220
0.0
230
1.0
  0
CIRCLE
  8
0
 62
     7
 10
142.4478
 20
150.599945
 30
0.0
 40
0.7
210
0.0
220
0.0
230
1.0
  0
CIRCLE
  8
0
 62
     7
 10
63.180927
 20
185.926147
 30
0.0
 40
0.7
210
0.0
220
0.0
230
1.0
  0
CIRCLE
  8
0
 62
     7
 10
142.489792
 20
185.891357
 30
0.0
 40
0.7
210
0.0
220
0.0
230
1.0
  0
CIRCLE
  8
0
 62
     7
 10
147.95343
 20
185.926147
 30
0.0
 40
0.7
210
0.0
220
0.0
230
1.0
  0
CIRCLE
  8
0
 62
     7
 10
138.043335
 20
177.951645
 30
0.0
 40
0.7
210
0.0
220
0.0
230
1.0
  0
CIRCLE
  8
0
 62
     7
 10
68.644562
 20
185.891357
 30
0.0
 40
0.7
210
0.0
220
0.0
230
1.0
  0
CIRCLE
  8
0
 62
     7
 10
73.091019
 20
177.951645
 30
0.0
 40
0.7
210
0.0
220
0.0
230
1.0
  0
CIRCLE
  8
0
 62
     7
 10
68.686554
 20
180.699951
 30
0.0
 40
0.7
210
0.0
220
0.0
230
1.0
  0
CIRCLE
  8
0
 62
     7
 10
140.455078
 20
184.509338
 30
0.0
 40
1.0
210
0.0
220
0.0
230
1.0
  0
CIRCLE
  8
0
 62
     7
 10
89.257179
 20
121.420456
 30
0.0
 40
0.7
210
0.0
220
0.0
230
1.0
  0
CIRCLE
  8
0
 62
     7
 10
79.417175
 20
123.020454
 30
0.0
 40
0.7
210
0.0
220
0.0
230
1.0
  0
CIRCLE
  8
0
 62
     7
 10
142.4478
 20
180.699951
 30
0.0
 40
0.7
210
0.0
220
0.0
230
1.0
  0
CIRCLE
  8
0
 62
     7
 10
147.95343
 20
155.826141
 30
0.0
 40
0.7
210
0.0
220
0.0
230
1.0
  0
CIRCLE
  8
0
 62
     7
 10
63.180927
 20
155.826141
 30
0.0
 40
0.7
210
0.0
220
0.0
230
1.0
  0
CIRCLE
  8
0
 62
     7
 10
70.679276
 20
154.409348
 30
0.0
 40
1.0
210
0.0
220
0.0
230
1.0
  0
CIRCLE
  8
0
 62
     7
 10
140.455078
 20
154.409348
 30
0.0
 40
1.0
210
0.0
220
0.0
230
1.0
  0
CIRCLE
  8
0
 62
     7
 10
70.679276
 20
184.509338
 30
0.0
 40
1.0
210
0.0
220
0.0
230
1.0
  0
LINE
  8
0
 62
     7
 10
105.567177
 20
116.620453
 30
0.0
 11
118.417175
 21
116.620453
 31
0.0
210
0.0
220
0.0
230
1.0
  0
LINE
  8
0
 62
     7
 10
105.567177
 20
116.620453
 30
0.0
 11
93.327415
 21
116.620453
 31
0.0
210
0.0
220
0.0
230
1.0
  0
CIRCLE
  8
0
 62
     7
 10
112.317177
 20
119.07045
 30
0.0
 40
0.7
210
0.0
220
0.0
230
1.0
  0
CIRCLE
  8
0
 62
     7
 10
98.817177
 20
127.230453
 30
0.0
 40
0.9
210
0.0
220
0.0
230
1.0
  0
CIRCLE
  8
0
 62
     7
 10
116.667175
 20
119.07045
 30
0.0
 40
0.7
210
0.0
220
0.0
230
1.0
  0
CIRCLE
  8
0
 62
     7
 10
98.817177
 20
119.07045
 30
0.0
 40
0.7
210
0.0
220
0.0
230
1.0
  0
CIRCLE
  8
0
 62
     7
 10
94.467178
 20
119.07045
 30
0.0
 40
0.7
210
0.0
220
0.0
230
1.0
  0
CIRCLE
  8
0
 62
     7
 10
112.317177
 20
127.230453
 30
0.0
 40
0.9
210
0.0
220
0.0
230
1.0
  0
LINE
  8
0
 62
     7
 10
139.152954
 20
116.620453
 30
0.0
 11
134.067169
 21
116.620453
 31
0.0
210
0.0
220
0.0
230
1.0
  0
LINE
  8
0
 62
     7
 10
156.067169
 20
153.386612
 30
0.0
 11
156.067169
 21
125.120453
 31
0.0
210
0.0
220
0.0
230
1.0
  0
LINE
  8
0
 62
     7
 10
150.567169
 20
153.386612
 30
0.0
 11
156.067169
 21
153.386612
 31
0.0
210
0.0
220
0.0
230
1.0
  0
ARC
  8
0
 62
     7
 10
150.567169
 20
154.386612
 30
0.0
 40
1.0
 50
179.999995
 51
269.999997
210
0.0
220
0.0
230
1.0
  0
LINE
  8
0
 62
     7
 10
147.567169
 20
209.970459
 30
0.0
 11
147.567169
 21
209.753601
 31
0.0
210
0.0
220
0.0
230
1.0
  0
LINE
  8
0
 62
     7
 10
63.567177
 20
209.970459
 30
0.0
 11
63.567177
 21
209.753601
 31
0.0
210
0.0
220
0.0
230
1.0
  0
ARC
  8
0
 62
     7
 10
60.567177
 20
154.386612
 30
0.0
 40
1.0
 50
269.999997
 51
360.0
210
0.0
220
0.0
230
1.0
  0
LINE
  8
0
 62
     7
 10
60.567177
 20
153.386612
 30
0.0
 11
55.067177
 21
153.386612
 31
0.0
210
0.0
220
0.0
230
1.0
  0
LINE
  8
0
 62
     7
 10
55.067177
 20
153.386612
 30
0.0
 11
55.067177
 21
125.120453
 31
0.0
210
0.0
220
0.0
230
1.0
  0
LINE
  8
0
 62
     7
 10
91.067177
 20
119.120453
 30
0.0
 11
91.36718
 21
119.120453
 31
0.0
210
0.0
220
0.0
230
1.0
  0
LINE
  8
0
 62
     7
 10
121.174355
 20
116.620453
 30
0.0
 11
118.417175
 21
116.620453
 31
0.0
210
0.0
220
0.0
230
1.0
  0
LINE
  8
0
 62
     7
 10
134.067169
 20
116.620453
 30
0.0
 11
124.267181
 21
116.620453
 31
0.0
210
0.0
220
0.0
230
1.0
  0
LINE
  8
0
 62
     7
 10
153.567169
 20
117.620453
 30
0.0
 11
140.567169
 21
117.620453
 31
0.0
210
0.0
220
0.0
230
1.0
  0
LINE
  8
0
 62
     7
 10
140.311646
 20
117.598526
 30
0.0
 11
140.348267
 21
117.620453
 31
0.0
210
0.0
220
0.0
230
1.0
  0
ARC
  8
0
 62
     7
 10
153.567169
 20
119.120453
 30
0.0
 40
1.5
 50
269.999997
 51
360.0
210
0.0
220
0.0
230
1.0
  0
LINE
  8
0
 62
     7
 10
155.067169
 20
120.620453
 30
0.0
 11
155.067169
 21
119.120453
 31
0.0
210
0.0
220
0.0
230
1.0
  0
ARC
  8
0
 62
     7
 10
156.067169
 20
120.620453
 30
0.0
 40
1.0
 50
90.000003
 51
179.999995
210
0.0
220
0.0
230
1.0
  0
LINE
  8
0
 62
     7
 10
156.067169
 20
121.620453
 30
0.0
 11
156.067169
 21
121.85759
 31
0.0
210
0.0
220
0.0
230
1.0
  0
LINE
  8
0
 62
     7
 10
95.917175
 20
126.270454
 30
0.0
 11
97.217178
 21
126.270454
 31
0.0
210
0.0
220
0.0
230
1.0
  0
LINE
  8
0
 62
     7
 10
97.217178
 20
127.920456
 30
0.0
 11
97.217178
 21
126.270454
 31
0.0
210
0.0
220
0.0
230
1.0
  0
LINE
  8
0
 62
     7
 10
97.217178
 20
127.920456
 30
0.0
 11
95.917175
 21
127.920456
 31
0.0
210
0.0
220
0.0
230
1.0
  0
LINE
  8
0
 62
     7
 10
95.917175
 20
126.270454
 30
0.0
 11
95.917175
 21
127.920456
 31
0.0
210
0.0
220
0.0
230
1.0
  0
LINE
  8
0
 62
     7
 10
100.417175
 20
126.270454
 30
0.0
 11
101.717178
 21
126.270454
 31
0.0
210
0.0
220
0.0
230
1.0
  0
LINE
  8
0
 62
     7
 10
101.717178
 20
127.920456
 30
0.0
 11
101.717178
 21
126.270454
 31
0.0
210
0.0
220
0.0
230
1.0
  0
LINE
  8
0
 62
     7
 10
101.717178
 20
127.920456
 30
0.0
 11
100.417175
 21
127.920456
 31
0.0
210
0.0
220
0.0
230
1.0
  0
LINE
  8
0
 62
     7
 10
100.417175
 20
126.270454
 30
0.0
 11
100.417175
 21
127.920456
 31
0.0
210
0.0
220
0.0
230
1.0
  0
LINE
  8
0
 62
     7
 10
115.217178
 20
126.270454
 30
0.0
 11
115.217178
 21
127.920456
 31
0.0
210
0.0
220
0.0
230
1.0
  0
LINE
  8
0
 62
     7
 10
113.917175
 20
127.920456
 30
0.0
 11
115.217178
 21
127.920456
 31
0.0
210
0.0
220
0.0
230
1.0
  0
LINE
  8
0
 62
     7
 10
113.917175
 20
127.920456
 30
0.0
 11
113.917175
 21
126.270454
 31
0.0
210
0.0
220
0.0
230
1.0
  0
LINE
  8
0
 62
     7
 10
115.217178
 20
126.270454
 30
0.0
 11
113.917175
 21
126.270454
 31
0.0
210
0.0
220
0.0
230
1.0
  0
LINE
  8
0
 62
     7
 10
110.717178
 20
126.270454
 30
0.0
 11
110.717178
 21
127.920456
 31
0.0
210
0.0
220
0.0
230
1.0
  0
LINE
  8
0
 62
     7
 10
109.417175
 20
127.920456
 30
0.0
 11
110.717178
 21
127.920456
 31
0.0
210
0.0
220
0.0
230
1.0
  0
LINE
  8
0
 62
     7
 10
109.417175
 20
127.920456
 30
0.0
 11
109.417175
 21
126.270454
 31
0.0
210
0.0
220
0.0
230
1.0
  0
LINE
  8
0
 62
     7
 10
110.717178
 20
126.270454
 30
0.0
 11
109.417175
 21
126.270454
 31
0.0
210
0.0
220
0.0
230
1.0
  0
LINE
  8
0
 62
     7
 10
104.917175
 20
126.270454
 30
0.0
 11
106.217178
 21
126.270454
 31
0.0
210
0.0
220
0.0
230
1.0
  0
LINE
  8
0
 62
     7
 10
106.217178
 20
127.920456
 30
0.0
 11
106.217178
 21
126.270454
 31
0.0
210
0.0
220
0.0
230
1.0
  0
LINE
  8
0
 62
     7
 10
106.217178
 20
127.920456
 30
0.0
 11
104.917175
 21
127.920456
 31
0.0
210
0.0
220
0.0
230
1.0
  0
LINE
  8
0
 62
     7
 10
104.917175
 20
126.270454
 30
0.0
 11
104.917175
 21
127.920456
 31
0.0
210
0.0
220
0.0
230
1.0
  0
LINE
  8
0
 62
     7
 10
141.917175
 20
215.620453
 30
0.0
 11
141.917175
 21
213.82045
 31
0.0
210
0.0
220
0.0
230
1.0
  0
LINE
  8
0
 62
     7
 10
105.567177
 20
215.620453
 30
0.0
 11
141.917175
 21
215.620453
 31
0.0
210
0.0
220
0.0
230
1.0
  0
LINE
  8
0
 62
     7
 10
156.067169
 20
122.620453
 30
0.0
 11
156.067169
 21
121.85759
 31
0.0
210
0.0
220
0.0
230
1.0
  0
ARC
  8
0
 62
     7
 10
143.117172
 20
213.82045
 30
0.0
 40
1.2
 50
180.000005
 51
221.409615
210
0.0
220
0.0
230
1.0
  0
LINE
  8
0
 62
     7
 10
105.567177
 20
215.620453
 30
0.0
 11
68.917175
 21
215.620453
 31
0.0
210
0.0
220
0.0
230
1.0
  0
LINE
  8
0
 62
     7
 10
55.067177
 20
121.620453
 30
0.0
 11
55.067177
 21
121.85759
 31
0.0
210
0.0
220
0.0
230
1.0
  0
ARC
  8
0
 62
     7
 10
55.067177
 20
120.620453
 30
0.0
 40
1.0
 50
0.0
 51
90.000003
210
0.0
220
0.0
230
1.0
  0
LINE
  8
0
 62
     7
 10
56.067177
 20
120.620453
 30
0.0
 11
56.067177
 21
119.120453
 31
0.0
210
0.0
220
0.0
230
1.0
  0
ARC
  8
0
 62
     7
 10
57.567177
 20
119.120453
 30
0.0
 40
1.5
 50
179.999995
 51
269.999997
210
0.0
220
0.0
230
1.0
  0
LINE
  8
0
 62
     7
 10
70.567177
 20
117.620453
 30
0.0
 11
57.567177
 21
117.620453
 31
0.0
210
0.0
220
0.0
230
1.0
  0
ARC
  8
0
 62
     7
 10
70.567177
 20
116.120453
 30
0.0
 40
1.5
 50
80.191455
 51
90.000003
210
0.0
220
0.0
230
1.0
  0
LINE
  8
0
 62
     7
 10
70.822708
 20
117.598526
 30
0.0
 11
70.786087
 21
117.620453
 31
0.0
210
0.0
220
0.0
230
1.0
  0
ARC
  8
0
 62
     7
 10
70.567177
 20
116.120453
 30
0.0
 40
1.5
 50
42.833428
 51
80.191455
210
0.0
220
0.0
230
1.0
  0
LINE
  8
0
 62
     7
 10
147.567169
 20
209.970459
 30
0.0
 11
147.567169
 21
215.620453
 31
0.0
210
0.0
220
0.0
230
1.0
  0
LINE
  8
0
 62
     7
 10
144.317169
 20
215.620453
 30
0.0
 11
147.567169
 21
215.620453
 31
0.0
210
0.0
220
0.0
230
1.0
  0
LINE
  8
0
 62
     7
 10
144.317169
 20
215.620453
 30
0.0
 11
144.317169
 21
213.82045
 31
0.0
210
0.0
220
0.0
230
1.0
  0
ARC
  8
0
 62
     7
 10
143.117172
 20
213.82045
 30
0.0
 40
1.2
 50
318.59038
 51
0.0
210
0.0
220
0.0
230
1.0
  0
LINE
  8
0
 62
     7
 10
55.067177
 20
122.620453
 30
0.0
 11
55.067177
 21
121.85759
 31
0.0
210
0.0
220
0.0
230
1.0
  0
LINE
  8
0
 62
     7
 10
67.117172
 20
215.620453
 30
0.0
 11
68.917175
 21
215.620453
 31
0.0
210
0.0
220
0.0
230
1.0
  0
ARC
  8
0
 62
     7
 10
143.117172
 20
213.82045
 30
0.0
 40
1.2
 50
221.409615
 51
318.59038
210
0.0
220
0.0
230
1.0
  0
LINE
  8
0
 62
     7
 10
63.567177
 20
215.620453
 30
0.0
 11
67.117172
 21
215.620453
 31
0.0
210
0.0
220
0.0
230
1.0
  0
LINE
  8
0
 62
     7
 10
63.567177
 20
215.620453
 30
0.0
 11
63.567177
 21
209.970459
 31
0.0
210
0.0
220
0.0
230
1.0
  0
LINE
  8
0
 62
     7
 10
55.067177
 20
125.120453
 30
0.0
 11
55.067177
 21
122.620453
 31
0.0
210
0.0
220
0.0
230
1.0
  0
LINE
  8
0
 62
     7
 10
156.067169
 20
125.120453
 30
0.0
 11
156.067169
 21
122.620453
 31
0.0
210
0.0
220
0.0
230
1.0
  0
LINE
  8
0
 62
     7
 10
80.567177
 20
116.620453
 30
0.0
 11
80.567177
 21
117.620453
 31
0.0
210
0.0
220
0.0
230
1.0
  0
LINE
  8
0
 62
     7
 10
82.067177
 20
119.120453
 30
0.0
 11
91.067177
 21
119.120453
 31
0.0
210
0.0
220
0.0
230
1.0
  0
LINE
  8
0
 62
     7
 10
80.567177
 20
116.620453
 30
0.0
 11
77.067177
 21
116.620453
 31
0.0
210
0.0
220
0.0
230
1.0
  0
ENDSEC
  0
EOF
