  0
SECTION
  2
HEADER
  9
$ACADVER
  1
AC1009
  9
$DWGCODEPAGE
  3
ansi_1252
  9
$INSBASE
 10
0.0
 20
0.0
 30
0.0
  9
$EXTMIN
 10
0.0
 20
0.0
 30
0.0
  9
$EXTMAX
 10
156.013229
 20
226.857071
 30
2.0
  9
$LIMMIN
 10
0.0
 20
0.0
  9
$LIMMAX
 10
420.0
 20
297.0
  9
$ORTHOMODE
 70
     0
  9
$REGENMODE
 70
     1
  9
$FILLMODE
 70
     1
  9
$QTEXTMODE
 70
     0
  9
$MIRRTEXT
 70
     1
  9
$DRAGMODE
 70
     2
  9
$LTSCALE
 40
1.0
  9
$OSMODE
 70
     0
  9
$ATTMODE
 70
     1
  9
$TEXTSIZE
 40
2.5
  9
$TRACEWID
 40
1.0
  9
$TEXTSTYLE
  7
STANDARD
  9
$CLAYER
  8
0
  9
$CELTYPE
  6
BYLAYER
  9
$CECOLOR
 62
   256
  9
$DIMSCALE
 40
1.0
  9
$DIMASZ
 40
2.5
  9
$DIMEXO
 40
0.625
  9
$DIMDLI
 40
3.75
  9
$DIMRND
 40
0.0
  9
$DIMDLE
 40
0.0
  9
$DIMEXE
 40
1.25
  9
$DIMTP
 40
0.0
  9
$DIMTM
 40
0.0
  9
$DIMTXT
 40
2.5
  9
$DIMCEN
 40
2.5
  9
$DIMTSZ
 40
0.0
  9
$DIMTOL
 70
     0
  9
$DIMLIM
 70
     0
  9
$DIMTIH
 70
     0
  9
$DIMTOH
 70
     0
  9
$DIMSE1
 70
     0
  9
$DIMSE2
 70
     0
  9
$DIMTAD
 70
     1
  9
$DIMZIN
 70
     8
  9
$DIMBLK
  1

  9
$DIMASO
 70
     1
  9
$DIMSHO
 70
     1
  9
$DIMPOST
  1

  9
$DIMAPOST
  1

  9
$DIMALT
 70
     0
  9
$DIMALTD
 70
     3
  9
$DIMALTF
 40
0.03937
  9
$DIMLFAC
 40
1.0
  9
$DIMTOFL
 70
     1
  9
$DIMTVP
 40
0.0
  9
$DIMTIX
 70
     0
  9
$DIMSOXD
 70
     0
  9
$DIMSAH
 70
     0
  9
$DIMBLK1
  1

  9
$DIMBLK2
  1

  9
$DIMSTYLE
  2

  9
$DIMCLRD
 70
     0
  9
$DIMCLRE
 70
     0
  9
$DIMCLRT
 70
     0
  9
$DIMTFAC
 40
1.0
  9
$DIMGAP
 40
0.625
  9
$LUNITS
 70
     2
  9
$LUPREC
 70
     4
  9
$AXISMODE
 70
     0
  9
$AXISUNIT
 10
0.0
 20
0.0
  9
$SKETCHINC
 40
1.0
  9
$FILLETRAD
 40
2.5
  9
$AUNITS
 70
     0
  9
$AUPREC
 70
     0
  9
$MENU
  1
.
  9
$ELEVATION
 40
0.0
  9
$PELEVATION
 40
0.0
  9
$THICKNESS
 40
0.0
  9
$LIMCHECK
 70
     0
  9
$BLIPMODE
 70
     1
  9
$CHAMFERA
 40
2.5
  9
$CHAMFERB
 40
2.5
  9
$SKPOLY
 70
     0
  9
$TDCREATE
 40
0.000000000
  9
$TDUPDATE
 40
0.000000000
  9
$TDINDWG
 40
0.0000000000
  9
$TDUSRTIMER
 40
0.0000000000
  9
$USRTIMER
 70
     1
  9
$ANGBASE
 50
0.0
  9
$ANGDIR
 70
     0
  9
$PDMODE
 70
     0
  9
$PDSIZE
 40
0.0
  9
$PLINEWID
 40
0.0
  9
$COORDS
 70
     0
  9
$SPLFRAME
 70
     0
  9
$SPLINETYPE
 70
     6
  9
$SPLINESEGS
 70
     8
  9
$ATTDIA
 70
     0
  9
$ATTREQ
 70
     1
  9
$HANDLING
 70
     0
  9
$HANDSEED
  5
3
  9
$SURFTAB1
 70
     6
  9
$SURFTAB2
 70
     6
  9
$SURFTYPE
 70
     6
  9
$SURFU
 70
     6
  9
$SURFV
 70
     6
  9
$UCSNAME
  2

  9
$UCSORG
 10
0.0
 20
0.0
 30
0.0
  9
$UCSXDIR
 10
1.0
 20
0.0
 30
0.0
  9
$UCSYDIR
 10
0.0
 20
1.0
 30
0.0
  9
$PUCSNAME
  2

  9
$PUCSORG
 10
0.0
 20
0.0
 30
0.0
  9
$PUCSXDIR
 10
1.0
 20
0.0
 30
0.0
  9
$PUCSYDIR
 10
0.0
 20
1.0
 30
0.0
  9
$USERI1
 70
     0
  9
$USERI2
 70
     0
  9
$USERI3
 70
     0
  9
$USERI4
 70
     0
  9
$USERI5
 70
     0
  9
$USERR1
 40
0.0
  9
$USERR2
 40
0.0
  9
$USERR3
 40
0.0
  9
$USERR4
 40
0.0
  9
$USERR5
 40
0.0
  9
$WORLDVIEW
 70
     1
  9
$SHADEDGE
 70
     3
  9
$SHADEDIF
 70
    70
  9
$TILEMODE
 70
     1
  9
$MAXACTVP
 70
    48
  9
$PINSBASE
 10
0.0
 20
0.0
 30
0.0
  9
$PLIMCHECK
 70
     0
  9
$PEXTMIN
 10
0.0
 20
0.0
 30
0.0
  9
$PEXTMAX
 10
156.013229
 20
226.857071
 30
2.0
  9
$PLIMMIN
 10
0.0
 20
0.0
  9
$PLIMMAX
 10
420.0
 20
297.0
  9
$UNITMODE
 70
     0
  9
$VISRETAIN
 70
     0
  9
$PLINEGEN
 70
     0
  9
$PSLTSCALE
 70
     1
  9
$TREEDEPTH
 70
  3020
  0
ENDSEC
  0
SECTION
  2
TABLES
  0
TABLE
  2
VPORT
 70
     1
  0
VPORT
  2
*ACTIVE
 70
     0
 10
0.0
 20
0.0
 11
1.0
 21
1.0
 12
6.591288
 22
4.579184
 13
0.0
 23
0.0
 14
1.0
 24
1.0
 15
0.0
 25
0.0
 16
0.0
 26
0.0
 36
1.0
 17
0.0
 27
0.0
 37
0.0
 40
9.158369
 41
0.688564
 42
50.0
 43
0.0
 44
0.0
 50
0.0
 51
0.0
 71
     0
 72
   100
 73
     1
 74
     1
 75
     0
 76
     0
 77
     0
 78
     0
  0
ENDTAB
  0
TABLE
  2
LTYPE
 70
     2
  0
LTYPE
  2
CONTINUOUS
 70
    64
  3
Solid line
 72
    65
 73
     0
 40
0.0
  0
LTYPE
  2
DASHDOT
 70
     0
  3
 __ . __ . __ . __ . __ . __ . __ . 
 72
    65
 73
     4
 40
18.5
 49
12.0
 49
-3.0
 49
0.5
 49
-3.0
  0
ENDTAB
  0
TABLE
  2
LAYER
 70
     1
  0
LAYER
  2
0
 70
     0
 62
     7
  6
CONTINUOUS
  0
ENDTAB
  0
TABLE
  2
STYLE
 70
     1
  0
STYLE
  2
STANDARD
 70
     0
 40
0.0
 41
1.0
 50
0.0
 71
     0
 42
0.0
  3
txt
  4

  0
ENDTAB
  0
TABLE
  2
VIEW
 70
     0
  0
ENDTAB
  0
TABLE
  2
UCS
 70
     0
  0
ENDTAB
  0
TABLE
  2
APPID
 70
     1
  0
APPID
  2
ACAD
 70
     0
  0
ENDTAB
  0
TABLE
  2
DIMSTYLE
 70
     1
  0
DIMSTYLE
  2
STANDARD
 70
     0
  3

  4

  5

  6

  7

 40
1.0
 41
0.18
 42
0.0625
 43
0.38
 44
0.18
 45
0.0
 46
0.0
 47
0.0
 48
0.0
 71
     0
 72
     0
 73
     1
 74
     1
 75
     0
 76
     0
 77
     0
 78
     0
140
0.18
141
0.09
142
0.0
143
25.4
144
1.0
145
0.0
146
1.0
147
0.09
170
     0
171
     2
172
     0
173
     0
174
     0
175
     0
176
     0
177
     0
178
     0
  0
ENDTAB
  0
ENDSEC
  0
SECTION
  2
BLOCKS
  0
ENDSEC
  0
SECTION
  2
ENTITIES
  0
VIEWPORT
  8
0
 62
     0
 67
     1
 68
     1
 10
0.0
 20
0.0
 30
0.0
 40
1000.0
 41
1000.0
 69
     1
1001
ACAD
1000
MVIEW
1002
{
1070
    16
1010
0.0
1020
0.0
1030
0.0
1010
0.0
1020
0.0
1030
1.0
1040
0.0
1040
1000.0
1040
0.0
1040
0.0
1040
50.0
1040
0.0
1040
0.0
1070
     0
1070
   100
1070
     1
1070
     1
1070
     0
1070
     0
1070
     0
1070
     0
1040
0.0
1040
0.0
1040
0.0
1040
1.0
1040
1.0
1040
1.0
1040
1.0
1070
     0
1002
{
1002
}
1002
}
  0
LINE
  8
0
  6
DASHDOT
 62
     7
 10
124.573227
 20
113.888077
 30
0.0
 11
121.453232
 21
113.888077
 31
0.0
210
0.0
220
0.0
230
1.0
  0
LINE
  8
0
  6
DASHDOT
 62
     7
 10
123.013229
 20
115.448082
 30
0.0
 11
123.013229
 21
112.328079
 31
0.0
210
0.0
220
0.0
230
1.0
  0
LINE
  8
0
  6
DASHDOT
 62
     7
 10
143.34584
 20
180.958984
 30
0.0
 11
141.525848
 21
180.958984
 31
0.0
210
0.0
220
0.0
230
1.0
  0
LINE
  8
0
  6
DASHDOT
 62
     7
 10
142.435852
 20
181.868988
 30
0.0
 11
142.435852
 21
180.048981
 31
0.0
210
0.0
220
0.0
230
1.0
  0
LINE
  8
0
  6
DASHDOT
 62
     7
 10
138.899384
 20
173.019272
 30
0.0
 11
137.079391
 21
173.019272
 31
0.0
210
0.0
220
0.0
230
1.0
  0
LINE
  8
0
  6
DASHDOT
 62
     7
 10
137.989395
 20
173.92926
 30
0.0
 11
137.989395
 21
172.109268
 31
0.0
210
0.0
220
0.0
230
1.0
  0
LINE
  8
0
  6
DASHDOT
 62
     7
 10
69.50061
 20
180.958984
 30
0.0
 11
67.680618
 21
180.958984
 31
0.0
210
0.0
220
0.0
230
1.0
  0
LINE
  8
0
  6
DASHDOT
 62
     7
 10
68.590614
 20
181.868988
 30
0.0
 11
68.590614
 21
180.048981
 31
0.0
210
0.0
220
0.0
230
1.0
  0
LINE
  8
0
  6
DASHDOT
 62
     7
 10
73.947067
 20
173.019272
 30
0.0
 11
72.127068
 21
173.019272
 31
0.0
210
0.0
220
0.0
230
1.0
  0
LINE
  8
0
  6
DASHDOT
 62
     7
 10
73.037064
 20
173.92926
 30
0.0
 11
73.037064
 21
172.109268
 31
0.0
210
0.0
220
0.0
230
1.0
  0
LINE
  8
0
  6
DASHDOT
 62
     7
 10
69.542603
 20
175.767578
 30
0.0
 11
67.722603
 21
175.767578
 31
0.0
210
0.0
220
0.0
230
1.0
  0
LINE
  8
0
  6
DASHDOT
 62
     7
 10
68.632599
 20
176.677582
 30
0.0
 11
68.632599
 21
174.857574
 31
0.0
210
0.0
220
0.0
230
1.0
  0
LINE
  8
0
  6
DASHDOT
 62
     7
 10
141.701126
 20
179.576965
 30
0.0
 11
139.101135
 21
179.576965
 31
0.0
210
0.0
220
0.0
230
1.0
  0
LINE
  8
0
  6
DASHDOT
 62
     7
 10
140.401123
 20
180.876984
 30
0.0
 11
140.401123
 21
178.276978
 31
0.0
210
0.0
220
0.0
230
1.0
  0
LINE
  8
0
  6
DASHDOT
 62
     7
 10
90.113228
 20
116.488083
 30
0.0
 11
88.293228
 21
116.488083
 31
0.0
210
0.0
220
0.0
230
1.0
  0
LINE
  8
0
  6
DASHDOT
 62
     7
 10
89.203232
 20
117.398079
 30
0.0
 11
89.203232
 21
115.578079
 31
0.0
210
0.0
220
0.0
230
1.0
  0
LINE
  8
0
  6
DASHDOT
 62
     7
 10
80.273232
 20
118.088081
 30
0.0
 11
78.453232
 21
118.088081
 31
0.0
210
0.0
220
0.0
230
1.0
  0
LINE
  8
0
  6
DASHDOT
 62
     7
 10
79.363228
 20
118.998077
 30
0.0
 11
79.363228
 21
117.178078
 31
0.0
210
0.0
220
0.0
230
1.0
  0
LINE
  8
0
  6
DASHDOT
 62
     7
 10
143.303864
 20
175.767578
 30
0.0
 11
141.483856
 21
175.767578
 31
0.0
210
0.0
220
0.0
230
1.0
  0
LINE
  8
0
  6
DASHDOT
 62
     7
 10
142.39386
 20
176.677582
 30
0.0
 11
142.39386
 21
174.857574
 31
0.0
210
0.0
220
0.0
230
1.0
  0
LINE
  8
0
  6
DASHDOT
 62
     7
 10
148.809479
 20
180.993774
 30
0.0
 11
146.989471
 21
180.993774
 31
0.0
210
0.0
220
0.0
230
1.0
  0
LINE
  8
0
  6
DASHDOT
 62
     7
 10
147.899475
 20
181.903778
 30
0.0
 11
147.899475
 21
180.083771
 31
0.0
210
0.0
220
0.0
230
1.0
  0
LINE
  8
0
  6
DASHDOT
 62
     7
 10
64.03698
 20
180.993774
 30
0.0
 11
62.21698
 21
180.993774
 31
0.0
210
0.0
220
0.0
230
1.0
  0
LINE
  8
0
  6
DASHDOT
 62
     7
 10
63.12698
 20
181.903778
 30
0.0
 11
63.12698
 21
180.083771
 31
0.0
210
0.0
220
0.0
230
1.0
  0
LINE
  8
0
  6
DASHDOT
 62
     7
 10
71.925323
 20
179.576965
 30
0.0
 11
69.325333
 21
179.576965
 31
0.0
210
0.0
220
0.0
230
1.0
  0
LINE
  8
0
  6
DASHDOT
 62
     7
 10
70.625328
 20
180.876984
 30
0.0
 11
70.625328
 21
178.276978
 31
0.0
210
0.0
220
0.0
230
1.0
  0
LINE
  8
0
  6
DASHDOT
 62
     7
 10
117.523232
 20
114.138077
 30
0.0
 11
115.703232
 21
114.138077
 31
0.0
210
0.0
220
0.0
230
1.0
  0
LINE
  8
0
  6
DASHDOT
 62
     7
 10
116.613228
 20
115.04808
 30
0.0
 11
116.613228
 21
113.228081
 31
0.0
210
0.0
220
0.0
230
1.0
  0
LINE
  8
0
  6
DASHDOT
 62
     7
 10
95.323227
 20
114.138077
 30
0.0
 11
93.503227
 21
114.138077
 31
0.0
210
0.0
220
0.0
230
1.0
  0
LINE
  8
0
  6
DASHDOT
 62
     7
 10
94.413231
 20
115.04808
 30
0.0
 11
94.413231
 21
113.228081
 31
0.0
210
0.0
220
0.0
230
1.0
  0
LINE
  8
0
  6
DASHDOT
 62
     7
 10
113.173233
 20
114.138077
 30
0.0
 11
111.353226
 21
114.138077
 31
0.0
210
0.0
220
0.0
230
1.0
  0
LINE
  8
0
  6
DASHDOT
 62
     7
 10
112.263229
 20
115.04808
 30
0.0
 11
112.263229
 21
113.228081
 31
0.0
210
0.0
220
0.0
230
1.0
  0
LINE
  8
0
  6
DASHDOT
 62
     7
 10
99.673233
 20
114.138077
 30
0.0
 11
97.853226
 21
114.138077
 31
0.0
210
0.0
220
0.0
230
1.0
  0
LINE
  8
0
  6
DASHDOT
 62
     7
 10
98.763229
 20
115.04808
 30
0.0
 11
98.763229
 21
113.228081
 31
0.0
210
0.0
220
0.0
230
1.0
  0
LINE
  8
0
  6
DASHDOT
 62
     7
 10
99.933228
 20
122.29808
 30
0.0
 11
97.593231
 21
122.29808
 31
0.0
210
0.0
220
0.0
230
1.0
  0
LINE
  8
0
  6
DASHDOT
 62
     7
 10
98.763229
 20
123.468079
 30
0.0
 11
98.763229
 21
121.128082
 31
0.0
210
0.0
220
0.0
230
1.0
  0
LINE
  8
0
  6
DASHDOT
 62
     7
 10
113.433228
 20
122.29808
 30
0.0
 11
111.093231
 21
122.29808
 31
0.0
210
0.0
220
0.0
230
1.0
  0
LINE
  8
0
  6
DASHDOT
 62
     7
 10
112.263229
 20
123.468079
 30
0.0
 11
112.263229
 21
121.128082
 31
0.0
210
0.0
220
0.0
230
1.0
  0
LINE
  8
0
  6
DASHDOT
 62
     7
 10
144.62323
 20
208.888077
 30
0.0
 11
141.503235
 21
208.888077
 31
0.0
210
0.0
220
0.0
230
1.0
  0
LINE
  8
0
  6
DASHDOT
 62
     7
 10
143.063232
 20
210.44809
 30
0.0
 11
143.063232
 21
207.328079
 31
0.0
210
0.0
220
0.0
230
1.0
  0
POLYLINE
  8
0
 62
     7
 66
     1
 10
0.0
 20
0.0
 30
0.0
 70
     1
 71
    12
  0
VERTEX
  8
0
 10
55.687256
 20
223.508667
 30
0.0
  0
VERTEX
  8
0
 10
55.908745
 20
223.508667
 30
0.0
  0
VERTEX
  8
0
 10
55.908745
 20
224.680435
 30
0.0
  0
VERTEX
  8
0
 10
56.751755
 20
224.680435
 30
0.0
  0
VERTEX
  8
0
 10
56.751755
 20
223.508667
 30
0.0
  0
VERTEX
  8
0
 10
56.973244
 20
223.508667
 30
0.0
  0
VERTEX
  8
0
 10
56.973244
 20
226.008667
 30
0.0
  0
VERTEX
  8
0
 10
56.751755
 20
226.008667
 30
0.0
  0
VERTEX
  8
0
 10
56.751755
 20
224.982941
 30
0.0
  0
VERTEX
  8
0
 10
55.908745
 20
224.982941
 30
0.0
  0
VERTEX
  8
0
 10
55.908745
 20
226.008667
 30
0.0
  0
VERTEX
  8
0
 10
55.687256
 20
226.008667
 30
0.0
  0
SEQEND
  8
0
  0
POLYLINE
  8
0
 62
     7
 66
     1
 10
0.0
 20
0.0
 30
0.0
 70
     1
 71
    32
  0
VERTEX
  8
0
 10
57.751232
 20
224.756927
 30
0.0
  0
VERTEX
  8
0
 10
57.762535
 20
224.457901
 30
0.0
  0
VERTEX
  8
0
 10
57.803215
 20
224.197128
 30
0.0
  0
VERTEX
  8
0
 10
57.868759
 20
223.971115
 30
0.0
  0
VERTEX
  8
0
 10
57.956902
 20
223.783356
 30
0.0
  0
VERTEX
  8
0
 10
58.067646
 20
223.633835
 30
0.0
  0
VERTEX
  8
0
 10
58.19873
 20
223.526047
 30
0.0
  0
VERTEX
  8
0
 10
58.350155
 20
223.46347
 30
0.0
  0
VERTEX
  8
0
 10
58.521923
 20
223.439133
 30
0.0
  0
VERTEX
  8
0
 10
58.691429
 20
223.46347
 30
0.0
  0
VERTEX
  8
0
 10
58.842854
 20
223.526047
 30
0.0
  0
VERTEX
  8
0
 10
58.973938
 20
223.633835
 30
0.0
  0
VERTEX
  8
0
 10
59.084682
 20
223.783356
 30
0.0
  0
VERTEX
  8
0
 10
59.172825
 20
223.971115
 30
0.0
  0
VERTEX
  8
0
 10
59.236107
 20
224.197128
 30
0.0
  0
VERTEX
  8
0
 10
59.274529
 20
224.457901
 30
0.0
  0
VERTEX
  8
0
 10
59.290352
 20
224.756927
 30
0.0
  0
VERTEX
  8
0
 10
59.276791
 20
225.052475
 30
0.0
  0
VERTEX
  8
0
 10
59.236107
 20
225.313263
 30
0.0
  0
VERTEX
  8
0
 10
59.170567
 20
225.539261
 30
0.0
  0
VERTEX
  8
0
 10
59.084682
 20
225.72702
 30
0.0
  0
VERTEX
  8
0
 10
58.973938
 20
225.876541
 30
0.0
  0
VERTEX
  8
0
 10
58.842854
 20
225.984329
 30
0.0
  0
VERTEX
  8
0
 10
58.691429
 20
226.050385
 30
0.0
  0
VERTEX
  8
0
 10
58.521923
 20
226.074738
 30
0.0
  0
VERTEX
  8
0
 10
58.350155
 20
226.050385
 30
0.0
  0
VERTEX
  8
0
 10
58.19873
 20
225.984329
 30
0.0
  0
VERTEX
  8
0
 10
58.067646
 20
225.876541
 30
0.0
  0
VERTEX
  8
0
 10
57.956902
 20
225.72702
 30
0.0
  0
VERTEX
  8
0
 10
57.868759
 20
225.539261
 30
0.0
  0
VERTEX
  8
0
 10
57.803215
 20
225.313263
 30
0.0
  0
VERTEX
  8
0
 10
57.762535
 20
225.052475
 30
0.0
  0
SEQEND
  8
0
  0
POLYLINE
  8
0
 62
     7
 66
     1
 10
0.0
 20
0.0
 30
0.0
 70
     1
 71
    16
  0
VERTEX
  8
0
 10
57.979504
 20
224.756927
 30
0.0
  0
VERTEX
  8
0
 10
58.015663
 20
225.18808
 30
0.0
  0
VERTEX
  8
0
 10
58.124146
 20
225.511444
 30
0.0
  0
VERTEX
  8
0
 10
58.295914
 20
225.709641
 30
0.0
  0
VERTEX
  8
0
 10
58.521923
 20
225.779175
 30
0.0
  0
VERTEX
  8
0
 10
58.74567
 20
225.709641
 30
0.0
  0
VERTEX
  8
0
 10
58.917435
 20
225.511444
 30
0.0
  0
VERTEX
  8
0
 10
59.023659
 20
225.18808
 30
0.0
  0
VERTEX
  8
0
 10
59.06208
 20
224.756927
 30
0.0
  0
VERTEX
  8
0
 10
59.023659
 20
224.322296
 30
0.0
  0
VERTEX
  8
0
 10
58.917435
 20
223.998932
 30
0.0
  0
VERTEX
  8
0
 10
58.74567
 20
223.800735
 30
0.0
  0
VERTEX
  8
0
 10
58.521923
 20
223.73468
 30
0.0
  0
VERTEX
  8
0
 10
58.295914
 20
223.800735
 30
0.0
  0
VERTEX
  8
0
 10
58.124146
 20
223.998932
 30
0.0
  0
VERTEX
  8
0
 10
58.015663
 20
224.322296
 30
0.0
  0
SEQEND
  8
0
  0
POLYLINE
  8
0
 62
     7
 66
     1
 10
0.0
 20
0.0
 30
0.0
 70
     1
 71
     6
  0
VERTEX
  8
0
 10
60.06834
 20
223.508667
 30
0.0
  0
VERTEX
  8
0
 10
61.1012
 20
223.508667
 30
0.0
  0
VERTEX
  8
0
 10
61.1012
 20
223.825073
 30
0.0
  0
VERTEX
  8
0
 10
60.292088
 20
223.825073
 30
0.0
  0
VERTEX
  8
0
 10
60.292088
 20
226.008667
 30
0.0
  0
VERTEX
  8
0
 10
60.06834
 20
226.008667
 30
0.0
  0
SEQEND
  8
0
  0
POLYLINE
  8
0
 62
     7
 66
     1
 10
0.0
 20
0.0
 30
0.0
 70
     1
 71
    12
  0
VERTEX
  8
0
 10
61.777485
 20
223.508667
 30
0.0
  0
VERTEX
  8
0
 10
62.954987
 20
223.508667
 30
0.0
  0
VERTEX
  8
0
 10
62.954987
 20
223.821594
 30
0.0
  0
VERTEX
  8
0
 10
61.996712
 20
223.821594
 30
0.0
  0
VERTEX
  8
0
 10
61.996712
 20
224.659576
 30
0.0
  0
VERTEX
  8
0
 10
62.864586
 20
224.659576
 30
0.0
  0
VERTEX
  8
0
 10
62.864586
 20
224.951645
 30
0.0
  0
VERTEX
  8
0
 10
61.996712
 20
224.951645
 30
0.0
  0
VERTEX
  8
0
 10
61.996712
 20
225.699203
 30
0.0
  0
VERTEX
  8
0
 10
62.936909
 20
225.699203
 30
0.0
  0
VERTEX
  8
0
 10
62.936909
 20
226.008667
 30
0.0
  0
VERTEX
  8
0
 10
61.777485
 20
226.008667
 30
0.0
  0
SEQEND
  8
0
  0
POLYLINE
  8
0
 62
     7
 66
     1
 10
0.0
 20
0.0
 30
0.0
 70
     1
 71
    15
  0
VERTEX
  8
0
 10
64.840942
 20
223.508667
 30
0.0
  0
VERTEX
  8
0
 10
65.062431
 20
223.508667
 30
0.0
  0
VERTEX
  8
0
 10
65.062431
 20
224.56221
 30
0.0
  0
VERTEX
  8
0
 10
65.396919
 20
224.56221
 30
0.0
  0
VERTEX
  8
0
 10
65.618408
 20
224.576126
 30
0.0
  0
VERTEX
  8
0
 10
65.794693
 20
224.663055
 30
0.0
  0
VERTEX
  8
0
 10
65.94838
 20
224.913391
 30
0.0
  0
VERTEX
  8
0
 10
66.002625
 20
225.285446
 30
0.0
  0
VERTEX
  8
0
 10
65.986801
 20
225.490585
 30
0.0
  0
VERTEX
  8
0
 10
65.94838
 20
225.667923
 30
0.0
  0
VERTEX
  8
0
 10
65.882843
 20
225.810471
 30
0.0
  0
VERTEX
  8
0
 10
65.796959
 20
225.91478
 30
0.0
  0
VERTEX
  8
0
 10
65.629707
 20
225.991287
 30
0.0
  0
VERTEX
  8
0
 10
65.439865
 20
226.008667
 30
0.0
  0
VERTEX
  8
0
 10
64.840942
 20
226.008667
 30
0.0
  0
SEQEND
  8
0
  0
POLYLINE
  8
0
 62
     7
 66
     1
 10
0.0
 20
0.0
 30
0.0
 70
     1
 71
    11
  0
VERTEX
  8
0
 10
65.062431
 20
224.864716
 30
0.0
  0
VERTEX
  8
0
 10
65.062431
 20
225.702682
 30
0.0
  0
VERTEX
  8
0
 10
65.448906
 20
225.702682
 30
0.0
  0
VERTEX
  8
0
 10
65.59581
 20
225.678345
 30
0.0
  0
VERTEX
  8
0
 10
65.69751
 20
225.60881
 30
0.0
  0
VERTEX
  8
0
 10
65.758537
 20
225.480148
 30
0.0
  0
VERTEX
  8
0
 10
65.778877
 20
225.285446
 30
0.0
  0
VERTEX
  8
0
 10
65.758537
 20
225.080292
 30
0.0
  0
VERTEX
  8
0
 10
65.695251
 20
224.951645
 30
0.0
  0
VERTEX
  8
0
 10
65.586769
 20
224.882095
 30
0.0
  0
VERTEX
  8
0
 10
65.433083
 20
224.864716
 30
0.0
  0
SEQEND
  8
0
  0
POLYLINE
  8
0
 62
     7
 66
     1
 10
0.0
 20
0.0
 30
0.0
 70
     1
 71
     8
  0
VERTEX
  8
0
 10
66.583984
 20
223.508667
 30
0.0
  0
VERTEX
  8
0
 10
66.812256
 20
223.508667
 30
0.0
  0
VERTEX
  8
0
 10
66.986282
 20
224.256226
 30
0.0
  0
VERTEX
  8
0
 10
67.625885
 20
224.256226
 30
0.0
  0
VERTEX
  8
0
 10
67.797653
 20
223.508667
 30
0.0
  0
VERTEX
  8
0
 10
68.037216
 20
223.508667
 30
0.0
  0
VERTEX
  8
0
 10
67.431519
 20
226.008667
 30
0.0
  0
VERTEX
  8
0
 10
67.187431
 20
226.008667
 30
0.0
  0
SEQEND
  8
0
  0
POLYLINE
  8
0
 62
     7
 66
     1
 10
0.0
 20
0.0
 30
0.0
 70
     1
 71
     3
  0
VERTEX
  8
0
 10
67.054085
 20
224.548309
 30
0.0
  0
VERTEX
  8
0
 10
67.309471
 20
225.650528
 30
0.0
  0
VERTEX
  8
0
 10
67.560341
 20
224.548309
 30
0.0
  0
SEQEND
  8
0
  0
POLYLINE
  8
0
 62
     7
 66
     1
 10
0.0
 20
0.0
 30
0.0
 70
     1
 71
     8
  0
VERTEX
  8
0
 10
69.06382
 20
223.508667
 30
0.0
  0
VERTEX
  8
0
 10
69.285309
 20
223.508667
 30
0.0
  0
VERTEX
  8
0
 10
69.285309
 20
225.706161
 30
0.0
  0
VERTEX
  8
0
 10
69.798347
 20
225.706161
 30
0.0
  0
VERTEX
  8
0
 10
69.798347
 20
226.008667
 30
0.0
  0
VERTEX
  8
0
 10
68.550781
 20
226.008667
 30
0.0
  0
VERTEX
  8
0
 10
68.550781
 20
225.706161
 30
0.0
  0
VERTEX
  8
0
 10
69.06382
 20
225.706161
 30
0.0
  0
SEQEND
  8
0
  0
POLYLINE
  8
0
 62
     7
 66
     1
 10
0.0
 20
0.0
 30
0.0
 70
     1
 71
     8
  0
VERTEX
  8
0
 10
70.854324
 20
223.508667
 30
0.0
  0
VERTEX
  8
0
 10
71.075813
 20
223.508667
 30
0.0
  0
VERTEX
  8
0
 10
71.075813
 20
225.706161
 30
0.0
  0
VERTEX
  8
0
 10
71.588852
 20
225.706161
 30
0.0
  0
VERTEX
  8
0
 10
71.588852
 20
226.008667
 30
0.0
  0
VERTEX
  8
0
 10
70.341286
 20
226.008667
 30
0.0
  0
VERTEX
  8
0
 10
70.341286
 20
225.706161
 30
0.0
  0
VERTEX
  8
0
 10
70.854324
 20
225.706161
 30
0.0
  0
SEQEND
  8
0
  0
POLYLINE
  8
0
 62
     7
 66
     1
 10
0.0
 20
0.0
 30
0.0
 70
     1
 71
    12
  0
VERTEX
  8
0
 10
72.285484
 20
223.508667
 30
0.0
  0
VERTEX
  8
0
 10
73.462982
 20
223.508667
 30
0.0
  0
VERTEX
  8
0
 10
73.462982
 20
223.821594
 30
0.0
  0
VERTEX
  8
0
 10
72.504715
 20
223.821594
 30
0.0
  0
VERTEX
  8
0
 10
72.504715
 20
224.659576
 30
0.0
  0
VERTEX
  8
0
 10
73.372581
 20
224.659576
 30
0.0
  0
VERTEX
  8
0
 10
73.372581
 20
224.951645
 30
0.0
  0
VERTEX
  8
0
 10
72.504715
 20
224.951645
 30
0.0
  0
VERTEX
  8
0
 10
72.504715
 20
225.699203
 30
0.0
  0
VERTEX
  8
0
 10
73.444901
 20
225.699203
 30
0.0
  0
VERTEX
  8
0
 10
73.444901
 20
226.008667
 30
0.0
  0
VERTEX
  8
0
 10
72.285484
 20
226.008667
 30
0.0
  0
SEQEND
  8
0
  0
POLYLINE
  8
0
 62
     7
 66
     1
 10
0.0
 20
0.0
 30
0.0
 70
     1
 71
    30
  0
VERTEX
  8
0
 10
74.229675
 20
226.008667
 30
0.0
  0
VERTEX
  8
0
 10
74.229675
 20
223.508667
 30
0.0
  0
VERTEX
  8
0
 10
74.448906
 20
223.508667
 30
0.0
  0
VERTEX
  8
0
 10
74.448906
 20
224.579605
 30
0.0
  0
VERTEX
  8
0
 10
74.806
 20
224.579605
 30
0.0
  0
VERTEX
  8
0
 10
74.97776
 20
224.569168
 30
0.0
  0
VERTEX
  8
0
 10
75.083984
 20
224.517014
 30
0.0
  0
VERTEX
  8
0
 10
75.142746
 20
224.398788
 30
0.0
  0
VERTEX
  8
0
 10
75.16761
 20
224.179733
 30
0.0
  0
VERTEX
  8
0
 10
75.181168
 20
223.85289
 30
0.0
  0
VERTEX
  8
0
 10
75.192474
 20
223.654709
 30
0.0
  0
VERTEX
  8
0
 10
75.224113
 20
223.508667
 30
0.0
  0
VERTEX
  8
0
 10
75.4795
 20
223.508667
 30
0.0
  0
VERTEX
  8
0
 10
75.4795
 20
223.578201
 30
0.0
  0
VERTEX
  8
0
 10
75.425262
 20
223.679047
 30
0.0
  0
VERTEX
  8
0
 10
75.404922
 20
223.870285
 30
0.0
  0
VERTEX
  8
0
 10
75.386841
 20
224.280579
 30
0.0
  0
VERTEX
  8
0
 10
75.371017
 20
224.454422
 30
0.0
  0
VERTEX
  8
0
 10
75.341637
 20
224.590027
 30
0.0
  0
VERTEX
  8
0
 10
75.287392
 20
224.683914
 30
0.0
  0
VERTEX
  8
0
 10
75.201508
 20
224.74649
 30
0.0
  0
VERTEX
  8
0
 10
75.296432
 20
224.840378
 30
0.0
  0
VERTEX
  8
0
 10
75.366501
 20
224.969025
 30
0.0
  0
VERTEX
  8
0
 10
75.409439
 20
225.125488
 30
0.0
  0
VERTEX
  8
0
 10
75.425262
 20
225.316727
 30
0.0
  0
VERTEX
  8
0
 10
75.409439
 20
225.511444
 30
0.0
  0
VERTEX
  8
0
 10
75.371017
 20
225.681824
 30
0.0
  0
VERTEX
  8
0
 10
75.215073
 20
225.921738
 30
0.0
  0
VERTEX
  8
0
 10
75.050087
 20
225.994766
 30
0.0
  0
VERTEX
  8
0
 10
74.860237
 20
226.008667
 30
0.0
  0
SEQEND
  8
0
  0
POLYLINE
  8
0
 62
     7
 66
     1
 10
0.0
 20
0.0
 30
0.0
 70
     1
 71
    11
  0
VERTEX
  8
0
 10
74.44664
 20
225.716599
 30
0.0
  0
VERTEX
  8
0
 10
74.824081
 20
225.716599
 30
0.0
  0
VERTEX
  8
0
 10
74.984543
 20
225.699203
 30
0.0
  0
VERTEX
  8
0
 10
75.102066
 20
225.636627
 30
0.0
  0
VERTEX
  8
0
 10
75.172134
 20
225.514923
 30
0.0
  0
VERTEX
  8
0
 10
75.196991
 20
225.309784
 30
0.0
  0
VERTEX
  8
0
 10
75.172134
 20
225.097687
 30
0.0
  0
VERTEX
  8
0
 10
75.104324
 20
224.962082
 30
0.0
  0
VERTEX
  8
0
 10
74.986801
 20
224.889053
 30
0.0
  0
VERTEX
  8
0
 10
74.824081
 20
224.868195
 30
0.0
  0
VERTEX
  8
0
 10
74.44664
 20
224.868195
 30
0.0
  0
SEQEND
  8
0
  0
POLYLINE
  8
0
 62
     7
 66
     1
 10
0.0
 20
0.0
 30
0.0
 70
     1
 71
    12
  0
VERTEX
  8
0
 10
76.228111
 20
223.508667
 30
0.0
  0
VERTEX
  8
0
 10
76.438293
 20
223.508667
 30
0.0
  0
VERTEX
  8
0
 10
76.438293
 20
225.535782
 30
0.0
  0
VERTEX
  8
0
 10
76.499321
 20
225.351501
 30
0.0
  0
VERTEX
  8
0
 10
77.274529
 20
223.508667
 30
0.0
  0
VERTEX
  8
0
 10
77.514099
 20
223.508667
 30
0.0
  0
VERTEX
  8
0
 10
77.514099
 20
226.008667
 30
0.0
  0
VERTEX
  8
0
 10
77.303909
 20
226.008667
 30
0.0
  0
VERTEX
  8
0
 10
77.303909
 20
223.981552
 30
0.0
  0
VERTEX
  8
0
 10
77.229324
 20
224.193649
 30
0.0
  0
VERTEX
  8
0
 10
76.46994
 20
226.008667
 30
0.0
  0
VERTEX
  8
0
 10
76.228111
 20
226.008667
 30
0.0
  0
SEQEND
  8
0
  0
LINE
  8
0
 62
     7
 10
71.927444
 20
111.68808
 30
0.0
 11
77.013229
 21
111.68808
 31
0.0
210
0.0
220
0.0
230
1.0
  0
ARC
  8
0
 62
     7
 10
70.513229
 20
111.18808
 30
0.0
 40
1.5
 50
19.471222
 51
42.833428
210
0.0
220
0.0
230
1.0
  0
ARC
  8
0
 62
     7
 10
82.013229
 20
112.68808
 30
0.0
 40
1.5
 50
90.000003
 51
180.000005
210
0.0
220
0.0
230
1.0
  0
ARC
  8
0
 62
     7
 10
91.313232
 20
112.68808
 30
0.0
 40
1.5
 50
25.841934
 51
90.000003
210
0.0
220
0.0
230
1.0
  0
ARC
  8
0
 62
     7
 10
91.313232
 20
112.68808
 30
0.0
 40
1.5
 50
20.000001
 51
25.841934
210
0.0
220
0.0
230
1.0
  0
LINE
  8
0
 62
     7
 10
92.722771
 20
113.201111
 30
0.0
 11
93.273468
 21
111.68808
 31
0.0
210
0.0
220
0.0
230
1.0
  0
LINE
  8
0
 62
     7
 10
121.813232
 20
112.088081
 30
0.0
 11
121.120407
 21
111.68808
 31
0.0
210
0.0
220
0.0
230
1.0
  0
LINE
  8
0
 62
     7
 10
121.813232
 20
112.088081
 30
0.0
 11
121.813232
 21
113.888077
 31
0.0
210
0.0
220
0.0
230
1.0
  0
ARC
  8
0
 62
     7
 10
123.013229
 20
113.888077
 30
0.0
 40
1.2
 50
0.0
 51
180.000005
210
0.0
220
0.0
230
1.0
  0
LINE
  8
0
 62
     7
 10
124.213226
 20
113.888077
 30
0.0
 11
124.213226
 21
111.68808
 31
0.0
210
0.0
220
0.0
230
1.0
  0
ARC
  8
0
 62
     7
 10
140.513229
 20
111.18808
 30
0.0
 40
1.5
 50
90.000003
 51
137.166577
210
0.0
220
0.0
230
1.0
  0
ARC
  8
0
 62
     7
 10
140.513229
 20
111.18808
 30
0.0
 40
1.5
 50
137.166577
 51
160.528775
210
0.0
220
0.0
230
1.0
  0
LINE
  8
0
 62
     7
 10
149.513229
 20
179.491745
 30
0.0
 11
149.513229
 21
182.29248
 31
0.0
210
0.0
220
0.0
230
1.0
  0
LINE
  8
0
 62
     7
 10
149.513229
 20
182.29248
 30
0.0
 11
143.017044
 21
185.930511
 31
0.0
210
0.0
220
0.0
230
1.0
  0
ARC
  8
0
 62
     7
 10
143.749969
 20
187.239258
 30
0.0
 40
1.5
 50
150.750007
 51
240.750006
210
0.0
220
0.0
230
1.0
  0
LINE
  8
0
 62
     7
 10
144.360718
 20
191.399689
 30
0.0
 11
142.441223
 21
187.972198
 31
0.0
210
0.0
220
0.0
230
1.0
  0
LINE
  8
0
 62
     7
 10
144.360718
 20
191.399689
 30
0.0
 11
142.978348
 21
192.173843
 31
0.0
210
0.0
220
0.0
230
1.0
  0
ARC
  8
0
 62
     7
 10
143.466965
 20
193.046341
 30
0.0
 40
1.0
 50
163.750001
 51
215.394254
210
0.0
220
0.0
230
1.0
  0
ARC
  8
0
 62
     7
 10
143.466965
 20
193.046341
 30
0.0
 40
1.0
 50
215.394254
 51
240.750006
210
0.0
220
0.0
230
1.0
  0
LINE
  8
0
 62
     7
 10
144.012482
 20
198.491516
 30
0.0
 11
142.506927
 21
193.326172
 31
0.0
210
0.0
220
0.0
230
1.0
  0
ARC
  8
0
 62
     7
 10
145.452545
 20
198.071777
 30
0.0
 40
1.5
 50
150.750007
 51
163.750001
210
0.0
220
0.0
230
1.0
  0
LINE
  8
0
 62
     7
 10
144.143814
 20
198.804688
 30
0.0
 11
147.513229
 21
204.821228
 31
0.0
210
0.0
220
0.0
230
1.0
  0
LINE
  8
0
 62
     7
 10
66.882645
 20
198.804688
 30
0.0
 11
63.513229
 21
204.821228
 31
0.0
210
0.0
220
0.0
230
1.0
  0
ARC
  8
0
 62
     7
 10
65.573906
 20
198.071777
 30
0.0
 40
1.5
 50
16.25
 51
29.249998
210
0.0
220
0.0
230
1.0
  0
LINE
  8
0
 62
     7
 10
67.013977
 20
198.491516
 30
0.0
 11
68.519539
 21
193.326172
 31
0.0
210
0.0
220
0.0
230
1.0
  0
ARC
  8
0
 62
     7
 10
67.559494
 20
193.046341
 30
0.0
 40
1.0
 50
324.605748
 51
16.25
210
0.0
220
0.0
230
1.0
  0
ARC
  8
0
 62
     7
 10
67.559494
 20
193.046341
 30
0.0
 40
1.0
 50
299.250003
 51
324.605748
210
0.0
220
0.0
230
1.0
  0
LINE
  8
0
 62
     7
 10
66.665741
 20
191.399689
 30
0.0
 11
68.048111
 21
192.173843
 31
0.0
210
0.0
220
0.0
230
1.0
  0
LINE
  8
0
 62
     7
 10
66.665741
 20
191.399689
 30
0.0
 11
68.585236
 21
187.972198
 31
0.0
210
0.0
220
0.0
230
1.0
  0
ARC
  8
0
 62
     7
 10
67.276489
 20
187.239258
 30
0.0
 40
1.5
 50
299.250003
 51
29.249998
210
0.0
220
0.0
230
1.0
  0
LINE
  8
0
 62
     7
 10
61.513229
 20
182.29248
 30
0.0
 11
68.009415
 21
185.930511
 31
0.0
210
0.0
220
0.0
230
1.0
  0
LINE
  8
0
 62
     7
 10
61.513229
 20
179.491745
 30
0.0
 11
61.513229
 21
182.29248
 31
0.0
210
0.0
220
0.0
230
1.0
  0
CIRCLE
  8
0
 62
     7
 10
142.435852
 20
180.958984
 30
0.0
 40
0.7
210
0.0
220
0.0
230
1.0
  0
CIRCLE
  8
0
 62
     7
 10
137.989395
 20
173.019272
 30
0.0
 40
0.7
210
0.0
220
0.0
230
1.0
  0
CIRCLE
  8
0
 62
     7
 10
68.590614
 20
180.958984
 30
0.0
 40
0.7
210
0.0
220
0.0
230
1.0
  0
CIRCLE
  8
0
 62
     7
 10
73.037064
 20
173.019272
 30
0.0
 40
0.7
210
0.0
220
0.0
230
1.0
  0
CIRCLE
  8
0
 62
     7
 10
68.632599
 20
175.767578
 30
0.0
 40
0.7
210
0.0
220
0.0
230
1.0
  0
CIRCLE
  8
0
 62
     7
 10
140.401123
 20
179.576965
 30
0.0
 40
1.0
210
0.0
220
0.0
230
1.0
  0
CIRCLE
  8
0
 62
     7
 10
89.203232
 20
116.488083
 30
0.0
 40
0.7
210
0.0
220
0.0
230
1.0
  0
CIRCLE
  8
0
 62
     7
 10
79.363228
 20
118.088081
 30
0.0
 40
0.7
210
0.0
220
0.0
230
1.0
  0
CIRCLE
  8
0
 62
     7
 10
142.39386
 20
175.767578
 30
0.0
 40
0.7
210
0.0
220
0.0
230
1.0
  0
CIRCLE
  8
0
 62
     7
 10
147.899475
 20
180.993774
 30
0.0
 40
0.7
210
0.0
220
0.0
230
1.0
  0
CIRCLE
  8
0
 62
     7
 10
63.12698
 20
180.993774
 30
0.0
 40
0.7
210
0.0
220
0.0
230
1.0
  0
CIRCLE
  8
0
 62
     7
 10
70.625328
 20
179.576965
 30
0.0
 40
1.0
210
0.0
220
0.0
230
1.0
  0
LINE
  8
0
 62
     7
 10
105.513229
 20
111.68808
 30
0.0
 11
118.363228
 21
111.68808
 31
0.0
210
0.0
220
0.0
230
1.0
  0
LINE
  8
0
 62
     7
 10
105.513229
 20
111.68808
 30
0.0
 11
93.273468
 21
111.68808
 31
0.0
210
0.0
220
0.0
230
1.0
  0
CIRCLE
  8
0
 62
     7
 10
112.263229
 20
114.138077
 30
0.0
 40
0.7
210
0.0
220
0.0
230
1.0
  0
CIRCLE
  8
0
 62
     7
 10
98.763229
 20
122.29808
 30
0.0
 40
0.9
210
0.0
220
0.0
230
1.0
  0
CIRCLE
  8
0
 62
     7
 10
116.613228
 20
114.138077
 30
0.0
 40
0.7
210
0.0
220
0.0
230
1.0
  0
CIRCLE
  8
0
 62
     7
 10
98.763229
 20
114.138077
 30
0.0
 40
0.7
210
0.0
220
0.0
230
1.0
  0
CIRCLE
  8
0
 62
     7
 10
94.413231
 20
114.138077
 30
0.0
 40
0.7
210
0.0
220
0.0
230
1.0
  0
CIRCLE
  8
0
 62
     7
 10
112.263229
 20
122.29808
 30
0.0
 40
0.9
210
0.0
220
0.0
230
1.0
  0
LINE
  8
0
 62
     7
 10
139.099014
 20
111.68808
 30
0.0
 11
134.013229
 21
111.68808
 31
0.0
210
0.0
220
0.0
230
1.0
  0
LINE
  8
0
 62
     7
 10
156.013229
 20
178.491745
 30
0.0
 11
156.013229
 21
120.18808
 31
0.0
210
0.0
220
0.0
230
1.0
  0
LINE
  8
0
 62
     7
 10
150.513229
 20
178.491745
 30
0.0
 11
156.013229
 21
178.491745
 31
0.0
210
0.0
220
0.0
230
1.0
  0
ARC
  8
0
 62
     7
 10
150.513229
 20
179.491745
 30
0.0
 40
1.0
 50
180.000005
 51
269.999997
210
0.0
220
0.0
230
1.0
  0
LINE
  8
0
 62
     7
 10
147.513229
 20
205.038086
 30
0.0
 11
147.513229
 21
204.821228
 31
0.0
210
0.0
220
0.0
230
1.0
  0
LINE
  8
0
 62
     7
 10
63.513229
 20
205.038086
 30
0.0
 11
63.513229
 21
204.821228
 31
0.0
210
0.0
220
0.0
230
1.0
  0
ARC
  8
0
 62
     7
 10
60.513229
 20
179.491745
 30
0.0
 40
1.0
 50
269.999997
 51
360.0
210
0.0
220
0.0
230
1.0
  0
LINE
  8
0
 62
     7
 10
60.513229
 20
178.491745
 30
0.0
 11
55.013229
 21
178.491745
 31
0.0
210
0.0
220
0.0
230
1.0
  0
LINE
  8
0
 62
     7
 10
55.013229
 20
178.491745
 30
0.0
 11
55.013229
 21
120.18808
 31
0.0
210
0.0
220
0.0
230
1.0
  0
LINE
  8
0
 62
     7
 10
91.013229
 20
114.18808
 30
0.0
 11
91.313232
 21
114.18808
 31
0.0
210
0.0
220
0.0
230
1.0
  0
LINE
  8
0
 62
     7
 10
121.120407
 20
111.68808
 30
0.0
 11
118.363228
 21
111.68808
 31
0.0
210
0.0
220
0.0
230
1.0
  0
LINE
  8
0
 62
     7
 10
134.013229
 20
111.68808
 30
0.0
 11
124.213226
 21
111.68808
 31
0.0
210
0.0
220
0.0
230
1.0
  0
LINE
  8
0
 62
     7
 10
153.513229
 20
112.68808
 30
0.0
 11
140.513229
 21
112.68808
 31
0.0
210
0.0
220
0.0
230
1.0
  0
ARC
  8
0
 62
     7
 10
153.513229
 20
114.18808
 30
0.0
 40
1.5
 50
269.999997
 51
360.0
210
0.0
220
0.0
230
1.0
  0
LINE
  8
0
 62
     7
 10
155.013229
 20
115.68808
 30
0.0
 11
155.013229
 21
114.18808
 31
0.0
210
0.0
220
0.0
230
1.0
  0
ARC
  8
0
 62
     7
 10
156.013229
 20
115.68808
 30
0.0
 40
1.0
 50
90.000003
 51
180.000005
210
0.0
220
0.0
230
1.0
  0
LINE
  8
0
 62
     7
 10
156.013229
 20
116.68808
 30
0.0
 11
156.013229
 21
116.925217
 31
0.0
210
0.0
220
0.0
230
1.0
  0
LINE
  8
0
 62
     7
 10
156.013229
 20
120.18808
 30
0.0
 11
156.013229
 21
117.68808
 31
0.0
210
0.0
220
0.0
230
1.0
  0
LINE
  8
0
 62
     7
 10
95.863228
 20
121.338081
 30
0.0
 11
97.163231
 21
121.338081
 31
0.0
210
0.0
220
0.0
230
1.0
  0
LINE
  8
0
 62
     7
 10
97.163231
 20
122.988083
 30
0.0
 11
97.163231
 21
121.338081
 31
0.0
210
0.0
220
0.0
230
1.0
  0
LINE
  8
0
 62
     7
 10
97.163231
 20
122.988083
 30
0.0
 11
95.863228
 21
122.988083
 31
0.0
210
0.0
220
0.0
230
1.0
  0
LINE
  8
0
 62
     7
 10
95.863228
 20
121.338081
 30
0.0
 11
95.863228
 21
122.988083
 31
0.0
210
0.0
220
0.0
230
1.0
  0
LINE
  8
0
 62
     7
 10
100.363228
 20
121.338081
 30
0.0
 11
101.663231
 21
121.338081
 31
0.0
210
0.0
220
0.0
230
1.0
  0
LINE
  8
0
 62
     7
 10
101.663231
 20
122.988083
 30
0.0
 11
101.663231
 21
121.338081
 31
0.0
210
0.0
220
0.0
230
1.0
  0
LINE
  8
0
 62
     7
 10
101.663231
 20
122.988083
 30
0.0
 11
100.363228
 21
122.988083
 31
0.0
210
0.0
220
0.0
230
1.0
  0
LINE
  8
0
 62
     7
 10
100.363228
 20
121.338081
 30
0.0
 11
100.363228
 21
122.988083
 31
0.0
210
0.0
220
0.0
230
1.0
  0
LINE
  8
0
 62
     7
 10
115.163231
 20
121.338081
 30
0.0
 11
115.163231
 21
122.988083
 31
0.0
210
0.0
220
0.0
230
1.0
  0
LINE
  8
0
 62
     7
 10
113.863228
 20
122.988083
 30
0.0
 11
115.163231
 21
122.988083
 31
0.0
210
0.0
220
0.0
230
1.0
  0
LINE
  8
0
 62
     7
 10
113.863228
 20
122.988083
 30
0.0
 11
113.863228
 21
121.338081
 31
0.0
210
0.0
220
0.0
230
1.0
  0
LINE
  8
0
 62
     7
 10
115.163231
 20
121.338081
 30
0.0
 11
113.863228
 21
121.338081
 31
0.0
210
0.0
220
0.0
230
1.0
  0
LINE
  8
0
 62
     7
 10
110.663231
 20
121.338081
 30
0.0
 11
110.663231
 21
122.988083
 31
0.0
210
0.0
220
0.0
230
1.0
  0
LINE
  8
0
 62
     7
 10
109.363228
 20
122.988083
 30
0.0
 11
110.663231
 21
122.988083
 31
0.0
210
0.0
220
0.0
230
1.0
  0
LINE
  8
0
 62
     7
 10
109.363228
 20
122.988083
 30
0.0
 11
109.363228
 21
121.338081
 31
0.0
210
0.0
220
0.0
230
1.0
  0
LINE
  8
0
 62
     7
 10
110.663231
 20
121.338081
 30
0.0
 11
109.363228
 21
121.338081
 31
0.0
210
0.0
220
0.0
230
1.0
  0
LINE
  8
0
 62
     7
 10
104.863228
 20
121.338081
 30
0.0
 11
106.163231
 21
121.338081
 31
0.0
210
0.0
220
0.0
230
1.0
  0
LINE
  8
0
 62
     7
 10
106.163231
 20
122.988083
 30
0.0
 11
106.163231
 21
121.338081
 31
0.0
210
0.0
220
0.0
230
1.0
  0
LINE
  8
0
 62
     7
 10
106.163231
 20
122.988083
 30
0.0
 11
104.863228
 21
122.988083
 31
0.0
210
0.0
220
0.0
230
1.0
  0
LINE
  8
0
 62
     7
 10
104.863228
 20
121.338081
 30
0.0
 11
104.863228
 21
122.988083
 31
0.0
210
0.0
220
0.0
230
1.0
  0
LINE
  8
0
 62
     7
 10
141.86322
 20
210.68808
 30
0.0
 11
141.86322
 21
208.888077
 31
0.0
210
0.0
220
0.0
230
1.0
  0
LINE
  8
0
 62
     7
 10
105.513229
 20
210.68808
 30
0.0
 11
141.86322
 21
210.68808
 31
0.0
210
0.0
220
0.0
230
1.0
  0
LINE
  8
0
 62
     7
 10
55.013229
 20
120.18808
 30
0.0
 11
55.013229
 21
117.68808
 31
0.0
210
0.0
220
0.0
230
1.0
  0
LINE
  8
0
 62
     7
 10
55.013229
 20
116.68808
 30
0.0
 11
55.013229
 21
116.925217
 31
0.0
210
0.0
220
0.0
230
1.0
  0
ARC
  8
0
 62
     7
 10
55.013229
 20
115.68808
 30
0.0
 40
1.0
 50
0.0
 51
90.000003
210
0.0
220
0.0
230
1.0
  0
LINE
  8
0
 62
     7
 10
56.013229
 20
115.68808
 30
0.0
 11
56.013229
 21
114.18808
 31
0.0
210
0.0
220
0.0
230
1.0
  0
ARC
  8
0
 62
     7
 10
57.513229
 20
114.18808
 30
0.0
 40
1.5
 50
180.000005
 51
269.999997
210
0.0
220
0.0
230
1.0
  0
LINE
  8
0
 62
     7
 10
70.513229
 20
112.68808
 30
0.0
 11
57.513229
 21
112.68808
 31
0.0
210
0.0
220
0.0
230
1.0
  0
ARC
  8
0
 62
     7
 10
70.513229
 20
111.18808
 30
0.0
 40
1.5
 50
42.833428
 51
90.000003
210
0.0
220
0.0
230
1.0
  0
ARC
  8
0
 62
     7
 10
143.063232
 20
208.888077
 30
0.0
 40
1.2
 50
180.000005
 51
221.409615
210
0.0
220
0.0
230
1.0
  0
LINE
  8
0
 62
     7
 10
105.513229
 20
210.68808
 30
0.0
 11
68.863228
 21
210.68808
 31
0.0
210
0.0
220
0.0
230
1.0
  0
LINE
  8
0
 62
     7
 10
55.013229
 20
117.68808
 30
0.0
 11
55.013229
 21
116.925217
 31
0.0
210
0.0
220
0.0
230
1.0
  0
LINE
  8
0
 62
     7
 10
147.513229
 20
205.038086
 30
0.0
 11
147.513229
 21
210.68808
 31
0.0
210
0.0
220
0.0
230
1.0
  0
LINE
  8
0
 62
     7
 10
144.263229
 20
210.68808
 30
0.0
 11
147.513229
 21
210.68808
 31
0.0
210
0.0
220
0.0
230
1.0
  0
LINE
  8
0
 62
     7
 10
144.263229
 20
210.68808
 30
0.0
 11
144.263229
 21
208.888077
 31
0.0
210
0.0
220
0.0
230
1.0
  0
ARC
  8
0
 62
     7
 10
143.063232
 20
208.888077
 30
0.0
 40
1.2
 50
318.59038
 51
0.0
210
0.0
220
0.0
230
1.0
  0
LINE
  8
0
 62
     7
 10
67.063232
 20
210.68808
 30
0.0
 11
68.863228
 21
210.68808
 31
0.0
210
0.0
220
0.0
230
1.0
  0
ARC
  8
0
 62
     7
 10
143.063232
 20
208.888077
 30
0.0
 40
1.2
 50
221.409615
 51
318.59038
210
0.0
220
0.0
230
1.0
  0
LINE
  8
0
 62
     7
 10
63.513229
 20
210.68808
 30
0.0
 11
67.063232
 21
210.68808
 31
0.0
210
0.0
220
0.0
230
1.0
  0
LINE
  8
0
 62
     7
 10
63.513229
 20
210.68808
 30
0.0
 11
63.513229
 21
205.038086
 31
0.0
210
0.0
220
0.0
230
1.0
  0
LINE
  8
0
 62
     7
 10
156.013229
 20
117.68808
 30
0.0
 11
156.013229
 21
116.925217
 31
0.0
210
0.0
220
0.0
230
1.0
  0
LINE
  8
0
 62
     7
 10
80.513229
 20
111.68808
 30
0.0
 11
80.513229
 21
112.68808
 31
0.0
210
0.0
220
0.0
230
1.0
  0
LINE
  8
0
 62
     7
 10
82.013229
 20
114.18808
 30
0.0
 11
91.013229
 21
114.18808
 31
0.0
210
0.0
220
0.0
230
1.0
  0
LINE
  8
0
 62
     7
 10
80.513229
 20
111.68808
 30
0.0
 11
77.013229
 21
111.68808
 31
0.0
210
0.0
220
0.0
230
1.0
  0
ENDSEC
  0
EOF
