  0
SECTION
  2
HEADER
  9
$ACADVER
  1
AC1009
  9
$DWGCODEPAGE
  3
ansi_1252
  9
$INSBASE
 10
0.0
 20
0.0
 30
0.0
  9
$EXTMIN
 10
0.0
 20
0.0
 30
0.0
  9
$EXTMAX
 10
156.013229
 20
227.857071
 30
2.0
  9
$LIMMIN
 10
0.0
 20
0.0
  9
$LIMMAX
 10
420.0
 20
297.0
  9
$ORTHOMODE
 70
     0
  9
$REGENMODE
 70
     1
  9
$FILLMODE
 70
     1
  9
$QTEXTMODE
 70
     0
  9
$MIRRTEXT
 70
     1
  9
$DRAGMODE
 70
     2
  9
$LTSCALE
 40
1.0
  9
$OSMODE
 70
     0
  9
$ATTMODE
 70
     1
  9
$TEXTSIZE
 40
2.5
  9
$TRACEWID
 40
1.0
  9
$TEXTSTYLE
  7
STANDARD
  9
$CLAYER
  8
0
  9
$CELTYPE
  6
BYLAYER
  9
$CECOLOR
 62
   256
  9
$DIMSCALE
 40
1.0
  9
$DIMASZ
 40
2.5
  9
$DIMEXO
 40
0.625
  9
$DIMDLI
 40
3.75
  9
$DIMRND
 40
0.0
  9
$DIMDLE
 40
0.0
  9
$DIMEXE
 40
1.25
  9
$DIMTP
 40
0.0
  9
$DIMTM
 40
0.0
  9
$DIMTXT
 40
2.5
  9
$DIMCEN
 40
2.5
  9
$DIMTSZ
 40
0.0
  9
$DIMTOL
 70
     0
  9
$DIMLIM
 70
     0
  9
$DIMTIH
 70
     0
  9
$DIMTOH
 70
     0
  9
$DIMSE1
 70
     0
  9
$DIMSE2
 70
     0
  9
$DIMTAD
 70
     1
  9
$DIMZIN
 70
     8
  9
$DIMBLK
  1

  9
$DIMASO
 70
     1
  9
$DIMSHO
 70
     1
  9
$DIMPOST
  1

  9
$DIMAPOST
  1

  9
$DIMALT
 70
     0
  9
$DIMALTD
 70
     3
  9
$DIMALTF
 40
0.03937
  9
$DIMLFAC
 40
1.0
  9
$DIMTOFL
 70
     1
  9
$DIMTVP
 40
0.0
  9
$DIMTIX
 70
     0
  9
$DIMSOXD
 70
     0
  9
$DIMSAH
 70
     0
  9
$DIMBLK1
  1

  9
$DIMBLK2
  1

  9
$DIMSTYLE
  2

  9
$DIMCLRD
 70
     0
  9
$DIMCLRE
 70
     0
  9
$DIMCLRT
 70
     0
  9
$DIMTFAC
 40
1.0
  9
$DIMGAP
 40
0.625
  9
$LUNITS
 70
     2
  9
$LUPREC
 70
     4
  9
$AXISMODE
 70
     0
  9
$AXISUNIT
 10
0.0
 20
0.0
  9
$SKETCHINC
 40
1.0
  9
$FILLETRAD
 40
2.5
  9
$AUNITS
 70
     0
  9
$AUPREC
 70
     0
  9
$MENU
  1
.
  9
$ELEVATION
 40
0.0
  9
$PELEVATION
 40
0.0
  9
$THICKNESS
 40
0.0
  9
$LIMCHECK
 70
     0
  9
$BLIPMODE
 70
     1
  9
$CHAMFERA
 40
2.5
  9
$CHAMFERB
 40
2.5
  9
$SKPOLY
 70
     0
  9
$TDCREATE
 40
0.000000000
  9
$TDUPDATE
 40
0.000000000
  9
$TDINDWG
 40
0.0000000000
  9
$TDUSRTIMER
 40
0.0000000000
  9
$USRTIMER
 70
     1
  9
$ANGBASE
 50
0.0
  9
$ANGDIR
 70
     0
  9
$PDMODE
 70
     0
  9
$PDSIZE
 40
0.0
  9
$PLINEWID
 40
0.0
  9
$COORDS
 70
     0
  9
$SPLFRAME
 70
     0
  9
$SPLINETYPE
 70
     6
  9
$SPLINESEGS
 70
     8
  9
$ATTDIA
 70
     0
  9
$ATTREQ
 70
     1
  9
$HANDLING
 70
     0
  9
$HANDSEED
  5
3
  9
$SURFTAB1
 70
     6
  9
$SURFTAB2
 70
     6
  9
$SURFTYPE
 70
     6
  9
$SURFU
 70
     6
  9
$SURFV
 70
     6
  9
$UCSNAME
  2

  9
$UCSORG
 10
0.0
 20
0.0
 30
0.0
  9
$UCSXDIR
 10
1.0
 20
0.0
 30
0.0
  9
$UCSYDIR
 10
0.0
 20
1.0
 30
0.0
  9
$PUCSNAME
  2

  9
$PUCSORG
 10
0.0
 20
0.0
 30
0.0
  9
$PUCSXDIR
 10
1.0
 20
0.0
 30
0.0
  9
$PUCSYDIR
 10
0.0
 20
1.0
 30
0.0
  9
$USERI1
 70
     0
  9
$USERI2
 70
     0
  9
$USERI3
 70
     0
  9
$USERI4
 70
     0
  9
$USERI5
 70
     0
  9
$USERR1
 40
0.0
  9
$USERR2
 40
0.0
  9
$USERR3
 40
0.0
  9
$USERR4
 40
0.0
  9
$USERR5
 40
0.0
  9
$WORLDVIEW
 70
     1
  9
$SHADEDGE
 70
     3
  9
$SHADEDIF
 70
    70
  9
$TILEMODE
 70
     1
  9
$MAXACTVP
 70
    48
  9
$PINSBASE
 10
0.0
 20
0.0
 30
0.0
  9
$PLIMCHECK
 70
     0
  9
$PEXTMIN
 10
0.0
 20
0.0
 30
0.0
  9
$PEXTMAX
 10
156.013229
 20
227.857071
 30
2.0
  9
$PLIMMIN
 10
0.0
 20
0.0
  9
$PLIMMAX
 10
420.0
 20
297.0
  9
$UNITMODE
 70
     0
  9
$VISRETAIN
 70
     0
  9
$PLINEGEN
 70
     0
  9
$PSLTSCALE
 70
     1
  9
$TREEDEPTH
 70
  3020
  0
ENDSEC
  0
SECTION
  2
TABLES
  0
TABLE
  2
VPORT
 70
     1
  0
VPORT
  2
*ACTIVE
 70
     0
 10
0.0
 20
0.0
 11
1.0
 21
1.0
 12
6.591288
 22
4.579184
 13
0.0
 23
0.0
 14
1.0
 24
1.0
 15
0.0
 25
0.0
 16
0.0
 26
0.0
 36
1.0
 17
0.0
 27
0.0
 37
0.0
 40
9.158369
 41
0.688564
 42
50.0
 43
0.0
 44
0.0
 50
0.0
 51
0.0
 71
     0
 72
   100
 73
     1
 74
     1
 75
     0
 76
     0
 77
     0
 78
     0
  0
ENDTAB
  0
TABLE
  2
LTYPE
 70
     2
  0
LTYPE
  2
CONTINUOUS
 70
    64
  3
Solid line
 72
    65
 73
     0
 40
0.0
  0
LTYPE
  2
DASHDOT
 70
     0
  3
 __ . __ . __ . __ . __ . __ . __ . 
 72
    65
 73
     4
 40
18.5
 49
12.0
 49
-3.0
 49
0.5
 49
-3.0
  0
ENDTAB
  0
TABLE
  2
LAYER
 70
     1
  0
LAYER
  2
0
 70
     0
 62
     7
  6
CONTINUOUS
  0
ENDTAB
  0
TABLE
  2
STYLE
 70
     1
  0
STYLE
  2
STANDARD
 70
     0
 40
0.0
 41
1.0
 50
0.0
 71
     0
 42
0.0
  3
txt
  4

  0
ENDTAB
  0
TABLE
  2
VIEW
 70
     0
  0
ENDTAB
  0
TABLE
  2
UCS
 70
     0
  0
ENDTAB
  0
TABLE
  2
APPID
 70
     1
  0
APPID
  2
ACAD
 70
     0
  0
ENDTAB
  0
TABLE
  2
DIMSTYLE
 70
     1
  0
DIMSTYLE
  2
STANDARD
 70
     0
  3

  4

  5

  6

  7

 40
1.0
 41
0.18
 42
0.0625
 43
0.38
 44
0.18
 45
0.0
 46
0.0
 47
0.0
 48
0.0
 71
     0
 72
     0
 73
     1
 74
     1
 75
     0
 76
     0
 77
     0
 78
     0
140
0.18
141
0.09
142
0.0
143
25.4
144
1.0
145
0.0
146
1.0
147
0.09
170
     0
171
     2
172
     0
173
     0
174
     0
175
     0
176
     0
177
     0
178
     0
  0
ENDTAB
  0
ENDSEC
  0
SECTION
  2
BLOCKS
  0
ENDSEC
  0
SECTION
  2
ENTITIES
  0
VIEWPORT
  8
0
 62
     0
 67
     1
 68
     1
 10
0.0
 20
0.0
 30
0.0
 40
1000.0
 41
1000.0
 69
     1
1001
ACAD
1000
MVIEW
1002
{
1070
    16
1010
0.0
1020
0.0
1030
0.0
1010
0.0
1020
0.0
1030
1.0
1040
0.0
1040
1000.0
1040
0.0
1040
0.0
1040
50.0
1040
0.0
1040
0.0
1070
     0
1070
   100
1070
     1
1070
     1
1070
     0
1070
     0
1070
     0
1070
     0
1040
0.0
1040
0.0
1040
0.0
1040
1.0
1040
1.0
1040
1.0
1040
1.0
1070
     0
1002
{
1002
}
1002
}
  0
LINE
  8
0
  6
DASHDOT
 62
     7
 10
124.573227
 20
113.888077
 30
0.0
 11
121.453232
 21
113.888077
 31
0.0
210
0.0
220
0.0
230
1.0
  0
LINE
  8
0
  6
DASHDOT
 62
     7
 10
123.013229
 20
115.448082
 30
0.0
 11
123.013229
 21
112.328079
 31
0.0
210
0.0
220
0.0
230
1.0
  0
LINE
  8
0
  6
DASHDOT
 62
     7
 10
144.62323
 20
208.888077
 30
0.0
 11
141.503235
 21
208.888077
 31
0.0
210
0.0
220
0.0
230
1.0
  0
LINE
  8
0
  6
DASHDOT
 62
     7
 10
143.063232
 20
210.44809
 30
0.0
 11
143.063232
 21
207.328079
 31
0.0
210
0.0
220
0.0
230
1.0
  0
POLYLINE
  8
0
 62
     7
 66
     1
 10
0.0
 20
0.0
 30
0.0
 70
     1
 71
    12
  0
VERTEX
  8
0
 10
55.184998
 20
224.508667
 30
0.0
  0
VERTEX
  8
0
 10
55.395184
 20
224.508667
 30
0.0
  0
VERTEX
  8
0
 10
55.395184
 20
226.535782
 30
0.0
  0
VERTEX
  8
0
 10
55.456207
 20
226.351501
 30
0.0
  0
VERTEX
  8
0
 10
56.231415
 20
224.508667
 30
0.0
  0
VERTEX
  8
0
 10
56.470982
 20
224.508667
 30
0.0
  0
VERTEX
  8
0
 10
56.470982
 20
227.008667
 30
0.0
  0
VERTEX
  8
0
 10
56.260796
 20
227.008667
 30
0.0
  0
VERTEX
  8
0
 10
56.260796
 20
224.981552
 30
0.0
  0
VERTEX
  8
0
 10
56.186214
 20
225.193649
 30
0.0
  0
VERTEX
  8
0
 10
55.426826
 20
227.008667
 30
0.0
  0
VERTEX
  8
0
 10
55.184998
 20
227.008667
 30
0.0
  0
SEQEND
  8
0
  0
POLYLINE
  8
0
 62
     7
 66
     1
 10
0.0
 20
0.0
 30
0.0
 70
     1
 71
    32
  0
VERTEX
  8
0
 10
57.246712
 20
225.756927
 30
0.0
  0
VERTEX
  8
0
 10
57.258015
 20
225.457901
 30
0.0
  0
VERTEX
  8
0
 10
57.298695
 20
225.197128
 30
0.0
  0
VERTEX
  8
0
 10
57.364239
 20
224.971115
 30
0.0
  0
VERTEX
  8
0
 10
57.452381
 20
224.783356
 30
0.0
  0
VERTEX
  8
0
 10
57.563126
 20
224.633835
 30
0.0
  0
VERTEX
  8
0
 10
57.69421
 20
224.526047
 30
0.0
  0
VERTEX
  8
0
 10
57.845634
 20
224.46347
 30
0.0
  0
VERTEX
  8
0
 10
58.017403
 20
224.439133
 30
0.0
  0
VERTEX
  8
0
 10
58.186909
 20
224.46347
 30
0.0
  0
VERTEX
  8
0
 10
58.338333
 20
224.526047
 30
0.0
  0
VERTEX
  8
0
 10
58.469418
 20
224.633835
 30
0.0
  0
VERTEX
  8
0
 10
58.580162
 20
224.783356
 30
0.0
  0
VERTEX
  8
0
 10
58.668304
 20
224.971115
 30
0.0
  0
VERTEX
  8
0
 10
58.731586
 20
225.197128
 30
0.0
  0
VERTEX
  8
0
 10
58.770008
 20
225.457901
 30
0.0
  0
VERTEX
  8
0
 10
58.785831
 20
225.756927
 30
0.0
  0
VERTEX
  8
0
 10
58.77227
 20
226.052475
 30
0.0
  0
VERTEX
  8
0
 10
58.731586
 20
226.313263
 30
0.0
  0
VERTEX
  8
0
 10
58.666046
 20
226.539261
 30
0.0
  0
VERTEX
  8
0
 10
58.580162
 20
226.72702
 30
0.0
  0
VERTEX
  8
0
 10
58.469418
 20
226.876541
 30
0.0
  0
VERTEX
  8
0
 10
58.338333
 20
226.984329
 30
0.0
  0
VERTEX
  8
0
 10
58.186909
 20
227.050385
 30
0.0
  0
VERTEX
  8
0
 10
58.017403
 20
227.074738
 30
0.0
  0
VERTEX
  8
0
 10
57.845634
 20
227.050385
 30
0.0
  0
VERTEX
  8
0
 10
57.69421
 20
226.984329
 30
0.0
  0
VERTEX
  8
0
 10
57.563126
 20
226.876541
 30
0.0
  0
VERTEX
  8
0
 10
57.452381
 20
226.72702
 30
0.0
  0
VERTEX
  8
0
 10
57.364239
 20
226.539261
 30
0.0
  0
VERTEX
  8
0
 10
57.298695
 20
226.313263
 30
0.0
  0
VERTEX
  8
0
 10
57.258015
 20
226.052475
 30
0.0
  0
SEQEND
  8
0
  0
POLYLINE
  8
0
 62
     7
 66
     1
 10
0.0
 20
0.0
 30
0.0
 70
     1
 71
    16
  0
VERTEX
  8
0
 10
57.474983
 20
225.756927
 30
0.0
  0
VERTEX
  8
0
 10
57.511143
 20
226.18808
 30
0.0
  0
VERTEX
  8
0
 10
57.619629
 20
226.511444
 30
0.0
  0
VERTEX
  8
0
 10
57.791393
 20
226.709641
 30
0.0
  0
VERTEX
  8
0
 10
58.017403
 20
226.779175
 30
0.0
  0
VERTEX
  8
0
 10
58.24115
 20
226.709641
 30
0.0
  0
VERTEX
  8
0
 10
58.412918
 20
226.511444
 30
0.0
  0
VERTEX
  8
0
 10
58.519138
 20
226.18808
 30
0.0
  0
VERTEX
  8
0
 10
58.55756
 20
225.756927
 30
0.0
  0
VERTEX
  8
0
 10
58.519138
 20
225.322296
 30
0.0
  0
VERTEX
  8
0
 10
58.412918
 20
224.998932
 30
0.0
  0
VERTEX
  8
0
 10
58.24115
 20
224.800735
 30
0.0
  0
VERTEX
  8
0
 10
58.017403
 20
224.73468
 30
0.0
  0
VERTEX
  8
0
 10
57.791393
 20
224.800735
 30
0.0
  0
VERTEX
  8
0
 10
57.619629
 20
224.998932
 30
0.0
  0
VERTEX
  8
0
 10
57.511143
 20
225.322296
 30
0.0
  0
SEQEND
  8
0
  0
POLYLINE
  8
0
 62
     7
 66
     1
 10
0.0
 20
0.0
 30
0.0
 70
     1
 71
    12
  0
VERTEX
  8
0
 10
59.561562
 20
224.508667
 30
0.0
  0
VERTEX
  8
0
 10
59.771748
 20
224.508667
 30
0.0
  0
VERTEX
  8
0
 10
59.771748
 20
226.535782
 30
0.0
  0
VERTEX
  8
0
 10
59.832771
 20
226.351501
 30
0.0
  0
VERTEX
  8
0
 10
60.607979
 20
224.508667
 30
0.0
  0
VERTEX
  8
0
 10
60.847549
 20
224.508667
 30
0.0
  0
VERTEX
  8
0
 10
60.847549
 20
227.008667
 30
0.0
  0
VERTEX
  8
0
 10
60.63736
 20
227.008667
 30
0.0
  0
VERTEX
  8
0
 10
60.63736
 20
224.981552
 30
0.0
  0
VERTEX
  8
0
 10
60.562778
 20
225.193649
 30
0.0
  0
VERTEX
  8
0
 10
59.803391
 20
227.008667
 30
0.0
  0
VERTEX
  8
0
 10
59.561562
 20
227.008667
 30
0.0
  0
SEQEND
  8
0
  0
POLYLINE
  8
0
 62
     7
 66
     1
 10
0.0
 20
0.0
 30
0.0
 70
     1
 71
     4
  0
VERTEX
  8
0
 10
61.598415
 20
225.291
 30
0.0
  0
VERTEX
  8
0
 10
62.145355
 20
225.291
 30
0.0
  0
VERTEX
  8
0
 10
62.145355
 20
225.565689
 30
0.0
  0
VERTEX
  8
0
 10
61.598415
 20
225.565689
 30
0.0
  0
SEQEND
  8
0
  0
POLYLINE
  8
0
 62
     7
 66
     1
 10
0.0
 20
0.0
 30
0.0
 70
     1
 71
    22
  0
VERTEX
  8
0
 10
62.889446
 20
225.457901
 30
0.0
  0
VERTEX
  8
0
 10
62.925606
 20
225.009369
 30
0.0
  0
VERTEX
  8
0
 10
63.040871
 20
224.692947
 30
0.0
  0
VERTEX
  8
0
 10
63.230721
 20
224.505188
 30
0.0
  0
VERTEX
  8
0
 10
63.499668
 20
224.439133
 30
0.0
  0
VERTEX
  8
0
 10
63.784439
 20
224.505188
 30
0.0
  0
VERTEX
  8
0
 10
63.992367
 20
224.696426
 30
0.0
  0
VERTEX
  8
0
 10
64.118927
 20
225.012833
 30
0.0
  0
VERTEX
  8
0
 10
64.161873
 20
225.457901
 30
0.0
  0
VERTEX
  8
0
 10
64.161873
 20
227.008667
 30
0.0
  0
VERTEX
  8
0
 10
63.940384
 20
227.008667
 30
0.0
  0
VERTEX
  8
0
 10
63.940384
 20
225.454422
 30
0.0
  0
VERTEX
  8
0
 10
63.913261
 20
225.148438
 30
0.0
  0
VERTEX
  8
0
 10
63.836422
 20
224.93634
 30
0.0
  0
VERTEX
  8
0
 10
63.707596
 20
224.807693
 30
0.0
  0
VERTEX
  8
0
 10
63.524529
 20
224.765976
 30
0.0
  0
VERTEX
  8
0
 10
63.339203
 20
224.807693
 30
0.0
  0
VERTEX
  8
0
 10
63.210377
 20
224.932861
 30
0.0
  0
VERTEX
  8
0
 10
63.133533
 20
225.148438
 30
0.0
  0
VERTEX
  8
0
 10
63.110935
 20
225.454422
 30
0.0
  0
VERTEX
  8
0
 10
63.110935
 20
227.008667
 30
0.0
  0
VERTEX
  8
0
 10
62.889446
 20
227.008667
 30
0.0
  0
SEQEND
  8
0
  0
POLYLINE
  8
0
 62
     7
 66
     1
 10
0.0
 20
0.0
 30
0.0
 70
     1
 71
    50
  0
VERTEX
  8
0
 10
64.9263
 20
225.332733
 30
0.0
  0
VERTEX
  8
0
 10
64.976021
 20
224.950256
 30
0.0
  0
VERTEX
  8
0
 10
65.102585
 20
224.672089
 30
0.0
  0
VERTEX
  8
0
 10
65.299217
 20
224.501709
 30
0.0
  0
VERTEX
  8
0
 10
65.563644
 20
224.442596
 30
0.0
  0
VERTEX
  8
0
 10
65.823555
 20
224.501709
 30
0.0
  0
VERTEX
  8
0
 10
66.02018
 20
224.658173
 30
0.0
  0
VERTEX
  8
0
 10
66.144485
 20
224.905045
 30
0.0
  0
VERTEX
  8
0
 10
66.187431
 20
225.231888
 30
0.0
  0
VERTEX
  8
0
 10
66.151268
 20
225.503098
 30
0.0
  0
VERTEX
  8
0
 10
66.054085
 20
225.708252
 30
0.0
  0
VERTEX
  8
0
 10
65.891357
 20
225.836899
 30
0.0
  0
VERTEX
  8
0
 10
65.681168
 20
225.927307
 30
0.0
  0
VERTEX
  8
0
 10
65.459679
 20
226.007278
 30
0.0
  0
VERTEX
  8
0
 10
65.306
 20
226.08725
 30
0.0
  0
VERTEX
  8
0
 10
65.215591
 20
226.201996
 30
0.0
  0
VERTEX
  8
0
 10
65.188469
 20
226.393234
 30
0.0
  0
VERTEX
  8
0
 10
65.211075
 20
226.553177
 30
0.0
  0
VERTEX
  8
0
 10
65.283394
 20
226.681824
 30
0.0
  0
VERTEX
  8
0
 10
65.394142
 20
226.761795
 30
0.0
  0
VERTEX
  8
0
 10
65.545563
 20
226.793091
 30
0.0
  0
VERTEX
  8
0
 10
65.699249
 20
226.758316
 30
0.0
  0
VERTEX
  8
0
 10
65.816772
 20
226.657486
 30
0.0
  0
VERTEX
  8
0
 10
65.893616
 20
226.494064
 30
0.0
  0
VERTEX
  8
0
 10
65.929779
 20
226.275009
 30
0.0
  0
VERTEX
  8
0
 10
66.139969
 20
226.275009
 30
0.0
  0
VERTEX
  8
0
 10
66.097023
 20
226.60881
 30
0.0
  0
VERTEX
  8
0
 10
65.981758
 20
226.859161
 30
0.0
  0
VERTEX
  8
0
 10
65.800957
 20
227.019104
 30
0.0
  0
VERTEX
  8
0
 10
65.559128
 20
227.074738
 30
0.0
  0
VERTEX
  8
0
 10
65.317299
 20
227.019104
 30
0.0
  0
VERTEX
  8
0
 10
65.134232
 20
226.866104
 30
0.0
  0
VERTEX
  8
0
 10
65.016708
 20
226.633148
 30
0.0
  0
VERTEX
  8
0
 10
64.978287
 20
226.334122
 30
0.0
  0
VERTEX
  8
0
 10
65.012184
 20
226.059433
 30
0.0
  0
VERTEX
  8
0
 10
65.113892
 20
225.871674
 30
0.0
  0
VERTEX
  8
0
 10
65.285652
 20
225.743027
 30
0.0
  0
VERTEX
  8
0
 10
65.522964
 20
225.642181
 30
0.0
  0
VERTEX
  8
0
 10
65.715073
 20
225.565689
 30
0.0
  0
VERTEX
  8
0
 10
65.855194
 20
225.489197
 30
0.0
  0
VERTEX
  8
0
 10
65.93882
 20
225.374451
 30
0.0
  0
VERTEX
  8
0
 10
65.968201
 20
225.193649
 30
0.0
  0
VERTEX
  8
0
 10
65.93882
 20
225.00589
 30
0.0
  0
VERTEX
  8
0
 10
65.859718
 20
224.859848
 30
0.0
  0
VERTEX
  8
0
 10
65.733154
 20
224.76944
 30
0.0
  0
VERTEX
  8
0
 10
65.561386
 20
224.738159
 30
0.0
  0
VERTEX
  8
0
 10
65.38736
 20
224.776398
 30
0.0
  0
VERTEX
  8
0
 10
65.256271
 20
224.898102
 30
0.0
  0
VERTEX
  8
0
 10
65.170395
 20
225.082382
 30
0.0
  0
VERTEX
  8
0
 10
65.138748
 20
225.332733
 30
0.0
  0
SEQEND
  8
0
  0
POLYLINE
  8
0
 62
     7
 66
     1
 10
0.0
 20
0.0
 30
0.0
 70
     1
 71
     8
  0
VERTEX
  8
0
 10
66.78009
 20
224.508667
 30
0.0
  0
VERTEX
  8
0
 10
67.008362
 20
224.508667
 30
0.0
  0
VERTEX
  8
0
 10
67.182388
 20
225.256226
 30
0.0
  0
VERTEX
  8
0
 10
67.821991
 20
225.256226
 30
0.0
  0
VERTEX
  8
0
 10
67.993759
 20
224.508667
 30
0.0
  0
VERTEX
  8
0
 10
68.233322
 20
224.508667
 30
0.0
  0
VERTEX
  8
0
 10
67.627625
 20
227.008667
 30
0.0
  0
VERTEX
  8
0
 10
67.383537
 20
227.008667
 30
0.0
  0
SEQEND
  8
0
  0
POLYLINE
  8
0
 62
     7
 66
     1
 10
0.0
 20
0.0
 30
0.0
 70
     1
 71
     3
  0
VERTEX
  8
0
 10
67.250191
 20
225.548309
 30
0.0
  0
VERTEX
  8
0
 10
67.505577
 20
226.650528
 30
0.0
  0
VERTEX
  8
0
 10
67.756447
 20
225.548309
 30
0.0
  0
SEQEND
  8
0
  0
POLYLINE
  8
0
 62
     7
 66
     1
 10
0.0
 20
0.0
 30
0.0
 70
     1
 71
    19
  0
VERTEX
  8
0
 10
68.900574
 20
224.508667
 30
0.0
  0
VERTEX
  8
0
 10
69.589897
 20
224.508667
 30
0.0
  0
VERTEX
  8
0
 10
69.820427
 20
224.560822
 30
0.0
  0
VERTEX
  8
0
 10
69.992195
 20
224.713806
 30
0.0
  0
VERTEX
  8
0
 10
70.100677
 20
224.946777
 30
0.0
  0
VERTEX
  8
0
 10
70.139099
 20
225.256226
 30
0.0
  0
VERTEX
  8
0
 10
70.116501
 20
225.47876
 30
0.0
  0
VERTEX
  8
0
 10
70.055473
 20
225.656097
 30
0.0
  0
VERTEX
  8
0
 10
69.95829
 20
225.784744
 30
0.0
  0
VERTEX
  8
0
 10
69.829468
 20
225.857758
 30
0.0
  0
VERTEX
  8
0
 10
69.928909
 20
225.944687
 30
0.0
  0
VERTEX
  8
0
 10
70.003494
 20
226.066391
 30
0.0
  0
VERTEX
  8
0
 10
70.046432
 20
226.215897
 30
0.0
  0
VERTEX
  8
0
 10
70.062256
 20
226.400177
 30
0.0
  0
VERTEX
  8
0
 10
70.028351
 20
226.664444
 30
0.0
  0
VERTEX
  8
0
 10
69.933434
 20
226.855682
 30
0.0
  0
VERTEX
  8
0
 10
69.775223
 20
226.970413
 30
0.0
  0
VERTEX
  8
0
 10
69.556
 20
227.008667
 30
0.0
  0
VERTEX
  8
0
 10
68.900574
 20
227.008667
 30
0.0
  0
SEQEND
  8
0
  0
POLYLINE
  8
0
 62
     7
 66
     1
 10
0.0
 20
0.0
 30
0.0
 70
     1
 71
    11
  0
VERTEX
  8
0
 10
69.122063
 20
224.811172
 30
0.0
  0
VERTEX
  8
0
 10
69.122063
 20
225.680435
 30
0.0
  0
VERTEX
  8
0
 10
69.544693
 20
225.680435
 30
0.0
  0
VERTEX
  8
0
 10
69.705162
 20
225.656097
 30
0.0
  0
VERTEX
  8
0
 10
69.820427
 20
225.579605
 30
0.0
  0
VERTEX
  8
0
 10
69.888229
 20
225.447464
 30
0.0
  0
VERTEX
  8
0
 10
69.913086
 20
225.259705
 30
0.0
  0
VERTEX
  8
0
 10
69.890488
 20
225.065002
 30
0.0
  0
VERTEX
  8
0
 10
69.824944
 20
224.925919
 30
0.0
  0
VERTEX
  8
0
 10
69.716461
 20
224.838989
 30
0.0
  0
VERTEX
  8
0
 10
69.569557
 20
224.811172
 30
0.0
  0
SEQEND
  8
0
  0
POLYLINE
  8
0
 62
     7
 66
     1
 10
0.0
 20
0.0
 30
0.0
 70
     1
 71
    11
  0
VERTEX
  8
0
 10
69.122063
 20
225.958603
 30
0.0
  0
VERTEX
  8
0
 10
69.122063
 20
226.723541
 30
0.0
  0
VERTEX
  8
0
 10
69.526619
 20
226.723541
 30
0.0
  0
VERTEX
  8
0
 10
69.664482
 20
226.699203
 30
0.0
  0
VERTEX
  8
0
 10
69.761665
 20
226.629669
 30
0.0
  0
VERTEX
  8
0
 10
69.820427
 20
226.514923
 30
0.0
  0
VERTEX
  8
0
 10
69.840767
 20
226.351501
 30
0.0
  0
VERTEX
  8
0
 10
69.818169
 20
226.174179
 30
0.0
  0
VERTEX
  8
0
 10
69.757141
 20
226.048996
 30
0.0
  0
VERTEX
  8
0
 10
69.653183
 20
225.979462
 30
0.0
  0
VERTEX
  8
0
 10
69.508537
 20
225.958603
 30
0.0
  0
SEQEND
  8
0
  0
POLYLINE
  8
0
 62
     7
 66
     1
 10
0.0
 20
0.0
 30
0.0
 70
     1
 71
     6
  0
VERTEX
  8
0
 10
70.896744
 20
224.508667
 30
0.0
  0
VERTEX
  8
0
 10
71.929604
 20
224.508667
 30
0.0
  0
VERTEX
  8
0
 10
71.929604
 20
224.825073
 30
0.0
  0
VERTEX
  8
0
 10
71.120499
 20
224.825073
 30
0.0
  0
VERTEX
  8
0
 10
71.120499
 20
227.008667
 30
0.0
  0
VERTEX
  8
0
 10
70.896744
 20
227.008667
 30
0.0
  0
SEQEND
  8
0
  0
POLYLINE
  8
0
 62
     7
 66
     1
 10
0.0
 20
0.0
 30
0.0
 70
     1
 71
    12
  0
VERTEX
  8
0
 10
72.605896
 20
224.508667
 30
0.0
  0
VERTEX
  8
0
 10
73.783394
 20
224.508667
 30
0.0
  0
VERTEX
  8
0
 10
73.783394
 20
224.821594
 30
0.0
  0
VERTEX
  8
0
 10
72.825119
 20
224.821594
 30
0.0
  0
VERTEX
  8
0
 10
72.825119
 20
225.659576
 30
0.0
  0
VERTEX
  8
0
 10
73.692993
 20
225.659576
 30
0.0
  0
VERTEX
  8
0
 10
73.692993
 20
225.951645
 30
0.0
  0
VERTEX
  8
0
 10
72.825119
 20
225.951645
 30
0.0
  0
VERTEX
  8
0
 10
72.825119
 20
226.699203
 30
0.0
  0
VERTEX
  8
0
 10
73.765312
 20
226.699203
 30
0.0
  0
VERTEX
  8
0
 10
73.765312
 20
227.008667
 30
0.0
  0
VERTEX
  8
0
 10
72.605896
 20
227.008667
 30
0.0
  0
SEQEND
  8
0
  0
POLYLINE
  8
0
 62
     7
 66
     1
 10
0.0
 20
0.0
 30
0.0
 70
     1
 71
     8
  0
VERTEX
  8
0
 10
75.488541
 20
224.508667
 30
0.0
  0
VERTEX
  8
0
 10
75.716812
 20
224.508667
 30
0.0
  0
VERTEX
  8
0
 10
75.890839
 20
225.256226
 30
0.0
  0
VERTEX
  8
0
 10
76.530441
 20
225.256226
 30
0.0
  0
VERTEX
  8
0
 10
76.702209
 20
224.508667
 30
0.0
  0
VERTEX
  8
0
 10
76.941772
 20
224.508667
 30
0.0
  0
VERTEX
  8
0
 10
76.336075
 20
227.008667
 30
0.0
  0
VERTEX
  8
0
 10
76.09198
 20
227.008667
 30
0.0
  0
SEQEND
  8
0
  0
POLYLINE
  8
0
 62
     7
 66
     1
 10
0.0
 20
0.0
 30
0.0
 70
     1
 71
     3
  0
VERTEX
  8
0
 10
75.958641
 20
225.548309
 30
0.0
  0
VERTEX
  8
0
 10
76.214027
 20
226.650528
 30
0.0
  0
VERTEX
  8
0
 10
76.464897
 20
225.548309
 30
0.0
  0
SEQEND
  8
0
  0
POLYLINE
  8
0
 62
     7
 66
     1
 10
0.0
 20
0.0
 30
0.0
 70
     1
 71
    30
  0
VERTEX
  8
0
 10
77.609024
 20
227.008667
 30
0.0
  0
VERTEX
  8
0
 10
77.609024
 20
224.508667
 30
0.0
  0
VERTEX
  8
0
 10
77.828247
 20
224.508667
 30
0.0
  0
VERTEX
  8
0
 10
77.828247
 20
225.579605
 30
0.0
  0
VERTEX
  8
0
 10
78.185341
 20
225.579605
 30
0.0
  0
VERTEX
  8
0
 10
78.357109
 20
225.569168
 30
0.0
  0
VERTEX
  8
0
 10
78.463333
 20
225.517014
 30
0.0
  0
VERTEX
  8
0
 10
78.522095
 20
225.398788
 30
0.0
  0
VERTEX
  8
0
 10
78.546951
 20
225.179733
 30
0.0
  0
VERTEX
  8
0
 10
78.560516
 20
224.85289
 30
0.0
  0
VERTEX
  8
0
 10
78.571815
 20
224.654709
 30
0.0
  0
VERTEX
  8
0
 10
78.603455
 20
224.508667
 30
0.0
  0
VERTEX
  8
0
 10
78.858849
 20
224.508667
 30
0.0
  0
VERTEX
  8
0
 10
78.858849
 20
224.578201
 30
0.0
  0
VERTEX
  8
0
 10
78.804604
 20
224.679047
 30
0.0
  0
VERTEX
  8
0
 10
78.784264
 20
224.870285
 30
0.0
  0
VERTEX
  8
0
 10
78.766182
 20
225.280579
 30
0.0
  0
VERTEX
  8
0
 10
78.750366
 20
225.454422
 30
0.0
  0
VERTEX
  8
0
 10
78.720978
 20
225.590027
 30
0.0
  0
VERTEX
  8
0
 10
78.66674
 20
225.683914
 30
0.0
  0
VERTEX
  8
0
 10
78.580856
 20
225.74649
 30
0.0
  0
VERTEX
  8
0
 10
78.675781
 20
225.840378
 30
0.0
  0
VERTEX
  8
0
 10
78.745842
 20
225.969025
 30
0.0
  0
VERTEX
  8
0
 10
78.788788
 20
226.125488
 30
0.0
  0
VERTEX
  8
0
 10
78.804604
 20
226.316727
 30
0.0
  0
VERTEX
  8
0
 10
78.788788
 20
226.511444
 30
0.0
  0
VERTEX
  8
0
 10
78.750366
 20
226.681824
 30
0.0
  0
VERTEX
  8
0
 10
78.594414
 20
226.921738
 30
0.0
  0
VERTEX
  8
0
 10
78.429428
 20
226.994766
 30
0.0
  0
VERTEX
  8
0
 10
78.239586
 20
227.008667
 30
0.0
  0
SEQEND
  8
0
  0
POLYLINE
  8
0
 62
     7
 66
     1
 10
0.0
 20
0.0
 30
0.0
 70
     1
 71
    11
  0
VERTEX
  8
0
 10
77.825989
 20
226.716599
 30
0.0
  0
VERTEX
  8
0
 10
78.203423
 20
226.716599
 30
0.0
  0
VERTEX
  8
0
 10
78.363892
 20
226.699203
 30
0.0
  0
VERTEX
  8
0
 10
78.481415
 20
226.636627
 30
0.0
  0
VERTEX
  8
0
 10
78.551476
 20
226.514923
 30
0.0
  0
VERTEX
  8
0
 10
78.57634
 20
226.309784
 30
0.0
  0
VERTEX
  8
0
 10
78.551476
 20
226.097687
 30
0.0
  0
VERTEX
  8
0
 10
78.483673
 20
225.962082
 30
0.0
  0
VERTEX
  8
0
 10
78.36615
 20
225.889053
 30
0.0
  0
VERTEX
  8
0
 10
78.203423
 20
225.868195
 30
0.0
  0
VERTEX
  8
0
 10
77.825989
 20
225.868195
 30
0.0
  0
SEQEND
  8
0
  0
POLYLINE
  8
0
 62
     7
 66
     1
 10
0.0
 20
0.0
 30
0.0
 70
     1
 71
    12
  0
VERTEX
  8
0
 10
79.609711
 20
224.508667
 30
0.0
  0
VERTEX
  8
0
 10
80.787216
 20
224.508667
 30
0.0
  0
VERTEX
  8
0
 10
80.787216
 20
224.821594
 30
0.0
  0
VERTEX
  8
0
 10
79.828941
 20
224.821594
 30
0.0
  0
VERTEX
  8
0
 10
79.828941
 20
225.659576
 30
0.0
  0
VERTEX
  8
0
 10
80.696815
 20
225.659576
 30
0.0
  0
VERTEX
  8
0
 10
80.696815
 20
225.951645
 30
0.0
  0
VERTEX
  8
0
 10
79.828941
 20
225.951645
 30
0.0
  0
VERTEX
  8
0
 10
79.828941
 20
226.699203
 30
0.0
  0
VERTEX
  8
0
 10
80.769135
 20
226.699203
 30
0.0
  0
VERTEX
  8
0
 10
80.769135
 20
227.008667
 30
0.0
  0
VERTEX
  8
0
 10
79.609711
 20
227.008667
 30
0.0
  0
SEQEND
  8
0
  0
POLYLINE
  8
0
 62
     7
 66
     1
 10
0.0
 20
0.0
 30
0.0
 70
     1
 71
     8
  0
VERTEX
  8
0
 10
81.3731
 20
224.508667
 30
0.0
  0
VERTEX
  8
0
 10
81.601372
 20
224.508667
 30
0.0
  0
VERTEX
  8
0
 10
81.775398
 20
225.256226
 30
0.0
  0
VERTEX
  8
0
 10
82.415001
 20
225.256226
 30
0.0
  0
VERTEX
  8
0
 10
82.586761
 20
224.508667
 30
0.0
  0
VERTEX
  8
0
 10
82.826332
 20
224.508667
 30
0.0
  0
VERTEX
  8
0
 10
82.220634
 20
227.008667
 30
0.0
  0
VERTEX
  8
0
 10
81.976547
 20
227.008667
 30
0.0
  0
SEQEND
  8
0
  0
POLYLINE
  8
0
 62
     7
 66
     1
 10
0.0
 20
0.0
 30
0.0
 70
     1
 71
     3
  0
VERTEX
  8
0
 10
81.843201
 20
225.548309
 30
0.0
  0
VERTEX
  8
0
 10
82.098587
 20
226.650528
 30
0.0
  0
VERTEX
  8
0
 10
82.349457
 20
225.548309
 30
0.0
  0
SEQEND
  8
0
  0
POLYLINE
  8
0
 62
     7
 66
     1
 10
0.0
 20
0.0
 30
0.0
 70
     1
 71
    32
  0
VERTEX
  8
0
 10
55.117191
 20
222.256927
 30
0.0
  0
VERTEX
  8
0
 10
55.128494
 20
221.957901
 30
0.0
  0
VERTEX
  8
0
 10
55.169174
 20
221.697128
 30
0.0
  0
VERTEX
  8
0
 10
55.234718
 20
221.471115
 30
0.0
  0
VERTEX
  8
0
 10
55.322861
 20
221.283356
 30
0.0
  0
VERTEX
  8
0
 10
55.433605
 20
221.133835
 30
0.0
  0
VERTEX
  8
0
 10
55.56469
 20
221.026047
 30
0.0
  0
VERTEX
  8
0
 10
55.716114
 20
220.96347
 30
0.0
  0
VERTEX
  8
0
 10
55.887882
 20
220.939133
 30
0.0
  0
VERTEX
  8
0
 10
56.057388
 20
220.96347
 30
0.0
  0
VERTEX
  8
0
 10
56.208813
 20
221.026047
 30
0.0
  0
VERTEX
  8
0
 10
56.339897
 20
221.133835
 30
0.0
  0
VERTEX
  8
0
 10
56.450642
 20
221.283356
 30
0.0
  0
VERTEX
  8
0
 10
56.538784
 20
221.471115
 30
0.0
  0
VERTEX
  8
0
 10
56.602066
 20
221.697128
 30
0.0
  0
VERTEX
  8
0
 10
56.640488
 20
221.957901
 30
0.0
  0
VERTEX
  8
0
 10
56.656311
 20
222.256927
 30
0.0
  0
VERTEX
  8
0
 10
56.64275
 20
222.552475
 30
0.0
  0
VERTEX
  8
0
 10
56.602066
 20
222.813263
 30
0.0
  0
VERTEX
  8
0
 10
56.536526
 20
223.039261
 30
0.0
  0
VERTEX
  8
0
 10
56.450642
 20
223.22702
 30
0.0
  0
VERTEX
  8
0
 10
56.339897
 20
223.376541
 30
0.0
  0
VERTEX
  8
0
 10
56.208813
 20
223.484329
 30
0.0
  0
VERTEX
  8
0
 10
56.057388
 20
223.550385
 30
0.0
  0
VERTEX
  8
0
 10
55.887882
 20
223.574738
 30
0.0
  0
VERTEX
  8
0
 10
55.716114
 20
223.550385
 30
0.0
  0
VERTEX
  8
0
 10
55.56469
 20
223.484329
 30
0.0
  0
VERTEX
  8
0
 10
55.433605
 20
223.376541
 30
0.0
  0
VERTEX
  8
0
 10
55.322861
 20
223.22702
 30
0.0
  0
VERTEX
  8
0
 10
55.234718
 20
223.039261
 30
0.0
  0
VERTEX
  8
0
 10
55.169174
 20
222.813263
 30
0.0
  0
VERTEX
  8
0
 10
55.128494
 20
222.552475
 30
0.0
  0
SEQEND
  8
0
  0
POLYLINE
  8
0
 62
     7
 66
     1
 10
0.0
 20
0.0
 30
0.0
 70
     1
 71
    16
  0
VERTEX
  8
0
 10
55.345463
 20
222.256927
 30
0.0
  0
VERTEX
  8
0
 10
55.381622
 20
222.68808
 30
0.0
  0
VERTEX
  8
0
 10
55.490108
 20
223.011444
 30
0.0
  0
VERTEX
  8
0
 10
55.661873
 20
223.209641
 30
0.0
  0
VERTEX
  8
0
 10
55.887882
 20
223.279175
 30
0.0
  0
VERTEX
  8
0
 10
56.111629
 20
223.209641
 30
0.0
  0
VERTEX
  8
0
 10
56.283398
 20
223.011444
 30
0.0
  0
VERTEX
  8
0
 10
56.389622
 20
222.68808
 30
0.0
  0
VERTEX
  8
0
 10
56.428043
 20
222.256927
 30
0.0
  0
VERTEX
  8
0
 10
56.389622
 20
221.822296
 30
0.0
  0
VERTEX
  8
0
 10
56.283398
 20
221.498932
 30
0.0
  0
VERTEX
  8
0
 10
56.111629
 20
221.300735
 30
0.0
  0
VERTEX
  8
0
 10
55.887882
 20
221.23468
 30
0.0
  0
VERTEX
  8
0
 10
55.661873
 20
221.300735
 30
0.0
  0
VERTEX
  8
0
 10
55.490108
 20
221.498932
 30
0.0
  0
VERTEX
  8
0
 10
55.381622
 20
221.822296
 30
0.0
  0
SEQEND
  8
0
  0
POLYLINE
  8
0
 62
     7
 66
     1
 10
0.0
 20
0.0
 30
0.0
 70
     1
 71
    12
  0
VERTEX
  8
0
 10
57.432041
 20
221.008667
 30
0.0
  0
VERTEX
  8
0
 10
57.642227
 20
221.008667
 30
0.0
  0
VERTEX
  8
0
 10
57.642227
 20
223.035782
 30
0.0
  0
VERTEX
  8
0
 10
57.703251
 20
222.851501
 30
0.0
  0
VERTEX
  8
0
 10
58.478458
 20
221.008667
 30
0.0
  0
VERTEX
  8
0
 10
58.718029
 20
221.008667
 30
0.0
  0
VERTEX
  8
0
 10
58.718029
 20
223.508667
 30
0.0
  0
VERTEX
  8
0
 10
58.507839
 20
223.508667
 30
0.0
  0
VERTEX
  8
0
 10
58.507839
 20
221.481552
 30
0.0
  0
VERTEX
  8
0
 10
58.433258
 20
221.693649
 30
0.0
  0
VERTEX
  8
0
 10
57.67387
 20
223.508667
 30
0.0
  0
VERTEX
  8
0
 10
57.432041
 20
223.508667
 30
0.0
  0
SEQEND
  8
0
  0
POLYLINE
  8
0
 62
     7
 66
     1
 10
0.0
 20
0.0
 30
0.0
 70
     1
 71
     6
  0
VERTEX
  8
0
 10
59.56382
 20
221.008667
 30
0.0
  0
VERTEX
  8
0
 10
60.59668
 20
221.008667
 30
0.0
  0
VERTEX
  8
0
 10
60.59668
 20
221.325073
 30
0.0
  0
VERTEX
  8
0
 10
59.787567
 20
221.325073
 30
0.0
  0
VERTEX
  8
0
 10
59.787567
 20
223.508667
 30
0.0
  0
VERTEX
  8
0
 10
59.56382
 20
223.508667
 30
0.0
  0
SEQEND
  8
0
  0
POLYLINE
  8
0
 62
     7
 66
     1
 10
0.0
 20
0.0
 30
0.0
 70
     1
 71
     9
  0
VERTEX
  8
0
 10
61.903526
 20
221.008667
 30
0.0
  0
VERTEX
  8
0
 10
61.903526
 20
222.034393
 30
0.0
  0
VERTEX
  8
0
 10
62.482109
 20
223.508667
 30
0.0
  0
VERTEX
  8
0
 10
62.222198
 20
223.508667
 30
0.0
  0
VERTEX
  8
0
 10
61.790524
 20
222.326477
 30
0.0
  0
VERTEX
  8
0
 10
61.356586
 20
223.508667
 30
0.0
  0
VERTEX
  8
0
 10
61.078598
 20
223.508667
 30
0.0
  0
VERTEX
  8
0
 10
61.682041
 20
222.010056
 30
0.0
  0
VERTEX
  8
0
 10
61.682041
 20
221.008667
 30
0.0
  0
SEQEND
  8
0
  0
POLYLINE
  8
0
 62
     7
 66
     1
 10
0.0
 20
0.0
 30
0.0
 70
     1
 71
    10
  0
VERTEX
  8
0
 10
64.255058
 20
221.008667
 30
0.0
  0
VERTEX
  8
0
 10
64.476547
 20
221.008667
 30
0.0
  0
VERTEX
  8
0
 10
64.476547
 20
222.138702
 30
0.0
  0
VERTEX
  8
0
 10
65.235931
 20
222.138702
 30
0.0
  0
VERTEX
  8
0
 10
65.235931
 20
222.444687
 30
0.0
  0
VERTEX
  8
0
 10
64.476547
 20
222.444687
 30
0.0
  0
VERTEX
  8
0
 10
64.476547
 20
223.19574
 30
0.0
  0
VERTEX
  8
0
 10
65.34668
 20
223.19574
 30
0.0
  0
VERTEX
  8
0
 10
65.34668
 20
223.508667
 30
0.0
  0
VERTEX
  8
0
 10
64.255058
 20
223.508667
 30
0.0
  0
SEQEND
  8
0
  0
POLYLINE
  8
0
 62
     7
 66
     1
 10
0.0
 20
0.0
 30
0.0
 70
     1
 71
    32
  0
VERTEX
  8
0
 10
66.002625
 20
222.256927
 30
0.0
  0
VERTEX
  8
0
 10
66.013924
 20
221.957901
 30
0.0
  0
VERTEX
  8
0
 10
66.054604
 20
221.697128
 30
0.0
  0
VERTEX
  8
0
 10
66.120148
 20
221.471115
 30
0.0
  0
VERTEX
  8
0
 10
66.20829
 20
221.283356
 30
0.0
  0
VERTEX
  8
0
 10
66.319038
 20
221.133835
 30
0.0
  0
VERTEX
  8
0
 10
66.450119
 20
221.026047
 30
0.0
  0
VERTEX
  8
0
 10
66.601547
 20
220.96347
 30
0.0
  0
VERTEX
  8
0
 10
66.773315
 20
220.939133
 30
0.0
  0
VERTEX
  8
0
 10
66.942818
 20
220.96347
 30
0.0
  0
VERTEX
  8
0
 10
67.094246
 20
221.026047
 30
0.0
  0
VERTEX
  8
0
 10
67.225327
 20
221.133835
 30
0.0
  0
VERTEX
  8
0
 10
67.336075
 20
221.283356
 30
0.0
  0
VERTEX
  8
0
 10
67.424217
 20
221.471115
 30
0.0
  0
VERTEX
  8
0
 10
67.487503
 20
221.697128
 30
0.0
  0
VERTEX
  8
0
 10
67.525925
 20
221.957901
 30
0.0
  0
VERTEX
  8
0
 10
67.54174
 20
222.256927
 30
0.0
  0
VERTEX
  8
0
 10
67.528183
 20
222.552475
 30
0.0
  0
VERTEX
  8
0
 10
67.487503
 20
222.813263
 30
0.0
  0
VERTEX
  8
0
 10
67.421959
 20
223.039261
 30
0.0
  0
VERTEX
  8
0
 10
67.336075
 20
223.22702
 30
0.0
  0
VERTEX
  8
0
 10
67.225327
 20
223.376541
 30
0.0
  0
VERTEX
  8
0
 10
67.094246
 20
223.484329
 30
0.0
  0
VERTEX
  8
0
 10
66.942818
 20
223.550385
 30
0.0
  0
VERTEX
  8
0
 10
66.773315
 20
223.574738
 30
0.0
  0
VERTEX
  8
0
 10
66.601547
 20
223.550385
 30
0.0
  0
VERTEX
  8
0
 10
66.450119
 20
223.484329
 30
0.0
  0
VERTEX
  8
0
 10
66.319038
 20
223.376541
 30
0.0
  0
VERTEX
  8
0
 10
66.20829
 20
223.22702
 30
0.0
  0
VERTEX
  8
0
 10
66.120148
 20
223.039261
 30
0.0
  0
VERTEX
  8
0
 10
66.054604
 20
222.813263
 30
0.0
  0
VERTEX
  8
0
 10
66.013924
 20
222.552475
 30
0.0
  0
SEQEND
  8
0
  0
POLYLINE
  8
0
 62
     7
 66
     1
 10
0.0
 20
0.0
 30
0.0
 70
     1
 71
    16
  0
VERTEX
  8
0
 10
66.230896
 20
222.256927
 30
0.0
  0
VERTEX
  8
0
 10
66.267052
 20
222.68808
 30
0.0
  0
VERTEX
  8
0
 10
66.375534
 20
223.011444
 30
0.0
  0
VERTEX
  8
0
 10
66.547302
 20
223.209641
 30
0.0
  0
VERTEX
  8
0
 10
66.773315
 20
223.279175
 30
0.0
  0
VERTEX
  8
0
 10
66.997063
 20
223.209641
 30
0.0
  0
VERTEX
  8
0
 10
67.168823
 20
223.011444
 30
0.0
  0
VERTEX
  8
0
 10
67.275055
 20
222.68808
 30
0.0
  0
VERTEX
  8
0
 10
67.313477
 20
222.256927
 30
0.0
  0
VERTEX
  8
0
 10
67.275055
 20
221.822296
 30
0.0
  0
VERTEX
  8
0
 10
67.168823
 20
221.498932
 30
0.0
  0
VERTEX
  8
0
 10
66.997063
 20
221.300735
 30
0.0
  0
VERTEX
  8
0
 10
66.773315
 20
221.23468
 30
0.0
  0
VERTEX
  8
0
 10
66.547302
 20
221.300735
 30
0.0
  0
VERTEX
  8
0
 10
66.375534
 20
221.498932
 30
0.0
  0
VERTEX
  8
0
 10
66.267052
 20
221.822296
 30
0.0
  0
SEQEND
  8
0
  0
POLYLINE
  8
0
 62
     7
 66
     1
 10
0.0
 20
0.0
 30
0.0
 70
     1
 71
    30
  0
VERTEX
  8
0
 10
68.319733
 20
223.508667
 30
0.0
  0
VERTEX
  8
0
 10
68.319733
 20
221.008667
 30
0.0
  0
VERTEX
  8
0
 10
68.538956
 20
221.008667
 30
0.0
  0
VERTEX
  8
0
 10
68.538956
 20
222.079605
 30
0.0
  0
VERTEX
  8
0
 10
68.896057
 20
222.079605
 30
0.0
  0
VERTEX
  8
0
 10
69.067818
 20
222.069168
 30
0.0
  0
VERTEX
  8
0
 10
69.174042
 20
222.017014
 30
0.0
  0
VERTEX
  8
0
 10
69.232803
 20
221.898788
 30
0.0
  0
VERTEX
  8
0
 10
69.257668
 20
221.679733
 30
0.0
  0
VERTEX
  8
0
 10
69.271225
 20
221.35289
 30
0.0
  0
VERTEX
  8
0
 10
69.282524
 20
221.154709
 30
0.0
  0
VERTEX
  8
0
 10
69.314171
 20
221.008667
 30
0.0
  0
VERTEX
  8
0
 10
69.569557
 20
221.008667
 30
0.0
  0
VERTEX
  8
0
 10
69.569557
 20
221.078201
 30
0.0
  0
VERTEX
  8
0
 10
69.51532
 20
221.179047
 30
0.0
  0
VERTEX
  8
0
 10
69.494972
 20
221.370285
 30
0.0
  0
VERTEX
  8
0
 10
69.476898
 20
221.780579
 30
0.0
  0
VERTEX
  8
0
 10
69.461075
 20
221.954422
 30
0.0
  0
VERTEX
  8
0
 10
69.431694
 20
222.090027
 30
0.0
  0
VERTEX
  8
0
 10
69.377449
 20
222.183914
 30
0.0
  0
VERTEX
  8
0
 10
69.291565
 20
222.24649
 30
0.0
  0
VERTEX
  8
0
 10
69.38649
 20
222.340378
 30
0.0
  0
VERTEX
  8
0
 10
69.456551
 20
222.469025
 30
0.0
  0
VERTEX
  8
0
 10
69.499496
 20
222.625488
 30
0.0
  0
VERTEX
  8
0
 10
69.51532
 20
222.816727
 30
0.0
  0
VERTEX
  8
0
 10
69.499496
 20
223.011444
 30
0.0
  0
VERTEX
  8
0
 10
69.461075
 20
223.181824
 30
0.0
  0
VERTEX
  8
0
 10
69.30513
 20
223.421738
 30
0.0
  0
VERTEX
  8
0
 10
69.140144
 20
223.494766
 30
0.0
  0
VERTEX
  8
0
 10
68.950294
 20
223.508667
 30
0.0
  0
SEQEND
  8
0
  0
POLYLINE
  8
0
 62
     7
 66
     1
 10
0.0
 20
0.0
 30
0.0
 70
     1
 71
    11
  0
VERTEX
  8
0
 10
68.536697
 20
223.216599
 30
0.0
  0
VERTEX
  8
0
 10
68.914131
 20
223.216599
 30
0.0
  0
VERTEX
  8
0
 10
69.0746
 20
223.199203
 30
0.0
  0
VERTEX
  8
0
 10
69.192123
 20
223.136627
 30
0.0
  0
VERTEX
  8
0
 10
69.262184
 20
223.014923
 30
0.0
  0
VERTEX
  8
0
 10
69.287048
 20
222.809784
 30
0.0
  0
VERTEX
  8
0
 10
69.262184
 20
222.597687
 30
0.0
  0
VERTEX
  8
0
 10
69.194382
 20
222.462082
 30
0.0
  0
VERTEX
  8
0
 10
69.076859
 20
222.389053
 30
0.0
  0
VERTEX
  8
0
 10
68.914131
 20
222.368195
 30
0.0
  0
VERTEX
  8
0
 10
68.536697
 20
222.368195
 30
0.0
  0
SEQEND
  8
0
  0
POLYLINE
  8
0
 62
     7
 66
     1
 10
0.0
 20
0.0
 30
0.0
 70
     1
 71
     4
  0
VERTEX
  8
0
 10
71.444214
 20
221.008667
 30
0.0
  0
VERTEX
  8
0
 10
71.665695
 20
221.008667
 30
0.0
  0
VERTEX
  8
0
 10
71.665695
 20
223.508667
 30
0.0
  0
VERTEX
  8
0
 10
71.444214
 20
223.508667
 30
0.0
  0
SEQEND
  8
0
  0
POLYLINE
  8
0
 62
     7
 66
     1
 10
0.0
 20
0.0
 30
0.0
 70
     1
 71
    12
  0
VERTEX
  8
0
 10
72.518272
 20
221.008667
 30
0.0
  0
VERTEX
  8
0
 10
72.728455
 20
221.008667
 30
0.0
  0
VERTEX
  8
0
 10
72.728455
 20
223.035782
 30
0.0
  0
VERTEX
  8
0
 10
72.789482
 20
222.851501
 30
0.0
  0
VERTEX
  8
0
 10
73.56469
 20
221.008667
 30
0.0
  0
VERTEX
  8
0
 10
73.80426
 20
221.008667
 30
0.0
  0
VERTEX
  8
0
 10
73.80426
 20
223.508667
 30
0.0
  0
VERTEX
  8
0
 10
73.59407
 20
223.508667
 30
0.0
  0
VERTEX
  8
0
 10
73.59407
 20
221.481552
 30
0.0
  0
VERTEX
  8
0
 10
73.519485
 20
221.693649
 30
0.0
  0
VERTEX
  8
0
 10
72.760101
 20
223.508667
 30
0.0
  0
VERTEX
  8
0
 10
72.518272
 20
223.508667
 30
0.0
  0
SEQEND
  8
0
  0
POLYLINE
  8
0
 62
     7
 66
     1
 10
0.0
 20
0.0
 30
0.0
 70
     1
 71
    10
  0
VERTEX
  8
0
 10
74.650055
 20
221.008667
 30
0.0
  0
VERTEX
  8
0
 10
74.871536
 20
221.008667
 30
0.0
  0
VERTEX
  8
0
 10
74.871536
 20
222.138702
 30
0.0
  0
VERTEX
  8
0
 10
75.630928
 20
222.138702
 30
0.0
  0
VERTEX
  8
0
 10
75.630928
 20
222.444687
 30
0.0
  0
VERTEX
  8
0
 10
74.871536
 20
222.444687
 30
0.0
  0
VERTEX
  8
0
 10
74.871536
 20
223.19574
 30
0.0
  0
VERTEX
  8
0
 10
75.741669
 20
223.19574
 30
0.0
  0
VERTEX
  8
0
 10
75.741669
 20
223.508667
 30
0.0
  0
VERTEX
  8
0
 10
74.650055
 20
223.508667
 30
0.0
  0
SEQEND
  8
0
  0
POLYLINE
  8
0
 62
     7
 66
     1
 10
0.0
 20
0.0
 30
0.0
 70
     1
 71
    32
  0
VERTEX
  8
0
 10
76.397614
 20
222.256927
 30
0.0
  0
VERTEX
  8
0
 10
76.40892
 20
221.957901
 30
0.0
  0
VERTEX
  8
0
 10
76.4496
 20
221.697128
 30
0.0
  0
VERTEX
  8
0
 10
76.515144
 20
221.471115
 30
0.0
  0
VERTEX
  8
0
 10
76.603287
 20
221.283356
 30
0.0
  0
VERTEX
  8
0
 10
76.714027
 20
221.133835
 30
0.0
  0
VERTEX
  8
0
 10
76.845116
 20
221.026047
 30
0.0
  0
VERTEX
  8
0
 10
76.996536
 20
220.96347
 30
0.0
  0
VERTEX
  8
0
 10
77.168304
 20
220.939133
 30
0.0
  0
VERTEX
  8
0
 10
77.337814
 20
220.96347
 30
0.0
  0
VERTEX
  8
0
 10
77.489235
 20
221.026047
 30
0.0
  0
VERTEX
  8
0
 10
77.620323
 20
221.133835
 30
0.0
  0
VERTEX
  8
0
 10
77.731064
 20
221.283356
 30
0.0
  0
VERTEX
  8
0
 10
77.819214
 20
221.471115
 30
0.0
  0
VERTEX
  8
0
 10
77.882492
 20
221.697128
 30
0.0
  0
VERTEX
  8
0
 10
77.920914
 20
221.957901
 30
0.0
  0
VERTEX
  8
0
 10
77.936737
 20
222.256927
 30
0.0
  0
VERTEX
  8
0
 10
77.923172
 20
222.552475
 30
0.0
  0
VERTEX
  8
0
 10
77.882492
 20
222.813263
 30
0.0
  0
VERTEX
  8
0
 10
77.816948
 20
223.039261
 30
0.0
  0
VERTEX
  8
0
 10
77.731064
 20
223.22702
 30
0.0
  0
VERTEX
  8
0
 10
77.620323
 20
223.376541
 30
0.0
  0
VERTEX
  8
0
 10
77.489235
 20
223.484329
 30
0.0
  0
VERTEX
  8
0
 10
77.337814
 20
223.550385
 30
0.0
  0
VERTEX
  8
0
 10
77.168304
 20
223.574738
 30
0.0
  0
VERTEX
  8
0
 10
76.996536
 20
223.550385
 30
0.0
  0
VERTEX
  8
0
 10
76.845116
 20
223.484329
 30
0.0
  0
VERTEX
  8
0
 10
76.714027
 20
223.376541
 30
0.0
  0
VERTEX
  8
0
 10
76.603287
 20
223.22702
 30
0.0
  0
VERTEX
  8
0
 10
76.515144
 20
223.039261
 30
0.0
  0
VERTEX
  8
0
 10
76.4496
 20
222.813263
 30
0.0
  0
VERTEX
  8
0
 10
76.40892
 20
222.552475
 30
0.0
  0
SEQEND
  8
0
  0
POLYLINE
  8
0
 62
     7
 66
     1
 10
0.0
 20
0.0
 30
0.0
 70
     1
 71
    16
  0
VERTEX
  8
0
 10
76.625885
 20
222.256927
 30
0.0
  0
VERTEX
  8
0
 10
76.662048
 20
222.68808
 30
0.0
  0
VERTEX
  8
0
 10
76.770531
 20
223.011444
 30
0.0
  0
VERTEX
  8
0
 10
76.942299
 20
223.209641
 30
0.0
  0
VERTEX
  8
0
 10
77.168304
 20
223.279175
 30
0.0
  0
VERTEX
  8
0
 10
77.392052
 20
223.209641
 30
0.0
  0
VERTEX
  8
0
 10
77.56382
 20
223.011444
 30
0.0
  0
VERTEX
  8
0
 10
77.670044
 20
222.68808
 30
0.0
  0
VERTEX
  8
0
 10
77.708466
 20
222.256927
 30
0.0
  0
VERTEX
  8
0
 10
77.670044
 20
221.822296
 30
0.0
  0
VERTEX
  8
0
 10
77.56382
 20
221.498932
 30
0.0
  0
VERTEX
  8
0
 10
77.392052
 20
221.300735
 30
0.0
  0
VERTEX
  8
0
 10
77.168304
 20
221.23468
 30
0.0
  0
VERTEX
  8
0
 10
76.942299
 20
221.300735
 30
0.0
  0
VERTEX
  8
0
 10
76.770531
 20
221.498932
 30
0.0
  0
VERTEX
  8
0
 10
76.662048
 20
221.822296
 30
0.0
  0
SEQEND
  8
0
  0
POLYLINE
  8
0
 62
     7
 66
     1
 10
0.0
 20
0.0
 30
0.0
 70
     1
 71
    30
  0
VERTEX
  8
0
 10
78.714722
 20
223.508667
 30
0.0
  0
VERTEX
  8
0
 10
78.714722
 20
221.008667
 30
0.0
  0
VERTEX
  8
0
 10
78.933952
 20
221.008667
 30
0.0
  0
VERTEX
  8
0
 10
78.933952
 20
222.079605
 30
0.0
  0
VERTEX
  8
0
 10
79.291046
 20
222.079605
 30
0.0
  0
VERTEX
  8
0
 10
79.462814
 20
222.069168
 30
0.0
  0
VERTEX
  8
0
 10
79.569038
 20
222.017014
 30
0.0
  0
VERTEX
  8
0
 10
79.6278
 20
221.898788
 30
0.0
  0
VERTEX
  8
0
 10
79.652664
 20
221.679733
 30
0.0
  0
VERTEX
  8
0
 10
79.666222
 20
221.35289
 30
0.0
  0
VERTEX
  8
0
 10
79.677521
 20
221.154709
 30
0.0
  0
VERTEX
  8
0
 10
79.70916
 20
221.008667
 30
0.0
  0
VERTEX
  8
0
 10
79.964554
 20
221.008667
 30
0.0
  0
VERTEX
  8
0
 10
79.964554
 20
221.078201
 30
0.0
  0
VERTEX
  8
0
 10
79.910309
 20
221.179047
 30
0.0
  0
VERTEX
  8
0
 10
79.889969
 20
221.370285
 30
0.0
  0
VERTEX
  8
0
 10
79.871887
 20
221.780579
 30
0.0
  0
VERTEX
  8
0
 10
79.856064
 20
221.954422
 30
0.0
  0
VERTEX
  8
0
 10
79.826691
 20
222.090027
 30
0.0
  0
VERTEX
  8
0
 10
79.772446
 20
222.183914
 30
0.0
  0
VERTEX
  8
0
 10
79.686562
 20
222.24649
 30
0.0
  0
VERTEX
  8
0
 10
79.781487
 20
222.340378
 30
0.0
  0
VERTEX
  8
0
 10
79.851547
 20
222.469025
 30
0.0
  0
VERTEX
  8
0
 10
79.894485
 20
222.625488
 30
0.0
  0
VERTEX
  8
0
 10
79.910309
 20
222.816727
 30
0.0
  0
VERTEX
  8
0
 10
79.894485
 20
223.011444
 30
0.0
  0
VERTEX
  8
0
 10
79.856064
 20
223.181824
 30
0.0
  0
VERTEX
  8
0
 10
79.700119
 20
223.421738
 30
0.0
  0
VERTEX
  8
0
 10
79.535133
 20
223.494766
 30
0.0
  0
VERTEX
  8
0
 10
79.345291
 20
223.508667
 30
0.0
  0
SEQEND
  8
0
  0
POLYLINE
  8
0
 62
     7
 66
     1
 10
0.0
 20
0.0
 30
0.0
 70
     1
 71
    11
  0
VERTEX
  8
0
 10
78.931694
 20
223.216599
 30
0.0
  0
VERTEX
  8
0
 10
79.309128
 20
223.216599
 30
0.0
  0
VERTEX
  8
0
 10
79.469589
 20
223.199203
 30
0.0
  0
VERTEX
  8
0
 10
79.58712
 20
223.136627
 30
0.0
  0
VERTEX
  8
0
 10
79.657181
 20
223.014923
 30
0.0
  0
VERTEX
  8
0
 10
79.682037
 20
222.809784
 30
0.0
  0
VERTEX
  8
0
 10
79.657181
 20
222.597687
 30
0.0
  0
VERTEX
  8
0
 10
79.589378
 20
222.462082
 30
0.0
  0
VERTEX
  8
0
 10
79.471855
 20
222.389053
 30
0.0
  0
VERTEX
  8
0
 10
79.309128
 20
222.368195
 30
0.0
  0
VERTEX
  8
0
 10
78.931694
 20
222.368195
 30
0.0
  0
SEQEND
  8
0
  0
POLYLINE
  8
0
 62
     7
 66
     1
 10
0.0
 20
0.0
 30
0.0
 70
     1
 71
    17
  0
VERTEX
  8
0
 10
80.918823
 20
223.140106
 30
0.0
  0
VERTEX
  8
0
 10
80.954987
 20
222.921051
 30
0.0
  0
VERTEX
  8
0
 10
81.364059
 20
221.008667
 30
0.0
  0
VERTEX
  8
0
 10
81.571991
 20
221.008667
 30
0.0
  0
VERTEX
  8
0
 10
81.990105
 20
222.921051
 30
0.0
  0
VERTEX
  8
0
 10
82.028526
 20
223.140106
 30
0.0
  0
VERTEX
  8
0
 10
82.028526
 20
221.008667
 30
0.0
  0
VERTEX
  8
0
 10
82.24324
 20
221.008667
 30
0.0
  0
VERTEX
  8
0
 10
82.24324
 20
223.508667
 30
0.0
  0
VERTEX
  8
0
 10
81.926826
 20
223.508667
 30
0.0
  0
VERTEX
  8
0
 10
81.508713
 20
221.596283
 30
0.0
  0
VERTEX
  8
0
 10
81.472549
 20
221.391144
 30
0.0
  0
VERTEX
  8
0
 10
81.434128
 20
221.596283
 30
0.0
  0
VERTEX
  8
0
 10
81.03183
 20
223.508667
 30
0.0
  0
VERTEX
  8
0
 10
80.715424
 20
223.508667
 30
0.0
  0
VERTEX
  8
0
 10
80.715424
 20
221.008667
 30
0.0
  0
VERTEX
  8
0
 10
80.918823
 20
221.008667
 30
0.0
  0
SEQEND
  8
0
  0
POLYLINE
  8
0
 62
     7
 66
     1
 10
0.0
 20
0.0
 30
0.0
 70
     1
 71
     8
  0
VERTEX
  8
0
 10
82.910484
 20
221.008667
 30
0.0
  0
VERTEX
  8
0
 10
83.138748
 20
221.008667
 30
0.0
  0
VERTEX
  8
0
 10
83.312775
 20
221.756226
 30
0.0
  0
VERTEX
  8
0
 10
83.952377
 20
221.756226
 30
0.0
  0
VERTEX
  8
0
 10
84.124146
 20
221.008667
 30
0.0
  0
VERTEX
  8
0
 10
84.363716
 20
221.008667
 30
0.0
  0
VERTEX
  8
0
 10
83.758011
 20
223.508667
 30
0.0
  0
VERTEX
  8
0
 10
83.513924
 20
223.508667
 30
0.0
  0
SEQEND
  8
0
  0
POLYLINE
  8
0
 62
     7
 66
     1
 10
0.0
 20
0.0
 30
0.0
 70
     1
 71
     3
  0
VERTEX
  8
0
 10
83.380585
 20
222.048309
 30
0.0
  0
VERTEX
  8
0
 10
83.635971
 20
223.150528
 30
0.0
  0
VERTEX
  8
0
 10
83.886841
 20
222.048309
 30
0.0
  0
SEQEND
  8
0
  0
POLYLINE
  8
0
 62
     7
 66
     1
 10
0.0
 20
0.0
 30
0.0
 70
     1
 71
     8
  0
VERTEX
  8
0
 10
85.39032
 20
221.008667
 30
0.0
  0
VERTEX
  8
0
 10
85.611801
 20
221.008667
 30
0.0
  0
VERTEX
  8
0
 10
85.611801
 20
223.206161
 30
0.0
  0
VERTEX
  8
0
 10
86.12484
 20
223.206161
 30
0.0
  0
VERTEX
  8
0
 10
86.12484
 20
223.508667
 30
0.0
  0
VERTEX
  8
0
 10
84.877274
 20
223.508667
 30
0.0
  0
VERTEX
  8
0
 10
84.877274
 20
223.206161
 30
0.0
  0
VERTEX
  8
0
 10
85.39032
 20
223.206161
 30
0.0
  0
SEQEND
  8
0
  0
POLYLINE
  8
0
 62
     7
 66
     1
 10
0.0
 20
0.0
 30
0.0
 70
     1
 71
     4
  0
VERTEX
  8
0
 10
86.825989
 20
221.008667
 30
0.0
  0
VERTEX
  8
0
 10
87.047478
 20
221.008667
 30
0.0
  0
VERTEX
  8
0
 10
87.047478
 20
223.508667
 30
0.0
  0
VERTEX
  8
0
 10
86.825989
 20
223.508667
 30
0.0
  0
SEQEND
  8
0
  0
POLYLINE
  8
0
 62
     7
 66
     1
 10
0.0
 20
0.0
 30
0.0
 70
     1
 71
    32
  0
VERTEX
  8
0
 10
87.832245
 20
222.256927
 30
0.0
  0
VERTEX
  8
0
 10
87.843552
 20
221.957901
 30
0.0
  0
VERTEX
  8
0
 10
87.884232
 20
221.697128
 30
0.0
  0
VERTEX
  8
0
 10
87.949776
 20
221.471115
 30
0.0
  0
VERTEX
  8
0
 10
88.037918
 20
221.283356
 30
0.0
  0
VERTEX
  8
0
 10
88.148666
 20
221.133835
 30
0.0
  0
VERTEX
  8
0
 10
88.279747
 20
221.026047
 30
0.0
  0
VERTEX
  8
0
 10
88.431168
 20
220.96347
 30
0.0
  0
VERTEX
  8
0
 10
88.602936
 20
220.939133
 30
0.0
  0
VERTEX
  8
0
 10
88.772446
 20
220.96347
 30
0.0
  0
VERTEX
  8
0
 10
88.923874
 20
221.026047
 30
0.0
  0
VERTEX
  8
0
 10
89.054955
 20
221.133835
 30
0.0
  0
VERTEX
  8
0
 10
89.165695
 20
221.283356
 30
0.0
  0
VERTEX
  8
0
 10
89.253845
 20
221.471115
 30
0.0
  0
VERTEX
  8
0
 10
89.317123
 20
221.697128
 30
0.0
  0
VERTEX
  8
0
 10
89.355545
 20
221.957901
 30
0.0
  0
VERTEX
  8
0
 10
89.371368
 20
222.256927
 30
0.0
  0
VERTEX
  8
0
 10
89.357803
 20
222.552475
 30
0.0
  0
VERTEX
  8
0
 10
89.317123
 20
222.813263
 30
0.0
  0
VERTEX
  8
0
 10
89.251587
 20
223.039261
 30
0.0
  0
VERTEX
  8
0
 10
89.165695
 20
223.22702
 30
0.0
  0
VERTEX
  8
0
 10
89.054955
 20
223.376541
 30
0.0
  0
VERTEX
  8
0
 10
88.923874
 20
223.484329
 30
0.0
  0
VERTEX
  8
0
 10
88.772446
 20
223.550385
 30
0.0
  0
VERTEX
  8
0
 10
88.602936
 20
223.574738
 30
0.0
  0
VERTEX
  8
0
 10
88.431168
 20
223.550385
 30
0.0
  0
VERTEX
  8
0
 10
88.279747
 20
223.484329
 30
0.0
  0
VERTEX
  8
0
 10
88.148666
 20
223.376541
 30
0.0
  0
VERTEX
  8
0
 10
88.037918
 20
223.22702
 30
0.0
  0
VERTEX
  8
0
 10
87.949776
 20
223.039261
 30
0.0
  0
VERTEX
  8
0
 10
87.884232
 20
222.813263
 30
0.0
  0
VERTEX
  8
0
 10
87.843552
 20
222.552475
 30
0.0
  0
SEQEND
  8
0
  0
POLYLINE
  8
0
 62
     7
 66
     1
 10
0.0
 20
0.0
 30
0.0
 70
     1
 71
    16
  0
VERTEX
  8
0
 10
88.060516
 20
222.256927
 30
0.0
  0
VERTEX
  8
0
 10
88.09668
 20
222.68808
 30
0.0
  0
VERTEX
  8
0
 10
88.20517
 20
223.011444
 30
0.0
  0
VERTEX
  8
0
 10
88.37693
 20
223.209641
 30
0.0
  0
VERTEX
  8
0
 10
88.602936
 20
223.279175
 30
0.0
  0
VERTEX
  8
0
 10
88.826691
 20
223.209641
 30
0.0
  0
VERTEX
  8
0
 10
88.998459
 20
223.011444
 30
0.0
  0
VERTEX
  8
0
 10
89.104675
 20
222.68808
 30
0.0
  0
VERTEX
  8
0
 10
89.143097
 20
222.256927
 30
0.0
  0
VERTEX
  8
0
 10
89.104675
 20
221.822296
 30
0.0
  0
VERTEX
  8
0
 10
88.998459
 20
221.498932
 30
0.0
  0
VERTEX
  8
0
 10
88.826691
 20
221.300735
 30
0.0
  0
VERTEX
  8
0
 10
88.602936
 20
221.23468
 30
0.0
  0
VERTEX
  8
0
 10
88.37693
 20
221.300735
 30
0.0
  0
VERTEX
  8
0
 10
88.20517
 20
221.498932
 30
0.0
  0
VERTEX
  8
0
 10
88.09668
 20
221.822296
 30
0.0
  0
SEQEND
  8
0
  0
POLYLINE
  8
0
 62
     7
 66
     1
 10
0.0
 20
0.0
 30
0.0
 70
     1
 71
    12
  0
VERTEX
  8
0
 10
90.147095
 20
221.008667
 30
0.0
  0
VERTEX
  8
0
 10
90.357285
 20
221.008667
 30
0.0
  0
VERTEX
  8
0
 10
90.357285
 20
223.035782
 30
0.0
  0
VERTEX
  8
0
 10
90.418304
 20
222.851501
 30
0.0
  0
VERTEX
  8
0
 10
91.193512
 20
221.008667
 30
0.0
  0
VERTEX
  8
0
 10
91.433083
 20
221.008667
 30
0.0
  0
VERTEX
  8
0
 10
91.433083
 20
223.508667
 30
0.0
  0
VERTEX
  8
0
 10
91.2229
 20
223.508667
 30
0.0
  0
VERTEX
  8
0
 10
91.2229
 20
221.481552
 30
0.0
  0
VERTEX
  8
0
 10
91.148315
 20
221.693649
 30
0.0
  0
VERTEX
  8
0
 10
90.388931
 20
223.508667
 30
0.0
  0
VERTEX
  8
0
 10
90.147095
 20
223.508667
 30
0.0
  0
SEQEND
  8
0
  0
LINE
  8
0
 62
     7
 10
71.927444
 20
111.68808
 30
0.0
 11
77.013229
 21
111.68808
 31
0.0
210
0.0
220
0.0
230
1.0
  0
LINE
  8
0
 62
     7
 10
77.013229
 20
118.464066
 30
0.0
 11
77.013229
 21
111.68808
 31
0.0
210
0.0
220
0.0
230
1.0
  0
LINE
  8
0
 62
     7
 10
77.413231
 20
118.68808
 30
0.0
 11
77.013229
 21
118.464066
 31
0.0
210
0.0
220
0.0
230
1.0
  0
LINE
  8
0
 62
     7
 10
77.413231
 20
118.68808
 30
0.0
 11
77.413231
 21
118.696129
 31
0.0
210
0.0
220
0.0
230
1.0
  0
LINE
  8
0
 62
     7
 10
71.613228
 20
115.447975
 30
0.0
 11
77.413231
 21
118.696129
 31
0.0
210
0.0
220
0.0
230
1.0
  0
LINE
  8
0
 62
     7
 10
71.613228
 20
112.207886
 30
0.0
 11
71.613228
 21
115.447975
 31
0.0
210
0.0
220
0.0
230
1.0
  0
ARC
  8
0
 62
     7
 10
70.513229
 20
111.18808
 30
0.0
 40
1.5
 50
19.471222
 51
42.833428
210
0.0
220
0.0
230
1.0
  0
ARC
  8
0
 62
     7
 10
82.013229
 20
112.68808
 30
0.0
 40
1.5
 50
90.000003
 51
180.000005
210
0.0
220
0.0
230
1.0
  0
ARC
  8
0
 62
     7
 10
91.313232
 20
112.68808
 30
0.0
 40
1.5
 50
25.841934
 51
90.000003
210
0.0
220
0.0
230
1.0
  0
ARC
  8
0
 62
     7
 10
91.313232
 20
112.68808
 30
0.0
 40
1.5
 50
20.000001
 51
25.841934
210
0.0
220
0.0
230
1.0
  0
LINE
  8
0
 62
     7
 10
92.722771
 20
113.201111
 30
0.0
 11
93.273468
 21
111.68808
 31
0.0
210
0.0
220
0.0
230
1.0
  0
LINE
  8
0
 62
     7
 10
121.813232
 20
112.088081
 30
0.0
 11
121.120407
 21
111.68808
 31
0.0
210
0.0
220
0.0
230
1.0
  0
LINE
  8
0
 62
     7
 10
121.813232
 20
112.088081
 30
0.0
 11
121.813232
 21
113.888077
 31
0.0
210
0.0
220
0.0
230
1.0
  0
ARC
  8
0
 62
     7
 10
123.013229
 20
113.888077
 30
0.0
 40
1.2
 50
0.0
 51
180.000005
210
0.0
220
0.0
230
1.0
  0
LINE
  8
0
 62
     7
 10
124.213226
 20
113.888077
 30
0.0
 11
124.213226
 21
111.68808
 31
0.0
210
0.0
220
0.0
230
1.0
  0
ARC
  8
0
 62
     7
 10
140.513229
 20
111.18808
 30
0.0
 40
1.5
 50
90.000003
 51
137.166577
210
0.0
220
0.0
230
1.0
  0
ARC
  8
0
 62
     7
 10
140.513229
 20
111.18808
 30
0.0
 40
1.5
 50
137.166577
 51
160.528775
210
0.0
220
0.0
230
1.0
  0
LINE
  8
0
 62
     7
 10
149.513229
 20
179.491745
 30
0.0
 11
149.513229
 21
182.29248
 31
0.0
210
0.0
220
0.0
230
1.0
  0
LINE
  8
0
 62
     7
 10
149.513229
 20
182.29248
 30
0.0
 11
143.017044
 21
185.930511
 31
0.0
210
0.0
220
0.0
230
1.0
  0
ARC
  8
0
 62
     7
 10
143.749969
 20
187.239258
 30
0.0
 40
1.5
 50
150.750007
 51
240.750006
210
0.0
220
0.0
230
1.0
  0
LINE
  8
0
 62
     7
 10
144.360718
 20
191.399689
 30
0.0
 11
142.441223
 21
187.972198
 31
0.0
210
0.0
220
0.0
230
1.0
  0
LINE
  8
0
 62
     7
 10
144.360718
 20
191.399689
 30
0.0
 11
142.978348
 21
192.173843
 31
0.0
210
0.0
220
0.0
230
1.0
  0
ARC
  8
0
 62
     7
 10
143.466965
 20
193.046341
 30
0.0
 40
1.0
 50
163.750001
 51
215.394254
210
0.0
220
0.0
230
1.0
  0
ARC
  8
0
 62
     7
 10
143.466965
 20
193.046341
 30
0.0
 40
1.0
 50
215.394254
 51
240.750006
210
0.0
220
0.0
230
1.0
  0
LINE
  8
0
 62
     7
 10
144.012482
 20
198.491516
 30
0.0
 11
142.506927
 21
193.326172
 31
0.0
210
0.0
220
0.0
230
1.0
  0
ARC
  8
0
 62
     7
 10
145.452545
 20
198.071777
 30
0.0
 40
1.5
 50
150.750007
 51
163.750001
210
0.0
220
0.0
230
1.0
  0
LINE
  8
0
 62
     7
 10
144.143814
 20
198.804688
 30
0.0
 11
147.513229
 21
204.821228
 31
0.0
210
0.0
220
0.0
230
1.0
  0
LINE
  8
0
 62
     7
 10
66.882645
 20
198.804688
 30
0.0
 11
63.513229
 21
204.821228
 31
0.0
210
0.0
220
0.0
230
1.0
  0
ARC
  8
0
 62
     7
 10
65.573906
 20
198.071777
 30
0.0
 40
1.5
 50
16.25
 51
29.249998
210
0.0
220
0.0
230
1.0
  0
LINE
  8
0
 62
     7
 10
67.013977
 20
198.491516
 30
0.0
 11
68.519539
 21
193.326172
 31
0.0
210
0.0
220
0.0
230
1.0
  0
ARC
  8
0
 62
     7
 10
67.559494
 20
193.046341
 30
0.0
 40
1.0
 50
324.605748
 51
16.25
210
0.0
220
0.0
230
1.0
  0
ARC
  8
0
 62
     7
 10
67.559494
 20
193.046341
 30
0.0
 40
1.0
 50
299.250003
 51
324.605748
210
0.0
220
0.0
230
1.0
  0
LINE
  8
0
 62
     7
 10
66.665741
 20
191.399689
 30
0.0
 11
68.048111
 21
192.173843
 31
0.0
210
0.0
220
0.0
230
1.0
  0
LINE
  8
0
 62
     7
 10
66.665741
 20
191.399689
 30
0.0
 11
68.585236
 21
187.972198
 31
0.0
210
0.0
220
0.0
230
1.0
  0
ARC
  8
0
 62
     7
 10
67.276489
 20
187.239258
 30
0.0
 40
1.5
 50
299.250003
 51
29.249998
210
0.0
220
0.0
230
1.0
  0
LINE
  8
0
 62
     7
 10
61.513229
 20
182.29248
 30
0.0
 11
68.009415
 21
185.930511
 31
0.0
210
0.0
220
0.0
230
1.0
  0
LINE
  8
0
 62
     7
 10
61.513229
 20
179.491745
 30
0.0
 11
61.513229
 21
182.29248
 31
0.0
210
0.0
220
0.0
230
1.0
  0
LINE
  8
0
 62
     7
 10
105.513229
 20
111.68808
 30
0.0
 11
118.363228
 21
111.68808
 31
0.0
210
0.0
220
0.0
230
1.0
  0
LINE
  8
0
 62
     7
 10
105.513229
 20
111.68808
 30
0.0
 11
93.273468
 21
111.68808
 31
0.0
210
0.0
220
0.0
230
1.0
  0
LINE
  8
0
 62
     7
 10
139.099014
 20
111.68808
 30
0.0
 11
134.013229
 21
111.68808
 31
0.0
210
0.0
220
0.0
230
1.0
  0
LINE
  8
0
 62
     7
 10
139.413239
 20
112.207886
 30
0.0
 11
139.413239
 21
115.447975
 31
0.0
210
0.0
220
0.0
230
1.0
  0
LINE
  8
0
 62
     7
 10
139.413239
 20
115.447975
 30
0.0
 11
133.613235
 21
118.696129
 31
0.0
210
0.0
220
0.0
230
1.0
  0
LINE
  8
0
 62
     7
 10
133.613235
 20
124.18808
 30
0.0
 11
133.613235
 21
118.696129
 31
0.0
210
0.0
220
0.0
230
1.0
  0
LINE
  8
0
 62
     7
 10
135.413223
 20
124.18808
 30
0.0
 11
133.613235
 21
124.18808
 31
0.0
210
0.0
220
0.0
230
1.0
  0
LINE
  8
0
 62
     7
 10
135.413223
 20
124.18808
 30
0.0
 11
135.413223
 21
128.461761
 31
0.0
210
0.0
220
0.0
230
1.0
  0
LINE
  8
0
 62
     7
 10
135.413223
 20
128.461761
 30
0.0
 11
154.513229
 21
117.765251
 31
0.0
210
0.0
220
0.0
230
1.0
  0
LINE
  8
0
 62
     7
 10
154.513229
 20
117.765251
 30
0.0
 11
154.513229
 21
120.18808
 31
0.0
210
0.0
220
0.0
230
1.0
  0
LINE
  8
0
 62
     7
 10
156.013229
 20
120.18808
 30
0.0
 11
154.513229
 21
120.18808
 31
0.0
210
0.0
220
0.0
230
1.0
  0
LINE
  8
0
 62
     7
 10
156.013229
 20
178.491745
 30
0.0
 11
156.013229
 21
120.18808
 31
0.0
210
0.0
220
0.0
230
1.0
  0
LINE
  8
0
 62
     7
 10
150.513229
 20
178.491745
 30
0.0
 11
156.013229
 21
178.491745
 31
0.0
210
0.0
220
0.0
230
1.0
  0
ARC
  8
0
 62
     7
 10
150.513229
 20
179.491745
 30
0.0
 40
1.0
 50
180.000005
 51
269.999997
210
0.0
220
0.0
230
1.0
  0
LINE
  8
0
 62
     7
 10
149.513229
 20
178.29248
 30
0.0
 11
149.513229
 21
179.491745
 31
0.0
210
0.0
220
0.0
230
1.0
  0
LINE
  8
0
 62
     7
 10
149.513229
 20
178.29248
 30
0.0
 11
149.277496
 21
177.871552
 31
0.0
210
0.0
220
0.0
230
1.0
  0
LINE
  8
0
 62
     7
 10
146.11377
 20
179.643311
 30
0.0
 11
149.277496
 21
177.871552
 31
0.0
210
0.0
220
0.0
230
1.0
  0
LINE
  8
0
 62
     7
 10
145.162415
 20
177.032074
 30
0.0
 11
146.11377
 21
179.643311
 31
0.0
210
0.0
220
0.0
230
1.0
  0
LINE
  8
0
 62
     7
 10
142.066528
 20
173.949066
 30
0.0
 11
145.162415
 21
177.032074
 31
0.0
210
0.0
220
0.0
230
1.0
  0
LINE
  8
0
 62
     7
 10
137.699188
 20
171.334427
 30
0.0
 11
142.066528
 21
173.949066
 31
0.0
210
0.0
220
0.0
230
1.0
  0
LINE
  8
0
 62
     7
 10
136.313187
 20
172.057144
 30
0.0
 11
137.699188
 21
171.334427
 31
0.0
210
0.0
220
0.0
230
1.0
  0
LINE
  8
0
 62
     7
 10
142.412918
 20
188.820801
 30
0.0
 11
136.313187
 21
172.057144
 31
0.0
210
0.0
220
0.0
230
1.0
  0
LINE
  8
0
 62
     7
 10
142.412918
 20
188.820801
 30
0.0
 11
142.423737
 21
191.790588
 31
0.0
210
0.0
220
0.0
230
1.0
  0
LINE
  8
0
 62
     7
 10
142.651779
 20
192.467133
 30
0.0
 11
142.423737
 21
191.790588
 31
0.0
210
0.0
220
0.0
230
1.0
  0
LINE
  8
0
 62
     7
 10
147.513229
 20
205.038086
 30
0.0
 11
147.513229
 21
204.821228
 31
0.0
210
0.0
220
0.0
230
1.0
  0
LINE
  8
0
 62
     7
 10
147.513229
 20
205.038086
 30
0.0
 11
143.61322
 21
205.038086
 31
0.0
210
0.0
220
0.0
230
1.0
  0
LINE
  8
0
 62
     7
 10
143.61322
 20
201.088074
 30
0.0
 11
143.61322
 21
205.038086
 31
0.0
210
0.0
220
0.0
230
1.0
  0
LINE
  8
0
 62
     7
 10
143.61322
 20
201.088074
 30
0.0
 11
67.413231
 21
201.088074
 31
0.0
210
0.0
220
0.0
230
1.0
  0
LINE
  8
0
 62
     7
 10
67.413231
 20
205.038086
 30
0.0
 11
67.413231
 21
201.088074
 31
0.0
210
0.0
220
0.0
230
1.0
  0
LINE
  8
0
 62
     7
 10
67.413231
 20
205.038086
 30
0.0
 11
63.513229
 21
205.038086
 31
0.0
210
0.0
220
0.0
230
1.0
  0
LINE
  8
0
 62
     7
 10
63.513229
 20
205.038086
 30
0.0
 11
63.513229
 21
204.821228
 31
0.0
210
0.0
220
0.0
230
1.0
  0
LINE
  8
0
 62
     7
 10
68.37468
 20
192.467133
 30
0.0
 11
68.602722
 21
191.790588
 31
0.0
210
0.0
220
0.0
230
1.0
  0
LINE
  8
0
 62
     7
 10
68.613541
 20
188.820801
 30
0.0
 11
68.602722
 21
191.790588
 31
0.0
210
0.0
220
0.0
230
1.0
  0
LINE
  8
0
 62
     7
 10
68.613541
 20
188.820801
 30
0.0
 11
74.713272
 21
172.057144
 31
0.0
210
0.0
220
0.0
230
1.0
  0
LINE
  8
0
 62
     7
 10
74.713272
 20
172.057144
 30
0.0
 11
73.327263
 21
171.334427
 31
0.0
210
0.0
220
0.0
230
1.0
  0
LINE
  8
0
 62
     7
 10
73.327263
 20
171.334427
 30
0.0
 11
68.95993
 21
173.949066
 31
0.0
210
0.0
220
0.0
230
1.0
  0
LINE
  8
0
 62
     7
 10
68.95993
 20
173.949066
 30
0.0
 11
65.864044
 21
177.032074
 31
0.0
210
0.0
220
0.0
230
1.0
  0
LINE
  8
0
 62
     7
 10
65.864044
 20
177.032074
 30
0.0
 11
64.912689
 21
179.643311
 31
0.0
210
0.0
220
0.0
230
1.0
  0
LINE
  8
0
 62
     7
 10
64.912689
 20
179.643311
 30
0.0
 11
61.74897
 21
177.871552
 31
0.0
210
0.0
220
0.0
230
1.0
  0
LINE
  8
0
 62
     7
 10
61.513229
 20
178.29248
 30
0.0
 11
61.74897
 21
177.871552
 31
0.0
210
0.0
220
0.0
230
1.0
  0
LINE
  8
0
 62
     7
 10
61.513229
 20
178.29248
 30
0.0
 11
61.513229
 21
179.491745
 31
0.0
210
0.0
220
0.0
230
1.0
  0
ARC
  8
0
 62
     7
 10
60.513229
 20
179.491745
 30
0.0
 40
1.0
 50
269.999997
 51
360.0
210
0.0
220
0.0
230
1.0
  0
LINE
  8
0
 62
     7
 10
60.513229
 20
178.491745
 30
0.0
 11
55.013229
 21
178.491745
 31
0.0
210
0.0
220
0.0
230
1.0
  0
LINE
  8
0
 62
     7
 10
55.013229
 20
178.491745
 30
0.0
 11
55.013229
 21
120.18808
 31
0.0
210
0.0
220
0.0
230
1.0
  0
LINE
  8
0
 62
     7
 10
55.013229
 20
120.18808
 30
0.0
 11
56.513229
 21
120.18808
 31
0.0
210
0.0
220
0.0
230
1.0
  0
LINE
  8
0
 62
     7
 10
56.513229
 20
117.765251
 30
0.0
 11
56.513229
 21
120.18808
 31
0.0
210
0.0
220
0.0
230
1.0
  0
LINE
  8
0
 62
     7
 10
75.613228
 20
128.461761
 30
0.0
 11
56.513229
 21
117.765251
 31
0.0
210
0.0
220
0.0
230
1.0
  0
LINE
  8
0
 62
     7
 10
75.613228
 20
124.18808
 30
0.0
 11
75.613228
 21
128.461761
 31
0.0
210
0.0
220
0.0
230
1.0
  0
LINE
  8
0
 62
     7
 10
75.613228
 20
124.18808
 30
0.0
 11
77.413231
 21
124.18808
 31
0.0
210
0.0
220
0.0
230
1.0
  0
LINE
  8
0
 62
     7
 10
77.413231
 20
124.18808
 30
0.0
 11
77.413231
 21
120.18808
 31
0.0
210
0.0
220
0.0
230
1.0
  0
LINE
  8
0
 62
     7
 10
77.413231
 20
120.18808
 30
0.0
 11
91.013229
 21
120.18808
 31
0.0
210
0.0
220
0.0
230
1.0
  0
LINE
  8
0
 62
     7
 10
91.013229
 20
114.18808
 30
0.0
 11
91.013229
 21
120.18808
 31
0.0
210
0.0
220
0.0
230
1.0
  0
LINE
  8
0
 62
     7
 10
91.013229
 20
114.18808
 30
0.0
 11
91.313232
 21
114.18808
 31
0.0
210
0.0
220
0.0
230
1.0
  0
LINE
  8
0
 62
     7
 10
92.663231
 20
113.341911
 30
0.0
 11
92.663231
 21
114.138077
 31
0.0
210
0.0
220
0.0
230
1.0
  0
ARC
  8
0
 62
     7
 10
94.413231
 20
114.138077
 30
0.0
 40
1.75
 50
120.949727
 51
180.000005
210
0.0
220
0.0
230
1.0
  0
LINE
  8
0
 62
     7
 10
93.513229
 20
124.498077
 30
0.0
 11
93.513229
 21
115.638916
 31
0.0
210
0.0
220
0.0
230
1.0
  0
LINE
  8
0
 62
     7
 10
93.513229
 20
124.498077
 30
0.0
 11
117.513229
 21
124.498077
 31
0.0
210
0.0
220
0.0
230
1.0
  0
LINE
  8
0
 62
     7
 10
117.513229
 20
124.498077
 30
0.0
 11
117.513229
 21
115.638916
 31
0.0
210
0.0
220
0.0
230
1.0
  0
ARC
  8
0
 62
     7
 10
116.613228
 20
114.138077
 30
0.0
 40
1.75
 50
0.0
 51
59.050278
210
0.0
220
0.0
230
1.0
  0
LINE
  8
0
 62
     7
 10
118.363228
 20
111.68808
 30
0.0
 11
118.363228
 21
114.138077
 31
0.0
210
0.0
220
0.0
230
1.0
  0
LINE
  8
0
 62
     7
 10
121.120407
 20
111.68808
 30
0.0
 11
118.363228
 21
111.68808
 31
0.0
210
0.0
220
0.0
230
1.0
  0
LINE
  8
0
 62
     7
 10
134.013229
 20
111.68808
 30
0.0
 11
124.213226
 21
111.68808
 31
0.0
210
0.0
220
0.0
230
1.0
  0
LINE
  8
0
 62
     7
 10
153.513229
 20
112.68808
 30
0.0
 11
140.513229
 21
112.68808
 31
0.0
210
0.0
220
0.0
230
1.0
  0
ARC
  8
0
 62
     7
 10
153.513229
 20
114.18808
 30
0.0
 40
1.5
 50
269.999997
 51
360.0
210
0.0
220
0.0
230
1.0
  0
LINE
  8
0
 62
     7
 10
155.013229
 20
115.68808
 30
0.0
 11
155.013229
 21
114.18808
 31
0.0
210
0.0
220
0.0
230
1.0
  0
ARC
  8
0
 62
     7
 10
156.013229
 20
115.68808
 30
0.0
 40
1.0
 50
90.000003
 51
180.000005
210
0.0
220
0.0
230
1.0
  0
LINE
  8
0
 62
     7
 10
156.013229
 20
116.68808
 30
0.0
 11
156.013229
 21
116.925217
 31
0.0
210
0.0
220
0.0
230
1.0
  0
LINE
  8
0
 62
     7
 10
156.013229
 20
120.18808
 30
0.0
 11
156.013229
 21
117.68808
 31
0.0
210
0.0
220
0.0
230
1.0
  0
LINE
  8
0
 62
     7
 10
135.413223
 20
117.68808
 30
0.0
 11
135.413223
 21
124.18808
 31
0.0
210
0.0
220
0.0
230
1.0
  0
LINE
  8
0
 62
     7
 10
77.413231
 20
118.696129
 30
0.0
 11
77.413231
 21
120.18808
 31
0.0
210
0.0
220
0.0
230
1.0
  0
LINE
  8
0
 62
     7
 10
156.013229
 20
117.68808
 30
0.0
 11
154.651031
 21
117.68808
 31
0.0
210
0.0
220
0.0
230
1.0
  0
LINE
  8
0
 62
     7
 10
141.86322
 20
210.68808
 30
0.0
 11
141.86322
 21
208.888077
 31
0.0
210
0.0
220
0.0
230
1.0
  0
LINE
  8
0
 62
     7
 10
105.513229
 20
210.68808
 30
0.0
 11
141.86322
 21
210.68808
 31
0.0
210
0.0
220
0.0
230
1.0
  0
LINE
  8
0
 62
     7
 10
55.013229
 20
120.18808
 30
0.0
 11
55.013229
 21
117.68808
 31
0.0
210
0.0
220
0.0
230
1.0
  0
LINE
  8
0
 62
     7
 10
55.013229
 20
116.68808
 30
0.0
 11
55.013229
 21
116.925217
 31
0.0
210
0.0
220
0.0
230
1.0
  0
ARC
  8
0
 62
     7
 10
55.013229
 20
115.68808
 30
0.0
 40
1.0
 50
0.0
 51
90.000003
210
0.0
220
0.0
230
1.0
  0
LINE
  8
0
 62
     7
 10
56.013229
 20
115.68808
 30
0.0
 11
56.013229
 21
114.18808
 31
0.0
210
0.0
220
0.0
230
1.0
  0
ARC
  8
0
 62
     7
 10
57.513229
 20
114.18808
 30
0.0
 40
1.5
 50
180.000005
 51
269.999997
210
0.0
220
0.0
230
1.0
  0
LINE
  8
0
 62
     7
 10
70.513229
 20
112.68808
 30
0.0
 11
57.513229
 21
112.68808
 31
0.0
210
0.0
220
0.0
230
1.0
  0
ARC
  8
0
 62
     7
 10
70.513229
 20
111.18808
 30
0.0
 40
1.5
 50
42.833428
 51
90.000003
210
0.0
220
0.0
230
1.0
  0
LINE
  8
0
 62
     7
 10
75.613228
 20
117.68808
 30
0.0
 11
75.613228
 21
124.18808
 31
0.0
210
0.0
220
0.0
230
1.0
  0
LINE
  8
0
 62
     7
 10
68.363228
 20
206.68808
 30
0.0
 11
68.363228
 21
205.038086
 31
0.0
210
0.0
220
0.0
230
1.0
  0
LINE
  8
0
 62
     7
 10
68.363228
 20
205.038086
 30
0.0
 11
67.413231
 21
205.038086
 31
0.0
210
0.0
220
0.0
230
1.0
  0
LINE
  8
0
 62
     7
 10
142.663239
 20
205.038086
 30
0.0
 11
143.61322
 21
205.038086
 31
0.0
210
0.0
220
0.0
230
1.0
  0
LINE
  8
0
 62
     7
 10
142.663239
 20
206.68808
 30
0.0
 11
142.663239
 21
205.038086
 31
0.0
210
0.0
220
0.0
230
1.0
  0
LINE
  8
0
 62
     7
 10
142.663239
 20
206.68808
 30
0.0
 11
142.163239
 21
206.68808
 31
0.0
210
0.0
220
0.0
230
1.0
  0
LINE
  8
0
 62
     7
 10
142.163239
 20
208.09436
 30
0.0
 11
142.163239
 21
206.68808
 31
0.0
210
0.0
220
0.0
230
1.0
  0
ARC
  8
0
 62
     7
 10
143.063232
 20
208.888077
 30
0.0
 40
1.2
 50
180.000005
 51
221.409615
210
0.0
220
0.0
230
1.0
  0
LINE
  8
0
 62
     7
 10
105.513229
 20
210.68808
 30
0.0
 11
68.863228
 21
210.68808
 31
0.0
210
0.0
220
0.0
230
1.0
  0
LINE
  8
0
 62
     7
 10
68.863228
 20
210.68808
 30
0.0
 11
68.863228
 21
206.68808
 31
0.0
210
0.0
220
0.0
230
1.0
  0
LINE
  8
0
 62
     7
 10
68.363228
 20
206.68808
 30
0.0
 11
68.863228
 21
206.68808
 31
0.0
210
0.0
220
0.0
230
1.0
  0
LINE
  8
0
 62
     7
 10
56.375423
 20
117.68808
 30
0.0
 11
55.013229
 21
116.925217
 31
0.0
210
0.0
220
0.0
230
1.0
  0
LINE
  8
0
 62
     7
 10
142.663239
 20
206.68808
 30
0.0
 11
143.963226
 21
206.68808
 31
0.0
210
0.0
220
0.0
230
1.0
  0
LINE
  8
0
 62
     7
 10
55.013229
 20
117.68808
 30
0.0
 11
56.375423
 21
117.68808
 31
0.0
210
0.0
220
0.0
230
1.0
  0
LINE
  8
0
 62
     7
 10
55.013229
 20
117.68808
 30
0.0
 11
55.013229
 21
116.925217
 31
0.0
210
0.0
220
0.0
230
1.0
  0
LINE
  8
0
 62
     7
 10
143.963226
 20
208.09436
 30
0.0
 11
143.963226
 21
206.68808
 31
0.0
210
0.0
220
0.0
230
1.0
  0
LINE
  8
0
 62
     7
 10
147.513229
 20
205.038086
 30
0.0
 11
147.513229
 21
210.68808
 31
0.0
210
0.0
220
0.0
230
1.0
  0
LINE
  8
0
 62
     7
 10
144.263229
 20
210.68808
 30
0.0
 11
147.513229
 21
210.68808
 31
0.0
210
0.0
220
0.0
230
1.0
  0
LINE
  8
0
 62
     7
 10
144.263229
 20
210.68808
 30
0.0
 11
144.263229
 21
208.888077
 31
0.0
210
0.0
220
0.0
230
1.0
  0
ARC
  8
0
 62
     7
 10
143.063232
 20
208.888077
 30
0.0
 40
1.2
 50
318.59038
 51
0.0
210
0.0
220
0.0
230
1.0
  0
LINE
  8
0
 62
     7
 10
67.063232
 20
210.68808
 30
0.0
 11
67.063232
 21
206.68808
 31
0.0
210
0.0
220
0.0
230
1.0
  0
LINE
  8
0
 62
     7
 10
67.063232
 20
210.68808
 30
0.0
 11
68.863228
 21
210.68808
 31
0.0
210
0.0
220
0.0
230
1.0
  0
ARC
  8
0
 62
     7
 10
143.063232
 20
208.888077
 30
0.0
 40
1.2
 50
221.409615
 51
318.59038
210
0.0
220
0.0
230
1.0
  0
LINE
  8
0
 62
     7
 10
63.513229
 20
210.68808
 30
0.0
 11
67.063232
 21
210.68808
 31
0.0
210
0.0
220
0.0
230
1.0
  0
LINE
  8
0
 62
     7
 10
63.513229
 20
210.68808
 30
0.0
 11
63.513229
 21
205.038086
 31
0.0
210
0.0
220
0.0
230
1.0
  0
LINE
  8
0
 62
     7
 10
68.363228
 20
206.68808
 30
0.0
 11
67.063232
 21
206.68808
 31
0.0
210
0.0
220
0.0
230
1.0
  0
LINE
  8
0
 62
     7
 10
156.013229
 20
117.68808
 30
0.0
 11
156.013229
 21
116.925217
 31
0.0
210
0.0
220
0.0
230
1.0
  0
LINE
  8
0
 62
     7
 10
154.651031
 20
117.68808
 30
0.0
 11
156.013229
 21
116.925217
 31
0.0
210
0.0
220
0.0
230
1.0
  0
LINE
  8
0
 62
     7
 10
80.513229
 20
111.68808
 30
0.0
 11
80.513229
 21
112.68808
 31
0.0
210
0.0
220
0.0
230
1.0
  0
LINE
  8
0
 62
     7
 10
82.013229
 20
114.18808
 30
0.0
 11
91.013229
 21
114.18808
 31
0.0
210
0.0
220
0.0
230
1.0
  0
LINE
  8
0
 62
     7
 10
80.513229
 20
111.68808
 30
0.0
 11
77.013229
 21
111.68808
 31
0.0
210
0.0
220
0.0
230
1.0
  0
ENDSEC
  0
EOF
