G04 #@! TF.GenerationSoftware,KiCad,Pcbnew,5.0.1-33cea8e~68~ubuntu18.10.1*
G04 #@! TF.CreationDate,2018-11-19T21:07:17-05:00*
G04 #@! TF.ProjectId,Helios,48656C696F732E6B696361645F706362,rev?*
G04 #@! TF.SameCoordinates,Original*
G04 #@! TF.FileFunction,Copper,L2,Bot,Signal*
G04 #@! TF.FilePolarity,Positive*
%FSLAX46Y46*%
G04 Gerber Fmt 4.6, Leading zero omitted, Abs format (unit mm)*
G04 Created by KiCad (PCBNEW 5.0.1-33cea8e~68~ubuntu18.10.1) date Mon 19 Nov 2018 09:07:17 PM EST*
%MOMM*%
%LPD*%
G01*
G04 APERTURE LIST*
G04 #@! TA.AperFunction,ComponentPad*
%ADD10C,1.524000*%
G04 #@! TD*
G04 #@! TA.AperFunction,ComponentPad*
%ADD11R,1.700000X1.700000*%
G04 #@! TD*
G04 #@! TA.AperFunction,ComponentPad*
%ADD12O,1.700000X1.700000*%
G04 #@! TD*
G04 #@! TA.AperFunction,ComponentPad*
%ADD13O,1.501140X2.499360*%
G04 #@! TD*
G04 #@! TA.AperFunction,ViaPad*
%ADD14C,0.600000*%
G04 #@! TD*
G04 #@! TA.AperFunction,Conductor*
%ADD15C,0.250000*%
G04 #@! TD*
G04 #@! TA.AperFunction,Conductor*
%ADD16C,0.254000*%
G04 #@! TD*
G04 APERTURE END LIST*
D10*
G04 #@! TO.P,J4,1*
G04 #@! TO.N,/RS485A*
X156800000Y-56750000D03*
G04 #@! TO.P,J4,2*
G04 #@! TO.N,/RS485B*
X154050000Y-52350000D03*
G04 #@! TO.P,J4,3*
G04 #@! TO.N,GND*
X148850000Y-52300000D03*
G04 #@! TO.P,J4,4*
G04 #@! TO.N,/Wind*
X148850000Y-46850000D03*
G04 #@! TD*
G04 #@! TO.P,J5,1*
G04 #@! TO.N,RTD-1*
X186950000Y-121750000D03*
G04 #@! TO.P,J5,2*
G04 #@! TO.N,RTD-2*
X184200000Y-126150000D03*
G04 #@! TO.P,J5,3*
G04 #@! TO.N,RTD-3*
X179000000Y-126200000D03*
G04 #@! TO.P,J5,4*
G04 #@! TO.N,RTD-4*
X179000000Y-131650000D03*
G04 #@! TD*
D11*
G04 #@! TO.P,CON1,1*
G04 #@! TO.N,Net-(CON1-Pad1)*
X160270000Y-96140000D03*
D12*
G04 #@! TO.P,CON1,2*
G04 #@! TO.N,GND*
X160270000Y-93600000D03*
G04 #@! TO.P,CON1,3*
G04 #@! TO.N,Net-(CON1-Pad3)*
X162810000Y-96140000D03*
G04 #@! TO.P,CON1,4*
G04 #@! TO.N,+3V3*
X162810000Y-93600000D03*
G04 #@! TO.P,CON1,5*
G04 #@! TO.N,Net-(CON1-Pad5)*
X165350000Y-96140000D03*
G04 #@! TO.P,CON1,6*
G04 #@! TO.N,Net-(CON1-Pad6)*
X165350000Y-93600000D03*
G04 #@! TO.P,CON1,7*
G04 #@! TO.N,Net-(CON1-Pad7)*
X167890000Y-96140000D03*
G04 #@! TO.P,CON1,8*
G04 #@! TO.N,Net-(CON1-Pad8)*
X167890000Y-93600000D03*
G04 #@! TO.P,CON1,9*
G04 #@! TO.N,Net-(CON1-Pad9)*
X170430000Y-96140000D03*
G04 #@! TO.P,CON1,10*
G04 #@! TO.N,Net-(CON1-Pad10)*
X170430000Y-93600000D03*
G04 #@! TD*
D11*
G04 #@! TO.P,J7,1*
G04 #@! TO.N,Net-(J7-Pad1)*
X97970000Y-90590000D03*
D12*
G04 #@! TO.P,J7,2*
G04 #@! TO.N,Net-(J7-Pad2)*
X97970000Y-88050000D03*
G04 #@! TO.P,J7,3*
G04 #@! TO.N,Net-(J7-Pad3)*
X97970000Y-85510000D03*
G04 #@! TO.P,J7,4*
G04 #@! TO.N,Net-(J7-Pad4)*
X97970000Y-82970000D03*
G04 #@! TO.P,J7,5*
G04 #@! TO.N,Net-(J7-Pad5)*
X97970000Y-80430000D03*
G04 #@! TO.P,J7,6*
G04 #@! TO.N,Net-(J7-Pad6)*
X97970000Y-77890000D03*
G04 #@! TO.P,J7,7*
G04 #@! TO.N,Net-(J7-Pad7)*
X97970000Y-75350000D03*
G04 #@! TO.P,J7,8*
G04 #@! TO.N,Net-(J7-Pad8)*
X97970000Y-72810000D03*
G04 #@! TO.P,J7,9*
G04 #@! TO.N,Net-(J7-Pad9)*
X97970000Y-70270000D03*
G04 #@! TO.P,J7,10*
G04 #@! TO.N,Net-(J7-Pad10)*
X97970000Y-67730000D03*
G04 #@! TO.P,J7,11*
G04 #@! TO.N,Net-(J7-Pad11)*
X97970000Y-65190000D03*
G04 #@! TD*
D11*
G04 #@! TO.P,J8,1*
G04 #@! TO.N,GND*
X182750000Y-83950000D03*
D12*
G04 #@! TO.P,J8,2*
G04 #@! TO.N,Net-(J8-Pad2)*
X182750000Y-86490000D03*
G04 #@! TO.P,J8,3*
G04 #@! TO.N,Net-(J8-Pad3)*
X182750000Y-89030000D03*
G04 #@! TO.P,J8,4*
G04 #@! TO.N,/GPIOB/UART1_RX*
X182750000Y-91570000D03*
G04 #@! TO.P,J8,5*
G04 #@! TO.N,/GPIOB/UART1_TX*
X182750000Y-94110000D03*
G04 #@! TO.P,J8,6*
G04 #@! TO.N,Net-(J8-Pad6)*
X182750000Y-96650000D03*
G04 #@! TD*
D11*
G04 #@! TO.P,J9,1*
G04 #@! TO.N,Net-(J9-Pad1)*
X99060000Y-98300000D03*
D12*
G04 #@! TO.P,J9,2*
G04 #@! TO.N,Net-(J9-Pad2)*
X101600000Y-98300000D03*
G04 #@! TO.P,J9,3*
G04 #@! TO.N,Net-(J9-Pad3)*
X104140000Y-98300000D03*
G04 #@! TO.P,J9,4*
G04 #@! TO.N,Net-(J9-Pad4)*
X106680000Y-98300000D03*
G04 #@! TO.P,J9,5*
G04 #@! TO.N,Net-(J9-Pad5)*
X109220000Y-98300000D03*
G04 #@! TO.P,J9,6*
G04 #@! TO.N,Net-(J9-Pad6)*
X111760000Y-98300000D03*
G04 #@! TO.P,J9,7*
G04 #@! TO.N,Net-(J9-Pad7)*
X114300000Y-98300000D03*
G04 #@! TO.P,J9,8*
G04 #@! TO.N,Net-(J9-Pad8)*
X116840000Y-98300000D03*
G04 #@! TO.P,J9,9*
G04 #@! TO.N,Net-(J9-Pad9)*
X119380000Y-98300000D03*
G04 #@! TD*
D11*
G04 #@! TO.P,J10,1*
G04 #@! TO.N,GND*
X92000000Y-75000000D03*
D12*
G04 #@! TO.P,J10,2*
G04 #@! TO.N,/GPIOB/MOSI*
X92000000Y-77540000D03*
G04 #@! TO.P,J10,3*
G04 #@! TO.N,/GPIOB/SCK*
X92000000Y-80080000D03*
G04 #@! TO.P,J10,4*
G04 #@! TO.N,/GPIOB/~CS*
X92000000Y-82620000D03*
G04 #@! TO.P,J10,5*
G04 #@! TO.N,/GPIOB/D/~C*
X92000000Y-85160000D03*
G04 #@! TO.P,J10,6*
G04 #@! TO.N,/GPIOB/~RST*
X92000000Y-87700000D03*
G04 #@! TO.P,J10,7*
G04 #@! TO.N,/GPIOB/485TX*
X92000000Y-90240000D03*
G04 #@! TO.P,J10,8*
G04 #@! TO.N,/GPIOB/485RX*
X92000000Y-92780000D03*
G04 #@! TO.P,J10,9*
G04 #@! TO.N,+3V3*
X92000000Y-95320000D03*
G04 #@! TO.P,J10,10*
G04 #@! TO.N,+24V*
X92000000Y-97860000D03*
G04 #@! TD*
D13*
G04 #@! TO.P,U1,2*
G04 #@! TO.N,GND*
X109350000Y-77470000D03*
G04 #@! TO.P,U1,1*
G04 #@! TO.N,+24V*
X106810000Y-77470000D03*
G04 #@! TO.P,U1,3*
G04 #@! TO.N,+3V3*
X111890000Y-77470000D03*
G04 #@! TD*
D10*
G04 #@! TO.P,J1,1*
G04 #@! TO.N,RTDa1*
X126750000Y-121750000D03*
G04 #@! TO.P,J1,2*
G04 #@! TO.N,RTDa2*
X124000000Y-126150000D03*
G04 #@! TO.P,J1,3*
G04 #@! TO.N,RTDa3*
X118800000Y-126200000D03*
G04 #@! TO.P,J1,4*
G04 #@! TO.N,RTDa4*
X118800000Y-131650000D03*
G04 #@! TD*
G04 #@! TO.P,J2,1*
G04 #@! TO.N,Net-(D2-Pad2)*
X126700000Y-56750000D03*
G04 #@! TO.P,J2,2*
G04 #@! TO.N,GNDPWR*
X123950000Y-52350000D03*
G04 #@! TO.P,J2,3*
G04 #@! TO.N,GND*
X118750000Y-52300000D03*
G04 #@! TO.P,J2,4*
G04 #@! TO.N,/Pyro*
X118750000Y-46850000D03*
G04 #@! TD*
G04 #@! TO.P,J3,1*
G04 #@! TO.N,RTDb1*
X156850000Y-121750000D03*
G04 #@! TO.P,J3,2*
G04 #@! TO.N,RTDb2*
X154100000Y-126150000D03*
G04 #@! TO.P,J3,3*
G04 #@! TO.N,RTDb3*
X148900000Y-126200000D03*
G04 #@! TO.P,J3,4*
G04 #@! TO.N,RTDb4*
X148900000Y-131650000D03*
G04 #@! TD*
G04 #@! TO.P,J6,1*
G04 #@! TO.N,Net-(J11-Pad2)*
X186900000Y-56750000D03*
G04 #@! TO.P,J6,2*
G04 #@! TO.N,Net-(J12-Pad2)*
X184150000Y-52350000D03*
G04 #@! TO.P,J6,3*
G04 #@! TO.N,Net-(J13-Pad2)*
X178950000Y-52300000D03*
G04 #@! TO.P,J6,4*
G04 #@! TO.N,/Snow*
X178950000Y-46850000D03*
G04 #@! TD*
D14*
G04 #@! TO.N,+3V3*
X142205500Y-99504500D03*
X140112800Y-111065500D03*
X140024700Y-105950000D03*
X150207600Y-84106000D03*
X125606700Y-101792100D03*
X125586400Y-99364700D03*
G04 #@! TO.N,GND*
X155723000Y-97136100D03*
G04 #@! TO.N,RTD-1*
X109179100Y-113211900D03*
X104192200Y-117476000D03*
G04 #@! TO.N,RTDb1*
X108132300Y-117213200D03*
G04 #@! TO.N,RTDb4*
X157153200Y-119177900D03*
G04 #@! TO.N,Net-(CON1-Pad1)*
X143628500Y-81024700D03*
G04 #@! TO.N,Net-(CON1-Pad5)*
X142637700Y-85801400D03*
G04 #@! TO.N,Net-(D4-Pad2)*
X141495200Y-62032800D03*
X147156200Y-89678200D03*
G04 #@! TO.N,Net-(D6-Pad2)*
X126221600Y-69118900D03*
X147349100Y-90556100D03*
G04 #@! TO.N,RTDa3*
X129555500Y-116158700D03*
G04 #@! TO.N,RTDa4*
X153293100Y-115569200D03*
G04 #@! TO.N,/Snow*
X156947900Y-82292900D03*
G04 #@! TO.N,Net-(J7-Pad1)*
X105032300Y-89780800D03*
G04 #@! TO.N,Net-(J7-Pad6)*
X133052800Y-85876800D03*
G04 #@! TO.N,Net-(J7-Pad7)*
X141551700Y-84364600D03*
G04 #@! TO.N,Net-(J7-Pad8)*
X145163900Y-86825800D03*
G04 #@! TO.N,Net-(J7-Pad9)*
X142763800Y-83522000D03*
G04 #@! TO.N,Net-(J7-Pad10)*
X145153600Y-85775100D03*
G04 #@! TO.N,Net-(J7-Pad11)*
X140291900Y-78407500D03*
G04 #@! TO.N,/GPIOB/UART1_TX*
X136170000Y-80697100D03*
G04 #@! TO.N,/GPIOB/UART1_RX*
X137152700Y-80601500D03*
G04 #@! TO.N,Net-(J9-Pad1)*
X134199100Y-99151500D03*
G04 #@! TO.N,Net-(J9-Pad2)*
X134174200Y-96628800D03*
G04 #@! TO.N,Net-(J9-Pad3)*
X131416500Y-95702000D03*
G04 #@! TO.N,Net-(J9-Pad4)*
X130187700Y-86533100D03*
G04 #@! TO.N,Net-(J9-Pad5)*
X129985000Y-84427800D03*
G04 #@! TO.N,Net-(J9-Pad6)*
X130534600Y-85010000D03*
G04 #@! TO.N,Net-(J9-Pad7)*
X131171300Y-84444000D03*
G04 #@! TO.N,Net-(J9-Pad8)*
X129365300Y-86135100D03*
G04 #@! TO.N,Net-(J9-Pad9)*
X129764100Y-94913700D03*
G04 #@! TO.N,/GPIOB/MOSI*
X133468100Y-87133800D03*
G04 #@! TO.N,/GPIOB/SCK*
X132901300Y-90531400D03*
G04 #@! TO.N,/GPIOB/D/~C*
X131657800Y-89455800D03*
G04 #@! TO.N,/GPIOB/~RST*
X134865600Y-92223200D03*
G04 #@! TO.N,~RTDcs1*
X110167800Y-110035000D03*
X136841300Y-90081400D03*
G04 #@! TO.N,~RTDcs2*
X127590900Y-111128800D03*
X137491000Y-91620600D03*
G04 #@! TO.N,~RTDcs3*
X144549900Y-112495000D03*
X139280200Y-93880100D03*
G04 #@! TO.N,~RTDcs4*
X162633800Y-111512300D03*
X149299900Y-95904100D03*
G04 #@! TO.N,/GPIOA/serial/TX_en*
X134132400Y-76619400D03*
X130535100Y-95539000D03*
G04 #@! TO.N,~RTDcs5*
X179592900Y-111335000D03*
X139282200Y-99767100D03*
G04 #@! TO.N,RTD_SCK*
X139710800Y-88390600D03*
X165589200Y-112351000D03*
X148317000Y-112184600D03*
G04 #@! TO.N,RTD_MISO*
X149334300Y-111449000D03*
X159325900Y-108274600D03*
X140203700Y-86780900D03*
G04 #@! TO.N,RTD_MOSI*
X127370000Y-112480600D03*
X110534200Y-111588500D03*
X165505000Y-113865800D03*
X147314700Y-113795000D03*
X139366600Y-87511600D03*
G04 #@! TO.N,~DRDY1*
X104122900Y-107435000D03*
X136171500Y-79382000D03*
G04 #@! TO.N,~DRDY2*
X120456000Y-108665000D03*
X139000000Y-84560700D03*
G04 #@! TO.N,~DRDY3*
X137335100Y-109992300D03*
X138650800Y-86031600D03*
G04 #@! TO.N,~DRDY4*
X157195600Y-108050300D03*
X141522300Y-89642200D03*
G04 #@! TO.N,~DRDY5*
X165868100Y-108037500D03*
X137353400Y-85366100D03*
G04 #@! TO.N,/GPIOB/485TX*
X128209600Y-83175300D03*
G04 #@! TO.N,/GPIOB/485RX*
X131191300Y-80832800D03*
G04 #@! TO.N,Rain*
X164867600Y-60961200D03*
X149466200Y-86506700D03*
G04 #@! TO.N,Aux*
X175834800Y-60941500D03*
X151848300Y-84795700D03*
G04 #@! TO.N,/GPIOA/serial/TX*
X133300100Y-75767400D03*
X126840700Y-95780300D03*
G04 #@! TO.N,/GPIOA/serial/RX*
X134812500Y-77328300D03*
X129342500Y-97685600D03*
G04 #@! TD*
D15*
G04 #@! TO.N,+3V3*
X111890000Y-77470000D02*
X111890000Y-79045100D01*
X100442700Y-95320000D02*
X92000000Y-95320000D01*
X111890000Y-83872700D02*
X100442700Y-95320000D01*
X111890000Y-79045100D02*
X111890000Y-83872700D01*
X140024700Y-101685300D02*
X142205500Y-99504500D01*
X140024700Y-105950000D02*
X140024700Y-101685300D01*
X162810000Y-93600000D02*
X161634700Y-93600000D01*
X140024700Y-110977400D02*
X140112800Y-111065500D01*
X140024700Y-105950000D02*
X140024700Y-110977400D01*
X158526300Y-92424700D02*
X150207600Y-84106000D01*
X160826800Y-92424700D02*
X158526300Y-92424700D01*
X161634700Y-93232600D02*
X160826800Y-92424700D01*
X161634700Y-93600000D02*
X161634700Y-93232600D01*
X125606700Y-99385000D02*
X125586400Y-99364700D01*
X125606700Y-101792100D02*
X125606700Y-99385000D01*
G04 #@! TO.N,GND*
X165869300Y-94775400D02*
X161445400Y-94775400D01*
X166714600Y-93930100D02*
X165869300Y-94775400D01*
X166714600Y-93084600D02*
X166714600Y-93930100D01*
X175849200Y-83950000D02*
X166714600Y-93084600D01*
X182750000Y-83950000D02*
X175849200Y-83950000D01*
X161445300Y-94775300D02*
X160270000Y-94775300D01*
X161445400Y-94775400D02*
X161445300Y-94775300D01*
X160270000Y-93600000D02*
X160270000Y-94775300D01*
X155902200Y-97315300D02*
X155723000Y-97136100D01*
X161303900Y-97315300D02*
X155902200Y-97315300D01*
X161445400Y-97173800D02*
X161303900Y-97315300D01*
X161445400Y-94775400D02*
X161445400Y-97173800D01*
G04 #@! TO.N,RTD-1*
X104915000Y-117476000D02*
X104192200Y-117476000D01*
X109179100Y-113211900D02*
X104915000Y-117476000D01*
X179691100Y-114491100D02*
X186950000Y-121750000D01*
X110458300Y-114491100D02*
X179691100Y-114491100D01*
X109179100Y-113211900D02*
X110458300Y-114491100D01*
G04 #@! TO.N,RTDb1*
X110401700Y-114943800D02*
X108132300Y-117213200D01*
X153822000Y-114943800D02*
X110401700Y-114943800D01*
X157778500Y-118900300D02*
X153822000Y-114943800D01*
X157778500Y-120821500D02*
X157778500Y-118900300D01*
X156850000Y-121750000D02*
X157778500Y-120821500D01*
G04 #@! TO.N,RTDb4*
X151475000Y-124856100D02*
X157153200Y-119177900D01*
X151475000Y-129075000D02*
X151475000Y-124856100D01*
X148900000Y-131650000D02*
X151475000Y-129075000D01*
G04 #@! TO.N,Net-(CON1-Pad1)*
X158190400Y-96140000D02*
X160270000Y-96140000D01*
X148735900Y-86685500D02*
X158190400Y-96140000D01*
X148735900Y-86132100D02*
X148735900Y-86685500D01*
X143628500Y-81024700D02*
X148735900Y-86132100D01*
G04 #@! TO.N,Net-(CON1-Pad5)*
X165350000Y-96140000D02*
X164174700Y-96140000D01*
X145432300Y-88596000D02*
X142637700Y-85801400D01*
X145432300Y-89545900D02*
X145432300Y-88596000D01*
X147067800Y-91181400D02*
X145432300Y-89545900D01*
X148431900Y-91181400D02*
X147067800Y-91181400D01*
X155016100Y-97765600D02*
X148431900Y-91181400D01*
X162916400Y-97765600D02*
X155016100Y-97765600D01*
X164174700Y-96507300D02*
X162916400Y-97765600D01*
X164174700Y-96140000D02*
X164174700Y-96507300D01*
G04 #@! TO.N,+24V*
X90373500Y-96233500D02*
X92000000Y-97860000D01*
X90373500Y-90140000D02*
X90373500Y-96233500D01*
X91543500Y-88970000D02*
X90373500Y-90140000D01*
X92779700Y-88970000D02*
X91543500Y-88970000D01*
X97509700Y-84240000D02*
X92779700Y-88970000D01*
X98964100Y-84240000D02*
X97509700Y-84240000D01*
X105734100Y-77470000D02*
X98964100Y-84240000D01*
X106810000Y-77470000D02*
X105734100Y-77470000D01*
G04 #@! TO.N,Net-(D4-Pad2)*
X147156200Y-85436700D02*
X147156200Y-89678200D01*
X141495200Y-79775700D02*
X147156200Y-85436700D01*
X141495200Y-62032800D02*
X141495200Y-79775700D01*
G04 #@! TO.N,Net-(D6-Pad2)*
X130083600Y-69118900D02*
X126221600Y-69118900D01*
X146480700Y-85516000D02*
X130083600Y-69118900D01*
X146480700Y-89935300D02*
X146480700Y-85516000D01*
X147101500Y-90556100D02*
X146480700Y-89935300D01*
X147349100Y-90556100D02*
X147101500Y-90556100D01*
G04 #@! TO.N,RTDa3*
X119514200Y-126200000D02*
X129555500Y-116158700D01*
X118800000Y-126200000D02*
X119514200Y-126200000D01*
G04 #@! TO.N,RTDa4*
X138323700Y-115569200D02*
X153293100Y-115569200D01*
X122242900Y-131650000D02*
X138323700Y-115569200D01*
X118800000Y-131650000D02*
X122242900Y-131650000D01*
G04 #@! TO.N,/Snow*
X177673900Y-61566900D02*
X156947900Y-82292900D01*
X177674000Y-61566900D02*
X177673900Y-61566900D01*
X177674000Y-48126000D02*
X177674000Y-61566900D01*
X178950000Y-46850000D02*
X177674000Y-48126000D01*
G04 #@! TO.N,Net-(J7-Pad1)*
X104223100Y-90590000D02*
X105032300Y-89780800D01*
X97970000Y-90590000D02*
X104223100Y-90590000D01*
G04 #@! TO.N,Net-(J7-Pad6)*
X97970000Y-77890000D02*
X99145300Y-77890000D01*
X132842700Y-85666700D02*
X133052800Y-85876800D01*
X132842700Y-80236000D02*
X132842700Y-85666700D01*
X127065600Y-74458900D02*
X132842700Y-80236000D01*
X102576400Y-74458900D02*
X127065600Y-74458900D01*
X99145300Y-77890000D02*
X102576400Y-74458900D01*
G04 #@! TO.N,Net-(J7-Pad7)*
X97970000Y-75350000D02*
X99145300Y-75350000D01*
X100975800Y-73519500D02*
X99145300Y-75350000D01*
X131936600Y-73519500D02*
X100975800Y-73519500D01*
X140084900Y-81667800D02*
X131936600Y-73519500D01*
X140084900Y-82897800D02*
X140084900Y-81667800D01*
X141551700Y-84364600D02*
X140084900Y-82897800D01*
G04 #@! TO.N,Net-(J7-Pad8)*
X131864000Y-72810000D02*
X97970000Y-72810000D01*
X140760300Y-81706300D02*
X131864000Y-72810000D01*
X140760300Y-82422200D02*
X140760300Y-81706300D01*
X145163900Y-86825800D02*
X140760300Y-82422200D01*
G04 #@! TO.N,Net-(J7-Pad9)*
X97970000Y-70270000D02*
X99145300Y-70270000D01*
X101125300Y-72250000D02*
X99145300Y-70270000D01*
X131940900Y-72250000D02*
X101125300Y-72250000D01*
X142763800Y-83072900D02*
X131940900Y-72250000D01*
X142763800Y-83522000D02*
X142763800Y-83072900D01*
G04 #@! TO.N,Net-(J7-Pad10)*
X97970000Y-67730000D02*
X99145300Y-67730000D01*
X103214900Y-71799600D02*
X99145300Y-67730000D01*
X132127400Y-71799600D02*
X103214900Y-71799600D01*
X145153600Y-84825800D02*
X132127400Y-71799600D01*
X145153600Y-85775100D02*
X145153600Y-84825800D01*
G04 #@! TO.N,Net-(J7-Pad11)*
X127074400Y-65190000D02*
X140291900Y-78407500D01*
X97970000Y-65190000D02*
X127074400Y-65190000D01*
G04 #@! TO.N,/GPIOB/UART1_TX*
X182750000Y-94110000D02*
X181574700Y-94110000D01*
X176959300Y-98725400D02*
X181574700Y-94110000D01*
X154298200Y-98725400D02*
X176959300Y-98725400D01*
X148105100Y-92532300D02*
X154298200Y-98725400D01*
X147045700Y-92532300D02*
X148105100Y-92532300D01*
X144531700Y-90018300D02*
X147045700Y-92532300D01*
X144531700Y-89502600D02*
X144531700Y-90018300D01*
X141499800Y-86470700D02*
X144531700Y-89502600D01*
X141499800Y-86026900D02*
X141499800Y-86470700D01*
X136170000Y-80697100D02*
X141499800Y-86026900D01*
G04 #@! TO.N,/GPIOB/UART1_RX*
X182750000Y-91570000D02*
X181574700Y-91570000D01*
X174928800Y-98215900D02*
X181574700Y-91570000D01*
X154744100Y-98215900D02*
X174928800Y-98215900D01*
X148610200Y-92082000D02*
X154744100Y-98215900D01*
X147300100Y-92082000D02*
X148610200Y-92082000D01*
X144982000Y-89763900D02*
X147300100Y-92082000D01*
X144982000Y-89154600D02*
X144982000Y-89763900D01*
X141950100Y-86122700D02*
X144982000Y-89154600D01*
X141950100Y-85647300D02*
X141950100Y-86122700D01*
X137152700Y-80849900D02*
X141950100Y-85647300D01*
X137152700Y-80601500D02*
X137152700Y-80849900D01*
G04 #@! TO.N,Net-(J9-Pad1)*
X99060000Y-98300000D02*
X100235300Y-98300000D01*
X126894500Y-99151500D02*
X134199100Y-99151500D01*
X125974500Y-98231500D02*
X126894500Y-99151500D01*
X124638100Y-98231500D02*
X125974500Y-98231500D01*
X122010500Y-100859100D02*
X124638100Y-98231500D01*
X102465500Y-100859100D02*
X122010500Y-100859100D01*
X100235300Y-98628900D02*
X102465500Y-100859100D01*
X100235300Y-98300000D02*
X100235300Y-98628900D01*
G04 #@! TO.N,Net-(J9-Pad2)*
X101600000Y-98300000D02*
X102775300Y-98300000D01*
X132492000Y-98311000D02*
X134174200Y-96628800D01*
X128717100Y-98311000D02*
X132492000Y-98311000D01*
X128160400Y-97754300D02*
X128717100Y-98311000D01*
X124401600Y-97754300D02*
X128160400Y-97754300D01*
X121747100Y-100408800D02*
X124401600Y-97754300D01*
X104516800Y-100408800D02*
X121747100Y-100408800D01*
X102775300Y-98667300D02*
X104516800Y-100408800D01*
X102775300Y-98300000D02*
X102775300Y-98667300D01*
G04 #@! TO.N,Net-(J9-Pad3)*
X104140000Y-98300000D02*
X105315300Y-98300000D01*
X105315300Y-98667400D02*
X105315300Y-98300000D01*
X106606400Y-99958500D02*
X105315300Y-98667400D01*
X120097600Y-99958500D02*
X106606400Y-99958500D01*
X123001100Y-97055000D02*
X120097600Y-99958500D01*
X130063500Y-97055000D02*
X123001100Y-97055000D01*
X131416500Y-95702000D02*
X130063500Y-97055000D01*
G04 #@! TO.N,Net-(J9-Pad4)*
X106680000Y-98300000D02*
X107855300Y-98300000D01*
X129562400Y-87158400D02*
X130187700Y-86533100D01*
X128778500Y-87158400D02*
X129562400Y-87158400D01*
X118204600Y-97732300D02*
X128778500Y-87158400D01*
X118204600Y-98645900D02*
X118204600Y-97732300D01*
X117375200Y-99475300D02*
X118204600Y-98645900D01*
X108663200Y-99475300D02*
X117375200Y-99475300D01*
X107855300Y-98667400D02*
X108663200Y-99475300D01*
X107855300Y-98300000D02*
X107855300Y-98667400D01*
G04 #@! TO.N,Net-(J9-Pad5)*
X109220000Y-98300000D02*
X110395300Y-98300000D01*
X123900200Y-84427800D02*
X129985000Y-84427800D01*
X110395300Y-97932700D02*
X123900200Y-84427800D01*
X110395300Y-98300000D02*
X110395300Y-97932700D01*
G04 #@! TO.N,Net-(J9-Pad6)*
X111760000Y-98300000D02*
X112935300Y-98300000D01*
X112935300Y-97932700D02*
X112935300Y-98300000D01*
X125808500Y-85059500D02*
X112935300Y-97932700D01*
X130485100Y-85059500D02*
X125808500Y-85059500D01*
X130534600Y-85010000D02*
X130485100Y-85059500D01*
G04 #@! TO.N,Net-(J9-Pad7)*
X114300000Y-98300000D02*
X115475300Y-98300000D01*
X115475300Y-97932700D02*
X115475300Y-98300000D01*
X127898200Y-85509800D02*
X115475300Y-97932700D01*
X129665200Y-85509800D02*
X127898200Y-85509800D01*
X129815700Y-85660300D02*
X129665200Y-85509800D01*
X130768900Y-85660300D02*
X129815700Y-85660300D01*
X131171300Y-85257900D02*
X130768900Y-85660300D01*
X131171300Y-84444000D02*
X131171300Y-85257900D01*
G04 #@! TO.N,Net-(J9-Pad8)*
X129004900Y-86135100D02*
X116840000Y-98300000D01*
X129365300Y-86135100D02*
X129004900Y-86135100D01*
G04 #@! TO.N,Net-(J9-Pad9)*
X122311300Y-96544000D02*
X120555300Y-98300000D01*
X128133800Y-96544000D02*
X122311300Y-96544000D01*
X129764100Y-94913700D02*
X128133800Y-96544000D01*
X119380000Y-98300000D02*
X120555300Y-98300000D01*
G04 #@! TO.N,/GPIOB/MOSI*
X92000000Y-77540000D02*
X93175300Y-77540000D01*
X133678100Y-86923800D02*
X133468100Y-87133800D01*
X133678100Y-85617700D02*
X133678100Y-86923800D01*
X133293200Y-85232800D02*
X133678100Y-85617700D01*
X133293100Y-85232800D02*
X133293200Y-85232800D01*
X133293100Y-80049500D02*
X133293100Y-85232800D01*
X127233400Y-73989800D02*
X133293100Y-80049500D01*
X101230400Y-73989800D02*
X127233400Y-73989800D01*
X98511300Y-76708900D02*
X101230400Y-73989800D01*
X94006400Y-76708900D02*
X98511300Y-76708900D01*
X93175300Y-77540000D02*
X94006400Y-76708900D01*
G04 #@! TO.N,/GPIOB/SCK*
X92000000Y-80080000D02*
X93175300Y-80080000D01*
X132305000Y-89935100D02*
X132901300Y-90531400D01*
X132305000Y-80368500D02*
X132305000Y-89935100D01*
X126888300Y-74951800D02*
X132305000Y-80368500D01*
X105951300Y-74951800D02*
X126888300Y-74951800D01*
X101654200Y-79248900D02*
X105951300Y-74951800D01*
X94006400Y-79248900D02*
X101654200Y-79248900D01*
X93175300Y-80080000D02*
X94006400Y-79248900D01*
G04 #@! TO.N,/GPIOB/D/~C*
X92000000Y-85160000D02*
X93175300Y-85160000D01*
X131851100Y-89262500D02*
X131657800Y-89455800D01*
X131851100Y-80586800D02*
X131851100Y-89262500D01*
X126666400Y-75402100D02*
X131851100Y-80586800D01*
X106774800Y-75402100D02*
X126666400Y-75402100D01*
X100476900Y-81700000D02*
X106774800Y-75402100D01*
X96635300Y-81700000D02*
X100476900Y-81700000D01*
X93175300Y-85160000D02*
X96635300Y-81700000D01*
G04 #@! TO.N,/GPIOB/~RST*
X134865600Y-99388100D02*
X134865600Y-92223200D01*
X134429700Y-99824000D02*
X134865600Y-99388100D01*
X126930100Y-99824000D02*
X134429700Y-99824000D01*
X125806000Y-98699900D02*
X126930100Y-99824000D01*
X125366700Y-98699900D02*
X125806000Y-98699900D01*
X122757200Y-101309400D02*
X125366700Y-98699900D01*
X93728700Y-101309400D02*
X122757200Y-101309400D01*
X89889500Y-97470200D02*
X93728700Y-101309400D01*
X89889500Y-89810500D02*
X89889500Y-97470200D01*
X92000000Y-87700000D02*
X89889500Y-89810500D01*
G04 #@! TO.N,~RTDcs1*
X136841300Y-99391700D02*
X136841300Y-90081400D01*
X126198000Y-110035000D02*
X136841300Y-99391700D01*
X110167800Y-110035000D02*
X126198000Y-110035000D01*
G04 #@! TO.N,~RTDcs2*
X137491000Y-101228700D02*
X137491000Y-91620600D01*
X127590900Y-111128800D02*
X137491000Y-101228700D01*
G04 #@! TO.N,~RTDcs3*
X144549900Y-99149800D02*
X144549900Y-112495000D01*
X139280200Y-93880100D02*
X144549900Y-99149800D01*
G04 #@! TO.N,~RTDcs4*
X162633800Y-109238000D02*
X149299900Y-95904100D01*
X162633800Y-111512300D02*
X162633800Y-109238000D01*
G04 #@! TO.N,/GPIOA/serial/TX_en*
X130535100Y-95032500D02*
X130535100Y-95539000D01*
X134578700Y-90988900D02*
X130535100Y-95032500D01*
X134578700Y-78077500D02*
X134578700Y-90988900D01*
X134132400Y-77631200D02*
X134578700Y-78077500D01*
X134132400Y-76619400D02*
X134132400Y-77631200D01*
G04 #@! TO.N,~RTDcs5*
X139282200Y-111128100D02*
X139282200Y-99767100D01*
X141276400Y-113122300D02*
X139282200Y-111128100D01*
X177805600Y-113122300D02*
X141276400Y-113122300D01*
X179592900Y-111335000D02*
X177805600Y-113122300D01*
G04 #@! TO.N,RTD_SCK*
X148483400Y-112351000D02*
X148317000Y-112184600D01*
X165589200Y-112351000D02*
X148483400Y-112351000D01*
X139710800Y-89670400D02*
X139710800Y-88390600D01*
X148317000Y-98276600D02*
X139710800Y-89670400D01*
X148317000Y-112184600D02*
X148317000Y-98276600D01*
G04 #@! TO.N,RTD_MISO*
X156151500Y-111449000D02*
X149334300Y-111449000D01*
X159325900Y-108274600D02*
X156151500Y-111449000D01*
X140336100Y-86913300D02*
X140203700Y-86780900D01*
X140336100Y-89394900D02*
X140336100Y-86913300D01*
X149334200Y-98393000D02*
X140336100Y-89394900D01*
X149334200Y-111449000D02*
X149334200Y-98393000D01*
X149334300Y-111449000D02*
X149334200Y-111449000D01*
G04 #@! TO.N,RTD_MOSI*
X111125300Y-112179600D02*
X110534200Y-111588500D01*
X127370000Y-112179600D02*
X111125300Y-112179600D01*
X127370000Y-112179600D02*
X127370000Y-112480600D01*
X147385500Y-113865800D02*
X147314700Y-113795000D01*
X165505000Y-113865800D02*
X147385500Y-113865800D01*
X137622300Y-112179600D02*
X127370000Y-112179600D01*
X138654800Y-111147100D02*
X137622300Y-112179600D01*
X141302700Y-113795000D02*
X138654800Y-111147100D01*
X147314700Y-113795000D02*
X141302700Y-113795000D01*
X138654800Y-88223400D02*
X139366600Y-87511600D01*
X138654800Y-111147100D02*
X138654800Y-88223400D01*
G04 #@! TO.N,~DRDY1*
X135540600Y-80012900D02*
X136171500Y-79382000D01*
X135540600Y-99402400D02*
X135540600Y-80012900D01*
X127508000Y-107435000D02*
X135540600Y-99402400D01*
X104122900Y-107435000D02*
X127508000Y-107435000D01*
G04 #@! TO.N,~DRDY2*
X137238400Y-84560700D02*
X139000000Y-84560700D01*
X135991000Y-85808100D02*
X137238400Y-84560700D01*
X135991000Y-99588900D02*
X135991000Y-85808100D01*
X126914900Y-108665000D02*
X135991000Y-99588900D01*
X120456000Y-108665000D02*
X126914900Y-108665000D01*
G04 #@! TO.N,~DRDY3*
X138198200Y-86484200D02*
X138650800Y-86031600D01*
X138198200Y-109129200D02*
X138198200Y-86484200D01*
X137335100Y-109992300D02*
X138198200Y-109129200D01*
G04 #@! TO.N,~DRDY4*
X157195600Y-105315500D02*
X141522300Y-89642200D01*
X157195600Y-108050300D02*
X157195600Y-105315500D01*
G04 #@! TO.N,~DRDY5*
X139673600Y-85366100D02*
X137353400Y-85366100D01*
X144081400Y-89773900D02*
X139673600Y-85366100D01*
X144081400Y-90284800D02*
X144081400Y-89773900D01*
X146779200Y-92982600D02*
X144081400Y-90284800D01*
X147312800Y-92982600D02*
X146779200Y-92982600D01*
X162367700Y-108037500D02*
X147312800Y-92982600D01*
X165868100Y-108037500D02*
X162367700Y-108037500D01*
G04 #@! TO.N,/GPIOB/485TX*
X92000000Y-90240000D02*
X92000000Y-91415300D01*
X114919900Y-83175300D02*
X128209600Y-83175300D01*
X101599800Y-96495400D02*
X114919900Y-83175300D01*
X91477100Y-96495400D02*
X101599800Y-96495400D01*
X90824700Y-95843000D02*
X91477100Y-96495400D01*
X90824700Y-92223200D02*
X90824700Y-95843000D01*
X91632600Y-91415300D02*
X90824700Y-92223200D01*
X92000000Y-91415300D02*
X91632600Y-91415300D01*
G04 #@! TO.N,/GPIOB/485RX*
X92000000Y-92780000D02*
X93175300Y-92780000D01*
X126251000Y-75892500D02*
X131191300Y-80832800D01*
X111442000Y-75892500D02*
X126251000Y-75892500D01*
X110620000Y-76714500D02*
X111442000Y-75892500D01*
X110620000Y-78233900D02*
X110620000Y-76714500D01*
X99628500Y-89225400D02*
X110620000Y-78233900D01*
X96729900Y-89225400D02*
X99628500Y-89225400D01*
X93175300Y-92780000D02*
X96729900Y-89225400D01*
G04 #@! TO.N,Rain*
X149466200Y-76362600D02*
X164867600Y-60961200D01*
X149466200Y-86506700D02*
X149466200Y-76362600D01*
G04 #@! TO.N,Aux*
X151980600Y-84795700D02*
X151848300Y-84795700D01*
X175834800Y-60941500D02*
X151980600Y-84795700D01*
G04 #@! TO.N,/GPIOA/serial/TX*
X129826800Y-92794200D02*
X126840700Y-95780300D01*
X131570100Y-92794200D02*
X129826800Y-92794200D01*
X134128400Y-90235900D02*
X131570100Y-92794200D01*
X134128400Y-78871000D02*
X134128400Y-90235900D01*
X133300100Y-78042700D02*
X134128400Y-78871000D01*
X133300100Y-75767400D02*
X133300100Y-78042700D01*
G04 #@! TO.N,/GPIOA/serial/RX*
X130404600Y-97685600D02*
X129342500Y-97685600D01*
X132639500Y-95450700D02*
X130404600Y-97685600D01*
X132639500Y-93565000D02*
X132639500Y-95450700D01*
X135029000Y-91175500D02*
X132639500Y-93565000D01*
X135029000Y-77544800D02*
X135029000Y-91175500D01*
X134812500Y-77328300D02*
X135029000Y-77544800D01*
G04 #@! TD*
D16*
G04 #@! TO.N,GND*
G36*
X180514925Y-45509618D02*
X180523076Y-45512267D01*
X180589276Y-45547355D01*
X180594541Y-45549405D01*
X180599234Y-45552535D01*
X180682706Y-45588830D01*
X181335834Y-45825904D01*
X181374587Y-45835065D01*
X181411917Y-45848948D01*
X181501500Y-45865066D01*
X182061256Y-45930327D01*
X182162543Y-45950474D01*
X186351372Y-45950474D01*
X186351373Y-54287862D01*
X186357545Y-54318891D01*
X186375989Y-54533844D01*
X186380327Y-54550796D01*
X186389382Y-54623928D01*
X186413339Y-54736557D01*
X186417490Y-54747119D01*
X186418343Y-54758437D01*
X186459027Y-54878576D01*
X186656680Y-55329740D01*
X186671848Y-55353000D01*
X186622119Y-55353000D01*
X186108663Y-55565680D01*
X185715680Y-55958663D01*
X185503000Y-56472119D01*
X185503000Y-57027881D01*
X185715680Y-57541337D01*
X186108663Y-57934320D01*
X186622119Y-58147000D01*
X187177881Y-58147000D01*
X187392748Y-58057999D01*
X187361674Y-58273608D01*
X187351372Y-58325399D01*
X187351373Y-69780477D01*
X185813987Y-69780477D01*
X185778591Y-69787518D01*
X185581570Y-69806836D01*
X185550777Y-69815753D01*
X185518720Y-69815753D01*
X185380935Y-69855653D01*
X184972792Y-70018485D01*
X184918927Y-70052537D01*
X184859476Y-70075477D01*
X184745292Y-70162304D01*
X184423134Y-70461148D01*
X184385138Y-70512311D01*
X184337933Y-70555113D01*
X184262662Y-70677224D01*
X184069686Y-71072008D01*
X184052656Y-71133416D01*
X184024023Y-71190346D01*
X183997759Y-71331368D01*
X183959843Y-71769153D01*
X183966061Y-71832574D01*
X183959843Y-71895993D01*
X183986107Y-72037015D01*
X184108334Y-72459099D01*
X184136968Y-72516032D01*
X184153997Y-72577436D01*
X184229267Y-72699548D01*
X184495249Y-73049331D01*
X184542455Y-73092135D01*
X184580451Y-73143297D01*
X184694635Y-73230124D01*
X185068704Y-73460701D01*
X185128154Y-73483641D01*
X185182019Y-73517693D01*
X185319803Y-73557592D01*
X185319807Y-73557594D01*
X185319810Y-73557594D01*
X185747667Y-73637279D01*
X185813987Y-73650471D01*
X187262022Y-73650471D01*
X187351372Y-73805234D01*
X187351373Y-76293088D01*
X187351372Y-89143086D01*
X187351372Y-89143087D01*
X187351373Y-100940582D01*
X186253934Y-101340018D01*
X186237809Y-101349803D01*
X186146284Y-101388504D01*
X186131140Y-101398104D01*
X186069813Y-101426209D01*
X185900114Y-101522498D01*
X185883623Y-101535862D01*
X185864145Y-101544291D01*
X185763921Y-101622032D01*
X185402221Y-101956382D01*
X185366740Y-102002124D01*
X185323931Y-102041077D01*
X185254292Y-102147091D01*
X185020397Y-102580576D01*
X185001646Y-102635342D01*
X184973763Y-102686062D01*
X184942218Y-102808918D01*
X184863242Y-103283409D01*
X184851372Y-103343083D01*
X184851372Y-103787861D01*
X184851373Y-103787866D01*
X184851372Y-112787861D01*
X184860424Y-112833370D01*
X184904293Y-113180629D01*
X184916761Y-113222320D01*
X184920175Y-113265700D01*
X184961261Y-113385702D01*
X185160425Y-113836201D01*
X185192206Y-113884583D01*
X185215192Y-113937701D01*
X185292933Y-114037926D01*
X185627283Y-114399625D01*
X185673025Y-114435106D01*
X185711978Y-114477915D01*
X185817992Y-114547554D01*
X186251478Y-114781449D01*
X186306243Y-114800199D01*
X186356963Y-114828083D01*
X186479811Y-114859625D01*
X186479820Y-114859628D01*
X186479825Y-114859628D01*
X186954314Y-114938605D01*
X187013984Y-114950474D01*
X187351372Y-114950474D01*
X187351373Y-117643086D01*
X187351372Y-120105549D01*
X187361678Y-120157358D01*
X187400159Y-120424360D01*
X187227881Y-120353000D01*
X186672119Y-120353000D01*
X186640782Y-120365980D01*
X180281431Y-114006630D01*
X180239029Y-113943171D01*
X179987637Y-113775196D01*
X179765952Y-113731100D01*
X179765947Y-113731100D01*
X179691100Y-113716212D01*
X179616253Y-113731100D01*
X178262429Y-113731100D01*
X178353529Y-113670229D01*
X178395931Y-113606770D01*
X179732702Y-112270000D01*
X179778883Y-112270000D01*
X180122535Y-112127655D01*
X180385555Y-111864635D01*
X180527900Y-111520983D01*
X180527900Y-111149017D01*
X180385555Y-110805365D01*
X180122535Y-110542345D01*
X179778883Y-110400000D01*
X179406917Y-110400000D01*
X179063265Y-110542345D01*
X178800245Y-110805365D01*
X178657900Y-111149017D01*
X178657900Y-111195198D01*
X177490799Y-112362300D01*
X166524200Y-112362300D01*
X166524200Y-112165017D01*
X166381855Y-111821365D01*
X166118835Y-111558345D01*
X165775183Y-111416000D01*
X165403217Y-111416000D01*
X165059565Y-111558345D01*
X165026910Y-111591000D01*
X163568800Y-111591000D01*
X163568800Y-111326317D01*
X163426455Y-110982665D01*
X163393800Y-110950010D01*
X163393800Y-109312846D01*
X163408688Y-109237999D01*
X163393800Y-109163152D01*
X163393800Y-109163148D01*
X163349704Y-108941463D01*
X163253511Y-108797500D01*
X165305810Y-108797500D01*
X165338465Y-108830155D01*
X165682117Y-108972500D01*
X166054083Y-108972500D01*
X166397735Y-108830155D01*
X166660755Y-108567135D01*
X166803100Y-108223483D01*
X166803100Y-107851517D01*
X166660755Y-107507865D01*
X166397735Y-107244845D01*
X166054083Y-107102500D01*
X165682117Y-107102500D01*
X165338465Y-107244845D01*
X165305810Y-107277500D01*
X162682502Y-107277500D01*
X154890401Y-99485400D01*
X176884453Y-99485400D01*
X176959300Y-99500288D01*
X177034147Y-99485400D01*
X177034152Y-99485400D01*
X177255837Y-99441304D01*
X177507229Y-99273329D01*
X177549631Y-99209870D01*
X181639121Y-95120381D01*
X181679375Y-95180625D01*
X181977761Y-95380000D01*
X181679375Y-95579375D01*
X181351161Y-96070582D01*
X181235908Y-96650000D01*
X181351161Y-97229418D01*
X181679375Y-97720625D01*
X182170582Y-98048839D01*
X182603744Y-98135000D01*
X182896256Y-98135000D01*
X183329418Y-98048839D01*
X183820625Y-97720625D01*
X184148839Y-97229418D01*
X184264092Y-96650000D01*
X184148839Y-96070582D01*
X183820625Y-95579375D01*
X183522239Y-95380000D01*
X183820625Y-95180625D01*
X184148839Y-94689418D01*
X184264092Y-94110000D01*
X184148839Y-93530582D01*
X183820625Y-93039375D01*
X183522239Y-92840000D01*
X183820625Y-92640625D01*
X184148839Y-92149418D01*
X184264092Y-91570000D01*
X184148839Y-90990582D01*
X183820625Y-90499375D01*
X183522239Y-90300000D01*
X183820625Y-90100625D01*
X184148839Y-89609418D01*
X184264092Y-89030000D01*
X184148839Y-88450582D01*
X183820625Y-87959375D01*
X183522239Y-87760000D01*
X183820625Y-87560625D01*
X184148839Y-87069418D01*
X184264092Y-86490000D01*
X184148839Y-85910582D01*
X183820625Y-85419375D01*
X183798967Y-85404904D01*
X183959698Y-85338327D01*
X184138327Y-85159699D01*
X184235000Y-84926310D01*
X184235000Y-84235750D01*
X184076250Y-84077000D01*
X182877000Y-84077000D01*
X182877000Y-84097000D01*
X182623000Y-84097000D01*
X182623000Y-84077000D01*
X181423750Y-84077000D01*
X181265000Y-84235750D01*
X181265000Y-84926310D01*
X181361673Y-85159699D01*
X181540302Y-85338327D01*
X181701033Y-85404904D01*
X181679375Y-85419375D01*
X181351161Y-85910582D01*
X181235908Y-86490000D01*
X181351161Y-87069418D01*
X181679375Y-87560625D01*
X181977761Y-87760000D01*
X181679375Y-87959375D01*
X181351161Y-88450582D01*
X181235908Y-89030000D01*
X181351161Y-89609418D01*
X181679375Y-90100625D01*
X181977761Y-90300000D01*
X181679375Y-90499375D01*
X181467526Y-90816429D01*
X181278163Y-90854096D01*
X181026771Y-91022071D01*
X180984371Y-91085527D01*
X174613999Y-97455900D01*
X171133545Y-97455900D01*
X171500625Y-97210625D01*
X171828839Y-96719418D01*
X171944092Y-96140000D01*
X171828839Y-95560582D01*
X171500625Y-95069375D01*
X171202239Y-94870000D01*
X171500625Y-94670625D01*
X171828839Y-94179418D01*
X171944092Y-93600000D01*
X171828839Y-93020582D01*
X171500625Y-92529375D01*
X171009418Y-92201161D01*
X170576256Y-92115000D01*
X170283744Y-92115000D01*
X169850582Y-92201161D01*
X169359375Y-92529375D01*
X169160000Y-92827761D01*
X168960625Y-92529375D01*
X168469418Y-92201161D01*
X168036256Y-92115000D01*
X167743744Y-92115000D01*
X167310582Y-92201161D01*
X166819375Y-92529375D01*
X166620000Y-92827761D01*
X166420625Y-92529375D01*
X165929418Y-92201161D01*
X165496256Y-92115000D01*
X165203744Y-92115000D01*
X164770582Y-92201161D01*
X164279375Y-92529375D01*
X164080000Y-92827761D01*
X163880625Y-92529375D01*
X163389418Y-92201161D01*
X162956256Y-92115000D01*
X162663744Y-92115000D01*
X162230582Y-92201161D01*
X161899371Y-92422469D01*
X161417131Y-91940230D01*
X161374729Y-91876771D01*
X161123337Y-91708796D01*
X160901652Y-91664700D01*
X160901647Y-91664700D01*
X160826800Y-91649812D01*
X160751953Y-91664700D01*
X158841103Y-91664700D01*
X152571346Y-85394944D01*
X152640955Y-85325335D01*
X152722406Y-85128695D01*
X175974602Y-61876500D01*
X176020783Y-61876500D01*
X176364435Y-61734155D01*
X176627455Y-61471135D01*
X176769800Y-61127483D01*
X176769800Y-60755517D01*
X176627455Y-60411865D01*
X176364435Y-60148845D01*
X176020783Y-60006500D01*
X175648817Y-60006500D01*
X175305165Y-60148845D01*
X175042145Y-60411865D01*
X174899800Y-60755517D01*
X174899800Y-60801698D01*
X151840799Y-83860700D01*
X151662317Y-83860700D01*
X151318665Y-84003045D01*
X151249056Y-84072654D01*
X151142600Y-83966199D01*
X151142600Y-83920017D01*
X151000255Y-83576365D01*
X150737235Y-83313345D01*
X150393583Y-83171000D01*
X150226200Y-83171000D01*
X150226200Y-76677401D01*
X165007402Y-61896200D01*
X165053583Y-61896200D01*
X165397235Y-61753855D01*
X165660255Y-61490835D01*
X165802600Y-61147183D01*
X165802600Y-60775217D01*
X165660255Y-60431565D01*
X165397235Y-60168545D01*
X165053583Y-60026200D01*
X164681617Y-60026200D01*
X164337965Y-60168545D01*
X164074945Y-60431565D01*
X163932600Y-60775217D01*
X163932600Y-60821398D01*
X148981728Y-75772271D01*
X148918272Y-75814671D01*
X148875872Y-75878127D01*
X148875871Y-75878128D01*
X148750297Y-76066063D01*
X148691312Y-76362600D01*
X148706201Y-76437452D01*
X148706200Y-85027597D01*
X144563500Y-80884899D01*
X144563500Y-80838717D01*
X144421155Y-80495065D01*
X144158135Y-80232045D01*
X143814483Y-80089700D01*
X143442517Y-80089700D01*
X143098865Y-80232045D01*
X143062606Y-80268304D01*
X142255200Y-79460899D01*
X142255200Y-62595090D01*
X142287855Y-62562435D01*
X142430200Y-62218783D01*
X142430200Y-61846817D01*
X142287855Y-61503165D01*
X142024835Y-61240145D01*
X141681183Y-61097800D01*
X141309217Y-61097800D01*
X140965565Y-61240145D01*
X140702545Y-61503165D01*
X140560200Y-61846817D01*
X140560200Y-62218783D01*
X140702545Y-62562435D01*
X140735200Y-62595090D01*
X140735201Y-77579084D01*
X140477883Y-77472500D01*
X140431702Y-77472500D01*
X127664731Y-64705530D01*
X127622329Y-64642071D01*
X127370937Y-64474096D01*
X127149252Y-64430000D01*
X127149247Y-64430000D01*
X127074400Y-64415112D01*
X126999553Y-64430000D01*
X99248178Y-64430000D01*
X99040625Y-64119375D01*
X98549418Y-63791161D01*
X98116256Y-63705000D01*
X97823744Y-63705000D01*
X97390582Y-63791161D01*
X96899375Y-64119375D01*
X96571161Y-64610582D01*
X96455908Y-65190000D01*
X96571161Y-65769418D01*
X96899375Y-66260625D01*
X97197761Y-66460000D01*
X96899375Y-66659375D01*
X96571161Y-67150582D01*
X96455908Y-67730000D01*
X96571161Y-68309418D01*
X96899375Y-68800625D01*
X97197761Y-69000000D01*
X96899375Y-69199375D01*
X96571161Y-69690582D01*
X96455908Y-70270000D01*
X96571161Y-70849418D01*
X96899375Y-71340625D01*
X97197761Y-71540000D01*
X96899375Y-71739375D01*
X96571161Y-72230582D01*
X96455908Y-72810000D01*
X96571161Y-73389418D01*
X96899375Y-73880625D01*
X97197761Y-74080000D01*
X96899375Y-74279375D01*
X96571161Y-74770582D01*
X96455908Y-75350000D01*
X96571161Y-75929418D01*
X96584178Y-75948900D01*
X94081247Y-75948900D01*
X94006400Y-75934012D01*
X93931553Y-75948900D01*
X93931548Y-75948900D01*
X93709863Y-75992996D01*
X93458471Y-76160971D01*
X93416071Y-76224427D01*
X93110879Y-76529619D01*
X93070625Y-76469375D01*
X93048967Y-76454904D01*
X93209698Y-76388327D01*
X93388327Y-76209699D01*
X93485000Y-75976310D01*
X93485000Y-75285750D01*
X93326250Y-75127000D01*
X92127000Y-75127000D01*
X92127000Y-75147000D01*
X91873000Y-75147000D01*
X91873000Y-75127000D01*
X90673750Y-75127000D01*
X90515000Y-75285750D01*
X90515000Y-75976310D01*
X90611673Y-76209699D01*
X90790302Y-76388327D01*
X90951033Y-76454904D01*
X90929375Y-76469375D01*
X90601161Y-76960582D01*
X90485908Y-77540000D01*
X90601161Y-78119418D01*
X90929375Y-78610625D01*
X91227761Y-78810000D01*
X90929375Y-79009375D01*
X90601161Y-79500582D01*
X90485908Y-80080000D01*
X90601161Y-80659418D01*
X90929375Y-81150625D01*
X91227761Y-81350000D01*
X90929375Y-81549375D01*
X90601161Y-82040582D01*
X90485908Y-82620000D01*
X90601161Y-83199418D01*
X90929375Y-83690625D01*
X91227761Y-83890000D01*
X90929375Y-84089375D01*
X90601161Y-84580582D01*
X90485908Y-85160000D01*
X90601161Y-85739418D01*
X90929375Y-86230625D01*
X91227761Y-86430000D01*
X90929375Y-86629375D01*
X90601161Y-87120582D01*
X90485908Y-87700000D01*
X90558791Y-88066408D01*
X89821372Y-88803827D01*
X89821372Y-74023690D01*
X90515000Y-74023690D01*
X90515000Y-74714250D01*
X90673750Y-74873000D01*
X91873000Y-74873000D01*
X91873000Y-73673750D01*
X92127000Y-73673750D01*
X92127000Y-74873000D01*
X93326250Y-74873000D01*
X93485000Y-74714250D01*
X93485000Y-74023690D01*
X93388327Y-73790301D01*
X93209698Y-73611673D01*
X92976309Y-73515000D01*
X92285750Y-73515000D01*
X92127000Y-73673750D01*
X91873000Y-73673750D01*
X91714250Y-73515000D01*
X91023691Y-73515000D01*
X90790302Y-73611673D01*
X90611673Y-73790301D01*
X90515000Y-74023690D01*
X89821372Y-74023690D01*
X89821372Y-56472119D01*
X125303000Y-56472119D01*
X125303000Y-57027881D01*
X125515680Y-57541337D01*
X125908663Y-57934320D01*
X126422119Y-58147000D01*
X126977881Y-58147000D01*
X127491337Y-57934320D01*
X127884320Y-57541337D01*
X128097000Y-57027881D01*
X128097000Y-56472119D01*
X155403000Y-56472119D01*
X155403000Y-57027881D01*
X155615680Y-57541337D01*
X156008663Y-57934320D01*
X156522119Y-58147000D01*
X157077881Y-58147000D01*
X157591337Y-57934320D01*
X157984320Y-57541337D01*
X158197000Y-57027881D01*
X158197000Y-56472119D01*
X157984320Y-55958663D01*
X157591337Y-55565680D01*
X157077881Y-55353000D01*
X156522119Y-55353000D01*
X156008663Y-55565680D01*
X155615680Y-55958663D01*
X155403000Y-56472119D01*
X128097000Y-56472119D01*
X127884320Y-55958663D01*
X127491337Y-55565680D01*
X126977881Y-55353000D01*
X126422119Y-55353000D01*
X125908663Y-55565680D01*
X125515680Y-55958663D01*
X125303000Y-56472119D01*
X89821372Y-56472119D01*
X89821372Y-53600483D01*
X90958763Y-53600483D01*
X91023456Y-53587615D01*
X91432472Y-53514354D01*
X91489728Y-53492713D01*
X91550163Y-53483023D01*
X91679894Y-53421812D01*
X91916866Y-53280213D01*
X117949392Y-53280213D01*
X118018857Y-53522397D01*
X118542302Y-53709144D01*
X119097368Y-53681362D01*
X119481143Y-53522397D01*
X119550608Y-53280213D01*
X118750000Y-52479605D01*
X117949392Y-53280213D01*
X91916866Y-53280213D01*
X92057108Y-53196414D01*
X92084959Y-53171851D01*
X92118325Y-53155542D01*
X92224591Y-53059186D01*
X92404025Y-52861298D01*
X92423512Y-52829684D01*
X92450677Y-52804361D01*
X92524256Y-52681222D01*
X92711767Y-52283814D01*
X92727948Y-52222176D01*
X92755792Y-52164859D01*
X92780109Y-52023489D01*
X92811983Y-51585221D01*
X92804890Y-51521890D01*
X92810233Y-51458392D01*
X92782028Y-51317757D01*
X92782027Y-51317746D01*
X92782025Y-51317741D01*
X92653988Y-50897389D01*
X92624572Y-50840857D01*
X92606697Y-50779693D01*
X92529755Y-50658640D01*
X92529750Y-50658631D01*
X92529747Y-50658628D01*
X92258968Y-50312551D01*
X92213062Y-50272066D01*
X92176231Y-50223181D01*
X92061451Y-50137143D01*
X91699722Y-49917599D01*
X91642468Y-49895959D01*
X91590731Y-49863252D01*
X91452945Y-49823352D01*
X91025083Y-49743666D01*
X90958763Y-49730474D01*
X89821372Y-49730474D01*
X89821372Y-47950474D01*
X94761430Y-47950474D01*
X100673770Y-51261544D01*
X100713531Y-51274463D01*
X100970752Y-51382325D01*
X101007782Y-51401602D01*
X104441223Y-52402355D01*
X104462596Y-52404225D01*
X104525922Y-52418761D01*
X104619326Y-52421497D01*
X104711452Y-52437089D01*
X105101473Y-52425893D01*
X105381024Y-52361897D01*
X105737071Y-52202299D01*
X105795675Y-52160660D01*
X105810006Y-52156618D01*
X105824930Y-52144853D01*
X105876935Y-52119968D01*
X105916829Y-52090099D01*
X105955353Y-52047205D01*
X105970851Y-52036194D01*
X105978766Y-52023579D01*
X106035222Y-51979073D01*
X106206022Y-51779092D01*
X106222500Y-51769630D01*
X106355983Y-51596523D01*
X106944822Y-50409577D01*
X108078797Y-51044639D01*
X108078799Y-51044640D01*
X111506288Y-52964134D01*
X111550405Y-52978468D01*
X111874830Y-53109874D01*
X111917300Y-53119367D01*
X111956813Y-53137583D01*
X112081590Y-53160372D01*
X112571964Y-53206726D01*
X112629707Y-53202638D01*
X112687285Y-53208537D01*
X112812716Y-53189680D01*
X113291667Y-53074694D01*
X113344972Y-53052122D01*
X113401357Y-53039053D01*
X113513917Y-52980583D01*
X113929800Y-52716656D01*
X113972916Y-52678038D01*
X114022032Y-52647407D01*
X114109584Y-52555629D01*
X114410427Y-52180116D01*
X114449853Y-52133954D01*
X114473179Y-52092302D01*
X117340856Y-52092302D01*
X117368638Y-52647368D01*
X117527603Y-53031143D01*
X117769787Y-53100608D01*
X118570395Y-52300000D01*
X118929605Y-52300000D01*
X119730213Y-53100608D01*
X119972397Y-53031143D01*
X120159144Y-52507698D01*
X120137343Y-52072119D01*
X122553000Y-52072119D01*
X122553000Y-52627881D01*
X122765680Y-53141337D01*
X123158663Y-53534320D01*
X123672119Y-53747000D01*
X124227881Y-53747000D01*
X124741337Y-53534320D01*
X124995444Y-53280213D01*
X148049392Y-53280213D01*
X148118857Y-53522397D01*
X148642302Y-53709144D01*
X149197368Y-53681362D01*
X149581143Y-53522397D01*
X149650608Y-53280213D01*
X148850000Y-52479605D01*
X148049392Y-53280213D01*
X124995444Y-53280213D01*
X125134320Y-53141337D01*
X125347000Y-52627881D01*
X125347000Y-52072119D01*
X125134320Y-51558663D01*
X124741337Y-51165680D01*
X124227881Y-50953000D01*
X123672119Y-50953000D01*
X123158663Y-51165680D01*
X122765680Y-51558663D01*
X122553000Y-52072119D01*
X120137343Y-52072119D01*
X120131362Y-51952632D01*
X119972397Y-51568857D01*
X119730213Y-51499392D01*
X118929605Y-52300000D01*
X118570395Y-52300000D01*
X117769787Y-51499392D01*
X117527603Y-51568857D01*
X117340856Y-52092302D01*
X114473179Y-52092302D01*
X114905809Y-51319787D01*
X117949392Y-51319787D01*
X118750000Y-52120395D01*
X119550608Y-51319787D01*
X119481143Y-51077603D01*
X118957698Y-50890856D01*
X118402632Y-50918638D01*
X118018857Y-51077603D01*
X117949392Y-51319787D01*
X114905809Y-51319787D01*
X117353000Y-46950023D01*
X117353000Y-47127881D01*
X117565680Y-47641337D01*
X117958663Y-48034320D01*
X118472119Y-48247000D01*
X119027881Y-48247000D01*
X119541337Y-48034320D01*
X119934320Y-47641337D01*
X120147000Y-47127881D01*
X120147000Y-46572119D01*
X119934320Y-46058663D01*
X119541337Y-45665680D01*
X119027881Y-45453000D01*
X118472119Y-45453000D01*
X118106581Y-45604410D01*
X118656642Y-44622208D01*
X121418120Y-46168723D01*
X121418121Y-46168724D01*
X121469738Y-46197631D01*
X121544434Y-46239463D01*
X121544436Y-46239464D01*
X133202133Y-52768079D01*
X133246250Y-52782414D01*
X133570678Y-52913820D01*
X133613148Y-52923313D01*
X133652661Y-52941529D01*
X133777439Y-52964318D01*
X134267814Y-53010672D01*
X134325556Y-53006584D01*
X134383134Y-53012483D01*
X134508565Y-52993626D01*
X134987516Y-52878640D01*
X135040821Y-52856068D01*
X135097206Y-52842999D01*
X135209766Y-52784529D01*
X135625649Y-52520602D01*
X135668768Y-52481982D01*
X135717881Y-52451352D01*
X135805434Y-52359574D01*
X136106235Y-51984112D01*
X136145694Y-51937913D01*
X136361108Y-51553276D01*
X136361112Y-51553272D01*
X136404670Y-51475494D01*
X136431849Y-51426964D01*
X136431850Y-51426959D01*
X137011925Y-50391163D01*
X138178790Y-51044640D01*
X138178791Y-51044640D01*
X141606279Y-52964134D01*
X141650471Y-52978493D01*
X141974836Y-53109874D01*
X142017306Y-53119367D01*
X142056819Y-53137583D01*
X142181596Y-53160372D01*
X142671970Y-53206726D01*
X142729713Y-53202638D01*
X142787291Y-53208537D01*
X142912722Y-53189680D01*
X143391673Y-53074694D01*
X143444978Y-53052122D01*
X143501363Y-53039053D01*
X143613923Y-52980583D01*
X144029806Y-52716656D01*
X144072922Y-52678038D01*
X144122038Y-52647407D01*
X144209590Y-52555629D01*
X144510660Y-52179833D01*
X144549844Y-52133954D01*
X144573170Y-52092302D01*
X147440856Y-52092302D01*
X147468638Y-52647368D01*
X147627603Y-53031143D01*
X147869787Y-53100608D01*
X148670395Y-52300000D01*
X149029605Y-52300000D01*
X149830213Y-53100608D01*
X150072397Y-53031143D01*
X150259144Y-52507698D01*
X150237343Y-52072119D01*
X152653000Y-52072119D01*
X152653000Y-52627881D01*
X152865680Y-53141337D01*
X153258663Y-53534320D01*
X153772119Y-53747000D01*
X154327881Y-53747000D01*
X154841337Y-53534320D01*
X155234320Y-53141337D01*
X155447000Y-52627881D01*
X155447000Y-52072119D01*
X155234320Y-51558663D01*
X154841337Y-51165680D01*
X154327881Y-50953000D01*
X153772119Y-50953000D01*
X153258663Y-51165680D01*
X152865680Y-51558663D01*
X152653000Y-52072119D01*
X150237343Y-52072119D01*
X150231362Y-51952632D01*
X150072397Y-51568857D01*
X149830213Y-51499392D01*
X149029605Y-52300000D01*
X148670395Y-52300000D01*
X147869787Y-51499392D01*
X147627603Y-51568857D01*
X147440856Y-52092302D01*
X144573170Y-52092302D01*
X145005800Y-51319787D01*
X148049392Y-51319787D01*
X148850000Y-52120395D01*
X149650608Y-51319787D01*
X149581143Y-51077603D01*
X149057698Y-50890856D01*
X148502632Y-50918638D01*
X148118857Y-51077603D01*
X148049392Y-51319787D01*
X145005800Y-51319787D01*
X147453000Y-46950007D01*
X147453000Y-47127881D01*
X147665680Y-47641337D01*
X148058663Y-48034320D01*
X148572119Y-48247000D01*
X149127881Y-48247000D01*
X149641337Y-48034320D01*
X150034320Y-47641337D01*
X150247000Y-47127881D01*
X150247000Y-46572119D01*
X150034320Y-46058663D01*
X149641337Y-45665680D01*
X149127881Y-45453000D01*
X148572119Y-45453000D01*
X148206569Y-45604415D01*
X148756630Y-44622213D01*
X150935872Y-45842645D01*
X151033425Y-45907828D01*
X151062642Y-45913640D01*
X151350972Y-46075112D01*
X151644442Y-46239464D01*
X151644446Y-46239465D01*
X163302144Y-52768082D01*
X163346267Y-52782418D01*
X163670690Y-52913823D01*
X163713160Y-52923316D01*
X163752673Y-52941532D01*
X163877451Y-52964321D01*
X164367826Y-53010675D01*
X164425567Y-53006587D01*
X164483147Y-53012486D01*
X164608579Y-52993629D01*
X165087530Y-52878641D01*
X165140832Y-52856071D01*
X165197218Y-52843001D01*
X165309779Y-52784531D01*
X165725661Y-52520604D01*
X165768780Y-52481983D01*
X165817892Y-52451354D01*
X165905445Y-52359576D01*
X166206155Y-51984228D01*
X166245712Y-51937912D01*
X166480934Y-51517888D01*
X167111931Y-50391163D01*
X168278796Y-51044640D01*
X168278797Y-51044640D01*
X171706285Y-52964134D01*
X171750402Y-52978468D01*
X172074827Y-53109874D01*
X172117297Y-53119367D01*
X172156810Y-53137583D01*
X172281587Y-53160372D01*
X172771961Y-53206726D01*
X172829704Y-53202638D01*
X172887282Y-53208537D01*
X173012713Y-53189680D01*
X173491664Y-53074694D01*
X173544969Y-53052122D01*
X173601354Y-53039053D01*
X173713914Y-52980583D01*
X174129797Y-52716656D01*
X174172913Y-52678038D01*
X174222029Y-52647407D01*
X174309581Y-52555629D01*
X174610424Y-52180116D01*
X174649850Y-52133954D01*
X176901698Y-48112999D01*
X176899112Y-48126000D01*
X176914000Y-48200847D01*
X176914001Y-61251996D01*
X156808099Y-81357900D01*
X156761917Y-81357900D01*
X156418265Y-81500245D01*
X156155245Y-81763265D01*
X156012900Y-82106917D01*
X156012900Y-82478883D01*
X156155245Y-82822535D01*
X156418265Y-83085555D01*
X156761917Y-83227900D01*
X157133883Y-83227900D01*
X157477535Y-83085555D01*
X157589400Y-82973690D01*
X181265000Y-82973690D01*
X181265000Y-83664250D01*
X181423750Y-83823000D01*
X182623000Y-83823000D01*
X182623000Y-82623750D01*
X182877000Y-82623750D01*
X182877000Y-83823000D01*
X184076250Y-83823000D01*
X184235000Y-83664250D01*
X184235000Y-82973690D01*
X184138327Y-82740301D01*
X183959698Y-82561673D01*
X183726309Y-82465000D01*
X183035750Y-82465000D01*
X182877000Y-82623750D01*
X182623000Y-82623750D01*
X182464250Y-82465000D01*
X181773691Y-82465000D01*
X181540302Y-82561673D01*
X181361673Y-82740301D01*
X181265000Y-82973690D01*
X157589400Y-82973690D01*
X157740555Y-82822535D01*
X157882900Y-82478883D01*
X157882900Y-82432701D01*
X178158175Y-62157428D01*
X178221929Y-62114829D01*
X178389904Y-61863437D01*
X178434000Y-61641752D01*
X178448889Y-61566900D01*
X178434000Y-61492048D01*
X178434000Y-53598368D01*
X178672119Y-53697000D01*
X179227881Y-53697000D01*
X179741337Y-53484320D01*
X180134320Y-53091337D01*
X180347000Y-52577881D01*
X180347000Y-52072119D01*
X182753000Y-52072119D01*
X182753000Y-52627881D01*
X182965680Y-53141337D01*
X183358663Y-53534320D01*
X183872119Y-53747000D01*
X184427881Y-53747000D01*
X184941337Y-53534320D01*
X185334320Y-53141337D01*
X185547000Y-52627881D01*
X185547000Y-52072119D01*
X185334320Y-51558663D01*
X184941337Y-51165680D01*
X184427881Y-50953000D01*
X183872119Y-50953000D01*
X183358663Y-51165680D01*
X182965680Y-51558663D01*
X182753000Y-52072119D01*
X180347000Y-52072119D01*
X180347000Y-52022119D01*
X180134320Y-51508663D01*
X179741337Y-51115680D01*
X179227881Y-50903000D01*
X178672119Y-50903000D01*
X178434000Y-51001632D01*
X178434000Y-48440801D01*
X178640782Y-48234020D01*
X178672119Y-48247000D01*
X179227881Y-48247000D01*
X179741337Y-48034320D01*
X180134320Y-47641337D01*
X180347000Y-47127881D01*
X180347000Y-46572119D01*
X180134320Y-46058663D01*
X179741337Y-45665680D01*
X179227881Y-45453000D01*
X178672119Y-45453000D01*
X178306578Y-45604412D01*
X178874236Y-44590788D01*
X180514925Y-45509618D01*
X180514925Y-45509618D01*
G37*
X180514925Y-45509618D02*
X180523076Y-45512267D01*
X180589276Y-45547355D01*
X180594541Y-45549405D01*
X180599234Y-45552535D01*
X180682706Y-45588830D01*
X181335834Y-45825904D01*
X181374587Y-45835065D01*
X181411917Y-45848948D01*
X181501500Y-45865066D01*
X182061256Y-45930327D01*
X182162543Y-45950474D01*
X186351372Y-45950474D01*
X186351373Y-54287862D01*
X186357545Y-54318891D01*
X186375989Y-54533844D01*
X186380327Y-54550796D01*
X186389382Y-54623928D01*
X186413339Y-54736557D01*
X186417490Y-54747119D01*
X186418343Y-54758437D01*
X186459027Y-54878576D01*
X186656680Y-55329740D01*
X186671848Y-55353000D01*
X186622119Y-55353000D01*
X186108663Y-55565680D01*
X185715680Y-55958663D01*
X185503000Y-56472119D01*
X185503000Y-57027881D01*
X185715680Y-57541337D01*
X186108663Y-57934320D01*
X186622119Y-58147000D01*
X187177881Y-58147000D01*
X187392748Y-58057999D01*
X187361674Y-58273608D01*
X187351372Y-58325399D01*
X187351373Y-69780477D01*
X185813987Y-69780477D01*
X185778591Y-69787518D01*
X185581570Y-69806836D01*
X185550777Y-69815753D01*
X185518720Y-69815753D01*
X185380935Y-69855653D01*
X184972792Y-70018485D01*
X184918927Y-70052537D01*
X184859476Y-70075477D01*
X184745292Y-70162304D01*
X184423134Y-70461148D01*
X184385138Y-70512311D01*
X184337933Y-70555113D01*
X184262662Y-70677224D01*
X184069686Y-71072008D01*
X184052656Y-71133416D01*
X184024023Y-71190346D01*
X183997759Y-71331368D01*
X183959843Y-71769153D01*
X183966061Y-71832574D01*
X183959843Y-71895993D01*
X183986107Y-72037015D01*
X184108334Y-72459099D01*
X184136968Y-72516032D01*
X184153997Y-72577436D01*
X184229267Y-72699548D01*
X184495249Y-73049331D01*
X184542455Y-73092135D01*
X184580451Y-73143297D01*
X184694635Y-73230124D01*
X185068704Y-73460701D01*
X185128154Y-73483641D01*
X185182019Y-73517693D01*
X185319803Y-73557592D01*
X185319807Y-73557594D01*
X185319810Y-73557594D01*
X185747667Y-73637279D01*
X185813987Y-73650471D01*
X187262022Y-73650471D01*
X187351372Y-73805234D01*
X187351373Y-76293088D01*
X187351372Y-89143086D01*
X187351372Y-89143087D01*
X187351373Y-100940582D01*
X186253934Y-101340018D01*
X186237809Y-101349803D01*
X186146284Y-101388504D01*
X186131140Y-101398104D01*
X186069813Y-101426209D01*
X185900114Y-101522498D01*
X185883623Y-101535862D01*
X185864145Y-101544291D01*
X185763921Y-101622032D01*
X185402221Y-101956382D01*
X185366740Y-102002124D01*
X185323931Y-102041077D01*
X185254292Y-102147091D01*
X185020397Y-102580576D01*
X185001646Y-102635342D01*
X184973763Y-102686062D01*
X184942218Y-102808918D01*
X184863242Y-103283409D01*
X184851372Y-103343083D01*
X184851372Y-103787861D01*
X184851373Y-103787866D01*
X184851372Y-112787861D01*
X184860424Y-112833370D01*
X184904293Y-113180629D01*
X184916761Y-113222320D01*
X184920175Y-113265700D01*
X184961261Y-113385702D01*
X185160425Y-113836201D01*
X185192206Y-113884583D01*
X185215192Y-113937701D01*
X185292933Y-114037926D01*
X185627283Y-114399625D01*
X185673025Y-114435106D01*
X185711978Y-114477915D01*
X185817992Y-114547554D01*
X186251478Y-114781449D01*
X186306243Y-114800199D01*
X186356963Y-114828083D01*
X186479811Y-114859625D01*
X186479820Y-114859628D01*
X186479825Y-114859628D01*
X186954314Y-114938605D01*
X187013984Y-114950474D01*
X187351372Y-114950474D01*
X187351373Y-117643086D01*
X187351372Y-120105549D01*
X187361678Y-120157358D01*
X187400159Y-120424360D01*
X187227881Y-120353000D01*
X186672119Y-120353000D01*
X186640782Y-120365980D01*
X180281431Y-114006630D01*
X180239029Y-113943171D01*
X179987637Y-113775196D01*
X179765952Y-113731100D01*
X179765947Y-113731100D01*
X179691100Y-113716212D01*
X179616253Y-113731100D01*
X178262429Y-113731100D01*
X178353529Y-113670229D01*
X178395931Y-113606770D01*
X179732702Y-112270000D01*
X179778883Y-112270000D01*
X180122535Y-112127655D01*
X180385555Y-111864635D01*
X180527900Y-111520983D01*
X180527900Y-111149017D01*
X180385555Y-110805365D01*
X180122535Y-110542345D01*
X179778883Y-110400000D01*
X179406917Y-110400000D01*
X179063265Y-110542345D01*
X178800245Y-110805365D01*
X178657900Y-111149017D01*
X178657900Y-111195198D01*
X177490799Y-112362300D01*
X166524200Y-112362300D01*
X166524200Y-112165017D01*
X166381855Y-111821365D01*
X166118835Y-111558345D01*
X165775183Y-111416000D01*
X165403217Y-111416000D01*
X165059565Y-111558345D01*
X165026910Y-111591000D01*
X163568800Y-111591000D01*
X163568800Y-111326317D01*
X163426455Y-110982665D01*
X163393800Y-110950010D01*
X163393800Y-109312846D01*
X163408688Y-109237999D01*
X163393800Y-109163152D01*
X163393800Y-109163148D01*
X163349704Y-108941463D01*
X163253511Y-108797500D01*
X165305810Y-108797500D01*
X165338465Y-108830155D01*
X165682117Y-108972500D01*
X166054083Y-108972500D01*
X166397735Y-108830155D01*
X166660755Y-108567135D01*
X166803100Y-108223483D01*
X166803100Y-107851517D01*
X166660755Y-107507865D01*
X166397735Y-107244845D01*
X166054083Y-107102500D01*
X165682117Y-107102500D01*
X165338465Y-107244845D01*
X165305810Y-107277500D01*
X162682502Y-107277500D01*
X154890401Y-99485400D01*
X176884453Y-99485400D01*
X176959300Y-99500288D01*
X177034147Y-99485400D01*
X177034152Y-99485400D01*
X177255837Y-99441304D01*
X177507229Y-99273329D01*
X177549631Y-99209870D01*
X181639121Y-95120381D01*
X181679375Y-95180625D01*
X181977761Y-95380000D01*
X181679375Y-95579375D01*
X181351161Y-96070582D01*
X181235908Y-96650000D01*
X181351161Y-97229418D01*
X181679375Y-97720625D01*
X182170582Y-98048839D01*
X182603744Y-98135000D01*
X182896256Y-98135000D01*
X183329418Y-98048839D01*
X183820625Y-97720625D01*
X184148839Y-97229418D01*
X184264092Y-96650000D01*
X184148839Y-96070582D01*
X183820625Y-95579375D01*
X183522239Y-95380000D01*
X183820625Y-95180625D01*
X184148839Y-94689418D01*
X184264092Y-94110000D01*
X184148839Y-93530582D01*
X183820625Y-93039375D01*
X183522239Y-92840000D01*
X183820625Y-92640625D01*
X184148839Y-92149418D01*
X184264092Y-91570000D01*
X184148839Y-90990582D01*
X183820625Y-90499375D01*
X183522239Y-90300000D01*
X183820625Y-90100625D01*
X184148839Y-89609418D01*
X184264092Y-89030000D01*
X184148839Y-88450582D01*
X183820625Y-87959375D01*
X183522239Y-87760000D01*
X183820625Y-87560625D01*
X184148839Y-87069418D01*
X184264092Y-86490000D01*
X184148839Y-85910582D01*
X183820625Y-85419375D01*
X183798967Y-85404904D01*
X183959698Y-85338327D01*
X184138327Y-85159699D01*
X184235000Y-84926310D01*
X184235000Y-84235750D01*
X184076250Y-84077000D01*
X182877000Y-84077000D01*
X182877000Y-84097000D01*
X182623000Y-84097000D01*
X182623000Y-84077000D01*
X181423750Y-84077000D01*
X181265000Y-84235750D01*
X181265000Y-84926310D01*
X181361673Y-85159699D01*
X181540302Y-85338327D01*
X181701033Y-85404904D01*
X181679375Y-85419375D01*
X181351161Y-85910582D01*
X181235908Y-86490000D01*
X181351161Y-87069418D01*
X181679375Y-87560625D01*
X181977761Y-87760000D01*
X181679375Y-87959375D01*
X181351161Y-88450582D01*
X181235908Y-89030000D01*
X181351161Y-89609418D01*
X181679375Y-90100625D01*
X181977761Y-90300000D01*
X181679375Y-90499375D01*
X181467526Y-90816429D01*
X181278163Y-90854096D01*
X181026771Y-91022071D01*
X180984371Y-91085527D01*
X174613999Y-97455900D01*
X171133545Y-97455900D01*
X171500625Y-97210625D01*
X171828839Y-96719418D01*
X171944092Y-96140000D01*
X171828839Y-95560582D01*
X171500625Y-95069375D01*
X171202239Y-94870000D01*
X171500625Y-94670625D01*
X171828839Y-94179418D01*
X171944092Y-93600000D01*
X171828839Y-93020582D01*
X171500625Y-92529375D01*
X171009418Y-92201161D01*
X170576256Y-92115000D01*
X170283744Y-92115000D01*
X169850582Y-92201161D01*
X169359375Y-92529375D01*
X169160000Y-92827761D01*
X168960625Y-92529375D01*
X168469418Y-92201161D01*
X168036256Y-92115000D01*
X167743744Y-92115000D01*
X167310582Y-92201161D01*
X166819375Y-92529375D01*
X166620000Y-92827761D01*
X166420625Y-92529375D01*
X165929418Y-92201161D01*
X165496256Y-92115000D01*
X165203744Y-92115000D01*
X164770582Y-92201161D01*
X164279375Y-92529375D01*
X164080000Y-92827761D01*
X163880625Y-92529375D01*
X163389418Y-92201161D01*
X162956256Y-92115000D01*
X162663744Y-92115000D01*
X162230582Y-92201161D01*
X161899371Y-92422469D01*
X161417131Y-91940230D01*
X161374729Y-91876771D01*
X161123337Y-91708796D01*
X160901652Y-91664700D01*
X160901647Y-91664700D01*
X160826800Y-91649812D01*
X160751953Y-91664700D01*
X158841103Y-91664700D01*
X152571346Y-85394944D01*
X152640955Y-85325335D01*
X152722406Y-85128695D01*
X175974602Y-61876500D01*
X176020783Y-61876500D01*
X176364435Y-61734155D01*
X176627455Y-61471135D01*
X176769800Y-61127483D01*
X176769800Y-60755517D01*
X176627455Y-60411865D01*
X176364435Y-60148845D01*
X176020783Y-60006500D01*
X175648817Y-60006500D01*
X175305165Y-60148845D01*
X175042145Y-60411865D01*
X174899800Y-60755517D01*
X174899800Y-60801698D01*
X151840799Y-83860700D01*
X151662317Y-83860700D01*
X151318665Y-84003045D01*
X151249056Y-84072654D01*
X151142600Y-83966199D01*
X151142600Y-83920017D01*
X151000255Y-83576365D01*
X150737235Y-83313345D01*
X150393583Y-83171000D01*
X150226200Y-83171000D01*
X150226200Y-76677401D01*
X165007402Y-61896200D01*
X165053583Y-61896200D01*
X165397235Y-61753855D01*
X165660255Y-61490835D01*
X165802600Y-61147183D01*
X165802600Y-60775217D01*
X165660255Y-60431565D01*
X165397235Y-60168545D01*
X165053583Y-60026200D01*
X164681617Y-60026200D01*
X164337965Y-60168545D01*
X164074945Y-60431565D01*
X163932600Y-60775217D01*
X163932600Y-60821398D01*
X148981728Y-75772271D01*
X148918272Y-75814671D01*
X148875872Y-75878127D01*
X148875871Y-75878128D01*
X148750297Y-76066063D01*
X148691312Y-76362600D01*
X148706201Y-76437452D01*
X148706200Y-85027597D01*
X144563500Y-80884899D01*
X144563500Y-80838717D01*
X144421155Y-80495065D01*
X144158135Y-80232045D01*
X143814483Y-80089700D01*
X143442517Y-80089700D01*
X143098865Y-80232045D01*
X143062606Y-80268304D01*
X142255200Y-79460899D01*
X142255200Y-62595090D01*
X142287855Y-62562435D01*
X142430200Y-62218783D01*
X142430200Y-61846817D01*
X142287855Y-61503165D01*
X142024835Y-61240145D01*
X141681183Y-61097800D01*
X141309217Y-61097800D01*
X140965565Y-61240145D01*
X140702545Y-61503165D01*
X140560200Y-61846817D01*
X140560200Y-62218783D01*
X140702545Y-62562435D01*
X140735200Y-62595090D01*
X140735201Y-77579084D01*
X140477883Y-77472500D01*
X140431702Y-77472500D01*
X127664731Y-64705530D01*
X127622329Y-64642071D01*
X127370937Y-64474096D01*
X127149252Y-64430000D01*
X127149247Y-64430000D01*
X127074400Y-64415112D01*
X126999553Y-64430000D01*
X99248178Y-64430000D01*
X99040625Y-64119375D01*
X98549418Y-63791161D01*
X98116256Y-63705000D01*
X97823744Y-63705000D01*
X97390582Y-63791161D01*
X96899375Y-64119375D01*
X96571161Y-64610582D01*
X96455908Y-65190000D01*
X96571161Y-65769418D01*
X96899375Y-66260625D01*
X97197761Y-66460000D01*
X96899375Y-66659375D01*
X96571161Y-67150582D01*
X96455908Y-67730000D01*
X96571161Y-68309418D01*
X96899375Y-68800625D01*
X97197761Y-69000000D01*
X96899375Y-69199375D01*
X96571161Y-69690582D01*
X96455908Y-70270000D01*
X96571161Y-70849418D01*
X96899375Y-71340625D01*
X97197761Y-71540000D01*
X96899375Y-71739375D01*
X96571161Y-72230582D01*
X96455908Y-72810000D01*
X96571161Y-73389418D01*
X96899375Y-73880625D01*
X97197761Y-74080000D01*
X96899375Y-74279375D01*
X96571161Y-74770582D01*
X96455908Y-75350000D01*
X96571161Y-75929418D01*
X96584178Y-75948900D01*
X94081247Y-75948900D01*
X94006400Y-75934012D01*
X93931553Y-75948900D01*
X93931548Y-75948900D01*
X93709863Y-75992996D01*
X93458471Y-76160971D01*
X93416071Y-76224427D01*
X93110879Y-76529619D01*
X93070625Y-76469375D01*
X93048967Y-76454904D01*
X93209698Y-76388327D01*
X93388327Y-76209699D01*
X93485000Y-75976310D01*
X93485000Y-75285750D01*
X93326250Y-75127000D01*
X92127000Y-75127000D01*
X92127000Y-75147000D01*
X91873000Y-75147000D01*
X91873000Y-75127000D01*
X90673750Y-75127000D01*
X90515000Y-75285750D01*
X90515000Y-75976310D01*
X90611673Y-76209699D01*
X90790302Y-76388327D01*
X90951033Y-76454904D01*
X90929375Y-76469375D01*
X90601161Y-76960582D01*
X90485908Y-77540000D01*
X90601161Y-78119418D01*
X90929375Y-78610625D01*
X91227761Y-78810000D01*
X90929375Y-79009375D01*
X90601161Y-79500582D01*
X90485908Y-80080000D01*
X90601161Y-80659418D01*
X90929375Y-81150625D01*
X91227761Y-81350000D01*
X90929375Y-81549375D01*
X90601161Y-82040582D01*
X90485908Y-82620000D01*
X90601161Y-83199418D01*
X90929375Y-83690625D01*
X91227761Y-83890000D01*
X90929375Y-84089375D01*
X90601161Y-84580582D01*
X90485908Y-85160000D01*
X90601161Y-85739418D01*
X90929375Y-86230625D01*
X91227761Y-86430000D01*
X90929375Y-86629375D01*
X90601161Y-87120582D01*
X90485908Y-87700000D01*
X90558791Y-88066408D01*
X89821372Y-88803827D01*
X89821372Y-74023690D01*
X90515000Y-74023690D01*
X90515000Y-74714250D01*
X90673750Y-74873000D01*
X91873000Y-74873000D01*
X91873000Y-73673750D01*
X92127000Y-73673750D01*
X92127000Y-74873000D01*
X93326250Y-74873000D01*
X93485000Y-74714250D01*
X93485000Y-74023690D01*
X93388327Y-73790301D01*
X93209698Y-73611673D01*
X92976309Y-73515000D01*
X92285750Y-73515000D01*
X92127000Y-73673750D01*
X91873000Y-73673750D01*
X91714250Y-73515000D01*
X91023691Y-73515000D01*
X90790302Y-73611673D01*
X90611673Y-73790301D01*
X90515000Y-74023690D01*
X89821372Y-74023690D01*
X89821372Y-56472119D01*
X125303000Y-56472119D01*
X125303000Y-57027881D01*
X125515680Y-57541337D01*
X125908663Y-57934320D01*
X126422119Y-58147000D01*
X126977881Y-58147000D01*
X127491337Y-57934320D01*
X127884320Y-57541337D01*
X128097000Y-57027881D01*
X128097000Y-56472119D01*
X155403000Y-56472119D01*
X155403000Y-57027881D01*
X155615680Y-57541337D01*
X156008663Y-57934320D01*
X156522119Y-58147000D01*
X157077881Y-58147000D01*
X157591337Y-57934320D01*
X157984320Y-57541337D01*
X158197000Y-57027881D01*
X158197000Y-56472119D01*
X157984320Y-55958663D01*
X157591337Y-55565680D01*
X157077881Y-55353000D01*
X156522119Y-55353000D01*
X156008663Y-55565680D01*
X155615680Y-55958663D01*
X155403000Y-56472119D01*
X128097000Y-56472119D01*
X127884320Y-55958663D01*
X127491337Y-55565680D01*
X126977881Y-55353000D01*
X126422119Y-55353000D01*
X125908663Y-55565680D01*
X125515680Y-55958663D01*
X125303000Y-56472119D01*
X89821372Y-56472119D01*
X89821372Y-53600483D01*
X90958763Y-53600483D01*
X91023456Y-53587615D01*
X91432472Y-53514354D01*
X91489728Y-53492713D01*
X91550163Y-53483023D01*
X91679894Y-53421812D01*
X91916866Y-53280213D01*
X117949392Y-53280213D01*
X118018857Y-53522397D01*
X118542302Y-53709144D01*
X119097368Y-53681362D01*
X119481143Y-53522397D01*
X119550608Y-53280213D01*
X118750000Y-52479605D01*
X117949392Y-53280213D01*
X91916866Y-53280213D01*
X92057108Y-53196414D01*
X92084959Y-53171851D01*
X92118325Y-53155542D01*
X92224591Y-53059186D01*
X92404025Y-52861298D01*
X92423512Y-52829684D01*
X92450677Y-52804361D01*
X92524256Y-52681222D01*
X92711767Y-52283814D01*
X92727948Y-52222176D01*
X92755792Y-52164859D01*
X92780109Y-52023489D01*
X92811983Y-51585221D01*
X92804890Y-51521890D01*
X92810233Y-51458392D01*
X92782028Y-51317757D01*
X92782027Y-51317746D01*
X92782025Y-51317741D01*
X92653988Y-50897389D01*
X92624572Y-50840857D01*
X92606697Y-50779693D01*
X92529755Y-50658640D01*
X92529750Y-50658631D01*
X92529747Y-50658628D01*
X92258968Y-50312551D01*
X92213062Y-50272066D01*
X92176231Y-50223181D01*
X92061451Y-50137143D01*
X91699722Y-49917599D01*
X91642468Y-49895959D01*
X91590731Y-49863252D01*
X91452945Y-49823352D01*
X91025083Y-49743666D01*
X90958763Y-49730474D01*
X89821372Y-49730474D01*
X89821372Y-47950474D01*
X94761430Y-47950474D01*
X100673770Y-51261544D01*
X100713531Y-51274463D01*
X100970752Y-51382325D01*
X101007782Y-51401602D01*
X104441223Y-52402355D01*
X104462596Y-52404225D01*
X104525922Y-52418761D01*
X104619326Y-52421497D01*
X104711452Y-52437089D01*
X105101473Y-52425893D01*
X105381024Y-52361897D01*
X105737071Y-52202299D01*
X105795675Y-52160660D01*
X105810006Y-52156618D01*
X105824930Y-52144853D01*
X105876935Y-52119968D01*
X105916829Y-52090099D01*
X105955353Y-52047205D01*
X105970851Y-52036194D01*
X105978766Y-52023579D01*
X106035222Y-51979073D01*
X106206022Y-51779092D01*
X106222500Y-51769630D01*
X106355983Y-51596523D01*
X106944822Y-50409577D01*
X108078797Y-51044639D01*
X108078799Y-51044640D01*
X111506288Y-52964134D01*
X111550405Y-52978468D01*
X111874830Y-53109874D01*
X111917300Y-53119367D01*
X111956813Y-53137583D01*
X112081590Y-53160372D01*
X112571964Y-53206726D01*
X112629707Y-53202638D01*
X112687285Y-53208537D01*
X112812716Y-53189680D01*
X113291667Y-53074694D01*
X113344972Y-53052122D01*
X113401357Y-53039053D01*
X113513917Y-52980583D01*
X113929800Y-52716656D01*
X113972916Y-52678038D01*
X114022032Y-52647407D01*
X114109584Y-52555629D01*
X114410427Y-52180116D01*
X114449853Y-52133954D01*
X114473179Y-52092302D01*
X117340856Y-52092302D01*
X117368638Y-52647368D01*
X117527603Y-53031143D01*
X117769787Y-53100608D01*
X118570395Y-52300000D01*
X118929605Y-52300000D01*
X119730213Y-53100608D01*
X119972397Y-53031143D01*
X120159144Y-52507698D01*
X120137343Y-52072119D01*
X122553000Y-52072119D01*
X122553000Y-52627881D01*
X122765680Y-53141337D01*
X123158663Y-53534320D01*
X123672119Y-53747000D01*
X124227881Y-53747000D01*
X124741337Y-53534320D01*
X124995444Y-53280213D01*
X148049392Y-53280213D01*
X148118857Y-53522397D01*
X148642302Y-53709144D01*
X149197368Y-53681362D01*
X149581143Y-53522397D01*
X149650608Y-53280213D01*
X148850000Y-52479605D01*
X148049392Y-53280213D01*
X124995444Y-53280213D01*
X125134320Y-53141337D01*
X125347000Y-52627881D01*
X125347000Y-52072119D01*
X125134320Y-51558663D01*
X124741337Y-51165680D01*
X124227881Y-50953000D01*
X123672119Y-50953000D01*
X123158663Y-51165680D01*
X122765680Y-51558663D01*
X122553000Y-52072119D01*
X120137343Y-52072119D01*
X120131362Y-51952632D01*
X119972397Y-51568857D01*
X119730213Y-51499392D01*
X118929605Y-52300000D01*
X118570395Y-52300000D01*
X117769787Y-51499392D01*
X117527603Y-51568857D01*
X117340856Y-52092302D01*
X114473179Y-52092302D01*
X114905809Y-51319787D01*
X117949392Y-51319787D01*
X118750000Y-52120395D01*
X119550608Y-51319787D01*
X119481143Y-51077603D01*
X118957698Y-50890856D01*
X118402632Y-50918638D01*
X118018857Y-51077603D01*
X117949392Y-51319787D01*
X114905809Y-51319787D01*
X117353000Y-46950023D01*
X117353000Y-47127881D01*
X117565680Y-47641337D01*
X117958663Y-48034320D01*
X118472119Y-48247000D01*
X119027881Y-48247000D01*
X119541337Y-48034320D01*
X119934320Y-47641337D01*
X120147000Y-47127881D01*
X120147000Y-46572119D01*
X119934320Y-46058663D01*
X119541337Y-45665680D01*
X119027881Y-45453000D01*
X118472119Y-45453000D01*
X118106581Y-45604410D01*
X118656642Y-44622208D01*
X121418120Y-46168723D01*
X121418121Y-46168724D01*
X121469738Y-46197631D01*
X121544434Y-46239463D01*
X121544436Y-46239464D01*
X133202133Y-52768079D01*
X133246250Y-52782414D01*
X133570678Y-52913820D01*
X133613148Y-52923313D01*
X133652661Y-52941529D01*
X133777439Y-52964318D01*
X134267814Y-53010672D01*
X134325556Y-53006584D01*
X134383134Y-53012483D01*
X134508565Y-52993626D01*
X134987516Y-52878640D01*
X135040821Y-52856068D01*
X135097206Y-52842999D01*
X135209766Y-52784529D01*
X135625649Y-52520602D01*
X135668768Y-52481982D01*
X135717881Y-52451352D01*
X135805434Y-52359574D01*
X136106235Y-51984112D01*
X136145694Y-51937913D01*
X136361108Y-51553276D01*
X136361112Y-51553272D01*
X136404670Y-51475494D01*
X136431849Y-51426964D01*
X136431850Y-51426959D01*
X137011925Y-50391163D01*
X138178790Y-51044640D01*
X138178791Y-51044640D01*
X141606279Y-52964134D01*
X141650471Y-52978493D01*
X141974836Y-53109874D01*
X142017306Y-53119367D01*
X142056819Y-53137583D01*
X142181596Y-53160372D01*
X142671970Y-53206726D01*
X142729713Y-53202638D01*
X142787291Y-53208537D01*
X142912722Y-53189680D01*
X143391673Y-53074694D01*
X143444978Y-53052122D01*
X143501363Y-53039053D01*
X143613923Y-52980583D01*
X144029806Y-52716656D01*
X144072922Y-52678038D01*
X144122038Y-52647407D01*
X144209590Y-52555629D01*
X144510660Y-52179833D01*
X144549844Y-52133954D01*
X144573170Y-52092302D01*
X147440856Y-52092302D01*
X147468638Y-52647368D01*
X147627603Y-53031143D01*
X147869787Y-53100608D01*
X148670395Y-52300000D01*
X149029605Y-52300000D01*
X149830213Y-53100608D01*
X150072397Y-53031143D01*
X150259144Y-52507698D01*
X150237343Y-52072119D01*
X152653000Y-52072119D01*
X152653000Y-52627881D01*
X152865680Y-53141337D01*
X153258663Y-53534320D01*
X153772119Y-53747000D01*
X154327881Y-53747000D01*
X154841337Y-53534320D01*
X155234320Y-53141337D01*
X155447000Y-52627881D01*
X155447000Y-52072119D01*
X155234320Y-51558663D01*
X154841337Y-51165680D01*
X154327881Y-50953000D01*
X153772119Y-50953000D01*
X153258663Y-51165680D01*
X152865680Y-51558663D01*
X152653000Y-52072119D01*
X150237343Y-52072119D01*
X150231362Y-51952632D01*
X150072397Y-51568857D01*
X149830213Y-51499392D01*
X149029605Y-52300000D01*
X148670395Y-52300000D01*
X147869787Y-51499392D01*
X147627603Y-51568857D01*
X147440856Y-52092302D01*
X144573170Y-52092302D01*
X145005800Y-51319787D01*
X148049392Y-51319787D01*
X148850000Y-52120395D01*
X149650608Y-51319787D01*
X149581143Y-51077603D01*
X149057698Y-50890856D01*
X148502632Y-50918638D01*
X148118857Y-51077603D01*
X148049392Y-51319787D01*
X145005800Y-51319787D01*
X147453000Y-46950007D01*
X147453000Y-47127881D01*
X147665680Y-47641337D01*
X148058663Y-48034320D01*
X148572119Y-48247000D01*
X149127881Y-48247000D01*
X149641337Y-48034320D01*
X150034320Y-47641337D01*
X150247000Y-47127881D01*
X150247000Y-46572119D01*
X150034320Y-46058663D01*
X149641337Y-45665680D01*
X149127881Y-45453000D01*
X148572119Y-45453000D01*
X148206569Y-45604415D01*
X148756630Y-44622213D01*
X150935872Y-45842645D01*
X151033425Y-45907828D01*
X151062642Y-45913640D01*
X151350972Y-46075112D01*
X151644442Y-46239464D01*
X151644446Y-46239465D01*
X163302144Y-52768082D01*
X163346267Y-52782418D01*
X163670690Y-52913823D01*
X163713160Y-52923316D01*
X163752673Y-52941532D01*
X163877451Y-52964321D01*
X164367826Y-53010675D01*
X164425567Y-53006587D01*
X164483147Y-53012486D01*
X164608579Y-52993629D01*
X165087530Y-52878641D01*
X165140832Y-52856071D01*
X165197218Y-52843001D01*
X165309779Y-52784531D01*
X165725661Y-52520604D01*
X165768780Y-52481983D01*
X165817892Y-52451354D01*
X165905445Y-52359576D01*
X166206155Y-51984228D01*
X166245712Y-51937912D01*
X166480934Y-51517888D01*
X167111931Y-50391163D01*
X168278796Y-51044640D01*
X168278797Y-51044640D01*
X171706285Y-52964134D01*
X171750402Y-52978468D01*
X172074827Y-53109874D01*
X172117297Y-53119367D01*
X172156810Y-53137583D01*
X172281587Y-53160372D01*
X172771961Y-53206726D01*
X172829704Y-53202638D01*
X172887282Y-53208537D01*
X173012713Y-53189680D01*
X173491664Y-53074694D01*
X173544969Y-53052122D01*
X173601354Y-53039053D01*
X173713914Y-52980583D01*
X174129797Y-52716656D01*
X174172913Y-52678038D01*
X174222029Y-52647407D01*
X174309581Y-52555629D01*
X174610424Y-52180116D01*
X174649850Y-52133954D01*
X176901698Y-48112999D01*
X176899112Y-48126000D01*
X176914000Y-48200847D01*
X176914001Y-61251996D01*
X156808099Y-81357900D01*
X156761917Y-81357900D01*
X156418265Y-81500245D01*
X156155245Y-81763265D01*
X156012900Y-82106917D01*
X156012900Y-82478883D01*
X156155245Y-82822535D01*
X156418265Y-83085555D01*
X156761917Y-83227900D01*
X157133883Y-83227900D01*
X157477535Y-83085555D01*
X157589400Y-82973690D01*
X181265000Y-82973690D01*
X181265000Y-83664250D01*
X181423750Y-83823000D01*
X182623000Y-83823000D01*
X182623000Y-82623750D01*
X182877000Y-82623750D01*
X182877000Y-83823000D01*
X184076250Y-83823000D01*
X184235000Y-83664250D01*
X184235000Y-82973690D01*
X184138327Y-82740301D01*
X183959698Y-82561673D01*
X183726309Y-82465000D01*
X183035750Y-82465000D01*
X182877000Y-82623750D01*
X182623000Y-82623750D01*
X182464250Y-82465000D01*
X181773691Y-82465000D01*
X181540302Y-82561673D01*
X181361673Y-82740301D01*
X181265000Y-82973690D01*
X157589400Y-82973690D01*
X157740555Y-82822535D01*
X157882900Y-82478883D01*
X157882900Y-82432701D01*
X178158175Y-62157428D01*
X178221929Y-62114829D01*
X178389904Y-61863437D01*
X178434000Y-61641752D01*
X178448889Y-61566900D01*
X178434000Y-61492048D01*
X178434000Y-53598368D01*
X178672119Y-53697000D01*
X179227881Y-53697000D01*
X179741337Y-53484320D01*
X180134320Y-53091337D01*
X180347000Y-52577881D01*
X180347000Y-52072119D01*
X182753000Y-52072119D01*
X182753000Y-52627881D01*
X182965680Y-53141337D01*
X183358663Y-53534320D01*
X183872119Y-53747000D01*
X184427881Y-53747000D01*
X184941337Y-53534320D01*
X185334320Y-53141337D01*
X185547000Y-52627881D01*
X185547000Y-52072119D01*
X185334320Y-51558663D01*
X184941337Y-51165680D01*
X184427881Y-50953000D01*
X183872119Y-50953000D01*
X183358663Y-51165680D01*
X182965680Y-51558663D01*
X182753000Y-52072119D01*
X180347000Y-52072119D01*
X180347000Y-52022119D01*
X180134320Y-51508663D01*
X179741337Y-51115680D01*
X179227881Y-50903000D01*
X178672119Y-50903000D01*
X178434000Y-51001632D01*
X178434000Y-48440801D01*
X178640782Y-48234020D01*
X178672119Y-48247000D01*
X179227881Y-48247000D01*
X179741337Y-48034320D01*
X180134320Y-47641337D01*
X180347000Y-47127881D01*
X180347000Y-46572119D01*
X180134320Y-46058663D01*
X179741337Y-45665680D01*
X179227881Y-45453000D01*
X178672119Y-45453000D01*
X178306578Y-45604412D01*
X178874236Y-44590788D01*
X180514925Y-45509618D01*
G36*
X157935973Y-92909176D02*
X157978371Y-92972629D01*
X158041824Y-93015027D01*
X158041826Y-93015029D01*
X158139853Y-93080528D01*
X158229763Y-93140604D01*
X158451448Y-93184700D01*
X158451452Y-93184700D01*
X158526299Y-93199588D01*
X158601146Y-93184700D01*
X158855944Y-93184700D01*
X158828514Y-93243108D01*
X158949181Y-93473000D01*
X160143000Y-93473000D01*
X160143000Y-93453000D01*
X160397000Y-93453000D01*
X160397000Y-93473000D01*
X160417000Y-93473000D01*
X160417000Y-93727000D01*
X160397000Y-93727000D01*
X160397000Y-93747000D01*
X160143000Y-93747000D01*
X160143000Y-93727000D01*
X158949181Y-93727000D01*
X158828514Y-93956892D01*
X159074817Y-94481358D01*
X159281855Y-94670039D01*
X159172235Y-94691843D01*
X158962191Y-94832191D01*
X158821843Y-95042235D01*
X158772560Y-95290000D01*
X158772560Y-95380000D01*
X158505202Y-95380000D01*
X150210196Y-87084994D01*
X150258855Y-87036335D01*
X150401200Y-86692683D01*
X150401200Y-86320717D01*
X150258855Y-85977065D01*
X150226200Y-85944410D01*
X150226200Y-85199401D01*
X157935973Y-92909176D01*
X157935973Y-92909176D01*
G37*
X157935973Y-92909176D02*
X157978371Y-92972629D01*
X158041824Y-93015027D01*
X158041826Y-93015029D01*
X158139853Y-93080528D01*
X158229763Y-93140604D01*
X158451448Y-93184700D01*
X158451452Y-93184700D01*
X158526299Y-93199588D01*
X158601146Y-93184700D01*
X158855944Y-93184700D01*
X158828514Y-93243108D01*
X158949181Y-93473000D01*
X160143000Y-93473000D01*
X160143000Y-93453000D01*
X160397000Y-93453000D01*
X160397000Y-93473000D01*
X160417000Y-93473000D01*
X160417000Y-93727000D01*
X160397000Y-93727000D01*
X160397000Y-93747000D01*
X160143000Y-93747000D01*
X160143000Y-93727000D01*
X158949181Y-93727000D01*
X158828514Y-93956892D01*
X159074817Y-94481358D01*
X159281855Y-94670039D01*
X159172235Y-94691843D01*
X158962191Y-94832191D01*
X158821843Y-95042235D01*
X158772560Y-95290000D01*
X158772560Y-95380000D01*
X158505202Y-95380000D01*
X150210196Y-87084994D01*
X150258855Y-87036335D01*
X150401200Y-86692683D01*
X150401200Y-86320717D01*
X150258855Y-85977065D01*
X150226200Y-85944410D01*
X150226200Y-85199401D01*
X157935973Y-92909176D01*
G36*
X161527526Y-94353571D02*
X161739375Y-94670625D01*
X162037761Y-94870000D01*
X161739375Y-95069375D01*
X161727184Y-95087619D01*
X161718157Y-95042235D01*
X161577809Y-94832191D01*
X161367765Y-94691843D01*
X161258145Y-94670039D01*
X161465183Y-94481358D01*
X161525394Y-94353147D01*
X161527526Y-94353571D01*
X161527526Y-94353571D01*
G37*
X161527526Y-94353571D02*
X161739375Y-94670625D01*
X162037761Y-94870000D01*
X161739375Y-95069375D01*
X161727184Y-95087619D01*
X161718157Y-95042235D01*
X161577809Y-94832191D01*
X161367765Y-94691843D01*
X161258145Y-94670039D01*
X161465183Y-94481358D01*
X161525394Y-94353147D01*
X161527526Y-94353571D01*
G36*
X109477000Y-77343000D02*
X109497000Y-77343000D01*
X109497000Y-77597000D01*
X109477000Y-77597000D01*
X109477000Y-77617000D01*
X109223000Y-77617000D01*
X109223000Y-77597000D01*
X109203000Y-77597000D01*
X109203000Y-77343000D01*
X109223000Y-77343000D01*
X109223000Y-77323000D01*
X109477000Y-77323000D01*
X109477000Y-77343000D01*
X109477000Y-77343000D01*
G37*
X109477000Y-77343000D02*
X109497000Y-77343000D01*
X109497000Y-77597000D01*
X109477000Y-77597000D01*
X109477000Y-77617000D01*
X109223000Y-77617000D01*
X109223000Y-77597000D01*
X109203000Y-77597000D01*
X109203000Y-77343000D01*
X109223000Y-77343000D01*
X109223000Y-77323000D01*
X109477000Y-77323000D01*
X109477000Y-77343000D01*
G04 #@! TD*
M02*
