G04 #@! TF.FileFunction,Soldermask,Top*
%FSLAX46Y46*%
G04 Gerber Fmt 4.6, Leading zero omitted, Abs format (unit mm)*
G04 Created by KiCad (PCBNEW 4.0.7-e2-6376~58~ubuntu16.04.1) date Wed Aug  1 19:42:02 2018*
%MOMM*%
%LPD*%
G01*
G04 APERTURE LIST*
%ADD10C,0.100000*%
%ADD11R,3.400000X2.000000*%
%ADD12R,2.000000X2.400000*%
%ADD13R,2.400000X2.000000*%
%ADD14R,2.100000X2.100000*%
%ADD15O,2.100000X2.100000*%
%ADD16R,2.000000X1.400000*%
%ADD17R,1.200000X2.300000*%
%ADD18R,1.400000X2.000000*%
%ADD19R,2.400000X2.100000*%
%ADD20R,2.100000X2.400000*%
%ADD21R,2.400000X2.900000*%
%ADD22R,1.900000X0.680000*%
%ADD23R,0.680000X1.900000*%
%ADD24R,2.150000X0.950000*%
%ADD25R,2.150000X0.850000*%
%ADD26O,1.901140X2.899360*%
%ADD27C,1.924000*%
%ADD28R,2.000000X3.900000*%
%ADD29R,3.900000X3.900000*%
%ADD30R,1.670000X1.370000*%
G04 APERTURE END LIST*
D10*
D11*
X111930000Y-87120000D03*
X107530000Y-87120000D03*
D12*
X147828000Y-84106000D03*
X147828000Y-88106000D03*
X147574000Y-96742000D03*
X147574000Y-92742000D03*
D13*
X145002000Y-101600000D03*
X141002000Y-101600000D03*
X128556000Y-101600000D03*
X132556000Y-101600000D03*
X130100000Y-78800000D03*
X134100000Y-78800000D03*
X142100000Y-78700000D03*
X138100000Y-78700000D03*
D12*
X124000000Y-85200000D03*
X124000000Y-89200000D03*
X124000000Y-96100000D03*
X124000000Y-92100000D03*
X146050000Y-72104000D03*
X146050000Y-68104000D03*
D13*
X108760000Y-103630000D03*
X104760000Y-103630000D03*
X96720000Y-103520000D03*
X100720000Y-103520000D03*
X101770000Y-117350000D03*
X105770000Y-117350000D03*
X127840000Y-105780000D03*
X123840000Y-105780000D03*
X116020000Y-105560000D03*
X120020000Y-105560000D03*
X123370000Y-118470000D03*
X119370000Y-118470000D03*
X134510000Y-105950000D03*
X138510000Y-105950000D03*
X146560000Y-105780000D03*
X142560000Y-105780000D03*
X143990000Y-118910000D03*
X139990000Y-118910000D03*
X165220000Y-105120000D03*
X161220000Y-105120000D03*
X152720000Y-105040000D03*
X156720000Y-105040000D03*
X163700000Y-118680000D03*
X159700000Y-118680000D03*
X170550000Y-104890000D03*
X174550000Y-104890000D03*
X182940000Y-104890000D03*
X178940000Y-104890000D03*
X179440000Y-118770000D03*
X175440000Y-118770000D03*
D14*
X160270000Y-96140000D03*
D15*
X160270000Y-93600000D03*
X162810000Y-96140000D03*
X162810000Y-93600000D03*
X165350000Y-96140000D03*
X165350000Y-93600000D03*
X167890000Y-96140000D03*
X167890000Y-93600000D03*
X170430000Y-96140000D03*
X170430000Y-93600000D03*
D16*
X111400000Y-56900000D03*
X111400000Y-59900000D03*
X106300000Y-60000000D03*
X106300000Y-57000000D03*
D17*
X162372000Y-71350000D03*
X164272000Y-71350000D03*
X163322000Y-68350000D03*
D18*
X136422000Y-60452000D03*
X139422000Y-60452000D03*
X141756000Y-60452000D03*
X144756000Y-60452000D03*
X118388000Y-68326000D03*
X121388000Y-68326000D03*
X124230000Y-68326000D03*
X127230000Y-68326000D03*
X158012000Y-86614000D03*
X161012000Y-86614000D03*
X163092000Y-86614000D03*
X166092000Y-86614000D03*
D14*
X97970000Y-90590000D03*
D15*
X97970000Y-88050000D03*
X97970000Y-85510000D03*
X97970000Y-82970000D03*
X97970000Y-80430000D03*
X97970000Y-77890000D03*
X97970000Y-75350000D03*
X97970000Y-72810000D03*
X97970000Y-70270000D03*
X97970000Y-67730000D03*
X97970000Y-65190000D03*
D14*
X182750000Y-83950000D03*
D15*
X182750000Y-86490000D03*
X182750000Y-89030000D03*
X182750000Y-91570000D03*
X182750000Y-94110000D03*
X182750000Y-96650000D03*
D14*
X99060000Y-98300000D03*
D15*
X101600000Y-98300000D03*
X104140000Y-98300000D03*
X106680000Y-98300000D03*
X109220000Y-98300000D03*
X111760000Y-98300000D03*
X114300000Y-98300000D03*
X116840000Y-98300000D03*
X119380000Y-98300000D03*
D14*
X92000000Y-75000000D03*
D15*
X92000000Y-77540000D03*
X92000000Y-80080000D03*
X92000000Y-82620000D03*
X92000000Y-85160000D03*
X92000000Y-87700000D03*
X92000000Y-90240000D03*
X92000000Y-92780000D03*
X92000000Y-95320000D03*
X92000000Y-97860000D03*
D19*
X110370000Y-67830000D03*
X106370000Y-67830000D03*
X160500000Y-83820000D03*
X156500000Y-83820000D03*
X142272000Y-56388000D03*
X146272000Y-56388000D03*
X163580000Y-83860000D03*
X167580000Y-83860000D03*
X124746000Y-65532000D03*
X128746000Y-65532000D03*
D20*
X96500000Y-108360000D03*
X96500000Y-112360000D03*
X114610000Y-109650000D03*
X114610000Y-113650000D03*
X134060000Y-110770000D03*
X134060000Y-114770000D03*
X153160000Y-109900000D03*
X153160000Y-113900000D03*
X169740000Y-109670000D03*
X169740000Y-113670000D03*
D21*
X175800000Y-68326000D03*
X179800000Y-68326000D03*
X175800000Y-73660000D03*
X179800000Y-73660000D03*
D22*
X128100000Y-84000000D03*
X128100000Y-84500000D03*
X128100000Y-85000000D03*
X128100000Y-85500000D03*
X128100000Y-86000000D03*
X128100000Y-86500000D03*
X128100000Y-87000000D03*
X128100000Y-87500000D03*
X128100000Y-88000000D03*
X128100000Y-88500000D03*
X128100000Y-89000000D03*
X128100000Y-89500000D03*
X128100000Y-90000000D03*
X128100000Y-90500000D03*
X128100000Y-91000000D03*
X128100000Y-91500000D03*
X128100000Y-92000000D03*
X128100000Y-92500000D03*
X128100000Y-93000000D03*
X128100000Y-93500000D03*
X128100000Y-94000000D03*
X128100000Y-94500000D03*
X128100000Y-95000000D03*
X128100000Y-95500000D03*
X128100000Y-96000000D03*
D23*
X130000000Y-97900000D03*
X130500000Y-97900000D03*
X131000000Y-97900000D03*
X131500000Y-97900000D03*
X132000000Y-97900000D03*
X132500000Y-97900000D03*
X133000000Y-97900000D03*
X133500000Y-97900000D03*
X134000000Y-97900000D03*
X134500000Y-97900000D03*
X135000000Y-97900000D03*
X135500000Y-97900000D03*
X136000000Y-97900000D03*
X136500000Y-97900000D03*
X137000000Y-97900000D03*
X137500000Y-97900000D03*
X138000000Y-97900000D03*
X138500000Y-97900000D03*
X139000000Y-97900000D03*
X139500000Y-97900000D03*
X140000000Y-97900000D03*
X140500000Y-97900000D03*
X141000000Y-97900000D03*
X141500000Y-97900000D03*
X142000000Y-97900000D03*
D22*
X143900000Y-96000000D03*
X143900000Y-95500000D03*
X143900000Y-95000000D03*
X143900000Y-94500000D03*
X143900000Y-94000000D03*
X143900000Y-93500000D03*
X143900000Y-93000000D03*
X143900000Y-92500000D03*
X143900000Y-92000000D03*
X143900000Y-91500000D03*
X143900000Y-91000000D03*
X143900000Y-90500000D03*
X143900000Y-90000000D03*
X143900000Y-89500000D03*
X143900000Y-89000000D03*
X143900000Y-88500000D03*
X143900000Y-88000000D03*
X143900000Y-87500000D03*
X143900000Y-87000000D03*
X143900000Y-86500000D03*
X143900000Y-86000000D03*
X143900000Y-85500000D03*
X143900000Y-85000000D03*
X143900000Y-84500000D03*
X143900000Y-84000000D03*
D23*
X142000000Y-82100000D03*
X141500000Y-82100000D03*
X141000000Y-82100000D03*
X140500000Y-82100000D03*
X140000000Y-82100000D03*
X139500000Y-82100000D03*
X139000000Y-82100000D03*
X138500000Y-82100000D03*
X138000000Y-82100000D03*
X137500000Y-82100000D03*
X137000000Y-82100000D03*
X136500000Y-82100000D03*
X136000000Y-82100000D03*
X135500000Y-82100000D03*
X135000000Y-82100000D03*
X134500000Y-82100000D03*
X134000000Y-82100000D03*
X133500000Y-82100000D03*
X133000000Y-82100000D03*
X132500000Y-82100000D03*
X132000000Y-82100000D03*
X131500000Y-82100000D03*
X131000000Y-82100000D03*
X130500000Y-82100000D03*
X130000000Y-82100000D03*
D24*
X134984000Y-67691000D03*
X134984000Y-68961000D03*
X134984000Y-70231000D03*
X134984000Y-71501000D03*
X142384000Y-71501000D03*
X142384000Y-70231000D03*
X142384000Y-68961000D03*
X142384000Y-67691000D03*
D25*
X100340000Y-107435000D03*
X100340000Y-108085000D03*
X100340000Y-108735000D03*
X100340000Y-109385000D03*
X100340000Y-110035000D03*
X100340000Y-110685000D03*
X100340000Y-111335000D03*
X100340000Y-111985000D03*
X100340000Y-112635000D03*
X100340000Y-113285000D03*
X107540000Y-113285000D03*
X107540000Y-112635000D03*
X107540000Y-111985000D03*
X107540000Y-111335000D03*
X107540000Y-110685000D03*
X107540000Y-110035000D03*
X107540000Y-109385000D03*
X107540000Y-108735000D03*
X107540000Y-108085000D03*
X107540000Y-107435000D03*
X118610000Y-108665000D03*
X118610000Y-109315000D03*
X118610000Y-109965000D03*
X118610000Y-110615000D03*
X118610000Y-111265000D03*
X118610000Y-111915000D03*
X118610000Y-112565000D03*
X118610000Y-113215000D03*
X118610000Y-113865000D03*
X118610000Y-114515000D03*
X125810000Y-114515000D03*
X125810000Y-113865000D03*
X125810000Y-113215000D03*
X125810000Y-112565000D03*
X125810000Y-111915000D03*
X125810000Y-111265000D03*
X125810000Y-110615000D03*
X125810000Y-109965000D03*
X125810000Y-109315000D03*
X125810000Y-108665000D03*
X138730000Y-109895000D03*
X138730000Y-110545000D03*
X138730000Y-111195000D03*
X138730000Y-111845000D03*
X138730000Y-112495000D03*
X138730000Y-113145000D03*
X138730000Y-113795000D03*
X138730000Y-114445000D03*
X138730000Y-115095000D03*
X138730000Y-115745000D03*
X145930000Y-115745000D03*
X145930000Y-115095000D03*
X145930000Y-114445000D03*
X145930000Y-113795000D03*
X145930000Y-113145000D03*
X145930000Y-112495000D03*
X145930000Y-111845000D03*
X145930000Y-111195000D03*
X145930000Y-110545000D03*
X145930000Y-109895000D03*
X156920000Y-108825000D03*
X156920000Y-109475000D03*
X156920000Y-110125000D03*
X156920000Y-110775000D03*
X156920000Y-111425000D03*
X156920000Y-112075000D03*
X156920000Y-112725000D03*
X156920000Y-113375000D03*
X156920000Y-114025000D03*
X156920000Y-114675000D03*
X164120000Y-114675000D03*
X164120000Y-114025000D03*
X164120000Y-113375000D03*
X164120000Y-112725000D03*
X164120000Y-112075000D03*
X164120000Y-111425000D03*
X164120000Y-110775000D03*
X164120000Y-110125000D03*
X164120000Y-109475000D03*
X164120000Y-108825000D03*
X173840000Y-108735000D03*
X173840000Y-109385000D03*
X173840000Y-110035000D03*
X173840000Y-110685000D03*
X173840000Y-111335000D03*
X173840000Y-111985000D03*
X173840000Y-112635000D03*
X173840000Y-113285000D03*
X173840000Y-113935000D03*
X173840000Y-114585000D03*
X181040000Y-114585000D03*
X181040000Y-113935000D03*
X181040000Y-113285000D03*
X181040000Y-112635000D03*
X181040000Y-111985000D03*
X181040000Y-111335000D03*
X181040000Y-110685000D03*
X181040000Y-110035000D03*
X181040000Y-109385000D03*
X181040000Y-108735000D03*
D26*
X109350000Y-77470000D03*
X106810000Y-77470000D03*
X111890000Y-77470000D03*
D27*
X126750000Y-121750000D03*
X124000000Y-126150000D03*
X118800000Y-126200000D03*
X118800000Y-131650000D03*
X126700000Y-56750000D03*
X123950000Y-52350000D03*
X118750000Y-52300000D03*
X118750000Y-46850000D03*
X156850000Y-121750000D03*
X154100000Y-126150000D03*
X148900000Y-126200000D03*
X148900000Y-131650000D03*
X156800000Y-56750000D03*
X154050000Y-52350000D03*
X148850000Y-52300000D03*
X148850000Y-46850000D03*
X186950000Y-121750000D03*
X184200000Y-126150000D03*
X179000000Y-126200000D03*
X179000000Y-131650000D03*
X186900000Y-56750000D03*
X184150000Y-52350000D03*
X178950000Y-52300000D03*
X178950000Y-46850000D03*
D28*
X172366000Y-68326000D03*
X167486000Y-68326000D03*
X172620000Y-73660000D03*
X167740000Y-73660000D03*
X121312000Y-64770000D03*
X116432000Y-64770000D03*
X139092000Y-56388000D03*
X134212000Y-56388000D03*
D29*
X158340000Y-68072000D03*
X151540000Y-68072000D03*
X158086000Y-73152000D03*
X151286000Y-73152000D03*
D30*
X165100000Y-57404000D03*
X165100000Y-58674000D03*
X165100000Y-59944000D03*
X170688000Y-57404000D03*
X170688000Y-58674000D03*
X170688000Y-59944000D03*
X176022000Y-57404000D03*
X176022000Y-58674000D03*
X176022000Y-59944000D03*
M02*
