G04 #@! TF.GenerationSoftware,KiCad,Pcbnew,5.0.2-bee76a0~70~ubuntu18.10.1*
G04 #@! TF.CreationDate,2019-03-31T19:05:15-04:00*
G04 #@! TF.ProjectId,Helios,48656c69-6f73-42e6-9b69-6361645f7063,rev?*
G04 #@! TF.SameCoordinates,Original*
G04 #@! TF.FileFunction,Profile,NP*
%FSLAX46Y46*%
G04 Gerber Fmt 4.6, Leading zero omitted, Abs format (unit mm)*
G04 Created by KiCad (PCBNEW 5.0.2-bee76a0~70~ubuntu18.10.1) date Sun 31 Mar 2019 07:05:15 PM EDT*
%MOMM*%
%LPD*%
G01*
G04 APERTURE LIST*
%ADD10C,0.200000*%
G04 APERTURE END LIST*
D10*
X188086372Y-89215474D02*
X188086372Y-76365476D01*
X186573341Y-102005933D02*
X188086372Y-101455235D01*
X186432537Y-102065471D02*
G75*
G02X186573342Y-102005932I653835J-1350000D01*
G01*
X185586372Y-103415471D02*
G75*
G02X186432537Y-102065471I1500000J0D01*
G01*
X138474769Y-128062959D02*
X141902259Y-126143468D01*
X111802262Y-126143474D02*
G75*
G02X113843938Y-126719286I732932J-1308744D01*
G01*
X89086372Y-89215474D02*
X89086372Y-125865476D01*
X89086372Y-127665475D02*
X89086372Y-125865476D01*
X89086372Y-131215474D02*
X89086372Y-127665475D01*
X91680100Y-50765471D02*
G75*
G02X91680100Y-52565471I-793725J-900000D01*
G01*
X91680100Y-52565471D02*
G75*
G02X90886375Y-52865471I-793725J900000D01*
G01*
X90886375Y-50465471D02*
G75*
G02X91680100Y-50765471I0J-1200000D01*
G01*
X89086372Y-50465474D02*
X90886375Y-50465474D01*
X89086372Y-50465474D02*
X89086372Y-47215474D01*
X135539787Y-51515611D02*
G75*
G02X133498110Y-52091424I-1308745J732932D01*
G01*
X165639798Y-51515613D02*
G75*
G02X163598122Y-52091427I-1308745J732931D01*
G01*
X165855204Y-51130977D02*
X165639796Y-51515621D01*
X188086371Y-58397786D02*
G75*
G02X188147418Y-57974214I1500001J0D01*
G01*
X113843938Y-51711666D02*
G75*
G02X111802262Y-52287478I-1308744J732932D01*
G01*
X138474769Y-50367986D02*
X141902259Y-52287480D01*
X143943944Y-51711666D02*
G75*
G02X141902268Y-52287478I-1308744J732932D01*
G01*
X168574775Y-50367986D02*
X172002265Y-52287480D01*
X174043935Y-51711666D02*
G75*
G02X172002259Y-52287478I-1308744J732932D01*
G01*
X187954724Y-55575996D02*
G75*
G02X187663044Y-55397619I631648J1360522D01*
G01*
X187663045Y-55397619D02*
G75*
G02X187108298Y-54471009I923327J1182145D01*
G01*
X187108298Y-54471009D02*
G75*
G02X187086372Y-54215474I1478074J255535D01*
G01*
X187954724Y-55575994D02*
G75*
G02X188309782Y-55871562I-378988J-816314D01*
G01*
X188575300Y-56921390D02*
G75*
G02X188336372Y-57568632I-1488928J181914D01*
G01*
X188309782Y-55871566D02*
G75*
G02X188575300Y-56921391I-1223410J-867910D01*
G01*
X182276765Y-45215474D02*
G75*
G02X180810903Y-44832963I0J3000000D01*
G01*
X180687722Y-133597986D02*
G75*
G02X182153585Y-133215474I1465863J-2617488D01*
G01*
X106629790Y-129040209D02*
X105729723Y-127225909D01*
X106629789Y-49390738D02*
X105729725Y-51205033D01*
X135755198Y-51130977D02*
X135539786Y-51515611D01*
X108374778Y-128062959D02*
X106629790Y-129040209D01*
X138474769Y-128062959D02*
X136729777Y-129040201D01*
X168574775Y-128062959D02*
X166829783Y-129040201D01*
X168574775Y-50367986D02*
X166829783Y-49390743D01*
X138474769Y-50367986D02*
X136729777Y-49390743D01*
X108374778Y-50367986D02*
X106629789Y-49390738D01*
X166829783Y-129040201D02*
X165855204Y-127299963D01*
X166829783Y-49390743D02*
X165855204Y-51130977D01*
X136729777Y-49390743D02*
X135755198Y-51130977D01*
X136729777Y-129040201D02*
X135755198Y-127299963D01*
X118374492Y-134809155D02*
X113843940Y-126719289D01*
X108374778Y-128062959D02*
X111802268Y-126143468D01*
X105436426Y-126899345D02*
G75*
G02X105729723Y-127225909I-579199J-815186D01*
G01*
X148474487Y-134809162D02*
X143943931Y-126719289D01*
X178550861Y-134766964D02*
X174043937Y-126719289D01*
X182153585Y-133215474D02*
X182234931Y-133215474D01*
X182276765Y-45215474D02*
X182234931Y-45215474D01*
X178592088Y-43590368D02*
X174043937Y-51711659D01*
X151320208Y-45215474D02*
X151320213Y-45215474D01*
X148474483Y-43621793D02*
X143943931Y-51711659D01*
X118374496Y-43621786D02*
X121840415Y-45562810D01*
X105729725Y-51205034D02*
G75*
G02X105436428Y-51531598I-872496J488622D01*
G01*
X108374778Y-50367986D02*
X111802268Y-52287480D01*
X118374496Y-43621786D02*
X113843940Y-51711659D01*
X104577398Y-126754481D02*
G75*
G02X105436427Y-126899345I279829J-960050D01*
G01*
X101282951Y-127714723D02*
X104577399Y-126754481D01*
X100969758Y-127846054D02*
G75*
G02X101282946Y-127714723I732932J-1308744D01*
G01*
X100969749Y-127846055D02*
X94953224Y-131215474D01*
X94736381Y-131215474D02*
X94953224Y-131215474D01*
X94736381Y-47215474D02*
X94953224Y-47215474D01*
X100969749Y-50584889D02*
X94953224Y-47215474D01*
X101282946Y-50716233D02*
G75*
G02X100969758Y-50584902I419744J1440075D01*
G01*
X101282951Y-50716222D02*
X104577401Y-51676462D01*
X105436428Y-51531598D02*
G75*
G02X104577400Y-51676462I-579199J815186D01*
G01*
X121840415Y-45562810D02*
X133498111Y-52091424D01*
X148474483Y-43621793D02*
X163598122Y-52091427D01*
X178592088Y-43590368D02*
X180810903Y-44832963D01*
X148474487Y-134809162D02*
X163598125Y-126339521D01*
X178562679Y-134788066D02*
X180687721Y-133597986D01*
X118374492Y-134809155D02*
X133498119Y-126339521D01*
X187086372Y-114215474D02*
G75*
G02X185586372Y-112715474I0J1500000D01*
G01*
X188086372Y-114215474D02*
X187086372Y-114215474D01*
X188086372Y-114215474D02*
X188086372Y-117715474D01*
X188086372Y-120033162D02*
X188086372Y-117715474D01*
X188147419Y-120456734D02*
G75*
G02X188086372Y-120033162I1438953J423572D01*
G01*
X188336372Y-120862319D02*
G75*
G02X188147419Y-120456734I1250000J829157D01*
G01*
X188336372Y-120862316D02*
G75*
G02X188575300Y-121509557I-1250000J-829156D01*
G01*
X188575300Y-121509557D02*
G75*
G02X188309782Y-122559382I-1488928J-181915D01*
G01*
X188309782Y-122559386D02*
G75*
G02X187954724Y-122854954I-734046J520746D01*
G01*
X187108298Y-123959939D02*
G75*
G02X187663044Y-123033329I1478074J-255535D01*
G01*
X187663045Y-123033329D02*
G75*
G02X187954725Y-122854951I923327J-1182145D01*
G01*
X187086372Y-124215474D02*
G75*
G02X187108298Y-123959939I1500000J0D01*
G01*
X172002259Y-126143474D02*
G75*
G02X174043935Y-126719286I732932J-1308744D01*
G01*
X168574775Y-128062959D02*
X172002265Y-126143468D01*
X141902268Y-126143474D02*
G75*
G02X143943944Y-126719286I732932J-1308744D01*
G01*
X187086372Y-45215474D02*
X187086372Y-54215474D01*
X182234931Y-45215474D02*
X187086372Y-45215474D01*
X187086372Y-124215474D02*
X187086372Y-133215474D01*
X182234931Y-133215474D02*
X187086372Y-133215474D01*
X89086372Y-131215474D02*
X94736381Y-131215474D01*
X89086372Y-89215474D02*
X89086372Y-52865483D01*
X89086372Y-52865483D02*
X90886375Y-52865483D01*
X94736381Y-47215474D02*
X89086372Y-47215474D01*
X188147418Y-57974215D02*
G75*
G02X188336372Y-57568630I1438954J-423571D01*
G01*
X188086372Y-58397786D02*
X188086372Y-70515477D01*
X185886375Y-70515477D02*
X188086372Y-70515477D01*
X185886375Y-72915474D02*
G75*
G02X185886375Y-70515474I0J1200000D01*
G01*
X187686378Y-72915471D02*
X185886375Y-72915471D01*
X187686378Y-72915471D02*
X188086372Y-73608296D01*
X188086372Y-73608296D02*
X188086372Y-76365476D01*
X165855209Y-127299969D02*
X165639801Y-126915333D01*
X163598125Y-126339521D02*
G75*
G02X165639801Y-126915333I732932J-1308744D01*
G01*
X135755203Y-127299969D02*
X135539795Y-126915333D01*
X133498119Y-126339521D02*
G75*
G02X135539795Y-126915333I732932J-1308744D01*
G01*
X185586372Y-103715474D02*
X185586372Y-103415471D01*
X185586372Y-112715474D02*
X185586372Y-103715474D01*
X188086372Y-89215474D02*
X188086372Y-101455235D01*
M02*
