G04 #@! TF.GenerationSoftware,KiCad,Pcbnew,5.0.2-bee76a0~70~ubuntu18.10.1*
G04 #@! TF.CreationDate,2019-09-10T08:14:00-04:00*
G04 #@! TF.ProjectId,Helios,48656c69-6f73-42e6-9b69-6361645f7063,rev?*
G04 #@! TF.SameCoordinates,Original*
G04 #@! TF.FileFunction,Soldermask,Bot*
G04 #@! TF.FilePolarity,Negative*
%FSLAX46Y46*%
G04 Gerber Fmt 4.6, Leading zero omitted, Abs format (unit mm)*
G04 Created by KiCad (PCBNEW 5.0.2-bee76a0~70~ubuntu18.10.1) date Tue 10 Sep 2019 08:14:00 AM EDT*
%MOMM*%
%LPD*%
G01*
G04 APERTURE LIST*
%ADD10C,0.100000*%
G04 APERTURE END LIST*
D10*
G36*
X179182603Y-130768968D02*
X179182606Y-130768969D01*
X179182605Y-130768969D01*
X179357678Y-130841486D01*
X179357679Y-130841487D01*
X179515241Y-130946767D01*
X179649233Y-131080759D01*
X179649234Y-131080761D01*
X179754514Y-131238322D01*
X179810603Y-131373734D01*
X179827032Y-131413397D01*
X179864000Y-131599250D01*
X179864000Y-131788750D01*
X179827032Y-131974603D01*
X179827031Y-131974605D01*
X179754514Y-132149678D01*
X179754513Y-132149679D01*
X179649233Y-132307241D01*
X179515241Y-132441233D01*
X179435923Y-132494232D01*
X179357678Y-132546514D01*
X179222266Y-132602603D01*
X179182603Y-132619032D01*
X178996750Y-132656000D01*
X178807250Y-132656000D01*
X178621397Y-132619032D01*
X178581734Y-132602603D01*
X178446322Y-132546514D01*
X178368077Y-132494232D01*
X178288759Y-132441233D01*
X178154767Y-132307241D01*
X178049487Y-132149679D01*
X178049486Y-132149678D01*
X177976969Y-131974605D01*
X177976968Y-131974603D01*
X177940000Y-131788750D01*
X177940000Y-131599250D01*
X177976968Y-131413397D01*
X177993397Y-131373734D01*
X178049486Y-131238322D01*
X178154766Y-131080761D01*
X178154767Y-131080759D01*
X178288759Y-130946767D01*
X178446321Y-130841487D01*
X178446322Y-130841486D01*
X178621395Y-130768969D01*
X178621394Y-130768969D01*
X178621397Y-130768968D01*
X178807250Y-130732000D01*
X178996750Y-130732000D01*
X179182603Y-130768968D01*
X179182603Y-130768968D01*
G37*
G36*
X149205603Y-130753968D02*
X149205606Y-130753969D01*
X149205605Y-130753969D01*
X149380678Y-130826486D01*
X149403128Y-130841487D01*
X149538241Y-130931767D01*
X149672233Y-131065759D01*
X149682257Y-131080761D01*
X149777514Y-131223322D01*
X149783727Y-131238322D01*
X149850032Y-131398397D01*
X149887000Y-131584250D01*
X149887000Y-131773750D01*
X149850032Y-131959603D01*
X149850031Y-131959605D01*
X149777514Y-132134678D01*
X149725232Y-132212923D01*
X149672233Y-132292241D01*
X149538241Y-132426233D01*
X149458923Y-132479232D01*
X149380678Y-132531514D01*
X149253890Y-132584031D01*
X149205603Y-132604032D01*
X149019750Y-132641000D01*
X148830250Y-132641000D01*
X148644397Y-132604032D01*
X148596110Y-132584031D01*
X148469322Y-132531514D01*
X148391077Y-132479232D01*
X148311759Y-132426233D01*
X148177767Y-132292241D01*
X148124768Y-132212923D01*
X148072486Y-132134678D01*
X147999969Y-131959605D01*
X147999968Y-131959603D01*
X147963000Y-131773750D01*
X147963000Y-131584250D01*
X147999968Y-131398397D01*
X148066273Y-131238322D01*
X148072486Y-131223322D01*
X148167743Y-131080761D01*
X148177767Y-131065759D01*
X148311759Y-130931767D01*
X148446872Y-130841487D01*
X148469322Y-130826486D01*
X148644395Y-130753969D01*
X148644394Y-130753969D01*
X148644397Y-130753968D01*
X148830250Y-130717000D01*
X149019750Y-130717000D01*
X149205603Y-130753968D01*
X149205603Y-130753968D01*
G37*
G36*
X119015603Y-130733968D02*
X119015606Y-130733969D01*
X119015605Y-130733969D01*
X119190678Y-130806486D01*
X119243060Y-130841487D01*
X119348241Y-130911767D01*
X119482233Y-131045759D01*
X119535232Y-131125077D01*
X119587514Y-131203322D01*
X119595798Y-131223322D01*
X119660032Y-131378397D01*
X119697000Y-131564250D01*
X119697000Y-131753750D01*
X119660032Y-131939603D01*
X119660031Y-131939605D01*
X119587514Y-132114678D01*
X119564127Y-132149679D01*
X119482233Y-132272241D01*
X119348241Y-132406233D01*
X119268923Y-132459232D01*
X119190678Y-132511514D01*
X119055266Y-132567603D01*
X119015603Y-132584032D01*
X118829750Y-132621000D01*
X118640250Y-132621000D01*
X118454397Y-132584032D01*
X118414734Y-132567603D01*
X118279322Y-132511514D01*
X118201077Y-132459232D01*
X118121759Y-132406233D01*
X117987767Y-132272241D01*
X117905873Y-132149679D01*
X117882486Y-132114678D01*
X117809969Y-131939605D01*
X117809968Y-131939603D01*
X117773000Y-131753750D01*
X117773000Y-131564250D01*
X117809968Y-131378397D01*
X117874202Y-131223322D01*
X117882486Y-131203322D01*
X117934768Y-131125077D01*
X117987767Y-131045759D01*
X118121759Y-130911767D01*
X118226940Y-130841487D01*
X118279322Y-130806486D01*
X118454395Y-130733969D01*
X118454394Y-130733969D01*
X118454397Y-130733968D01*
X118640250Y-130697000D01*
X118829750Y-130697000D01*
X119015603Y-130733968D01*
X119015603Y-130733968D01*
G37*
G36*
X179182603Y-125318968D02*
X179182606Y-125318969D01*
X179182605Y-125318969D01*
X179357678Y-125391486D01*
X179357679Y-125391487D01*
X179515241Y-125496767D01*
X179649233Y-125630759D01*
X179649234Y-125630761D01*
X179754514Y-125788322D01*
X179791823Y-125878395D01*
X179827032Y-125963397D01*
X179864000Y-126149250D01*
X179864000Y-126338750D01*
X179827032Y-126524603D01*
X179827031Y-126524605D01*
X179754514Y-126699678D01*
X179754513Y-126699679D01*
X179649233Y-126857241D01*
X179515241Y-126991233D01*
X179484890Y-127011513D01*
X179357678Y-127096514D01*
X179250278Y-127141000D01*
X179182603Y-127169032D01*
X178996750Y-127206000D01*
X178807250Y-127206000D01*
X178621397Y-127169032D01*
X178553722Y-127141000D01*
X178446322Y-127096514D01*
X178319110Y-127011513D01*
X178288759Y-126991233D01*
X178154767Y-126857241D01*
X178049487Y-126699679D01*
X178049486Y-126699678D01*
X177976969Y-126524605D01*
X177976968Y-126524603D01*
X177940000Y-126338750D01*
X177940000Y-126149250D01*
X177976968Y-125963397D01*
X178012177Y-125878395D01*
X178049486Y-125788322D01*
X178154766Y-125630761D01*
X178154767Y-125630759D01*
X178288759Y-125496767D01*
X178446321Y-125391487D01*
X178446322Y-125391486D01*
X178621395Y-125318969D01*
X178621394Y-125318969D01*
X178621397Y-125318968D01*
X178807250Y-125282000D01*
X178996750Y-125282000D01*
X179182603Y-125318968D01*
X179182603Y-125318968D01*
G37*
G36*
X149205603Y-125303968D02*
X149205606Y-125303969D01*
X149205605Y-125303969D01*
X149380678Y-125376486D01*
X149403128Y-125391487D01*
X149538241Y-125481767D01*
X149672233Y-125615759D01*
X149682257Y-125630761D01*
X149777514Y-125773322D01*
X149783727Y-125788322D01*
X149850032Y-125948397D01*
X149887000Y-126134250D01*
X149887000Y-126323750D01*
X149850032Y-126509603D01*
X149850031Y-126509605D01*
X149777514Y-126684678D01*
X149725232Y-126762923D01*
X149672233Y-126842241D01*
X149538241Y-126976233D01*
X149485441Y-127011513D01*
X149380678Y-127081514D01*
X149253890Y-127134031D01*
X149205603Y-127154032D01*
X149019750Y-127191000D01*
X148830250Y-127191000D01*
X148644397Y-127154032D01*
X148596110Y-127134031D01*
X148469322Y-127081514D01*
X148364559Y-127011513D01*
X148311759Y-126976233D01*
X148177767Y-126842241D01*
X148124768Y-126762923D01*
X148072486Y-126684678D01*
X147999969Y-126509605D01*
X147999968Y-126509603D01*
X147963000Y-126323750D01*
X147963000Y-126134250D01*
X147999968Y-125948397D01*
X148066273Y-125788322D01*
X148072486Y-125773322D01*
X148167743Y-125630761D01*
X148177767Y-125615759D01*
X148311759Y-125481767D01*
X148446872Y-125391487D01*
X148469322Y-125376486D01*
X148644395Y-125303969D01*
X148644394Y-125303969D01*
X148644397Y-125303968D01*
X148830250Y-125267000D01*
X149019750Y-125267000D01*
X149205603Y-125303968D01*
X149205603Y-125303968D01*
G37*
G36*
X119015603Y-125283968D02*
X119015606Y-125283969D01*
X119015605Y-125283969D01*
X119190678Y-125356486D01*
X119243060Y-125391487D01*
X119348241Y-125461767D01*
X119482233Y-125595759D01*
X119535232Y-125675077D01*
X119587514Y-125753322D01*
X119595798Y-125773322D01*
X119660032Y-125928397D01*
X119697000Y-126114250D01*
X119697000Y-126303750D01*
X119660032Y-126489603D01*
X119660031Y-126489605D01*
X119587514Y-126664678D01*
X119564127Y-126699679D01*
X119482233Y-126822241D01*
X119348241Y-126956233D01*
X119268923Y-127009232D01*
X119190678Y-127061514D01*
X119055266Y-127117603D01*
X119015603Y-127134032D01*
X118829750Y-127171000D01*
X118640250Y-127171000D01*
X118454397Y-127134032D01*
X118414734Y-127117603D01*
X118279322Y-127061514D01*
X118201077Y-127009232D01*
X118121759Y-126956233D01*
X117987767Y-126822241D01*
X117905873Y-126699679D01*
X117882486Y-126664678D01*
X117809969Y-126489605D01*
X117809968Y-126489603D01*
X117773000Y-126303750D01*
X117773000Y-126114250D01*
X117809968Y-125928397D01*
X117874202Y-125773322D01*
X117882486Y-125753322D01*
X117934768Y-125675077D01*
X117987767Y-125595759D01*
X118121759Y-125461767D01*
X118226940Y-125391487D01*
X118279322Y-125356486D01*
X118454395Y-125283969D01*
X118454394Y-125283969D01*
X118454397Y-125283968D01*
X118640250Y-125247000D01*
X118829750Y-125247000D01*
X119015603Y-125283968D01*
X119015603Y-125283968D01*
G37*
G36*
X184382603Y-125268968D02*
X184382606Y-125268969D01*
X184382605Y-125268969D01*
X184557678Y-125341486D01*
X184632509Y-125391487D01*
X184715241Y-125446767D01*
X184849233Y-125580759D01*
X184882642Y-125630759D01*
X184954514Y-125738322D01*
X185010603Y-125873734D01*
X185027032Y-125913397D01*
X185064000Y-126099250D01*
X185064000Y-126288750D01*
X185027032Y-126474603D01*
X185027031Y-126474605D01*
X184954514Y-126649678D01*
X184931127Y-126684679D01*
X184849233Y-126807241D01*
X184715241Y-126941233D01*
X184635923Y-126994232D01*
X184557678Y-127046514D01*
X184436969Y-127096513D01*
X184382603Y-127119032D01*
X184196750Y-127156000D01*
X184007250Y-127156000D01*
X183821397Y-127119032D01*
X183767031Y-127096513D01*
X183646322Y-127046514D01*
X183568077Y-126994232D01*
X183488759Y-126941233D01*
X183354767Y-126807241D01*
X183272873Y-126684679D01*
X183249486Y-126649678D01*
X183176969Y-126474605D01*
X183176968Y-126474603D01*
X183140000Y-126288750D01*
X183140000Y-126099250D01*
X183176968Y-125913397D01*
X183193397Y-125873734D01*
X183249486Y-125738322D01*
X183321358Y-125630759D01*
X183354767Y-125580759D01*
X183488759Y-125446767D01*
X183571491Y-125391487D01*
X183646322Y-125341486D01*
X183821395Y-125268969D01*
X183821394Y-125268969D01*
X183821397Y-125268968D01*
X184007250Y-125232000D01*
X184196750Y-125232000D01*
X184382603Y-125268968D01*
X184382603Y-125268968D01*
G37*
G36*
X154405603Y-125253968D02*
X154405606Y-125253969D01*
X154405605Y-125253969D01*
X154580678Y-125326486D01*
X154655509Y-125376487D01*
X154738241Y-125431767D01*
X154872233Y-125565759D01*
X154882257Y-125580761D01*
X154977514Y-125723322D01*
X155033603Y-125858734D01*
X155050032Y-125898397D01*
X155087000Y-126084250D01*
X155087000Y-126273750D01*
X155050032Y-126459603D01*
X155050031Y-126459605D01*
X154977514Y-126634678D01*
X154957468Y-126664678D01*
X154872233Y-126792241D01*
X154738241Y-126926233D01*
X154658923Y-126979232D01*
X154580678Y-127031514D01*
X154459969Y-127081513D01*
X154405603Y-127104032D01*
X154219750Y-127141000D01*
X154030250Y-127141000D01*
X153844397Y-127104032D01*
X153790031Y-127081513D01*
X153669322Y-127031514D01*
X153591077Y-126979232D01*
X153511759Y-126926233D01*
X153377767Y-126792241D01*
X153292532Y-126664678D01*
X153272486Y-126634678D01*
X153199969Y-126459605D01*
X153199968Y-126459603D01*
X153163000Y-126273750D01*
X153163000Y-126084250D01*
X153199968Y-125898397D01*
X153216397Y-125858734D01*
X153272486Y-125723322D01*
X153367743Y-125580761D01*
X153377767Y-125565759D01*
X153511759Y-125431767D01*
X153594491Y-125376487D01*
X153669322Y-125326486D01*
X153844395Y-125253969D01*
X153844394Y-125253969D01*
X153844397Y-125253968D01*
X154030250Y-125217000D01*
X154219750Y-125217000D01*
X154405603Y-125253968D01*
X154405603Y-125253968D01*
G37*
G36*
X124215603Y-125233968D02*
X124215606Y-125233969D01*
X124215605Y-125233969D01*
X124390678Y-125306486D01*
X124465509Y-125356487D01*
X124548241Y-125411767D01*
X124682233Y-125545759D01*
X124715642Y-125595759D01*
X124787514Y-125703322D01*
X124822721Y-125788321D01*
X124860032Y-125878397D01*
X124897000Y-126064250D01*
X124897000Y-126253750D01*
X124860032Y-126439603D01*
X124860031Y-126439605D01*
X124787514Y-126614678D01*
X124764127Y-126649679D01*
X124682233Y-126772241D01*
X124548241Y-126906233D01*
X124468923Y-126959232D01*
X124390678Y-127011514D01*
X124269969Y-127061513D01*
X124215603Y-127084032D01*
X124029750Y-127121000D01*
X123840250Y-127121000D01*
X123654397Y-127084032D01*
X123600031Y-127061513D01*
X123479322Y-127011514D01*
X123401077Y-126959232D01*
X123321759Y-126906233D01*
X123187767Y-126772241D01*
X123105873Y-126649679D01*
X123082486Y-126614678D01*
X123009969Y-126439605D01*
X123009968Y-126439603D01*
X122973000Y-126253750D01*
X122973000Y-126064250D01*
X123009968Y-125878397D01*
X123047279Y-125788321D01*
X123082486Y-125703322D01*
X123154358Y-125595759D01*
X123187767Y-125545759D01*
X123321759Y-125411767D01*
X123404491Y-125356487D01*
X123479322Y-125306486D01*
X123654395Y-125233969D01*
X123654394Y-125233969D01*
X123654397Y-125233968D01*
X123840250Y-125197000D01*
X124029750Y-125197000D01*
X124215603Y-125233968D01*
X124215603Y-125233968D01*
G37*
G36*
X187132603Y-120868968D02*
X187132606Y-120868969D01*
X187132605Y-120868969D01*
X187307678Y-120941486D01*
X187307679Y-120941487D01*
X187465241Y-121046767D01*
X187599233Y-121180759D01*
X187599234Y-121180761D01*
X187704514Y-121338322D01*
X187760603Y-121473734D01*
X187777032Y-121513397D01*
X187814000Y-121699250D01*
X187814000Y-121888750D01*
X187777032Y-122074603D01*
X187777031Y-122074605D01*
X187704514Y-122249678D01*
X187704513Y-122249679D01*
X187599233Y-122407241D01*
X187465241Y-122541233D01*
X187385923Y-122594232D01*
X187307678Y-122646514D01*
X187172266Y-122702603D01*
X187132603Y-122719032D01*
X186946750Y-122756000D01*
X186757250Y-122756000D01*
X186571397Y-122719032D01*
X186531734Y-122702603D01*
X186396322Y-122646514D01*
X186318077Y-122594232D01*
X186238759Y-122541233D01*
X186104767Y-122407241D01*
X185999487Y-122249679D01*
X185999486Y-122249678D01*
X185926969Y-122074605D01*
X185926968Y-122074603D01*
X185890000Y-121888750D01*
X185890000Y-121699250D01*
X185926968Y-121513397D01*
X185943397Y-121473734D01*
X185999486Y-121338322D01*
X186104766Y-121180761D01*
X186104767Y-121180759D01*
X186238759Y-121046767D01*
X186396321Y-120941487D01*
X186396322Y-120941486D01*
X186571395Y-120868969D01*
X186571394Y-120868969D01*
X186571397Y-120868968D01*
X186757250Y-120832000D01*
X186946750Y-120832000D01*
X187132603Y-120868968D01*
X187132603Y-120868968D01*
G37*
G36*
X157155603Y-120853968D02*
X157155606Y-120853969D01*
X157155605Y-120853969D01*
X157330678Y-120926486D01*
X157353128Y-120941487D01*
X157488241Y-121031767D01*
X157622233Y-121165759D01*
X157632257Y-121180761D01*
X157727514Y-121323322D01*
X157733727Y-121338322D01*
X157800032Y-121498397D01*
X157837000Y-121684250D01*
X157837000Y-121873750D01*
X157800032Y-122059603D01*
X157800031Y-122059605D01*
X157727514Y-122234678D01*
X157675232Y-122312923D01*
X157622233Y-122392241D01*
X157488241Y-122526233D01*
X157408923Y-122579232D01*
X157330678Y-122631514D01*
X157203890Y-122684031D01*
X157155603Y-122704032D01*
X156969750Y-122741000D01*
X156780250Y-122741000D01*
X156594397Y-122704032D01*
X156546110Y-122684031D01*
X156419322Y-122631514D01*
X156341077Y-122579232D01*
X156261759Y-122526233D01*
X156127767Y-122392241D01*
X156074768Y-122312923D01*
X156022486Y-122234678D01*
X155949969Y-122059605D01*
X155949968Y-122059603D01*
X155913000Y-121873750D01*
X155913000Y-121684250D01*
X155949968Y-121498397D01*
X156016273Y-121338322D01*
X156022486Y-121323322D01*
X156117743Y-121180761D01*
X156127767Y-121165759D01*
X156261759Y-121031767D01*
X156396872Y-120941487D01*
X156419322Y-120926486D01*
X156594395Y-120853969D01*
X156594394Y-120853969D01*
X156594397Y-120853968D01*
X156780250Y-120817000D01*
X156969750Y-120817000D01*
X157155603Y-120853968D01*
X157155603Y-120853968D01*
G37*
G36*
X126965603Y-120833968D02*
X126965606Y-120833969D01*
X126965605Y-120833969D01*
X127140678Y-120906486D01*
X127193060Y-120941487D01*
X127298241Y-121011767D01*
X127432233Y-121145759D01*
X127485232Y-121225077D01*
X127537514Y-121303322D01*
X127545798Y-121323322D01*
X127610032Y-121478397D01*
X127647000Y-121664250D01*
X127647000Y-121853750D01*
X127610032Y-122039603D01*
X127610031Y-122039605D01*
X127537514Y-122214678D01*
X127514127Y-122249679D01*
X127432233Y-122372241D01*
X127298241Y-122506233D01*
X127218923Y-122559232D01*
X127140678Y-122611514D01*
X127005266Y-122667603D01*
X126965603Y-122684032D01*
X126779750Y-122721000D01*
X126590250Y-122721000D01*
X126404397Y-122684032D01*
X126364734Y-122667603D01*
X126229322Y-122611514D01*
X126151077Y-122559232D01*
X126071759Y-122506233D01*
X125937767Y-122372241D01*
X125855873Y-122249679D01*
X125832486Y-122214678D01*
X125759969Y-122039605D01*
X125759968Y-122039603D01*
X125723000Y-121853750D01*
X125723000Y-121664250D01*
X125759968Y-121478397D01*
X125824202Y-121323322D01*
X125832486Y-121303322D01*
X125884768Y-121225077D01*
X125937767Y-121145759D01*
X126071759Y-121011767D01*
X126176940Y-120941487D01*
X126229322Y-120906486D01*
X126404395Y-120833969D01*
X126404394Y-120833969D01*
X126404397Y-120833968D01*
X126590250Y-120797000D01*
X126779750Y-120797000D01*
X126965603Y-120833968D01*
X126965603Y-120833968D01*
G37*
G36*
X103157430Y-96794269D02*
X103157433Y-96794270D01*
X103157434Y-96794270D01*
X103345935Y-96851451D01*
X103345937Y-96851452D01*
X103519660Y-96944309D01*
X103671928Y-97069272D01*
X103796891Y-97221540D01*
X103889748Y-97395263D01*
X103946931Y-97583770D01*
X103966238Y-97779800D01*
X103946931Y-97975830D01*
X103889748Y-98164337D01*
X103796891Y-98338060D01*
X103671928Y-98490328D01*
X103519660Y-98615291D01*
X103519658Y-98615292D01*
X103345935Y-98708149D01*
X103157434Y-98765330D01*
X103157433Y-98765330D01*
X103157430Y-98765331D01*
X103010524Y-98779800D01*
X102912276Y-98779800D01*
X102765370Y-98765331D01*
X102765367Y-98765330D01*
X102765366Y-98765330D01*
X102576865Y-98708149D01*
X102403142Y-98615292D01*
X102403140Y-98615291D01*
X102250872Y-98490328D01*
X102125909Y-98338060D01*
X102033052Y-98164337D01*
X101975869Y-97975830D01*
X101956562Y-97779800D01*
X101975869Y-97583770D01*
X102033052Y-97395263D01*
X102125909Y-97221540D01*
X102250872Y-97069272D01*
X102403140Y-96944309D01*
X102576863Y-96851452D01*
X102576865Y-96851451D01*
X102765366Y-96794270D01*
X102765367Y-96794270D01*
X102765370Y-96794269D01*
X102912276Y-96779800D01*
X103010524Y-96779800D01*
X103157430Y-96794269D01*
X103157430Y-96794269D01*
G37*
G36*
X95537430Y-96794269D02*
X95537433Y-96794270D01*
X95537434Y-96794270D01*
X95725935Y-96851451D01*
X95725937Y-96851452D01*
X95899660Y-96944309D01*
X96051928Y-97069272D01*
X96176891Y-97221540D01*
X96269748Y-97395263D01*
X96326931Y-97583770D01*
X96346238Y-97779800D01*
X96326931Y-97975830D01*
X96269748Y-98164337D01*
X96176891Y-98338060D01*
X96051928Y-98490328D01*
X95899660Y-98615291D01*
X95899658Y-98615292D01*
X95725935Y-98708149D01*
X95537434Y-98765330D01*
X95537433Y-98765330D01*
X95537430Y-98765331D01*
X95390524Y-98779800D01*
X95292276Y-98779800D01*
X95145370Y-98765331D01*
X95145367Y-98765330D01*
X95145366Y-98765330D01*
X94956865Y-98708149D01*
X94783142Y-98615292D01*
X94783140Y-98615291D01*
X94630872Y-98490328D01*
X94505909Y-98338060D01*
X94413052Y-98164337D01*
X94355869Y-97975830D01*
X94336562Y-97779800D01*
X94355869Y-97583770D01*
X94413052Y-97395263D01*
X94505909Y-97221540D01*
X94630872Y-97069272D01*
X94783140Y-96944309D01*
X94956863Y-96851452D01*
X94956865Y-96851451D01*
X95145366Y-96794270D01*
X95145367Y-96794270D01*
X95145370Y-96794269D01*
X95292276Y-96779800D01*
X95390524Y-96779800D01*
X95537430Y-96794269D01*
X95537430Y-96794269D01*
G37*
G36*
X162835707Y-96346296D02*
X162912836Y-96353893D01*
X163044787Y-96393920D01*
X163110763Y-96413933D01*
X163293172Y-96511433D01*
X163453054Y-96642646D01*
X163584267Y-96802528D01*
X163681767Y-96984937D01*
X163681767Y-96984938D01*
X163741807Y-97182864D01*
X163762080Y-97388700D01*
X163741807Y-97594536D01*
X163701780Y-97726487D01*
X163681767Y-97792463D01*
X163584267Y-97974872D01*
X163453054Y-98134754D01*
X163293172Y-98265967D01*
X163110763Y-98363467D01*
X163044787Y-98383480D01*
X162912836Y-98423507D01*
X162835707Y-98431103D01*
X162758580Y-98438700D01*
X162655420Y-98438700D01*
X162578293Y-98431103D01*
X162501164Y-98423507D01*
X162369213Y-98383480D01*
X162303237Y-98363467D01*
X162120828Y-98265967D01*
X161960946Y-98134754D01*
X161829733Y-97974872D01*
X161732233Y-97792463D01*
X161712220Y-97726487D01*
X161672193Y-97594536D01*
X161651920Y-97388700D01*
X161672193Y-97182864D01*
X161732233Y-96984938D01*
X161732233Y-96984937D01*
X161829733Y-96802528D01*
X161960946Y-96642646D01*
X162120828Y-96511433D01*
X162303237Y-96413933D01*
X162369213Y-96393920D01*
X162501164Y-96353893D01*
X162578293Y-96346297D01*
X162655420Y-96338700D01*
X162758580Y-96338700D01*
X162835707Y-96346296D01*
X162835707Y-96346296D01*
G37*
G36*
X160295707Y-96346296D02*
X160372836Y-96353893D01*
X160504787Y-96393920D01*
X160570763Y-96413933D01*
X160753172Y-96511433D01*
X160913054Y-96642646D01*
X161044267Y-96802528D01*
X161141767Y-96984937D01*
X161141767Y-96984938D01*
X161201807Y-97182864D01*
X161222080Y-97388700D01*
X161201807Y-97594536D01*
X161161780Y-97726487D01*
X161141767Y-97792463D01*
X161044267Y-97974872D01*
X160913054Y-98134754D01*
X160753172Y-98265967D01*
X160570763Y-98363467D01*
X160504787Y-98383480D01*
X160372836Y-98423507D01*
X160295707Y-98431103D01*
X160218580Y-98438700D01*
X160115420Y-98438700D01*
X160038293Y-98431103D01*
X159961164Y-98423507D01*
X159829213Y-98383480D01*
X159763237Y-98363467D01*
X159580828Y-98265967D01*
X159420946Y-98134754D01*
X159289733Y-97974872D01*
X159192233Y-97792463D01*
X159172220Y-97726487D01*
X159132193Y-97594536D01*
X159111920Y-97388700D01*
X159132193Y-97182864D01*
X159192233Y-96984938D01*
X159192233Y-96984937D01*
X159289733Y-96802528D01*
X159420946Y-96642646D01*
X159580828Y-96511433D01*
X159763237Y-96413933D01*
X159829213Y-96393920D01*
X159961164Y-96353893D01*
X160038293Y-96346297D01*
X160115420Y-96338700D01*
X160218580Y-96338700D01*
X160295707Y-96346296D01*
X160295707Y-96346296D01*
G37*
G36*
X165375707Y-96346296D02*
X165452836Y-96353893D01*
X165584787Y-96393920D01*
X165650763Y-96413933D01*
X165833172Y-96511433D01*
X165993054Y-96642646D01*
X166124267Y-96802528D01*
X166221767Y-96984937D01*
X166221767Y-96984938D01*
X166281807Y-97182864D01*
X166302080Y-97388700D01*
X166281807Y-97594536D01*
X166241780Y-97726487D01*
X166221767Y-97792463D01*
X166124267Y-97974872D01*
X165993054Y-98134754D01*
X165833172Y-98265967D01*
X165650763Y-98363467D01*
X165584787Y-98383480D01*
X165452836Y-98423507D01*
X165375707Y-98431103D01*
X165298580Y-98438700D01*
X165195420Y-98438700D01*
X165118293Y-98431103D01*
X165041164Y-98423507D01*
X164909213Y-98383480D01*
X164843237Y-98363467D01*
X164660828Y-98265967D01*
X164500946Y-98134754D01*
X164369733Y-97974872D01*
X164272233Y-97792463D01*
X164252220Y-97726487D01*
X164212193Y-97594536D01*
X164191920Y-97388700D01*
X164212193Y-97182864D01*
X164272233Y-96984938D01*
X164272233Y-96984937D01*
X164369733Y-96802528D01*
X164500946Y-96642646D01*
X164660828Y-96511433D01*
X164843237Y-96413933D01*
X164909213Y-96393920D01*
X165041164Y-96353893D01*
X165118293Y-96346297D01*
X165195420Y-96338700D01*
X165298580Y-96338700D01*
X165375707Y-96346296D01*
X165375707Y-96346296D01*
G37*
G36*
X167915707Y-96346296D02*
X167992836Y-96353893D01*
X168124787Y-96393920D01*
X168190763Y-96413933D01*
X168373172Y-96511433D01*
X168533054Y-96642646D01*
X168664267Y-96802528D01*
X168761767Y-96984937D01*
X168761767Y-96984938D01*
X168821807Y-97182864D01*
X168842080Y-97388700D01*
X168821807Y-97594536D01*
X168781780Y-97726487D01*
X168761767Y-97792463D01*
X168664267Y-97974872D01*
X168533054Y-98134754D01*
X168373172Y-98265967D01*
X168190763Y-98363467D01*
X168124787Y-98383480D01*
X167992836Y-98423507D01*
X167915707Y-98431103D01*
X167838580Y-98438700D01*
X167735420Y-98438700D01*
X167658293Y-98431103D01*
X167581164Y-98423507D01*
X167449213Y-98383480D01*
X167383237Y-98363467D01*
X167200828Y-98265967D01*
X167040946Y-98134754D01*
X166909733Y-97974872D01*
X166812233Y-97792463D01*
X166792220Y-97726487D01*
X166752193Y-97594536D01*
X166731920Y-97388700D01*
X166752193Y-97182864D01*
X166812233Y-96984938D01*
X166812233Y-96984937D01*
X166909733Y-96802528D01*
X167040946Y-96642646D01*
X167200828Y-96511433D01*
X167383237Y-96413933D01*
X167449213Y-96393920D01*
X167581164Y-96353893D01*
X167658293Y-96346297D01*
X167735420Y-96338700D01*
X167838580Y-96338700D01*
X167915707Y-96346296D01*
X167915707Y-96346296D01*
G37*
G36*
X158677000Y-98438700D02*
X156577000Y-98438700D01*
X156577000Y-96338700D01*
X158677000Y-96338700D01*
X158677000Y-98438700D01*
X158677000Y-98438700D01*
G37*
G36*
X95537430Y-94254269D02*
X95537433Y-94254270D01*
X95537434Y-94254270D01*
X95725935Y-94311451D01*
X95725937Y-94311452D01*
X95899660Y-94404309D01*
X96051928Y-94529272D01*
X96176891Y-94681540D01*
X96269748Y-94855263D01*
X96326931Y-95043770D01*
X96346238Y-95239800D01*
X96326931Y-95435830D01*
X96269748Y-95624337D01*
X96176891Y-95798060D01*
X96051928Y-95950328D01*
X95899660Y-96075291D01*
X95899658Y-96075292D01*
X95725935Y-96168149D01*
X95537434Y-96225330D01*
X95537433Y-96225330D01*
X95537430Y-96225331D01*
X95390524Y-96239800D01*
X95292276Y-96239800D01*
X95145370Y-96225331D01*
X95145367Y-96225330D01*
X95145366Y-96225330D01*
X94956865Y-96168149D01*
X94783142Y-96075292D01*
X94783140Y-96075291D01*
X94630872Y-95950328D01*
X94505909Y-95798060D01*
X94413052Y-95624337D01*
X94355869Y-95435830D01*
X94336562Y-95239800D01*
X94355869Y-95043770D01*
X94413052Y-94855263D01*
X94505909Y-94681540D01*
X94630872Y-94529272D01*
X94783140Y-94404309D01*
X94956863Y-94311452D01*
X94956865Y-94311451D01*
X95145366Y-94254270D01*
X95145367Y-94254270D01*
X95145370Y-94254269D01*
X95292276Y-94239800D01*
X95390524Y-94239800D01*
X95537430Y-94254269D01*
X95537430Y-94254269D01*
G37*
G36*
X103157430Y-94254269D02*
X103157433Y-94254270D01*
X103157434Y-94254270D01*
X103345935Y-94311451D01*
X103345937Y-94311452D01*
X103519660Y-94404309D01*
X103671928Y-94529272D01*
X103796891Y-94681540D01*
X103889748Y-94855263D01*
X103946931Y-95043770D01*
X103966238Y-95239800D01*
X103946931Y-95435830D01*
X103889748Y-95624337D01*
X103796891Y-95798060D01*
X103671928Y-95950328D01*
X103519660Y-96075291D01*
X103519658Y-96075292D01*
X103345935Y-96168149D01*
X103157434Y-96225330D01*
X103157433Y-96225330D01*
X103157430Y-96225331D01*
X103010524Y-96239800D01*
X102912276Y-96239800D01*
X102765370Y-96225331D01*
X102765367Y-96225330D01*
X102765366Y-96225330D01*
X102576865Y-96168149D01*
X102403142Y-96075292D01*
X102403140Y-96075291D01*
X102250872Y-95950328D01*
X102125909Y-95798060D01*
X102033052Y-95624337D01*
X101975869Y-95435830D01*
X101956562Y-95239800D01*
X101975869Y-95043770D01*
X102033052Y-94855263D01*
X102125909Y-94681540D01*
X102250872Y-94529272D01*
X102403140Y-94404309D01*
X102576863Y-94311452D01*
X102576865Y-94311451D01*
X102765366Y-94254270D01*
X102765367Y-94254270D01*
X102765370Y-94254269D01*
X102912276Y-94239800D01*
X103010524Y-94239800D01*
X103157430Y-94254269D01*
X103157430Y-94254269D01*
G37*
G36*
X157755707Y-93806297D02*
X157832836Y-93813893D01*
X157964787Y-93853920D01*
X158030763Y-93873933D01*
X158213172Y-93971433D01*
X158373054Y-94102646D01*
X158504267Y-94262528D01*
X158601767Y-94444937D01*
X158601767Y-94444938D01*
X158661807Y-94642864D01*
X158682080Y-94848700D01*
X158661807Y-95054536D01*
X158621780Y-95186487D01*
X158601767Y-95252463D01*
X158504267Y-95434872D01*
X158373054Y-95594754D01*
X158213172Y-95725967D01*
X158030763Y-95823467D01*
X157964787Y-95843480D01*
X157832836Y-95883507D01*
X157755707Y-95891103D01*
X157678580Y-95898700D01*
X157575420Y-95898700D01*
X157498293Y-95891104D01*
X157421164Y-95883507D01*
X157289213Y-95843480D01*
X157223237Y-95823467D01*
X157040828Y-95725967D01*
X156880946Y-95594754D01*
X156749733Y-95434872D01*
X156652233Y-95252463D01*
X156632220Y-95186487D01*
X156592193Y-95054536D01*
X156571920Y-94848700D01*
X156592193Y-94642864D01*
X156652233Y-94444938D01*
X156652233Y-94444937D01*
X156749733Y-94262528D01*
X156880946Y-94102646D01*
X157040828Y-93971433D01*
X157223237Y-93873933D01*
X157289213Y-93853920D01*
X157421164Y-93813893D01*
X157498293Y-93806296D01*
X157575420Y-93798700D01*
X157678580Y-93798700D01*
X157755707Y-93806297D01*
X157755707Y-93806297D01*
G37*
G36*
X160295707Y-93806297D02*
X160372836Y-93813893D01*
X160504787Y-93853920D01*
X160570763Y-93873933D01*
X160753172Y-93971433D01*
X160913054Y-94102646D01*
X161044267Y-94262528D01*
X161141767Y-94444937D01*
X161141767Y-94444938D01*
X161201807Y-94642864D01*
X161222080Y-94848700D01*
X161201807Y-95054536D01*
X161161780Y-95186487D01*
X161141767Y-95252463D01*
X161044267Y-95434872D01*
X160913054Y-95594754D01*
X160753172Y-95725967D01*
X160570763Y-95823467D01*
X160504787Y-95843480D01*
X160372836Y-95883507D01*
X160295707Y-95891103D01*
X160218580Y-95898700D01*
X160115420Y-95898700D01*
X160038293Y-95891104D01*
X159961164Y-95883507D01*
X159829213Y-95843480D01*
X159763237Y-95823467D01*
X159580828Y-95725967D01*
X159420946Y-95594754D01*
X159289733Y-95434872D01*
X159192233Y-95252463D01*
X159172220Y-95186487D01*
X159132193Y-95054536D01*
X159111920Y-94848700D01*
X159132193Y-94642864D01*
X159192233Y-94444938D01*
X159192233Y-94444937D01*
X159289733Y-94262528D01*
X159420946Y-94102646D01*
X159580828Y-93971433D01*
X159763237Y-93873933D01*
X159829213Y-93853920D01*
X159961164Y-93813893D01*
X160038293Y-93806296D01*
X160115420Y-93798700D01*
X160218580Y-93798700D01*
X160295707Y-93806297D01*
X160295707Y-93806297D01*
G37*
G36*
X162835707Y-93806297D02*
X162912836Y-93813893D01*
X163044787Y-93853920D01*
X163110763Y-93873933D01*
X163293172Y-93971433D01*
X163453054Y-94102646D01*
X163584267Y-94262528D01*
X163681767Y-94444937D01*
X163681767Y-94444938D01*
X163741807Y-94642864D01*
X163762080Y-94848700D01*
X163741807Y-95054536D01*
X163701780Y-95186487D01*
X163681767Y-95252463D01*
X163584267Y-95434872D01*
X163453054Y-95594754D01*
X163293172Y-95725967D01*
X163110763Y-95823467D01*
X163044787Y-95843480D01*
X162912836Y-95883507D01*
X162835707Y-95891103D01*
X162758580Y-95898700D01*
X162655420Y-95898700D01*
X162578293Y-95891104D01*
X162501164Y-95883507D01*
X162369213Y-95843480D01*
X162303237Y-95823467D01*
X162120828Y-95725967D01*
X161960946Y-95594754D01*
X161829733Y-95434872D01*
X161732233Y-95252463D01*
X161712220Y-95186487D01*
X161672193Y-95054536D01*
X161651920Y-94848700D01*
X161672193Y-94642864D01*
X161732233Y-94444938D01*
X161732233Y-94444937D01*
X161829733Y-94262528D01*
X161960946Y-94102646D01*
X162120828Y-93971433D01*
X162303237Y-93873933D01*
X162369213Y-93853920D01*
X162501164Y-93813893D01*
X162578293Y-93806296D01*
X162655420Y-93798700D01*
X162758580Y-93798700D01*
X162835707Y-93806297D01*
X162835707Y-93806297D01*
G37*
G36*
X165375707Y-93806297D02*
X165452836Y-93813893D01*
X165584787Y-93853920D01*
X165650763Y-93873933D01*
X165833172Y-93971433D01*
X165993054Y-94102646D01*
X166124267Y-94262528D01*
X166221767Y-94444937D01*
X166221767Y-94444938D01*
X166281807Y-94642864D01*
X166302080Y-94848700D01*
X166281807Y-95054536D01*
X166241780Y-95186487D01*
X166221767Y-95252463D01*
X166124267Y-95434872D01*
X165993054Y-95594754D01*
X165833172Y-95725967D01*
X165650763Y-95823467D01*
X165584787Y-95843480D01*
X165452836Y-95883507D01*
X165375707Y-95891103D01*
X165298580Y-95898700D01*
X165195420Y-95898700D01*
X165118293Y-95891104D01*
X165041164Y-95883507D01*
X164909213Y-95843480D01*
X164843237Y-95823467D01*
X164660828Y-95725967D01*
X164500946Y-95594754D01*
X164369733Y-95434872D01*
X164272233Y-95252463D01*
X164252220Y-95186487D01*
X164212193Y-95054536D01*
X164191920Y-94848700D01*
X164212193Y-94642864D01*
X164272233Y-94444938D01*
X164272233Y-94444937D01*
X164369733Y-94262528D01*
X164500946Y-94102646D01*
X164660828Y-93971433D01*
X164843237Y-93873933D01*
X164909213Y-93853920D01*
X165041164Y-93813893D01*
X165118293Y-93806296D01*
X165195420Y-93798700D01*
X165298580Y-93798700D01*
X165375707Y-93806297D01*
X165375707Y-93806297D01*
G37*
G36*
X167915707Y-93806297D02*
X167992836Y-93813893D01*
X168124787Y-93853920D01*
X168190763Y-93873933D01*
X168373172Y-93971433D01*
X168533054Y-94102646D01*
X168664267Y-94262528D01*
X168761767Y-94444937D01*
X168761767Y-94444938D01*
X168821807Y-94642864D01*
X168842080Y-94848700D01*
X168821807Y-95054536D01*
X168781780Y-95186487D01*
X168761767Y-95252463D01*
X168664267Y-95434872D01*
X168533054Y-95594754D01*
X168373172Y-95725967D01*
X168190763Y-95823467D01*
X168124787Y-95843480D01*
X167992836Y-95883507D01*
X167915707Y-95891103D01*
X167838580Y-95898700D01*
X167735420Y-95898700D01*
X167658293Y-95891104D01*
X167581164Y-95883507D01*
X167449213Y-95843480D01*
X167383237Y-95823467D01*
X167200828Y-95725967D01*
X167040946Y-95594754D01*
X166909733Y-95434872D01*
X166812233Y-95252463D01*
X166792220Y-95186487D01*
X166752193Y-95054536D01*
X166731920Y-94848700D01*
X166752193Y-94642864D01*
X166812233Y-94444938D01*
X166812233Y-94444937D01*
X166909733Y-94262528D01*
X167040946Y-94102646D01*
X167200828Y-93971433D01*
X167383237Y-93873933D01*
X167449213Y-93853920D01*
X167581164Y-93813893D01*
X167658293Y-93806296D01*
X167735420Y-93798700D01*
X167838580Y-93798700D01*
X167915707Y-93806297D01*
X167915707Y-93806297D01*
G37*
G36*
X103157430Y-91714269D02*
X103157433Y-91714270D01*
X103157434Y-91714270D01*
X103345935Y-91771451D01*
X103345937Y-91771452D01*
X103519660Y-91864309D01*
X103671928Y-91989272D01*
X103796891Y-92141540D01*
X103889748Y-92315263D01*
X103946931Y-92503770D01*
X103966238Y-92699800D01*
X103946931Y-92895830D01*
X103889748Y-93084337D01*
X103796891Y-93258060D01*
X103671928Y-93410328D01*
X103519660Y-93535291D01*
X103519658Y-93535292D01*
X103345935Y-93628149D01*
X103157434Y-93685330D01*
X103157433Y-93685330D01*
X103157430Y-93685331D01*
X103010524Y-93699800D01*
X102912276Y-93699800D01*
X102765370Y-93685331D01*
X102765367Y-93685330D01*
X102765366Y-93685330D01*
X102576865Y-93628149D01*
X102403142Y-93535292D01*
X102403140Y-93535291D01*
X102250872Y-93410328D01*
X102125909Y-93258060D01*
X102033052Y-93084337D01*
X101975869Y-92895830D01*
X101956562Y-92699800D01*
X101975869Y-92503770D01*
X102033052Y-92315263D01*
X102125909Y-92141540D01*
X102250872Y-91989272D01*
X102403140Y-91864309D01*
X102576863Y-91771452D01*
X102576865Y-91771451D01*
X102765366Y-91714270D01*
X102765367Y-91714270D01*
X102765370Y-91714269D01*
X102912276Y-91699800D01*
X103010524Y-91699800D01*
X103157430Y-91714269D01*
X103157430Y-91714269D01*
G37*
G36*
X95537430Y-91714269D02*
X95537433Y-91714270D01*
X95537434Y-91714270D01*
X95725935Y-91771451D01*
X95725937Y-91771452D01*
X95899660Y-91864309D01*
X96051928Y-91989272D01*
X96176891Y-92141540D01*
X96269748Y-92315263D01*
X96326931Y-92503770D01*
X96346238Y-92699800D01*
X96326931Y-92895830D01*
X96269748Y-93084337D01*
X96176891Y-93258060D01*
X96051928Y-93410328D01*
X95899660Y-93535291D01*
X95899658Y-93535292D01*
X95725935Y-93628149D01*
X95537434Y-93685330D01*
X95537433Y-93685330D01*
X95537430Y-93685331D01*
X95390524Y-93699800D01*
X95292276Y-93699800D01*
X95145370Y-93685331D01*
X95145367Y-93685330D01*
X95145366Y-93685330D01*
X94956865Y-93628149D01*
X94783142Y-93535292D01*
X94783140Y-93535291D01*
X94630872Y-93410328D01*
X94505909Y-93258060D01*
X94413052Y-93084337D01*
X94355869Y-92895830D01*
X94336562Y-92699800D01*
X94355869Y-92503770D01*
X94413052Y-92315263D01*
X94505909Y-92141540D01*
X94630872Y-91989272D01*
X94783140Y-91864309D01*
X94956863Y-91771452D01*
X94956865Y-91771451D01*
X95145366Y-91714270D01*
X95145367Y-91714270D01*
X95145370Y-91714269D01*
X95292276Y-91699800D01*
X95390524Y-91699800D01*
X95537430Y-91714269D01*
X95537430Y-91714269D01*
G37*
G36*
X185197707Y-90174096D02*
X185274836Y-90181693D01*
X185406787Y-90221720D01*
X185472763Y-90241733D01*
X185655172Y-90339233D01*
X185815054Y-90470446D01*
X185946267Y-90630328D01*
X186043767Y-90812737D01*
X186043767Y-90812738D01*
X186103807Y-91010664D01*
X186124080Y-91216500D01*
X186103807Y-91422336D01*
X186063780Y-91554287D01*
X186043767Y-91620263D01*
X185946267Y-91802672D01*
X185815054Y-91962554D01*
X185655172Y-92093767D01*
X185472763Y-92191267D01*
X185406787Y-92211280D01*
X185274836Y-92251307D01*
X185197707Y-92258904D01*
X185120580Y-92266500D01*
X185017420Y-92266500D01*
X184940293Y-92258903D01*
X184863164Y-92251307D01*
X184731213Y-92211280D01*
X184665237Y-92191267D01*
X184482828Y-92093767D01*
X184322946Y-91962554D01*
X184191733Y-91802672D01*
X184094233Y-91620263D01*
X184074220Y-91554287D01*
X184034193Y-91422336D01*
X184013920Y-91216500D01*
X184034193Y-91010664D01*
X184094233Y-90812738D01*
X184094233Y-90812737D01*
X184191733Y-90630328D01*
X184322946Y-90470446D01*
X184482828Y-90339233D01*
X184665237Y-90241733D01*
X184731213Y-90221720D01*
X184863164Y-90181693D01*
X184940293Y-90174096D01*
X185017420Y-90166500D01*
X185120580Y-90166500D01*
X185197707Y-90174096D01*
X185197707Y-90174096D01*
G37*
G36*
X95537430Y-89174269D02*
X95537433Y-89174270D01*
X95537434Y-89174270D01*
X95725935Y-89231451D01*
X95725937Y-89231452D01*
X95899660Y-89324309D01*
X96051928Y-89449272D01*
X96176891Y-89601540D01*
X96269748Y-89775263D01*
X96326931Y-89963770D01*
X96346238Y-90159800D01*
X96326931Y-90355830D01*
X96269748Y-90544337D01*
X96176891Y-90718060D01*
X96051928Y-90870328D01*
X95899660Y-90995291D01*
X95899658Y-90995292D01*
X95725935Y-91088149D01*
X95537434Y-91145330D01*
X95537433Y-91145330D01*
X95537430Y-91145331D01*
X95390524Y-91159800D01*
X95292276Y-91159800D01*
X95145370Y-91145331D01*
X95145367Y-91145330D01*
X95145366Y-91145330D01*
X94956865Y-91088149D01*
X94783142Y-90995292D01*
X94783140Y-90995291D01*
X94630872Y-90870328D01*
X94505909Y-90718060D01*
X94413052Y-90544337D01*
X94355869Y-90355830D01*
X94336562Y-90159800D01*
X94355869Y-89963770D01*
X94413052Y-89775263D01*
X94505909Y-89601540D01*
X94630872Y-89449272D01*
X94783140Y-89324309D01*
X94956863Y-89231452D01*
X94956865Y-89231451D01*
X95145366Y-89174270D01*
X95145367Y-89174270D01*
X95145370Y-89174269D01*
X95292276Y-89159800D01*
X95390524Y-89159800D01*
X95537430Y-89174269D01*
X95537430Y-89174269D01*
G37*
G36*
X103157430Y-89174269D02*
X103157433Y-89174270D01*
X103157434Y-89174270D01*
X103345935Y-89231451D01*
X103345937Y-89231452D01*
X103519660Y-89324309D01*
X103671928Y-89449272D01*
X103796891Y-89601540D01*
X103889748Y-89775263D01*
X103946931Y-89963770D01*
X103966238Y-90159800D01*
X103946931Y-90355830D01*
X103889748Y-90544337D01*
X103796891Y-90718060D01*
X103671928Y-90870328D01*
X103519660Y-90995291D01*
X103519658Y-90995292D01*
X103345935Y-91088149D01*
X103157434Y-91145330D01*
X103157433Y-91145330D01*
X103157430Y-91145331D01*
X103010524Y-91159800D01*
X102912276Y-91159800D01*
X102765370Y-91145331D01*
X102765367Y-91145330D01*
X102765366Y-91145330D01*
X102576865Y-91088149D01*
X102403142Y-90995292D01*
X102403140Y-90995291D01*
X102250872Y-90870328D01*
X102125909Y-90718060D01*
X102033052Y-90544337D01*
X101975869Y-90355830D01*
X101956562Y-90159800D01*
X101975869Y-89963770D01*
X102033052Y-89775263D01*
X102125909Y-89601540D01*
X102250872Y-89449272D01*
X102403140Y-89324309D01*
X102576863Y-89231452D01*
X102576865Y-89231451D01*
X102765366Y-89174270D01*
X102765367Y-89174270D01*
X102765370Y-89174269D01*
X102912276Y-89159800D01*
X103010524Y-89159800D01*
X103157430Y-89174269D01*
X103157430Y-89174269D01*
G37*
G36*
X185197707Y-87634097D02*
X185274836Y-87641693D01*
X185406787Y-87681720D01*
X185472763Y-87701733D01*
X185655172Y-87799233D01*
X185815054Y-87930446D01*
X185946267Y-88090328D01*
X186043767Y-88272737D01*
X186043767Y-88272738D01*
X186103807Y-88470664D01*
X186124080Y-88676500D01*
X186103807Y-88882336D01*
X186063780Y-89014287D01*
X186043767Y-89080263D01*
X185946267Y-89262672D01*
X185815054Y-89422554D01*
X185655172Y-89553767D01*
X185472763Y-89651267D01*
X185406787Y-89671280D01*
X185274836Y-89711307D01*
X185197707Y-89718904D01*
X185120580Y-89726500D01*
X185017420Y-89726500D01*
X184940293Y-89718904D01*
X184863164Y-89711307D01*
X184731213Y-89671280D01*
X184665237Y-89651267D01*
X184482828Y-89553767D01*
X184322946Y-89422554D01*
X184191733Y-89262672D01*
X184094233Y-89080263D01*
X184074220Y-89014287D01*
X184034193Y-88882336D01*
X184013920Y-88676500D01*
X184034193Y-88470664D01*
X184094233Y-88272738D01*
X184094233Y-88272737D01*
X184191733Y-88090328D01*
X184322946Y-87930446D01*
X184482828Y-87799233D01*
X184665237Y-87701733D01*
X184731213Y-87681720D01*
X184863164Y-87641693D01*
X184940293Y-87634097D01*
X185017420Y-87626500D01*
X185120580Y-87626500D01*
X185197707Y-87634097D01*
X185197707Y-87634097D01*
G37*
G36*
X103157430Y-86634269D02*
X103157433Y-86634270D01*
X103157434Y-86634270D01*
X103345935Y-86691451D01*
X103345937Y-86691452D01*
X103519660Y-86784309D01*
X103671928Y-86909272D01*
X103796891Y-87061540D01*
X103889748Y-87235263D01*
X103946931Y-87423770D01*
X103966238Y-87619800D01*
X103946931Y-87815830D01*
X103889748Y-88004337D01*
X103796891Y-88178060D01*
X103671928Y-88330328D01*
X103519660Y-88455291D01*
X103519658Y-88455292D01*
X103345935Y-88548149D01*
X103157434Y-88605330D01*
X103157433Y-88605330D01*
X103157430Y-88605331D01*
X103010524Y-88619800D01*
X102912276Y-88619800D01*
X102765370Y-88605331D01*
X102765367Y-88605330D01*
X102765366Y-88605330D01*
X102576865Y-88548149D01*
X102403142Y-88455292D01*
X102403140Y-88455291D01*
X102250872Y-88330328D01*
X102125909Y-88178060D01*
X102033052Y-88004337D01*
X101975869Y-87815830D01*
X101956562Y-87619800D01*
X101975869Y-87423770D01*
X102033052Y-87235263D01*
X102125909Y-87061540D01*
X102250872Y-86909272D01*
X102403140Y-86784309D01*
X102576863Y-86691452D01*
X102576865Y-86691451D01*
X102765366Y-86634270D01*
X102765367Y-86634270D01*
X102765370Y-86634269D01*
X102912276Y-86619800D01*
X103010524Y-86619800D01*
X103157430Y-86634269D01*
X103157430Y-86634269D01*
G37*
G36*
X95537430Y-86634269D02*
X95537433Y-86634270D01*
X95537434Y-86634270D01*
X95725935Y-86691451D01*
X95725937Y-86691452D01*
X95899660Y-86784309D01*
X96051928Y-86909272D01*
X96176891Y-87061540D01*
X96269748Y-87235263D01*
X96326931Y-87423770D01*
X96346238Y-87619800D01*
X96326931Y-87815830D01*
X96269748Y-88004337D01*
X96176891Y-88178060D01*
X96051928Y-88330328D01*
X95899660Y-88455291D01*
X95899658Y-88455292D01*
X95725935Y-88548149D01*
X95537434Y-88605330D01*
X95537433Y-88605330D01*
X95537430Y-88605331D01*
X95390524Y-88619800D01*
X95292276Y-88619800D01*
X95145370Y-88605331D01*
X95145367Y-88605330D01*
X95145366Y-88605330D01*
X94956865Y-88548149D01*
X94783142Y-88455292D01*
X94783140Y-88455291D01*
X94630872Y-88330328D01*
X94505909Y-88178060D01*
X94413052Y-88004337D01*
X94355869Y-87815830D01*
X94336562Y-87619800D01*
X94355869Y-87423770D01*
X94413052Y-87235263D01*
X94505909Y-87061540D01*
X94630872Y-86909272D01*
X94783140Y-86784309D01*
X94956863Y-86691452D01*
X94956865Y-86691451D01*
X95145366Y-86634270D01*
X95145367Y-86634270D01*
X95145370Y-86634269D01*
X95292276Y-86619800D01*
X95390524Y-86619800D01*
X95537430Y-86634269D01*
X95537430Y-86634269D01*
G37*
G36*
X185197707Y-85094096D02*
X185274836Y-85101693D01*
X185406787Y-85141720D01*
X185472763Y-85161733D01*
X185655172Y-85259233D01*
X185815054Y-85390446D01*
X185946267Y-85550328D01*
X186043767Y-85732737D01*
X186043767Y-85732738D01*
X186103807Y-85930664D01*
X186124080Y-86136500D01*
X186103807Y-86342336D01*
X186063780Y-86474287D01*
X186043767Y-86540263D01*
X185946267Y-86722672D01*
X185815054Y-86882554D01*
X185655172Y-87013767D01*
X185472763Y-87111267D01*
X185406787Y-87131280D01*
X185274836Y-87171307D01*
X185197707Y-87178903D01*
X185120580Y-87186500D01*
X185017420Y-87186500D01*
X184940293Y-87178903D01*
X184863164Y-87171307D01*
X184731213Y-87131280D01*
X184665237Y-87111267D01*
X184482828Y-87013767D01*
X184322946Y-86882554D01*
X184191733Y-86722672D01*
X184094233Y-86540263D01*
X184074220Y-86474287D01*
X184034193Y-86342336D01*
X184013920Y-86136500D01*
X184034193Y-85930664D01*
X184094233Y-85732738D01*
X184094233Y-85732737D01*
X184191733Y-85550328D01*
X184322946Y-85390446D01*
X184482828Y-85259233D01*
X184665237Y-85161733D01*
X184731213Y-85141720D01*
X184863164Y-85101693D01*
X184940293Y-85094096D01*
X185017420Y-85086500D01*
X185120580Y-85086500D01*
X185197707Y-85094096D01*
X185197707Y-85094096D01*
G37*
G36*
X95537430Y-84094269D02*
X95537433Y-84094270D01*
X95537434Y-84094270D01*
X95725935Y-84151451D01*
X95725937Y-84151452D01*
X95899660Y-84244309D01*
X96051928Y-84369272D01*
X96176891Y-84521540D01*
X96269748Y-84695263D01*
X96326931Y-84883770D01*
X96346238Y-85079800D01*
X96326931Y-85275830D01*
X96269748Y-85464337D01*
X96176891Y-85638060D01*
X96051928Y-85790328D01*
X95899660Y-85915291D01*
X95899658Y-85915292D01*
X95725935Y-86008149D01*
X95537434Y-86065330D01*
X95537433Y-86065330D01*
X95537430Y-86065331D01*
X95390524Y-86079800D01*
X95292276Y-86079800D01*
X95145370Y-86065331D01*
X95145367Y-86065330D01*
X95145366Y-86065330D01*
X94956865Y-86008149D01*
X94783142Y-85915292D01*
X94783140Y-85915291D01*
X94630872Y-85790328D01*
X94505909Y-85638060D01*
X94413052Y-85464337D01*
X94355869Y-85275830D01*
X94336562Y-85079800D01*
X94355869Y-84883770D01*
X94413052Y-84695263D01*
X94505909Y-84521540D01*
X94630872Y-84369272D01*
X94783140Y-84244309D01*
X94956863Y-84151452D01*
X94956865Y-84151451D01*
X95145366Y-84094270D01*
X95145367Y-84094270D01*
X95145370Y-84094269D01*
X95292276Y-84079800D01*
X95390524Y-84079800D01*
X95537430Y-84094269D01*
X95537430Y-84094269D01*
G37*
G36*
X103157430Y-84094269D02*
X103157433Y-84094270D01*
X103157434Y-84094270D01*
X103345935Y-84151451D01*
X103345937Y-84151452D01*
X103519660Y-84244309D01*
X103671928Y-84369272D01*
X103796891Y-84521540D01*
X103889748Y-84695263D01*
X103946931Y-84883770D01*
X103966238Y-85079800D01*
X103946931Y-85275830D01*
X103889748Y-85464337D01*
X103796891Y-85638060D01*
X103671928Y-85790328D01*
X103519660Y-85915291D01*
X103519658Y-85915292D01*
X103345935Y-86008149D01*
X103157434Y-86065330D01*
X103157433Y-86065330D01*
X103157430Y-86065331D01*
X103010524Y-86079800D01*
X102912276Y-86079800D01*
X102765370Y-86065331D01*
X102765367Y-86065330D01*
X102765366Y-86065330D01*
X102576865Y-86008149D01*
X102403142Y-85915292D01*
X102403140Y-85915291D01*
X102250872Y-85790328D01*
X102125909Y-85638060D01*
X102033052Y-85464337D01*
X101975869Y-85275830D01*
X101956562Y-85079800D01*
X101975869Y-84883770D01*
X102033052Y-84695263D01*
X102125909Y-84521540D01*
X102250872Y-84369272D01*
X102403140Y-84244309D01*
X102576863Y-84151452D01*
X102576865Y-84151451D01*
X102765366Y-84094270D01*
X102765367Y-84094270D01*
X102765370Y-84094269D01*
X102912276Y-84079800D01*
X103010524Y-84079800D01*
X103157430Y-84094269D01*
X103157430Y-84094269D01*
G37*
G36*
X185197707Y-82554097D02*
X185274836Y-82561693D01*
X185406787Y-82601720D01*
X185472763Y-82621733D01*
X185655172Y-82719233D01*
X185815054Y-82850446D01*
X185946267Y-83010328D01*
X186043767Y-83192737D01*
X186043767Y-83192738D01*
X186103807Y-83390664D01*
X186124080Y-83596500D01*
X186103807Y-83802336D01*
X186063780Y-83934287D01*
X186043767Y-84000263D01*
X185946267Y-84182672D01*
X185815054Y-84342554D01*
X185655172Y-84473767D01*
X185472763Y-84571267D01*
X185406787Y-84591280D01*
X185274836Y-84631307D01*
X185197707Y-84638904D01*
X185120580Y-84646500D01*
X185017420Y-84646500D01*
X184940293Y-84638904D01*
X184863164Y-84631307D01*
X184731213Y-84591280D01*
X184665237Y-84571267D01*
X184482828Y-84473767D01*
X184322946Y-84342554D01*
X184191733Y-84182672D01*
X184094233Y-84000263D01*
X184074220Y-83934287D01*
X184034193Y-83802336D01*
X184013920Y-83596500D01*
X184034193Y-83390664D01*
X184094233Y-83192738D01*
X184094233Y-83192737D01*
X184191733Y-83010328D01*
X184322946Y-82850446D01*
X184482828Y-82719233D01*
X184665237Y-82621733D01*
X184731213Y-82601720D01*
X184863164Y-82561693D01*
X184940293Y-82554097D01*
X185017420Y-82546500D01*
X185120580Y-82546500D01*
X185197707Y-82554097D01*
X185197707Y-82554097D01*
G37*
G36*
X103157430Y-81554269D02*
X103157433Y-81554270D01*
X103157434Y-81554270D01*
X103345935Y-81611451D01*
X103345937Y-81611452D01*
X103519660Y-81704309D01*
X103671928Y-81829272D01*
X103796891Y-81981540D01*
X103889748Y-82155263D01*
X103946931Y-82343770D01*
X103966238Y-82539800D01*
X103946931Y-82735830D01*
X103889748Y-82924337D01*
X103796891Y-83098060D01*
X103671928Y-83250328D01*
X103519660Y-83375291D01*
X103519658Y-83375292D01*
X103345935Y-83468149D01*
X103157434Y-83525330D01*
X103157433Y-83525330D01*
X103157430Y-83525331D01*
X103010524Y-83539800D01*
X102912276Y-83539800D01*
X102765370Y-83525331D01*
X102765367Y-83525330D01*
X102765366Y-83525330D01*
X102576865Y-83468149D01*
X102403142Y-83375292D01*
X102403140Y-83375291D01*
X102250872Y-83250328D01*
X102125909Y-83098060D01*
X102033052Y-82924337D01*
X101975869Y-82735830D01*
X101956562Y-82539800D01*
X101975869Y-82343770D01*
X102033052Y-82155263D01*
X102125909Y-81981540D01*
X102250872Y-81829272D01*
X102403140Y-81704309D01*
X102576863Y-81611452D01*
X102576865Y-81611451D01*
X102765366Y-81554270D01*
X102765367Y-81554270D01*
X102765370Y-81554269D01*
X102912276Y-81539800D01*
X103010524Y-81539800D01*
X103157430Y-81554269D01*
X103157430Y-81554269D01*
G37*
G36*
X95537430Y-81554269D02*
X95537433Y-81554270D01*
X95537434Y-81554270D01*
X95725935Y-81611451D01*
X95725937Y-81611452D01*
X95899660Y-81704309D01*
X96051928Y-81829272D01*
X96176891Y-81981540D01*
X96269748Y-82155263D01*
X96326931Y-82343770D01*
X96346238Y-82539800D01*
X96326931Y-82735830D01*
X96269748Y-82924337D01*
X96176891Y-83098060D01*
X96051928Y-83250328D01*
X95899660Y-83375291D01*
X95899658Y-83375292D01*
X95725935Y-83468149D01*
X95537434Y-83525330D01*
X95537433Y-83525330D01*
X95537430Y-83525331D01*
X95390524Y-83539800D01*
X95292276Y-83539800D01*
X95145370Y-83525331D01*
X95145367Y-83525330D01*
X95145366Y-83525330D01*
X94956865Y-83468149D01*
X94783142Y-83375292D01*
X94783140Y-83375291D01*
X94630872Y-83250328D01*
X94505909Y-83098060D01*
X94413052Y-82924337D01*
X94355869Y-82735830D01*
X94336562Y-82539800D01*
X94355869Y-82343770D01*
X94413052Y-82155263D01*
X94505909Y-81981540D01*
X94630872Y-81829272D01*
X94783140Y-81704309D01*
X94956863Y-81611452D01*
X94956865Y-81611451D01*
X95145366Y-81554270D01*
X95145367Y-81554270D01*
X95145370Y-81554269D01*
X95292276Y-81539800D01*
X95390524Y-81539800D01*
X95537430Y-81554269D01*
X95537430Y-81554269D01*
G37*
G36*
X185197707Y-80014097D02*
X185274836Y-80021693D01*
X185406787Y-80061720D01*
X185472763Y-80081733D01*
X185655172Y-80179233D01*
X185815054Y-80310446D01*
X185946267Y-80470328D01*
X186043767Y-80652737D01*
X186043767Y-80652738D01*
X186103807Y-80850664D01*
X186124080Y-81056500D01*
X186103807Y-81262336D01*
X186063780Y-81394287D01*
X186043767Y-81460263D01*
X185946267Y-81642672D01*
X185815054Y-81802554D01*
X185655172Y-81933767D01*
X185472763Y-82031267D01*
X185406787Y-82051280D01*
X185274836Y-82091307D01*
X185197707Y-82098904D01*
X185120580Y-82106500D01*
X185017420Y-82106500D01*
X184940293Y-82098904D01*
X184863164Y-82091307D01*
X184731213Y-82051280D01*
X184665237Y-82031267D01*
X184482828Y-81933767D01*
X184322946Y-81802554D01*
X184191733Y-81642672D01*
X184094233Y-81460263D01*
X184074220Y-81394287D01*
X184034193Y-81262336D01*
X184013920Y-81056500D01*
X184034193Y-80850664D01*
X184094233Y-80652738D01*
X184094233Y-80652737D01*
X184191733Y-80470328D01*
X184322946Y-80310446D01*
X184482828Y-80179233D01*
X184665237Y-80081733D01*
X184731213Y-80061720D01*
X184863164Y-80021693D01*
X184940293Y-80014097D01*
X185017420Y-80006500D01*
X185120580Y-80006500D01*
X185197707Y-80014097D01*
X185197707Y-80014097D01*
G37*
G36*
X95537430Y-79014269D02*
X95537433Y-79014270D01*
X95537434Y-79014270D01*
X95725935Y-79071451D01*
X95725937Y-79071452D01*
X95899660Y-79164309D01*
X96051928Y-79289272D01*
X96176891Y-79441540D01*
X96176892Y-79441542D01*
X96269749Y-79615265D01*
X96326930Y-79803766D01*
X96326931Y-79803770D01*
X96346238Y-79999800D01*
X96326931Y-80195830D01*
X96269748Y-80384337D01*
X96176891Y-80558060D01*
X96051928Y-80710328D01*
X95899660Y-80835291D01*
X95899658Y-80835292D01*
X95725935Y-80928149D01*
X95537434Y-80985330D01*
X95537433Y-80985330D01*
X95537430Y-80985331D01*
X95390524Y-80999800D01*
X95292276Y-80999800D01*
X95145370Y-80985331D01*
X95145367Y-80985330D01*
X95145366Y-80985330D01*
X94956865Y-80928149D01*
X94783142Y-80835292D01*
X94783140Y-80835291D01*
X94630872Y-80710328D01*
X94505909Y-80558060D01*
X94413052Y-80384337D01*
X94355869Y-80195830D01*
X94336562Y-79999800D01*
X94355869Y-79803770D01*
X94355870Y-79803766D01*
X94413051Y-79615265D01*
X94505908Y-79441542D01*
X94505909Y-79441540D01*
X94630872Y-79289272D01*
X94783140Y-79164309D01*
X94956863Y-79071452D01*
X94956865Y-79071451D01*
X95145366Y-79014270D01*
X95145367Y-79014270D01*
X95145370Y-79014269D01*
X95292276Y-78999800D01*
X95390524Y-78999800D01*
X95537430Y-79014269D01*
X95537430Y-79014269D01*
G37*
G36*
X103157430Y-79014269D02*
X103157433Y-79014270D01*
X103157434Y-79014270D01*
X103345935Y-79071451D01*
X103345937Y-79071452D01*
X103519660Y-79164309D01*
X103671928Y-79289272D01*
X103796891Y-79441540D01*
X103796892Y-79441542D01*
X103889749Y-79615265D01*
X103946930Y-79803766D01*
X103946931Y-79803770D01*
X103966238Y-79999800D01*
X103946931Y-80195830D01*
X103889748Y-80384337D01*
X103796891Y-80558060D01*
X103671928Y-80710328D01*
X103519660Y-80835291D01*
X103519658Y-80835292D01*
X103345935Y-80928149D01*
X103157434Y-80985330D01*
X103157433Y-80985330D01*
X103157430Y-80985331D01*
X103010524Y-80999800D01*
X102912276Y-80999800D01*
X102765370Y-80985331D01*
X102765367Y-80985330D01*
X102765366Y-80985330D01*
X102576865Y-80928149D01*
X102403142Y-80835292D01*
X102403140Y-80835291D01*
X102250872Y-80710328D01*
X102125909Y-80558060D01*
X102033052Y-80384337D01*
X101975869Y-80195830D01*
X101956562Y-79999800D01*
X101975869Y-79803770D01*
X101975870Y-79803766D01*
X102033051Y-79615265D01*
X102125908Y-79441542D01*
X102125909Y-79441540D01*
X102250872Y-79289272D01*
X102403140Y-79164309D01*
X102576863Y-79071452D01*
X102576865Y-79071451D01*
X102765366Y-79014270D01*
X102765367Y-79014270D01*
X102765370Y-79014269D01*
X102912276Y-78999800D01*
X103010524Y-78999800D01*
X103157430Y-79014269D01*
X103157430Y-79014269D01*
G37*
G36*
X117417343Y-77298974D02*
X117596526Y-77353329D01*
X117596528Y-77353330D01*
X117596531Y-77353331D01*
X117761664Y-77441595D01*
X117906407Y-77560383D01*
X118025195Y-77705126D01*
X118113459Y-77870258D01*
X118113459Y-77870259D01*
X118113461Y-77870263D01*
X118167816Y-78049446D01*
X118181570Y-78189095D01*
X118181570Y-79280705D01*
X118167816Y-79420354D01*
X118113461Y-79599537D01*
X118113459Y-79599542D01*
X118025195Y-79764674D01*
X117906407Y-79909417D01*
X117761664Y-80028205D01*
X117596532Y-80116469D01*
X117596529Y-80116470D01*
X117596527Y-80116471D01*
X117417344Y-80170826D01*
X117231000Y-80189179D01*
X117044657Y-80170826D01*
X116865474Y-80116471D01*
X116865472Y-80116470D01*
X116865469Y-80116469D01*
X116700337Y-80028205D01*
X116555594Y-79909417D01*
X116436806Y-79764674D01*
X116348539Y-79599537D01*
X116294184Y-79420356D01*
X116280430Y-79280707D01*
X116280430Y-78189094D01*
X116294184Y-78049450D01*
X116294184Y-78049447D01*
X116348539Y-77870264D01*
X116348540Y-77870262D01*
X116348541Y-77870259D01*
X116436805Y-77705126D01*
X116555593Y-77560383D01*
X116700336Y-77441595D01*
X116865468Y-77353331D01*
X116865471Y-77353330D01*
X116865473Y-77353329D01*
X117044656Y-77298974D01*
X117231000Y-77280621D01*
X117417343Y-77298974D01*
X117417343Y-77298974D01*
G37*
G36*
X114877343Y-77298974D02*
X115056526Y-77353329D01*
X115056528Y-77353330D01*
X115056531Y-77353331D01*
X115221664Y-77441595D01*
X115366407Y-77560383D01*
X115485195Y-77705126D01*
X115573459Y-77870258D01*
X115573459Y-77870259D01*
X115573461Y-77870263D01*
X115627816Y-78049446D01*
X115641570Y-78189095D01*
X115641570Y-79280705D01*
X115627816Y-79420354D01*
X115573461Y-79599537D01*
X115573459Y-79599542D01*
X115485195Y-79764674D01*
X115366407Y-79909417D01*
X115221664Y-80028205D01*
X115056532Y-80116469D01*
X115056529Y-80116470D01*
X115056527Y-80116471D01*
X114877344Y-80170826D01*
X114691000Y-80189179D01*
X114504657Y-80170826D01*
X114325474Y-80116471D01*
X114325472Y-80116470D01*
X114325469Y-80116469D01*
X114160337Y-80028205D01*
X114015594Y-79909417D01*
X113896806Y-79764674D01*
X113808539Y-79599537D01*
X113754184Y-79420356D01*
X113740430Y-79280707D01*
X113740430Y-78189094D01*
X113754184Y-78049450D01*
X113754184Y-78049447D01*
X113808539Y-77870264D01*
X113808540Y-77870262D01*
X113808541Y-77870259D01*
X113896805Y-77705126D01*
X114015593Y-77560383D01*
X114160336Y-77441595D01*
X114325468Y-77353331D01*
X114325471Y-77353330D01*
X114325473Y-77353329D01*
X114504656Y-77298974D01*
X114691000Y-77280621D01*
X114877343Y-77298974D01*
X114877343Y-77298974D01*
G37*
G36*
X112337343Y-77298974D02*
X112516526Y-77353329D01*
X112516528Y-77353330D01*
X112516531Y-77353331D01*
X112681664Y-77441595D01*
X112826407Y-77560383D01*
X112945195Y-77705126D01*
X113033459Y-77870258D01*
X113033459Y-77870259D01*
X113033461Y-77870263D01*
X113087816Y-78049446D01*
X113101570Y-78189095D01*
X113101570Y-79280705D01*
X113087816Y-79420354D01*
X113033461Y-79599537D01*
X113033459Y-79599542D01*
X112945195Y-79764674D01*
X112826407Y-79909417D01*
X112681664Y-80028205D01*
X112516532Y-80116469D01*
X112516529Y-80116470D01*
X112516527Y-80116471D01*
X112337344Y-80170826D01*
X112151000Y-80189179D01*
X111964657Y-80170826D01*
X111785474Y-80116471D01*
X111785472Y-80116470D01*
X111785469Y-80116469D01*
X111620337Y-80028205D01*
X111475594Y-79909417D01*
X111356806Y-79764674D01*
X111268539Y-79599537D01*
X111214184Y-79420356D01*
X111200430Y-79280707D01*
X111200430Y-78189094D01*
X111214184Y-78049450D01*
X111214184Y-78049447D01*
X111268539Y-77870264D01*
X111268540Y-77870262D01*
X111268541Y-77870259D01*
X111356805Y-77705126D01*
X111475593Y-77560383D01*
X111620336Y-77441595D01*
X111785468Y-77353331D01*
X111785471Y-77353330D01*
X111785473Y-77353329D01*
X111964656Y-77298974D01*
X112151000Y-77280621D01*
X112337343Y-77298974D01*
X112337343Y-77298974D01*
G37*
G36*
X186119000Y-79566500D02*
X184019000Y-79566500D01*
X184019000Y-77466500D01*
X186119000Y-77466500D01*
X186119000Y-79566500D01*
X186119000Y-79566500D01*
G37*
G36*
X103157430Y-76474269D02*
X103157433Y-76474270D01*
X103157434Y-76474270D01*
X103345935Y-76531451D01*
X103345937Y-76531452D01*
X103519660Y-76624309D01*
X103671928Y-76749272D01*
X103796891Y-76901540D01*
X103889748Y-77075263D01*
X103946931Y-77263770D01*
X103966238Y-77459800D01*
X103946931Y-77655830D01*
X103889748Y-77844337D01*
X103796891Y-78018060D01*
X103671928Y-78170328D01*
X103519660Y-78295291D01*
X103519658Y-78295292D01*
X103345935Y-78388149D01*
X103157434Y-78445330D01*
X103157433Y-78445330D01*
X103157430Y-78445331D01*
X103010524Y-78459800D01*
X102912276Y-78459800D01*
X102765370Y-78445331D01*
X102765367Y-78445330D01*
X102765366Y-78445330D01*
X102576865Y-78388149D01*
X102403142Y-78295292D01*
X102403140Y-78295291D01*
X102250872Y-78170328D01*
X102125909Y-78018060D01*
X102033052Y-77844337D01*
X101975869Y-77655830D01*
X101956562Y-77459800D01*
X101975869Y-77263770D01*
X102033052Y-77075263D01*
X102125909Y-76901540D01*
X102250872Y-76749272D01*
X102403140Y-76624309D01*
X102576863Y-76531452D01*
X102576865Y-76531451D01*
X102765366Y-76474270D01*
X102765367Y-76474270D01*
X102765370Y-76474269D01*
X102912276Y-76459800D01*
X103010524Y-76459800D01*
X103157430Y-76474269D01*
X103157430Y-76474269D01*
G37*
G36*
X95537430Y-76474269D02*
X95537433Y-76474270D01*
X95537434Y-76474270D01*
X95725935Y-76531451D01*
X95725937Y-76531452D01*
X95899660Y-76624309D01*
X96051928Y-76749272D01*
X96176891Y-76901540D01*
X96269748Y-77075263D01*
X96326931Y-77263770D01*
X96346238Y-77459800D01*
X96326931Y-77655830D01*
X96269748Y-77844337D01*
X96176891Y-78018060D01*
X96051928Y-78170328D01*
X95899660Y-78295291D01*
X95899658Y-78295292D01*
X95725935Y-78388149D01*
X95537434Y-78445330D01*
X95537433Y-78445330D01*
X95537430Y-78445331D01*
X95390524Y-78459800D01*
X95292276Y-78459800D01*
X95145370Y-78445331D01*
X95145367Y-78445330D01*
X95145366Y-78445330D01*
X94956865Y-78388149D01*
X94783142Y-78295292D01*
X94783140Y-78295291D01*
X94630872Y-78170328D01*
X94505909Y-78018060D01*
X94413052Y-77844337D01*
X94355869Y-77655830D01*
X94336562Y-77459800D01*
X94355869Y-77263770D01*
X94413052Y-77075263D01*
X94505909Y-76901540D01*
X94630872Y-76749272D01*
X94783140Y-76624309D01*
X94956863Y-76531452D01*
X94956865Y-76531451D01*
X95145366Y-76474270D01*
X95145367Y-76474270D01*
X95145370Y-76474269D01*
X95292276Y-76459800D01*
X95390524Y-76459800D01*
X95537430Y-76474269D01*
X95537430Y-76474269D01*
G37*
G36*
X96341400Y-75919800D02*
X94341400Y-75919800D01*
X94341400Y-73919800D01*
X96341400Y-73919800D01*
X96341400Y-75919800D01*
X96341400Y-75919800D01*
G37*
G36*
X103157430Y-73934269D02*
X103157433Y-73934270D01*
X103157434Y-73934270D01*
X103345935Y-73991451D01*
X103345937Y-73991452D01*
X103519660Y-74084309D01*
X103671928Y-74209272D01*
X103796891Y-74361540D01*
X103889748Y-74535263D01*
X103946931Y-74723770D01*
X103966238Y-74919800D01*
X103946931Y-75115830D01*
X103889748Y-75304337D01*
X103796891Y-75478060D01*
X103671928Y-75630328D01*
X103519660Y-75755291D01*
X103519658Y-75755292D01*
X103345935Y-75848149D01*
X103157434Y-75905330D01*
X103157433Y-75905330D01*
X103157430Y-75905331D01*
X103010524Y-75919800D01*
X102912276Y-75919800D01*
X102765370Y-75905331D01*
X102765367Y-75905330D01*
X102765366Y-75905330D01*
X102576865Y-75848149D01*
X102403142Y-75755292D01*
X102403140Y-75755291D01*
X102250872Y-75630328D01*
X102125909Y-75478060D01*
X102033052Y-75304337D01*
X101975869Y-75115830D01*
X101956562Y-74919800D01*
X101975869Y-74723770D01*
X102033052Y-74535263D01*
X102125909Y-74361540D01*
X102250872Y-74209272D01*
X102403140Y-74084309D01*
X102576863Y-73991452D01*
X102576865Y-73991451D01*
X102765366Y-73934270D01*
X102765367Y-73934270D01*
X102765370Y-73934269D01*
X102912276Y-73919800D01*
X103010524Y-73919800D01*
X103157430Y-73934269D01*
X103157430Y-73934269D01*
G37*
G36*
X187239603Y-55918768D02*
X187239606Y-55918769D01*
X187239605Y-55918769D01*
X187414678Y-55991286D01*
X187414679Y-55991287D01*
X187572241Y-56096567D01*
X187706233Y-56230559D01*
X187706234Y-56230561D01*
X187811514Y-56388122D01*
X187867214Y-56522595D01*
X187884032Y-56563197D01*
X187921000Y-56749050D01*
X187921000Y-56938550D01*
X187884032Y-57124403D01*
X187884031Y-57124405D01*
X187811514Y-57299478D01*
X187811513Y-57299479D01*
X187706233Y-57457041D01*
X187572241Y-57591033D01*
X187492923Y-57644032D01*
X187414678Y-57696314D01*
X187300924Y-57743432D01*
X187239603Y-57768832D01*
X187053750Y-57805800D01*
X186864250Y-57805800D01*
X186678397Y-57768832D01*
X186617076Y-57743432D01*
X186503322Y-57696314D01*
X186425077Y-57644032D01*
X186345759Y-57591033D01*
X186211767Y-57457041D01*
X186106487Y-57299479D01*
X186106486Y-57299478D01*
X186033969Y-57124405D01*
X186033968Y-57124403D01*
X185997000Y-56938550D01*
X185997000Y-56749050D01*
X186033968Y-56563197D01*
X186050786Y-56522595D01*
X186106486Y-56388122D01*
X186211766Y-56230561D01*
X186211767Y-56230559D01*
X186345759Y-56096567D01*
X186503321Y-55991287D01*
X186503322Y-55991286D01*
X186678395Y-55918769D01*
X186678394Y-55918769D01*
X186678397Y-55918768D01*
X186864250Y-55881800D01*
X187053750Y-55881800D01*
X187239603Y-55918768D01*
X187239603Y-55918768D01*
G37*
G36*
X126980603Y-55893368D02*
X126980606Y-55893369D01*
X126980605Y-55893369D01*
X127155678Y-55965886D01*
X127155679Y-55965887D01*
X127313241Y-56071167D01*
X127447233Y-56205159D01*
X127447234Y-56205161D01*
X127552514Y-56362722D01*
X127608603Y-56498134D01*
X127625032Y-56537797D01*
X127662000Y-56723650D01*
X127662000Y-56913150D01*
X127625032Y-57099003D01*
X127625031Y-57099005D01*
X127552514Y-57274078D01*
X127552513Y-57274079D01*
X127447233Y-57431641D01*
X127313241Y-57565633D01*
X127275227Y-57591033D01*
X127155678Y-57670914D01*
X127094356Y-57696314D01*
X126980603Y-57743432D01*
X126794750Y-57780400D01*
X126605250Y-57780400D01*
X126419397Y-57743432D01*
X126305644Y-57696314D01*
X126244322Y-57670914D01*
X126124773Y-57591033D01*
X126086759Y-57565633D01*
X125952767Y-57431641D01*
X125847487Y-57274079D01*
X125847486Y-57274078D01*
X125774969Y-57099005D01*
X125774968Y-57099003D01*
X125738000Y-56913150D01*
X125738000Y-56723650D01*
X125774968Y-56537797D01*
X125791397Y-56498134D01*
X125847486Y-56362722D01*
X125952766Y-56205161D01*
X125952767Y-56205159D01*
X126086759Y-56071167D01*
X126244321Y-55965887D01*
X126244322Y-55965886D01*
X126419395Y-55893369D01*
X126419394Y-55893369D01*
X126419397Y-55893368D01*
X126605250Y-55856400D01*
X126794750Y-55856400D01*
X126980603Y-55893368D01*
X126980603Y-55893368D01*
G37*
G36*
X157099603Y-55878168D02*
X157099606Y-55878169D01*
X157099605Y-55878169D01*
X157274678Y-55950686D01*
X157335441Y-55991287D01*
X157432241Y-56055967D01*
X157566233Y-56189959D01*
X157619232Y-56269277D01*
X157671514Y-56347522D01*
X157688331Y-56388122D01*
X157744032Y-56522597D01*
X157781000Y-56708450D01*
X157781000Y-56897950D01*
X157744032Y-57083803D01*
X157744031Y-57083805D01*
X157671514Y-57258878D01*
X157661357Y-57274079D01*
X157566233Y-57416441D01*
X157432241Y-57550433D01*
X157352923Y-57603432D01*
X157274678Y-57655714D01*
X157176660Y-57696314D01*
X157099603Y-57728232D01*
X156913750Y-57765200D01*
X156724250Y-57765200D01*
X156538397Y-57728232D01*
X156461340Y-57696314D01*
X156363322Y-57655714D01*
X156285077Y-57603432D01*
X156205759Y-57550433D01*
X156071767Y-57416441D01*
X155976643Y-57274079D01*
X155966486Y-57258878D01*
X155893969Y-57083805D01*
X155893968Y-57083803D01*
X155857000Y-56897950D01*
X155857000Y-56708450D01*
X155893968Y-56522597D01*
X155949669Y-56388122D01*
X155966486Y-56347522D01*
X156018768Y-56269277D01*
X156071767Y-56189959D01*
X156205759Y-56055967D01*
X156302559Y-55991287D01*
X156363322Y-55950686D01*
X156538395Y-55878169D01*
X156538394Y-55878169D01*
X156538397Y-55878168D01*
X156724250Y-55841200D01*
X156913750Y-55841200D01*
X157099603Y-55878168D01*
X157099603Y-55878168D01*
G37*
G36*
X184489603Y-51518768D02*
X184489606Y-51518769D01*
X184489605Y-51518769D01*
X184664678Y-51591286D01*
X184742923Y-51643568D01*
X184822241Y-51696567D01*
X184956233Y-51830559D01*
X184956234Y-51830561D01*
X185061514Y-51988122D01*
X185102800Y-52087797D01*
X185134032Y-52163197D01*
X185171000Y-52349050D01*
X185171000Y-52538550D01*
X185134032Y-52724403D01*
X185134031Y-52724405D01*
X185061514Y-52899478D01*
X185061513Y-52899479D01*
X184956233Y-53057041D01*
X184822241Y-53191033D01*
X184777521Y-53220914D01*
X184664678Y-53296314D01*
X184550924Y-53343432D01*
X184489603Y-53368832D01*
X184303750Y-53405800D01*
X184114250Y-53405800D01*
X183928397Y-53368832D01*
X183867076Y-53343432D01*
X183753322Y-53296314D01*
X183640479Y-53220914D01*
X183595759Y-53191033D01*
X183461767Y-53057041D01*
X183356487Y-52899479D01*
X183356486Y-52899478D01*
X183283969Y-52724405D01*
X183283968Y-52724403D01*
X183247000Y-52538550D01*
X183247000Y-52349050D01*
X183283968Y-52163197D01*
X183315200Y-52087797D01*
X183356486Y-51988122D01*
X183461766Y-51830561D01*
X183461767Y-51830559D01*
X183595759Y-51696567D01*
X183675077Y-51643568D01*
X183753322Y-51591286D01*
X183928395Y-51518769D01*
X183928394Y-51518769D01*
X183928397Y-51518768D01*
X184114250Y-51481800D01*
X184303750Y-51481800D01*
X184489603Y-51518768D01*
X184489603Y-51518768D01*
G37*
G36*
X124230603Y-51493368D02*
X124270266Y-51509797D01*
X124405678Y-51565886D01*
X124405679Y-51565887D01*
X124563241Y-51671167D01*
X124697233Y-51805159D01*
X124697234Y-51805161D01*
X124802514Y-51962722D01*
X124848025Y-52072597D01*
X124875032Y-52137797D01*
X124912000Y-52323650D01*
X124912000Y-52513150D01*
X124875032Y-52699003D01*
X124875031Y-52699005D01*
X124802514Y-52874078D01*
X124802513Y-52874079D01*
X124697233Y-53031641D01*
X124563241Y-53165633D01*
X124525227Y-53191033D01*
X124405678Y-53270914D01*
X124344356Y-53296314D01*
X124230603Y-53343432D01*
X124044750Y-53380400D01*
X123855250Y-53380400D01*
X123669397Y-53343432D01*
X123555644Y-53296314D01*
X123494322Y-53270914D01*
X123374773Y-53191033D01*
X123336759Y-53165633D01*
X123202767Y-53031641D01*
X123097487Y-52874079D01*
X123097486Y-52874078D01*
X123024969Y-52699005D01*
X123024968Y-52699003D01*
X122988000Y-52513150D01*
X122988000Y-52323650D01*
X123024968Y-52137797D01*
X123051975Y-52072597D01*
X123097486Y-51962722D01*
X123202766Y-51805161D01*
X123202767Y-51805159D01*
X123336759Y-51671167D01*
X123494321Y-51565887D01*
X123494322Y-51565886D01*
X123629734Y-51509797D01*
X123669397Y-51493368D01*
X123855250Y-51456400D01*
X124044750Y-51456400D01*
X124230603Y-51493368D01*
X124230603Y-51493368D01*
G37*
G36*
X154349603Y-51478168D02*
X154349606Y-51478169D01*
X154349605Y-51478169D01*
X154524678Y-51550686D01*
X154585441Y-51591287D01*
X154682241Y-51655967D01*
X154816233Y-51789959D01*
X154869232Y-51869277D01*
X154921514Y-51947522D01*
X154938331Y-51988122D01*
X154994032Y-52122597D01*
X155031000Y-52308450D01*
X155031000Y-52497950D01*
X154994032Y-52683803D01*
X154994031Y-52683805D01*
X154921514Y-52858878D01*
X154911357Y-52874079D01*
X154816233Y-53016441D01*
X154682241Y-53150433D01*
X154602923Y-53203432D01*
X154524678Y-53255714D01*
X154426660Y-53296314D01*
X154349603Y-53328232D01*
X154163750Y-53365200D01*
X153974250Y-53365200D01*
X153788397Y-53328232D01*
X153711340Y-53296314D01*
X153613322Y-53255714D01*
X153535077Y-53203432D01*
X153455759Y-53150433D01*
X153321767Y-53016441D01*
X153226643Y-52874079D01*
X153216486Y-52858878D01*
X153143969Y-52683805D01*
X153143968Y-52683803D01*
X153107000Y-52497950D01*
X153107000Y-52308450D01*
X153143968Y-52122597D01*
X153199669Y-51988122D01*
X153216486Y-51947522D01*
X153268768Y-51869277D01*
X153321767Y-51789959D01*
X153455759Y-51655967D01*
X153552559Y-51591287D01*
X153613322Y-51550686D01*
X153788395Y-51478169D01*
X153788394Y-51478169D01*
X153788397Y-51478168D01*
X153974250Y-51441200D01*
X154163750Y-51441200D01*
X154349603Y-51478168D01*
X154349603Y-51478168D01*
G37*
G36*
X179289603Y-51468768D02*
X179312299Y-51478169D01*
X179464678Y-51541286D01*
X179539509Y-51591287D01*
X179622241Y-51646567D01*
X179756233Y-51780559D01*
X179789642Y-51830559D01*
X179861514Y-51938122D01*
X179917214Y-52072595D01*
X179934032Y-52113197D01*
X179971000Y-52299050D01*
X179971000Y-52488550D01*
X179934032Y-52674403D01*
X179923842Y-52699003D01*
X179861514Y-52849478D01*
X179845076Y-52874079D01*
X179756233Y-53007041D01*
X179622241Y-53141033D01*
X179542923Y-53194032D01*
X179464678Y-53246314D01*
X179350924Y-53293432D01*
X179289603Y-53318832D01*
X179103750Y-53355800D01*
X178914250Y-53355800D01*
X178728397Y-53318832D01*
X178667076Y-53293432D01*
X178553322Y-53246314D01*
X178475077Y-53194032D01*
X178395759Y-53141033D01*
X178261767Y-53007041D01*
X178172924Y-52874079D01*
X178156486Y-52849478D01*
X178094158Y-52699003D01*
X178083968Y-52674403D01*
X178047000Y-52488550D01*
X178047000Y-52299050D01*
X178083968Y-52113197D01*
X178100786Y-52072595D01*
X178156486Y-51938122D01*
X178228358Y-51830559D01*
X178261767Y-51780559D01*
X178395759Y-51646567D01*
X178478491Y-51591287D01*
X178553322Y-51541286D01*
X178705701Y-51478169D01*
X178728397Y-51468768D01*
X178914250Y-51431800D01*
X179103750Y-51431800D01*
X179289603Y-51468768D01*
X179289603Y-51468768D01*
G37*
G36*
X119030603Y-51443368D02*
X119030606Y-51443369D01*
X119030605Y-51443369D01*
X119205678Y-51515886D01*
X119280509Y-51565887D01*
X119363241Y-51621167D01*
X119497233Y-51755159D01*
X119497234Y-51755161D01*
X119602514Y-51912722D01*
X119633745Y-51988121D01*
X119675032Y-52087797D01*
X119712000Y-52273650D01*
X119712000Y-52463150D01*
X119675032Y-52649003D01*
X119658603Y-52688666D01*
X119602514Y-52824078D01*
X119602513Y-52824079D01*
X119497233Y-52981641D01*
X119363241Y-53115633D01*
X119283923Y-53168632D01*
X119205678Y-53220914D01*
X119084969Y-53270913D01*
X119030603Y-53293432D01*
X118844750Y-53330400D01*
X118655250Y-53330400D01*
X118469397Y-53293432D01*
X118415031Y-53270913D01*
X118294322Y-53220914D01*
X118216077Y-53168632D01*
X118136759Y-53115633D01*
X118002767Y-52981641D01*
X117897487Y-52824079D01*
X117897486Y-52824078D01*
X117841397Y-52688666D01*
X117824968Y-52649003D01*
X117788000Y-52463150D01*
X117788000Y-52273650D01*
X117824968Y-52087797D01*
X117866255Y-51988121D01*
X117897486Y-51912722D01*
X118002766Y-51755161D01*
X118002767Y-51755159D01*
X118136759Y-51621167D01*
X118219491Y-51565887D01*
X118294322Y-51515886D01*
X118469395Y-51443369D01*
X118469394Y-51443369D01*
X118469397Y-51443368D01*
X118655250Y-51406400D01*
X118844750Y-51406400D01*
X119030603Y-51443368D01*
X119030603Y-51443368D01*
G37*
G36*
X149149603Y-51428168D02*
X149149606Y-51428169D01*
X149149605Y-51428169D01*
X149324678Y-51500686D01*
X149399509Y-51550687D01*
X149482241Y-51605967D01*
X149616233Y-51739959D01*
X149649642Y-51789959D01*
X149721514Y-51897522D01*
X149748520Y-51962721D01*
X149794032Y-52072597D01*
X149831000Y-52258450D01*
X149831000Y-52447950D01*
X149794032Y-52633803D01*
X149794031Y-52633805D01*
X149721514Y-52808878D01*
X149711357Y-52824079D01*
X149616233Y-52966441D01*
X149482241Y-53100433D01*
X149402923Y-53153432D01*
X149324678Y-53205714D01*
X149226660Y-53246314D01*
X149149603Y-53278232D01*
X148963750Y-53315200D01*
X148774250Y-53315200D01*
X148588397Y-53278232D01*
X148511340Y-53246314D01*
X148413322Y-53205714D01*
X148335077Y-53153432D01*
X148255759Y-53100433D01*
X148121767Y-52966441D01*
X148026643Y-52824079D01*
X148016486Y-52808878D01*
X147943969Y-52633805D01*
X147943968Y-52633803D01*
X147907000Y-52447950D01*
X147907000Y-52258450D01*
X147943968Y-52072597D01*
X147989480Y-51962721D01*
X148016486Y-51897522D01*
X148088358Y-51789959D01*
X148121767Y-51739959D01*
X148255759Y-51605967D01*
X148338491Y-51550687D01*
X148413322Y-51500686D01*
X148588395Y-51428169D01*
X148588394Y-51428169D01*
X148588397Y-51428168D01*
X148774250Y-51391200D01*
X148963750Y-51391200D01*
X149149603Y-51428168D01*
X149149603Y-51428168D01*
G37*
G36*
X179289603Y-46018768D02*
X179289606Y-46018769D01*
X179289605Y-46018769D01*
X179464678Y-46091286D01*
X179464679Y-46091287D01*
X179622241Y-46196567D01*
X179756233Y-46330559D01*
X179756234Y-46330561D01*
X179861514Y-46488122D01*
X179917214Y-46622595D01*
X179934032Y-46663197D01*
X179971000Y-46849050D01*
X179971000Y-47038550D01*
X179934032Y-47224403D01*
X179934031Y-47224405D01*
X179861514Y-47399478D01*
X179861513Y-47399479D01*
X179756233Y-47557041D01*
X179622241Y-47691033D01*
X179542923Y-47744032D01*
X179464678Y-47796314D01*
X179350924Y-47843432D01*
X179289603Y-47868832D01*
X179103750Y-47905800D01*
X178914250Y-47905800D01*
X178728397Y-47868832D01*
X178667076Y-47843432D01*
X178553322Y-47796314D01*
X178475077Y-47744032D01*
X178395759Y-47691033D01*
X178261767Y-47557041D01*
X178156487Y-47399479D01*
X178156486Y-47399478D01*
X178083969Y-47224405D01*
X178083968Y-47224403D01*
X178047000Y-47038550D01*
X178047000Y-46849050D01*
X178083968Y-46663197D01*
X178100786Y-46622595D01*
X178156486Y-46488122D01*
X178261766Y-46330561D01*
X178261767Y-46330559D01*
X178395759Y-46196567D01*
X178553321Y-46091287D01*
X178553322Y-46091286D01*
X178728395Y-46018769D01*
X178728394Y-46018769D01*
X178728397Y-46018768D01*
X178914250Y-45981800D01*
X179103750Y-45981800D01*
X179289603Y-46018768D01*
X179289603Y-46018768D01*
G37*
G36*
X119030603Y-45993368D02*
X119030606Y-45993369D01*
X119030605Y-45993369D01*
X119205678Y-46065886D01*
X119205679Y-46065887D01*
X119363241Y-46171167D01*
X119497233Y-46305159D01*
X119497234Y-46305161D01*
X119602514Y-46462722D01*
X119658603Y-46598134D01*
X119675032Y-46637797D01*
X119712000Y-46823650D01*
X119712000Y-47013150D01*
X119675032Y-47199003D01*
X119675031Y-47199005D01*
X119602514Y-47374078D01*
X119602513Y-47374079D01*
X119497233Y-47531641D01*
X119363241Y-47665633D01*
X119325227Y-47691033D01*
X119205678Y-47770914D01*
X119144356Y-47796314D01*
X119030603Y-47843432D01*
X118844750Y-47880400D01*
X118655250Y-47880400D01*
X118469397Y-47843432D01*
X118355644Y-47796314D01*
X118294322Y-47770914D01*
X118174773Y-47691033D01*
X118136759Y-47665633D01*
X118002767Y-47531641D01*
X117897487Y-47374079D01*
X117897486Y-47374078D01*
X117824969Y-47199005D01*
X117824968Y-47199003D01*
X117788000Y-47013150D01*
X117788000Y-46823650D01*
X117824968Y-46637797D01*
X117841397Y-46598134D01*
X117897486Y-46462722D01*
X118002766Y-46305161D01*
X118002767Y-46305159D01*
X118136759Y-46171167D01*
X118294321Y-46065887D01*
X118294322Y-46065886D01*
X118469395Y-45993369D01*
X118469394Y-45993369D01*
X118469397Y-45993368D01*
X118655250Y-45956400D01*
X118844750Y-45956400D01*
X119030603Y-45993368D01*
X119030603Y-45993368D01*
G37*
G36*
X149149603Y-45978168D02*
X149149606Y-45978169D01*
X149149605Y-45978169D01*
X149324678Y-46050686D01*
X149385441Y-46091287D01*
X149482241Y-46155967D01*
X149616233Y-46289959D01*
X149669232Y-46369277D01*
X149721514Y-46447522D01*
X149738331Y-46488122D01*
X149794032Y-46622597D01*
X149831000Y-46808450D01*
X149831000Y-46997950D01*
X149794032Y-47183803D01*
X149794031Y-47183805D01*
X149721514Y-47358878D01*
X149711357Y-47374079D01*
X149616233Y-47516441D01*
X149482241Y-47650433D01*
X149402923Y-47703432D01*
X149324678Y-47755714D01*
X149226660Y-47796314D01*
X149149603Y-47828232D01*
X148963750Y-47865200D01*
X148774250Y-47865200D01*
X148588397Y-47828232D01*
X148511340Y-47796314D01*
X148413322Y-47755714D01*
X148335077Y-47703432D01*
X148255759Y-47650433D01*
X148121767Y-47516441D01*
X148026643Y-47374079D01*
X148016486Y-47358878D01*
X147943969Y-47183805D01*
X147943968Y-47183803D01*
X147907000Y-46997950D01*
X147907000Y-46808450D01*
X147943968Y-46622597D01*
X147999669Y-46488122D01*
X148016486Y-46447522D01*
X148068768Y-46369277D01*
X148121767Y-46289959D01*
X148255759Y-46155967D01*
X148352559Y-46091287D01*
X148413322Y-46050686D01*
X148588395Y-45978169D01*
X148588394Y-45978169D01*
X148588397Y-45978168D01*
X148774250Y-45941200D01*
X148963750Y-45941200D01*
X149149603Y-45978168D01*
X149149603Y-45978168D01*
G37*
M02*
