G04 #@! TF.GenerationSoftware,KiCad,Pcbnew,5.0.2-bee76a0~70~ubuntu18.10.1*
G04 #@! TF.CreationDate,2019-03-31T19:05:15-04:00*
G04 #@! TF.ProjectId,Helios,48656c69-6f73-42e6-9b69-6361645f7063,rev?*
G04 #@! TF.SameCoordinates,Original*
G04 #@! TF.FileFunction,Copper,L1,Top*
G04 #@! TF.FilePolarity,Positive*
%FSLAX46Y46*%
G04 Gerber Fmt 4.6, Leading zero omitted, Abs format (unit mm)*
G04 Created by KiCad (PCBNEW 5.0.2-bee76a0~70~ubuntu18.10.1) date Sun 31 Mar 2019 07:05:15 PM EDT*
%MOMM*%
%LPD*%
G01*
G04 APERTURE LIST*
G04 #@! TA.AperFunction,SMDPad,CuDef*
%ADD10R,3.000000X1.600000*%
G04 #@! TD*
G04 #@! TA.AperFunction,SMDPad,CuDef*
%ADD11R,1.600000X2.000000*%
G04 #@! TD*
G04 #@! TA.AperFunction,SMDPad,CuDef*
%ADD12R,2.000000X1.600000*%
G04 #@! TD*
G04 #@! TA.AperFunction,ComponentPad*
%ADD13R,1.700000X1.700000*%
G04 #@! TD*
G04 #@! TA.AperFunction,ComponentPad*
%ADD14O,1.700000X1.700000*%
G04 #@! TD*
G04 #@! TA.AperFunction,SMDPad,CuDef*
%ADD15R,1.600000X1.000000*%
G04 #@! TD*
G04 #@! TA.AperFunction,SMDPad,CuDef*
%ADD16R,0.800000X1.900000*%
G04 #@! TD*
G04 #@! TA.AperFunction,SMDPad,CuDef*
%ADD17R,1.000000X1.600000*%
G04 #@! TD*
G04 #@! TA.AperFunction,SMDPad,CuDef*
%ADD18R,2.000000X1.700000*%
G04 #@! TD*
G04 #@! TA.AperFunction,SMDPad,CuDef*
%ADD19R,1.700000X2.000000*%
G04 #@! TD*
G04 #@! TA.AperFunction,SMDPad,CuDef*
%ADD20R,2.000000X2.500000*%
G04 #@! TD*
G04 #@! TA.AperFunction,SMDPad,CuDef*
%ADD21R,1.500000X0.280000*%
G04 #@! TD*
G04 #@! TA.AperFunction,SMDPad,CuDef*
%ADD22R,0.280000X1.500000*%
G04 #@! TD*
G04 #@! TA.AperFunction,SMDPad,CuDef*
%ADD23R,1.750000X0.550000*%
G04 #@! TD*
G04 #@! TA.AperFunction,SMDPad,CuDef*
%ADD24R,1.750000X0.450000*%
G04 #@! TD*
G04 #@! TA.AperFunction,ComponentPad*
%ADD25O,1.501140X2.499360*%
G04 #@! TD*
G04 #@! TA.AperFunction,SMDPad,CuDef*
%ADD26R,1.600000X3.500000*%
G04 #@! TD*
G04 #@! TA.AperFunction,SMDPad,CuDef*
%ADD27R,3.500000X3.500000*%
G04 #@! TD*
G04 #@! TA.AperFunction,ComponentPad*
%ADD28C,1.524000*%
G04 #@! TD*
G04 #@! TA.AperFunction,Conductor*
%ADD29C,0.100000*%
G04 #@! TD*
G04 #@! TA.AperFunction,SMDPad,CuDef*
%ADD30C,1.125000*%
G04 #@! TD*
G04 #@! TA.AperFunction,SMDPad,CuDef*
%ADD31R,2.000000X3.800000*%
G04 #@! TD*
G04 #@! TA.AperFunction,SMDPad,CuDef*
%ADD32R,2.000000X1.500000*%
G04 #@! TD*
G04 #@! TA.AperFunction,SMDPad,CuDef*
%ADD33C,1.250000*%
G04 #@! TD*
G04 #@! TA.AperFunction,ComponentPad*
%ADD34R,1.600000X1.600000*%
G04 #@! TD*
G04 #@! TA.AperFunction,ComponentPad*
%ADD35O,1.600000X1.600000*%
G04 #@! TD*
G04 #@! TA.AperFunction,SMDPad,CuDef*
%ADD36R,1.500000X1.200000*%
G04 #@! TD*
G04 #@! TA.AperFunction,ViaPad*
%ADD37C,0.600000*%
G04 #@! TD*
G04 #@! TA.AperFunction,Conductor*
%ADD38C,0.250000*%
G04 #@! TD*
G04 APERTURE END LIST*
D10*
G04 #@! TO.P,C1,1*
G04 #@! TO.N,+3V3*
X115184000Y-93487200D03*
G04 #@! TO.P,C1,2*
G04 #@! TO.N,GND*
X110784000Y-93487200D03*
G04 #@! TD*
D11*
G04 #@! TO.P,C2,1*
G04 #@! TO.N,+3V3*
X147828000Y-84106000D03*
G04 #@! TO.P,C2,2*
G04 #@! TO.N,GND*
X147828000Y-88106000D03*
G04 #@! TD*
G04 #@! TO.P,C3,1*
G04 #@! TO.N,+3V3*
X147574000Y-96742000D03*
G04 #@! TO.P,C3,2*
G04 #@! TO.N,GND*
X147574000Y-92742000D03*
G04 #@! TD*
D12*
G04 #@! TO.P,C4,1*
G04 #@! TO.N,+3V3*
X145002000Y-101600000D03*
G04 #@! TO.P,C4,2*
G04 #@! TO.N,GND*
X141002000Y-101600000D03*
G04 #@! TD*
G04 #@! TO.P,C5,1*
G04 #@! TO.N,+3V3*
X128556000Y-101600000D03*
G04 #@! TO.P,C5,2*
G04 #@! TO.N,GND*
X132556000Y-101600000D03*
G04 #@! TD*
G04 #@! TO.P,C6,1*
G04 #@! TO.N,+3V3*
X130100000Y-78800000D03*
G04 #@! TO.P,C6,2*
G04 #@! TO.N,GND*
X134100000Y-78800000D03*
G04 #@! TD*
G04 #@! TO.P,C7,1*
G04 #@! TO.N,+3V3*
X142100000Y-78700000D03*
G04 #@! TO.P,C7,2*
G04 #@! TO.N,GND*
X138100000Y-78700000D03*
G04 #@! TD*
D11*
G04 #@! TO.P,C8,1*
G04 #@! TO.N,+3V3*
X124000000Y-85200000D03*
G04 #@! TO.P,C8,2*
G04 #@! TO.N,GND*
X124000000Y-89200000D03*
G04 #@! TD*
G04 #@! TO.P,C9,1*
G04 #@! TO.N,+3V3*
X124000000Y-96100000D03*
G04 #@! TO.P,C9,2*
G04 #@! TO.N,GND*
X124000000Y-92100000D03*
G04 #@! TD*
G04 #@! TO.P,C10,1*
G04 #@! TO.N,GND*
X146050000Y-72104000D03*
G04 #@! TO.P,C10,2*
G04 #@! TO.N,+3V3*
X146050000Y-68104000D03*
G04 #@! TD*
D12*
G04 #@! TO.P,C11,1*
G04 #@! TO.N,GND*
X108760000Y-103630000D03*
G04 #@! TO.P,C11,2*
G04 #@! TO.N,+3V3*
X104760000Y-103630000D03*
G04 #@! TD*
G04 #@! TO.P,C12,1*
G04 #@! TO.N,GND*
X96720000Y-103520000D03*
G04 #@! TO.P,C12,2*
G04 #@! TO.N,+3V3*
X100720000Y-103520000D03*
G04 #@! TD*
G04 #@! TO.P,C13,1*
G04 #@! TO.N,RTD-1*
X101770000Y-117350000D03*
G04 #@! TO.P,C13,2*
G04 #@! TO.N,RTDb1*
X105770000Y-117350000D03*
G04 #@! TD*
G04 #@! TO.P,C14,1*
G04 #@! TO.N,GND*
X127840000Y-105780000D03*
G04 #@! TO.P,C14,2*
G04 #@! TO.N,+3V3*
X123840000Y-105780000D03*
G04 #@! TD*
G04 #@! TO.P,C15,1*
G04 #@! TO.N,GND*
X116020000Y-105560000D03*
G04 #@! TO.P,C15,2*
G04 #@! TO.N,+3V3*
X120020000Y-105560000D03*
G04 #@! TD*
G04 #@! TO.P,C16,1*
G04 #@! TO.N,RTD-2*
X123370000Y-118470000D03*
G04 #@! TO.P,C16,2*
G04 #@! TO.N,RTDb2*
X119370000Y-118470000D03*
G04 #@! TD*
G04 #@! TO.P,C17,1*
G04 #@! TO.N,GND*
X134510000Y-105950000D03*
G04 #@! TO.P,C17,2*
G04 #@! TO.N,+3V3*
X138510000Y-105950000D03*
G04 #@! TD*
G04 #@! TO.P,C18,1*
G04 #@! TO.N,GND*
X146560000Y-105780000D03*
G04 #@! TO.P,C18,2*
G04 #@! TO.N,+3V3*
X142560000Y-105780000D03*
G04 #@! TD*
G04 #@! TO.P,C19,1*
G04 #@! TO.N,RTD-3*
X143990000Y-118910000D03*
G04 #@! TO.P,C19,2*
G04 #@! TO.N,RTDb3*
X139990000Y-118910000D03*
G04 #@! TD*
G04 #@! TO.P,C20,1*
G04 #@! TO.N,GND*
X165220000Y-105120000D03*
G04 #@! TO.P,C20,2*
G04 #@! TO.N,+3V3*
X161220000Y-105120000D03*
G04 #@! TD*
G04 #@! TO.P,C21,1*
G04 #@! TO.N,GND*
X152720000Y-105040000D03*
G04 #@! TO.P,C21,2*
G04 #@! TO.N,+3V3*
X156720000Y-105040000D03*
G04 #@! TD*
G04 #@! TO.P,C22,1*
G04 #@! TO.N,RTD-4*
X163700000Y-118680000D03*
G04 #@! TO.P,C22,2*
G04 #@! TO.N,RTDb4*
X159700000Y-118680000D03*
G04 #@! TD*
G04 #@! TO.P,C23,1*
G04 #@! TO.N,GND*
X170550000Y-104890000D03*
G04 #@! TO.P,C23,2*
G04 #@! TO.N,+3V3*
X174550000Y-104890000D03*
G04 #@! TD*
G04 #@! TO.P,C24,1*
G04 #@! TO.N,GND*
X182940000Y-104890000D03*
G04 #@! TO.P,C24,2*
G04 #@! TO.N,+3V3*
X178940000Y-104890000D03*
G04 #@! TD*
G04 #@! TO.P,C25,1*
G04 #@! TO.N,RTD-5*
X179440000Y-118770000D03*
G04 #@! TO.P,C25,2*
G04 #@! TO.N,RTDb5*
X175440000Y-118770000D03*
G04 #@! TD*
D13*
G04 #@! TO.P,CON1,1*
G04 #@! TO.N,Net-(CON1-Pad1)*
X157627000Y-97388700D03*
D14*
G04 #@! TO.P,CON1,2*
G04 #@! TO.N,GND*
X157627000Y-94848700D03*
G04 #@! TO.P,CON1,3*
G04 #@! TO.N,Net-(CON1-Pad3)*
X160167000Y-97388700D03*
G04 #@! TO.P,CON1,4*
G04 #@! TO.N,+3V3*
X160167000Y-94848700D03*
G04 #@! TO.P,CON1,5*
G04 #@! TO.N,Net-(CON1-Pad5)*
X162707000Y-97388700D03*
G04 #@! TO.P,CON1,6*
G04 #@! TO.N,Net-(CON1-Pad6)*
X162707000Y-94848700D03*
G04 #@! TO.P,CON1,7*
G04 #@! TO.N,Net-(CON1-Pad7)*
X165247000Y-97388700D03*
G04 #@! TO.P,CON1,8*
G04 #@! TO.N,Net-(CON1-Pad8)*
X165247000Y-94848700D03*
G04 #@! TO.P,CON1,9*
G04 #@! TO.N,Net-(CON1-Pad9)*
X167787000Y-97388700D03*
G04 #@! TO.P,CON1,10*
G04 #@! TO.N,Net-(CON1-Pad10)*
X167787000Y-94848700D03*
G04 #@! TD*
D15*
G04 #@! TO.P,D1,1*
G04 #@! TO.N,GNDPWR*
X111400000Y-56900000D03*
G04 #@! TO.P,D1,2*
G04 #@! TO.N,Net-(D1-Pad2)*
X111400000Y-59900000D03*
G04 #@! TD*
G04 #@! TO.P,D2,1*
G04 #@! TO.N,+24V*
X106300000Y-60000000D03*
G04 #@! TO.P,D2,2*
G04 #@! TO.N,Net-(D2-Pad2)*
X106300000Y-57000000D03*
G04 #@! TD*
D16*
G04 #@! TO.P,D3,1*
G04 #@! TO.N,Net-(D3-Pad1)*
X162702000Y-76739900D03*
G04 #@! TO.P,D3,2*
G04 #@! TO.N,Net-(D3-Pad2)*
X164602000Y-76739900D03*
G04 #@! TO.P,D3,3*
G04 #@! TO.N,GND*
X163652000Y-73739900D03*
G04 #@! TD*
D17*
G04 #@! TO.P,D5,1*
G04 #@! TO.N,Net-(D5-Pad1)*
X141756000Y-60452000D03*
G04 #@! TO.P,D5,2*
G04 #@! TO.N,GND*
X144756000Y-60452000D03*
G04 #@! TD*
G04 #@! TO.P,D6,1*
G04 #@! TO.N,+3V3*
X118627000Y-70012600D03*
G04 #@! TO.P,D6,2*
G04 #@! TO.N,Net-(D6-Pad2)*
X121627000Y-70012600D03*
G04 #@! TD*
G04 #@! TO.P,D7,1*
G04 #@! TO.N,Net-(D6-Pad2)*
X124469000Y-70012600D03*
G04 #@! TO.P,D7,2*
G04 #@! TO.N,GND*
X127469000Y-70012600D03*
G04 #@! TD*
G04 #@! TO.P,D8,1*
G04 #@! TO.N,+3V3*
X158134000Y-87939900D03*
G04 #@! TO.P,D8,2*
G04 #@! TO.N,Net-(D8-Pad2)*
X161134000Y-87939900D03*
G04 #@! TD*
G04 #@! TO.P,D9,1*
G04 #@! TO.N,Net-(D8-Pad2)*
X163214000Y-87939900D03*
G04 #@! TO.P,D9,2*
G04 #@! TO.N,GND*
X166214000Y-87939900D03*
G04 #@! TD*
D13*
G04 #@! TO.P,J8,1*
G04 #@! TO.N,GND*
X184892000Y-77180400D03*
D14*
G04 #@! TO.P,J8,2*
G04 #@! TO.N,Net-(J8-Pad2)*
X184892000Y-79720400D03*
G04 #@! TO.P,J8,3*
G04 #@! TO.N,Net-(J8-Pad3)*
X184892000Y-82260400D03*
G04 #@! TO.P,J8,4*
G04 #@! TO.N,/GPIOB/UART1_RX*
X184892000Y-84800400D03*
G04 #@! TO.P,J8,5*
G04 #@! TO.N,/GPIOB/UART1_TX*
X184892000Y-87340400D03*
G04 #@! TO.P,J8,6*
G04 #@! TO.N,Net-(J8-Pad6)*
X184892000Y-89880400D03*
G04 #@! TD*
D18*
G04 #@! TO.P,R1,1*
G04 #@! TO.N,GND*
X107721000Y-65618400D03*
G04 #@! TO.P,R1,2*
G04 #@! TO.N,Net-(D1-Pad2)*
X111721000Y-65618400D03*
G04 #@! TD*
G04 #@! TO.P,R4,1*
G04 #@! TO.N,Net-(D8-Pad2)*
X160500000Y-83820000D03*
G04 #@! TO.P,R4,2*
G04 #@! TO.N,/Snow*
X156500000Y-83820000D03*
G04 #@! TD*
G04 #@! TO.P,R5,1*
G04 #@! TO.N,Net-(D5-Pad1)*
X142272000Y-56388000D03*
G04 #@! TO.P,R5,2*
G04 #@! TO.N,GND*
X146272000Y-56388000D03*
G04 #@! TD*
G04 #@! TO.P,R6,1*
G04 #@! TO.N,Net-(D8-Pad2)*
X163580000Y-83860000D03*
G04 #@! TO.P,R6,2*
G04 #@! TO.N,GND*
X167580000Y-83860000D03*
G04 #@! TD*
G04 #@! TO.P,R7,1*
G04 #@! TO.N,Net-(D6-Pad2)*
X124746000Y-65532000D03*
G04 #@! TO.P,R7,2*
G04 #@! TO.N,GND*
X128746000Y-65532000D03*
G04 #@! TD*
D19*
G04 #@! TO.P,R8,1*
G04 #@! TO.N,Net-(R8-Pad1)*
X96500000Y-108360000D03*
G04 #@! TO.P,R8,2*
G04 #@! TO.N,Net-(R8-Pad2)*
X96500000Y-112360000D03*
G04 #@! TD*
G04 #@! TO.P,R9,1*
G04 #@! TO.N,Net-(R9-Pad1)*
X114610000Y-109650000D03*
G04 #@! TO.P,R9,2*
G04 #@! TO.N,Net-(R9-Pad2)*
X114610000Y-113650000D03*
G04 #@! TD*
G04 #@! TO.P,R10,1*
G04 #@! TO.N,Net-(R10-Pad1)*
X134060000Y-110770000D03*
G04 #@! TO.P,R10,2*
G04 #@! TO.N,Net-(R10-Pad2)*
X134060000Y-114770000D03*
G04 #@! TD*
G04 #@! TO.P,R11,1*
G04 #@! TO.N,Net-(R11-Pad1)*
X153160000Y-109900000D03*
G04 #@! TO.P,R11,2*
G04 #@! TO.N,Net-(R11-Pad2)*
X153160000Y-113900000D03*
G04 #@! TD*
G04 #@! TO.P,R12,1*
G04 #@! TO.N,Net-(R12-Pad1)*
X169740000Y-109670000D03*
G04 #@! TO.P,R12,2*
G04 #@! TO.N,Net-(R12-Pad2)*
X169740000Y-113670000D03*
G04 #@! TD*
D20*
G04 #@! TO.P,RV1,1*
G04 #@! TO.N,/RS485B*
X176130000Y-73715900D03*
G04 #@! TO.P,RV1,2*
G04 #@! TO.N,GND*
X180130000Y-73715900D03*
G04 #@! TD*
G04 #@! TO.P,RV2,1*
G04 #@! TO.N,/RS485A*
X176130000Y-79049900D03*
G04 #@! TO.P,RV2,2*
G04 #@! TO.N,GND*
X180130000Y-79049900D03*
G04 #@! TD*
D21*
G04 #@! TO.P,U2,1*
G04 #@! TO.N,Net-(U2-Pad1)*
X128100000Y-84000000D03*
G04 #@! TO.P,U2,2*
G04 #@! TO.N,Net-(U2-Pad2)*
X128100000Y-84500000D03*
G04 #@! TO.P,U2,3*
G04 #@! TO.N,Net-(U2-Pad3)*
X128100000Y-85000000D03*
G04 #@! TO.P,U2,4*
G04 #@! TO.N,Net-(U2-Pad4)*
X128100000Y-85500000D03*
G04 #@! TO.P,U2,5*
G04 #@! TO.N,Net-(U2-Pad5)*
X128100000Y-86000000D03*
G04 #@! TO.P,U2,6*
G04 #@! TO.N,+3V3*
X128100000Y-86500000D03*
G04 #@! TO.P,U2,7*
G04 #@! TO.N,Net-(U2-Pad7)*
X128100000Y-87000000D03*
G04 #@! TO.P,U2,8*
G04 #@! TO.N,Net-(U2-Pad8)*
X128100000Y-87500000D03*
G04 #@! TO.P,U2,9*
G04 #@! TO.N,Net-(U2-Pad9)*
X128100000Y-88000000D03*
G04 #@! TO.P,U2,10*
G04 #@! TO.N,Net-(U2-Pad10)*
X128100000Y-88500000D03*
G04 #@! TO.P,U2,11*
G04 #@! TO.N,Net-(U2-Pad11)*
X128100000Y-89000000D03*
G04 #@! TO.P,U2,12*
G04 #@! TO.N,Net-(U2-Pad12)*
X128100000Y-89500000D03*
G04 #@! TO.P,U2,13*
G04 #@! TO.N,Net-(U2-Pad13)*
X128100000Y-90000000D03*
G04 #@! TO.P,U2,14*
G04 #@! TO.N,Net-(U2-Pad14)*
X128100000Y-90500000D03*
G04 #@! TO.P,U2,15*
G04 #@! TO.N,~RTDcs1*
X128100000Y-91000000D03*
G04 #@! TO.P,U2,16*
G04 #@! TO.N,~RTDcs2*
X128100000Y-91500000D03*
G04 #@! TO.P,U2,17*
G04 #@! TO.N,~RTDcs3*
X128100000Y-92000000D03*
G04 #@! TO.P,U2,18*
G04 #@! TO.N,~RTDcs4*
X128100000Y-92500000D03*
G04 #@! TO.P,U2,19*
G04 #@! TO.N,Net-(U2-Pad19)*
X128100000Y-93000000D03*
G04 #@! TO.P,U2,20*
G04 #@! TO.N,GND*
X128100000Y-93500000D03*
G04 #@! TO.P,U2,21*
G04 #@! TO.N,+3V3*
X128100000Y-94000000D03*
G04 #@! TO.P,U2,22*
X128100000Y-94500000D03*
G04 #@! TO.P,U2,23*
G04 #@! TO.N,Net-(U2-Pad23)*
X128100000Y-95000000D03*
G04 #@! TO.P,U2,24*
G04 #@! TO.N,/GPIOA/serial/TX_en*
X128100000Y-95500000D03*
G04 #@! TO.P,U2,25*
G04 #@! TO.N,/GPIOA/serial/TX*
X128100000Y-96000000D03*
D22*
G04 #@! TO.P,U2,26*
G04 #@! TO.N,/GPIOA/serial/RX*
X130000000Y-97900000D03*
G04 #@! TO.P,U2,27*
G04 #@! TO.N,Net-(U2-Pad27)*
X130500000Y-97900000D03*
G04 #@! TO.P,U2,28*
G04 #@! TO.N,+3V3*
X131000000Y-97900000D03*
G04 #@! TO.P,U2,29*
G04 #@! TO.N,Net-(U2-Pad29)*
X131500000Y-97900000D03*
G04 #@! TO.P,U2,30*
G04 #@! TO.N,Net-(U2-Pad30)*
X132000000Y-97900000D03*
G04 #@! TO.P,U2,31*
G04 #@! TO.N,Net-(U2-Pad31)*
X132500000Y-97900000D03*
G04 #@! TO.P,U2,32*
G04 #@! TO.N,Net-(U2-Pad32)*
X133000000Y-97900000D03*
G04 #@! TO.P,U2,33*
G04 #@! TO.N,~RTDcs5*
X133500000Y-97900000D03*
G04 #@! TO.P,U2,34*
G04 #@! TO.N,Net-(U2-Pad34)*
X134000000Y-97900000D03*
G04 #@! TO.P,U2,35*
G04 #@! TO.N,Net-(U2-Pad35)*
X134500000Y-97900000D03*
G04 #@! TO.P,U2,36*
G04 #@! TO.N,Net-(U2-Pad36)*
X135000000Y-97900000D03*
G04 #@! TO.P,U2,37*
G04 #@! TO.N,Net-(U2-Pad37)*
X135500000Y-97900000D03*
G04 #@! TO.P,U2,38*
G04 #@! TO.N,Net-(U2-Pad38)*
X136000000Y-97900000D03*
G04 #@! TO.P,U2,39*
G04 #@! TO.N,Net-(U2-Pad39)*
X136500000Y-97900000D03*
G04 #@! TO.P,U2,40*
G04 #@! TO.N,Net-(U2-Pad40)*
X137000000Y-97900000D03*
G04 #@! TO.P,U2,41*
G04 #@! TO.N,Net-(U2-Pad41)*
X137500000Y-97900000D03*
G04 #@! TO.P,U2,42*
G04 #@! TO.N,Net-(U2-Pad42)*
X138000000Y-97900000D03*
G04 #@! TO.P,U2,43*
G04 #@! TO.N,Net-(U2-Pad43)*
X138500000Y-97900000D03*
G04 #@! TO.P,U2,44*
G04 #@! TO.N,Net-(U2-Pad44)*
X139000000Y-97900000D03*
G04 #@! TO.P,U2,45*
G04 #@! TO.N,Net-(U2-Pad45)*
X139500000Y-97900000D03*
G04 #@! TO.P,U2,46*
G04 #@! TO.N,Net-(U2-Pad46)*
X140000000Y-97900000D03*
G04 #@! TO.P,U2,47*
G04 #@! TO.N,Net-(U2-Pad47)*
X140500000Y-97900000D03*
G04 #@! TO.P,U2,48*
G04 #@! TO.N,/GPIOB/~CS*
X141000000Y-97900000D03*
G04 #@! TO.P,U2,49*
G04 #@! TO.N,GND*
X141500000Y-97900000D03*
G04 #@! TO.P,U2,50*
G04 #@! TO.N,+3V3*
X142000000Y-97900000D03*
D21*
G04 #@! TO.P,U2,51*
G04 #@! TO.N,Net-(U2-Pad51)*
X143900000Y-96000000D03*
G04 #@! TO.P,U2,52*
G04 #@! TO.N,/GPIOB/SCK*
X143900000Y-95500000D03*
G04 #@! TO.P,U2,53*
G04 #@! TO.N,/GPIOB/D/~C*
X143900000Y-95000000D03*
G04 #@! TO.P,U2,54*
G04 #@! TO.N,/GPIOB/MOSI*
X143900000Y-94500000D03*
G04 #@! TO.P,U2,55*
G04 #@! TO.N,Net-(U2-Pad55)*
X143900000Y-94000000D03*
G04 #@! TO.P,U2,56*
G04 #@! TO.N,Net-(D8-Pad2)*
X143900000Y-93500000D03*
G04 #@! TO.P,U2,57*
G04 #@! TO.N,Net-(Q1-Pad1)*
X143900000Y-93000000D03*
G04 #@! TO.P,U2,58*
G04 #@! TO.N,Net-(D6-Pad2)*
X143900000Y-92500000D03*
G04 #@! TO.P,U2,59*
X143900000Y-92000000D03*
G04 #@! TO.P,U2,60*
G04 #@! TO.N,Net-(D5-Pad1)*
X143900000Y-91500000D03*
G04 #@! TO.P,U2,61*
G04 #@! TO.N,Net-(D4-Pad1)*
X143900000Y-91000000D03*
G04 #@! TO.P,U2,62*
G04 #@! TO.N,Net-(U2-Pad62)*
X143900000Y-90500000D03*
G04 #@! TO.P,U2,63*
G04 #@! TO.N,Rain*
X143900000Y-90000000D03*
G04 #@! TO.P,U2,64*
G04 #@! TO.N,Aux*
X143900000Y-89500000D03*
G04 #@! TO.P,U2,65*
G04 #@! TO.N,Net-(U2-Pad65)*
X143900000Y-89000000D03*
G04 #@! TO.P,U2,66*
G04 #@! TO.N,Net-(U2-Pad66)*
X143900000Y-88500000D03*
G04 #@! TO.P,U2,67*
G04 #@! TO.N,Net-(U2-Pad67)*
X143900000Y-88000000D03*
G04 #@! TO.P,U2,68*
G04 #@! TO.N,Net-(U2-Pad68)*
X143900000Y-87500000D03*
G04 #@! TO.P,U2,69*
G04 #@! TO.N,Net-(U2-Pad69)*
X143900000Y-87000000D03*
G04 #@! TO.P,U2,70*
G04 #@! TO.N,Net-(U2-Pad70)*
X143900000Y-86500000D03*
G04 #@! TO.P,U2,71*
G04 #@! TO.N,Net-(U2-Pad71)*
X143900000Y-86000000D03*
G04 #@! TO.P,U2,72*
G04 #@! TO.N,Net-(CON1-Pad5)*
X143900000Y-85500000D03*
G04 #@! TO.P,U2,73*
G04 #@! TO.N,Net-(U2-Pad73)*
X143900000Y-85000000D03*
G04 #@! TO.P,U2,74*
G04 #@! TO.N,GND*
X143900000Y-84500000D03*
G04 #@! TO.P,U2,75*
G04 #@! TO.N,+3V3*
X143900000Y-84000000D03*
D22*
G04 #@! TO.P,U2,76*
G04 #@! TO.N,Net-(CON1-Pad1)*
X142000000Y-82100000D03*
G04 #@! TO.P,U2,77*
G04 #@! TO.N,Net-(U2-Pad77)*
X141500000Y-82100000D03*
G04 #@! TO.P,U2,78*
G04 #@! TO.N,RTD_SCK*
X141000000Y-82100000D03*
G04 #@! TO.P,U2,79*
G04 #@! TO.N,RTD_MISO*
X140500000Y-82100000D03*
G04 #@! TO.P,U2,80*
G04 #@! TO.N,RTD_MOSI*
X140000000Y-82100000D03*
G04 #@! TO.P,U2,81*
G04 #@! TO.N,~DRDY1*
X139500000Y-82100000D03*
G04 #@! TO.P,U2,82*
G04 #@! TO.N,~DRDY2*
X139000000Y-82100000D03*
G04 #@! TO.P,U2,83*
G04 #@! TO.N,~DRDY3*
X138500000Y-82100000D03*
G04 #@! TO.P,U2,84*
G04 #@! TO.N,~DRDY4*
X138000000Y-82100000D03*
G04 #@! TO.P,U2,85*
G04 #@! TO.N,~DRDY5*
X137500000Y-82100000D03*
G04 #@! TO.P,U2,86*
G04 #@! TO.N,Net-(U2-Pad86)*
X137000000Y-82100000D03*
G04 #@! TO.P,U2,87*
G04 #@! TO.N,Net-(U2-Pad87)*
X136500000Y-82100000D03*
G04 #@! TO.P,U2,88*
G04 #@! TO.N,Net-(U2-Pad88)*
X136000000Y-82100000D03*
G04 #@! TO.P,U2,89*
G04 #@! TO.N,Net-(U2-Pad89)*
X135500000Y-82100000D03*
G04 #@! TO.P,U2,90*
G04 #@! TO.N,Net-(U2-Pad90)*
X135000000Y-82100000D03*
G04 #@! TO.P,U2,91*
G04 #@! TO.N,Net-(U2-Pad91)*
X134500000Y-82100000D03*
G04 #@! TO.P,U2,92*
G04 #@! TO.N,/GPIOB/UART1_TX*
X134000000Y-82100000D03*
G04 #@! TO.P,U2,93*
G04 #@! TO.N,/GPIOB/UART1_RX*
X133500000Y-82100000D03*
G04 #@! TO.P,U2,94*
G04 #@! TO.N,GND*
X133000000Y-82100000D03*
G04 #@! TO.P,U2,95*
G04 #@! TO.N,Net-(U2-Pad95)*
X132500000Y-82100000D03*
G04 #@! TO.P,U2,96*
G04 #@! TO.N,Net-(U2-Pad96)*
X132000000Y-82100000D03*
G04 #@! TO.P,U2,97*
G04 #@! TO.N,/GPIOB/485RX*
X131500000Y-82100000D03*
G04 #@! TO.P,U2,98*
G04 #@! TO.N,/GPIOB/485TX*
X131000000Y-82100000D03*
G04 #@! TO.P,U2,99*
G04 #@! TO.N,GND*
X130500000Y-82100000D03*
G04 #@! TO.P,U2,100*
G04 #@! TO.N,+3V3*
X130000000Y-82100000D03*
G04 #@! TD*
D23*
G04 #@! TO.P,U3,1*
G04 #@! TO.N,/GPIOA/serial/RX*
X134984000Y-67691000D03*
G04 #@! TO.P,U3,2*
G04 #@! TO.N,/GPIOA/serial/TX_en*
X134984000Y-68961000D03*
G04 #@! TO.P,U3,3*
X134984000Y-70231000D03*
G04 #@! TO.P,U3,4*
G04 #@! TO.N,/GPIOA/serial/TX*
X134984000Y-71501000D03*
G04 #@! TO.P,U3,5*
G04 #@! TO.N,GND*
X142384000Y-71501000D03*
G04 #@! TO.P,U3,6*
G04 #@! TO.N,Net-(R3-Pad2)*
X142384000Y-70231000D03*
G04 #@! TO.P,U3,7*
G04 #@! TO.N,Net-(R2-Pad2)*
X142384000Y-68961000D03*
G04 #@! TO.P,U3,8*
G04 #@! TO.N,+3V3*
X142384000Y-67691000D03*
G04 #@! TD*
D24*
G04 #@! TO.P,U4,1*
G04 #@! TO.N,~DRDY1*
X100340000Y-107435000D03*
G04 #@! TO.P,U4,2*
G04 #@! TO.N,+3V3*
X100340000Y-108085000D03*
G04 #@! TO.P,U4,3*
X100340000Y-108735000D03*
G04 #@! TO.P,U4,4*
G04 #@! TO.N,Net-(R8-Pad1)*
X100340000Y-109385000D03*
G04 #@! TO.P,U4,5*
X100340000Y-110035000D03*
G04 #@! TO.P,U4,6*
G04 #@! TO.N,Net-(R8-Pad2)*
X100340000Y-110685000D03*
G04 #@! TO.P,U4,7*
X100340000Y-111335000D03*
G04 #@! TO.P,U4,8*
G04 #@! TO.N,RTDa1*
X100340000Y-111985000D03*
G04 #@! TO.P,U4,9*
X100340000Y-112635000D03*
G04 #@! TO.P,U4,10*
G04 #@! TO.N,RTDb1*
X100340000Y-113285000D03*
G04 #@! TO.P,U4,11*
G04 #@! TO.N,RTD-1*
X107540000Y-113285000D03*
G04 #@! TO.P,U4,12*
X107540000Y-112635000D03*
G04 #@! TO.P,U4,13*
G04 #@! TO.N,GND*
X107540000Y-111985000D03*
G04 #@! TO.P,U4,14*
G04 #@! TO.N,RTD_MOSI*
X107540000Y-111335000D03*
G04 #@! TO.P,U4,15*
G04 #@! TO.N,RTD_SCK*
X107540000Y-110685000D03*
G04 #@! TO.P,U4,16*
G04 #@! TO.N,~RTDcs1*
X107540000Y-110035000D03*
G04 #@! TO.P,U4,17*
G04 #@! TO.N,RTD_MISO*
X107540000Y-109385000D03*
G04 #@! TO.P,U4,18*
G04 #@! TO.N,GND*
X107540000Y-108735000D03*
G04 #@! TO.P,U4,19*
X107540000Y-108085000D03*
G04 #@! TO.P,U4,20*
G04 #@! TO.N,Net-(U4-Pad20)*
X107540000Y-107435000D03*
G04 #@! TD*
G04 #@! TO.P,U5,1*
G04 #@! TO.N,~DRDY2*
X118610000Y-108665000D03*
G04 #@! TO.P,U5,2*
G04 #@! TO.N,+3V3*
X118610000Y-109315000D03*
G04 #@! TO.P,U5,3*
X118610000Y-109965000D03*
G04 #@! TO.P,U5,4*
G04 #@! TO.N,Net-(R9-Pad1)*
X118610000Y-110615000D03*
G04 #@! TO.P,U5,5*
X118610000Y-111265000D03*
G04 #@! TO.P,U5,6*
G04 #@! TO.N,Net-(R9-Pad2)*
X118610000Y-111915000D03*
G04 #@! TO.P,U5,7*
X118610000Y-112565000D03*
G04 #@! TO.P,U5,8*
G04 #@! TO.N,RTDa2*
X118610000Y-113215000D03*
G04 #@! TO.P,U5,9*
X118610000Y-113865000D03*
G04 #@! TO.P,U5,10*
G04 #@! TO.N,RTDb2*
X118610000Y-114515000D03*
G04 #@! TO.P,U5,11*
G04 #@! TO.N,RTD-2*
X125810000Y-114515000D03*
G04 #@! TO.P,U5,12*
X125810000Y-113865000D03*
G04 #@! TO.P,U5,13*
G04 #@! TO.N,GND*
X125810000Y-113215000D03*
G04 #@! TO.P,U5,14*
G04 #@! TO.N,RTD_MOSI*
X125810000Y-112565000D03*
G04 #@! TO.P,U5,15*
G04 #@! TO.N,RTD_SCK*
X125810000Y-111915000D03*
G04 #@! TO.P,U5,16*
G04 #@! TO.N,~RTDcs2*
X125810000Y-111265000D03*
G04 #@! TO.P,U5,17*
G04 #@! TO.N,RTD_MISO*
X125810000Y-110615000D03*
G04 #@! TO.P,U5,18*
G04 #@! TO.N,GND*
X125810000Y-109965000D03*
G04 #@! TO.P,U5,19*
X125810000Y-109315000D03*
G04 #@! TO.P,U5,20*
G04 #@! TO.N,Net-(U5-Pad20)*
X125810000Y-108665000D03*
G04 #@! TD*
G04 #@! TO.P,U6,1*
G04 #@! TO.N,~DRDY3*
X138730000Y-109895000D03*
G04 #@! TO.P,U6,2*
G04 #@! TO.N,+3V3*
X138730000Y-110545000D03*
G04 #@! TO.P,U6,3*
X138730000Y-111195000D03*
G04 #@! TO.P,U6,4*
G04 #@! TO.N,Net-(R10-Pad1)*
X138730000Y-111845000D03*
G04 #@! TO.P,U6,5*
X138730000Y-112495000D03*
G04 #@! TO.P,U6,6*
G04 #@! TO.N,Net-(R10-Pad2)*
X138730000Y-113145000D03*
G04 #@! TO.P,U6,7*
X138730000Y-113795000D03*
G04 #@! TO.P,U6,8*
G04 #@! TO.N,RTDa3*
X138730000Y-114445000D03*
G04 #@! TO.P,U6,9*
X138730000Y-115095000D03*
G04 #@! TO.P,U6,10*
G04 #@! TO.N,RTDb3*
X138730000Y-115745000D03*
G04 #@! TO.P,U6,11*
G04 #@! TO.N,RTD-3*
X145930000Y-115745000D03*
G04 #@! TO.P,U6,12*
X145930000Y-115095000D03*
G04 #@! TO.P,U6,13*
G04 #@! TO.N,GND*
X145930000Y-114445000D03*
G04 #@! TO.P,U6,14*
G04 #@! TO.N,RTD_MOSI*
X145930000Y-113795000D03*
G04 #@! TO.P,U6,15*
G04 #@! TO.N,RTD_SCK*
X145930000Y-113145000D03*
G04 #@! TO.P,U6,16*
G04 #@! TO.N,~RTDcs3*
X145930000Y-112495000D03*
G04 #@! TO.P,U6,17*
G04 #@! TO.N,RTD_MISO*
X145930000Y-111845000D03*
G04 #@! TO.P,U6,18*
G04 #@! TO.N,GND*
X145930000Y-111195000D03*
G04 #@! TO.P,U6,19*
X145930000Y-110545000D03*
G04 #@! TO.P,U6,20*
G04 #@! TO.N,Net-(U6-Pad20)*
X145930000Y-109895000D03*
G04 #@! TD*
G04 #@! TO.P,U7,1*
G04 #@! TO.N,~DRDY4*
X156920000Y-108825000D03*
G04 #@! TO.P,U7,2*
G04 #@! TO.N,+3V3*
X156920000Y-109475000D03*
G04 #@! TO.P,U7,3*
X156920000Y-110125000D03*
G04 #@! TO.P,U7,4*
G04 #@! TO.N,Net-(R11-Pad1)*
X156920000Y-110775000D03*
G04 #@! TO.P,U7,5*
X156920000Y-111425000D03*
G04 #@! TO.P,U7,6*
G04 #@! TO.N,Net-(R11-Pad2)*
X156920000Y-112075000D03*
G04 #@! TO.P,U7,7*
X156920000Y-112725000D03*
G04 #@! TO.P,U7,8*
G04 #@! TO.N,RTDa4*
X156920000Y-113375000D03*
G04 #@! TO.P,U7,9*
X156920000Y-114025000D03*
G04 #@! TO.P,U7,10*
G04 #@! TO.N,RTDb4*
X156920000Y-114675000D03*
G04 #@! TO.P,U7,11*
G04 #@! TO.N,RTD-4*
X164120000Y-114675000D03*
G04 #@! TO.P,U7,12*
X164120000Y-114025000D03*
G04 #@! TO.P,U7,13*
G04 #@! TO.N,GND*
X164120000Y-113375000D03*
G04 #@! TO.P,U7,14*
G04 #@! TO.N,RTD_MOSI*
X164120000Y-112725000D03*
G04 #@! TO.P,U7,15*
G04 #@! TO.N,RTD_SCK*
X164120000Y-112075000D03*
G04 #@! TO.P,U7,16*
G04 #@! TO.N,~RTDcs4*
X164120000Y-111425000D03*
G04 #@! TO.P,U7,17*
G04 #@! TO.N,RTD_MISO*
X164120000Y-110775000D03*
G04 #@! TO.P,U7,18*
G04 #@! TO.N,GND*
X164120000Y-110125000D03*
G04 #@! TO.P,U7,19*
X164120000Y-109475000D03*
G04 #@! TO.P,U7,20*
G04 #@! TO.N,Net-(U7-Pad20)*
X164120000Y-108825000D03*
G04 #@! TD*
G04 #@! TO.P,U8,1*
G04 #@! TO.N,~DRDY5*
X173840000Y-108735000D03*
G04 #@! TO.P,U8,2*
G04 #@! TO.N,+3V3*
X173840000Y-109385000D03*
G04 #@! TO.P,U8,3*
X173840000Y-110035000D03*
G04 #@! TO.P,U8,4*
G04 #@! TO.N,Net-(R12-Pad1)*
X173840000Y-110685000D03*
G04 #@! TO.P,U8,5*
X173840000Y-111335000D03*
G04 #@! TO.P,U8,6*
G04 #@! TO.N,Net-(R12-Pad2)*
X173840000Y-111985000D03*
G04 #@! TO.P,U8,7*
X173840000Y-112635000D03*
G04 #@! TO.P,U8,8*
G04 #@! TO.N,RTDa5*
X173840000Y-113285000D03*
G04 #@! TO.P,U8,9*
X173840000Y-113935000D03*
G04 #@! TO.P,U8,10*
G04 #@! TO.N,RTDb5*
X173840000Y-114585000D03*
G04 #@! TO.P,U8,11*
G04 #@! TO.N,RTD-5*
X181040000Y-114585000D03*
G04 #@! TO.P,U8,12*
X181040000Y-113935000D03*
G04 #@! TO.P,U8,13*
G04 #@! TO.N,GND*
X181040000Y-113285000D03*
G04 #@! TO.P,U8,14*
G04 #@! TO.N,RTD_MOSI*
X181040000Y-112635000D03*
G04 #@! TO.P,U8,15*
G04 #@! TO.N,RTD_SCK*
X181040000Y-111985000D03*
G04 #@! TO.P,U8,16*
G04 #@! TO.N,~RTDcs5*
X181040000Y-111335000D03*
G04 #@! TO.P,U8,17*
G04 #@! TO.N,RTD_MISO*
X181040000Y-110685000D03*
G04 #@! TO.P,U8,18*
G04 #@! TO.N,GND*
X181040000Y-110035000D03*
G04 #@! TO.P,U8,19*
X181040000Y-109385000D03*
G04 #@! TO.P,U8,20*
G04 #@! TO.N,Net-(U8-Pad20)*
X181040000Y-108735000D03*
G04 #@! TD*
D25*
G04 #@! TO.P,U1,2*
G04 #@! TO.N,GND*
X114691000Y-78734900D03*
G04 #@! TO.P,U1,1*
G04 #@! TO.N,+24V*
X112151000Y-78734900D03*
G04 #@! TO.P,U1,3*
G04 #@! TO.N,+3V3*
X117231000Y-78734900D03*
G04 #@! TD*
D26*
G04 #@! TO.P,F1,1*
G04 #@! TO.N,/RS485B*
X172696000Y-73715900D03*
G04 #@! TO.P,F1,2*
G04 #@! TO.N,Net-(D3-Pad2)*
X167816000Y-73715900D03*
G04 #@! TD*
G04 #@! TO.P,F2,1*
G04 #@! TO.N,/RS485A*
X172950000Y-79049900D03*
G04 #@! TO.P,F2,2*
G04 #@! TO.N,Net-(D3-Pad1)*
X168070000Y-79049900D03*
G04 #@! TD*
G04 #@! TO.P,F3,1*
G04 #@! TO.N,Net-(D6-Pad2)*
X121312000Y-64770000D03*
G04 #@! TO.P,F3,2*
G04 #@! TO.N,/Pyro*
X116432000Y-64770000D03*
G04 #@! TD*
G04 #@! TO.P,F4,1*
G04 #@! TO.N,Net-(D5-Pad1)*
X139092000Y-56388000D03*
G04 #@! TO.P,F4,2*
G04 #@! TO.N,/Wind*
X134212000Y-56388000D03*
G04 #@! TD*
D27*
G04 #@! TO.P,R2,1*
G04 #@! TO.N,Net-(D3-Pad2)*
X158340000Y-68072000D03*
G04 #@! TO.P,R2,2*
G04 #@! TO.N,Net-(R2-Pad2)*
X151540000Y-68072000D03*
G04 #@! TD*
G04 #@! TO.P,R3,1*
G04 #@! TO.N,Net-(D3-Pad1)*
X158086000Y-73152000D03*
G04 #@! TO.P,R3,2*
G04 #@! TO.N,Net-(R3-Pad2)*
X151286000Y-73152000D03*
G04 #@! TD*
D28*
G04 #@! TO.P,J1,1*
G04 #@! TO.N,RTDa1*
X126685000Y-121759000D03*
G04 #@! TO.P,J1,2*
G04 #@! TO.N,RTDa2*
X123935000Y-126159000D03*
G04 #@! TO.P,J1,3*
G04 #@! TO.N,RTDa3*
X118735000Y-126209000D03*
G04 #@! TO.P,J1,4*
G04 #@! TO.N,RTDa4*
X118735000Y-131659000D03*
G04 #@! TD*
G04 #@! TO.P,J2,4*
G04 #@! TO.N,RTDb4*
X148925000Y-131679000D03*
G04 #@! TO.P,J2,3*
G04 #@! TO.N,RTDb3*
X148925000Y-126229000D03*
G04 #@! TO.P,J2,2*
G04 #@! TO.N,RTDb2*
X154125000Y-126179000D03*
G04 #@! TO.P,J2,1*
G04 #@! TO.N,RTDb1*
X156875000Y-121779000D03*
G04 #@! TD*
G04 #@! TO.P,J3,1*
G04 #@! TO.N,RTD-1*
X186852000Y-121794000D03*
G04 #@! TO.P,J3,2*
G04 #@! TO.N,RTD-2*
X184102000Y-126194000D03*
G04 #@! TO.P,J3,3*
G04 #@! TO.N,RTD-3*
X178902000Y-126244000D03*
G04 #@! TO.P,J3,4*
G04 #@! TO.N,RTD-4*
X178902000Y-131694000D03*
G04 #@! TD*
G04 #@! TO.P,J4,4*
G04 #@! TO.N,/Pyro*
X118750000Y-46918400D03*
G04 #@! TO.P,J4,3*
G04 #@! TO.N,GND*
X118750000Y-52368400D03*
G04 #@! TO.P,J4,2*
G04 #@! TO.N,GNDPWR*
X123950000Y-52418400D03*
G04 #@! TO.P,J4,1*
G04 #@! TO.N,Net-(D2-Pad2)*
X126700000Y-56818400D03*
G04 #@! TD*
G04 #@! TO.P,J5,1*
G04 #@! TO.N,/RS485A*
X156819000Y-56803200D03*
G04 #@! TO.P,J5,2*
G04 #@! TO.N,/RS485B*
X154069000Y-52403200D03*
G04 #@! TO.P,J5,3*
G04 #@! TO.N,GND*
X148869000Y-52353200D03*
G04 #@! TO.P,J5,4*
G04 #@! TO.N,/Wind*
X148869000Y-46903200D03*
G04 #@! TD*
G04 #@! TO.P,J6,1*
G04 #@! TO.N,Net-(J6-Pad1)*
X186959000Y-56843800D03*
G04 #@! TO.P,J6,2*
G04 #@! TO.N,Net-(J6-Pad2)*
X184209000Y-52443800D03*
G04 #@! TO.P,J6,3*
G04 #@! TO.N,Net-(J6-Pad3)*
X179009000Y-52393800D03*
G04 #@! TO.P,J6,4*
G04 #@! TO.N,/Snow*
X179009000Y-46943800D03*
G04 #@! TD*
D29*
G04 #@! TO.N,Net-(D4-Pad1)*
G04 #@! TO.C,F5*
G36*
X96182505Y-56944704D02*
X96206773Y-56948304D01*
X96230572Y-56954265D01*
X96253671Y-56962530D01*
X96275850Y-56973020D01*
X96296893Y-56985632D01*
X96316599Y-57000247D01*
X96334777Y-57016723D01*
X96351253Y-57034901D01*
X96365868Y-57054607D01*
X96378480Y-57075650D01*
X96388970Y-57097829D01*
X96397235Y-57120928D01*
X96403196Y-57144727D01*
X96406796Y-57168995D01*
X96408000Y-57193499D01*
X96408000Y-60093501D01*
X96406796Y-60118005D01*
X96403196Y-60142273D01*
X96397235Y-60166072D01*
X96388970Y-60189171D01*
X96378480Y-60211350D01*
X96365868Y-60232393D01*
X96351253Y-60252099D01*
X96334777Y-60270277D01*
X96316599Y-60286753D01*
X96296893Y-60301368D01*
X96275850Y-60313980D01*
X96253671Y-60324470D01*
X96230572Y-60332735D01*
X96206773Y-60338696D01*
X96182505Y-60342296D01*
X96158001Y-60343500D01*
X95532999Y-60343500D01*
X95508495Y-60342296D01*
X95484227Y-60338696D01*
X95460428Y-60332735D01*
X95437329Y-60324470D01*
X95415150Y-60313980D01*
X95394107Y-60301368D01*
X95374401Y-60286753D01*
X95356223Y-60270277D01*
X95339747Y-60252099D01*
X95325132Y-60232393D01*
X95312520Y-60211350D01*
X95302030Y-60189171D01*
X95293765Y-60166072D01*
X95287804Y-60142273D01*
X95284204Y-60118005D01*
X95283000Y-60093501D01*
X95283000Y-57193499D01*
X95284204Y-57168995D01*
X95287804Y-57144727D01*
X95293765Y-57120928D01*
X95302030Y-57097829D01*
X95312520Y-57075650D01*
X95325132Y-57054607D01*
X95339747Y-57034901D01*
X95356223Y-57016723D01*
X95374401Y-57000247D01*
X95394107Y-56985632D01*
X95415150Y-56973020D01*
X95437329Y-56962530D01*
X95460428Y-56954265D01*
X95484227Y-56948304D01*
X95508495Y-56944704D01*
X95532999Y-56943500D01*
X96158001Y-56943500D01*
X96182505Y-56944704D01*
X96182505Y-56944704D01*
G37*
D30*
G04 #@! TD*
G04 #@! TO.P,F5,1*
G04 #@! TO.N,Net-(D4-Pad1)*
X95845500Y-58643500D03*
D29*
G04 #@! TO.N,WindDir*
G04 #@! TO.C,F5*
G36*
X100457505Y-56944704D02*
X100481773Y-56948304D01*
X100505572Y-56954265D01*
X100528671Y-56962530D01*
X100550850Y-56973020D01*
X100571893Y-56985632D01*
X100591599Y-57000247D01*
X100609777Y-57016723D01*
X100626253Y-57034901D01*
X100640868Y-57054607D01*
X100653480Y-57075650D01*
X100663970Y-57097829D01*
X100672235Y-57120928D01*
X100678196Y-57144727D01*
X100681796Y-57168995D01*
X100683000Y-57193499D01*
X100683000Y-60093501D01*
X100681796Y-60118005D01*
X100678196Y-60142273D01*
X100672235Y-60166072D01*
X100663970Y-60189171D01*
X100653480Y-60211350D01*
X100640868Y-60232393D01*
X100626253Y-60252099D01*
X100609777Y-60270277D01*
X100591599Y-60286753D01*
X100571893Y-60301368D01*
X100550850Y-60313980D01*
X100528671Y-60324470D01*
X100505572Y-60332735D01*
X100481773Y-60338696D01*
X100457505Y-60342296D01*
X100433001Y-60343500D01*
X99807999Y-60343500D01*
X99783495Y-60342296D01*
X99759227Y-60338696D01*
X99735428Y-60332735D01*
X99712329Y-60324470D01*
X99690150Y-60313980D01*
X99669107Y-60301368D01*
X99649401Y-60286753D01*
X99631223Y-60270277D01*
X99614747Y-60252099D01*
X99600132Y-60232393D01*
X99587520Y-60211350D01*
X99577030Y-60189171D01*
X99568765Y-60166072D01*
X99562804Y-60142273D01*
X99559204Y-60118005D01*
X99558000Y-60093501D01*
X99558000Y-57193499D01*
X99559204Y-57168995D01*
X99562804Y-57144727D01*
X99568765Y-57120928D01*
X99577030Y-57097829D01*
X99587520Y-57075650D01*
X99600132Y-57054607D01*
X99614747Y-57034901D01*
X99631223Y-57016723D01*
X99649401Y-57000247D01*
X99669107Y-56985632D01*
X99690150Y-56973020D01*
X99712329Y-56962530D01*
X99735428Y-56954265D01*
X99759227Y-56948304D01*
X99783495Y-56944704D01*
X99807999Y-56943500D01*
X100433001Y-56943500D01*
X100457505Y-56944704D01*
X100457505Y-56944704D01*
G37*
D30*
G04 #@! TD*
G04 #@! TO.P,F5,2*
G04 #@! TO.N,WindDir*
X100120500Y-58643500D03*
D31*
G04 #@! TO.P,Q1,2*
G04 #@! TO.N,GND*
X181966000Y-96144100D03*
D32*
X175666000Y-96144100D03*
G04 #@! TO.P,Q1,3*
G04 #@! TO.N,/Snow*
X175666000Y-98444100D03*
G04 #@! TO.P,Q1,1*
G04 #@! TO.N,Net-(Q1-Pad1)*
X175666000Y-93844100D03*
G04 #@! TD*
D29*
G04 #@! TO.N,/Snow*
G04 #@! TO.C,R13*
G36*
X153724504Y-79110804D02*
X153748773Y-79114404D01*
X153772571Y-79120365D01*
X153795671Y-79128630D01*
X153817849Y-79139120D01*
X153838893Y-79151733D01*
X153858598Y-79166347D01*
X153876777Y-79182823D01*
X153893253Y-79201002D01*
X153907867Y-79220707D01*
X153920480Y-79241751D01*
X153930970Y-79263929D01*
X153939235Y-79287029D01*
X153945196Y-79310827D01*
X153948796Y-79335096D01*
X153950000Y-79359600D01*
X153950000Y-80609600D01*
X153948796Y-80634104D01*
X153945196Y-80658373D01*
X153939235Y-80682171D01*
X153930970Y-80705271D01*
X153920480Y-80727449D01*
X153907867Y-80748493D01*
X153893253Y-80768198D01*
X153876777Y-80786377D01*
X153858598Y-80802853D01*
X153838893Y-80817467D01*
X153817849Y-80830080D01*
X153795671Y-80840570D01*
X153772571Y-80848835D01*
X153748773Y-80854796D01*
X153724504Y-80858396D01*
X153700000Y-80859600D01*
X152950000Y-80859600D01*
X152925496Y-80858396D01*
X152901227Y-80854796D01*
X152877429Y-80848835D01*
X152854329Y-80840570D01*
X152832151Y-80830080D01*
X152811107Y-80817467D01*
X152791402Y-80802853D01*
X152773223Y-80786377D01*
X152756747Y-80768198D01*
X152742133Y-80748493D01*
X152729520Y-80727449D01*
X152719030Y-80705271D01*
X152710765Y-80682171D01*
X152704804Y-80658373D01*
X152701204Y-80634104D01*
X152700000Y-80609600D01*
X152700000Y-79359600D01*
X152701204Y-79335096D01*
X152704804Y-79310827D01*
X152710765Y-79287029D01*
X152719030Y-79263929D01*
X152729520Y-79241751D01*
X152742133Y-79220707D01*
X152756747Y-79201002D01*
X152773223Y-79182823D01*
X152791402Y-79166347D01*
X152811107Y-79151733D01*
X152832151Y-79139120D01*
X152854329Y-79128630D01*
X152877429Y-79120365D01*
X152901227Y-79114404D01*
X152925496Y-79110804D01*
X152950000Y-79109600D01*
X153700000Y-79109600D01*
X153724504Y-79110804D01*
X153724504Y-79110804D01*
G37*
D33*
G04 #@! TD*
G04 #@! TO.P,R13,1*
G04 #@! TO.N,/Snow*
X153325000Y-79984600D03*
D29*
G04 #@! TO.N,+24V*
G04 #@! TO.C,R13*
G36*
X150924504Y-79110804D02*
X150948773Y-79114404D01*
X150972571Y-79120365D01*
X150995671Y-79128630D01*
X151017849Y-79139120D01*
X151038893Y-79151733D01*
X151058598Y-79166347D01*
X151076777Y-79182823D01*
X151093253Y-79201002D01*
X151107867Y-79220707D01*
X151120480Y-79241751D01*
X151130970Y-79263929D01*
X151139235Y-79287029D01*
X151145196Y-79310827D01*
X151148796Y-79335096D01*
X151150000Y-79359600D01*
X151150000Y-80609600D01*
X151148796Y-80634104D01*
X151145196Y-80658373D01*
X151139235Y-80682171D01*
X151130970Y-80705271D01*
X151120480Y-80727449D01*
X151107867Y-80748493D01*
X151093253Y-80768198D01*
X151076777Y-80786377D01*
X151058598Y-80802853D01*
X151038893Y-80817467D01*
X151017849Y-80830080D01*
X150995671Y-80840570D01*
X150972571Y-80848835D01*
X150948773Y-80854796D01*
X150924504Y-80858396D01*
X150900000Y-80859600D01*
X150150000Y-80859600D01*
X150125496Y-80858396D01*
X150101227Y-80854796D01*
X150077429Y-80848835D01*
X150054329Y-80840570D01*
X150032151Y-80830080D01*
X150011107Y-80817467D01*
X149991402Y-80802853D01*
X149973223Y-80786377D01*
X149956747Y-80768198D01*
X149942133Y-80748493D01*
X149929520Y-80727449D01*
X149919030Y-80705271D01*
X149910765Y-80682171D01*
X149904804Y-80658373D01*
X149901204Y-80634104D01*
X149900000Y-80609600D01*
X149900000Y-79359600D01*
X149901204Y-79335096D01*
X149904804Y-79310827D01*
X149910765Y-79287029D01*
X149919030Y-79263929D01*
X149929520Y-79241751D01*
X149942133Y-79220707D01*
X149956747Y-79201002D01*
X149973223Y-79182823D01*
X149991402Y-79166347D01*
X150011107Y-79151733D01*
X150032151Y-79139120D01*
X150054329Y-79128630D01*
X150077429Y-79120365D01*
X150101227Y-79114404D01*
X150125496Y-79110804D01*
X150150000Y-79109600D01*
X150900000Y-79109600D01*
X150924504Y-79110804D01*
X150924504Y-79110804D01*
G37*
D33*
G04 #@! TD*
G04 #@! TO.P,R13,2*
G04 #@! TO.N,+24V*
X150525000Y-79984600D03*
D29*
G04 #@! TO.N,GND*
G04 #@! TO.C,R14*
G36*
X98804204Y-64394004D02*
X98828473Y-64397604D01*
X98852271Y-64403565D01*
X98875371Y-64411830D01*
X98897549Y-64422320D01*
X98918593Y-64434933D01*
X98938298Y-64449547D01*
X98956477Y-64466023D01*
X98972953Y-64484202D01*
X98987567Y-64503907D01*
X99000180Y-64524951D01*
X99010670Y-64547129D01*
X99018935Y-64570229D01*
X99024896Y-64594027D01*
X99028496Y-64618296D01*
X99029700Y-64642800D01*
X99029700Y-65892800D01*
X99028496Y-65917304D01*
X99024896Y-65941573D01*
X99018935Y-65965371D01*
X99010670Y-65988471D01*
X99000180Y-66010649D01*
X98987567Y-66031693D01*
X98972953Y-66051398D01*
X98956477Y-66069577D01*
X98938298Y-66086053D01*
X98918593Y-66100667D01*
X98897549Y-66113280D01*
X98875371Y-66123770D01*
X98852271Y-66132035D01*
X98828473Y-66137996D01*
X98804204Y-66141596D01*
X98779700Y-66142800D01*
X98029700Y-66142800D01*
X98005196Y-66141596D01*
X97980927Y-66137996D01*
X97957129Y-66132035D01*
X97934029Y-66123770D01*
X97911851Y-66113280D01*
X97890807Y-66100667D01*
X97871102Y-66086053D01*
X97852923Y-66069577D01*
X97836447Y-66051398D01*
X97821833Y-66031693D01*
X97809220Y-66010649D01*
X97798730Y-65988471D01*
X97790465Y-65965371D01*
X97784504Y-65941573D01*
X97780904Y-65917304D01*
X97779700Y-65892800D01*
X97779700Y-64642800D01*
X97780904Y-64618296D01*
X97784504Y-64594027D01*
X97790465Y-64570229D01*
X97798730Y-64547129D01*
X97809220Y-64524951D01*
X97821833Y-64503907D01*
X97836447Y-64484202D01*
X97852923Y-64466023D01*
X97871102Y-64449547D01*
X97890807Y-64434933D01*
X97911851Y-64422320D01*
X97934029Y-64411830D01*
X97957129Y-64403565D01*
X97980927Y-64397604D01*
X98005196Y-64394004D01*
X98029700Y-64392800D01*
X98779700Y-64392800D01*
X98804204Y-64394004D01*
X98804204Y-64394004D01*
G37*
D33*
G04 #@! TD*
G04 #@! TO.P,R14,2*
G04 #@! TO.N,GND*
X98404700Y-65267800D03*
D29*
G04 #@! TO.N,Net-(D4-Pad1)*
G04 #@! TO.C,R14*
G36*
X96004204Y-64394004D02*
X96028473Y-64397604D01*
X96052271Y-64403565D01*
X96075371Y-64411830D01*
X96097549Y-64422320D01*
X96118593Y-64434933D01*
X96138298Y-64449547D01*
X96156477Y-64466023D01*
X96172953Y-64484202D01*
X96187567Y-64503907D01*
X96200180Y-64524951D01*
X96210670Y-64547129D01*
X96218935Y-64570229D01*
X96224896Y-64594027D01*
X96228496Y-64618296D01*
X96229700Y-64642800D01*
X96229700Y-65892800D01*
X96228496Y-65917304D01*
X96224896Y-65941573D01*
X96218935Y-65965371D01*
X96210670Y-65988471D01*
X96200180Y-66010649D01*
X96187567Y-66031693D01*
X96172953Y-66051398D01*
X96156477Y-66069577D01*
X96138298Y-66086053D01*
X96118593Y-66100667D01*
X96097549Y-66113280D01*
X96075371Y-66123770D01*
X96052271Y-66132035D01*
X96028473Y-66137996D01*
X96004204Y-66141596D01*
X95979700Y-66142800D01*
X95229700Y-66142800D01*
X95205196Y-66141596D01*
X95180927Y-66137996D01*
X95157129Y-66132035D01*
X95134029Y-66123770D01*
X95111851Y-66113280D01*
X95090807Y-66100667D01*
X95071102Y-66086053D01*
X95052923Y-66069577D01*
X95036447Y-66051398D01*
X95021833Y-66031693D01*
X95009220Y-66010649D01*
X94998730Y-65988471D01*
X94990465Y-65965371D01*
X94984504Y-65941573D01*
X94980904Y-65917304D01*
X94979700Y-65892800D01*
X94979700Y-64642800D01*
X94980904Y-64618296D01*
X94984504Y-64594027D01*
X94990465Y-64570229D01*
X94998730Y-64547129D01*
X95009220Y-64524951D01*
X95021833Y-64503907D01*
X95036447Y-64484202D01*
X95052923Y-64466023D01*
X95071102Y-64449547D01*
X95090807Y-64434933D01*
X95111851Y-64422320D01*
X95134029Y-64411830D01*
X95157129Y-64403565D01*
X95180927Y-64397604D01*
X95205196Y-64394004D01*
X95229700Y-64392800D01*
X95979700Y-64392800D01*
X96004204Y-64394004D01*
X96004204Y-64394004D01*
G37*
D33*
G04 #@! TD*
G04 #@! TO.P,R14,1*
G04 #@! TO.N,Net-(D4-Pad1)*
X95604700Y-65267800D03*
D34*
G04 #@! TO.P,J7,1*
G04 #@! TO.N,GND*
X95341400Y-74919800D03*
D35*
G04 #@! TO.P,J7,11*
G04 #@! TO.N,+24V*
X102961400Y-97779800D03*
G04 #@! TO.P,J7,2*
G04 #@! TO.N,/GPIOB/MOSI*
X95341400Y-77459800D03*
G04 #@! TO.P,J7,12*
G04 #@! TO.N,+3V3*
X102961400Y-95239800D03*
G04 #@! TO.P,J7,3*
G04 #@! TO.N,/GPIOB/SCK*
X95341400Y-79999800D03*
G04 #@! TO.P,J7,13*
G04 #@! TO.N,/GPIOB/485RX*
X102961400Y-92699800D03*
G04 #@! TO.P,J7,4*
G04 #@! TO.N,/GPIOB/~CS*
X95341400Y-82539800D03*
G04 #@! TO.P,J7,14*
G04 #@! TO.N,/GPIOB/485TX*
X102961400Y-90159800D03*
G04 #@! TO.P,J7,5*
G04 #@! TO.N,/GPIOB/D/~C*
X95341400Y-85079800D03*
G04 #@! TO.P,J7,15*
G04 #@! TO.N,Net-(J7-Pad15)*
X102961400Y-87619800D03*
G04 #@! TO.P,J7,6*
G04 #@! TO.N,Net-(J7-Pad6)*
X95341400Y-87619800D03*
G04 #@! TO.P,J7,16*
G04 #@! TO.N,/GPIOB/D/~C*
X102961400Y-85079800D03*
G04 #@! TO.P,J7,7*
G04 #@! TO.N,/GPIOB/485TX*
X95341400Y-90159800D03*
G04 #@! TO.P,J7,17*
G04 #@! TO.N,/GPIOB/~CS*
X102961400Y-82539800D03*
G04 #@! TO.P,J7,8*
G04 #@! TO.N,/GPIOB/485RX*
X95341400Y-92699800D03*
G04 #@! TO.P,J7,18*
G04 #@! TO.N,/GPIOB/SCK*
X102961400Y-79999800D03*
G04 #@! TO.P,J7,9*
G04 #@! TO.N,+3V3*
X95341400Y-95239800D03*
G04 #@! TO.P,J7,19*
G04 #@! TO.N,/GPIOB/MOSI*
X102961400Y-77459800D03*
G04 #@! TO.P,J7,10*
G04 #@! TO.N,+24V*
X95341400Y-97779800D03*
G04 #@! TO.P,J7,20*
G04 #@! TO.N,GND*
X102961400Y-74919800D03*
G04 #@! TD*
D29*
G04 #@! TO.N,GND*
G04 #@! TO.C,R15*
G36*
X182151504Y-60264004D02*
X182175773Y-60267604D01*
X182199571Y-60273565D01*
X182222671Y-60281830D01*
X182244849Y-60292320D01*
X182265893Y-60304933D01*
X182285598Y-60319547D01*
X182303777Y-60336023D01*
X182320253Y-60354202D01*
X182334867Y-60373907D01*
X182347480Y-60394951D01*
X182357970Y-60417129D01*
X182366235Y-60440229D01*
X182372196Y-60464027D01*
X182375796Y-60488296D01*
X182377000Y-60512800D01*
X182377000Y-61762800D01*
X182375796Y-61787304D01*
X182372196Y-61811573D01*
X182366235Y-61835371D01*
X182357970Y-61858471D01*
X182347480Y-61880649D01*
X182334867Y-61901693D01*
X182320253Y-61921398D01*
X182303777Y-61939577D01*
X182285598Y-61956053D01*
X182265893Y-61970667D01*
X182244849Y-61983280D01*
X182222671Y-61993770D01*
X182199571Y-62002035D01*
X182175773Y-62007996D01*
X182151504Y-62011596D01*
X182127000Y-62012800D01*
X181377000Y-62012800D01*
X181352496Y-62011596D01*
X181328227Y-62007996D01*
X181304429Y-62002035D01*
X181281329Y-61993770D01*
X181259151Y-61983280D01*
X181238107Y-61970667D01*
X181218402Y-61956053D01*
X181200223Y-61939577D01*
X181183747Y-61921398D01*
X181169133Y-61901693D01*
X181156520Y-61880649D01*
X181146030Y-61858471D01*
X181137765Y-61835371D01*
X181131804Y-61811573D01*
X181128204Y-61787304D01*
X181127000Y-61762800D01*
X181127000Y-60512800D01*
X181128204Y-60488296D01*
X181131804Y-60464027D01*
X181137765Y-60440229D01*
X181146030Y-60417129D01*
X181156520Y-60394951D01*
X181169133Y-60373907D01*
X181183747Y-60354202D01*
X181200223Y-60336023D01*
X181218402Y-60319547D01*
X181238107Y-60304933D01*
X181259151Y-60292320D01*
X181281329Y-60281830D01*
X181304429Y-60273565D01*
X181328227Y-60267604D01*
X181352496Y-60264004D01*
X181377000Y-60262800D01*
X182127000Y-60262800D01*
X182151504Y-60264004D01*
X182151504Y-60264004D01*
G37*
D33*
G04 #@! TD*
G04 #@! TO.P,R15,1*
G04 #@! TO.N,GND*
X181752000Y-61137800D03*
D29*
G04 #@! TO.N,Net-(R15-Pad2)*
G04 #@! TO.C,R15*
G36*
X184951504Y-60264004D02*
X184975773Y-60267604D01*
X184999571Y-60273565D01*
X185022671Y-60281830D01*
X185044849Y-60292320D01*
X185065893Y-60304933D01*
X185085598Y-60319547D01*
X185103777Y-60336023D01*
X185120253Y-60354202D01*
X185134867Y-60373907D01*
X185147480Y-60394951D01*
X185157970Y-60417129D01*
X185166235Y-60440229D01*
X185172196Y-60464027D01*
X185175796Y-60488296D01*
X185177000Y-60512800D01*
X185177000Y-61762800D01*
X185175796Y-61787304D01*
X185172196Y-61811573D01*
X185166235Y-61835371D01*
X185157970Y-61858471D01*
X185147480Y-61880649D01*
X185134867Y-61901693D01*
X185120253Y-61921398D01*
X185103777Y-61939577D01*
X185085598Y-61956053D01*
X185065893Y-61970667D01*
X185044849Y-61983280D01*
X185022671Y-61993770D01*
X184999571Y-62002035D01*
X184975773Y-62007996D01*
X184951504Y-62011596D01*
X184927000Y-62012800D01*
X184177000Y-62012800D01*
X184152496Y-62011596D01*
X184128227Y-62007996D01*
X184104429Y-62002035D01*
X184081329Y-61993770D01*
X184059151Y-61983280D01*
X184038107Y-61970667D01*
X184018402Y-61956053D01*
X184000223Y-61939577D01*
X183983747Y-61921398D01*
X183969133Y-61901693D01*
X183956520Y-61880649D01*
X183946030Y-61858471D01*
X183937765Y-61835371D01*
X183931804Y-61811573D01*
X183928204Y-61787304D01*
X183927000Y-61762800D01*
X183927000Y-60512800D01*
X183928204Y-60488296D01*
X183931804Y-60464027D01*
X183937765Y-60440229D01*
X183946030Y-60417129D01*
X183956520Y-60394951D01*
X183969133Y-60373907D01*
X183983747Y-60354202D01*
X184000223Y-60336023D01*
X184018402Y-60319547D01*
X184038107Y-60304933D01*
X184059151Y-60292320D01*
X184081329Y-60281830D01*
X184104429Y-60273565D01*
X184128227Y-60267604D01*
X184152496Y-60264004D01*
X184177000Y-60262800D01*
X184927000Y-60262800D01*
X184951504Y-60264004D01*
X184951504Y-60264004D01*
G37*
D33*
G04 #@! TD*
G04 #@! TO.P,R15,2*
G04 #@! TO.N,Net-(R15-Pad2)*
X184552000Y-61137800D03*
D29*
G04 #@! TO.N,Net-(R16-Pad2)*
G04 #@! TO.C,R16*
G36*
X185012504Y-65084904D02*
X185036773Y-65088504D01*
X185060571Y-65094465D01*
X185083671Y-65102730D01*
X185105849Y-65113220D01*
X185126893Y-65125833D01*
X185146598Y-65140447D01*
X185164777Y-65156923D01*
X185181253Y-65175102D01*
X185195867Y-65194807D01*
X185208480Y-65215851D01*
X185218970Y-65238029D01*
X185227235Y-65261129D01*
X185233196Y-65284927D01*
X185236796Y-65309196D01*
X185238000Y-65333700D01*
X185238000Y-66583700D01*
X185236796Y-66608204D01*
X185233196Y-66632473D01*
X185227235Y-66656271D01*
X185218970Y-66679371D01*
X185208480Y-66701549D01*
X185195867Y-66722593D01*
X185181253Y-66742298D01*
X185164777Y-66760477D01*
X185146598Y-66776953D01*
X185126893Y-66791567D01*
X185105849Y-66804180D01*
X185083671Y-66814670D01*
X185060571Y-66822935D01*
X185036773Y-66828896D01*
X185012504Y-66832496D01*
X184988000Y-66833700D01*
X184238000Y-66833700D01*
X184213496Y-66832496D01*
X184189227Y-66828896D01*
X184165429Y-66822935D01*
X184142329Y-66814670D01*
X184120151Y-66804180D01*
X184099107Y-66791567D01*
X184079402Y-66776953D01*
X184061223Y-66760477D01*
X184044747Y-66742298D01*
X184030133Y-66722593D01*
X184017520Y-66701549D01*
X184007030Y-66679371D01*
X183998765Y-66656271D01*
X183992804Y-66632473D01*
X183989204Y-66608204D01*
X183988000Y-66583700D01*
X183988000Y-65333700D01*
X183989204Y-65309196D01*
X183992804Y-65284927D01*
X183998765Y-65261129D01*
X184007030Y-65238029D01*
X184017520Y-65215851D01*
X184030133Y-65194807D01*
X184044747Y-65175102D01*
X184061223Y-65156923D01*
X184079402Y-65140447D01*
X184099107Y-65125833D01*
X184120151Y-65113220D01*
X184142329Y-65102730D01*
X184165429Y-65094465D01*
X184189227Y-65088504D01*
X184213496Y-65084904D01*
X184238000Y-65083700D01*
X184988000Y-65083700D01*
X185012504Y-65084904D01*
X185012504Y-65084904D01*
G37*
D33*
G04 #@! TD*
G04 #@! TO.P,R16,2*
G04 #@! TO.N,Net-(R16-Pad2)*
X184613000Y-65958700D03*
D29*
G04 #@! TO.N,+3V3*
G04 #@! TO.C,R16*
G36*
X182212504Y-65084904D02*
X182236773Y-65088504D01*
X182260571Y-65094465D01*
X182283671Y-65102730D01*
X182305849Y-65113220D01*
X182326893Y-65125833D01*
X182346598Y-65140447D01*
X182364777Y-65156923D01*
X182381253Y-65175102D01*
X182395867Y-65194807D01*
X182408480Y-65215851D01*
X182418970Y-65238029D01*
X182427235Y-65261129D01*
X182433196Y-65284927D01*
X182436796Y-65309196D01*
X182438000Y-65333700D01*
X182438000Y-66583700D01*
X182436796Y-66608204D01*
X182433196Y-66632473D01*
X182427235Y-66656271D01*
X182418970Y-66679371D01*
X182408480Y-66701549D01*
X182395867Y-66722593D01*
X182381253Y-66742298D01*
X182364777Y-66760477D01*
X182346598Y-66776953D01*
X182326893Y-66791567D01*
X182305849Y-66804180D01*
X182283671Y-66814670D01*
X182260571Y-66822935D01*
X182236773Y-66828896D01*
X182212504Y-66832496D01*
X182188000Y-66833700D01*
X181438000Y-66833700D01*
X181413496Y-66832496D01*
X181389227Y-66828896D01*
X181365429Y-66822935D01*
X181342329Y-66814670D01*
X181320151Y-66804180D01*
X181299107Y-66791567D01*
X181279402Y-66776953D01*
X181261223Y-66760477D01*
X181244747Y-66742298D01*
X181230133Y-66722593D01*
X181217520Y-66701549D01*
X181207030Y-66679371D01*
X181198765Y-66656271D01*
X181192804Y-66632473D01*
X181189204Y-66608204D01*
X181188000Y-66583700D01*
X181188000Y-65333700D01*
X181189204Y-65309196D01*
X181192804Y-65284927D01*
X181198765Y-65261129D01*
X181207030Y-65238029D01*
X181217520Y-65215851D01*
X181230133Y-65194807D01*
X181244747Y-65175102D01*
X181261223Y-65156923D01*
X181279402Y-65140447D01*
X181299107Y-65125833D01*
X181320151Y-65113220D01*
X181342329Y-65102730D01*
X181365429Y-65094465D01*
X181389227Y-65088504D01*
X181413496Y-65084904D01*
X181438000Y-65083700D01*
X182188000Y-65083700D01*
X182212504Y-65084904D01*
X182212504Y-65084904D01*
G37*
D33*
G04 #@! TD*
G04 #@! TO.P,R16,1*
G04 #@! TO.N,+3V3*
X181813000Y-65958700D03*
D36*
G04 #@! TO.P,SW1,3*
G04 #@! TO.N,RTDa5*
X168359000Y-58129800D03*
G04 #@! TO.P,SW1,6*
G04 #@! TO.N,RTDb5*
X161859000Y-58129800D03*
G04 #@! TO.P,SW1,2*
G04 #@! TO.N,Net-(J6-Pad1)*
X168359000Y-60629800D03*
G04 #@! TO.P,SW1,5*
G04 #@! TO.N,Net-(J6-Pad2)*
X161859000Y-60629800D03*
G04 #@! TO.P,SW1,1*
G04 #@! TO.N,Rain*
X168359000Y-63129800D03*
G04 #@! TO.P,SW1,4*
G04 #@! TO.N,GND*
X161859000Y-63129800D03*
G04 #@! TD*
G04 #@! TO.P,SW2,4*
G04 #@! TO.N,Net-(R15-Pad2)*
X171626000Y-63146400D03*
G04 #@! TO.P,SW2,1*
G04 #@! TO.N,WindDir*
X178126000Y-63146400D03*
G04 #@! TO.P,SW2,5*
G04 #@! TO.N,Aux*
X171626000Y-60646400D03*
G04 #@! TO.P,SW2,2*
G04 #@! TO.N,Net-(J6-Pad3)*
X178126000Y-60646400D03*
G04 #@! TO.P,SW2,6*
G04 #@! TO.N,Net-(R16-Pad2)*
X171626000Y-58146400D03*
G04 #@! TO.P,SW2,3*
G04 #@! TO.N,RTD-5*
X178126000Y-58146400D03*
G04 #@! TD*
D29*
G04 #@! TO.N,Net-(D4-Pad1)*
G04 #@! TO.C,D4*
G36*
X101681504Y-64536304D02*
X101705773Y-64539904D01*
X101729571Y-64545865D01*
X101752671Y-64554130D01*
X101774849Y-64564620D01*
X101795893Y-64577233D01*
X101815598Y-64591847D01*
X101833777Y-64608323D01*
X101850253Y-64626502D01*
X101864867Y-64646207D01*
X101877480Y-64667251D01*
X101887970Y-64689429D01*
X101896235Y-64712529D01*
X101902196Y-64736327D01*
X101905796Y-64760596D01*
X101907000Y-64785100D01*
X101907000Y-66035100D01*
X101905796Y-66059604D01*
X101902196Y-66083873D01*
X101896235Y-66107671D01*
X101887970Y-66130771D01*
X101877480Y-66152949D01*
X101864867Y-66173993D01*
X101850253Y-66193698D01*
X101833777Y-66211877D01*
X101815598Y-66228353D01*
X101795893Y-66242967D01*
X101774849Y-66255580D01*
X101752671Y-66266070D01*
X101729571Y-66274335D01*
X101705773Y-66280296D01*
X101681504Y-66283896D01*
X101657000Y-66285100D01*
X100907000Y-66285100D01*
X100882496Y-66283896D01*
X100858227Y-66280296D01*
X100834429Y-66274335D01*
X100811329Y-66266070D01*
X100789151Y-66255580D01*
X100768107Y-66242967D01*
X100748402Y-66228353D01*
X100730223Y-66211877D01*
X100713747Y-66193698D01*
X100699133Y-66173993D01*
X100686520Y-66152949D01*
X100676030Y-66130771D01*
X100667765Y-66107671D01*
X100661804Y-66083873D01*
X100658204Y-66059604D01*
X100657000Y-66035100D01*
X100657000Y-64785100D01*
X100658204Y-64760596D01*
X100661804Y-64736327D01*
X100667765Y-64712529D01*
X100676030Y-64689429D01*
X100686520Y-64667251D01*
X100699133Y-64646207D01*
X100713747Y-64626502D01*
X100730223Y-64608323D01*
X100748402Y-64591847D01*
X100768107Y-64577233D01*
X100789151Y-64564620D01*
X100811329Y-64554130D01*
X100834429Y-64545865D01*
X100858227Y-64539904D01*
X100882496Y-64536304D01*
X100907000Y-64535100D01*
X101657000Y-64535100D01*
X101681504Y-64536304D01*
X101681504Y-64536304D01*
G37*
D33*
G04 #@! TD*
G04 #@! TO.P,D4,1*
G04 #@! TO.N,Net-(D4-Pad1)*
X101282000Y-65410100D03*
D29*
G04 #@! TO.N,GND*
G04 #@! TO.C,D4*
G36*
X104481504Y-64536304D02*
X104505773Y-64539904D01*
X104529571Y-64545865D01*
X104552671Y-64554130D01*
X104574849Y-64564620D01*
X104595893Y-64577233D01*
X104615598Y-64591847D01*
X104633777Y-64608323D01*
X104650253Y-64626502D01*
X104664867Y-64646207D01*
X104677480Y-64667251D01*
X104687970Y-64689429D01*
X104696235Y-64712529D01*
X104702196Y-64736327D01*
X104705796Y-64760596D01*
X104707000Y-64785100D01*
X104707000Y-66035100D01*
X104705796Y-66059604D01*
X104702196Y-66083873D01*
X104696235Y-66107671D01*
X104687970Y-66130771D01*
X104677480Y-66152949D01*
X104664867Y-66173993D01*
X104650253Y-66193698D01*
X104633777Y-66211877D01*
X104615598Y-66228353D01*
X104595893Y-66242967D01*
X104574849Y-66255580D01*
X104552671Y-66266070D01*
X104529571Y-66274335D01*
X104505773Y-66280296D01*
X104481504Y-66283896D01*
X104457000Y-66285100D01*
X103707000Y-66285100D01*
X103682496Y-66283896D01*
X103658227Y-66280296D01*
X103634429Y-66274335D01*
X103611329Y-66266070D01*
X103589151Y-66255580D01*
X103568107Y-66242967D01*
X103548402Y-66228353D01*
X103530223Y-66211877D01*
X103513747Y-66193698D01*
X103499133Y-66173993D01*
X103486520Y-66152949D01*
X103476030Y-66130771D01*
X103467765Y-66107671D01*
X103461804Y-66083873D01*
X103458204Y-66059604D01*
X103457000Y-66035100D01*
X103457000Y-64785100D01*
X103458204Y-64760596D01*
X103461804Y-64736327D01*
X103467765Y-64712529D01*
X103476030Y-64689429D01*
X103486520Y-64667251D01*
X103499133Y-64646207D01*
X103513747Y-64626502D01*
X103530223Y-64608323D01*
X103548402Y-64591847D01*
X103568107Y-64577233D01*
X103589151Y-64564620D01*
X103611329Y-64554130D01*
X103634429Y-64545865D01*
X103658227Y-64539904D01*
X103682496Y-64536304D01*
X103707000Y-64535100D01*
X104457000Y-64535100D01*
X104481504Y-64536304D01*
X104481504Y-64536304D01*
G37*
D33*
G04 #@! TD*
G04 #@! TO.P,D4,2*
G04 #@! TO.N,GND*
X104082000Y-65410100D03*
D37*
G04 #@! TO.N,+3V3*
X158461800Y-109864100D03*
X172172000Y-109631700D03*
X120352500Y-109766700D03*
X122153700Y-106213600D03*
X122765700Y-83875000D03*
X157112400Y-87939900D03*
X152286500Y-81219100D03*
G04 #@! TO.N,GND*
X127469000Y-68147300D03*
X130883400Y-80822800D03*
G04 #@! TO.N,RTDb1*
X109739300Y-116393500D03*
G04 #@! TO.N,RTDb3*
X140408800Y-115975200D03*
G04 #@! TO.N,RTD-4*
X166687100Y-118806000D03*
G04 #@! TO.N,RTDb4*
X159454900Y-119980300D03*
G04 #@! TO.N,RTDb5*
X172464200Y-114538000D03*
X162180700Y-61880800D03*
G04 #@! TO.N,Net-(CON1-Pad1)*
X145319600Y-82885800D03*
G04 #@! TO.N,Net-(CON1-Pad5)*
X145318000Y-85924600D03*
G04 #@! TO.N,Net-(D6-Pad2)*
X141282800Y-92386200D03*
X134590600Y-73885400D03*
G04 #@! TO.N,Net-(D8-Pad2)*
X148169500Y-91011800D03*
X145552200Y-93500000D03*
G04 #@! TO.N,/RS485B*
X172995100Y-71456800D03*
G04 #@! TO.N,/RS485A*
X172551300Y-76614400D03*
G04 #@! TO.N,/Pyro*
X116841400Y-62102000D03*
G04 #@! TO.N,RTDa2*
X119993500Y-113865000D03*
G04 #@! TO.N,RTDa3*
X136739400Y-115396900D03*
G04 #@! TO.N,RTDa4*
X147708400Y-115416600D03*
G04 #@! TO.N,RTDa5*
X175839300Y-113485500D03*
X167881100Y-61879800D03*
G04 #@! TO.N,/Snow*
X178130000Y-74454500D03*
G04 #@! TO.N,/GPIOB/SCK*
X132032400Y-95590800D03*
G04 #@! TO.N,/GPIOB/~CS*
X125936700Y-95296300D03*
G04 #@! TO.N,/GPIOB/D/~C*
X130739000Y-94289700D03*
G04 #@! TO.N,~RTDcs1*
X133172500Y-90865400D03*
X109004600Y-110035000D03*
G04 #@! TO.N,~RTDcs2*
X128569800Y-111265000D03*
X134733700Y-91359100D03*
G04 #@! TO.N,~RTDcs3*
X137760300Y-93320600D03*
X144526600Y-112122600D03*
G04 #@! TO.N,~RTDcs4*
X140583500Y-94019000D03*
X160325300Y-108495900D03*
G04 #@! TO.N,/GPIOA/serial/TX_en*
X126845000Y-95230900D03*
X131991200Y-69815200D03*
G04 #@! TO.N,~RTDcs5*
X139459000Y-100996000D03*
X167060200Y-108748800D03*
G04 #@! TO.N,RTD_SCK*
X140442300Y-102907600D03*
X140642500Y-84604800D03*
X150270300Y-109310400D03*
G04 #@! TO.N,RTD_MISO*
X130890700Y-110615000D03*
X140657500Y-83581600D03*
X147316900Y-111893500D03*
G04 #@! TO.N,RTD_MOSI*
X144077000Y-112953000D03*
X136799800Y-112106200D03*
X138067400Y-86451500D03*
G04 #@! TO.N,~DRDY1*
X136672400Y-85239000D03*
X102431000Y-107635400D03*
G04 #@! TO.N,~DRDY2*
X137499000Y-85251100D03*
X120207900Y-108756400D03*
G04 #@! TO.N,~DRDY3*
X138404200Y-84142800D03*
X137529700Y-109271700D03*
G04 #@! TO.N,~DRDY4*
X137834000Y-83383700D03*
X154884500Y-108910000D03*
G04 #@! TO.N,~DRDY5*
X144681200Y-82340400D03*
X171560600Y-108832400D03*
G04 #@! TO.N,/GPIOB/485TX*
X130654900Y-83372700D03*
X120626500Y-90159800D03*
G04 #@! TO.N,/GPIOB/485RX*
X132601200Y-83961000D03*
G04 #@! TO.N,Rain*
X145156000Y-90000000D03*
X163355000Y-63531800D03*
G04 #@! TO.N,Aux*
X142640300Y-89500000D03*
X160061300Y-63214700D03*
G04 #@! TO.N,/GPIOA/serial/TX*
X129411000Y-94955100D03*
X133404000Y-71591700D03*
G04 #@! TO.N,/GPIOA/serial/RX*
X129335800Y-97557800D03*
X133602700Y-67691000D03*
G04 #@! TO.N,Net-(D5-Pad1)*
X142372600Y-91500000D03*
X141756000Y-61760300D03*
G04 #@! TD*
D38*
G04 #@! TO.N,+3V3*
X122765700Y-83875000D02*
X123325200Y-84434500D01*
X123325200Y-84434500D02*
X123325200Y-85200000D01*
X142100000Y-78700000D02*
X143425300Y-78700000D01*
X118627000Y-78397300D02*
X128372000Y-78397300D01*
X128372000Y-78397300D02*
X128774700Y-78800000D01*
X118306900Y-78734900D02*
X118306900Y-78717400D01*
X118306900Y-78717400D02*
X118627000Y-78397300D01*
X118627000Y-71137900D02*
X118627000Y-78397300D01*
X130100000Y-78800000D02*
X128774700Y-78800000D01*
X130100000Y-78237300D02*
X130762600Y-77574700D01*
X130762600Y-77574700D02*
X142100000Y-77574700D01*
X142100000Y-78700000D02*
X142100000Y-77574700D01*
X130100000Y-78800000D02*
X130100000Y-78237300D01*
X118627000Y-70012600D02*
X118627000Y-71137900D01*
X117231000Y-78734900D02*
X118306900Y-78734900D01*
X158120300Y-109864100D02*
X158120300Y-109475000D01*
X157520200Y-110125000D02*
X157859400Y-110125000D01*
X157859400Y-110125000D02*
X158120300Y-109864100D01*
X158461800Y-109864100D02*
X158120300Y-109864100D01*
X172172000Y-109631700D02*
X172639700Y-109631700D01*
X172639700Y-109631700D02*
X172639700Y-110035000D01*
X173239900Y-109385000D02*
X172886400Y-109385000D01*
X172886400Y-109385000D02*
X172639700Y-109631700D01*
X119275300Y-92398800D02*
X122874700Y-88799400D01*
X122874700Y-88799400D02*
X122874700Y-85200000D01*
X139930300Y-110545000D02*
X139930300Y-106045000D01*
X139930300Y-106045000D02*
X139835300Y-105950000D01*
X139817700Y-110545000D02*
X139930300Y-110545000D01*
X138730000Y-110545000D02*
X139817700Y-110545000D01*
X142560000Y-105780000D02*
X142560000Y-104654700D01*
X142560000Y-104654700D02*
X143072600Y-104654700D01*
X143072600Y-104654700D02*
X145002000Y-102725300D01*
X138510000Y-105950000D02*
X139835300Y-105950000D01*
X142560000Y-105780000D02*
X140005300Y-105780000D01*
X140005300Y-105780000D02*
X139835300Y-105950000D01*
X130100000Y-78800000D02*
X130100000Y-79925300D01*
X130100000Y-79925300D02*
X130000000Y-80025300D01*
X130000000Y-80025300D02*
X130000000Y-82100000D01*
X127024700Y-94500000D02*
X125848700Y-94500000D01*
X125848700Y-94500000D02*
X125238900Y-95109800D01*
X125238900Y-95109800D02*
X125238900Y-96100000D01*
X128556000Y-101600000D02*
X127230700Y-101600000D01*
X123470000Y-105780000D02*
X127230700Y-102019300D01*
X127230700Y-102019300D02*
X127230700Y-101600000D01*
X123470000Y-105780000D02*
X122514700Y-105780000D01*
X123840000Y-105780000D02*
X123470000Y-105780000D01*
X119275300Y-92398800D02*
X119275300Y-92500600D01*
X119275300Y-92500600D02*
X122874700Y-96100000D01*
X115184000Y-92398800D02*
X119275300Y-92398800D01*
X124000000Y-96100000D02*
X122874700Y-96100000D01*
X122153700Y-105780000D02*
X121565300Y-105780000D01*
X121565300Y-105780000D02*
X121345300Y-105560000D01*
X122514700Y-105780000D02*
X122153700Y-105780000D01*
X122153700Y-105780000D02*
X122153700Y-106213600D01*
X128100000Y-94500000D02*
X127024700Y-94500000D01*
X119810300Y-109766700D02*
X119810300Y-109965000D01*
X119810300Y-109315000D02*
X119810300Y-109766700D01*
X120352500Y-109766700D02*
X119810300Y-109766700D01*
X145002000Y-101600000D02*
X145002000Y-102725300D01*
X145002000Y-101600000D02*
X145002000Y-100474700D01*
X144753100Y-98437600D02*
X146448700Y-96742000D01*
X142000000Y-98437600D02*
X144753100Y-98437600D01*
X144753100Y-98437600D02*
X144753100Y-100225800D01*
X144753100Y-100225800D02*
X145002000Y-100474700D01*
X123325200Y-85200000D02*
X122874700Y-85200000D01*
X124000000Y-85200000D02*
X123325200Y-85200000D01*
X102961400Y-95239800D02*
X101836100Y-95239800D01*
X96494600Y-95802400D02*
X101273500Y-95802400D01*
X101273500Y-95802400D02*
X101836100Y-95239800D01*
X96494600Y-95802400D02*
X96494600Y-98459200D01*
X96494600Y-98459200D02*
X95394600Y-99559200D01*
X95394600Y-99559200D02*
X95394600Y-104547600D01*
X95394600Y-104547600D02*
X97072700Y-106225700D01*
X97072700Y-106225700D02*
X99139600Y-106225700D01*
X95341400Y-95802400D02*
X96494600Y-95802400D01*
X173840000Y-110035000D02*
X172639700Y-110035000D01*
X173840000Y-109385000D02*
X173239900Y-109385000D01*
X152286500Y-81219100D02*
X145944400Y-81219100D01*
X145944400Y-81219100D02*
X143425300Y-78700000D01*
X128556000Y-99843600D02*
X130131700Y-99843600D01*
X130131700Y-99843600D02*
X131000000Y-98975300D01*
X125238900Y-96100000D02*
X125238900Y-96526500D01*
X125238900Y-96526500D02*
X128556000Y-99843600D01*
X128556000Y-99843600D02*
X128556000Y-100474700D01*
X131000000Y-97900000D02*
X131000000Y-98975300D01*
X125238900Y-96100000D02*
X125125300Y-96100000D01*
X128556000Y-101600000D02*
X128556000Y-100474700D01*
X115184000Y-92398800D02*
X115184000Y-92361900D01*
X115184000Y-93487200D02*
X115184000Y-92398800D01*
X102961400Y-95239800D02*
X104086700Y-95239800D01*
X104086700Y-95239800D02*
X106964600Y-92361900D01*
X106964600Y-92361900D02*
X115184000Y-92361900D01*
X124562700Y-96100000D02*
X124000000Y-96100000D01*
X124562700Y-96100000D02*
X125125300Y-96100000D01*
X99139600Y-106225700D02*
X99139600Y-107847700D01*
X99139600Y-107847700D02*
X99376900Y-108085000D01*
X100720000Y-104645300D02*
X99139600Y-106225700D01*
X100720000Y-103520000D02*
X100720000Y-104645300D01*
X99376900Y-108085000D02*
X99139700Y-108322200D01*
X99139700Y-108322200D02*
X99139700Y-108735000D01*
X99739900Y-108085000D02*
X99376900Y-108085000D01*
X103434700Y-103630000D02*
X103324700Y-103520000D01*
X103324700Y-103520000D02*
X100720000Y-103520000D01*
X127024700Y-86500000D02*
X125724700Y-85200000D01*
X125724700Y-85200000D02*
X125125300Y-85200000D01*
X153615400Y-66119300D02*
X153492700Y-65996600D01*
X153492700Y-65996600D02*
X149282700Y-65996600D01*
X149282700Y-65996600D02*
X147175300Y-68104000D01*
X152286500Y-81219100D02*
X152286500Y-78080200D01*
X152286500Y-78080200D02*
X153615400Y-76751300D01*
X153615400Y-76751300D02*
X153615400Y-66119300D01*
X181813000Y-65958700D02*
X153776000Y-65958700D01*
X153776000Y-65958700D02*
X153615400Y-66119300D01*
X146050000Y-68104000D02*
X147175300Y-68104000D01*
X147828000Y-84106000D02*
X148953300Y-84106000D01*
X148953300Y-84106000D02*
X152787200Y-87939900D01*
X152787200Y-87939900D02*
X157112400Y-87939900D01*
X147583000Y-84106000D02*
X147828000Y-84106000D01*
X147583000Y-84106000D02*
X146702700Y-84106000D01*
X157308700Y-87939900D02*
X157112400Y-87939900D01*
X158134000Y-87939900D02*
X157308700Y-87939900D01*
X128100000Y-94500000D02*
X128100000Y-94000000D01*
X120020000Y-105560000D02*
X121345300Y-105560000D01*
X178940000Y-104890000D02*
X177614700Y-104890000D01*
X174550000Y-104327300D02*
X177052000Y-104327300D01*
X177052000Y-104327300D02*
X177614700Y-104890000D01*
X174550000Y-104327300D02*
X174550000Y-103764700D01*
X174550000Y-104890000D02*
X174550000Y-104327300D01*
X158334000Y-95873800D02*
X158183800Y-96024000D01*
X158183800Y-96024000D02*
X149417300Y-96024000D01*
X149417300Y-96024000D02*
X148699300Y-96742000D01*
X158991700Y-94848700D02*
X158991700Y-95216100D01*
X158991700Y-95216100D02*
X158334000Y-95873800D01*
X158334000Y-95873800D02*
X158802400Y-96342300D01*
X158802400Y-96342300D02*
X158802400Y-101117100D01*
X158802400Y-101117100D02*
X161450000Y-103764700D01*
X161450000Y-103764700D02*
X161220000Y-103994700D01*
X174550000Y-103764700D02*
X161450000Y-103764700D01*
X138730000Y-111195000D02*
X139930300Y-111195000D01*
X139930300Y-111195000D02*
X139930300Y-110545000D01*
X100340000Y-108735000D02*
X99139700Y-108735000D01*
X100340000Y-108085000D02*
X99739900Y-108085000D01*
X156920000Y-109475000D02*
X158120300Y-109475000D01*
X156920000Y-110125000D02*
X157520200Y-110125000D01*
X147574000Y-96742000D02*
X146448700Y-96742000D01*
X142000000Y-97900000D02*
X142000000Y-98437600D01*
X95341400Y-95239800D02*
X95341400Y-95802400D01*
X144346800Y-84000000D02*
X143900000Y-84000000D01*
X144346800Y-84000000D02*
X144975300Y-84000000D01*
X144924700Y-68104000D02*
X144511700Y-67691000D01*
X144511700Y-67691000D02*
X142384000Y-67691000D01*
X127562400Y-86500000D02*
X128100000Y-86500000D01*
X127562400Y-86500000D02*
X127024700Y-86500000D01*
X144975300Y-84000000D02*
X146596700Y-84000000D01*
X146596700Y-84000000D02*
X146702700Y-84106000D01*
X104760000Y-103630000D02*
X103434700Y-103630000D01*
X161220000Y-105120000D02*
X159894700Y-105120000D01*
X156720000Y-105040000D02*
X159814700Y-105040000D01*
X159814700Y-105040000D02*
X159894700Y-105120000D01*
X161220000Y-105120000D02*
X161220000Y-103994700D01*
X147574000Y-96742000D02*
X148699300Y-96742000D01*
X160167000Y-94848700D02*
X158991700Y-94848700D01*
X124000000Y-85200000D02*
X125125300Y-85200000D01*
X146050000Y-68104000D02*
X144924700Y-68104000D01*
X118610000Y-109315000D02*
X119810300Y-109315000D01*
X118610000Y-109965000D02*
X119810300Y-109965000D01*
G04 #@! TO.N,GND*
X129175300Y-93500000D02*
X129175300Y-93667400D01*
X129175300Y-93667400D02*
X131724000Y-96216100D01*
X131724000Y-96216100D02*
X141031400Y-96216100D01*
X141031400Y-96216100D02*
X141500000Y-96684700D01*
X141002000Y-101600000D02*
X141002000Y-100474700D01*
X141500000Y-97900000D02*
X141500000Y-99976700D01*
X141500000Y-99976700D02*
X141002000Y-100474700D01*
X141500000Y-96684700D02*
X141500000Y-97900000D01*
X132556000Y-101600000D02*
X132556000Y-102725300D01*
X132072000Y-104837300D02*
X133184700Y-105950000D01*
X129165300Y-105780000D02*
X130108000Y-104837300D01*
X130108000Y-104837300D02*
X132072000Y-104837300D01*
X132072000Y-104837300D02*
X132072000Y-103209300D01*
X132072000Y-103209300D02*
X132556000Y-102725300D01*
X134510000Y-105950000D02*
X135835300Y-105950000D01*
X141002000Y-101600000D02*
X139950500Y-101600000D01*
X139950500Y-101600000D02*
X135835300Y-105715200D01*
X135835300Y-105715200D02*
X135835300Y-105950000D01*
X134510000Y-105950000D02*
X133184700Y-105950000D01*
X127469000Y-70012600D02*
X128294300Y-70012600D01*
X142384000Y-71501000D02*
X141183700Y-71501000D01*
X141183700Y-71501000D02*
X140520600Y-70837900D01*
X140520600Y-70837900D02*
X129119600Y-70837900D01*
X129119600Y-70837900D02*
X128294300Y-70012600D01*
X144924700Y-72104000D02*
X144321700Y-71501000D01*
X144321700Y-71501000D02*
X142384000Y-71501000D01*
X127469000Y-68147300D02*
X127469000Y-67984300D01*
X127469000Y-67984300D02*
X128746000Y-66707300D01*
X127469000Y-70012600D02*
X127469000Y-68147300D01*
X108503100Y-108085000D02*
X108740300Y-108322200D01*
X108740300Y-108322200D02*
X108740300Y-108735000D01*
X108140200Y-108085000D02*
X108503100Y-108085000D01*
X108503100Y-108085000D02*
X108740300Y-108085000D01*
X107540000Y-108735000D02*
X108740300Y-108735000D01*
X107540000Y-108085000D02*
X108140200Y-108085000D01*
X109564700Y-105560000D02*
X114694700Y-105560000D01*
X108760000Y-104755300D02*
X109564700Y-105560000D01*
X109564700Y-105560000D02*
X109564700Y-107260600D01*
X109564700Y-107260600D02*
X108740300Y-108085000D01*
X143900000Y-84500000D02*
X142469800Y-84500000D01*
X142469800Y-84500000D02*
X139442600Y-87527200D01*
X139442600Y-87527200D02*
X137351900Y-87527200D01*
X137351900Y-87527200D02*
X133000000Y-83175300D01*
X133000000Y-82100000D02*
X133000000Y-83175300D01*
X133000000Y-81607700D02*
X133000000Y-82100000D01*
X133000000Y-81607700D02*
X133000000Y-81115500D01*
X128746000Y-65532000D02*
X128746000Y-66707300D01*
X104082000Y-65618400D02*
X103088900Y-66611500D01*
X103088900Y-66611500D02*
X102961400Y-66611500D01*
X104082000Y-65410100D02*
X104082000Y-65618400D01*
X104082000Y-65618400D02*
X106395700Y-65618400D01*
X107721000Y-65618400D02*
X106395700Y-65618400D01*
X95341400Y-74919800D02*
X96466700Y-74919800D01*
X102961400Y-74357100D02*
X97029400Y-74357100D01*
X97029400Y-74357100D02*
X96466700Y-74919800D01*
X102961400Y-74357100D02*
X102961400Y-73794500D01*
X102961400Y-74919800D02*
X102961400Y-74357100D01*
X102961400Y-66611500D02*
X99748400Y-66611500D01*
X99748400Y-66611500D02*
X98404700Y-65267800D01*
X102961400Y-66611500D02*
X102961400Y-73794500D01*
X127840000Y-105780000D02*
X129165300Y-105780000D01*
X127840000Y-105780000D02*
X127840000Y-108485300D01*
X127840000Y-108485300D02*
X127010300Y-109315000D01*
X132909200Y-80895500D02*
X133879400Y-79925300D01*
X133879400Y-79925300D02*
X134100000Y-79925300D01*
X133000000Y-81115500D02*
X132909200Y-81024700D01*
X132909200Y-81024700D02*
X132909200Y-80895500D01*
X132909200Y-80895500D02*
X130956100Y-80895500D01*
X130956100Y-80895500D02*
X130883400Y-80822800D01*
X134100000Y-78800000D02*
X134100000Y-79925300D01*
X130883400Y-80822800D02*
X130681500Y-81024700D01*
X130681500Y-81024700D02*
X130500000Y-81024700D01*
X130500000Y-82100000D02*
X130500000Y-81024700D01*
X174325800Y-95606400D02*
X172378800Y-93659400D01*
X172378800Y-93659400D02*
X158816300Y-93659400D01*
X158816300Y-93659400D02*
X157627000Y-94848700D01*
X175666000Y-95606400D02*
X174325800Y-95606400D01*
X174325800Y-95606400D02*
X174325800Y-99380200D01*
X174325800Y-99380200D02*
X174465100Y-99519500D01*
X174465100Y-99519500D02*
X180815900Y-99519500D01*
X180815900Y-99519500D02*
X181966000Y-98369400D01*
X163632400Y-109475000D02*
X164120000Y-109962600D01*
X164120000Y-109962600D02*
X164120000Y-110125000D01*
X163632400Y-109475000D02*
X162919700Y-109475000D01*
X164120000Y-109475000D02*
X163632400Y-109475000D01*
X162919600Y-108404800D02*
X162919600Y-109474900D01*
X162919600Y-109474900D02*
X162919700Y-109475000D01*
X165220000Y-106245300D02*
X165079100Y-106245300D01*
X165079100Y-106245300D02*
X162919600Y-108404800D01*
X162919600Y-108404800D02*
X160962700Y-106447900D01*
X160962700Y-106447900D02*
X153002600Y-106447900D01*
X153002600Y-106447900D02*
X152720000Y-106165300D01*
X126773100Y-109315000D02*
X127010300Y-109552200D01*
X127010300Y-109552200D02*
X127010300Y-109965000D01*
X126410200Y-109315000D02*
X126773100Y-109315000D01*
X126773100Y-109315000D02*
X127010300Y-109315000D01*
X125810000Y-109965000D02*
X127010300Y-109965000D01*
X125810000Y-109315000D02*
X126410200Y-109315000D01*
X144756000Y-60452000D02*
X145581300Y-60452000D01*
X116020000Y-105560000D02*
X116020000Y-106685300D01*
X125810000Y-109965000D02*
X124609700Y-109965000D01*
X124609700Y-109965000D02*
X121330000Y-106685300D01*
X121330000Y-106685300D02*
X116020000Y-106685300D01*
X145930000Y-111195000D02*
X144497800Y-111195000D01*
X144497800Y-111195000D02*
X143451700Y-112241100D01*
X143451700Y-112241100D02*
X143451700Y-114416000D01*
X146510900Y-110545000D02*
X145930000Y-111125900D01*
X145930000Y-111125900D02*
X145930000Y-111195000D01*
X143451700Y-114416000D02*
X143480700Y-114445000D01*
X143480700Y-114445000D02*
X145930000Y-114445000D01*
X127010300Y-113215000D02*
X130395800Y-116600500D01*
X130395800Y-116600500D02*
X141267200Y-116600500D01*
X141267200Y-116600500D02*
X143451700Y-114416000D01*
X146510900Y-110545000D02*
X147130300Y-110545000D01*
X145930000Y-110545000D02*
X146510900Y-110545000D01*
X146050000Y-72104000D02*
X144924700Y-72104000D01*
X181040000Y-113285000D02*
X179817200Y-113285000D01*
X179817200Y-113285000D02*
X177218600Y-115883600D01*
X177218600Y-115883600D02*
X177218600Y-119327700D01*
X177218600Y-119327700D02*
X176612200Y-119934100D01*
X176612200Y-119934100D02*
X173185300Y-119934100D01*
X173185300Y-119934100D02*
X166626200Y-113375000D01*
X166626200Y-113375000D02*
X164120000Y-113375000D01*
X152720000Y-105040000D02*
X152720000Y-106165300D01*
X165220000Y-105120000D02*
X165220000Y-106245300D01*
X165551400Y-105120000D02*
X165220000Y-105120000D01*
X165551400Y-105120000D02*
X165882700Y-105120000D01*
X147107600Y-105780000D02*
X147130300Y-105802700D01*
X147130300Y-105802700D02*
X147130300Y-110545000D01*
X165882700Y-105120000D02*
X168994700Y-105120000D01*
X168994700Y-105120000D02*
X169224700Y-104890000D01*
X170550000Y-104890000D02*
X169224700Y-104890000D01*
X170550000Y-104890000D02*
X170550000Y-106015300D01*
X182240300Y-106287400D02*
X170822100Y-106287400D01*
X170822100Y-106287400D02*
X170550000Y-106015300D01*
X182240300Y-106287400D02*
X182240300Y-109385000D01*
X182940000Y-106015300D02*
X182512400Y-106015300D01*
X182512400Y-106015300D02*
X182240300Y-106287400D01*
X147107600Y-105780000D02*
X147885300Y-105780000D01*
X146560000Y-105780000D02*
X147107600Y-105780000D01*
X147828000Y-88106000D02*
X147828000Y-86780700D01*
X143900000Y-84500000D02*
X144975300Y-84500000D01*
X144975300Y-84500000D02*
X147256000Y-86780700D01*
X147256000Y-86780700D02*
X147828000Y-86780700D01*
X147828000Y-89431300D02*
X147544200Y-89715100D01*
X147544200Y-89715100D02*
X147544200Y-91386900D01*
X147544200Y-91386900D02*
X147574000Y-91416700D01*
X175666000Y-95606400D02*
X175666000Y-95068800D01*
X175666000Y-96144100D02*
X175666000Y-95606400D01*
X166214000Y-87939900D02*
X165388700Y-87939900D01*
X147574000Y-92079300D02*
X161249300Y-92079300D01*
X161249300Y-92079300D02*
X165388700Y-87939900D01*
X147574000Y-92079300D02*
X147574000Y-91416700D01*
X147574000Y-92742000D02*
X147574000Y-92079300D01*
X161859000Y-63129800D02*
X158490500Y-59761300D01*
X158490500Y-59761300D02*
X146272000Y-59761300D01*
X181966000Y-93918800D02*
X182545800Y-93918800D01*
X182545800Y-93918800D02*
X186547600Y-89917000D01*
X186547600Y-89917000D02*
X186547600Y-79423600D01*
X186547600Y-79423600D02*
X184304400Y-77180400D01*
X107540000Y-108735000D02*
X106339700Y-108735000D01*
X107540000Y-111985000D02*
X106339700Y-111985000D01*
X106339700Y-111985000D02*
X106339700Y-108735000D01*
X108760000Y-103630000D02*
X108760000Y-104755300D01*
X110784000Y-93487200D02*
X110784000Y-94612500D01*
X108650000Y-102394700D02*
X96720000Y-102394700D01*
X108760000Y-102504700D02*
X108650000Y-102394700D01*
X108650000Y-102394700D02*
X108650000Y-96746500D01*
X108650000Y-96746500D02*
X110784000Y-94612500D01*
X152720000Y-105040000D02*
X151394700Y-105040000D01*
X151394700Y-105040000D02*
X150654700Y-105780000D01*
X150654700Y-105780000D02*
X147885300Y-105780000D01*
X141500000Y-96684700D02*
X145357400Y-96684700D01*
X145357400Y-96684700D02*
X147193400Y-94848700D01*
X147193400Y-94848700D02*
X157627000Y-94848700D01*
X125810000Y-113215000D02*
X127010300Y-113215000D01*
X166214000Y-87939900D02*
X172046600Y-87939900D01*
X172046600Y-87939900D02*
X176991400Y-92884700D01*
X176991400Y-92884700D02*
X176991400Y-94818700D01*
X176991400Y-94818700D02*
X176741300Y-95068800D01*
X176741300Y-95068800D02*
X175666000Y-95068800D01*
X181966000Y-96144100D02*
X181966000Y-93918800D01*
X184304400Y-77180400D02*
X183716700Y-77180400D01*
X184892000Y-77180400D02*
X184304400Y-77180400D01*
X146272000Y-56388000D02*
X146272000Y-55212700D01*
X148869000Y-52353200D02*
X148869000Y-52615700D01*
X148869000Y-52615700D02*
X146272000Y-55212700D01*
X134100000Y-78800000D02*
X135425300Y-78800000D01*
X138100000Y-78700000D02*
X135525300Y-78700000D01*
X135525300Y-78700000D02*
X135425300Y-78800000D01*
X128100000Y-93500000D02*
X129175300Y-93500000D01*
X180130000Y-73715900D02*
X181455300Y-73715900D01*
X180130000Y-73715900D02*
X180130000Y-72085900D01*
X180130000Y-72085900D02*
X178819100Y-70775000D01*
X181455300Y-73715900D02*
X181455300Y-74919000D01*
X181455300Y-74919000D02*
X183716700Y-77180400D01*
X181455300Y-79049900D02*
X181847200Y-79049900D01*
X181847200Y-79049900D02*
X183716700Y-77180400D01*
X180130000Y-79049900D02*
X181455300Y-79049900D01*
X181966000Y-96144100D02*
X181966000Y-98369400D01*
X181966000Y-98369400D02*
X182940000Y-99343400D01*
X182940000Y-99343400D02*
X182940000Y-104890000D01*
X182940000Y-104890000D02*
X182940000Y-106015300D01*
X181690200Y-110035000D02*
X182127700Y-110035000D01*
X181040000Y-110035000D02*
X181690200Y-110035000D01*
X181640300Y-109385000D02*
X181690200Y-109434900D01*
X181690200Y-109434900D02*
X181690200Y-110035000D01*
X181640300Y-109385000D02*
X182240300Y-109385000D01*
X181040000Y-109385000D02*
X181640300Y-109385000D01*
X178819100Y-70775000D02*
X167342200Y-70775000D01*
X167342200Y-70775000D02*
X164377300Y-73739900D01*
X181752000Y-61137800D02*
X182963800Y-59926000D01*
X182963800Y-59926000D02*
X185222000Y-59926000D01*
X185222000Y-59926000D02*
X185527700Y-60231700D01*
X185527700Y-60231700D02*
X185527700Y-61991900D01*
X185527700Y-61991900D02*
X183213000Y-64306600D01*
X183213000Y-64306600D02*
X183213000Y-66381100D01*
X183213000Y-66381100D02*
X178819100Y-70775000D01*
X163652000Y-73739900D02*
X164377300Y-73739900D01*
X146272000Y-59761300D02*
X145581300Y-60452000D01*
X146272000Y-56388000D02*
X146272000Y-59761300D01*
X147828000Y-88106000D02*
X147828000Y-89431300D01*
X108760000Y-103630000D02*
X108760000Y-102504700D01*
X96720000Y-103520000D02*
X96720000Y-102394700D01*
X125125300Y-92100000D02*
X126525300Y-93500000D01*
X126525300Y-93500000D02*
X128100000Y-93500000D01*
X116020000Y-105560000D02*
X114694700Y-105560000D01*
X124000000Y-92100000D02*
X125125300Y-92100000D01*
X124000000Y-92100000D02*
X124000000Y-89200000D01*
X167580000Y-83860000D02*
X167580000Y-85035300D01*
X167580000Y-85035300D02*
X166214000Y-86401300D01*
X166214000Y-86401300D02*
X166214000Y-87939900D01*
X181040000Y-113285000D02*
X182240300Y-113285000D01*
X182127700Y-110035000D02*
X182240300Y-110147600D01*
X182240300Y-110147600D02*
X182240300Y-113285000D01*
G04 #@! TO.N,RTD-1*
X110421400Y-116595800D02*
X110421400Y-114966100D01*
X110421400Y-114966100D02*
X108740300Y-113285000D01*
X101770000Y-118475300D02*
X108541900Y-118475300D01*
X108541900Y-118475300D02*
X110421400Y-116595800D01*
X110421400Y-116595800D02*
X114388200Y-120562600D01*
X114388200Y-120562600D02*
X138506600Y-120562600D01*
X138506600Y-120562600D02*
X145712600Y-127768600D01*
X145712600Y-127768600D02*
X154782000Y-127768600D01*
X154782000Y-127768600D02*
X156924100Y-125626500D01*
X156924100Y-125626500D02*
X174052600Y-125626500D01*
X174052600Y-125626500D02*
X176242100Y-127816000D01*
X176242100Y-127816000D02*
X184053700Y-127816000D01*
X184053700Y-127816000D02*
X185717600Y-126152100D01*
X185717600Y-126152100D02*
X185717600Y-122928400D01*
X185717600Y-122928400D02*
X186852000Y-121794000D01*
X101770000Y-117350000D02*
X101770000Y-118475300D01*
X108140200Y-112635000D02*
X108503100Y-112635000D01*
X108503100Y-112635000D02*
X108740300Y-112872200D01*
X108740300Y-112872200D02*
X108740300Y-113285000D01*
X107540000Y-113285000D02*
X108740300Y-113285000D01*
X107540000Y-112635000D02*
X108140200Y-112635000D01*
G04 #@! TO.N,RTDb1*
X105770000Y-117350000D02*
X107095300Y-117350000D01*
X109739300Y-116393500D02*
X108051800Y-116393500D01*
X108051800Y-116393500D02*
X107095300Y-117350000D01*
X105770000Y-117350000D02*
X105770000Y-116224700D01*
X100340000Y-113285000D02*
X101540300Y-113285000D01*
X105770000Y-116224700D02*
X104480000Y-116224700D01*
X104480000Y-116224700D02*
X101540300Y-113285000D01*
G04 #@! TO.N,RTD-2*
X127010300Y-114515000D02*
X130280000Y-117784700D01*
X130280000Y-117784700D02*
X141202200Y-117784700D01*
X141202200Y-117784700D02*
X142664600Y-119247100D01*
X142664600Y-119247100D02*
X142664600Y-119912000D01*
X142664600Y-119912000D02*
X147548700Y-124796100D01*
X147548700Y-124796100D02*
X175563500Y-124796100D01*
X175563500Y-124796100D02*
X178133000Y-127365600D01*
X178133000Y-127365600D02*
X182930400Y-127365600D01*
X182930400Y-127365600D02*
X184102000Y-126194000D01*
X123370000Y-118470000D02*
X123370000Y-117344700D01*
X126410200Y-114515000D02*
X123580500Y-117344700D01*
X123580500Y-117344700D02*
X123370000Y-117344700D01*
X126410200Y-114515000D02*
X127010300Y-114515000D01*
X125810000Y-114515000D02*
X126410200Y-114515000D01*
X125810000Y-113865000D02*
X127010300Y-113865000D01*
X127010300Y-113865000D02*
X127010300Y-114515000D01*
G04 #@! TO.N,RTDb2*
X119370000Y-118470000D02*
X119370000Y-119595300D01*
X154125000Y-126179000D02*
X152985800Y-127318200D01*
X152985800Y-127318200D02*
X146042300Y-127318200D01*
X146042300Y-127318200D02*
X138319400Y-119595300D01*
X138319400Y-119595300D02*
X119370000Y-119595300D01*
X119370000Y-118470000D02*
X119370000Y-117344700D01*
X118610000Y-114515000D02*
X119810300Y-114515000D01*
X119810300Y-114515000D02*
X119810300Y-116904400D01*
X119810300Y-116904400D02*
X119370000Y-117344700D01*
G04 #@! TO.N,RTD-3*
X145930000Y-115745000D02*
X147130300Y-115745000D01*
X178902000Y-126244000D02*
X173349600Y-120691600D01*
X173349600Y-120691600D02*
X152076900Y-120691600D01*
X152076900Y-120691600D02*
X147130300Y-115745000D01*
X143990000Y-118910000D02*
X143990000Y-117784700D01*
X145930000Y-115745000D02*
X144729700Y-115745000D01*
X144729700Y-115745000D02*
X144729700Y-117045000D01*
X144729700Y-117045000D02*
X143990000Y-117784700D01*
X145930000Y-115095000D02*
X145930000Y-115745000D01*
G04 #@! TO.N,RTDb3*
X148925000Y-126229000D02*
X146183700Y-126229000D01*
X146183700Y-126229000D02*
X139990000Y-120035300D01*
X139930300Y-115745000D02*
X140160500Y-115975200D01*
X140160500Y-115975200D02*
X140408800Y-115975200D01*
X138730000Y-115745000D02*
X139930300Y-115745000D01*
X139990000Y-118910000D02*
X139990000Y-120035300D01*
G04 #@! TO.N,RTD-4*
X163700000Y-118680000D02*
X163700000Y-117554700D01*
X164720200Y-114675000D02*
X164720200Y-116534500D01*
X164720200Y-116534500D02*
X163700000Y-117554700D01*
X164720200Y-114675000D02*
X165320300Y-114675000D01*
X164120000Y-114675000D02*
X164720200Y-114675000D01*
X163700000Y-118680000D02*
X165025300Y-118680000D01*
X166687100Y-118806000D02*
X165151300Y-118806000D01*
X165151300Y-118806000D02*
X165025300Y-118680000D01*
X165320300Y-114025000D02*
X165320300Y-114675000D01*
X164120000Y-114025000D02*
X165320300Y-114025000D01*
G04 #@! TO.N,RTDb4*
X159454900Y-119980300D02*
X159629900Y-119805300D01*
X159629900Y-119805300D02*
X159700000Y-119805300D01*
X159700000Y-118680000D02*
X159700000Y-119805300D01*
X159700000Y-118680000D02*
X159700000Y-117554700D01*
X159700000Y-117554700D02*
X158120300Y-115975000D01*
X158120300Y-115975000D02*
X158120300Y-114675000D01*
X156920000Y-114675000D02*
X158120300Y-114675000D01*
G04 #@! TO.N,RTD-5*
X182240300Y-113935000D02*
X185250600Y-110924700D01*
X185250600Y-110924700D02*
X185250600Y-92764700D01*
X185250600Y-92764700D02*
X186997900Y-91017400D01*
X186997900Y-91017400D02*
X186997900Y-75558400D01*
X186997900Y-75558400D02*
X184342300Y-72902800D01*
X184342300Y-72902800D02*
X184342300Y-70159700D01*
X184342300Y-70159700D02*
X186497500Y-68004500D01*
X186497500Y-68004500D02*
X186497500Y-59897400D01*
X186497500Y-59897400D02*
X184746500Y-58146400D01*
X184746500Y-58146400D02*
X178126000Y-58146400D01*
X181040000Y-113935000D02*
X179839700Y-113935000D01*
X181040000Y-113935000D02*
X182240300Y-113935000D01*
X179839700Y-113935000D02*
X179839700Y-114371500D01*
X179839700Y-114371500D02*
X180053200Y-114585000D01*
X180053200Y-114585000D02*
X179839700Y-114585000D01*
X181040000Y-114585000D02*
X180053200Y-114585000D01*
X179839700Y-114585000D02*
X179839700Y-117245000D01*
X179839700Y-117245000D02*
X179440000Y-117644700D01*
X179440000Y-118770000D02*
X179440000Y-117644700D01*
G04 #@! TO.N,RTDb5*
X161859000Y-59055100D02*
X161598800Y-59055100D01*
X161598800Y-59055100D02*
X160768200Y-59885700D01*
X160768200Y-59885700D02*
X160768200Y-61402100D01*
X160768200Y-61402100D02*
X161246900Y-61880800D01*
X161246900Y-61880800D02*
X162180700Y-61880800D01*
X161859000Y-58129800D02*
X161859000Y-59055100D01*
X173239900Y-114585000D02*
X173192900Y-114538000D01*
X173192900Y-114538000D02*
X172464200Y-114538000D01*
X175440000Y-118770000D02*
X175440000Y-117644700D01*
X173239900Y-114585000D02*
X173239900Y-115444600D01*
X173239900Y-115444600D02*
X175440000Y-117644700D01*
X173840000Y-114585000D02*
X173239900Y-114585000D01*
G04 #@! TO.N,Net-(CON1-Pad1)*
X142000000Y-83175300D02*
X142348900Y-83175300D01*
X142348900Y-83175300D02*
X142531400Y-82992800D01*
X142531400Y-82992800D02*
X145212600Y-82992800D01*
X145212600Y-82992800D02*
X145319600Y-82885800D01*
X142000000Y-82100000D02*
X142000000Y-83175300D01*
G04 #@! TO.N,Net-(CON1-Pad5)*
X144975300Y-85500000D02*
X144975300Y-85581900D01*
X144975300Y-85581900D02*
X145318000Y-85924600D01*
X143900000Y-85500000D02*
X144975300Y-85500000D01*
G04 #@! TO.N,GNDPWR*
X123950000Y-52418400D02*
X119468400Y-56900000D01*
X119468400Y-56900000D02*
X111400000Y-56900000D01*
G04 #@! TO.N,Net-(D1-Pad2)*
X111721000Y-65618400D02*
X111721000Y-64443100D01*
X111721000Y-64443100D02*
X111400000Y-64122100D01*
X111400000Y-64122100D02*
X111400000Y-59900000D01*
G04 #@! TO.N,+24V*
X111075100Y-68850800D02*
X110018200Y-67793900D01*
X110018200Y-67793900D02*
X110018200Y-64543500D01*
X110018200Y-64543500D02*
X106300000Y-60825300D01*
X150525000Y-79984600D02*
X145418100Y-74877700D01*
X145418100Y-74877700D02*
X124732000Y-74877700D01*
X124732000Y-74877700D02*
X119868000Y-70013700D01*
X119868000Y-70013700D02*
X119868000Y-69471700D01*
X119868000Y-69471700D02*
X119247100Y-68850800D01*
X119247100Y-68850800D02*
X111075100Y-68850800D01*
X111075100Y-78734900D02*
X111075100Y-68850800D01*
X106300000Y-60000000D02*
X106300000Y-60825300D01*
X112151000Y-78734900D02*
X111075100Y-78734900D01*
G04 #@! TO.N,Net-(D2-Pad2)*
X106300000Y-57000000D02*
X107425300Y-57000000D01*
X126700000Y-56818400D02*
X125793000Y-57725400D01*
X125793000Y-57725400D02*
X108150700Y-57725400D01*
X108150700Y-57725400D02*
X107425300Y-57000000D01*
G04 #@! TO.N,Net-(D3-Pad1)*
X158086000Y-73152000D02*
X160161300Y-73152000D01*
X160161300Y-73152000D02*
X160161300Y-74561800D01*
X160161300Y-74561800D02*
X162339400Y-76739900D01*
X168070000Y-79049900D02*
X166944700Y-79049900D01*
X162339400Y-76739900D02*
X164649400Y-79049900D01*
X164649400Y-79049900D02*
X166944700Y-79049900D01*
X162702000Y-76739900D02*
X162339400Y-76739900D01*
G04 #@! TO.N,Net-(D3-Pad2)*
X167816000Y-73715900D02*
X166690700Y-73715900D01*
X164602000Y-76102200D02*
X166690700Y-74013500D01*
X166690700Y-74013500D02*
X166690700Y-73715900D01*
X158340000Y-70147300D02*
X159118300Y-70147300D01*
X159118300Y-70147300D02*
X160415300Y-71444300D01*
X160415300Y-71444300D02*
X160415300Y-72342400D01*
X160415300Y-72342400D02*
X164175100Y-76102200D01*
X164175100Y-76102200D02*
X164602000Y-76102200D01*
X158340000Y-68072000D02*
X158340000Y-70147300D01*
X164602000Y-76739900D02*
X164602000Y-76102200D01*
G04 #@! TO.N,Net-(D6-Pad2)*
X142824700Y-92281300D02*
X142719800Y-92386200D01*
X142719800Y-92386200D02*
X141282800Y-92386200D01*
X125294300Y-70012600D02*
X129167100Y-73885400D01*
X129167100Y-73885400D02*
X134590600Y-73885400D01*
X124469000Y-70012600D02*
X125294300Y-70012600D01*
X121627000Y-70012600D02*
X124469000Y-70012600D01*
X142824700Y-92281300D02*
X143043400Y-92500000D01*
X143043400Y-92500000D02*
X143400000Y-92500000D01*
X142824700Y-92000000D02*
X142824700Y-92281300D01*
X143900000Y-92000000D02*
X142824700Y-92000000D01*
X124469000Y-70012600D02*
X124469000Y-68887300D01*
X124083400Y-65532000D02*
X124083400Y-68501700D01*
X124083400Y-68501700D02*
X124469000Y-68887300D01*
X124083400Y-65532000D02*
X123420700Y-65532000D01*
X124746000Y-65532000D02*
X124083400Y-65532000D01*
X143900000Y-92500000D02*
X143400000Y-92500000D01*
X121312000Y-64770000D02*
X122658700Y-64770000D01*
X122658700Y-64770000D02*
X123420700Y-65532000D01*
G04 #@! TO.N,Net-(D8-Pad2)*
X160308700Y-87939900D02*
X157236800Y-91011800D01*
X157236800Y-91011800D02*
X148169500Y-91011800D01*
X160500000Y-83820000D02*
X161825300Y-83820000D01*
X163580000Y-84447600D02*
X162452900Y-84447600D01*
X162452900Y-84447600D02*
X161825300Y-83820000D01*
X163580000Y-84447600D02*
X163580000Y-85035300D01*
X163580000Y-83860000D02*
X163580000Y-84447600D01*
X163214000Y-87939900D02*
X163214000Y-85401300D01*
X163214000Y-85401300D02*
X163580000Y-85035300D01*
X163214000Y-87939900D02*
X161959300Y-87939900D01*
X143900000Y-93500000D02*
X145552200Y-93500000D01*
X161134000Y-87939900D02*
X160308700Y-87939900D01*
X161134000Y-87939900D02*
X161959300Y-87939900D01*
G04 #@! TO.N,/RS485B*
X176130000Y-73715900D02*
X174804700Y-73715900D01*
X172696000Y-72678200D02*
X173767000Y-72678200D01*
X173767000Y-72678200D02*
X174804700Y-73715900D01*
X172696000Y-72678200D02*
X172696000Y-71640600D01*
X172696000Y-73715900D02*
X172696000Y-72678200D01*
X172995100Y-71456800D02*
X172811300Y-71640600D01*
X172811300Y-71640600D02*
X172696000Y-71640600D01*
G04 #@! TO.N,/RS485A*
X172950000Y-79049900D02*
X172950000Y-76974600D01*
X172551300Y-76614400D02*
X172911500Y-76974600D01*
X172911500Y-76974600D02*
X172950000Y-76974600D01*
X172950000Y-79049900D02*
X174804700Y-79049900D01*
X176130000Y-79049900D02*
X174804700Y-79049900D01*
G04 #@! TO.N,/Pyro*
X116841400Y-62102000D02*
X116432000Y-62511400D01*
X116432000Y-62511400D02*
X116432000Y-64770000D01*
G04 #@! TO.N,/Wind*
X134212000Y-56388000D02*
X135337300Y-56388000D01*
X148869000Y-46903200D02*
X148869000Y-47388900D01*
X148869000Y-47388900D02*
X141945300Y-54312600D01*
X141945300Y-54312600D02*
X137412700Y-54312600D01*
X137412700Y-54312600D02*
X135337300Y-56388000D01*
G04 #@! TO.N,RTDa1*
X99376900Y-112635000D02*
X99139700Y-112397800D01*
X99139700Y-112397800D02*
X99139700Y-111985000D01*
X99739900Y-112635000D02*
X99376900Y-112635000D01*
X126685000Y-121759000D02*
X103845200Y-121759000D01*
X103845200Y-121759000D02*
X99139600Y-117053400D01*
X99139600Y-117053400D02*
X99139600Y-112872300D01*
X99139600Y-112872300D02*
X99376900Y-112635000D01*
X100340000Y-111985000D02*
X99139700Y-111985000D01*
X100340000Y-112635000D02*
X99739900Y-112635000D01*
G04 #@! TO.N,RTDa2*
X119810300Y-113865000D02*
X119993500Y-113865000D01*
X119573100Y-113865000D02*
X119810300Y-113627800D01*
X119810300Y-113627800D02*
X119810300Y-113215000D01*
X119210200Y-113865000D02*
X119573100Y-113865000D01*
X119573100Y-113865000D02*
X119810300Y-113865000D01*
X118610000Y-113215000D02*
X119810300Y-113215000D01*
X118610000Y-113865000D02*
X119210200Y-113865000D01*
G04 #@! TO.N,RTDa3*
X137529700Y-115095000D02*
X138730000Y-115095000D01*
X137529700Y-114445000D02*
X137529700Y-115095000D01*
X136739400Y-115396900D02*
X137041300Y-115095000D01*
X137041300Y-115095000D02*
X137529700Y-115095000D01*
X138730000Y-114445000D02*
X137529700Y-114445000D01*
G04 #@! TO.N,RTDa4*
X155719700Y-114025000D02*
X154328100Y-115416600D01*
X154328100Y-115416600D02*
X147708400Y-115416600D01*
X155956900Y-114025000D02*
X155719700Y-113787800D01*
X155719700Y-113787800D02*
X155719700Y-113375000D01*
X156319900Y-114025000D02*
X155956900Y-114025000D01*
X155956900Y-114025000D02*
X155719700Y-114025000D01*
X156920000Y-113375000D02*
X155719700Y-113375000D01*
X156920000Y-114025000D02*
X156319900Y-114025000D01*
G04 #@! TO.N,RTDa5*
X175839300Y-113485500D02*
X175040300Y-113485500D01*
X168359000Y-58129800D02*
X168359000Y-59055100D01*
X175040300Y-113485500D02*
X175040300Y-113285000D01*
X175040300Y-113935000D02*
X175040300Y-113485500D01*
X168359000Y-59055100D02*
X168098800Y-59055100D01*
X168098800Y-59055100D02*
X167283600Y-59870300D01*
X167283600Y-59870300D02*
X167283600Y-61364500D01*
X167283600Y-61364500D02*
X167798900Y-61879800D01*
X167798900Y-61879800D02*
X167881100Y-61879800D01*
X173840000Y-113285000D02*
X175040300Y-113285000D01*
X173840000Y-113935000D02*
X175040300Y-113935000D01*
G04 #@! TO.N,/Snow*
X178130000Y-81661700D02*
X182393100Y-81661700D01*
X182393100Y-81661700D02*
X184261800Y-83530400D01*
X184261800Y-83530400D02*
X185390400Y-83530400D01*
X185390400Y-83530400D02*
X186097200Y-84237200D01*
X186097200Y-84237200D02*
X186097200Y-87803700D01*
X186097200Y-87803700D02*
X185290500Y-88610400D01*
X185290500Y-88610400D02*
X184405100Y-88610400D01*
X184405100Y-88610400D02*
X178816000Y-94199500D01*
X178816000Y-94199500D02*
X178816000Y-95294100D01*
X178816000Y-95294100D02*
X176741300Y-97368800D01*
X176741300Y-97368800D02*
X175666000Y-97368800D01*
X178130000Y-74454500D02*
X178130000Y-81661700D01*
X178130000Y-81661700D02*
X157483000Y-81661700D01*
X157483000Y-81661700D02*
X156500000Y-82644700D01*
X156500000Y-83820000D02*
X156500000Y-82644700D01*
X153325000Y-79984600D02*
X155985100Y-82644700D01*
X155985100Y-82644700D02*
X156500000Y-82644700D01*
X175666000Y-98444100D02*
X175666000Y-97368800D01*
G04 #@! TO.N,/GPIOB/UART1_TX*
X183716700Y-87340400D02*
X179020900Y-82644600D01*
X179020900Y-82644600D02*
X159354200Y-82644600D01*
X159354200Y-82644600D02*
X159061800Y-82937000D01*
X159061800Y-82937000D02*
X159061800Y-84236600D01*
X159061800Y-84236600D02*
X157788200Y-85510200D01*
X157788200Y-85510200D02*
X153629200Y-85510200D01*
X153629200Y-85510200D02*
X150899600Y-82780600D01*
X150899600Y-82780600D02*
X146316100Y-82780600D01*
X146316100Y-82780600D02*
X145585200Y-83511500D01*
X145585200Y-83511500D02*
X142821400Y-83511500D01*
X142821400Y-83511500D02*
X139256000Y-87076900D01*
X139256000Y-87076900D02*
X137626000Y-87076900D01*
X137626000Y-87076900D02*
X134000100Y-83451000D01*
X134000100Y-83451000D02*
X134000100Y-83175300D01*
X134000100Y-83175300D02*
X134000000Y-83175300D01*
X134000000Y-82100000D02*
X134000000Y-83175300D01*
X184892000Y-87340400D02*
X183716700Y-87340400D01*
G04 #@! TO.N,/GPIOB/UART1_RX*
X183716700Y-84800400D02*
X181098000Y-82181700D01*
X181098000Y-82181700D02*
X159178900Y-82181700D01*
X159178900Y-82181700D02*
X158049700Y-83310900D01*
X158049700Y-83310900D02*
X158049700Y-84589700D01*
X158049700Y-84589700D02*
X157604200Y-85035200D01*
X157604200Y-85035200D02*
X155399800Y-85035200D01*
X155399800Y-85035200D02*
X152254500Y-81889900D01*
X152254500Y-81889900D02*
X145147600Y-81889900D01*
X145147600Y-81889900D02*
X143832000Y-80574300D01*
X143832000Y-80574300D02*
X133950400Y-80574300D01*
X133950400Y-80574300D02*
X133500000Y-81024700D01*
X133500000Y-82100000D02*
X133500000Y-81024700D01*
X184892000Y-84800400D02*
X183716700Y-84800400D01*
G04 #@! TO.N,/GPIOB/MOSI*
X143900000Y-94500000D02*
X142824700Y-94500000D01*
X102961400Y-77459800D02*
X104086700Y-77459800D01*
X104086700Y-77459800D02*
X107556500Y-80929600D01*
X107556500Y-80929600D02*
X126453500Y-80929600D01*
X126453500Y-80929600D02*
X138535500Y-93011600D01*
X138535500Y-93011600D02*
X141336300Y-93011600D01*
X141336300Y-93011600D02*
X142824700Y-94500000D01*
X95341400Y-77459800D02*
X102961400Y-77459800D01*
G04 #@! TO.N,/GPIOB/SCK*
X143900000Y-95500000D02*
X132123200Y-95500000D01*
X132123200Y-95500000D02*
X132032400Y-95590800D01*
X95341400Y-79999800D02*
X102961400Y-79999800D01*
G04 #@! TO.N,/GPIOB/~CS*
X125936700Y-95296300D02*
X127465100Y-96824700D01*
X127465100Y-96824700D02*
X141000000Y-96824700D01*
X141000000Y-97900000D02*
X141000000Y-96824700D01*
X95341400Y-82539800D02*
X102961400Y-82539800D01*
G04 #@! TO.N,/GPIOB/D/~C*
X130739000Y-94289700D02*
X131414700Y-94965400D01*
X131414700Y-94965400D02*
X142790100Y-94965400D01*
X142790100Y-94965400D02*
X142824700Y-95000000D01*
X143900000Y-95000000D02*
X142824700Y-95000000D01*
X95341400Y-85079800D02*
X102961400Y-85079800D01*
G04 #@! TO.N,Net-(R2-Pad2)*
X142384000Y-68961000D02*
X143584300Y-68961000D01*
X151540000Y-68072000D02*
X149464700Y-68072000D01*
X149464700Y-68072000D02*
X148107300Y-69429400D01*
X148107300Y-69429400D02*
X144052700Y-69429400D01*
X144052700Y-69429400D02*
X143584300Y-68961000D01*
G04 #@! TO.N,Net-(R3-Pad2)*
X151286000Y-73152000D02*
X149210700Y-73152000D01*
X149210700Y-73152000D02*
X149210700Y-72892600D01*
X149210700Y-72892600D02*
X146549100Y-70231000D01*
X146549100Y-70231000D02*
X142384000Y-70231000D01*
G04 #@! TO.N,Net-(R8-Pad1)*
X100340000Y-109385000D02*
X101540300Y-109385000D01*
X100340000Y-110035000D02*
X101540300Y-110035000D01*
X101540300Y-110035000D02*
X101540300Y-109385000D01*
X96500000Y-108360000D02*
X97675300Y-108360000D01*
X100340000Y-109385000D02*
X98700300Y-109385000D01*
X98700300Y-109385000D02*
X97675300Y-108360000D01*
G04 #@! TO.N,Net-(R8-Pad2)*
X100340000Y-110685000D02*
X101540300Y-110685000D01*
X100340000Y-111335000D02*
X101540300Y-111335000D01*
X101540300Y-111335000D02*
X101540300Y-110685000D01*
X100340000Y-110685000D02*
X99139700Y-110685000D01*
X96500000Y-112360000D02*
X97675300Y-112360000D01*
X99139700Y-110685000D02*
X99139700Y-110895600D01*
X99139700Y-110895600D02*
X97675300Y-112360000D01*
G04 #@! TO.N,Net-(R9-Pad1)*
X118610000Y-110615000D02*
X119810300Y-110615000D01*
X118610000Y-111265000D02*
X119810300Y-111265000D01*
X119810300Y-111265000D02*
X119810300Y-110615000D01*
X114610000Y-109650000D02*
X115785300Y-109650000D01*
X115785300Y-109650000D02*
X116750300Y-110615000D01*
X116750300Y-110615000D02*
X118610000Y-110615000D01*
G04 #@! TO.N,Net-(R9-Pad2)*
X118610000Y-111915000D02*
X119810300Y-111915000D01*
X118610000Y-112565000D02*
X119810300Y-112565000D01*
X119810300Y-112565000D02*
X119810300Y-111915000D01*
X118610000Y-111915000D02*
X117409700Y-111915000D01*
X114610000Y-113650000D02*
X115785300Y-113650000D01*
X117409700Y-111915000D02*
X117409700Y-112025600D01*
X117409700Y-112025600D02*
X115785300Y-113650000D01*
G04 #@! TO.N,Net-(R10-Pad1)*
X138730000Y-111845000D02*
X137529700Y-111845000D01*
X137529700Y-111845000D02*
X136454700Y-110770000D01*
X136454700Y-110770000D02*
X135235300Y-110770000D01*
X138730000Y-111845000D02*
X139930300Y-111845000D01*
X138730000Y-112495000D02*
X139930300Y-112495000D01*
X134060000Y-110770000D02*
X135235300Y-110770000D01*
X139930300Y-112495000D02*
X139930300Y-111845000D01*
G04 #@! TO.N,Net-(R10-Pad2)*
X137529700Y-113795000D02*
X138730000Y-113795000D01*
X135235300Y-114770000D02*
X136210300Y-113795000D01*
X136210300Y-113795000D02*
X137529700Y-113795000D01*
X137529700Y-113795000D02*
X137529700Y-113145000D01*
X138730000Y-113145000D02*
X137529700Y-113145000D01*
X134060000Y-114770000D02*
X135235300Y-114770000D01*
G04 #@! TO.N,Net-(R11-Pad1)*
X156920000Y-110775000D02*
X158120300Y-110775000D01*
X156920000Y-111425000D02*
X158120300Y-111425000D01*
X158120300Y-111425000D02*
X158120300Y-110775000D01*
X153160000Y-109900000D02*
X154335300Y-109900000D01*
X156920000Y-110775000D02*
X155210300Y-110775000D01*
X155210300Y-110775000D02*
X154335300Y-109900000D01*
G04 #@! TO.N,Net-(R11-Pad2)*
X156920000Y-112075000D02*
X158120300Y-112075000D01*
X156920000Y-112725000D02*
X158120300Y-112725000D01*
X158120300Y-112725000D02*
X158120300Y-112075000D01*
X156920000Y-112075000D02*
X155719700Y-112075000D01*
X153160000Y-113900000D02*
X154335300Y-113900000D01*
X155719700Y-112075000D02*
X155719700Y-112515600D01*
X155719700Y-112515600D02*
X154335300Y-113900000D01*
G04 #@! TO.N,Net-(R12-Pad1)*
X170915300Y-109670000D02*
X171930300Y-110685000D01*
X171930300Y-110685000D02*
X173840000Y-110685000D01*
X173840000Y-110685000D02*
X175040300Y-110685000D01*
X173840000Y-111335000D02*
X175040300Y-111335000D01*
X175040300Y-111335000D02*
X175040300Y-110685000D01*
X169740000Y-109670000D02*
X170915300Y-109670000D01*
G04 #@! TO.N,Net-(R12-Pad2)*
X173840000Y-111985000D02*
X175040300Y-111985000D01*
X173840000Y-112635000D02*
X175040300Y-112635000D01*
X175040300Y-112635000D02*
X175040300Y-111985000D01*
X169740000Y-113670000D02*
X170915300Y-113670000D01*
X173840000Y-111985000D02*
X172600300Y-111985000D01*
X172600300Y-111985000D02*
X170915300Y-113670000D01*
G04 #@! TO.N,~RTDcs1*
X109004600Y-110035000D02*
X107540000Y-110035000D01*
X128100000Y-91000000D02*
X133037900Y-91000000D01*
X133037900Y-91000000D02*
X133172500Y-90865400D01*
G04 #@! TO.N,~RTDcs2*
X128100000Y-91500000D02*
X134592800Y-91500000D01*
X134592800Y-91500000D02*
X134733700Y-91359100D01*
X125810000Y-111265000D02*
X128569800Y-111265000D01*
G04 #@! TO.N,~RTDcs3*
X137760300Y-93320600D02*
X136439700Y-92000000D01*
X136439700Y-92000000D02*
X128100000Y-92000000D01*
X145930000Y-112495000D02*
X144729700Y-112495000D01*
X144729700Y-112495000D02*
X144729700Y-112325700D01*
X144729700Y-112325700D02*
X144526600Y-112122600D01*
G04 #@! TO.N,~RTDcs4*
X128100000Y-92500000D02*
X135872700Y-92500000D01*
X135872700Y-92500000D02*
X137391700Y-94019000D01*
X137391700Y-94019000D02*
X140583500Y-94019000D01*
X164120000Y-111425000D02*
X162919700Y-111425000D01*
X162919700Y-111425000D02*
X160325300Y-108830600D01*
X160325300Y-108830600D02*
X160325300Y-108495900D01*
G04 #@! TO.N,/GPIOA/serial/TX_en*
X127024700Y-95500000D02*
X127024700Y-95410600D01*
X127024700Y-95410600D02*
X126845000Y-95230900D01*
X133783700Y-69815200D02*
X131991200Y-69815200D01*
X128100000Y-95500000D02*
X127024700Y-95500000D01*
X134383900Y-70231000D02*
X133968100Y-69815200D01*
X133968100Y-69815200D02*
X133783700Y-69815200D01*
X133783700Y-69815200D02*
X133783700Y-68961000D01*
X134984000Y-68961000D02*
X133783700Y-68961000D01*
X134984000Y-70231000D02*
X134383900Y-70231000D01*
G04 #@! TO.N,~RTDcs5*
X179839700Y-111335000D02*
X175707500Y-107202800D01*
X175707500Y-107202800D02*
X168606200Y-107202800D01*
X168606200Y-107202800D02*
X167060200Y-108748800D01*
X181040000Y-111335000D02*
X179839700Y-111335000D01*
X133500000Y-98975300D02*
X135520700Y-100996000D01*
X135520700Y-100996000D02*
X139459000Y-100996000D01*
X133500000Y-97900000D02*
X133500000Y-98975300D01*
G04 #@! TO.N,RTD_SCK*
X127010300Y-111915000D02*
X130518800Y-111915000D01*
X130518800Y-111915000D02*
X133230800Y-109203000D01*
X133230800Y-109203000D02*
X133576800Y-109203000D01*
X133576800Y-109203000D02*
X136904300Y-105875500D01*
X136904300Y-105875500D02*
X136904300Y-105283100D01*
X136904300Y-105283100D02*
X139279800Y-102907600D01*
X139279800Y-102907600D02*
X140442300Y-102907600D01*
X125810000Y-111915000D02*
X127010300Y-111915000D01*
X125810000Y-111915000D02*
X124609700Y-111915000D01*
X124609700Y-111915000D02*
X124609700Y-111551600D01*
X124609700Y-111551600D02*
X120722300Y-107664200D01*
X120722300Y-107664200D02*
X112404200Y-107664200D01*
X112404200Y-107664200D02*
X109383400Y-110685000D01*
X109383400Y-110685000D02*
X107540000Y-110685000D01*
X141000000Y-82100000D02*
X141000000Y-83039700D01*
X141000000Y-83039700D02*
X141282800Y-83322500D01*
X141282800Y-83322500D02*
X141282800Y-83964500D01*
X141282800Y-83964500D02*
X140642500Y-84604800D01*
X150270300Y-109310400D02*
X150270300Y-110005000D01*
X150270300Y-110005000D02*
X147130300Y-113145000D01*
X164120000Y-112075000D02*
X162383100Y-112075000D01*
X162383100Y-112075000D02*
X158073600Y-107765500D01*
X158073600Y-107765500D02*
X151815200Y-107765500D01*
X151815200Y-107765500D02*
X150270300Y-109310400D01*
X145930000Y-113145000D02*
X147130300Y-113145000D01*
X164720200Y-112075000D02*
X164120000Y-112075000D01*
X164720200Y-112075000D02*
X165320300Y-112075000D01*
X165320300Y-112075000D02*
X167710600Y-109684700D01*
X167710600Y-109684700D02*
X167710600Y-108735300D01*
X167710600Y-108735300D02*
X168757300Y-107688600D01*
X168757300Y-107688600D02*
X175543300Y-107688600D01*
X175543300Y-107688600D02*
X179839700Y-111985000D01*
X181040000Y-111985000D02*
X179839700Y-111985000D01*
G04 #@! TO.N,RTD_MISO*
X130890700Y-110615000D02*
X125810000Y-110615000D01*
X140500000Y-82100000D02*
X140500000Y-83424100D01*
X140500000Y-83424100D02*
X140657500Y-83581600D01*
X164120000Y-110775000D02*
X165320300Y-110775000D01*
X181040000Y-110685000D02*
X179839700Y-110685000D01*
X179839700Y-110685000D02*
X175907100Y-106752400D01*
X175907100Y-106752400D02*
X168169000Y-106752400D01*
X168169000Y-106752400D02*
X165320300Y-109601100D01*
X165320300Y-109601100D02*
X165320300Y-110775000D01*
X162919700Y-110775000D02*
X162919700Y-110205900D01*
X162919700Y-110205900D02*
X160006000Y-107292200D01*
X160006000Y-107292200D02*
X151361400Y-107292200D01*
X151361400Y-107292200D02*
X147316900Y-111336700D01*
X147316900Y-111336700D02*
X147316900Y-111893500D01*
X124609700Y-110615000D02*
X121178300Y-107183600D01*
X121178300Y-107183600D02*
X110941700Y-107183600D01*
X110941700Y-107183600D02*
X108740300Y-109385000D01*
X164120000Y-110775000D02*
X162919700Y-110775000D01*
X147316900Y-111893500D02*
X147178800Y-111893500D01*
X147178800Y-111893500D02*
X147130300Y-111845000D01*
X125209900Y-110615000D02*
X125810000Y-110615000D01*
X125209900Y-110615000D02*
X124609700Y-110615000D01*
X145930000Y-111845000D02*
X147130300Y-111845000D01*
X107540000Y-109385000D02*
X108740300Y-109385000D01*
G04 #@! TO.N,RTD_MOSI*
X125810000Y-112565000D02*
X136341000Y-112565000D01*
X136341000Y-112565000D02*
X136799800Y-112106200D01*
X107540000Y-111335000D02*
X110074000Y-111335000D01*
X110074000Y-111335000D02*
X113294400Y-108114600D01*
X113294400Y-108114600D02*
X120468000Y-108114600D01*
X120468000Y-108114600D02*
X124159300Y-111805900D01*
X124159300Y-111805900D02*
X124159300Y-112114600D01*
X124159300Y-112114600D02*
X124609700Y-112565000D01*
X125810000Y-112565000D02*
X124609700Y-112565000D01*
X138067400Y-86451500D02*
X138253700Y-86451500D01*
X138253700Y-86451500D02*
X140000000Y-84705200D01*
X140000000Y-84705200D02*
X140000000Y-83175300D01*
X145930000Y-113795000D02*
X144729700Y-113795000D01*
X144729700Y-113795000D02*
X144729700Y-113605700D01*
X144729700Y-113605700D02*
X144077000Y-112953000D01*
X145930000Y-113795000D02*
X147130300Y-113795000D01*
X147130300Y-113795000D02*
X151077900Y-109847400D01*
X151077900Y-109847400D02*
X151077900Y-109620300D01*
X151077900Y-109620300D02*
X152444000Y-108254200D01*
X152444000Y-108254200D02*
X157925200Y-108254200D01*
X157925200Y-108254200D02*
X162396000Y-112725000D01*
X162396000Y-112725000D02*
X164120000Y-112725000D01*
X164720200Y-112725000D02*
X164120000Y-112725000D01*
X140000000Y-82100000D02*
X140000000Y-83175300D01*
X164720200Y-112725000D02*
X165320300Y-112725000D01*
X165320300Y-112725000D02*
X168160900Y-109884400D01*
X168160900Y-109884400D02*
X168160900Y-108921900D01*
X168160900Y-108921900D02*
X168943900Y-108138900D01*
X168943900Y-108138900D02*
X174825200Y-108138900D01*
X174825200Y-108138900D02*
X179321300Y-112635000D01*
X179321300Y-112635000D02*
X181040000Y-112635000D01*
G04 #@! TO.N,~DRDY1*
X136672400Y-85239000D02*
X136672400Y-85310700D01*
X136672400Y-85310700D02*
X137238100Y-85876400D01*
X137238100Y-85876400D02*
X137758100Y-85876400D01*
X137758100Y-85876400D02*
X138315000Y-85319500D01*
X138315000Y-85319500D02*
X138748800Y-85319500D01*
X138748800Y-85319500D02*
X139500000Y-84568300D01*
X139500000Y-84568300D02*
X139500000Y-82100000D01*
X100340000Y-107435000D02*
X102230600Y-107435000D01*
X102230600Y-107435000D02*
X102431000Y-107635400D01*
G04 #@! TO.N,~DRDY2*
X118610000Y-108665000D02*
X120116500Y-108665000D01*
X120116500Y-108665000D02*
X120207900Y-108756400D01*
X139000000Y-82100000D02*
X139000000Y-83175300D01*
X137499000Y-85251100D02*
X137982000Y-84768100D01*
X137982000Y-84768100D02*
X138663300Y-84768100D01*
X138663300Y-84768100D02*
X139029500Y-84401900D01*
X139029500Y-84401900D02*
X139029500Y-83204800D01*
X139029500Y-83204800D02*
X139000000Y-83175300D01*
G04 #@! TO.N,~DRDY3*
X137529700Y-109895000D02*
X137529700Y-109271700D01*
X138730000Y-109895000D02*
X137529700Y-109895000D01*
X138404200Y-84142800D02*
X138500000Y-84047000D01*
X138500000Y-84047000D02*
X138500000Y-82100000D01*
G04 #@! TO.N,~DRDY4*
X138000000Y-83175300D02*
X137834000Y-83341300D01*
X137834000Y-83341300D02*
X137834000Y-83383700D01*
X155719700Y-108825000D02*
X154969500Y-108825000D01*
X154969500Y-108825000D02*
X154884500Y-108910000D01*
X156920000Y-108825000D02*
X155719700Y-108825000D01*
X138000000Y-82100000D02*
X138000000Y-83175300D01*
G04 #@! TO.N,~DRDY5*
X137500000Y-81024700D02*
X143365500Y-81024700D01*
X143365500Y-81024700D02*
X144681200Y-82340400D01*
X137500000Y-82100000D02*
X137500000Y-81024700D01*
X173840000Y-108735000D02*
X171658000Y-108735000D01*
X171658000Y-108735000D02*
X171560600Y-108832400D01*
G04 #@! TO.N,/GPIOB/485TX*
X131000000Y-83175300D02*
X130852300Y-83175300D01*
X130852300Y-83175300D02*
X130654900Y-83372700D01*
X102961400Y-90159800D02*
X120626500Y-90159800D01*
X131000000Y-82100000D02*
X131000000Y-83175300D01*
X95341400Y-90159800D02*
X102961400Y-90159800D01*
G04 #@! TO.N,/GPIOB/485RX*
X132601200Y-83961000D02*
X131815500Y-83175300D01*
X131815500Y-83175300D02*
X131500000Y-83175300D01*
X131500000Y-82100000D02*
X131500000Y-83175300D01*
X95341400Y-92699800D02*
X102961400Y-92699800D01*
G04 #@! TO.N,Rain*
X143900000Y-90000000D02*
X145156000Y-90000000D01*
X168359000Y-63129800D02*
X163757000Y-63129800D01*
X163757000Y-63129800D02*
X163355000Y-63531800D01*
G04 #@! TO.N,Aux*
X142824700Y-89500000D02*
X142640300Y-89500000D01*
X171626000Y-60646400D02*
X171626000Y-61571700D01*
X171626000Y-61571700D02*
X171365800Y-61571700D01*
X171365800Y-61571700D02*
X169722500Y-63215000D01*
X169722500Y-63215000D02*
X169722500Y-63655000D01*
X169722500Y-63655000D02*
X169209800Y-64167700D01*
X169209800Y-64167700D02*
X161014300Y-64167700D01*
X161014300Y-64167700D02*
X160061300Y-63214700D01*
X143900000Y-89500000D02*
X142824700Y-89500000D01*
G04 #@! TO.N,/GPIOA/serial/TX*
X129175300Y-96000000D02*
X129411000Y-95764300D01*
X129411000Y-95764300D02*
X129411000Y-94955100D01*
X133783700Y-71501000D02*
X133693000Y-71591700D01*
X133693000Y-71591700D02*
X133404000Y-71591700D01*
X134984000Y-71501000D02*
X133783700Y-71501000D01*
X128100000Y-96000000D02*
X129175300Y-96000000D01*
G04 #@! TO.N,/GPIOA/serial/RX*
X134984000Y-67691000D02*
X133602700Y-67691000D01*
X130000000Y-97900000D02*
X129657800Y-97557800D01*
X129657800Y-97557800D02*
X129335800Y-97557800D01*
G04 #@! TO.N,Net-(J6-Pad1)*
X168359000Y-60629800D02*
X168359000Y-59704500D01*
X168359000Y-59704500D02*
X168619200Y-59704500D01*
X168619200Y-59704500D02*
X170095900Y-58227800D01*
X170095900Y-58227800D02*
X170095900Y-57864200D01*
X170095900Y-57864200D02*
X176675400Y-51284700D01*
X176675400Y-51284700D02*
X181399900Y-51284700D01*
X181399900Y-51284700D02*
X186959000Y-56843800D01*
G04 #@! TO.N,Net-(J6-Pad2)*
X184209000Y-52443800D02*
X182599500Y-50834300D01*
X182599500Y-50834300D02*
X175845700Y-50834300D01*
X175845700Y-50834300D02*
X171737900Y-54942100D01*
X171737900Y-54942100D02*
X167546700Y-54942100D01*
X167546700Y-54942100D02*
X162784300Y-59704500D01*
X162784300Y-59704500D02*
X161859000Y-59704500D01*
X161859000Y-60629800D02*
X161859000Y-59704500D01*
G04 #@! TO.N,Net-(J6-Pad3)*
X178126000Y-60646400D02*
X178126000Y-59721100D01*
X178126000Y-59721100D02*
X177865800Y-59721100D01*
X177865800Y-59721100D02*
X177050600Y-58905900D01*
X177050600Y-58905900D02*
X177050600Y-54352200D01*
X177050600Y-54352200D02*
X179009000Y-52393800D01*
G04 #@! TO.N,Net-(D5-Pad1)*
X143900000Y-91500000D02*
X142372600Y-91500000D01*
X141756000Y-61577300D02*
X141756000Y-61760300D01*
X141756000Y-60452000D02*
X141756000Y-61577300D01*
X142272000Y-57563300D02*
X141756000Y-58079300D01*
X141756000Y-58079300D02*
X141756000Y-60452000D01*
X142272000Y-56388000D02*
X142272000Y-57563300D01*
X139092000Y-56388000D02*
X142272000Y-56388000D01*
G04 #@! TO.N,Net-(D4-Pad1)*
X143900000Y-91000000D02*
X142824700Y-91000000D01*
X142824700Y-91000000D02*
X142699400Y-90874700D01*
X142699400Y-90874700D02*
X137035600Y-90874700D01*
X137035600Y-90874700D02*
X126505000Y-80344100D01*
X126505000Y-80344100D02*
X111734200Y-80344100D01*
X111734200Y-80344100D02*
X109280800Y-77890700D01*
X109280800Y-77890700D02*
X109280800Y-64858600D01*
X109280800Y-64858600D02*
X108590800Y-64168600D01*
X108590800Y-64168600D02*
X102523500Y-64168600D01*
X102523500Y-64168600D02*
X101282000Y-65410100D01*
X101282000Y-65410100D02*
X99931100Y-64059200D01*
X99931100Y-64059200D02*
X96813300Y-64059200D01*
X96813300Y-64059200D02*
X95604700Y-65267800D01*
X96813300Y-64059200D02*
X96813300Y-59611300D01*
X96813300Y-59611300D02*
X95845500Y-58643500D01*
G04 #@! TO.N,WindDir*
X178126000Y-63146400D02*
X178126000Y-64071700D01*
X178126000Y-64071700D02*
X177579600Y-64618100D01*
X177579600Y-64618100D02*
X134668800Y-64618100D01*
X134668800Y-64618100D02*
X128694200Y-58643500D01*
X128694200Y-58643500D02*
X100120500Y-58643500D01*
G04 #@! TO.N,Net-(Q1-Pad1)*
X174340700Y-93844100D02*
X173705700Y-93209100D01*
X173705700Y-93209100D02*
X150023800Y-93209100D01*
X150023800Y-93209100D02*
X149116500Y-94116400D01*
X149116500Y-94116400D02*
X146688300Y-94116400D01*
X146688300Y-94116400D02*
X146211700Y-93639800D01*
X146211700Y-93639800D02*
X146211700Y-93212400D01*
X146211700Y-93212400D02*
X145829400Y-92830100D01*
X145829400Y-92830100D02*
X145337700Y-92830100D01*
X145337700Y-92830100D02*
X145167800Y-93000000D01*
X145167800Y-93000000D02*
X143900000Y-93000000D01*
X175666000Y-93844100D02*
X174340700Y-93844100D01*
G04 #@! TO.N,Net-(R15-Pad2)*
X171626000Y-63146400D02*
X171626000Y-62221100D01*
X184552000Y-61137800D02*
X183323700Y-62366100D01*
X183323700Y-62366100D02*
X180383500Y-62366100D01*
X180383500Y-62366100D02*
X180238500Y-62221100D01*
X180238500Y-62221100D02*
X171626000Y-62221100D01*
G04 #@! TO.N,Net-(R16-Pad2)*
X184613000Y-65958700D02*
X186002300Y-64569400D01*
X186002300Y-64569400D02*
X186002300Y-60069400D01*
X186002300Y-60069400D02*
X185398200Y-59465300D01*
X185398200Y-59465300D02*
X181547900Y-59465300D01*
X181547900Y-59465300D02*
X179441400Y-61571800D01*
X179441400Y-61571800D02*
X175051400Y-61571800D01*
X175051400Y-61571800D02*
X172551300Y-59071700D01*
X172551300Y-59071700D02*
X171626000Y-59071700D01*
X171626000Y-58146400D02*
X171626000Y-59071700D01*
G04 #@! TD*
M02*
