G04 #@! TF.FileFunction,Legend,Top*
%FSLAX46Y46*%
G04 Gerber Fmt 4.6, Leading zero omitted, Abs format (unit mm)*
G04 Created by KiCad (PCBNEW 4.0.7-e2-6376~58~ubuntu16.04.1) date Wed Aug  1 19:42:02 2018*
%MOMM*%
%LPD*%
G01*
G04 APERTURE LIST*
%ADD10C,0.100000*%
%ADD11C,0.300000*%
%ADD12C,0.120000*%
%ADD13C,0.150000*%
G04 APERTURE END LIST*
D10*
X184853408Y-52385136D02*
G75*
G03X184853408Y-52385136I-700000J0D01*
G01*
X179661986Y-52343143D02*
G75*
G03X179661986Y-52343143I-700000J0D01*
G01*
X184853408Y-126146397D02*
G75*
G03X184853408Y-126146397I-700000J0D01*
G01*
X179661986Y-126188381D02*
G75*
G03X179661986Y-126188381I-700000J0D01*
G01*
X124653411Y-126146397D02*
G75*
G03X124653411Y-126146397I-700000J0D01*
G01*
X127401702Y-121741932D02*
G75*
G03X127401702Y-121741932I-700000J0D01*
G01*
X119461989Y-126188381D02*
G75*
G03X119461989Y-126188381I-700000J0D01*
G01*
X127401702Y-56789600D02*
G75*
G03X127401702Y-56789600I-700000J0D01*
G01*
X119427215Y-46879520D02*
G75*
G03X119427215Y-46879520I-700000J0D01*
G01*
X119461989Y-52343143D02*
G75*
G03X119461989Y-52343143I-700000J0D01*
G01*
X119427215Y-131652016D02*
G75*
G03X119427215Y-131652016I-700000J0D01*
G01*
X154753402Y-52385136D02*
G75*
G03X154753402Y-52385136I-700000J0D01*
G01*
X154753402Y-126146397D02*
G75*
G03X154753402Y-126146397I-700000J0D01*
G01*
X157501708Y-121741932D02*
G75*
G03X157501708Y-121741932I-700000J0D01*
G01*
X149561995Y-126188381D02*
G75*
G03X149561995Y-126188381I-700000J0D01*
G01*
X157501708Y-56789600D02*
G75*
G03X157501708Y-56789600I-700000J0D01*
G01*
X149527205Y-46879520D02*
G75*
G03X149527205Y-46879520I-700000J0D01*
G01*
X149561995Y-52343143D02*
G75*
G03X149561995Y-52343143I-700000J0D01*
G01*
X149527205Y-131652016D02*
G75*
G03X149527205Y-131652016I-700000J0D01*
G01*
X187601714Y-56789600D02*
G75*
G03X187601714Y-56789600I-700000J0D01*
G01*
X187601714Y-121741932D02*
G75*
G03X187601714Y-121741932I-700000J0D01*
G01*
X124653411Y-52385136D02*
G75*
G03X124653411Y-52385136I-700000J0D01*
G01*
X179627211Y-46879520D02*
G75*
G03X179627211Y-46879520I-700000J0D01*
G01*
X179627211Y-131652016D02*
G75*
G03X179627211Y-131652016I-700000J0D01*
G01*
X183243404Y-52385136D02*
X185063396Y-52385136D01*
X184153408Y-51475132D02*
X184153408Y-53295139D01*
X178051998Y-52343143D02*
X179871990Y-52343143D01*
X178961986Y-51433155D02*
X178961986Y-53253147D01*
X183243404Y-126146397D02*
X185063396Y-126146397D01*
X184153408Y-125236393D02*
X184153408Y-127056393D01*
X178051998Y-126188381D02*
X179871990Y-126188381D01*
X178961986Y-125278385D02*
X178961986Y-127098377D01*
X123043407Y-126146397D02*
X124863399Y-126146397D01*
X123953411Y-125236393D02*
X123953411Y-127056393D01*
X125791698Y-121741932D02*
X127611705Y-121741932D01*
X126701702Y-120831928D02*
X126701702Y-122651928D01*
X117852001Y-126188381D02*
X119671993Y-126188381D01*
X118761989Y-125278385D02*
X118761989Y-127098377D01*
X125791698Y-56789600D02*
X127611705Y-56789600D01*
X126701702Y-55879612D02*
X126701702Y-57699604D01*
X117817211Y-46879520D02*
X119637203Y-46879520D01*
X118727215Y-45969517D02*
X118727215Y-47789524D01*
X117852001Y-52343143D02*
X119671993Y-52343143D01*
X118761989Y-51433155D02*
X118761989Y-53253147D01*
X117817211Y-131652016D02*
X119637203Y-131652016D01*
X118727215Y-130742016D02*
X118727215Y-132562016D01*
X153143398Y-52385136D02*
X154963405Y-52385136D01*
X154053402Y-51475132D02*
X154053402Y-53295139D01*
X153143398Y-126146397D02*
X154963405Y-126146397D01*
X154053402Y-125236393D02*
X154053402Y-127056393D01*
X155891704Y-121741932D02*
X157711712Y-121741932D01*
X156801708Y-120831928D02*
X156801708Y-122651928D01*
X147951992Y-126188381D02*
X149771984Y-126188381D01*
X148861995Y-125278385D02*
X148861995Y-127098377D01*
X155891704Y-56789600D02*
X157711712Y-56789600D01*
X156801708Y-55879612D02*
X156801708Y-57699604D01*
X147917202Y-46879520D02*
X149737209Y-46879520D01*
X148827205Y-45969517D02*
X148827205Y-47789524D01*
X147951992Y-52343143D02*
X149771984Y-52343143D01*
X148861995Y-51433155D02*
X148861995Y-53253147D01*
X147917202Y-131652016D02*
X149737209Y-131652016D01*
X148827205Y-130742016D02*
X148827205Y-132562016D01*
X185991710Y-56789600D02*
X187811702Y-56789600D01*
X186901714Y-55879612D02*
X186901714Y-57699604D01*
X185991710Y-121741932D02*
X187811702Y-121741932D01*
X186901714Y-120831928D02*
X186901714Y-122651928D01*
X123043407Y-52385136D02*
X124863399Y-52385136D01*
X123953411Y-51475132D02*
X123953411Y-53295139D01*
X178017208Y-46879520D02*
X179837200Y-46879520D01*
X178927211Y-45969517D02*
X178927211Y-47789524D01*
X178017208Y-131652016D02*
X179837200Y-131652016D01*
X178927211Y-130742016D02*
X178927211Y-132562016D01*
D11*
X90261429Y-103871429D02*
X91761429Y-103871429D01*
X91047143Y-103871429D02*
X91047143Y-104728572D01*
X90261429Y-104728572D02*
X91761429Y-104728572D01*
X90332857Y-106014286D02*
X90261429Y-105871429D01*
X90261429Y-105585715D01*
X90332857Y-105442858D01*
X90475714Y-105371429D01*
X91047143Y-105371429D01*
X91190000Y-105442858D01*
X91261429Y-105585715D01*
X91261429Y-105871429D01*
X91190000Y-106014286D01*
X91047143Y-106085715D01*
X90904286Y-106085715D01*
X90761429Y-105371429D01*
X90261429Y-106942858D02*
X90332857Y-106800000D01*
X90475714Y-106728572D01*
X91761429Y-106728572D01*
X90261429Y-107514286D02*
X91261429Y-107514286D01*
X91761429Y-107514286D02*
X91690000Y-107442857D01*
X91618571Y-107514286D01*
X91690000Y-107585714D01*
X91761429Y-107514286D01*
X91618571Y-107514286D01*
X90261429Y-108442858D02*
X90332857Y-108300000D01*
X90404286Y-108228572D01*
X90547143Y-108157143D01*
X90975714Y-108157143D01*
X91118571Y-108228572D01*
X91190000Y-108300000D01*
X91261429Y-108442858D01*
X91261429Y-108657143D01*
X91190000Y-108800000D01*
X91118571Y-108871429D01*
X90975714Y-108942858D01*
X90547143Y-108942858D01*
X90404286Y-108871429D01*
X90332857Y-108800000D01*
X90261429Y-108657143D01*
X90261429Y-108442858D01*
X90332857Y-109514286D02*
X90261429Y-109657143D01*
X90261429Y-109942858D01*
X90332857Y-110085715D01*
X90475714Y-110157143D01*
X90547143Y-110157143D01*
X90690000Y-110085715D01*
X90761429Y-109942858D01*
X90761429Y-109728572D01*
X90832857Y-109585715D01*
X90975714Y-109514286D01*
X91047143Y-109514286D01*
X91190000Y-109585715D01*
X91261429Y-109728572D01*
X91261429Y-109942858D01*
X91190000Y-110085715D01*
X91761429Y-111728572D02*
X91761429Y-112585715D01*
X90261429Y-112157144D02*
X91761429Y-112157144D01*
X90332857Y-113657143D02*
X90261429Y-113514286D01*
X90261429Y-113228572D01*
X90332857Y-113085715D01*
X90475714Y-113014286D01*
X91047143Y-113014286D01*
X91190000Y-113085715D01*
X91261429Y-113228572D01*
X91261429Y-113514286D01*
X91190000Y-113657143D01*
X91047143Y-113728572D01*
X90904286Y-113728572D01*
X90761429Y-113014286D01*
X90332857Y-114300000D02*
X90261429Y-114442857D01*
X90261429Y-114728572D01*
X90332857Y-114871429D01*
X90475714Y-114942857D01*
X90547143Y-114942857D01*
X90690000Y-114871429D01*
X90761429Y-114728572D01*
X90761429Y-114514286D01*
X90832857Y-114371429D01*
X90975714Y-114300000D01*
X91047143Y-114300000D01*
X91190000Y-114371429D01*
X91261429Y-114514286D01*
X91261429Y-114728572D01*
X91190000Y-114871429D01*
X91261429Y-115371429D02*
X91261429Y-115942858D01*
X91761429Y-115585715D02*
X90475714Y-115585715D01*
X90332857Y-115657143D01*
X90261429Y-115800001D01*
X90261429Y-115942858D01*
X90261429Y-117585715D02*
X91761429Y-117585715D01*
X91190000Y-117585715D02*
X91261429Y-117728572D01*
X91261429Y-118014286D01*
X91190000Y-118157143D01*
X91118571Y-118228572D01*
X90975714Y-118300001D01*
X90547143Y-118300001D01*
X90404286Y-118228572D01*
X90332857Y-118157143D01*
X90261429Y-118014286D01*
X90261429Y-117728572D01*
X90332857Y-117585715D01*
X90261429Y-119157144D02*
X90332857Y-119014286D01*
X90404286Y-118942858D01*
X90547143Y-118871429D01*
X90975714Y-118871429D01*
X91118571Y-118942858D01*
X91190000Y-119014286D01*
X91261429Y-119157144D01*
X91261429Y-119371429D01*
X91190000Y-119514286D01*
X91118571Y-119585715D01*
X90975714Y-119657144D01*
X90547143Y-119657144D01*
X90404286Y-119585715D01*
X90332857Y-119514286D01*
X90261429Y-119371429D01*
X90261429Y-119157144D01*
X90261429Y-120942858D02*
X91047143Y-120942858D01*
X91190000Y-120871429D01*
X91261429Y-120728572D01*
X91261429Y-120442858D01*
X91190000Y-120300001D01*
X90332857Y-120942858D02*
X90261429Y-120800001D01*
X90261429Y-120442858D01*
X90332857Y-120300001D01*
X90475714Y-120228572D01*
X90618571Y-120228572D01*
X90761429Y-120300001D01*
X90832857Y-120442858D01*
X90832857Y-120800001D01*
X90904286Y-120942858D01*
X90261429Y-121657144D02*
X91261429Y-121657144D01*
X90975714Y-121657144D02*
X91118571Y-121728572D01*
X91190000Y-121800001D01*
X91261429Y-121942858D01*
X91261429Y-122085715D01*
X90261429Y-123228572D02*
X91761429Y-123228572D01*
X90332857Y-123228572D02*
X90261429Y-123085715D01*
X90261429Y-122800001D01*
X90332857Y-122657143D01*
X90404286Y-122585715D01*
X90547143Y-122514286D01*
X90975714Y-122514286D01*
X91118571Y-122585715D01*
X91190000Y-122657143D01*
X91261429Y-122800001D01*
X91261429Y-123085715D01*
X91190000Y-123228572D01*
X91761429Y-124871429D02*
X90261429Y-125371429D01*
X91761429Y-125871429D01*
X91761429Y-126657143D02*
X91761429Y-126800000D01*
X91690000Y-126942857D01*
X91618571Y-127014286D01*
X91475714Y-127085715D01*
X91190000Y-127157143D01*
X90832857Y-127157143D01*
X90547143Y-127085715D01*
X90404286Y-127014286D01*
X90332857Y-126942857D01*
X90261429Y-126800000D01*
X90261429Y-126657143D01*
X90332857Y-126514286D01*
X90404286Y-126442857D01*
X90547143Y-126371429D01*
X90832857Y-126300000D01*
X91190000Y-126300000D01*
X91475714Y-126371429D01*
X91618571Y-126442857D01*
X91690000Y-126514286D01*
X91761429Y-126657143D01*
X90404286Y-127800000D02*
X90332857Y-127871428D01*
X90261429Y-127800000D01*
X90332857Y-127728571D01*
X90404286Y-127800000D01*
X90261429Y-127800000D01*
X91761429Y-129228572D02*
X91761429Y-128514286D01*
X91047143Y-128442857D01*
X91118571Y-128514286D01*
X91190000Y-128657143D01*
X91190000Y-129014286D01*
X91118571Y-129157143D01*
X91047143Y-129228572D01*
X90904286Y-129300000D01*
X90547143Y-129300000D01*
X90404286Y-129228572D01*
X90332857Y-129157143D01*
X90261429Y-129014286D01*
X90261429Y-128657143D01*
X90332857Y-128514286D01*
X90404286Y-128442857D01*
D12*
X107060000Y-89810000D02*
X107060000Y-88260000D01*
X107060000Y-84480000D02*
X107060000Y-86030000D01*
X112400000Y-85240000D02*
X112400000Y-86030000D01*
X112400000Y-89050000D02*
X112400000Y-88260000D01*
X107060000Y-89810000D02*
X111640000Y-89810000D01*
X111640000Y-89810000D02*
X112400000Y-89050000D01*
X112400000Y-85240000D02*
X111640000Y-84480000D01*
X111640000Y-84480000D02*
X107060000Y-84480000D01*
X148848000Y-87106000D02*
X148848000Y-85106000D01*
X146808000Y-85106000D02*
X146808000Y-87106000D01*
X146554000Y-93742000D02*
X146554000Y-95742000D01*
X148594000Y-95742000D02*
X148594000Y-93742000D01*
X142002000Y-102620000D02*
X144002000Y-102620000D01*
X144002000Y-100580000D02*
X142002000Y-100580000D01*
X131556000Y-100580000D02*
X129556000Y-100580000D01*
X129556000Y-102620000D02*
X131556000Y-102620000D01*
X133100000Y-77780000D02*
X131100000Y-77780000D01*
X131100000Y-79820000D02*
X133100000Y-79820000D01*
X139100000Y-79720000D02*
X141100000Y-79720000D01*
X141100000Y-77680000D02*
X139100000Y-77680000D01*
X125020000Y-88200000D02*
X125020000Y-86200000D01*
X122980000Y-86200000D02*
X122980000Y-88200000D01*
X122980000Y-93100000D02*
X122980000Y-95100000D01*
X125020000Y-95100000D02*
X125020000Y-93100000D01*
X145030000Y-69104000D02*
X145030000Y-71104000D01*
X147070000Y-71104000D02*
X147070000Y-69104000D01*
X105760000Y-104650000D02*
X107760000Y-104650000D01*
X107760000Y-102610000D02*
X105760000Y-102610000D01*
X99720000Y-102500000D02*
X97720000Y-102500000D01*
X97720000Y-104540000D02*
X99720000Y-104540000D01*
X104770000Y-116330000D02*
X102770000Y-116330000D01*
X102770000Y-118370000D02*
X104770000Y-118370000D01*
X124840000Y-106800000D02*
X126840000Y-106800000D01*
X126840000Y-104760000D02*
X124840000Y-104760000D01*
X119020000Y-104540000D02*
X117020000Y-104540000D01*
X117020000Y-106580000D02*
X119020000Y-106580000D01*
X120370000Y-119490000D02*
X122370000Y-119490000D01*
X122370000Y-117450000D02*
X120370000Y-117450000D01*
X137510000Y-104930000D02*
X135510000Y-104930000D01*
X135510000Y-106970000D02*
X137510000Y-106970000D01*
X143560000Y-106800000D02*
X145560000Y-106800000D01*
X145560000Y-104760000D02*
X143560000Y-104760000D01*
X140990000Y-119930000D02*
X142990000Y-119930000D01*
X142990000Y-117890000D02*
X140990000Y-117890000D01*
X162220000Y-106140000D02*
X164220000Y-106140000D01*
X164220000Y-104100000D02*
X162220000Y-104100000D01*
X155720000Y-104020000D02*
X153720000Y-104020000D01*
X153720000Y-106060000D02*
X155720000Y-106060000D01*
X160700000Y-119700000D02*
X162700000Y-119700000D01*
X162700000Y-117660000D02*
X160700000Y-117660000D01*
X173550000Y-103870000D02*
X171550000Y-103870000D01*
X171550000Y-105910000D02*
X173550000Y-105910000D01*
X179940000Y-105910000D02*
X181940000Y-105910000D01*
X181940000Y-103870000D02*
X179940000Y-103870000D01*
X176440000Y-119790000D02*
X178440000Y-119790000D01*
X178440000Y-117750000D02*
X176440000Y-117750000D01*
X171760000Y-97470000D02*
X171760000Y-92270000D01*
X161540000Y-97470000D02*
X171760000Y-97470000D01*
X158940000Y-92270000D02*
X171760000Y-92270000D01*
X161540000Y-97470000D02*
X161540000Y-94870000D01*
X161540000Y-94870000D02*
X158940000Y-94870000D01*
X158940000Y-94870000D02*
X158940000Y-92270000D01*
X160270000Y-97470000D02*
X158940000Y-97470000D01*
X158940000Y-97470000D02*
X158940000Y-96140000D01*
X112460000Y-56200000D02*
X110340000Y-56200000D01*
X112460000Y-59400000D02*
X112460000Y-56200000D01*
X110340000Y-56200000D02*
X110340000Y-59400000D01*
X105240000Y-60700000D02*
X107360000Y-60700000D01*
X105240000Y-57500000D02*
X105240000Y-60700000D01*
X107360000Y-60700000D02*
X107360000Y-57500000D01*
X164902000Y-69090000D02*
X163972000Y-69090000D01*
X161742000Y-69090000D02*
X162672000Y-69090000D01*
X161742000Y-69090000D02*
X161742000Y-72250000D01*
X164902000Y-69090000D02*
X164902000Y-70550000D01*
X135722000Y-59392000D02*
X135722000Y-61512000D01*
X138922000Y-59392000D02*
X135722000Y-59392000D01*
X135722000Y-61512000D02*
X138922000Y-61512000D01*
X141056000Y-59392000D02*
X141056000Y-61512000D01*
X144256000Y-59392000D02*
X141056000Y-59392000D01*
X141056000Y-61512000D02*
X144256000Y-61512000D01*
X117688000Y-67266000D02*
X117688000Y-69386000D01*
X120888000Y-67266000D02*
X117688000Y-67266000D01*
X117688000Y-69386000D02*
X120888000Y-69386000D01*
X123530000Y-67266000D02*
X123530000Y-69386000D01*
X126730000Y-67266000D02*
X123530000Y-67266000D01*
X123530000Y-69386000D02*
X126730000Y-69386000D01*
X157312000Y-85554000D02*
X157312000Y-87674000D01*
X160512000Y-85554000D02*
X157312000Y-85554000D01*
X157312000Y-87674000D02*
X160512000Y-87674000D01*
X162392000Y-85554000D02*
X162392000Y-87674000D01*
X165592000Y-85554000D02*
X162392000Y-85554000D01*
X162392000Y-87674000D02*
X165592000Y-87674000D01*
X99300000Y-63860000D02*
X96640000Y-63860000D01*
X99300000Y-89320000D02*
X99300000Y-63860000D01*
X96640000Y-89320000D02*
X96640000Y-63860000D01*
X99300000Y-89320000D02*
X96640000Y-89320000D01*
X99300000Y-90590000D02*
X99300000Y-91920000D01*
X99300000Y-91920000D02*
X97970000Y-91920000D01*
X181420000Y-97980000D02*
X184080000Y-97980000D01*
X181420000Y-85220000D02*
X181420000Y-97980000D01*
X184080000Y-85220000D02*
X184080000Y-97980000D01*
X181420000Y-85220000D02*
X184080000Y-85220000D01*
X181420000Y-83950000D02*
X181420000Y-82620000D01*
X181420000Y-82620000D02*
X182750000Y-82620000D01*
X120710000Y-99630000D02*
X120710000Y-96970000D01*
X100330000Y-99630000D02*
X120710000Y-99630000D01*
X100330000Y-96970000D02*
X120710000Y-96970000D01*
X100330000Y-99630000D02*
X100330000Y-96970000D01*
X99060000Y-99630000D02*
X97730000Y-99630000D01*
X97730000Y-99630000D02*
X97730000Y-98300000D01*
X90670000Y-99190000D02*
X93330000Y-99190000D01*
X90670000Y-76270000D02*
X90670000Y-99190000D01*
X93330000Y-76270000D02*
X93330000Y-99190000D01*
X90670000Y-76270000D02*
X93330000Y-76270000D01*
X90670000Y-75000000D02*
X90670000Y-73670000D01*
X90670000Y-73670000D02*
X92000000Y-73670000D01*
X107370000Y-66760000D02*
X109370000Y-66760000D01*
X109370000Y-68900000D02*
X107370000Y-68900000D01*
X157500000Y-82750000D02*
X159500000Y-82750000D01*
X159500000Y-84890000D02*
X157500000Y-84890000D01*
X145272000Y-57458000D02*
X143272000Y-57458000D01*
X143272000Y-55318000D02*
X145272000Y-55318000D01*
X166580000Y-84930000D02*
X164580000Y-84930000D01*
X164580000Y-82790000D02*
X166580000Y-82790000D01*
X127746000Y-66602000D02*
X125746000Y-66602000D01*
X125746000Y-64462000D02*
X127746000Y-64462000D01*
X95430000Y-111360000D02*
X95430000Y-109360000D01*
X97570000Y-109360000D02*
X97570000Y-111360000D01*
X113540000Y-112650000D02*
X113540000Y-110650000D01*
X115680000Y-110650000D02*
X115680000Y-112650000D01*
X132990000Y-113770000D02*
X132990000Y-111770000D01*
X135130000Y-111770000D02*
X135130000Y-113770000D01*
X152090000Y-112900000D02*
X152090000Y-110900000D01*
X154230000Y-110900000D02*
X154230000Y-112900000D01*
X168670000Y-112670000D02*
X168670000Y-110670000D01*
X170810000Y-110670000D02*
X170810000Y-112670000D01*
X178800000Y-69806000D02*
X176800000Y-69806000D01*
X176800000Y-66846000D02*
X178800000Y-66846000D01*
X178800000Y-75140000D02*
X176800000Y-75140000D01*
X176800000Y-72180000D02*
X178800000Y-72180000D01*
D13*
X128875000Y-82875000D02*
X128875000Y-83525000D01*
X143125000Y-82875000D02*
X143125000Y-83635000D01*
X143125000Y-97125000D02*
X143125000Y-96365000D01*
X128875000Y-97125000D02*
X128875000Y-96365000D01*
X128875000Y-82875000D02*
X129635000Y-82875000D01*
X128875000Y-97125000D02*
X129635000Y-97125000D01*
X143125000Y-97125000D02*
X142365000Y-97125000D01*
X143125000Y-82875000D02*
X142365000Y-82875000D01*
X128875000Y-83525000D02*
X127350000Y-83525000D01*
X135934000Y-66391000D02*
X135934000Y-67046000D01*
X141434000Y-66391000D02*
X141434000Y-67141000D01*
X141434000Y-72801000D02*
X141434000Y-72051000D01*
X135934000Y-72801000D02*
X135934000Y-72051000D01*
X135934000Y-66391000D02*
X141434000Y-66391000D01*
X135934000Y-72801000D02*
X141434000Y-72801000D01*
X135934000Y-67046000D02*
X134184000Y-67046000D01*
X101065000Y-106535000D02*
X101065000Y-106885000D01*
X106815000Y-106535000D02*
X106815000Y-106985000D01*
X106815000Y-114185000D02*
X106815000Y-113735000D01*
X101065000Y-114185000D02*
X101065000Y-113735000D01*
X101065000Y-106535000D02*
X106815000Y-106535000D01*
X101065000Y-114185000D02*
X106815000Y-114185000D01*
X101065000Y-106885000D02*
X99465000Y-106885000D01*
X119335000Y-107765000D02*
X119335000Y-108115000D01*
X125085000Y-107765000D02*
X125085000Y-108215000D01*
X125085000Y-115415000D02*
X125085000Y-114965000D01*
X119335000Y-115415000D02*
X119335000Y-114965000D01*
X119335000Y-107765000D02*
X125085000Y-107765000D01*
X119335000Y-115415000D02*
X125085000Y-115415000D01*
X119335000Y-108115000D02*
X117735000Y-108115000D01*
X139455000Y-108995000D02*
X139455000Y-109345000D01*
X145205000Y-108995000D02*
X145205000Y-109445000D01*
X145205000Y-116645000D02*
X145205000Y-116195000D01*
X139455000Y-116645000D02*
X139455000Y-116195000D01*
X139455000Y-108995000D02*
X145205000Y-108995000D01*
X139455000Y-116645000D02*
X145205000Y-116645000D01*
X139455000Y-109345000D02*
X137855000Y-109345000D01*
X157645000Y-107925000D02*
X157645000Y-108275000D01*
X163395000Y-107925000D02*
X163395000Y-108375000D01*
X163395000Y-115575000D02*
X163395000Y-115125000D01*
X157645000Y-115575000D02*
X157645000Y-115125000D01*
X157645000Y-107925000D02*
X163395000Y-107925000D01*
X157645000Y-115575000D02*
X163395000Y-115575000D01*
X157645000Y-108275000D02*
X156045000Y-108275000D01*
X174565000Y-107835000D02*
X174565000Y-108185000D01*
X180315000Y-107835000D02*
X180315000Y-108285000D01*
X180315000Y-115485000D02*
X180315000Y-115035000D01*
X174565000Y-115485000D02*
X174565000Y-115035000D01*
X174565000Y-107835000D02*
X180315000Y-107835000D01*
X174565000Y-115485000D02*
X180315000Y-115485000D01*
X174565000Y-108185000D02*
X172965000Y-108185000D01*
X107826000Y-74422000D02*
X107826000Y-75565000D01*
X110874000Y-74422000D02*
X110874000Y-75565000D01*
X114684000Y-75565000D02*
X114684000Y-79248000D01*
X114684000Y-79248000D02*
X104016000Y-79248000D01*
X104016000Y-79248000D02*
X104016000Y-75565000D01*
X114684000Y-74422000D02*
X114684000Y-75565000D01*
X114684000Y-75565000D02*
X104016000Y-75565000D01*
X104016000Y-75565000D02*
X104016000Y-74422000D01*
X109350000Y-74422000D02*
X104016000Y-74422000D01*
X109350000Y-74422000D02*
X114684000Y-74422000D01*
X115200000Y-132450000D02*
X113000000Y-128250000D01*
X113000000Y-128250000D02*
X127300000Y-118500000D01*
X127300000Y-118500000D02*
X129400000Y-121900000D01*
X115150000Y-46050000D02*
X112950000Y-50250000D01*
X112950000Y-50250000D02*
X127250000Y-60000000D01*
X127250000Y-60000000D02*
X129350000Y-56600000D01*
X145300000Y-132450000D02*
X143100000Y-128250000D01*
X143100000Y-128250000D02*
X157400000Y-118500000D01*
X157400000Y-118500000D02*
X159500000Y-121900000D01*
X145250000Y-46050000D02*
X143050000Y-50250000D01*
X143050000Y-50250000D02*
X157350000Y-60000000D01*
X157350000Y-60000000D02*
X159450000Y-56600000D01*
X175400000Y-132450000D02*
X173200000Y-128250000D01*
X173200000Y-128250000D02*
X187500000Y-118500000D01*
X187500000Y-118500000D02*
X189600000Y-121900000D01*
X175350000Y-46050000D02*
X173150000Y-50250000D01*
X173150000Y-50250000D02*
X187450000Y-60000000D01*
X187450000Y-60000000D02*
X189550000Y-56600000D01*
D12*
X171656000Y-66446000D02*
X168196000Y-66446000D01*
X171656000Y-70206000D02*
X168196000Y-70206000D01*
X171910000Y-71780000D02*
X168450000Y-71780000D01*
X171910000Y-75540000D02*
X168450000Y-75540000D01*
X120602000Y-62890000D02*
X117142000Y-62890000D01*
X120602000Y-66650000D02*
X117142000Y-66650000D01*
X138382000Y-54508000D02*
X134922000Y-54508000D01*
X138382000Y-58268000D02*
X134922000Y-58268000D01*
X156670000Y-66192000D02*
X153210000Y-66192000D01*
X156670000Y-69952000D02*
X153210000Y-69952000D01*
X156416000Y-71272000D02*
X152956000Y-71272000D01*
X156416000Y-75032000D02*
X152956000Y-75032000D01*
X164210000Y-56764000D02*
X164210000Y-60584000D01*
X164210000Y-60584000D02*
X165990000Y-60584000D01*
X165990000Y-60584000D02*
X165990000Y-56764000D01*
X164210000Y-56764000D02*
X165990000Y-56764000D01*
X169798000Y-56764000D02*
X169798000Y-60584000D01*
X169798000Y-60584000D02*
X171578000Y-60584000D01*
X171578000Y-60584000D02*
X171578000Y-56764000D01*
X169798000Y-56764000D02*
X171578000Y-56764000D01*
X175132000Y-56764000D02*
X175132000Y-60584000D01*
X175132000Y-60584000D02*
X176912000Y-60584000D01*
X176912000Y-60584000D02*
X176912000Y-56764000D01*
X175132000Y-56764000D02*
X176912000Y-56764000D01*
D13*
X109563334Y-83557143D02*
X109515715Y-83604762D01*
X109372858Y-83652381D01*
X109277620Y-83652381D01*
X109134762Y-83604762D01*
X109039524Y-83509524D01*
X108991905Y-83414286D01*
X108944286Y-83223810D01*
X108944286Y-83080952D01*
X108991905Y-82890476D01*
X109039524Y-82795238D01*
X109134762Y-82700000D01*
X109277620Y-82652381D01*
X109372858Y-82652381D01*
X109515715Y-82700000D01*
X109563334Y-82747619D01*
X110515715Y-83652381D02*
X109944286Y-83652381D01*
X110230000Y-83652381D02*
X110230000Y-82652381D01*
X110134762Y-82795238D01*
X110039524Y-82890476D01*
X109944286Y-82938095D01*
X108182381Y-91492381D02*
X107610952Y-91492381D01*
X107896666Y-91492381D02*
X107896666Y-90492381D01*
X107801428Y-90635238D01*
X107706190Y-90730476D01*
X107610952Y-90778095D01*
X108801428Y-90492381D02*
X108896667Y-90492381D01*
X108991905Y-90540000D01*
X109039524Y-90587619D01*
X109087143Y-90682857D01*
X109134762Y-90873333D01*
X109134762Y-91111429D01*
X109087143Y-91301905D01*
X109039524Y-91397143D01*
X108991905Y-91444762D01*
X108896667Y-91492381D01*
X108801428Y-91492381D01*
X108706190Y-91444762D01*
X108658571Y-91397143D01*
X108610952Y-91301905D01*
X108563333Y-91111429D01*
X108563333Y-90873333D01*
X108610952Y-90682857D01*
X108658571Y-90587619D01*
X108706190Y-90540000D01*
X108801428Y-90492381D01*
X109753809Y-90492381D02*
X109849048Y-90492381D01*
X109944286Y-90540000D01*
X109991905Y-90587619D01*
X110039524Y-90682857D01*
X110087143Y-90873333D01*
X110087143Y-91111429D01*
X110039524Y-91301905D01*
X109991905Y-91397143D01*
X109944286Y-91444762D01*
X109849048Y-91492381D01*
X109753809Y-91492381D01*
X109658571Y-91444762D01*
X109610952Y-91397143D01*
X109563333Y-91301905D01*
X109515714Y-91111429D01*
X109515714Y-90873333D01*
X109563333Y-90682857D01*
X109610952Y-90587619D01*
X109658571Y-90540000D01*
X109753809Y-90492381D01*
X110944286Y-90825714D02*
X110944286Y-91492381D01*
X110515714Y-90825714D02*
X110515714Y-91349524D01*
X110563333Y-91444762D01*
X110658571Y-91492381D01*
X110801429Y-91492381D01*
X110896667Y-91444762D01*
X110944286Y-91397143D01*
X111753810Y-90968571D02*
X111420476Y-90968571D01*
X111420476Y-91492381D02*
X111420476Y-90492381D01*
X111896667Y-90492381D01*
X112729048Y-84851429D02*
X113490953Y-84851429D01*
X113110001Y-85232381D02*
X113110001Y-84470476D01*
X149935143Y-86272666D02*
X149982762Y-86320285D01*
X150030381Y-86463142D01*
X150030381Y-86558380D01*
X149982762Y-86701238D01*
X149887524Y-86796476D01*
X149792286Y-86844095D01*
X149601810Y-86891714D01*
X149458952Y-86891714D01*
X149268476Y-86844095D01*
X149173238Y-86796476D01*
X149078000Y-86701238D01*
X149030381Y-86558380D01*
X149030381Y-86463142D01*
X149078000Y-86320285D01*
X149125619Y-86272666D01*
X149125619Y-85891714D02*
X149078000Y-85844095D01*
X149030381Y-85748857D01*
X149030381Y-85510761D01*
X149078000Y-85415523D01*
X149125619Y-85367904D01*
X149220857Y-85320285D01*
X149316095Y-85320285D01*
X149458952Y-85367904D01*
X150030381Y-85939333D01*
X150030381Y-85320285D01*
X146280381Y-86701238D02*
X146280381Y-87272667D01*
X146280381Y-86986953D02*
X145280381Y-86986953D01*
X145423238Y-87082191D01*
X145518476Y-87177429D01*
X145566095Y-87272667D01*
X145613714Y-85844095D02*
X146280381Y-85844095D01*
X145613714Y-86272667D02*
X146137524Y-86272667D01*
X146232762Y-86225048D01*
X146280381Y-86129810D01*
X146280381Y-85986952D01*
X146232762Y-85891714D01*
X146185143Y-85844095D01*
X145756571Y-85034571D02*
X145756571Y-85367905D01*
X146280381Y-85367905D02*
X145280381Y-85367905D01*
X145280381Y-84891714D01*
X146181143Y-94908666D02*
X146228762Y-94956285D01*
X146276381Y-95099142D01*
X146276381Y-95194380D01*
X146228762Y-95337238D01*
X146133524Y-95432476D01*
X146038286Y-95480095D01*
X145847810Y-95527714D01*
X145704952Y-95527714D01*
X145514476Y-95480095D01*
X145419238Y-95432476D01*
X145324000Y-95337238D01*
X145276381Y-95194380D01*
X145276381Y-95099142D01*
X145324000Y-94956285D01*
X145371619Y-94908666D01*
X145276381Y-94575333D02*
X145276381Y-93956285D01*
X145657333Y-94289619D01*
X145657333Y-94146761D01*
X145704952Y-94051523D01*
X145752571Y-94003904D01*
X145847810Y-93956285D01*
X146085905Y-93956285D01*
X146181143Y-94003904D01*
X146228762Y-94051523D01*
X146276381Y-94146761D01*
X146276381Y-94432476D01*
X146228762Y-94527714D01*
X146181143Y-94575333D01*
X149931143Y-96099143D02*
X149978762Y-96051524D01*
X150026381Y-96099143D01*
X149978762Y-96146762D01*
X149931143Y-96099143D01*
X150026381Y-96099143D01*
X150026381Y-95099143D02*
X150026381Y-95670572D01*
X150026381Y-95384858D02*
X149026381Y-95384858D01*
X149169238Y-95480096D01*
X149264476Y-95575334D01*
X149312095Y-95670572D01*
X149359714Y-94242000D02*
X150026381Y-94242000D01*
X149359714Y-94670572D02*
X149883524Y-94670572D01*
X149978762Y-94622953D01*
X150026381Y-94527715D01*
X150026381Y-94384857D01*
X149978762Y-94289619D01*
X149931143Y-94242000D01*
X149502571Y-93432476D02*
X149502571Y-93765810D01*
X150026381Y-93765810D02*
X149026381Y-93765810D01*
X149026381Y-93289619D01*
X147661334Y-101957143D02*
X147613715Y-102004762D01*
X147470858Y-102052381D01*
X147375620Y-102052381D01*
X147232762Y-102004762D01*
X147137524Y-101909524D01*
X147089905Y-101814286D01*
X147042286Y-101623810D01*
X147042286Y-101480952D01*
X147089905Y-101290476D01*
X147137524Y-101195238D01*
X147232762Y-101100000D01*
X147375620Y-101052381D01*
X147470858Y-101052381D01*
X147613715Y-101100000D01*
X147661334Y-101147619D01*
X148518477Y-101385714D02*
X148518477Y-102052381D01*
X148280381Y-101004762D02*
X148042286Y-101719048D01*
X148661334Y-101719048D01*
X137580762Y-102560381D02*
X137009333Y-102560381D01*
X137295047Y-102560381D02*
X137295047Y-101560381D01*
X137199809Y-101703238D01*
X137104571Y-101798476D01*
X137009333Y-101846095D01*
X138437905Y-101893714D02*
X138437905Y-102560381D01*
X138009333Y-101893714D02*
X138009333Y-102417524D01*
X138056952Y-102512762D01*
X138152190Y-102560381D01*
X138295048Y-102560381D01*
X138390286Y-102512762D01*
X138437905Y-102465143D01*
X139247429Y-102036571D02*
X138914095Y-102036571D01*
X138914095Y-102560381D02*
X138914095Y-101560381D01*
X139390286Y-101560381D01*
X125769334Y-102647143D02*
X125721715Y-102694762D01*
X125578858Y-102742381D01*
X125483620Y-102742381D01*
X125340762Y-102694762D01*
X125245524Y-102599524D01*
X125197905Y-102504286D01*
X125150286Y-102313810D01*
X125150286Y-102170952D01*
X125197905Y-101980476D01*
X125245524Y-101885238D01*
X125340762Y-101790000D01*
X125483620Y-101742381D01*
X125578858Y-101742381D01*
X125721715Y-101790000D01*
X125769334Y-101837619D01*
X126674096Y-101742381D02*
X126197905Y-101742381D01*
X126150286Y-102218571D01*
X126197905Y-102170952D01*
X126293143Y-102123333D01*
X126531239Y-102123333D01*
X126626477Y-102170952D01*
X126674096Y-102218571D01*
X126721715Y-102313810D01*
X126721715Y-102551905D01*
X126674096Y-102647143D01*
X126626477Y-102694762D01*
X126531239Y-102742381D01*
X126293143Y-102742381D01*
X126197905Y-102694762D01*
X126150286Y-102647143D01*
X134024857Y-101449143D02*
X134072476Y-101496762D01*
X134024857Y-101544381D01*
X133977238Y-101496762D01*
X134024857Y-101449143D01*
X134024857Y-101544381D01*
X135024857Y-101544381D02*
X134453428Y-101544381D01*
X134739142Y-101544381D02*
X134739142Y-100544381D01*
X134643904Y-100687238D01*
X134548666Y-100782476D01*
X134453428Y-100830095D01*
X135882000Y-100877714D02*
X135882000Y-101544381D01*
X135453428Y-100877714D02*
X135453428Y-101401524D01*
X135501047Y-101496762D01*
X135596285Y-101544381D01*
X135739143Y-101544381D01*
X135834381Y-101496762D01*
X135882000Y-101449143D01*
X136691524Y-101020571D02*
X136358190Y-101020571D01*
X136358190Y-101544381D02*
X136358190Y-100544381D01*
X136834381Y-100544381D01*
X131933334Y-77407143D02*
X131885715Y-77454762D01*
X131742858Y-77502381D01*
X131647620Y-77502381D01*
X131504762Y-77454762D01*
X131409524Y-77359524D01*
X131361905Y-77264286D01*
X131314286Y-77073810D01*
X131314286Y-76930952D01*
X131361905Y-76740476D01*
X131409524Y-76645238D01*
X131504762Y-76550000D01*
X131647620Y-76502381D01*
X131742858Y-76502381D01*
X131885715Y-76550000D01*
X131933334Y-76597619D01*
X132790477Y-76502381D02*
X132600000Y-76502381D01*
X132504762Y-76550000D01*
X132457143Y-76597619D01*
X132361905Y-76740476D01*
X132314286Y-76930952D01*
X132314286Y-77311905D01*
X132361905Y-77407143D01*
X132409524Y-77454762D01*
X132504762Y-77502381D01*
X132695239Y-77502381D01*
X132790477Y-77454762D01*
X132838096Y-77407143D01*
X132885715Y-77311905D01*
X132885715Y-77073810D01*
X132838096Y-76978571D01*
X132790477Y-76930952D01*
X132695239Y-76883333D01*
X132504762Y-76883333D01*
X132409524Y-76930952D01*
X132361905Y-76978571D01*
X132314286Y-77073810D01*
X134104762Y-77352381D02*
X133533333Y-77352381D01*
X133819047Y-77352381D02*
X133819047Y-76352381D01*
X133723809Y-76495238D01*
X133628571Y-76590476D01*
X133533333Y-76638095D01*
X134961905Y-76685714D02*
X134961905Y-77352381D01*
X134533333Y-76685714D02*
X134533333Y-77209524D01*
X134580952Y-77304762D01*
X134676190Y-77352381D01*
X134819048Y-77352381D01*
X134914286Y-77304762D01*
X134961905Y-77257143D01*
X135771429Y-76828571D02*
X135438095Y-76828571D01*
X135438095Y-77352381D02*
X135438095Y-76352381D01*
X135914286Y-76352381D01*
X139933334Y-80807143D02*
X139885715Y-80854762D01*
X139742858Y-80902381D01*
X139647620Y-80902381D01*
X139504762Y-80854762D01*
X139409524Y-80759524D01*
X139361905Y-80664286D01*
X139314286Y-80473810D01*
X139314286Y-80330952D01*
X139361905Y-80140476D01*
X139409524Y-80045238D01*
X139504762Y-79950000D01*
X139647620Y-79902381D01*
X139742858Y-79902381D01*
X139885715Y-79950000D01*
X139933334Y-79997619D01*
X140266667Y-79902381D02*
X140933334Y-79902381D01*
X140504762Y-80902381D01*
X138742857Y-77057143D02*
X138790476Y-77104762D01*
X138742857Y-77152381D01*
X138695238Y-77104762D01*
X138742857Y-77057143D01*
X138742857Y-77152381D01*
X139742857Y-77152381D02*
X139171428Y-77152381D01*
X139457142Y-77152381D02*
X139457142Y-76152381D01*
X139361904Y-76295238D01*
X139266666Y-76390476D01*
X139171428Y-76438095D01*
X140600000Y-76485714D02*
X140600000Y-77152381D01*
X140171428Y-76485714D02*
X140171428Y-77009524D01*
X140219047Y-77104762D01*
X140314285Y-77152381D01*
X140457143Y-77152381D01*
X140552381Y-77104762D01*
X140600000Y-77057143D01*
X141409524Y-76628571D02*
X141076190Y-76628571D01*
X141076190Y-77152381D02*
X141076190Y-76152381D01*
X141552381Y-76152381D01*
X126107143Y-87366666D02*
X126154762Y-87414285D01*
X126202381Y-87557142D01*
X126202381Y-87652380D01*
X126154762Y-87795238D01*
X126059524Y-87890476D01*
X125964286Y-87938095D01*
X125773810Y-87985714D01*
X125630952Y-87985714D01*
X125440476Y-87938095D01*
X125345238Y-87890476D01*
X125250000Y-87795238D01*
X125202381Y-87652380D01*
X125202381Y-87557142D01*
X125250000Y-87414285D01*
X125297619Y-87366666D01*
X125630952Y-86795238D02*
X125583333Y-86890476D01*
X125535714Y-86938095D01*
X125440476Y-86985714D01*
X125392857Y-86985714D01*
X125297619Y-86938095D01*
X125250000Y-86890476D01*
X125202381Y-86795238D01*
X125202381Y-86604761D01*
X125250000Y-86509523D01*
X125297619Y-86461904D01*
X125392857Y-86414285D01*
X125440476Y-86414285D01*
X125535714Y-86461904D01*
X125583333Y-86509523D01*
X125630952Y-86604761D01*
X125630952Y-86795238D01*
X125678571Y-86890476D01*
X125726190Y-86938095D01*
X125821429Y-86985714D01*
X126011905Y-86985714D01*
X126107143Y-86938095D01*
X126154762Y-86890476D01*
X126202381Y-86795238D01*
X126202381Y-86604761D01*
X126154762Y-86509523D01*
X126107143Y-86461904D01*
X126011905Y-86414285D01*
X125821429Y-86414285D01*
X125726190Y-86461904D01*
X125678571Y-86509523D01*
X125630952Y-86604761D01*
X122607143Y-94266666D02*
X122654762Y-94314285D01*
X122702381Y-94457142D01*
X122702381Y-94552380D01*
X122654762Y-94695238D01*
X122559524Y-94790476D01*
X122464286Y-94838095D01*
X122273810Y-94885714D01*
X122130952Y-94885714D01*
X121940476Y-94838095D01*
X121845238Y-94790476D01*
X121750000Y-94695238D01*
X121702381Y-94552380D01*
X121702381Y-94457142D01*
X121750000Y-94314285D01*
X121797619Y-94266666D01*
X122702381Y-93790476D02*
X122702381Y-93600000D01*
X122654762Y-93504761D01*
X122607143Y-93457142D01*
X122464286Y-93361904D01*
X122273810Y-93314285D01*
X121892857Y-93314285D01*
X121797619Y-93361904D01*
X121750000Y-93409523D01*
X121702381Y-93504761D01*
X121702381Y-93695238D01*
X121750000Y-93790476D01*
X121797619Y-93838095D01*
X121892857Y-93885714D01*
X122130952Y-93885714D01*
X122226190Y-93838095D01*
X122273810Y-93790476D01*
X122321429Y-93695238D01*
X122321429Y-93504761D01*
X122273810Y-93409523D01*
X122226190Y-93361904D01*
X122130952Y-93314285D01*
X144657143Y-70746857D02*
X144704762Y-70794476D01*
X144752381Y-70937333D01*
X144752381Y-71032571D01*
X144704762Y-71175429D01*
X144609524Y-71270667D01*
X144514286Y-71318286D01*
X144323810Y-71365905D01*
X144180952Y-71365905D01*
X143990476Y-71318286D01*
X143895238Y-71270667D01*
X143800000Y-71175429D01*
X143752381Y-71032571D01*
X143752381Y-70937333D01*
X143800000Y-70794476D01*
X143847619Y-70746857D01*
X144752381Y-69794476D02*
X144752381Y-70365905D01*
X144752381Y-70080191D02*
X143752381Y-70080191D01*
X143895238Y-70175429D01*
X143990476Y-70270667D01*
X144038095Y-70365905D01*
X143752381Y-69175429D02*
X143752381Y-69080190D01*
X143800000Y-68984952D01*
X143847619Y-68937333D01*
X143942857Y-68889714D01*
X144133333Y-68842095D01*
X144371429Y-68842095D01*
X144561905Y-68889714D01*
X144657143Y-68937333D01*
X144704762Y-68984952D01*
X144752381Y-69080190D01*
X144752381Y-69175429D01*
X144704762Y-69270667D01*
X144657143Y-69318286D01*
X144561905Y-69365905D01*
X144371429Y-69413524D01*
X144133333Y-69413524D01*
X143942857Y-69365905D01*
X143847619Y-69318286D01*
X143800000Y-69270667D01*
X143752381Y-69175429D01*
X148407143Y-71032571D02*
X148454762Y-70984952D01*
X148502381Y-71032571D01*
X148454762Y-71080190D01*
X148407143Y-71032571D01*
X148502381Y-71032571D01*
X148502381Y-70032571D02*
X148502381Y-70604000D01*
X148502381Y-70318286D02*
X147502381Y-70318286D01*
X147645238Y-70413524D01*
X147740476Y-70508762D01*
X147788095Y-70604000D01*
X147835714Y-69175428D02*
X148502381Y-69175428D01*
X147835714Y-69604000D02*
X148359524Y-69604000D01*
X148454762Y-69556381D01*
X148502381Y-69461143D01*
X148502381Y-69318285D01*
X148454762Y-69223047D01*
X148407143Y-69175428D01*
X104247143Y-101837143D02*
X104199524Y-101884762D01*
X104056667Y-101932381D01*
X103961429Y-101932381D01*
X103818571Y-101884762D01*
X103723333Y-101789524D01*
X103675714Y-101694286D01*
X103628095Y-101503810D01*
X103628095Y-101360952D01*
X103675714Y-101170476D01*
X103723333Y-101075238D01*
X103818571Y-100980000D01*
X103961429Y-100932381D01*
X104056667Y-100932381D01*
X104199524Y-100980000D01*
X104247143Y-101027619D01*
X105199524Y-101932381D02*
X104628095Y-101932381D01*
X104913809Y-101932381D02*
X104913809Y-100932381D01*
X104818571Y-101075238D01*
X104723333Y-101170476D01*
X104628095Y-101218095D01*
X106151905Y-101932381D02*
X105580476Y-101932381D01*
X105866190Y-101932381D02*
X105866190Y-100932381D01*
X105770952Y-101075238D01*
X105675714Y-101170476D01*
X105580476Y-101218095D01*
X106721905Y-101947143D02*
X106769524Y-101994762D01*
X106721905Y-102042381D01*
X106674286Y-101994762D01*
X106721905Y-101947143D01*
X106721905Y-102042381D01*
X107721905Y-102042381D02*
X107150476Y-102042381D01*
X107436190Y-102042381D02*
X107436190Y-101042381D01*
X107340952Y-101185238D01*
X107245714Y-101280476D01*
X107150476Y-101328095D01*
X109340953Y-101375714D02*
X109340953Y-102042381D01*
X108912381Y-101375714D02*
X108912381Y-101899524D01*
X108960000Y-101994762D01*
X109055238Y-102042381D01*
X109198096Y-102042381D01*
X109293334Y-101994762D01*
X109340953Y-101947143D01*
X110150477Y-101518571D02*
X109817143Y-101518571D01*
X109817143Y-102042381D02*
X109817143Y-101042381D01*
X110293334Y-101042381D01*
X95857143Y-101887143D02*
X95809524Y-101934762D01*
X95666667Y-101982381D01*
X95571429Y-101982381D01*
X95428571Y-101934762D01*
X95333333Y-101839524D01*
X95285714Y-101744286D01*
X95238095Y-101553810D01*
X95238095Y-101410952D01*
X95285714Y-101220476D01*
X95333333Y-101125238D01*
X95428571Y-101030000D01*
X95571429Y-100982381D01*
X95666667Y-100982381D01*
X95809524Y-101030000D01*
X95857143Y-101077619D01*
X96809524Y-101982381D02*
X96238095Y-101982381D01*
X96523809Y-101982381D02*
X96523809Y-100982381D01*
X96428571Y-101125238D01*
X96333333Y-101220476D01*
X96238095Y-101268095D01*
X97190476Y-101077619D02*
X97238095Y-101030000D01*
X97333333Y-100982381D01*
X97571429Y-100982381D01*
X97666667Y-101030000D01*
X97714286Y-101077619D01*
X97761905Y-101172857D01*
X97761905Y-101268095D01*
X97714286Y-101410952D01*
X97142857Y-101982381D01*
X97761905Y-101982381D01*
X98681905Y-101777143D02*
X98729524Y-101824762D01*
X98681905Y-101872381D01*
X98634286Y-101824762D01*
X98681905Y-101777143D01*
X98681905Y-101872381D01*
X99681905Y-101872381D02*
X99110476Y-101872381D01*
X99396190Y-101872381D02*
X99396190Y-100872381D01*
X99300952Y-101015238D01*
X99205714Y-101110476D01*
X99110476Y-101158095D01*
X101300953Y-101205714D02*
X101300953Y-101872381D01*
X100872381Y-101205714D02*
X100872381Y-101729524D01*
X100920000Y-101824762D01*
X101015238Y-101872381D01*
X101158096Y-101872381D01*
X101253334Y-101824762D01*
X101300953Y-101777143D01*
X102110477Y-101348571D02*
X101777143Y-101348571D01*
X101777143Y-101872381D02*
X101777143Y-100872381D01*
X102253334Y-100872381D01*
X103127143Y-115957143D02*
X103079524Y-116004762D01*
X102936667Y-116052381D01*
X102841429Y-116052381D01*
X102698571Y-116004762D01*
X102603333Y-115909524D01*
X102555714Y-115814286D01*
X102508095Y-115623810D01*
X102508095Y-115480952D01*
X102555714Y-115290476D01*
X102603333Y-115195238D01*
X102698571Y-115100000D01*
X102841429Y-115052381D01*
X102936667Y-115052381D01*
X103079524Y-115100000D01*
X103127143Y-115147619D01*
X104079524Y-116052381D02*
X103508095Y-116052381D01*
X103793809Y-116052381D02*
X103793809Y-115052381D01*
X103698571Y-115195238D01*
X103603333Y-115290476D01*
X103508095Y-115338095D01*
X104412857Y-115052381D02*
X105031905Y-115052381D01*
X104698571Y-115433333D01*
X104841429Y-115433333D01*
X104936667Y-115480952D01*
X104984286Y-115528571D01*
X105031905Y-115623810D01*
X105031905Y-115861905D01*
X104984286Y-115957143D01*
X104936667Y-116004762D01*
X104841429Y-116052381D01*
X104555714Y-116052381D01*
X104460476Y-116004762D01*
X104412857Y-115957143D01*
X102222381Y-119802381D02*
X101650952Y-119802381D01*
X101936666Y-119802381D02*
X101936666Y-118802381D01*
X101841428Y-118945238D01*
X101746190Y-119040476D01*
X101650952Y-119088095D01*
X102841428Y-118802381D02*
X102936667Y-118802381D01*
X103031905Y-118850000D01*
X103079524Y-118897619D01*
X103127143Y-118992857D01*
X103174762Y-119183333D01*
X103174762Y-119421429D01*
X103127143Y-119611905D01*
X103079524Y-119707143D01*
X103031905Y-119754762D01*
X102936667Y-119802381D01*
X102841428Y-119802381D01*
X102746190Y-119754762D01*
X102698571Y-119707143D01*
X102650952Y-119611905D01*
X102603333Y-119421429D01*
X102603333Y-119183333D01*
X102650952Y-118992857D01*
X102698571Y-118897619D01*
X102746190Y-118850000D01*
X102841428Y-118802381D01*
X103793809Y-118802381D02*
X103889048Y-118802381D01*
X103984286Y-118850000D01*
X104031905Y-118897619D01*
X104079524Y-118992857D01*
X104127143Y-119183333D01*
X104127143Y-119421429D01*
X104079524Y-119611905D01*
X104031905Y-119707143D01*
X103984286Y-119754762D01*
X103889048Y-119802381D01*
X103793809Y-119802381D01*
X103698571Y-119754762D01*
X103650952Y-119707143D01*
X103603333Y-119611905D01*
X103555714Y-119421429D01*
X103555714Y-119183333D01*
X103603333Y-118992857D01*
X103650952Y-118897619D01*
X103698571Y-118850000D01*
X103793809Y-118802381D01*
X104555714Y-119135714D02*
X104555714Y-119802381D01*
X104555714Y-119230952D02*
X104603333Y-119183333D01*
X104698571Y-119135714D01*
X104841429Y-119135714D01*
X104936667Y-119183333D01*
X104984286Y-119278571D01*
X104984286Y-119802381D01*
X105793810Y-119278571D02*
X105460476Y-119278571D01*
X105460476Y-119802381D02*
X105460476Y-118802381D01*
X105936667Y-118802381D01*
X123407143Y-104067143D02*
X123359524Y-104114762D01*
X123216667Y-104162381D01*
X123121429Y-104162381D01*
X122978571Y-104114762D01*
X122883333Y-104019524D01*
X122835714Y-103924286D01*
X122788095Y-103733810D01*
X122788095Y-103590952D01*
X122835714Y-103400476D01*
X122883333Y-103305238D01*
X122978571Y-103210000D01*
X123121429Y-103162381D01*
X123216667Y-103162381D01*
X123359524Y-103210000D01*
X123407143Y-103257619D01*
X124359524Y-104162381D02*
X123788095Y-104162381D01*
X124073809Y-104162381D02*
X124073809Y-103162381D01*
X123978571Y-103305238D01*
X123883333Y-103400476D01*
X123788095Y-103448095D01*
X125216667Y-103495714D02*
X125216667Y-104162381D01*
X124978571Y-103114762D02*
X124740476Y-103829048D01*
X125359524Y-103829048D01*
X126501905Y-104017143D02*
X126549524Y-104064762D01*
X126501905Y-104112381D01*
X126454286Y-104064762D01*
X126501905Y-104017143D01*
X126501905Y-104112381D01*
X127501905Y-104112381D02*
X126930476Y-104112381D01*
X127216190Y-104112381D02*
X127216190Y-103112381D01*
X127120952Y-103255238D01*
X127025714Y-103350476D01*
X126930476Y-103398095D01*
X129120953Y-103445714D02*
X129120953Y-104112381D01*
X128692381Y-103445714D02*
X128692381Y-103969524D01*
X128740000Y-104064762D01*
X128835238Y-104112381D01*
X128978096Y-104112381D01*
X129073334Y-104064762D01*
X129120953Y-104017143D01*
X129930477Y-103588571D02*
X129597143Y-103588571D01*
X129597143Y-104112381D02*
X129597143Y-103112381D01*
X130073334Y-103112381D01*
X114977143Y-103737143D02*
X114929524Y-103784762D01*
X114786667Y-103832381D01*
X114691429Y-103832381D01*
X114548571Y-103784762D01*
X114453333Y-103689524D01*
X114405714Y-103594286D01*
X114358095Y-103403810D01*
X114358095Y-103260952D01*
X114405714Y-103070476D01*
X114453333Y-102975238D01*
X114548571Y-102880000D01*
X114691429Y-102832381D01*
X114786667Y-102832381D01*
X114929524Y-102880000D01*
X114977143Y-102927619D01*
X115929524Y-103832381D02*
X115358095Y-103832381D01*
X115643809Y-103832381D02*
X115643809Y-102832381D01*
X115548571Y-102975238D01*
X115453333Y-103070476D01*
X115358095Y-103118095D01*
X116834286Y-102832381D02*
X116358095Y-102832381D01*
X116310476Y-103308571D01*
X116358095Y-103260952D01*
X116453333Y-103213333D01*
X116691429Y-103213333D01*
X116786667Y-103260952D01*
X116834286Y-103308571D01*
X116881905Y-103403810D01*
X116881905Y-103641905D01*
X116834286Y-103737143D01*
X116786667Y-103784762D01*
X116691429Y-103832381D01*
X116453333Y-103832381D01*
X116358095Y-103784762D01*
X116310476Y-103737143D01*
X118351905Y-103737143D02*
X118399524Y-103784762D01*
X118351905Y-103832381D01*
X118304286Y-103784762D01*
X118351905Y-103737143D01*
X118351905Y-103832381D01*
X119351905Y-103832381D02*
X118780476Y-103832381D01*
X119066190Y-103832381D02*
X119066190Y-102832381D01*
X118970952Y-102975238D01*
X118875714Y-103070476D01*
X118780476Y-103118095D01*
X120970953Y-103165714D02*
X120970953Y-103832381D01*
X120542381Y-103165714D02*
X120542381Y-103689524D01*
X120590000Y-103784762D01*
X120685238Y-103832381D01*
X120828096Y-103832381D01*
X120923334Y-103784762D01*
X120970953Y-103737143D01*
X121780477Y-103308571D02*
X121447143Y-103308571D01*
X121447143Y-103832381D02*
X121447143Y-102832381D01*
X121923334Y-102832381D01*
X120727143Y-120577143D02*
X120679524Y-120624762D01*
X120536667Y-120672381D01*
X120441429Y-120672381D01*
X120298571Y-120624762D01*
X120203333Y-120529524D01*
X120155714Y-120434286D01*
X120108095Y-120243810D01*
X120108095Y-120100952D01*
X120155714Y-119910476D01*
X120203333Y-119815238D01*
X120298571Y-119720000D01*
X120441429Y-119672381D01*
X120536667Y-119672381D01*
X120679524Y-119720000D01*
X120727143Y-119767619D01*
X121679524Y-120672381D02*
X121108095Y-120672381D01*
X121393809Y-120672381D02*
X121393809Y-119672381D01*
X121298571Y-119815238D01*
X121203333Y-119910476D01*
X121108095Y-119958095D01*
X122536667Y-119672381D02*
X122346190Y-119672381D01*
X122250952Y-119720000D01*
X122203333Y-119767619D01*
X122108095Y-119910476D01*
X122060476Y-120100952D01*
X122060476Y-120481905D01*
X122108095Y-120577143D01*
X122155714Y-120624762D01*
X122250952Y-120672381D01*
X122441429Y-120672381D01*
X122536667Y-120624762D01*
X122584286Y-120577143D01*
X122631905Y-120481905D01*
X122631905Y-120243810D01*
X122584286Y-120148571D01*
X122536667Y-120100952D01*
X122441429Y-120053333D01*
X122250952Y-120053333D01*
X122155714Y-120100952D01*
X122108095Y-120148571D01*
X122060476Y-120243810D01*
X120032381Y-121622381D02*
X119460952Y-121622381D01*
X119746666Y-121622381D02*
X119746666Y-120622381D01*
X119651428Y-120765238D01*
X119556190Y-120860476D01*
X119460952Y-120908095D01*
X120651428Y-120622381D02*
X120746667Y-120622381D01*
X120841905Y-120670000D01*
X120889524Y-120717619D01*
X120937143Y-120812857D01*
X120984762Y-121003333D01*
X120984762Y-121241429D01*
X120937143Y-121431905D01*
X120889524Y-121527143D01*
X120841905Y-121574762D01*
X120746667Y-121622381D01*
X120651428Y-121622381D01*
X120556190Y-121574762D01*
X120508571Y-121527143D01*
X120460952Y-121431905D01*
X120413333Y-121241429D01*
X120413333Y-121003333D01*
X120460952Y-120812857D01*
X120508571Y-120717619D01*
X120556190Y-120670000D01*
X120651428Y-120622381D01*
X121603809Y-120622381D02*
X121699048Y-120622381D01*
X121794286Y-120670000D01*
X121841905Y-120717619D01*
X121889524Y-120812857D01*
X121937143Y-121003333D01*
X121937143Y-121241429D01*
X121889524Y-121431905D01*
X121841905Y-121527143D01*
X121794286Y-121574762D01*
X121699048Y-121622381D01*
X121603809Y-121622381D01*
X121508571Y-121574762D01*
X121460952Y-121527143D01*
X121413333Y-121431905D01*
X121365714Y-121241429D01*
X121365714Y-121003333D01*
X121413333Y-120812857D01*
X121460952Y-120717619D01*
X121508571Y-120670000D01*
X121603809Y-120622381D01*
X122365714Y-120955714D02*
X122365714Y-121622381D01*
X122365714Y-121050952D02*
X122413333Y-121003333D01*
X122508571Y-120955714D01*
X122651429Y-120955714D01*
X122746667Y-121003333D01*
X122794286Y-121098571D01*
X122794286Y-121622381D01*
X123603810Y-121098571D02*
X123270476Y-121098571D01*
X123270476Y-121622381D02*
X123270476Y-120622381D01*
X123746667Y-120622381D01*
X133697143Y-104407143D02*
X133649524Y-104454762D01*
X133506667Y-104502381D01*
X133411429Y-104502381D01*
X133268571Y-104454762D01*
X133173333Y-104359524D01*
X133125714Y-104264286D01*
X133078095Y-104073810D01*
X133078095Y-103930952D01*
X133125714Y-103740476D01*
X133173333Y-103645238D01*
X133268571Y-103550000D01*
X133411429Y-103502381D01*
X133506667Y-103502381D01*
X133649524Y-103550000D01*
X133697143Y-103597619D01*
X134649524Y-104502381D02*
X134078095Y-104502381D01*
X134363809Y-104502381D02*
X134363809Y-103502381D01*
X134268571Y-103645238D01*
X134173333Y-103740476D01*
X134078095Y-103788095D01*
X134982857Y-103502381D02*
X135649524Y-103502381D01*
X135220952Y-104502381D01*
X136281905Y-104187143D02*
X136329524Y-104234762D01*
X136281905Y-104282381D01*
X136234286Y-104234762D01*
X136281905Y-104187143D01*
X136281905Y-104282381D01*
X137281905Y-104282381D02*
X136710476Y-104282381D01*
X136996190Y-104282381D02*
X136996190Y-103282381D01*
X136900952Y-103425238D01*
X136805714Y-103520476D01*
X136710476Y-103568095D01*
X138900953Y-103615714D02*
X138900953Y-104282381D01*
X138472381Y-103615714D02*
X138472381Y-104139524D01*
X138520000Y-104234762D01*
X138615238Y-104282381D01*
X138758096Y-104282381D01*
X138853334Y-104234762D01*
X138900953Y-104187143D01*
X139710477Y-103758571D02*
X139377143Y-103758571D01*
X139377143Y-104282381D02*
X139377143Y-103282381D01*
X139853334Y-103282381D01*
X141457143Y-104187143D02*
X141409524Y-104234762D01*
X141266667Y-104282381D01*
X141171429Y-104282381D01*
X141028571Y-104234762D01*
X140933333Y-104139524D01*
X140885714Y-104044286D01*
X140838095Y-103853810D01*
X140838095Y-103710952D01*
X140885714Y-103520476D01*
X140933333Y-103425238D01*
X141028571Y-103330000D01*
X141171429Y-103282381D01*
X141266667Y-103282381D01*
X141409524Y-103330000D01*
X141457143Y-103377619D01*
X142409524Y-104282381D02*
X141838095Y-104282381D01*
X142123809Y-104282381D02*
X142123809Y-103282381D01*
X142028571Y-103425238D01*
X141933333Y-103520476D01*
X141838095Y-103568095D01*
X142980952Y-103710952D02*
X142885714Y-103663333D01*
X142838095Y-103615714D01*
X142790476Y-103520476D01*
X142790476Y-103472857D01*
X142838095Y-103377619D01*
X142885714Y-103330000D01*
X142980952Y-103282381D01*
X143171429Y-103282381D01*
X143266667Y-103330000D01*
X143314286Y-103377619D01*
X143361905Y-103472857D01*
X143361905Y-103520476D01*
X143314286Y-103615714D01*
X143266667Y-103663333D01*
X143171429Y-103710952D01*
X142980952Y-103710952D01*
X142885714Y-103758571D01*
X142838095Y-103806190D01*
X142790476Y-103901429D01*
X142790476Y-104091905D01*
X142838095Y-104187143D01*
X142885714Y-104234762D01*
X142980952Y-104282381D01*
X143171429Y-104282381D01*
X143266667Y-104234762D01*
X143314286Y-104187143D01*
X143361905Y-104091905D01*
X143361905Y-103901429D01*
X143314286Y-103806190D01*
X143266667Y-103758571D01*
X143171429Y-103710952D01*
X145111905Y-104067143D02*
X145159524Y-104114762D01*
X145111905Y-104162381D01*
X145064286Y-104114762D01*
X145111905Y-104067143D01*
X145111905Y-104162381D01*
X146111905Y-104162381D02*
X145540476Y-104162381D01*
X145826190Y-104162381D02*
X145826190Y-103162381D01*
X145730952Y-103305238D01*
X145635714Y-103400476D01*
X145540476Y-103448095D01*
X147730953Y-103495714D02*
X147730953Y-104162381D01*
X147302381Y-103495714D02*
X147302381Y-104019524D01*
X147350000Y-104114762D01*
X147445238Y-104162381D01*
X147588096Y-104162381D01*
X147683334Y-104114762D01*
X147730953Y-104067143D01*
X148540477Y-103638571D02*
X148207143Y-103638571D01*
X148207143Y-104162381D02*
X148207143Y-103162381D01*
X148683334Y-103162381D01*
X141347143Y-121017143D02*
X141299524Y-121064762D01*
X141156667Y-121112381D01*
X141061429Y-121112381D01*
X140918571Y-121064762D01*
X140823333Y-120969524D01*
X140775714Y-120874286D01*
X140728095Y-120683810D01*
X140728095Y-120540952D01*
X140775714Y-120350476D01*
X140823333Y-120255238D01*
X140918571Y-120160000D01*
X141061429Y-120112381D01*
X141156667Y-120112381D01*
X141299524Y-120160000D01*
X141347143Y-120207619D01*
X142299524Y-121112381D02*
X141728095Y-121112381D01*
X142013809Y-121112381D02*
X142013809Y-120112381D01*
X141918571Y-120255238D01*
X141823333Y-120350476D01*
X141728095Y-120398095D01*
X142775714Y-121112381D02*
X142966190Y-121112381D01*
X143061429Y-121064762D01*
X143109048Y-121017143D01*
X143204286Y-120874286D01*
X143251905Y-120683810D01*
X143251905Y-120302857D01*
X143204286Y-120207619D01*
X143156667Y-120160000D01*
X143061429Y-120112381D01*
X142870952Y-120112381D01*
X142775714Y-120160000D01*
X142728095Y-120207619D01*
X142680476Y-120302857D01*
X142680476Y-120540952D01*
X142728095Y-120636190D01*
X142775714Y-120683810D01*
X142870952Y-120731429D01*
X143061429Y-120731429D01*
X143156667Y-120683810D01*
X143204286Y-120636190D01*
X143251905Y-120540952D01*
X140402381Y-122432381D02*
X139830952Y-122432381D01*
X140116666Y-122432381D02*
X140116666Y-121432381D01*
X140021428Y-121575238D01*
X139926190Y-121670476D01*
X139830952Y-121718095D01*
X141021428Y-121432381D02*
X141116667Y-121432381D01*
X141211905Y-121480000D01*
X141259524Y-121527619D01*
X141307143Y-121622857D01*
X141354762Y-121813333D01*
X141354762Y-122051429D01*
X141307143Y-122241905D01*
X141259524Y-122337143D01*
X141211905Y-122384762D01*
X141116667Y-122432381D01*
X141021428Y-122432381D01*
X140926190Y-122384762D01*
X140878571Y-122337143D01*
X140830952Y-122241905D01*
X140783333Y-122051429D01*
X140783333Y-121813333D01*
X140830952Y-121622857D01*
X140878571Y-121527619D01*
X140926190Y-121480000D01*
X141021428Y-121432381D01*
X141973809Y-121432381D02*
X142069048Y-121432381D01*
X142164286Y-121480000D01*
X142211905Y-121527619D01*
X142259524Y-121622857D01*
X142307143Y-121813333D01*
X142307143Y-122051429D01*
X142259524Y-122241905D01*
X142211905Y-122337143D01*
X142164286Y-122384762D01*
X142069048Y-122432381D01*
X141973809Y-122432381D01*
X141878571Y-122384762D01*
X141830952Y-122337143D01*
X141783333Y-122241905D01*
X141735714Y-122051429D01*
X141735714Y-121813333D01*
X141783333Y-121622857D01*
X141830952Y-121527619D01*
X141878571Y-121480000D01*
X141973809Y-121432381D01*
X142735714Y-121765714D02*
X142735714Y-122432381D01*
X142735714Y-121860952D02*
X142783333Y-121813333D01*
X142878571Y-121765714D01*
X143021429Y-121765714D01*
X143116667Y-121813333D01*
X143164286Y-121908571D01*
X143164286Y-122432381D01*
X143973810Y-121908571D02*
X143640476Y-121908571D01*
X143640476Y-122432381D02*
X143640476Y-121432381D01*
X144116667Y-121432381D01*
X160637143Y-103607143D02*
X160589524Y-103654762D01*
X160446667Y-103702381D01*
X160351429Y-103702381D01*
X160208571Y-103654762D01*
X160113333Y-103559524D01*
X160065714Y-103464286D01*
X160018095Y-103273810D01*
X160018095Y-103130952D01*
X160065714Y-102940476D01*
X160113333Y-102845238D01*
X160208571Y-102750000D01*
X160351429Y-102702381D01*
X160446667Y-102702381D01*
X160589524Y-102750000D01*
X160637143Y-102797619D01*
X161018095Y-102797619D02*
X161065714Y-102750000D01*
X161160952Y-102702381D01*
X161399048Y-102702381D01*
X161494286Y-102750000D01*
X161541905Y-102797619D01*
X161589524Y-102892857D01*
X161589524Y-102988095D01*
X161541905Y-103130952D01*
X160970476Y-103702381D01*
X161589524Y-103702381D01*
X162208571Y-102702381D02*
X162303810Y-102702381D01*
X162399048Y-102750000D01*
X162446667Y-102797619D01*
X162494286Y-102892857D01*
X162541905Y-103083333D01*
X162541905Y-103321429D01*
X162494286Y-103511905D01*
X162446667Y-103607143D01*
X162399048Y-103654762D01*
X162303810Y-103702381D01*
X162208571Y-103702381D01*
X162113333Y-103654762D01*
X162065714Y-103607143D01*
X162018095Y-103511905D01*
X161970476Y-103321429D01*
X161970476Y-103083333D01*
X162018095Y-102892857D01*
X162065714Y-102797619D01*
X162113333Y-102750000D01*
X162208571Y-102702381D01*
X163461905Y-103307143D02*
X163509524Y-103354762D01*
X163461905Y-103402381D01*
X163414286Y-103354762D01*
X163461905Y-103307143D01*
X163461905Y-103402381D01*
X164461905Y-103402381D02*
X163890476Y-103402381D01*
X164176190Y-103402381D02*
X164176190Y-102402381D01*
X164080952Y-102545238D01*
X163985714Y-102640476D01*
X163890476Y-102688095D01*
X166080953Y-102735714D02*
X166080953Y-103402381D01*
X165652381Y-102735714D02*
X165652381Y-103259524D01*
X165700000Y-103354762D01*
X165795238Y-103402381D01*
X165938096Y-103402381D01*
X166033334Y-103354762D01*
X166080953Y-103307143D01*
X166890477Y-102878571D02*
X166557143Y-102878571D01*
X166557143Y-103402381D02*
X166557143Y-102402381D01*
X167033334Y-102402381D01*
X151417143Y-103457143D02*
X151369524Y-103504762D01*
X151226667Y-103552381D01*
X151131429Y-103552381D01*
X150988571Y-103504762D01*
X150893333Y-103409524D01*
X150845714Y-103314286D01*
X150798095Y-103123810D01*
X150798095Y-102980952D01*
X150845714Y-102790476D01*
X150893333Y-102695238D01*
X150988571Y-102600000D01*
X151131429Y-102552381D01*
X151226667Y-102552381D01*
X151369524Y-102600000D01*
X151417143Y-102647619D01*
X151798095Y-102647619D02*
X151845714Y-102600000D01*
X151940952Y-102552381D01*
X152179048Y-102552381D01*
X152274286Y-102600000D01*
X152321905Y-102647619D01*
X152369524Y-102742857D01*
X152369524Y-102838095D01*
X152321905Y-102980952D01*
X151750476Y-103552381D01*
X152369524Y-103552381D01*
X153321905Y-103552381D02*
X152750476Y-103552381D01*
X153036190Y-103552381D02*
X153036190Y-102552381D01*
X152940952Y-102695238D01*
X152845714Y-102790476D01*
X152750476Y-102838095D01*
X154201905Y-103377143D02*
X154249524Y-103424762D01*
X154201905Y-103472381D01*
X154154286Y-103424762D01*
X154201905Y-103377143D01*
X154201905Y-103472381D01*
X155201905Y-103472381D02*
X154630476Y-103472381D01*
X154916190Y-103472381D02*
X154916190Y-102472381D01*
X154820952Y-102615238D01*
X154725714Y-102710476D01*
X154630476Y-102758095D01*
X156820953Y-102805714D02*
X156820953Y-103472381D01*
X156392381Y-102805714D02*
X156392381Y-103329524D01*
X156440000Y-103424762D01*
X156535238Y-103472381D01*
X156678096Y-103472381D01*
X156773334Y-103424762D01*
X156820953Y-103377143D01*
X157630477Y-102948571D02*
X157297143Y-102948571D01*
X157297143Y-103472381D02*
X157297143Y-102472381D01*
X157773334Y-102472381D01*
X161057143Y-120787143D02*
X161009524Y-120834762D01*
X160866667Y-120882381D01*
X160771429Y-120882381D01*
X160628571Y-120834762D01*
X160533333Y-120739524D01*
X160485714Y-120644286D01*
X160438095Y-120453810D01*
X160438095Y-120310952D01*
X160485714Y-120120476D01*
X160533333Y-120025238D01*
X160628571Y-119930000D01*
X160771429Y-119882381D01*
X160866667Y-119882381D01*
X161009524Y-119930000D01*
X161057143Y-119977619D01*
X161438095Y-119977619D02*
X161485714Y-119930000D01*
X161580952Y-119882381D01*
X161819048Y-119882381D01*
X161914286Y-119930000D01*
X161961905Y-119977619D01*
X162009524Y-120072857D01*
X162009524Y-120168095D01*
X161961905Y-120310952D01*
X161390476Y-120882381D01*
X162009524Y-120882381D01*
X162390476Y-119977619D02*
X162438095Y-119930000D01*
X162533333Y-119882381D01*
X162771429Y-119882381D01*
X162866667Y-119930000D01*
X162914286Y-119977619D01*
X162961905Y-120072857D01*
X162961905Y-120168095D01*
X162914286Y-120310952D01*
X162342857Y-120882381D01*
X162961905Y-120882381D01*
X160952381Y-122412381D02*
X160380952Y-122412381D01*
X160666666Y-122412381D02*
X160666666Y-121412381D01*
X160571428Y-121555238D01*
X160476190Y-121650476D01*
X160380952Y-121698095D01*
X161571428Y-121412381D02*
X161666667Y-121412381D01*
X161761905Y-121460000D01*
X161809524Y-121507619D01*
X161857143Y-121602857D01*
X161904762Y-121793333D01*
X161904762Y-122031429D01*
X161857143Y-122221905D01*
X161809524Y-122317143D01*
X161761905Y-122364762D01*
X161666667Y-122412381D01*
X161571428Y-122412381D01*
X161476190Y-122364762D01*
X161428571Y-122317143D01*
X161380952Y-122221905D01*
X161333333Y-122031429D01*
X161333333Y-121793333D01*
X161380952Y-121602857D01*
X161428571Y-121507619D01*
X161476190Y-121460000D01*
X161571428Y-121412381D01*
X162523809Y-121412381D02*
X162619048Y-121412381D01*
X162714286Y-121460000D01*
X162761905Y-121507619D01*
X162809524Y-121602857D01*
X162857143Y-121793333D01*
X162857143Y-122031429D01*
X162809524Y-122221905D01*
X162761905Y-122317143D01*
X162714286Y-122364762D01*
X162619048Y-122412381D01*
X162523809Y-122412381D01*
X162428571Y-122364762D01*
X162380952Y-122317143D01*
X162333333Y-122221905D01*
X162285714Y-122031429D01*
X162285714Y-121793333D01*
X162333333Y-121602857D01*
X162380952Y-121507619D01*
X162428571Y-121460000D01*
X162523809Y-121412381D01*
X163285714Y-121745714D02*
X163285714Y-122412381D01*
X163285714Y-121840952D02*
X163333333Y-121793333D01*
X163428571Y-121745714D01*
X163571429Y-121745714D01*
X163666667Y-121793333D01*
X163714286Y-121888571D01*
X163714286Y-122412381D01*
X164523810Y-121888571D02*
X164190476Y-121888571D01*
X164190476Y-122412381D02*
X164190476Y-121412381D01*
X164666667Y-121412381D01*
X169287143Y-103437143D02*
X169239524Y-103484762D01*
X169096667Y-103532381D01*
X169001429Y-103532381D01*
X168858571Y-103484762D01*
X168763333Y-103389524D01*
X168715714Y-103294286D01*
X168668095Y-103103810D01*
X168668095Y-102960952D01*
X168715714Y-102770476D01*
X168763333Y-102675238D01*
X168858571Y-102580000D01*
X169001429Y-102532381D01*
X169096667Y-102532381D01*
X169239524Y-102580000D01*
X169287143Y-102627619D01*
X169668095Y-102627619D02*
X169715714Y-102580000D01*
X169810952Y-102532381D01*
X170049048Y-102532381D01*
X170144286Y-102580000D01*
X170191905Y-102627619D01*
X170239524Y-102722857D01*
X170239524Y-102818095D01*
X170191905Y-102960952D01*
X169620476Y-103532381D01*
X170239524Y-103532381D01*
X170572857Y-102532381D02*
X171191905Y-102532381D01*
X170858571Y-102913333D01*
X171001429Y-102913333D01*
X171096667Y-102960952D01*
X171144286Y-103008571D01*
X171191905Y-103103810D01*
X171191905Y-103341905D01*
X171144286Y-103437143D01*
X171096667Y-103484762D01*
X171001429Y-103532381D01*
X170715714Y-103532381D01*
X170620476Y-103484762D01*
X170572857Y-103437143D01*
X172211905Y-103377143D02*
X172259524Y-103424762D01*
X172211905Y-103472381D01*
X172164286Y-103424762D01*
X172211905Y-103377143D01*
X172211905Y-103472381D01*
X173211905Y-103472381D02*
X172640476Y-103472381D01*
X172926190Y-103472381D02*
X172926190Y-102472381D01*
X172830952Y-102615238D01*
X172735714Y-102710476D01*
X172640476Y-102758095D01*
X174830953Y-102805714D02*
X174830953Y-103472381D01*
X174402381Y-102805714D02*
X174402381Y-103329524D01*
X174450000Y-103424762D01*
X174545238Y-103472381D01*
X174688096Y-103472381D01*
X174783334Y-103424762D01*
X174830953Y-103377143D01*
X175640477Y-102948571D02*
X175307143Y-102948571D01*
X175307143Y-103472381D02*
X175307143Y-102472381D01*
X175783334Y-102472381D01*
X178147143Y-103157143D02*
X178099524Y-103204762D01*
X177956667Y-103252381D01*
X177861429Y-103252381D01*
X177718571Y-103204762D01*
X177623333Y-103109524D01*
X177575714Y-103014286D01*
X177528095Y-102823810D01*
X177528095Y-102680952D01*
X177575714Y-102490476D01*
X177623333Y-102395238D01*
X177718571Y-102300000D01*
X177861429Y-102252381D01*
X177956667Y-102252381D01*
X178099524Y-102300000D01*
X178147143Y-102347619D01*
X178528095Y-102347619D02*
X178575714Y-102300000D01*
X178670952Y-102252381D01*
X178909048Y-102252381D01*
X179004286Y-102300000D01*
X179051905Y-102347619D01*
X179099524Y-102442857D01*
X179099524Y-102538095D01*
X179051905Y-102680952D01*
X178480476Y-103252381D01*
X179099524Y-103252381D01*
X179956667Y-102585714D02*
X179956667Y-103252381D01*
X179718571Y-102204762D02*
X179480476Y-102919048D01*
X180099524Y-102919048D01*
X181661905Y-103087143D02*
X181709524Y-103134762D01*
X181661905Y-103182381D01*
X181614286Y-103134762D01*
X181661905Y-103087143D01*
X181661905Y-103182381D01*
X182661905Y-103182381D02*
X182090476Y-103182381D01*
X182376190Y-103182381D02*
X182376190Y-102182381D01*
X182280952Y-102325238D01*
X182185714Y-102420476D01*
X182090476Y-102468095D01*
X184280953Y-102515714D02*
X184280953Y-103182381D01*
X183852381Y-102515714D02*
X183852381Y-103039524D01*
X183900000Y-103134762D01*
X183995238Y-103182381D01*
X184138096Y-103182381D01*
X184233334Y-103134762D01*
X184280953Y-103087143D01*
X185090477Y-102658571D02*
X184757143Y-102658571D01*
X184757143Y-103182381D02*
X184757143Y-102182381D01*
X185233334Y-102182381D01*
X176797143Y-120877143D02*
X176749524Y-120924762D01*
X176606667Y-120972381D01*
X176511429Y-120972381D01*
X176368571Y-120924762D01*
X176273333Y-120829524D01*
X176225714Y-120734286D01*
X176178095Y-120543810D01*
X176178095Y-120400952D01*
X176225714Y-120210476D01*
X176273333Y-120115238D01*
X176368571Y-120020000D01*
X176511429Y-119972381D01*
X176606667Y-119972381D01*
X176749524Y-120020000D01*
X176797143Y-120067619D01*
X177178095Y-120067619D02*
X177225714Y-120020000D01*
X177320952Y-119972381D01*
X177559048Y-119972381D01*
X177654286Y-120020000D01*
X177701905Y-120067619D01*
X177749524Y-120162857D01*
X177749524Y-120258095D01*
X177701905Y-120400952D01*
X177130476Y-120972381D01*
X177749524Y-120972381D01*
X178654286Y-119972381D02*
X178178095Y-119972381D01*
X178130476Y-120448571D01*
X178178095Y-120400952D01*
X178273333Y-120353333D01*
X178511429Y-120353333D01*
X178606667Y-120400952D01*
X178654286Y-120448571D01*
X178701905Y-120543810D01*
X178701905Y-120781905D01*
X178654286Y-120877143D01*
X178606667Y-120924762D01*
X178511429Y-120972381D01*
X178273333Y-120972381D01*
X178178095Y-120924762D01*
X178130476Y-120877143D01*
X176042381Y-122322381D02*
X175470952Y-122322381D01*
X175756666Y-122322381D02*
X175756666Y-121322381D01*
X175661428Y-121465238D01*
X175566190Y-121560476D01*
X175470952Y-121608095D01*
X176661428Y-121322381D02*
X176756667Y-121322381D01*
X176851905Y-121370000D01*
X176899524Y-121417619D01*
X176947143Y-121512857D01*
X176994762Y-121703333D01*
X176994762Y-121941429D01*
X176947143Y-122131905D01*
X176899524Y-122227143D01*
X176851905Y-122274762D01*
X176756667Y-122322381D01*
X176661428Y-122322381D01*
X176566190Y-122274762D01*
X176518571Y-122227143D01*
X176470952Y-122131905D01*
X176423333Y-121941429D01*
X176423333Y-121703333D01*
X176470952Y-121512857D01*
X176518571Y-121417619D01*
X176566190Y-121370000D01*
X176661428Y-121322381D01*
X177613809Y-121322381D02*
X177709048Y-121322381D01*
X177804286Y-121370000D01*
X177851905Y-121417619D01*
X177899524Y-121512857D01*
X177947143Y-121703333D01*
X177947143Y-121941429D01*
X177899524Y-122131905D01*
X177851905Y-122227143D01*
X177804286Y-122274762D01*
X177709048Y-122322381D01*
X177613809Y-122322381D01*
X177518571Y-122274762D01*
X177470952Y-122227143D01*
X177423333Y-122131905D01*
X177375714Y-121941429D01*
X177375714Y-121703333D01*
X177423333Y-121512857D01*
X177470952Y-121417619D01*
X177518571Y-121370000D01*
X177613809Y-121322381D01*
X178375714Y-121655714D02*
X178375714Y-122322381D01*
X178375714Y-121750952D02*
X178423333Y-121703333D01*
X178518571Y-121655714D01*
X178661429Y-121655714D01*
X178756667Y-121703333D01*
X178804286Y-121798571D01*
X178804286Y-122322381D01*
X179613810Y-121798571D02*
X179280476Y-121798571D01*
X179280476Y-122322381D02*
X179280476Y-121322381D01*
X179756667Y-121322381D01*
X158297143Y-96084285D02*
X158344762Y-96131904D01*
X158392381Y-96274761D01*
X158392381Y-96369999D01*
X158344762Y-96512857D01*
X158249524Y-96608095D01*
X158154286Y-96655714D01*
X157963810Y-96703333D01*
X157820952Y-96703333D01*
X157630476Y-96655714D01*
X157535238Y-96608095D01*
X157440000Y-96512857D01*
X157392381Y-96369999D01*
X157392381Y-96274761D01*
X157440000Y-96131904D01*
X157487619Y-96084285D01*
X157392381Y-95465238D02*
X157392381Y-95274761D01*
X157440000Y-95179523D01*
X157535238Y-95084285D01*
X157725714Y-95036666D01*
X158059048Y-95036666D01*
X158249524Y-95084285D01*
X158344762Y-95179523D01*
X158392381Y-95274761D01*
X158392381Y-95465238D01*
X158344762Y-95560476D01*
X158249524Y-95655714D01*
X158059048Y-95703333D01*
X157725714Y-95703333D01*
X157535238Y-95655714D01*
X157440000Y-95560476D01*
X157392381Y-95465238D01*
X158392381Y-94608095D02*
X157392381Y-94608095D01*
X158392381Y-94036666D01*
X157392381Y-94036666D01*
X158392381Y-93036666D02*
X158392381Y-93608095D01*
X158392381Y-93322381D02*
X157392381Y-93322381D01*
X157535238Y-93417619D01*
X157630476Y-93512857D01*
X157678095Y-93608095D01*
X113652381Y-59138095D02*
X112652381Y-59138095D01*
X112652381Y-58900000D01*
X112700000Y-58757142D01*
X112795238Y-58661904D01*
X112890476Y-58614285D01*
X113080952Y-58566666D01*
X113223810Y-58566666D01*
X113414286Y-58614285D01*
X113509524Y-58661904D01*
X113604762Y-58757142D01*
X113652381Y-58900000D01*
X113652381Y-59138095D01*
X113652381Y-57614285D02*
X113652381Y-58185714D01*
X113652381Y-57900000D02*
X112652381Y-57900000D01*
X112795238Y-57995238D01*
X112890476Y-58090476D01*
X112938095Y-58185714D01*
X104952381Y-59238095D02*
X103952381Y-59238095D01*
X103952381Y-59000000D01*
X104000000Y-58857142D01*
X104095238Y-58761904D01*
X104190476Y-58714285D01*
X104380952Y-58666666D01*
X104523810Y-58666666D01*
X104714286Y-58714285D01*
X104809524Y-58761904D01*
X104904762Y-58857142D01*
X104952381Y-59000000D01*
X104952381Y-59238095D01*
X104047619Y-58285714D02*
X104000000Y-58238095D01*
X103952381Y-58142857D01*
X103952381Y-57904761D01*
X104000000Y-57809523D01*
X104047619Y-57761904D01*
X104142857Y-57714285D01*
X104238095Y-57714285D01*
X104380952Y-57761904D01*
X104952381Y-58333333D01*
X104952381Y-57714285D01*
X161274381Y-70588095D02*
X160274381Y-70588095D01*
X160274381Y-70350000D01*
X160322000Y-70207142D01*
X160417238Y-70111904D01*
X160512476Y-70064285D01*
X160702952Y-70016666D01*
X160845810Y-70016666D01*
X161036286Y-70064285D01*
X161131524Y-70111904D01*
X161226762Y-70207142D01*
X161274381Y-70350000D01*
X161274381Y-70588095D01*
X160274381Y-69683333D02*
X160274381Y-69064285D01*
X160655333Y-69397619D01*
X160655333Y-69254761D01*
X160702952Y-69159523D01*
X160750571Y-69111904D01*
X160845810Y-69064285D01*
X161083905Y-69064285D01*
X161179143Y-69111904D01*
X161226762Y-69159523D01*
X161274381Y-69254761D01*
X161274381Y-69540476D01*
X161226762Y-69635714D01*
X161179143Y-69683333D01*
X133627905Y-60650381D02*
X133627905Y-59650381D01*
X133866000Y-59650381D01*
X134008858Y-59698000D01*
X134104096Y-59793238D01*
X134151715Y-59888476D01*
X134199334Y-60078952D01*
X134199334Y-60221810D01*
X134151715Y-60412286D01*
X134104096Y-60507524D01*
X134008858Y-60602762D01*
X133866000Y-60650381D01*
X133627905Y-60650381D01*
X135056477Y-59983714D02*
X135056477Y-60650381D01*
X134818381Y-59602762D02*
X134580286Y-60317048D01*
X135199334Y-60317048D01*
X146581905Y-60650381D02*
X146581905Y-59650381D01*
X146820000Y-59650381D01*
X146962858Y-59698000D01*
X147058096Y-59793238D01*
X147105715Y-59888476D01*
X147153334Y-60078952D01*
X147153334Y-60221810D01*
X147105715Y-60412286D01*
X147058096Y-60507524D01*
X146962858Y-60602762D01*
X146820000Y-60650381D01*
X146581905Y-60650381D01*
X148058096Y-59650381D02*
X147581905Y-59650381D01*
X147534286Y-60126571D01*
X147581905Y-60078952D01*
X147677143Y-60031333D01*
X147915239Y-60031333D01*
X148010477Y-60078952D01*
X148058096Y-60126571D01*
X148105715Y-60221810D01*
X148105715Y-60459905D01*
X148058096Y-60555143D01*
X148010477Y-60602762D01*
X147915239Y-60650381D01*
X147677143Y-60650381D01*
X147581905Y-60602762D01*
X147534286Y-60555143D01*
X119149905Y-66978381D02*
X119149905Y-65978381D01*
X119388000Y-65978381D01*
X119530858Y-66026000D01*
X119626096Y-66121238D01*
X119673715Y-66216476D01*
X119721334Y-66406952D01*
X119721334Y-66549810D01*
X119673715Y-66740286D01*
X119626096Y-66835524D01*
X119530858Y-66930762D01*
X119388000Y-66978381D01*
X119149905Y-66978381D01*
X120578477Y-65978381D02*
X120388000Y-65978381D01*
X120292762Y-66026000D01*
X120245143Y-66073619D01*
X120149905Y-66216476D01*
X120102286Y-66406952D01*
X120102286Y-66787905D01*
X120149905Y-66883143D01*
X120197524Y-66930762D01*
X120292762Y-66978381D01*
X120483239Y-66978381D01*
X120578477Y-66930762D01*
X120626096Y-66883143D01*
X120673715Y-66787905D01*
X120673715Y-66549810D01*
X120626096Y-66454571D01*
X120578477Y-66406952D01*
X120483239Y-66359333D01*
X120292762Y-66359333D01*
X120197524Y-66406952D01*
X120149905Y-66454571D01*
X120102286Y-66549810D01*
X124991905Y-66978381D02*
X124991905Y-65978381D01*
X125230000Y-65978381D01*
X125372858Y-66026000D01*
X125468096Y-66121238D01*
X125515715Y-66216476D01*
X125563334Y-66406952D01*
X125563334Y-66549810D01*
X125515715Y-66740286D01*
X125468096Y-66835524D01*
X125372858Y-66930762D01*
X125230000Y-66978381D01*
X124991905Y-66978381D01*
X125896667Y-65978381D02*
X126563334Y-65978381D01*
X126134762Y-66978381D01*
X155083905Y-87106381D02*
X155083905Y-86106381D01*
X155322000Y-86106381D01*
X155464858Y-86154000D01*
X155560096Y-86249238D01*
X155607715Y-86344476D01*
X155655334Y-86534952D01*
X155655334Y-86677810D01*
X155607715Y-86868286D01*
X155560096Y-86963524D01*
X155464858Y-87058762D01*
X155322000Y-87106381D01*
X155083905Y-87106381D01*
X156226762Y-86534952D02*
X156131524Y-86487333D01*
X156083905Y-86439714D01*
X156036286Y-86344476D01*
X156036286Y-86296857D01*
X156083905Y-86201619D01*
X156131524Y-86154000D01*
X156226762Y-86106381D01*
X156417239Y-86106381D01*
X156512477Y-86154000D01*
X156560096Y-86201619D01*
X156607715Y-86296857D01*
X156607715Y-86344476D01*
X156560096Y-86439714D01*
X156512477Y-86487333D01*
X156417239Y-86534952D01*
X156226762Y-86534952D01*
X156131524Y-86582571D01*
X156083905Y-86630190D01*
X156036286Y-86725429D01*
X156036286Y-86915905D01*
X156083905Y-87011143D01*
X156131524Y-87058762D01*
X156226762Y-87106381D01*
X156417239Y-87106381D01*
X156512477Y-87058762D01*
X156560096Y-87011143D01*
X156607715Y-86915905D01*
X156607715Y-86725429D01*
X156560096Y-86630190D01*
X156512477Y-86582571D01*
X156417239Y-86534952D01*
X167663905Y-87026381D02*
X167663905Y-86026381D01*
X167902000Y-86026381D01*
X168044858Y-86074000D01*
X168140096Y-86169238D01*
X168187715Y-86264476D01*
X168235334Y-86454952D01*
X168235334Y-86597810D01*
X168187715Y-86788286D01*
X168140096Y-86883524D01*
X168044858Y-86978762D01*
X167902000Y-87026381D01*
X167663905Y-87026381D01*
X168711524Y-87026381D02*
X168902000Y-87026381D01*
X168997239Y-86978762D01*
X169044858Y-86931143D01*
X169140096Y-86788286D01*
X169187715Y-86597810D01*
X169187715Y-86216857D01*
X169140096Y-86121619D01*
X169092477Y-86074000D01*
X168997239Y-86026381D01*
X168806762Y-86026381D01*
X168711524Y-86074000D01*
X168663905Y-86121619D01*
X168616286Y-86216857D01*
X168616286Y-86454952D01*
X168663905Y-86550190D01*
X168711524Y-86597810D01*
X168806762Y-86645429D01*
X168997239Y-86645429D01*
X169092477Y-86597810D01*
X169140096Y-86550190D01*
X169187715Y-86454952D01*
X97636667Y-92372381D02*
X97636667Y-93086667D01*
X97589047Y-93229524D01*
X97493809Y-93324762D01*
X97350952Y-93372381D01*
X97255714Y-93372381D01*
X98017619Y-92372381D02*
X98684286Y-92372381D01*
X98255714Y-93372381D01*
X182416667Y-81072381D02*
X182416667Y-81786667D01*
X182369047Y-81929524D01*
X182273809Y-82024762D01*
X182130952Y-82072381D01*
X182035714Y-82072381D01*
X183035714Y-81500952D02*
X182940476Y-81453333D01*
X182892857Y-81405714D01*
X182845238Y-81310476D01*
X182845238Y-81262857D01*
X182892857Y-81167619D01*
X182940476Y-81120000D01*
X183035714Y-81072381D01*
X183226191Y-81072381D01*
X183321429Y-81120000D01*
X183369048Y-81167619D01*
X183416667Y-81262857D01*
X183416667Y-81310476D01*
X183369048Y-81405714D01*
X183321429Y-81453333D01*
X183226191Y-81500952D01*
X183035714Y-81500952D01*
X182940476Y-81548571D01*
X182892857Y-81596190D01*
X182845238Y-81691429D01*
X182845238Y-81881905D01*
X182892857Y-81977143D01*
X182940476Y-82024762D01*
X183035714Y-82072381D01*
X183226191Y-82072381D01*
X183321429Y-82024762D01*
X183369048Y-81977143D01*
X183416667Y-81881905D01*
X183416667Y-81691429D01*
X183369048Y-81596190D01*
X183321429Y-81548571D01*
X183226191Y-81500952D01*
X96182381Y-98633333D02*
X96896667Y-98633333D01*
X97039524Y-98680953D01*
X97134762Y-98776191D01*
X97182381Y-98919048D01*
X97182381Y-99014286D01*
X97182381Y-98109524D02*
X97182381Y-97919048D01*
X97134762Y-97823809D01*
X97087143Y-97776190D01*
X96944286Y-97680952D01*
X96753810Y-97633333D01*
X96372857Y-97633333D01*
X96277619Y-97680952D01*
X96230000Y-97728571D01*
X96182381Y-97823809D01*
X96182381Y-98014286D01*
X96230000Y-98109524D01*
X96277619Y-98157143D01*
X96372857Y-98204762D01*
X96610952Y-98204762D01*
X96706190Y-98157143D01*
X96753810Y-98109524D01*
X96801429Y-98014286D01*
X96801429Y-97823809D01*
X96753810Y-97728571D01*
X96706190Y-97680952D01*
X96610952Y-97633333D01*
X91190477Y-72122381D02*
X91190477Y-72836667D01*
X91142857Y-72979524D01*
X91047619Y-73074762D01*
X90904762Y-73122381D01*
X90809524Y-73122381D01*
X92190477Y-73122381D02*
X91619048Y-73122381D01*
X91904762Y-73122381D02*
X91904762Y-72122381D01*
X91809524Y-72265238D01*
X91714286Y-72360476D01*
X91619048Y-72408095D01*
X92809524Y-72122381D02*
X92904763Y-72122381D01*
X93000001Y-72170000D01*
X93047620Y-72217619D01*
X93095239Y-72312857D01*
X93142858Y-72503333D01*
X93142858Y-72741429D01*
X93095239Y-72931905D01*
X93047620Y-73027143D01*
X93000001Y-73074762D01*
X92904763Y-73122381D01*
X92809524Y-73122381D01*
X92714286Y-73074762D01*
X92666667Y-73027143D01*
X92619048Y-72931905D01*
X92571429Y-72741429D01*
X92571429Y-72503333D01*
X92619048Y-72312857D01*
X92666667Y-72217619D01*
X92714286Y-72170000D01*
X92809524Y-72122381D01*
X108203334Y-70132381D02*
X107870000Y-69656190D01*
X107631905Y-70132381D02*
X107631905Y-69132381D01*
X108012858Y-69132381D01*
X108108096Y-69180000D01*
X108155715Y-69227619D01*
X108203334Y-69322857D01*
X108203334Y-69465714D01*
X108155715Y-69560952D01*
X108108096Y-69608571D01*
X108012858Y-69656190D01*
X107631905Y-69656190D01*
X109155715Y-70132381D02*
X108584286Y-70132381D01*
X108870000Y-70132381D02*
X108870000Y-69132381D01*
X108774762Y-69275238D01*
X108679524Y-69370476D01*
X108584286Y-69418095D01*
X108322381Y-65382381D02*
X108417620Y-65382381D01*
X108512858Y-65430000D01*
X108560477Y-65477619D01*
X108608096Y-65572857D01*
X108655715Y-65763333D01*
X108655715Y-66001429D01*
X108608096Y-66191905D01*
X108560477Y-66287143D01*
X108512858Y-66334762D01*
X108417620Y-66382381D01*
X108322381Y-66382381D01*
X108227143Y-66334762D01*
X108179524Y-66287143D01*
X108131905Y-66191905D01*
X108084286Y-66001429D01*
X108084286Y-65763333D01*
X108131905Y-65572857D01*
X108179524Y-65477619D01*
X108227143Y-65430000D01*
X108322381Y-65382381D01*
X158329334Y-82494381D02*
X157996000Y-82018190D01*
X157757905Y-82494381D02*
X157757905Y-81494381D01*
X158138858Y-81494381D01*
X158234096Y-81542000D01*
X158281715Y-81589619D01*
X158329334Y-81684857D01*
X158329334Y-81827714D01*
X158281715Y-81922952D01*
X158234096Y-81970571D01*
X158138858Y-82018190D01*
X157757905Y-82018190D01*
X159186477Y-81827714D02*
X159186477Y-82494381D01*
X158948381Y-81446762D02*
X158710286Y-82161048D01*
X159329334Y-82161048D01*
X153582762Y-84018381D02*
X153773238Y-84018381D01*
X153868477Y-83970762D01*
X153916096Y-83923143D01*
X154011334Y-83780286D01*
X154058953Y-83589810D01*
X154058953Y-83208857D01*
X154011334Y-83113619D01*
X153963715Y-83066000D01*
X153868477Y-83018381D01*
X153678000Y-83018381D01*
X153582762Y-83066000D01*
X153535143Y-83113619D01*
X153487524Y-83208857D01*
X153487524Y-83446952D01*
X153535143Y-83542190D01*
X153582762Y-83589810D01*
X153678000Y-83637429D01*
X153868477Y-83637429D01*
X153963715Y-83589810D01*
X154011334Y-83542190D01*
X154058953Y-83446952D01*
X154487524Y-84018381D02*
X154487524Y-83018381D01*
X154582762Y-83637429D02*
X154868477Y-84018381D01*
X154868477Y-83351714D02*
X154487524Y-83732667D01*
X144105334Y-54990381D02*
X143772000Y-54514190D01*
X143533905Y-54990381D02*
X143533905Y-53990381D01*
X143914858Y-53990381D01*
X144010096Y-54038000D01*
X144057715Y-54085619D01*
X144105334Y-54180857D01*
X144105334Y-54323714D01*
X144057715Y-54418952D01*
X144010096Y-54466571D01*
X143914858Y-54514190D01*
X143533905Y-54514190D01*
X145010096Y-53990381D02*
X144533905Y-53990381D01*
X144486286Y-54466571D01*
X144533905Y-54418952D01*
X144629143Y-54371333D01*
X144867239Y-54371333D01*
X144962477Y-54418952D01*
X145010096Y-54466571D01*
X145057715Y-54561810D01*
X145057715Y-54799905D01*
X145010096Y-54895143D01*
X144962477Y-54942762D01*
X144867239Y-54990381D01*
X144629143Y-54990381D01*
X144533905Y-54942762D01*
X144486286Y-54895143D01*
X148624381Y-57154666D02*
X148624381Y-57726095D01*
X148624381Y-57440381D02*
X147624381Y-57440381D01*
X147767238Y-57535619D01*
X147862476Y-57630857D01*
X147910095Y-57726095D01*
X147719619Y-56773714D02*
X147672000Y-56726095D01*
X147624381Y-56630857D01*
X147624381Y-56392761D01*
X147672000Y-56297523D01*
X147719619Y-56249904D01*
X147814857Y-56202285D01*
X147910095Y-56202285D01*
X148052952Y-56249904D01*
X148624381Y-56821333D01*
X148624381Y-56202285D01*
X147624381Y-55297523D02*
X147624381Y-55773714D01*
X148100571Y-55821333D01*
X148052952Y-55773714D01*
X148005333Y-55678476D01*
X148005333Y-55440380D01*
X148052952Y-55345142D01*
X148100571Y-55297523D01*
X148195810Y-55249904D01*
X148433905Y-55249904D01*
X148529143Y-55297523D01*
X148576762Y-55345142D01*
X148624381Y-55440380D01*
X148624381Y-55678476D01*
X148576762Y-55773714D01*
X148529143Y-55821333D01*
X165413334Y-82462381D02*
X165080000Y-81986190D01*
X164841905Y-82462381D02*
X164841905Y-81462381D01*
X165222858Y-81462381D01*
X165318096Y-81510000D01*
X165365715Y-81557619D01*
X165413334Y-81652857D01*
X165413334Y-81795714D01*
X165365715Y-81890952D01*
X165318096Y-81938571D01*
X165222858Y-81986190D01*
X164841905Y-81986190D01*
X166270477Y-81462381D02*
X166080000Y-81462381D01*
X165984762Y-81510000D01*
X165937143Y-81557619D01*
X165841905Y-81700476D01*
X165794286Y-81890952D01*
X165794286Y-82271905D01*
X165841905Y-82367143D01*
X165889524Y-82414762D01*
X165984762Y-82462381D01*
X166175239Y-82462381D01*
X166270477Y-82414762D01*
X166318096Y-82367143D01*
X166365715Y-82271905D01*
X166365715Y-82033810D01*
X166318096Y-81938571D01*
X166270477Y-81890952D01*
X166175239Y-81843333D01*
X165984762Y-81843333D01*
X165889524Y-81890952D01*
X165841905Y-81938571D01*
X165794286Y-82033810D01*
X170060953Y-84412381D02*
X169489524Y-84412381D01*
X169775238Y-84412381D02*
X169775238Y-83412381D01*
X169680000Y-83555238D01*
X169584762Y-83650476D01*
X169489524Y-83698095D01*
X170489524Y-84412381D02*
X170489524Y-83412381D01*
X170584762Y-84031429D02*
X170870477Y-84412381D01*
X170870477Y-83745714D02*
X170489524Y-84126667D01*
X126579334Y-64134381D02*
X126246000Y-63658190D01*
X126007905Y-64134381D02*
X126007905Y-63134381D01*
X126388858Y-63134381D01*
X126484096Y-63182000D01*
X126531715Y-63229619D01*
X126579334Y-63324857D01*
X126579334Y-63467714D01*
X126531715Y-63562952D01*
X126484096Y-63610571D01*
X126388858Y-63658190D01*
X126007905Y-63658190D01*
X126912667Y-63134381D02*
X127579334Y-63134381D01*
X127150762Y-64134381D01*
X130976762Y-65984381D02*
X130405333Y-65984381D01*
X130691047Y-65984381D02*
X130691047Y-64984381D01*
X130595809Y-65127238D01*
X130500571Y-65222476D01*
X130405333Y-65270095D01*
X131595809Y-64984381D02*
X131691048Y-64984381D01*
X131786286Y-65032000D01*
X131833905Y-65079619D01*
X131881524Y-65174857D01*
X131929143Y-65365333D01*
X131929143Y-65603429D01*
X131881524Y-65793905D01*
X131833905Y-65889143D01*
X131786286Y-65936762D01*
X131691048Y-65984381D01*
X131595809Y-65984381D01*
X131500571Y-65936762D01*
X131452952Y-65889143D01*
X131405333Y-65793905D01*
X131357714Y-65603429D01*
X131357714Y-65365333D01*
X131405333Y-65174857D01*
X131452952Y-65079619D01*
X131500571Y-65032000D01*
X131595809Y-64984381D01*
X132357714Y-65984381D02*
X132357714Y-64984381D01*
X132452952Y-65603429D02*
X132738667Y-65984381D01*
X132738667Y-65317714D02*
X132357714Y-65698667D01*
X96952381Y-114776666D02*
X96476190Y-115110000D01*
X96952381Y-115348095D02*
X95952381Y-115348095D01*
X95952381Y-114967142D01*
X96000000Y-114871904D01*
X96047619Y-114824285D01*
X96142857Y-114776666D01*
X96285714Y-114776666D01*
X96380952Y-114824285D01*
X96428571Y-114871904D01*
X96476190Y-114967142D01*
X96476190Y-115348095D01*
X96380952Y-114205238D02*
X96333333Y-114300476D01*
X96285714Y-114348095D01*
X96190476Y-114395714D01*
X96142857Y-114395714D01*
X96047619Y-114348095D01*
X96000000Y-114300476D01*
X95952381Y-114205238D01*
X95952381Y-114014761D01*
X96000000Y-113919523D01*
X96047619Y-113871904D01*
X96142857Y-113824285D01*
X96190476Y-113824285D01*
X96285714Y-113871904D01*
X96333333Y-113919523D01*
X96380952Y-114014761D01*
X96380952Y-114205238D01*
X96428571Y-114300476D01*
X96476190Y-114348095D01*
X96571429Y-114395714D01*
X96761905Y-114395714D01*
X96857143Y-114348095D01*
X96904762Y-114300476D01*
X96952381Y-114205238D01*
X96952381Y-114014761D01*
X96904762Y-113919523D01*
X96857143Y-113871904D01*
X96761905Y-113824285D01*
X96571429Y-113824285D01*
X96476190Y-113871904D01*
X96428571Y-113919523D01*
X96380952Y-114014761D01*
X94385714Y-112788571D02*
X95052381Y-112788571D01*
X94004762Y-113026667D02*
X94719048Y-113264762D01*
X94719048Y-112645714D01*
X94052381Y-112360000D02*
X94052381Y-111740952D01*
X94433333Y-112074286D01*
X94433333Y-111931428D01*
X94480952Y-111836190D01*
X94528571Y-111788571D01*
X94623810Y-111740952D01*
X94861905Y-111740952D01*
X94957143Y-111788571D01*
X95004762Y-111836190D01*
X95052381Y-111931428D01*
X95052381Y-112217143D01*
X95004762Y-112312381D01*
X94957143Y-112360000D01*
X94052381Y-111121905D02*
X94052381Y-111026666D01*
X94100000Y-110931428D01*
X94147619Y-110883809D01*
X94242857Y-110836190D01*
X94433333Y-110788571D01*
X94671429Y-110788571D01*
X94861905Y-110836190D01*
X94957143Y-110883809D01*
X95004762Y-110931428D01*
X95052381Y-111026666D01*
X95052381Y-111121905D01*
X95004762Y-111217143D01*
X94957143Y-111264762D01*
X94861905Y-111312381D01*
X94671429Y-111360000D01*
X94433333Y-111360000D01*
X94242857Y-111312381D01*
X94147619Y-111264762D01*
X94100000Y-111217143D01*
X94052381Y-111121905D01*
X94957143Y-109598095D02*
X95004762Y-109550476D01*
X95052381Y-109598095D01*
X95004762Y-109645714D01*
X94957143Y-109598095D01*
X95052381Y-109598095D01*
X95052381Y-108598095D02*
X95052381Y-109169524D01*
X95052381Y-108883810D02*
X94052381Y-108883810D01*
X94195238Y-108979048D01*
X94290476Y-109074286D01*
X94338095Y-109169524D01*
X95052381Y-108217143D02*
X94052381Y-107455238D01*
X94052381Y-108074286D02*
X94100000Y-107979048D01*
X94195238Y-107931429D01*
X94290476Y-107979048D01*
X94338095Y-108074286D01*
X94290476Y-108169524D01*
X94195238Y-108217143D01*
X94100000Y-108169524D01*
X94052381Y-108074286D01*
X95004762Y-107502857D02*
X94909524Y-107455238D01*
X94814286Y-107502857D01*
X94766667Y-107598095D01*
X94814286Y-107693333D01*
X94909524Y-107740952D01*
X95004762Y-107693333D01*
X95052381Y-107598095D01*
X95004762Y-107502857D01*
X115122381Y-116736666D02*
X114646190Y-117070000D01*
X115122381Y-117308095D02*
X114122381Y-117308095D01*
X114122381Y-116927142D01*
X114170000Y-116831904D01*
X114217619Y-116784285D01*
X114312857Y-116736666D01*
X114455714Y-116736666D01*
X114550952Y-116784285D01*
X114598571Y-116831904D01*
X114646190Y-116927142D01*
X114646190Y-117308095D01*
X115122381Y-116260476D02*
X115122381Y-116070000D01*
X115074762Y-115974761D01*
X115027143Y-115927142D01*
X114884286Y-115831904D01*
X114693810Y-115784285D01*
X114312857Y-115784285D01*
X114217619Y-115831904D01*
X114170000Y-115879523D01*
X114122381Y-115974761D01*
X114122381Y-116165238D01*
X114170000Y-116260476D01*
X114217619Y-116308095D01*
X114312857Y-116355714D01*
X114550952Y-116355714D01*
X114646190Y-116308095D01*
X114693810Y-116260476D01*
X114741429Y-116165238D01*
X114741429Y-115974761D01*
X114693810Y-115879523D01*
X114646190Y-115831904D01*
X114550952Y-115784285D01*
X112495714Y-114078571D02*
X113162381Y-114078571D01*
X112114762Y-114316667D02*
X112829048Y-114554762D01*
X112829048Y-113935714D01*
X112162381Y-113650000D02*
X112162381Y-113030952D01*
X112543333Y-113364286D01*
X112543333Y-113221428D01*
X112590952Y-113126190D01*
X112638571Y-113078571D01*
X112733810Y-113030952D01*
X112971905Y-113030952D01*
X113067143Y-113078571D01*
X113114762Y-113126190D01*
X113162381Y-113221428D01*
X113162381Y-113507143D01*
X113114762Y-113602381D01*
X113067143Y-113650000D01*
X112162381Y-112411905D02*
X112162381Y-112316666D01*
X112210000Y-112221428D01*
X112257619Y-112173809D01*
X112352857Y-112126190D01*
X112543333Y-112078571D01*
X112781429Y-112078571D01*
X112971905Y-112126190D01*
X113067143Y-112173809D01*
X113114762Y-112221428D01*
X113162381Y-112316666D01*
X113162381Y-112411905D01*
X113114762Y-112507143D01*
X113067143Y-112554762D01*
X112971905Y-112602381D01*
X112781429Y-112650000D01*
X112543333Y-112650000D01*
X112352857Y-112602381D01*
X112257619Y-112554762D01*
X112210000Y-112507143D01*
X112162381Y-112411905D01*
X113067143Y-110888095D02*
X113114762Y-110840476D01*
X113162381Y-110888095D01*
X113114762Y-110935714D01*
X113067143Y-110888095D01*
X113162381Y-110888095D01*
X113162381Y-109888095D02*
X113162381Y-110459524D01*
X113162381Y-110173810D02*
X112162381Y-110173810D01*
X112305238Y-110269048D01*
X112400476Y-110364286D01*
X112448095Y-110459524D01*
X113162381Y-109507143D02*
X112162381Y-108745238D01*
X112162381Y-109364286D02*
X112210000Y-109269048D01*
X112305238Y-109221429D01*
X112400476Y-109269048D01*
X112448095Y-109364286D01*
X112400476Y-109459524D01*
X112305238Y-109507143D01*
X112210000Y-109459524D01*
X112162381Y-109364286D01*
X113114762Y-108792857D02*
X113019524Y-108745238D01*
X112924286Y-108792857D01*
X112876667Y-108888095D01*
X112924286Y-108983333D01*
X113019524Y-109030952D01*
X113114762Y-108983333D01*
X113162381Y-108888095D01*
X113114762Y-108792857D01*
X134552381Y-118742857D02*
X134076190Y-119076191D01*
X134552381Y-119314286D02*
X133552381Y-119314286D01*
X133552381Y-118933333D01*
X133600000Y-118838095D01*
X133647619Y-118790476D01*
X133742857Y-118742857D01*
X133885714Y-118742857D01*
X133980952Y-118790476D01*
X134028571Y-118838095D01*
X134076190Y-118933333D01*
X134076190Y-119314286D01*
X134552381Y-117790476D02*
X134552381Y-118361905D01*
X134552381Y-118076191D02*
X133552381Y-118076191D01*
X133695238Y-118171429D01*
X133790476Y-118266667D01*
X133838095Y-118361905D01*
X133552381Y-117171429D02*
X133552381Y-117076190D01*
X133600000Y-116980952D01*
X133647619Y-116933333D01*
X133742857Y-116885714D01*
X133933333Y-116838095D01*
X134171429Y-116838095D01*
X134361905Y-116885714D01*
X134457143Y-116933333D01*
X134504762Y-116980952D01*
X134552381Y-117076190D01*
X134552381Y-117171429D01*
X134504762Y-117266667D01*
X134457143Y-117314286D01*
X134361905Y-117361905D01*
X134171429Y-117409524D01*
X133933333Y-117409524D01*
X133742857Y-117361905D01*
X133647619Y-117314286D01*
X133600000Y-117266667D01*
X133552381Y-117171429D01*
X131945714Y-115198571D02*
X132612381Y-115198571D01*
X131564762Y-115436667D02*
X132279048Y-115674762D01*
X132279048Y-115055714D01*
X131612381Y-114770000D02*
X131612381Y-114150952D01*
X131993333Y-114484286D01*
X131993333Y-114341428D01*
X132040952Y-114246190D01*
X132088571Y-114198571D01*
X132183810Y-114150952D01*
X132421905Y-114150952D01*
X132517143Y-114198571D01*
X132564762Y-114246190D01*
X132612381Y-114341428D01*
X132612381Y-114627143D01*
X132564762Y-114722381D01*
X132517143Y-114770000D01*
X131612381Y-113531905D02*
X131612381Y-113436666D01*
X131660000Y-113341428D01*
X131707619Y-113293809D01*
X131802857Y-113246190D01*
X131993333Y-113198571D01*
X132231429Y-113198571D01*
X132421905Y-113246190D01*
X132517143Y-113293809D01*
X132564762Y-113341428D01*
X132612381Y-113436666D01*
X132612381Y-113531905D01*
X132564762Y-113627143D01*
X132517143Y-113674762D01*
X132421905Y-113722381D01*
X132231429Y-113770000D01*
X131993333Y-113770000D01*
X131802857Y-113722381D01*
X131707619Y-113674762D01*
X131660000Y-113627143D01*
X131612381Y-113531905D01*
X132517143Y-112008095D02*
X132564762Y-111960476D01*
X132612381Y-112008095D01*
X132564762Y-112055714D01*
X132517143Y-112008095D01*
X132612381Y-112008095D01*
X132612381Y-111008095D02*
X132612381Y-111579524D01*
X132612381Y-111293810D02*
X131612381Y-111293810D01*
X131755238Y-111389048D01*
X131850476Y-111484286D01*
X131898095Y-111579524D01*
X132612381Y-110627143D02*
X131612381Y-109865238D01*
X131612381Y-110484286D02*
X131660000Y-110389048D01*
X131755238Y-110341429D01*
X131850476Y-110389048D01*
X131898095Y-110484286D01*
X131850476Y-110579524D01*
X131755238Y-110627143D01*
X131660000Y-110579524D01*
X131612381Y-110484286D01*
X132564762Y-109912857D02*
X132469524Y-109865238D01*
X132374286Y-109912857D01*
X132326667Y-110008095D01*
X132374286Y-110103333D01*
X132469524Y-110150952D01*
X132564762Y-110103333D01*
X132612381Y-110008095D01*
X132564762Y-109912857D01*
X153412381Y-117692857D02*
X152936190Y-118026191D01*
X153412381Y-118264286D02*
X152412381Y-118264286D01*
X152412381Y-117883333D01*
X152460000Y-117788095D01*
X152507619Y-117740476D01*
X152602857Y-117692857D01*
X152745714Y-117692857D01*
X152840952Y-117740476D01*
X152888571Y-117788095D01*
X152936190Y-117883333D01*
X152936190Y-118264286D01*
X153412381Y-116740476D02*
X153412381Y-117311905D01*
X153412381Y-117026191D02*
X152412381Y-117026191D01*
X152555238Y-117121429D01*
X152650476Y-117216667D01*
X152698095Y-117311905D01*
X153412381Y-115788095D02*
X153412381Y-116359524D01*
X153412381Y-116073810D02*
X152412381Y-116073810D01*
X152555238Y-116169048D01*
X152650476Y-116264286D01*
X152698095Y-116359524D01*
X150765714Y-114328571D02*
X151432381Y-114328571D01*
X150384762Y-114566667D02*
X151099048Y-114804762D01*
X151099048Y-114185714D01*
X150432381Y-113900000D02*
X150432381Y-113280952D01*
X150813333Y-113614286D01*
X150813333Y-113471428D01*
X150860952Y-113376190D01*
X150908571Y-113328571D01*
X151003810Y-113280952D01*
X151241905Y-113280952D01*
X151337143Y-113328571D01*
X151384762Y-113376190D01*
X151432381Y-113471428D01*
X151432381Y-113757143D01*
X151384762Y-113852381D01*
X151337143Y-113900000D01*
X150432381Y-112661905D02*
X150432381Y-112566666D01*
X150480000Y-112471428D01*
X150527619Y-112423809D01*
X150622857Y-112376190D01*
X150813333Y-112328571D01*
X151051429Y-112328571D01*
X151241905Y-112376190D01*
X151337143Y-112423809D01*
X151384762Y-112471428D01*
X151432381Y-112566666D01*
X151432381Y-112661905D01*
X151384762Y-112757143D01*
X151337143Y-112804762D01*
X151241905Y-112852381D01*
X151051429Y-112900000D01*
X150813333Y-112900000D01*
X150622857Y-112852381D01*
X150527619Y-112804762D01*
X150480000Y-112757143D01*
X150432381Y-112661905D01*
X151337143Y-111138095D02*
X151384762Y-111090476D01*
X151432381Y-111138095D01*
X151384762Y-111185714D01*
X151337143Y-111138095D01*
X151432381Y-111138095D01*
X151432381Y-110138095D02*
X151432381Y-110709524D01*
X151432381Y-110423810D02*
X150432381Y-110423810D01*
X150575238Y-110519048D01*
X150670476Y-110614286D01*
X150718095Y-110709524D01*
X151432381Y-109757143D02*
X150432381Y-108995238D01*
X150432381Y-109614286D02*
X150480000Y-109519048D01*
X150575238Y-109471429D01*
X150670476Y-109519048D01*
X150718095Y-109614286D01*
X150670476Y-109709524D01*
X150575238Y-109757143D01*
X150480000Y-109709524D01*
X150432381Y-109614286D01*
X151384762Y-109042857D02*
X151289524Y-108995238D01*
X151194286Y-109042857D01*
X151146667Y-109138095D01*
X151194286Y-109233333D01*
X151289524Y-109280952D01*
X151384762Y-109233333D01*
X151432381Y-109138095D01*
X151384762Y-109042857D01*
X170132381Y-117572857D02*
X169656190Y-117906191D01*
X170132381Y-118144286D02*
X169132381Y-118144286D01*
X169132381Y-117763333D01*
X169180000Y-117668095D01*
X169227619Y-117620476D01*
X169322857Y-117572857D01*
X169465714Y-117572857D01*
X169560952Y-117620476D01*
X169608571Y-117668095D01*
X169656190Y-117763333D01*
X169656190Y-118144286D01*
X170132381Y-116620476D02*
X170132381Y-117191905D01*
X170132381Y-116906191D02*
X169132381Y-116906191D01*
X169275238Y-117001429D01*
X169370476Y-117096667D01*
X169418095Y-117191905D01*
X169227619Y-116239524D02*
X169180000Y-116191905D01*
X169132381Y-116096667D01*
X169132381Y-115858571D01*
X169180000Y-115763333D01*
X169227619Y-115715714D01*
X169322857Y-115668095D01*
X169418095Y-115668095D01*
X169560952Y-115715714D01*
X170132381Y-116287143D01*
X170132381Y-115668095D01*
X167625714Y-114098571D02*
X168292381Y-114098571D01*
X167244762Y-114336667D02*
X167959048Y-114574762D01*
X167959048Y-113955714D01*
X167292381Y-113670000D02*
X167292381Y-113050952D01*
X167673333Y-113384286D01*
X167673333Y-113241428D01*
X167720952Y-113146190D01*
X167768571Y-113098571D01*
X167863810Y-113050952D01*
X168101905Y-113050952D01*
X168197143Y-113098571D01*
X168244762Y-113146190D01*
X168292381Y-113241428D01*
X168292381Y-113527143D01*
X168244762Y-113622381D01*
X168197143Y-113670000D01*
X167292381Y-112431905D02*
X167292381Y-112336666D01*
X167340000Y-112241428D01*
X167387619Y-112193809D01*
X167482857Y-112146190D01*
X167673333Y-112098571D01*
X167911429Y-112098571D01*
X168101905Y-112146190D01*
X168197143Y-112193809D01*
X168244762Y-112241428D01*
X168292381Y-112336666D01*
X168292381Y-112431905D01*
X168244762Y-112527143D01*
X168197143Y-112574762D01*
X168101905Y-112622381D01*
X167911429Y-112670000D01*
X167673333Y-112670000D01*
X167482857Y-112622381D01*
X167387619Y-112574762D01*
X167340000Y-112527143D01*
X167292381Y-112431905D01*
X168197143Y-110908095D02*
X168244762Y-110860476D01*
X168292381Y-110908095D01*
X168244762Y-110955714D01*
X168197143Y-110908095D01*
X168292381Y-110908095D01*
X168292381Y-109908095D02*
X168292381Y-110479524D01*
X168292381Y-110193810D02*
X167292381Y-110193810D01*
X167435238Y-110289048D01*
X167530476Y-110384286D01*
X167578095Y-110479524D01*
X168292381Y-109527143D02*
X167292381Y-108765238D01*
X167292381Y-109384286D02*
X167340000Y-109289048D01*
X167435238Y-109241429D01*
X167530476Y-109289048D01*
X167578095Y-109384286D01*
X167530476Y-109479524D01*
X167435238Y-109527143D01*
X167340000Y-109479524D01*
X167292381Y-109384286D01*
X168244762Y-108812857D02*
X168149524Y-108765238D01*
X168054286Y-108812857D01*
X168006667Y-108908095D01*
X168054286Y-109003333D01*
X168149524Y-109050952D01*
X168244762Y-109003333D01*
X168292381Y-108908095D01*
X168244762Y-108812857D01*
X177204762Y-66478381D02*
X176871428Y-66002190D01*
X176633333Y-66478381D02*
X176633333Y-65478381D01*
X177014286Y-65478381D01*
X177109524Y-65526000D01*
X177157143Y-65573619D01*
X177204762Y-65668857D01*
X177204762Y-65811714D01*
X177157143Y-65906952D01*
X177109524Y-65954571D01*
X177014286Y-66002190D01*
X176633333Y-66002190D01*
X177490476Y-65478381D02*
X177823809Y-66478381D01*
X178157143Y-65478381D01*
X179014286Y-66478381D02*
X178442857Y-66478381D01*
X178728571Y-66478381D02*
X178728571Y-65478381D01*
X178633333Y-65621238D01*
X178538095Y-65716476D01*
X178442857Y-65764095D01*
X177204762Y-77414381D02*
X176871428Y-76938190D01*
X176633333Y-77414381D02*
X176633333Y-76414381D01*
X177014286Y-76414381D01*
X177109524Y-76462000D01*
X177157143Y-76509619D01*
X177204762Y-76604857D01*
X177204762Y-76747714D01*
X177157143Y-76842952D01*
X177109524Y-76890571D01*
X177014286Y-76938190D01*
X176633333Y-76938190D01*
X177490476Y-76414381D02*
X177823809Y-77414381D01*
X178157143Y-76414381D01*
X178442857Y-76509619D02*
X178490476Y-76462000D01*
X178585714Y-76414381D01*
X178823810Y-76414381D01*
X178919048Y-76462000D01*
X178966667Y-76509619D01*
X179014286Y-76604857D01*
X179014286Y-76700095D01*
X178966667Y-76842952D01*
X178395238Y-77414381D01*
X179014286Y-77414381D01*
X135238095Y-79802381D02*
X135238095Y-80611905D01*
X135285714Y-80707143D01*
X135333333Y-80754762D01*
X135428571Y-80802381D01*
X135619048Y-80802381D01*
X135714286Y-80754762D01*
X135761905Y-80707143D01*
X135809524Y-80611905D01*
X135809524Y-79802381D01*
X136238095Y-79897619D02*
X136285714Y-79850000D01*
X136380952Y-79802381D01*
X136619048Y-79802381D01*
X136714286Y-79850000D01*
X136761905Y-79897619D01*
X136809524Y-79992857D01*
X136809524Y-80088095D01*
X136761905Y-80230952D01*
X136190476Y-80802381D01*
X136809524Y-80802381D01*
X137922095Y-64918381D02*
X137922095Y-65727905D01*
X137969714Y-65823143D01*
X138017333Y-65870762D01*
X138112571Y-65918381D01*
X138303048Y-65918381D01*
X138398286Y-65870762D01*
X138445905Y-65823143D01*
X138493524Y-65727905D01*
X138493524Y-64918381D01*
X138874476Y-64918381D02*
X139493524Y-64918381D01*
X139160190Y-65299333D01*
X139303048Y-65299333D01*
X139398286Y-65346952D01*
X139445905Y-65394571D01*
X139493524Y-65489810D01*
X139493524Y-65727905D01*
X139445905Y-65823143D01*
X139398286Y-65870762D01*
X139303048Y-65918381D01*
X139017333Y-65918381D01*
X138922095Y-65870762D01*
X138874476Y-65823143D01*
X103178095Y-105062381D02*
X103178095Y-105871905D01*
X103225714Y-105967143D01*
X103273333Y-106014762D01*
X103368571Y-106062381D01*
X103559048Y-106062381D01*
X103654286Y-106014762D01*
X103701905Y-105967143D01*
X103749524Y-105871905D01*
X103749524Y-105062381D01*
X104654286Y-105395714D02*
X104654286Y-106062381D01*
X104416190Y-105014762D02*
X104178095Y-105729048D01*
X104797143Y-105729048D01*
X121448095Y-106292381D02*
X121448095Y-107101905D01*
X121495714Y-107197143D01*
X121543333Y-107244762D01*
X121638571Y-107292381D01*
X121829048Y-107292381D01*
X121924286Y-107244762D01*
X121971905Y-107197143D01*
X122019524Y-107101905D01*
X122019524Y-106292381D01*
X122971905Y-106292381D02*
X122495714Y-106292381D01*
X122448095Y-106768571D01*
X122495714Y-106720952D01*
X122590952Y-106673333D01*
X122829048Y-106673333D01*
X122924286Y-106720952D01*
X122971905Y-106768571D01*
X123019524Y-106863810D01*
X123019524Y-107101905D01*
X122971905Y-107197143D01*
X122924286Y-107244762D01*
X122829048Y-107292381D01*
X122590952Y-107292381D01*
X122495714Y-107244762D01*
X122448095Y-107197143D01*
X141568095Y-107522381D02*
X141568095Y-108331905D01*
X141615714Y-108427143D01*
X141663333Y-108474762D01*
X141758571Y-108522381D01*
X141949048Y-108522381D01*
X142044286Y-108474762D01*
X142091905Y-108427143D01*
X142139524Y-108331905D01*
X142139524Y-107522381D01*
X143044286Y-107522381D02*
X142853809Y-107522381D01*
X142758571Y-107570000D01*
X142710952Y-107617619D01*
X142615714Y-107760476D01*
X142568095Y-107950952D01*
X142568095Y-108331905D01*
X142615714Y-108427143D01*
X142663333Y-108474762D01*
X142758571Y-108522381D01*
X142949048Y-108522381D01*
X143044286Y-108474762D01*
X143091905Y-108427143D01*
X143139524Y-108331905D01*
X143139524Y-108093810D01*
X143091905Y-107998571D01*
X143044286Y-107950952D01*
X142949048Y-107903333D01*
X142758571Y-107903333D01*
X142663333Y-107950952D01*
X142615714Y-107998571D01*
X142568095Y-108093810D01*
X159758095Y-106452381D02*
X159758095Y-107261905D01*
X159805714Y-107357143D01*
X159853333Y-107404762D01*
X159948571Y-107452381D01*
X160139048Y-107452381D01*
X160234286Y-107404762D01*
X160281905Y-107357143D01*
X160329524Y-107261905D01*
X160329524Y-106452381D01*
X160710476Y-106452381D02*
X161377143Y-106452381D01*
X160948571Y-107452381D01*
X176678095Y-106362381D02*
X176678095Y-107171905D01*
X176725714Y-107267143D01*
X176773333Y-107314762D01*
X176868571Y-107362381D01*
X177059048Y-107362381D01*
X177154286Y-107314762D01*
X177201905Y-107267143D01*
X177249524Y-107171905D01*
X177249524Y-106362381D01*
X177868571Y-106790952D02*
X177773333Y-106743333D01*
X177725714Y-106695714D01*
X177678095Y-106600476D01*
X177678095Y-106552857D01*
X177725714Y-106457619D01*
X177773333Y-106410000D01*
X177868571Y-106362381D01*
X178059048Y-106362381D01*
X178154286Y-106410000D01*
X178201905Y-106457619D01*
X178249524Y-106552857D01*
X178249524Y-106600476D01*
X178201905Y-106695714D01*
X178154286Y-106743333D01*
X178059048Y-106790952D01*
X177868571Y-106790952D01*
X177773333Y-106838571D01*
X177725714Y-106886190D01*
X177678095Y-106981429D01*
X177678095Y-107171905D01*
X177725714Y-107267143D01*
X177773333Y-107314762D01*
X177868571Y-107362381D01*
X178059048Y-107362381D01*
X178154286Y-107314762D01*
X178201905Y-107267143D01*
X178249524Y-107171905D01*
X178249524Y-106981429D01*
X178201905Y-106886190D01*
X178154286Y-106838571D01*
X178059048Y-106790952D01*
X108588095Y-71842381D02*
X108588095Y-72651905D01*
X108635714Y-72747143D01*
X108683333Y-72794762D01*
X108778571Y-72842381D01*
X108969048Y-72842381D01*
X109064286Y-72794762D01*
X109111905Y-72747143D01*
X109159524Y-72651905D01*
X109159524Y-71842381D01*
X110159524Y-72842381D02*
X109588095Y-72842381D01*
X109873809Y-72842381D02*
X109873809Y-71842381D01*
X109778571Y-71985238D01*
X109683333Y-72080476D01*
X109588095Y-72128095D01*
X123766667Y-123052381D02*
X123766667Y-123766667D01*
X123719047Y-123909524D01*
X123623809Y-124004762D01*
X123480952Y-124052381D01*
X123385714Y-124052381D01*
X124766667Y-124052381D02*
X124195238Y-124052381D01*
X124480952Y-124052381D02*
X124480952Y-123052381D01*
X124385714Y-123195238D01*
X124290476Y-123290476D01*
X124195238Y-123338095D01*
X123716667Y-54352381D02*
X123716667Y-55066667D01*
X123669047Y-55209524D01*
X123573809Y-55304762D01*
X123430952Y-55352381D01*
X123335714Y-55352381D01*
X124145238Y-54447619D02*
X124192857Y-54400000D01*
X124288095Y-54352381D01*
X124526191Y-54352381D01*
X124621429Y-54400000D01*
X124669048Y-54447619D01*
X124716667Y-54542857D01*
X124716667Y-54638095D01*
X124669048Y-54780952D01*
X124097619Y-55352381D01*
X124716667Y-55352381D01*
X153866667Y-123052381D02*
X153866667Y-123766667D01*
X153819047Y-123909524D01*
X153723809Y-124004762D01*
X153580952Y-124052381D01*
X153485714Y-124052381D01*
X154247619Y-123052381D02*
X154866667Y-123052381D01*
X154533333Y-123433333D01*
X154676191Y-123433333D01*
X154771429Y-123480952D01*
X154819048Y-123528571D01*
X154866667Y-123623810D01*
X154866667Y-123861905D01*
X154819048Y-123957143D01*
X154771429Y-124004762D01*
X154676191Y-124052381D01*
X154390476Y-124052381D01*
X154295238Y-124004762D01*
X154247619Y-123957143D01*
X153816667Y-54352381D02*
X153816667Y-55066667D01*
X153769047Y-55209524D01*
X153673809Y-55304762D01*
X153530952Y-55352381D01*
X153435714Y-55352381D01*
X154721429Y-54685714D02*
X154721429Y-55352381D01*
X154483333Y-54304762D02*
X154245238Y-55019048D01*
X154864286Y-55019048D01*
X183966667Y-123052381D02*
X183966667Y-123766667D01*
X183919047Y-123909524D01*
X183823809Y-124004762D01*
X183680952Y-124052381D01*
X183585714Y-124052381D01*
X184919048Y-123052381D02*
X184442857Y-123052381D01*
X184395238Y-123528571D01*
X184442857Y-123480952D01*
X184538095Y-123433333D01*
X184776191Y-123433333D01*
X184871429Y-123480952D01*
X184919048Y-123528571D01*
X184966667Y-123623810D01*
X184966667Y-123861905D01*
X184919048Y-123957143D01*
X184871429Y-124004762D01*
X184776191Y-124052381D01*
X184538095Y-124052381D01*
X184442857Y-124004762D01*
X184395238Y-123957143D01*
X183916667Y-54352381D02*
X183916667Y-55066667D01*
X183869047Y-55209524D01*
X183773809Y-55304762D01*
X183630952Y-55352381D01*
X183535714Y-55352381D01*
X184821429Y-54352381D02*
X184630952Y-54352381D01*
X184535714Y-54400000D01*
X184488095Y-54447619D01*
X184392857Y-54590476D01*
X184345238Y-54780952D01*
X184345238Y-55161905D01*
X184392857Y-55257143D01*
X184440476Y-55304762D01*
X184535714Y-55352381D01*
X184726191Y-55352381D01*
X184821429Y-55304762D01*
X184869048Y-55257143D01*
X184916667Y-55161905D01*
X184916667Y-54923810D01*
X184869048Y-54828571D01*
X184821429Y-54780952D01*
X184726191Y-54733333D01*
X184535714Y-54733333D01*
X184440476Y-54780952D01*
X184392857Y-54828571D01*
X184345238Y-54923810D01*
X169592667Y-64190571D02*
X169259333Y-64190571D01*
X169259333Y-64714381D02*
X169259333Y-63714381D01*
X169735524Y-63714381D01*
X170640286Y-64714381D02*
X170068857Y-64714381D01*
X170354571Y-64714381D02*
X170354571Y-63714381D01*
X170259333Y-63857238D01*
X170164095Y-63952476D01*
X170068857Y-64000095D01*
X169592667Y-77144571D02*
X169259333Y-77144571D01*
X169259333Y-77668381D02*
X169259333Y-76668381D01*
X169735524Y-76668381D01*
X170068857Y-76763619D02*
X170116476Y-76716000D01*
X170211714Y-76668381D01*
X170449810Y-76668381D01*
X170545048Y-76716000D01*
X170592667Y-76763619D01*
X170640286Y-76858857D01*
X170640286Y-76954095D01*
X170592667Y-77096952D01*
X170021238Y-77668381D01*
X170640286Y-77668381D01*
X118284667Y-60634571D02*
X117951333Y-60634571D01*
X117951333Y-61158381D02*
X117951333Y-60158381D01*
X118427524Y-60158381D01*
X118713238Y-60158381D02*
X119332286Y-60158381D01*
X118998952Y-60539333D01*
X119141810Y-60539333D01*
X119237048Y-60586952D01*
X119284667Y-60634571D01*
X119332286Y-60729810D01*
X119332286Y-60967905D01*
X119284667Y-61063143D01*
X119237048Y-61110762D01*
X119141810Y-61158381D01*
X118856095Y-61158381D01*
X118760857Y-61110762D01*
X118713238Y-61063143D01*
X132000667Y-56316571D02*
X131667333Y-56316571D01*
X131667333Y-56840381D02*
X131667333Y-55840381D01*
X132143524Y-55840381D01*
X132953048Y-56173714D02*
X132953048Y-56840381D01*
X132714952Y-55792762D02*
X132476857Y-56507048D01*
X133095905Y-56507048D01*
X157073334Y-65724381D02*
X156740000Y-65248190D01*
X156501905Y-65724381D02*
X156501905Y-64724381D01*
X156882858Y-64724381D01*
X156978096Y-64772000D01*
X157025715Y-64819619D01*
X157073334Y-64914857D01*
X157073334Y-65057714D01*
X157025715Y-65152952D01*
X156978096Y-65200571D01*
X156882858Y-65248190D01*
X156501905Y-65248190D01*
X157454286Y-64819619D02*
X157501905Y-64772000D01*
X157597143Y-64724381D01*
X157835239Y-64724381D01*
X157930477Y-64772000D01*
X157978096Y-64819619D01*
X158025715Y-64914857D01*
X158025715Y-65010095D01*
X157978096Y-65152952D01*
X157406667Y-65724381D01*
X158025715Y-65724381D01*
X154749524Y-65674381D02*
X154178095Y-65674381D01*
X154463809Y-65674381D02*
X154463809Y-64674381D01*
X154368571Y-64817238D01*
X154273333Y-64912476D01*
X154178095Y-64960095D01*
X155368571Y-64674381D02*
X155463810Y-64674381D01*
X155559048Y-64722000D01*
X155606667Y-64769619D01*
X155654286Y-64864857D01*
X155701905Y-65055333D01*
X155701905Y-65293429D01*
X155654286Y-65483905D01*
X155606667Y-65579143D01*
X155559048Y-65626762D01*
X155463810Y-65674381D01*
X155368571Y-65674381D01*
X155273333Y-65626762D01*
X155225714Y-65579143D01*
X155178095Y-65483905D01*
X155130476Y-65293429D01*
X155130476Y-65055333D01*
X155178095Y-64864857D01*
X155225714Y-64769619D01*
X155273333Y-64722000D01*
X155368571Y-64674381D01*
X154519334Y-76324381D02*
X154186000Y-75848190D01*
X153947905Y-76324381D02*
X153947905Y-75324381D01*
X154328858Y-75324381D01*
X154424096Y-75372000D01*
X154471715Y-75419619D01*
X154519334Y-75514857D01*
X154519334Y-75657714D01*
X154471715Y-75752952D01*
X154424096Y-75800571D01*
X154328858Y-75848190D01*
X153947905Y-75848190D01*
X154852667Y-75324381D02*
X155471715Y-75324381D01*
X155138381Y-75705333D01*
X155281239Y-75705333D01*
X155376477Y-75752952D01*
X155424096Y-75800571D01*
X155471715Y-75895810D01*
X155471715Y-76133905D01*
X155424096Y-76229143D01*
X155376477Y-76276762D01*
X155281239Y-76324381D01*
X154995524Y-76324381D01*
X154900286Y-76276762D01*
X154852667Y-76229143D01*
X157095524Y-76504381D02*
X156524095Y-76504381D01*
X156809809Y-76504381D02*
X156809809Y-75504381D01*
X156714571Y-75647238D01*
X156619333Y-75742476D01*
X156524095Y-75790095D01*
X157714571Y-75504381D02*
X157809810Y-75504381D01*
X157905048Y-75552000D01*
X157952667Y-75599619D01*
X158000286Y-75694857D01*
X158047905Y-75885333D01*
X158047905Y-76123429D01*
X158000286Y-76313905D01*
X157952667Y-76409143D01*
X157905048Y-76456762D01*
X157809810Y-76504381D01*
X157714571Y-76504381D01*
X157619333Y-76456762D01*
X157571714Y-76409143D01*
X157524095Y-76313905D01*
X157476476Y-76123429D01*
X157476476Y-75885333D01*
X157524095Y-75694857D01*
X157571714Y-75599619D01*
X157619333Y-75552000D01*
X157714571Y-75504381D01*
X162852381Y-59483523D02*
X163566667Y-59483523D01*
X163709524Y-59531143D01*
X163804762Y-59626381D01*
X163852381Y-59769238D01*
X163852381Y-59864476D01*
X163852381Y-58483523D02*
X163852381Y-59054952D01*
X163852381Y-58769238D02*
X162852381Y-58769238D01*
X162995238Y-58864476D01*
X163090476Y-58959714D01*
X163138095Y-59054952D01*
X163852381Y-57531142D02*
X163852381Y-58102571D01*
X163852381Y-57816857D02*
X162852381Y-57816857D01*
X162995238Y-57912095D01*
X163090476Y-58007333D01*
X163138095Y-58102571D01*
X168440381Y-59483523D02*
X169154667Y-59483523D01*
X169297524Y-59531143D01*
X169392762Y-59626381D01*
X169440381Y-59769238D01*
X169440381Y-59864476D01*
X169440381Y-58483523D02*
X169440381Y-59054952D01*
X169440381Y-58769238D02*
X168440381Y-58769238D01*
X168583238Y-58864476D01*
X168678476Y-58959714D01*
X168726095Y-59054952D01*
X168535619Y-58102571D02*
X168488000Y-58054952D01*
X168440381Y-57959714D01*
X168440381Y-57721618D01*
X168488000Y-57626380D01*
X168535619Y-57578761D01*
X168630857Y-57531142D01*
X168726095Y-57531142D01*
X168868952Y-57578761D01*
X169440381Y-58150190D01*
X169440381Y-57531142D01*
X173774381Y-59483523D02*
X174488667Y-59483523D01*
X174631524Y-59531143D01*
X174726762Y-59626381D01*
X174774381Y-59769238D01*
X174774381Y-59864476D01*
X174774381Y-58483523D02*
X174774381Y-59054952D01*
X174774381Y-58769238D02*
X173774381Y-58769238D01*
X173917238Y-58864476D01*
X174012476Y-58959714D01*
X174060095Y-59054952D01*
X173774381Y-58150190D02*
X173774381Y-57531142D01*
X174155333Y-57864476D01*
X174155333Y-57721618D01*
X174202952Y-57626380D01*
X174250571Y-57578761D01*
X174345810Y-57531142D01*
X174583905Y-57531142D01*
X174679143Y-57578761D01*
X174726762Y-57626380D01*
X174774381Y-57721618D01*
X174774381Y-58007333D01*
X174726762Y-58102571D01*
X174679143Y-58150190D01*
M02*
