G04 #@! TF.GenerationSoftware,KiCad,Pcbnew,5.0.1-33cea8e~68~ubuntu18.10.1*
G04 #@! TF.CreationDate,2018-11-19T21:07:17-05:00*
G04 #@! TF.ProjectId,Helios,48656C696F732E6B696361645F706362,rev?*
G04 #@! TF.SameCoordinates,Original*
G04 #@! TF.FileFunction,Soldermask,Top*
G04 #@! TF.FilePolarity,Negative*
%FSLAX46Y46*%
G04 Gerber Fmt 4.6, Leading zero omitted, Abs format (unit mm)*
G04 Created by KiCad (PCBNEW 5.0.1-33cea8e~68~ubuntu18.10.1) date Mon 19 Nov 2018 09:07:17 PM EST*
%MOMM*%
%LPD*%
G01*
G04 APERTURE LIST*
%ADD10C,0.100000*%
G04 APERTURE END LIST*
D10*
G36*
X119080603Y-130724968D02*
X119080606Y-130724969D01*
X119080605Y-130724969D01*
X119255678Y-130797486D01*
X119255679Y-130797487D01*
X119413241Y-130902767D01*
X119547233Y-131036759D01*
X119547234Y-131036761D01*
X119652514Y-131194322D01*
X119708603Y-131329734D01*
X119725032Y-131369397D01*
X119762000Y-131555250D01*
X119762000Y-131744750D01*
X119725032Y-131930603D01*
X119725031Y-131930605D01*
X119652514Y-132105678D01*
X119652513Y-132105679D01*
X119547233Y-132263241D01*
X119413241Y-132397233D01*
X119333923Y-132450232D01*
X119255678Y-132502514D01*
X119120266Y-132558603D01*
X119080603Y-132575032D01*
X118894750Y-132612000D01*
X118705250Y-132612000D01*
X118519397Y-132575032D01*
X118479734Y-132558603D01*
X118344322Y-132502514D01*
X118266077Y-132450232D01*
X118186759Y-132397233D01*
X118052767Y-132263241D01*
X117947487Y-132105679D01*
X117947486Y-132105678D01*
X117874969Y-131930605D01*
X117874968Y-131930603D01*
X117838000Y-131744750D01*
X117838000Y-131555250D01*
X117874968Y-131369397D01*
X117891397Y-131329734D01*
X117947486Y-131194322D01*
X118052766Y-131036761D01*
X118052767Y-131036759D01*
X118186759Y-130902767D01*
X118344321Y-130797487D01*
X118344322Y-130797486D01*
X118519395Y-130724969D01*
X118519394Y-130724969D01*
X118519397Y-130724968D01*
X118705250Y-130688000D01*
X118894750Y-130688000D01*
X119080603Y-130724968D01*
X119080603Y-130724968D01*
G37*
G36*
X149180603Y-130724968D02*
X149180606Y-130724969D01*
X149180605Y-130724969D01*
X149355678Y-130797486D01*
X149355679Y-130797487D01*
X149513241Y-130902767D01*
X149647233Y-131036759D01*
X149647234Y-131036761D01*
X149752514Y-131194322D01*
X149808603Y-131329734D01*
X149825032Y-131369397D01*
X149862000Y-131555250D01*
X149862000Y-131744750D01*
X149825032Y-131930603D01*
X149825031Y-131930605D01*
X149752514Y-132105678D01*
X149752513Y-132105679D01*
X149647233Y-132263241D01*
X149513241Y-132397233D01*
X149433923Y-132450232D01*
X149355678Y-132502514D01*
X149220266Y-132558603D01*
X149180603Y-132575032D01*
X148994750Y-132612000D01*
X148805250Y-132612000D01*
X148619397Y-132575032D01*
X148579734Y-132558603D01*
X148444322Y-132502514D01*
X148366077Y-132450232D01*
X148286759Y-132397233D01*
X148152767Y-132263241D01*
X148047487Y-132105679D01*
X148047486Y-132105678D01*
X147974969Y-131930605D01*
X147974968Y-131930603D01*
X147938000Y-131744750D01*
X147938000Y-131555250D01*
X147974968Y-131369397D01*
X147991397Y-131329734D01*
X148047486Y-131194322D01*
X148152766Y-131036761D01*
X148152767Y-131036759D01*
X148286759Y-130902767D01*
X148444321Y-130797487D01*
X148444322Y-130797486D01*
X148619395Y-130724969D01*
X148619394Y-130724969D01*
X148619397Y-130724968D01*
X148805250Y-130688000D01*
X148994750Y-130688000D01*
X149180603Y-130724968D01*
X149180603Y-130724968D01*
G37*
G36*
X179280603Y-130724968D02*
X179280606Y-130724969D01*
X179280605Y-130724969D01*
X179455678Y-130797486D01*
X179455679Y-130797487D01*
X179613241Y-130902767D01*
X179747233Y-131036759D01*
X179747234Y-131036761D01*
X179852514Y-131194322D01*
X179908603Y-131329734D01*
X179925032Y-131369397D01*
X179962000Y-131555250D01*
X179962000Y-131744750D01*
X179925032Y-131930603D01*
X179925031Y-131930605D01*
X179852514Y-132105678D01*
X179852513Y-132105679D01*
X179747233Y-132263241D01*
X179613241Y-132397233D01*
X179533923Y-132450232D01*
X179455678Y-132502514D01*
X179320266Y-132558603D01*
X179280603Y-132575032D01*
X179094750Y-132612000D01*
X178905250Y-132612000D01*
X178719397Y-132575032D01*
X178679734Y-132558603D01*
X178544322Y-132502514D01*
X178466077Y-132450232D01*
X178386759Y-132397233D01*
X178252767Y-132263241D01*
X178147487Y-132105679D01*
X178147486Y-132105678D01*
X178074969Y-131930605D01*
X178074968Y-131930603D01*
X178038000Y-131744750D01*
X178038000Y-131555250D01*
X178074968Y-131369397D01*
X178091397Y-131329734D01*
X178147486Y-131194322D01*
X178252766Y-131036761D01*
X178252767Y-131036759D01*
X178386759Y-130902767D01*
X178544321Y-130797487D01*
X178544322Y-130797486D01*
X178719395Y-130724969D01*
X178719394Y-130724969D01*
X178719397Y-130724968D01*
X178905250Y-130688000D01*
X179094750Y-130688000D01*
X179280603Y-130724968D01*
X179280603Y-130724968D01*
G37*
G36*
X179280603Y-125274968D02*
X179280606Y-125274969D01*
X179280605Y-125274969D01*
X179455678Y-125347486D01*
X179455679Y-125347487D01*
X179613241Y-125452767D01*
X179747233Y-125586759D01*
X179747234Y-125586761D01*
X179852514Y-125744322D01*
X179904320Y-125869395D01*
X179925032Y-125919397D01*
X179962000Y-126105250D01*
X179962000Y-126294750D01*
X179925032Y-126480603D01*
X179925031Y-126480605D01*
X179852514Y-126655678D01*
X179852513Y-126655679D01*
X179747233Y-126813241D01*
X179613241Y-126947233D01*
X179533923Y-127000232D01*
X179455678Y-127052514D01*
X179320266Y-127108603D01*
X179280603Y-127125032D01*
X179094750Y-127162000D01*
X178905250Y-127162000D01*
X178719397Y-127125032D01*
X178679734Y-127108603D01*
X178544322Y-127052514D01*
X178466077Y-127000232D01*
X178386759Y-126947233D01*
X178252767Y-126813241D01*
X178147487Y-126655679D01*
X178147486Y-126655678D01*
X178074969Y-126480605D01*
X178074968Y-126480603D01*
X178038000Y-126294750D01*
X178038000Y-126105250D01*
X178074968Y-125919397D01*
X178095680Y-125869395D01*
X178147486Y-125744322D01*
X178252766Y-125586761D01*
X178252767Y-125586759D01*
X178386759Y-125452767D01*
X178544321Y-125347487D01*
X178544322Y-125347486D01*
X178719395Y-125274969D01*
X178719394Y-125274969D01*
X178719397Y-125274968D01*
X178905250Y-125238000D01*
X179094750Y-125238000D01*
X179280603Y-125274968D01*
X179280603Y-125274968D01*
G37*
G36*
X119080603Y-125274968D02*
X119080606Y-125274969D01*
X119080605Y-125274969D01*
X119255678Y-125347486D01*
X119255679Y-125347487D01*
X119413241Y-125452767D01*
X119547233Y-125586759D01*
X119547234Y-125586761D01*
X119652514Y-125744322D01*
X119704320Y-125869395D01*
X119725032Y-125919397D01*
X119762000Y-126105250D01*
X119762000Y-126294750D01*
X119725032Y-126480603D01*
X119725031Y-126480605D01*
X119652514Y-126655678D01*
X119652513Y-126655679D01*
X119547233Y-126813241D01*
X119413241Y-126947233D01*
X119333923Y-127000232D01*
X119255678Y-127052514D01*
X119120266Y-127108603D01*
X119080603Y-127125032D01*
X118894750Y-127162000D01*
X118705250Y-127162000D01*
X118519397Y-127125032D01*
X118479734Y-127108603D01*
X118344322Y-127052514D01*
X118266077Y-127000232D01*
X118186759Y-126947233D01*
X118052767Y-126813241D01*
X117947487Y-126655679D01*
X117947486Y-126655678D01*
X117874969Y-126480605D01*
X117874968Y-126480603D01*
X117838000Y-126294750D01*
X117838000Y-126105250D01*
X117874968Y-125919397D01*
X117895680Y-125869395D01*
X117947486Y-125744322D01*
X118052766Y-125586761D01*
X118052767Y-125586759D01*
X118186759Y-125452767D01*
X118344321Y-125347487D01*
X118344322Y-125347486D01*
X118519395Y-125274969D01*
X118519394Y-125274969D01*
X118519397Y-125274968D01*
X118705250Y-125238000D01*
X118894750Y-125238000D01*
X119080603Y-125274968D01*
X119080603Y-125274968D01*
G37*
G36*
X149180603Y-125274968D02*
X149180606Y-125274969D01*
X149180605Y-125274969D01*
X149355678Y-125347486D01*
X149355679Y-125347487D01*
X149513241Y-125452767D01*
X149647233Y-125586759D01*
X149647234Y-125586761D01*
X149752514Y-125744322D01*
X149804320Y-125869395D01*
X149825032Y-125919397D01*
X149862000Y-126105250D01*
X149862000Y-126294750D01*
X149825032Y-126480603D01*
X149825031Y-126480605D01*
X149752514Y-126655678D01*
X149752513Y-126655679D01*
X149647233Y-126813241D01*
X149513241Y-126947233D01*
X149433923Y-127000232D01*
X149355678Y-127052514D01*
X149220266Y-127108603D01*
X149180603Y-127125032D01*
X148994750Y-127162000D01*
X148805250Y-127162000D01*
X148619397Y-127125032D01*
X148579734Y-127108603D01*
X148444322Y-127052514D01*
X148366077Y-127000232D01*
X148286759Y-126947233D01*
X148152767Y-126813241D01*
X148047487Y-126655679D01*
X148047486Y-126655678D01*
X147974969Y-126480605D01*
X147974968Y-126480603D01*
X147938000Y-126294750D01*
X147938000Y-126105250D01*
X147974968Y-125919397D01*
X147995680Y-125869395D01*
X148047486Y-125744322D01*
X148152766Y-125586761D01*
X148152767Y-125586759D01*
X148286759Y-125452767D01*
X148444321Y-125347487D01*
X148444322Y-125347486D01*
X148619395Y-125274969D01*
X148619394Y-125274969D01*
X148619397Y-125274968D01*
X148805250Y-125238000D01*
X148994750Y-125238000D01*
X149180603Y-125274968D01*
X149180603Y-125274968D01*
G37*
G36*
X184480603Y-125224968D02*
X184480606Y-125224969D01*
X184480605Y-125224969D01*
X184655678Y-125297486D01*
X184730509Y-125347487D01*
X184813241Y-125402767D01*
X184947233Y-125536759D01*
X184947234Y-125536761D01*
X185052514Y-125694322D01*
X185108603Y-125829734D01*
X185125032Y-125869397D01*
X185162000Y-126055250D01*
X185162000Y-126244750D01*
X185125032Y-126430603D01*
X185125031Y-126430605D01*
X185052514Y-126605678D01*
X185052513Y-126605679D01*
X184947233Y-126763241D01*
X184813241Y-126897233D01*
X184733923Y-126950232D01*
X184655678Y-127002514D01*
X184534969Y-127052513D01*
X184480603Y-127075032D01*
X184294750Y-127112000D01*
X184105250Y-127112000D01*
X183919397Y-127075032D01*
X183865031Y-127052513D01*
X183744322Y-127002514D01*
X183666077Y-126950232D01*
X183586759Y-126897233D01*
X183452767Y-126763241D01*
X183347487Y-126605679D01*
X183347486Y-126605678D01*
X183274969Y-126430605D01*
X183274968Y-126430603D01*
X183238000Y-126244750D01*
X183238000Y-126055250D01*
X183274968Y-125869397D01*
X183291397Y-125829734D01*
X183347486Y-125694322D01*
X183452766Y-125536761D01*
X183452767Y-125536759D01*
X183586759Y-125402767D01*
X183669491Y-125347487D01*
X183744322Y-125297486D01*
X183919395Y-125224969D01*
X183919394Y-125224969D01*
X183919397Y-125224968D01*
X184105250Y-125188000D01*
X184294750Y-125188000D01*
X184480603Y-125224968D01*
X184480603Y-125224968D01*
G37*
G36*
X124280603Y-125224968D02*
X124280606Y-125224969D01*
X124280605Y-125224969D01*
X124455678Y-125297486D01*
X124530509Y-125347487D01*
X124613241Y-125402767D01*
X124747233Y-125536759D01*
X124747234Y-125536761D01*
X124852514Y-125694322D01*
X124908603Y-125829734D01*
X124925032Y-125869397D01*
X124962000Y-126055250D01*
X124962000Y-126244750D01*
X124925032Y-126430603D01*
X124925031Y-126430605D01*
X124852514Y-126605678D01*
X124852513Y-126605679D01*
X124747233Y-126763241D01*
X124613241Y-126897233D01*
X124533923Y-126950232D01*
X124455678Y-127002514D01*
X124334969Y-127052513D01*
X124280603Y-127075032D01*
X124094750Y-127112000D01*
X123905250Y-127112000D01*
X123719397Y-127075032D01*
X123665031Y-127052513D01*
X123544322Y-127002514D01*
X123466077Y-126950232D01*
X123386759Y-126897233D01*
X123252767Y-126763241D01*
X123147487Y-126605679D01*
X123147486Y-126605678D01*
X123074969Y-126430605D01*
X123074968Y-126430603D01*
X123038000Y-126244750D01*
X123038000Y-126055250D01*
X123074968Y-125869397D01*
X123091397Y-125829734D01*
X123147486Y-125694322D01*
X123252766Y-125536761D01*
X123252767Y-125536759D01*
X123386759Y-125402767D01*
X123469491Y-125347487D01*
X123544322Y-125297486D01*
X123719395Y-125224969D01*
X123719394Y-125224969D01*
X123719397Y-125224968D01*
X123905250Y-125188000D01*
X124094750Y-125188000D01*
X124280603Y-125224968D01*
X124280603Y-125224968D01*
G37*
G36*
X154380603Y-125224968D02*
X154380606Y-125224969D01*
X154380605Y-125224969D01*
X154555678Y-125297486D01*
X154630509Y-125347487D01*
X154713241Y-125402767D01*
X154847233Y-125536759D01*
X154847234Y-125536761D01*
X154952514Y-125694322D01*
X155008603Y-125829734D01*
X155025032Y-125869397D01*
X155062000Y-126055250D01*
X155062000Y-126244750D01*
X155025032Y-126430603D01*
X155025031Y-126430605D01*
X154952514Y-126605678D01*
X154952513Y-126605679D01*
X154847233Y-126763241D01*
X154713241Y-126897233D01*
X154633923Y-126950232D01*
X154555678Y-127002514D01*
X154434969Y-127052513D01*
X154380603Y-127075032D01*
X154194750Y-127112000D01*
X154005250Y-127112000D01*
X153819397Y-127075032D01*
X153765031Y-127052513D01*
X153644322Y-127002514D01*
X153566077Y-126950232D01*
X153486759Y-126897233D01*
X153352767Y-126763241D01*
X153247487Y-126605679D01*
X153247486Y-126605678D01*
X153174969Y-126430605D01*
X153174968Y-126430603D01*
X153138000Y-126244750D01*
X153138000Y-126055250D01*
X153174968Y-125869397D01*
X153191397Y-125829734D01*
X153247486Y-125694322D01*
X153352766Y-125536761D01*
X153352767Y-125536759D01*
X153486759Y-125402767D01*
X153569491Y-125347487D01*
X153644322Y-125297486D01*
X153819395Y-125224969D01*
X153819394Y-125224969D01*
X153819397Y-125224968D01*
X154005250Y-125188000D01*
X154194750Y-125188000D01*
X154380603Y-125224968D01*
X154380603Y-125224968D01*
G37*
G36*
X127030603Y-120824968D02*
X127030606Y-120824969D01*
X127030605Y-120824969D01*
X127205678Y-120897486D01*
X127205679Y-120897487D01*
X127363241Y-121002767D01*
X127497233Y-121136759D01*
X127497234Y-121136761D01*
X127602514Y-121294322D01*
X127658603Y-121429734D01*
X127675032Y-121469397D01*
X127712000Y-121655250D01*
X127712000Y-121844750D01*
X127675032Y-122030603D01*
X127675031Y-122030605D01*
X127602514Y-122205678D01*
X127602513Y-122205679D01*
X127497233Y-122363241D01*
X127363241Y-122497233D01*
X127283923Y-122550232D01*
X127205678Y-122602514D01*
X127070266Y-122658603D01*
X127030603Y-122675032D01*
X126844750Y-122712000D01*
X126655250Y-122712000D01*
X126469397Y-122675032D01*
X126429734Y-122658603D01*
X126294322Y-122602514D01*
X126216077Y-122550232D01*
X126136759Y-122497233D01*
X126002767Y-122363241D01*
X125897487Y-122205679D01*
X125897486Y-122205678D01*
X125824969Y-122030605D01*
X125824968Y-122030603D01*
X125788000Y-121844750D01*
X125788000Y-121655250D01*
X125824968Y-121469397D01*
X125841397Y-121429734D01*
X125897486Y-121294322D01*
X126002766Y-121136761D01*
X126002767Y-121136759D01*
X126136759Y-121002767D01*
X126294321Y-120897487D01*
X126294322Y-120897486D01*
X126469395Y-120824969D01*
X126469394Y-120824969D01*
X126469397Y-120824968D01*
X126655250Y-120788000D01*
X126844750Y-120788000D01*
X127030603Y-120824968D01*
X127030603Y-120824968D01*
G37*
G36*
X187230603Y-120824968D02*
X187230606Y-120824969D01*
X187230605Y-120824969D01*
X187405678Y-120897486D01*
X187405679Y-120897487D01*
X187563241Y-121002767D01*
X187697233Y-121136759D01*
X187697234Y-121136761D01*
X187802514Y-121294322D01*
X187858603Y-121429734D01*
X187875032Y-121469397D01*
X187912000Y-121655250D01*
X187912000Y-121844750D01*
X187875032Y-122030603D01*
X187875031Y-122030605D01*
X187802514Y-122205678D01*
X187802513Y-122205679D01*
X187697233Y-122363241D01*
X187563241Y-122497233D01*
X187483923Y-122550232D01*
X187405678Y-122602514D01*
X187270266Y-122658603D01*
X187230603Y-122675032D01*
X187044750Y-122712000D01*
X186855250Y-122712000D01*
X186669397Y-122675032D01*
X186629734Y-122658603D01*
X186494322Y-122602514D01*
X186416077Y-122550232D01*
X186336759Y-122497233D01*
X186202767Y-122363241D01*
X186097487Y-122205679D01*
X186097486Y-122205678D01*
X186024969Y-122030605D01*
X186024968Y-122030603D01*
X185988000Y-121844750D01*
X185988000Y-121655250D01*
X186024968Y-121469397D01*
X186041397Y-121429734D01*
X186097486Y-121294322D01*
X186202766Y-121136761D01*
X186202767Y-121136759D01*
X186336759Y-121002767D01*
X186494321Y-120897487D01*
X186494322Y-120897486D01*
X186669395Y-120824969D01*
X186669394Y-120824969D01*
X186669397Y-120824968D01*
X186855250Y-120788000D01*
X187044750Y-120788000D01*
X187230603Y-120824968D01*
X187230603Y-120824968D01*
G37*
G36*
X157130603Y-120824968D02*
X157130606Y-120824969D01*
X157130605Y-120824969D01*
X157305678Y-120897486D01*
X157305679Y-120897487D01*
X157463241Y-121002767D01*
X157597233Y-121136759D01*
X157597234Y-121136761D01*
X157702514Y-121294322D01*
X157758603Y-121429734D01*
X157775032Y-121469397D01*
X157812000Y-121655250D01*
X157812000Y-121844750D01*
X157775032Y-122030603D01*
X157775031Y-122030605D01*
X157702514Y-122205678D01*
X157702513Y-122205679D01*
X157597233Y-122363241D01*
X157463241Y-122497233D01*
X157383923Y-122550232D01*
X157305678Y-122602514D01*
X157170266Y-122658603D01*
X157130603Y-122675032D01*
X156944750Y-122712000D01*
X156755250Y-122712000D01*
X156569397Y-122675032D01*
X156529734Y-122658603D01*
X156394322Y-122602514D01*
X156316077Y-122550232D01*
X156236759Y-122497233D01*
X156102767Y-122363241D01*
X155997487Y-122205679D01*
X155997486Y-122205678D01*
X155924969Y-122030605D01*
X155924968Y-122030603D01*
X155888000Y-121844750D01*
X155888000Y-121655250D01*
X155924968Y-121469397D01*
X155941397Y-121429734D01*
X155997486Y-121294322D01*
X156102766Y-121136761D01*
X156102767Y-121136759D01*
X156236759Y-121002767D01*
X156394321Y-120897487D01*
X156394322Y-120897486D01*
X156569395Y-120824969D01*
X156569394Y-120824969D01*
X156569397Y-120824968D01*
X156755250Y-120788000D01*
X156944750Y-120788000D01*
X157130603Y-120824968D01*
X157130603Y-120824968D01*
G37*
G36*
X145190000Y-119910000D02*
X142790000Y-119910000D01*
X142790000Y-117910000D01*
X145190000Y-117910000D01*
X145190000Y-119910000D01*
X145190000Y-119910000D01*
G37*
G36*
X141190000Y-119910000D02*
X138790000Y-119910000D01*
X138790000Y-117910000D01*
X141190000Y-117910000D01*
X141190000Y-119910000D01*
X141190000Y-119910000D01*
G37*
G36*
X180640000Y-119770000D02*
X178240000Y-119770000D01*
X178240000Y-117770000D01*
X180640000Y-117770000D01*
X180640000Y-119770000D01*
X180640000Y-119770000D01*
G37*
G36*
X176640000Y-119770000D02*
X174240000Y-119770000D01*
X174240000Y-117770000D01*
X176640000Y-117770000D01*
X176640000Y-119770000D01*
X176640000Y-119770000D01*
G37*
G36*
X160900000Y-119680000D02*
X158500000Y-119680000D01*
X158500000Y-117680000D01*
X160900000Y-117680000D01*
X160900000Y-119680000D01*
X160900000Y-119680000D01*
G37*
G36*
X164900000Y-119680000D02*
X162500000Y-119680000D01*
X162500000Y-117680000D01*
X164900000Y-117680000D01*
X164900000Y-119680000D01*
X164900000Y-119680000D01*
G37*
G36*
X120570000Y-119470000D02*
X118170000Y-119470000D01*
X118170000Y-117470000D01*
X120570000Y-117470000D01*
X120570000Y-119470000D01*
X120570000Y-119470000D01*
G37*
G36*
X124570000Y-119470000D02*
X122170000Y-119470000D01*
X122170000Y-117470000D01*
X124570000Y-117470000D01*
X124570000Y-119470000D01*
X124570000Y-119470000D01*
G37*
G36*
X106970000Y-118350000D02*
X104570000Y-118350000D01*
X104570000Y-116350000D01*
X106970000Y-116350000D01*
X106970000Y-118350000D01*
X106970000Y-118350000D01*
G37*
G36*
X102970000Y-118350000D02*
X100570000Y-118350000D01*
X100570000Y-116350000D01*
X102970000Y-116350000D01*
X102970000Y-118350000D01*
X102970000Y-118350000D01*
G37*
G36*
X147005000Y-116170000D02*
X144855000Y-116170000D01*
X144855000Y-109470000D01*
X147005000Y-109470000D01*
X147005000Y-116170000D01*
X147005000Y-116170000D01*
G37*
G36*
X139805000Y-116170000D02*
X137655000Y-116170000D01*
X137655000Y-109470000D01*
X139805000Y-109470000D01*
X139805000Y-116170000D01*
X139805000Y-116170000D01*
G37*
G36*
X135110000Y-115970000D02*
X133010000Y-115970000D01*
X133010000Y-113570000D01*
X135110000Y-113570000D01*
X135110000Y-115970000D01*
X135110000Y-115970000D01*
G37*
G36*
X165195000Y-115100000D02*
X163045000Y-115100000D01*
X163045000Y-108400000D01*
X165195000Y-108400000D01*
X165195000Y-115100000D01*
X165195000Y-115100000D01*
G37*
G36*
X157995000Y-115100000D02*
X155845000Y-115100000D01*
X155845000Y-108400000D01*
X157995000Y-108400000D01*
X157995000Y-115100000D01*
X157995000Y-115100000D01*
G37*
G36*
X154210000Y-115100000D02*
X152110000Y-115100000D01*
X152110000Y-112700000D01*
X154210000Y-112700000D01*
X154210000Y-115100000D01*
X154210000Y-115100000D01*
G37*
G36*
X174915000Y-115010000D02*
X172765000Y-115010000D01*
X172765000Y-108310000D01*
X174915000Y-108310000D01*
X174915000Y-115010000D01*
X174915000Y-115010000D01*
G37*
G36*
X182115000Y-115010000D02*
X179965000Y-115010000D01*
X179965000Y-108310000D01*
X182115000Y-108310000D01*
X182115000Y-115010000D01*
X182115000Y-115010000D01*
G37*
G36*
X126885000Y-114940000D02*
X124735000Y-114940000D01*
X124735000Y-108240000D01*
X126885000Y-108240000D01*
X126885000Y-114940000D01*
X126885000Y-114940000D01*
G37*
G36*
X119685000Y-114940000D02*
X117535000Y-114940000D01*
X117535000Y-108240000D01*
X119685000Y-108240000D01*
X119685000Y-114940000D01*
X119685000Y-114940000D01*
G37*
G36*
X170790000Y-114870000D02*
X168690000Y-114870000D01*
X168690000Y-112470000D01*
X170790000Y-112470000D01*
X170790000Y-114870000D01*
X170790000Y-114870000D01*
G37*
G36*
X115660000Y-114850000D02*
X113560000Y-114850000D01*
X113560000Y-112450000D01*
X115660000Y-112450000D01*
X115660000Y-114850000D01*
X115660000Y-114850000D01*
G37*
G36*
X108615000Y-113710000D02*
X106465000Y-113710000D01*
X106465000Y-107010000D01*
X108615000Y-107010000D01*
X108615000Y-113710000D01*
X108615000Y-113710000D01*
G37*
G36*
X101415000Y-113710000D02*
X99265000Y-113710000D01*
X99265000Y-107010000D01*
X101415000Y-107010000D01*
X101415000Y-113710000D01*
X101415000Y-113710000D01*
G37*
G36*
X97550000Y-113560000D02*
X95450000Y-113560000D01*
X95450000Y-111160000D01*
X97550000Y-111160000D01*
X97550000Y-113560000D01*
X97550000Y-113560000D01*
G37*
G36*
X135110000Y-111970000D02*
X133010000Y-111970000D01*
X133010000Y-109570000D01*
X135110000Y-109570000D01*
X135110000Y-111970000D01*
X135110000Y-111970000D01*
G37*
G36*
X154210000Y-111100000D02*
X152110000Y-111100000D01*
X152110000Y-108700000D01*
X154210000Y-108700000D01*
X154210000Y-111100000D01*
X154210000Y-111100000D01*
G37*
G36*
X170790000Y-110870000D02*
X168690000Y-110870000D01*
X168690000Y-108470000D01*
X170790000Y-108470000D01*
X170790000Y-110870000D01*
X170790000Y-110870000D01*
G37*
G36*
X115660000Y-110850000D02*
X113560000Y-110850000D01*
X113560000Y-108450000D01*
X115660000Y-108450000D01*
X115660000Y-110850000D01*
X115660000Y-110850000D01*
G37*
G36*
X97550000Y-109560000D02*
X95450000Y-109560000D01*
X95450000Y-107160000D01*
X97550000Y-107160000D01*
X97550000Y-109560000D01*
X97550000Y-109560000D01*
G37*
G36*
X139710000Y-106950000D02*
X137310000Y-106950000D01*
X137310000Y-104950000D01*
X139710000Y-104950000D01*
X139710000Y-106950000D01*
X139710000Y-106950000D01*
G37*
G36*
X135710000Y-106950000D02*
X133310000Y-106950000D01*
X133310000Y-104950000D01*
X135710000Y-104950000D01*
X135710000Y-106950000D01*
X135710000Y-106950000D01*
G37*
G36*
X143760000Y-106780000D02*
X141360000Y-106780000D01*
X141360000Y-104780000D01*
X143760000Y-104780000D01*
X143760000Y-106780000D01*
X143760000Y-106780000D01*
G37*
G36*
X147760000Y-106780000D02*
X145360000Y-106780000D01*
X145360000Y-104780000D01*
X147760000Y-104780000D01*
X147760000Y-106780000D01*
X147760000Y-106780000D01*
G37*
G36*
X125040000Y-106780000D02*
X122640000Y-106780000D01*
X122640000Y-104780000D01*
X125040000Y-104780000D01*
X125040000Y-106780000D01*
X125040000Y-106780000D01*
G37*
G36*
X129040000Y-106780000D02*
X126640000Y-106780000D01*
X126640000Y-104780000D01*
X129040000Y-104780000D01*
X129040000Y-106780000D01*
X129040000Y-106780000D01*
G37*
G36*
X117220000Y-106560000D02*
X114820000Y-106560000D01*
X114820000Y-104560000D01*
X117220000Y-104560000D01*
X117220000Y-106560000D01*
X117220000Y-106560000D01*
G37*
G36*
X121220000Y-106560000D02*
X118820000Y-106560000D01*
X118820000Y-104560000D01*
X121220000Y-104560000D01*
X121220000Y-106560000D01*
X121220000Y-106560000D01*
G37*
G36*
X166420000Y-106120000D02*
X164020000Y-106120000D01*
X164020000Y-104120000D01*
X166420000Y-104120000D01*
X166420000Y-106120000D01*
X166420000Y-106120000D01*
G37*
G36*
X162420000Y-106120000D02*
X160020000Y-106120000D01*
X160020000Y-104120000D01*
X162420000Y-104120000D01*
X162420000Y-106120000D01*
X162420000Y-106120000D01*
G37*
G36*
X153920000Y-106040000D02*
X151520000Y-106040000D01*
X151520000Y-104040000D01*
X153920000Y-104040000D01*
X153920000Y-106040000D01*
X153920000Y-106040000D01*
G37*
G36*
X157920000Y-106040000D02*
X155520000Y-106040000D01*
X155520000Y-104040000D01*
X157920000Y-104040000D01*
X157920000Y-106040000D01*
X157920000Y-106040000D01*
G37*
G36*
X175750000Y-105890000D02*
X173350000Y-105890000D01*
X173350000Y-103890000D01*
X175750000Y-103890000D01*
X175750000Y-105890000D01*
X175750000Y-105890000D01*
G37*
G36*
X180140000Y-105890000D02*
X177740000Y-105890000D01*
X177740000Y-103890000D01*
X180140000Y-103890000D01*
X180140000Y-105890000D01*
X180140000Y-105890000D01*
G37*
G36*
X171750000Y-105890000D02*
X169350000Y-105890000D01*
X169350000Y-103890000D01*
X171750000Y-103890000D01*
X171750000Y-105890000D01*
X171750000Y-105890000D01*
G37*
G36*
X184140000Y-105890000D02*
X181740000Y-105890000D01*
X181740000Y-103890000D01*
X184140000Y-103890000D01*
X184140000Y-105890000D01*
X184140000Y-105890000D01*
G37*
G36*
X105960000Y-104630000D02*
X103560000Y-104630000D01*
X103560000Y-102630000D01*
X105960000Y-102630000D01*
X105960000Y-104630000D01*
X105960000Y-104630000D01*
G37*
G36*
X109960000Y-104630000D02*
X107560000Y-104630000D01*
X107560000Y-102630000D01*
X109960000Y-102630000D01*
X109960000Y-104630000D01*
X109960000Y-104630000D01*
G37*
G36*
X97920000Y-104520000D02*
X95520000Y-104520000D01*
X95520000Y-102520000D01*
X97920000Y-102520000D01*
X97920000Y-104520000D01*
X97920000Y-104520000D01*
G37*
G36*
X101920000Y-104520000D02*
X99520000Y-104520000D01*
X99520000Y-102520000D01*
X101920000Y-102520000D01*
X101920000Y-104520000D01*
X101920000Y-104520000D01*
G37*
G36*
X129756000Y-102600000D02*
X127356000Y-102600000D01*
X127356000Y-100600000D01*
X129756000Y-100600000D01*
X129756000Y-102600000D01*
X129756000Y-102600000D01*
G37*
G36*
X142202000Y-102600000D02*
X139802000Y-102600000D01*
X139802000Y-100600000D01*
X142202000Y-100600000D01*
X142202000Y-102600000D01*
X142202000Y-102600000D01*
G37*
G36*
X133756000Y-102600000D02*
X131356000Y-102600000D01*
X131356000Y-100600000D01*
X133756000Y-100600000D01*
X133756000Y-102600000D01*
X133756000Y-102600000D01*
G37*
G36*
X146202000Y-102600000D02*
X143802000Y-102600000D01*
X143802000Y-100600000D01*
X146202000Y-100600000D01*
X146202000Y-102600000D01*
X146202000Y-102600000D01*
G37*
G36*
X114428707Y-97257596D02*
X114505836Y-97265193D01*
X114637787Y-97305220D01*
X114703763Y-97325233D01*
X114886172Y-97422733D01*
X115046054Y-97553946D01*
X115177267Y-97713828D01*
X115274767Y-97896237D01*
X115274767Y-97896238D01*
X115334807Y-98094164D01*
X115355080Y-98300000D01*
X115334807Y-98505836D01*
X115304406Y-98606054D01*
X115274767Y-98703763D01*
X115177267Y-98886172D01*
X115046054Y-99046054D01*
X114886172Y-99177267D01*
X114703763Y-99274767D01*
X114637787Y-99294780D01*
X114505836Y-99334807D01*
X114428707Y-99342403D01*
X114351580Y-99350000D01*
X114248420Y-99350000D01*
X114171293Y-99342403D01*
X114094164Y-99334807D01*
X113962213Y-99294780D01*
X113896237Y-99274767D01*
X113713828Y-99177267D01*
X113553946Y-99046054D01*
X113422733Y-98886172D01*
X113325233Y-98703763D01*
X113295594Y-98606054D01*
X113265193Y-98505836D01*
X113244920Y-98300000D01*
X113265193Y-98094164D01*
X113325233Y-97896238D01*
X113325233Y-97896237D01*
X113422733Y-97713828D01*
X113553946Y-97553946D01*
X113713828Y-97422733D01*
X113896237Y-97325233D01*
X113962213Y-97305220D01*
X114094164Y-97265193D01*
X114171293Y-97257597D01*
X114248420Y-97250000D01*
X114351580Y-97250000D01*
X114428707Y-97257596D01*
X114428707Y-97257596D01*
G37*
G36*
X109348707Y-97257596D02*
X109425836Y-97265193D01*
X109557787Y-97305220D01*
X109623763Y-97325233D01*
X109806172Y-97422733D01*
X109966054Y-97553946D01*
X110097267Y-97713828D01*
X110194767Y-97896237D01*
X110194767Y-97896238D01*
X110254807Y-98094164D01*
X110275080Y-98300000D01*
X110254807Y-98505836D01*
X110224406Y-98606054D01*
X110194767Y-98703763D01*
X110097267Y-98886172D01*
X109966054Y-99046054D01*
X109806172Y-99177267D01*
X109623763Y-99274767D01*
X109557787Y-99294780D01*
X109425836Y-99334807D01*
X109348707Y-99342403D01*
X109271580Y-99350000D01*
X109168420Y-99350000D01*
X109091293Y-99342403D01*
X109014164Y-99334807D01*
X108882213Y-99294780D01*
X108816237Y-99274767D01*
X108633828Y-99177267D01*
X108473946Y-99046054D01*
X108342733Y-98886172D01*
X108245233Y-98703763D01*
X108215594Y-98606054D01*
X108185193Y-98505836D01*
X108164920Y-98300000D01*
X108185193Y-98094164D01*
X108245233Y-97896238D01*
X108245233Y-97896237D01*
X108342733Y-97713828D01*
X108473946Y-97553946D01*
X108633828Y-97422733D01*
X108816237Y-97325233D01*
X108882213Y-97305220D01*
X109014164Y-97265193D01*
X109091293Y-97257597D01*
X109168420Y-97250000D01*
X109271580Y-97250000D01*
X109348707Y-97257596D01*
X109348707Y-97257596D01*
G37*
G36*
X116968707Y-97257596D02*
X117045836Y-97265193D01*
X117177787Y-97305220D01*
X117243763Y-97325233D01*
X117426172Y-97422733D01*
X117586054Y-97553946D01*
X117717267Y-97713828D01*
X117814767Y-97896237D01*
X117814767Y-97896238D01*
X117874807Y-98094164D01*
X117895080Y-98300000D01*
X117874807Y-98505836D01*
X117844406Y-98606054D01*
X117814767Y-98703763D01*
X117717267Y-98886172D01*
X117586054Y-99046054D01*
X117426172Y-99177267D01*
X117243763Y-99274767D01*
X117177787Y-99294780D01*
X117045836Y-99334807D01*
X116968707Y-99342403D01*
X116891580Y-99350000D01*
X116788420Y-99350000D01*
X116711293Y-99342403D01*
X116634164Y-99334807D01*
X116502213Y-99294780D01*
X116436237Y-99274767D01*
X116253828Y-99177267D01*
X116093946Y-99046054D01*
X115962733Y-98886172D01*
X115865233Y-98703763D01*
X115835594Y-98606054D01*
X115805193Y-98505836D01*
X115784920Y-98300000D01*
X115805193Y-98094164D01*
X115865233Y-97896238D01*
X115865233Y-97896237D01*
X115962733Y-97713828D01*
X116093946Y-97553946D01*
X116253828Y-97422733D01*
X116436237Y-97325233D01*
X116502213Y-97305220D01*
X116634164Y-97265193D01*
X116711293Y-97257597D01*
X116788420Y-97250000D01*
X116891580Y-97250000D01*
X116968707Y-97257596D01*
X116968707Y-97257596D01*
G37*
G36*
X106808707Y-97257596D02*
X106885836Y-97265193D01*
X107017787Y-97305220D01*
X107083763Y-97325233D01*
X107266172Y-97422733D01*
X107426054Y-97553946D01*
X107557267Y-97713828D01*
X107654767Y-97896237D01*
X107654767Y-97896238D01*
X107714807Y-98094164D01*
X107735080Y-98300000D01*
X107714807Y-98505836D01*
X107684406Y-98606054D01*
X107654767Y-98703763D01*
X107557267Y-98886172D01*
X107426054Y-99046054D01*
X107266172Y-99177267D01*
X107083763Y-99274767D01*
X107017787Y-99294780D01*
X106885836Y-99334807D01*
X106808707Y-99342403D01*
X106731580Y-99350000D01*
X106628420Y-99350000D01*
X106551293Y-99342403D01*
X106474164Y-99334807D01*
X106342213Y-99294780D01*
X106276237Y-99274767D01*
X106093828Y-99177267D01*
X105933946Y-99046054D01*
X105802733Y-98886172D01*
X105705233Y-98703763D01*
X105675594Y-98606054D01*
X105645193Y-98505836D01*
X105624920Y-98300000D01*
X105645193Y-98094164D01*
X105705233Y-97896238D01*
X105705233Y-97896237D01*
X105802733Y-97713828D01*
X105933946Y-97553946D01*
X106093828Y-97422733D01*
X106276237Y-97325233D01*
X106342213Y-97305220D01*
X106474164Y-97265193D01*
X106551293Y-97257597D01*
X106628420Y-97250000D01*
X106731580Y-97250000D01*
X106808707Y-97257596D01*
X106808707Y-97257596D01*
G37*
G36*
X101728707Y-97257596D02*
X101805836Y-97265193D01*
X101937787Y-97305220D01*
X102003763Y-97325233D01*
X102186172Y-97422733D01*
X102346054Y-97553946D01*
X102477267Y-97713828D01*
X102574767Y-97896237D01*
X102574767Y-97896238D01*
X102634807Y-98094164D01*
X102655080Y-98300000D01*
X102634807Y-98505836D01*
X102604406Y-98606054D01*
X102574767Y-98703763D01*
X102477267Y-98886172D01*
X102346054Y-99046054D01*
X102186172Y-99177267D01*
X102003763Y-99274767D01*
X101937787Y-99294780D01*
X101805836Y-99334807D01*
X101728707Y-99342403D01*
X101651580Y-99350000D01*
X101548420Y-99350000D01*
X101471293Y-99342403D01*
X101394164Y-99334807D01*
X101262213Y-99294780D01*
X101196237Y-99274767D01*
X101013828Y-99177267D01*
X100853946Y-99046054D01*
X100722733Y-98886172D01*
X100625233Y-98703763D01*
X100595594Y-98606054D01*
X100565193Y-98505836D01*
X100544920Y-98300000D01*
X100565193Y-98094164D01*
X100625233Y-97896238D01*
X100625233Y-97896237D01*
X100722733Y-97713828D01*
X100853946Y-97553946D01*
X101013828Y-97422733D01*
X101196237Y-97325233D01*
X101262213Y-97305220D01*
X101394164Y-97265193D01*
X101471293Y-97257597D01*
X101548420Y-97250000D01*
X101651580Y-97250000D01*
X101728707Y-97257596D01*
X101728707Y-97257596D01*
G37*
G36*
X111888707Y-97257596D02*
X111965836Y-97265193D01*
X112097787Y-97305220D01*
X112163763Y-97325233D01*
X112346172Y-97422733D01*
X112506054Y-97553946D01*
X112637267Y-97713828D01*
X112734767Y-97896237D01*
X112734767Y-97896238D01*
X112794807Y-98094164D01*
X112815080Y-98300000D01*
X112794807Y-98505836D01*
X112764406Y-98606054D01*
X112734767Y-98703763D01*
X112637267Y-98886172D01*
X112506054Y-99046054D01*
X112346172Y-99177267D01*
X112163763Y-99274767D01*
X112097787Y-99294780D01*
X111965836Y-99334807D01*
X111888707Y-99342403D01*
X111811580Y-99350000D01*
X111708420Y-99350000D01*
X111631293Y-99342403D01*
X111554164Y-99334807D01*
X111422213Y-99294780D01*
X111356237Y-99274767D01*
X111173828Y-99177267D01*
X111013946Y-99046054D01*
X110882733Y-98886172D01*
X110785233Y-98703763D01*
X110755594Y-98606054D01*
X110725193Y-98505836D01*
X110704920Y-98300000D01*
X110725193Y-98094164D01*
X110785233Y-97896238D01*
X110785233Y-97896237D01*
X110882733Y-97713828D01*
X111013946Y-97553946D01*
X111173828Y-97422733D01*
X111356237Y-97325233D01*
X111422213Y-97305220D01*
X111554164Y-97265193D01*
X111631293Y-97257597D01*
X111708420Y-97250000D01*
X111811580Y-97250000D01*
X111888707Y-97257596D01*
X111888707Y-97257596D01*
G37*
G36*
X104268707Y-97257596D02*
X104345836Y-97265193D01*
X104477787Y-97305220D01*
X104543763Y-97325233D01*
X104726172Y-97422733D01*
X104886054Y-97553946D01*
X105017267Y-97713828D01*
X105114767Y-97896237D01*
X105114767Y-97896238D01*
X105174807Y-98094164D01*
X105195080Y-98300000D01*
X105174807Y-98505836D01*
X105144406Y-98606054D01*
X105114767Y-98703763D01*
X105017267Y-98886172D01*
X104886054Y-99046054D01*
X104726172Y-99177267D01*
X104543763Y-99274767D01*
X104477787Y-99294780D01*
X104345836Y-99334807D01*
X104268707Y-99342403D01*
X104191580Y-99350000D01*
X104088420Y-99350000D01*
X104011293Y-99342403D01*
X103934164Y-99334807D01*
X103802213Y-99294780D01*
X103736237Y-99274767D01*
X103553828Y-99177267D01*
X103393946Y-99046054D01*
X103262733Y-98886172D01*
X103165233Y-98703763D01*
X103135594Y-98606054D01*
X103105193Y-98505836D01*
X103084920Y-98300000D01*
X103105193Y-98094164D01*
X103165233Y-97896238D01*
X103165233Y-97896237D01*
X103262733Y-97713828D01*
X103393946Y-97553946D01*
X103553828Y-97422733D01*
X103736237Y-97325233D01*
X103802213Y-97305220D01*
X103934164Y-97265193D01*
X104011293Y-97257597D01*
X104088420Y-97250000D01*
X104191580Y-97250000D01*
X104268707Y-97257596D01*
X104268707Y-97257596D01*
G37*
G36*
X119508707Y-97257596D02*
X119585836Y-97265193D01*
X119717787Y-97305220D01*
X119783763Y-97325233D01*
X119966172Y-97422733D01*
X120126054Y-97553946D01*
X120257267Y-97713828D01*
X120354767Y-97896237D01*
X120354767Y-97896238D01*
X120414807Y-98094164D01*
X120435080Y-98300000D01*
X120414807Y-98505836D01*
X120384406Y-98606054D01*
X120354767Y-98703763D01*
X120257267Y-98886172D01*
X120126054Y-99046054D01*
X119966172Y-99177267D01*
X119783763Y-99274767D01*
X119717787Y-99294780D01*
X119585836Y-99334807D01*
X119508707Y-99342403D01*
X119431580Y-99350000D01*
X119328420Y-99350000D01*
X119251293Y-99342403D01*
X119174164Y-99334807D01*
X119042213Y-99294780D01*
X118976237Y-99274767D01*
X118793828Y-99177267D01*
X118633946Y-99046054D01*
X118502733Y-98886172D01*
X118405233Y-98703763D01*
X118375594Y-98606054D01*
X118345193Y-98505836D01*
X118324920Y-98300000D01*
X118345193Y-98094164D01*
X118405233Y-97896238D01*
X118405233Y-97896237D01*
X118502733Y-97713828D01*
X118633946Y-97553946D01*
X118793828Y-97422733D01*
X118976237Y-97325233D01*
X119042213Y-97305220D01*
X119174164Y-97265193D01*
X119251293Y-97257597D01*
X119328420Y-97250000D01*
X119431580Y-97250000D01*
X119508707Y-97257596D01*
X119508707Y-97257596D01*
G37*
G36*
X100110000Y-99350000D02*
X98010000Y-99350000D01*
X98010000Y-97250000D01*
X100110000Y-97250000D01*
X100110000Y-99350000D01*
X100110000Y-99350000D01*
G37*
G36*
X92128707Y-96817596D02*
X92205836Y-96825193D01*
X92337787Y-96865220D01*
X92403763Y-96885233D01*
X92586172Y-96982733D01*
X92746054Y-97113946D01*
X92877267Y-97273828D01*
X92974767Y-97456237D01*
X92974767Y-97456238D01*
X93034807Y-97654164D01*
X93055080Y-97860000D01*
X93034807Y-98065836D01*
X93026213Y-98094166D01*
X92974767Y-98263763D01*
X92877267Y-98446172D01*
X92746054Y-98606054D01*
X92586172Y-98737267D01*
X92403763Y-98834767D01*
X92337787Y-98854780D01*
X92205836Y-98894807D01*
X92128707Y-98902403D01*
X92051580Y-98910000D01*
X91948420Y-98910000D01*
X91871293Y-98902403D01*
X91794164Y-98894807D01*
X91662213Y-98854780D01*
X91596237Y-98834767D01*
X91413828Y-98737267D01*
X91253946Y-98606054D01*
X91122733Y-98446172D01*
X91025233Y-98263763D01*
X90973787Y-98094166D01*
X90965193Y-98065836D01*
X90944920Y-97860000D01*
X90965193Y-97654164D01*
X91025233Y-97456238D01*
X91025233Y-97456237D01*
X91122733Y-97273828D01*
X91253946Y-97113946D01*
X91413828Y-96982733D01*
X91596237Y-96885233D01*
X91662213Y-96865220D01*
X91794164Y-96825193D01*
X91871293Y-96817596D01*
X91948420Y-96810000D01*
X92051580Y-96810000D01*
X92128707Y-96817596D01*
X92128707Y-96817596D01*
G37*
G36*
X142340000Y-98850000D02*
X129660000Y-98850000D01*
X129660000Y-96950000D01*
X142340000Y-96950000D01*
X142340000Y-98850000D01*
X142340000Y-98850000D01*
G37*
G36*
X148574000Y-97942000D02*
X146574000Y-97942000D01*
X146574000Y-95542000D01*
X148574000Y-95542000D01*
X148574000Y-97942000D01*
X148574000Y-97942000D01*
G37*
G36*
X182878707Y-95607596D02*
X182955836Y-95615193D01*
X183087787Y-95655220D01*
X183153763Y-95675233D01*
X183336172Y-95772733D01*
X183496054Y-95903946D01*
X183627267Y-96063828D01*
X183724767Y-96246237D01*
X183724767Y-96246238D01*
X183784807Y-96444164D01*
X183805080Y-96650000D01*
X183784807Y-96855836D01*
X183775640Y-96886054D01*
X183724767Y-97053763D01*
X183627267Y-97236172D01*
X183496054Y-97396054D01*
X183336172Y-97527267D01*
X183153763Y-97624767D01*
X183087787Y-97644780D01*
X182955836Y-97684807D01*
X182878707Y-97692404D01*
X182801580Y-97700000D01*
X182698420Y-97700000D01*
X182621293Y-97692404D01*
X182544164Y-97684807D01*
X182412213Y-97644780D01*
X182346237Y-97624767D01*
X182163828Y-97527267D01*
X182003946Y-97396054D01*
X181872733Y-97236172D01*
X181775233Y-97053763D01*
X181724360Y-96886054D01*
X181715193Y-96855836D01*
X181694920Y-96650000D01*
X181715193Y-96444164D01*
X181775233Y-96246238D01*
X181775233Y-96246237D01*
X181872733Y-96063828D01*
X182003946Y-95903946D01*
X182163828Y-95772733D01*
X182346237Y-95675233D01*
X182412213Y-95655220D01*
X182544164Y-95615193D01*
X182621293Y-95607596D01*
X182698420Y-95600000D01*
X182801580Y-95600000D01*
X182878707Y-95607596D01*
X182878707Y-95607596D01*
G37*
G36*
X125000000Y-97300000D02*
X123000000Y-97300000D01*
X123000000Y-94900000D01*
X125000000Y-94900000D01*
X125000000Y-97300000D01*
X125000000Y-97300000D01*
G37*
G36*
X170558707Y-95097597D02*
X170635836Y-95105193D01*
X170766426Y-95144807D01*
X170833763Y-95165233D01*
X171016172Y-95262733D01*
X171176054Y-95393946D01*
X171307267Y-95553828D01*
X171404767Y-95736237D01*
X171404767Y-95736238D01*
X171464807Y-95934164D01*
X171485080Y-96140000D01*
X171464807Y-96345836D01*
X171434979Y-96444166D01*
X171404767Y-96543763D01*
X171307267Y-96726172D01*
X171176054Y-96886054D01*
X171016172Y-97017267D01*
X170833763Y-97114767D01*
X170767787Y-97134780D01*
X170635836Y-97174807D01*
X170558707Y-97182404D01*
X170481580Y-97190000D01*
X170378420Y-97190000D01*
X170301293Y-97182404D01*
X170224164Y-97174807D01*
X170092213Y-97134780D01*
X170026237Y-97114767D01*
X169843828Y-97017267D01*
X169683946Y-96886054D01*
X169552733Y-96726172D01*
X169455233Y-96543763D01*
X169425021Y-96444166D01*
X169395193Y-96345836D01*
X169374920Y-96140000D01*
X169395193Y-95934164D01*
X169455233Y-95736238D01*
X169455233Y-95736237D01*
X169552733Y-95553828D01*
X169683946Y-95393946D01*
X169843828Y-95262733D01*
X170026237Y-95165233D01*
X170093574Y-95144807D01*
X170224164Y-95105193D01*
X170301293Y-95097597D01*
X170378420Y-95090000D01*
X170481580Y-95090000D01*
X170558707Y-95097597D01*
X170558707Y-95097597D01*
G37*
G36*
X161320000Y-97190000D02*
X159220000Y-97190000D01*
X159220000Y-95090000D01*
X161320000Y-95090000D01*
X161320000Y-97190000D01*
X161320000Y-97190000D01*
G37*
G36*
X168018707Y-95097597D02*
X168095836Y-95105193D01*
X168226426Y-95144807D01*
X168293763Y-95165233D01*
X168476172Y-95262733D01*
X168636054Y-95393946D01*
X168767267Y-95553828D01*
X168864767Y-95736237D01*
X168864767Y-95736238D01*
X168924807Y-95934164D01*
X168945080Y-96140000D01*
X168924807Y-96345836D01*
X168894979Y-96444166D01*
X168864767Y-96543763D01*
X168767267Y-96726172D01*
X168636054Y-96886054D01*
X168476172Y-97017267D01*
X168293763Y-97114767D01*
X168227787Y-97134780D01*
X168095836Y-97174807D01*
X168018707Y-97182404D01*
X167941580Y-97190000D01*
X167838420Y-97190000D01*
X167761293Y-97182404D01*
X167684164Y-97174807D01*
X167552213Y-97134780D01*
X167486237Y-97114767D01*
X167303828Y-97017267D01*
X167143946Y-96886054D01*
X167012733Y-96726172D01*
X166915233Y-96543763D01*
X166885021Y-96444166D01*
X166855193Y-96345836D01*
X166834920Y-96140000D01*
X166855193Y-95934164D01*
X166915233Y-95736238D01*
X166915233Y-95736237D01*
X167012733Y-95553828D01*
X167143946Y-95393946D01*
X167303828Y-95262733D01*
X167486237Y-95165233D01*
X167553574Y-95144807D01*
X167684164Y-95105193D01*
X167761293Y-95097597D01*
X167838420Y-95090000D01*
X167941580Y-95090000D01*
X168018707Y-95097597D01*
X168018707Y-95097597D01*
G37*
G36*
X165478707Y-95097597D02*
X165555836Y-95105193D01*
X165686426Y-95144807D01*
X165753763Y-95165233D01*
X165936172Y-95262733D01*
X166096054Y-95393946D01*
X166227267Y-95553828D01*
X166324767Y-95736237D01*
X166324767Y-95736238D01*
X166384807Y-95934164D01*
X166405080Y-96140000D01*
X166384807Y-96345836D01*
X166354979Y-96444166D01*
X166324767Y-96543763D01*
X166227267Y-96726172D01*
X166096054Y-96886054D01*
X165936172Y-97017267D01*
X165753763Y-97114767D01*
X165687787Y-97134780D01*
X165555836Y-97174807D01*
X165478707Y-97182404D01*
X165401580Y-97190000D01*
X165298420Y-97190000D01*
X165221293Y-97182404D01*
X165144164Y-97174807D01*
X165012213Y-97134780D01*
X164946237Y-97114767D01*
X164763828Y-97017267D01*
X164603946Y-96886054D01*
X164472733Y-96726172D01*
X164375233Y-96543763D01*
X164345021Y-96444166D01*
X164315193Y-96345836D01*
X164294920Y-96140000D01*
X164315193Y-95934164D01*
X164375233Y-95736238D01*
X164375233Y-95736237D01*
X164472733Y-95553828D01*
X164603946Y-95393946D01*
X164763828Y-95262733D01*
X164946237Y-95165233D01*
X165013574Y-95144807D01*
X165144164Y-95105193D01*
X165221293Y-95097597D01*
X165298420Y-95090000D01*
X165401580Y-95090000D01*
X165478707Y-95097597D01*
X165478707Y-95097597D01*
G37*
G36*
X162938707Y-95097597D02*
X163015836Y-95105193D01*
X163146426Y-95144807D01*
X163213763Y-95165233D01*
X163396172Y-95262733D01*
X163556054Y-95393946D01*
X163687267Y-95553828D01*
X163784767Y-95736237D01*
X163784767Y-95736238D01*
X163844807Y-95934164D01*
X163865080Y-96140000D01*
X163844807Y-96345836D01*
X163814979Y-96444166D01*
X163784767Y-96543763D01*
X163687267Y-96726172D01*
X163556054Y-96886054D01*
X163396172Y-97017267D01*
X163213763Y-97114767D01*
X163147787Y-97134780D01*
X163015836Y-97174807D01*
X162938707Y-97182404D01*
X162861580Y-97190000D01*
X162758420Y-97190000D01*
X162681293Y-97182404D01*
X162604164Y-97174807D01*
X162472213Y-97134780D01*
X162406237Y-97114767D01*
X162223828Y-97017267D01*
X162063946Y-96886054D01*
X161932733Y-96726172D01*
X161835233Y-96543763D01*
X161805021Y-96444166D01*
X161775193Y-96345836D01*
X161754920Y-96140000D01*
X161775193Y-95934164D01*
X161835233Y-95736238D01*
X161835233Y-95736237D01*
X161932733Y-95553828D01*
X162063946Y-95393946D01*
X162223828Y-95262733D01*
X162406237Y-95165233D01*
X162473574Y-95144807D01*
X162604164Y-95105193D01*
X162681293Y-95097597D01*
X162758420Y-95090000D01*
X162861580Y-95090000D01*
X162938707Y-95097597D01*
X162938707Y-95097597D01*
G37*
G36*
X92128707Y-94277596D02*
X92205836Y-94285193D01*
X92337787Y-94325220D01*
X92403763Y-94345233D01*
X92586172Y-94442733D01*
X92746054Y-94573946D01*
X92877267Y-94733828D01*
X92974767Y-94916237D01*
X92974767Y-94916238D01*
X93034807Y-95114164D01*
X93055080Y-95320000D01*
X93034807Y-95525836D01*
X93007701Y-95615193D01*
X92974767Y-95723763D01*
X92877267Y-95906172D01*
X92746054Y-96066054D01*
X92586172Y-96197267D01*
X92403763Y-96294767D01*
X92337787Y-96314780D01*
X92205836Y-96354807D01*
X92128707Y-96362403D01*
X92051580Y-96370000D01*
X91948420Y-96370000D01*
X91871293Y-96362403D01*
X91794164Y-96354807D01*
X91662213Y-96314780D01*
X91596237Y-96294767D01*
X91413828Y-96197267D01*
X91253946Y-96066054D01*
X91122733Y-95906172D01*
X91025233Y-95723763D01*
X90992299Y-95615193D01*
X90965193Y-95525836D01*
X90944920Y-95320000D01*
X90965193Y-95114164D01*
X91025233Y-94916238D01*
X91025233Y-94916237D01*
X91122733Y-94733828D01*
X91253946Y-94573946D01*
X91413828Y-94442733D01*
X91596237Y-94345233D01*
X91662213Y-94325220D01*
X91794164Y-94285193D01*
X91871293Y-94277596D01*
X91948420Y-94270000D01*
X92051580Y-94270000D01*
X92128707Y-94277596D01*
X92128707Y-94277596D01*
G37*
G36*
X129050000Y-96340000D02*
X127150000Y-96340000D01*
X127150000Y-83660000D01*
X129050000Y-83660000D01*
X129050000Y-96340000D01*
X129050000Y-96340000D01*
G37*
G36*
X144850000Y-96340000D02*
X142950000Y-96340000D01*
X142950000Y-83660000D01*
X144850000Y-83660000D01*
X144850000Y-96340000D01*
X144850000Y-96340000D01*
G37*
G36*
X182878707Y-93067596D02*
X182955836Y-93075193D01*
X183087787Y-93115220D01*
X183153763Y-93135233D01*
X183336172Y-93232733D01*
X183496054Y-93363946D01*
X183627267Y-93523828D01*
X183724767Y-93706237D01*
X183724767Y-93706238D01*
X183784807Y-93904164D01*
X183805080Y-94110000D01*
X183784807Y-94315836D01*
X183775640Y-94346054D01*
X183724767Y-94513763D01*
X183627267Y-94696172D01*
X183496054Y-94856054D01*
X183336172Y-94987267D01*
X183153763Y-95084767D01*
X183087787Y-95104780D01*
X182955836Y-95144807D01*
X182878707Y-95152404D01*
X182801580Y-95160000D01*
X182698420Y-95160000D01*
X182621293Y-95152403D01*
X182544164Y-95144807D01*
X182412213Y-95104780D01*
X182346237Y-95084767D01*
X182163828Y-94987267D01*
X182003946Y-94856054D01*
X181872733Y-94696172D01*
X181775233Y-94513763D01*
X181724360Y-94346054D01*
X181715193Y-94315836D01*
X181694920Y-94110000D01*
X181715193Y-93904164D01*
X181775233Y-93706238D01*
X181775233Y-93706237D01*
X181872733Y-93523828D01*
X182003946Y-93363946D01*
X182163828Y-93232733D01*
X182346237Y-93135233D01*
X182412213Y-93115220D01*
X182544164Y-93075193D01*
X182621293Y-93067597D01*
X182698420Y-93060000D01*
X182801580Y-93060000D01*
X182878707Y-93067596D01*
X182878707Y-93067596D01*
G37*
G36*
X168018707Y-92557596D02*
X168095836Y-92565193D01*
X168226426Y-92604807D01*
X168293763Y-92625233D01*
X168476172Y-92722733D01*
X168636054Y-92853946D01*
X168767267Y-93013828D01*
X168864767Y-93196237D01*
X168864767Y-93196238D01*
X168924807Y-93394164D01*
X168945080Y-93600000D01*
X168924807Y-93805836D01*
X168894979Y-93904166D01*
X168864767Y-94003763D01*
X168767267Y-94186172D01*
X168636054Y-94346054D01*
X168476172Y-94477267D01*
X168293763Y-94574767D01*
X168227787Y-94594780D01*
X168095836Y-94634807D01*
X168018707Y-94642403D01*
X167941580Y-94650000D01*
X167838420Y-94650000D01*
X167761293Y-94642403D01*
X167684164Y-94634807D01*
X167552213Y-94594780D01*
X167486237Y-94574767D01*
X167303828Y-94477267D01*
X167143946Y-94346054D01*
X167012733Y-94186172D01*
X166915233Y-94003763D01*
X166885021Y-93904166D01*
X166855193Y-93805836D01*
X166834920Y-93600000D01*
X166855193Y-93394164D01*
X166915233Y-93196238D01*
X166915233Y-93196237D01*
X167012733Y-93013828D01*
X167143946Y-92853946D01*
X167303828Y-92722733D01*
X167486237Y-92625233D01*
X167553574Y-92604807D01*
X167684164Y-92565193D01*
X167761293Y-92557596D01*
X167838420Y-92550000D01*
X167941580Y-92550000D01*
X168018707Y-92557596D01*
X168018707Y-92557596D01*
G37*
G36*
X160398707Y-92557596D02*
X160475836Y-92565193D01*
X160606426Y-92604807D01*
X160673763Y-92625233D01*
X160856172Y-92722733D01*
X161016054Y-92853946D01*
X161147267Y-93013828D01*
X161244767Y-93196237D01*
X161244767Y-93196238D01*
X161304807Y-93394164D01*
X161325080Y-93600000D01*
X161304807Y-93805836D01*
X161274979Y-93904166D01*
X161244767Y-94003763D01*
X161147267Y-94186172D01*
X161016054Y-94346054D01*
X160856172Y-94477267D01*
X160673763Y-94574767D01*
X160607787Y-94594780D01*
X160475836Y-94634807D01*
X160398707Y-94642403D01*
X160321580Y-94650000D01*
X160218420Y-94650000D01*
X160141293Y-94642403D01*
X160064164Y-94634807D01*
X159932213Y-94594780D01*
X159866237Y-94574767D01*
X159683828Y-94477267D01*
X159523946Y-94346054D01*
X159392733Y-94186172D01*
X159295233Y-94003763D01*
X159265021Y-93904166D01*
X159235193Y-93805836D01*
X159214920Y-93600000D01*
X159235193Y-93394164D01*
X159295233Y-93196238D01*
X159295233Y-93196237D01*
X159392733Y-93013828D01*
X159523946Y-92853946D01*
X159683828Y-92722733D01*
X159866237Y-92625233D01*
X159933574Y-92604807D01*
X160064164Y-92565193D01*
X160141293Y-92557596D01*
X160218420Y-92550000D01*
X160321580Y-92550000D01*
X160398707Y-92557596D01*
X160398707Y-92557596D01*
G37*
G36*
X162938707Y-92557596D02*
X163015836Y-92565193D01*
X163146426Y-92604807D01*
X163213763Y-92625233D01*
X163396172Y-92722733D01*
X163556054Y-92853946D01*
X163687267Y-93013828D01*
X163784767Y-93196237D01*
X163784767Y-93196238D01*
X163844807Y-93394164D01*
X163865080Y-93600000D01*
X163844807Y-93805836D01*
X163814979Y-93904166D01*
X163784767Y-94003763D01*
X163687267Y-94186172D01*
X163556054Y-94346054D01*
X163396172Y-94477267D01*
X163213763Y-94574767D01*
X163147787Y-94594780D01*
X163015836Y-94634807D01*
X162938707Y-94642403D01*
X162861580Y-94650000D01*
X162758420Y-94650000D01*
X162681293Y-94642403D01*
X162604164Y-94634807D01*
X162472213Y-94594780D01*
X162406237Y-94574767D01*
X162223828Y-94477267D01*
X162063946Y-94346054D01*
X161932733Y-94186172D01*
X161835233Y-94003763D01*
X161805021Y-93904166D01*
X161775193Y-93805836D01*
X161754920Y-93600000D01*
X161775193Y-93394164D01*
X161835233Y-93196238D01*
X161835233Y-93196237D01*
X161932733Y-93013828D01*
X162063946Y-92853946D01*
X162223828Y-92722733D01*
X162406237Y-92625233D01*
X162473574Y-92604807D01*
X162604164Y-92565193D01*
X162681293Y-92557596D01*
X162758420Y-92550000D01*
X162861580Y-92550000D01*
X162938707Y-92557596D01*
X162938707Y-92557596D01*
G37*
G36*
X165478707Y-92557596D02*
X165555836Y-92565193D01*
X165686426Y-92604807D01*
X165753763Y-92625233D01*
X165936172Y-92722733D01*
X166096054Y-92853946D01*
X166227267Y-93013828D01*
X166324767Y-93196237D01*
X166324767Y-93196238D01*
X166384807Y-93394164D01*
X166405080Y-93600000D01*
X166384807Y-93805836D01*
X166354979Y-93904166D01*
X166324767Y-94003763D01*
X166227267Y-94186172D01*
X166096054Y-94346054D01*
X165936172Y-94477267D01*
X165753763Y-94574767D01*
X165687787Y-94594780D01*
X165555836Y-94634807D01*
X165478707Y-94642403D01*
X165401580Y-94650000D01*
X165298420Y-94650000D01*
X165221293Y-94642403D01*
X165144164Y-94634807D01*
X165012213Y-94594780D01*
X164946237Y-94574767D01*
X164763828Y-94477267D01*
X164603946Y-94346054D01*
X164472733Y-94186172D01*
X164375233Y-94003763D01*
X164345021Y-93904166D01*
X164315193Y-93805836D01*
X164294920Y-93600000D01*
X164315193Y-93394164D01*
X164375233Y-93196238D01*
X164375233Y-93196237D01*
X164472733Y-93013828D01*
X164603946Y-92853946D01*
X164763828Y-92722733D01*
X164946237Y-92625233D01*
X165013574Y-92604807D01*
X165144164Y-92565193D01*
X165221293Y-92557596D01*
X165298420Y-92550000D01*
X165401580Y-92550000D01*
X165478707Y-92557596D01*
X165478707Y-92557596D01*
G37*
G36*
X170558707Y-92557596D02*
X170635836Y-92565193D01*
X170766426Y-92604807D01*
X170833763Y-92625233D01*
X171016172Y-92722733D01*
X171176054Y-92853946D01*
X171307267Y-93013828D01*
X171404767Y-93196237D01*
X171404767Y-93196238D01*
X171464807Y-93394164D01*
X171485080Y-93600000D01*
X171464807Y-93805836D01*
X171434979Y-93904166D01*
X171404767Y-94003763D01*
X171307267Y-94186172D01*
X171176054Y-94346054D01*
X171016172Y-94477267D01*
X170833763Y-94574767D01*
X170767787Y-94594780D01*
X170635836Y-94634807D01*
X170558707Y-94642403D01*
X170481580Y-94650000D01*
X170378420Y-94650000D01*
X170301293Y-94642403D01*
X170224164Y-94634807D01*
X170092213Y-94594780D01*
X170026237Y-94574767D01*
X169843828Y-94477267D01*
X169683946Y-94346054D01*
X169552733Y-94186172D01*
X169455233Y-94003763D01*
X169425021Y-93904166D01*
X169395193Y-93805836D01*
X169374920Y-93600000D01*
X169395193Y-93394164D01*
X169455233Y-93196238D01*
X169455233Y-93196237D01*
X169552733Y-93013828D01*
X169683946Y-92853946D01*
X169843828Y-92722733D01*
X170026237Y-92625233D01*
X170093574Y-92604807D01*
X170224164Y-92565193D01*
X170301293Y-92557596D01*
X170378420Y-92550000D01*
X170481580Y-92550000D01*
X170558707Y-92557596D01*
X170558707Y-92557596D01*
G37*
G36*
X148574000Y-93942000D02*
X146574000Y-93942000D01*
X146574000Y-91542000D01*
X148574000Y-91542000D01*
X148574000Y-93942000D01*
X148574000Y-93942000D01*
G37*
G36*
X92128707Y-91737597D02*
X92205836Y-91745193D01*
X92337787Y-91785220D01*
X92403763Y-91805233D01*
X92586172Y-91902733D01*
X92746054Y-92033946D01*
X92877267Y-92193828D01*
X92974767Y-92376237D01*
X92974767Y-92376238D01*
X93034807Y-92574164D01*
X93055080Y-92780000D01*
X93034807Y-92985836D01*
X93007701Y-93075193D01*
X92974767Y-93183763D01*
X92877267Y-93366172D01*
X92746054Y-93526054D01*
X92586172Y-93657267D01*
X92403763Y-93754767D01*
X92337787Y-93774780D01*
X92205836Y-93814807D01*
X92128707Y-93822403D01*
X92051580Y-93830000D01*
X91948420Y-93830000D01*
X91871293Y-93822403D01*
X91794164Y-93814807D01*
X91662213Y-93774780D01*
X91596237Y-93754767D01*
X91413828Y-93657267D01*
X91253946Y-93526054D01*
X91122733Y-93366172D01*
X91025233Y-93183763D01*
X90992299Y-93075193D01*
X90965193Y-92985836D01*
X90944920Y-92780000D01*
X90965193Y-92574164D01*
X91025233Y-92376238D01*
X91025233Y-92376237D01*
X91122733Y-92193828D01*
X91253946Y-92033946D01*
X91413828Y-91902733D01*
X91596237Y-91805233D01*
X91662213Y-91785220D01*
X91794164Y-91745193D01*
X91871293Y-91737597D01*
X91948420Y-91730000D01*
X92051580Y-91730000D01*
X92128707Y-91737597D01*
X92128707Y-91737597D01*
G37*
G36*
X125000000Y-93300000D02*
X123000000Y-93300000D01*
X123000000Y-90900000D01*
X125000000Y-90900000D01*
X125000000Y-93300000D01*
X125000000Y-93300000D01*
G37*
G36*
X182878707Y-90527596D02*
X182955836Y-90535193D01*
X183087787Y-90575220D01*
X183153763Y-90595233D01*
X183336172Y-90692733D01*
X183496054Y-90823946D01*
X183627267Y-90983828D01*
X183724767Y-91166237D01*
X183724767Y-91166238D01*
X183784807Y-91364164D01*
X183805080Y-91570000D01*
X183784807Y-91775836D01*
X183765343Y-91840000D01*
X183724767Y-91973763D01*
X183627267Y-92156172D01*
X183496054Y-92316054D01*
X183336172Y-92447267D01*
X183153763Y-92544767D01*
X183087787Y-92564780D01*
X182955836Y-92604807D01*
X182878707Y-92612404D01*
X182801580Y-92620000D01*
X182698420Y-92620000D01*
X182621293Y-92612403D01*
X182544164Y-92604807D01*
X182412213Y-92564780D01*
X182346237Y-92544767D01*
X182163828Y-92447267D01*
X182003946Y-92316054D01*
X181872733Y-92156172D01*
X181775233Y-91973763D01*
X181734657Y-91840000D01*
X181715193Y-91775836D01*
X181694920Y-91570000D01*
X181715193Y-91364164D01*
X181775233Y-91166238D01*
X181775233Y-91166237D01*
X181872733Y-90983828D01*
X182003946Y-90823946D01*
X182163828Y-90692733D01*
X182346237Y-90595233D01*
X182412213Y-90575220D01*
X182544164Y-90535193D01*
X182621293Y-90527596D01*
X182698420Y-90520000D01*
X182801580Y-90520000D01*
X182878707Y-90527596D01*
X182878707Y-90527596D01*
G37*
G36*
X99020000Y-91640000D02*
X96920000Y-91640000D01*
X96920000Y-89540000D01*
X99020000Y-89540000D01*
X99020000Y-91640000D01*
X99020000Y-91640000D01*
G37*
G36*
X92128707Y-89197597D02*
X92205836Y-89205193D01*
X92337787Y-89245220D01*
X92403763Y-89265233D01*
X92586172Y-89362733D01*
X92746054Y-89493946D01*
X92877267Y-89653828D01*
X92974767Y-89836237D01*
X92974767Y-89836238D01*
X93034807Y-90034164D01*
X93055080Y-90240000D01*
X93034807Y-90445836D01*
X93007701Y-90535193D01*
X92974767Y-90643763D01*
X92877267Y-90826172D01*
X92746054Y-90986054D01*
X92586172Y-91117267D01*
X92403763Y-91214767D01*
X92337787Y-91234780D01*
X92205836Y-91274807D01*
X92128707Y-91282404D01*
X92051580Y-91290000D01*
X91948420Y-91290000D01*
X91871293Y-91282404D01*
X91794164Y-91274807D01*
X91662213Y-91234780D01*
X91596237Y-91214767D01*
X91413828Y-91117267D01*
X91253946Y-90986054D01*
X91122733Y-90826172D01*
X91025233Y-90643763D01*
X90992299Y-90535193D01*
X90965193Y-90445836D01*
X90944920Y-90240000D01*
X90965193Y-90034164D01*
X91025233Y-89836238D01*
X91025233Y-89836237D01*
X91122733Y-89653828D01*
X91253946Y-89493946D01*
X91413828Y-89362733D01*
X91596237Y-89265233D01*
X91662213Y-89245220D01*
X91794164Y-89205193D01*
X91871293Y-89197597D01*
X91948420Y-89190000D01*
X92051580Y-89190000D01*
X92128707Y-89197597D01*
X92128707Y-89197597D01*
G37*
G36*
X125000000Y-90400000D02*
X123000000Y-90400000D01*
X123000000Y-88000000D01*
X125000000Y-88000000D01*
X125000000Y-90400000D01*
X125000000Y-90400000D01*
G37*
G36*
X182878707Y-87987596D02*
X182955836Y-87995193D01*
X183087787Y-88035220D01*
X183153763Y-88055233D01*
X183336172Y-88152733D01*
X183496054Y-88283946D01*
X183627267Y-88443828D01*
X183724767Y-88626237D01*
X183735009Y-88660000D01*
X183784807Y-88824164D01*
X183805080Y-89030000D01*
X183784807Y-89235836D01*
X183763523Y-89306000D01*
X183724767Y-89433763D01*
X183627267Y-89616172D01*
X183496054Y-89776054D01*
X183336172Y-89907267D01*
X183153763Y-90004767D01*
X183087787Y-90024780D01*
X182955836Y-90064807D01*
X182878707Y-90072403D01*
X182801580Y-90080000D01*
X182698420Y-90080000D01*
X182621293Y-90072403D01*
X182544164Y-90064807D01*
X182412213Y-90024780D01*
X182346237Y-90004767D01*
X182163828Y-89907267D01*
X182003946Y-89776054D01*
X181872733Y-89616172D01*
X181775233Y-89433763D01*
X181736477Y-89306000D01*
X181715193Y-89235836D01*
X181694920Y-89030000D01*
X181715193Y-88824164D01*
X181764991Y-88660000D01*
X181775233Y-88626237D01*
X181872733Y-88443828D01*
X182003946Y-88283946D01*
X182163828Y-88152733D01*
X182346237Y-88055233D01*
X182412213Y-88035220D01*
X182544164Y-87995193D01*
X182621293Y-87987596D01*
X182698420Y-87980000D01*
X182801580Y-87980000D01*
X182878707Y-87987596D01*
X182878707Y-87987596D01*
G37*
G36*
X148828000Y-89306000D02*
X146828000Y-89306000D01*
X146828000Y-86906000D01*
X148828000Y-86906000D01*
X148828000Y-89306000D01*
X148828000Y-89306000D01*
G37*
G36*
X98098707Y-87007597D02*
X98175836Y-87015193D01*
X98307787Y-87055220D01*
X98373763Y-87075233D01*
X98556172Y-87172733D01*
X98716054Y-87303946D01*
X98847267Y-87463828D01*
X98944767Y-87646237D01*
X98964780Y-87712213D01*
X99004807Y-87844164D01*
X99025080Y-88050000D01*
X99004807Y-88255836D01*
X98979276Y-88340000D01*
X98944767Y-88453763D01*
X98847267Y-88636172D01*
X98716054Y-88796054D01*
X98556172Y-88927267D01*
X98373763Y-89024767D01*
X98307787Y-89044780D01*
X98175836Y-89084807D01*
X98098707Y-89092404D01*
X98021580Y-89100000D01*
X97918420Y-89100000D01*
X97841293Y-89092404D01*
X97764164Y-89084807D01*
X97632213Y-89044780D01*
X97566237Y-89024767D01*
X97383828Y-88927267D01*
X97223946Y-88796054D01*
X97092733Y-88636172D01*
X96995233Y-88453763D01*
X96960724Y-88340000D01*
X96935193Y-88255836D01*
X96914920Y-88050000D01*
X96935193Y-87844164D01*
X96975220Y-87712213D01*
X96995233Y-87646237D01*
X97092733Y-87463828D01*
X97223946Y-87303946D01*
X97383828Y-87172733D01*
X97566237Y-87075233D01*
X97632213Y-87055220D01*
X97764164Y-87015193D01*
X97841293Y-87007597D01*
X97918420Y-87000000D01*
X98021580Y-87000000D01*
X98098707Y-87007597D01*
X98098707Y-87007597D01*
G37*
G36*
X92128707Y-86657597D02*
X92205836Y-86665193D01*
X92337787Y-86705220D01*
X92403763Y-86725233D01*
X92586172Y-86822733D01*
X92746054Y-86953946D01*
X92877267Y-87113828D01*
X92974767Y-87296237D01*
X92974767Y-87296238D01*
X93034807Y-87494164D01*
X93055080Y-87700000D01*
X93034807Y-87905836D01*
X93007701Y-87995193D01*
X92974767Y-88103763D01*
X92877267Y-88286172D01*
X92746054Y-88446054D01*
X92586172Y-88577267D01*
X92403763Y-88674767D01*
X92337787Y-88694780D01*
X92205836Y-88734807D01*
X92128707Y-88742403D01*
X92051580Y-88750000D01*
X91948420Y-88750000D01*
X91871293Y-88742403D01*
X91794164Y-88734807D01*
X91662213Y-88694780D01*
X91596237Y-88674767D01*
X91413828Y-88577267D01*
X91253946Y-88446054D01*
X91122733Y-88286172D01*
X91025233Y-88103763D01*
X90992299Y-87995193D01*
X90965193Y-87905836D01*
X90944920Y-87700000D01*
X90965193Y-87494164D01*
X91025233Y-87296238D01*
X91025233Y-87296237D01*
X91122733Y-87113828D01*
X91253946Y-86953946D01*
X91413828Y-86822733D01*
X91596237Y-86725233D01*
X91662213Y-86705220D01*
X91794164Y-86665193D01*
X91871293Y-86657597D01*
X91948420Y-86650000D01*
X92051580Y-86650000D01*
X92128707Y-86657597D01*
X92128707Y-86657597D01*
G37*
G36*
X113630000Y-88120000D02*
X110230000Y-88120000D01*
X110230000Y-86120000D01*
X113630000Y-86120000D01*
X113630000Y-88120000D01*
X113630000Y-88120000D01*
G37*
G36*
X109230000Y-88120000D02*
X105830000Y-88120000D01*
X105830000Y-86120000D01*
X109230000Y-86120000D01*
X109230000Y-88120000D01*
X109230000Y-88120000D01*
G37*
G36*
X166792000Y-87614000D02*
X165392000Y-87614000D01*
X165392000Y-85614000D01*
X166792000Y-85614000D01*
X166792000Y-87614000D01*
X166792000Y-87614000D01*
G37*
G36*
X163792000Y-87614000D02*
X162392000Y-87614000D01*
X162392000Y-85614000D01*
X163792000Y-85614000D01*
X163792000Y-87614000D01*
X163792000Y-87614000D01*
G37*
G36*
X161712000Y-87614000D02*
X160312000Y-87614000D01*
X160312000Y-85614000D01*
X161712000Y-85614000D01*
X161712000Y-87614000D01*
X161712000Y-87614000D01*
G37*
G36*
X158712000Y-87614000D02*
X157312000Y-87614000D01*
X157312000Y-85614000D01*
X158712000Y-85614000D01*
X158712000Y-87614000D01*
X158712000Y-87614000D01*
G37*
G36*
X182878707Y-85447596D02*
X182955836Y-85455193D01*
X183087787Y-85495220D01*
X183153763Y-85515233D01*
X183336172Y-85612733D01*
X183496054Y-85743946D01*
X183627267Y-85903828D01*
X183724767Y-86086237D01*
X183735009Y-86120000D01*
X183784807Y-86284164D01*
X183805080Y-86490000D01*
X183784807Y-86695836D01*
X183746313Y-86822733D01*
X183724767Y-86893763D01*
X183627267Y-87076172D01*
X183496054Y-87236054D01*
X183336172Y-87367267D01*
X183153763Y-87464767D01*
X183087787Y-87484780D01*
X182955836Y-87524807D01*
X182878707Y-87532403D01*
X182801580Y-87540000D01*
X182698420Y-87540000D01*
X182621293Y-87532403D01*
X182544164Y-87524807D01*
X182412213Y-87484780D01*
X182346237Y-87464767D01*
X182163828Y-87367267D01*
X182003946Y-87236054D01*
X181872733Y-87076172D01*
X181775233Y-86893763D01*
X181753687Y-86822733D01*
X181715193Y-86695836D01*
X181694920Y-86490000D01*
X181715193Y-86284164D01*
X181764991Y-86120000D01*
X181775233Y-86086237D01*
X181872733Y-85903828D01*
X182003946Y-85743946D01*
X182163828Y-85612733D01*
X182346237Y-85515233D01*
X182412213Y-85495220D01*
X182544164Y-85455193D01*
X182621293Y-85447596D01*
X182698420Y-85440000D01*
X182801580Y-85440000D01*
X182878707Y-85447596D01*
X182878707Y-85447596D01*
G37*
G36*
X98098707Y-84467596D02*
X98175836Y-84475193D01*
X98307787Y-84515220D01*
X98373763Y-84535233D01*
X98556172Y-84632733D01*
X98716054Y-84763946D01*
X98847267Y-84923828D01*
X98944767Y-85106237D01*
X98964780Y-85172213D01*
X99004807Y-85304164D01*
X99025080Y-85510000D01*
X99004807Y-85715836D01*
X98967142Y-85840000D01*
X98944767Y-85913763D01*
X98847267Y-86096172D01*
X98716054Y-86256054D01*
X98556172Y-86387267D01*
X98373763Y-86484767D01*
X98307787Y-86504780D01*
X98175836Y-86544807D01*
X98098707Y-86552404D01*
X98021580Y-86560000D01*
X97918420Y-86560000D01*
X97841293Y-86552404D01*
X97764164Y-86544807D01*
X97632213Y-86504780D01*
X97566237Y-86484767D01*
X97383828Y-86387267D01*
X97223946Y-86256054D01*
X97092733Y-86096172D01*
X96995233Y-85913763D01*
X96972858Y-85840000D01*
X96935193Y-85715836D01*
X96914920Y-85510000D01*
X96935193Y-85304164D01*
X96975220Y-85172213D01*
X96995233Y-85106237D01*
X97092733Y-84923828D01*
X97223946Y-84763946D01*
X97383828Y-84632733D01*
X97566237Y-84535233D01*
X97632213Y-84515220D01*
X97764164Y-84475193D01*
X97841293Y-84467596D01*
X97918420Y-84460000D01*
X98021580Y-84460000D01*
X98098707Y-84467596D01*
X98098707Y-84467596D01*
G37*
G36*
X125000000Y-86400000D02*
X123000000Y-86400000D01*
X123000000Y-84000000D01*
X125000000Y-84000000D01*
X125000000Y-86400000D01*
X125000000Y-86400000D01*
G37*
G36*
X92128707Y-84117597D02*
X92205836Y-84125193D01*
X92337787Y-84165220D01*
X92403763Y-84185233D01*
X92586172Y-84282733D01*
X92746054Y-84413946D01*
X92877267Y-84573828D01*
X92974767Y-84756237D01*
X92974767Y-84756238D01*
X93034807Y-84954164D01*
X93055080Y-85160000D01*
X93034807Y-85365836D01*
X93007701Y-85455193D01*
X92974767Y-85563763D01*
X92877267Y-85746172D01*
X92746054Y-85906054D01*
X92586172Y-86037267D01*
X92403763Y-86134767D01*
X92337787Y-86154780D01*
X92205836Y-86194807D01*
X92128707Y-86202404D01*
X92051580Y-86210000D01*
X91948420Y-86210000D01*
X91871293Y-86202404D01*
X91794164Y-86194807D01*
X91662213Y-86154780D01*
X91596237Y-86134767D01*
X91413828Y-86037267D01*
X91253946Y-85906054D01*
X91122733Y-85746172D01*
X91025233Y-85563763D01*
X90992299Y-85455193D01*
X90965193Y-85365836D01*
X90944920Y-85160000D01*
X90965193Y-84954164D01*
X91025233Y-84756238D01*
X91025233Y-84756237D01*
X91122733Y-84573828D01*
X91253946Y-84413946D01*
X91413828Y-84282733D01*
X91596237Y-84185233D01*
X91662213Y-84165220D01*
X91794164Y-84125193D01*
X91871293Y-84117597D01*
X91948420Y-84110000D01*
X92051580Y-84110000D01*
X92128707Y-84117597D01*
X92128707Y-84117597D01*
G37*
G36*
X148828000Y-85306000D02*
X146828000Y-85306000D01*
X146828000Y-82906000D01*
X148828000Y-82906000D01*
X148828000Y-85306000D01*
X148828000Y-85306000D01*
G37*
G36*
X183800000Y-85000000D02*
X181700000Y-85000000D01*
X181700000Y-82900000D01*
X183800000Y-82900000D01*
X183800000Y-85000000D01*
X183800000Y-85000000D01*
G37*
G36*
X164780000Y-84910000D02*
X162380000Y-84910000D01*
X162380000Y-82810000D01*
X164780000Y-82810000D01*
X164780000Y-84910000D01*
X164780000Y-84910000D01*
G37*
G36*
X168780000Y-84910000D02*
X166380000Y-84910000D01*
X166380000Y-82810000D01*
X168780000Y-82810000D01*
X168780000Y-84910000D01*
X168780000Y-84910000D01*
G37*
G36*
X161700000Y-84870000D02*
X159300000Y-84870000D01*
X159300000Y-82770000D01*
X161700000Y-82770000D01*
X161700000Y-84870000D01*
X161700000Y-84870000D01*
G37*
G36*
X157700000Y-84870000D02*
X155300000Y-84870000D01*
X155300000Y-82770000D01*
X157700000Y-82770000D01*
X157700000Y-84870000D01*
X157700000Y-84870000D01*
G37*
G36*
X98098707Y-81927597D02*
X98175836Y-81935193D01*
X98307787Y-81975220D01*
X98373763Y-81995233D01*
X98556172Y-82092733D01*
X98716054Y-82223946D01*
X98847267Y-82383828D01*
X98944767Y-82566237D01*
X98964780Y-82632213D01*
X99004807Y-82764164D01*
X99025080Y-82970000D01*
X99004807Y-83175836D01*
X98964780Y-83307787D01*
X98944767Y-83373763D01*
X98847267Y-83556172D01*
X98716054Y-83716054D01*
X98556172Y-83847267D01*
X98373763Y-83944767D01*
X98307787Y-83964780D01*
X98175836Y-84004807D01*
X98098707Y-84012403D01*
X98021580Y-84020000D01*
X97918420Y-84020000D01*
X97841293Y-84012403D01*
X97764164Y-84004807D01*
X97632213Y-83964780D01*
X97566237Y-83944767D01*
X97383828Y-83847267D01*
X97223946Y-83716054D01*
X97092733Y-83556172D01*
X96995233Y-83373763D01*
X96975220Y-83307787D01*
X96935193Y-83175836D01*
X96914920Y-82970000D01*
X96935193Y-82764164D01*
X96975220Y-82632213D01*
X96995233Y-82566237D01*
X97092733Y-82383828D01*
X97223946Y-82223946D01*
X97383828Y-82092733D01*
X97566237Y-81995233D01*
X97632213Y-81975220D01*
X97764164Y-81935193D01*
X97841293Y-81927597D01*
X97918420Y-81920000D01*
X98021580Y-81920000D01*
X98098707Y-81927597D01*
X98098707Y-81927597D01*
G37*
G36*
X92128707Y-81577597D02*
X92205836Y-81585193D01*
X92337787Y-81625220D01*
X92403763Y-81645233D01*
X92586172Y-81742733D01*
X92746054Y-81873946D01*
X92877267Y-82033828D01*
X92974767Y-82216237D01*
X92974767Y-82216238D01*
X93034807Y-82414164D01*
X93055080Y-82620000D01*
X93034807Y-82825836D01*
X92994780Y-82957787D01*
X92974767Y-83023763D01*
X92877267Y-83206172D01*
X92746054Y-83366054D01*
X92586172Y-83497267D01*
X92403763Y-83594767D01*
X92337787Y-83614780D01*
X92205836Y-83654807D01*
X92153110Y-83660000D01*
X92051580Y-83670000D01*
X91948420Y-83670000D01*
X91846890Y-83660000D01*
X91794164Y-83654807D01*
X91662213Y-83614780D01*
X91596237Y-83594767D01*
X91413828Y-83497267D01*
X91253946Y-83366054D01*
X91122733Y-83206172D01*
X91025233Y-83023763D01*
X91005220Y-82957787D01*
X90965193Y-82825836D01*
X90944920Y-82620000D01*
X90965193Y-82414164D01*
X91025233Y-82216238D01*
X91025233Y-82216237D01*
X91122733Y-82033828D01*
X91253946Y-81873946D01*
X91413828Y-81742733D01*
X91596237Y-81645233D01*
X91662213Y-81625220D01*
X91794164Y-81585193D01*
X91871293Y-81577597D01*
X91948420Y-81570000D01*
X92051580Y-81570000D01*
X92128707Y-81577597D01*
X92128707Y-81577597D01*
G37*
G36*
X142340000Y-83050000D02*
X129660000Y-83050000D01*
X129660000Y-81150000D01*
X142340000Y-81150000D01*
X142340000Y-83050000D01*
X142340000Y-83050000D01*
G37*
G36*
X98098707Y-79387596D02*
X98175836Y-79395193D01*
X98307787Y-79435220D01*
X98373763Y-79455233D01*
X98556172Y-79552733D01*
X98716054Y-79683946D01*
X98847267Y-79843828D01*
X98944767Y-80026237D01*
X98964780Y-80092213D01*
X99004807Y-80224164D01*
X99025080Y-80430000D01*
X99004807Y-80635836D01*
X98964780Y-80767787D01*
X98944767Y-80833763D01*
X98847267Y-81016172D01*
X98716054Y-81176054D01*
X98556172Y-81307267D01*
X98373763Y-81404767D01*
X98307787Y-81424780D01*
X98175836Y-81464807D01*
X98098707Y-81472403D01*
X98021580Y-81480000D01*
X97918420Y-81480000D01*
X97841293Y-81472403D01*
X97764164Y-81464807D01*
X97632213Y-81424780D01*
X97566237Y-81404767D01*
X97383828Y-81307267D01*
X97223946Y-81176054D01*
X97092733Y-81016172D01*
X96995233Y-80833763D01*
X96975220Y-80767787D01*
X96935193Y-80635836D01*
X96914920Y-80430000D01*
X96935193Y-80224164D01*
X96975220Y-80092213D01*
X96995233Y-80026237D01*
X97092733Y-79843828D01*
X97223946Y-79683946D01*
X97383828Y-79552733D01*
X97566237Y-79455233D01*
X97632213Y-79435220D01*
X97764164Y-79395193D01*
X97841293Y-79387596D01*
X97918420Y-79380000D01*
X98021580Y-79380000D01*
X98098707Y-79387596D01*
X98098707Y-79387596D01*
G37*
G36*
X92128707Y-79037597D02*
X92205836Y-79045193D01*
X92337787Y-79085220D01*
X92403763Y-79105233D01*
X92586172Y-79202733D01*
X92746054Y-79333946D01*
X92877267Y-79493828D01*
X92974767Y-79676237D01*
X92974767Y-79676238D01*
X93034807Y-79874164D01*
X93055080Y-80080000D01*
X93034807Y-80285836D01*
X92994780Y-80417787D01*
X92974767Y-80483763D01*
X92877267Y-80666172D01*
X92746054Y-80826054D01*
X92586172Y-80957267D01*
X92403763Y-81054767D01*
X92337787Y-81074780D01*
X92205836Y-81114807D01*
X92128707Y-81122404D01*
X92051580Y-81130000D01*
X91948420Y-81130000D01*
X91871293Y-81122404D01*
X91794164Y-81114807D01*
X91662213Y-81074780D01*
X91596237Y-81054767D01*
X91413828Y-80957267D01*
X91253946Y-80826054D01*
X91122733Y-80666172D01*
X91025233Y-80483763D01*
X91005220Y-80417787D01*
X90965193Y-80285836D01*
X90944920Y-80080000D01*
X90965193Y-79874164D01*
X91025233Y-79676238D01*
X91025233Y-79676237D01*
X91122733Y-79493828D01*
X91253946Y-79333946D01*
X91413828Y-79202733D01*
X91596237Y-79105233D01*
X91662213Y-79085220D01*
X91794164Y-79045193D01*
X91871293Y-79037597D01*
X91948420Y-79030000D01*
X92051580Y-79030000D01*
X92128707Y-79037597D01*
X92128707Y-79037597D01*
G37*
G36*
X131300000Y-79800000D02*
X128900000Y-79800000D01*
X128900000Y-77800000D01*
X131300000Y-77800000D01*
X131300000Y-79800000D01*
X131300000Y-79800000D01*
G37*
G36*
X135300000Y-79800000D02*
X132900000Y-79800000D01*
X132900000Y-77800000D01*
X135300000Y-77800000D01*
X135300000Y-79800000D01*
X135300000Y-79800000D01*
G37*
G36*
X143300000Y-79700000D02*
X140900000Y-79700000D01*
X140900000Y-77700000D01*
X143300000Y-77700000D01*
X143300000Y-79700000D01*
X143300000Y-79700000D01*
G37*
G36*
X139300000Y-79700000D02*
X136900000Y-79700000D01*
X136900000Y-77700000D01*
X139300000Y-77700000D01*
X139300000Y-79700000D01*
X139300000Y-79700000D01*
G37*
G36*
X98098707Y-76847597D02*
X98175836Y-76855193D01*
X98307787Y-76895220D01*
X98373763Y-76915233D01*
X98556172Y-77012733D01*
X98716054Y-77143946D01*
X98847267Y-77303828D01*
X98944767Y-77486237D01*
X98964780Y-77552213D01*
X99004807Y-77684164D01*
X99025080Y-77890000D01*
X99004807Y-78095836D01*
X98964780Y-78227787D01*
X98944767Y-78293763D01*
X98847267Y-78476172D01*
X98716054Y-78636054D01*
X98556172Y-78767267D01*
X98373763Y-78864767D01*
X98307787Y-78884780D01*
X98175836Y-78924807D01*
X98098707Y-78932404D01*
X98021580Y-78940000D01*
X97918420Y-78940000D01*
X97841293Y-78932404D01*
X97764164Y-78924807D01*
X97632213Y-78884780D01*
X97566237Y-78864767D01*
X97383828Y-78767267D01*
X97223946Y-78636054D01*
X97092733Y-78476172D01*
X96995233Y-78293763D01*
X96975220Y-78227787D01*
X96935193Y-78095836D01*
X96914920Y-77890000D01*
X96935193Y-77684164D01*
X96975220Y-77552213D01*
X96995233Y-77486237D01*
X97092733Y-77303828D01*
X97223946Y-77143946D01*
X97383828Y-77012733D01*
X97566237Y-76915233D01*
X97632213Y-76895220D01*
X97764164Y-76855193D01*
X97841293Y-76847597D01*
X97918420Y-76840000D01*
X98021580Y-76840000D01*
X98098707Y-76847597D01*
X98098707Y-76847597D01*
G37*
G36*
X106996343Y-76034074D02*
X107175526Y-76088429D01*
X107175528Y-76088430D01*
X107175531Y-76088431D01*
X107340664Y-76176695D01*
X107485407Y-76295483D01*
X107604195Y-76440226D01*
X107692459Y-76605358D01*
X107692459Y-76605359D01*
X107692461Y-76605363D01*
X107746816Y-76784546D01*
X107760570Y-76924195D01*
X107760570Y-78015805D01*
X107746816Y-78155454D01*
X107704860Y-78293762D01*
X107692459Y-78334642D01*
X107604195Y-78499774D01*
X107485407Y-78644517D01*
X107340664Y-78763305D01*
X107175532Y-78851569D01*
X107175529Y-78851570D01*
X107175527Y-78851571D01*
X106996344Y-78905926D01*
X106810000Y-78924279D01*
X106623657Y-78905926D01*
X106444474Y-78851571D01*
X106444472Y-78851570D01*
X106444469Y-78851569D01*
X106279337Y-78763305D01*
X106134594Y-78644517D01*
X106015806Y-78499774D01*
X105927539Y-78334637D01*
X105873184Y-78155456D01*
X105859430Y-78015807D01*
X105859430Y-76924194D01*
X105866226Y-76855193D01*
X105873184Y-76784547D01*
X105927539Y-76605364D01*
X105927540Y-76605362D01*
X105927541Y-76605359D01*
X106015805Y-76440226D01*
X106134593Y-76295483D01*
X106279336Y-76176695D01*
X106444468Y-76088431D01*
X106444471Y-76088430D01*
X106444473Y-76088429D01*
X106623656Y-76034074D01*
X106810000Y-76015721D01*
X106996343Y-76034074D01*
X106996343Y-76034074D01*
G37*
G36*
X109536343Y-76034074D02*
X109715526Y-76088429D01*
X109715528Y-76088430D01*
X109715531Y-76088431D01*
X109880664Y-76176695D01*
X110025407Y-76295483D01*
X110144195Y-76440226D01*
X110232459Y-76605358D01*
X110232459Y-76605359D01*
X110232461Y-76605363D01*
X110286816Y-76784546D01*
X110300570Y-76924195D01*
X110300570Y-78015805D01*
X110286816Y-78155454D01*
X110244860Y-78293762D01*
X110232459Y-78334642D01*
X110144195Y-78499774D01*
X110025407Y-78644517D01*
X109880664Y-78763305D01*
X109715532Y-78851569D01*
X109715529Y-78851570D01*
X109715527Y-78851571D01*
X109536344Y-78905926D01*
X109350000Y-78924279D01*
X109163657Y-78905926D01*
X108984474Y-78851571D01*
X108984472Y-78851570D01*
X108984469Y-78851569D01*
X108819337Y-78763305D01*
X108674594Y-78644517D01*
X108555806Y-78499774D01*
X108467539Y-78334637D01*
X108413184Y-78155456D01*
X108399430Y-78015807D01*
X108399430Y-76924194D01*
X108406226Y-76855193D01*
X108413184Y-76784547D01*
X108467539Y-76605364D01*
X108467540Y-76605362D01*
X108467541Y-76605359D01*
X108555805Y-76440226D01*
X108674593Y-76295483D01*
X108819336Y-76176695D01*
X108984468Y-76088431D01*
X108984471Y-76088430D01*
X108984473Y-76088429D01*
X109163656Y-76034074D01*
X109350000Y-76015721D01*
X109536343Y-76034074D01*
X109536343Y-76034074D01*
G37*
G36*
X112076343Y-76034074D02*
X112255526Y-76088429D01*
X112255528Y-76088430D01*
X112255531Y-76088431D01*
X112420664Y-76176695D01*
X112565407Y-76295483D01*
X112684195Y-76440226D01*
X112772459Y-76605358D01*
X112772459Y-76605359D01*
X112772461Y-76605363D01*
X112826816Y-76784546D01*
X112840570Y-76924195D01*
X112840570Y-78015805D01*
X112826816Y-78155454D01*
X112784860Y-78293762D01*
X112772459Y-78334642D01*
X112684195Y-78499774D01*
X112565407Y-78644517D01*
X112420664Y-78763305D01*
X112255532Y-78851569D01*
X112255529Y-78851570D01*
X112255527Y-78851571D01*
X112076344Y-78905926D01*
X111890000Y-78924279D01*
X111703657Y-78905926D01*
X111524474Y-78851571D01*
X111524472Y-78851570D01*
X111524469Y-78851569D01*
X111359337Y-78763305D01*
X111214594Y-78644517D01*
X111095806Y-78499774D01*
X111007539Y-78334637D01*
X110953184Y-78155456D01*
X110939430Y-78015807D01*
X110939430Y-76924194D01*
X110946226Y-76855193D01*
X110953184Y-76784547D01*
X111007539Y-76605364D01*
X111007540Y-76605362D01*
X111007541Y-76605359D01*
X111095805Y-76440226D01*
X111214593Y-76295483D01*
X111359336Y-76176695D01*
X111524468Y-76088431D01*
X111524471Y-76088430D01*
X111524473Y-76088429D01*
X111703656Y-76034074D01*
X111890000Y-76015721D01*
X112076343Y-76034074D01*
X112076343Y-76034074D01*
G37*
G36*
X92128707Y-76497597D02*
X92205836Y-76505193D01*
X92337787Y-76545220D01*
X92403763Y-76565233D01*
X92586172Y-76662733D01*
X92746054Y-76793946D01*
X92877267Y-76953828D01*
X92974767Y-77136237D01*
X92974767Y-77136238D01*
X93034807Y-77334164D01*
X93055080Y-77540000D01*
X93034807Y-77745836D01*
X92994780Y-77877787D01*
X92974767Y-77943763D01*
X92877267Y-78126172D01*
X92746054Y-78286054D01*
X92586172Y-78417267D01*
X92403763Y-78514767D01*
X92337787Y-78534780D01*
X92205836Y-78574807D01*
X92128707Y-78582404D01*
X92051580Y-78590000D01*
X91948420Y-78590000D01*
X91871293Y-78582404D01*
X91794164Y-78574807D01*
X91662213Y-78534780D01*
X91596237Y-78514767D01*
X91413828Y-78417267D01*
X91253946Y-78286054D01*
X91122733Y-78126172D01*
X91025233Y-77943763D01*
X91005220Y-77877787D01*
X90965193Y-77745836D01*
X90944920Y-77540000D01*
X90965193Y-77334164D01*
X91025233Y-77136238D01*
X91025233Y-77136237D01*
X91122733Y-76953828D01*
X91253946Y-76793946D01*
X91413828Y-76662733D01*
X91596237Y-76565233D01*
X91662213Y-76545220D01*
X91794164Y-76505193D01*
X91871293Y-76497597D01*
X91948420Y-76490000D01*
X92051580Y-76490000D01*
X92128707Y-76497597D01*
X92128707Y-76497597D01*
G37*
G36*
X98098707Y-74307596D02*
X98175836Y-74315193D01*
X98307787Y-74355220D01*
X98373763Y-74375233D01*
X98556172Y-74472733D01*
X98716054Y-74603946D01*
X98847267Y-74763828D01*
X98944767Y-74946237D01*
X98944767Y-74946238D01*
X99004807Y-75144164D01*
X99025080Y-75350000D01*
X99004807Y-75555836D01*
X98964780Y-75687787D01*
X98944767Y-75753763D01*
X98847267Y-75936172D01*
X98716054Y-76096054D01*
X98556172Y-76227267D01*
X98373763Y-76324767D01*
X98307787Y-76344780D01*
X98175836Y-76384807D01*
X98098707Y-76392403D01*
X98021580Y-76400000D01*
X97918420Y-76400000D01*
X97841293Y-76392403D01*
X97764164Y-76384807D01*
X97632213Y-76344780D01*
X97566237Y-76324767D01*
X97383828Y-76227267D01*
X97223946Y-76096054D01*
X97092733Y-75936172D01*
X96995233Y-75753763D01*
X96975220Y-75687787D01*
X96935193Y-75555836D01*
X96914920Y-75350000D01*
X96935193Y-75144164D01*
X96995233Y-74946238D01*
X96995233Y-74946237D01*
X97092733Y-74763828D01*
X97223946Y-74603946D01*
X97383828Y-74472733D01*
X97566237Y-74375233D01*
X97632213Y-74355220D01*
X97764164Y-74315193D01*
X97841293Y-74307596D01*
X97918420Y-74300000D01*
X98021580Y-74300000D01*
X98098707Y-74307596D01*
X98098707Y-74307596D01*
G37*
G36*
X93050000Y-76050000D02*
X90950000Y-76050000D01*
X90950000Y-73950000D01*
X93050000Y-73950000D01*
X93050000Y-76050000D01*
X93050000Y-76050000D01*
G37*
G36*
X173620000Y-75610000D02*
X171620000Y-75610000D01*
X171620000Y-71710000D01*
X173620000Y-71710000D01*
X173620000Y-75610000D01*
X173620000Y-75610000D01*
G37*
G36*
X168740000Y-75610000D02*
X166740000Y-75610000D01*
X166740000Y-71710000D01*
X168740000Y-71710000D01*
X168740000Y-75610000D01*
X168740000Y-75610000D01*
G37*
G36*
X181000000Y-75110000D02*
X178600000Y-75110000D01*
X178600000Y-72210000D01*
X181000000Y-72210000D01*
X181000000Y-75110000D01*
X181000000Y-75110000D01*
G37*
G36*
X177000000Y-75110000D02*
X174600000Y-75110000D01*
X174600000Y-72210000D01*
X177000000Y-72210000D01*
X177000000Y-75110000D01*
X177000000Y-75110000D01*
G37*
G36*
X153236000Y-75102000D02*
X149336000Y-75102000D01*
X149336000Y-71202000D01*
X153236000Y-71202000D01*
X153236000Y-75102000D01*
X153236000Y-75102000D01*
G37*
G36*
X160036000Y-75102000D02*
X156136000Y-75102000D01*
X156136000Y-71202000D01*
X160036000Y-71202000D01*
X160036000Y-75102000D01*
X160036000Y-75102000D01*
G37*
G36*
X98098707Y-71767597D02*
X98175836Y-71775193D01*
X98307787Y-71815220D01*
X98373763Y-71835233D01*
X98556172Y-71932733D01*
X98716054Y-72063946D01*
X98847267Y-72223828D01*
X98944767Y-72406237D01*
X98944767Y-72406238D01*
X99004807Y-72604164D01*
X99025080Y-72810000D01*
X99004807Y-73015836D01*
X98964780Y-73147787D01*
X98944767Y-73213763D01*
X98847267Y-73396172D01*
X98716054Y-73556054D01*
X98556172Y-73687267D01*
X98373763Y-73784767D01*
X98307787Y-73804780D01*
X98175836Y-73844807D01*
X98098707Y-73852404D01*
X98021580Y-73860000D01*
X97918420Y-73860000D01*
X97841293Y-73852404D01*
X97764164Y-73844807D01*
X97632213Y-73804780D01*
X97566237Y-73784767D01*
X97383828Y-73687267D01*
X97223946Y-73556054D01*
X97092733Y-73396172D01*
X96995233Y-73213763D01*
X96975220Y-73147787D01*
X96935193Y-73015836D01*
X96914920Y-72810000D01*
X96935193Y-72604164D01*
X96995233Y-72406238D01*
X96995233Y-72406237D01*
X97092733Y-72223828D01*
X97223946Y-72063946D01*
X97383828Y-71932733D01*
X97566237Y-71835233D01*
X97632213Y-71815220D01*
X97764164Y-71775193D01*
X97841293Y-71767597D01*
X97918420Y-71760000D01*
X98021580Y-71760000D01*
X98098707Y-71767597D01*
X98098707Y-71767597D01*
G37*
G36*
X147050000Y-73304000D02*
X145050000Y-73304000D01*
X145050000Y-70904000D01*
X147050000Y-70904000D01*
X147050000Y-73304000D01*
X147050000Y-73304000D01*
G37*
G36*
X164872000Y-72500000D02*
X163672000Y-72500000D01*
X163672000Y-70200000D01*
X164872000Y-70200000D01*
X164872000Y-72500000D01*
X164872000Y-72500000D01*
G37*
G36*
X162972000Y-72500000D02*
X161772000Y-72500000D01*
X161772000Y-70200000D01*
X162972000Y-70200000D01*
X162972000Y-72500000D01*
X162972000Y-72500000D01*
G37*
G36*
X136059000Y-71976000D02*
X133909000Y-71976000D01*
X133909000Y-71026000D01*
X136059000Y-71026000D01*
X136059000Y-71976000D01*
X136059000Y-71976000D01*
G37*
G36*
X143459000Y-71976000D02*
X141309000Y-71976000D01*
X141309000Y-71026000D01*
X143459000Y-71026000D01*
X143459000Y-71976000D01*
X143459000Y-71976000D01*
G37*
G36*
X98098707Y-69227596D02*
X98175836Y-69235193D01*
X98307787Y-69275220D01*
X98373763Y-69295233D01*
X98556172Y-69392733D01*
X98716054Y-69523946D01*
X98847267Y-69683828D01*
X98944767Y-69866237D01*
X98944767Y-69866238D01*
X99004807Y-70064164D01*
X99025080Y-70270000D01*
X99004807Y-70475836D01*
X98964780Y-70607787D01*
X98944767Y-70673763D01*
X98847267Y-70856172D01*
X98716054Y-71016054D01*
X98556172Y-71147267D01*
X98373763Y-71244767D01*
X98307787Y-71264780D01*
X98175836Y-71304807D01*
X98098707Y-71312403D01*
X98021580Y-71320000D01*
X97918420Y-71320000D01*
X97841293Y-71312403D01*
X97764164Y-71304807D01*
X97632213Y-71264780D01*
X97566237Y-71244767D01*
X97383828Y-71147267D01*
X97223946Y-71016054D01*
X97092733Y-70856172D01*
X96995233Y-70673763D01*
X96975220Y-70607787D01*
X96935193Y-70475836D01*
X96914920Y-70270000D01*
X96935193Y-70064164D01*
X96995233Y-69866238D01*
X96995233Y-69866237D01*
X97092733Y-69683828D01*
X97223946Y-69523946D01*
X97383828Y-69392733D01*
X97566237Y-69295233D01*
X97632213Y-69275220D01*
X97764164Y-69235193D01*
X97841293Y-69227596D01*
X97918420Y-69220000D01*
X98021580Y-69220000D01*
X98098707Y-69227596D01*
X98098707Y-69227596D01*
G37*
G36*
X136059000Y-70706000D02*
X133909000Y-70706000D01*
X133909000Y-69756000D01*
X136059000Y-69756000D01*
X136059000Y-70706000D01*
X136059000Y-70706000D01*
G37*
G36*
X143459000Y-70706000D02*
X141309000Y-70706000D01*
X141309000Y-69756000D01*
X143459000Y-69756000D01*
X143459000Y-70706000D01*
X143459000Y-70706000D01*
G37*
G36*
X168486000Y-70276000D02*
X166486000Y-70276000D01*
X166486000Y-66376000D01*
X168486000Y-66376000D01*
X168486000Y-70276000D01*
X168486000Y-70276000D01*
G37*
G36*
X173366000Y-70276000D02*
X171366000Y-70276000D01*
X171366000Y-66376000D01*
X173366000Y-66376000D01*
X173366000Y-70276000D01*
X173366000Y-70276000D01*
G37*
G36*
X160290000Y-70022000D02*
X156390000Y-70022000D01*
X156390000Y-66122000D01*
X160290000Y-66122000D01*
X160290000Y-70022000D01*
X160290000Y-70022000D01*
G37*
G36*
X153490000Y-70022000D02*
X149590000Y-70022000D01*
X149590000Y-66122000D01*
X153490000Y-66122000D01*
X153490000Y-70022000D01*
X153490000Y-70022000D01*
G37*
G36*
X181000000Y-69776000D02*
X178600000Y-69776000D01*
X178600000Y-66876000D01*
X181000000Y-66876000D01*
X181000000Y-69776000D01*
X181000000Y-69776000D01*
G37*
G36*
X177000000Y-69776000D02*
X174600000Y-69776000D01*
X174600000Y-66876000D01*
X177000000Y-66876000D01*
X177000000Y-69776000D01*
X177000000Y-69776000D01*
G37*
G36*
X163922000Y-69500000D02*
X162722000Y-69500000D01*
X162722000Y-67200000D01*
X163922000Y-67200000D01*
X163922000Y-69500000D01*
X163922000Y-69500000D01*
G37*
G36*
X143459000Y-69436000D02*
X141309000Y-69436000D01*
X141309000Y-68486000D01*
X143459000Y-68486000D01*
X143459000Y-69436000D01*
X143459000Y-69436000D01*
G37*
G36*
X136059000Y-69436000D02*
X133909000Y-69436000D01*
X133909000Y-68486000D01*
X136059000Y-68486000D01*
X136059000Y-69436000D01*
X136059000Y-69436000D01*
G37*
G36*
X127930000Y-69326000D02*
X126530000Y-69326000D01*
X126530000Y-67326000D01*
X127930000Y-67326000D01*
X127930000Y-69326000D01*
X127930000Y-69326000D01*
G37*
G36*
X119088000Y-69326000D02*
X117688000Y-69326000D01*
X117688000Y-67326000D01*
X119088000Y-67326000D01*
X119088000Y-69326000D01*
X119088000Y-69326000D01*
G37*
G36*
X122088000Y-69326000D02*
X120688000Y-69326000D01*
X120688000Y-67326000D01*
X122088000Y-67326000D01*
X122088000Y-69326000D01*
X122088000Y-69326000D01*
G37*
G36*
X124930000Y-69326000D02*
X123530000Y-69326000D01*
X123530000Y-67326000D01*
X124930000Y-67326000D01*
X124930000Y-69326000D01*
X124930000Y-69326000D01*
G37*
G36*
X147050000Y-69304000D02*
X145050000Y-69304000D01*
X145050000Y-66904000D01*
X147050000Y-66904000D01*
X147050000Y-69304000D01*
X147050000Y-69304000D01*
G37*
G36*
X107570000Y-68880000D02*
X105170000Y-68880000D01*
X105170000Y-66780000D01*
X107570000Y-66780000D01*
X107570000Y-68880000D01*
X107570000Y-68880000D01*
G37*
G36*
X111570000Y-68880000D02*
X109170000Y-68880000D01*
X109170000Y-66780000D01*
X111570000Y-66780000D01*
X111570000Y-68880000D01*
X111570000Y-68880000D01*
G37*
G36*
X98098707Y-66687597D02*
X98175836Y-66695193D01*
X98307787Y-66735220D01*
X98373763Y-66755233D01*
X98556172Y-66852733D01*
X98716054Y-66983946D01*
X98847267Y-67143828D01*
X98944767Y-67326237D01*
X98944767Y-67326238D01*
X99004807Y-67524164D01*
X99025080Y-67730000D01*
X99004807Y-67935836D01*
X98964780Y-68067787D01*
X98944767Y-68133763D01*
X98847267Y-68316172D01*
X98716054Y-68476054D01*
X98556172Y-68607267D01*
X98373763Y-68704767D01*
X98307787Y-68724780D01*
X98175836Y-68764807D01*
X98098707Y-68772404D01*
X98021580Y-68780000D01*
X97918420Y-68780000D01*
X97841293Y-68772404D01*
X97764164Y-68764807D01*
X97632213Y-68724780D01*
X97566237Y-68704767D01*
X97383828Y-68607267D01*
X97223946Y-68476054D01*
X97092733Y-68316172D01*
X96995233Y-68133763D01*
X96975220Y-68067787D01*
X96935193Y-67935836D01*
X96914920Y-67730000D01*
X96935193Y-67524164D01*
X96995233Y-67326238D01*
X96995233Y-67326237D01*
X97092733Y-67143828D01*
X97223946Y-66983946D01*
X97383828Y-66852733D01*
X97566237Y-66755233D01*
X97632213Y-66735220D01*
X97764164Y-66695193D01*
X97841293Y-66687597D01*
X97918420Y-66680000D01*
X98021580Y-66680000D01*
X98098707Y-66687597D01*
X98098707Y-66687597D01*
G37*
G36*
X136059000Y-68166000D02*
X133909000Y-68166000D01*
X133909000Y-67216000D01*
X136059000Y-67216000D01*
X136059000Y-68166000D01*
X136059000Y-68166000D01*
G37*
G36*
X143459000Y-68166000D02*
X141309000Y-68166000D01*
X141309000Y-67216000D01*
X143459000Y-67216000D01*
X143459000Y-68166000D01*
X143459000Y-68166000D01*
G37*
G36*
X122312000Y-66720000D02*
X120312000Y-66720000D01*
X120312000Y-62820000D01*
X122312000Y-62820000D01*
X122312000Y-66720000D01*
X122312000Y-66720000D01*
G37*
G36*
X117432000Y-66720000D02*
X115432000Y-66720000D01*
X115432000Y-62820000D01*
X117432000Y-62820000D01*
X117432000Y-66720000D01*
X117432000Y-66720000D01*
G37*
G36*
X125946000Y-66582000D02*
X123546000Y-66582000D01*
X123546000Y-64482000D01*
X125946000Y-64482000D01*
X125946000Y-66582000D01*
X125946000Y-66582000D01*
G37*
G36*
X129946000Y-66582000D02*
X127546000Y-66582000D01*
X127546000Y-64482000D01*
X129946000Y-64482000D01*
X129946000Y-66582000D01*
X129946000Y-66582000D01*
G37*
G36*
X98098707Y-64147597D02*
X98175836Y-64155193D01*
X98307787Y-64195220D01*
X98373763Y-64215233D01*
X98556172Y-64312733D01*
X98716054Y-64443946D01*
X98847267Y-64603828D01*
X98944767Y-64786237D01*
X98944767Y-64786238D01*
X99004807Y-64984164D01*
X99025080Y-65190000D01*
X99004807Y-65395836D01*
X98964780Y-65527787D01*
X98944767Y-65593763D01*
X98847267Y-65776172D01*
X98716054Y-65936054D01*
X98556172Y-66067267D01*
X98373763Y-66164767D01*
X98307787Y-66184780D01*
X98175836Y-66224807D01*
X98098707Y-66232403D01*
X98021580Y-66240000D01*
X97918420Y-66240000D01*
X97841293Y-66232403D01*
X97764164Y-66224807D01*
X97632213Y-66184780D01*
X97566237Y-66164767D01*
X97383828Y-66067267D01*
X97223946Y-65936054D01*
X97092733Y-65776172D01*
X96995233Y-65593763D01*
X96975220Y-65527787D01*
X96935193Y-65395836D01*
X96914920Y-65190000D01*
X96935193Y-64984164D01*
X96995233Y-64786238D01*
X96995233Y-64786237D01*
X97092733Y-64603828D01*
X97223946Y-64443946D01*
X97383828Y-64312733D01*
X97566237Y-64215233D01*
X97632213Y-64195220D01*
X97764164Y-64155193D01*
X97841293Y-64147597D01*
X97918420Y-64140000D01*
X98021580Y-64140000D01*
X98098707Y-64147597D01*
X98098707Y-64147597D01*
G37*
G36*
X145456000Y-61452000D02*
X144056000Y-61452000D01*
X144056000Y-59452000D01*
X145456000Y-59452000D01*
X145456000Y-61452000D01*
X145456000Y-61452000D01*
G37*
G36*
X142456000Y-61452000D02*
X141056000Y-61452000D01*
X141056000Y-59452000D01*
X142456000Y-59452000D01*
X142456000Y-61452000D01*
X142456000Y-61452000D01*
G37*
G36*
X137122000Y-61452000D02*
X135722000Y-61452000D01*
X135722000Y-59452000D01*
X137122000Y-59452000D01*
X137122000Y-61452000D01*
X137122000Y-61452000D01*
G37*
G36*
X140122000Y-61452000D02*
X138722000Y-61452000D01*
X138722000Y-59452000D01*
X140122000Y-59452000D01*
X140122000Y-61452000D01*
X140122000Y-61452000D01*
G37*
G36*
X107300000Y-60700000D02*
X105300000Y-60700000D01*
X105300000Y-59300000D01*
X107300000Y-59300000D01*
X107300000Y-60700000D01*
X107300000Y-60700000D01*
G37*
G36*
X165935000Y-60629000D02*
X164265000Y-60629000D01*
X164265000Y-56719000D01*
X165935000Y-56719000D01*
X165935000Y-60629000D01*
X165935000Y-60629000D01*
G37*
G36*
X176857000Y-60629000D02*
X175187000Y-60629000D01*
X175187000Y-56719000D01*
X176857000Y-56719000D01*
X176857000Y-60629000D01*
X176857000Y-60629000D01*
G37*
G36*
X171523000Y-60629000D02*
X169853000Y-60629000D01*
X169853000Y-56719000D01*
X171523000Y-56719000D01*
X171523000Y-60629000D01*
X171523000Y-60629000D01*
G37*
G36*
X112400000Y-60600000D02*
X110400000Y-60600000D01*
X110400000Y-59200000D01*
X112400000Y-59200000D01*
X112400000Y-60600000D01*
X112400000Y-60600000D01*
G37*
G36*
X140092000Y-58338000D02*
X138092000Y-58338000D01*
X138092000Y-54438000D01*
X140092000Y-54438000D01*
X140092000Y-58338000D01*
X140092000Y-58338000D01*
G37*
G36*
X135212000Y-58338000D02*
X133212000Y-58338000D01*
X133212000Y-54438000D01*
X135212000Y-54438000D01*
X135212000Y-58338000D01*
X135212000Y-58338000D01*
G37*
G36*
X126980603Y-55824968D02*
X126980606Y-55824969D01*
X126980605Y-55824969D01*
X127155678Y-55897486D01*
X127155679Y-55897487D01*
X127313241Y-56002767D01*
X127447233Y-56136759D01*
X127447234Y-56136761D01*
X127552514Y-56294322D01*
X127608603Y-56429734D01*
X127625032Y-56469397D01*
X127662000Y-56655250D01*
X127662000Y-56844750D01*
X127625032Y-57030603D01*
X127625031Y-57030605D01*
X127552514Y-57205678D01*
X127552513Y-57205679D01*
X127447233Y-57363241D01*
X127313241Y-57497233D01*
X127233923Y-57550232D01*
X127155678Y-57602514D01*
X127020266Y-57658603D01*
X126980603Y-57675032D01*
X126794750Y-57712000D01*
X126605250Y-57712000D01*
X126419397Y-57675032D01*
X126379734Y-57658603D01*
X126244322Y-57602514D01*
X126166077Y-57550232D01*
X126086759Y-57497233D01*
X125952767Y-57363241D01*
X125847487Y-57205679D01*
X125847486Y-57205678D01*
X125774969Y-57030605D01*
X125774968Y-57030603D01*
X125738000Y-56844750D01*
X125738000Y-56655250D01*
X125774968Y-56469397D01*
X125791397Y-56429734D01*
X125847486Y-56294322D01*
X125952766Y-56136761D01*
X125952767Y-56136759D01*
X126086759Y-56002767D01*
X126244321Y-55897487D01*
X126244322Y-55897486D01*
X126419395Y-55824969D01*
X126419394Y-55824969D01*
X126419397Y-55824968D01*
X126605250Y-55788000D01*
X126794750Y-55788000D01*
X126980603Y-55824968D01*
X126980603Y-55824968D01*
G37*
G36*
X157080603Y-55824968D02*
X157080606Y-55824969D01*
X157080605Y-55824969D01*
X157255678Y-55897486D01*
X157255679Y-55897487D01*
X157413241Y-56002767D01*
X157547233Y-56136759D01*
X157547234Y-56136761D01*
X157652514Y-56294322D01*
X157708603Y-56429734D01*
X157725032Y-56469397D01*
X157762000Y-56655250D01*
X157762000Y-56844750D01*
X157725032Y-57030603D01*
X157725031Y-57030605D01*
X157652514Y-57205678D01*
X157652513Y-57205679D01*
X157547233Y-57363241D01*
X157413241Y-57497233D01*
X157333923Y-57550232D01*
X157255678Y-57602514D01*
X157120266Y-57658603D01*
X157080603Y-57675032D01*
X156894750Y-57712000D01*
X156705250Y-57712000D01*
X156519397Y-57675032D01*
X156479734Y-57658603D01*
X156344322Y-57602514D01*
X156266077Y-57550232D01*
X156186759Y-57497233D01*
X156052767Y-57363241D01*
X155947487Y-57205679D01*
X155947486Y-57205678D01*
X155874969Y-57030605D01*
X155874968Y-57030603D01*
X155838000Y-56844750D01*
X155838000Y-56655250D01*
X155874968Y-56469397D01*
X155891397Y-56429734D01*
X155947486Y-56294322D01*
X156052766Y-56136761D01*
X156052767Y-56136759D01*
X156186759Y-56002767D01*
X156344321Y-55897487D01*
X156344322Y-55897486D01*
X156519395Y-55824969D01*
X156519394Y-55824969D01*
X156519397Y-55824968D01*
X156705250Y-55788000D01*
X156894750Y-55788000D01*
X157080603Y-55824968D01*
X157080603Y-55824968D01*
G37*
G36*
X187180603Y-55824968D02*
X187180606Y-55824969D01*
X187180605Y-55824969D01*
X187355678Y-55897486D01*
X187355679Y-55897487D01*
X187513241Y-56002767D01*
X187647233Y-56136759D01*
X187647234Y-56136761D01*
X187752514Y-56294322D01*
X187808603Y-56429734D01*
X187825032Y-56469397D01*
X187862000Y-56655250D01*
X187862000Y-56844750D01*
X187825032Y-57030603D01*
X187825031Y-57030605D01*
X187752514Y-57205678D01*
X187752513Y-57205679D01*
X187647233Y-57363241D01*
X187513241Y-57497233D01*
X187433923Y-57550232D01*
X187355678Y-57602514D01*
X187220266Y-57658603D01*
X187180603Y-57675032D01*
X186994750Y-57712000D01*
X186805250Y-57712000D01*
X186619397Y-57675032D01*
X186579734Y-57658603D01*
X186444322Y-57602514D01*
X186366077Y-57550232D01*
X186286759Y-57497233D01*
X186152767Y-57363241D01*
X186047487Y-57205679D01*
X186047486Y-57205678D01*
X185974969Y-57030605D01*
X185974968Y-57030603D01*
X185938000Y-56844750D01*
X185938000Y-56655250D01*
X185974968Y-56469397D01*
X185991397Y-56429734D01*
X186047486Y-56294322D01*
X186152766Y-56136761D01*
X186152767Y-56136759D01*
X186286759Y-56002767D01*
X186444321Y-55897487D01*
X186444322Y-55897486D01*
X186619395Y-55824969D01*
X186619394Y-55824969D01*
X186619397Y-55824968D01*
X186805250Y-55788000D01*
X186994750Y-55788000D01*
X187180603Y-55824968D01*
X187180603Y-55824968D01*
G37*
G36*
X107300000Y-57700000D02*
X105300000Y-57700000D01*
X105300000Y-56300000D01*
X107300000Y-56300000D01*
X107300000Y-57700000D01*
X107300000Y-57700000D01*
G37*
G36*
X112400000Y-57600000D02*
X110400000Y-57600000D01*
X110400000Y-56200000D01*
X112400000Y-56200000D01*
X112400000Y-57600000D01*
X112400000Y-57600000D01*
G37*
G36*
X143472000Y-57438000D02*
X141072000Y-57438000D01*
X141072000Y-55338000D01*
X143472000Y-55338000D01*
X143472000Y-57438000D01*
X143472000Y-57438000D01*
G37*
G36*
X147472000Y-57438000D02*
X145072000Y-57438000D01*
X145072000Y-55338000D01*
X147472000Y-55338000D01*
X147472000Y-57438000D01*
X147472000Y-57438000D01*
G37*
G36*
X184430603Y-51424968D02*
X184430606Y-51424969D01*
X184430605Y-51424969D01*
X184605678Y-51497486D01*
X184605679Y-51497487D01*
X184763241Y-51602767D01*
X184897233Y-51736759D01*
X184897234Y-51736761D01*
X185002514Y-51894322D01*
X185054320Y-52019395D01*
X185075032Y-52069397D01*
X185112000Y-52255250D01*
X185112000Y-52444750D01*
X185075032Y-52630603D01*
X185075031Y-52630605D01*
X185002514Y-52805678D01*
X185002513Y-52805679D01*
X184897233Y-52963241D01*
X184763241Y-53097233D01*
X184683923Y-53150232D01*
X184605678Y-53202514D01*
X184470266Y-53258603D01*
X184430603Y-53275032D01*
X184244750Y-53312000D01*
X184055250Y-53312000D01*
X183869397Y-53275032D01*
X183829734Y-53258603D01*
X183694322Y-53202514D01*
X183616077Y-53150232D01*
X183536759Y-53097233D01*
X183402767Y-52963241D01*
X183297487Y-52805679D01*
X183297486Y-52805678D01*
X183224969Y-52630605D01*
X183224968Y-52630603D01*
X183188000Y-52444750D01*
X183188000Y-52255250D01*
X183224968Y-52069397D01*
X183245680Y-52019395D01*
X183297486Y-51894322D01*
X183402766Y-51736761D01*
X183402767Y-51736759D01*
X183536759Y-51602767D01*
X183694321Y-51497487D01*
X183694322Y-51497486D01*
X183869395Y-51424969D01*
X183869394Y-51424969D01*
X183869397Y-51424968D01*
X184055250Y-51388000D01*
X184244750Y-51388000D01*
X184430603Y-51424968D01*
X184430603Y-51424968D01*
G37*
G36*
X154330603Y-51424968D02*
X154330606Y-51424969D01*
X154330605Y-51424969D01*
X154505678Y-51497486D01*
X154505679Y-51497487D01*
X154663241Y-51602767D01*
X154797233Y-51736759D01*
X154797234Y-51736761D01*
X154902514Y-51894322D01*
X154954320Y-52019395D01*
X154975032Y-52069397D01*
X155012000Y-52255250D01*
X155012000Y-52444750D01*
X154975032Y-52630603D01*
X154975031Y-52630605D01*
X154902514Y-52805678D01*
X154902513Y-52805679D01*
X154797233Y-52963241D01*
X154663241Y-53097233D01*
X154583923Y-53150232D01*
X154505678Y-53202514D01*
X154370266Y-53258603D01*
X154330603Y-53275032D01*
X154144750Y-53312000D01*
X153955250Y-53312000D01*
X153769397Y-53275032D01*
X153729734Y-53258603D01*
X153594322Y-53202514D01*
X153516077Y-53150232D01*
X153436759Y-53097233D01*
X153302767Y-52963241D01*
X153197487Y-52805679D01*
X153197486Y-52805678D01*
X153124969Y-52630605D01*
X153124968Y-52630603D01*
X153088000Y-52444750D01*
X153088000Y-52255250D01*
X153124968Y-52069397D01*
X153145680Y-52019395D01*
X153197486Y-51894322D01*
X153302766Y-51736761D01*
X153302767Y-51736759D01*
X153436759Y-51602767D01*
X153594321Y-51497487D01*
X153594322Y-51497486D01*
X153769395Y-51424969D01*
X153769394Y-51424969D01*
X153769397Y-51424968D01*
X153955250Y-51388000D01*
X154144750Y-51388000D01*
X154330603Y-51424968D01*
X154330603Y-51424968D01*
G37*
G36*
X124230603Y-51424968D02*
X124230606Y-51424969D01*
X124230605Y-51424969D01*
X124405678Y-51497486D01*
X124405679Y-51497487D01*
X124563241Y-51602767D01*
X124697233Y-51736759D01*
X124697234Y-51736761D01*
X124802514Y-51894322D01*
X124854320Y-52019395D01*
X124875032Y-52069397D01*
X124912000Y-52255250D01*
X124912000Y-52444750D01*
X124875032Y-52630603D01*
X124875031Y-52630605D01*
X124802514Y-52805678D01*
X124802513Y-52805679D01*
X124697233Y-52963241D01*
X124563241Y-53097233D01*
X124483923Y-53150232D01*
X124405678Y-53202514D01*
X124270266Y-53258603D01*
X124230603Y-53275032D01*
X124044750Y-53312000D01*
X123855250Y-53312000D01*
X123669397Y-53275032D01*
X123629734Y-53258603D01*
X123494322Y-53202514D01*
X123416077Y-53150232D01*
X123336759Y-53097233D01*
X123202767Y-52963241D01*
X123097487Y-52805679D01*
X123097486Y-52805678D01*
X123024969Y-52630605D01*
X123024968Y-52630603D01*
X122988000Y-52444750D01*
X122988000Y-52255250D01*
X123024968Y-52069397D01*
X123045680Y-52019395D01*
X123097486Y-51894322D01*
X123202766Y-51736761D01*
X123202767Y-51736759D01*
X123336759Y-51602767D01*
X123494321Y-51497487D01*
X123494322Y-51497486D01*
X123669395Y-51424969D01*
X123669394Y-51424969D01*
X123669397Y-51424968D01*
X123855250Y-51388000D01*
X124044750Y-51388000D01*
X124230603Y-51424968D01*
X124230603Y-51424968D01*
G37*
G36*
X149130603Y-51374968D02*
X149130606Y-51374969D01*
X149130605Y-51374969D01*
X149305678Y-51447486D01*
X149380509Y-51497487D01*
X149463241Y-51552767D01*
X149597233Y-51686759D01*
X149597234Y-51686761D01*
X149702514Y-51844322D01*
X149758603Y-51979734D01*
X149775032Y-52019397D01*
X149812000Y-52205250D01*
X149812000Y-52394750D01*
X149775032Y-52580603D01*
X149775031Y-52580605D01*
X149702514Y-52755678D01*
X149702513Y-52755679D01*
X149597233Y-52913241D01*
X149463241Y-53047233D01*
X149383923Y-53100232D01*
X149305678Y-53152514D01*
X149184969Y-53202513D01*
X149130603Y-53225032D01*
X148944750Y-53262000D01*
X148755250Y-53262000D01*
X148569397Y-53225032D01*
X148515031Y-53202513D01*
X148394322Y-53152514D01*
X148316077Y-53100232D01*
X148236759Y-53047233D01*
X148102767Y-52913241D01*
X147997487Y-52755679D01*
X147997486Y-52755678D01*
X147924969Y-52580605D01*
X147924968Y-52580603D01*
X147888000Y-52394750D01*
X147888000Y-52205250D01*
X147924968Y-52019397D01*
X147941397Y-51979734D01*
X147997486Y-51844322D01*
X148102766Y-51686761D01*
X148102767Y-51686759D01*
X148236759Y-51552767D01*
X148319491Y-51497487D01*
X148394322Y-51447486D01*
X148569395Y-51374969D01*
X148569394Y-51374969D01*
X148569397Y-51374968D01*
X148755250Y-51338000D01*
X148944750Y-51338000D01*
X149130603Y-51374968D01*
X149130603Y-51374968D01*
G37*
G36*
X119030603Y-51374968D02*
X119030606Y-51374969D01*
X119030605Y-51374969D01*
X119205678Y-51447486D01*
X119280509Y-51497487D01*
X119363241Y-51552767D01*
X119497233Y-51686759D01*
X119497234Y-51686761D01*
X119602514Y-51844322D01*
X119658603Y-51979734D01*
X119675032Y-52019397D01*
X119712000Y-52205250D01*
X119712000Y-52394750D01*
X119675032Y-52580603D01*
X119675031Y-52580605D01*
X119602514Y-52755678D01*
X119602513Y-52755679D01*
X119497233Y-52913241D01*
X119363241Y-53047233D01*
X119283923Y-53100232D01*
X119205678Y-53152514D01*
X119084969Y-53202513D01*
X119030603Y-53225032D01*
X118844750Y-53262000D01*
X118655250Y-53262000D01*
X118469397Y-53225032D01*
X118415031Y-53202513D01*
X118294322Y-53152514D01*
X118216077Y-53100232D01*
X118136759Y-53047233D01*
X118002767Y-52913241D01*
X117897487Y-52755679D01*
X117897486Y-52755678D01*
X117824969Y-52580605D01*
X117824968Y-52580603D01*
X117788000Y-52394750D01*
X117788000Y-52205250D01*
X117824968Y-52019397D01*
X117841397Y-51979734D01*
X117897486Y-51844322D01*
X118002766Y-51686761D01*
X118002767Y-51686759D01*
X118136759Y-51552767D01*
X118219491Y-51497487D01*
X118294322Y-51447486D01*
X118469395Y-51374969D01*
X118469394Y-51374969D01*
X118469397Y-51374968D01*
X118655250Y-51338000D01*
X118844750Y-51338000D01*
X119030603Y-51374968D01*
X119030603Y-51374968D01*
G37*
G36*
X179230603Y-51374968D02*
X179230606Y-51374969D01*
X179230605Y-51374969D01*
X179405678Y-51447486D01*
X179480509Y-51497487D01*
X179563241Y-51552767D01*
X179697233Y-51686759D01*
X179697234Y-51686761D01*
X179802514Y-51844322D01*
X179858603Y-51979734D01*
X179875032Y-52019397D01*
X179912000Y-52205250D01*
X179912000Y-52394750D01*
X179875032Y-52580603D01*
X179875031Y-52580605D01*
X179802514Y-52755678D01*
X179802513Y-52755679D01*
X179697233Y-52913241D01*
X179563241Y-53047233D01*
X179483923Y-53100232D01*
X179405678Y-53152514D01*
X179284969Y-53202513D01*
X179230603Y-53225032D01*
X179044750Y-53262000D01*
X178855250Y-53262000D01*
X178669397Y-53225032D01*
X178615031Y-53202513D01*
X178494322Y-53152514D01*
X178416077Y-53100232D01*
X178336759Y-53047233D01*
X178202767Y-52913241D01*
X178097487Y-52755679D01*
X178097486Y-52755678D01*
X178024969Y-52580605D01*
X178024968Y-52580603D01*
X177988000Y-52394750D01*
X177988000Y-52205250D01*
X178024968Y-52019397D01*
X178041397Y-51979734D01*
X178097486Y-51844322D01*
X178202766Y-51686761D01*
X178202767Y-51686759D01*
X178336759Y-51552767D01*
X178419491Y-51497487D01*
X178494322Y-51447486D01*
X178669395Y-51374969D01*
X178669394Y-51374969D01*
X178669397Y-51374968D01*
X178855250Y-51338000D01*
X179044750Y-51338000D01*
X179230603Y-51374968D01*
X179230603Y-51374968D01*
G37*
G36*
X179230603Y-45924968D02*
X179230606Y-45924969D01*
X179230605Y-45924969D01*
X179405678Y-45997486D01*
X179405679Y-45997487D01*
X179563241Y-46102767D01*
X179697233Y-46236759D01*
X179697234Y-46236761D01*
X179802514Y-46394322D01*
X179858603Y-46529734D01*
X179875032Y-46569397D01*
X179912000Y-46755250D01*
X179912000Y-46944750D01*
X179875032Y-47130603D01*
X179875031Y-47130605D01*
X179802514Y-47305678D01*
X179802513Y-47305679D01*
X179697233Y-47463241D01*
X179563241Y-47597233D01*
X179483923Y-47650232D01*
X179405678Y-47702514D01*
X179270266Y-47758603D01*
X179230603Y-47775032D01*
X179044750Y-47812000D01*
X178855250Y-47812000D01*
X178669397Y-47775032D01*
X178629734Y-47758603D01*
X178494322Y-47702514D01*
X178416077Y-47650232D01*
X178336759Y-47597233D01*
X178202767Y-47463241D01*
X178097487Y-47305679D01*
X178097486Y-47305678D01*
X178024969Y-47130605D01*
X178024968Y-47130603D01*
X177988000Y-46944750D01*
X177988000Y-46755250D01*
X178024968Y-46569397D01*
X178041397Y-46529734D01*
X178097486Y-46394322D01*
X178202766Y-46236761D01*
X178202767Y-46236759D01*
X178336759Y-46102767D01*
X178494321Y-45997487D01*
X178494322Y-45997486D01*
X178669395Y-45924969D01*
X178669394Y-45924969D01*
X178669397Y-45924968D01*
X178855250Y-45888000D01*
X179044750Y-45888000D01*
X179230603Y-45924968D01*
X179230603Y-45924968D01*
G37*
G36*
X149130603Y-45924968D02*
X149130606Y-45924969D01*
X149130605Y-45924969D01*
X149305678Y-45997486D01*
X149305679Y-45997487D01*
X149463241Y-46102767D01*
X149597233Y-46236759D01*
X149597234Y-46236761D01*
X149702514Y-46394322D01*
X149758603Y-46529734D01*
X149775032Y-46569397D01*
X149812000Y-46755250D01*
X149812000Y-46944750D01*
X149775032Y-47130603D01*
X149775031Y-47130605D01*
X149702514Y-47305678D01*
X149702513Y-47305679D01*
X149597233Y-47463241D01*
X149463241Y-47597233D01*
X149383923Y-47650232D01*
X149305678Y-47702514D01*
X149170266Y-47758603D01*
X149130603Y-47775032D01*
X148944750Y-47812000D01*
X148755250Y-47812000D01*
X148569397Y-47775032D01*
X148529734Y-47758603D01*
X148394322Y-47702514D01*
X148316077Y-47650232D01*
X148236759Y-47597233D01*
X148102767Y-47463241D01*
X147997487Y-47305679D01*
X147997486Y-47305678D01*
X147924969Y-47130605D01*
X147924968Y-47130603D01*
X147888000Y-46944750D01*
X147888000Y-46755250D01*
X147924968Y-46569397D01*
X147941397Y-46529734D01*
X147997486Y-46394322D01*
X148102766Y-46236761D01*
X148102767Y-46236759D01*
X148236759Y-46102767D01*
X148394321Y-45997487D01*
X148394322Y-45997486D01*
X148569395Y-45924969D01*
X148569394Y-45924969D01*
X148569397Y-45924968D01*
X148755250Y-45888000D01*
X148944750Y-45888000D01*
X149130603Y-45924968D01*
X149130603Y-45924968D01*
G37*
G36*
X119030603Y-45924968D02*
X119030606Y-45924969D01*
X119030605Y-45924969D01*
X119205678Y-45997486D01*
X119205679Y-45997487D01*
X119363241Y-46102767D01*
X119497233Y-46236759D01*
X119497234Y-46236761D01*
X119602514Y-46394322D01*
X119658603Y-46529734D01*
X119675032Y-46569397D01*
X119712000Y-46755250D01*
X119712000Y-46944750D01*
X119675032Y-47130603D01*
X119675031Y-47130605D01*
X119602514Y-47305678D01*
X119602513Y-47305679D01*
X119497233Y-47463241D01*
X119363241Y-47597233D01*
X119283923Y-47650232D01*
X119205678Y-47702514D01*
X119070266Y-47758603D01*
X119030603Y-47775032D01*
X118844750Y-47812000D01*
X118655250Y-47812000D01*
X118469397Y-47775032D01*
X118429734Y-47758603D01*
X118294322Y-47702514D01*
X118216077Y-47650232D01*
X118136759Y-47597233D01*
X118002767Y-47463241D01*
X117897487Y-47305679D01*
X117897486Y-47305678D01*
X117824969Y-47130605D01*
X117824968Y-47130603D01*
X117788000Y-46944750D01*
X117788000Y-46755250D01*
X117824968Y-46569397D01*
X117841397Y-46529734D01*
X117897486Y-46394322D01*
X118002766Y-46236761D01*
X118002767Y-46236759D01*
X118136759Y-46102767D01*
X118294321Y-45997487D01*
X118294322Y-45997486D01*
X118469395Y-45924969D01*
X118469394Y-45924969D01*
X118469397Y-45924968D01*
X118655250Y-45888000D01*
X118844750Y-45888000D01*
X119030603Y-45924968D01*
X119030603Y-45924968D01*
G37*
M02*
