G04 #@! TF.GenerationSoftware,KiCad,Pcbnew,5.0.2-bee76a0~70~ubuntu18.10.1*
G04 #@! TF.CreationDate,2019-09-10T08:14:00-04:00*
G04 #@! TF.ProjectId,Helios,48656c69-6f73-42e6-9b69-6361645f7063,rev?*
G04 #@! TF.SameCoordinates,Original*
G04 #@! TF.FileFunction,Legend,Top*
G04 #@! TF.FilePolarity,Positive*
%FSLAX46Y46*%
G04 Gerber Fmt 4.6, Leading zero omitted, Abs format (unit mm)*
G04 Created by KiCad (PCBNEW 5.0.2-bee76a0~70~ubuntu18.10.1) date Tue 10 Sep 2019 08:14:00 AM EDT*
%MOMM*%
%LPD*%
G01*
G04 APERTURE LIST*
%ADD10C,0.300000*%
%ADD11C,0.100000*%
%ADD12C,0.120000*%
%ADD13C,0.150000*%
G04 APERTURE END LIST*
D10*
X169833777Y-65203331D02*
X170190920Y-66703331D01*
X170476634Y-65631902D01*
X170762348Y-66703331D01*
X171119491Y-65203331D01*
X171548062Y-65203331D02*
X172548062Y-66703331D01*
X172548062Y-65203331D02*
X171548062Y-66703331D01*
X170120417Y-55740691D02*
X169620417Y-55026405D01*
X169263274Y-55740691D02*
X169263274Y-54240691D01*
X169834702Y-54240691D01*
X169977560Y-54312120D01*
X170048988Y-54383548D01*
X170120417Y-54526405D01*
X170120417Y-54740691D01*
X170048988Y-54883548D01*
X169977560Y-54954977D01*
X169834702Y-55026405D01*
X169263274Y-55026405D01*
X170548988Y-54240691D02*
X171406131Y-54240691D01*
X170977560Y-55740691D02*
X170977560Y-54240691D01*
X171906131Y-55740691D02*
X171906131Y-54240691D01*
X172263274Y-54240691D01*
X172477560Y-54312120D01*
X172620417Y-54454977D01*
X172691845Y-54597834D01*
X172763274Y-54883548D01*
X172763274Y-55097834D01*
X172691845Y-55383548D01*
X172620417Y-55526405D01*
X172477560Y-55669262D01*
X172263274Y-55740691D01*
X171906131Y-55740691D01*
D11*
X184853408Y-52385136D02*
G75*
G03X184853408Y-52385136I-700000J0D01*
G01*
X179661986Y-52343143D02*
G75*
G03X179661986Y-52343143I-700000J0D01*
G01*
X184853408Y-126146397D02*
G75*
G03X184853408Y-126146397I-700000J0D01*
G01*
X179661986Y-126188381D02*
G75*
G03X179661986Y-126188381I-700000J0D01*
G01*
X124653411Y-126146397D02*
G75*
G03X124653411Y-126146397I-700000J0D01*
G01*
X127401702Y-121741932D02*
G75*
G03X127401702Y-121741932I-700000J0D01*
G01*
X119461989Y-126188381D02*
G75*
G03X119461989Y-126188381I-700000J0D01*
G01*
X127401702Y-56789600D02*
G75*
G03X127401702Y-56789600I-700000J0D01*
G01*
X119427215Y-46879520D02*
G75*
G03X119427215Y-46879520I-700000J0D01*
G01*
X119461989Y-52343143D02*
G75*
G03X119461989Y-52343143I-700000J0D01*
G01*
X119427215Y-131652016D02*
G75*
G03X119427215Y-131652016I-700000J0D01*
G01*
X154753402Y-52385136D02*
G75*
G03X154753402Y-52385136I-700000J0D01*
G01*
X154753402Y-126146397D02*
G75*
G03X154753402Y-126146397I-700000J0D01*
G01*
X157501708Y-121741932D02*
G75*
G03X157501708Y-121741932I-700000J0D01*
G01*
X149561995Y-126188381D02*
G75*
G03X149561995Y-126188381I-700000J0D01*
G01*
X157501708Y-56789600D02*
G75*
G03X157501708Y-56789600I-700000J0D01*
G01*
X149527205Y-46879520D02*
G75*
G03X149527205Y-46879520I-700000J0D01*
G01*
X149561995Y-52343143D02*
G75*
G03X149561995Y-52343143I-700000J0D01*
G01*
X149527205Y-131652016D02*
G75*
G03X149527205Y-131652016I-700000J0D01*
G01*
X187601714Y-56789600D02*
G75*
G03X187601714Y-56789600I-700000J0D01*
G01*
X187601714Y-121741932D02*
G75*
G03X187601714Y-121741932I-700000J0D01*
G01*
X124653411Y-52385136D02*
G75*
G03X124653411Y-52385136I-700000J0D01*
G01*
X179627211Y-46879520D02*
G75*
G03X179627211Y-46879520I-700000J0D01*
G01*
X179627211Y-131652016D02*
G75*
G03X179627211Y-131652016I-700000J0D01*
G01*
X183243404Y-52385136D02*
X185063396Y-52385136D01*
X184153408Y-51475132D02*
X184153408Y-53295139D01*
X178051998Y-52343143D02*
X179871990Y-52343143D01*
X178961986Y-51433155D02*
X178961986Y-53253147D01*
X183243404Y-126146397D02*
X185063396Y-126146397D01*
X184153408Y-125236393D02*
X184153408Y-127056393D01*
X178051998Y-126188381D02*
X179871990Y-126188381D01*
X178961986Y-125278385D02*
X178961986Y-127098377D01*
X123043407Y-126146397D02*
X124863399Y-126146397D01*
X123953411Y-125236393D02*
X123953411Y-127056393D01*
X125791698Y-121741932D02*
X127611705Y-121741932D01*
X126701702Y-120831928D02*
X126701702Y-122651928D01*
X117852001Y-126188381D02*
X119671993Y-126188381D01*
X118761989Y-125278385D02*
X118761989Y-127098377D01*
X125791698Y-56789600D02*
X127611705Y-56789600D01*
X126701702Y-55879612D02*
X126701702Y-57699604D01*
X117817211Y-46879520D02*
X119637203Y-46879520D01*
X118727215Y-45969517D02*
X118727215Y-47789524D01*
X117852001Y-52343143D02*
X119671993Y-52343143D01*
X118761989Y-51433155D02*
X118761989Y-53253147D01*
X117817211Y-131652016D02*
X119637203Y-131652016D01*
X118727215Y-130742016D02*
X118727215Y-132562016D01*
X153143398Y-52385136D02*
X154963405Y-52385136D01*
X154053402Y-51475132D02*
X154053402Y-53295139D01*
X153143398Y-126146397D02*
X154963405Y-126146397D01*
X154053402Y-125236393D02*
X154053402Y-127056393D01*
X155891704Y-121741932D02*
X157711712Y-121741932D01*
X156801708Y-120831928D02*
X156801708Y-122651928D01*
X147951992Y-126188381D02*
X149771984Y-126188381D01*
X148861995Y-125278385D02*
X148861995Y-127098377D01*
X155891704Y-56789600D02*
X157711712Y-56789600D01*
X156801708Y-55879612D02*
X156801708Y-57699604D01*
X147917202Y-46879520D02*
X149737209Y-46879520D01*
X148827205Y-45969517D02*
X148827205Y-47789524D01*
X147951992Y-52343143D02*
X149771984Y-52343143D01*
X148861995Y-51433155D02*
X148861995Y-53253147D01*
X147917202Y-131652016D02*
X149737209Y-131652016D01*
X148827205Y-130742016D02*
X148827205Y-132562016D01*
X185991710Y-56789600D02*
X187811702Y-56789600D01*
X186901714Y-55879612D02*
X186901714Y-57699604D01*
X185991710Y-121741932D02*
X187811702Y-121741932D01*
X186901714Y-120831928D02*
X186901714Y-122651928D01*
X123043407Y-52385136D02*
X124863399Y-52385136D01*
X123953411Y-51475132D02*
X123953411Y-53295139D01*
X178017208Y-46879520D02*
X179837200Y-46879520D01*
X178927211Y-45969517D02*
X178927211Y-47789524D01*
X178017208Y-131652016D02*
X179837200Y-131652016D01*
X178927211Y-130742016D02*
X178927211Y-132562016D01*
D10*
X90261428Y-110442857D02*
X91761428Y-110442857D01*
X91047142Y-110442857D02*
X91047142Y-111300000D01*
X90261428Y-111300000D02*
X91761428Y-111300000D01*
X90332857Y-112585714D02*
X90261428Y-112442857D01*
X90261428Y-112157142D01*
X90332857Y-112014285D01*
X90475714Y-111942857D01*
X91047142Y-111942857D01*
X91190000Y-112014285D01*
X91261428Y-112157142D01*
X91261428Y-112442857D01*
X91190000Y-112585714D01*
X91047142Y-112657142D01*
X90904285Y-112657142D01*
X90761428Y-111942857D01*
X90261428Y-113514285D02*
X90332857Y-113371428D01*
X90475714Y-113300000D01*
X91761428Y-113300000D01*
X90261428Y-114085714D02*
X91261428Y-114085714D01*
X91761428Y-114085714D02*
X91690000Y-114014285D01*
X91618571Y-114085714D01*
X91690000Y-114157142D01*
X91761428Y-114085714D01*
X91618571Y-114085714D01*
X90261428Y-115014285D02*
X90332857Y-114871428D01*
X90404285Y-114800000D01*
X90547142Y-114728571D01*
X90975714Y-114728571D01*
X91118571Y-114800000D01*
X91190000Y-114871428D01*
X91261428Y-115014285D01*
X91261428Y-115228571D01*
X91190000Y-115371428D01*
X91118571Y-115442857D01*
X90975714Y-115514285D01*
X90547142Y-115514285D01*
X90404285Y-115442857D01*
X90332857Y-115371428D01*
X90261428Y-115228571D01*
X90261428Y-115014285D01*
X90332857Y-116085714D02*
X90261428Y-116228571D01*
X90261428Y-116514285D01*
X90332857Y-116657142D01*
X90475714Y-116728571D01*
X90547142Y-116728571D01*
X90690000Y-116657142D01*
X90761428Y-116514285D01*
X90761428Y-116300000D01*
X90832857Y-116157142D01*
X90975714Y-116085714D01*
X91047142Y-116085714D01*
X91190000Y-116157142D01*
X91261428Y-116300000D01*
X91261428Y-116514285D01*
X91190000Y-116657142D01*
X91761428Y-118300000D02*
X90261428Y-118800000D01*
X91761428Y-119300000D01*
X90261428Y-120585714D02*
X90261428Y-119728571D01*
X90261428Y-120157142D02*
X91761428Y-120157142D01*
X91547142Y-120014285D01*
X91404285Y-119871428D01*
X91332857Y-119728571D01*
X90404285Y-121228571D02*
X90332857Y-121300000D01*
X90261428Y-121228571D01*
X90332857Y-121157142D01*
X90404285Y-121228571D01*
X90261428Y-121228571D01*
X91761428Y-122657142D02*
X91761428Y-121942857D01*
X91047142Y-121871428D01*
X91118571Y-121942857D01*
X91190000Y-122085714D01*
X91190000Y-122442857D01*
X91118571Y-122585714D01*
X91047142Y-122657142D01*
X90904285Y-122728571D01*
X90547142Y-122728571D01*
X90404285Y-122657142D01*
X90332857Y-122585714D01*
X90261428Y-122442857D01*
X90261428Y-122085714D01*
X90332857Y-121942857D01*
X90404285Y-121871428D01*
D12*
G04 #@! TO.C,R5*
X134193936Y-60146500D02*
X135398064Y-60146500D01*
X134193936Y-61966500D02*
X135398064Y-61966500D01*
G04 #@! TO.C,C2*
X148987000Y-85061936D02*
X148987000Y-86266064D01*
X147167000Y-85061936D02*
X147167000Y-86266064D01*
G04 #@! TO.C,C1*
X109456000Y-98183800D02*
X109456000Y-96633800D01*
X109456000Y-92853800D02*
X109456000Y-94403800D01*
X114796000Y-93613800D02*
X114796000Y-94403800D01*
X114796000Y-97423800D02*
X114796000Y-96633800D01*
X109456000Y-98183800D02*
X114036000Y-98183800D01*
X114036000Y-98183800D02*
X114796000Y-97423800D01*
X114796000Y-93613800D02*
X114036000Y-92853800D01*
X114036000Y-92853800D02*
X109456000Y-92853800D01*
G04 #@! TO.C,CON1*
X169117000Y-98718700D02*
X169117000Y-93518700D01*
X158897000Y-98718700D02*
X169117000Y-98718700D01*
X156297000Y-93518700D02*
X169117000Y-93518700D01*
X158897000Y-98718700D02*
X158897000Y-96118700D01*
X158897000Y-96118700D02*
X156297000Y-96118700D01*
X156297000Y-96118700D02*
X156297000Y-93518700D01*
X157627000Y-98718700D02*
X156297000Y-98718700D01*
X156297000Y-98718700D02*
X156297000Y-97388700D01*
D13*
G04 #@! TO.C,U2*
X128875000Y-82875000D02*
X128875000Y-83525000D01*
X143125000Y-82875000D02*
X143125000Y-83635000D01*
X143125000Y-97125000D02*
X143125000Y-96365000D01*
X128875000Y-97125000D02*
X128875000Y-96365000D01*
X128875000Y-82875000D02*
X129635000Y-82875000D01*
X128875000Y-97125000D02*
X129635000Y-97125000D01*
X143125000Y-97125000D02*
X142365000Y-97125000D01*
X143125000Y-82875000D02*
X142365000Y-82875000D01*
X128875000Y-83525000D02*
X127350000Y-83525000D01*
G04 #@! TO.C,U3*
X135934000Y-66391000D02*
X135934000Y-67046000D01*
X141434000Y-66391000D02*
X141434000Y-67141000D01*
X141434000Y-72801000D02*
X141434000Y-72051000D01*
X135934000Y-72801000D02*
X135934000Y-72051000D01*
X135934000Y-66391000D02*
X141434000Y-66391000D01*
X135934000Y-72801000D02*
X141434000Y-72801000D01*
X135934000Y-67046000D02*
X134184000Y-67046000D01*
G04 #@! TO.C,U4*
X101065000Y-106535000D02*
X101065000Y-106885000D01*
X106815000Y-106535000D02*
X106815000Y-106985000D01*
X106815000Y-114185000D02*
X106815000Y-113735000D01*
X101065000Y-114185000D02*
X101065000Y-113735000D01*
X101065000Y-106535000D02*
X106815000Y-106535000D01*
X101065000Y-114185000D02*
X106815000Y-114185000D01*
X101065000Y-106885000D02*
X99465000Y-106885000D01*
G04 #@! TO.C,U5*
X119335000Y-107765000D02*
X119335000Y-108115000D01*
X125085000Y-107765000D02*
X125085000Y-108215000D01*
X125085000Y-115415000D02*
X125085000Y-114965000D01*
X119335000Y-115415000D02*
X119335000Y-114965000D01*
X119335000Y-107765000D02*
X125085000Y-107765000D01*
X119335000Y-115415000D02*
X125085000Y-115415000D01*
X119335000Y-108115000D02*
X117735000Y-108115000D01*
G04 #@! TO.C,U6*
X139455000Y-108995000D02*
X139455000Y-109345000D01*
X145205000Y-108995000D02*
X145205000Y-109445000D01*
X145205000Y-116645000D02*
X145205000Y-116195000D01*
X139455000Y-116645000D02*
X139455000Y-116195000D01*
X139455000Y-108995000D02*
X145205000Y-108995000D01*
X139455000Y-116645000D02*
X145205000Y-116645000D01*
X139455000Y-109345000D02*
X137855000Y-109345000D01*
G04 #@! TO.C,U7*
X157645000Y-107925000D02*
X157645000Y-108275000D01*
X163395000Y-107925000D02*
X163395000Y-108375000D01*
X163395000Y-115575000D02*
X163395000Y-115125000D01*
X157645000Y-115575000D02*
X157645000Y-115125000D01*
X157645000Y-107925000D02*
X163395000Y-107925000D01*
X157645000Y-115575000D02*
X163395000Y-115575000D01*
X157645000Y-108275000D02*
X156045000Y-108275000D01*
G04 #@! TO.C,U8*
X174565000Y-107835000D02*
X174565000Y-108185000D01*
X180315000Y-107835000D02*
X180315000Y-108285000D01*
X180315000Y-115485000D02*
X180315000Y-115035000D01*
X174565000Y-115485000D02*
X174565000Y-115035000D01*
X174565000Y-107835000D02*
X180315000Y-107835000D01*
X174565000Y-115485000D02*
X180315000Y-115485000D01*
X174565000Y-108185000D02*
X172965000Y-108185000D01*
G04 #@! TO.C,U1*
X113167000Y-75686900D02*
X113167000Y-76829900D01*
X116215000Y-75686900D02*
X116215000Y-76829900D01*
X120025000Y-76829900D02*
X120025000Y-80512900D01*
X120025000Y-80512900D02*
X109357000Y-80512900D01*
X109357000Y-80512900D02*
X109357000Y-76829900D01*
X120025000Y-75686900D02*
X120025000Y-76829900D01*
X120025000Y-76829900D02*
X109357000Y-76829900D01*
X109357000Y-76829900D02*
X109357000Y-75686900D01*
X114691000Y-75686900D02*
X109357000Y-75686900D01*
X114691000Y-75686900D02*
X120025000Y-75686900D01*
G04 #@! TO.C,J1*
X115135000Y-132459000D02*
X112935000Y-128259000D01*
X112935000Y-128259000D02*
X127235000Y-118509000D01*
X127235000Y-118509000D02*
X129335000Y-121909000D01*
G04 #@! TO.C,J2*
X157425000Y-118529000D02*
X159525000Y-121929000D01*
X143125000Y-128279000D02*
X157425000Y-118529000D01*
X145325000Y-132479000D02*
X143125000Y-128279000D01*
G04 #@! TO.C,J3*
X175302000Y-132494000D02*
X173102000Y-128294000D01*
X173102000Y-128294000D02*
X187402000Y-118544000D01*
X187402000Y-118544000D02*
X189502000Y-121944000D01*
G04 #@! TO.C,J4*
X127250000Y-60068400D02*
X129350000Y-56668400D01*
X112950000Y-50318400D02*
X127250000Y-60068400D01*
X115150000Y-46118400D02*
X112950000Y-50318400D01*
G04 #@! TO.C,J5*
X145269000Y-46103200D02*
X143069000Y-50303200D01*
X143069000Y-50303200D02*
X157369000Y-60053200D01*
X157369000Y-60053200D02*
X159469000Y-56653200D01*
G04 #@! TO.C,J6*
X175409000Y-46143800D02*
X173209000Y-50343800D01*
X173209000Y-50343800D02*
X187509000Y-60093800D01*
X187509000Y-60093800D02*
X189609000Y-56693800D01*
D12*
G04 #@! TO.C,F5*
X96596748Y-56933500D02*
X99369252Y-56933500D01*
X96596748Y-60353500D02*
X99369252Y-60353500D01*
G04 #@! TO.C,Q1*
X180726000Y-99554100D02*
X180726000Y-98294100D01*
X180726000Y-92734100D02*
X180726000Y-93994100D01*
X176966000Y-99554100D02*
X180726000Y-99554100D01*
X174716000Y-92734100D02*
X180726000Y-92734100D01*
G04 #@! TO.C,R13*
X159313064Y-83495600D02*
X158108936Y-83495600D01*
X159313064Y-81675600D02*
X158108936Y-81675600D01*
G04 #@! TO.C,R14*
X96402636Y-66177800D02*
X97606764Y-66177800D01*
X96402636Y-64357800D02*
X97606764Y-64357800D01*
G04 #@! TO.C,J7*
X100151400Y-73589800D02*
G75*
G02X98151400Y-73589800I-1000000J0D01*
G01*
X98151400Y-73589800D02*
X96501400Y-73589800D01*
X96501400Y-73589800D02*
X96501400Y-99109800D01*
X96501400Y-99109800D02*
X101801400Y-99109800D01*
X101801400Y-99109800D02*
X101801400Y-73589800D01*
X101801400Y-73589800D02*
X100151400Y-73589800D01*
X94011400Y-73529800D02*
X94011400Y-99169800D01*
X94011400Y-99169800D02*
X104291400Y-99169800D01*
X104291400Y-99169800D02*
X104291400Y-73529800D01*
X104291400Y-73529800D02*
X94011400Y-73529800D01*
G04 #@! TO.C,R15*
X182549936Y-60227800D02*
X183754064Y-60227800D01*
X182549936Y-62047800D02*
X183754064Y-62047800D01*
G04 #@! TO.C,R16*
X182610936Y-66868700D02*
X183815064Y-66868700D01*
X182610936Y-65048700D02*
X183815064Y-65048700D01*
D13*
G04 #@! TO.C,SW1*
X169609000Y-57029800D02*
X169609000Y-63429800D01*
X160609000Y-57029800D02*
X169609000Y-57029800D01*
X160609000Y-64229800D02*
X160609000Y-57029800D01*
X168809000Y-64229800D02*
X160609000Y-64229800D01*
X169609000Y-63429800D02*
X168809000Y-64229800D01*
G04 #@! TO.C,SW2*
X179376000Y-63446400D02*
X178576000Y-64246400D01*
X178576000Y-64246400D02*
X170376000Y-64246400D01*
X170376000Y-64246400D02*
X170376000Y-57046400D01*
X170376000Y-57046400D02*
X179376000Y-57046400D01*
X179376000Y-57046400D02*
X179376000Y-63446400D01*
D12*
G04 #@! TO.C,D3*
X163713000Y-73261400D02*
X162783000Y-73261400D01*
X160553000Y-73261400D02*
X161483000Y-73261400D01*
X160553000Y-73261400D02*
X160553000Y-75421400D01*
X163713000Y-73261400D02*
X163713000Y-74721400D01*
G04 #@! TO.C,R1*
X112669936Y-63922300D02*
X113874064Y-63922300D01*
X112669936Y-62102300D02*
X113874064Y-62102300D01*
G04 #@! TO.C,C6*
X131926936Y-76422800D02*
X133131064Y-76422800D01*
X131926936Y-78242800D02*
X133131064Y-78242800D01*
G04 #@! TO.C,C7*
X140654936Y-78273300D02*
X141859064Y-78273300D01*
X140654936Y-76453300D02*
X141859064Y-76453300D01*
G04 #@! TO.C,R7*
X125608936Y-63621200D02*
X126813064Y-63621200D01*
X125608936Y-65441200D02*
X126813064Y-65441200D01*
G04 #@! TO.C,C3*
X147233000Y-92181136D02*
X147233000Y-93385264D01*
X149053000Y-92181136D02*
X149053000Y-93385264D01*
G04 #@! TO.C,R4*
X172364936Y-86538500D02*
X173569064Y-86538500D01*
X172364936Y-84718500D02*
X173569064Y-84718500D01*
G04 #@! TO.C,R6*
X177947936Y-84693100D02*
X179152064Y-84693100D01*
X177947936Y-86513100D02*
X179152064Y-86513100D01*
G04 #@! TO.C,C11*
X107137064Y-102448000D02*
X105932936Y-102448000D01*
X107137064Y-104268000D02*
X105932936Y-104268000D01*
G04 #@! TO.C,C12*
X100680064Y-102438000D02*
X99475936Y-102438000D01*
X100680064Y-104258000D02*
X99475936Y-104258000D01*
G04 #@! TO.C,C13*
X104344064Y-118847000D02*
X103139936Y-118847000D01*
X104344064Y-117027000D02*
X103139936Y-117027000D01*
G04 #@! TO.C,C14*
X124604936Y-104261000D02*
X125809064Y-104261000D01*
X124604936Y-106081000D02*
X125809064Y-106081000D01*
G04 #@! TO.C,C15*
X118584936Y-106071000D02*
X119789064Y-106071000D01*
X118584936Y-104251000D02*
X119789064Y-104251000D01*
G04 #@! TO.C,C16*
X122746064Y-119812000D02*
X121541936Y-119812000D01*
X122746064Y-117992000D02*
X121541936Y-117992000D01*
G04 #@! TO.C,C17*
X145577936Y-105409000D02*
X146782064Y-105409000D01*
X145577936Y-107229000D02*
X146782064Y-107229000D01*
G04 #@! TO.C,C18*
X138665936Y-107245000D02*
X139870064Y-107245000D01*
X138665936Y-105425000D02*
X139870064Y-105425000D01*
G04 #@! TO.C,C19*
X142996064Y-121585000D02*
X141791936Y-121585000D01*
X142996064Y-119765000D02*
X141791936Y-119765000D01*
G04 #@! TO.C,C20*
X162135936Y-105563000D02*
X163340064Y-105563000D01*
X162135936Y-103743000D02*
X163340064Y-103743000D01*
G04 #@! TO.C,C21*
X156590936Y-104012000D02*
X157795064Y-104012000D01*
X156590936Y-105832000D02*
X157795064Y-105832000D01*
G04 #@! TO.C,C22*
X160893064Y-118587000D02*
X159688936Y-118587000D01*
X160893064Y-120407000D02*
X159688936Y-120407000D01*
G04 #@! TO.C,C23*
X179582936Y-104241000D02*
X180787064Y-104241000D01*
X179582936Y-106061000D02*
X180787064Y-106061000D01*
G04 #@! TO.C,C24*
X173522936Y-104155000D02*
X174727064Y-104155000D01*
X173522936Y-105975000D02*
X174727064Y-105975000D01*
G04 #@! TO.C,C25*
X177794064Y-118765000D02*
X176589936Y-118765000D01*
X177794064Y-120585000D02*
X176589936Y-120585000D01*
G04 #@! TO.C,R8*
X96906800Y-109831936D02*
X96906800Y-111036064D01*
X95086800Y-109831936D02*
X95086800Y-111036064D01*
G04 #@! TO.C,R9*
X113222000Y-110815936D02*
X113222000Y-112020064D01*
X115042000Y-110815936D02*
X115042000Y-112020064D01*
G04 #@! TO.C,R10*
X135139000Y-111952936D02*
X135139000Y-113157064D01*
X133319000Y-111952936D02*
X133319000Y-113157064D01*
G04 #@! TO.C,R11*
X151475000Y-111175936D02*
X151475000Y-112380064D01*
X153295000Y-111175936D02*
X153295000Y-112380064D01*
G04 #@! TO.C,R12*
X170440000Y-110881936D02*
X170440000Y-112086064D01*
X168620000Y-110881936D02*
X168620000Y-112086064D01*
G04 #@! TO.C,C4*
X146959936Y-100096000D02*
X148164064Y-100096000D01*
X146959936Y-101916000D02*
X148164064Y-101916000D01*
G04 #@! TO.C,C5*
X131317936Y-104075000D02*
X132522064Y-104075000D01*
X131317936Y-102255000D02*
X132522064Y-102255000D01*
G04 #@! TO.C,C8*
X122244000Y-92917864D02*
X122244000Y-91713736D01*
X124064000Y-92917864D02*
X124064000Y-91713736D01*
G04 #@! TO.C,C9*
X124136000Y-85438064D02*
X124136000Y-84233936D01*
X122316000Y-85438064D02*
X122316000Y-84233936D01*
G04 #@! TO.C,C10*
X145877000Y-70302664D02*
X145877000Y-69098536D01*
X147697000Y-70302664D02*
X147697000Y-69098536D01*
G04 #@! TO.C,F1*
X171002252Y-72315800D02*
X168229748Y-72315800D01*
X171002252Y-75735800D02*
X168229748Y-75735800D01*
G04 #@! TO.C,F2*
X171140252Y-81100200D02*
X168367748Y-81100200D01*
X171140252Y-77680200D02*
X168367748Y-77680200D01*
G04 #@! TO.C,F3*
X118408748Y-65845000D02*
X121181252Y-65845000D01*
X118408748Y-62425000D02*
X121181252Y-62425000D01*
G04 #@! TO.C,F4*
X137256748Y-53895700D02*
X140029252Y-53895700D01*
X137256748Y-57315700D02*
X140029252Y-57315700D01*
G04 #@! TO.C,J8*
X183739000Y-79786500D02*
X186399000Y-79786500D01*
X183739000Y-79786500D02*
X183739000Y-92546500D01*
X183739000Y-92546500D02*
X186399000Y-92546500D01*
X186399000Y-79786500D02*
X186399000Y-92546500D01*
X186399000Y-77186500D02*
X186399000Y-78516500D01*
X185069000Y-77186500D02*
X186399000Y-77186500D01*
G04 #@! TO.C,RV1*
X177398936Y-75192700D02*
X178603064Y-75192700D01*
X177398936Y-72472700D02*
X178603064Y-72472700D01*
G04 #@! TO.C,RV2*
X177365936Y-77862600D02*
X178570064Y-77862600D01*
X177365936Y-80582600D02*
X178570064Y-80582600D01*
G04 #@! TO.C,D1*
X117889000Y-58880000D02*
X117889000Y-54995000D01*
X117889000Y-54995000D02*
X115619000Y-54995000D01*
X115619000Y-54995000D02*
X115619000Y-58880000D01*
G04 #@! TO.C,D2*
X112915000Y-59473600D02*
X112915000Y-55588600D01*
X110645000Y-59473600D02*
X112915000Y-59473600D01*
X110645000Y-55588600D02*
X110645000Y-59473600D01*
G04 #@! TO.C,D4*
X100727000Y-66372400D02*
X104612000Y-66372400D01*
X100727000Y-64102400D02*
X100727000Y-66372400D01*
X104612000Y-64102400D02*
X100727000Y-64102400D01*
G04 #@! TO.C,D5*
X143208000Y-60033300D02*
X139323000Y-60033300D01*
X139323000Y-60033300D02*
X139323000Y-62303300D01*
X139323000Y-62303300D02*
X143208000Y-62303300D01*
G04 #@! TO.C,D6*
X120495000Y-69527800D02*
X116610000Y-69527800D01*
X116610000Y-69527800D02*
X116610000Y-71797800D01*
X116610000Y-71797800D02*
X120495000Y-71797800D01*
G04 #@! TO.C,D7*
X126779000Y-69527800D02*
X122894000Y-69527800D01*
X122894000Y-69527800D02*
X122894000Y-71797800D01*
X122894000Y-71797800D02*
X126779000Y-71797800D01*
G04 #@! TO.C,D8*
X156851000Y-89537200D02*
X160736000Y-89537200D01*
X156851000Y-87267200D02*
X156851000Y-89537200D01*
X160736000Y-87267200D02*
X156851000Y-87267200D01*
G04 #@! TO.C,D9*
X162724000Y-89435600D02*
X166609000Y-89435600D01*
X162724000Y-87165600D02*
X162724000Y-89435600D01*
X166609000Y-87165600D02*
X162724000Y-87165600D01*
G04 #@! TO.C,R5*
D13*
X134629333Y-59688880D02*
X134296000Y-59212690D01*
X134057904Y-59688880D02*
X134057904Y-58688880D01*
X134438857Y-58688880D01*
X134534095Y-58736500D01*
X134581714Y-58784119D01*
X134629333Y-58879357D01*
X134629333Y-59022214D01*
X134581714Y-59117452D01*
X134534095Y-59165071D01*
X134438857Y-59212690D01*
X134057904Y-59212690D01*
X135534095Y-58688880D02*
X135057904Y-58688880D01*
X135010285Y-59165071D01*
X135057904Y-59117452D01*
X135153142Y-59069833D01*
X135391238Y-59069833D01*
X135486476Y-59117452D01*
X135534095Y-59165071D01*
X135581714Y-59260309D01*
X135581714Y-59498404D01*
X135534095Y-59593642D01*
X135486476Y-59641261D01*
X135391238Y-59688880D01*
X135153142Y-59688880D01*
X135057904Y-59641261D01*
X135010285Y-59593642D01*
G04 #@! TO.C,C2*
X150254142Y-85830666D02*
X150301761Y-85878285D01*
X150349380Y-86021142D01*
X150349380Y-86116380D01*
X150301761Y-86259238D01*
X150206523Y-86354476D01*
X150111285Y-86402095D01*
X149920809Y-86449714D01*
X149777952Y-86449714D01*
X149587476Y-86402095D01*
X149492238Y-86354476D01*
X149397000Y-86259238D01*
X149349380Y-86116380D01*
X149349380Y-86021142D01*
X149397000Y-85878285D01*
X149444619Y-85830666D01*
X149444619Y-85449714D02*
X149397000Y-85402095D01*
X149349380Y-85306857D01*
X149349380Y-85068761D01*
X149397000Y-84973523D01*
X149444619Y-84925904D01*
X149539857Y-84878285D01*
X149635095Y-84878285D01*
X149777952Y-84925904D01*
X150349380Y-85497333D01*
X150349380Y-84878285D01*
G04 #@! TO.C,C1*
X111959333Y-91930942D02*
X111911714Y-91978561D01*
X111768857Y-92026180D01*
X111673619Y-92026180D01*
X111530761Y-91978561D01*
X111435523Y-91883323D01*
X111387904Y-91788085D01*
X111340285Y-91597609D01*
X111340285Y-91454752D01*
X111387904Y-91264276D01*
X111435523Y-91169038D01*
X111530761Y-91073800D01*
X111673619Y-91026180D01*
X111768857Y-91026180D01*
X111911714Y-91073800D01*
X111959333Y-91121419D01*
X112911714Y-92026180D02*
X112340285Y-92026180D01*
X112626000Y-92026180D02*
X112626000Y-91026180D01*
X112530761Y-91169038D01*
X112435523Y-91264276D01*
X112340285Y-91311895D01*
X110578380Y-99866180D02*
X110006952Y-99866180D01*
X110292666Y-99866180D02*
X110292666Y-98866180D01*
X110197428Y-99009038D01*
X110102190Y-99104276D01*
X110006952Y-99151895D01*
X111197428Y-98866180D02*
X111292666Y-98866180D01*
X111387904Y-98913800D01*
X111435523Y-98961419D01*
X111483142Y-99056657D01*
X111530761Y-99247133D01*
X111530761Y-99485228D01*
X111483142Y-99675704D01*
X111435523Y-99770942D01*
X111387904Y-99818561D01*
X111292666Y-99866180D01*
X111197428Y-99866180D01*
X111102190Y-99818561D01*
X111054571Y-99770942D01*
X111006952Y-99675704D01*
X110959333Y-99485228D01*
X110959333Y-99247133D01*
X111006952Y-99056657D01*
X111054571Y-98961419D01*
X111102190Y-98913800D01*
X111197428Y-98866180D01*
X112149809Y-98866180D02*
X112245047Y-98866180D01*
X112340285Y-98913800D01*
X112387904Y-98961419D01*
X112435523Y-99056657D01*
X112483142Y-99247133D01*
X112483142Y-99485228D01*
X112435523Y-99675704D01*
X112387904Y-99770942D01*
X112340285Y-99818561D01*
X112245047Y-99866180D01*
X112149809Y-99866180D01*
X112054571Y-99818561D01*
X112006952Y-99770942D01*
X111959333Y-99675704D01*
X111911714Y-99485228D01*
X111911714Y-99247133D01*
X111959333Y-99056657D01*
X112006952Y-98961419D01*
X112054571Y-98913800D01*
X112149809Y-98866180D01*
X113340285Y-99199514D02*
X113340285Y-99866180D01*
X112911714Y-99199514D02*
X112911714Y-99723323D01*
X112959333Y-99818561D01*
X113054571Y-99866180D01*
X113197428Y-99866180D01*
X113292666Y-99818561D01*
X113340285Y-99770942D01*
X114149809Y-99342371D02*
X113816476Y-99342371D01*
X113816476Y-99866180D02*
X113816476Y-98866180D01*
X114292666Y-98866180D01*
X115125047Y-93225228D02*
X115886952Y-93225228D01*
X115506000Y-93606180D02*
X115506000Y-92844276D01*
G04 #@! TO.C,CON1*
X155654142Y-97332985D02*
X155701761Y-97380604D01*
X155749380Y-97523461D01*
X155749380Y-97618700D01*
X155701761Y-97761557D01*
X155606523Y-97856795D01*
X155511285Y-97904414D01*
X155320809Y-97952033D01*
X155177952Y-97952033D01*
X154987476Y-97904414D01*
X154892238Y-97856795D01*
X154797000Y-97761557D01*
X154749380Y-97618700D01*
X154749380Y-97523461D01*
X154797000Y-97380604D01*
X154844619Y-97332985D01*
X154749380Y-96713938D02*
X154749380Y-96523461D01*
X154797000Y-96428223D01*
X154892238Y-96332985D01*
X155082714Y-96285366D01*
X155416047Y-96285366D01*
X155606523Y-96332985D01*
X155701761Y-96428223D01*
X155749380Y-96523461D01*
X155749380Y-96713938D01*
X155701761Y-96809176D01*
X155606523Y-96904414D01*
X155416047Y-96952033D01*
X155082714Y-96952033D01*
X154892238Y-96904414D01*
X154797000Y-96809176D01*
X154749380Y-96713938D01*
X155749380Y-95856795D02*
X154749380Y-95856795D01*
X155749380Y-95285366D01*
X154749380Y-95285366D01*
X155749380Y-94285366D02*
X155749380Y-94856795D01*
X155749380Y-94571080D02*
X154749380Y-94571080D01*
X154892238Y-94666319D01*
X154987476Y-94761557D01*
X155035095Y-94856795D01*
G04 #@! TO.C,U2*
X135238095Y-79802380D02*
X135238095Y-80611904D01*
X135285714Y-80707142D01*
X135333333Y-80754761D01*
X135428571Y-80802380D01*
X135619047Y-80802380D01*
X135714285Y-80754761D01*
X135761904Y-80707142D01*
X135809523Y-80611904D01*
X135809523Y-79802380D01*
X136238095Y-79897619D02*
X136285714Y-79850000D01*
X136380952Y-79802380D01*
X136619047Y-79802380D01*
X136714285Y-79850000D01*
X136761904Y-79897619D01*
X136809523Y-79992857D01*
X136809523Y-80088095D01*
X136761904Y-80230952D01*
X136190476Y-80802380D01*
X136809523Y-80802380D01*
G04 #@! TO.C,U3*
X137922095Y-64918380D02*
X137922095Y-65727904D01*
X137969714Y-65823142D01*
X138017333Y-65870761D01*
X138112571Y-65918380D01*
X138303047Y-65918380D01*
X138398285Y-65870761D01*
X138445904Y-65823142D01*
X138493523Y-65727904D01*
X138493523Y-64918380D01*
X138874476Y-64918380D02*
X139493523Y-64918380D01*
X139160190Y-65299333D01*
X139303047Y-65299333D01*
X139398285Y-65346952D01*
X139445904Y-65394571D01*
X139493523Y-65489809D01*
X139493523Y-65727904D01*
X139445904Y-65823142D01*
X139398285Y-65870761D01*
X139303047Y-65918380D01*
X139017333Y-65918380D01*
X138922095Y-65870761D01*
X138874476Y-65823142D01*
G04 #@! TO.C,U4*
X103178095Y-105062380D02*
X103178095Y-105871904D01*
X103225714Y-105967142D01*
X103273333Y-106014761D01*
X103368571Y-106062380D01*
X103559047Y-106062380D01*
X103654285Y-106014761D01*
X103701904Y-105967142D01*
X103749523Y-105871904D01*
X103749523Y-105062380D01*
X104654285Y-105395714D02*
X104654285Y-106062380D01*
X104416190Y-105014761D02*
X104178095Y-105729047D01*
X104797142Y-105729047D01*
G04 #@! TO.C,U5*
X121448095Y-106292380D02*
X121448095Y-107101904D01*
X121495714Y-107197142D01*
X121543333Y-107244761D01*
X121638571Y-107292380D01*
X121829047Y-107292380D01*
X121924285Y-107244761D01*
X121971904Y-107197142D01*
X122019523Y-107101904D01*
X122019523Y-106292380D01*
X122971904Y-106292380D02*
X122495714Y-106292380D01*
X122448095Y-106768571D01*
X122495714Y-106720952D01*
X122590952Y-106673333D01*
X122829047Y-106673333D01*
X122924285Y-106720952D01*
X122971904Y-106768571D01*
X123019523Y-106863809D01*
X123019523Y-107101904D01*
X122971904Y-107197142D01*
X122924285Y-107244761D01*
X122829047Y-107292380D01*
X122590952Y-107292380D01*
X122495714Y-107244761D01*
X122448095Y-107197142D01*
G04 #@! TO.C,U6*
X141568095Y-107522380D02*
X141568095Y-108331904D01*
X141615714Y-108427142D01*
X141663333Y-108474761D01*
X141758571Y-108522380D01*
X141949047Y-108522380D01*
X142044285Y-108474761D01*
X142091904Y-108427142D01*
X142139523Y-108331904D01*
X142139523Y-107522380D01*
X143044285Y-107522380D02*
X142853809Y-107522380D01*
X142758571Y-107570000D01*
X142710952Y-107617619D01*
X142615714Y-107760476D01*
X142568095Y-107950952D01*
X142568095Y-108331904D01*
X142615714Y-108427142D01*
X142663333Y-108474761D01*
X142758571Y-108522380D01*
X142949047Y-108522380D01*
X143044285Y-108474761D01*
X143091904Y-108427142D01*
X143139523Y-108331904D01*
X143139523Y-108093809D01*
X143091904Y-107998571D01*
X143044285Y-107950952D01*
X142949047Y-107903333D01*
X142758571Y-107903333D01*
X142663333Y-107950952D01*
X142615714Y-107998571D01*
X142568095Y-108093809D01*
G04 #@! TO.C,U7*
X159758095Y-106452380D02*
X159758095Y-107261904D01*
X159805714Y-107357142D01*
X159853333Y-107404761D01*
X159948571Y-107452380D01*
X160139047Y-107452380D01*
X160234285Y-107404761D01*
X160281904Y-107357142D01*
X160329523Y-107261904D01*
X160329523Y-106452380D01*
X160710476Y-106452380D02*
X161377142Y-106452380D01*
X160948571Y-107452380D01*
G04 #@! TO.C,U8*
X176678095Y-106362380D02*
X176678095Y-107171904D01*
X176725714Y-107267142D01*
X176773333Y-107314761D01*
X176868571Y-107362380D01*
X177059047Y-107362380D01*
X177154285Y-107314761D01*
X177201904Y-107267142D01*
X177249523Y-107171904D01*
X177249523Y-106362380D01*
X177868571Y-106790952D02*
X177773333Y-106743333D01*
X177725714Y-106695714D01*
X177678095Y-106600476D01*
X177678095Y-106552857D01*
X177725714Y-106457619D01*
X177773333Y-106410000D01*
X177868571Y-106362380D01*
X178059047Y-106362380D01*
X178154285Y-106410000D01*
X178201904Y-106457619D01*
X178249523Y-106552857D01*
X178249523Y-106600476D01*
X178201904Y-106695714D01*
X178154285Y-106743333D01*
X178059047Y-106790952D01*
X177868571Y-106790952D01*
X177773333Y-106838571D01*
X177725714Y-106886190D01*
X177678095Y-106981428D01*
X177678095Y-107171904D01*
X177725714Y-107267142D01*
X177773333Y-107314761D01*
X177868571Y-107362380D01*
X178059047Y-107362380D01*
X178154285Y-107314761D01*
X178201904Y-107267142D01*
X178249523Y-107171904D01*
X178249523Y-106981428D01*
X178201904Y-106886190D01*
X178154285Y-106838571D01*
X178059047Y-106790952D01*
G04 #@! TO.C,U1*
X113929095Y-73107280D02*
X113929095Y-73916804D01*
X113976714Y-74012042D01*
X114024333Y-74059661D01*
X114119571Y-74107280D01*
X114310047Y-74107280D01*
X114405285Y-74059661D01*
X114452904Y-74012042D01*
X114500523Y-73916804D01*
X114500523Y-73107280D01*
X115500523Y-74107280D02*
X114929095Y-74107280D01*
X115214809Y-74107280D02*
X115214809Y-73107280D01*
X115119571Y-73250138D01*
X115024333Y-73345376D01*
X114929095Y-73392995D01*
G04 #@! TO.C,J1*
X123701666Y-123061380D02*
X123701666Y-123775666D01*
X123654047Y-123918523D01*
X123558809Y-124013761D01*
X123415952Y-124061380D01*
X123320714Y-124061380D01*
X124701666Y-124061380D02*
X124130238Y-124061380D01*
X124415952Y-124061380D02*
X124415952Y-123061380D01*
X124320714Y-123204238D01*
X124225476Y-123299476D01*
X124130238Y-123347095D01*
G04 #@! TO.C,J2*
X153891666Y-123081380D02*
X153891666Y-123795666D01*
X153844047Y-123938523D01*
X153748809Y-124033761D01*
X153605952Y-124081380D01*
X153510714Y-124081380D01*
X154320238Y-123176619D02*
X154367857Y-123129000D01*
X154463095Y-123081380D01*
X154701190Y-123081380D01*
X154796428Y-123129000D01*
X154844047Y-123176619D01*
X154891666Y-123271857D01*
X154891666Y-123367095D01*
X154844047Y-123509952D01*
X154272619Y-124081380D01*
X154891666Y-124081380D01*
G04 #@! TO.C,J3*
X183868666Y-123096380D02*
X183868666Y-123810666D01*
X183821047Y-123953523D01*
X183725809Y-124048761D01*
X183582952Y-124096380D01*
X183487714Y-124096380D01*
X184249619Y-123096380D02*
X184868666Y-123096380D01*
X184535333Y-123477333D01*
X184678190Y-123477333D01*
X184773428Y-123524952D01*
X184821047Y-123572571D01*
X184868666Y-123667809D01*
X184868666Y-123905904D01*
X184821047Y-124001142D01*
X184773428Y-124048761D01*
X184678190Y-124096380D01*
X184392476Y-124096380D01*
X184297238Y-124048761D01*
X184249619Y-124001142D01*
G04 #@! TO.C,J4*
X123716666Y-54420780D02*
X123716666Y-55135066D01*
X123669047Y-55277923D01*
X123573809Y-55373161D01*
X123430952Y-55420780D01*
X123335714Y-55420780D01*
X124621428Y-54754114D02*
X124621428Y-55420780D01*
X124383333Y-54373161D02*
X124145238Y-55087447D01*
X124764285Y-55087447D01*
G04 #@! TO.C,J5*
X153835666Y-54405580D02*
X153835666Y-55119866D01*
X153788047Y-55262723D01*
X153692809Y-55357961D01*
X153549952Y-55405580D01*
X153454714Y-55405580D01*
X154788047Y-54405580D02*
X154311857Y-54405580D01*
X154264238Y-54881771D01*
X154311857Y-54834152D01*
X154407095Y-54786533D01*
X154645190Y-54786533D01*
X154740428Y-54834152D01*
X154788047Y-54881771D01*
X154835666Y-54977009D01*
X154835666Y-55215104D01*
X154788047Y-55310342D01*
X154740428Y-55357961D01*
X154645190Y-55405580D01*
X154407095Y-55405580D01*
X154311857Y-55357961D01*
X154264238Y-55310342D01*
G04 #@! TO.C,J6*
X183975666Y-54446180D02*
X183975666Y-55160466D01*
X183928047Y-55303323D01*
X183832809Y-55398561D01*
X183689952Y-55446180D01*
X183594714Y-55446180D01*
X184880428Y-54446180D02*
X184689952Y-54446180D01*
X184594714Y-54493800D01*
X184547095Y-54541419D01*
X184451857Y-54684276D01*
X184404238Y-54874752D01*
X184404238Y-55255704D01*
X184451857Y-55350942D01*
X184499476Y-55398561D01*
X184594714Y-55446180D01*
X184785190Y-55446180D01*
X184880428Y-55398561D01*
X184928047Y-55350942D01*
X184975666Y-55255704D01*
X184975666Y-55017609D01*
X184928047Y-54922371D01*
X184880428Y-54874752D01*
X184785190Y-54827133D01*
X184594714Y-54827133D01*
X184499476Y-54874752D01*
X184451857Y-54922371D01*
X184404238Y-55017609D01*
G04 #@! TO.C,F5*
X97649666Y-55922071D02*
X97316333Y-55922071D01*
X97316333Y-56445880D02*
X97316333Y-55445880D01*
X97792523Y-55445880D01*
X98649666Y-55445880D02*
X98173476Y-55445880D01*
X98125857Y-55922071D01*
X98173476Y-55874452D01*
X98268714Y-55826833D01*
X98506809Y-55826833D01*
X98602047Y-55874452D01*
X98649666Y-55922071D01*
X98697285Y-56017309D01*
X98697285Y-56255404D01*
X98649666Y-56350642D01*
X98602047Y-56398261D01*
X98506809Y-56445880D01*
X98268714Y-56445880D01*
X98173476Y-56398261D01*
X98125857Y-56350642D01*
G04 #@! TO.C,Q1*
X178720761Y-92191719D02*
X178625523Y-92144100D01*
X178530285Y-92048861D01*
X178387428Y-91906004D01*
X178292190Y-91858385D01*
X178196952Y-91858385D01*
X178244571Y-92096480D02*
X178149333Y-92048861D01*
X178054095Y-91953623D01*
X178006476Y-91763147D01*
X178006476Y-91429814D01*
X178054095Y-91239338D01*
X178149333Y-91144100D01*
X178244571Y-91096480D01*
X178435047Y-91096480D01*
X178530285Y-91144100D01*
X178625523Y-91239338D01*
X178673142Y-91429814D01*
X178673142Y-91763147D01*
X178625523Y-91953623D01*
X178530285Y-92048861D01*
X178435047Y-92096480D01*
X178244571Y-92096480D01*
X179625523Y-92096480D02*
X179054095Y-92096480D01*
X179339809Y-92096480D02*
X179339809Y-91096480D01*
X179244571Y-91239338D01*
X179149333Y-91334576D01*
X179054095Y-91382195D01*
G04 #@! TO.C,R13*
X158068142Y-84857980D02*
X157734809Y-84381790D01*
X157496714Y-84857980D02*
X157496714Y-83857980D01*
X157877666Y-83857980D01*
X157972904Y-83905600D01*
X158020523Y-83953219D01*
X158068142Y-84048457D01*
X158068142Y-84191314D01*
X158020523Y-84286552D01*
X157972904Y-84334171D01*
X157877666Y-84381790D01*
X157496714Y-84381790D01*
X159020523Y-84857980D02*
X158449095Y-84857980D01*
X158734809Y-84857980D02*
X158734809Y-83857980D01*
X158639571Y-84000838D01*
X158544333Y-84096076D01*
X158449095Y-84143695D01*
X159353857Y-83857980D02*
X159972904Y-83857980D01*
X159639571Y-84238933D01*
X159782428Y-84238933D01*
X159877666Y-84286552D01*
X159925285Y-84334171D01*
X159972904Y-84429409D01*
X159972904Y-84667504D01*
X159925285Y-84762742D01*
X159877666Y-84810361D01*
X159782428Y-84857980D01*
X159496714Y-84857980D01*
X159401476Y-84810361D01*
X159353857Y-84762742D01*
G04 #@! TO.C,R14*
X96361842Y-63900180D02*
X96028509Y-63423990D01*
X95790414Y-63900180D02*
X95790414Y-62900180D01*
X96171366Y-62900180D01*
X96266604Y-62947800D01*
X96314223Y-62995419D01*
X96361842Y-63090657D01*
X96361842Y-63233514D01*
X96314223Y-63328752D01*
X96266604Y-63376371D01*
X96171366Y-63423990D01*
X95790414Y-63423990D01*
X97314223Y-63900180D02*
X96742795Y-63900180D01*
X97028509Y-63900180D02*
X97028509Y-62900180D01*
X96933271Y-63043038D01*
X96838033Y-63138276D01*
X96742795Y-63185895D01*
X98171366Y-63233514D02*
X98171366Y-63900180D01*
X97933271Y-62852561D02*
X97695176Y-63566847D01*
X98314223Y-63566847D01*
X96338033Y-67540180D02*
X95766604Y-67540180D01*
X96052319Y-67540180D02*
X96052319Y-66540180D01*
X95957080Y-66683038D01*
X95861842Y-66778276D01*
X95766604Y-66825895D01*
X96718985Y-66635419D02*
X96766604Y-66587800D01*
X96861842Y-66540180D01*
X97099938Y-66540180D01*
X97195176Y-66587800D01*
X97242795Y-66635419D01*
X97290414Y-66730657D01*
X97290414Y-66825895D01*
X97242795Y-66968752D01*
X96671366Y-67540180D01*
X97290414Y-67540180D01*
X97909461Y-66540180D02*
X98004700Y-66540180D01*
X98099938Y-66587800D01*
X98147557Y-66635419D01*
X98195176Y-66730657D01*
X98242795Y-66921133D01*
X98242795Y-67159228D01*
X98195176Y-67349704D01*
X98147557Y-67444942D01*
X98099938Y-67492561D01*
X98004700Y-67540180D01*
X97909461Y-67540180D01*
X97814223Y-67492561D01*
X97766604Y-67444942D01*
X97718985Y-67349704D01*
X97671366Y-67159228D01*
X97671366Y-66921133D01*
X97718985Y-66730657D01*
X97766604Y-66635419D01*
X97814223Y-66587800D01*
X97909461Y-66540180D01*
G04 #@! TO.C,J7*
X98818066Y-72042180D02*
X98818066Y-72756466D01*
X98770447Y-72899323D01*
X98675209Y-72994561D01*
X98532352Y-73042180D01*
X98437114Y-73042180D01*
X99199019Y-72042180D02*
X99865685Y-72042180D01*
X99437114Y-73042180D01*
G04 #@! TO.C,R15*
X182509142Y-59770180D02*
X182175809Y-59293990D01*
X181937714Y-59770180D02*
X181937714Y-58770180D01*
X182318666Y-58770180D01*
X182413904Y-58817800D01*
X182461523Y-58865419D01*
X182509142Y-58960657D01*
X182509142Y-59103514D01*
X182461523Y-59198752D01*
X182413904Y-59246371D01*
X182318666Y-59293990D01*
X181937714Y-59293990D01*
X183461523Y-59770180D02*
X182890095Y-59770180D01*
X183175809Y-59770180D02*
X183175809Y-58770180D01*
X183080571Y-58913038D01*
X182985333Y-59008276D01*
X182890095Y-59055895D01*
X184366285Y-58770180D02*
X183890095Y-58770180D01*
X183842476Y-59246371D01*
X183890095Y-59198752D01*
X183985333Y-59151133D01*
X184223428Y-59151133D01*
X184318666Y-59198752D01*
X184366285Y-59246371D01*
X184413904Y-59341609D01*
X184413904Y-59579704D01*
X184366285Y-59674942D01*
X184318666Y-59722561D01*
X184223428Y-59770180D01*
X183985333Y-59770180D01*
X183890095Y-59722561D01*
X183842476Y-59674942D01*
G04 #@! TO.C,R16*
X182570142Y-64591080D02*
X182236809Y-64114890D01*
X181998714Y-64591080D02*
X181998714Y-63591080D01*
X182379666Y-63591080D01*
X182474904Y-63638700D01*
X182522523Y-63686319D01*
X182570142Y-63781557D01*
X182570142Y-63924414D01*
X182522523Y-64019652D01*
X182474904Y-64067271D01*
X182379666Y-64114890D01*
X181998714Y-64114890D01*
X183522523Y-64591080D02*
X182951095Y-64591080D01*
X183236809Y-64591080D02*
X183236809Y-63591080D01*
X183141571Y-63733938D01*
X183046333Y-63829176D01*
X182951095Y-63876795D01*
X184379666Y-63591080D02*
X184189190Y-63591080D01*
X184093952Y-63638700D01*
X184046333Y-63686319D01*
X183951095Y-63829176D01*
X183903476Y-64019652D01*
X183903476Y-64400604D01*
X183951095Y-64495842D01*
X183998714Y-64543461D01*
X184093952Y-64591080D01*
X184284428Y-64591080D01*
X184379666Y-64543461D01*
X184427285Y-64495842D01*
X184474904Y-64400604D01*
X184474904Y-64162509D01*
X184427285Y-64067271D01*
X184379666Y-64019652D01*
X184284428Y-63972033D01*
X184093952Y-63972033D01*
X183998714Y-64019652D01*
X183951095Y-64067271D01*
X183903476Y-64162509D01*
G04 #@! TO.C,SW1*
X163775666Y-65634561D02*
X163918523Y-65682180D01*
X164156619Y-65682180D01*
X164251857Y-65634561D01*
X164299476Y-65586942D01*
X164347095Y-65491704D01*
X164347095Y-65396466D01*
X164299476Y-65301228D01*
X164251857Y-65253609D01*
X164156619Y-65205990D01*
X163966142Y-65158371D01*
X163870904Y-65110752D01*
X163823285Y-65063133D01*
X163775666Y-64967895D01*
X163775666Y-64872657D01*
X163823285Y-64777419D01*
X163870904Y-64729800D01*
X163966142Y-64682180D01*
X164204238Y-64682180D01*
X164347095Y-64729800D01*
X164680428Y-64682180D02*
X164918523Y-65682180D01*
X165109000Y-64967895D01*
X165299476Y-65682180D01*
X165537571Y-64682180D01*
X166442333Y-65682180D02*
X165870904Y-65682180D01*
X166156619Y-65682180D02*
X166156619Y-64682180D01*
X166061380Y-64825038D01*
X165966142Y-64920276D01*
X165870904Y-64967895D01*
G04 #@! TO.C,SW2*
X173542666Y-65651161D02*
X173685523Y-65698780D01*
X173923619Y-65698780D01*
X174018857Y-65651161D01*
X174066476Y-65603542D01*
X174114095Y-65508304D01*
X174114095Y-65413066D01*
X174066476Y-65317828D01*
X174018857Y-65270209D01*
X173923619Y-65222590D01*
X173733142Y-65174971D01*
X173637904Y-65127352D01*
X173590285Y-65079733D01*
X173542666Y-64984495D01*
X173542666Y-64889257D01*
X173590285Y-64794019D01*
X173637904Y-64746400D01*
X173733142Y-64698780D01*
X173971238Y-64698780D01*
X174114095Y-64746400D01*
X174447428Y-64698780D02*
X174685523Y-65698780D01*
X174876000Y-64984495D01*
X175066476Y-65698780D01*
X175304571Y-64698780D01*
X175637904Y-64794019D02*
X175685523Y-64746400D01*
X175780761Y-64698780D01*
X176018857Y-64698780D01*
X176114095Y-64746400D01*
X176161714Y-64794019D01*
X176209333Y-64889257D01*
X176209333Y-64984495D01*
X176161714Y-65127352D01*
X175590285Y-65698780D01*
X176209333Y-65698780D01*
G04 #@! TO.C,D3*
X160085380Y-74759495D02*
X159085380Y-74759495D01*
X159085380Y-74521400D01*
X159133000Y-74378542D01*
X159228238Y-74283304D01*
X159323476Y-74235685D01*
X159513952Y-74188066D01*
X159656809Y-74188066D01*
X159847285Y-74235685D01*
X159942523Y-74283304D01*
X160037761Y-74378542D01*
X160085380Y-74521400D01*
X160085380Y-74759495D01*
X159085380Y-73854733D02*
X159085380Y-73235685D01*
X159466333Y-73569019D01*
X159466333Y-73426161D01*
X159513952Y-73330923D01*
X159561571Y-73283304D01*
X159656809Y-73235685D01*
X159894904Y-73235685D01*
X159990142Y-73283304D01*
X160037761Y-73330923D01*
X160085380Y-73426161D01*
X160085380Y-73711876D01*
X160037761Y-73807114D01*
X159990142Y-73854733D01*
G04 #@! TO.C,R2*
X155118133Y-71059280D02*
X154784800Y-70583090D01*
X154546704Y-71059280D02*
X154546704Y-70059280D01*
X154927657Y-70059280D01*
X155022895Y-70106900D01*
X155070514Y-70154519D01*
X155118133Y-70249757D01*
X155118133Y-70392614D01*
X155070514Y-70487852D01*
X155022895Y-70535471D01*
X154927657Y-70583090D01*
X154546704Y-70583090D01*
X155499085Y-70154519D02*
X155546704Y-70106900D01*
X155641942Y-70059280D01*
X155880038Y-70059280D01*
X155975276Y-70106900D01*
X156022895Y-70154519D01*
X156070514Y-70249757D01*
X156070514Y-70344995D01*
X156022895Y-70487852D01*
X155451466Y-71059280D01*
X156070514Y-71059280D01*
G04 #@! TO.C,R3*
X154961133Y-76388180D02*
X154627800Y-75911990D01*
X154389704Y-76388180D02*
X154389704Y-75388180D01*
X154770657Y-75388180D01*
X154865895Y-75435800D01*
X154913514Y-75483419D01*
X154961133Y-75578657D01*
X154961133Y-75721514D01*
X154913514Y-75816752D01*
X154865895Y-75864371D01*
X154770657Y-75911990D01*
X154389704Y-75911990D01*
X155294466Y-75388180D02*
X155913514Y-75388180D01*
X155580180Y-75769133D01*
X155723038Y-75769133D01*
X155818276Y-75816752D01*
X155865895Y-75864371D01*
X155913514Y-75959609D01*
X155913514Y-76197704D01*
X155865895Y-76292942D01*
X155818276Y-76340561D01*
X155723038Y-76388180D01*
X155437323Y-76388180D01*
X155342085Y-76340561D01*
X155294466Y-76292942D01*
G04 #@! TO.C,R1*
X113105333Y-61644680D02*
X112772000Y-61168490D01*
X112533904Y-61644680D02*
X112533904Y-60644680D01*
X112914857Y-60644680D01*
X113010095Y-60692300D01*
X113057714Y-60739919D01*
X113105333Y-60835157D01*
X113105333Y-60978014D01*
X113057714Y-61073252D01*
X113010095Y-61120871D01*
X112914857Y-61168490D01*
X112533904Y-61168490D01*
X114057714Y-61644680D02*
X113486285Y-61644680D01*
X113772000Y-61644680D02*
X113772000Y-60644680D01*
X113676761Y-60787538D01*
X113581523Y-60882776D01*
X113486285Y-60930395D01*
G04 #@! TO.C,C6*
X132362333Y-75869942D02*
X132314714Y-75917561D01*
X132171857Y-75965180D01*
X132076619Y-75965180D01*
X131933761Y-75917561D01*
X131838523Y-75822323D01*
X131790904Y-75727085D01*
X131743285Y-75536609D01*
X131743285Y-75393752D01*
X131790904Y-75203276D01*
X131838523Y-75108038D01*
X131933761Y-75012800D01*
X132076619Y-74965180D01*
X132171857Y-74965180D01*
X132314714Y-75012800D01*
X132362333Y-75060419D01*
X133219476Y-74965180D02*
X133029000Y-74965180D01*
X132933761Y-75012800D01*
X132886142Y-75060419D01*
X132790904Y-75203276D01*
X132743285Y-75393752D01*
X132743285Y-75774704D01*
X132790904Y-75869942D01*
X132838523Y-75917561D01*
X132933761Y-75965180D01*
X133124238Y-75965180D01*
X133219476Y-75917561D01*
X133267095Y-75869942D01*
X133314714Y-75774704D01*
X133314714Y-75536609D01*
X133267095Y-75441371D01*
X133219476Y-75393752D01*
X133124238Y-75346133D01*
X132933761Y-75346133D01*
X132838523Y-75393752D01*
X132790904Y-75441371D01*
X132743285Y-75536609D01*
G04 #@! TO.C,C7*
X141090333Y-75900442D02*
X141042714Y-75948061D01*
X140899857Y-75995680D01*
X140804619Y-75995680D01*
X140661761Y-75948061D01*
X140566523Y-75852823D01*
X140518904Y-75757585D01*
X140471285Y-75567109D01*
X140471285Y-75424252D01*
X140518904Y-75233776D01*
X140566523Y-75138538D01*
X140661761Y-75043300D01*
X140804619Y-74995680D01*
X140899857Y-74995680D01*
X141042714Y-75043300D01*
X141090333Y-75090919D01*
X141423666Y-74995680D02*
X142090333Y-74995680D01*
X141661761Y-75995680D01*
G04 #@! TO.C,R7*
X126044333Y-63163580D02*
X125711000Y-62687390D01*
X125472904Y-63163580D02*
X125472904Y-62163580D01*
X125853857Y-62163580D01*
X125949095Y-62211200D01*
X125996714Y-62258819D01*
X126044333Y-62354057D01*
X126044333Y-62496914D01*
X125996714Y-62592152D01*
X125949095Y-62639771D01*
X125853857Y-62687390D01*
X125472904Y-62687390D01*
X126377666Y-62163580D02*
X127044333Y-62163580D01*
X126615761Y-63163580D01*
G04 #@! TO.C,C3*
X150320142Y-92949866D02*
X150367761Y-92997485D01*
X150415380Y-93140342D01*
X150415380Y-93235580D01*
X150367761Y-93378438D01*
X150272523Y-93473676D01*
X150177285Y-93521295D01*
X149986809Y-93568914D01*
X149843952Y-93568914D01*
X149653476Y-93521295D01*
X149558238Y-93473676D01*
X149463000Y-93378438D01*
X149415380Y-93235580D01*
X149415380Y-93140342D01*
X149463000Y-92997485D01*
X149510619Y-92949866D01*
X149415380Y-92616533D02*
X149415380Y-91997485D01*
X149796333Y-92330819D01*
X149796333Y-92187961D01*
X149843952Y-92092723D01*
X149891571Y-92045104D01*
X149986809Y-91997485D01*
X150224904Y-91997485D01*
X150320142Y-92045104D01*
X150367761Y-92092723D01*
X150415380Y-92187961D01*
X150415380Y-92473676D01*
X150367761Y-92568914D01*
X150320142Y-92616533D01*
G04 #@! TO.C,R4*
X172800333Y-84260880D02*
X172467000Y-83784690D01*
X172228904Y-84260880D02*
X172228904Y-83260880D01*
X172609857Y-83260880D01*
X172705095Y-83308500D01*
X172752714Y-83356119D01*
X172800333Y-83451357D01*
X172800333Y-83594214D01*
X172752714Y-83689452D01*
X172705095Y-83737071D01*
X172609857Y-83784690D01*
X172228904Y-83784690D01*
X173657476Y-83594214D02*
X173657476Y-84260880D01*
X173419380Y-83213261D02*
X173181285Y-83927547D01*
X173800333Y-83927547D01*
G04 #@! TO.C,R6*
X178383333Y-84235480D02*
X178050000Y-83759290D01*
X177811904Y-84235480D02*
X177811904Y-83235480D01*
X178192857Y-83235480D01*
X178288095Y-83283100D01*
X178335714Y-83330719D01*
X178383333Y-83425957D01*
X178383333Y-83568814D01*
X178335714Y-83664052D01*
X178288095Y-83711671D01*
X178192857Y-83759290D01*
X177811904Y-83759290D01*
X179240476Y-83235480D02*
X179050000Y-83235480D01*
X178954761Y-83283100D01*
X178907142Y-83330719D01*
X178811904Y-83473576D01*
X178764285Y-83664052D01*
X178764285Y-84045004D01*
X178811904Y-84140242D01*
X178859523Y-84187861D01*
X178954761Y-84235480D01*
X179145238Y-84235480D01*
X179240476Y-84187861D01*
X179288095Y-84140242D01*
X179335714Y-84045004D01*
X179335714Y-83806909D01*
X179288095Y-83711671D01*
X179240476Y-83664052D01*
X179145238Y-83616433D01*
X178954761Y-83616433D01*
X178859523Y-83664052D01*
X178811904Y-83711671D01*
X178764285Y-83806909D01*
G04 #@! TO.C,C11*
X105892142Y-105535142D02*
X105844523Y-105582761D01*
X105701666Y-105630380D01*
X105606428Y-105630380D01*
X105463571Y-105582761D01*
X105368333Y-105487523D01*
X105320714Y-105392285D01*
X105273095Y-105201809D01*
X105273095Y-105058952D01*
X105320714Y-104868476D01*
X105368333Y-104773238D01*
X105463571Y-104678000D01*
X105606428Y-104630380D01*
X105701666Y-104630380D01*
X105844523Y-104678000D01*
X105892142Y-104725619D01*
X106844523Y-105630380D02*
X106273095Y-105630380D01*
X106558809Y-105630380D02*
X106558809Y-104630380D01*
X106463571Y-104773238D01*
X106368333Y-104868476D01*
X106273095Y-104916095D01*
X107796904Y-105630380D02*
X107225476Y-105630380D01*
X107511190Y-105630380D02*
X107511190Y-104630380D01*
X107415952Y-104773238D01*
X107320714Y-104868476D01*
X107225476Y-104916095D01*
G04 #@! TO.C,C12*
X99435142Y-105525142D02*
X99387523Y-105572761D01*
X99244666Y-105620380D01*
X99149428Y-105620380D01*
X99006571Y-105572761D01*
X98911333Y-105477523D01*
X98863714Y-105382285D01*
X98816095Y-105191809D01*
X98816095Y-105048952D01*
X98863714Y-104858476D01*
X98911333Y-104763238D01*
X99006571Y-104668000D01*
X99149428Y-104620380D01*
X99244666Y-104620380D01*
X99387523Y-104668000D01*
X99435142Y-104715619D01*
X100387523Y-105620380D02*
X99816095Y-105620380D01*
X100101809Y-105620380D02*
X100101809Y-104620380D01*
X100006571Y-104763238D01*
X99911333Y-104858476D01*
X99816095Y-104906095D01*
X100768476Y-104715619D02*
X100816095Y-104668000D01*
X100911333Y-104620380D01*
X101149428Y-104620380D01*
X101244666Y-104668000D01*
X101292285Y-104715619D01*
X101339904Y-104810857D01*
X101339904Y-104906095D01*
X101292285Y-105048952D01*
X100720857Y-105620380D01*
X101339904Y-105620380D01*
G04 #@! TO.C,C13*
X103099142Y-120114142D02*
X103051523Y-120161761D01*
X102908666Y-120209380D01*
X102813428Y-120209380D01*
X102670571Y-120161761D01*
X102575333Y-120066523D01*
X102527714Y-119971285D01*
X102480095Y-119780809D01*
X102480095Y-119637952D01*
X102527714Y-119447476D01*
X102575333Y-119352238D01*
X102670571Y-119257000D01*
X102813428Y-119209380D01*
X102908666Y-119209380D01*
X103051523Y-119257000D01*
X103099142Y-119304619D01*
X104051523Y-120209380D02*
X103480095Y-120209380D01*
X103765809Y-120209380D02*
X103765809Y-119209380D01*
X103670571Y-119352238D01*
X103575333Y-119447476D01*
X103480095Y-119495095D01*
X104384857Y-119209380D02*
X105003904Y-119209380D01*
X104670571Y-119590333D01*
X104813428Y-119590333D01*
X104908666Y-119637952D01*
X104956285Y-119685571D01*
X105003904Y-119780809D01*
X105003904Y-120018904D01*
X104956285Y-120114142D01*
X104908666Y-120161761D01*
X104813428Y-120209380D01*
X104527714Y-120209380D01*
X104432476Y-120161761D01*
X104384857Y-120114142D01*
G04 #@! TO.C,C14*
X124564142Y-103708142D02*
X124516523Y-103755761D01*
X124373666Y-103803380D01*
X124278428Y-103803380D01*
X124135571Y-103755761D01*
X124040333Y-103660523D01*
X123992714Y-103565285D01*
X123945095Y-103374809D01*
X123945095Y-103231952D01*
X123992714Y-103041476D01*
X124040333Y-102946238D01*
X124135571Y-102851000D01*
X124278428Y-102803380D01*
X124373666Y-102803380D01*
X124516523Y-102851000D01*
X124564142Y-102898619D01*
X125516523Y-103803380D02*
X124945095Y-103803380D01*
X125230809Y-103803380D02*
X125230809Y-102803380D01*
X125135571Y-102946238D01*
X125040333Y-103041476D01*
X124945095Y-103089095D01*
X126373666Y-103136714D02*
X126373666Y-103803380D01*
X126135571Y-102755761D02*
X125897476Y-103470047D01*
X126516523Y-103470047D01*
G04 #@! TO.C,C15*
X118544142Y-103698142D02*
X118496523Y-103745761D01*
X118353666Y-103793380D01*
X118258428Y-103793380D01*
X118115571Y-103745761D01*
X118020333Y-103650523D01*
X117972714Y-103555285D01*
X117925095Y-103364809D01*
X117925095Y-103221952D01*
X117972714Y-103031476D01*
X118020333Y-102936238D01*
X118115571Y-102841000D01*
X118258428Y-102793380D01*
X118353666Y-102793380D01*
X118496523Y-102841000D01*
X118544142Y-102888619D01*
X119496523Y-103793380D02*
X118925095Y-103793380D01*
X119210809Y-103793380D02*
X119210809Y-102793380D01*
X119115571Y-102936238D01*
X119020333Y-103031476D01*
X118925095Y-103079095D01*
X120401285Y-102793380D02*
X119925095Y-102793380D01*
X119877476Y-103269571D01*
X119925095Y-103221952D01*
X120020333Y-103174333D01*
X120258428Y-103174333D01*
X120353666Y-103221952D01*
X120401285Y-103269571D01*
X120448904Y-103364809D01*
X120448904Y-103602904D01*
X120401285Y-103698142D01*
X120353666Y-103745761D01*
X120258428Y-103793380D01*
X120020333Y-103793380D01*
X119925095Y-103745761D01*
X119877476Y-103698142D01*
G04 #@! TO.C,C16*
X121501142Y-121079142D02*
X121453523Y-121126761D01*
X121310666Y-121174380D01*
X121215428Y-121174380D01*
X121072571Y-121126761D01*
X120977333Y-121031523D01*
X120929714Y-120936285D01*
X120882095Y-120745809D01*
X120882095Y-120602952D01*
X120929714Y-120412476D01*
X120977333Y-120317238D01*
X121072571Y-120222000D01*
X121215428Y-120174380D01*
X121310666Y-120174380D01*
X121453523Y-120222000D01*
X121501142Y-120269619D01*
X122453523Y-121174380D02*
X121882095Y-121174380D01*
X122167809Y-121174380D02*
X122167809Y-120174380D01*
X122072571Y-120317238D01*
X121977333Y-120412476D01*
X121882095Y-120460095D01*
X123310666Y-120174380D02*
X123120190Y-120174380D01*
X123024952Y-120222000D01*
X122977333Y-120269619D01*
X122882095Y-120412476D01*
X122834476Y-120602952D01*
X122834476Y-120983904D01*
X122882095Y-121079142D01*
X122929714Y-121126761D01*
X123024952Y-121174380D01*
X123215428Y-121174380D01*
X123310666Y-121126761D01*
X123358285Y-121079142D01*
X123405904Y-120983904D01*
X123405904Y-120745809D01*
X123358285Y-120650571D01*
X123310666Y-120602952D01*
X123215428Y-120555333D01*
X123024952Y-120555333D01*
X122929714Y-120602952D01*
X122882095Y-120650571D01*
X122834476Y-120745809D01*
G04 #@! TO.C,C17*
X145537142Y-104856142D02*
X145489523Y-104903761D01*
X145346666Y-104951380D01*
X145251428Y-104951380D01*
X145108571Y-104903761D01*
X145013333Y-104808523D01*
X144965714Y-104713285D01*
X144918095Y-104522809D01*
X144918095Y-104379952D01*
X144965714Y-104189476D01*
X145013333Y-104094238D01*
X145108571Y-103999000D01*
X145251428Y-103951380D01*
X145346666Y-103951380D01*
X145489523Y-103999000D01*
X145537142Y-104046619D01*
X146489523Y-104951380D02*
X145918095Y-104951380D01*
X146203809Y-104951380D02*
X146203809Y-103951380D01*
X146108571Y-104094238D01*
X146013333Y-104189476D01*
X145918095Y-104237095D01*
X146822857Y-103951380D02*
X147489523Y-103951380D01*
X147060952Y-104951380D01*
G04 #@! TO.C,C18*
X138625142Y-104872142D02*
X138577523Y-104919761D01*
X138434666Y-104967380D01*
X138339428Y-104967380D01*
X138196571Y-104919761D01*
X138101333Y-104824523D01*
X138053714Y-104729285D01*
X138006095Y-104538809D01*
X138006095Y-104395952D01*
X138053714Y-104205476D01*
X138101333Y-104110238D01*
X138196571Y-104015000D01*
X138339428Y-103967380D01*
X138434666Y-103967380D01*
X138577523Y-104015000D01*
X138625142Y-104062619D01*
X139577523Y-104967380D02*
X139006095Y-104967380D01*
X139291809Y-104967380D02*
X139291809Y-103967380D01*
X139196571Y-104110238D01*
X139101333Y-104205476D01*
X139006095Y-104253095D01*
X140148952Y-104395952D02*
X140053714Y-104348333D01*
X140006095Y-104300714D01*
X139958476Y-104205476D01*
X139958476Y-104157857D01*
X140006095Y-104062619D01*
X140053714Y-104015000D01*
X140148952Y-103967380D01*
X140339428Y-103967380D01*
X140434666Y-104015000D01*
X140482285Y-104062619D01*
X140529904Y-104157857D01*
X140529904Y-104205476D01*
X140482285Y-104300714D01*
X140434666Y-104348333D01*
X140339428Y-104395952D01*
X140148952Y-104395952D01*
X140053714Y-104443571D01*
X140006095Y-104491190D01*
X139958476Y-104586428D01*
X139958476Y-104776904D01*
X140006095Y-104872142D01*
X140053714Y-104919761D01*
X140148952Y-104967380D01*
X140339428Y-104967380D01*
X140434666Y-104919761D01*
X140482285Y-104872142D01*
X140529904Y-104776904D01*
X140529904Y-104586428D01*
X140482285Y-104491190D01*
X140434666Y-104443571D01*
X140339428Y-104395952D01*
G04 #@! TO.C,C19*
X141751142Y-122852142D02*
X141703523Y-122899761D01*
X141560666Y-122947380D01*
X141465428Y-122947380D01*
X141322571Y-122899761D01*
X141227333Y-122804523D01*
X141179714Y-122709285D01*
X141132095Y-122518809D01*
X141132095Y-122375952D01*
X141179714Y-122185476D01*
X141227333Y-122090238D01*
X141322571Y-121995000D01*
X141465428Y-121947380D01*
X141560666Y-121947380D01*
X141703523Y-121995000D01*
X141751142Y-122042619D01*
X142703523Y-122947380D02*
X142132095Y-122947380D01*
X142417809Y-122947380D02*
X142417809Y-121947380D01*
X142322571Y-122090238D01*
X142227333Y-122185476D01*
X142132095Y-122233095D01*
X143179714Y-122947380D02*
X143370190Y-122947380D01*
X143465428Y-122899761D01*
X143513047Y-122852142D01*
X143608285Y-122709285D01*
X143655904Y-122518809D01*
X143655904Y-122137857D01*
X143608285Y-122042619D01*
X143560666Y-121995000D01*
X143465428Y-121947380D01*
X143274952Y-121947380D01*
X143179714Y-121995000D01*
X143132095Y-122042619D01*
X143084476Y-122137857D01*
X143084476Y-122375952D01*
X143132095Y-122471190D01*
X143179714Y-122518809D01*
X143274952Y-122566428D01*
X143465428Y-122566428D01*
X143560666Y-122518809D01*
X143608285Y-122471190D01*
X143655904Y-122375952D01*
G04 #@! TO.C,C20*
X162095142Y-103190142D02*
X162047523Y-103237761D01*
X161904666Y-103285380D01*
X161809428Y-103285380D01*
X161666571Y-103237761D01*
X161571333Y-103142523D01*
X161523714Y-103047285D01*
X161476095Y-102856809D01*
X161476095Y-102713952D01*
X161523714Y-102523476D01*
X161571333Y-102428238D01*
X161666571Y-102333000D01*
X161809428Y-102285380D01*
X161904666Y-102285380D01*
X162047523Y-102333000D01*
X162095142Y-102380619D01*
X162476095Y-102380619D02*
X162523714Y-102333000D01*
X162618952Y-102285380D01*
X162857047Y-102285380D01*
X162952285Y-102333000D01*
X162999904Y-102380619D01*
X163047523Y-102475857D01*
X163047523Y-102571095D01*
X162999904Y-102713952D01*
X162428476Y-103285380D01*
X163047523Y-103285380D01*
X163666571Y-102285380D02*
X163761809Y-102285380D01*
X163857047Y-102333000D01*
X163904666Y-102380619D01*
X163952285Y-102475857D01*
X163999904Y-102666333D01*
X163999904Y-102904428D01*
X163952285Y-103094904D01*
X163904666Y-103190142D01*
X163857047Y-103237761D01*
X163761809Y-103285380D01*
X163666571Y-103285380D01*
X163571333Y-103237761D01*
X163523714Y-103190142D01*
X163476095Y-103094904D01*
X163428476Y-102904428D01*
X163428476Y-102666333D01*
X163476095Y-102475857D01*
X163523714Y-102380619D01*
X163571333Y-102333000D01*
X163666571Y-102285380D01*
G04 #@! TO.C,C21*
X156550142Y-103459142D02*
X156502523Y-103506761D01*
X156359666Y-103554380D01*
X156264428Y-103554380D01*
X156121571Y-103506761D01*
X156026333Y-103411523D01*
X155978714Y-103316285D01*
X155931095Y-103125809D01*
X155931095Y-102982952D01*
X155978714Y-102792476D01*
X156026333Y-102697238D01*
X156121571Y-102602000D01*
X156264428Y-102554380D01*
X156359666Y-102554380D01*
X156502523Y-102602000D01*
X156550142Y-102649619D01*
X156931095Y-102649619D02*
X156978714Y-102602000D01*
X157073952Y-102554380D01*
X157312047Y-102554380D01*
X157407285Y-102602000D01*
X157454904Y-102649619D01*
X157502523Y-102744857D01*
X157502523Y-102840095D01*
X157454904Y-102982952D01*
X156883476Y-103554380D01*
X157502523Y-103554380D01*
X158454904Y-103554380D02*
X157883476Y-103554380D01*
X158169190Y-103554380D02*
X158169190Y-102554380D01*
X158073952Y-102697238D01*
X157978714Y-102792476D01*
X157883476Y-102840095D01*
G04 #@! TO.C,C22*
X159648142Y-121674142D02*
X159600523Y-121721761D01*
X159457666Y-121769380D01*
X159362428Y-121769380D01*
X159219571Y-121721761D01*
X159124333Y-121626523D01*
X159076714Y-121531285D01*
X159029095Y-121340809D01*
X159029095Y-121197952D01*
X159076714Y-121007476D01*
X159124333Y-120912238D01*
X159219571Y-120817000D01*
X159362428Y-120769380D01*
X159457666Y-120769380D01*
X159600523Y-120817000D01*
X159648142Y-120864619D01*
X160029095Y-120864619D02*
X160076714Y-120817000D01*
X160171952Y-120769380D01*
X160410047Y-120769380D01*
X160505285Y-120817000D01*
X160552904Y-120864619D01*
X160600523Y-120959857D01*
X160600523Y-121055095D01*
X160552904Y-121197952D01*
X159981476Y-121769380D01*
X160600523Y-121769380D01*
X160981476Y-120864619D02*
X161029095Y-120817000D01*
X161124333Y-120769380D01*
X161362428Y-120769380D01*
X161457666Y-120817000D01*
X161505285Y-120864619D01*
X161552904Y-120959857D01*
X161552904Y-121055095D01*
X161505285Y-121197952D01*
X160933857Y-121769380D01*
X161552904Y-121769380D01*
G04 #@! TO.C,C23*
X179542142Y-103688142D02*
X179494523Y-103735761D01*
X179351666Y-103783380D01*
X179256428Y-103783380D01*
X179113571Y-103735761D01*
X179018333Y-103640523D01*
X178970714Y-103545285D01*
X178923095Y-103354809D01*
X178923095Y-103211952D01*
X178970714Y-103021476D01*
X179018333Y-102926238D01*
X179113571Y-102831000D01*
X179256428Y-102783380D01*
X179351666Y-102783380D01*
X179494523Y-102831000D01*
X179542142Y-102878619D01*
X179923095Y-102878619D02*
X179970714Y-102831000D01*
X180065952Y-102783380D01*
X180304047Y-102783380D01*
X180399285Y-102831000D01*
X180446904Y-102878619D01*
X180494523Y-102973857D01*
X180494523Y-103069095D01*
X180446904Y-103211952D01*
X179875476Y-103783380D01*
X180494523Y-103783380D01*
X180827857Y-102783380D02*
X181446904Y-102783380D01*
X181113571Y-103164333D01*
X181256428Y-103164333D01*
X181351666Y-103211952D01*
X181399285Y-103259571D01*
X181446904Y-103354809D01*
X181446904Y-103592904D01*
X181399285Y-103688142D01*
X181351666Y-103735761D01*
X181256428Y-103783380D01*
X180970714Y-103783380D01*
X180875476Y-103735761D01*
X180827857Y-103688142D01*
G04 #@! TO.C,C24*
X173482142Y-103602142D02*
X173434523Y-103649761D01*
X173291666Y-103697380D01*
X173196428Y-103697380D01*
X173053571Y-103649761D01*
X172958333Y-103554523D01*
X172910714Y-103459285D01*
X172863095Y-103268809D01*
X172863095Y-103125952D01*
X172910714Y-102935476D01*
X172958333Y-102840238D01*
X173053571Y-102745000D01*
X173196428Y-102697380D01*
X173291666Y-102697380D01*
X173434523Y-102745000D01*
X173482142Y-102792619D01*
X173863095Y-102792619D02*
X173910714Y-102745000D01*
X174005952Y-102697380D01*
X174244047Y-102697380D01*
X174339285Y-102745000D01*
X174386904Y-102792619D01*
X174434523Y-102887857D01*
X174434523Y-102983095D01*
X174386904Y-103125952D01*
X173815476Y-103697380D01*
X174434523Y-103697380D01*
X175291666Y-103030714D02*
X175291666Y-103697380D01*
X175053571Y-102649761D02*
X174815476Y-103364047D01*
X175434523Y-103364047D01*
G04 #@! TO.C,C25*
X176549142Y-121852142D02*
X176501523Y-121899761D01*
X176358666Y-121947380D01*
X176263428Y-121947380D01*
X176120571Y-121899761D01*
X176025333Y-121804523D01*
X175977714Y-121709285D01*
X175930095Y-121518809D01*
X175930095Y-121375952D01*
X175977714Y-121185476D01*
X176025333Y-121090238D01*
X176120571Y-120995000D01*
X176263428Y-120947380D01*
X176358666Y-120947380D01*
X176501523Y-120995000D01*
X176549142Y-121042619D01*
X176930095Y-121042619D02*
X176977714Y-120995000D01*
X177072952Y-120947380D01*
X177311047Y-120947380D01*
X177406285Y-120995000D01*
X177453904Y-121042619D01*
X177501523Y-121137857D01*
X177501523Y-121233095D01*
X177453904Y-121375952D01*
X176882476Y-121947380D01*
X177501523Y-121947380D01*
X178406285Y-120947380D02*
X177930095Y-120947380D01*
X177882476Y-121423571D01*
X177930095Y-121375952D01*
X178025333Y-121328333D01*
X178263428Y-121328333D01*
X178358666Y-121375952D01*
X178406285Y-121423571D01*
X178453904Y-121518809D01*
X178453904Y-121756904D01*
X178406285Y-121852142D01*
X178358666Y-121899761D01*
X178263428Y-121947380D01*
X178025333Y-121947380D01*
X177930095Y-121899761D01*
X177882476Y-121852142D01*
G04 #@! TO.C,R8*
X98269180Y-110600666D02*
X97792990Y-110934000D01*
X98269180Y-111172095D02*
X97269180Y-111172095D01*
X97269180Y-110791142D01*
X97316800Y-110695904D01*
X97364419Y-110648285D01*
X97459657Y-110600666D01*
X97602514Y-110600666D01*
X97697752Y-110648285D01*
X97745371Y-110695904D01*
X97792990Y-110791142D01*
X97792990Y-111172095D01*
X97697752Y-110029238D02*
X97650133Y-110124476D01*
X97602514Y-110172095D01*
X97507276Y-110219714D01*
X97459657Y-110219714D01*
X97364419Y-110172095D01*
X97316800Y-110124476D01*
X97269180Y-110029238D01*
X97269180Y-109838761D01*
X97316800Y-109743523D01*
X97364419Y-109695904D01*
X97459657Y-109648285D01*
X97507276Y-109648285D01*
X97602514Y-109695904D01*
X97650133Y-109743523D01*
X97697752Y-109838761D01*
X97697752Y-110029238D01*
X97745371Y-110124476D01*
X97792990Y-110172095D01*
X97888228Y-110219714D01*
X98078704Y-110219714D01*
X98173942Y-110172095D01*
X98221561Y-110124476D01*
X98269180Y-110029238D01*
X98269180Y-109838761D01*
X98221561Y-109743523D01*
X98173942Y-109695904D01*
X98078704Y-109648285D01*
X97888228Y-109648285D01*
X97792990Y-109695904D01*
X97745371Y-109743523D01*
X97697752Y-109838761D01*
G04 #@! TO.C,R9*
X116404380Y-111584666D02*
X115928190Y-111918000D01*
X116404380Y-112156095D02*
X115404380Y-112156095D01*
X115404380Y-111775142D01*
X115452000Y-111679904D01*
X115499619Y-111632285D01*
X115594857Y-111584666D01*
X115737714Y-111584666D01*
X115832952Y-111632285D01*
X115880571Y-111679904D01*
X115928190Y-111775142D01*
X115928190Y-112156095D01*
X116404380Y-111108476D02*
X116404380Y-110918000D01*
X116356761Y-110822761D01*
X116309142Y-110775142D01*
X116166285Y-110679904D01*
X115975809Y-110632285D01*
X115594857Y-110632285D01*
X115499619Y-110679904D01*
X115452000Y-110727523D01*
X115404380Y-110822761D01*
X115404380Y-111013238D01*
X115452000Y-111108476D01*
X115499619Y-111156095D01*
X115594857Y-111203714D01*
X115832952Y-111203714D01*
X115928190Y-111156095D01*
X115975809Y-111108476D01*
X116023428Y-111013238D01*
X116023428Y-110822761D01*
X115975809Y-110727523D01*
X115928190Y-110679904D01*
X115832952Y-110632285D01*
G04 #@! TO.C,R10*
X136501380Y-113197857D02*
X136025190Y-113531190D01*
X136501380Y-113769285D02*
X135501380Y-113769285D01*
X135501380Y-113388333D01*
X135549000Y-113293095D01*
X135596619Y-113245476D01*
X135691857Y-113197857D01*
X135834714Y-113197857D01*
X135929952Y-113245476D01*
X135977571Y-113293095D01*
X136025190Y-113388333D01*
X136025190Y-113769285D01*
X136501380Y-112245476D02*
X136501380Y-112816904D01*
X136501380Y-112531190D02*
X135501380Y-112531190D01*
X135644238Y-112626428D01*
X135739476Y-112721666D01*
X135787095Y-112816904D01*
X135501380Y-111626428D02*
X135501380Y-111531190D01*
X135549000Y-111435952D01*
X135596619Y-111388333D01*
X135691857Y-111340714D01*
X135882333Y-111293095D01*
X136120428Y-111293095D01*
X136310904Y-111340714D01*
X136406142Y-111388333D01*
X136453761Y-111435952D01*
X136501380Y-111531190D01*
X136501380Y-111626428D01*
X136453761Y-111721666D01*
X136406142Y-111769285D01*
X136310904Y-111816904D01*
X136120428Y-111864523D01*
X135882333Y-111864523D01*
X135691857Y-111816904D01*
X135596619Y-111769285D01*
X135549000Y-111721666D01*
X135501380Y-111626428D01*
G04 #@! TO.C,R11*
X154657380Y-112420857D02*
X154181190Y-112754190D01*
X154657380Y-112992285D02*
X153657380Y-112992285D01*
X153657380Y-112611333D01*
X153705000Y-112516095D01*
X153752619Y-112468476D01*
X153847857Y-112420857D01*
X153990714Y-112420857D01*
X154085952Y-112468476D01*
X154133571Y-112516095D01*
X154181190Y-112611333D01*
X154181190Y-112992285D01*
X154657380Y-111468476D02*
X154657380Y-112039904D01*
X154657380Y-111754190D02*
X153657380Y-111754190D01*
X153800238Y-111849428D01*
X153895476Y-111944666D01*
X153943095Y-112039904D01*
X154657380Y-110516095D02*
X154657380Y-111087523D01*
X154657380Y-110801809D02*
X153657380Y-110801809D01*
X153800238Y-110897047D01*
X153895476Y-110992285D01*
X153943095Y-111087523D01*
G04 #@! TO.C,R12*
X171802380Y-112126857D02*
X171326190Y-112460190D01*
X171802380Y-112698285D02*
X170802380Y-112698285D01*
X170802380Y-112317333D01*
X170850000Y-112222095D01*
X170897619Y-112174476D01*
X170992857Y-112126857D01*
X171135714Y-112126857D01*
X171230952Y-112174476D01*
X171278571Y-112222095D01*
X171326190Y-112317333D01*
X171326190Y-112698285D01*
X171802380Y-111174476D02*
X171802380Y-111745904D01*
X171802380Y-111460190D02*
X170802380Y-111460190D01*
X170945238Y-111555428D01*
X171040476Y-111650666D01*
X171088095Y-111745904D01*
X170897619Y-110793523D02*
X170850000Y-110745904D01*
X170802380Y-110650666D01*
X170802380Y-110412571D01*
X170850000Y-110317333D01*
X170897619Y-110269714D01*
X170992857Y-110222095D01*
X171088095Y-110222095D01*
X171230952Y-110269714D01*
X171802380Y-110841142D01*
X171802380Y-110222095D01*
G04 #@! TO.C,C4*
X147395333Y-99543142D02*
X147347714Y-99590761D01*
X147204857Y-99638380D01*
X147109619Y-99638380D01*
X146966761Y-99590761D01*
X146871523Y-99495523D01*
X146823904Y-99400285D01*
X146776285Y-99209809D01*
X146776285Y-99066952D01*
X146823904Y-98876476D01*
X146871523Y-98781238D01*
X146966761Y-98686000D01*
X147109619Y-98638380D01*
X147204857Y-98638380D01*
X147347714Y-98686000D01*
X147395333Y-98733619D01*
X148252476Y-98971714D02*
X148252476Y-99638380D01*
X148014380Y-98590761D02*
X147776285Y-99305047D01*
X148395333Y-99305047D01*
G04 #@! TO.C,C5*
X131753333Y-101702142D02*
X131705714Y-101749761D01*
X131562857Y-101797380D01*
X131467619Y-101797380D01*
X131324761Y-101749761D01*
X131229523Y-101654523D01*
X131181904Y-101559285D01*
X131134285Y-101368809D01*
X131134285Y-101225952D01*
X131181904Y-101035476D01*
X131229523Y-100940238D01*
X131324761Y-100845000D01*
X131467619Y-100797380D01*
X131562857Y-100797380D01*
X131705714Y-100845000D01*
X131753333Y-100892619D01*
X132658095Y-100797380D02*
X132181904Y-100797380D01*
X132134285Y-101273571D01*
X132181904Y-101225952D01*
X132277142Y-101178333D01*
X132515238Y-101178333D01*
X132610476Y-101225952D01*
X132658095Y-101273571D01*
X132705714Y-101368809D01*
X132705714Y-101606904D01*
X132658095Y-101702142D01*
X132610476Y-101749761D01*
X132515238Y-101797380D01*
X132277142Y-101797380D01*
X132181904Y-101749761D01*
X132134285Y-101702142D01*
G04 #@! TO.C,C8*
X121691142Y-92482466D02*
X121738761Y-92530085D01*
X121786380Y-92672942D01*
X121786380Y-92768180D01*
X121738761Y-92911038D01*
X121643523Y-93006276D01*
X121548285Y-93053895D01*
X121357809Y-93101514D01*
X121214952Y-93101514D01*
X121024476Y-93053895D01*
X120929238Y-93006276D01*
X120834000Y-92911038D01*
X120786380Y-92768180D01*
X120786380Y-92672942D01*
X120834000Y-92530085D01*
X120881619Y-92482466D01*
X121214952Y-91911038D02*
X121167333Y-92006276D01*
X121119714Y-92053895D01*
X121024476Y-92101514D01*
X120976857Y-92101514D01*
X120881619Y-92053895D01*
X120834000Y-92006276D01*
X120786380Y-91911038D01*
X120786380Y-91720561D01*
X120834000Y-91625323D01*
X120881619Y-91577704D01*
X120976857Y-91530085D01*
X121024476Y-91530085D01*
X121119714Y-91577704D01*
X121167333Y-91625323D01*
X121214952Y-91720561D01*
X121214952Y-91911038D01*
X121262571Y-92006276D01*
X121310190Y-92053895D01*
X121405428Y-92101514D01*
X121595904Y-92101514D01*
X121691142Y-92053895D01*
X121738761Y-92006276D01*
X121786380Y-91911038D01*
X121786380Y-91720561D01*
X121738761Y-91625323D01*
X121691142Y-91577704D01*
X121595904Y-91530085D01*
X121405428Y-91530085D01*
X121310190Y-91577704D01*
X121262571Y-91625323D01*
X121214952Y-91720561D01*
G04 #@! TO.C,C9*
X121763142Y-85002666D02*
X121810761Y-85050285D01*
X121858380Y-85193142D01*
X121858380Y-85288380D01*
X121810761Y-85431238D01*
X121715523Y-85526476D01*
X121620285Y-85574095D01*
X121429809Y-85621714D01*
X121286952Y-85621714D01*
X121096476Y-85574095D01*
X121001238Y-85526476D01*
X120906000Y-85431238D01*
X120858380Y-85288380D01*
X120858380Y-85193142D01*
X120906000Y-85050285D01*
X120953619Y-85002666D01*
X121858380Y-84526476D02*
X121858380Y-84336000D01*
X121810761Y-84240761D01*
X121763142Y-84193142D01*
X121620285Y-84097904D01*
X121429809Y-84050285D01*
X121048857Y-84050285D01*
X120953619Y-84097904D01*
X120906000Y-84145523D01*
X120858380Y-84240761D01*
X120858380Y-84431238D01*
X120906000Y-84526476D01*
X120953619Y-84574095D01*
X121048857Y-84621714D01*
X121286952Y-84621714D01*
X121382190Y-84574095D01*
X121429809Y-84526476D01*
X121477428Y-84431238D01*
X121477428Y-84240761D01*
X121429809Y-84145523D01*
X121382190Y-84097904D01*
X121286952Y-84050285D01*
G04 #@! TO.C,C10*
X145324142Y-70343457D02*
X145371761Y-70391076D01*
X145419380Y-70533933D01*
X145419380Y-70629171D01*
X145371761Y-70772028D01*
X145276523Y-70867266D01*
X145181285Y-70914885D01*
X144990809Y-70962504D01*
X144847952Y-70962504D01*
X144657476Y-70914885D01*
X144562238Y-70867266D01*
X144467000Y-70772028D01*
X144419380Y-70629171D01*
X144419380Y-70533933D01*
X144467000Y-70391076D01*
X144514619Y-70343457D01*
X145419380Y-69391076D02*
X145419380Y-69962504D01*
X145419380Y-69676790D02*
X144419380Y-69676790D01*
X144562238Y-69772028D01*
X144657476Y-69867266D01*
X144705095Y-69962504D01*
X144419380Y-68772028D02*
X144419380Y-68676790D01*
X144467000Y-68581552D01*
X144514619Y-68533933D01*
X144609857Y-68486314D01*
X144800333Y-68438695D01*
X145038428Y-68438695D01*
X145228904Y-68486314D01*
X145324142Y-68533933D01*
X145371761Y-68581552D01*
X145419380Y-68676790D01*
X145419380Y-68772028D01*
X145371761Y-68867266D01*
X145324142Y-68914885D01*
X145228904Y-68962504D01*
X145038428Y-69010123D01*
X144800333Y-69010123D01*
X144609857Y-68962504D01*
X144514619Y-68914885D01*
X144467000Y-68867266D01*
X144419380Y-68772028D01*
G04 #@! TO.C,F1*
X169282666Y-76604371D02*
X168949333Y-76604371D01*
X168949333Y-77128180D02*
X168949333Y-76128180D01*
X169425523Y-76128180D01*
X170330285Y-77128180D02*
X169758857Y-77128180D01*
X170044571Y-77128180D02*
X170044571Y-76128180D01*
X169949333Y-76271038D01*
X169854095Y-76366276D01*
X169758857Y-76413895D01*
G04 #@! TO.C,F2*
X169420666Y-81968771D02*
X169087333Y-81968771D01*
X169087333Y-82492580D02*
X169087333Y-81492580D01*
X169563523Y-81492580D01*
X169896857Y-81587819D02*
X169944476Y-81540200D01*
X170039714Y-81492580D01*
X170277809Y-81492580D01*
X170373047Y-81540200D01*
X170420666Y-81587819D01*
X170468285Y-81683057D01*
X170468285Y-81778295D01*
X170420666Y-81921152D01*
X169849238Y-82492580D01*
X170468285Y-82492580D01*
G04 #@! TO.C,F3*
X119461666Y-61413571D02*
X119128333Y-61413571D01*
X119128333Y-61937380D02*
X119128333Y-60937380D01*
X119604523Y-60937380D01*
X119890238Y-60937380D02*
X120509285Y-60937380D01*
X120175952Y-61318333D01*
X120318809Y-61318333D01*
X120414047Y-61365952D01*
X120461666Y-61413571D01*
X120509285Y-61508809D01*
X120509285Y-61746904D01*
X120461666Y-61842142D01*
X120414047Y-61889761D01*
X120318809Y-61937380D01*
X120033095Y-61937380D01*
X119937857Y-61889761D01*
X119890238Y-61842142D01*
G04 #@! TO.C,F4*
X138309666Y-52884271D02*
X137976333Y-52884271D01*
X137976333Y-53408080D02*
X137976333Y-52408080D01*
X138452523Y-52408080D01*
X139262047Y-52741414D02*
X139262047Y-53408080D01*
X139023952Y-52360461D02*
X138785857Y-53074747D01*
X139404904Y-53074747D01*
G04 #@! TO.C,J8*
X184735666Y-75198880D02*
X184735666Y-75913166D01*
X184688047Y-76056023D01*
X184592809Y-76151261D01*
X184449952Y-76198880D01*
X184354714Y-76198880D01*
X185354714Y-75627452D02*
X185259476Y-75579833D01*
X185211857Y-75532214D01*
X185164238Y-75436976D01*
X185164238Y-75389357D01*
X185211857Y-75294119D01*
X185259476Y-75246500D01*
X185354714Y-75198880D01*
X185545190Y-75198880D01*
X185640428Y-75246500D01*
X185688047Y-75294119D01*
X185735666Y-75389357D01*
X185735666Y-75436976D01*
X185688047Y-75532214D01*
X185640428Y-75579833D01*
X185545190Y-75627452D01*
X185354714Y-75627452D01*
X185259476Y-75675071D01*
X185211857Y-75722690D01*
X185164238Y-75817928D01*
X185164238Y-76008404D01*
X185211857Y-76103642D01*
X185259476Y-76151261D01*
X185354714Y-76198880D01*
X185545190Y-76198880D01*
X185640428Y-76151261D01*
X185688047Y-76103642D01*
X185735666Y-76008404D01*
X185735666Y-75817928D01*
X185688047Y-75722690D01*
X185640428Y-75675071D01*
X185545190Y-75627452D01*
G04 #@! TO.C,RV1*
X177405761Y-72005080D02*
X177072428Y-71528890D01*
X176834333Y-72005080D02*
X176834333Y-71005080D01*
X177215285Y-71005080D01*
X177310523Y-71052700D01*
X177358142Y-71100319D01*
X177405761Y-71195557D01*
X177405761Y-71338414D01*
X177358142Y-71433652D01*
X177310523Y-71481271D01*
X177215285Y-71528890D01*
X176834333Y-71528890D01*
X177691476Y-71005080D02*
X178024809Y-72005080D01*
X178358142Y-71005080D01*
X179215285Y-72005080D02*
X178643857Y-72005080D01*
X178929571Y-72005080D02*
X178929571Y-71005080D01*
X178834333Y-71147938D01*
X178739095Y-71243176D01*
X178643857Y-71290795D01*
G04 #@! TO.C,RV2*
X177372761Y-77394980D02*
X177039428Y-76918790D01*
X176801333Y-77394980D02*
X176801333Y-76394980D01*
X177182285Y-76394980D01*
X177277523Y-76442600D01*
X177325142Y-76490219D01*
X177372761Y-76585457D01*
X177372761Y-76728314D01*
X177325142Y-76823552D01*
X177277523Y-76871171D01*
X177182285Y-76918790D01*
X176801333Y-76918790D01*
X177658476Y-76394980D02*
X177991809Y-77394980D01*
X178325142Y-76394980D01*
X178610857Y-76490219D02*
X178658476Y-76442600D01*
X178753714Y-76394980D01*
X178991809Y-76394980D01*
X179087047Y-76442600D01*
X179134666Y-76490219D01*
X179182285Y-76585457D01*
X179182285Y-76680695D01*
X179134666Y-76823552D01*
X178563238Y-77394980D01*
X179182285Y-77394980D01*
G04 #@! TO.C,D1*
X119026380Y-58018095D02*
X118026380Y-58018095D01*
X118026380Y-57780000D01*
X118074000Y-57637142D01*
X118169238Y-57541904D01*
X118264476Y-57494285D01*
X118454952Y-57446666D01*
X118597809Y-57446666D01*
X118788285Y-57494285D01*
X118883523Y-57541904D01*
X118978761Y-57637142D01*
X119026380Y-57780000D01*
X119026380Y-58018095D01*
X119026380Y-56494285D02*
X119026380Y-57065714D01*
X119026380Y-56780000D02*
X118026380Y-56780000D01*
X118169238Y-56875238D01*
X118264476Y-56970476D01*
X118312095Y-57065714D01*
G04 #@! TO.C,D2*
X110412380Y-57926695D02*
X109412380Y-57926695D01*
X109412380Y-57688600D01*
X109460000Y-57545742D01*
X109555238Y-57450504D01*
X109650476Y-57402885D01*
X109840952Y-57355266D01*
X109983809Y-57355266D01*
X110174285Y-57402885D01*
X110269523Y-57450504D01*
X110364761Y-57545742D01*
X110412380Y-57688600D01*
X110412380Y-57926695D01*
X109507619Y-56974314D02*
X109460000Y-56926695D01*
X109412380Y-56831457D01*
X109412380Y-56593361D01*
X109460000Y-56498123D01*
X109507619Y-56450504D01*
X109602857Y-56402885D01*
X109698095Y-56402885D01*
X109840952Y-56450504D01*
X110412380Y-57021933D01*
X110412380Y-56402885D01*
G04 #@! TO.C,D4*
X102273904Y-63869780D02*
X102273904Y-62869780D01*
X102512000Y-62869780D01*
X102654857Y-62917400D01*
X102750095Y-63012638D01*
X102797714Y-63107876D01*
X102845333Y-63298352D01*
X102845333Y-63441209D01*
X102797714Y-63631685D01*
X102750095Y-63726923D01*
X102654857Y-63822161D01*
X102512000Y-63869780D01*
X102273904Y-63869780D01*
X103702476Y-63203114D02*
X103702476Y-63869780D01*
X103464380Y-62822161D02*
X103226285Y-63536447D01*
X103845333Y-63536447D01*
G04 #@! TO.C,D5*
X140869904Y-59800680D02*
X140869904Y-58800680D01*
X141108000Y-58800680D01*
X141250857Y-58848300D01*
X141346095Y-58943538D01*
X141393714Y-59038776D01*
X141441333Y-59229252D01*
X141441333Y-59372109D01*
X141393714Y-59562585D01*
X141346095Y-59657823D01*
X141250857Y-59753061D01*
X141108000Y-59800680D01*
X140869904Y-59800680D01*
X142346095Y-58800680D02*
X141869904Y-58800680D01*
X141822285Y-59276871D01*
X141869904Y-59229252D01*
X141965142Y-59181633D01*
X142203238Y-59181633D01*
X142298476Y-59229252D01*
X142346095Y-59276871D01*
X142393714Y-59372109D01*
X142393714Y-59610204D01*
X142346095Y-59705442D01*
X142298476Y-59753061D01*
X142203238Y-59800680D01*
X141965142Y-59800680D01*
X141869904Y-59753061D01*
X141822285Y-59705442D01*
G04 #@! TO.C,D6*
X118156904Y-69295180D02*
X118156904Y-68295180D01*
X118395000Y-68295180D01*
X118537857Y-68342800D01*
X118633095Y-68438038D01*
X118680714Y-68533276D01*
X118728333Y-68723752D01*
X118728333Y-68866609D01*
X118680714Y-69057085D01*
X118633095Y-69152323D01*
X118537857Y-69247561D01*
X118395000Y-69295180D01*
X118156904Y-69295180D01*
X119585476Y-68295180D02*
X119395000Y-68295180D01*
X119299761Y-68342800D01*
X119252142Y-68390419D01*
X119156904Y-68533276D01*
X119109285Y-68723752D01*
X119109285Y-69104704D01*
X119156904Y-69199942D01*
X119204523Y-69247561D01*
X119299761Y-69295180D01*
X119490238Y-69295180D01*
X119585476Y-69247561D01*
X119633095Y-69199942D01*
X119680714Y-69104704D01*
X119680714Y-68866609D01*
X119633095Y-68771371D01*
X119585476Y-68723752D01*
X119490238Y-68676133D01*
X119299761Y-68676133D01*
X119204523Y-68723752D01*
X119156904Y-68771371D01*
X119109285Y-68866609D01*
G04 #@! TO.C,D7*
X124440904Y-69295180D02*
X124440904Y-68295180D01*
X124679000Y-68295180D01*
X124821857Y-68342800D01*
X124917095Y-68438038D01*
X124964714Y-68533276D01*
X125012333Y-68723752D01*
X125012333Y-68866609D01*
X124964714Y-69057085D01*
X124917095Y-69152323D01*
X124821857Y-69247561D01*
X124679000Y-69295180D01*
X124440904Y-69295180D01*
X125345666Y-68295180D02*
X126012333Y-68295180D01*
X125583761Y-69295180D01*
G04 #@! TO.C,D8*
X158397904Y-87034580D02*
X158397904Y-86034580D01*
X158636000Y-86034580D01*
X158778857Y-86082200D01*
X158874095Y-86177438D01*
X158921714Y-86272676D01*
X158969333Y-86463152D01*
X158969333Y-86606009D01*
X158921714Y-86796485D01*
X158874095Y-86891723D01*
X158778857Y-86986961D01*
X158636000Y-87034580D01*
X158397904Y-87034580D01*
X159540761Y-86463152D02*
X159445523Y-86415533D01*
X159397904Y-86367914D01*
X159350285Y-86272676D01*
X159350285Y-86225057D01*
X159397904Y-86129819D01*
X159445523Y-86082200D01*
X159540761Y-86034580D01*
X159731238Y-86034580D01*
X159826476Y-86082200D01*
X159874095Y-86129819D01*
X159921714Y-86225057D01*
X159921714Y-86272676D01*
X159874095Y-86367914D01*
X159826476Y-86415533D01*
X159731238Y-86463152D01*
X159540761Y-86463152D01*
X159445523Y-86510771D01*
X159397904Y-86558390D01*
X159350285Y-86653628D01*
X159350285Y-86844104D01*
X159397904Y-86939342D01*
X159445523Y-86986961D01*
X159540761Y-87034580D01*
X159731238Y-87034580D01*
X159826476Y-86986961D01*
X159874095Y-86939342D01*
X159921714Y-86844104D01*
X159921714Y-86653628D01*
X159874095Y-86558390D01*
X159826476Y-86510771D01*
X159731238Y-86463152D01*
G04 #@! TO.C,D9*
X164270904Y-86932980D02*
X164270904Y-85932980D01*
X164509000Y-85932980D01*
X164651857Y-85980600D01*
X164747095Y-86075838D01*
X164794714Y-86171076D01*
X164842333Y-86361552D01*
X164842333Y-86504409D01*
X164794714Y-86694885D01*
X164747095Y-86790123D01*
X164651857Y-86885361D01*
X164509000Y-86932980D01*
X164270904Y-86932980D01*
X165318523Y-86932980D02*
X165509000Y-86932980D01*
X165604238Y-86885361D01*
X165651857Y-86837742D01*
X165747095Y-86694885D01*
X165794714Y-86504409D01*
X165794714Y-86123457D01*
X165747095Y-86028219D01*
X165699476Y-85980600D01*
X165604238Y-85932980D01*
X165413761Y-85932980D01*
X165318523Y-85980600D01*
X165270904Y-86028219D01*
X165223285Y-86123457D01*
X165223285Y-86361552D01*
X165270904Y-86456790D01*
X165318523Y-86504409D01*
X165413761Y-86552028D01*
X165604238Y-86552028D01*
X165699476Y-86504409D01*
X165747095Y-86456790D01*
X165794714Y-86361552D01*
G04 #@! TD*
M02*
