G04 #@! TF.GenerationSoftware,KiCad,Pcbnew,5.0.2-bee76a0~70~ubuntu18.10.1*
G04 #@! TF.CreationDate,2019-09-10T08:14:00-04:00*
G04 #@! TF.ProjectId,Helios,48656c69-6f73-42e6-9b69-6361645f7063,rev?*
G04 #@! TF.SameCoordinates,Original*
G04 #@! TF.FileFunction,Soldermask,Top*
G04 #@! TF.FilePolarity,Negative*
%FSLAX46Y46*%
G04 Gerber Fmt 4.6, Leading zero omitted, Abs format (unit mm)*
G04 Created by KiCad (PCBNEW 5.0.2-bee76a0~70~ubuntu18.10.1) date Tue 10 Sep 2019 08:14:00 AM EDT*
%MOMM*%
%LPD*%
G01*
G04 APERTURE LIST*
%ADD10C,0.100000*%
G04 APERTURE END LIST*
D10*
G36*
X179182603Y-130768968D02*
X179182606Y-130768969D01*
X179182605Y-130768969D01*
X179357678Y-130841486D01*
X179357679Y-130841487D01*
X179515241Y-130946767D01*
X179649233Y-131080759D01*
X179649234Y-131080761D01*
X179754514Y-131238322D01*
X179810603Y-131373734D01*
X179827032Y-131413397D01*
X179864000Y-131599250D01*
X179864000Y-131788750D01*
X179827032Y-131974603D01*
X179827031Y-131974605D01*
X179754514Y-132149678D01*
X179754513Y-132149679D01*
X179649233Y-132307241D01*
X179515241Y-132441233D01*
X179435923Y-132494232D01*
X179357678Y-132546514D01*
X179222266Y-132602603D01*
X179182603Y-132619032D01*
X178996750Y-132656000D01*
X178807250Y-132656000D01*
X178621397Y-132619032D01*
X178581734Y-132602603D01*
X178446322Y-132546514D01*
X178368077Y-132494232D01*
X178288759Y-132441233D01*
X178154767Y-132307241D01*
X178049487Y-132149679D01*
X178049486Y-132149678D01*
X177976969Y-131974605D01*
X177976968Y-131974603D01*
X177940000Y-131788750D01*
X177940000Y-131599250D01*
X177976968Y-131413397D01*
X177993397Y-131373734D01*
X178049486Y-131238322D01*
X178154766Y-131080761D01*
X178154767Y-131080759D01*
X178288759Y-130946767D01*
X178446321Y-130841487D01*
X178446322Y-130841486D01*
X178621395Y-130768969D01*
X178621394Y-130768969D01*
X178621397Y-130768968D01*
X178807250Y-130732000D01*
X178996750Y-130732000D01*
X179182603Y-130768968D01*
X179182603Y-130768968D01*
G37*
G36*
X149205603Y-130753968D02*
X149205606Y-130753969D01*
X149205605Y-130753969D01*
X149380678Y-130826486D01*
X149403128Y-130841487D01*
X149538241Y-130931767D01*
X149672233Y-131065759D01*
X149682257Y-131080761D01*
X149777514Y-131223322D01*
X149783727Y-131238322D01*
X149850032Y-131398397D01*
X149887000Y-131584250D01*
X149887000Y-131773750D01*
X149850032Y-131959603D01*
X149850031Y-131959605D01*
X149777514Y-132134678D01*
X149725232Y-132212923D01*
X149672233Y-132292241D01*
X149538241Y-132426233D01*
X149458923Y-132479232D01*
X149380678Y-132531514D01*
X149253890Y-132584031D01*
X149205603Y-132604032D01*
X149019750Y-132641000D01*
X148830250Y-132641000D01*
X148644397Y-132604032D01*
X148596110Y-132584031D01*
X148469322Y-132531514D01*
X148391077Y-132479232D01*
X148311759Y-132426233D01*
X148177767Y-132292241D01*
X148124768Y-132212923D01*
X148072486Y-132134678D01*
X147999969Y-131959605D01*
X147999968Y-131959603D01*
X147963000Y-131773750D01*
X147963000Y-131584250D01*
X147999968Y-131398397D01*
X148066273Y-131238322D01*
X148072486Y-131223322D01*
X148167743Y-131080761D01*
X148177767Y-131065759D01*
X148311759Y-130931767D01*
X148446872Y-130841487D01*
X148469322Y-130826486D01*
X148644395Y-130753969D01*
X148644394Y-130753969D01*
X148644397Y-130753968D01*
X148830250Y-130717000D01*
X149019750Y-130717000D01*
X149205603Y-130753968D01*
X149205603Y-130753968D01*
G37*
G36*
X119015603Y-130733968D02*
X119015606Y-130733969D01*
X119015605Y-130733969D01*
X119190678Y-130806486D01*
X119243060Y-130841487D01*
X119348241Y-130911767D01*
X119482233Y-131045759D01*
X119535232Y-131125077D01*
X119587514Y-131203322D01*
X119595798Y-131223322D01*
X119660032Y-131378397D01*
X119697000Y-131564250D01*
X119697000Y-131753750D01*
X119660032Y-131939603D01*
X119660031Y-131939605D01*
X119587514Y-132114678D01*
X119564127Y-132149679D01*
X119482233Y-132272241D01*
X119348241Y-132406233D01*
X119268923Y-132459232D01*
X119190678Y-132511514D01*
X119055266Y-132567603D01*
X119015603Y-132584032D01*
X118829750Y-132621000D01*
X118640250Y-132621000D01*
X118454397Y-132584032D01*
X118414734Y-132567603D01*
X118279322Y-132511514D01*
X118201077Y-132459232D01*
X118121759Y-132406233D01*
X117987767Y-132272241D01*
X117905873Y-132149679D01*
X117882486Y-132114678D01*
X117809969Y-131939605D01*
X117809968Y-131939603D01*
X117773000Y-131753750D01*
X117773000Y-131564250D01*
X117809968Y-131378397D01*
X117874202Y-131223322D01*
X117882486Y-131203322D01*
X117934768Y-131125077D01*
X117987767Y-131045759D01*
X118121759Y-130911767D01*
X118226940Y-130841487D01*
X118279322Y-130806486D01*
X118454395Y-130733969D01*
X118454394Y-130733969D01*
X118454397Y-130733968D01*
X118640250Y-130697000D01*
X118829750Y-130697000D01*
X119015603Y-130733968D01*
X119015603Y-130733968D01*
G37*
G36*
X179182603Y-125318968D02*
X179182606Y-125318969D01*
X179182605Y-125318969D01*
X179357678Y-125391486D01*
X179357679Y-125391487D01*
X179515241Y-125496767D01*
X179649233Y-125630759D01*
X179649234Y-125630761D01*
X179754514Y-125788322D01*
X179791823Y-125878395D01*
X179827032Y-125963397D01*
X179864000Y-126149250D01*
X179864000Y-126338750D01*
X179827032Y-126524603D01*
X179827031Y-126524605D01*
X179754514Y-126699678D01*
X179754513Y-126699679D01*
X179649233Y-126857241D01*
X179515241Y-126991233D01*
X179484890Y-127011513D01*
X179357678Y-127096514D01*
X179250278Y-127141000D01*
X179182603Y-127169032D01*
X178996750Y-127206000D01*
X178807250Y-127206000D01*
X178621397Y-127169032D01*
X178553722Y-127141000D01*
X178446322Y-127096514D01*
X178319110Y-127011513D01*
X178288759Y-126991233D01*
X178154767Y-126857241D01*
X178049487Y-126699679D01*
X178049486Y-126699678D01*
X177976969Y-126524605D01*
X177976968Y-126524603D01*
X177940000Y-126338750D01*
X177940000Y-126149250D01*
X177976968Y-125963397D01*
X178012177Y-125878395D01*
X178049486Y-125788322D01*
X178154766Y-125630761D01*
X178154767Y-125630759D01*
X178288759Y-125496767D01*
X178446321Y-125391487D01*
X178446322Y-125391486D01*
X178621395Y-125318969D01*
X178621394Y-125318969D01*
X178621397Y-125318968D01*
X178807250Y-125282000D01*
X178996750Y-125282000D01*
X179182603Y-125318968D01*
X179182603Y-125318968D01*
G37*
G36*
X149205603Y-125303968D02*
X149205606Y-125303969D01*
X149205605Y-125303969D01*
X149380678Y-125376486D01*
X149403128Y-125391487D01*
X149538241Y-125481767D01*
X149672233Y-125615759D01*
X149682257Y-125630761D01*
X149777514Y-125773322D01*
X149783727Y-125788322D01*
X149850032Y-125948397D01*
X149887000Y-126134250D01*
X149887000Y-126323750D01*
X149850032Y-126509603D01*
X149850031Y-126509605D01*
X149777514Y-126684678D01*
X149725232Y-126762923D01*
X149672233Y-126842241D01*
X149538241Y-126976233D01*
X149485441Y-127011513D01*
X149380678Y-127081514D01*
X149253890Y-127134031D01*
X149205603Y-127154032D01*
X149019750Y-127191000D01*
X148830250Y-127191000D01*
X148644397Y-127154032D01*
X148596110Y-127134031D01*
X148469322Y-127081514D01*
X148364559Y-127011513D01*
X148311759Y-126976233D01*
X148177767Y-126842241D01*
X148124768Y-126762923D01*
X148072486Y-126684678D01*
X147999969Y-126509605D01*
X147999968Y-126509603D01*
X147963000Y-126323750D01*
X147963000Y-126134250D01*
X147999968Y-125948397D01*
X148066273Y-125788322D01*
X148072486Y-125773322D01*
X148167743Y-125630761D01*
X148177767Y-125615759D01*
X148311759Y-125481767D01*
X148446872Y-125391487D01*
X148469322Y-125376486D01*
X148644395Y-125303969D01*
X148644394Y-125303969D01*
X148644397Y-125303968D01*
X148830250Y-125267000D01*
X149019750Y-125267000D01*
X149205603Y-125303968D01*
X149205603Y-125303968D01*
G37*
G36*
X119015603Y-125283968D02*
X119015606Y-125283969D01*
X119015605Y-125283969D01*
X119190678Y-125356486D01*
X119243060Y-125391487D01*
X119348241Y-125461767D01*
X119482233Y-125595759D01*
X119535232Y-125675077D01*
X119587514Y-125753322D01*
X119595798Y-125773322D01*
X119660032Y-125928397D01*
X119697000Y-126114250D01*
X119697000Y-126303750D01*
X119660032Y-126489603D01*
X119660031Y-126489605D01*
X119587514Y-126664678D01*
X119564127Y-126699679D01*
X119482233Y-126822241D01*
X119348241Y-126956233D01*
X119268923Y-127009232D01*
X119190678Y-127061514D01*
X119055266Y-127117603D01*
X119015603Y-127134032D01*
X118829750Y-127171000D01*
X118640250Y-127171000D01*
X118454397Y-127134032D01*
X118414734Y-127117603D01*
X118279322Y-127061514D01*
X118201077Y-127009232D01*
X118121759Y-126956233D01*
X117987767Y-126822241D01*
X117905873Y-126699679D01*
X117882486Y-126664678D01*
X117809969Y-126489605D01*
X117809968Y-126489603D01*
X117773000Y-126303750D01*
X117773000Y-126114250D01*
X117809968Y-125928397D01*
X117874202Y-125773322D01*
X117882486Y-125753322D01*
X117934768Y-125675077D01*
X117987767Y-125595759D01*
X118121759Y-125461767D01*
X118226940Y-125391487D01*
X118279322Y-125356486D01*
X118454395Y-125283969D01*
X118454394Y-125283969D01*
X118454397Y-125283968D01*
X118640250Y-125247000D01*
X118829750Y-125247000D01*
X119015603Y-125283968D01*
X119015603Y-125283968D01*
G37*
G36*
X184382603Y-125268968D02*
X184382606Y-125268969D01*
X184382605Y-125268969D01*
X184557678Y-125341486D01*
X184632509Y-125391487D01*
X184715241Y-125446767D01*
X184849233Y-125580759D01*
X184882642Y-125630759D01*
X184954514Y-125738322D01*
X185010603Y-125873734D01*
X185027032Y-125913397D01*
X185064000Y-126099250D01*
X185064000Y-126288750D01*
X185027032Y-126474603D01*
X185027031Y-126474605D01*
X184954514Y-126649678D01*
X184931127Y-126684679D01*
X184849233Y-126807241D01*
X184715241Y-126941233D01*
X184635923Y-126994232D01*
X184557678Y-127046514D01*
X184436969Y-127096513D01*
X184382603Y-127119032D01*
X184196750Y-127156000D01*
X184007250Y-127156000D01*
X183821397Y-127119032D01*
X183767031Y-127096513D01*
X183646322Y-127046514D01*
X183568077Y-126994232D01*
X183488759Y-126941233D01*
X183354767Y-126807241D01*
X183272873Y-126684679D01*
X183249486Y-126649678D01*
X183176969Y-126474605D01*
X183176968Y-126474603D01*
X183140000Y-126288750D01*
X183140000Y-126099250D01*
X183176968Y-125913397D01*
X183193397Y-125873734D01*
X183249486Y-125738322D01*
X183321358Y-125630759D01*
X183354767Y-125580759D01*
X183488759Y-125446767D01*
X183571491Y-125391487D01*
X183646322Y-125341486D01*
X183821395Y-125268969D01*
X183821394Y-125268969D01*
X183821397Y-125268968D01*
X184007250Y-125232000D01*
X184196750Y-125232000D01*
X184382603Y-125268968D01*
X184382603Y-125268968D01*
G37*
G36*
X154405603Y-125253968D02*
X154405606Y-125253969D01*
X154405605Y-125253969D01*
X154580678Y-125326486D01*
X154655509Y-125376487D01*
X154738241Y-125431767D01*
X154872233Y-125565759D01*
X154882257Y-125580761D01*
X154977514Y-125723322D01*
X155033603Y-125858734D01*
X155050032Y-125898397D01*
X155087000Y-126084250D01*
X155087000Y-126273750D01*
X155050032Y-126459603D01*
X155050031Y-126459605D01*
X154977514Y-126634678D01*
X154957468Y-126664678D01*
X154872233Y-126792241D01*
X154738241Y-126926233D01*
X154658923Y-126979232D01*
X154580678Y-127031514D01*
X154459969Y-127081513D01*
X154405603Y-127104032D01*
X154219750Y-127141000D01*
X154030250Y-127141000D01*
X153844397Y-127104032D01*
X153790031Y-127081513D01*
X153669322Y-127031514D01*
X153591077Y-126979232D01*
X153511759Y-126926233D01*
X153377767Y-126792241D01*
X153292532Y-126664678D01*
X153272486Y-126634678D01*
X153199969Y-126459605D01*
X153199968Y-126459603D01*
X153163000Y-126273750D01*
X153163000Y-126084250D01*
X153199968Y-125898397D01*
X153216397Y-125858734D01*
X153272486Y-125723322D01*
X153367743Y-125580761D01*
X153377767Y-125565759D01*
X153511759Y-125431767D01*
X153594491Y-125376487D01*
X153669322Y-125326486D01*
X153844395Y-125253969D01*
X153844394Y-125253969D01*
X153844397Y-125253968D01*
X154030250Y-125217000D01*
X154219750Y-125217000D01*
X154405603Y-125253968D01*
X154405603Y-125253968D01*
G37*
G36*
X124215603Y-125233968D02*
X124215606Y-125233969D01*
X124215605Y-125233969D01*
X124390678Y-125306486D01*
X124465509Y-125356487D01*
X124548241Y-125411767D01*
X124682233Y-125545759D01*
X124715642Y-125595759D01*
X124787514Y-125703322D01*
X124822721Y-125788321D01*
X124860032Y-125878397D01*
X124897000Y-126064250D01*
X124897000Y-126253750D01*
X124860032Y-126439603D01*
X124860031Y-126439605D01*
X124787514Y-126614678D01*
X124764127Y-126649679D01*
X124682233Y-126772241D01*
X124548241Y-126906233D01*
X124468923Y-126959232D01*
X124390678Y-127011514D01*
X124269969Y-127061513D01*
X124215603Y-127084032D01*
X124029750Y-127121000D01*
X123840250Y-127121000D01*
X123654397Y-127084032D01*
X123600031Y-127061513D01*
X123479322Y-127011514D01*
X123401077Y-126959232D01*
X123321759Y-126906233D01*
X123187767Y-126772241D01*
X123105873Y-126649679D01*
X123082486Y-126614678D01*
X123009969Y-126439605D01*
X123009968Y-126439603D01*
X122973000Y-126253750D01*
X122973000Y-126064250D01*
X123009968Y-125878397D01*
X123047279Y-125788321D01*
X123082486Y-125703322D01*
X123154358Y-125595759D01*
X123187767Y-125545759D01*
X123321759Y-125411767D01*
X123404491Y-125356487D01*
X123479322Y-125306486D01*
X123654395Y-125233969D01*
X123654394Y-125233969D01*
X123654397Y-125233968D01*
X123840250Y-125197000D01*
X124029750Y-125197000D01*
X124215603Y-125233968D01*
X124215603Y-125233968D01*
G37*
G36*
X187132603Y-120868968D02*
X187132606Y-120868969D01*
X187132605Y-120868969D01*
X187307678Y-120941486D01*
X187307679Y-120941487D01*
X187465241Y-121046767D01*
X187599233Y-121180759D01*
X187599234Y-121180761D01*
X187704514Y-121338322D01*
X187738346Y-121420000D01*
X187777032Y-121513397D01*
X187814000Y-121699250D01*
X187814000Y-121888750D01*
X187777032Y-122074603D01*
X187777031Y-122074605D01*
X187704514Y-122249678D01*
X187704513Y-122249679D01*
X187599233Y-122407241D01*
X187465241Y-122541233D01*
X187385923Y-122594232D01*
X187307678Y-122646514D01*
X187172266Y-122702603D01*
X187132603Y-122719032D01*
X186946750Y-122756000D01*
X186757250Y-122756000D01*
X186571397Y-122719032D01*
X186531734Y-122702603D01*
X186396322Y-122646514D01*
X186318077Y-122594232D01*
X186238759Y-122541233D01*
X186104767Y-122407241D01*
X185999487Y-122249679D01*
X185999486Y-122249678D01*
X185926969Y-122074605D01*
X185926968Y-122074603D01*
X185890000Y-121888750D01*
X185890000Y-121699250D01*
X185926968Y-121513397D01*
X185965654Y-121420000D01*
X185999486Y-121338322D01*
X186104766Y-121180761D01*
X186104767Y-121180759D01*
X186238759Y-121046767D01*
X186396321Y-120941487D01*
X186396322Y-120941486D01*
X186571395Y-120868969D01*
X186571394Y-120868969D01*
X186571397Y-120868968D01*
X186757250Y-120832000D01*
X186946750Y-120832000D01*
X187132603Y-120868968D01*
X187132603Y-120868968D01*
G37*
G36*
X157155603Y-120853968D02*
X157155606Y-120853969D01*
X157155605Y-120853969D01*
X157330678Y-120926486D01*
X157353128Y-120941487D01*
X157488241Y-121031767D01*
X157622233Y-121165759D01*
X157632257Y-121180761D01*
X157727514Y-121323322D01*
X157733727Y-121338322D01*
X157800032Y-121498397D01*
X157837000Y-121684250D01*
X157837000Y-121873750D01*
X157800032Y-122059603D01*
X157800031Y-122059605D01*
X157727514Y-122234678D01*
X157675232Y-122312923D01*
X157622233Y-122392241D01*
X157488241Y-122526233D01*
X157408923Y-122579232D01*
X157330678Y-122631514D01*
X157203890Y-122684031D01*
X157155603Y-122704032D01*
X156969750Y-122741000D01*
X156780250Y-122741000D01*
X156594397Y-122704032D01*
X156546110Y-122684031D01*
X156419322Y-122631514D01*
X156341077Y-122579232D01*
X156261759Y-122526233D01*
X156127767Y-122392241D01*
X156074768Y-122312923D01*
X156022486Y-122234678D01*
X155949969Y-122059605D01*
X155949968Y-122059603D01*
X155913000Y-121873750D01*
X155913000Y-121684250D01*
X155949968Y-121498397D01*
X156016273Y-121338322D01*
X156022486Y-121323322D01*
X156117743Y-121180761D01*
X156127767Y-121165759D01*
X156261759Y-121031767D01*
X156396872Y-120941487D01*
X156419322Y-120926486D01*
X156594395Y-120853969D01*
X156594394Y-120853969D01*
X156594397Y-120853968D01*
X156780250Y-120817000D01*
X156969750Y-120817000D01*
X157155603Y-120853968D01*
X157155603Y-120853968D01*
G37*
G36*
X126965603Y-120833968D02*
X126965606Y-120833969D01*
X126965605Y-120833969D01*
X127140678Y-120906486D01*
X127193060Y-120941487D01*
X127298241Y-121011767D01*
X127432233Y-121145759D01*
X127485232Y-121225077D01*
X127537514Y-121303322D01*
X127545798Y-121323322D01*
X127610032Y-121478397D01*
X127647000Y-121664250D01*
X127647000Y-121853750D01*
X127610032Y-122039603D01*
X127610031Y-122039605D01*
X127537514Y-122214678D01*
X127514127Y-122249679D01*
X127432233Y-122372241D01*
X127298241Y-122506233D01*
X127218923Y-122559232D01*
X127140678Y-122611514D01*
X127005266Y-122667603D01*
X126965603Y-122684032D01*
X126779750Y-122721000D01*
X126590250Y-122721000D01*
X126404397Y-122684032D01*
X126364734Y-122667603D01*
X126229322Y-122611514D01*
X126151077Y-122559232D01*
X126071759Y-122506233D01*
X125937767Y-122372241D01*
X125855873Y-122249679D01*
X125832486Y-122214678D01*
X125759969Y-122039605D01*
X125759968Y-122039603D01*
X125723000Y-121853750D01*
X125723000Y-121664250D01*
X125759968Y-121478397D01*
X125824202Y-121323322D01*
X125832486Y-121303322D01*
X125884768Y-121225077D01*
X125937767Y-121145759D01*
X126071759Y-121011767D01*
X126176940Y-120941487D01*
X126229322Y-120906486D01*
X126404395Y-120833969D01*
X126404394Y-120833969D01*
X126404397Y-120833968D01*
X126590250Y-120797000D01*
X126779750Y-120797000D01*
X126965603Y-120833968D01*
X126965603Y-120833968D01*
G37*
G36*
X141613628Y-119605493D02*
X141661354Y-119619970D01*
X141705336Y-119643479D01*
X141743885Y-119675115D01*
X141775521Y-119713664D01*
X141799030Y-119757646D01*
X141813507Y-119805372D01*
X141819000Y-119861141D01*
X141819000Y-121488859D01*
X141813507Y-121544628D01*
X141799030Y-121592354D01*
X141775521Y-121636336D01*
X141743885Y-121674885D01*
X141705336Y-121706521D01*
X141661354Y-121730030D01*
X141613628Y-121744507D01*
X141557859Y-121750000D01*
X140430141Y-121750000D01*
X140374372Y-121744507D01*
X140326646Y-121730030D01*
X140282664Y-121706521D01*
X140244115Y-121674885D01*
X140212479Y-121636336D01*
X140188970Y-121592354D01*
X140174493Y-121544628D01*
X140169000Y-121488859D01*
X140169000Y-119861141D01*
X140174493Y-119805372D01*
X140188970Y-119757646D01*
X140212479Y-119713664D01*
X140244115Y-119675115D01*
X140282664Y-119643479D01*
X140326646Y-119619970D01*
X140374372Y-119605493D01*
X140430141Y-119600000D01*
X141557859Y-119600000D01*
X141613628Y-119605493D01*
X141613628Y-119605493D01*
G37*
G36*
X144413628Y-119605493D02*
X144461354Y-119619970D01*
X144505336Y-119643479D01*
X144543885Y-119675115D01*
X144575521Y-119713664D01*
X144599030Y-119757646D01*
X144613507Y-119805372D01*
X144619000Y-119861141D01*
X144619000Y-121488859D01*
X144613507Y-121544628D01*
X144599030Y-121592354D01*
X144575521Y-121636336D01*
X144543885Y-121674885D01*
X144505336Y-121706521D01*
X144461354Y-121730030D01*
X144413628Y-121744507D01*
X144357859Y-121750000D01*
X143230141Y-121750000D01*
X143174372Y-121744507D01*
X143126646Y-121730030D01*
X143082664Y-121706521D01*
X143044115Y-121674885D01*
X143012479Y-121636336D01*
X142988970Y-121592354D01*
X142974493Y-121544628D01*
X142969000Y-121488859D01*
X142969000Y-119861141D01*
X142974493Y-119805372D01*
X142988970Y-119757646D01*
X143012479Y-119713664D01*
X143044115Y-119675115D01*
X143082664Y-119643479D01*
X143126646Y-119619970D01*
X143174372Y-119605493D01*
X143230141Y-119600000D01*
X144357859Y-119600000D01*
X144413628Y-119605493D01*
X144413628Y-119605493D01*
G37*
G36*
X179211628Y-118605493D02*
X179259354Y-118619970D01*
X179303336Y-118643479D01*
X179341885Y-118675115D01*
X179373521Y-118713664D01*
X179397030Y-118757646D01*
X179411507Y-118805372D01*
X179417000Y-118861141D01*
X179417000Y-120488859D01*
X179411507Y-120544628D01*
X179397030Y-120592354D01*
X179373521Y-120636336D01*
X179341885Y-120674885D01*
X179303336Y-120706521D01*
X179259354Y-120730030D01*
X179211628Y-120744507D01*
X179155859Y-120750000D01*
X178028141Y-120750000D01*
X177972372Y-120744507D01*
X177924646Y-120730030D01*
X177880664Y-120706521D01*
X177842115Y-120674885D01*
X177810479Y-120636336D01*
X177786970Y-120592354D01*
X177772493Y-120544628D01*
X177767000Y-120488859D01*
X177767000Y-118861141D01*
X177772493Y-118805372D01*
X177786970Y-118757646D01*
X177810479Y-118713664D01*
X177842115Y-118675115D01*
X177880664Y-118643479D01*
X177924646Y-118619970D01*
X177972372Y-118605493D01*
X178028141Y-118600000D01*
X179155859Y-118600000D01*
X179211628Y-118605493D01*
X179211628Y-118605493D01*
G37*
G36*
X176411628Y-118605493D02*
X176459354Y-118619970D01*
X176503336Y-118643479D01*
X176541885Y-118675115D01*
X176573521Y-118713664D01*
X176597030Y-118757646D01*
X176611507Y-118805372D01*
X176617000Y-118861141D01*
X176617000Y-120488859D01*
X176611507Y-120544628D01*
X176597030Y-120592354D01*
X176573521Y-120636336D01*
X176541885Y-120674885D01*
X176503336Y-120706521D01*
X176459354Y-120730030D01*
X176411628Y-120744507D01*
X176355859Y-120750000D01*
X175228141Y-120750000D01*
X175172372Y-120744507D01*
X175124646Y-120730030D01*
X175080664Y-120706521D01*
X175042115Y-120674885D01*
X175010479Y-120636336D01*
X174986970Y-120592354D01*
X174972493Y-120544628D01*
X174967000Y-120488859D01*
X174967000Y-118861141D01*
X174972493Y-118805372D01*
X174986970Y-118757646D01*
X175010479Y-118713664D01*
X175042115Y-118675115D01*
X175080664Y-118643479D01*
X175124646Y-118619970D01*
X175172372Y-118605493D01*
X175228141Y-118600000D01*
X176355859Y-118600000D01*
X176411628Y-118605493D01*
X176411628Y-118605493D01*
G37*
G36*
X159510628Y-118427493D02*
X159558354Y-118441970D01*
X159602336Y-118465479D01*
X159640885Y-118497115D01*
X159672521Y-118535664D01*
X159696030Y-118579646D01*
X159710507Y-118627372D01*
X159716000Y-118683141D01*
X159716000Y-120310859D01*
X159710507Y-120366628D01*
X159696030Y-120414354D01*
X159672521Y-120458336D01*
X159640885Y-120496885D01*
X159602336Y-120528521D01*
X159558354Y-120552030D01*
X159510628Y-120566507D01*
X159454859Y-120572000D01*
X158327141Y-120572000D01*
X158271372Y-120566507D01*
X158223646Y-120552030D01*
X158179664Y-120528521D01*
X158141115Y-120496885D01*
X158109479Y-120458336D01*
X158085970Y-120414354D01*
X158071493Y-120366628D01*
X158066000Y-120310859D01*
X158066000Y-118683141D01*
X158071493Y-118627372D01*
X158085970Y-118579646D01*
X158109479Y-118535664D01*
X158141115Y-118497115D01*
X158179664Y-118465479D01*
X158223646Y-118441970D01*
X158271372Y-118427493D01*
X158327141Y-118422000D01*
X159454859Y-118422000D01*
X159510628Y-118427493D01*
X159510628Y-118427493D01*
G37*
G36*
X162310628Y-118427493D02*
X162358354Y-118441970D01*
X162402336Y-118465479D01*
X162440885Y-118497115D01*
X162472521Y-118535664D01*
X162496030Y-118579646D01*
X162510507Y-118627372D01*
X162516000Y-118683141D01*
X162516000Y-120310859D01*
X162510507Y-120366628D01*
X162496030Y-120414354D01*
X162472521Y-120458336D01*
X162440885Y-120496885D01*
X162402336Y-120528521D01*
X162358354Y-120552030D01*
X162310628Y-120566507D01*
X162254859Y-120572000D01*
X161127141Y-120572000D01*
X161071372Y-120566507D01*
X161023646Y-120552030D01*
X160979664Y-120528521D01*
X160941115Y-120496885D01*
X160909479Y-120458336D01*
X160885970Y-120414354D01*
X160871493Y-120366628D01*
X160866000Y-120310859D01*
X160866000Y-118683141D01*
X160871493Y-118627372D01*
X160885970Y-118579646D01*
X160909479Y-118535664D01*
X160941115Y-118497115D01*
X160979664Y-118465479D01*
X161023646Y-118441970D01*
X161071372Y-118427493D01*
X161127141Y-118422000D01*
X162254859Y-118422000D01*
X162310628Y-118427493D01*
X162310628Y-118427493D01*
G37*
G36*
X121363628Y-117832493D02*
X121411354Y-117846970D01*
X121455336Y-117870479D01*
X121493885Y-117902115D01*
X121525521Y-117940664D01*
X121549030Y-117984646D01*
X121563507Y-118032372D01*
X121569000Y-118088141D01*
X121569000Y-119715859D01*
X121563507Y-119771628D01*
X121549030Y-119819354D01*
X121525521Y-119863336D01*
X121493885Y-119901885D01*
X121455336Y-119933521D01*
X121411354Y-119957030D01*
X121363628Y-119971507D01*
X121307859Y-119977000D01*
X120180141Y-119977000D01*
X120124372Y-119971507D01*
X120076646Y-119957030D01*
X120032664Y-119933521D01*
X119994115Y-119901885D01*
X119962479Y-119863336D01*
X119938970Y-119819354D01*
X119924493Y-119771628D01*
X119919000Y-119715859D01*
X119919000Y-118088141D01*
X119924493Y-118032372D01*
X119938970Y-117984646D01*
X119962479Y-117940664D01*
X119994115Y-117902115D01*
X120032664Y-117870479D01*
X120076646Y-117846970D01*
X120124372Y-117832493D01*
X120180141Y-117827000D01*
X121307859Y-117827000D01*
X121363628Y-117832493D01*
X121363628Y-117832493D01*
G37*
G36*
X124163628Y-117832493D02*
X124211354Y-117846970D01*
X124255336Y-117870479D01*
X124293885Y-117902115D01*
X124325521Y-117940664D01*
X124349030Y-117984646D01*
X124363507Y-118032372D01*
X124369000Y-118088141D01*
X124369000Y-119715859D01*
X124363507Y-119771628D01*
X124349030Y-119819354D01*
X124325521Y-119863336D01*
X124293885Y-119901885D01*
X124255336Y-119933521D01*
X124211354Y-119957030D01*
X124163628Y-119971507D01*
X124107859Y-119977000D01*
X122980141Y-119977000D01*
X122924372Y-119971507D01*
X122876646Y-119957030D01*
X122832664Y-119933521D01*
X122794115Y-119901885D01*
X122762479Y-119863336D01*
X122738970Y-119819354D01*
X122724493Y-119771628D01*
X122719000Y-119715859D01*
X122719000Y-118088141D01*
X122724493Y-118032372D01*
X122738970Y-117984646D01*
X122762479Y-117940664D01*
X122794115Y-117902115D01*
X122832664Y-117870479D01*
X122876646Y-117846970D01*
X122924372Y-117832493D01*
X122980141Y-117827000D01*
X124107859Y-117827000D01*
X124163628Y-117832493D01*
X124163628Y-117832493D01*
G37*
G36*
X102961628Y-116867493D02*
X103009354Y-116881970D01*
X103053336Y-116905479D01*
X103091885Y-116937115D01*
X103123521Y-116975664D01*
X103147030Y-117019646D01*
X103161507Y-117067372D01*
X103167000Y-117123141D01*
X103167000Y-118750859D01*
X103161507Y-118806628D01*
X103147030Y-118854354D01*
X103123521Y-118898336D01*
X103091885Y-118936885D01*
X103053336Y-118968521D01*
X103009354Y-118992030D01*
X102961628Y-119006507D01*
X102905859Y-119012000D01*
X101778141Y-119012000D01*
X101722372Y-119006507D01*
X101674646Y-118992030D01*
X101630664Y-118968521D01*
X101592115Y-118936885D01*
X101560479Y-118898336D01*
X101536970Y-118854354D01*
X101522493Y-118806628D01*
X101517000Y-118750859D01*
X101517000Y-117123141D01*
X101522493Y-117067372D01*
X101536970Y-117019646D01*
X101560479Y-116975664D01*
X101592115Y-116937115D01*
X101630664Y-116905479D01*
X101674646Y-116881970D01*
X101722372Y-116867493D01*
X101778141Y-116862000D01*
X102905859Y-116862000D01*
X102961628Y-116867493D01*
X102961628Y-116867493D01*
G37*
G36*
X105761628Y-116867493D02*
X105809354Y-116881970D01*
X105853336Y-116905479D01*
X105891885Y-116937115D01*
X105923521Y-116975664D01*
X105947030Y-117019646D01*
X105961507Y-117067372D01*
X105967000Y-117123141D01*
X105967000Y-118750859D01*
X105961507Y-118806628D01*
X105947030Y-118854354D01*
X105923521Y-118898336D01*
X105891885Y-118936885D01*
X105853336Y-118968521D01*
X105809354Y-118992030D01*
X105761628Y-119006507D01*
X105705859Y-119012000D01*
X104578141Y-119012000D01*
X104522372Y-119006507D01*
X104474646Y-118992030D01*
X104430664Y-118968521D01*
X104392115Y-118936885D01*
X104360479Y-118898336D01*
X104336970Y-118854354D01*
X104322493Y-118806628D01*
X104317000Y-118750859D01*
X104317000Y-117123141D01*
X104322493Y-117067372D01*
X104336970Y-117019646D01*
X104360479Y-116975664D01*
X104392115Y-116937115D01*
X104430664Y-116905479D01*
X104474646Y-116881970D01*
X104522372Y-116867493D01*
X104578141Y-116862000D01*
X105705859Y-116862000D01*
X105761628Y-116867493D01*
X105761628Y-116867493D01*
G37*
G36*
X139805000Y-116170000D02*
X137655000Y-116170000D01*
X137655000Y-109470000D01*
X139805000Y-109470000D01*
X139805000Y-116170000D01*
X139805000Y-116170000D01*
G37*
G36*
X147005000Y-116170000D02*
X144855000Y-116170000D01*
X144855000Y-109470000D01*
X147005000Y-109470000D01*
X147005000Y-116170000D01*
X147005000Y-116170000D01*
G37*
G36*
X157995000Y-115100000D02*
X155845000Y-115100000D01*
X155845000Y-108400000D01*
X157995000Y-108400000D01*
X157995000Y-115100000D01*
X157995000Y-115100000D01*
G37*
G36*
X165195000Y-115100000D02*
X163045000Y-115100000D01*
X163045000Y-108400000D01*
X165195000Y-108400000D01*
X165195000Y-115100000D01*
X165195000Y-115100000D01*
G37*
G36*
X174915000Y-115010000D02*
X172765000Y-115010000D01*
X172765000Y-108310000D01*
X174915000Y-108310000D01*
X174915000Y-115010000D01*
X174915000Y-115010000D01*
G37*
G36*
X182115000Y-115010000D02*
X179965000Y-115010000D01*
X179965000Y-108310000D01*
X182115000Y-108310000D01*
X182115000Y-115010000D01*
X182115000Y-115010000D01*
G37*
G36*
X126885000Y-114940000D02*
X124735000Y-114940000D01*
X124735000Y-108240000D01*
X126885000Y-108240000D01*
X126885000Y-114940000D01*
X126885000Y-114940000D01*
G37*
G36*
X119685000Y-114940000D02*
X117535000Y-114940000D01*
X117535000Y-108240000D01*
X119685000Y-108240000D01*
X119685000Y-114940000D01*
X119685000Y-114940000D01*
G37*
G36*
X135098628Y-113135493D02*
X135146354Y-113149970D01*
X135190336Y-113173479D01*
X135228885Y-113205115D01*
X135260521Y-113243664D01*
X135284030Y-113287646D01*
X135298507Y-113335372D01*
X135304000Y-113391141D01*
X135304000Y-114518859D01*
X135298507Y-114574628D01*
X135284030Y-114622354D01*
X135260521Y-114666336D01*
X135228885Y-114704885D01*
X135190336Y-114736521D01*
X135146354Y-114760030D01*
X135098628Y-114774507D01*
X135042859Y-114780000D01*
X133415141Y-114780000D01*
X133359372Y-114774507D01*
X133311646Y-114760030D01*
X133267664Y-114736521D01*
X133229115Y-114704885D01*
X133197479Y-114666336D01*
X133173970Y-114622354D01*
X133159493Y-114574628D01*
X133154000Y-114518859D01*
X133154000Y-113391141D01*
X133159493Y-113335372D01*
X133173970Y-113287646D01*
X133197479Y-113243664D01*
X133229115Y-113205115D01*
X133267664Y-113173479D01*
X133311646Y-113149970D01*
X133359372Y-113135493D01*
X133415141Y-113130000D01*
X135042859Y-113130000D01*
X135098628Y-113135493D01*
X135098628Y-113135493D01*
G37*
G36*
X153254628Y-112358493D02*
X153302354Y-112372970D01*
X153346336Y-112396479D01*
X153384885Y-112428115D01*
X153416521Y-112466664D01*
X153440030Y-112510646D01*
X153454507Y-112558372D01*
X153460000Y-112614141D01*
X153460000Y-113741859D01*
X153454507Y-113797628D01*
X153440030Y-113845354D01*
X153416521Y-113889336D01*
X153384885Y-113927885D01*
X153346336Y-113959521D01*
X153302354Y-113983030D01*
X153254628Y-113997507D01*
X153198859Y-114003000D01*
X151571141Y-114003000D01*
X151515372Y-113997507D01*
X151467646Y-113983030D01*
X151423664Y-113959521D01*
X151385115Y-113927885D01*
X151353479Y-113889336D01*
X151329970Y-113845354D01*
X151315493Y-113797628D01*
X151310000Y-113741859D01*
X151310000Y-112614141D01*
X151315493Y-112558372D01*
X151329970Y-112510646D01*
X151353479Y-112466664D01*
X151385115Y-112428115D01*
X151423664Y-112396479D01*
X151467646Y-112372970D01*
X151515372Y-112358493D01*
X151571141Y-112353000D01*
X153198859Y-112353000D01*
X153254628Y-112358493D01*
X153254628Y-112358493D01*
G37*
G36*
X101415000Y-113710000D02*
X99265000Y-113710000D01*
X99265000Y-107010000D01*
X101415000Y-107010000D01*
X101415000Y-113710000D01*
X101415000Y-113710000D01*
G37*
G36*
X108615000Y-113710000D02*
X106465000Y-113710000D01*
X106465000Y-107010000D01*
X108615000Y-107010000D01*
X108615000Y-113710000D01*
X108615000Y-113710000D01*
G37*
G36*
X170399628Y-112064493D02*
X170447354Y-112078970D01*
X170491336Y-112102479D01*
X170529885Y-112134115D01*
X170561521Y-112172664D01*
X170585030Y-112216646D01*
X170599507Y-112264372D01*
X170605000Y-112320141D01*
X170605000Y-113447859D01*
X170599507Y-113503628D01*
X170585030Y-113551354D01*
X170561521Y-113595336D01*
X170529885Y-113633885D01*
X170491336Y-113665521D01*
X170447354Y-113689030D01*
X170399628Y-113703507D01*
X170343859Y-113709000D01*
X168716141Y-113709000D01*
X168660372Y-113703507D01*
X168612646Y-113689030D01*
X168568664Y-113665521D01*
X168530115Y-113633885D01*
X168498479Y-113595336D01*
X168474970Y-113551354D01*
X168460493Y-113503628D01*
X168455000Y-113447859D01*
X168455000Y-112320141D01*
X168460493Y-112264372D01*
X168474970Y-112216646D01*
X168498479Y-112172664D01*
X168530115Y-112134115D01*
X168568664Y-112102479D01*
X168612646Y-112078970D01*
X168660372Y-112064493D01*
X168716141Y-112059000D01*
X170343859Y-112059000D01*
X170399628Y-112064493D01*
X170399628Y-112064493D01*
G37*
G36*
X115001628Y-111998493D02*
X115049354Y-112012970D01*
X115093336Y-112036479D01*
X115131885Y-112068115D01*
X115163521Y-112106664D01*
X115187030Y-112150646D01*
X115201507Y-112198372D01*
X115207000Y-112254141D01*
X115207000Y-113381859D01*
X115201507Y-113437628D01*
X115187030Y-113485354D01*
X115163521Y-113529336D01*
X115131885Y-113567885D01*
X115093336Y-113599521D01*
X115049354Y-113623030D01*
X115001628Y-113637507D01*
X114945859Y-113643000D01*
X113318141Y-113643000D01*
X113262372Y-113637507D01*
X113214646Y-113623030D01*
X113170664Y-113599521D01*
X113132115Y-113567885D01*
X113100479Y-113529336D01*
X113076970Y-113485354D01*
X113062493Y-113437628D01*
X113057000Y-113381859D01*
X113057000Y-112254141D01*
X113062493Y-112198372D01*
X113076970Y-112150646D01*
X113100479Y-112106664D01*
X113132115Y-112068115D01*
X113170664Y-112036479D01*
X113214646Y-112012970D01*
X113262372Y-111998493D01*
X113318141Y-111993000D01*
X114945859Y-111993000D01*
X115001628Y-111998493D01*
X115001628Y-111998493D01*
G37*
G36*
X96866428Y-111014493D02*
X96914154Y-111028970D01*
X96958136Y-111052479D01*
X96996685Y-111084115D01*
X97028321Y-111122664D01*
X97051830Y-111166646D01*
X97066307Y-111214372D01*
X97071800Y-111270141D01*
X97071800Y-112397859D01*
X97066307Y-112453628D01*
X97051830Y-112501354D01*
X97028321Y-112545336D01*
X96996685Y-112583885D01*
X96958136Y-112615521D01*
X96914154Y-112639030D01*
X96866428Y-112653507D01*
X96810659Y-112659000D01*
X95182941Y-112659000D01*
X95127172Y-112653507D01*
X95079446Y-112639030D01*
X95035464Y-112615521D01*
X94996915Y-112583885D01*
X94965279Y-112545336D01*
X94941770Y-112501354D01*
X94927293Y-112453628D01*
X94921800Y-112397859D01*
X94921800Y-111270141D01*
X94927293Y-111214372D01*
X94941770Y-111166646D01*
X94965279Y-111122664D01*
X94996915Y-111084115D01*
X95035464Y-111052479D01*
X95079446Y-111028970D01*
X95127172Y-111014493D01*
X95182941Y-111009000D01*
X96810659Y-111009000D01*
X96866428Y-111014493D01*
X96866428Y-111014493D01*
G37*
G36*
X135098628Y-110335493D02*
X135146354Y-110349970D01*
X135190336Y-110373479D01*
X135228885Y-110405115D01*
X135260521Y-110443664D01*
X135284030Y-110487646D01*
X135298507Y-110535372D01*
X135304000Y-110591141D01*
X135304000Y-111718859D01*
X135298507Y-111774628D01*
X135284030Y-111822354D01*
X135260521Y-111866336D01*
X135228885Y-111904885D01*
X135190336Y-111936521D01*
X135146354Y-111960030D01*
X135098628Y-111974507D01*
X135042859Y-111980000D01*
X133415141Y-111980000D01*
X133359372Y-111974507D01*
X133311646Y-111960030D01*
X133267664Y-111936521D01*
X133229115Y-111904885D01*
X133197479Y-111866336D01*
X133173970Y-111822354D01*
X133159493Y-111774628D01*
X133154000Y-111718859D01*
X133154000Y-110591141D01*
X133159493Y-110535372D01*
X133173970Y-110487646D01*
X133197479Y-110443664D01*
X133229115Y-110405115D01*
X133267664Y-110373479D01*
X133311646Y-110349970D01*
X133359372Y-110335493D01*
X133415141Y-110330000D01*
X135042859Y-110330000D01*
X135098628Y-110335493D01*
X135098628Y-110335493D01*
G37*
G36*
X153254628Y-109558493D02*
X153302354Y-109572970D01*
X153346336Y-109596479D01*
X153384885Y-109628115D01*
X153416521Y-109666664D01*
X153440030Y-109710646D01*
X153454507Y-109758372D01*
X153460000Y-109814141D01*
X153460000Y-110941859D01*
X153454507Y-110997628D01*
X153440030Y-111045354D01*
X153416521Y-111089336D01*
X153384885Y-111127885D01*
X153346336Y-111159521D01*
X153302354Y-111183030D01*
X153254628Y-111197507D01*
X153198859Y-111203000D01*
X151571141Y-111203000D01*
X151515372Y-111197507D01*
X151467646Y-111183030D01*
X151423664Y-111159521D01*
X151385115Y-111127885D01*
X151353479Y-111089336D01*
X151329970Y-111045354D01*
X151315493Y-110997628D01*
X151310000Y-110941859D01*
X151310000Y-109814141D01*
X151315493Y-109758372D01*
X151329970Y-109710646D01*
X151353479Y-109666664D01*
X151385115Y-109628115D01*
X151423664Y-109596479D01*
X151467646Y-109572970D01*
X151515372Y-109558493D01*
X151571141Y-109553000D01*
X153198859Y-109553000D01*
X153254628Y-109558493D01*
X153254628Y-109558493D01*
G37*
G36*
X170399628Y-109264493D02*
X170447354Y-109278970D01*
X170491336Y-109302479D01*
X170529885Y-109334115D01*
X170561521Y-109372664D01*
X170585030Y-109416646D01*
X170599507Y-109464372D01*
X170605000Y-109520141D01*
X170605000Y-110647859D01*
X170599507Y-110703628D01*
X170585030Y-110751354D01*
X170561521Y-110795336D01*
X170529885Y-110833885D01*
X170491336Y-110865521D01*
X170447354Y-110889030D01*
X170399628Y-110903507D01*
X170343859Y-110909000D01*
X168716141Y-110909000D01*
X168660372Y-110903507D01*
X168612646Y-110889030D01*
X168568664Y-110865521D01*
X168530115Y-110833885D01*
X168498479Y-110795336D01*
X168474970Y-110751354D01*
X168460493Y-110703628D01*
X168455000Y-110647859D01*
X168455000Y-109520141D01*
X168460493Y-109464372D01*
X168474970Y-109416646D01*
X168498479Y-109372664D01*
X168530115Y-109334115D01*
X168568664Y-109302479D01*
X168612646Y-109278970D01*
X168660372Y-109264493D01*
X168716141Y-109259000D01*
X170343859Y-109259000D01*
X170399628Y-109264493D01*
X170399628Y-109264493D01*
G37*
G36*
X115001628Y-109198493D02*
X115049354Y-109212970D01*
X115093336Y-109236479D01*
X115131885Y-109268115D01*
X115163521Y-109306664D01*
X115187030Y-109350646D01*
X115201507Y-109398372D01*
X115207000Y-109454141D01*
X115207000Y-110581859D01*
X115201507Y-110637628D01*
X115187030Y-110685354D01*
X115163521Y-110729336D01*
X115131885Y-110767885D01*
X115093336Y-110799521D01*
X115049354Y-110823030D01*
X115001628Y-110837507D01*
X114945859Y-110843000D01*
X113318141Y-110843000D01*
X113262372Y-110837507D01*
X113214646Y-110823030D01*
X113170664Y-110799521D01*
X113132115Y-110767885D01*
X113100479Y-110729336D01*
X113076970Y-110685354D01*
X113062493Y-110637628D01*
X113057000Y-110581859D01*
X113057000Y-109454141D01*
X113062493Y-109398372D01*
X113076970Y-109350646D01*
X113100479Y-109306664D01*
X113132115Y-109268115D01*
X113170664Y-109236479D01*
X113214646Y-109212970D01*
X113262372Y-109198493D01*
X113318141Y-109193000D01*
X114945859Y-109193000D01*
X115001628Y-109198493D01*
X115001628Y-109198493D01*
G37*
G36*
X96866428Y-108214493D02*
X96914154Y-108228970D01*
X96958136Y-108252479D01*
X96996685Y-108284115D01*
X97028321Y-108322664D01*
X97051830Y-108366646D01*
X97066307Y-108414372D01*
X97071800Y-108470141D01*
X97071800Y-109597859D01*
X97066307Y-109653628D01*
X97051830Y-109701354D01*
X97028321Y-109745336D01*
X96996685Y-109783885D01*
X96958136Y-109815521D01*
X96914154Y-109839030D01*
X96866428Y-109853507D01*
X96810659Y-109859000D01*
X95182941Y-109859000D01*
X95127172Y-109853507D01*
X95079446Y-109839030D01*
X95035464Y-109815521D01*
X94996915Y-109783885D01*
X94965279Y-109745336D01*
X94941770Y-109701354D01*
X94927293Y-109653628D01*
X94921800Y-109597859D01*
X94921800Y-108470141D01*
X94927293Y-108414372D01*
X94941770Y-108366646D01*
X94965279Y-108322664D01*
X94996915Y-108284115D01*
X95035464Y-108252479D01*
X95079446Y-108228970D01*
X95127172Y-108214493D01*
X95182941Y-108209000D01*
X96810659Y-108209000D01*
X96866428Y-108214493D01*
X96866428Y-108214493D01*
G37*
G36*
X138487628Y-105265493D02*
X138535354Y-105279970D01*
X138579336Y-105303479D01*
X138617885Y-105335115D01*
X138649521Y-105373664D01*
X138673030Y-105417646D01*
X138687507Y-105465372D01*
X138693000Y-105521141D01*
X138693000Y-107148859D01*
X138687507Y-107204628D01*
X138673030Y-107252354D01*
X138649521Y-107296336D01*
X138617885Y-107334885D01*
X138579336Y-107366521D01*
X138535354Y-107390030D01*
X138487628Y-107404507D01*
X138431859Y-107410000D01*
X137304141Y-107410000D01*
X137248372Y-107404507D01*
X137200646Y-107390030D01*
X137156664Y-107366521D01*
X137118115Y-107334885D01*
X137086479Y-107296336D01*
X137062970Y-107252354D01*
X137048493Y-107204628D01*
X137043000Y-107148859D01*
X137043000Y-105521141D01*
X137048493Y-105465372D01*
X137062970Y-105417646D01*
X137086479Y-105373664D01*
X137118115Y-105335115D01*
X137156664Y-105303479D01*
X137200646Y-105279970D01*
X137248372Y-105265493D01*
X137304141Y-105260000D01*
X138431859Y-105260000D01*
X138487628Y-105265493D01*
X138487628Y-105265493D01*
G37*
G36*
X141287628Y-105265493D02*
X141335354Y-105279970D01*
X141379336Y-105303479D01*
X141417885Y-105335115D01*
X141449521Y-105373664D01*
X141473030Y-105417646D01*
X141487507Y-105465372D01*
X141493000Y-105521141D01*
X141493000Y-107148859D01*
X141487507Y-107204628D01*
X141473030Y-107252354D01*
X141449521Y-107296336D01*
X141417885Y-107334885D01*
X141379336Y-107366521D01*
X141335354Y-107390030D01*
X141287628Y-107404507D01*
X141231859Y-107410000D01*
X140104141Y-107410000D01*
X140048372Y-107404507D01*
X140000646Y-107390030D01*
X139956664Y-107366521D01*
X139918115Y-107334885D01*
X139886479Y-107296336D01*
X139862970Y-107252354D01*
X139848493Y-107204628D01*
X139843000Y-107148859D01*
X139843000Y-105521141D01*
X139848493Y-105465372D01*
X139862970Y-105417646D01*
X139886479Y-105373664D01*
X139918115Y-105335115D01*
X139956664Y-105303479D01*
X140000646Y-105279970D01*
X140048372Y-105265493D01*
X140104141Y-105260000D01*
X141231859Y-105260000D01*
X141287628Y-105265493D01*
X141287628Y-105265493D01*
G37*
G36*
X148199628Y-105249493D02*
X148247354Y-105263970D01*
X148291336Y-105287479D01*
X148329885Y-105319115D01*
X148361521Y-105357664D01*
X148385030Y-105401646D01*
X148399507Y-105449372D01*
X148405000Y-105505141D01*
X148405000Y-107132859D01*
X148399507Y-107188628D01*
X148385030Y-107236354D01*
X148361521Y-107280336D01*
X148329885Y-107318885D01*
X148291336Y-107350521D01*
X148247354Y-107374030D01*
X148199628Y-107388507D01*
X148143859Y-107394000D01*
X147016141Y-107394000D01*
X146960372Y-107388507D01*
X146912646Y-107374030D01*
X146868664Y-107350521D01*
X146830115Y-107318885D01*
X146798479Y-107280336D01*
X146774970Y-107236354D01*
X146760493Y-107188628D01*
X146755000Y-107132859D01*
X146755000Y-105505141D01*
X146760493Y-105449372D01*
X146774970Y-105401646D01*
X146798479Y-105357664D01*
X146830115Y-105319115D01*
X146868664Y-105287479D01*
X146912646Y-105263970D01*
X146960372Y-105249493D01*
X147016141Y-105244000D01*
X148143859Y-105244000D01*
X148199628Y-105249493D01*
X148199628Y-105249493D01*
G37*
G36*
X145399628Y-105249493D02*
X145447354Y-105263970D01*
X145491336Y-105287479D01*
X145529885Y-105319115D01*
X145561521Y-105357664D01*
X145585030Y-105401646D01*
X145599507Y-105449372D01*
X145605000Y-105505141D01*
X145605000Y-107132859D01*
X145599507Y-107188628D01*
X145585030Y-107236354D01*
X145561521Y-107280336D01*
X145529885Y-107318885D01*
X145491336Y-107350521D01*
X145447354Y-107374030D01*
X145399628Y-107388507D01*
X145343859Y-107394000D01*
X144216141Y-107394000D01*
X144160372Y-107388507D01*
X144112646Y-107374030D01*
X144068664Y-107350521D01*
X144030115Y-107318885D01*
X143998479Y-107280336D01*
X143974970Y-107236354D01*
X143960493Y-107188628D01*
X143955000Y-107132859D01*
X143955000Y-105505141D01*
X143960493Y-105449372D01*
X143974970Y-105401646D01*
X143998479Y-105357664D01*
X144030115Y-105319115D01*
X144068664Y-105287479D01*
X144112646Y-105263970D01*
X144160372Y-105249493D01*
X144216141Y-105244000D01*
X145343859Y-105244000D01*
X145399628Y-105249493D01*
X145399628Y-105249493D01*
G37*
G36*
X124426628Y-104101493D02*
X124474354Y-104115970D01*
X124518336Y-104139479D01*
X124556885Y-104171115D01*
X124588521Y-104209664D01*
X124612030Y-104253646D01*
X124626507Y-104301372D01*
X124632000Y-104357141D01*
X124632000Y-105984859D01*
X124626507Y-106040628D01*
X124612030Y-106088354D01*
X124588521Y-106132336D01*
X124556885Y-106170885D01*
X124518336Y-106202521D01*
X124474354Y-106226030D01*
X124426628Y-106240507D01*
X124370859Y-106246000D01*
X123243141Y-106246000D01*
X123187372Y-106240507D01*
X123139646Y-106226030D01*
X123095664Y-106202521D01*
X123057115Y-106170885D01*
X123025479Y-106132336D01*
X123001970Y-106088354D01*
X122987493Y-106040628D01*
X122982000Y-105984859D01*
X122982000Y-104357141D01*
X122987493Y-104301372D01*
X123001970Y-104253646D01*
X123025479Y-104209664D01*
X123057115Y-104171115D01*
X123095664Y-104139479D01*
X123139646Y-104115970D01*
X123187372Y-104101493D01*
X123243141Y-104096000D01*
X124370859Y-104096000D01*
X124426628Y-104101493D01*
X124426628Y-104101493D01*
G37*
G36*
X127226628Y-104101493D02*
X127274354Y-104115970D01*
X127318336Y-104139479D01*
X127356885Y-104171115D01*
X127388521Y-104209664D01*
X127412030Y-104253646D01*
X127426507Y-104301372D01*
X127432000Y-104357141D01*
X127432000Y-105984859D01*
X127426507Y-106040628D01*
X127412030Y-106088354D01*
X127388521Y-106132336D01*
X127356885Y-106170885D01*
X127318336Y-106202521D01*
X127274354Y-106226030D01*
X127226628Y-106240507D01*
X127170859Y-106246000D01*
X126043141Y-106246000D01*
X125987372Y-106240507D01*
X125939646Y-106226030D01*
X125895664Y-106202521D01*
X125857115Y-106170885D01*
X125825479Y-106132336D01*
X125801970Y-106088354D01*
X125787493Y-106040628D01*
X125782000Y-105984859D01*
X125782000Y-104357141D01*
X125787493Y-104301372D01*
X125801970Y-104253646D01*
X125825479Y-104209664D01*
X125857115Y-104171115D01*
X125895664Y-104139479D01*
X125939646Y-104115970D01*
X125987372Y-104101493D01*
X126043141Y-104096000D01*
X127170859Y-104096000D01*
X127226628Y-104101493D01*
X127226628Y-104101493D01*
G37*
G36*
X118406628Y-104091493D02*
X118454354Y-104105970D01*
X118498336Y-104129479D01*
X118536885Y-104161115D01*
X118568521Y-104199664D01*
X118592030Y-104243646D01*
X118606507Y-104291372D01*
X118612000Y-104347141D01*
X118612000Y-105974859D01*
X118606507Y-106030628D01*
X118592030Y-106078354D01*
X118568521Y-106122336D01*
X118536885Y-106160885D01*
X118498336Y-106192521D01*
X118454354Y-106216030D01*
X118406628Y-106230507D01*
X118350859Y-106236000D01*
X117223141Y-106236000D01*
X117167372Y-106230507D01*
X117119646Y-106216030D01*
X117075664Y-106192521D01*
X117037115Y-106160885D01*
X117005479Y-106122336D01*
X116981970Y-106078354D01*
X116967493Y-106030628D01*
X116962000Y-105974859D01*
X116962000Y-104347141D01*
X116967493Y-104291372D01*
X116981970Y-104243646D01*
X117005479Y-104199664D01*
X117037115Y-104161115D01*
X117075664Y-104129479D01*
X117119646Y-104105970D01*
X117167372Y-104091493D01*
X117223141Y-104086000D01*
X118350859Y-104086000D01*
X118406628Y-104091493D01*
X118406628Y-104091493D01*
G37*
G36*
X121206628Y-104091493D02*
X121254354Y-104105970D01*
X121298336Y-104129479D01*
X121336885Y-104161115D01*
X121368521Y-104199664D01*
X121392030Y-104243646D01*
X121406507Y-104291372D01*
X121412000Y-104347141D01*
X121412000Y-105974859D01*
X121406507Y-106030628D01*
X121392030Y-106078354D01*
X121368521Y-106122336D01*
X121336885Y-106160885D01*
X121298336Y-106192521D01*
X121254354Y-106216030D01*
X121206628Y-106230507D01*
X121150859Y-106236000D01*
X120023141Y-106236000D01*
X119967372Y-106230507D01*
X119919646Y-106216030D01*
X119875664Y-106192521D01*
X119837115Y-106160885D01*
X119805479Y-106122336D01*
X119781970Y-106078354D01*
X119767493Y-106030628D01*
X119762000Y-105974859D01*
X119762000Y-104347141D01*
X119767493Y-104291372D01*
X119781970Y-104243646D01*
X119805479Y-104199664D01*
X119837115Y-104161115D01*
X119875664Y-104129479D01*
X119919646Y-104105970D01*
X119967372Y-104091493D01*
X120023141Y-104086000D01*
X121150859Y-104086000D01*
X121206628Y-104091493D01*
X121206628Y-104091493D01*
G37*
G36*
X182204628Y-104081493D02*
X182252354Y-104095970D01*
X182296336Y-104119479D01*
X182334885Y-104151115D01*
X182366521Y-104189664D01*
X182390030Y-104233646D01*
X182404507Y-104281372D01*
X182410000Y-104337141D01*
X182410000Y-105964859D01*
X182404507Y-106020628D01*
X182390030Y-106068354D01*
X182366521Y-106112336D01*
X182334885Y-106150885D01*
X182296336Y-106182521D01*
X182252354Y-106206030D01*
X182204628Y-106220507D01*
X182148859Y-106226000D01*
X181021141Y-106226000D01*
X180965372Y-106220507D01*
X180917646Y-106206030D01*
X180873664Y-106182521D01*
X180835115Y-106150885D01*
X180803479Y-106112336D01*
X180779970Y-106068354D01*
X180765493Y-106020628D01*
X180760000Y-105964859D01*
X180760000Y-104337141D01*
X180765493Y-104281372D01*
X180779970Y-104233646D01*
X180803479Y-104189664D01*
X180835115Y-104151115D01*
X180873664Y-104119479D01*
X180917646Y-104095970D01*
X180965372Y-104081493D01*
X181021141Y-104076000D01*
X182148859Y-104076000D01*
X182204628Y-104081493D01*
X182204628Y-104081493D01*
G37*
G36*
X179404628Y-104081493D02*
X179452354Y-104095970D01*
X179496336Y-104119479D01*
X179534885Y-104151115D01*
X179566521Y-104189664D01*
X179590030Y-104233646D01*
X179604507Y-104281372D01*
X179610000Y-104337141D01*
X179610000Y-105964859D01*
X179604507Y-106020628D01*
X179590030Y-106068354D01*
X179566521Y-106112336D01*
X179534885Y-106150885D01*
X179496336Y-106182521D01*
X179452354Y-106206030D01*
X179404628Y-106220507D01*
X179348859Y-106226000D01*
X178221141Y-106226000D01*
X178165372Y-106220507D01*
X178117646Y-106206030D01*
X178073664Y-106182521D01*
X178035115Y-106150885D01*
X178003479Y-106112336D01*
X177979970Y-106068354D01*
X177965493Y-106020628D01*
X177960000Y-105964859D01*
X177960000Y-104337141D01*
X177965493Y-104281372D01*
X177979970Y-104233646D01*
X178003479Y-104189664D01*
X178035115Y-104151115D01*
X178073664Y-104119479D01*
X178117646Y-104095970D01*
X178165372Y-104081493D01*
X178221141Y-104076000D01*
X179348859Y-104076000D01*
X179404628Y-104081493D01*
X179404628Y-104081493D01*
G37*
G36*
X173344628Y-103995493D02*
X173392354Y-104009970D01*
X173436336Y-104033479D01*
X173474885Y-104065115D01*
X173506521Y-104103664D01*
X173530030Y-104147646D01*
X173544507Y-104195372D01*
X173550000Y-104251141D01*
X173550000Y-105878859D01*
X173544507Y-105934628D01*
X173530030Y-105982354D01*
X173506521Y-106026336D01*
X173474885Y-106064885D01*
X173436336Y-106096521D01*
X173392354Y-106120030D01*
X173344628Y-106134507D01*
X173288859Y-106140000D01*
X172161141Y-106140000D01*
X172105372Y-106134507D01*
X172057646Y-106120030D01*
X172013664Y-106096521D01*
X171975115Y-106064885D01*
X171943479Y-106026336D01*
X171919970Y-105982354D01*
X171905493Y-105934628D01*
X171900000Y-105878859D01*
X171900000Y-104251141D01*
X171905493Y-104195372D01*
X171919970Y-104147646D01*
X171943479Y-104103664D01*
X171975115Y-104065115D01*
X172013664Y-104033479D01*
X172057646Y-104009970D01*
X172105372Y-103995493D01*
X172161141Y-103990000D01*
X173288859Y-103990000D01*
X173344628Y-103995493D01*
X173344628Y-103995493D01*
G37*
G36*
X176144628Y-103995493D02*
X176192354Y-104009970D01*
X176236336Y-104033479D01*
X176274885Y-104065115D01*
X176306521Y-104103664D01*
X176330030Y-104147646D01*
X176344507Y-104195372D01*
X176350000Y-104251141D01*
X176350000Y-105878859D01*
X176344507Y-105934628D01*
X176330030Y-105982354D01*
X176306521Y-106026336D01*
X176274885Y-106064885D01*
X176236336Y-106096521D01*
X176192354Y-106120030D01*
X176144628Y-106134507D01*
X176088859Y-106140000D01*
X174961141Y-106140000D01*
X174905372Y-106134507D01*
X174857646Y-106120030D01*
X174813664Y-106096521D01*
X174775115Y-106064885D01*
X174743479Y-106026336D01*
X174719970Y-105982354D01*
X174705493Y-105934628D01*
X174700000Y-105878859D01*
X174700000Y-104251141D01*
X174705493Y-104195372D01*
X174719970Y-104147646D01*
X174743479Y-104103664D01*
X174775115Y-104065115D01*
X174813664Y-104033479D01*
X174857646Y-104009970D01*
X174905372Y-103995493D01*
X174961141Y-103990000D01*
X176088859Y-103990000D01*
X176144628Y-103995493D01*
X176144628Y-103995493D01*
G37*
G36*
X156412628Y-103852493D02*
X156460354Y-103866970D01*
X156504336Y-103890479D01*
X156542885Y-103922115D01*
X156574521Y-103960664D01*
X156598030Y-104004646D01*
X156612507Y-104052372D01*
X156618000Y-104108141D01*
X156618000Y-105735859D01*
X156612507Y-105791628D01*
X156598030Y-105839354D01*
X156574521Y-105883336D01*
X156542885Y-105921885D01*
X156504336Y-105953521D01*
X156460354Y-105977030D01*
X156412628Y-105991507D01*
X156356859Y-105997000D01*
X155229141Y-105997000D01*
X155173372Y-105991507D01*
X155125646Y-105977030D01*
X155081664Y-105953521D01*
X155043115Y-105921885D01*
X155011479Y-105883336D01*
X154987970Y-105839354D01*
X154973493Y-105791628D01*
X154968000Y-105735859D01*
X154968000Y-104108141D01*
X154973493Y-104052372D01*
X154987970Y-104004646D01*
X155011479Y-103960664D01*
X155043115Y-103922115D01*
X155081664Y-103890479D01*
X155125646Y-103866970D01*
X155173372Y-103852493D01*
X155229141Y-103847000D01*
X156356859Y-103847000D01*
X156412628Y-103852493D01*
X156412628Y-103852493D01*
G37*
G36*
X159212628Y-103852493D02*
X159260354Y-103866970D01*
X159304336Y-103890479D01*
X159342885Y-103922115D01*
X159374521Y-103960664D01*
X159398030Y-104004646D01*
X159412507Y-104052372D01*
X159418000Y-104108141D01*
X159418000Y-105735859D01*
X159412507Y-105791628D01*
X159398030Y-105839354D01*
X159374521Y-105883336D01*
X159342885Y-105921885D01*
X159304336Y-105953521D01*
X159260354Y-105977030D01*
X159212628Y-105991507D01*
X159156859Y-105997000D01*
X158029141Y-105997000D01*
X157973372Y-105991507D01*
X157925646Y-105977030D01*
X157881664Y-105953521D01*
X157843115Y-105921885D01*
X157811479Y-105883336D01*
X157787970Y-105839354D01*
X157773493Y-105791628D01*
X157768000Y-105735859D01*
X157768000Y-104108141D01*
X157773493Y-104052372D01*
X157787970Y-104004646D01*
X157811479Y-103960664D01*
X157843115Y-103922115D01*
X157881664Y-103890479D01*
X157925646Y-103866970D01*
X157973372Y-103852493D01*
X158029141Y-103847000D01*
X159156859Y-103847000D01*
X159212628Y-103852493D01*
X159212628Y-103852493D01*
G37*
G36*
X161957628Y-103583493D02*
X162005354Y-103597970D01*
X162049336Y-103621479D01*
X162087885Y-103653115D01*
X162119521Y-103691664D01*
X162143030Y-103735646D01*
X162157507Y-103783372D01*
X162163000Y-103839141D01*
X162163000Y-105466859D01*
X162157507Y-105522628D01*
X162143030Y-105570354D01*
X162119521Y-105614336D01*
X162087885Y-105652885D01*
X162049336Y-105684521D01*
X162005354Y-105708030D01*
X161957628Y-105722507D01*
X161901859Y-105728000D01*
X160774141Y-105728000D01*
X160718372Y-105722507D01*
X160670646Y-105708030D01*
X160626664Y-105684521D01*
X160588115Y-105652885D01*
X160556479Y-105614336D01*
X160532970Y-105570354D01*
X160518493Y-105522628D01*
X160513000Y-105466859D01*
X160513000Y-103839141D01*
X160518493Y-103783372D01*
X160532970Y-103735646D01*
X160556479Y-103691664D01*
X160588115Y-103653115D01*
X160626664Y-103621479D01*
X160670646Y-103597970D01*
X160718372Y-103583493D01*
X160774141Y-103578000D01*
X161901859Y-103578000D01*
X161957628Y-103583493D01*
X161957628Y-103583493D01*
G37*
G36*
X164757628Y-103583493D02*
X164805354Y-103597970D01*
X164849336Y-103621479D01*
X164887885Y-103653115D01*
X164919521Y-103691664D01*
X164943030Y-103735646D01*
X164957507Y-103783372D01*
X164963000Y-103839141D01*
X164963000Y-105466859D01*
X164957507Y-105522628D01*
X164943030Y-105570354D01*
X164919521Y-105614336D01*
X164887885Y-105652885D01*
X164849336Y-105684521D01*
X164805354Y-105708030D01*
X164757628Y-105722507D01*
X164701859Y-105728000D01*
X163574141Y-105728000D01*
X163518372Y-105722507D01*
X163470646Y-105708030D01*
X163426664Y-105684521D01*
X163388115Y-105652885D01*
X163356479Y-105614336D01*
X163332970Y-105570354D01*
X163318493Y-105522628D01*
X163313000Y-105466859D01*
X163313000Y-103839141D01*
X163318493Y-103783372D01*
X163332970Y-103735646D01*
X163356479Y-103691664D01*
X163388115Y-103653115D01*
X163426664Y-103621479D01*
X163470646Y-103597970D01*
X163518372Y-103583493D01*
X163574141Y-103578000D01*
X164701859Y-103578000D01*
X164757628Y-103583493D01*
X164757628Y-103583493D01*
G37*
G36*
X108554628Y-102288493D02*
X108602354Y-102302970D01*
X108646336Y-102326479D01*
X108684885Y-102358115D01*
X108716521Y-102396664D01*
X108740030Y-102440646D01*
X108754507Y-102488372D01*
X108760000Y-102544141D01*
X108760000Y-104171859D01*
X108754507Y-104227628D01*
X108740030Y-104275354D01*
X108716521Y-104319336D01*
X108684885Y-104357885D01*
X108646336Y-104389521D01*
X108602354Y-104413030D01*
X108554628Y-104427507D01*
X108498859Y-104433000D01*
X107371141Y-104433000D01*
X107315372Y-104427507D01*
X107267646Y-104413030D01*
X107223664Y-104389521D01*
X107185115Y-104357885D01*
X107153479Y-104319336D01*
X107129970Y-104275354D01*
X107115493Y-104227628D01*
X107110000Y-104171859D01*
X107110000Y-102544141D01*
X107115493Y-102488372D01*
X107129970Y-102440646D01*
X107153479Y-102396664D01*
X107185115Y-102358115D01*
X107223664Y-102326479D01*
X107267646Y-102302970D01*
X107315372Y-102288493D01*
X107371141Y-102283000D01*
X108498859Y-102283000D01*
X108554628Y-102288493D01*
X108554628Y-102288493D01*
G37*
G36*
X105754628Y-102288493D02*
X105802354Y-102302970D01*
X105846336Y-102326479D01*
X105884885Y-102358115D01*
X105916521Y-102396664D01*
X105940030Y-102440646D01*
X105954507Y-102488372D01*
X105960000Y-102544141D01*
X105960000Y-104171859D01*
X105954507Y-104227628D01*
X105940030Y-104275354D01*
X105916521Y-104319336D01*
X105884885Y-104357885D01*
X105846336Y-104389521D01*
X105802354Y-104413030D01*
X105754628Y-104427507D01*
X105698859Y-104433000D01*
X104571141Y-104433000D01*
X104515372Y-104427507D01*
X104467646Y-104413030D01*
X104423664Y-104389521D01*
X104385115Y-104357885D01*
X104353479Y-104319336D01*
X104329970Y-104275354D01*
X104315493Y-104227628D01*
X104310000Y-104171859D01*
X104310000Y-102544141D01*
X104315493Y-102488372D01*
X104329970Y-102440646D01*
X104353479Y-102396664D01*
X104385115Y-102358115D01*
X104423664Y-102326479D01*
X104467646Y-102302970D01*
X104515372Y-102288493D01*
X104571141Y-102283000D01*
X105698859Y-102283000D01*
X105754628Y-102288493D01*
X105754628Y-102288493D01*
G37*
G36*
X102097628Y-102278493D02*
X102145354Y-102292970D01*
X102189336Y-102316479D01*
X102227885Y-102348115D01*
X102259521Y-102386664D01*
X102283030Y-102430646D01*
X102297507Y-102478372D01*
X102303000Y-102534141D01*
X102303000Y-104161859D01*
X102297507Y-104217628D01*
X102283030Y-104265354D01*
X102259521Y-104309336D01*
X102227885Y-104347885D01*
X102189336Y-104379521D01*
X102145354Y-104403030D01*
X102097628Y-104417507D01*
X102041859Y-104423000D01*
X100914141Y-104423000D01*
X100858372Y-104417507D01*
X100810646Y-104403030D01*
X100766664Y-104379521D01*
X100728115Y-104347885D01*
X100696479Y-104309336D01*
X100672970Y-104265354D01*
X100658493Y-104217628D01*
X100653000Y-104161859D01*
X100653000Y-102534141D01*
X100658493Y-102478372D01*
X100672970Y-102430646D01*
X100696479Y-102386664D01*
X100728115Y-102348115D01*
X100766664Y-102316479D01*
X100810646Y-102292970D01*
X100858372Y-102278493D01*
X100914141Y-102273000D01*
X102041859Y-102273000D01*
X102097628Y-102278493D01*
X102097628Y-102278493D01*
G37*
G36*
X99297628Y-102278493D02*
X99345354Y-102292970D01*
X99389336Y-102316479D01*
X99427885Y-102348115D01*
X99459521Y-102386664D01*
X99483030Y-102430646D01*
X99497507Y-102478372D01*
X99503000Y-102534141D01*
X99503000Y-104161859D01*
X99497507Y-104217628D01*
X99483030Y-104265354D01*
X99459521Y-104309336D01*
X99427885Y-104347885D01*
X99389336Y-104379521D01*
X99345354Y-104403030D01*
X99297628Y-104417507D01*
X99241859Y-104423000D01*
X98114141Y-104423000D01*
X98058372Y-104417507D01*
X98010646Y-104403030D01*
X97966664Y-104379521D01*
X97928115Y-104347885D01*
X97896479Y-104309336D01*
X97872970Y-104265354D01*
X97858493Y-104217628D01*
X97853000Y-104161859D01*
X97853000Y-102534141D01*
X97858493Y-102478372D01*
X97872970Y-102430646D01*
X97896479Y-102386664D01*
X97928115Y-102348115D01*
X97966664Y-102316479D01*
X98010646Y-102292970D01*
X98058372Y-102278493D01*
X98114141Y-102273000D01*
X99241859Y-102273000D01*
X99297628Y-102278493D01*
X99297628Y-102278493D01*
G37*
G36*
X131139628Y-102095493D02*
X131187354Y-102109970D01*
X131231336Y-102133479D01*
X131269885Y-102165115D01*
X131301521Y-102203664D01*
X131325030Y-102247646D01*
X131339507Y-102295372D01*
X131345000Y-102351141D01*
X131345000Y-103978859D01*
X131339507Y-104034628D01*
X131325030Y-104082354D01*
X131301521Y-104126336D01*
X131269885Y-104164885D01*
X131231336Y-104196521D01*
X131187354Y-104220030D01*
X131139628Y-104234507D01*
X131083859Y-104240000D01*
X129956141Y-104240000D01*
X129900372Y-104234507D01*
X129852646Y-104220030D01*
X129808664Y-104196521D01*
X129770115Y-104164885D01*
X129738479Y-104126336D01*
X129714970Y-104082354D01*
X129700493Y-104034628D01*
X129695000Y-103978859D01*
X129695000Y-102351141D01*
X129700493Y-102295372D01*
X129714970Y-102247646D01*
X129738479Y-102203664D01*
X129770115Y-102165115D01*
X129808664Y-102133479D01*
X129852646Y-102109970D01*
X129900372Y-102095493D01*
X129956141Y-102090000D01*
X131083859Y-102090000D01*
X131139628Y-102095493D01*
X131139628Y-102095493D01*
G37*
G36*
X133939628Y-102095493D02*
X133987354Y-102109970D01*
X134031336Y-102133479D01*
X134069885Y-102165115D01*
X134101521Y-102203664D01*
X134125030Y-102247646D01*
X134139507Y-102295372D01*
X134145000Y-102351141D01*
X134145000Y-103978859D01*
X134139507Y-104034628D01*
X134125030Y-104082354D01*
X134101521Y-104126336D01*
X134069885Y-104164885D01*
X134031336Y-104196521D01*
X133987354Y-104220030D01*
X133939628Y-104234507D01*
X133883859Y-104240000D01*
X132756141Y-104240000D01*
X132700372Y-104234507D01*
X132652646Y-104220030D01*
X132608664Y-104196521D01*
X132570115Y-104164885D01*
X132538479Y-104126336D01*
X132514970Y-104082354D01*
X132500493Y-104034628D01*
X132495000Y-103978859D01*
X132495000Y-102351141D01*
X132500493Y-102295372D01*
X132514970Y-102247646D01*
X132538479Y-102203664D01*
X132570115Y-102165115D01*
X132608664Y-102133479D01*
X132652646Y-102109970D01*
X132700372Y-102095493D01*
X132756141Y-102090000D01*
X133883859Y-102090000D01*
X133939628Y-102095493D01*
X133939628Y-102095493D01*
G37*
G36*
X149581628Y-99936493D02*
X149629354Y-99950970D01*
X149673336Y-99974479D01*
X149711885Y-100006115D01*
X149743521Y-100044664D01*
X149767030Y-100088646D01*
X149781507Y-100136372D01*
X149787000Y-100192141D01*
X149787000Y-101819859D01*
X149781507Y-101875628D01*
X149767030Y-101923354D01*
X149743521Y-101967336D01*
X149711885Y-102005885D01*
X149673336Y-102037521D01*
X149629354Y-102061030D01*
X149581628Y-102075507D01*
X149525859Y-102081000D01*
X148398141Y-102081000D01*
X148342372Y-102075507D01*
X148294646Y-102061030D01*
X148250664Y-102037521D01*
X148212115Y-102005885D01*
X148180479Y-101967336D01*
X148156970Y-101923354D01*
X148142493Y-101875628D01*
X148137000Y-101819859D01*
X148137000Y-100192141D01*
X148142493Y-100136372D01*
X148156970Y-100088646D01*
X148180479Y-100044664D01*
X148212115Y-100006115D01*
X148250664Y-99974479D01*
X148294646Y-99950970D01*
X148342372Y-99936493D01*
X148398141Y-99931000D01*
X149525859Y-99931000D01*
X149581628Y-99936493D01*
X149581628Y-99936493D01*
G37*
G36*
X146781628Y-99936493D02*
X146829354Y-99950970D01*
X146873336Y-99974479D01*
X146911885Y-100006115D01*
X146943521Y-100044664D01*
X146967030Y-100088646D01*
X146981507Y-100136372D01*
X146987000Y-100192141D01*
X146987000Y-101819859D01*
X146981507Y-101875628D01*
X146967030Y-101923354D01*
X146943521Y-101967336D01*
X146911885Y-102005885D01*
X146873336Y-102037521D01*
X146829354Y-102061030D01*
X146781628Y-102075507D01*
X146725859Y-102081000D01*
X145598141Y-102081000D01*
X145542372Y-102075507D01*
X145494646Y-102061030D01*
X145450664Y-102037521D01*
X145412115Y-102005885D01*
X145380479Y-101967336D01*
X145356970Y-101923354D01*
X145342493Y-101875628D01*
X145337000Y-101819859D01*
X145337000Y-100192141D01*
X145342493Y-100136372D01*
X145356970Y-100088646D01*
X145380479Y-100044664D01*
X145412115Y-100006115D01*
X145450664Y-99974479D01*
X145494646Y-99950970D01*
X145542372Y-99936493D01*
X145598141Y-99931000D01*
X146725859Y-99931000D01*
X146781628Y-99936493D01*
X146781628Y-99936493D01*
G37*
G36*
X176866000Y-99394100D02*
X174466000Y-99394100D01*
X174466000Y-97494100D01*
X176866000Y-97494100D01*
X176866000Y-99394100D01*
X176866000Y-99394100D01*
G37*
G36*
X142340000Y-98850000D02*
X129660000Y-98850000D01*
X129660000Y-96950000D01*
X142340000Y-96950000D01*
X142340000Y-98850000D01*
X142340000Y-98850000D01*
G37*
G36*
X95537430Y-96794269D02*
X95537433Y-96794270D01*
X95537434Y-96794270D01*
X95725935Y-96851451D01*
X95725937Y-96851452D01*
X95899660Y-96944309D01*
X96051928Y-97069272D01*
X96176891Y-97221540D01*
X96269748Y-97395263D01*
X96326931Y-97583770D01*
X96346238Y-97779800D01*
X96326931Y-97975830D01*
X96269748Y-98164337D01*
X96176891Y-98338060D01*
X96051928Y-98490328D01*
X95899660Y-98615291D01*
X95899658Y-98615292D01*
X95725935Y-98708149D01*
X95537434Y-98765330D01*
X95537433Y-98765330D01*
X95537430Y-98765331D01*
X95390524Y-98779800D01*
X95292276Y-98779800D01*
X95145370Y-98765331D01*
X95145367Y-98765330D01*
X95145366Y-98765330D01*
X94956865Y-98708149D01*
X94783142Y-98615292D01*
X94783140Y-98615291D01*
X94630872Y-98490328D01*
X94505909Y-98338060D01*
X94413052Y-98164337D01*
X94355869Y-97975830D01*
X94336562Y-97779800D01*
X94355869Y-97583770D01*
X94413052Y-97395263D01*
X94505909Y-97221540D01*
X94630872Y-97069272D01*
X94783140Y-96944309D01*
X94956863Y-96851452D01*
X94956865Y-96851451D01*
X95145366Y-96794270D01*
X95145367Y-96794270D01*
X95145370Y-96794269D01*
X95292276Y-96779800D01*
X95390524Y-96779800D01*
X95537430Y-96794269D01*
X95537430Y-96794269D01*
G37*
G36*
X103157430Y-96794269D02*
X103157433Y-96794270D01*
X103157434Y-96794270D01*
X103345935Y-96851451D01*
X103345937Y-96851452D01*
X103519660Y-96944309D01*
X103671928Y-97069272D01*
X103796891Y-97221540D01*
X103889748Y-97395263D01*
X103946931Y-97583770D01*
X103966238Y-97779800D01*
X103946931Y-97975830D01*
X103889748Y-98164337D01*
X103796891Y-98338060D01*
X103671928Y-98490328D01*
X103519660Y-98615291D01*
X103519658Y-98615292D01*
X103345935Y-98708149D01*
X103157434Y-98765330D01*
X103157433Y-98765330D01*
X103157430Y-98765331D01*
X103010524Y-98779800D01*
X102912276Y-98779800D01*
X102765370Y-98765331D01*
X102765367Y-98765330D01*
X102765366Y-98765330D01*
X102576865Y-98708149D01*
X102403142Y-98615292D01*
X102403140Y-98615291D01*
X102250872Y-98490328D01*
X102125909Y-98338060D01*
X102033052Y-98164337D01*
X101975869Y-97975830D01*
X101956562Y-97779800D01*
X101975869Y-97583770D01*
X102033052Y-97395263D01*
X102125909Y-97221540D01*
X102250872Y-97069272D01*
X102403140Y-96944309D01*
X102576863Y-96851452D01*
X102576865Y-96851451D01*
X102765366Y-96794270D01*
X102765367Y-96794270D01*
X102765370Y-96794269D01*
X102912276Y-96779800D01*
X103010524Y-96779800D01*
X103157430Y-96794269D01*
X103157430Y-96794269D01*
G37*
G36*
X160295707Y-96346296D02*
X160372836Y-96353893D01*
X160504787Y-96393920D01*
X160570763Y-96413933D01*
X160753172Y-96511433D01*
X160913054Y-96642646D01*
X161044267Y-96802528D01*
X161141767Y-96984937D01*
X161141767Y-96984938D01*
X161201807Y-97182864D01*
X161222080Y-97388700D01*
X161201807Y-97594536D01*
X161161780Y-97726487D01*
X161141767Y-97792463D01*
X161044267Y-97974872D01*
X160913054Y-98134754D01*
X160753172Y-98265967D01*
X160570763Y-98363467D01*
X160504787Y-98383480D01*
X160372836Y-98423507D01*
X160295707Y-98431103D01*
X160218580Y-98438700D01*
X160115420Y-98438700D01*
X160038293Y-98431103D01*
X159961164Y-98423507D01*
X159829213Y-98383480D01*
X159763237Y-98363467D01*
X159580828Y-98265967D01*
X159420946Y-98134754D01*
X159289733Y-97974872D01*
X159192233Y-97792463D01*
X159172220Y-97726487D01*
X159132193Y-97594536D01*
X159111920Y-97388700D01*
X159132193Y-97182864D01*
X159192233Y-96984938D01*
X159192233Y-96984937D01*
X159289733Y-96802528D01*
X159420946Y-96642646D01*
X159580828Y-96511433D01*
X159763237Y-96413933D01*
X159829213Y-96393920D01*
X159961164Y-96353893D01*
X160038293Y-96346297D01*
X160115420Y-96338700D01*
X160218580Y-96338700D01*
X160295707Y-96346296D01*
X160295707Y-96346296D01*
G37*
G36*
X162835707Y-96346296D02*
X162912836Y-96353893D01*
X163044787Y-96393920D01*
X163110763Y-96413933D01*
X163293172Y-96511433D01*
X163453054Y-96642646D01*
X163584267Y-96802528D01*
X163681767Y-96984937D01*
X163681767Y-96984938D01*
X163741807Y-97182864D01*
X163762080Y-97388700D01*
X163741807Y-97594536D01*
X163701780Y-97726487D01*
X163681767Y-97792463D01*
X163584267Y-97974872D01*
X163453054Y-98134754D01*
X163293172Y-98265967D01*
X163110763Y-98363467D01*
X163044787Y-98383480D01*
X162912836Y-98423507D01*
X162835707Y-98431103D01*
X162758580Y-98438700D01*
X162655420Y-98438700D01*
X162578293Y-98431103D01*
X162501164Y-98423507D01*
X162369213Y-98383480D01*
X162303237Y-98363467D01*
X162120828Y-98265967D01*
X161960946Y-98134754D01*
X161829733Y-97974872D01*
X161732233Y-97792463D01*
X161712220Y-97726487D01*
X161672193Y-97594536D01*
X161651920Y-97388700D01*
X161672193Y-97182864D01*
X161732233Y-96984938D01*
X161732233Y-96984937D01*
X161829733Y-96802528D01*
X161960946Y-96642646D01*
X162120828Y-96511433D01*
X162303237Y-96413933D01*
X162369213Y-96393920D01*
X162501164Y-96353893D01*
X162578293Y-96346297D01*
X162655420Y-96338700D01*
X162758580Y-96338700D01*
X162835707Y-96346296D01*
X162835707Y-96346296D01*
G37*
G36*
X158677000Y-98438700D02*
X156577000Y-98438700D01*
X156577000Y-96338700D01*
X158677000Y-96338700D01*
X158677000Y-98438700D01*
X158677000Y-98438700D01*
G37*
G36*
X165375707Y-96346296D02*
X165452836Y-96353893D01*
X165584787Y-96393920D01*
X165650763Y-96413933D01*
X165833172Y-96511433D01*
X165993054Y-96642646D01*
X166124267Y-96802528D01*
X166221767Y-96984937D01*
X166221767Y-96984938D01*
X166281807Y-97182864D01*
X166302080Y-97388700D01*
X166281807Y-97594536D01*
X166241780Y-97726487D01*
X166221767Y-97792463D01*
X166124267Y-97974872D01*
X165993054Y-98134754D01*
X165833172Y-98265967D01*
X165650763Y-98363467D01*
X165584787Y-98383480D01*
X165452836Y-98423507D01*
X165375707Y-98431103D01*
X165298580Y-98438700D01*
X165195420Y-98438700D01*
X165118293Y-98431103D01*
X165041164Y-98423507D01*
X164909213Y-98383480D01*
X164843237Y-98363467D01*
X164660828Y-98265967D01*
X164500946Y-98134754D01*
X164369733Y-97974872D01*
X164272233Y-97792463D01*
X164252220Y-97726487D01*
X164212193Y-97594536D01*
X164191920Y-97388700D01*
X164212193Y-97182864D01*
X164272233Y-96984938D01*
X164272233Y-96984937D01*
X164369733Y-96802528D01*
X164500946Y-96642646D01*
X164660828Y-96511433D01*
X164843237Y-96413933D01*
X164909213Y-96393920D01*
X165041164Y-96353893D01*
X165118293Y-96346297D01*
X165195420Y-96338700D01*
X165298580Y-96338700D01*
X165375707Y-96346296D01*
X165375707Y-96346296D01*
G37*
G36*
X167915707Y-96346296D02*
X167992836Y-96353893D01*
X168124787Y-96393920D01*
X168190763Y-96413933D01*
X168373172Y-96511433D01*
X168533054Y-96642646D01*
X168664267Y-96802528D01*
X168761767Y-96984937D01*
X168761767Y-96984938D01*
X168821807Y-97182864D01*
X168842080Y-97388700D01*
X168821807Y-97594536D01*
X168781780Y-97726487D01*
X168761767Y-97792463D01*
X168664267Y-97974872D01*
X168533054Y-98134754D01*
X168373172Y-98265967D01*
X168190763Y-98363467D01*
X168124787Y-98383480D01*
X167992836Y-98423507D01*
X167915707Y-98431103D01*
X167838580Y-98438700D01*
X167735420Y-98438700D01*
X167658293Y-98431103D01*
X167581164Y-98423507D01*
X167449213Y-98383480D01*
X167383237Y-98363467D01*
X167200828Y-98265967D01*
X167040946Y-98134754D01*
X166909733Y-97974872D01*
X166812233Y-97792463D01*
X166792220Y-97726487D01*
X166752193Y-97594536D01*
X166731920Y-97388700D01*
X166752193Y-97182864D01*
X166812233Y-96984938D01*
X166812233Y-96984937D01*
X166909733Y-96802528D01*
X167040946Y-96642646D01*
X167200828Y-96511433D01*
X167383237Y-96413933D01*
X167449213Y-96393920D01*
X167581164Y-96353893D01*
X167658293Y-96346297D01*
X167735420Y-96338700D01*
X167838580Y-96338700D01*
X167915707Y-96346296D01*
X167915707Y-96346296D01*
G37*
G36*
X183166000Y-98244100D02*
X180766000Y-98244100D01*
X180766000Y-94044100D01*
X183166000Y-94044100D01*
X183166000Y-98244100D01*
X183166000Y-98244100D01*
G37*
G36*
X176866000Y-97094100D02*
X174466000Y-97094100D01*
X174466000Y-95194100D01*
X176866000Y-95194100D01*
X176866000Y-97094100D01*
X176866000Y-97094100D01*
G37*
G36*
X116026000Y-96493800D02*
X112626000Y-96493800D01*
X112626000Y-94493800D01*
X116026000Y-94493800D01*
X116026000Y-96493800D01*
X116026000Y-96493800D01*
G37*
G36*
X111626000Y-96493800D02*
X108226000Y-96493800D01*
X108226000Y-94493800D01*
X111626000Y-94493800D01*
X111626000Y-96493800D01*
X111626000Y-96493800D01*
G37*
G36*
X129050000Y-96340000D02*
X127150000Y-96340000D01*
X127150000Y-83660000D01*
X129050000Y-83660000D01*
X129050000Y-96340000D01*
X129050000Y-96340000D01*
G37*
G36*
X144850000Y-96340000D02*
X142950000Y-96340000D01*
X142950000Y-83660000D01*
X144850000Y-83660000D01*
X144850000Y-96340000D01*
X144850000Y-96340000D01*
G37*
G36*
X95537430Y-94254269D02*
X95537433Y-94254270D01*
X95537434Y-94254270D01*
X95725935Y-94311451D01*
X95725937Y-94311452D01*
X95899660Y-94404309D01*
X96051928Y-94529272D01*
X96176891Y-94681540D01*
X96176892Y-94681542D01*
X96269749Y-94855265D01*
X96314475Y-95002707D01*
X96326931Y-95043770D01*
X96346238Y-95239800D01*
X96326931Y-95435830D01*
X96269748Y-95624337D01*
X96176891Y-95798060D01*
X96051928Y-95950328D01*
X95899660Y-96075291D01*
X95899658Y-96075292D01*
X95725935Y-96168149D01*
X95537434Y-96225330D01*
X95537433Y-96225330D01*
X95537430Y-96225331D01*
X95390524Y-96239800D01*
X95292276Y-96239800D01*
X95145370Y-96225331D01*
X95145367Y-96225330D01*
X95145366Y-96225330D01*
X94956865Y-96168149D01*
X94783142Y-96075292D01*
X94783140Y-96075291D01*
X94630872Y-95950328D01*
X94505909Y-95798060D01*
X94413052Y-95624337D01*
X94355869Y-95435830D01*
X94336562Y-95239800D01*
X94355869Y-95043770D01*
X94368325Y-95002707D01*
X94413051Y-94855265D01*
X94505908Y-94681542D01*
X94505909Y-94681540D01*
X94630872Y-94529272D01*
X94783140Y-94404309D01*
X94956863Y-94311452D01*
X94956865Y-94311451D01*
X95145366Y-94254270D01*
X95145367Y-94254270D01*
X95145370Y-94254269D01*
X95292276Y-94239800D01*
X95390524Y-94239800D01*
X95537430Y-94254269D01*
X95537430Y-94254269D01*
G37*
G36*
X103157430Y-94254269D02*
X103157433Y-94254270D01*
X103157434Y-94254270D01*
X103345935Y-94311451D01*
X103345937Y-94311452D01*
X103519660Y-94404309D01*
X103671928Y-94529272D01*
X103796891Y-94681540D01*
X103796892Y-94681542D01*
X103889749Y-94855265D01*
X103934475Y-95002707D01*
X103946931Y-95043770D01*
X103966238Y-95239800D01*
X103946931Y-95435830D01*
X103889748Y-95624337D01*
X103796891Y-95798060D01*
X103671928Y-95950328D01*
X103519660Y-96075291D01*
X103519658Y-96075292D01*
X103345935Y-96168149D01*
X103157434Y-96225330D01*
X103157433Y-96225330D01*
X103157430Y-96225331D01*
X103010524Y-96239800D01*
X102912276Y-96239800D01*
X102765370Y-96225331D01*
X102765367Y-96225330D01*
X102765366Y-96225330D01*
X102576865Y-96168149D01*
X102403142Y-96075292D01*
X102403140Y-96075291D01*
X102250872Y-95950328D01*
X102125909Y-95798060D01*
X102033052Y-95624337D01*
X101975869Y-95435830D01*
X101956562Y-95239800D01*
X101975869Y-95043770D01*
X101988325Y-95002707D01*
X102033051Y-94855265D01*
X102125908Y-94681542D01*
X102125909Y-94681540D01*
X102250872Y-94529272D01*
X102403140Y-94404309D01*
X102576863Y-94311452D01*
X102576865Y-94311451D01*
X102765366Y-94254270D01*
X102765367Y-94254270D01*
X102765370Y-94254269D01*
X102912276Y-94239800D01*
X103010524Y-94239800D01*
X103157430Y-94254269D01*
X103157430Y-94254269D01*
G37*
G36*
X160295707Y-93806297D02*
X160372836Y-93813893D01*
X160504787Y-93853920D01*
X160570763Y-93873933D01*
X160753172Y-93971433D01*
X160913054Y-94102646D01*
X161044267Y-94262528D01*
X161141767Y-94444937D01*
X161141767Y-94444938D01*
X161201807Y-94642864D01*
X161222080Y-94848700D01*
X161201807Y-95054536D01*
X161169815Y-95160000D01*
X161141767Y-95252463D01*
X161044267Y-95434872D01*
X160913054Y-95594754D01*
X160753172Y-95725967D01*
X160570763Y-95823467D01*
X160516260Y-95840000D01*
X160372836Y-95883507D01*
X160295707Y-95891103D01*
X160218580Y-95898700D01*
X160115420Y-95898700D01*
X160038293Y-95891104D01*
X159961164Y-95883507D01*
X159817740Y-95840000D01*
X159763237Y-95823467D01*
X159580828Y-95725967D01*
X159420946Y-95594754D01*
X159289733Y-95434872D01*
X159192233Y-95252463D01*
X159164185Y-95160000D01*
X159132193Y-95054536D01*
X159111920Y-94848700D01*
X159132193Y-94642864D01*
X159192233Y-94444938D01*
X159192233Y-94444937D01*
X159289733Y-94262528D01*
X159420946Y-94102646D01*
X159580828Y-93971433D01*
X159763237Y-93873933D01*
X159829213Y-93853920D01*
X159961164Y-93813893D01*
X160038293Y-93806296D01*
X160115420Y-93798700D01*
X160218580Y-93798700D01*
X160295707Y-93806297D01*
X160295707Y-93806297D01*
G37*
G36*
X167915707Y-93806297D02*
X167992836Y-93813893D01*
X168124787Y-93853920D01*
X168190763Y-93873933D01*
X168373172Y-93971433D01*
X168533054Y-94102646D01*
X168664267Y-94262528D01*
X168761767Y-94444937D01*
X168761767Y-94444938D01*
X168821807Y-94642864D01*
X168842080Y-94848700D01*
X168821807Y-95054536D01*
X168789815Y-95160000D01*
X168761767Y-95252463D01*
X168664267Y-95434872D01*
X168533054Y-95594754D01*
X168373172Y-95725967D01*
X168190763Y-95823467D01*
X168136260Y-95840000D01*
X167992836Y-95883507D01*
X167915707Y-95891103D01*
X167838580Y-95898700D01*
X167735420Y-95898700D01*
X167658293Y-95891104D01*
X167581164Y-95883507D01*
X167437740Y-95840000D01*
X167383237Y-95823467D01*
X167200828Y-95725967D01*
X167040946Y-95594754D01*
X166909733Y-95434872D01*
X166812233Y-95252463D01*
X166784185Y-95160000D01*
X166752193Y-95054536D01*
X166731920Y-94848700D01*
X166752193Y-94642864D01*
X166812233Y-94444938D01*
X166812233Y-94444937D01*
X166909733Y-94262528D01*
X167040946Y-94102646D01*
X167200828Y-93971433D01*
X167383237Y-93873933D01*
X167449213Y-93853920D01*
X167581164Y-93813893D01*
X167658293Y-93806296D01*
X167735420Y-93798700D01*
X167838580Y-93798700D01*
X167915707Y-93806297D01*
X167915707Y-93806297D01*
G37*
G36*
X157755707Y-93806297D02*
X157832836Y-93813893D01*
X157964787Y-93853920D01*
X158030763Y-93873933D01*
X158213172Y-93971433D01*
X158373054Y-94102646D01*
X158504267Y-94262528D01*
X158601767Y-94444937D01*
X158601767Y-94444938D01*
X158661807Y-94642864D01*
X158682080Y-94848700D01*
X158661807Y-95054536D01*
X158629815Y-95160000D01*
X158601767Y-95252463D01*
X158504267Y-95434872D01*
X158373054Y-95594754D01*
X158213172Y-95725967D01*
X158030763Y-95823467D01*
X157976260Y-95840000D01*
X157832836Y-95883507D01*
X157755707Y-95891103D01*
X157678580Y-95898700D01*
X157575420Y-95898700D01*
X157498293Y-95891104D01*
X157421164Y-95883507D01*
X157277740Y-95840000D01*
X157223237Y-95823467D01*
X157040828Y-95725967D01*
X156880946Y-95594754D01*
X156749733Y-95434872D01*
X156652233Y-95252463D01*
X156624185Y-95160000D01*
X156592193Y-95054536D01*
X156571920Y-94848700D01*
X156592193Y-94642864D01*
X156652233Y-94444938D01*
X156652233Y-94444937D01*
X156749733Y-94262528D01*
X156880946Y-94102646D01*
X157040828Y-93971433D01*
X157223237Y-93873933D01*
X157289213Y-93853920D01*
X157421164Y-93813893D01*
X157498293Y-93806296D01*
X157575420Y-93798700D01*
X157678580Y-93798700D01*
X157755707Y-93806297D01*
X157755707Y-93806297D01*
G37*
G36*
X165375707Y-93806297D02*
X165452836Y-93813893D01*
X165584787Y-93853920D01*
X165650763Y-93873933D01*
X165833172Y-93971433D01*
X165993054Y-94102646D01*
X166124267Y-94262528D01*
X166221767Y-94444937D01*
X166221767Y-94444938D01*
X166281807Y-94642864D01*
X166302080Y-94848700D01*
X166281807Y-95054536D01*
X166249815Y-95160000D01*
X166221767Y-95252463D01*
X166124267Y-95434872D01*
X165993054Y-95594754D01*
X165833172Y-95725967D01*
X165650763Y-95823467D01*
X165596260Y-95840000D01*
X165452836Y-95883507D01*
X165375707Y-95891103D01*
X165298580Y-95898700D01*
X165195420Y-95898700D01*
X165118293Y-95891104D01*
X165041164Y-95883507D01*
X164897740Y-95840000D01*
X164843237Y-95823467D01*
X164660828Y-95725967D01*
X164500946Y-95594754D01*
X164369733Y-95434872D01*
X164272233Y-95252463D01*
X164244185Y-95160000D01*
X164212193Y-95054536D01*
X164191920Y-94848700D01*
X164212193Y-94642864D01*
X164272233Y-94444938D01*
X164272233Y-94444937D01*
X164369733Y-94262528D01*
X164500946Y-94102646D01*
X164660828Y-93971433D01*
X164843237Y-93873933D01*
X164909213Y-93853920D01*
X165041164Y-93813893D01*
X165118293Y-93806296D01*
X165195420Y-93798700D01*
X165298580Y-93798700D01*
X165375707Y-93806297D01*
X165375707Y-93806297D01*
G37*
G36*
X162835707Y-93806297D02*
X162912836Y-93813893D01*
X163044787Y-93853920D01*
X163110763Y-93873933D01*
X163293172Y-93971433D01*
X163453054Y-94102646D01*
X163584267Y-94262528D01*
X163681767Y-94444937D01*
X163681767Y-94444938D01*
X163741807Y-94642864D01*
X163762080Y-94848700D01*
X163741807Y-95054536D01*
X163709815Y-95160000D01*
X163681767Y-95252463D01*
X163584267Y-95434872D01*
X163453054Y-95594754D01*
X163293172Y-95725967D01*
X163110763Y-95823467D01*
X163056260Y-95840000D01*
X162912836Y-95883507D01*
X162835707Y-95891103D01*
X162758580Y-95898700D01*
X162655420Y-95898700D01*
X162578293Y-95891104D01*
X162501164Y-95883507D01*
X162357740Y-95840000D01*
X162303237Y-95823467D01*
X162120828Y-95725967D01*
X161960946Y-95594754D01*
X161829733Y-95434872D01*
X161732233Y-95252463D01*
X161704185Y-95160000D01*
X161672193Y-95054536D01*
X161651920Y-94848700D01*
X161672193Y-94642864D01*
X161732233Y-94444938D01*
X161732233Y-94444937D01*
X161829733Y-94262528D01*
X161960946Y-94102646D01*
X162120828Y-93971433D01*
X162303237Y-93873933D01*
X162369213Y-93853920D01*
X162501164Y-93813893D01*
X162578293Y-93806296D01*
X162655420Y-93798700D01*
X162758580Y-93798700D01*
X162835707Y-93806297D01*
X162835707Y-93806297D01*
G37*
G36*
X149012628Y-93363693D02*
X149060354Y-93378170D01*
X149104336Y-93401679D01*
X149142885Y-93433315D01*
X149174521Y-93471864D01*
X149198030Y-93515846D01*
X149212507Y-93563572D01*
X149218000Y-93619341D01*
X149218000Y-94747059D01*
X149212507Y-94802828D01*
X149198030Y-94850554D01*
X149174521Y-94894536D01*
X149142885Y-94933085D01*
X149104336Y-94964721D01*
X149060354Y-94988230D01*
X149012628Y-95002707D01*
X148956859Y-95008200D01*
X147329141Y-95008200D01*
X147273372Y-95002707D01*
X147225646Y-94988230D01*
X147181664Y-94964721D01*
X147143115Y-94933085D01*
X147111479Y-94894536D01*
X147087970Y-94850554D01*
X147073493Y-94802828D01*
X147068000Y-94747059D01*
X147068000Y-93619341D01*
X147073493Y-93563572D01*
X147087970Y-93515846D01*
X147111479Y-93471864D01*
X147143115Y-93433315D01*
X147181664Y-93401679D01*
X147225646Y-93378170D01*
X147273372Y-93363693D01*
X147329141Y-93358200D01*
X148956859Y-93358200D01*
X149012628Y-93363693D01*
X149012628Y-93363693D01*
G37*
G36*
X176866000Y-94794100D02*
X174466000Y-94794100D01*
X174466000Y-92894100D01*
X176866000Y-92894100D01*
X176866000Y-94794100D01*
X176866000Y-94794100D01*
G37*
G36*
X124023628Y-92896293D02*
X124071354Y-92910770D01*
X124115336Y-92934279D01*
X124153885Y-92965915D01*
X124185521Y-93004464D01*
X124209030Y-93048446D01*
X124223507Y-93096172D01*
X124229000Y-93151941D01*
X124229000Y-94279659D01*
X124223507Y-94335428D01*
X124209030Y-94383154D01*
X124185521Y-94427136D01*
X124153885Y-94465685D01*
X124115336Y-94497321D01*
X124071354Y-94520830D01*
X124023628Y-94535307D01*
X123967859Y-94540800D01*
X122340141Y-94540800D01*
X122284372Y-94535307D01*
X122236646Y-94520830D01*
X122192664Y-94497321D01*
X122154115Y-94465685D01*
X122122479Y-94427136D01*
X122098970Y-94383154D01*
X122084493Y-94335428D01*
X122079000Y-94279659D01*
X122079000Y-93151941D01*
X122084493Y-93096172D01*
X122098970Y-93048446D01*
X122122479Y-93004464D01*
X122154115Y-92965915D01*
X122192664Y-92934279D01*
X122236646Y-92910770D01*
X122284372Y-92896293D01*
X122340141Y-92890800D01*
X123967859Y-92890800D01*
X124023628Y-92896293D01*
X124023628Y-92896293D01*
G37*
G36*
X95537430Y-91714269D02*
X95537433Y-91714270D01*
X95537434Y-91714270D01*
X95725935Y-91771451D01*
X95725937Y-91771452D01*
X95899660Y-91864309D01*
X96051928Y-91989272D01*
X96176891Y-92141540D01*
X96269748Y-92315263D01*
X96326931Y-92503770D01*
X96346238Y-92699800D01*
X96326931Y-92895830D01*
X96326930Y-92895833D01*
X96326930Y-92895834D01*
X96280636Y-93048446D01*
X96269748Y-93084337D01*
X96176891Y-93258060D01*
X96051928Y-93410328D01*
X95899660Y-93535291D01*
X95899658Y-93535292D01*
X95725935Y-93628149D01*
X95537434Y-93685330D01*
X95537433Y-93685330D01*
X95537430Y-93685331D01*
X95390524Y-93699800D01*
X95292276Y-93699800D01*
X95145370Y-93685331D01*
X95145367Y-93685330D01*
X95145366Y-93685330D01*
X94956865Y-93628149D01*
X94783142Y-93535292D01*
X94783140Y-93535291D01*
X94630872Y-93410328D01*
X94505909Y-93258060D01*
X94413052Y-93084337D01*
X94402165Y-93048446D01*
X94355870Y-92895834D01*
X94355870Y-92895833D01*
X94355869Y-92895830D01*
X94336562Y-92699800D01*
X94355869Y-92503770D01*
X94413052Y-92315263D01*
X94505909Y-92141540D01*
X94630872Y-91989272D01*
X94783140Y-91864309D01*
X94956863Y-91771452D01*
X94956865Y-91771451D01*
X95145366Y-91714270D01*
X95145367Y-91714270D01*
X95145370Y-91714269D01*
X95292276Y-91699800D01*
X95390524Y-91699800D01*
X95537430Y-91714269D01*
X95537430Y-91714269D01*
G37*
G36*
X103157430Y-91714269D02*
X103157433Y-91714270D01*
X103157434Y-91714270D01*
X103345935Y-91771451D01*
X103345937Y-91771452D01*
X103519660Y-91864309D01*
X103671928Y-91989272D01*
X103796891Y-92141540D01*
X103889748Y-92315263D01*
X103946931Y-92503770D01*
X103966238Y-92699800D01*
X103946931Y-92895830D01*
X103946930Y-92895833D01*
X103946930Y-92895834D01*
X103900636Y-93048446D01*
X103889748Y-93084337D01*
X103796891Y-93258060D01*
X103671928Y-93410328D01*
X103519660Y-93535291D01*
X103519658Y-93535292D01*
X103345935Y-93628149D01*
X103157434Y-93685330D01*
X103157433Y-93685330D01*
X103157430Y-93685331D01*
X103010524Y-93699800D01*
X102912276Y-93699800D01*
X102765370Y-93685331D01*
X102765367Y-93685330D01*
X102765366Y-93685330D01*
X102576865Y-93628149D01*
X102403142Y-93535292D01*
X102403140Y-93535291D01*
X102250872Y-93410328D01*
X102125909Y-93258060D01*
X102033052Y-93084337D01*
X102022165Y-93048446D01*
X101975870Y-92895834D01*
X101975870Y-92895833D01*
X101975869Y-92895830D01*
X101956562Y-92699800D01*
X101975869Y-92503770D01*
X102033052Y-92315263D01*
X102125909Y-92141540D01*
X102250872Y-91989272D01*
X102403140Y-91864309D01*
X102576863Y-91771452D01*
X102576865Y-91771451D01*
X102765366Y-91714270D01*
X102765367Y-91714270D01*
X102765370Y-91714269D01*
X102912276Y-91699800D01*
X103010524Y-91699800D01*
X103157430Y-91714269D01*
X103157430Y-91714269D01*
G37*
G36*
X185197707Y-90174096D02*
X185274836Y-90181693D01*
X185406787Y-90221720D01*
X185472763Y-90241733D01*
X185655172Y-90339233D01*
X185815054Y-90470446D01*
X185946267Y-90630328D01*
X186043767Y-90812737D01*
X186043767Y-90812738D01*
X186103807Y-91010664D01*
X186124080Y-91216500D01*
X186103807Y-91422336D01*
X186087777Y-91475180D01*
X186043767Y-91620263D01*
X185946267Y-91802672D01*
X185815054Y-91962554D01*
X185655172Y-92093767D01*
X185472763Y-92191267D01*
X185416941Y-92208200D01*
X185274836Y-92251307D01*
X185197707Y-92258904D01*
X185120580Y-92266500D01*
X185017420Y-92266500D01*
X184940293Y-92258903D01*
X184863164Y-92251307D01*
X184721059Y-92208200D01*
X184665237Y-92191267D01*
X184482828Y-92093767D01*
X184322946Y-91962554D01*
X184191733Y-91802672D01*
X184094233Y-91620263D01*
X184050223Y-91475180D01*
X184034193Y-91422336D01*
X184013920Y-91216500D01*
X184034193Y-91010664D01*
X184094233Y-90812738D01*
X184094233Y-90812737D01*
X184191733Y-90630328D01*
X184322946Y-90470446D01*
X184482828Y-90339233D01*
X184665237Y-90241733D01*
X184731213Y-90221720D01*
X184863164Y-90181693D01*
X184940293Y-90174096D01*
X185017420Y-90166500D01*
X185120580Y-90166500D01*
X185197707Y-90174096D01*
X185197707Y-90174096D01*
G37*
G36*
X149012628Y-90563693D02*
X149060354Y-90578170D01*
X149104336Y-90601679D01*
X149142885Y-90633315D01*
X149174521Y-90671864D01*
X149198030Y-90715846D01*
X149212507Y-90763572D01*
X149218000Y-90819341D01*
X149218000Y-91947059D01*
X149212507Y-92002828D01*
X149198030Y-92050554D01*
X149174521Y-92094536D01*
X149142885Y-92133085D01*
X149104336Y-92164721D01*
X149060354Y-92188230D01*
X149012628Y-92202707D01*
X148956859Y-92208200D01*
X147329141Y-92208200D01*
X147273372Y-92202707D01*
X147225646Y-92188230D01*
X147181664Y-92164721D01*
X147143115Y-92133085D01*
X147111479Y-92094536D01*
X147087970Y-92050554D01*
X147073493Y-92002828D01*
X147068000Y-91947059D01*
X147068000Y-90819341D01*
X147073493Y-90763572D01*
X147087970Y-90715846D01*
X147111479Y-90671864D01*
X147143115Y-90633315D01*
X147181664Y-90601679D01*
X147225646Y-90578170D01*
X147273372Y-90563693D01*
X147329141Y-90558200D01*
X148956859Y-90558200D01*
X149012628Y-90563693D01*
X149012628Y-90563693D01*
G37*
G36*
X124023628Y-90096293D02*
X124071354Y-90110770D01*
X124115336Y-90134279D01*
X124153885Y-90165915D01*
X124185521Y-90204464D01*
X124209030Y-90248446D01*
X124223507Y-90296172D01*
X124229000Y-90351941D01*
X124229000Y-91479659D01*
X124223507Y-91535428D01*
X124209030Y-91583154D01*
X124185521Y-91627136D01*
X124153885Y-91665685D01*
X124115336Y-91697321D01*
X124071354Y-91720830D01*
X124023628Y-91735307D01*
X123967859Y-91740800D01*
X122340141Y-91740800D01*
X122284372Y-91735307D01*
X122236646Y-91720830D01*
X122192664Y-91697321D01*
X122154115Y-91665685D01*
X122122479Y-91627136D01*
X122098970Y-91583154D01*
X122084493Y-91535428D01*
X122079000Y-91479659D01*
X122079000Y-90351941D01*
X122084493Y-90296172D01*
X122098970Y-90248446D01*
X122122479Y-90204464D01*
X122154115Y-90165915D01*
X122192664Y-90134279D01*
X122236646Y-90110770D01*
X122284372Y-90096293D01*
X122340141Y-90090800D01*
X123967859Y-90090800D01*
X124023628Y-90096293D01*
X124023628Y-90096293D01*
G37*
G36*
X95537430Y-89174269D02*
X95537433Y-89174270D01*
X95537434Y-89174270D01*
X95725935Y-89231451D01*
X95725937Y-89231452D01*
X95899660Y-89324309D01*
X96051928Y-89449272D01*
X96176891Y-89601540D01*
X96269748Y-89775263D01*
X96326931Y-89963770D01*
X96346238Y-90159800D01*
X96326931Y-90355830D01*
X96269748Y-90544337D01*
X96176891Y-90718060D01*
X96051928Y-90870328D01*
X95899660Y-90995291D01*
X95899658Y-90995292D01*
X95725935Y-91088149D01*
X95537434Y-91145330D01*
X95537433Y-91145330D01*
X95537430Y-91145331D01*
X95390524Y-91159800D01*
X95292276Y-91159800D01*
X95145370Y-91145331D01*
X95145367Y-91145330D01*
X95145366Y-91145330D01*
X94956865Y-91088149D01*
X94783142Y-90995292D01*
X94783140Y-90995291D01*
X94630872Y-90870328D01*
X94505909Y-90718060D01*
X94413052Y-90544337D01*
X94355869Y-90355830D01*
X94336562Y-90159800D01*
X94355869Y-89963770D01*
X94413052Y-89775263D01*
X94505909Y-89601540D01*
X94630872Y-89449272D01*
X94783140Y-89324309D01*
X94956863Y-89231452D01*
X94956865Y-89231451D01*
X95145366Y-89174270D01*
X95145367Y-89174270D01*
X95145370Y-89174269D01*
X95292276Y-89159800D01*
X95390524Y-89159800D01*
X95537430Y-89174269D01*
X95537430Y-89174269D01*
G37*
G36*
X103157430Y-89174269D02*
X103157433Y-89174270D01*
X103157434Y-89174270D01*
X103345935Y-89231451D01*
X103345937Y-89231452D01*
X103519660Y-89324309D01*
X103671928Y-89449272D01*
X103796891Y-89601540D01*
X103889748Y-89775263D01*
X103946931Y-89963770D01*
X103966238Y-90159800D01*
X103946931Y-90355830D01*
X103889748Y-90544337D01*
X103796891Y-90718060D01*
X103671928Y-90870328D01*
X103519660Y-90995291D01*
X103519658Y-90995292D01*
X103345935Y-91088149D01*
X103157434Y-91145330D01*
X103157433Y-91145330D01*
X103157430Y-91145331D01*
X103010524Y-91159800D01*
X102912276Y-91159800D01*
X102765370Y-91145331D01*
X102765367Y-91145330D01*
X102765366Y-91145330D01*
X102576865Y-91088149D01*
X102403142Y-90995292D01*
X102403140Y-90995291D01*
X102250872Y-90870328D01*
X102125909Y-90718060D01*
X102033052Y-90544337D01*
X101975869Y-90355830D01*
X101956562Y-90159800D01*
X101975869Y-89963770D01*
X102033052Y-89775263D01*
X102125909Y-89601540D01*
X102250872Y-89449272D01*
X102403140Y-89324309D01*
X102576863Y-89231452D01*
X102576865Y-89231451D01*
X102765366Y-89174270D01*
X102765367Y-89174270D01*
X102765370Y-89174269D01*
X102912276Y-89159800D01*
X103010524Y-89159800D01*
X103157430Y-89174269D01*
X103157430Y-89174269D01*
G37*
G36*
X185197707Y-87634097D02*
X185274836Y-87641693D01*
X185406787Y-87681720D01*
X185472763Y-87701733D01*
X185655172Y-87799233D01*
X185815054Y-87930446D01*
X185946267Y-88090328D01*
X186043767Y-88272737D01*
X186043767Y-88272738D01*
X186103807Y-88470664D01*
X186124080Y-88676500D01*
X186103807Y-88882336D01*
X186063780Y-89014287D01*
X186043767Y-89080263D01*
X185946267Y-89262672D01*
X185815054Y-89422554D01*
X185655172Y-89553767D01*
X185472763Y-89651267D01*
X185406787Y-89671280D01*
X185274836Y-89711307D01*
X185197707Y-89718904D01*
X185120580Y-89726500D01*
X185017420Y-89726500D01*
X184940293Y-89718904D01*
X184863164Y-89711307D01*
X184731213Y-89671280D01*
X184665237Y-89651267D01*
X184482828Y-89553767D01*
X184322946Y-89422554D01*
X184191733Y-89262672D01*
X184094233Y-89080263D01*
X184074220Y-89014287D01*
X184034193Y-88882336D01*
X184013920Y-88676500D01*
X184034193Y-88470664D01*
X184094233Y-88272738D01*
X184094233Y-88272737D01*
X184191733Y-88090328D01*
X184322946Y-87930446D01*
X184482828Y-87799233D01*
X184665237Y-87701733D01*
X184731213Y-87681720D01*
X184863164Y-87641693D01*
X184940293Y-87634097D01*
X185017420Y-87626500D01*
X185120580Y-87626500D01*
X185197707Y-87634097D01*
X185197707Y-87634097D01*
G37*
G36*
X161155628Y-87332693D02*
X161203354Y-87347170D01*
X161247336Y-87370679D01*
X161285885Y-87402315D01*
X161317521Y-87440864D01*
X161341030Y-87484846D01*
X161355507Y-87532572D01*
X161361000Y-87588341D01*
X161361000Y-89216059D01*
X161355507Y-89271828D01*
X161341030Y-89319554D01*
X161317521Y-89363536D01*
X161285885Y-89402085D01*
X161247336Y-89433721D01*
X161203354Y-89457230D01*
X161155628Y-89471707D01*
X161099859Y-89477200D01*
X159972141Y-89477200D01*
X159916372Y-89471707D01*
X159868646Y-89457230D01*
X159824664Y-89433721D01*
X159786115Y-89402085D01*
X159754479Y-89363536D01*
X159730970Y-89319554D01*
X159716493Y-89271828D01*
X159711000Y-89216059D01*
X159711000Y-87588341D01*
X159716493Y-87532572D01*
X159730970Y-87484846D01*
X159754479Y-87440864D01*
X159786115Y-87402315D01*
X159824664Y-87370679D01*
X159868646Y-87347170D01*
X159916372Y-87332693D01*
X159972141Y-87327200D01*
X161099859Y-87327200D01*
X161155628Y-87332693D01*
X161155628Y-87332693D01*
G37*
G36*
X158355628Y-87332693D02*
X158403354Y-87347170D01*
X158447336Y-87370679D01*
X158485885Y-87402315D01*
X158517521Y-87440864D01*
X158541030Y-87484846D01*
X158555507Y-87532572D01*
X158561000Y-87588341D01*
X158561000Y-89216059D01*
X158555507Y-89271828D01*
X158541030Y-89319554D01*
X158517521Y-89363536D01*
X158485885Y-89402085D01*
X158447336Y-89433721D01*
X158403354Y-89457230D01*
X158355628Y-89471707D01*
X158299859Y-89477200D01*
X157172141Y-89477200D01*
X157116372Y-89471707D01*
X157068646Y-89457230D01*
X157024664Y-89433721D01*
X156986115Y-89402085D01*
X156954479Y-89363536D01*
X156930970Y-89319554D01*
X156916493Y-89271828D01*
X156911000Y-89216059D01*
X156911000Y-87588341D01*
X156916493Y-87532572D01*
X156930970Y-87484846D01*
X156954479Y-87440864D01*
X156986115Y-87402315D01*
X157024664Y-87370679D01*
X157068646Y-87347170D01*
X157116372Y-87332693D01*
X157172141Y-87327200D01*
X158299859Y-87327200D01*
X158355628Y-87332693D01*
X158355628Y-87332693D01*
G37*
G36*
X167028628Y-87231093D02*
X167076354Y-87245570D01*
X167120336Y-87269079D01*
X167158885Y-87300715D01*
X167190521Y-87339264D01*
X167214030Y-87383246D01*
X167228507Y-87430972D01*
X167234000Y-87486741D01*
X167234000Y-89114459D01*
X167228507Y-89170228D01*
X167214030Y-89217954D01*
X167190521Y-89261936D01*
X167158885Y-89300485D01*
X167120336Y-89332121D01*
X167076354Y-89355630D01*
X167028628Y-89370107D01*
X166972859Y-89375600D01*
X165845141Y-89375600D01*
X165789372Y-89370107D01*
X165741646Y-89355630D01*
X165697664Y-89332121D01*
X165659115Y-89300485D01*
X165627479Y-89261936D01*
X165603970Y-89217954D01*
X165589493Y-89170228D01*
X165584000Y-89114459D01*
X165584000Y-87486741D01*
X165589493Y-87430972D01*
X165603970Y-87383246D01*
X165627479Y-87339264D01*
X165659115Y-87300715D01*
X165697664Y-87269079D01*
X165741646Y-87245570D01*
X165789372Y-87231093D01*
X165845141Y-87225600D01*
X166972859Y-87225600D01*
X167028628Y-87231093D01*
X167028628Y-87231093D01*
G37*
G36*
X164228628Y-87231093D02*
X164276354Y-87245570D01*
X164320336Y-87269079D01*
X164358885Y-87300715D01*
X164390521Y-87339264D01*
X164414030Y-87383246D01*
X164428507Y-87430972D01*
X164434000Y-87486741D01*
X164434000Y-89114459D01*
X164428507Y-89170228D01*
X164414030Y-89217954D01*
X164390521Y-89261936D01*
X164358885Y-89300485D01*
X164320336Y-89332121D01*
X164276354Y-89355630D01*
X164228628Y-89370107D01*
X164172859Y-89375600D01*
X163045141Y-89375600D01*
X162989372Y-89370107D01*
X162941646Y-89355630D01*
X162897664Y-89332121D01*
X162859115Y-89300485D01*
X162827479Y-89261936D01*
X162803970Y-89217954D01*
X162789493Y-89170228D01*
X162784000Y-89114459D01*
X162784000Y-87486741D01*
X162789493Y-87430972D01*
X162803970Y-87383246D01*
X162827479Y-87339264D01*
X162859115Y-87300715D01*
X162897664Y-87269079D01*
X162941646Y-87245570D01*
X162989372Y-87231093D01*
X163045141Y-87225600D01*
X164172859Y-87225600D01*
X164228628Y-87231093D01*
X164228628Y-87231093D01*
G37*
G36*
X103157430Y-86634269D02*
X103157433Y-86634270D01*
X103157434Y-86634270D01*
X103345935Y-86691451D01*
X103345937Y-86691452D01*
X103519660Y-86784309D01*
X103671928Y-86909272D01*
X103796891Y-87061540D01*
X103796892Y-87061542D01*
X103889749Y-87235265D01*
X103934638Y-87383246D01*
X103946931Y-87423770D01*
X103966238Y-87619800D01*
X103946931Y-87815830D01*
X103946930Y-87815833D01*
X103946930Y-87815834D01*
X103926402Y-87883507D01*
X103889748Y-88004337D01*
X103796891Y-88178060D01*
X103671928Y-88330328D01*
X103519660Y-88455291D01*
X103519658Y-88455292D01*
X103345935Y-88548149D01*
X103157434Y-88605330D01*
X103157433Y-88605330D01*
X103157430Y-88605331D01*
X103010524Y-88619800D01*
X102912276Y-88619800D01*
X102765370Y-88605331D01*
X102765367Y-88605330D01*
X102765366Y-88605330D01*
X102576865Y-88548149D01*
X102403142Y-88455292D01*
X102403140Y-88455291D01*
X102250872Y-88330328D01*
X102125909Y-88178060D01*
X102033052Y-88004337D01*
X101996399Y-87883507D01*
X101975870Y-87815834D01*
X101975870Y-87815833D01*
X101975869Y-87815830D01*
X101956562Y-87619800D01*
X101975869Y-87423770D01*
X101988162Y-87383246D01*
X102033051Y-87235265D01*
X102125908Y-87061542D01*
X102125909Y-87061540D01*
X102250872Y-86909272D01*
X102403140Y-86784309D01*
X102576863Y-86691452D01*
X102576865Y-86691451D01*
X102765366Y-86634270D01*
X102765367Y-86634270D01*
X102765370Y-86634269D01*
X102912276Y-86619800D01*
X103010524Y-86619800D01*
X103157430Y-86634269D01*
X103157430Y-86634269D01*
G37*
G36*
X95537430Y-86634269D02*
X95537433Y-86634270D01*
X95537434Y-86634270D01*
X95725935Y-86691451D01*
X95725937Y-86691452D01*
X95899660Y-86784309D01*
X96051928Y-86909272D01*
X96176891Y-87061540D01*
X96176892Y-87061542D01*
X96269749Y-87235265D01*
X96314638Y-87383246D01*
X96326931Y-87423770D01*
X96346238Y-87619800D01*
X96326931Y-87815830D01*
X96326930Y-87815833D01*
X96326930Y-87815834D01*
X96306402Y-87883507D01*
X96269748Y-88004337D01*
X96176891Y-88178060D01*
X96051928Y-88330328D01*
X95899660Y-88455291D01*
X95899658Y-88455292D01*
X95725935Y-88548149D01*
X95537434Y-88605330D01*
X95537433Y-88605330D01*
X95537430Y-88605331D01*
X95390524Y-88619800D01*
X95292276Y-88619800D01*
X95145370Y-88605331D01*
X95145367Y-88605330D01*
X95145366Y-88605330D01*
X94956865Y-88548149D01*
X94783142Y-88455292D01*
X94783140Y-88455291D01*
X94630872Y-88330328D01*
X94505909Y-88178060D01*
X94413052Y-88004337D01*
X94376399Y-87883507D01*
X94355870Y-87815834D01*
X94355870Y-87815833D01*
X94355869Y-87815830D01*
X94336562Y-87619800D01*
X94355869Y-87423770D01*
X94368162Y-87383246D01*
X94413051Y-87235265D01*
X94505908Y-87061542D01*
X94505909Y-87061540D01*
X94630872Y-86909272D01*
X94783140Y-86784309D01*
X94956863Y-86691452D01*
X94956865Y-86691451D01*
X95145366Y-86634270D01*
X95145367Y-86634270D01*
X95145370Y-86634269D01*
X95292276Y-86619800D01*
X95390524Y-86619800D01*
X95537430Y-86634269D01*
X95537430Y-86634269D01*
G37*
G36*
X148946628Y-86244493D02*
X148994354Y-86258970D01*
X149038336Y-86282479D01*
X149076885Y-86314115D01*
X149108521Y-86352664D01*
X149132030Y-86396646D01*
X149146507Y-86444372D01*
X149152000Y-86500141D01*
X149152000Y-87627859D01*
X149146507Y-87683628D01*
X149132030Y-87731354D01*
X149108521Y-87775336D01*
X149076885Y-87813885D01*
X149038336Y-87845521D01*
X148994354Y-87869030D01*
X148946628Y-87883507D01*
X148890859Y-87889000D01*
X147263141Y-87889000D01*
X147207372Y-87883507D01*
X147159646Y-87869030D01*
X147115664Y-87845521D01*
X147077115Y-87813885D01*
X147045479Y-87775336D01*
X147021970Y-87731354D01*
X147007493Y-87683628D01*
X147002000Y-87627859D01*
X147002000Y-86500141D01*
X147007493Y-86444372D01*
X147021970Y-86396646D01*
X147045479Y-86352664D01*
X147077115Y-86314115D01*
X147115664Y-86282479D01*
X147159646Y-86258970D01*
X147207372Y-86244493D01*
X147263141Y-86239000D01*
X148890859Y-86239000D01*
X148946628Y-86244493D01*
X148946628Y-86244493D01*
G37*
G36*
X185197707Y-85094096D02*
X185274836Y-85101693D01*
X185406787Y-85141720D01*
X185472763Y-85161733D01*
X185655172Y-85259233D01*
X185815054Y-85390446D01*
X185946267Y-85550328D01*
X186043767Y-85732737D01*
X186061237Y-85790328D01*
X186103807Y-85930664D01*
X186124080Y-86136500D01*
X186103807Y-86342336D01*
X186090664Y-86385662D01*
X186043767Y-86540263D01*
X185946267Y-86722672D01*
X185815054Y-86882554D01*
X185655172Y-87013767D01*
X185472763Y-87111267D01*
X185406787Y-87131280D01*
X185274836Y-87171307D01*
X185197707Y-87178903D01*
X185120580Y-87186500D01*
X185017420Y-87186500D01*
X184940293Y-87178903D01*
X184863164Y-87171307D01*
X184731213Y-87131280D01*
X184665237Y-87111267D01*
X184482828Y-87013767D01*
X184322946Y-86882554D01*
X184191733Y-86722672D01*
X184094233Y-86540263D01*
X184047336Y-86385662D01*
X184034193Y-86342336D01*
X184013920Y-86136500D01*
X184034193Y-85930664D01*
X184076763Y-85790328D01*
X184094233Y-85732737D01*
X184191733Y-85550328D01*
X184322946Y-85390446D01*
X184482828Y-85259233D01*
X184665237Y-85161733D01*
X184731213Y-85141720D01*
X184863164Y-85101693D01*
X184940293Y-85094096D01*
X185017420Y-85086500D01*
X185120580Y-85086500D01*
X185197707Y-85094096D01*
X185197707Y-85094096D01*
G37*
G36*
X124095628Y-85416493D02*
X124143354Y-85430970D01*
X124187336Y-85454479D01*
X124225885Y-85486115D01*
X124257521Y-85524664D01*
X124281030Y-85568646D01*
X124295507Y-85616372D01*
X124301000Y-85672141D01*
X124301000Y-86799859D01*
X124295507Y-86855628D01*
X124281030Y-86903354D01*
X124257521Y-86947336D01*
X124225885Y-86985885D01*
X124187336Y-87017521D01*
X124143354Y-87041030D01*
X124095628Y-87055507D01*
X124039859Y-87061000D01*
X122412141Y-87061000D01*
X122356372Y-87055507D01*
X122308646Y-87041030D01*
X122264664Y-87017521D01*
X122226115Y-86985885D01*
X122194479Y-86947336D01*
X122170970Y-86903354D01*
X122156493Y-86855628D01*
X122151000Y-86799859D01*
X122151000Y-85672141D01*
X122156493Y-85616372D01*
X122170970Y-85568646D01*
X122194479Y-85524664D01*
X122226115Y-85486115D01*
X122264664Y-85454479D01*
X122308646Y-85430970D01*
X122356372Y-85416493D01*
X122412141Y-85411000D01*
X124039859Y-85411000D01*
X124095628Y-85416493D01*
X124095628Y-85416493D01*
G37*
G36*
X174986628Y-84558993D02*
X175034354Y-84573470D01*
X175078336Y-84596979D01*
X175116885Y-84628615D01*
X175148521Y-84667164D01*
X175172030Y-84711146D01*
X175186507Y-84758872D01*
X175192000Y-84814641D01*
X175192000Y-86442359D01*
X175186507Y-86498128D01*
X175172030Y-86545854D01*
X175148521Y-86589836D01*
X175116885Y-86628385D01*
X175078336Y-86660021D01*
X175034354Y-86683530D01*
X174986628Y-86698007D01*
X174930859Y-86703500D01*
X173803141Y-86703500D01*
X173747372Y-86698007D01*
X173699646Y-86683530D01*
X173655664Y-86660021D01*
X173617115Y-86628385D01*
X173585479Y-86589836D01*
X173561970Y-86545854D01*
X173547493Y-86498128D01*
X173542000Y-86442359D01*
X173542000Y-84814641D01*
X173547493Y-84758872D01*
X173561970Y-84711146D01*
X173585479Y-84667164D01*
X173617115Y-84628615D01*
X173655664Y-84596979D01*
X173699646Y-84573470D01*
X173747372Y-84558993D01*
X173803141Y-84553500D01*
X174930859Y-84553500D01*
X174986628Y-84558993D01*
X174986628Y-84558993D01*
G37*
G36*
X172186628Y-84558993D02*
X172234354Y-84573470D01*
X172278336Y-84596979D01*
X172316885Y-84628615D01*
X172348521Y-84667164D01*
X172372030Y-84711146D01*
X172386507Y-84758872D01*
X172392000Y-84814641D01*
X172392000Y-86442359D01*
X172386507Y-86498128D01*
X172372030Y-86545854D01*
X172348521Y-86589836D01*
X172316885Y-86628385D01*
X172278336Y-86660021D01*
X172234354Y-86683530D01*
X172186628Y-86698007D01*
X172130859Y-86703500D01*
X171003141Y-86703500D01*
X170947372Y-86698007D01*
X170899646Y-86683530D01*
X170855664Y-86660021D01*
X170817115Y-86628385D01*
X170785479Y-86589836D01*
X170761970Y-86545854D01*
X170747493Y-86498128D01*
X170742000Y-86442359D01*
X170742000Y-84814641D01*
X170747493Y-84758872D01*
X170761970Y-84711146D01*
X170785479Y-84667164D01*
X170817115Y-84628615D01*
X170855664Y-84596979D01*
X170899646Y-84573470D01*
X170947372Y-84558993D01*
X171003141Y-84553500D01*
X172130859Y-84553500D01*
X172186628Y-84558993D01*
X172186628Y-84558993D01*
G37*
G36*
X180569628Y-84533593D02*
X180617354Y-84548070D01*
X180661336Y-84571579D01*
X180699885Y-84603215D01*
X180731521Y-84641764D01*
X180755030Y-84685746D01*
X180769507Y-84733472D01*
X180775000Y-84789241D01*
X180775000Y-86416959D01*
X180769507Y-86472728D01*
X180755030Y-86520454D01*
X180731521Y-86564436D01*
X180699885Y-86602985D01*
X180661336Y-86634621D01*
X180617354Y-86658130D01*
X180569628Y-86672607D01*
X180513859Y-86678100D01*
X179386141Y-86678100D01*
X179330372Y-86672607D01*
X179282646Y-86658130D01*
X179238664Y-86634621D01*
X179200115Y-86602985D01*
X179168479Y-86564436D01*
X179144970Y-86520454D01*
X179130493Y-86472728D01*
X179125000Y-86416959D01*
X179125000Y-84789241D01*
X179130493Y-84733472D01*
X179144970Y-84685746D01*
X179168479Y-84641764D01*
X179200115Y-84603215D01*
X179238664Y-84571579D01*
X179282646Y-84548070D01*
X179330372Y-84533593D01*
X179386141Y-84528100D01*
X180513859Y-84528100D01*
X180569628Y-84533593D01*
X180569628Y-84533593D01*
G37*
G36*
X177769628Y-84533593D02*
X177817354Y-84548070D01*
X177861336Y-84571579D01*
X177899885Y-84603215D01*
X177931521Y-84641764D01*
X177955030Y-84685746D01*
X177969507Y-84733472D01*
X177975000Y-84789241D01*
X177975000Y-86416959D01*
X177969507Y-86472728D01*
X177955030Y-86520454D01*
X177931521Y-86564436D01*
X177899885Y-86602985D01*
X177861336Y-86634621D01*
X177817354Y-86658130D01*
X177769628Y-86672607D01*
X177713859Y-86678100D01*
X176586141Y-86678100D01*
X176530372Y-86672607D01*
X176482646Y-86658130D01*
X176438664Y-86634621D01*
X176400115Y-86602985D01*
X176368479Y-86564436D01*
X176344970Y-86520454D01*
X176330493Y-86472728D01*
X176325000Y-86416959D01*
X176325000Y-84789241D01*
X176330493Y-84733472D01*
X176344970Y-84685746D01*
X176368479Y-84641764D01*
X176400115Y-84603215D01*
X176438664Y-84571579D01*
X176482646Y-84548070D01*
X176530372Y-84533593D01*
X176586141Y-84528100D01*
X177713859Y-84528100D01*
X177769628Y-84533593D01*
X177769628Y-84533593D01*
G37*
G36*
X95537430Y-84094269D02*
X95537433Y-84094270D01*
X95537434Y-84094270D01*
X95725935Y-84151451D01*
X95725937Y-84151452D01*
X95899660Y-84244309D01*
X96051928Y-84369272D01*
X96176891Y-84521540D01*
X96254729Y-84667164D01*
X96269749Y-84695265D01*
X96298256Y-84789241D01*
X96326931Y-84883770D01*
X96346238Y-85079800D01*
X96326931Y-85275830D01*
X96326930Y-85275833D01*
X96326930Y-85275834D01*
X96272739Y-85454479D01*
X96269748Y-85464337D01*
X96176891Y-85638060D01*
X96051928Y-85790328D01*
X95899660Y-85915291D01*
X95899658Y-85915292D01*
X95725935Y-86008149D01*
X95537434Y-86065330D01*
X95537433Y-86065330D01*
X95537430Y-86065331D01*
X95390524Y-86079800D01*
X95292276Y-86079800D01*
X95145370Y-86065331D01*
X95145367Y-86065330D01*
X95145366Y-86065330D01*
X94956865Y-86008149D01*
X94783142Y-85915292D01*
X94783140Y-85915291D01*
X94630872Y-85790328D01*
X94505909Y-85638060D01*
X94413052Y-85464337D01*
X94410062Y-85454479D01*
X94355870Y-85275834D01*
X94355870Y-85275833D01*
X94355869Y-85275830D01*
X94336562Y-85079800D01*
X94355869Y-84883770D01*
X94384544Y-84789241D01*
X94413051Y-84695265D01*
X94428071Y-84667164D01*
X94505909Y-84521540D01*
X94630872Y-84369272D01*
X94783140Y-84244309D01*
X94956863Y-84151452D01*
X94956865Y-84151451D01*
X95145366Y-84094270D01*
X95145367Y-84094270D01*
X95145370Y-84094269D01*
X95292276Y-84079800D01*
X95390524Y-84079800D01*
X95537430Y-84094269D01*
X95537430Y-84094269D01*
G37*
G36*
X103157430Y-84094269D02*
X103157433Y-84094270D01*
X103157434Y-84094270D01*
X103345935Y-84151451D01*
X103345937Y-84151452D01*
X103519660Y-84244309D01*
X103671928Y-84369272D01*
X103796891Y-84521540D01*
X103874729Y-84667164D01*
X103889749Y-84695265D01*
X103918256Y-84789241D01*
X103946931Y-84883770D01*
X103966238Y-85079800D01*
X103946931Y-85275830D01*
X103946930Y-85275833D01*
X103946930Y-85275834D01*
X103892739Y-85454479D01*
X103889748Y-85464337D01*
X103796891Y-85638060D01*
X103671928Y-85790328D01*
X103519660Y-85915291D01*
X103519658Y-85915292D01*
X103345935Y-86008149D01*
X103157434Y-86065330D01*
X103157433Y-86065330D01*
X103157430Y-86065331D01*
X103010524Y-86079800D01*
X102912276Y-86079800D01*
X102765370Y-86065331D01*
X102765367Y-86065330D01*
X102765366Y-86065330D01*
X102576865Y-86008149D01*
X102403142Y-85915292D01*
X102403140Y-85915291D01*
X102250872Y-85790328D01*
X102125909Y-85638060D01*
X102033052Y-85464337D01*
X102030062Y-85454479D01*
X101975870Y-85275834D01*
X101975870Y-85275833D01*
X101975869Y-85275830D01*
X101956562Y-85079800D01*
X101975869Y-84883770D01*
X102004544Y-84789241D01*
X102033051Y-84695265D01*
X102048071Y-84667164D01*
X102125909Y-84521540D01*
X102250872Y-84369272D01*
X102403140Y-84244309D01*
X102576863Y-84151452D01*
X102576865Y-84151451D01*
X102765366Y-84094270D01*
X102765367Y-84094270D01*
X102765370Y-84094269D01*
X102912276Y-84079800D01*
X103010524Y-84079800D01*
X103157430Y-84094269D01*
X103157430Y-84094269D01*
G37*
G36*
X148946628Y-83444493D02*
X148994354Y-83458970D01*
X149038336Y-83482479D01*
X149076885Y-83514115D01*
X149108521Y-83552664D01*
X149132030Y-83596646D01*
X149146507Y-83644372D01*
X149152000Y-83700141D01*
X149152000Y-84827859D01*
X149146507Y-84883628D01*
X149132030Y-84931354D01*
X149108521Y-84975336D01*
X149076885Y-85013885D01*
X149038336Y-85045521D01*
X148994354Y-85069030D01*
X148946628Y-85083507D01*
X148890859Y-85089000D01*
X147263141Y-85089000D01*
X147207372Y-85083507D01*
X147159646Y-85069030D01*
X147115664Y-85045521D01*
X147077115Y-85013885D01*
X147045479Y-84975336D01*
X147021970Y-84931354D01*
X147007493Y-84883628D01*
X147002000Y-84827859D01*
X147002000Y-83700141D01*
X147007493Y-83644372D01*
X147021970Y-83596646D01*
X147045479Y-83552664D01*
X147077115Y-83514115D01*
X147115664Y-83482479D01*
X147159646Y-83458970D01*
X147207372Y-83444493D01*
X147263141Y-83439000D01*
X148890859Y-83439000D01*
X148946628Y-83444493D01*
X148946628Y-83444493D01*
G37*
G36*
X185197707Y-82554097D02*
X185274836Y-82561693D01*
X185406787Y-82601720D01*
X185472763Y-82621733D01*
X185655172Y-82719233D01*
X185815054Y-82850446D01*
X185946267Y-83010328D01*
X186043767Y-83192737D01*
X186043767Y-83192738D01*
X186103807Y-83390664D01*
X186124080Y-83596500D01*
X186103807Y-83802336D01*
X186064777Y-83931000D01*
X186043767Y-84000263D01*
X185946267Y-84182672D01*
X185815054Y-84342554D01*
X185655172Y-84473767D01*
X185472763Y-84571267D01*
X185406787Y-84591280D01*
X185274836Y-84631307D01*
X185197707Y-84638904D01*
X185120580Y-84646500D01*
X185017420Y-84646500D01*
X184940293Y-84638904D01*
X184863164Y-84631307D01*
X184731213Y-84591280D01*
X184665237Y-84571267D01*
X184482828Y-84473767D01*
X184322946Y-84342554D01*
X184191733Y-84182672D01*
X184094233Y-84000263D01*
X184073223Y-83931000D01*
X184034193Y-83802336D01*
X184013920Y-83596500D01*
X184034193Y-83390664D01*
X184094233Y-83192738D01*
X184094233Y-83192737D01*
X184191733Y-83010328D01*
X184322946Y-82850446D01*
X184482828Y-82719233D01*
X184665237Y-82621733D01*
X184731213Y-82601720D01*
X184863164Y-82561693D01*
X184940293Y-82554097D01*
X185017420Y-82546500D01*
X185120580Y-82546500D01*
X185197707Y-82554097D01*
X185197707Y-82554097D01*
G37*
G36*
X124095628Y-82616493D02*
X124143354Y-82630970D01*
X124187336Y-82654479D01*
X124225885Y-82686115D01*
X124257521Y-82724664D01*
X124281030Y-82768646D01*
X124295507Y-82816372D01*
X124301000Y-82872141D01*
X124301000Y-83999859D01*
X124295507Y-84055628D01*
X124281030Y-84103354D01*
X124257521Y-84147336D01*
X124225885Y-84185885D01*
X124187336Y-84217521D01*
X124143354Y-84241030D01*
X124095628Y-84255507D01*
X124039859Y-84261000D01*
X122412141Y-84261000D01*
X122356372Y-84255507D01*
X122308646Y-84241030D01*
X122264664Y-84217521D01*
X122226115Y-84185885D01*
X122194479Y-84147336D01*
X122170970Y-84103354D01*
X122156493Y-84055628D01*
X122151000Y-83999859D01*
X122151000Y-82872141D01*
X122156493Y-82816372D01*
X122170970Y-82768646D01*
X122194479Y-82724664D01*
X122226115Y-82686115D01*
X122264664Y-82654479D01*
X122308646Y-82630970D01*
X122356372Y-82616493D01*
X122412141Y-82611000D01*
X124039859Y-82611000D01*
X124095628Y-82616493D01*
X124095628Y-82616493D01*
G37*
G36*
X157930628Y-81516093D02*
X157978354Y-81530570D01*
X158022336Y-81554079D01*
X158060885Y-81585715D01*
X158092521Y-81624264D01*
X158116030Y-81668246D01*
X158130507Y-81715972D01*
X158136000Y-81771741D01*
X158136000Y-83399459D01*
X158130507Y-83455228D01*
X158116030Y-83502954D01*
X158092521Y-83546936D01*
X158060885Y-83585485D01*
X158022336Y-83617121D01*
X157978354Y-83640630D01*
X157930628Y-83655107D01*
X157874859Y-83660600D01*
X156747141Y-83660600D01*
X156691372Y-83655107D01*
X156643646Y-83640630D01*
X156599664Y-83617121D01*
X156561115Y-83585485D01*
X156529479Y-83546936D01*
X156505970Y-83502954D01*
X156491493Y-83455228D01*
X156486000Y-83399459D01*
X156486000Y-81771741D01*
X156491493Y-81715972D01*
X156505970Y-81668246D01*
X156529479Y-81624264D01*
X156561115Y-81585715D01*
X156599664Y-81554079D01*
X156643646Y-81530570D01*
X156691372Y-81516093D01*
X156747141Y-81510600D01*
X157874859Y-81510600D01*
X157930628Y-81516093D01*
X157930628Y-81516093D01*
G37*
G36*
X160730628Y-81516093D02*
X160778354Y-81530570D01*
X160822336Y-81554079D01*
X160860885Y-81585715D01*
X160892521Y-81624264D01*
X160916030Y-81668246D01*
X160930507Y-81715972D01*
X160936000Y-81771741D01*
X160936000Y-83399459D01*
X160930507Y-83455228D01*
X160916030Y-83502954D01*
X160892521Y-83546936D01*
X160860885Y-83585485D01*
X160822336Y-83617121D01*
X160778354Y-83640630D01*
X160730628Y-83655107D01*
X160674859Y-83660600D01*
X159547141Y-83660600D01*
X159491372Y-83655107D01*
X159443646Y-83640630D01*
X159399664Y-83617121D01*
X159361115Y-83585485D01*
X159329479Y-83546936D01*
X159305970Y-83502954D01*
X159291493Y-83455228D01*
X159286000Y-83399459D01*
X159286000Y-81771741D01*
X159291493Y-81715972D01*
X159305970Y-81668246D01*
X159329479Y-81624264D01*
X159361115Y-81585715D01*
X159399664Y-81554079D01*
X159443646Y-81530570D01*
X159491372Y-81516093D01*
X159547141Y-81510600D01*
X160674859Y-81510600D01*
X160730628Y-81516093D01*
X160730628Y-81516093D01*
G37*
G36*
X103157430Y-81554269D02*
X103157433Y-81554270D01*
X103157434Y-81554270D01*
X103345935Y-81611451D01*
X103345937Y-81611452D01*
X103519660Y-81704309D01*
X103671928Y-81829272D01*
X103796891Y-81981540D01*
X103889748Y-82155263D01*
X103946931Y-82343770D01*
X103966238Y-82539800D01*
X103946931Y-82735830D01*
X103946930Y-82735833D01*
X103946930Y-82735834D01*
X103905582Y-82872141D01*
X103889748Y-82924337D01*
X103796891Y-83098060D01*
X103671928Y-83250328D01*
X103519660Y-83375291D01*
X103367007Y-83456886D01*
X103345935Y-83468149D01*
X103157434Y-83525330D01*
X103157433Y-83525330D01*
X103157430Y-83525331D01*
X103010524Y-83539800D01*
X102912276Y-83539800D01*
X102765370Y-83525331D01*
X102765367Y-83525330D01*
X102765366Y-83525330D01*
X102576865Y-83468149D01*
X102555793Y-83456886D01*
X102403140Y-83375291D01*
X102250872Y-83250328D01*
X102125909Y-83098060D01*
X102033052Y-82924337D01*
X102017219Y-82872141D01*
X101975870Y-82735834D01*
X101975870Y-82735833D01*
X101975869Y-82735830D01*
X101956562Y-82539800D01*
X101975869Y-82343770D01*
X102033052Y-82155263D01*
X102125909Y-81981540D01*
X102250872Y-81829272D01*
X102403140Y-81704309D01*
X102576863Y-81611452D01*
X102576865Y-81611451D01*
X102765366Y-81554270D01*
X102765367Y-81554270D01*
X102765370Y-81554269D01*
X102912276Y-81539800D01*
X103010524Y-81539800D01*
X103157430Y-81554269D01*
X103157430Y-81554269D01*
G37*
G36*
X95537430Y-81554269D02*
X95537433Y-81554270D01*
X95537434Y-81554270D01*
X95725935Y-81611451D01*
X95725937Y-81611452D01*
X95899660Y-81704309D01*
X96051928Y-81829272D01*
X96176891Y-81981540D01*
X96269748Y-82155263D01*
X96326931Y-82343770D01*
X96346238Y-82539800D01*
X96326931Y-82735830D01*
X96326930Y-82735833D01*
X96326930Y-82735834D01*
X96285582Y-82872141D01*
X96269748Y-82924337D01*
X96176891Y-83098060D01*
X96051928Y-83250328D01*
X95899660Y-83375291D01*
X95747007Y-83456886D01*
X95725935Y-83468149D01*
X95537434Y-83525330D01*
X95537433Y-83525330D01*
X95537430Y-83525331D01*
X95390524Y-83539800D01*
X95292276Y-83539800D01*
X95145370Y-83525331D01*
X95145367Y-83525330D01*
X95145366Y-83525330D01*
X94956865Y-83468149D01*
X94935793Y-83456886D01*
X94783140Y-83375291D01*
X94630872Y-83250328D01*
X94505909Y-83098060D01*
X94413052Y-82924337D01*
X94397219Y-82872141D01*
X94355870Y-82735834D01*
X94355870Y-82735833D01*
X94355869Y-82735830D01*
X94336562Y-82539800D01*
X94355869Y-82343770D01*
X94413052Y-82155263D01*
X94505909Y-81981540D01*
X94630872Y-81829272D01*
X94783140Y-81704309D01*
X94956863Y-81611452D01*
X94956865Y-81611451D01*
X95145366Y-81554270D01*
X95145367Y-81554270D01*
X95145370Y-81554269D01*
X95292276Y-81539800D01*
X95390524Y-81539800D01*
X95537430Y-81554269D01*
X95537430Y-81554269D01*
G37*
G36*
X142340000Y-83050000D02*
X129660000Y-83050000D01*
X129660000Y-81150000D01*
X142340000Y-81150000D01*
X142340000Y-83050000D01*
X142340000Y-83050000D01*
G37*
G36*
X185197707Y-80014097D02*
X185274836Y-80021693D01*
X185406787Y-80061720D01*
X185472763Y-80081733D01*
X185655172Y-80179233D01*
X185815054Y-80310446D01*
X185946267Y-80470328D01*
X186043767Y-80652737D01*
X186059354Y-80704121D01*
X186103807Y-80850664D01*
X186124080Y-81056500D01*
X186103807Y-81262336D01*
X186063780Y-81394287D01*
X186043767Y-81460263D01*
X185946267Y-81642672D01*
X185815054Y-81802554D01*
X185655172Y-81933767D01*
X185472763Y-82031267D01*
X185406787Y-82051280D01*
X185274836Y-82091307D01*
X185197707Y-82098904D01*
X185120580Y-82106500D01*
X185017420Y-82106500D01*
X184940293Y-82098904D01*
X184863164Y-82091307D01*
X184731213Y-82051280D01*
X184665237Y-82031267D01*
X184482828Y-81933767D01*
X184322946Y-81802554D01*
X184191733Y-81642672D01*
X184094233Y-81460263D01*
X184074220Y-81394287D01*
X184034193Y-81262336D01*
X184013920Y-81056500D01*
X184034193Y-80850664D01*
X184078646Y-80704121D01*
X184094233Y-80652737D01*
X184191733Y-80470328D01*
X184322946Y-80310446D01*
X184482828Y-80179233D01*
X184665237Y-80081733D01*
X184731213Y-80061720D01*
X184863164Y-80021693D01*
X184940293Y-80014097D01*
X185017420Y-80006500D01*
X185120580Y-80006500D01*
X185197707Y-80014097D01*
X185197707Y-80014097D01*
G37*
G36*
X172437002Y-77495970D02*
X172487437Y-77511269D01*
X172533913Y-77536112D01*
X172574654Y-77569546D01*
X172608088Y-77610287D01*
X172632931Y-77656763D01*
X172648230Y-77707198D01*
X172654000Y-77765784D01*
X172654000Y-81014616D01*
X172648230Y-81073202D01*
X172632931Y-81123637D01*
X172608088Y-81170113D01*
X172574654Y-81210854D01*
X172533913Y-81244288D01*
X172487437Y-81269131D01*
X172437002Y-81284430D01*
X172378416Y-81290200D01*
X171404584Y-81290200D01*
X171345998Y-81284430D01*
X171295563Y-81269131D01*
X171249087Y-81244288D01*
X171208346Y-81210854D01*
X171174912Y-81170113D01*
X171150069Y-81123637D01*
X171134770Y-81073202D01*
X171129000Y-81014616D01*
X171129000Y-77765784D01*
X171134770Y-77707198D01*
X171150069Y-77656763D01*
X171174912Y-77610287D01*
X171208346Y-77569546D01*
X171249087Y-77536112D01*
X171295563Y-77511269D01*
X171345998Y-77495970D01*
X171404584Y-77490200D01*
X172378416Y-77490200D01*
X172437002Y-77495970D01*
X172437002Y-77495970D01*
G37*
G36*
X168162002Y-77495970D02*
X168212437Y-77511269D01*
X168258913Y-77536112D01*
X168299654Y-77569546D01*
X168333088Y-77610287D01*
X168357931Y-77656763D01*
X168373230Y-77707198D01*
X168379000Y-77765784D01*
X168379000Y-81014616D01*
X168373230Y-81073202D01*
X168357931Y-81123637D01*
X168333088Y-81170113D01*
X168299654Y-81210854D01*
X168258913Y-81244288D01*
X168212437Y-81269131D01*
X168162002Y-81284430D01*
X168103416Y-81290200D01*
X167129584Y-81290200D01*
X167070998Y-81284430D01*
X167020563Y-81269131D01*
X166974087Y-81244288D01*
X166933346Y-81210854D01*
X166899912Y-81170113D01*
X166875069Y-81123637D01*
X166859770Y-81073202D01*
X166854000Y-81014616D01*
X166854000Y-77765784D01*
X166859770Y-77707198D01*
X166875069Y-77656763D01*
X166899912Y-77610287D01*
X166933346Y-77569546D01*
X166974087Y-77536112D01*
X167020563Y-77511269D01*
X167070998Y-77495970D01*
X167129584Y-77490200D01*
X168103416Y-77490200D01*
X168162002Y-77495970D01*
X168162002Y-77495970D01*
G37*
G36*
X103157430Y-79014269D02*
X103157433Y-79014270D01*
X103157434Y-79014270D01*
X103345935Y-79071451D01*
X103345937Y-79071452D01*
X103519660Y-79164309D01*
X103671928Y-79289272D01*
X103796891Y-79441540D01*
X103796892Y-79441542D01*
X103889749Y-79615265D01*
X103946930Y-79803766D01*
X103946931Y-79803770D01*
X103966238Y-79999800D01*
X103946931Y-80195830D01*
X103889748Y-80384337D01*
X103796891Y-80558060D01*
X103671928Y-80710328D01*
X103519660Y-80835291D01*
X103519658Y-80835292D01*
X103345935Y-80928149D01*
X103157434Y-80985330D01*
X103157433Y-80985330D01*
X103157430Y-80985331D01*
X103010524Y-80999800D01*
X102912276Y-80999800D01*
X102765370Y-80985331D01*
X102765367Y-80985330D01*
X102765366Y-80985330D01*
X102576865Y-80928149D01*
X102403142Y-80835292D01*
X102403140Y-80835291D01*
X102250872Y-80710328D01*
X102125909Y-80558060D01*
X102033052Y-80384337D01*
X101975869Y-80195830D01*
X101956562Y-79999800D01*
X101975869Y-79803770D01*
X101975870Y-79803766D01*
X102033051Y-79615265D01*
X102125908Y-79441542D01*
X102125909Y-79441540D01*
X102250872Y-79289272D01*
X102403140Y-79164309D01*
X102576863Y-79071452D01*
X102576865Y-79071451D01*
X102765366Y-79014270D01*
X102765367Y-79014270D01*
X102765370Y-79014269D01*
X102912276Y-78999800D01*
X103010524Y-78999800D01*
X103157430Y-79014269D01*
X103157430Y-79014269D01*
G37*
G36*
X95537430Y-79014269D02*
X95537433Y-79014270D01*
X95537434Y-79014270D01*
X95725935Y-79071451D01*
X95725937Y-79071452D01*
X95899660Y-79164309D01*
X96051928Y-79289272D01*
X96176891Y-79441540D01*
X96176892Y-79441542D01*
X96269749Y-79615265D01*
X96326930Y-79803766D01*
X96326931Y-79803770D01*
X96346238Y-79999800D01*
X96326931Y-80195830D01*
X96269748Y-80384337D01*
X96176891Y-80558060D01*
X96051928Y-80710328D01*
X95899660Y-80835291D01*
X95899658Y-80835292D01*
X95725935Y-80928149D01*
X95537434Y-80985330D01*
X95537433Y-80985330D01*
X95537430Y-80985331D01*
X95390524Y-80999800D01*
X95292276Y-80999800D01*
X95145370Y-80985331D01*
X95145367Y-80985330D01*
X95145366Y-80985330D01*
X94956865Y-80928149D01*
X94783142Y-80835292D01*
X94783140Y-80835291D01*
X94630872Y-80710328D01*
X94505909Y-80558060D01*
X94413052Y-80384337D01*
X94355869Y-80195830D01*
X94336562Y-79999800D01*
X94355869Y-79803770D01*
X94355870Y-79803766D01*
X94413051Y-79615265D01*
X94505908Y-79441542D01*
X94505909Y-79441540D01*
X94630872Y-79289272D01*
X94783140Y-79164309D01*
X94956863Y-79071452D01*
X94956865Y-79071451D01*
X95145366Y-79014270D01*
X95145367Y-79014270D01*
X95145370Y-79014269D01*
X95292276Y-78999800D01*
X95390524Y-78999800D01*
X95537430Y-79014269D01*
X95537430Y-79014269D01*
G37*
G36*
X177187628Y-77703093D02*
X177235354Y-77717570D01*
X177279336Y-77741079D01*
X177317885Y-77772715D01*
X177349521Y-77811264D01*
X177373030Y-77855246D01*
X177387507Y-77902972D01*
X177393000Y-77958741D01*
X177393000Y-80486459D01*
X177387507Y-80542228D01*
X177373030Y-80589954D01*
X177349521Y-80633936D01*
X177317885Y-80672485D01*
X177279336Y-80704121D01*
X177235354Y-80727630D01*
X177187628Y-80742107D01*
X177131859Y-80747600D01*
X176004141Y-80747600D01*
X175948372Y-80742107D01*
X175900646Y-80727630D01*
X175856664Y-80704121D01*
X175818115Y-80672485D01*
X175786479Y-80633936D01*
X175762970Y-80589954D01*
X175748493Y-80542228D01*
X175743000Y-80486459D01*
X175743000Y-77958741D01*
X175748493Y-77902972D01*
X175762970Y-77855246D01*
X175786479Y-77811264D01*
X175818115Y-77772715D01*
X175856664Y-77741079D01*
X175900646Y-77717570D01*
X175948372Y-77703093D01*
X176004141Y-77697600D01*
X177131859Y-77697600D01*
X177187628Y-77703093D01*
X177187628Y-77703093D01*
G37*
G36*
X179987628Y-77703093D02*
X180035354Y-77717570D01*
X180079336Y-77741079D01*
X180117885Y-77772715D01*
X180149521Y-77811264D01*
X180173030Y-77855246D01*
X180187507Y-77902972D01*
X180193000Y-77958741D01*
X180193000Y-80486459D01*
X180187507Y-80542228D01*
X180173030Y-80589954D01*
X180149521Y-80633936D01*
X180117885Y-80672485D01*
X180079336Y-80704121D01*
X180035354Y-80727630D01*
X179987628Y-80742107D01*
X179931859Y-80747600D01*
X178804141Y-80747600D01*
X178748372Y-80742107D01*
X178700646Y-80727630D01*
X178656664Y-80704121D01*
X178618115Y-80672485D01*
X178586479Y-80633936D01*
X178562970Y-80589954D01*
X178548493Y-80542228D01*
X178543000Y-80486459D01*
X178543000Y-77958741D01*
X178548493Y-77902972D01*
X178562970Y-77855246D01*
X178586479Y-77811264D01*
X178618115Y-77772715D01*
X178656664Y-77741079D01*
X178700646Y-77717570D01*
X178748372Y-77703093D01*
X178804141Y-77697600D01*
X179931859Y-77697600D01*
X179987628Y-77703093D01*
X179987628Y-77703093D01*
G37*
G36*
X112337343Y-77298974D02*
X112516526Y-77353329D01*
X112516528Y-77353330D01*
X112516531Y-77353331D01*
X112681664Y-77441595D01*
X112826407Y-77560383D01*
X112945195Y-77705126D01*
X113033459Y-77870258D01*
X113033459Y-77870259D01*
X113033461Y-77870263D01*
X113087816Y-78049446D01*
X113096068Y-78133235D01*
X113100395Y-78177159D01*
X113101570Y-78189095D01*
X113101570Y-79280705D01*
X113087816Y-79420354D01*
X113033461Y-79599537D01*
X113033459Y-79599542D01*
X112945195Y-79764674D01*
X112826407Y-79909417D01*
X112681664Y-80028205D01*
X112516532Y-80116469D01*
X112516529Y-80116470D01*
X112516527Y-80116471D01*
X112337344Y-80170826D01*
X112151000Y-80189179D01*
X111964657Y-80170826D01*
X111785474Y-80116471D01*
X111785472Y-80116470D01*
X111785469Y-80116469D01*
X111620337Y-80028205D01*
X111475594Y-79909417D01*
X111356806Y-79764674D01*
X111268539Y-79599537D01*
X111214184Y-79420356D01*
X111200430Y-79280707D01*
X111200430Y-78189094D01*
X111214184Y-78049450D01*
X111214184Y-78049447D01*
X111268539Y-77870264D01*
X111268540Y-77870262D01*
X111268541Y-77870259D01*
X111356805Y-77705126D01*
X111475593Y-77560383D01*
X111620336Y-77441595D01*
X111785468Y-77353331D01*
X111785471Y-77353330D01*
X111785473Y-77353329D01*
X111964656Y-77298974D01*
X112151000Y-77280621D01*
X112337343Y-77298974D01*
X112337343Y-77298974D01*
G37*
G36*
X114877343Y-77298974D02*
X115056526Y-77353329D01*
X115056528Y-77353330D01*
X115056531Y-77353331D01*
X115221664Y-77441595D01*
X115366407Y-77560383D01*
X115485195Y-77705126D01*
X115573459Y-77870258D01*
X115573459Y-77870259D01*
X115573461Y-77870263D01*
X115627816Y-78049446D01*
X115636068Y-78133235D01*
X115640395Y-78177159D01*
X115641570Y-78189095D01*
X115641570Y-79280705D01*
X115627816Y-79420354D01*
X115573461Y-79599537D01*
X115573459Y-79599542D01*
X115485195Y-79764674D01*
X115366407Y-79909417D01*
X115221664Y-80028205D01*
X115056532Y-80116469D01*
X115056529Y-80116470D01*
X115056527Y-80116471D01*
X114877344Y-80170826D01*
X114691000Y-80189179D01*
X114504657Y-80170826D01*
X114325474Y-80116471D01*
X114325472Y-80116470D01*
X114325469Y-80116469D01*
X114160337Y-80028205D01*
X114015594Y-79909417D01*
X113896806Y-79764674D01*
X113808539Y-79599537D01*
X113754184Y-79420356D01*
X113740430Y-79280707D01*
X113740430Y-78189094D01*
X113754184Y-78049450D01*
X113754184Y-78049447D01*
X113808539Y-77870264D01*
X113808540Y-77870262D01*
X113808541Y-77870259D01*
X113896805Y-77705126D01*
X114015593Y-77560383D01*
X114160336Y-77441595D01*
X114325468Y-77353331D01*
X114325471Y-77353330D01*
X114325473Y-77353329D01*
X114504656Y-77298974D01*
X114691000Y-77280621D01*
X114877343Y-77298974D01*
X114877343Y-77298974D01*
G37*
G36*
X117417343Y-77298974D02*
X117596526Y-77353329D01*
X117596528Y-77353330D01*
X117596531Y-77353331D01*
X117761664Y-77441595D01*
X117906407Y-77560383D01*
X118025195Y-77705126D01*
X118113459Y-77870258D01*
X118113459Y-77870259D01*
X118113461Y-77870263D01*
X118167816Y-78049446D01*
X118176068Y-78133235D01*
X118180395Y-78177159D01*
X118181570Y-78189095D01*
X118181570Y-79280705D01*
X118167816Y-79420354D01*
X118113461Y-79599537D01*
X118113459Y-79599542D01*
X118025195Y-79764674D01*
X117906407Y-79909417D01*
X117761664Y-80028205D01*
X117596532Y-80116469D01*
X117596529Y-80116470D01*
X117596527Y-80116471D01*
X117417344Y-80170826D01*
X117231000Y-80189179D01*
X117044657Y-80170826D01*
X116865474Y-80116471D01*
X116865472Y-80116470D01*
X116865469Y-80116469D01*
X116700337Y-80028205D01*
X116555594Y-79909417D01*
X116436806Y-79764674D01*
X116348539Y-79599537D01*
X116294184Y-79420356D01*
X116280430Y-79280707D01*
X116280430Y-78189094D01*
X116294184Y-78049450D01*
X116294184Y-78049447D01*
X116348539Y-77870264D01*
X116348540Y-77870262D01*
X116348541Y-77870259D01*
X116436805Y-77705126D01*
X116555593Y-77560383D01*
X116700336Y-77441595D01*
X116865468Y-77353331D01*
X116865471Y-77353330D01*
X116865473Y-77353329D01*
X117044656Y-77298974D01*
X117231000Y-77280621D01*
X117417343Y-77298974D01*
X117417343Y-77298974D01*
G37*
G36*
X186119000Y-79566500D02*
X184019000Y-79566500D01*
X184019000Y-77466500D01*
X186119000Y-77466500D01*
X186119000Y-79566500D01*
X186119000Y-79566500D01*
G37*
G36*
X103157430Y-76474269D02*
X103157433Y-76474270D01*
X103157434Y-76474270D01*
X103345935Y-76531451D01*
X103345937Y-76531452D01*
X103519660Y-76624309D01*
X103671928Y-76749272D01*
X103796891Y-76901540D01*
X103889748Y-77075263D01*
X103946931Y-77263770D01*
X103966238Y-77459800D01*
X103946931Y-77655830D01*
X103946930Y-77655833D01*
X103946930Y-77655834D01*
X103904941Y-77794255D01*
X103889748Y-77844337D01*
X103796891Y-78018060D01*
X103671928Y-78170328D01*
X103519660Y-78295291D01*
X103346532Y-78387830D01*
X103345935Y-78388149D01*
X103157434Y-78445330D01*
X103157433Y-78445330D01*
X103157430Y-78445331D01*
X103010524Y-78459800D01*
X102912276Y-78459800D01*
X102765370Y-78445331D01*
X102765367Y-78445330D01*
X102765366Y-78445330D01*
X102576865Y-78388149D01*
X102576268Y-78387830D01*
X102403140Y-78295291D01*
X102250872Y-78170328D01*
X102125909Y-78018060D01*
X102033052Y-77844337D01*
X102017860Y-77794255D01*
X101975870Y-77655834D01*
X101975870Y-77655833D01*
X101975869Y-77655830D01*
X101956562Y-77459800D01*
X101975869Y-77263770D01*
X102033052Y-77075263D01*
X102125909Y-76901540D01*
X102250872Y-76749272D01*
X102403140Y-76624309D01*
X102576863Y-76531452D01*
X102576865Y-76531451D01*
X102765366Y-76474270D01*
X102765367Y-76474270D01*
X102765370Y-76474269D01*
X102912276Y-76459800D01*
X103010524Y-76459800D01*
X103157430Y-76474269D01*
X103157430Y-76474269D01*
G37*
G36*
X95537430Y-76474269D02*
X95537433Y-76474270D01*
X95537434Y-76474270D01*
X95725935Y-76531451D01*
X95725937Y-76531452D01*
X95899660Y-76624309D01*
X96051928Y-76749272D01*
X96176891Y-76901540D01*
X96269748Y-77075263D01*
X96326931Y-77263770D01*
X96346238Y-77459800D01*
X96326931Y-77655830D01*
X96326930Y-77655833D01*
X96326930Y-77655834D01*
X96284941Y-77794255D01*
X96269748Y-77844337D01*
X96176891Y-78018060D01*
X96051928Y-78170328D01*
X95899660Y-78295291D01*
X95726532Y-78387830D01*
X95725935Y-78388149D01*
X95537434Y-78445330D01*
X95537433Y-78445330D01*
X95537430Y-78445331D01*
X95390524Y-78459800D01*
X95292276Y-78459800D01*
X95145370Y-78445331D01*
X95145367Y-78445330D01*
X95145366Y-78445330D01*
X94956865Y-78388149D01*
X94956268Y-78387830D01*
X94783140Y-78295291D01*
X94630872Y-78170328D01*
X94505909Y-78018060D01*
X94413052Y-77844337D01*
X94397860Y-77794255D01*
X94355870Y-77655834D01*
X94355870Y-77655833D01*
X94355869Y-77655830D01*
X94336562Y-77459800D01*
X94355869Y-77263770D01*
X94413052Y-77075263D01*
X94505909Y-76901540D01*
X94630872Y-76749272D01*
X94783140Y-76624309D01*
X94956863Y-76531452D01*
X94956865Y-76531451D01*
X95145366Y-76474270D01*
X95145367Y-76474270D01*
X95145370Y-76474269D01*
X95292276Y-76459800D01*
X95390524Y-76459800D01*
X95537430Y-76474269D01*
X95537430Y-76474269D01*
G37*
G36*
X143276628Y-76293793D02*
X143324354Y-76308270D01*
X143368336Y-76331779D01*
X143406885Y-76363415D01*
X143438521Y-76401964D01*
X143462030Y-76445946D01*
X143476507Y-76493672D01*
X143482000Y-76549441D01*
X143482000Y-78177159D01*
X143476507Y-78232928D01*
X143462030Y-78280654D01*
X143438521Y-78324636D01*
X143406885Y-78363185D01*
X143368336Y-78394821D01*
X143324354Y-78418330D01*
X143276628Y-78432807D01*
X143220859Y-78438300D01*
X142093141Y-78438300D01*
X142037372Y-78432807D01*
X141989646Y-78418330D01*
X141945664Y-78394821D01*
X141907115Y-78363185D01*
X141875479Y-78324636D01*
X141851970Y-78280654D01*
X141837493Y-78232928D01*
X141832000Y-78177159D01*
X141832000Y-76549441D01*
X141837493Y-76493672D01*
X141851970Y-76445946D01*
X141875479Y-76401964D01*
X141907115Y-76363415D01*
X141945664Y-76331779D01*
X141989646Y-76308270D01*
X142037372Y-76293793D01*
X142093141Y-76288300D01*
X143220859Y-76288300D01*
X143276628Y-76293793D01*
X143276628Y-76293793D01*
G37*
G36*
X140476628Y-76293793D02*
X140524354Y-76308270D01*
X140568336Y-76331779D01*
X140606885Y-76363415D01*
X140638521Y-76401964D01*
X140662030Y-76445946D01*
X140676507Y-76493672D01*
X140682000Y-76549441D01*
X140682000Y-78177159D01*
X140676507Y-78232928D01*
X140662030Y-78280654D01*
X140638521Y-78324636D01*
X140606885Y-78363185D01*
X140568336Y-78394821D01*
X140524354Y-78418330D01*
X140476628Y-78432807D01*
X140420859Y-78438300D01*
X139293141Y-78438300D01*
X139237372Y-78432807D01*
X139189646Y-78418330D01*
X139145664Y-78394821D01*
X139107115Y-78363185D01*
X139075479Y-78324636D01*
X139051970Y-78280654D01*
X139037493Y-78232928D01*
X139032000Y-78177159D01*
X139032000Y-76549441D01*
X139037493Y-76493672D01*
X139051970Y-76445946D01*
X139075479Y-76401964D01*
X139107115Y-76363415D01*
X139145664Y-76331779D01*
X139189646Y-76308270D01*
X139237372Y-76293793D01*
X139293141Y-76288300D01*
X140420859Y-76288300D01*
X140476628Y-76293793D01*
X140476628Y-76293793D01*
G37*
G36*
X134548628Y-76263293D02*
X134596354Y-76277770D01*
X134640336Y-76301279D01*
X134678885Y-76332915D01*
X134710521Y-76371464D01*
X134734030Y-76415446D01*
X134748507Y-76463172D01*
X134754000Y-76518941D01*
X134754000Y-78146659D01*
X134748507Y-78202428D01*
X134734030Y-78250154D01*
X134710521Y-78294136D01*
X134678885Y-78332685D01*
X134640336Y-78364321D01*
X134596354Y-78387830D01*
X134548628Y-78402307D01*
X134492859Y-78407800D01*
X133365141Y-78407800D01*
X133309372Y-78402307D01*
X133261646Y-78387830D01*
X133217664Y-78364321D01*
X133179115Y-78332685D01*
X133147479Y-78294136D01*
X133123970Y-78250154D01*
X133109493Y-78202428D01*
X133104000Y-78146659D01*
X133104000Y-76518941D01*
X133109493Y-76463172D01*
X133123970Y-76415446D01*
X133147479Y-76371464D01*
X133179115Y-76332915D01*
X133217664Y-76301279D01*
X133261646Y-76277770D01*
X133309372Y-76263293D01*
X133365141Y-76257800D01*
X134492859Y-76257800D01*
X134548628Y-76263293D01*
X134548628Y-76263293D01*
G37*
G36*
X131748628Y-76263293D02*
X131796354Y-76277770D01*
X131840336Y-76301279D01*
X131878885Y-76332915D01*
X131910521Y-76371464D01*
X131934030Y-76415446D01*
X131948507Y-76463172D01*
X131954000Y-76518941D01*
X131954000Y-78146659D01*
X131948507Y-78202428D01*
X131934030Y-78250154D01*
X131910521Y-78294136D01*
X131878885Y-78332685D01*
X131840336Y-78364321D01*
X131796354Y-78387830D01*
X131748628Y-78402307D01*
X131692859Y-78407800D01*
X130565141Y-78407800D01*
X130509372Y-78402307D01*
X130461646Y-78387830D01*
X130417664Y-78364321D01*
X130379115Y-78332685D01*
X130347479Y-78294136D01*
X130323970Y-78250154D01*
X130309493Y-78202428D01*
X130304000Y-78146659D01*
X130304000Y-76518941D01*
X130309493Y-76463172D01*
X130323970Y-76415446D01*
X130347479Y-76371464D01*
X130379115Y-76332915D01*
X130417664Y-76301279D01*
X130461646Y-76277770D01*
X130509372Y-76263293D01*
X130565141Y-76257800D01*
X131692859Y-76257800D01*
X131748628Y-76263293D01*
X131748628Y-76263293D01*
G37*
G36*
X172299002Y-72131570D02*
X172349437Y-72146869D01*
X172395913Y-72171712D01*
X172436654Y-72205146D01*
X172470088Y-72245887D01*
X172494931Y-72292363D01*
X172510230Y-72342798D01*
X172516000Y-72401384D01*
X172516000Y-75650216D01*
X172510230Y-75708802D01*
X172494931Y-75759237D01*
X172470088Y-75805713D01*
X172436654Y-75846454D01*
X172395913Y-75879888D01*
X172349437Y-75904731D01*
X172299002Y-75920030D01*
X172240416Y-75925800D01*
X171266584Y-75925800D01*
X171207998Y-75920030D01*
X171157563Y-75904731D01*
X171111087Y-75879888D01*
X171070346Y-75846454D01*
X171036912Y-75805713D01*
X171012069Y-75759237D01*
X170996770Y-75708802D01*
X170991000Y-75650216D01*
X170991000Y-72401384D01*
X170996770Y-72342798D01*
X171012069Y-72292363D01*
X171036912Y-72245887D01*
X171070346Y-72205146D01*
X171111087Y-72171712D01*
X171157563Y-72146869D01*
X171207998Y-72131570D01*
X171266584Y-72125800D01*
X172240416Y-72125800D01*
X172299002Y-72131570D01*
X172299002Y-72131570D01*
G37*
G36*
X168024002Y-72131570D02*
X168074437Y-72146869D01*
X168120913Y-72171712D01*
X168161654Y-72205146D01*
X168195088Y-72245887D01*
X168219931Y-72292363D01*
X168235230Y-72342798D01*
X168241000Y-72401384D01*
X168241000Y-75650216D01*
X168235230Y-75708802D01*
X168219931Y-75759237D01*
X168195088Y-75805713D01*
X168161654Y-75846454D01*
X168120913Y-75879888D01*
X168074437Y-75904731D01*
X168024002Y-75920030D01*
X167965416Y-75925800D01*
X166991584Y-75925800D01*
X166932998Y-75920030D01*
X166882563Y-75904731D01*
X166836087Y-75879888D01*
X166795346Y-75846454D01*
X166761912Y-75805713D01*
X166737069Y-75759237D01*
X166721770Y-75708802D01*
X166716000Y-75650216D01*
X166716000Y-72401384D01*
X166721770Y-72342798D01*
X166737069Y-72292363D01*
X166761912Y-72245887D01*
X166795346Y-72205146D01*
X166836087Y-72171712D01*
X166882563Y-72146869D01*
X166932998Y-72131570D01*
X166991584Y-72125800D01*
X167965416Y-72125800D01*
X168024002Y-72131570D01*
X168024002Y-72131570D01*
G37*
G36*
X96341400Y-75919800D02*
X94341400Y-75919800D01*
X94341400Y-73919800D01*
X96341400Y-73919800D01*
X96341400Y-75919800D01*
X96341400Y-75919800D01*
G37*
G36*
X103157430Y-73934269D02*
X103157433Y-73934270D01*
X103157434Y-73934270D01*
X103345935Y-73991451D01*
X103345937Y-73991452D01*
X103519660Y-74084309D01*
X103671928Y-74209272D01*
X103796891Y-74361540D01*
X103889748Y-74535263D01*
X103946931Y-74723770D01*
X103966238Y-74919800D01*
X103946931Y-75115830D01*
X103946930Y-75115833D01*
X103946930Y-75115834D01*
X103890432Y-75302085D01*
X103889748Y-75304337D01*
X103796891Y-75478060D01*
X103671928Y-75630328D01*
X103519660Y-75755291D01*
X103482435Y-75775188D01*
X103345935Y-75848149D01*
X103157434Y-75905330D01*
X103157433Y-75905330D01*
X103157430Y-75905331D01*
X103010524Y-75919800D01*
X102912276Y-75919800D01*
X102765370Y-75905331D01*
X102765367Y-75905330D01*
X102765366Y-75905330D01*
X102576865Y-75848149D01*
X102440365Y-75775188D01*
X102403140Y-75755291D01*
X102250872Y-75630328D01*
X102125909Y-75478060D01*
X102033052Y-75304337D01*
X102032369Y-75302085D01*
X101975870Y-75115834D01*
X101975870Y-75115833D01*
X101975869Y-75115830D01*
X101956562Y-74919800D01*
X101975869Y-74723770D01*
X102033052Y-74535263D01*
X102125909Y-74361540D01*
X102250872Y-74209272D01*
X102403140Y-74084309D01*
X102576863Y-73991452D01*
X102576865Y-73991451D01*
X102765366Y-73934270D01*
X102765367Y-73934270D01*
X102765370Y-73934269D01*
X102912276Y-73919800D01*
X103010524Y-73919800D01*
X103157430Y-73934269D01*
X103157430Y-73934269D01*
G37*
G36*
X163683000Y-75671400D02*
X162483000Y-75671400D01*
X162483000Y-74371400D01*
X163683000Y-74371400D01*
X163683000Y-75671400D01*
X163683000Y-75671400D01*
G37*
G36*
X161783000Y-75671400D02*
X160583000Y-75671400D01*
X160583000Y-74371400D01*
X161783000Y-74371400D01*
X161783000Y-75671400D01*
X161783000Y-75671400D01*
G37*
G36*
X177220628Y-72313193D02*
X177268354Y-72327670D01*
X177312336Y-72351179D01*
X177350885Y-72382815D01*
X177382521Y-72421364D01*
X177406030Y-72465346D01*
X177420507Y-72513072D01*
X177426000Y-72568841D01*
X177426000Y-75096559D01*
X177420507Y-75152328D01*
X177406030Y-75200054D01*
X177382521Y-75244036D01*
X177350885Y-75282585D01*
X177312336Y-75314221D01*
X177268354Y-75337730D01*
X177220628Y-75352207D01*
X177164859Y-75357700D01*
X176037141Y-75357700D01*
X175981372Y-75352207D01*
X175933646Y-75337730D01*
X175889664Y-75314221D01*
X175851115Y-75282585D01*
X175819479Y-75244036D01*
X175795970Y-75200054D01*
X175781493Y-75152328D01*
X175776000Y-75096559D01*
X175776000Y-72568841D01*
X175781493Y-72513072D01*
X175795970Y-72465346D01*
X175819479Y-72421364D01*
X175851115Y-72382815D01*
X175889664Y-72351179D01*
X175933646Y-72327670D01*
X175981372Y-72313193D01*
X176037141Y-72307700D01*
X177164859Y-72307700D01*
X177220628Y-72313193D01*
X177220628Y-72313193D01*
G37*
G36*
X180020628Y-72313193D02*
X180068354Y-72327670D01*
X180112336Y-72351179D01*
X180150885Y-72382815D01*
X180182521Y-72421364D01*
X180206030Y-72465346D01*
X180220507Y-72513072D01*
X180226000Y-72568841D01*
X180226000Y-75096559D01*
X180220507Y-75152328D01*
X180206030Y-75200054D01*
X180182521Y-75244036D01*
X180150885Y-75282585D01*
X180112336Y-75314221D01*
X180068354Y-75337730D01*
X180020628Y-75352207D01*
X179964859Y-75357700D01*
X178837141Y-75357700D01*
X178781372Y-75352207D01*
X178733646Y-75337730D01*
X178689664Y-75314221D01*
X178651115Y-75282585D01*
X178619479Y-75244036D01*
X178595970Y-75200054D01*
X178581493Y-75152328D01*
X178576000Y-75096559D01*
X178576000Y-72568841D01*
X178581493Y-72513072D01*
X178595970Y-72465346D01*
X178619479Y-72421364D01*
X178651115Y-72382815D01*
X178689664Y-72351179D01*
X178733646Y-72327670D01*
X178781372Y-72313193D01*
X178837141Y-72307700D01*
X179964859Y-72307700D01*
X180020628Y-72313193D01*
X180020628Y-72313193D01*
G37*
G36*
X157873000Y-75041800D02*
X151773000Y-75041800D01*
X151773000Y-71241800D01*
X157873000Y-71241800D01*
X157873000Y-75041800D01*
X157873000Y-75041800D01*
G37*
G36*
X162733000Y-73671400D02*
X161533000Y-73671400D01*
X161533000Y-72371400D01*
X162733000Y-72371400D01*
X162733000Y-73671400D01*
X162733000Y-73671400D01*
G37*
G36*
X143459000Y-71976000D02*
X141309000Y-71976000D01*
X141309000Y-71026000D01*
X143459000Y-71026000D01*
X143459000Y-71976000D01*
X143459000Y-71976000D01*
G37*
G36*
X136059000Y-71976000D02*
X133909000Y-71976000D01*
X133909000Y-71026000D01*
X136059000Y-71026000D01*
X136059000Y-71976000D01*
X136059000Y-71976000D01*
G37*
G36*
X147656628Y-70281093D02*
X147704354Y-70295570D01*
X147748336Y-70319079D01*
X147786885Y-70350715D01*
X147818521Y-70389264D01*
X147842030Y-70433246D01*
X147856507Y-70480972D01*
X147862000Y-70536741D01*
X147862000Y-71664459D01*
X147856507Y-71720228D01*
X147842030Y-71767954D01*
X147818521Y-71811936D01*
X147786885Y-71850485D01*
X147748336Y-71882121D01*
X147704354Y-71905630D01*
X147656628Y-71920107D01*
X147600859Y-71925600D01*
X145973141Y-71925600D01*
X145917372Y-71920107D01*
X145869646Y-71905630D01*
X145825664Y-71882121D01*
X145787115Y-71850485D01*
X145755479Y-71811936D01*
X145731970Y-71767954D01*
X145717493Y-71720228D01*
X145712000Y-71664459D01*
X145712000Y-70536741D01*
X145717493Y-70480972D01*
X145731970Y-70433246D01*
X145755479Y-70389264D01*
X145787115Y-70350715D01*
X145825664Y-70319079D01*
X145869646Y-70295570D01*
X145917372Y-70281093D01*
X145973141Y-70275600D01*
X147600859Y-70275600D01*
X147656628Y-70281093D01*
X147656628Y-70281093D01*
G37*
G36*
X118114628Y-69593293D02*
X118162354Y-69607770D01*
X118206336Y-69631279D01*
X118244885Y-69662915D01*
X118276521Y-69701464D01*
X118300030Y-69745446D01*
X118314507Y-69793172D01*
X118320000Y-69848941D01*
X118320000Y-71476659D01*
X118314507Y-71532428D01*
X118300030Y-71580154D01*
X118276521Y-71624136D01*
X118244885Y-71662685D01*
X118206336Y-71694321D01*
X118162354Y-71717830D01*
X118114628Y-71732307D01*
X118058859Y-71737800D01*
X116931141Y-71737800D01*
X116875372Y-71732307D01*
X116827646Y-71717830D01*
X116783664Y-71694321D01*
X116745115Y-71662685D01*
X116713479Y-71624136D01*
X116689970Y-71580154D01*
X116675493Y-71532428D01*
X116670000Y-71476659D01*
X116670000Y-69848941D01*
X116675493Y-69793172D01*
X116689970Y-69745446D01*
X116713479Y-69701464D01*
X116745115Y-69662915D01*
X116783664Y-69631279D01*
X116827646Y-69607770D01*
X116875372Y-69593293D01*
X116931141Y-69587800D01*
X118058859Y-69587800D01*
X118114628Y-69593293D01*
X118114628Y-69593293D01*
G37*
G36*
X127198628Y-69593293D02*
X127246354Y-69607770D01*
X127290336Y-69631279D01*
X127328885Y-69662915D01*
X127360521Y-69701464D01*
X127384030Y-69745446D01*
X127398507Y-69793172D01*
X127404000Y-69848941D01*
X127404000Y-71476659D01*
X127398507Y-71532428D01*
X127384030Y-71580154D01*
X127360521Y-71624136D01*
X127328885Y-71662685D01*
X127290336Y-71694321D01*
X127246354Y-71717830D01*
X127198628Y-71732307D01*
X127142859Y-71737800D01*
X126015141Y-71737800D01*
X125959372Y-71732307D01*
X125911646Y-71717830D01*
X125867664Y-71694321D01*
X125829115Y-71662685D01*
X125797479Y-71624136D01*
X125773970Y-71580154D01*
X125759493Y-71532428D01*
X125754000Y-71476659D01*
X125754000Y-69848941D01*
X125759493Y-69793172D01*
X125773970Y-69745446D01*
X125797479Y-69701464D01*
X125829115Y-69662915D01*
X125867664Y-69631279D01*
X125911646Y-69607770D01*
X125959372Y-69593293D01*
X126015141Y-69587800D01*
X127142859Y-69587800D01*
X127198628Y-69593293D01*
X127198628Y-69593293D01*
G37*
G36*
X124398628Y-69593293D02*
X124446354Y-69607770D01*
X124490336Y-69631279D01*
X124528885Y-69662915D01*
X124560521Y-69701464D01*
X124584030Y-69745446D01*
X124598507Y-69793172D01*
X124604000Y-69848941D01*
X124604000Y-71476659D01*
X124598507Y-71532428D01*
X124584030Y-71580154D01*
X124560521Y-71624136D01*
X124528885Y-71662685D01*
X124490336Y-71694321D01*
X124446354Y-71717830D01*
X124398628Y-71732307D01*
X124342859Y-71737800D01*
X123215141Y-71737800D01*
X123159372Y-71732307D01*
X123111646Y-71717830D01*
X123067664Y-71694321D01*
X123029115Y-71662685D01*
X122997479Y-71624136D01*
X122973970Y-71580154D01*
X122959493Y-71532428D01*
X122954000Y-71476659D01*
X122954000Y-69848941D01*
X122959493Y-69793172D01*
X122973970Y-69745446D01*
X122997479Y-69701464D01*
X123029115Y-69662915D01*
X123067664Y-69631279D01*
X123111646Y-69607770D01*
X123159372Y-69593293D01*
X123215141Y-69587800D01*
X124342859Y-69587800D01*
X124398628Y-69593293D01*
X124398628Y-69593293D01*
G37*
G36*
X120914628Y-69593293D02*
X120962354Y-69607770D01*
X121006336Y-69631279D01*
X121044885Y-69662915D01*
X121076521Y-69701464D01*
X121100030Y-69745446D01*
X121114507Y-69793172D01*
X121120000Y-69848941D01*
X121120000Y-71476659D01*
X121114507Y-71532428D01*
X121100030Y-71580154D01*
X121076521Y-71624136D01*
X121044885Y-71662685D01*
X121006336Y-71694321D01*
X120962354Y-71717830D01*
X120914628Y-71732307D01*
X120858859Y-71737800D01*
X119731141Y-71737800D01*
X119675372Y-71732307D01*
X119627646Y-71717830D01*
X119583664Y-71694321D01*
X119545115Y-71662685D01*
X119513479Y-71624136D01*
X119489970Y-71580154D01*
X119475493Y-71532428D01*
X119470000Y-71476659D01*
X119470000Y-69848941D01*
X119475493Y-69793172D01*
X119489970Y-69745446D01*
X119513479Y-69701464D01*
X119545115Y-69662915D01*
X119583664Y-69631279D01*
X119627646Y-69607770D01*
X119675372Y-69593293D01*
X119731141Y-69587800D01*
X120858859Y-69587800D01*
X120914628Y-69593293D01*
X120914628Y-69593293D01*
G37*
G36*
X143459000Y-70706000D02*
X141309000Y-70706000D01*
X141309000Y-69756000D01*
X143459000Y-69756000D01*
X143459000Y-70706000D01*
X143459000Y-70706000D01*
G37*
G36*
X136059000Y-70706000D02*
X133909000Y-70706000D01*
X133909000Y-69756000D01*
X136059000Y-69756000D01*
X136059000Y-70706000D01*
X136059000Y-70706000D01*
G37*
G36*
X158030000Y-69712900D02*
X151930000Y-69712900D01*
X151930000Y-65912900D01*
X158030000Y-65912900D01*
X158030000Y-69712900D01*
X158030000Y-69712900D01*
G37*
G36*
X136059000Y-69436000D02*
X133909000Y-69436000D01*
X133909000Y-68486000D01*
X136059000Y-68486000D01*
X136059000Y-69436000D01*
X136059000Y-69436000D01*
G37*
G36*
X143459000Y-69436000D02*
X141309000Y-69436000D01*
X141309000Y-68486000D01*
X143459000Y-68486000D01*
X143459000Y-69436000D01*
X143459000Y-69436000D01*
G37*
G36*
X147656628Y-67481093D02*
X147704354Y-67495570D01*
X147748336Y-67519079D01*
X147786885Y-67550715D01*
X147818521Y-67589264D01*
X147842030Y-67633246D01*
X147856507Y-67680972D01*
X147862000Y-67736741D01*
X147862000Y-68864459D01*
X147856507Y-68920228D01*
X147842030Y-68967954D01*
X147818521Y-69011936D01*
X147786885Y-69050485D01*
X147748336Y-69082121D01*
X147704354Y-69105630D01*
X147656628Y-69120107D01*
X147600859Y-69125600D01*
X145973141Y-69125600D01*
X145917372Y-69120107D01*
X145869646Y-69105630D01*
X145825664Y-69082121D01*
X145787115Y-69050485D01*
X145755479Y-69011936D01*
X145731970Y-68967954D01*
X145717493Y-68920228D01*
X145712000Y-68864459D01*
X145712000Y-67736741D01*
X145717493Y-67680972D01*
X145731970Y-67633246D01*
X145755479Y-67589264D01*
X145787115Y-67550715D01*
X145825664Y-67519079D01*
X145869646Y-67495570D01*
X145917372Y-67481093D01*
X145973141Y-67475600D01*
X147600859Y-67475600D01*
X147656628Y-67481093D01*
X147656628Y-67481093D01*
G37*
G36*
X143459000Y-68166000D02*
X141309000Y-68166000D01*
X141309000Y-67216000D01*
X143459000Y-67216000D01*
X143459000Y-68166000D01*
X143459000Y-68166000D01*
G37*
G36*
X136059000Y-68166000D02*
X133909000Y-68166000D01*
X133909000Y-67216000D01*
X136059000Y-67216000D01*
X136059000Y-68166000D01*
X136059000Y-68166000D01*
G37*
G36*
X185232628Y-64889193D02*
X185280354Y-64903670D01*
X185324336Y-64927179D01*
X185362885Y-64958815D01*
X185394521Y-64997364D01*
X185418030Y-65041346D01*
X185432507Y-65089072D01*
X185438000Y-65144841D01*
X185438000Y-66772559D01*
X185432507Y-66828328D01*
X185418030Y-66876054D01*
X185394521Y-66920036D01*
X185362885Y-66958585D01*
X185324336Y-66990221D01*
X185280354Y-67013730D01*
X185232628Y-67028207D01*
X185176859Y-67033700D01*
X184049141Y-67033700D01*
X183993372Y-67028207D01*
X183945646Y-67013730D01*
X183901664Y-66990221D01*
X183863115Y-66958585D01*
X183831479Y-66920036D01*
X183807970Y-66876054D01*
X183793493Y-66828328D01*
X183788000Y-66772559D01*
X183788000Y-65144841D01*
X183793493Y-65089072D01*
X183807970Y-65041346D01*
X183831479Y-64997364D01*
X183863115Y-64958815D01*
X183901664Y-64927179D01*
X183945646Y-64903670D01*
X183993372Y-64889193D01*
X184049141Y-64883700D01*
X185176859Y-64883700D01*
X185232628Y-64889193D01*
X185232628Y-64889193D01*
G37*
G36*
X182432628Y-64889193D02*
X182480354Y-64903670D01*
X182524336Y-64927179D01*
X182562885Y-64958815D01*
X182594521Y-64997364D01*
X182618030Y-65041346D01*
X182632507Y-65089072D01*
X182638000Y-65144841D01*
X182638000Y-66772559D01*
X182632507Y-66828328D01*
X182618030Y-66876054D01*
X182594521Y-66920036D01*
X182562885Y-66958585D01*
X182524336Y-66990221D01*
X182480354Y-67013730D01*
X182432628Y-67028207D01*
X182376859Y-67033700D01*
X181249141Y-67033700D01*
X181193372Y-67028207D01*
X181145646Y-67013730D01*
X181101664Y-66990221D01*
X181063115Y-66958585D01*
X181031479Y-66920036D01*
X181007970Y-66876054D01*
X180993493Y-66828328D01*
X180988000Y-66772559D01*
X180988000Y-65144841D01*
X180993493Y-65089072D01*
X181007970Y-65041346D01*
X181031479Y-64997364D01*
X181063115Y-64958815D01*
X181101664Y-64927179D01*
X181145646Y-64903670D01*
X181193372Y-64889193D01*
X181249141Y-64883700D01*
X182376859Y-64883700D01*
X182432628Y-64889193D01*
X182432628Y-64889193D01*
G37*
G36*
X99024328Y-64198293D02*
X99072054Y-64212770D01*
X99116036Y-64236279D01*
X99154585Y-64267915D01*
X99186221Y-64306464D01*
X99209730Y-64350446D01*
X99224207Y-64398172D01*
X99229700Y-64453941D01*
X99229700Y-66081659D01*
X99224207Y-66137428D01*
X99209730Y-66185154D01*
X99186221Y-66229136D01*
X99154585Y-66267685D01*
X99116036Y-66299321D01*
X99072054Y-66322830D01*
X99024328Y-66337307D01*
X98968559Y-66342800D01*
X97840841Y-66342800D01*
X97785072Y-66337307D01*
X97737346Y-66322830D01*
X97693364Y-66299321D01*
X97654815Y-66267685D01*
X97623179Y-66229136D01*
X97599670Y-66185154D01*
X97585193Y-66137428D01*
X97579700Y-66081659D01*
X97579700Y-64453941D01*
X97585193Y-64398172D01*
X97599670Y-64350446D01*
X97623179Y-64306464D01*
X97654815Y-64267915D01*
X97693364Y-64236279D01*
X97737346Y-64212770D01*
X97785072Y-64198293D01*
X97840841Y-64192800D01*
X98968559Y-64192800D01*
X99024328Y-64198293D01*
X99024328Y-64198293D01*
G37*
G36*
X96224328Y-64198293D02*
X96272054Y-64212770D01*
X96316036Y-64236279D01*
X96354585Y-64267915D01*
X96386221Y-64306464D01*
X96409730Y-64350446D01*
X96424207Y-64398172D01*
X96429700Y-64453941D01*
X96429700Y-66081659D01*
X96424207Y-66137428D01*
X96409730Y-66185154D01*
X96386221Y-66229136D01*
X96354585Y-66267685D01*
X96316036Y-66299321D01*
X96272054Y-66322830D01*
X96224328Y-66337307D01*
X96168559Y-66342800D01*
X95040841Y-66342800D01*
X94985072Y-66337307D01*
X94937346Y-66322830D01*
X94893364Y-66299321D01*
X94854815Y-66267685D01*
X94823179Y-66229136D01*
X94799670Y-66185154D01*
X94785193Y-66137428D01*
X94779700Y-66081659D01*
X94779700Y-64453941D01*
X94785193Y-64398172D01*
X94799670Y-64350446D01*
X94823179Y-64306464D01*
X94854815Y-64267915D01*
X94893364Y-64236279D01*
X94937346Y-64212770D01*
X94985072Y-64198293D01*
X95040841Y-64192800D01*
X96168559Y-64192800D01*
X96224328Y-64198293D01*
X96224328Y-64198293D01*
G37*
G36*
X102231628Y-64167893D02*
X102279354Y-64182370D01*
X102323336Y-64205879D01*
X102361885Y-64237515D01*
X102393521Y-64276064D01*
X102417030Y-64320046D01*
X102431507Y-64367772D01*
X102437000Y-64423541D01*
X102437000Y-66051259D01*
X102431507Y-66107028D01*
X102417030Y-66154754D01*
X102393521Y-66198736D01*
X102361885Y-66237285D01*
X102323336Y-66268921D01*
X102279354Y-66292430D01*
X102231628Y-66306907D01*
X102175859Y-66312400D01*
X101048141Y-66312400D01*
X100992372Y-66306907D01*
X100944646Y-66292430D01*
X100900664Y-66268921D01*
X100862115Y-66237285D01*
X100830479Y-66198736D01*
X100806970Y-66154754D01*
X100792493Y-66107028D01*
X100787000Y-66051259D01*
X100787000Y-64423541D01*
X100792493Y-64367772D01*
X100806970Y-64320046D01*
X100830479Y-64276064D01*
X100862115Y-64237515D01*
X100900664Y-64205879D01*
X100944646Y-64182370D01*
X100992372Y-64167893D01*
X101048141Y-64162400D01*
X102175859Y-64162400D01*
X102231628Y-64167893D01*
X102231628Y-64167893D01*
G37*
G36*
X105031628Y-64167893D02*
X105079354Y-64182370D01*
X105123336Y-64205879D01*
X105161885Y-64237515D01*
X105193521Y-64276064D01*
X105217030Y-64320046D01*
X105231507Y-64367772D01*
X105237000Y-64423541D01*
X105237000Y-66051259D01*
X105231507Y-66107028D01*
X105217030Y-66154754D01*
X105193521Y-66198736D01*
X105161885Y-66237285D01*
X105123336Y-66268921D01*
X105079354Y-66292430D01*
X105031628Y-66306907D01*
X104975859Y-66312400D01*
X103848141Y-66312400D01*
X103792372Y-66306907D01*
X103744646Y-66292430D01*
X103700664Y-66268921D01*
X103662115Y-66237285D01*
X103630479Y-66198736D01*
X103606970Y-66154754D01*
X103592493Y-66107028D01*
X103587000Y-66051259D01*
X103587000Y-64423541D01*
X103592493Y-64367772D01*
X103606970Y-64320046D01*
X103630479Y-64276064D01*
X103662115Y-64237515D01*
X103700664Y-64205879D01*
X103744646Y-64182370D01*
X103792372Y-64167893D01*
X103848141Y-64162400D01*
X104975859Y-64162400D01*
X105031628Y-64167893D01*
X105031628Y-64167893D01*
G37*
G36*
X122478002Y-62240770D02*
X122528437Y-62256069D01*
X122574913Y-62280912D01*
X122615654Y-62314346D01*
X122649088Y-62355087D01*
X122673931Y-62401563D01*
X122689230Y-62451998D01*
X122695000Y-62510584D01*
X122695000Y-65759416D01*
X122689230Y-65818002D01*
X122673931Y-65868437D01*
X122649088Y-65914913D01*
X122615654Y-65955654D01*
X122574913Y-65989088D01*
X122528437Y-66013931D01*
X122478002Y-66029230D01*
X122419416Y-66035000D01*
X121445584Y-66035000D01*
X121386998Y-66029230D01*
X121336563Y-66013931D01*
X121290087Y-65989088D01*
X121249346Y-65955654D01*
X121215912Y-65914913D01*
X121191069Y-65868437D01*
X121175770Y-65818002D01*
X121170000Y-65759416D01*
X121170000Y-62510584D01*
X121175770Y-62451998D01*
X121191069Y-62401563D01*
X121215912Y-62355087D01*
X121249346Y-62314346D01*
X121290087Y-62280912D01*
X121336563Y-62256069D01*
X121386998Y-62240770D01*
X121445584Y-62235000D01*
X122419416Y-62235000D01*
X122478002Y-62240770D01*
X122478002Y-62240770D01*
G37*
G36*
X118203002Y-62240770D02*
X118253437Y-62256069D01*
X118299913Y-62280912D01*
X118340654Y-62314346D01*
X118374088Y-62355087D01*
X118398931Y-62401563D01*
X118414230Y-62451998D01*
X118420000Y-62510584D01*
X118420000Y-65759416D01*
X118414230Y-65818002D01*
X118398931Y-65868437D01*
X118374088Y-65914913D01*
X118340654Y-65955654D01*
X118299913Y-65989088D01*
X118253437Y-66013931D01*
X118203002Y-66029230D01*
X118144416Y-66035000D01*
X117170584Y-66035000D01*
X117111998Y-66029230D01*
X117061563Y-66013931D01*
X117015087Y-65989088D01*
X116974346Y-65955654D01*
X116940912Y-65914913D01*
X116916069Y-65868437D01*
X116900770Y-65818002D01*
X116895000Y-65759416D01*
X116895000Y-62510584D01*
X116900770Y-62451998D01*
X116916069Y-62401563D01*
X116940912Y-62355087D01*
X116974346Y-62314346D01*
X117015087Y-62280912D01*
X117061563Y-62256069D01*
X117111998Y-62240770D01*
X117170584Y-62235000D01*
X118144416Y-62235000D01*
X118203002Y-62240770D01*
X118203002Y-62240770D01*
G37*
G36*
X128230628Y-63461693D02*
X128278354Y-63476170D01*
X128322336Y-63499679D01*
X128360885Y-63531315D01*
X128392521Y-63569864D01*
X128416030Y-63613846D01*
X128430507Y-63661572D01*
X128436000Y-63717341D01*
X128436000Y-65345059D01*
X128430507Y-65400828D01*
X128416030Y-65448554D01*
X128392521Y-65492536D01*
X128360885Y-65531085D01*
X128322336Y-65562721D01*
X128278354Y-65586230D01*
X128230628Y-65600707D01*
X128174859Y-65606200D01*
X127047141Y-65606200D01*
X126991372Y-65600707D01*
X126943646Y-65586230D01*
X126899664Y-65562721D01*
X126861115Y-65531085D01*
X126829479Y-65492536D01*
X126805970Y-65448554D01*
X126791493Y-65400828D01*
X126786000Y-65345059D01*
X126786000Y-63717341D01*
X126791493Y-63661572D01*
X126805970Y-63613846D01*
X126829479Y-63569864D01*
X126861115Y-63531315D01*
X126899664Y-63499679D01*
X126943646Y-63476170D01*
X126991372Y-63461693D01*
X127047141Y-63456200D01*
X128174859Y-63456200D01*
X128230628Y-63461693D01*
X128230628Y-63461693D01*
G37*
G36*
X125430628Y-63461693D02*
X125478354Y-63476170D01*
X125522336Y-63499679D01*
X125560885Y-63531315D01*
X125592521Y-63569864D01*
X125616030Y-63613846D01*
X125630507Y-63661572D01*
X125636000Y-63717341D01*
X125636000Y-65345059D01*
X125630507Y-65400828D01*
X125616030Y-65448554D01*
X125592521Y-65492536D01*
X125560885Y-65531085D01*
X125522336Y-65562721D01*
X125478354Y-65586230D01*
X125430628Y-65600707D01*
X125374859Y-65606200D01*
X124247141Y-65606200D01*
X124191372Y-65600707D01*
X124143646Y-65586230D01*
X124099664Y-65562721D01*
X124061115Y-65531085D01*
X124029479Y-65492536D01*
X124005970Y-65448554D01*
X123991493Y-65400828D01*
X123986000Y-65345059D01*
X123986000Y-63717341D01*
X123991493Y-63661572D01*
X124005970Y-63613846D01*
X124029479Y-63569864D01*
X124061115Y-63531315D01*
X124099664Y-63499679D01*
X124143646Y-63476170D01*
X124191372Y-63461693D01*
X124247141Y-63456200D01*
X125374859Y-63456200D01*
X125430628Y-63461693D01*
X125430628Y-63461693D01*
G37*
G36*
X112491628Y-61942793D02*
X112539354Y-61957270D01*
X112583336Y-61980779D01*
X112621885Y-62012415D01*
X112653521Y-62050964D01*
X112677030Y-62094946D01*
X112691507Y-62142672D01*
X112697000Y-62198441D01*
X112697000Y-63826159D01*
X112691507Y-63881928D01*
X112677030Y-63929654D01*
X112653521Y-63973636D01*
X112621885Y-64012185D01*
X112583336Y-64043821D01*
X112539354Y-64067330D01*
X112491628Y-64081807D01*
X112435859Y-64087300D01*
X111308141Y-64087300D01*
X111252372Y-64081807D01*
X111204646Y-64067330D01*
X111160664Y-64043821D01*
X111122115Y-64012185D01*
X111090479Y-63973636D01*
X111066970Y-63929654D01*
X111052493Y-63881928D01*
X111047000Y-63826159D01*
X111047000Y-62198441D01*
X111052493Y-62142672D01*
X111066970Y-62094946D01*
X111090479Y-62050964D01*
X111122115Y-62012415D01*
X111160664Y-61980779D01*
X111204646Y-61957270D01*
X111252372Y-61942793D01*
X111308141Y-61937300D01*
X112435859Y-61937300D01*
X112491628Y-61942793D01*
X112491628Y-61942793D01*
G37*
G36*
X115291628Y-61942793D02*
X115339354Y-61957270D01*
X115383336Y-61980779D01*
X115421885Y-62012415D01*
X115453521Y-62050964D01*
X115477030Y-62094946D01*
X115491507Y-62142672D01*
X115497000Y-62198441D01*
X115497000Y-63826159D01*
X115491507Y-63881928D01*
X115477030Y-63929654D01*
X115453521Y-63973636D01*
X115421885Y-64012185D01*
X115383336Y-64043821D01*
X115339354Y-64067330D01*
X115291628Y-64081807D01*
X115235859Y-64087300D01*
X114108141Y-64087300D01*
X114052372Y-64081807D01*
X114004646Y-64067330D01*
X113960664Y-64043821D01*
X113922115Y-64012185D01*
X113890479Y-63973636D01*
X113866970Y-63929654D01*
X113852493Y-63881928D01*
X113847000Y-63826159D01*
X113847000Y-62198441D01*
X113852493Y-62142672D01*
X113866970Y-62094946D01*
X113890479Y-62050964D01*
X113922115Y-62012415D01*
X113960664Y-61980779D01*
X114004646Y-61957270D01*
X114052372Y-61942793D01*
X114108141Y-61937300D01*
X115235859Y-61937300D01*
X115291628Y-61942793D01*
X115291628Y-61942793D01*
G37*
G36*
X179076000Y-63946400D02*
X177176000Y-63946400D01*
X177176000Y-62346400D01*
X179076000Y-62346400D01*
X179076000Y-63946400D01*
X179076000Y-63946400D01*
G37*
G36*
X172576000Y-63946400D02*
X170676000Y-63946400D01*
X170676000Y-62346400D01*
X172576000Y-62346400D01*
X172576000Y-63946400D01*
X172576000Y-63946400D01*
G37*
G36*
X162809000Y-63929800D02*
X160909000Y-63929800D01*
X160909000Y-62329800D01*
X162809000Y-62329800D01*
X162809000Y-63929800D01*
X162809000Y-63929800D01*
G37*
G36*
X169309000Y-63929800D02*
X167409000Y-63929800D01*
X167409000Y-62329800D01*
X169309000Y-62329800D01*
X169309000Y-63929800D01*
X169309000Y-63929800D01*
G37*
G36*
X143627628Y-60098793D02*
X143675354Y-60113270D01*
X143719336Y-60136779D01*
X143757885Y-60168415D01*
X143789521Y-60206964D01*
X143813030Y-60250946D01*
X143827507Y-60298672D01*
X143833000Y-60354441D01*
X143833000Y-61982159D01*
X143827507Y-62037928D01*
X143813030Y-62085654D01*
X143789521Y-62129636D01*
X143757885Y-62168185D01*
X143719336Y-62199821D01*
X143675354Y-62223330D01*
X143627628Y-62237807D01*
X143571859Y-62243300D01*
X142444141Y-62243300D01*
X142388372Y-62237807D01*
X142340646Y-62223330D01*
X142296664Y-62199821D01*
X142258115Y-62168185D01*
X142226479Y-62129636D01*
X142202970Y-62085654D01*
X142188493Y-62037928D01*
X142183000Y-61982159D01*
X142183000Y-60354441D01*
X142188493Y-60298672D01*
X142202970Y-60250946D01*
X142226479Y-60206964D01*
X142258115Y-60168415D01*
X142296664Y-60136779D01*
X142340646Y-60113270D01*
X142388372Y-60098793D01*
X142444141Y-60093300D01*
X143571859Y-60093300D01*
X143627628Y-60098793D01*
X143627628Y-60098793D01*
G37*
G36*
X140827628Y-60098793D02*
X140875354Y-60113270D01*
X140919336Y-60136779D01*
X140957885Y-60168415D01*
X140989521Y-60206964D01*
X141013030Y-60250946D01*
X141027507Y-60298672D01*
X141033000Y-60354441D01*
X141033000Y-61982159D01*
X141027507Y-62037928D01*
X141013030Y-62085654D01*
X140989521Y-62129636D01*
X140957885Y-62168185D01*
X140919336Y-62199821D01*
X140875354Y-62223330D01*
X140827628Y-62237807D01*
X140771859Y-62243300D01*
X139644141Y-62243300D01*
X139588372Y-62237807D01*
X139540646Y-62223330D01*
X139496664Y-62199821D01*
X139458115Y-62168185D01*
X139426479Y-62129636D01*
X139402970Y-62085654D01*
X139388493Y-62037928D01*
X139383000Y-61982159D01*
X139383000Y-60354441D01*
X139388493Y-60298672D01*
X139402970Y-60250946D01*
X139426479Y-60206964D01*
X139458115Y-60168415D01*
X139496664Y-60136779D01*
X139540646Y-60113270D01*
X139588372Y-60098793D01*
X139644141Y-60093300D01*
X140771859Y-60093300D01*
X140827628Y-60098793D01*
X140827628Y-60098793D01*
G37*
G36*
X182371628Y-60068293D02*
X182419354Y-60082770D01*
X182463336Y-60106279D01*
X182501885Y-60137915D01*
X182533521Y-60176464D01*
X182557030Y-60220446D01*
X182571507Y-60268172D01*
X182577000Y-60323941D01*
X182577000Y-61951659D01*
X182571507Y-62007428D01*
X182557030Y-62055154D01*
X182533521Y-62099136D01*
X182501885Y-62137685D01*
X182463336Y-62169321D01*
X182419354Y-62192830D01*
X182371628Y-62207307D01*
X182315859Y-62212800D01*
X181188141Y-62212800D01*
X181132372Y-62207307D01*
X181084646Y-62192830D01*
X181040664Y-62169321D01*
X181002115Y-62137685D01*
X180970479Y-62099136D01*
X180946970Y-62055154D01*
X180932493Y-62007428D01*
X180927000Y-61951659D01*
X180927000Y-60323941D01*
X180932493Y-60268172D01*
X180946970Y-60220446D01*
X180970479Y-60176464D01*
X181002115Y-60137915D01*
X181040664Y-60106279D01*
X181084646Y-60082770D01*
X181132372Y-60068293D01*
X181188141Y-60062800D01*
X182315859Y-60062800D01*
X182371628Y-60068293D01*
X182371628Y-60068293D01*
G37*
G36*
X185171628Y-60068293D02*
X185219354Y-60082770D01*
X185263336Y-60106279D01*
X185301885Y-60137915D01*
X185333521Y-60176464D01*
X185357030Y-60220446D01*
X185371507Y-60268172D01*
X185377000Y-60323941D01*
X185377000Y-61951659D01*
X185371507Y-62007428D01*
X185357030Y-62055154D01*
X185333521Y-62099136D01*
X185301885Y-62137685D01*
X185263336Y-62169321D01*
X185219354Y-62192830D01*
X185171628Y-62207307D01*
X185115859Y-62212800D01*
X183988141Y-62212800D01*
X183932372Y-62207307D01*
X183884646Y-62192830D01*
X183840664Y-62169321D01*
X183802115Y-62137685D01*
X183770479Y-62099136D01*
X183746970Y-62055154D01*
X183732493Y-62007428D01*
X183727000Y-61951659D01*
X183727000Y-60323941D01*
X183732493Y-60268172D01*
X183746970Y-60220446D01*
X183770479Y-60176464D01*
X183802115Y-60137915D01*
X183840664Y-60106279D01*
X183884646Y-60082770D01*
X183932372Y-60068293D01*
X183988141Y-60062800D01*
X185115859Y-60062800D01*
X185171628Y-60068293D01*
X185171628Y-60068293D01*
G37*
G36*
X134015628Y-59986993D02*
X134063354Y-60001470D01*
X134107336Y-60024979D01*
X134145885Y-60056615D01*
X134177521Y-60095164D01*
X134201030Y-60139146D01*
X134215507Y-60186872D01*
X134221000Y-60242641D01*
X134221000Y-61870359D01*
X134215507Y-61926128D01*
X134201030Y-61973854D01*
X134177521Y-62017836D01*
X134145885Y-62056385D01*
X134107336Y-62088021D01*
X134063354Y-62111530D01*
X134015628Y-62126007D01*
X133959859Y-62131500D01*
X132832141Y-62131500D01*
X132776372Y-62126007D01*
X132728646Y-62111530D01*
X132684664Y-62088021D01*
X132646115Y-62056385D01*
X132614479Y-62017836D01*
X132590970Y-61973854D01*
X132576493Y-61926128D01*
X132571000Y-61870359D01*
X132571000Y-60242641D01*
X132576493Y-60186872D01*
X132590970Y-60139146D01*
X132614479Y-60095164D01*
X132646115Y-60056615D01*
X132684664Y-60024979D01*
X132728646Y-60001470D01*
X132776372Y-59986993D01*
X132832141Y-59981500D01*
X133959859Y-59981500D01*
X134015628Y-59986993D01*
X134015628Y-59986993D01*
G37*
G36*
X136815628Y-59986993D02*
X136863354Y-60001470D01*
X136907336Y-60024979D01*
X136945885Y-60056615D01*
X136977521Y-60095164D01*
X137001030Y-60139146D01*
X137015507Y-60186872D01*
X137021000Y-60242641D01*
X137021000Y-61870359D01*
X137015507Y-61926128D01*
X137001030Y-61973854D01*
X136977521Y-62017836D01*
X136945885Y-62056385D01*
X136907336Y-62088021D01*
X136863354Y-62111530D01*
X136815628Y-62126007D01*
X136759859Y-62131500D01*
X135632141Y-62131500D01*
X135576372Y-62126007D01*
X135528646Y-62111530D01*
X135484664Y-62088021D01*
X135446115Y-62056385D01*
X135414479Y-62017836D01*
X135390970Y-61973854D01*
X135376493Y-61926128D01*
X135371000Y-61870359D01*
X135371000Y-60242641D01*
X135376493Y-60186872D01*
X135390970Y-60139146D01*
X135414479Y-60095164D01*
X135446115Y-60056615D01*
X135484664Y-60024979D01*
X135528646Y-60001470D01*
X135576372Y-59986993D01*
X135632141Y-59981500D01*
X136759859Y-59981500D01*
X136815628Y-59986993D01*
X136815628Y-59986993D01*
G37*
G36*
X172576000Y-61446400D02*
X170676000Y-61446400D01*
X170676000Y-59846400D01*
X172576000Y-59846400D01*
X172576000Y-61446400D01*
X172576000Y-61446400D01*
G37*
G36*
X179076000Y-61446400D02*
X177176000Y-61446400D01*
X177176000Y-59846400D01*
X179076000Y-59846400D01*
X179076000Y-61446400D01*
X179076000Y-61446400D01*
G37*
G36*
X169309000Y-61429800D02*
X167409000Y-61429800D01*
X167409000Y-59829800D01*
X169309000Y-59829800D01*
X169309000Y-61429800D01*
X169309000Y-61429800D01*
G37*
G36*
X162809000Y-61429800D02*
X160909000Y-61429800D01*
X160909000Y-59829800D01*
X162809000Y-59829800D01*
X162809000Y-61429800D01*
X162809000Y-61429800D01*
G37*
G36*
X100666002Y-56749270D02*
X100716437Y-56764569D01*
X100762913Y-56789412D01*
X100803654Y-56822846D01*
X100837088Y-56863587D01*
X100861931Y-56910063D01*
X100877230Y-56960498D01*
X100883000Y-57019084D01*
X100883000Y-60267916D01*
X100877230Y-60326502D01*
X100861931Y-60376937D01*
X100837088Y-60423413D01*
X100803654Y-60464154D01*
X100762913Y-60497588D01*
X100716437Y-60522431D01*
X100666002Y-60537730D01*
X100607416Y-60543500D01*
X99633584Y-60543500D01*
X99574998Y-60537730D01*
X99524563Y-60522431D01*
X99478087Y-60497588D01*
X99437346Y-60464154D01*
X99403912Y-60423413D01*
X99379069Y-60376937D01*
X99363770Y-60326502D01*
X99358000Y-60267916D01*
X99358000Y-57019084D01*
X99363770Y-56960498D01*
X99379069Y-56910063D01*
X99403912Y-56863587D01*
X99437346Y-56822846D01*
X99478087Y-56789412D01*
X99524563Y-56764569D01*
X99574998Y-56749270D01*
X99633584Y-56743500D01*
X100607416Y-56743500D01*
X100666002Y-56749270D01*
X100666002Y-56749270D01*
G37*
G36*
X96391002Y-56749270D02*
X96441437Y-56764569D01*
X96487913Y-56789412D01*
X96528654Y-56822846D01*
X96562088Y-56863587D01*
X96586931Y-56910063D01*
X96602230Y-56960498D01*
X96608000Y-57019084D01*
X96608000Y-60267916D01*
X96602230Y-60326502D01*
X96586931Y-60376937D01*
X96562088Y-60423413D01*
X96528654Y-60464154D01*
X96487913Y-60497588D01*
X96441437Y-60522431D01*
X96391002Y-60537730D01*
X96332416Y-60543500D01*
X95358584Y-60543500D01*
X95299998Y-60537730D01*
X95249563Y-60522431D01*
X95203087Y-60497588D01*
X95162346Y-60464154D01*
X95128912Y-60423413D01*
X95104069Y-60376937D01*
X95088770Y-60326502D01*
X95083000Y-60267916D01*
X95083000Y-57019084D01*
X95088770Y-56960498D01*
X95104069Y-56910063D01*
X95128912Y-56863587D01*
X95162346Y-56822846D01*
X95203087Y-56789412D01*
X95249563Y-56764569D01*
X95299998Y-56749270D01*
X95358584Y-56743500D01*
X96332416Y-56743500D01*
X96391002Y-56749270D01*
X96391002Y-56749270D01*
G37*
G36*
X117623628Y-57860493D02*
X117671354Y-57874970D01*
X117715336Y-57898479D01*
X117753885Y-57930115D01*
X117785521Y-57968664D01*
X117809030Y-58012646D01*
X117823507Y-58060372D01*
X117829000Y-58116141D01*
X117829000Y-59243859D01*
X117823507Y-59299628D01*
X117809030Y-59347354D01*
X117785521Y-59391336D01*
X117753885Y-59429885D01*
X117715336Y-59461521D01*
X117671354Y-59485030D01*
X117623628Y-59499507D01*
X117567859Y-59505000D01*
X115940141Y-59505000D01*
X115884372Y-59499507D01*
X115836646Y-59485030D01*
X115792664Y-59461521D01*
X115754115Y-59429885D01*
X115722479Y-59391336D01*
X115698970Y-59347354D01*
X115684493Y-59299628D01*
X115679000Y-59243859D01*
X115679000Y-58116141D01*
X115684493Y-58060372D01*
X115698970Y-58012646D01*
X115722479Y-57968664D01*
X115754115Y-57930115D01*
X115792664Y-57898479D01*
X115836646Y-57874970D01*
X115884372Y-57860493D01*
X115940141Y-57855000D01*
X117567859Y-57855000D01*
X117623628Y-57860493D01*
X117623628Y-57860493D01*
G37*
G36*
X112649628Y-57769093D02*
X112697354Y-57783570D01*
X112741336Y-57807079D01*
X112779885Y-57838715D01*
X112811521Y-57877264D01*
X112835030Y-57921246D01*
X112849507Y-57968972D01*
X112855000Y-58024741D01*
X112855000Y-59152459D01*
X112849507Y-59208228D01*
X112835030Y-59255954D01*
X112811521Y-59299936D01*
X112779885Y-59338485D01*
X112741336Y-59370121D01*
X112697354Y-59393630D01*
X112649628Y-59408107D01*
X112593859Y-59413600D01*
X110966141Y-59413600D01*
X110910372Y-59408107D01*
X110862646Y-59393630D01*
X110818664Y-59370121D01*
X110780115Y-59338485D01*
X110748479Y-59299936D01*
X110724970Y-59255954D01*
X110710493Y-59208228D01*
X110705000Y-59152459D01*
X110705000Y-58024741D01*
X110710493Y-57968972D01*
X110724970Y-57921246D01*
X110748479Y-57877264D01*
X110780115Y-57838715D01*
X110818664Y-57807079D01*
X110862646Y-57783570D01*
X110910372Y-57769093D01*
X110966141Y-57763600D01*
X112593859Y-57763600D01*
X112649628Y-57769093D01*
X112649628Y-57769093D01*
G37*
G36*
X179076000Y-58946400D02*
X177176000Y-58946400D01*
X177176000Y-57346400D01*
X179076000Y-57346400D01*
X179076000Y-58946400D01*
X179076000Y-58946400D01*
G37*
G36*
X172576000Y-58946400D02*
X170676000Y-58946400D01*
X170676000Y-57346400D01*
X172576000Y-57346400D01*
X172576000Y-58946400D01*
X172576000Y-58946400D01*
G37*
G36*
X162809000Y-58929800D02*
X160909000Y-58929800D01*
X160909000Y-57329800D01*
X162809000Y-57329800D01*
X162809000Y-58929800D01*
X162809000Y-58929800D01*
G37*
G36*
X169309000Y-58929800D02*
X167409000Y-58929800D01*
X167409000Y-57329800D01*
X169309000Y-57329800D01*
X169309000Y-58929800D01*
X169309000Y-58929800D01*
G37*
G36*
X187239603Y-55918768D02*
X187239606Y-55918769D01*
X187239605Y-55918769D01*
X187414678Y-55991286D01*
X187414679Y-55991287D01*
X187572241Y-56096567D01*
X187706233Y-56230559D01*
X187706234Y-56230561D01*
X187811514Y-56388122D01*
X187844160Y-56466938D01*
X187884032Y-56563197D01*
X187921000Y-56749050D01*
X187921000Y-56938550D01*
X187884032Y-57124403D01*
X187884031Y-57124405D01*
X187811514Y-57299478D01*
X187811513Y-57299479D01*
X187706233Y-57457041D01*
X187572241Y-57591033D01*
X187492923Y-57644032D01*
X187414678Y-57696314D01*
X187300924Y-57743432D01*
X187239603Y-57768832D01*
X187053750Y-57805800D01*
X186864250Y-57805800D01*
X186678397Y-57768832D01*
X186617076Y-57743432D01*
X186503322Y-57696314D01*
X186425077Y-57644032D01*
X186345759Y-57591033D01*
X186211767Y-57457041D01*
X186106487Y-57299479D01*
X186106486Y-57299478D01*
X186033969Y-57124405D01*
X186033968Y-57124403D01*
X185997000Y-56938550D01*
X185997000Y-56749050D01*
X186033968Y-56563197D01*
X186073840Y-56466938D01*
X186106486Y-56388122D01*
X186211766Y-56230561D01*
X186211767Y-56230559D01*
X186345759Y-56096567D01*
X186503321Y-55991287D01*
X186503322Y-55991286D01*
X186678395Y-55918769D01*
X186678394Y-55918769D01*
X186678397Y-55918768D01*
X186864250Y-55881800D01*
X187053750Y-55881800D01*
X187239603Y-55918768D01*
X187239603Y-55918768D01*
G37*
G36*
X126980603Y-55893368D02*
X126980606Y-55893369D01*
X126980605Y-55893369D01*
X127155678Y-55965886D01*
X127155679Y-55965887D01*
X127313241Y-56071167D01*
X127447233Y-56205159D01*
X127447234Y-56205161D01*
X127552514Y-56362722D01*
X127595681Y-56466938D01*
X127625032Y-56537797D01*
X127662000Y-56723650D01*
X127662000Y-56913150D01*
X127625032Y-57099003D01*
X127625031Y-57099005D01*
X127552514Y-57274078D01*
X127504189Y-57346400D01*
X127447233Y-57431641D01*
X127313241Y-57565633D01*
X127275227Y-57591033D01*
X127155678Y-57670914D01*
X127094356Y-57696314D01*
X126980603Y-57743432D01*
X126794750Y-57780400D01*
X126605250Y-57780400D01*
X126419397Y-57743432D01*
X126305644Y-57696314D01*
X126244322Y-57670914D01*
X126124773Y-57591033D01*
X126086759Y-57565633D01*
X125952767Y-57431641D01*
X125895811Y-57346400D01*
X125847486Y-57274078D01*
X125774969Y-57099005D01*
X125774968Y-57099003D01*
X125738000Y-56913150D01*
X125738000Y-56723650D01*
X125774968Y-56537797D01*
X125804319Y-56466938D01*
X125847486Y-56362722D01*
X125952766Y-56205161D01*
X125952767Y-56205159D01*
X126086759Y-56071167D01*
X126244321Y-55965887D01*
X126244322Y-55965886D01*
X126419395Y-55893369D01*
X126419394Y-55893369D01*
X126419397Y-55893368D01*
X126605250Y-55856400D01*
X126794750Y-55856400D01*
X126980603Y-55893368D01*
X126980603Y-55893368D01*
G37*
G36*
X157099603Y-55878168D02*
X157099606Y-55878169D01*
X157099605Y-55878169D01*
X157274678Y-55950686D01*
X157335441Y-55991287D01*
X157432241Y-56055967D01*
X157566233Y-56189959D01*
X157619232Y-56269277D01*
X157671514Y-56347522D01*
X157711418Y-56443859D01*
X157744032Y-56522597D01*
X157781000Y-56708450D01*
X157781000Y-56897950D01*
X157744032Y-57083803D01*
X157744031Y-57083805D01*
X157671514Y-57258878D01*
X157661357Y-57274079D01*
X157566233Y-57416441D01*
X157432241Y-57550433D01*
X157352923Y-57603432D01*
X157274678Y-57655714D01*
X157176660Y-57696314D01*
X157099603Y-57728232D01*
X156913750Y-57765200D01*
X156724250Y-57765200D01*
X156538397Y-57728232D01*
X156461340Y-57696314D01*
X156363322Y-57655714D01*
X156285077Y-57603432D01*
X156205759Y-57550433D01*
X156071767Y-57416441D01*
X155976643Y-57274079D01*
X155966486Y-57258878D01*
X155893969Y-57083805D01*
X155893968Y-57083803D01*
X155857000Y-56897950D01*
X155857000Y-56708450D01*
X155893968Y-56522597D01*
X155926582Y-56443859D01*
X155966486Y-56347522D01*
X156018768Y-56269277D01*
X156071767Y-56189959D01*
X156205759Y-56055967D01*
X156302559Y-55991287D01*
X156363322Y-55950686D01*
X156538395Y-55878169D01*
X156538394Y-55878169D01*
X156538397Y-55878168D01*
X156724250Y-55841200D01*
X156913750Y-55841200D01*
X157099603Y-55878168D01*
X157099603Y-55878168D01*
G37*
G36*
X141326002Y-53711470D02*
X141376437Y-53726769D01*
X141422913Y-53751612D01*
X141463654Y-53785046D01*
X141497088Y-53825787D01*
X141521931Y-53872263D01*
X141537230Y-53922698D01*
X141543000Y-53981284D01*
X141543000Y-57230116D01*
X141537230Y-57288702D01*
X141521931Y-57339137D01*
X141497088Y-57385613D01*
X141463654Y-57426354D01*
X141422913Y-57459788D01*
X141376437Y-57484631D01*
X141326002Y-57499930D01*
X141267416Y-57505700D01*
X140293584Y-57505700D01*
X140234998Y-57499930D01*
X140184563Y-57484631D01*
X140138087Y-57459788D01*
X140097346Y-57426354D01*
X140063912Y-57385613D01*
X140039069Y-57339137D01*
X140023770Y-57288702D01*
X140018000Y-57230116D01*
X140018000Y-53981284D01*
X140023770Y-53922698D01*
X140039069Y-53872263D01*
X140063912Y-53825787D01*
X140097346Y-53785046D01*
X140138087Y-53751612D01*
X140184563Y-53726769D01*
X140234998Y-53711470D01*
X140293584Y-53705700D01*
X141267416Y-53705700D01*
X141326002Y-53711470D01*
X141326002Y-53711470D01*
G37*
G36*
X137051002Y-53711470D02*
X137101437Y-53726769D01*
X137147913Y-53751612D01*
X137188654Y-53785046D01*
X137222088Y-53825787D01*
X137246931Y-53872263D01*
X137262230Y-53922698D01*
X137268000Y-53981284D01*
X137268000Y-57230116D01*
X137262230Y-57288702D01*
X137246931Y-57339137D01*
X137222088Y-57385613D01*
X137188654Y-57426354D01*
X137147913Y-57459788D01*
X137101437Y-57484631D01*
X137051002Y-57499930D01*
X136992416Y-57505700D01*
X136018584Y-57505700D01*
X135959998Y-57499930D01*
X135909563Y-57484631D01*
X135863087Y-57459788D01*
X135822346Y-57426354D01*
X135788912Y-57385613D01*
X135764069Y-57339137D01*
X135748770Y-57288702D01*
X135743000Y-57230116D01*
X135743000Y-53981284D01*
X135748770Y-53922698D01*
X135764069Y-53872263D01*
X135788912Y-53825787D01*
X135822346Y-53785046D01*
X135863087Y-53751612D01*
X135909563Y-53726769D01*
X135959998Y-53711470D01*
X136018584Y-53705700D01*
X136992416Y-53705700D01*
X137051002Y-53711470D01*
X137051002Y-53711470D01*
G37*
G36*
X117623628Y-55060493D02*
X117671354Y-55074970D01*
X117715336Y-55098479D01*
X117753885Y-55130115D01*
X117785521Y-55168664D01*
X117809030Y-55212646D01*
X117823507Y-55260372D01*
X117829000Y-55316141D01*
X117829000Y-56443859D01*
X117823507Y-56499628D01*
X117809030Y-56547354D01*
X117785521Y-56591336D01*
X117753885Y-56629885D01*
X117715336Y-56661521D01*
X117671354Y-56685030D01*
X117623628Y-56699507D01*
X117567859Y-56705000D01*
X115940141Y-56705000D01*
X115884372Y-56699507D01*
X115836646Y-56685030D01*
X115792664Y-56661521D01*
X115754115Y-56629885D01*
X115722479Y-56591336D01*
X115698970Y-56547354D01*
X115684493Y-56499628D01*
X115679000Y-56443859D01*
X115679000Y-55316141D01*
X115684493Y-55260372D01*
X115698970Y-55212646D01*
X115722479Y-55168664D01*
X115754115Y-55130115D01*
X115792664Y-55098479D01*
X115836646Y-55074970D01*
X115884372Y-55060493D01*
X115940141Y-55055000D01*
X117567859Y-55055000D01*
X117623628Y-55060493D01*
X117623628Y-55060493D01*
G37*
G36*
X112649628Y-54969093D02*
X112697354Y-54983570D01*
X112741336Y-55007079D01*
X112779885Y-55038715D01*
X112811521Y-55077264D01*
X112835030Y-55121246D01*
X112849507Y-55168972D01*
X112855000Y-55224741D01*
X112855000Y-56352459D01*
X112849507Y-56408228D01*
X112835030Y-56455954D01*
X112811521Y-56499936D01*
X112779885Y-56538485D01*
X112741336Y-56570121D01*
X112697354Y-56593630D01*
X112649628Y-56608107D01*
X112593859Y-56613600D01*
X110966141Y-56613600D01*
X110910372Y-56608107D01*
X110862646Y-56593630D01*
X110818664Y-56570121D01*
X110780115Y-56538485D01*
X110748479Y-56499936D01*
X110724970Y-56455954D01*
X110710493Y-56408228D01*
X110705000Y-56352459D01*
X110705000Y-55224741D01*
X110710493Y-55168972D01*
X110724970Y-55121246D01*
X110748479Y-55077264D01*
X110780115Y-55038715D01*
X110818664Y-55007079D01*
X110862646Y-54983570D01*
X110910372Y-54969093D01*
X110966141Y-54963600D01*
X112593859Y-54963600D01*
X112649628Y-54969093D01*
X112649628Y-54969093D01*
G37*
G36*
X184489603Y-51518768D02*
X184489606Y-51518769D01*
X184489605Y-51518769D01*
X184664678Y-51591286D01*
X184742923Y-51643568D01*
X184822241Y-51696567D01*
X184956233Y-51830559D01*
X184956234Y-51830561D01*
X185061514Y-51988122D01*
X185102800Y-52087797D01*
X185134032Y-52163197D01*
X185171000Y-52349050D01*
X185171000Y-52538550D01*
X185134032Y-52724403D01*
X185134031Y-52724405D01*
X185061514Y-52899478D01*
X185061513Y-52899479D01*
X184956233Y-53057041D01*
X184822241Y-53191033D01*
X184777521Y-53220914D01*
X184664678Y-53296314D01*
X184550924Y-53343432D01*
X184489603Y-53368832D01*
X184303750Y-53405800D01*
X184114250Y-53405800D01*
X183928397Y-53368832D01*
X183867076Y-53343432D01*
X183753322Y-53296314D01*
X183640479Y-53220914D01*
X183595759Y-53191033D01*
X183461767Y-53057041D01*
X183356487Y-52899479D01*
X183356486Y-52899478D01*
X183283969Y-52724405D01*
X183283968Y-52724403D01*
X183247000Y-52538550D01*
X183247000Y-52349050D01*
X183283968Y-52163197D01*
X183315200Y-52087797D01*
X183356486Y-51988122D01*
X183461766Y-51830561D01*
X183461767Y-51830559D01*
X183595759Y-51696567D01*
X183675077Y-51643568D01*
X183753322Y-51591286D01*
X183928395Y-51518769D01*
X183928394Y-51518769D01*
X183928397Y-51518768D01*
X184114250Y-51481800D01*
X184303750Y-51481800D01*
X184489603Y-51518768D01*
X184489603Y-51518768D01*
G37*
G36*
X124230603Y-51493368D02*
X124270266Y-51509797D01*
X124405678Y-51565886D01*
X124405679Y-51565887D01*
X124563241Y-51671167D01*
X124697233Y-51805159D01*
X124697234Y-51805161D01*
X124802514Y-51962722D01*
X124848025Y-52072597D01*
X124875032Y-52137797D01*
X124912000Y-52323650D01*
X124912000Y-52513150D01*
X124875032Y-52699003D01*
X124875031Y-52699005D01*
X124802514Y-52874078D01*
X124802513Y-52874079D01*
X124697233Y-53031641D01*
X124563241Y-53165633D01*
X124525227Y-53191033D01*
X124405678Y-53270914D01*
X124344356Y-53296314D01*
X124230603Y-53343432D01*
X124044750Y-53380400D01*
X123855250Y-53380400D01*
X123669397Y-53343432D01*
X123555644Y-53296314D01*
X123494322Y-53270914D01*
X123374773Y-53191033D01*
X123336759Y-53165633D01*
X123202767Y-53031641D01*
X123097487Y-52874079D01*
X123097486Y-52874078D01*
X123024969Y-52699005D01*
X123024968Y-52699003D01*
X122988000Y-52513150D01*
X122988000Y-52323650D01*
X123024968Y-52137797D01*
X123051975Y-52072597D01*
X123097486Y-51962722D01*
X123202766Y-51805161D01*
X123202767Y-51805159D01*
X123336759Y-51671167D01*
X123494321Y-51565887D01*
X123494322Y-51565886D01*
X123629734Y-51509797D01*
X123669397Y-51493368D01*
X123855250Y-51456400D01*
X124044750Y-51456400D01*
X124230603Y-51493368D01*
X124230603Y-51493368D01*
G37*
G36*
X154349603Y-51478168D02*
X154349606Y-51478169D01*
X154349605Y-51478169D01*
X154524678Y-51550686D01*
X154585441Y-51591287D01*
X154682241Y-51655967D01*
X154816233Y-51789959D01*
X154869232Y-51869277D01*
X154921514Y-51947522D01*
X154938331Y-51988122D01*
X154994032Y-52122597D01*
X155031000Y-52308450D01*
X155031000Y-52497950D01*
X154994032Y-52683803D01*
X154994031Y-52683805D01*
X154921514Y-52858878D01*
X154911357Y-52874079D01*
X154816233Y-53016441D01*
X154682241Y-53150433D01*
X154602923Y-53203432D01*
X154524678Y-53255714D01*
X154426660Y-53296314D01*
X154349603Y-53328232D01*
X154163750Y-53365200D01*
X153974250Y-53365200D01*
X153788397Y-53328232D01*
X153711340Y-53296314D01*
X153613322Y-53255714D01*
X153535077Y-53203432D01*
X153455759Y-53150433D01*
X153321767Y-53016441D01*
X153226643Y-52874079D01*
X153216486Y-52858878D01*
X153143969Y-52683805D01*
X153143968Y-52683803D01*
X153107000Y-52497950D01*
X153107000Y-52308450D01*
X153143968Y-52122597D01*
X153199669Y-51988122D01*
X153216486Y-51947522D01*
X153268768Y-51869277D01*
X153321767Y-51789959D01*
X153455759Y-51655967D01*
X153552559Y-51591287D01*
X153613322Y-51550686D01*
X153788395Y-51478169D01*
X153788394Y-51478169D01*
X153788397Y-51478168D01*
X153974250Y-51441200D01*
X154163750Y-51441200D01*
X154349603Y-51478168D01*
X154349603Y-51478168D01*
G37*
G36*
X179289603Y-51468768D02*
X179312299Y-51478169D01*
X179464678Y-51541286D01*
X179539509Y-51591287D01*
X179622241Y-51646567D01*
X179756233Y-51780559D01*
X179789642Y-51830559D01*
X179861514Y-51938122D01*
X179917214Y-52072595D01*
X179934032Y-52113197D01*
X179971000Y-52299050D01*
X179971000Y-52488550D01*
X179934032Y-52674403D01*
X179923842Y-52699003D01*
X179861514Y-52849478D01*
X179845076Y-52874079D01*
X179756233Y-53007041D01*
X179622241Y-53141033D01*
X179542923Y-53194032D01*
X179464678Y-53246314D01*
X179350924Y-53293432D01*
X179289603Y-53318832D01*
X179103750Y-53355800D01*
X178914250Y-53355800D01*
X178728397Y-53318832D01*
X178667076Y-53293432D01*
X178553322Y-53246314D01*
X178475077Y-53194032D01*
X178395759Y-53141033D01*
X178261767Y-53007041D01*
X178172924Y-52874079D01*
X178156486Y-52849478D01*
X178094158Y-52699003D01*
X178083968Y-52674403D01*
X178047000Y-52488550D01*
X178047000Y-52299050D01*
X178083968Y-52113197D01*
X178100786Y-52072595D01*
X178156486Y-51938122D01*
X178228358Y-51830559D01*
X178261767Y-51780559D01*
X178395759Y-51646567D01*
X178478491Y-51591287D01*
X178553322Y-51541286D01*
X178705701Y-51478169D01*
X178728397Y-51468768D01*
X178914250Y-51431800D01*
X179103750Y-51431800D01*
X179289603Y-51468768D01*
X179289603Y-51468768D01*
G37*
G36*
X119030603Y-51443368D02*
X119030606Y-51443369D01*
X119030605Y-51443369D01*
X119205678Y-51515886D01*
X119280509Y-51565887D01*
X119363241Y-51621167D01*
X119497233Y-51755159D01*
X119497234Y-51755161D01*
X119602514Y-51912722D01*
X119633745Y-51988121D01*
X119675032Y-52087797D01*
X119712000Y-52273650D01*
X119712000Y-52463150D01*
X119675032Y-52649003D01*
X119658603Y-52688666D01*
X119602514Y-52824078D01*
X119602513Y-52824079D01*
X119497233Y-52981641D01*
X119363241Y-53115633D01*
X119283923Y-53168632D01*
X119205678Y-53220914D01*
X119084969Y-53270913D01*
X119030603Y-53293432D01*
X118844750Y-53330400D01*
X118655250Y-53330400D01*
X118469397Y-53293432D01*
X118415031Y-53270913D01*
X118294322Y-53220914D01*
X118216077Y-53168632D01*
X118136759Y-53115633D01*
X118002767Y-52981641D01*
X117897487Y-52824079D01*
X117897486Y-52824078D01*
X117841397Y-52688666D01*
X117824968Y-52649003D01*
X117788000Y-52463150D01*
X117788000Y-52273650D01*
X117824968Y-52087797D01*
X117866255Y-51988121D01*
X117897486Y-51912722D01*
X118002766Y-51755161D01*
X118002767Y-51755159D01*
X118136759Y-51621167D01*
X118219491Y-51565887D01*
X118294322Y-51515886D01*
X118469395Y-51443369D01*
X118469394Y-51443369D01*
X118469397Y-51443368D01*
X118655250Y-51406400D01*
X118844750Y-51406400D01*
X119030603Y-51443368D01*
X119030603Y-51443368D01*
G37*
G36*
X149149603Y-51428168D02*
X149149606Y-51428169D01*
X149149605Y-51428169D01*
X149324678Y-51500686D01*
X149399509Y-51550687D01*
X149482241Y-51605967D01*
X149616233Y-51739959D01*
X149649642Y-51789959D01*
X149721514Y-51897522D01*
X149748520Y-51962721D01*
X149794032Y-52072597D01*
X149831000Y-52258450D01*
X149831000Y-52447950D01*
X149794032Y-52633803D01*
X149794031Y-52633805D01*
X149721514Y-52808878D01*
X149711357Y-52824079D01*
X149616233Y-52966441D01*
X149482241Y-53100433D01*
X149402923Y-53153432D01*
X149324678Y-53205714D01*
X149226660Y-53246314D01*
X149149603Y-53278232D01*
X148963750Y-53315200D01*
X148774250Y-53315200D01*
X148588397Y-53278232D01*
X148511340Y-53246314D01*
X148413322Y-53205714D01*
X148335077Y-53153432D01*
X148255759Y-53100433D01*
X148121767Y-52966441D01*
X148026643Y-52824079D01*
X148016486Y-52808878D01*
X147943969Y-52633805D01*
X147943968Y-52633803D01*
X147907000Y-52447950D01*
X147907000Y-52258450D01*
X147943968Y-52072597D01*
X147989480Y-51962721D01*
X148016486Y-51897522D01*
X148088358Y-51789959D01*
X148121767Y-51739959D01*
X148255759Y-51605967D01*
X148338491Y-51550687D01*
X148413322Y-51500686D01*
X148588395Y-51428169D01*
X148588394Y-51428169D01*
X148588397Y-51428168D01*
X148774250Y-51391200D01*
X148963750Y-51391200D01*
X149149603Y-51428168D01*
X149149603Y-51428168D01*
G37*
G36*
X179289603Y-46018768D02*
X179289606Y-46018769D01*
X179289605Y-46018769D01*
X179464678Y-46091286D01*
X179464679Y-46091287D01*
X179622241Y-46196567D01*
X179756233Y-46330559D01*
X179756234Y-46330561D01*
X179861514Y-46488122D01*
X179917214Y-46622595D01*
X179934032Y-46663197D01*
X179971000Y-46849050D01*
X179971000Y-47038550D01*
X179934032Y-47224403D01*
X179934031Y-47224405D01*
X179861514Y-47399478D01*
X179861513Y-47399479D01*
X179756233Y-47557041D01*
X179622241Y-47691033D01*
X179542923Y-47744032D01*
X179464678Y-47796314D01*
X179350924Y-47843432D01*
X179289603Y-47868832D01*
X179103750Y-47905800D01*
X178914250Y-47905800D01*
X178728397Y-47868832D01*
X178667076Y-47843432D01*
X178553322Y-47796314D01*
X178475077Y-47744032D01*
X178395759Y-47691033D01*
X178261767Y-47557041D01*
X178156487Y-47399479D01*
X178156486Y-47399478D01*
X178083969Y-47224405D01*
X178083968Y-47224403D01*
X178047000Y-47038550D01*
X178047000Y-46849050D01*
X178083968Y-46663197D01*
X178100786Y-46622595D01*
X178156486Y-46488122D01*
X178261766Y-46330561D01*
X178261767Y-46330559D01*
X178395759Y-46196567D01*
X178553321Y-46091287D01*
X178553322Y-46091286D01*
X178728395Y-46018769D01*
X178728394Y-46018769D01*
X178728397Y-46018768D01*
X178914250Y-45981800D01*
X179103750Y-45981800D01*
X179289603Y-46018768D01*
X179289603Y-46018768D01*
G37*
G36*
X119030603Y-45993368D02*
X119030606Y-45993369D01*
X119030605Y-45993369D01*
X119205678Y-46065886D01*
X119205679Y-46065887D01*
X119363241Y-46171167D01*
X119497233Y-46305159D01*
X119497234Y-46305161D01*
X119602514Y-46462722D01*
X119658603Y-46598134D01*
X119675032Y-46637797D01*
X119712000Y-46823650D01*
X119712000Y-47013150D01*
X119675032Y-47199003D01*
X119675031Y-47199005D01*
X119602514Y-47374078D01*
X119602513Y-47374079D01*
X119497233Y-47531641D01*
X119363241Y-47665633D01*
X119325227Y-47691033D01*
X119205678Y-47770914D01*
X119144356Y-47796314D01*
X119030603Y-47843432D01*
X118844750Y-47880400D01*
X118655250Y-47880400D01*
X118469397Y-47843432D01*
X118355644Y-47796314D01*
X118294322Y-47770914D01*
X118174773Y-47691033D01*
X118136759Y-47665633D01*
X118002767Y-47531641D01*
X117897487Y-47374079D01*
X117897486Y-47374078D01*
X117824969Y-47199005D01*
X117824968Y-47199003D01*
X117788000Y-47013150D01*
X117788000Y-46823650D01*
X117824968Y-46637797D01*
X117841397Y-46598134D01*
X117897486Y-46462722D01*
X118002766Y-46305161D01*
X118002767Y-46305159D01*
X118136759Y-46171167D01*
X118294321Y-46065887D01*
X118294322Y-46065886D01*
X118469395Y-45993369D01*
X118469394Y-45993369D01*
X118469397Y-45993368D01*
X118655250Y-45956400D01*
X118844750Y-45956400D01*
X119030603Y-45993368D01*
X119030603Y-45993368D01*
G37*
G36*
X149149603Y-45978168D02*
X149149606Y-45978169D01*
X149149605Y-45978169D01*
X149324678Y-46050686D01*
X149385441Y-46091287D01*
X149482241Y-46155967D01*
X149616233Y-46289959D01*
X149669232Y-46369277D01*
X149721514Y-46447522D01*
X149738331Y-46488122D01*
X149794032Y-46622597D01*
X149831000Y-46808450D01*
X149831000Y-46997950D01*
X149794032Y-47183803D01*
X149794031Y-47183805D01*
X149721514Y-47358878D01*
X149711357Y-47374079D01*
X149616233Y-47516441D01*
X149482241Y-47650433D01*
X149402923Y-47703432D01*
X149324678Y-47755714D01*
X149226660Y-47796314D01*
X149149603Y-47828232D01*
X148963750Y-47865200D01*
X148774250Y-47865200D01*
X148588397Y-47828232D01*
X148511340Y-47796314D01*
X148413322Y-47755714D01*
X148335077Y-47703432D01*
X148255759Y-47650433D01*
X148121767Y-47516441D01*
X148026643Y-47374079D01*
X148016486Y-47358878D01*
X147943969Y-47183805D01*
X147943968Y-47183803D01*
X147907000Y-46997950D01*
X147907000Y-46808450D01*
X147943968Y-46622597D01*
X147999669Y-46488122D01*
X148016486Y-46447522D01*
X148068768Y-46369277D01*
X148121767Y-46289959D01*
X148255759Y-46155967D01*
X148352559Y-46091287D01*
X148413322Y-46050686D01*
X148588395Y-45978169D01*
X148588394Y-45978169D01*
X148588397Y-45978168D01*
X148774250Y-45941200D01*
X148963750Y-45941200D01*
X149149603Y-45978168D01*
X149149603Y-45978168D01*
G37*
M02*
