M48
;DRILL file {KiCad 5.0.2-bee76a0~70~ubuntu18.10.1} date Sun 31 Mar 2019 07:05:09 PM EDT
;FORMAT={-:-/ absolute / inch / decimal}
FMAT,2
INCH,TZ
T1C0.0157
T2C0.0315
T3C0.0394
T4C0.0394
T5C0.0551
%
G90
G05
T1
X4.0327Y-4.2376
X4.2915Y-4.3321
X4.3204Y-4.5824
X4.6001Y-2.445
X4.7242Y-4.4829
X4.7326Y-4.2817
X4.7383Y-4.3215
X4.7491Y-3.5496
X4.8092Y-4.1816
X4.8333Y-3.3022
X4.9581Y-3.7518
X4.9939Y-3.7492
X5.0185Y-2.683
X5.0618Y-4.3805
X5.092Y-3.8409
X5.0949Y-3.7384
X5.1439Y-3.2824
X5.1472Y-3.7122
X5.1529Y-3.182
X5.1532Y-4.3549
X5.1965Y-2.7486
X5.1981Y-3.7634
X5.2205Y-3.3056
X5.243Y-3.5774
X5.2521Y-2.8186
X5.2599Y-2.665
X5.2988Y-2.9089
X5.3045Y-3.5968
X5.3808Y-3.3559
X5.3834Y-4.5432
X5.3858Y-4.4136
X5.4133Y-3.3563
X5.4146Y-4.302
X5.4236Y-3.674
X5.4265Y-3.2828
X5.4357Y-3.4036
X5.449Y-3.3127
X5.4905Y-3.9762
X5.5279Y-4.566
X5.5292Y-4.0515
X5.5348Y-3.7015
X5.5371Y-3.3309
X5.5377Y-3.2906
X5.5623Y-3.6373
X5.5809Y-2.4315
X5.6052Y-3.6024
X5.6158Y-3.5236
X5.6723Y-4.447
X5.69Y-4.4143
X5.6961Y-3.2417
X5.7148Y-3.5433
X5.7212Y-3.3829
X5.7212Y-3.2632
X5.7304Y-3.6811
X5.7999Y-4.4053
X5.8153Y-4.544
X5.8334Y-3.5831
X5.9162Y-4.3036
X5.9955Y-3.1976
X6.0978Y-4.2878
X6.1855Y-3.4622
X6.2387Y-4.3254
X6.2778Y-4.7236
X6.3016Y-2.4888
X6.312Y-4.2715
X6.3851Y-2.4363
X6.4313Y-2.5013
X6.5625Y-4.6774
X6.5772Y-4.2814
X6.6095Y-2.4362
X6.7544Y-4.2847
X6.7784Y-4.3162
X6.7899Y-4.5094
X6.7934Y-3.0163
X6.8108Y-2.8133
X6.9228Y-4.4679
X7.013Y-2.9313
T2
X3.7536Y-2.9496
X3.7536Y-3.0496
X3.7536Y-3.1496
X3.7536Y-3.2496
X3.7536Y-3.3496
X3.7536Y-3.4496
X3.7536Y-3.5496
X3.7536Y-3.6496
X3.7536Y-3.7496
X3.7536Y-3.8496
X4.0536Y-2.9496
X4.0536Y-3.0496
X4.0536Y-3.1496
X4.0536Y-3.2496
X4.0536Y-3.3496
X4.0536Y-3.4496
X4.0536Y-3.5496
X4.0536Y-3.6496
X4.0536Y-3.7496
X4.0536Y-3.8496
T3
X6.2058Y-3.7342
X6.2058Y-3.8342
X6.3058Y-3.7342
X6.3058Y-3.8342
X6.4058Y-3.7342
X6.4058Y-3.8342
X6.5058Y-3.7342
X6.5058Y-3.8342
X6.6058Y-3.7342
X6.6058Y-3.8342
X7.2792Y-3.0386
X7.2792Y-3.1386
X7.2792Y-3.2386
X7.2792Y-3.3386
X7.2792Y-3.4386
X7.2792Y-3.5386
T4
X4.4154Y-3.0998
X4.5154Y-3.0998
X4.6154Y-3.0998
T5
X4.6746Y-4.9689
X4.6746Y-5.1834
X4.8793Y-4.9669
X4.9876Y-4.7937
X5.8632Y-4.9696
X5.8632Y-5.1842
X6.0679Y-4.9677
X6.1762Y-4.7944
X7.0434Y-4.9702
X7.0434Y-5.1848
X7.2481Y-4.9683
X7.3564Y-4.795
X4.6752Y-1.8472
X4.6752Y-2.0617
X4.8799Y-2.0637
X4.9882Y-2.2369
X7.0476Y-1.8482
X7.0476Y-2.0627
X7.2523Y-2.0647
X7.3606Y-2.2379
X5.861Y-1.8466
X5.861Y-2.0611
X6.0657Y-2.0631
X6.174Y-2.2363
T0
M30
