G04 #@! TF.GenerationSoftware,KiCad,Pcbnew,5.0.2-bee76a0~70~ubuntu18.10.1*
G04 #@! TF.CreationDate,2019-03-31T19:05:15-04:00*
G04 #@! TF.ProjectId,Helios,48656c69-6f73-42e6-9b69-6361645f7063,rev?*
G04 #@! TF.SameCoordinates,Original*
G04 #@! TF.FileFunction,Legend,Top*
G04 #@! TF.FilePolarity,Positive*
%FSLAX46Y46*%
G04 Gerber Fmt 4.6, Leading zero omitted, Abs format (unit mm)*
G04 Created by KiCad (PCBNEW 5.0.2-bee76a0~70~ubuntu18.10.1) date Sun 31 Mar 2019 07:05:15 PM EDT*
%MOMM*%
%LPD*%
G01*
G04 APERTURE LIST*
%ADD10C,0.300000*%
%ADD11C,0.100000*%
%ADD12C,0.120000*%
%ADD13C,0.150000*%
G04 APERTURE END LIST*
D10*
X169833777Y-65203331D02*
X170190920Y-66703331D01*
X170476634Y-65631902D01*
X170762348Y-66703331D01*
X171119491Y-65203331D01*
X171548062Y-65203331D02*
X172548062Y-66703331D01*
X172548062Y-65203331D02*
X171548062Y-66703331D01*
X170120417Y-55740691D02*
X169620417Y-55026405D01*
X169263274Y-55740691D02*
X169263274Y-54240691D01*
X169834702Y-54240691D01*
X169977560Y-54312120D01*
X170048988Y-54383548D01*
X170120417Y-54526405D01*
X170120417Y-54740691D01*
X170048988Y-54883548D01*
X169977560Y-54954977D01*
X169834702Y-55026405D01*
X169263274Y-55026405D01*
X170548988Y-54240691D02*
X171406131Y-54240691D01*
X170977560Y-55740691D02*
X170977560Y-54240691D01*
X171906131Y-55740691D02*
X171906131Y-54240691D01*
X172263274Y-54240691D01*
X172477560Y-54312120D01*
X172620417Y-54454977D01*
X172691845Y-54597834D01*
X172763274Y-54883548D01*
X172763274Y-55097834D01*
X172691845Y-55383548D01*
X172620417Y-55526405D01*
X172477560Y-55669262D01*
X172263274Y-55740691D01*
X171906131Y-55740691D01*
D11*
X184853408Y-52385136D02*
G75*
G03X184853408Y-52385136I-700000J0D01*
G01*
X179661986Y-52343143D02*
G75*
G03X179661986Y-52343143I-700000J0D01*
G01*
X184853408Y-126146397D02*
G75*
G03X184853408Y-126146397I-700000J0D01*
G01*
X179661986Y-126188381D02*
G75*
G03X179661986Y-126188381I-700000J0D01*
G01*
X124653411Y-126146397D02*
G75*
G03X124653411Y-126146397I-700000J0D01*
G01*
X127401702Y-121741932D02*
G75*
G03X127401702Y-121741932I-700000J0D01*
G01*
X119461989Y-126188381D02*
G75*
G03X119461989Y-126188381I-700000J0D01*
G01*
X127401702Y-56789600D02*
G75*
G03X127401702Y-56789600I-700000J0D01*
G01*
X119427215Y-46879520D02*
G75*
G03X119427215Y-46879520I-700000J0D01*
G01*
X119461989Y-52343143D02*
G75*
G03X119461989Y-52343143I-700000J0D01*
G01*
X119427215Y-131652016D02*
G75*
G03X119427215Y-131652016I-700000J0D01*
G01*
X154753402Y-52385136D02*
G75*
G03X154753402Y-52385136I-700000J0D01*
G01*
X154753402Y-126146397D02*
G75*
G03X154753402Y-126146397I-700000J0D01*
G01*
X157501708Y-121741932D02*
G75*
G03X157501708Y-121741932I-700000J0D01*
G01*
X149561995Y-126188381D02*
G75*
G03X149561995Y-126188381I-700000J0D01*
G01*
X157501708Y-56789600D02*
G75*
G03X157501708Y-56789600I-700000J0D01*
G01*
X149527205Y-46879520D02*
G75*
G03X149527205Y-46879520I-700000J0D01*
G01*
X149561995Y-52343143D02*
G75*
G03X149561995Y-52343143I-700000J0D01*
G01*
X149527205Y-131652016D02*
G75*
G03X149527205Y-131652016I-700000J0D01*
G01*
X187601714Y-56789600D02*
G75*
G03X187601714Y-56789600I-700000J0D01*
G01*
X187601714Y-121741932D02*
G75*
G03X187601714Y-121741932I-700000J0D01*
G01*
X124653411Y-52385136D02*
G75*
G03X124653411Y-52385136I-700000J0D01*
G01*
X179627211Y-46879520D02*
G75*
G03X179627211Y-46879520I-700000J0D01*
G01*
X179627211Y-131652016D02*
G75*
G03X179627211Y-131652016I-700000J0D01*
G01*
X183243404Y-52385136D02*
X185063396Y-52385136D01*
X184153408Y-51475132D02*
X184153408Y-53295139D01*
X178051998Y-52343143D02*
X179871990Y-52343143D01*
X178961986Y-51433155D02*
X178961986Y-53253147D01*
X183243404Y-126146397D02*
X185063396Y-126146397D01*
X184153408Y-125236393D02*
X184153408Y-127056393D01*
X178051998Y-126188381D02*
X179871990Y-126188381D01*
X178961986Y-125278385D02*
X178961986Y-127098377D01*
X123043407Y-126146397D02*
X124863399Y-126146397D01*
X123953411Y-125236393D02*
X123953411Y-127056393D01*
X125791698Y-121741932D02*
X127611705Y-121741932D01*
X126701702Y-120831928D02*
X126701702Y-122651928D01*
X117852001Y-126188381D02*
X119671993Y-126188381D01*
X118761989Y-125278385D02*
X118761989Y-127098377D01*
X125791698Y-56789600D02*
X127611705Y-56789600D01*
X126701702Y-55879612D02*
X126701702Y-57699604D01*
X117817211Y-46879520D02*
X119637203Y-46879520D01*
X118727215Y-45969517D02*
X118727215Y-47789524D01*
X117852001Y-52343143D02*
X119671993Y-52343143D01*
X118761989Y-51433155D02*
X118761989Y-53253147D01*
X117817211Y-131652016D02*
X119637203Y-131652016D01*
X118727215Y-130742016D02*
X118727215Y-132562016D01*
X153143398Y-52385136D02*
X154963405Y-52385136D01*
X154053402Y-51475132D02*
X154053402Y-53295139D01*
X153143398Y-126146397D02*
X154963405Y-126146397D01*
X154053402Y-125236393D02*
X154053402Y-127056393D01*
X155891704Y-121741932D02*
X157711712Y-121741932D01*
X156801708Y-120831928D02*
X156801708Y-122651928D01*
X147951992Y-126188381D02*
X149771984Y-126188381D01*
X148861995Y-125278385D02*
X148861995Y-127098377D01*
X155891704Y-56789600D02*
X157711712Y-56789600D01*
X156801708Y-55879612D02*
X156801708Y-57699604D01*
X147917202Y-46879520D02*
X149737209Y-46879520D01*
X148827205Y-45969517D02*
X148827205Y-47789524D01*
X147951992Y-52343143D02*
X149771984Y-52343143D01*
X148861995Y-51433155D02*
X148861995Y-53253147D01*
X147917202Y-131652016D02*
X149737209Y-131652016D01*
X148827205Y-130742016D02*
X148827205Y-132562016D01*
X185991710Y-56789600D02*
X187811702Y-56789600D01*
X186901714Y-55879612D02*
X186901714Y-57699604D01*
X185991710Y-121741932D02*
X187811702Y-121741932D01*
X186901714Y-120831928D02*
X186901714Y-122651928D01*
X123043407Y-52385136D02*
X124863399Y-52385136D01*
X123953411Y-51475132D02*
X123953411Y-53295139D01*
X178017208Y-46879520D02*
X179837200Y-46879520D01*
X178927211Y-45969517D02*
X178927211Y-47789524D01*
X178017208Y-131652016D02*
X179837200Y-131652016D01*
X178927211Y-130742016D02*
X178927211Y-132562016D01*
D10*
X90261428Y-103871428D02*
X91761428Y-103871428D01*
X91047142Y-103871428D02*
X91047142Y-104728571D01*
X90261428Y-104728571D02*
X91761428Y-104728571D01*
X90332857Y-106014285D02*
X90261428Y-105871428D01*
X90261428Y-105585714D01*
X90332857Y-105442857D01*
X90475714Y-105371428D01*
X91047142Y-105371428D01*
X91190000Y-105442857D01*
X91261428Y-105585714D01*
X91261428Y-105871428D01*
X91190000Y-106014285D01*
X91047142Y-106085714D01*
X90904285Y-106085714D01*
X90761428Y-105371428D01*
X90261428Y-106942857D02*
X90332857Y-106800000D01*
X90475714Y-106728571D01*
X91761428Y-106728571D01*
X90261428Y-107514285D02*
X91261428Y-107514285D01*
X91761428Y-107514285D02*
X91690000Y-107442857D01*
X91618571Y-107514285D01*
X91690000Y-107585714D01*
X91761428Y-107514285D01*
X91618571Y-107514285D01*
X90261428Y-108442857D02*
X90332857Y-108300000D01*
X90404285Y-108228571D01*
X90547142Y-108157142D01*
X90975714Y-108157142D01*
X91118571Y-108228571D01*
X91190000Y-108300000D01*
X91261428Y-108442857D01*
X91261428Y-108657142D01*
X91190000Y-108800000D01*
X91118571Y-108871428D01*
X90975714Y-108942857D01*
X90547142Y-108942857D01*
X90404285Y-108871428D01*
X90332857Y-108800000D01*
X90261428Y-108657142D01*
X90261428Y-108442857D01*
X90332857Y-109514285D02*
X90261428Y-109657142D01*
X90261428Y-109942857D01*
X90332857Y-110085714D01*
X90475714Y-110157142D01*
X90547142Y-110157142D01*
X90690000Y-110085714D01*
X90761428Y-109942857D01*
X90761428Y-109728571D01*
X90832857Y-109585714D01*
X90975714Y-109514285D01*
X91047142Y-109514285D01*
X91190000Y-109585714D01*
X91261428Y-109728571D01*
X91261428Y-109942857D01*
X91190000Y-110085714D01*
X91761428Y-111728571D02*
X91761428Y-112585714D01*
X90261428Y-112157142D02*
X91761428Y-112157142D01*
X90332857Y-113657142D02*
X90261428Y-113514285D01*
X90261428Y-113228571D01*
X90332857Y-113085714D01*
X90475714Y-113014285D01*
X91047142Y-113014285D01*
X91190000Y-113085714D01*
X91261428Y-113228571D01*
X91261428Y-113514285D01*
X91190000Y-113657142D01*
X91047142Y-113728571D01*
X90904285Y-113728571D01*
X90761428Y-113014285D01*
X90332857Y-114300000D02*
X90261428Y-114442857D01*
X90261428Y-114728571D01*
X90332857Y-114871428D01*
X90475714Y-114942857D01*
X90547142Y-114942857D01*
X90690000Y-114871428D01*
X90761428Y-114728571D01*
X90761428Y-114514285D01*
X90832857Y-114371428D01*
X90975714Y-114300000D01*
X91047142Y-114300000D01*
X91190000Y-114371428D01*
X91261428Y-114514285D01*
X91261428Y-114728571D01*
X91190000Y-114871428D01*
X91261428Y-115371428D02*
X91261428Y-115942857D01*
X91761428Y-115585714D02*
X90475714Y-115585714D01*
X90332857Y-115657142D01*
X90261428Y-115800000D01*
X90261428Y-115942857D01*
X90261428Y-117585714D02*
X91761428Y-117585714D01*
X91190000Y-117585714D02*
X91261428Y-117728571D01*
X91261428Y-118014285D01*
X91190000Y-118157142D01*
X91118571Y-118228571D01*
X90975714Y-118300000D01*
X90547142Y-118300000D01*
X90404285Y-118228571D01*
X90332857Y-118157142D01*
X90261428Y-118014285D01*
X90261428Y-117728571D01*
X90332857Y-117585714D01*
X90261428Y-119157142D02*
X90332857Y-119014285D01*
X90404285Y-118942857D01*
X90547142Y-118871428D01*
X90975714Y-118871428D01*
X91118571Y-118942857D01*
X91190000Y-119014285D01*
X91261428Y-119157142D01*
X91261428Y-119371428D01*
X91190000Y-119514285D01*
X91118571Y-119585714D01*
X90975714Y-119657142D01*
X90547142Y-119657142D01*
X90404285Y-119585714D01*
X90332857Y-119514285D01*
X90261428Y-119371428D01*
X90261428Y-119157142D01*
X90261428Y-120942857D02*
X91047142Y-120942857D01*
X91190000Y-120871428D01*
X91261428Y-120728571D01*
X91261428Y-120442857D01*
X91190000Y-120300000D01*
X90332857Y-120942857D02*
X90261428Y-120800000D01*
X90261428Y-120442857D01*
X90332857Y-120300000D01*
X90475714Y-120228571D01*
X90618571Y-120228571D01*
X90761428Y-120300000D01*
X90832857Y-120442857D01*
X90832857Y-120800000D01*
X90904285Y-120942857D01*
X90261428Y-121657142D02*
X91261428Y-121657142D01*
X90975714Y-121657142D02*
X91118571Y-121728571D01*
X91190000Y-121800000D01*
X91261428Y-121942857D01*
X91261428Y-122085714D01*
X90261428Y-123228571D02*
X91761428Y-123228571D01*
X90332857Y-123228571D02*
X90261428Y-123085714D01*
X90261428Y-122800000D01*
X90332857Y-122657142D01*
X90404285Y-122585714D01*
X90547142Y-122514285D01*
X90975714Y-122514285D01*
X91118571Y-122585714D01*
X91190000Y-122657142D01*
X91261428Y-122800000D01*
X91261428Y-123085714D01*
X91190000Y-123228571D01*
X91761428Y-124871428D02*
X90261428Y-125371428D01*
X91761428Y-125871428D01*
X90261428Y-127157142D02*
X90261428Y-126300000D01*
X90261428Y-126728571D02*
X91761428Y-126728571D01*
X91547142Y-126585714D01*
X91404285Y-126442857D01*
X91332857Y-126300000D01*
X90404285Y-127800000D02*
X90332857Y-127871428D01*
X90261428Y-127800000D01*
X90332857Y-127728571D01*
X90404285Y-127800000D01*
X90261428Y-127800000D01*
X91761428Y-128800000D02*
X91761428Y-128942857D01*
X91690000Y-129085714D01*
X91618571Y-129157142D01*
X91475714Y-129228571D01*
X91190000Y-129300000D01*
X90832857Y-129300000D01*
X90547142Y-129228571D01*
X90404285Y-129157142D01*
X90332857Y-129085714D01*
X90261428Y-128942857D01*
X90261428Y-128800000D01*
X90332857Y-128657142D01*
X90404285Y-128585714D01*
X90547142Y-128514285D01*
X90832857Y-128442857D01*
X91190000Y-128442857D01*
X91475714Y-128514285D01*
X91618571Y-128585714D01*
X91690000Y-128657142D01*
X91761428Y-128800000D01*
D12*
G04 #@! TO.C,C1*
X110314000Y-96177200D02*
X110314000Y-94627200D01*
X110314000Y-90847200D02*
X110314000Y-92397200D01*
X115654000Y-91607200D02*
X115654000Y-92397200D01*
X115654000Y-95417200D02*
X115654000Y-94627200D01*
X110314000Y-96177200D02*
X114894000Y-96177200D01*
X114894000Y-96177200D02*
X115654000Y-95417200D01*
X115654000Y-91607200D02*
X114894000Y-90847200D01*
X114894000Y-90847200D02*
X110314000Y-90847200D01*
G04 #@! TO.C,C2*
X148848000Y-87106000D02*
X148848000Y-85106000D01*
X146808000Y-85106000D02*
X146808000Y-87106000D01*
G04 #@! TO.C,C3*
X146554000Y-93742000D02*
X146554000Y-95742000D01*
X148594000Y-95742000D02*
X148594000Y-93742000D01*
G04 #@! TO.C,C4*
X142002000Y-102620000D02*
X144002000Y-102620000D01*
X144002000Y-100580000D02*
X142002000Y-100580000D01*
G04 #@! TO.C,C5*
X131556000Y-100580000D02*
X129556000Y-100580000D01*
X129556000Y-102620000D02*
X131556000Y-102620000D01*
G04 #@! TO.C,C6*
X133100000Y-77780000D02*
X131100000Y-77780000D01*
X131100000Y-79820000D02*
X133100000Y-79820000D01*
G04 #@! TO.C,C7*
X139100000Y-79720000D02*
X141100000Y-79720000D01*
X141100000Y-77680000D02*
X139100000Y-77680000D01*
G04 #@! TO.C,C8*
X125020000Y-88200000D02*
X125020000Y-86200000D01*
X122980000Y-86200000D02*
X122980000Y-88200000D01*
G04 #@! TO.C,C9*
X122980000Y-93100000D02*
X122980000Y-95100000D01*
X125020000Y-95100000D02*
X125020000Y-93100000D01*
G04 #@! TO.C,C10*
X145030000Y-69104000D02*
X145030000Y-71104000D01*
X147070000Y-71104000D02*
X147070000Y-69104000D01*
G04 #@! TO.C,C11*
X105760000Y-104650000D02*
X107760000Y-104650000D01*
X107760000Y-102610000D02*
X105760000Y-102610000D01*
G04 #@! TO.C,C12*
X99720000Y-102500000D02*
X97720000Y-102500000D01*
X97720000Y-104540000D02*
X99720000Y-104540000D01*
G04 #@! TO.C,C13*
X104770000Y-116330000D02*
X102770000Y-116330000D01*
X102770000Y-118370000D02*
X104770000Y-118370000D01*
G04 #@! TO.C,C14*
X124840000Y-106800000D02*
X126840000Y-106800000D01*
X126840000Y-104760000D02*
X124840000Y-104760000D01*
G04 #@! TO.C,C15*
X119020000Y-104540000D02*
X117020000Y-104540000D01*
X117020000Y-106580000D02*
X119020000Y-106580000D01*
G04 #@! TO.C,C16*
X120370000Y-119490000D02*
X122370000Y-119490000D01*
X122370000Y-117450000D02*
X120370000Y-117450000D01*
G04 #@! TO.C,C17*
X137510000Y-104930000D02*
X135510000Y-104930000D01*
X135510000Y-106970000D02*
X137510000Y-106970000D01*
G04 #@! TO.C,C18*
X143560000Y-106800000D02*
X145560000Y-106800000D01*
X145560000Y-104760000D02*
X143560000Y-104760000D01*
G04 #@! TO.C,C19*
X140990000Y-119930000D02*
X142990000Y-119930000D01*
X142990000Y-117890000D02*
X140990000Y-117890000D01*
G04 #@! TO.C,C20*
X162220000Y-106140000D02*
X164220000Y-106140000D01*
X164220000Y-104100000D02*
X162220000Y-104100000D01*
G04 #@! TO.C,C21*
X155720000Y-104020000D02*
X153720000Y-104020000D01*
X153720000Y-106060000D02*
X155720000Y-106060000D01*
G04 #@! TO.C,C22*
X160700000Y-119700000D02*
X162700000Y-119700000D01*
X162700000Y-117660000D02*
X160700000Y-117660000D01*
G04 #@! TO.C,C23*
X173550000Y-103870000D02*
X171550000Y-103870000D01*
X171550000Y-105910000D02*
X173550000Y-105910000D01*
G04 #@! TO.C,C24*
X179940000Y-105910000D02*
X181940000Y-105910000D01*
X181940000Y-103870000D02*
X179940000Y-103870000D01*
G04 #@! TO.C,C25*
X176440000Y-119790000D02*
X178440000Y-119790000D01*
X178440000Y-117750000D02*
X176440000Y-117750000D01*
G04 #@! TO.C,CON1*
X169117000Y-98718700D02*
X169117000Y-93518700D01*
X158897000Y-98718700D02*
X169117000Y-98718700D01*
X156297000Y-93518700D02*
X169117000Y-93518700D01*
X158897000Y-98718700D02*
X158897000Y-96118700D01*
X158897000Y-96118700D02*
X156297000Y-96118700D01*
X156297000Y-96118700D02*
X156297000Y-93518700D01*
X157627000Y-98718700D02*
X156297000Y-98718700D01*
X156297000Y-98718700D02*
X156297000Y-97388700D01*
G04 #@! TO.C,D1*
X112460000Y-56200000D02*
X110340000Y-56200000D01*
X112460000Y-59400000D02*
X112460000Y-56200000D01*
X110340000Y-56200000D02*
X110340000Y-59400000D01*
G04 #@! TO.C,D2*
X105240000Y-60700000D02*
X107360000Y-60700000D01*
X105240000Y-57500000D02*
X105240000Y-60700000D01*
X107360000Y-60700000D02*
X107360000Y-57500000D01*
G04 #@! TO.C,D3*
X165232000Y-74479900D02*
X164302000Y-74479900D01*
X162072000Y-74479900D02*
X163002000Y-74479900D01*
X162072000Y-74479900D02*
X162072000Y-77639900D01*
X165232000Y-74479900D02*
X165232000Y-75939900D01*
G04 #@! TO.C,D5*
X141056000Y-59392000D02*
X141056000Y-61512000D01*
X144256000Y-59392000D02*
X141056000Y-59392000D01*
X141056000Y-61512000D02*
X144256000Y-61512000D01*
G04 #@! TO.C,D6*
X117927000Y-68952600D02*
X117927000Y-71072600D01*
X121127000Y-68952600D02*
X117927000Y-68952600D01*
X117927000Y-71072600D02*
X121127000Y-71072600D01*
G04 #@! TO.C,D7*
X123769000Y-68952600D02*
X123769000Y-71072600D01*
X126969000Y-68952600D02*
X123769000Y-68952600D01*
X123769000Y-71072600D02*
X126969000Y-71072600D01*
G04 #@! TO.C,D8*
X157434000Y-86879900D02*
X157434000Y-88999900D01*
X160634000Y-86879900D02*
X157434000Y-86879900D01*
X157434000Y-88999900D02*
X160634000Y-88999900D01*
G04 #@! TO.C,D9*
X162514000Y-86879900D02*
X162514000Y-88999900D01*
X165714000Y-86879900D02*
X162514000Y-86879900D01*
X162514000Y-88999900D02*
X165714000Y-88999900D01*
G04 #@! TO.C,J8*
X183562000Y-91210400D02*
X186222000Y-91210400D01*
X183562000Y-78450400D02*
X183562000Y-91210400D01*
X186222000Y-78450400D02*
X186222000Y-91210400D01*
X183562000Y-78450400D02*
X186222000Y-78450400D01*
X183562000Y-77180400D02*
X183562000Y-75850400D01*
X183562000Y-75850400D02*
X184892000Y-75850400D01*
G04 #@! TO.C,R1*
X110721000Y-66688400D02*
X108721000Y-66688400D01*
X108721000Y-64548400D02*
X110721000Y-64548400D01*
G04 #@! TO.C,R4*
X157500000Y-82750000D02*
X159500000Y-82750000D01*
X159500000Y-84890000D02*
X157500000Y-84890000D01*
G04 #@! TO.C,R5*
X145272000Y-57458000D02*
X143272000Y-57458000D01*
X143272000Y-55318000D02*
X145272000Y-55318000D01*
G04 #@! TO.C,R6*
X166580000Y-84930000D02*
X164580000Y-84930000D01*
X164580000Y-82790000D02*
X166580000Y-82790000D01*
G04 #@! TO.C,R7*
X127746000Y-66602000D02*
X125746000Y-66602000D01*
X125746000Y-64462000D02*
X127746000Y-64462000D01*
G04 #@! TO.C,R8*
X95430000Y-111360000D02*
X95430000Y-109360000D01*
X97570000Y-109360000D02*
X97570000Y-111360000D01*
G04 #@! TO.C,R9*
X113540000Y-112650000D02*
X113540000Y-110650000D01*
X115680000Y-110650000D02*
X115680000Y-112650000D01*
G04 #@! TO.C,R10*
X132990000Y-113770000D02*
X132990000Y-111770000D01*
X135130000Y-111770000D02*
X135130000Y-113770000D01*
G04 #@! TO.C,R11*
X152090000Y-112900000D02*
X152090000Y-110900000D01*
X154230000Y-110900000D02*
X154230000Y-112900000D01*
G04 #@! TO.C,R12*
X168670000Y-112670000D02*
X168670000Y-110670000D01*
X170810000Y-110670000D02*
X170810000Y-112670000D01*
G04 #@! TO.C,RV1*
X179130000Y-75195900D02*
X177130000Y-75195900D01*
X177130000Y-72235900D02*
X179130000Y-72235900D01*
G04 #@! TO.C,RV2*
X179130000Y-80529900D02*
X177130000Y-80529900D01*
X177130000Y-77569900D02*
X179130000Y-77569900D01*
D13*
G04 #@! TO.C,U2*
X128875000Y-82875000D02*
X128875000Y-83525000D01*
X143125000Y-82875000D02*
X143125000Y-83635000D01*
X143125000Y-97125000D02*
X143125000Y-96365000D01*
X128875000Y-97125000D02*
X128875000Y-96365000D01*
X128875000Y-82875000D02*
X129635000Y-82875000D01*
X128875000Y-97125000D02*
X129635000Y-97125000D01*
X143125000Y-97125000D02*
X142365000Y-97125000D01*
X143125000Y-82875000D02*
X142365000Y-82875000D01*
X128875000Y-83525000D02*
X127350000Y-83525000D01*
G04 #@! TO.C,U3*
X135934000Y-66391000D02*
X135934000Y-67046000D01*
X141434000Y-66391000D02*
X141434000Y-67141000D01*
X141434000Y-72801000D02*
X141434000Y-72051000D01*
X135934000Y-72801000D02*
X135934000Y-72051000D01*
X135934000Y-66391000D02*
X141434000Y-66391000D01*
X135934000Y-72801000D02*
X141434000Y-72801000D01*
X135934000Y-67046000D02*
X134184000Y-67046000D01*
G04 #@! TO.C,U4*
X101065000Y-106535000D02*
X101065000Y-106885000D01*
X106815000Y-106535000D02*
X106815000Y-106985000D01*
X106815000Y-114185000D02*
X106815000Y-113735000D01*
X101065000Y-114185000D02*
X101065000Y-113735000D01*
X101065000Y-106535000D02*
X106815000Y-106535000D01*
X101065000Y-114185000D02*
X106815000Y-114185000D01*
X101065000Y-106885000D02*
X99465000Y-106885000D01*
G04 #@! TO.C,U5*
X119335000Y-107765000D02*
X119335000Y-108115000D01*
X125085000Y-107765000D02*
X125085000Y-108215000D01*
X125085000Y-115415000D02*
X125085000Y-114965000D01*
X119335000Y-115415000D02*
X119335000Y-114965000D01*
X119335000Y-107765000D02*
X125085000Y-107765000D01*
X119335000Y-115415000D02*
X125085000Y-115415000D01*
X119335000Y-108115000D02*
X117735000Y-108115000D01*
G04 #@! TO.C,U6*
X139455000Y-108995000D02*
X139455000Y-109345000D01*
X145205000Y-108995000D02*
X145205000Y-109445000D01*
X145205000Y-116645000D02*
X145205000Y-116195000D01*
X139455000Y-116645000D02*
X139455000Y-116195000D01*
X139455000Y-108995000D02*
X145205000Y-108995000D01*
X139455000Y-116645000D02*
X145205000Y-116645000D01*
X139455000Y-109345000D02*
X137855000Y-109345000D01*
G04 #@! TO.C,U7*
X157645000Y-107925000D02*
X157645000Y-108275000D01*
X163395000Y-107925000D02*
X163395000Y-108375000D01*
X163395000Y-115575000D02*
X163395000Y-115125000D01*
X157645000Y-115575000D02*
X157645000Y-115125000D01*
X157645000Y-107925000D02*
X163395000Y-107925000D01*
X157645000Y-115575000D02*
X163395000Y-115575000D01*
X157645000Y-108275000D02*
X156045000Y-108275000D01*
G04 #@! TO.C,U8*
X174565000Y-107835000D02*
X174565000Y-108185000D01*
X180315000Y-107835000D02*
X180315000Y-108285000D01*
X180315000Y-115485000D02*
X180315000Y-115035000D01*
X174565000Y-115485000D02*
X174565000Y-115035000D01*
X174565000Y-107835000D02*
X180315000Y-107835000D01*
X174565000Y-115485000D02*
X180315000Y-115485000D01*
X174565000Y-108185000D02*
X172965000Y-108185000D01*
G04 #@! TO.C,U1*
X113167000Y-75686900D02*
X113167000Y-76829900D01*
X116215000Y-75686900D02*
X116215000Y-76829900D01*
X120025000Y-76829900D02*
X120025000Y-80512900D01*
X120025000Y-80512900D02*
X109357000Y-80512900D01*
X109357000Y-80512900D02*
X109357000Y-76829900D01*
X120025000Y-75686900D02*
X120025000Y-76829900D01*
X120025000Y-76829900D02*
X109357000Y-76829900D01*
X109357000Y-76829900D02*
X109357000Y-75686900D01*
X114691000Y-75686900D02*
X109357000Y-75686900D01*
X114691000Y-75686900D02*
X120025000Y-75686900D01*
D12*
G04 #@! TO.C,F1*
X171986000Y-71835900D02*
X168526000Y-71835900D01*
X171986000Y-75595900D02*
X168526000Y-75595900D01*
G04 #@! TO.C,F2*
X172240000Y-77169900D02*
X168780000Y-77169900D01*
X172240000Y-80929900D02*
X168780000Y-80929900D01*
G04 #@! TO.C,F3*
X120602000Y-62890000D02*
X117142000Y-62890000D01*
X120602000Y-66650000D02*
X117142000Y-66650000D01*
G04 #@! TO.C,F4*
X138382000Y-54508000D02*
X134922000Y-54508000D01*
X138382000Y-58268000D02*
X134922000Y-58268000D01*
G04 #@! TO.C,R2*
X156670000Y-66192000D02*
X153210000Y-66192000D01*
X156670000Y-69952000D02*
X153210000Y-69952000D01*
G04 #@! TO.C,R3*
X156416000Y-71272000D02*
X152956000Y-71272000D01*
X156416000Y-75032000D02*
X152956000Y-75032000D01*
D13*
G04 #@! TO.C,J1*
X115135000Y-132459000D02*
X112935000Y-128259000D01*
X112935000Y-128259000D02*
X127235000Y-118509000D01*
X127235000Y-118509000D02*
X129335000Y-121909000D01*
G04 #@! TO.C,J2*
X157425000Y-118529000D02*
X159525000Y-121929000D01*
X143125000Y-128279000D02*
X157425000Y-118529000D01*
X145325000Y-132479000D02*
X143125000Y-128279000D01*
G04 #@! TO.C,J3*
X175302000Y-132494000D02*
X173102000Y-128294000D01*
X173102000Y-128294000D02*
X187402000Y-118544000D01*
X187402000Y-118544000D02*
X189502000Y-121944000D01*
G04 #@! TO.C,J4*
X127250000Y-60068400D02*
X129350000Y-56668400D01*
X112950000Y-50318400D02*
X127250000Y-60068400D01*
X115150000Y-46118400D02*
X112950000Y-50318400D01*
G04 #@! TO.C,J5*
X145269000Y-46103200D02*
X143069000Y-50303200D01*
X143069000Y-50303200D02*
X157369000Y-60053200D01*
X157369000Y-60053200D02*
X159469000Y-56653200D01*
G04 #@! TO.C,J6*
X175409000Y-46143800D02*
X173209000Y-50343800D01*
X173209000Y-50343800D02*
X187509000Y-60093800D01*
X187509000Y-60093800D02*
X189609000Y-56693800D01*
D12*
G04 #@! TO.C,F5*
X96596748Y-56933500D02*
X99369252Y-56933500D01*
X96596748Y-60353500D02*
X99369252Y-60353500D01*
G04 #@! TO.C,Q1*
X180726000Y-99554100D02*
X180726000Y-98294100D01*
X180726000Y-92734100D02*
X180726000Y-93994100D01*
X176966000Y-99554100D02*
X180726000Y-99554100D01*
X174716000Y-92734100D02*
X180726000Y-92734100D01*
G04 #@! TO.C,R13*
X152527064Y-80894600D02*
X151322936Y-80894600D01*
X152527064Y-79074600D02*
X151322936Y-79074600D01*
G04 #@! TO.C,R14*
X96402636Y-66177800D02*
X97606764Y-66177800D01*
X96402636Y-64357800D02*
X97606764Y-64357800D01*
G04 #@! TO.C,J7*
X100151400Y-73589800D02*
G75*
G02X98151400Y-73589800I-1000000J0D01*
G01*
X98151400Y-73589800D02*
X96501400Y-73589800D01*
X96501400Y-73589800D02*
X96501400Y-99109800D01*
X96501400Y-99109800D02*
X101801400Y-99109800D01*
X101801400Y-99109800D02*
X101801400Y-73589800D01*
X101801400Y-73589800D02*
X100151400Y-73589800D01*
X94011400Y-73529800D02*
X94011400Y-99169800D01*
X94011400Y-99169800D02*
X104291400Y-99169800D01*
X104291400Y-99169800D02*
X104291400Y-73529800D01*
X104291400Y-73529800D02*
X94011400Y-73529800D01*
G04 #@! TO.C,R15*
X182549936Y-60227800D02*
X183754064Y-60227800D01*
X182549936Y-62047800D02*
X183754064Y-62047800D01*
G04 #@! TO.C,R16*
X182610936Y-66868700D02*
X183815064Y-66868700D01*
X182610936Y-65048700D02*
X183815064Y-65048700D01*
D13*
G04 #@! TO.C,SW1*
X169609000Y-57029800D02*
X169609000Y-63429800D01*
X160609000Y-57029800D02*
X169609000Y-57029800D01*
X160609000Y-64229800D02*
X160609000Y-57029800D01*
X168809000Y-64229800D02*
X160609000Y-64229800D01*
X169609000Y-63429800D02*
X168809000Y-64229800D01*
G04 #@! TO.C,SW2*
X179376000Y-63446400D02*
X178576000Y-64246400D01*
X178576000Y-64246400D02*
X170376000Y-64246400D01*
X170376000Y-64246400D02*
X170376000Y-57046400D01*
X170376000Y-57046400D02*
X179376000Y-57046400D01*
X179376000Y-57046400D02*
X179376000Y-63446400D01*
D12*
G04 #@! TO.C,D4*
X104282000Y-64275100D02*
X100397000Y-64275100D01*
X100397000Y-64275100D02*
X100397000Y-66545100D01*
X100397000Y-66545100D02*
X104282000Y-66545100D01*
G04 #@! TO.C,C1*
D13*
X112817333Y-89924342D02*
X112769714Y-89971961D01*
X112626857Y-90019580D01*
X112531619Y-90019580D01*
X112388761Y-89971961D01*
X112293523Y-89876723D01*
X112245904Y-89781485D01*
X112198285Y-89591009D01*
X112198285Y-89448152D01*
X112245904Y-89257676D01*
X112293523Y-89162438D01*
X112388761Y-89067200D01*
X112531619Y-89019580D01*
X112626857Y-89019580D01*
X112769714Y-89067200D01*
X112817333Y-89114819D01*
X113769714Y-90019580D02*
X113198285Y-90019580D01*
X113484000Y-90019580D02*
X113484000Y-89019580D01*
X113388761Y-89162438D01*
X113293523Y-89257676D01*
X113198285Y-89305295D01*
X111436380Y-97859580D02*
X110864952Y-97859580D01*
X111150666Y-97859580D02*
X111150666Y-96859580D01*
X111055428Y-97002438D01*
X110960190Y-97097676D01*
X110864952Y-97145295D01*
X112055428Y-96859580D02*
X112150666Y-96859580D01*
X112245904Y-96907200D01*
X112293523Y-96954819D01*
X112341142Y-97050057D01*
X112388761Y-97240533D01*
X112388761Y-97478628D01*
X112341142Y-97669104D01*
X112293523Y-97764342D01*
X112245904Y-97811961D01*
X112150666Y-97859580D01*
X112055428Y-97859580D01*
X111960190Y-97811961D01*
X111912571Y-97764342D01*
X111864952Y-97669104D01*
X111817333Y-97478628D01*
X111817333Y-97240533D01*
X111864952Y-97050057D01*
X111912571Y-96954819D01*
X111960190Y-96907200D01*
X112055428Y-96859580D01*
X113007809Y-96859580D02*
X113103047Y-96859580D01*
X113198285Y-96907200D01*
X113245904Y-96954819D01*
X113293523Y-97050057D01*
X113341142Y-97240533D01*
X113341142Y-97478628D01*
X113293523Y-97669104D01*
X113245904Y-97764342D01*
X113198285Y-97811961D01*
X113103047Y-97859580D01*
X113007809Y-97859580D01*
X112912571Y-97811961D01*
X112864952Y-97764342D01*
X112817333Y-97669104D01*
X112769714Y-97478628D01*
X112769714Y-97240533D01*
X112817333Y-97050057D01*
X112864952Y-96954819D01*
X112912571Y-96907200D01*
X113007809Y-96859580D01*
X114198285Y-97192914D02*
X114198285Y-97859580D01*
X113769714Y-97192914D02*
X113769714Y-97716723D01*
X113817333Y-97811961D01*
X113912571Y-97859580D01*
X114055428Y-97859580D01*
X114150666Y-97811961D01*
X114198285Y-97764342D01*
X115007809Y-97335771D02*
X114674476Y-97335771D01*
X114674476Y-97859580D02*
X114674476Y-96859580D01*
X115150666Y-96859580D01*
X115983047Y-91218628D02*
X116744952Y-91218628D01*
X116364000Y-91599580D02*
X116364000Y-90837676D01*
G04 #@! TO.C,C2*
X149935142Y-86272666D02*
X149982761Y-86320285D01*
X150030380Y-86463142D01*
X150030380Y-86558380D01*
X149982761Y-86701238D01*
X149887523Y-86796476D01*
X149792285Y-86844095D01*
X149601809Y-86891714D01*
X149458952Y-86891714D01*
X149268476Y-86844095D01*
X149173238Y-86796476D01*
X149078000Y-86701238D01*
X149030380Y-86558380D01*
X149030380Y-86463142D01*
X149078000Y-86320285D01*
X149125619Y-86272666D01*
X149125619Y-85891714D02*
X149078000Y-85844095D01*
X149030380Y-85748857D01*
X149030380Y-85510761D01*
X149078000Y-85415523D01*
X149125619Y-85367904D01*
X149220857Y-85320285D01*
X149316095Y-85320285D01*
X149458952Y-85367904D01*
X150030380Y-85939333D01*
X150030380Y-85320285D01*
X146280380Y-86701238D02*
X146280380Y-87272666D01*
X146280380Y-86986952D02*
X145280380Y-86986952D01*
X145423238Y-87082190D01*
X145518476Y-87177428D01*
X145566095Y-87272666D01*
X145613714Y-85844095D02*
X146280380Y-85844095D01*
X145613714Y-86272666D02*
X146137523Y-86272666D01*
X146232761Y-86225047D01*
X146280380Y-86129809D01*
X146280380Y-85986952D01*
X146232761Y-85891714D01*
X146185142Y-85844095D01*
X145756571Y-85034571D02*
X145756571Y-85367904D01*
X146280380Y-85367904D02*
X145280380Y-85367904D01*
X145280380Y-84891714D01*
G04 #@! TO.C,C3*
X146181142Y-94908666D02*
X146228761Y-94956285D01*
X146276380Y-95099142D01*
X146276380Y-95194380D01*
X146228761Y-95337238D01*
X146133523Y-95432476D01*
X146038285Y-95480095D01*
X145847809Y-95527714D01*
X145704952Y-95527714D01*
X145514476Y-95480095D01*
X145419238Y-95432476D01*
X145324000Y-95337238D01*
X145276380Y-95194380D01*
X145276380Y-95099142D01*
X145324000Y-94956285D01*
X145371619Y-94908666D01*
X145276380Y-94575333D02*
X145276380Y-93956285D01*
X145657333Y-94289619D01*
X145657333Y-94146761D01*
X145704952Y-94051523D01*
X145752571Y-94003904D01*
X145847809Y-93956285D01*
X146085904Y-93956285D01*
X146181142Y-94003904D01*
X146228761Y-94051523D01*
X146276380Y-94146761D01*
X146276380Y-94432476D01*
X146228761Y-94527714D01*
X146181142Y-94575333D01*
X149931142Y-96099142D02*
X149978761Y-96051523D01*
X150026380Y-96099142D01*
X149978761Y-96146761D01*
X149931142Y-96099142D01*
X150026380Y-96099142D01*
X150026380Y-95099142D02*
X150026380Y-95670571D01*
X150026380Y-95384857D02*
X149026380Y-95384857D01*
X149169238Y-95480095D01*
X149264476Y-95575333D01*
X149312095Y-95670571D01*
X149359714Y-94242000D02*
X150026380Y-94242000D01*
X149359714Y-94670571D02*
X149883523Y-94670571D01*
X149978761Y-94622952D01*
X150026380Y-94527714D01*
X150026380Y-94384857D01*
X149978761Y-94289619D01*
X149931142Y-94242000D01*
X149502571Y-93432476D02*
X149502571Y-93765809D01*
X150026380Y-93765809D02*
X149026380Y-93765809D01*
X149026380Y-93289619D01*
G04 #@! TO.C,C4*
X147661333Y-101957142D02*
X147613714Y-102004761D01*
X147470857Y-102052380D01*
X147375619Y-102052380D01*
X147232761Y-102004761D01*
X147137523Y-101909523D01*
X147089904Y-101814285D01*
X147042285Y-101623809D01*
X147042285Y-101480952D01*
X147089904Y-101290476D01*
X147137523Y-101195238D01*
X147232761Y-101100000D01*
X147375619Y-101052380D01*
X147470857Y-101052380D01*
X147613714Y-101100000D01*
X147661333Y-101147619D01*
X148518476Y-101385714D02*
X148518476Y-102052380D01*
X148280380Y-101004761D02*
X148042285Y-101719047D01*
X148661333Y-101719047D01*
X137580761Y-102560380D02*
X137009333Y-102560380D01*
X137295047Y-102560380D02*
X137295047Y-101560380D01*
X137199809Y-101703238D01*
X137104571Y-101798476D01*
X137009333Y-101846095D01*
X138437904Y-101893714D02*
X138437904Y-102560380D01*
X138009333Y-101893714D02*
X138009333Y-102417523D01*
X138056952Y-102512761D01*
X138152190Y-102560380D01*
X138295047Y-102560380D01*
X138390285Y-102512761D01*
X138437904Y-102465142D01*
X139247428Y-102036571D02*
X138914095Y-102036571D01*
X138914095Y-102560380D02*
X138914095Y-101560380D01*
X139390285Y-101560380D01*
G04 #@! TO.C,C5*
X125769333Y-102647142D02*
X125721714Y-102694761D01*
X125578857Y-102742380D01*
X125483619Y-102742380D01*
X125340761Y-102694761D01*
X125245523Y-102599523D01*
X125197904Y-102504285D01*
X125150285Y-102313809D01*
X125150285Y-102170952D01*
X125197904Y-101980476D01*
X125245523Y-101885238D01*
X125340761Y-101790000D01*
X125483619Y-101742380D01*
X125578857Y-101742380D01*
X125721714Y-101790000D01*
X125769333Y-101837619D01*
X126674095Y-101742380D02*
X126197904Y-101742380D01*
X126150285Y-102218571D01*
X126197904Y-102170952D01*
X126293142Y-102123333D01*
X126531238Y-102123333D01*
X126626476Y-102170952D01*
X126674095Y-102218571D01*
X126721714Y-102313809D01*
X126721714Y-102551904D01*
X126674095Y-102647142D01*
X126626476Y-102694761D01*
X126531238Y-102742380D01*
X126293142Y-102742380D01*
X126197904Y-102694761D01*
X126150285Y-102647142D01*
X134024857Y-101449142D02*
X134072476Y-101496761D01*
X134024857Y-101544380D01*
X133977238Y-101496761D01*
X134024857Y-101449142D01*
X134024857Y-101544380D01*
X135024857Y-101544380D02*
X134453428Y-101544380D01*
X134739142Y-101544380D02*
X134739142Y-100544380D01*
X134643904Y-100687238D01*
X134548666Y-100782476D01*
X134453428Y-100830095D01*
X135882000Y-100877714D02*
X135882000Y-101544380D01*
X135453428Y-100877714D02*
X135453428Y-101401523D01*
X135501047Y-101496761D01*
X135596285Y-101544380D01*
X135739142Y-101544380D01*
X135834380Y-101496761D01*
X135882000Y-101449142D01*
X136691523Y-101020571D02*
X136358190Y-101020571D01*
X136358190Y-101544380D02*
X136358190Y-100544380D01*
X136834380Y-100544380D01*
G04 #@! TO.C,C6*
X131933333Y-77407142D02*
X131885714Y-77454761D01*
X131742857Y-77502380D01*
X131647619Y-77502380D01*
X131504761Y-77454761D01*
X131409523Y-77359523D01*
X131361904Y-77264285D01*
X131314285Y-77073809D01*
X131314285Y-76930952D01*
X131361904Y-76740476D01*
X131409523Y-76645238D01*
X131504761Y-76550000D01*
X131647619Y-76502380D01*
X131742857Y-76502380D01*
X131885714Y-76550000D01*
X131933333Y-76597619D01*
X132790476Y-76502380D02*
X132600000Y-76502380D01*
X132504761Y-76550000D01*
X132457142Y-76597619D01*
X132361904Y-76740476D01*
X132314285Y-76930952D01*
X132314285Y-77311904D01*
X132361904Y-77407142D01*
X132409523Y-77454761D01*
X132504761Y-77502380D01*
X132695238Y-77502380D01*
X132790476Y-77454761D01*
X132838095Y-77407142D01*
X132885714Y-77311904D01*
X132885714Y-77073809D01*
X132838095Y-76978571D01*
X132790476Y-76930952D01*
X132695238Y-76883333D01*
X132504761Y-76883333D01*
X132409523Y-76930952D01*
X132361904Y-76978571D01*
X132314285Y-77073809D01*
X134104761Y-77352380D02*
X133533333Y-77352380D01*
X133819047Y-77352380D02*
X133819047Y-76352380D01*
X133723809Y-76495238D01*
X133628571Y-76590476D01*
X133533333Y-76638095D01*
X134961904Y-76685714D02*
X134961904Y-77352380D01*
X134533333Y-76685714D02*
X134533333Y-77209523D01*
X134580952Y-77304761D01*
X134676190Y-77352380D01*
X134819047Y-77352380D01*
X134914285Y-77304761D01*
X134961904Y-77257142D01*
X135771428Y-76828571D02*
X135438095Y-76828571D01*
X135438095Y-77352380D02*
X135438095Y-76352380D01*
X135914285Y-76352380D01*
G04 #@! TO.C,C7*
X139933333Y-80807142D02*
X139885714Y-80854761D01*
X139742857Y-80902380D01*
X139647619Y-80902380D01*
X139504761Y-80854761D01*
X139409523Y-80759523D01*
X139361904Y-80664285D01*
X139314285Y-80473809D01*
X139314285Y-80330952D01*
X139361904Y-80140476D01*
X139409523Y-80045238D01*
X139504761Y-79950000D01*
X139647619Y-79902380D01*
X139742857Y-79902380D01*
X139885714Y-79950000D01*
X139933333Y-79997619D01*
X140266666Y-79902380D02*
X140933333Y-79902380D01*
X140504761Y-80902380D01*
X138742857Y-77057142D02*
X138790476Y-77104761D01*
X138742857Y-77152380D01*
X138695238Y-77104761D01*
X138742857Y-77057142D01*
X138742857Y-77152380D01*
X139742857Y-77152380D02*
X139171428Y-77152380D01*
X139457142Y-77152380D02*
X139457142Y-76152380D01*
X139361904Y-76295238D01*
X139266666Y-76390476D01*
X139171428Y-76438095D01*
X140600000Y-76485714D02*
X140600000Y-77152380D01*
X140171428Y-76485714D02*
X140171428Y-77009523D01*
X140219047Y-77104761D01*
X140314285Y-77152380D01*
X140457142Y-77152380D01*
X140552380Y-77104761D01*
X140600000Y-77057142D01*
X141409523Y-76628571D02*
X141076190Y-76628571D01*
X141076190Y-77152380D02*
X141076190Y-76152380D01*
X141552380Y-76152380D01*
G04 #@! TO.C,C8*
X126107142Y-87366666D02*
X126154761Y-87414285D01*
X126202380Y-87557142D01*
X126202380Y-87652380D01*
X126154761Y-87795238D01*
X126059523Y-87890476D01*
X125964285Y-87938095D01*
X125773809Y-87985714D01*
X125630952Y-87985714D01*
X125440476Y-87938095D01*
X125345238Y-87890476D01*
X125250000Y-87795238D01*
X125202380Y-87652380D01*
X125202380Y-87557142D01*
X125250000Y-87414285D01*
X125297619Y-87366666D01*
X125630952Y-86795238D02*
X125583333Y-86890476D01*
X125535714Y-86938095D01*
X125440476Y-86985714D01*
X125392857Y-86985714D01*
X125297619Y-86938095D01*
X125250000Y-86890476D01*
X125202380Y-86795238D01*
X125202380Y-86604761D01*
X125250000Y-86509523D01*
X125297619Y-86461904D01*
X125392857Y-86414285D01*
X125440476Y-86414285D01*
X125535714Y-86461904D01*
X125583333Y-86509523D01*
X125630952Y-86604761D01*
X125630952Y-86795238D01*
X125678571Y-86890476D01*
X125726190Y-86938095D01*
X125821428Y-86985714D01*
X126011904Y-86985714D01*
X126107142Y-86938095D01*
X126154761Y-86890476D01*
X126202380Y-86795238D01*
X126202380Y-86604761D01*
X126154761Y-86509523D01*
X126107142Y-86461904D01*
X126011904Y-86414285D01*
X125821428Y-86414285D01*
X125726190Y-86461904D01*
X125678571Y-86509523D01*
X125630952Y-86604761D01*
G04 #@! TO.C,C9*
X122607142Y-94266666D02*
X122654761Y-94314285D01*
X122702380Y-94457142D01*
X122702380Y-94552380D01*
X122654761Y-94695238D01*
X122559523Y-94790476D01*
X122464285Y-94838095D01*
X122273809Y-94885714D01*
X122130952Y-94885714D01*
X121940476Y-94838095D01*
X121845238Y-94790476D01*
X121750000Y-94695238D01*
X121702380Y-94552380D01*
X121702380Y-94457142D01*
X121750000Y-94314285D01*
X121797619Y-94266666D01*
X122702380Y-93790476D02*
X122702380Y-93600000D01*
X122654761Y-93504761D01*
X122607142Y-93457142D01*
X122464285Y-93361904D01*
X122273809Y-93314285D01*
X121892857Y-93314285D01*
X121797619Y-93361904D01*
X121750000Y-93409523D01*
X121702380Y-93504761D01*
X121702380Y-93695238D01*
X121750000Y-93790476D01*
X121797619Y-93838095D01*
X121892857Y-93885714D01*
X122130952Y-93885714D01*
X122226190Y-93838095D01*
X122273809Y-93790476D01*
X122321428Y-93695238D01*
X122321428Y-93504761D01*
X122273809Y-93409523D01*
X122226190Y-93361904D01*
X122130952Y-93314285D01*
G04 #@! TO.C,C10*
X144657142Y-70746857D02*
X144704761Y-70794476D01*
X144752380Y-70937333D01*
X144752380Y-71032571D01*
X144704761Y-71175428D01*
X144609523Y-71270666D01*
X144514285Y-71318285D01*
X144323809Y-71365904D01*
X144180952Y-71365904D01*
X143990476Y-71318285D01*
X143895238Y-71270666D01*
X143800000Y-71175428D01*
X143752380Y-71032571D01*
X143752380Y-70937333D01*
X143800000Y-70794476D01*
X143847619Y-70746857D01*
X144752380Y-69794476D02*
X144752380Y-70365904D01*
X144752380Y-70080190D02*
X143752380Y-70080190D01*
X143895238Y-70175428D01*
X143990476Y-70270666D01*
X144038095Y-70365904D01*
X143752380Y-69175428D02*
X143752380Y-69080190D01*
X143800000Y-68984952D01*
X143847619Y-68937333D01*
X143942857Y-68889714D01*
X144133333Y-68842095D01*
X144371428Y-68842095D01*
X144561904Y-68889714D01*
X144657142Y-68937333D01*
X144704761Y-68984952D01*
X144752380Y-69080190D01*
X144752380Y-69175428D01*
X144704761Y-69270666D01*
X144657142Y-69318285D01*
X144561904Y-69365904D01*
X144371428Y-69413523D01*
X144133333Y-69413523D01*
X143942857Y-69365904D01*
X143847619Y-69318285D01*
X143800000Y-69270666D01*
X143752380Y-69175428D01*
X148407142Y-71032571D02*
X148454761Y-70984952D01*
X148502380Y-71032571D01*
X148454761Y-71080190D01*
X148407142Y-71032571D01*
X148502380Y-71032571D01*
X148502380Y-70032571D02*
X148502380Y-70604000D01*
X148502380Y-70318285D02*
X147502380Y-70318285D01*
X147645238Y-70413523D01*
X147740476Y-70508761D01*
X147788095Y-70604000D01*
X147835714Y-69175428D02*
X148502380Y-69175428D01*
X147835714Y-69604000D02*
X148359523Y-69604000D01*
X148454761Y-69556380D01*
X148502380Y-69461142D01*
X148502380Y-69318285D01*
X148454761Y-69223047D01*
X148407142Y-69175428D01*
G04 #@! TO.C,C11*
X104247142Y-101837142D02*
X104199523Y-101884761D01*
X104056666Y-101932380D01*
X103961428Y-101932380D01*
X103818571Y-101884761D01*
X103723333Y-101789523D01*
X103675714Y-101694285D01*
X103628095Y-101503809D01*
X103628095Y-101360952D01*
X103675714Y-101170476D01*
X103723333Y-101075238D01*
X103818571Y-100980000D01*
X103961428Y-100932380D01*
X104056666Y-100932380D01*
X104199523Y-100980000D01*
X104247142Y-101027619D01*
X105199523Y-101932380D02*
X104628095Y-101932380D01*
X104913809Y-101932380D02*
X104913809Y-100932380D01*
X104818571Y-101075238D01*
X104723333Y-101170476D01*
X104628095Y-101218095D01*
X106151904Y-101932380D02*
X105580476Y-101932380D01*
X105866190Y-101932380D02*
X105866190Y-100932380D01*
X105770952Y-101075238D01*
X105675714Y-101170476D01*
X105580476Y-101218095D01*
X106721904Y-101947142D02*
X106769523Y-101994761D01*
X106721904Y-102042380D01*
X106674285Y-101994761D01*
X106721904Y-101947142D01*
X106721904Y-102042380D01*
X107721904Y-102042380D02*
X107150476Y-102042380D01*
X107436190Y-102042380D02*
X107436190Y-101042380D01*
X107340952Y-101185238D01*
X107245714Y-101280476D01*
X107150476Y-101328095D01*
X109340952Y-101375714D02*
X109340952Y-102042380D01*
X108912380Y-101375714D02*
X108912380Y-101899523D01*
X108960000Y-101994761D01*
X109055238Y-102042380D01*
X109198095Y-102042380D01*
X109293333Y-101994761D01*
X109340952Y-101947142D01*
X110150476Y-101518571D02*
X109817142Y-101518571D01*
X109817142Y-102042380D02*
X109817142Y-101042380D01*
X110293333Y-101042380D01*
G04 #@! TO.C,C12*
X95857142Y-101887142D02*
X95809523Y-101934761D01*
X95666666Y-101982380D01*
X95571428Y-101982380D01*
X95428571Y-101934761D01*
X95333333Y-101839523D01*
X95285714Y-101744285D01*
X95238095Y-101553809D01*
X95238095Y-101410952D01*
X95285714Y-101220476D01*
X95333333Y-101125238D01*
X95428571Y-101030000D01*
X95571428Y-100982380D01*
X95666666Y-100982380D01*
X95809523Y-101030000D01*
X95857142Y-101077619D01*
X96809523Y-101982380D02*
X96238095Y-101982380D01*
X96523809Y-101982380D02*
X96523809Y-100982380D01*
X96428571Y-101125238D01*
X96333333Y-101220476D01*
X96238095Y-101268095D01*
X97190476Y-101077619D02*
X97238095Y-101030000D01*
X97333333Y-100982380D01*
X97571428Y-100982380D01*
X97666666Y-101030000D01*
X97714285Y-101077619D01*
X97761904Y-101172857D01*
X97761904Y-101268095D01*
X97714285Y-101410952D01*
X97142857Y-101982380D01*
X97761904Y-101982380D01*
X98681904Y-101777142D02*
X98729523Y-101824761D01*
X98681904Y-101872380D01*
X98634285Y-101824761D01*
X98681904Y-101777142D01*
X98681904Y-101872380D01*
X99681904Y-101872380D02*
X99110476Y-101872380D01*
X99396190Y-101872380D02*
X99396190Y-100872380D01*
X99300952Y-101015238D01*
X99205714Y-101110476D01*
X99110476Y-101158095D01*
X101300952Y-101205714D02*
X101300952Y-101872380D01*
X100872380Y-101205714D02*
X100872380Y-101729523D01*
X100920000Y-101824761D01*
X101015238Y-101872380D01*
X101158095Y-101872380D01*
X101253333Y-101824761D01*
X101300952Y-101777142D01*
X102110476Y-101348571D02*
X101777142Y-101348571D01*
X101777142Y-101872380D02*
X101777142Y-100872380D01*
X102253333Y-100872380D01*
G04 #@! TO.C,C13*
X103127142Y-115957142D02*
X103079523Y-116004761D01*
X102936666Y-116052380D01*
X102841428Y-116052380D01*
X102698571Y-116004761D01*
X102603333Y-115909523D01*
X102555714Y-115814285D01*
X102508095Y-115623809D01*
X102508095Y-115480952D01*
X102555714Y-115290476D01*
X102603333Y-115195238D01*
X102698571Y-115100000D01*
X102841428Y-115052380D01*
X102936666Y-115052380D01*
X103079523Y-115100000D01*
X103127142Y-115147619D01*
X104079523Y-116052380D02*
X103508095Y-116052380D01*
X103793809Y-116052380D02*
X103793809Y-115052380D01*
X103698571Y-115195238D01*
X103603333Y-115290476D01*
X103508095Y-115338095D01*
X104412857Y-115052380D02*
X105031904Y-115052380D01*
X104698571Y-115433333D01*
X104841428Y-115433333D01*
X104936666Y-115480952D01*
X104984285Y-115528571D01*
X105031904Y-115623809D01*
X105031904Y-115861904D01*
X104984285Y-115957142D01*
X104936666Y-116004761D01*
X104841428Y-116052380D01*
X104555714Y-116052380D01*
X104460476Y-116004761D01*
X104412857Y-115957142D01*
X102412857Y-119707142D02*
X102460476Y-119754761D01*
X102412857Y-119802380D01*
X102365238Y-119754761D01*
X102412857Y-119707142D01*
X102412857Y-119802380D01*
X103412857Y-119802380D02*
X102841428Y-119802380D01*
X103127142Y-119802380D02*
X103127142Y-118802380D01*
X103031904Y-118945238D01*
X102936666Y-119040476D01*
X102841428Y-119088095D01*
X104270000Y-119135714D02*
X104270000Y-119802380D01*
X103841428Y-119135714D02*
X103841428Y-119659523D01*
X103889047Y-119754761D01*
X103984285Y-119802380D01*
X104127142Y-119802380D01*
X104222380Y-119754761D01*
X104270000Y-119707142D01*
X105079523Y-119278571D02*
X104746190Y-119278571D01*
X104746190Y-119802380D02*
X104746190Y-118802380D01*
X105222380Y-118802380D01*
G04 #@! TO.C,C14*
X123407142Y-104067142D02*
X123359523Y-104114761D01*
X123216666Y-104162380D01*
X123121428Y-104162380D01*
X122978571Y-104114761D01*
X122883333Y-104019523D01*
X122835714Y-103924285D01*
X122788095Y-103733809D01*
X122788095Y-103590952D01*
X122835714Y-103400476D01*
X122883333Y-103305238D01*
X122978571Y-103210000D01*
X123121428Y-103162380D01*
X123216666Y-103162380D01*
X123359523Y-103210000D01*
X123407142Y-103257619D01*
X124359523Y-104162380D02*
X123788095Y-104162380D01*
X124073809Y-104162380D02*
X124073809Y-103162380D01*
X123978571Y-103305238D01*
X123883333Y-103400476D01*
X123788095Y-103448095D01*
X125216666Y-103495714D02*
X125216666Y-104162380D01*
X124978571Y-103114761D02*
X124740476Y-103829047D01*
X125359523Y-103829047D01*
X126501904Y-104017142D02*
X126549523Y-104064761D01*
X126501904Y-104112380D01*
X126454285Y-104064761D01*
X126501904Y-104017142D01*
X126501904Y-104112380D01*
X127501904Y-104112380D02*
X126930476Y-104112380D01*
X127216190Y-104112380D02*
X127216190Y-103112380D01*
X127120952Y-103255238D01*
X127025714Y-103350476D01*
X126930476Y-103398095D01*
X129120952Y-103445714D02*
X129120952Y-104112380D01*
X128692380Y-103445714D02*
X128692380Y-103969523D01*
X128740000Y-104064761D01*
X128835238Y-104112380D01*
X128978095Y-104112380D01*
X129073333Y-104064761D01*
X129120952Y-104017142D01*
X129930476Y-103588571D02*
X129597142Y-103588571D01*
X129597142Y-104112380D02*
X129597142Y-103112380D01*
X130073333Y-103112380D01*
G04 #@! TO.C,C15*
X114977142Y-103737142D02*
X114929523Y-103784761D01*
X114786666Y-103832380D01*
X114691428Y-103832380D01*
X114548571Y-103784761D01*
X114453333Y-103689523D01*
X114405714Y-103594285D01*
X114358095Y-103403809D01*
X114358095Y-103260952D01*
X114405714Y-103070476D01*
X114453333Y-102975238D01*
X114548571Y-102880000D01*
X114691428Y-102832380D01*
X114786666Y-102832380D01*
X114929523Y-102880000D01*
X114977142Y-102927619D01*
X115929523Y-103832380D02*
X115358095Y-103832380D01*
X115643809Y-103832380D02*
X115643809Y-102832380D01*
X115548571Y-102975238D01*
X115453333Y-103070476D01*
X115358095Y-103118095D01*
X116834285Y-102832380D02*
X116358095Y-102832380D01*
X116310476Y-103308571D01*
X116358095Y-103260952D01*
X116453333Y-103213333D01*
X116691428Y-103213333D01*
X116786666Y-103260952D01*
X116834285Y-103308571D01*
X116881904Y-103403809D01*
X116881904Y-103641904D01*
X116834285Y-103737142D01*
X116786666Y-103784761D01*
X116691428Y-103832380D01*
X116453333Y-103832380D01*
X116358095Y-103784761D01*
X116310476Y-103737142D01*
X118351904Y-103737142D02*
X118399523Y-103784761D01*
X118351904Y-103832380D01*
X118304285Y-103784761D01*
X118351904Y-103737142D01*
X118351904Y-103832380D01*
X119351904Y-103832380D02*
X118780476Y-103832380D01*
X119066190Y-103832380D02*
X119066190Y-102832380D01*
X118970952Y-102975238D01*
X118875714Y-103070476D01*
X118780476Y-103118095D01*
X120970952Y-103165714D02*
X120970952Y-103832380D01*
X120542380Y-103165714D02*
X120542380Y-103689523D01*
X120590000Y-103784761D01*
X120685238Y-103832380D01*
X120828095Y-103832380D01*
X120923333Y-103784761D01*
X120970952Y-103737142D01*
X121780476Y-103308571D02*
X121447142Y-103308571D01*
X121447142Y-103832380D02*
X121447142Y-102832380D01*
X121923333Y-102832380D01*
G04 #@! TO.C,C16*
X120727142Y-120577142D02*
X120679523Y-120624761D01*
X120536666Y-120672380D01*
X120441428Y-120672380D01*
X120298571Y-120624761D01*
X120203333Y-120529523D01*
X120155714Y-120434285D01*
X120108095Y-120243809D01*
X120108095Y-120100952D01*
X120155714Y-119910476D01*
X120203333Y-119815238D01*
X120298571Y-119720000D01*
X120441428Y-119672380D01*
X120536666Y-119672380D01*
X120679523Y-119720000D01*
X120727142Y-119767619D01*
X121679523Y-120672380D02*
X121108095Y-120672380D01*
X121393809Y-120672380D02*
X121393809Y-119672380D01*
X121298571Y-119815238D01*
X121203333Y-119910476D01*
X121108095Y-119958095D01*
X122536666Y-119672380D02*
X122346190Y-119672380D01*
X122250952Y-119720000D01*
X122203333Y-119767619D01*
X122108095Y-119910476D01*
X122060476Y-120100952D01*
X122060476Y-120481904D01*
X122108095Y-120577142D01*
X122155714Y-120624761D01*
X122250952Y-120672380D01*
X122441428Y-120672380D01*
X122536666Y-120624761D01*
X122584285Y-120577142D01*
X122631904Y-120481904D01*
X122631904Y-120243809D01*
X122584285Y-120148571D01*
X122536666Y-120100952D01*
X122441428Y-120053333D01*
X122250952Y-120053333D01*
X122155714Y-120100952D01*
X122108095Y-120148571D01*
X122060476Y-120243809D01*
X120222857Y-121527142D02*
X120270476Y-121574761D01*
X120222857Y-121622380D01*
X120175238Y-121574761D01*
X120222857Y-121527142D01*
X120222857Y-121622380D01*
X121222857Y-121622380D02*
X120651428Y-121622380D01*
X120937142Y-121622380D02*
X120937142Y-120622380D01*
X120841904Y-120765238D01*
X120746666Y-120860476D01*
X120651428Y-120908095D01*
X122080000Y-120955714D02*
X122080000Y-121622380D01*
X121651428Y-120955714D02*
X121651428Y-121479523D01*
X121699047Y-121574761D01*
X121794285Y-121622380D01*
X121937142Y-121622380D01*
X122032380Y-121574761D01*
X122080000Y-121527142D01*
X122889523Y-121098571D02*
X122556190Y-121098571D01*
X122556190Y-121622380D02*
X122556190Y-120622380D01*
X123032380Y-120622380D01*
G04 #@! TO.C,C17*
X133697142Y-104407142D02*
X133649523Y-104454761D01*
X133506666Y-104502380D01*
X133411428Y-104502380D01*
X133268571Y-104454761D01*
X133173333Y-104359523D01*
X133125714Y-104264285D01*
X133078095Y-104073809D01*
X133078095Y-103930952D01*
X133125714Y-103740476D01*
X133173333Y-103645238D01*
X133268571Y-103550000D01*
X133411428Y-103502380D01*
X133506666Y-103502380D01*
X133649523Y-103550000D01*
X133697142Y-103597619D01*
X134649523Y-104502380D02*
X134078095Y-104502380D01*
X134363809Y-104502380D02*
X134363809Y-103502380D01*
X134268571Y-103645238D01*
X134173333Y-103740476D01*
X134078095Y-103788095D01*
X134982857Y-103502380D02*
X135649523Y-103502380D01*
X135220952Y-104502380D01*
X136281904Y-104187142D02*
X136329523Y-104234761D01*
X136281904Y-104282380D01*
X136234285Y-104234761D01*
X136281904Y-104187142D01*
X136281904Y-104282380D01*
X137281904Y-104282380D02*
X136710476Y-104282380D01*
X136996190Y-104282380D02*
X136996190Y-103282380D01*
X136900952Y-103425238D01*
X136805714Y-103520476D01*
X136710476Y-103568095D01*
X138900952Y-103615714D02*
X138900952Y-104282380D01*
X138472380Y-103615714D02*
X138472380Y-104139523D01*
X138520000Y-104234761D01*
X138615238Y-104282380D01*
X138758095Y-104282380D01*
X138853333Y-104234761D01*
X138900952Y-104187142D01*
X139710476Y-103758571D02*
X139377142Y-103758571D01*
X139377142Y-104282380D02*
X139377142Y-103282380D01*
X139853333Y-103282380D01*
G04 #@! TO.C,C18*
X141457142Y-104187142D02*
X141409523Y-104234761D01*
X141266666Y-104282380D01*
X141171428Y-104282380D01*
X141028571Y-104234761D01*
X140933333Y-104139523D01*
X140885714Y-104044285D01*
X140838095Y-103853809D01*
X140838095Y-103710952D01*
X140885714Y-103520476D01*
X140933333Y-103425238D01*
X141028571Y-103330000D01*
X141171428Y-103282380D01*
X141266666Y-103282380D01*
X141409523Y-103330000D01*
X141457142Y-103377619D01*
X142409523Y-104282380D02*
X141838095Y-104282380D01*
X142123809Y-104282380D02*
X142123809Y-103282380D01*
X142028571Y-103425238D01*
X141933333Y-103520476D01*
X141838095Y-103568095D01*
X142980952Y-103710952D02*
X142885714Y-103663333D01*
X142838095Y-103615714D01*
X142790476Y-103520476D01*
X142790476Y-103472857D01*
X142838095Y-103377619D01*
X142885714Y-103330000D01*
X142980952Y-103282380D01*
X143171428Y-103282380D01*
X143266666Y-103330000D01*
X143314285Y-103377619D01*
X143361904Y-103472857D01*
X143361904Y-103520476D01*
X143314285Y-103615714D01*
X143266666Y-103663333D01*
X143171428Y-103710952D01*
X142980952Y-103710952D01*
X142885714Y-103758571D01*
X142838095Y-103806190D01*
X142790476Y-103901428D01*
X142790476Y-104091904D01*
X142838095Y-104187142D01*
X142885714Y-104234761D01*
X142980952Y-104282380D01*
X143171428Y-104282380D01*
X143266666Y-104234761D01*
X143314285Y-104187142D01*
X143361904Y-104091904D01*
X143361904Y-103901428D01*
X143314285Y-103806190D01*
X143266666Y-103758571D01*
X143171428Y-103710952D01*
X145111904Y-104067142D02*
X145159523Y-104114761D01*
X145111904Y-104162380D01*
X145064285Y-104114761D01*
X145111904Y-104067142D01*
X145111904Y-104162380D01*
X146111904Y-104162380D02*
X145540476Y-104162380D01*
X145826190Y-104162380D02*
X145826190Y-103162380D01*
X145730952Y-103305238D01*
X145635714Y-103400476D01*
X145540476Y-103448095D01*
X147730952Y-103495714D02*
X147730952Y-104162380D01*
X147302380Y-103495714D02*
X147302380Y-104019523D01*
X147350000Y-104114761D01*
X147445238Y-104162380D01*
X147588095Y-104162380D01*
X147683333Y-104114761D01*
X147730952Y-104067142D01*
X148540476Y-103638571D02*
X148207142Y-103638571D01*
X148207142Y-104162380D02*
X148207142Y-103162380D01*
X148683333Y-103162380D01*
G04 #@! TO.C,C19*
X141347142Y-121017142D02*
X141299523Y-121064761D01*
X141156666Y-121112380D01*
X141061428Y-121112380D01*
X140918571Y-121064761D01*
X140823333Y-120969523D01*
X140775714Y-120874285D01*
X140728095Y-120683809D01*
X140728095Y-120540952D01*
X140775714Y-120350476D01*
X140823333Y-120255238D01*
X140918571Y-120160000D01*
X141061428Y-120112380D01*
X141156666Y-120112380D01*
X141299523Y-120160000D01*
X141347142Y-120207619D01*
X142299523Y-121112380D02*
X141728095Y-121112380D01*
X142013809Y-121112380D02*
X142013809Y-120112380D01*
X141918571Y-120255238D01*
X141823333Y-120350476D01*
X141728095Y-120398095D01*
X142775714Y-121112380D02*
X142966190Y-121112380D01*
X143061428Y-121064761D01*
X143109047Y-121017142D01*
X143204285Y-120874285D01*
X143251904Y-120683809D01*
X143251904Y-120302857D01*
X143204285Y-120207619D01*
X143156666Y-120160000D01*
X143061428Y-120112380D01*
X142870952Y-120112380D01*
X142775714Y-120160000D01*
X142728095Y-120207619D01*
X142680476Y-120302857D01*
X142680476Y-120540952D01*
X142728095Y-120636190D01*
X142775714Y-120683809D01*
X142870952Y-120731428D01*
X143061428Y-120731428D01*
X143156666Y-120683809D01*
X143204285Y-120636190D01*
X143251904Y-120540952D01*
X140592857Y-122337142D02*
X140640476Y-122384761D01*
X140592857Y-122432380D01*
X140545238Y-122384761D01*
X140592857Y-122337142D01*
X140592857Y-122432380D01*
X141592857Y-122432380D02*
X141021428Y-122432380D01*
X141307142Y-122432380D02*
X141307142Y-121432380D01*
X141211904Y-121575238D01*
X141116666Y-121670476D01*
X141021428Y-121718095D01*
X142450000Y-121765714D02*
X142450000Y-122432380D01*
X142021428Y-121765714D02*
X142021428Y-122289523D01*
X142069047Y-122384761D01*
X142164285Y-122432380D01*
X142307142Y-122432380D01*
X142402380Y-122384761D01*
X142450000Y-122337142D01*
X143259523Y-121908571D02*
X142926190Y-121908571D01*
X142926190Y-122432380D02*
X142926190Y-121432380D01*
X143402380Y-121432380D01*
G04 #@! TO.C,C20*
X160637142Y-103607142D02*
X160589523Y-103654761D01*
X160446666Y-103702380D01*
X160351428Y-103702380D01*
X160208571Y-103654761D01*
X160113333Y-103559523D01*
X160065714Y-103464285D01*
X160018095Y-103273809D01*
X160018095Y-103130952D01*
X160065714Y-102940476D01*
X160113333Y-102845238D01*
X160208571Y-102750000D01*
X160351428Y-102702380D01*
X160446666Y-102702380D01*
X160589523Y-102750000D01*
X160637142Y-102797619D01*
X161018095Y-102797619D02*
X161065714Y-102750000D01*
X161160952Y-102702380D01*
X161399047Y-102702380D01*
X161494285Y-102750000D01*
X161541904Y-102797619D01*
X161589523Y-102892857D01*
X161589523Y-102988095D01*
X161541904Y-103130952D01*
X160970476Y-103702380D01*
X161589523Y-103702380D01*
X162208571Y-102702380D02*
X162303809Y-102702380D01*
X162399047Y-102750000D01*
X162446666Y-102797619D01*
X162494285Y-102892857D01*
X162541904Y-103083333D01*
X162541904Y-103321428D01*
X162494285Y-103511904D01*
X162446666Y-103607142D01*
X162399047Y-103654761D01*
X162303809Y-103702380D01*
X162208571Y-103702380D01*
X162113333Y-103654761D01*
X162065714Y-103607142D01*
X162018095Y-103511904D01*
X161970476Y-103321428D01*
X161970476Y-103083333D01*
X162018095Y-102892857D01*
X162065714Y-102797619D01*
X162113333Y-102750000D01*
X162208571Y-102702380D01*
X163461904Y-103307142D02*
X163509523Y-103354761D01*
X163461904Y-103402380D01*
X163414285Y-103354761D01*
X163461904Y-103307142D01*
X163461904Y-103402380D01*
X164461904Y-103402380D02*
X163890476Y-103402380D01*
X164176190Y-103402380D02*
X164176190Y-102402380D01*
X164080952Y-102545238D01*
X163985714Y-102640476D01*
X163890476Y-102688095D01*
X166080952Y-102735714D02*
X166080952Y-103402380D01*
X165652380Y-102735714D02*
X165652380Y-103259523D01*
X165700000Y-103354761D01*
X165795238Y-103402380D01*
X165938095Y-103402380D01*
X166033333Y-103354761D01*
X166080952Y-103307142D01*
X166890476Y-102878571D02*
X166557142Y-102878571D01*
X166557142Y-103402380D02*
X166557142Y-102402380D01*
X167033333Y-102402380D01*
G04 #@! TO.C,C21*
X151417142Y-103457142D02*
X151369523Y-103504761D01*
X151226666Y-103552380D01*
X151131428Y-103552380D01*
X150988571Y-103504761D01*
X150893333Y-103409523D01*
X150845714Y-103314285D01*
X150798095Y-103123809D01*
X150798095Y-102980952D01*
X150845714Y-102790476D01*
X150893333Y-102695238D01*
X150988571Y-102600000D01*
X151131428Y-102552380D01*
X151226666Y-102552380D01*
X151369523Y-102600000D01*
X151417142Y-102647619D01*
X151798095Y-102647619D02*
X151845714Y-102600000D01*
X151940952Y-102552380D01*
X152179047Y-102552380D01*
X152274285Y-102600000D01*
X152321904Y-102647619D01*
X152369523Y-102742857D01*
X152369523Y-102838095D01*
X152321904Y-102980952D01*
X151750476Y-103552380D01*
X152369523Y-103552380D01*
X153321904Y-103552380D02*
X152750476Y-103552380D01*
X153036190Y-103552380D02*
X153036190Y-102552380D01*
X152940952Y-102695238D01*
X152845714Y-102790476D01*
X152750476Y-102838095D01*
X154201904Y-103377142D02*
X154249523Y-103424761D01*
X154201904Y-103472380D01*
X154154285Y-103424761D01*
X154201904Y-103377142D01*
X154201904Y-103472380D01*
X155201904Y-103472380D02*
X154630476Y-103472380D01*
X154916190Y-103472380D02*
X154916190Y-102472380D01*
X154820952Y-102615238D01*
X154725714Y-102710476D01*
X154630476Y-102758095D01*
X156820952Y-102805714D02*
X156820952Y-103472380D01*
X156392380Y-102805714D02*
X156392380Y-103329523D01*
X156440000Y-103424761D01*
X156535238Y-103472380D01*
X156678095Y-103472380D01*
X156773333Y-103424761D01*
X156820952Y-103377142D01*
X157630476Y-102948571D02*
X157297142Y-102948571D01*
X157297142Y-103472380D02*
X157297142Y-102472380D01*
X157773333Y-102472380D01*
G04 #@! TO.C,C22*
X161057142Y-120787142D02*
X161009523Y-120834761D01*
X160866666Y-120882380D01*
X160771428Y-120882380D01*
X160628571Y-120834761D01*
X160533333Y-120739523D01*
X160485714Y-120644285D01*
X160438095Y-120453809D01*
X160438095Y-120310952D01*
X160485714Y-120120476D01*
X160533333Y-120025238D01*
X160628571Y-119930000D01*
X160771428Y-119882380D01*
X160866666Y-119882380D01*
X161009523Y-119930000D01*
X161057142Y-119977619D01*
X161438095Y-119977619D02*
X161485714Y-119930000D01*
X161580952Y-119882380D01*
X161819047Y-119882380D01*
X161914285Y-119930000D01*
X161961904Y-119977619D01*
X162009523Y-120072857D01*
X162009523Y-120168095D01*
X161961904Y-120310952D01*
X161390476Y-120882380D01*
X162009523Y-120882380D01*
X162390476Y-119977619D02*
X162438095Y-119930000D01*
X162533333Y-119882380D01*
X162771428Y-119882380D01*
X162866666Y-119930000D01*
X162914285Y-119977619D01*
X162961904Y-120072857D01*
X162961904Y-120168095D01*
X162914285Y-120310952D01*
X162342857Y-120882380D01*
X162961904Y-120882380D01*
X161142857Y-122317142D02*
X161190476Y-122364761D01*
X161142857Y-122412380D01*
X161095238Y-122364761D01*
X161142857Y-122317142D01*
X161142857Y-122412380D01*
X162142857Y-122412380D02*
X161571428Y-122412380D01*
X161857142Y-122412380D02*
X161857142Y-121412380D01*
X161761904Y-121555238D01*
X161666666Y-121650476D01*
X161571428Y-121698095D01*
X163000000Y-121745714D02*
X163000000Y-122412380D01*
X162571428Y-121745714D02*
X162571428Y-122269523D01*
X162619047Y-122364761D01*
X162714285Y-122412380D01*
X162857142Y-122412380D01*
X162952380Y-122364761D01*
X163000000Y-122317142D01*
X163809523Y-121888571D02*
X163476190Y-121888571D01*
X163476190Y-122412380D02*
X163476190Y-121412380D01*
X163952380Y-121412380D01*
G04 #@! TO.C,C23*
X169287142Y-103437142D02*
X169239523Y-103484761D01*
X169096666Y-103532380D01*
X169001428Y-103532380D01*
X168858571Y-103484761D01*
X168763333Y-103389523D01*
X168715714Y-103294285D01*
X168668095Y-103103809D01*
X168668095Y-102960952D01*
X168715714Y-102770476D01*
X168763333Y-102675238D01*
X168858571Y-102580000D01*
X169001428Y-102532380D01*
X169096666Y-102532380D01*
X169239523Y-102580000D01*
X169287142Y-102627619D01*
X169668095Y-102627619D02*
X169715714Y-102580000D01*
X169810952Y-102532380D01*
X170049047Y-102532380D01*
X170144285Y-102580000D01*
X170191904Y-102627619D01*
X170239523Y-102722857D01*
X170239523Y-102818095D01*
X170191904Y-102960952D01*
X169620476Y-103532380D01*
X170239523Y-103532380D01*
X170572857Y-102532380D02*
X171191904Y-102532380D01*
X170858571Y-102913333D01*
X171001428Y-102913333D01*
X171096666Y-102960952D01*
X171144285Y-103008571D01*
X171191904Y-103103809D01*
X171191904Y-103341904D01*
X171144285Y-103437142D01*
X171096666Y-103484761D01*
X171001428Y-103532380D01*
X170715714Y-103532380D01*
X170620476Y-103484761D01*
X170572857Y-103437142D01*
X172211904Y-103377142D02*
X172259523Y-103424761D01*
X172211904Y-103472380D01*
X172164285Y-103424761D01*
X172211904Y-103377142D01*
X172211904Y-103472380D01*
X173211904Y-103472380D02*
X172640476Y-103472380D01*
X172926190Y-103472380D02*
X172926190Y-102472380D01*
X172830952Y-102615238D01*
X172735714Y-102710476D01*
X172640476Y-102758095D01*
X174830952Y-102805714D02*
X174830952Y-103472380D01*
X174402380Y-102805714D02*
X174402380Y-103329523D01*
X174450000Y-103424761D01*
X174545238Y-103472380D01*
X174688095Y-103472380D01*
X174783333Y-103424761D01*
X174830952Y-103377142D01*
X175640476Y-102948571D02*
X175307142Y-102948571D01*
X175307142Y-103472380D02*
X175307142Y-102472380D01*
X175783333Y-102472380D01*
G04 #@! TO.C,C24*
X178147142Y-103157142D02*
X178099523Y-103204761D01*
X177956666Y-103252380D01*
X177861428Y-103252380D01*
X177718571Y-103204761D01*
X177623333Y-103109523D01*
X177575714Y-103014285D01*
X177528095Y-102823809D01*
X177528095Y-102680952D01*
X177575714Y-102490476D01*
X177623333Y-102395238D01*
X177718571Y-102300000D01*
X177861428Y-102252380D01*
X177956666Y-102252380D01*
X178099523Y-102300000D01*
X178147142Y-102347619D01*
X178528095Y-102347619D02*
X178575714Y-102300000D01*
X178670952Y-102252380D01*
X178909047Y-102252380D01*
X179004285Y-102300000D01*
X179051904Y-102347619D01*
X179099523Y-102442857D01*
X179099523Y-102538095D01*
X179051904Y-102680952D01*
X178480476Y-103252380D01*
X179099523Y-103252380D01*
X179956666Y-102585714D02*
X179956666Y-103252380D01*
X179718571Y-102204761D02*
X179480476Y-102919047D01*
X180099523Y-102919047D01*
X181661904Y-103087142D02*
X181709523Y-103134761D01*
X181661904Y-103182380D01*
X181614285Y-103134761D01*
X181661904Y-103087142D01*
X181661904Y-103182380D01*
X182661904Y-103182380D02*
X182090476Y-103182380D01*
X182376190Y-103182380D02*
X182376190Y-102182380D01*
X182280952Y-102325238D01*
X182185714Y-102420476D01*
X182090476Y-102468095D01*
X184280952Y-102515714D02*
X184280952Y-103182380D01*
X183852380Y-102515714D02*
X183852380Y-103039523D01*
X183900000Y-103134761D01*
X183995238Y-103182380D01*
X184138095Y-103182380D01*
X184233333Y-103134761D01*
X184280952Y-103087142D01*
X185090476Y-102658571D02*
X184757142Y-102658571D01*
X184757142Y-103182380D02*
X184757142Y-102182380D01*
X185233333Y-102182380D01*
G04 #@! TO.C,C25*
X176797142Y-120877142D02*
X176749523Y-120924761D01*
X176606666Y-120972380D01*
X176511428Y-120972380D01*
X176368571Y-120924761D01*
X176273333Y-120829523D01*
X176225714Y-120734285D01*
X176178095Y-120543809D01*
X176178095Y-120400952D01*
X176225714Y-120210476D01*
X176273333Y-120115238D01*
X176368571Y-120020000D01*
X176511428Y-119972380D01*
X176606666Y-119972380D01*
X176749523Y-120020000D01*
X176797142Y-120067619D01*
X177178095Y-120067619D02*
X177225714Y-120020000D01*
X177320952Y-119972380D01*
X177559047Y-119972380D01*
X177654285Y-120020000D01*
X177701904Y-120067619D01*
X177749523Y-120162857D01*
X177749523Y-120258095D01*
X177701904Y-120400952D01*
X177130476Y-120972380D01*
X177749523Y-120972380D01*
X178654285Y-119972380D02*
X178178095Y-119972380D01*
X178130476Y-120448571D01*
X178178095Y-120400952D01*
X178273333Y-120353333D01*
X178511428Y-120353333D01*
X178606666Y-120400952D01*
X178654285Y-120448571D01*
X178701904Y-120543809D01*
X178701904Y-120781904D01*
X178654285Y-120877142D01*
X178606666Y-120924761D01*
X178511428Y-120972380D01*
X178273333Y-120972380D01*
X178178095Y-120924761D01*
X178130476Y-120877142D01*
X176232857Y-122227142D02*
X176280476Y-122274761D01*
X176232857Y-122322380D01*
X176185238Y-122274761D01*
X176232857Y-122227142D01*
X176232857Y-122322380D01*
X177232857Y-122322380D02*
X176661428Y-122322380D01*
X176947142Y-122322380D02*
X176947142Y-121322380D01*
X176851904Y-121465238D01*
X176756666Y-121560476D01*
X176661428Y-121608095D01*
X178090000Y-121655714D02*
X178090000Y-122322380D01*
X177661428Y-121655714D02*
X177661428Y-122179523D01*
X177709047Y-122274761D01*
X177804285Y-122322380D01*
X177947142Y-122322380D01*
X178042380Y-122274761D01*
X178090000Y-122227142D01*
X178899523Y-121798571D02*
X178566190Y-121798571D01*
X178566190Y-122322380D02*
X178566190Y-121322380D01*
X179042380Y-121322380D01*
G04 #@! TO.C,CON1*
X155654142Y-97332985D02*
X155701761Y-97380604D01*
X155749380Y-97523461D01*
X155749380Y-97618700D01*
X155701761Y-97761557D01*
X155606523Y-97856795D01*
X155511285Y-97904414D01*
X155320809Y-97952033D01*
X155177952Y-97952033D01*
X154987476Y-97904414D01*
X154892238Y-97856795D01*
X154797000Y-97761557D01*
X154749380Y-97618700D01*
X154749380Y-97523461D01*
X154797000Y-97380604D01*
X154844619Y-97332985D01*
X154749380Y-96713938D02*
X154749380Y-96523461D01*
X154797000Y-96428223D01*
X154892238Y-96332985D01*
X155082714Y-96285366D01*
X155416047Y-96285366D01*
X155606523Y-96332985D01*
X155701761Y-96428223D01*
X155749380Y-96523461D01*
X155749380Y-96713938D01*
X155701761Y-96809176D01*
X155606523Y-96904414D01*
X155416047Y-96952033D01*
X155082714Y-96952033D01*
X154892238Y-96904414D01*
X154797000Y-96809176D01*
X154749380Y-96713938D01*
X155749380Y-95856795D02*
X154749380Y-95856795D01*
X155749380Y-95285366D01*
X154749380Y-95285366D01*
X155749380Y-94285366D02*
X155749380Y-94856795D01*
X155749380Y-94571080D02*
X154749380Y-94571080D01*
X154892238Y-94666319D01*
X154987476Y-94761557D01*
X155035095Y-94856795D01*
G04 #@! TO.C,D1*
X113652380Y-59138095D02*
X112652380Y-59138095D01*
X112652380Y-58900000D01*
X112700000Y-58757142D01*
X112795238Y-58661904D01*
X112890476Y-58614285D01*
X113080952Y-58566666D01*
X113223809Y-58566666D01*
X113414285Y-58614285D01*
X113509523Y-58661904D01*
X113604761Y-58757142D01*
X113652380Y-58900000D01*
X113652380Y-59138095D01*
X113652380Y-57614285D02*
X113652380Y-58185714D01*
X113652380Y-57900000D02*
X112652380Y-57900000D01*
X112795238Y-57995238D01*
X112890476Y-58090476D01*
X112938095Y-58185714D01*
G04 #@! TO.C,D2*
X104952380Y-59238095D02*
X103952380Y-59238095D01*
X103952380Y-59000000D01*
X104000000Y-58857142D01*
X104095238Y-58761904D01*
X104190476Y-58714285D01*
X104380952Y-58666666D01*
X104523809Y-58666666D01*
X104714285Y-58714285D01*
X104809523Y-58761904D01*
X104904761Y-58857142D01*
X104952380Y-59000000D01*
X104952380Y-59238095D01*
X104047619Y-58285714D02*
X104000000Y-58238095D01*
X103952380Y-58142857D01*
X103952380Y-57904761D01*
X104000000Y-57809523D01*
X104047619Y-57761904D01*
X104142857Y-57714285D01*
X104238095Y-57714285D01*
X104380952Y-57761904D01*
X104952380Y-58333333D01*
X104952380Y-57714285D01*
G04 #@! TO.C,D3*
X161604380Y-75977995D02*
X160604380Y-75977995D01*
X160604380Y-75739900D01*
X160652000Y-75597042D01*
X160747238Y-75501804D01*
X160842476Y-75454185D01*
X161032952Y-75406566D01*
X161175809Y-75406566D01*
X161366285Y-75454185D01*
X161461523Y-75501804D01*
X161556761Y-75597042D01*
X161604380Y-75739900D01*
X161604380Y-75977995D01*
X160604380Y-75073233D02*
X160604380Y-74454185D01*
X160985333Y-74787519D01*
X160985333Y-74644661D01*
X161032952Y-74549423D01*
X161080571Y-74501804D01*
X161175809Y-74454185D01*
X161413904Y-74454185D01*
X161509142Y-74501804D01*
X161556761Y-74549423D01*
X161604380Y-74644661D01*
X161604380Y-74930376D01*
X161556761Y-75025614D01*
X161509142Y-75073233D01*
G04 #@! TO.C,D5*
X146581904Y-60650380D02*
X146581904Y-59650380D01*
X146820000Y-59650380D01*
X146962857Y-59698000D01*
X147058095Y-59793238D01*
X147105714Y-59888476D01*
X147153333Y-60078952D01*
X147153333Y-60221809D01*
X147105714Y-60412285D01*
X147058095Y-60507523D01*
X146962857Y-60602761D01*
X146820000Y-60650380D01*
X146581904Y-60650380D01*
X148058095Y-59650380D02*
X147581904Y-59650380D01*
X147534285Y-60126571D01*
X147581904Y-60078952D01*
X147677142Y-60031333D01*
X147915238Y-60031333D01*
X148010476Y-60078952D01*
X148058095Y-60126571D01*
X148105714Y-60221809D01*
X148105714Y-60459904D01*
X148058095Y-60555142D01*
X148010476Y-60602761D01*
X147915238Y-60650380D01*
X147677142Y-60650380D01*
X147581904Y-60602761D01*
X147534285Y-60555142D01*
G04 #@! TO.C,D6*
X119388904Y-68664980D02*
X119388904Y-67664980D01*
X119627000Y-67664980D01*
X119769857Y-67712600D01*
X119865095Y-67807838D01*
X119912714Y-67903076D01*
X119960333Y-68093552D01*
X119960333Y-68236409D01*
X119912714Y-68426885D01*
X119865095Y-68522123D01*
X119769857Y-68617361D01*
X119627000Y-68664980D01*
X119388904Y-68664980D01*
X120817476Y-67664980D02*
X120627000Y-67664980D01*
X120531761Y-67712600D01*
X120484142Y-67760219D01*
X120388904Y-67903076D01*
X120341285Y-68093552D01*
X120341285Y-68474504D01*
X120388904Y-68569742D01*
X120436523Y-68617361D01*
X120531761Y-68664980D01*
X120722238Y-68664980D01*
X120817476Y-68617361D01*
X120865095Y-68569742D01*
X120912714Y-68474504D01*
X120912714Y-68236409D01*
X120865095Y-68141171D01*
X120817476Y-68093552D01*
X120722238Y-68045933D01*
X120531761Y-68045933D01*
X120436523Y-68093552D01*
X120388904Y-68141171D01*
X120341285Y-68236409D01*
G04 #@! TO.C,D7*
X125230904Y-68664980D02*
X125230904Y-67664980D01*
X125469000Y-67664980D01*
X125611857Y-67712600D01*
X125707095Y-67807838D01*
X125754714Y-67903076D01*
X125802333Y-68093552D01*
X125802333Y-68236409D01*
X125754714Y-68426885D01*
X125707095Y-68522123D01*
X125611857Y-68617361D01*
X125469000Y-68664980D01*
X125230904Y-68664980D01*
X126135666Y-67664980D02*
X126802333Y-67664980D01*
X126373761Y-68664980D01*
G04 #@! TO.C,D8*
X155205904Y-88432280D02*
X155205904Y-87432280D01*
X155444000Y-87432280D01*
X155586857Y-87479900D01*
X155682095Y-87575138D01*
X155729714Y-87670376D01*
X155777333Y-87860852D01*
X155777333Y-88003709D01*
X155729714Y-88194185D01*
X155682095Y-88289423D01*
X155586857Y-88384661D01*
X155444000Y-88432280D01*
X155205904Y-88432280D01*
X156348761Y-87860852D02*
X156253523Y-87813233D01*
X156205904Y-87765614D01*
X156158285Y-87670376D01*
X156158285Y-87622757D01*
X156205904Y-87527519D01*
X156253523Y-87479900D01*
X156348761Y-87432280D01*
X156539238Y-87432280D01*
X156634476Y-87479900D01*
X156682095Y-87527519D01*
X156729714Y-87622757D01*
X156729714Y-87670376D01*
X156682095Y-87765614D01*
X156634476Y-87813233D01*
X156539238Y-87860852D01*
X156348761Y-87860852D01*
X156253523Y-87908471D01*
X156205904Y-87956090D01*
X156158285Y-88051328D01*
X156158285Y-88241804D01*
X156205904Y-88337042D01*
X156253523Y-88384661D01*
X156348761Y-88432280D01*
X156539238Y-88432280D01*
X156634476Y-88384661D01*
X156682095Y-88337042D01*
X156729714Y-88241804D01*
X156729714Y-88051328D01*
X156682095Y-87956090D01*
X156634476Y-87908471D01*
X156539238Y-87860852D01*
G04 #@! TO.C,D9*
X167785904Y-88352280D02*
X167785904Y-87352280D01*
X168024000Y-87352280D01*
X168166857Y-87399900D01*
X168262095Y-87495138D01*
X168309714Y-87590376D01*
X168357333Y-87780852D01*
X168357333Y-87923709D01*
X168309714Y-88114185D01*
X168262095Y-88209423D01*
X168166857Y-88304661D01*
X168024000Y-88352280D01*
X167785904Y-88352280D01*
X168833523Y-88352280D02*
X169024000Y-88352280D01*
X169119238Y-88304661D01*
X169166857Y-88257042D01*
X169262095Y-88114185D01*
X169309714Y-87923709D01*
X169309714Y-87542757D01*
X169262095Y-87447519D01*
X169214476Y-87399900D01*
X169119238Y-87352280D01*
X168928761Y-87352280D01*
X168833523Y-87399900D01*
X168785904Y-87447519D01*
X168738285Y-87542757D01*
X168738285Y-87780852D01*
X168785904Y-87876090D01*
X168833523Y-87923709D01*
X168928761Y-87971328D01*
X169119238Y-87971328D01*
X169214476Y-87923709D01*
X169262095Y-87876090D01*
X169309714Y-87780852D01*
G04 #@! TO.C,J8*
X184558666Y-74302780D02*
X184558666Y-75017066D01*
X184511047Y-75159923D01*
X184415809Y-75255161D01*
X184272952Y-75302780D01*
X184177714Y-75302780D01*
X185177714Y-74731352D02*
X185082476Y-74683733D01*
X185034857Y-74636114D01*
X184987238Y-74540876D01*
X184987238Y-74493257D01*
X185034857Y-74398019D01*
X185082476Y-74350400D01*
X185177714Y-74302780D01*
X185368190Y-74302780D01*
X185463428Y-74350400D01*
X185511047Y-74398019D01*
X185558666Y-74493257D01*
X185558666Y-74540876D01*
X185511047Y-74636114D01*
X185463428Y-74683733D01*
X185368190Y-74731352D01*
X185177714Y-74731352D01*
X185082476Y-74778971D01*
X185034857Y-74826590D01*
X184987238Y-74921828D01*
X184987238Y-75112304D01*
X185034857Y-75207542D01*
X185082476Y-75255161D01*
X185177714Y-75302780D01*
X185368190Y-75302780D01*
X185463428Y-75255161D01*
X185511047Y-75207542D01*
X185558666Y-75112304D01*
X185558666Y-74921828D01*
X185511047Y-74826590D01*
X185463428Y-74778971D01*
X185368190Y-74731352D01*
G04 #@! TO.C,R1*
X109554333Y-64220780D02*
X109221000Y-63744590D01*
X108982904Y-64220780D02*
X108982904Y-63220780D01*
X109363857Y-63220780D01*
X109459095Y-63268400D01*
X109506714Y-63316019D01*
X109554333Y-63411257D01*
X109554333Y-63554114D01*
X109506714Y-63649352D01*
X109459095Y-63696971D01*
X109363857Y-63744590D01*
X108982904Y-63744590D01*
X110506714Y-64220780D02*
X109935285Y-64220780D01*
X110221000Y-64220780D02*
X110221000Y-63220780D01*
X110125761Y-63363638D01*
X110030523Y-63458876D01*
X109935285Y-63506495D01*
X109673380Y-66970780D02*
X109768619Y-66970780D01*
X109863857Y-67018400D01*
X109911476Y-67066019D01*
X109959095Y-67161257D01*
X110006714Y-67351733D01*
X110006714Y-67589828D01*
X109959095Y-67780304D01*
X109911476Y-67875542D01*
X109863857Y-67923161D01*
X109768619Y-67970780D01*
X109673380Y-67970780D01*
X109578142Y-67923161D01*
X109530523Y-67875542D01*
X109482904Y-67780304D01*
X109435285Y-67589828D01*
X109435285Y-67351733D01*
X109482904Y-67161257D01*
X109530523Y-67066019D01*
X109578142Y-67018400D01*
X109673380Y-66970780D01*
G04 #@! TO.C,R4*
X158329333Y-82494380D02*
X157996000Y-82018190D01*
X157757904Y-82494380D02*
X157757904Y-81494380D01*
X158138857Y-81494380D01*
X158234095Y-81542000D01*
X158281714Y-81589619D01*
X158329333Y-81684857D01*
X158329333Y-81827714D01*
X158281714Y-81922952D01*
X158234095Y-81970571D01*
X158138857Y-82018190D01*
X157757904Y-82018190D01*
X159186476Y-81827714D02*
X159186476Y-82494380D01*
X158948380Y-81446761D02*
X158710285Y-82161047D01*
X159329333Y-82161047D01*
X153582761Y-84018380D02*
X153773238Y-84018380D01*
X153868476Y-83970761D01*
X153916095Y-83923142D01*
X154011333Y-83780285D01*
X154058952Y-83589809D01*
X154058952Y-83208857D01*
X154011333Y-83113619D01*
X153963714Y-83066000D01*
X153868476Y-83018380D01*
X153678000Y-83018380D01*
X153582761Y-83066000D01*
X153535142Y-83113619D01*
X153487523Y-83208857D01*
X153487523Y-83446952D01*
X153535142Y-83542190D01*
X153582761Y-83589809D01*
X153678000Y-83637428D01*
X153868476Y-83637428D01*
X153963714Y-83589809D01*
X154011333Y-83542190D01*
X154058952Y-83446952D01*
X154487523Y-84018380D02*
X154487523Y-83018380D01*
X154582761Y-83637428D02*
X154868476Y-84018380D01*
X154868476Y-83351714D02*
X154487523Y-83732666D01*
G04 #@! TO.C,R5*
X144105333Y-54990380D02*
X143772000Y-54514190D01*
X143533904Y-54990380D02*
X143533904Y-53990380D01*
X143914857Y-53990380D01*
X144010095Y-54038000D01*
X144057714Y-54085619D01*
X144105333Y-54180857D01*
X144105333Y-54323714D01*
X144057714Y-54418952D01*
X144010095Y-54466571D01*
X143914857Y-54514190D01*
X143533904Y-54514190D01*
X145010095Y-53990380D02*
X144533904Y-53990380D01*
X144486285Y-54466571D01*
X144533904Y-54418952D01*
X144629142Y-54371333D01*
X144867238Y-54371333D01*
X144962476Y-54418952D01*
X145010095Y-54466571D01*
X145057714Y-54561809D01*
X145057714Y-54799904D01*
X145010095Y-54895142D01*
X144962476Y-54942761D01*
X144867238Y-54990380D01*
X144629142Y-54990380D01*
X144533904Y-54942761D01*
X144486285Y-54895142D01*
X148624380Y-57154666D02*
X148624380Y-57726095D01*
X148624380Y-57440380D02*
X147624380Y-57440380D01*
X147767238Y-57535619D01*
X147862476Y-57630857D01*
X147910095Y-57726095D01*
X147719619Y-56773714D02*
X147672000Y-56726095D01*
X147624380Y-56630857D01*
X147624380Y-56392761D01*
X147672000Y-56297523D01*
X147719619Y-56249904D01*
X147814857Y-56202285D01*
X147910095Y-56202285D01*
X148052952Y-56249904D01*
X148624380Y-56821333D01*
X148624380Y-56202285D01*
X147624380Y-55297523D02*
X147624380Y-55773714D01*
X148100571Y-55821333D01*
X148052952Y-55773714D01*
X148005333Y-55678476D01*
X148005333Y-55440380D01*
X148052952Y-55345142D01*
X148100571Y-55297523D01*
X148195809Y-55249904D01*
X148433904Y-55249904D01*
X148529142Y-55297523D01*
X148576761Y-55345142D01*
X148624380Y-55440380D01*
X148624380Y-55678476D01*
X148576761Y-55773714D01*
X148529142Y-55821333D01*
G04 #@! TO.C,R6*
X165413333Y-82462380D02*
X165080000Y-81986190D01*
X164841904Y-82462380D02*
X164841904Y-81462380D01*
X165222857Y-81462380D01*
X165318095Y-81510000D01*
X165365714Y-81557619D01*
X165413333Y-81652857D01*
X165413333Y-81795714D01*
X165365714Y-81890952D01*
X165318095Y-81938571D01*
X165222857Y-81986190D01*
X164841904Y-81986190D01*
X166270476Y-81462380D02*
X166080000Y-81462380D01*
X165984761Y-81510000D01*
X165937142Y-81557619D01*
X165841904Y-81700476D01*
X165794285Y-81890952D01*
X165794285Y-82271904D01*
X165841904Y-82367142D01*
X165889523Y-82414761D01*
X165984761Y-82462380D01*
X166175238Y-82462380D01*
X166270476Y-82414761D01*
X166318095Y-82367142D01*
X166365714Y-82271904D01*
X166365714Y-82033809D01*
X166318095Y-81938571D01*
X166270476Y-81890952D01*
X166175238Y-81843333D01*
X165984761Y-81843333D01*
X165889523Y-81890952D01*
X165841904Y-81938571D01*
X165794285Y-82033809D01*
X170060952Y-84412380D02*
X169489523Y-84412380D01*
X169775238Y-84412380D02*
X169775238Y-83412380D01*
X169680000Y-83555238D01*
X169584761Y-83650476D01*
X169489523Y-83698095D01*
X170489523Y-84412380D02*
X170489523Y-83412380D01*
X170584761Y-84031428D02*
X170870476Y-84412380D01*
X170870476Y-83745714D02*
X170489523Y-84126666D01*
G04 #@! TO.C,R7*
X126579333Y-64134380D02*
X126246000Y-63658190D01*
X126007904Y-64134380D02*
X126007904Y-63134380D01*
X126388857Y-63134380D01*
X126484095Y-63182000D01*
X126531714Y-63229619D01*
X126579333Y-63324857D01*
X126579333Y-63467714D01*
X126531714Y-63562952D01*
X126484095Y-63610571D01*
X126388857Y-63658190D01*
X126007904Y-63658190D01*
X126912666Y-63134380D02*
X127579333Y-63134380D01*
X127150761Y-64134380D01*
X130976761Y-65984380D02*
X130405333Y-65984380D01*
X130691047Y-65984380D02*
X130691047Y-64984380D01*
X130595809Y-65127238D01*
X130500571Y-65222476D01*
X130405333Y-65270095D01*
X131595809Y-64984380D02*
X131691047Y-64984380D01*
X131786285Y-65032000D01*
X131833904Y-65079619D01*
X131881523Y-65174857D01*
X131929142Y-65365333D01*
X131929142Y-65603428D01*
X131881523Y-65793904D01*
X131833904Y-65889142D01*
X131786285Y-65936761D01*
X131691047Y-65984380D01*
X131595809Y-65984380D01*
X131500571Y-65936761D01*
X131452952Y-65889142D01*
X131405333Y-65793904D01*
X131357714Y-65603428D01*
X131357714Y-65365333D01*
X131405333Y-65174857D01*
X131452952Y-65079619D01*
X131500571Y-65032000D01*
X131595809Y-64984380D01*
X132357714Y-65984380D02*
X132357714Y-64984380D01*
X132452952Y-65603428D02*
X132738666Y-65984380D01*
X132738666Y-65317714D02*
X132357714Y-65698666D01*
G04 #@! TO.C,R8*
X96952380Y-114776666D02*
X96476190Y-115110000D01*
X96952380Y-115348095D02*
X95952380Y-115348095D01*
X95952380Y-114967142D01*
X96000000Y-114871904D01*
X96047619Y-114824285D01*
X96142857Y-114776666D01*
X96285714Y-114776666D01*
X96380952Y-114824285D01*
X96428571Y-114871904D01*
X96476190Y-114967142D01*
X96476190Y-115348095D01*
X96380952Y-114205238D02*
X96333333Y-114300476D01*
X96285714Y-114348095D01*
X96190476Y-114395714D01*
X96142857Y-114395714D01*
X96047619Y-114348095D01*
X96000000Y-114300476D01*
X95952380Y-114205238D01*
X95952380Y-114014761D01*
X96000000Y-113919523D01*
X96047619Y-113871904D01*
X96142857Y-113824285D01*
X96190476Y-113824285D01*
X96285714Y-113871904D01*
X96333333Y-113919523D01*
X96380952Y-114014761D01*
X96380952Y-114205238D01*
X96428571Y-114300476D01*
X96476190Y-114348095D01*
X96571428Y-114395714D01*
X96761904Y-114395714D01*
X96857142Y-114348095D01*
X96904761Y-114300476D01*
X96952380Y-114205238D01*
X96952380Y-114014761D01*
X96904761Y-113919523D01*
X96857142Y-113871904D01*
X96761904Y-113824285D01*
X96571428Y-113824285D01*
X96476190Y-113871904D01*
X96428571Y-113919523D01*
X96380952Y-114014761D01*
X94385714Y-112788571D02*
X95052380Y-112788571D01*
X94004761Y-113026666D02*
X94719047Y-113264761D01*
X94719047Y-112645714D01*
X94052380Y-112360000D02*
X94052380Y-111740952D01*
X94433333Y-112074285D01*
X94433333Y-111931428D01*
X94480952Y-111836190D01*
X94528571Y-111788571D01*
X94623809Y-111740952D01*
X94861904Y-111740952D01*
X94957142Y-111788571D01*
X95004761Y-111836190D01*
X95052380Y-111931428D01*
X95052380Y-112217142D01*
X95004761Y-112312380D01*
X94957142Y-112360000D01*
X94052380Y-111121904D02*
X94052380Y-111026666D01*
X94100000Y-110931428D01*
X94147619Y-110883809D01*
X94242857Y-110836190D01*
X94433333Y-110788571D01*
X94671428Y-110788571D01*
X94861904Y-110836190D01*
X94957142Y-110883809D01*
X95004761Y-110931428D01*
X95052380Y-111026666D01*
X95052380Y-111121904D01*
X95004761Y-111217142D01*
X94957142Y-111264761D01*
X94861904Y-111312380D01*
X94671428Y-111360000D01*
X94433333Y-111360000D01*
X94242857Y-111312380D01*
X94147619Y-111264761D01*
X94100000Y-111217142D01*
X94052380Y-111121904D01*
X94957142Y-109598095D02*
X95004761Y-109550476D01*
X95052380Y-109598095D01*
X95004761Y-109645714D01*
X94957142Y-109598095D01*
X95052380Y-109598095D01*
X95052380Y-108598095D02*
X95052380Y-109169523D01*
X95052380Y-108883809D02*
X94052380Y-108883809D01*
X94195238Y-108979047D01*
X94290476Y-109074285D01*
X94338095Y-109169523D01*
X95052380Y-108217142D02*
X94052380Y-107455238D01*
X94052380Y-108074285D02*
X94100000Y-107979047D01*
X94195238Y-107931428D01*
X94290476Y-107979047D01*
X94338095Y-108074285D01*
X94290476Y-108169523D01*
X94195238Y-108217142D01*
X94100000Y-108169523D01*
X94052380Y-108074285D01*
X95004761Y-107502857D02*
X94909523Y-107455238D01*
X94814285Y-107502857D01*
X94766666Y-107598095D01*
X94814285Y-107693333D01*
X94909523Y-107740952D01*
X95004761Y-107693333D01*
X95052380Y-107598095D01*
X95004761Y-107502857D01*
G04 #@! TO.C,R9*
X115122380Y-116736666D02*
X114646190Y-117070000D01*
X115122380Y-117308095D02*
X114122380Y-117308095D01*
X114122380Y-116927142D01*
X114170000Y-116831904D01*
X114217619Y-116784285D01*
X114312857Y-116736666D01*
X114455714Y-116736666D01*
X114550952Y-116784285D01*
X114598571Y-116831904D01*
X114646190Y-116927142D01*
X114646190Y-117308095D01*
X115122380Y-116260476D02*
X115122380Y-116070000D01*
X115074761Y-115974761D01*
X115027142Y-115927142D01*
X114884285Y-115831904D01*
X114693809Y-115784285D01*
X114312857Y-115784285D01*
X114217619Y-115831904D01*
X114170000Y-115879523D01*
X114122380Y-115974761D01*
X114122380Y-116165238D01*
X114170000Y-116260476D01*
X114217619Y-116308095D01*
X114312857Y-116355714D01*
X114550952Y-116355714D01*
X114646190Y-116308095D01*
X114693809Y-116260476D01*
X114741428Y-116165238D01*
X114741428Y-115974761D01*
X114693809Y-115879523D01*
X114646190Y-115831904D01*
X114550952Y-115784285D01*
X112495714Y-114078571D02*
X113162380Y-114078571D01*
X112114761Y-114316666D02*
X112829047Y-114554761D01*
X112829047Y-113935714D01*
X112162380Y-113650000D02*
X112162380Y-113030952D01*
X112543333Y-113364285D01*
X112543333Y-113221428D01*
X112590952Y-113126190D01*
X112638571Y-113078571D01*
X112733809Y-113030952D01*
X112971904Y-113030952D01*
X113067142Y-113078571D01*
X113114761Y-113126190D01*
X113162380Y-113221428D01*
X113162380Y-113507142D01*
X113114761Y-113602380D01*
X113067142Y-113650000D01*
X112162380Y-112411904D02*
X112162380Y-112316666D01*
X112210000Y-112221428D01*
X112257619Y-112173809D01*
X112352857Y-112126190D01*
X112543333Y-112078571D01*
X112781428Y-112078571D01*
X112971904Y-112126190D01*
X113067142Y-112173809D01*
X113114761Y-112221428D01*
X113162380Y-112316666D01*
X113162380Y-112411904D01*
X113114761Y-112507142D01*
X113067142Y-112554761D01*
X112971904Y-112602380D01*
X112781428Y-112650000D01*
X112543333Y-112650000D01*
X112352857Y-112602380D01*
X112257619Y-112554761D01*
X112210000Y-112507142D01*
X112162380Y-112411904D01*
X113067142Y-110888095D02*
X113114761Y-110840476D01*
X113162380Y-110888095D01*
X113114761Y-110935714D01*
X113067142Y-110888095D01*
X113162380Y-110888095D01*
X113162380Y-109888095D02*
X113162380Y-110459523D01*
X113162380Y-110173809D02*
X112162380Y-110173809D01*
X112305238Y-110269047D01*
X112400476Y-110364285D01*
X112448095Y-110459523D01*
X113162380Y-109507142D02*
X112162380Y-108745238D01*
X112162380Y-109364285D02*
X112210000Y-109269047D01*
X112305238Y-109221428D01*
X112400476Y-109269047D01*
X112448095Y-109364285D01*
X112400476Y-109459523D01*
X112305238Y-109507142D01*
X112210000Y-109459523D01*
X112162380Y-109364285D01*
X113114761Y-108792857D02*
X113019523Y-108745238D01*
X112924285Y-108792857D01*
X112876666Y-108888095D01*
X112924285Y-108983333D01*
X113019523Y-109030952D01*
X113114761Y-108983333D01*
X113162380Y-108888095D01*
X113114761Y-108792857D01*
G04 #@! TO.C,R10*
X134552380Y-118742857D02*
X134076190Y-119076190D01*
X134552380Y-119314285D02*
X133552380Y-119314285D01*
X133552380Y-118933333D01*
X133600000Y-118838095D01*
X133647619Y-118790476D01*
X133742857Y-118742857D01*
X133885714Y-118742857D01*
X133980952Y-118790476D01*
X134028571Y-118838095D01*
X134076190Y-118933333D01*
X134076190Y-119314285D01*
X134552380Y-117790476D02*
X134552380Y-118361904D01*
X134552380Y-118076190D02*
X133552380Y-118076190D01*
X133695238Y-118171428D01*
X133790476Y-118266666D01*
X133838095Y-118361904D01*
X133552380Y-117171428D02*
X133552380Y-117076190D01*
X133600000Y-116980952D01*
X133647619Y-116933333D01*
X133742857Y-116885714D01*
X133933333Y-116838095D01*
X134171428Y-116838095D01*
X134361904Y-116885714D01*
X134457142Y-116933333D01*
X134504761Y-116980952D01*
X134552380Y-117076190D01*
X134552380Y-117171428D01*
X134504761Y-117266666D01*
X134457142Y-117314285D01*
X134361904Y-117361904D01*
X134171428Y-117409523D01*
X133933333Y-117409523D01*
X133742857Y-117361904D01*
X133647619Y-117314285D01*
X133600000Y-117266666D01*
X133552380Y-117171428D01*
X131945714Y-115198571D02*
X132612380Y-115198571D01*
X131564761Y-115436666D02*
X132279047Y-115674761D01*
X132279047Y-115055714D01*
X131612380Y-114770000D02*
X131612380Y-114150952D01*
X131993333Y-114484285D01*
X131993333Y-114341428D01*
X132040952Y-114246190D01*
X132088571Y-114198571D01*
X132183809Y-114150952D01*
X132421904Y-114150952D01*
X132517142Y-114198571D01*
X132564761Y-114246190D01*
X132612380Y-114341428D01*
X132612380Y-114627142D01*
X132564761Y-114722380D01*
X132517142Y-114770000D01*
X131612380Y-113531904D02*
X131612380Y-113436666D01*
X131660000Y-113341428D01*
X131707619Y-113293809D01*
X131802857Y-113246190D01*
X131993333Y-113198571D01*
X132231428Y-113198571D01*
X132421904Y-113246190D01*
X132517142Y-113293809D01*
X132564761Y-113341428D01*
X132612380Y-113436666D01*
X132612380Y-113531904D01*
X132564761Y-113627142D01*
X132517142Y-113674761D01*
X132421904Y-113722380D01*
X132231428Y-113770000D01*
X131993333Y-113770000D01*
X131802857Y-113722380D01*
X131707619Y-113674761D01*
X131660000Y-113627142D01*
X131612380Y-113531904D01*
X132517142Y-112008095D02*
X132564761Y-111960476D01*
X132612380Y-112008095D01*
X132564761Y-112055714D01*
X132517142Y-112008095D01*
X132612380Y-112008095D01*
X132612380Y-111008095D02*
X132612380Y-111579523D01*
X132612380Y-111293809D02*
X131612380Y-111293809D01*
X131755238Y-111389047D01*
X131850476Y-111484285D01*
X131898095Y-111579523D01*
X132612380Y-110627142D02*
X131612380Y-109865238D01*
X131612380Y-110484285D02*
X131660000Y-110389047D01*
X131755238Y-110341428D01*
X131850476Y-110389047D01*
X131898095Y-110484285D01*
X131850476Y-110579523D01*
X131755238Y-110627142D01*
X131660000Y-110579523D01*
X131612380Y-110484285D01*
X132564761Y-109912857D02*
X132469523Y-109865238D01*
X132374285Y-109912857D01*
X132326666Y-110008095D01*
X132374285Y-110103333D01*
X132469523Y-110150952D01*
X132564761Y-110103333D01*
X132612380Y-110008095D01*
X132564761Y-109912857D01*
G04 #@! TO.C,R11*
X153412380Y-117692857D02*
X152936190Y-118026190D01*
X153412380Y-118264285D02*
X152412380Y-118264285D01*
X152412380Y-117883333D01*
X152460000Y-117788095D01*
X152507619Y-117740476D01*
X152602857Y-117692857D01*
X152745714Y-117692857D01*
X152840952Y-117740476D01*
X152888571Y-117788095D01*
X152936190Y-117883333D01*
X152936190Y-118264285D01*
X153412380Y-116740476D02*
X153412380Y-117311904D01*
X153412380Y-117026190D02*
X152412380Y-117026190D01*
X152555238Y-117121428D01*
X152650476Y-117216666D01*
X152698095Y-117311904D01*
X153412380Y-115788095D02*
X153412380Y-116359523D01*
X153412380Y-116073809D02*
X152412380Y-116073809D01*
X152555238Y-116169047D01*
X152650476Y-116264285D01*
X152698095Y-116359523D01*
X150765714Y-114328571D02*
X151432380Y-114328571D01*
X150384761Y-114566666D02*
X151099047Y-114804761D01*
X151099047Y-114185714D01*
X150432380Y-113900000D02*
X150432380Y-113280952D01*
X150813333Y-113614285D01*
X150813333Y-113471428D01*
X150860952Y-113376190D01*
X150908571Y-113328571D01*
X151003809Y-113280952D01*
X151241904Y-113280952D01*
X151337142Y-113328571D01*
X151384761Y-113376190D01*
X151432380Y-113471428D01*
X151432380Y-113757142D01*
X151384761Y-113852380D01*
X151337142Y-113900000D01*
X150432380Y-112661904D02*
X150432380Y-112566666D01*
X150480000Y-112471428D01*
X150527619Y-112423809D01*
X150622857Y-112376190D01*
X150813333Y-112328571D01*
X151051428Y-112328571D01*
X151241904Y-112376190D01*
X151337142Y-112423809D01*
X151384761Y-112471428D01*
X151432380Y-112566666D01*
X151432380Y-112661904D01*
X151384761Y-112757142D01*
X151337142Y-112804761D01*
X151241904Y-112852380D01*
X151051428Y-112900000D01*
X150813333Y-112900000D01*
X150622857Y-112852380D01*
X150527619Y-112804761D01*
X150480000Y-112757142D01*
X150432380Y-112661904D01*
X151337142Y-111138095D02*
X151384761Y-111090476D01*
X151432380Y-111138095D01*
X151384761Y-111185714D01*
X151337142Y-111138095D01*
X151432380Y-111138095D01*
X151432380Y-110138095D02*
X151432380Y-110709523D01*
X151432380Y-110423809D02*
X150432380Y-110423809D01*
X150575238Y-110519047D01*
X150670476Y-110614285D01*
X150718095Y-110709523D01*
X151432380Y-109757142D02*
X150432380Y-108995238D01*
X150432380Y-109614285D02*
X150480000Y-109519047D01*
X150575238Y-109471428D01*
X150670476Y-109519047D01*
X150718095Y-109614285D01*
X150670476Y-109709523D01*
X150575238Y-109757142D01*
X150480000Y-109709523D01*
X150432380Y-109614285D01*
X151384761Y-109042857D02*
X151289523Y-108995238D01*
X151194285Y-109042857D01*
X151146666Y-109138095D01*
X151194285Y-109233333D01*
X151289523Y-109280952D01*
X151384761Y-109233333D01*
X151432380Y-109138095D01*
X151384761Y-109042857D01*
G04 #@! TO.C,R12*
X170132380Y-117572857D02*
X169656190Y-117906190D01*
X170132380Y-118144285D02*
X169132380Y-118144285D01*
X169132380Y-117763333D01*
X169180000Y-117668095D01*
X169227619Y-117620476D01*
X169322857Y-117572857D01*
X169465714Y-117572857D01*
X169560952Y-117620476D01*
X169608571Y-117668095D01*
X169656190Y-117763333D01*
X169656190Y-118144285D01*
X170132380Y-116620476D02*
X170132380Y-117191904D01*
X170132380Y-116906190D02*
X169132380Y-116906190D01*
X169275238Y-117001428D01*
X169370476Y-117096666D01*
X169418095Y-117191904D01*
X169227619Y-116239523D02*
X169180000Y-116191904D01*
X169132380Y-116096666D01*
X169132380Y-115858571D01*
X169180000Y-115763333D01*
X169227619Y-115715714D01*
X169322857Y-115668095D01*
X169418095Y-115668095D01*
X169560952Y-115715714D01*
X170132380Y-116287142D01*
X170132380Y-115668095D01*
X167625714Y-114098571D02*
X168292380Y-114098571D01*
X167244761Y-114336666D02*
X167959047Y-114574761D01*
X167959047Y-113955714D01*
X167292380Y-113670000D02*
X167292380Y-113050952D01*
X167673333Y-113384285D01*
X167673333Y-113241428D01*
X167720952Y-113146190D01*
X167768571Y-113098571D01*
X167863809Y-113050952D01*
X168101904Y-113050952D01*
X168197142Y-113098571D01*
X168244761Y-113146190D01*
X168292380Y-113241428D01*
X168292380Y-113527142D01*
X168244761Y-113622380D01*
X168197142Y-113670000D01*
X167292380Y-112431904D02*
X167292380Y-112336666D01*
X167340000Y-112241428D01*
X167387619Y-112193809D01*
X167482857Y-112146190D01*
X167673333Y-112098571D01*
X167911428Y-112098571D01*
X168101904Y-112146190D01*
X168197142Y-112193809D01*
X168244761Y-112241428D01*
X168292380Y-112336666D01*
X168292380Y-112431904D01*
X168244761Y-112527142D01*
X168197142Y-112574761D01*
X168101904Y-112622380D01*
X167911428Y-112670000D01*
X167673333Y-112670000D01*
X167482857Y-112622380D01*
X167387619Y-112574761D01*
X167340000Y-112527142D01*
X167292380Y-112431904D01*
X168197142Y-110908095D02*
X168244761Y-110860476D01*
X168292380Y-110908095D01*
X168244761Y-110955714D01*
X168197142Y-110908095D01*
X168292380Y-110908095D01*
X168292380Y-109908095D02*
X168292380Y-110479523D01*
X168292380Y-110193809D02*
X167292380Y-110193809D01*
X167435238Y-110289047D01*
X167530476Y-110384285D01*
X167578095Y-110479523D01*
X168292380Y-109527142D02*
X167292380Y-108765238D01*
X167292380Y-109384285D02*
X167340000Y-109289047D01*
X167435238Y-109241428D01*
X167530476Y-109289047D01*
X167578095Y-109384285D01*
X167530476Y-109479523D01*
X167435238Y-109527142D01*
X167340000Y-109479523D01*
X167292380Y-109384285D01*
X168244761Y-108812857D02*
X168149523Y-108765238D01*
X168054285Y-108812857D01*
X168006666Y-108908095D01*
X168054285Y-109003333D01*
X168149523Y-109050952D01*
X168244761Y-109003333D01*
X168292380Y-108908095D01*
X168244761Y-108812857D01*
G04 #@! TO.C,RV1*
X177534761Y-71868280D02*
X177201428Y-71392090D01*
X176963333Y-71868280D02*
X176963333Y-70868280D01*
X177344285Y-70868280D01*
X177439523Y-70915900D01*
X177487142Y-70963519D01*
X177534761Y-71058757D01*
X177534761Y-71201614D01*
X177487142Y-71296852D01*
X177439523Y-71344471D01*
X177344285Y-71392090D01*
X176963333Y-71392090D01*
X177820476Y-70868280D02*
X178153809Y-71868280D01*
X178487142Y-70868280D01*
X179344285Y-71868280D02*
X178772857Y-71868280D01*
X179058571Y-71868280D02*
X179058571Y-70868280D01*
X178963333Y-71011138D01*
X178868095Y-71106376D01*
X178772857Y-71153995D01*
G04 #@! TO.C,RV2*
X177534761Y-82804280D02*
X177201428Y-82328090D01*
X176963333Y-82804280D02*
X176963333Y-81804280D01*
X177344285Y-81804280D01*
X177439523Y-81851900D01*
X177487142Y-81899519D01*
X177534761Y-81994757D01*
X177534761Y-82137614D01*
X177487142Y-82232852D01*
X177439523Y-82280471D01*
X177344285Y-82328090D01*
X176963333Y-82328090D01*
X177820476Y-81804280D02*
X178153809Y-82804280D01*
X178487142Y-81804280D01*
X178772857Y-81899519D02*
X178820476Y-81851900D01*
X178915714Y-81804280D01*
X179153809Y-81804280D01*
X179249047Y-81851900D01*
X179296666Y-81899519D01*
X179344285Y-81994757D01*
X179344285Y-82089995D01*
X179296666Y-82232852D01*
X178725238Y-82804280D01*
X179344285Y-82804280D01*
G04 #@! TO.C,U2*
X135238095Y-79802380D02*
X135238095Y-80611904D01*
X135285714Y-80707142D01*
X135333333Y-80754761D01*
X135428571Y-80802380D01*
X135619047Y-80802380D01*
X135714285Y-80754761D01*
X135761904Y-80707142D01*
X135809523Y-80611904D01*
X135809523Y-79802380D01*
X136238095Y-79897619D02*
X136285714Y-79850000D01*
X136380952Y-79802380D01*
X136619047Y-79802380D01*
X136714285Y-79850000D01*
X136761904Y-79897619D01*
X136809523Y-79992857D01*
X136809523Y-80088095D01*
X136761904Y-80230952D01*
X136190476Y-80802380D01*
X136809523Y-80802380D01*
G04 #@! TO.C,U3*
X137922095Y-64918380D02*
X137922095Y-65727904D01*
X137969714Y-65823142D01*
X138017333Y-65870761D01*
X138112571Y-65918380D01*
X138303047Y-65918380D01*
X138398285Y-65870761D01*
X138445904Y-65823142D01*
X138493523Y-65727904D01*
X138493523Y-64918380D01*
X138874476Y-64918380D02*
X139493523Y-64918380D01*
X139160190Y-65299333D01*
X139303047Y-65299333D01*
X139398285Y-65346952D01*
X139445904Y-65394571D01*
X139493523Y-65489809D01*
X139493523Y-65727904D01*
X139445904Y-65823142D01*
X139398285Y-65870761D01*
X139303047Y-65918380D01*
X139017333Y-65918380D01*
X138922095Y-65870761D01*
X138874476Y-65823142D01*
G04 #@! TO.C,U4*
X103178095Y-105062380D02*
X103178095Y-105871904D01*
X103225714Y-105967142D01*
X103273333Y-106014761D01*
X103368571Y-106062380D01*
X103559047Y-106062380D01*
X103654285Y-106014761D01*
X103701904Y-105967142D01*
X103749523Y-105871904D01*
X103749523Y-105062380D01*
X104654285Y-105395714D02*
X104654285Y-106062380D01*
X104416190Y-105014761D02*
X104178095Y-105729047D01*
X104797142Y-105729047D01*
G04 #@! TO.C,U5*
X121448095Y-106292380D02*
X121448095Y-107101904D01*
X121495714Y-107197142D01*
X121543333Y-107244761D01*
X121638571Y-107292380D01*
X121829047Y-107292380D01*
X121924285Y-107244761D01*
X121971904Y-107197142D01*
X122019523Y-107101904D01*
X122019523Y-106292380D01*
X122971904Y-106292380D02*
X122495714Y-106292380D01*
X122448095Y-106768571D01*
X122495714Y-106720952D01*
X122590952Y-106673333D01*
X122829047Y-106673333D01*
X122924285Y-106720952D01*
X122971904Y-106768571D01*
X123019523Y-106863809D01*
X123019523Y-107101904D01*
X122971904Y-107197142D01*
X122924285Y-107244761D01*
X122829047Y-107292380D01*
X122590952Y-107292380D01*
X122495714Y-107244761D01*
X122448095Y-107197142D01*
G04 #@! TO.C,U6*
X141568095Y-107522380D02*
X141568095Y-108331904D01*
X141615714Y-108427142D01*
X141663333Y-108474761D01*
X141758571Y-108522380D01*
X141949047Y-108522380D01*
X142044285Y-108474761D01*
X142091904Y-108427142D01*
X142139523Y-108331904D01*
X142139523Y-107522380D01*
X143044285Y-107522380D02*
X142853809Y-107522380D01*
X142758571Y-107570000D01*
X142710952Y-107617619D01*
X142615714Y-107760476D01*
X142568095Y-107950952D01*
X142568095Y-108331904D01*
X142615714Y-108427142D01*
X142663333Y-108474761D01*
X142758571Y-108522380D01*
X142949047Y-108522380D01*
X143044285Y-108474761D01*
X143091904Y-108427142D01*
X143139523Y-108331904D01*
X143139523Y-108093809D01*
X143091904Y-107998571D01*
X143044285Y-107950952D01*
X142949047Y-107903333D01*
X142758571Y-107903333D01*
X142663333Y-107950952D01*
X142615714Y-107998571D01*
X142568095Y-108093809D01*
G04 #@! TO.C,U7*
X159758095Y-106452380D02*
X159758095Y-107261904D01*
X159805714Y-107357142D01*
X159853333Y-107404761D01*
X159948571Y-107452380D01*
X160139047Y-107452380D01*
X160234285Y-107404761D01*
X160281904Y-107357142D01*
X160329523Y-107261904D01*
X160329523Y-106452380D01*
X160710476Y-106452380D02*
X161377142Y-106452380D01*
X160948571Y-107452380D01*
G04 #@! TO.C,U8*
X176678095Y-106362380D02*
X176678095Y-107171904D01*
X176725714Y-107267142D01*
X176773333Y-107314761D01*
X176868571Y-107362380D01*
X177059047Y-107362380D01*
X177154285Y-107314761D01*
X177201904Y-107267142D01*
X177249523Y-107171904D01*
X177249523Y-106362380D01*
X177868571Y-106790952D02*
X177773333Y-106743333D01*
X177725714Y-106695714D01*
X177678095Y-106600476D01*
X177678095Y-106552857D01*
X177725714Y-106457619D01*
X177773333Y-106410000D01*
X177868571Y-106362380D01*
X178059047Y-106362380D01*
X178154285Y-106410000D01*
X178201904Y-106457619D01*
X178249523Y-106552857D01*
X178249523Y-106600476D01*
X178201904Y-106695714D01*
X178154285Y-106743333D01*
X178059047Y-106790952D01*
X177868571Y-106790952D01*
X177773333Y-106838571D01*
X177725714Y-106886190D01*
X177678095Y-106981428D01*
X177678095Y-107171904D01*
X177725714Y-107267142D01*
X177773333Y-107314761D01*
X177868571Y-107362380D01*
X178059047Y-107362380D01*
X178154285Y-107314761D01*
X178201904Y-107267142D01*
X178249523Y-107171904D01*
X178249523Y-106981428D01*
X178201904Y-106886190D01*
X178154285Y-106838571D01*
X178059047Y-106790952D01*
G04 #@! TO.C,U1*
X113929095Y-73107280D02*
X113929095Y-73916804D01*
X113976714Y-74012042D01*
X114024333Y-74059661D01*
X114119571Y-74107280D01*
X114310047Y-74107280D01*
X114405285Y-74059661D01*
X114452904Y-74012042D01*
X114500523Y-73916804D01*
X114500523Y-73107280D01*
X115500523Y-74107280D02*
X114929095Y-74107280D01*
X115214809Y-74107280D02*
X115214809Y-73107280D01*
X115119571Y-73250138D01*
X115024333Y-73345376D01*
X114929095Y-73392995D01*
G04 #@! TO.C,F1*
X169922666Y-69580471D02*
X169589333Y-69580471D01*
X169589333Y-70104280D02*
X169589333Y-69104280D01*
X170065523Y-69104280D01*
X170970285Y-70104280D02*
X170398857Y-70104280D01*
X170684571Y-70104280D02*
X170684571Y-69104280D01*
X170589333Y-69247138D01*
X170494095Y-69342376D01*
X170398857Y-69389995D01*
G04 #@! TO.C,F2*
X169922666Y-82534471D02*
X169589333Y-82534471D01*
X169589333Y-83058280D02*
X169589333Y-82058280D01*
X170065523Y-82058280D01*
X170398857Y-82153519D02*
X170446476Y-82105900D01*
X170541714Y-82058280D01*
X170779809Y-82058280D01*
X170875047Y-82105900D01*
X170922666Y-82153519D01*
X170970285Y-82248757D01*
X170970285Y-82343995D01*
X170922666Y-82486852D01*
X170351238Y-83058280D01*
X170970285Y-83058280D01*
G04 #@! TO.C,F3*
X118284666Y-60634571D02*
X117951333Y-60634571D01*
X117951333Y-61158380D02*
X117951333Y-60158380D01*
X118427523Y-60158380D01*
X118713238Y-60158380D02*
X119332285Y-60158380D01*
X118998952Y-60539333D01*
X119141809Y-60539333D01*
X119237047Y-60586952D01*
X119284666Y-60634571D01*
X119332285Y-60729809D01*
X119332285Y-60967904D01*
X119284666Y-61063142D01*
X119237047Y-61110761D01*
X119141809Y-61158380D01*
X118856095Y-61158380D01*
X118760857Y-61110761D01*
X118713238Y-61063142D01*
G04 #@! TO.C,F4*
X132000666Y-56316571D02*
X131667333Y-56316571D01*
X131667333Y-56840380D02*
X131667333Y-55840380D01*
X132143523Y-55840380D01*
X132953047Y-56173714D02*
X132953047Y-56840380D01*
X132714952Y-55792761D02*
X132476857Y-56507047D01*
X133095904Y-56507047D01*
G04 #@! TO.C,R2*
X157073333Y-65724380D02*
X156740000Y-65248190D01*
X156501904Y-65724380D02*
X156501904Y-64724380D01*
X156882857Y-64724380D01*
X156978095Y-64772000D01*
X157025714Y-64819619D01*
X157073333Y-64914857D01*
X157073333Y-65057714D01*
X157025714Y-65152952D01*
X156978095Y-65200571D01*
X156882857Y-65248190D01*
X156501904Y-65248190D01*
X157454285Y-64819619D02*
X157501904Y-64772000D01*
X157597142Y-64724380D01*
X157835238Y-64724380D01*
X157930476Y-64772000D01*
X157978095Y-64819619D01*
X158025714Y-64914857D01*
X158025714Y-65010095D01*
X157978095Y-65152952D01*
X157406666Y-65724380D01*
X158025714Y-65724380D01*
X154749523Y-65674380D02*
X154178095Y-65674380D01*
X154463809Y-65674380D02*
X154463809Y-64674380D01*
X154368571Y-64817238D01*
X154273333Y-64912476D01*
X154178095Y-64960095D01*
X155368571Y-64674380D02*
X155463809Y-64674380D01*
X155559047Y-64722000D01*
X155606666Y-64769619D01*
X155654285Y-64864857D01*
X155701904Y-65055333D01*
X155701904Y-65293428D01*
X155654285Y-65483904D01*
X155606666Y-65579142D01*
X155559047Y-65626761D01*
X155463809Y-65674380D01*
X155368571Y-65674380D01*
X155273333Y-65626761D01*
X155225714Y-65579142D01*
X155178095Y-65483904D01*
X155130476Y-65293428D01*
X155130476Y-65055333D01*
X155178095Y-64864857D01*
X155225714Y-64769619D01*
X155273333Y-64722000D01*
X155368571Y-64674380D01*
G04 #@! TO.C,R3*
X154519333Y-76324380D02*
X154186000Y-75848190D01*
X153947904Y-76324380D02*
X153947904Y-75324380D01*
X154328857Y-75324380D01*
X154424095Y-75372000D01*
X154471714Y-75419619D01*
X154519333Y-75514857D01*
X154519333Y-75657714D01*
X154471714Y-75752952D01*
X154424095Y-75800571D01*
X154328857Y-75848190D01*
X153947904Y-75848190D01*
X154852666Y-75324380D02*
X155471714Y-75324380D01*
X155138380Y-75705333D01*
X155281238Y-75705333D01*
X155376476Y-75752952D01*
X155424095Y-75800571D01*
X155471714Y-75895809D01*
X155471714Y-76133904D01*
X155424095Y-76229142D01*
X155376476Y-76276761D01*
X155281238Y-76324380D01*
X154995523Y-76324380D01*
X154900285Y-76276761D01*
X154852666Y-76229142D01*
X157095523Y-76504380D02*
X156524095Y-76504380D01*
X156809809Y-76504380D02*
X156809809Y-75504380D01*
X156714571Y-75647238D01*
X156619333Y-75742476D01*
X156524095Y-75790095D01*
X157714571Y-75504380D02*
X157809809Y-75504380D01*
X157905047Y-75552000D01*
X157952666Y-75599619D01*
X158000285Y-75694857D01*
X158047904Y-75885333D01*
X158047904Y-76123428D01*
X158000285Y-76313904D01*
X157952666Y-76409142D01*
X157905047Y-76456761D01*
X157809809Y-76504380D01*
X157714571Y-76504380D01*
X157619333Y-76456761D01*
X157571714Y-76409142D01*
X157524095Y-76313904D01*
X157476476Y-76123428D01*
X157476476Y-75885333D01*
X157524095Y-75694857D01*
X157571714Y-75599619D01*
X157619333Y-75552000D01*
X157714571Y-75504380D01*
G04 #@! TO.C,J1*
X123701666Y-123061380D02*
X123701666Y-123775666D01*
X123654047Y-123918523D01*
X123558809Y-124013761D01*
X123415952Y-124061380D01*
X123320714Y-124061380D01*
X124701666Y-124061380D02*
X124130238Y-124061380D01*
X124415952Y-124061380D02*
X124415952Y-123061380D01*
X124320714Y-123204238D01*
X124225476Y-123299476D01*
X124130238Y-123347095D01*
G04 #@! TO.C,J2*
X153891666Y-123081380D02*
X153891666Y-123795666D01*
X153844047Y-123938523D01*
X153748809Y-124033761D01*
X153605952Y-124081380D01*
X153510714Y-124081380D01*
X154320238Y-123176619D02*
X154367857Y-123129000D01*
X154463095Y-123081380D01*
X154701190Y-123081380D01*
X154796428Y-123129000D01*
X154844047Y-123176619D01*
X154891666Y-123271857D01*
X154891666Y-123367095D01*
X154844047Y-123509952D01*
X154272619Y-124081380D01*
X154891666Y-124081380D01*
G04 #@! TO.C,J3*
X183868666Y-123096380D02*
X183868666Y-123810666D01*
X183821047Y-123953523D01*
X183725809Y-124048761D01*
X183582952Y-124096380D01*
X183487714Y-124096380D01*
X184249619Y-123096380D02*
X184868666Y-123096380D01*
X184535333Y-123477333D01*
X184678190Y-123477333D01*
X184773428Y-123524952D01*
X184821047Y-123572571D01*
X184868666Y-123667809D01*
X184868666Y-123905904D01*
X184821047Y-124001142D01*
X184773428Y-124048761D01*
X184678190Y-124096380D01*
X184392476Y-124096380D01*
X184297238Y-124048761D01*
X184249619Y-124001142D01*
G04 #@! TO.C,J4*
X123716666Y-54420780D02*
X123716666Y-55135066D01*
X123669047Y-55277923D01*
X123573809Y-55373161D01*
X123430952Y-55420780D01*
X123335714Y-55420780D01*
X124621428Y-54754114D02*
X124621428Y-55420780D01*
X124383333Y-54373161D02*
X124145238Y-55087447D01*
X124764285Y-55087447D01*
G04 #@! TO.C,J5*
X153835666Y-54405580D02*
X153835666Y-55119866D01*
X153788047Y-55262723D01*
X153692809Y-55357961D01*
X153549952Y-55405580D01*
X153454714Y-55405580D01*
X154788047Y-54405580D02*
X154311857Y-54405580D01*
X154264238Y-54881771D01*
X154311857Y-54834152D01*
X154407095Y-54786533D01*
X154645190Y-54786533D01*
X154740428Y-54834152D01*
X154788047Y-54881771D01*
X154835666Y-54977009D01*
X154835666Y-55215104D01*
X154788047Y-55310342D01*
X154740428Y-55357961D01*
X154645190Y-55405580D01*
X154407095Y-55405580D01*
X154311857Y-55357961D01*
X154264238Y-55310342D01*
G04 #@! TO.C,J6*
X183975666Y-54446180D02*
X183975666Y-55160466D01*
X183928047Y-55303323D01*
X183832809Y-55398561D01*
X183689952Y-55446180D01*
X183594714Y-55446180D01*
X184880428Y-54446180D02*
X184689952Y-54446180D01*
X184594714Y-54493800D01*
X184547095Y-54541419D01*
X184451857Y-54684276D01*
X184404238Y-54874752D01*
X184404238Y-55255704D01*
X184451857Y-55350942D01*
X184499476Y-55398561D01*
X184594714Y-55446180D01*
X184785190Y-55446180D01*
X184880428Y-55398561D01*
X184928047Y-55350942D01*
X184975666Y-55255704D01*
X184975666Y-55017609D01*
X184928047Y-54922371D01*
X184880428Y-54874752D01*
X184785190Y-54827133D01*
X184594714Y-54827133D01*
X184499476Y-54874752D01*
X184451857Y-54922371D01*
X184404238Y-55017609D01*
G04 #@! TO.C,F5*
X97649666Y-55922071D02*
X97316333Y-55922071D01*
X97316333Y-56445880D02*
X97316333Y-55445880D01*
X97792523Y-55445880D01*
X98649666Y-55445880D02*
X98173476Y-55445880D01*
X98125857Y-55922071D01*
X98173476Y-55874452D01*
X98268714Y-55826833D01*
X98506809Y-55826833D01*
X98602047Y-55874452D01*
X98649666Y-55922071D01*
X98697285Y-56017309D01*
X98697285Y-56255404D01*
X98649666Y-56350642D01*
X98602047Y-56398261D01*
X98506809Y-56445880D01*
X98268714Y-56445880D01*
X98173476Y-56398261D01*
X98125857Y-56350642D01*
G04 #@! TO.C,Q1*
X178720761Y-92191719D02*
X178625523Y-92144100D01*
X178530285Y-92048861D01*
X178387428Y-91906004D01*
X178292190Y-91858385D01*
X178196952Y-91858385D01*
X178244571Y-92096480D02*
X178149333Y-92048861D01*
X178054095Y-91953623D01*
X178006476Y-91763147D01*
X178006476Y-91429814D01*
X178054095Y-91239338D01*
X178149333Y-91144100D01*
X178244571Y-91096480D01*
X178435047Y-91096480D01*
X178530285Y-91144100D01*
X178625523Y-91239338D01*
X178673142Y-91429814D01*
X178673142Y-91763147D01*
X178625523Y-91953623D01*
X178530285Y-92048861D01*
X178435047Y-92096480D01*
X178244571Y-92096480D01*
X179625523Y-92096480D02*
X179054095Y-92096480D01*
X179339809Y-92096480D02*
X179339809Y-91096480D01*
X179244571Y-91239338D01*
X179149333Y-91334576D01*
X179054095Y-91382195D01*
G04 #@! TO.C,R13*
X151282142Y-82256980D02*
X150948809Y-81780790D01*
X150710714Y-82256980D02*
X150710714Y-81256980D01*
X151091666Y-81256980D01*
X151186904Y-81304600D01*
X151234523Y-81352219D01*
X151282142Y-81447457D01*
X151282142Y-81590314D01*
X151234523Y-81685552D01*
X151186904Y-81733171D01*
X151091666Y-81780790D01*
X150710714Y-81780790D01*
X152234523Y-82256980D02*
X151663095Y-82256980D01*
X151948809Y-82256980D02*
X151948809Y-81256980D01*
X151853571Y-81399838D01*
X151758333Y-81495076D01*
X151663095Y-81542695D01*
X152567857Y-81256980D02*
X153186904Y-81256980D01*
X152853571Y-81637933D01*
X152996428Y-81637933D01*
X153091666Y-81685552D01*
X153139285Y-81733171D01*
X153186904Y-81828409D01*
X153186904Y-82066504D01*
X153139285Y-82161742D01*
X153091666Y-82209361D01*
X152996428Y-82256980D01*
X152710714Y-82256980D01*
X152615476Y-82209361D01*
X152567857Y-82161742D01*
G04 #@! TO.C,R14*
X96361842Y-63900180D02*
X96028509Y-63423990D01*
X95790414Y-63900180D02*
X95790414Y-62900180D01*
X96171366Y-62900180D01*
X96266604Y-62947800D01*
X96314223Y-62995419D01*
X96361842Y-63090657D01*
X96361842Y-63233514D01*
X96314223Y-63328752D01*
X96266604Y-63376371D01*
X96171366Y-63423990D01*
X95790414Y-63423990D01*
X97314223Y-63900180D02*
X96742795Y-63900180D01*
X97028509Y-63900180D02*
X97028509Y-62900180D01*
X96933271Y-63043038D01*
X96838033Y-63138276D01*
X96742795Y-63185895D01*
X98171366Y-63233514D02*
X98171366Y-63900180D01*
X97933271Y-62852561D02*
X97695176Y-63566847D01*
X98314223Y-63566847D01*
X96338033Y-67540180D02*
X95766604Y-67540180D01*
X96052319Y-67540180D02*
X96052319Y-66540180D01*
X95957080Y-66683038D01*
X95861842Y-66778276D01*
X95766604Y-66825895D01*
X96718985Y-66635419D02*
X96766604Y-66587800D01*
X96861842Y-66540180D01*
X97099938Y-66540180D01*
X97195176Y-66587800D01*
X97242795Y-66635419D01*
X97290414Y-66730657D01*
X97290414Y-66825895D01*
X97242795Y-66968752D01*
X96671366Y-67540180D01*
X97290414Y-67540180D01*
X98195176Y-66540180D02*
X97718985Y-66540180D01*
X97671366Y-67016371D01*
X97718985Y-66968752D01*
X97814223Y-66921133D01*
X98052319Y-66921133D01*
X98147557Y-66968752D01*
X98195176Y-67016371D01*
X98242795Y-67111609D01*
X98242795Y-67349704D01*
X98195176Y-67444942D01*
X98147557Y-67492561D01*
X98052319Y-67540180D01*
X97814223Y-67540180D01*
X97718985Y-67492561D01*
X97671366Y-67444942D01*
G04 #@! TO.C,J7*
X98818066Y-72042180D02*
X98818066Y-72756466D01*
X98770447Y-72899323D01*
X98675209Y-72994561D01*
X98532352Y-73042180D01*
X98437114Y-73042180D01*
X99199019Y-72042180D02*
X99865685Y-72042180D01*
X99437114Y-73042180D01*
G04 #@! TO.C,R15*
X182509142Y-59770180D02*
X182175809Y-59293990D01*
X181937714Y-59770180D02*
X181937714Y-58770180D01*
X182318666Y-58770180D01*
X182413904Y-58817800D01*
X182461523Y-58865419D01*
X182509142Y-58960657D01*
X182509142Y-59103514D01*
X182461523Y-59198752D01*
X182413904Y-59246371D01*
X182318666Y-59293990D01*
X181937714Y-59293990D01*
X183461523Y-59770180D02*
X182890095Y-59770180D01*
X183175809Y-59770180D02*
X183175809Y-58770180D01*
X183080571Y-58913038D01*
X182985333Y-59008276D01*
X182890095Y-59055895D01*
X184366285Y-58770180D02*
X183890095Y-58770180D01*
X183842476Y-59246371D01*
X183890095Y-59198752D01*
X183985333Y-59151133D01*
X184223428Y-59151133D01*
X184318666Y-59198752D01*
X184366285Y-59246371D01*
X184413904Y-59341609D01*
X184413904Y-59579704D01*
X184366285Y-59674942D01*
X184318666Y-59722561D01*
X184223428Y-59770180D01*
X183985333Y-59770180D01*
X183890095Y-59722561D01*
X183842476Y-59674942D01*
G04 #@! TO.C,R16*
X182570142Y-64591080D02*
X182236809Y-64114890D01*
X181998714Y-64591080D02*
X181998714Y-63591080D01*
X182379666Y-63591080D01*
X182474904Y-63638700D01*
X182522523Y-63686319D01*
X182570142Y-63781557D01*
X182570142Y-63924414D01*
X182522523Y-64019652D01*
X182474904Y-64067271D01*
X182379666Y-64114890D01*
X181998714Y-64114890D01*
X183522523Y-64591080D02*
X182951095Y-64591080D01*
X183236809Y-64591080D02*
X183236809Y-63591080D01*
X183141571Y-63733938D01*
X183046333Y-63829176D01*
X182951095Y-63876795D01*
X184379666Y-63591080D02*
X184189190Y-63591080D01*
X184093952Y-63638700D01*
X184046333Y-63686319D01*
X183951095Y-63829176D01*
X183903476Y-64019652D01*
X183903476Y-64400604D01*
X183951095Y-64495842D01*
X183998714Y-64543461D01*
X184093952Y-64591080D01*
X184284428Y-64591080D01*
X184379666Y-64543461D01*
X184427285Y-64495842D01*
X184474904Y-64400604D01*
X184474904Y-64162509D01*
X184427285Y-64067271D01*
X184379666Y-64019652D01*
X184284428Y-63972033D01*
X184093952Y-63972033D01*
X183998714Y-64019652D01*
X183951095Y-64067271D01*
X183903476Y-64162509D01*
G04 #@! TO.C,SW1*
X163775666Y-65634561D02*
X163918523Y-65682180D01*
X164156619Y-65682180D01*
X164251857Y-65634561D01*
X164299476Y-65586942D01*
X164347095Y-65491704D01*
X164347095Y-65396466D01*
X164299476Y-65301228D01*
X164251857Y-65253609D01*
X164156619Y-65205990D01*
X163966142Y-65158371D01*
X163870904Y-65110752D01*
X163823285Y-65063133D01*
X163775666Y-64967895D01*
X163775666Y-64872657D01*
X163823285Y-64777419D01*
X163870904Y-64729800D01*
X163966142Y-64682180D01*
X164204238Y-64682180D01*
X164347095Y-64729800D01*
X164680428Y-64682180D02*
X164918523Y-65682180D01*
X165109000Y-64967895D01*
X165299476Y-65682180D01*
X165537571Y-64682180D01*
X166442333Y-65682180D02*
X165870904Y-65682180D01*
X166156619Y-65682180D02*
X166156619Y-64682180D01*
X166061380Y-64825038D01*
X165966142Y-64920276D01*
X165870904Y-64967895D01*
G04 #@! TO.C,SW2*
X173542666Y-65651161D02*
X173685523Y-65698780D01*
X173923619Y-65698780D01*
X174018857Y-65651161D01*
X174066476Y-65603542D01*
X174114095Y-65508304D01*
X174114095Y-65413066D01*
X174066476Y-65317828D01*
X174018857Y-65270209D01*
X173923619Y-65222590D01*
X173733142Y-65174971D01*
X173637904Y-65127352D01*
X173590285Y-65079733D01*
X173542666Y-64984495D01*
X173542666Y-64889257D01*
X173590285Y-64794019D01*
X173637904Y-64746400D01*
X173733142Y-64698780D01*
X173971238Y-64698780D01*
X174114095Y-64746400D01*
X174447428Y-64698780D02*
X174685523Y-65698780D01*
X174876000Y-64984495D01*
X175066476Y-65698780D01*
X175304571Y-64698780D01*
X175637904Y-64794019D02*
X175685523Y-64746400D01*
X175780761Y-64698780D01*
X176018857Y-64698780D01*
X176114095Y-64746400D01*
X176161714Y-64794019D01*
X176209333Y-64889257D01*
X176209333Y-64984495D01*
X176161714Y-65127352D01*
X175590285Y-65698780D01*
X176209333Y-65698780D01*
G04 #@! TO.C,D4*
X101943904Y-64042480D02*
X101943904Y-63042480D01*
X102182000Y-63042480D01*
X102324857Y-63090100D01*
X102420095Y-63185338D01*
X102467714Y-63280576D01*
X102515333Y-63471052D01*
X102515333Y-63613909D01*
X102467714Y-63804385D01*
X102420095Y-63899623D01*
X102324857Y-63994861D01*
X102182000Y-64042480D01*
X101943904Y-64042480D01*
X103372476Y-63375814D02*
X103372476Y-64042480D01*
X103134380Y-62994861D02*
X102896285Y-63709147D01*
X103515333Y-63709147D01*
G04 #@! TD*
M02*
