M48
;DRILL file {KiCad 5.0.2-bee76a0~70~ubuntu18.10.1} date Tue 10 Sep 2019 08:14:04 AM EDT
;FORMAT={-:-/ absolute / inch / decimal}
FMAT,2
INCH,TZ
T1C0.0157
T2C0.0315
T3C0.0394
T4C0.0394
T5C0.0551
%
G90
G05
T1
X3.9773Y-4.2002
X4.3647Y-4.4089
X4.3692Y-4.4597
X4.6133Y-3.3801
X4.725Y-4.482
X4.7343Y-4.2806
X4.795Y-2.4361
X4.8089Y-4.3546
X4.9234Y-2.7994
X5.014Y-4.3266
X5.0609Y-4.2016
X5.0926Y-3.6477
X5.0927Y-3.5966
X5.1017Y-3.7795
X5.1023Y-3.7375
X5.1252Y-3.805
X5.126Y-4.3473
X5.1655Y-3.2827
X5.1843Y-3.1828
X5.1985Y-4.0216
X5.2441Y-3.4217
X5.2671Y-2.8665
X5.2698Y-2.9373
X5.3088Y-3.9429
X5.3348Y-2.9361
X5.345Y-3.7938
X5.3638Y-3.165
X5.3785Y-4.3277
X5.386Y-4.5382
X5.3939Y-4.5838
X5.4063Y-4.3615
X5.4268Y-3.7056
X5.429Y-3.1823
X5.4344Y-3.3161
X5.4432Y-3.2817
X5.4636Y-2.3518
X5.4837Y-3.3296
X5.4911Y-4.1864
X5.5081Y-3.2949
X5.532Y-3.1829
X5.536Y-3.3553
X5.5943Y-3.1642
X5.6443Y-4.41
X5.6773Y-3.2746
X5.6842Y-4.4545
X5.7146Y-3.6005
X5.7211Y-3.3661
X5.7405Y-3.7033
X5.7454Y-4.2977
X5.8026Y-4.4692
X5.8264Y-4.6178
X5.8862Y-3.4951
X5.9326Y-3.5421
X5.9909Y-4.0506
X6.0591Y-4.1816
X6.1758Y-3.5273
X6.2158Y-3.5663
X6.2332Y-4.31
X6.2408Y-4.6424
X6.4183Y-4.0764
X6.4466Y-2.3192
X6.4633Y-2.4238
X6.5161Y-4.4438
X6.5358Y-4.3612
X6.5644Y-4.4486
X6.6143Y-2.333
X6.6244Y-2.5299
X6.7056Y-3.6938
X6.728Y-4.2056
X6.7726Y-4.5194
X6.7881Y-4.4453
X7.0132Y-3.322
T2
X3.7536Y-2.9496
X3.7536Y-3.0496
X3.7536Y-3.1496
X3.7536Y-3.2496
X3.7536Y-3.3496
X3.7536Y-3.4496
X3.7536Y-3.5496
X3.7536Y-3.6496
X3.7536Y-3.7496
X3.7536Y-3.8496
X4.0536Y-2.9496
X4.0536Y-3.0496
X4.0536Y-3.1496
X4.0536Y-3.2496
X4.0536Y-3.3496
X4.0536Y-3.4496
X4.0536Y-3.5496
X4.0536Y-3.6496
X4.0536Y-3.7496
X4.0536Y-3.8496
T3
X6.2058Y-3.7342
X6.2058Y-3.8342
X6.3058Y-3.7342
X6.3058Y-3.8342
X6.4058Y-3.7342
X6.4058Y-3.8342
X6.5058Y-3.7342
X6.5058Y-3.8342
X6.6058Y-3.7342
X6.6058Y-3.8342
X7.2862Y-3.0912
X7.2862Y-3.1912
X7.2862Y-3.2912
X7.2862Y-3.3912
X7.2862Y-3.4912
X7.2862Y-3.5912
T4
X4.4154Y-3.0998
X4.5154Y-3.0998
X4.6154Y-3.0998
T5
X4.6752Y-1.8472
X4.6752Y-2.0617
X4.8799Y-2.0637
X4.9882Y-2.2369
X5.8632Y-4.9696
X5.8632Y-5.1842
X6.0679Y-4.9677
X6.1762Y-4.7944
X5.861Y-1.8466
X5.861Y-2.0611
X6.0657Y-2.0631
X6.174Y-2.2363
X4.6746Y-4.9689
X4.6746Y-5.1834
X4.8793Y-4.9669
X4.9876Y-4.7937
X7.0476Y-1.8482
X7.0476Y-2.0627
X7.2523Y-2.0647
X7.3606Y-2.2379
X7.0434Y-4.9702
X7.0434Y-5.1848
X7.2481Y-4.9683
X7.3564Y-4.795
T0
M30
