M48
;DRILL file {KiCad 4.0.7-e2-6376~58~ubuntu16.04.1} date Wed Aug  1 19:42:10 2018
;FORMAT={-:-/ absolute / inch / decimal}
FMAT,2
INCH,TZ
T1C0.016
T2C0.039
T3C0.039
T4C0.055
%
G90
G05
M72
T1
X4.0993Y-4.2297
X4.1021Y-4.625
X4.1351Y-3.5347
X4.2572Y-4.6147
X4.2984Y-4.4572
X4.3373Y-4.3321
X4.3517Y-4.3932
X4.7424Y-4.2781
X4.9443Y-3.912
X4.9451Y-4.0076
X4.9694Y-2.7212
X4.9937Y-3.7709
X5.0146Y-4.4284
X5.0233Y-4.3751
X5.0476Y-3.2746
X5.0922Y-3.8459
X5.0931Y-3.3911
X5.1006Y-4.5732
X5.1088Y-3.7368
X5.1175Y-3.3239
X5.1255Y-3.4068
X5.1392Y-3.3469
X5.1392Y-3.7614
X5.1642Y-3.3246
X5.165Y-3.1824
X5.1739Y-3.7678
X5.1834Y-3.5219
X5.2323Y-3.5642
X5.2383Y-3.381
X5.248Y-2.983
X5.2546Y-3.4305
X5.2808Y-3.0165
X5.2824Y-3.8043
X5.2834Y-3.9036
X5.3076Y-3.0444
X5.3097Y-3.6308
X5.361Y-3.1771
X5.3611Y-3.1253
X5.3875Y-3.5465
X5.3997Y-3.1733
X5.4069Y-4.3304
X5.4076Y-3.3609
X5.413Y-3.6071
X5.4587Y-3.3871
X5.4724Y-3.3292
X5.4835Y-3.6961
X5.4836Y-3.9278
X5.4869Y-3.4453
X5.5004Y-3.4799
X5.5128Y-4.1713
X5.5163Y-4.3727
X5.5198Y-3.4166
X5.5233Y-3.0869
X5.5707Y-2.4422
X5.5717Y-3.5292
X5.5729Y-3.3214
X5.5986Y-3.9175
X5.6157Y-3.378
X5.6206Y-3.2883
X5.6547Y-3.1899
X5.6909Y-4.4289
X5.7147Y-3.377
X5.7151Y-3.4183
X5.7936Y-3.5306
X5.7998Y-4.4801
X5.8011Y-3.5652
X5.8393Y-4.4167
X5.8779Y-3.7758
X5.8793Y-4.3878
X5.8845Y-3.4058
X5.9137Y-3.3113
X5.9783Y-3.3384
X6.0352Y-4.55
X6.1308Y-3.8243
X6.1791Y-3.2399
X6.1871Y-4.692
X6.1888Y-4.2539
X6.2727Y-4.2628
X6.4029Y-4.3902
X6.4909Y-2.4
X6.5159Y-4.4829
X6.5193Y-4.4233
X6.5302Y-4.2534
X6.9226Y-2.3993
X7.0706Y-4.3833
T2
X3.622Y-2.9528
X3.622Y-3.0528
X3.622Y-3.1528
X3.622Y-3.2528
X3.622Y-3.3528
X3.622Y-3.4528
X3.622Y-3.5528
X3.622Y-3.6528
X3.622Y-3.7528
X3.622Y-3.8528
X3.8571Y-2.5665
X3.8571Y-2.6665
X3.8571Y-2.7665
X3.8571Y-2.8665
X3.8571Y-2.9665
X3.8571Y-3.0665
X3.8571Y-3.1665
X3.8571Y-3.2665
X3.8571Y-3.3665
X3.8571Y-3.4665
X3.8571Y-3.5665
X3.9Y-3.8701
X4.Y-3.8701
X4.1Y-3.8701
X4.2Y-3.8701
X4.3Y-3.8701
X4.4Y-3.8701
X4.5Y-3.8701
X4.6Y-3.8701
X4.7Y-3.8701
X6.3098Y-3.685
X6.3098Y-3.785
X6.4098Y-3.685
X6.4098Y-3.785
X6.5098Y-3.685
X6.5098Y-3.785
X6.6098Y-3.685
X6.6098Y-3.785
X6.7098Y-3.685
X6.7098Y-3.785
X7.1949Y-3.3051
X7.1949Y-3.4051
X7.1949Y-3.5051
X7.1949Y-3.6051
X7.1949Y-3.7051
X7.1949Y-3.8051
T3
X4.2051Y-3.05
X4.3051Y-3.05
X4.4051Y-3.05
T4
X4.6752Y-1.8445
X4.6752Y-2.0591
X4.6772Y-4.9685
X4.6772Y-5.1831
X4.8799Y-2.061
X4.8819Y-4.9665
X4.9882Y-2.2343
X4.9902Y-4.7933
X5.8602Y-1.8445
X5.8602Y-2.0591
X5.8622Y-4.9685
X5.8622Y-5.1831
X6.065Y-2.061
X6.0669Y-4.9665
X6.1732Y-2.2343
X6.1752Y-4.7933
X7.0453Y-1.8445
X7.0453Y-2.0591
X7.0472Y-4.9685
X7.0472Y-5.1831
X7.25Y-2.061
X7.252Y-4.9665
X7.3583Y-2.2343
X7.3602Y-4.7933
T0
M30
